<?xml version="1.0" encoding="utf-8"?>
<!-- Generator: Adobe Illustrator 19.2.1, SVG Export Plug-In . SVG Version: 6.00 Build 0)  -->
<svg version="1.1" id="Слой_1" xmlns="http://www.w3.org/2000/svg" xmlns:xlink="http://www.w3.org/1999/xlink" x="0px" y="0px"
	 width="115px" height="48px" viewBox="0 0 115 48" enable-background="new 0 0 115 48" xml:space="preserve">
<style type="text/css">
	.st0{fill-rule:evenodd;clip-rule:evenodd;}
</style>
<path class="st0" d="M34.182,23.114c-0.167-0.025-1.359-0.608-1.6-0.729c-2.965-1.493-3.827-3.085-3.975-3.182
	c-0.025,0.853-0.037,0.84,0.212,1.044c1.235,1.007,2.11,1.622,3.617,2.246C32.878,22.676,33.736,23.037,34.182,23.114 M34.47,22.852
	c-0.3-0.062-1.545-0.783-1.852-0.976c-0.63-0.395-1.672-1.241-2.165-1.837c-0.35-0.423-0.437-0.482-0.805-1.013
	c-0.636-0.917-0.771-1.45-1.035-1.85c-0.017,0.219-0.007,0.459-0.008,0.681c-0.001,0.328-0.046,0.373,0.115,0.607
	c0.727,1.058,1.393,1.823,2.445,2.646C32.117,21.856,33.342,22.466,34.47,22.852z M34.373,22.467
	c-0.936-0.513-1.131-0.623-1.966-1.29c-1.42-1.135-2.631-3.108-3.32-4.872c-0.163-0.419-0.296-0.722-0.48-1.128
	c-0.006,0.262-0.002,0.527-0.002,0.789c-0.001,0.405-0.025,0.373,0.131,0.7c0.81,1.702,1.727,3.023,3.098,4.248
	C32.331,21.358,33.772,22.354,34.373,22.467z M25.543,19.536c0.307-0.183,1.228-1.806,1.431-2.213
	c0.221-0.444,1.002-2.144,1.026-2.647c-0.258-0.104-0.664-0.517-0.898-0.595c-0.516-0.172-0.276-0.136-0.455-0.31
	c-0.07-0.069-0.08-0.035-0.157-0.097c-0.115-0.093-0.054-0.147-0.23-0.278c-0.141-0.105-0.453-0.341-0.603-0.408
	c-0.071,1.009,0.181,1.223,0.21,1.564c0.04,0.464-0.123,1.134-0.177,1.595c-0.064,0.547,0.023,1.088-0.041,1.669
	C25.591,18.347,25.526,18.97,25.543,19.536z M24.783,9.164l0.249,0.07c0.056-0.131,0.086-0.305,0.13-0.452
	c0.05-0.17,0.112-0.303,0.162-0.447c-0.598-0.041-0.331,0.024-0.337,0.242C24.978,8.841,24.689,8.794,24.783,9.164z M24.328,7.382
	h-0.392l-0.129,0.495c-0.171,0.008-0.382-0.028-0.513,0.051c0.04,0.058-0.014,0.016,0.075,0.067l0.393,0.121
	c-0.033,0.199-0.111,0.119-0.067,0.383c0.036,0.219,0.38,0.454-0.021,0.65c-0.112,0.055-0.231,0.112-0.335,0.169l0.275,0.291
	c-0.587,0.49-0.795-0.383-1.674,1.296c-1.083,2.068,0.768,1.097,0.8,1.09c-0.06,0.433-0.051,0.863-0.035,1.316
	c0.009,0.236,0.03,0.466,0.04,0.69c0.026,0.54-0.025,0.391,0.237,0.464c0.008,0.002,0.022,0.005,0.032,0.01
	c-0.268,1.593,0.593,2.986,0.486,4.572c-0.054,0.804-0.051,1.66-0.156,2.439c-0.05,0.374-1.295,0.741-1.608,0.955
	c0.121,0.277,0.732,0.768,1.041,0.913c0.591,0.275,1.082,0.201,1.787,0.201h8.002c0.671,0,1.246,0.074,1.805-0.181
	c0.328-0.15,0.984-0.676,1.08-0.933c-0.45-0.317-1.087-0.266-2.848-1.818l-0.755-0.809c-0.835-1.049-1.211-1.618-1.805-2.85
	c-0.127-0.262-0.394-0.825-0.451-1.092l10.072,7.366c0.311,0.226,0.323,0.352,0.851,0.311c-0.53-0.422-1.069-0.809-1.607-1.226
	c-0.537-0.416-1.077-0.814-1.639-1.235c-2.582-1.934-5.233-3.996-7.82-5.891c-0.206-0.151-0.184-0.185-0.266-0.462
	c-0.234-0.785-0.4-1.536-0.564-2.343c-0.057,0.075-0.426,1.765-0.435,1.816c-0.17-0.055-0.767-0.536-0.782-0.566
	c-0.021-0.217-0.001-0.493-0.026-0.739c-0.147-1.449-0.618-1.163-1.007-2.116c-0.077-0.188-0.166-0.386-0.257-0.545
	c-0.342-0.604-0.602-0.46-0.882-0.685c-0.064-0.052-0.018,0.094,0.037-0.08c0.042-0.134,0.041-0.367,0.128-0.59l-0.027,0.635
	l0.225,0.013c0.023-0.347,0.001-0.667-0.039-0.985c-0.027-0.215,0.001-0.243-0.156-0.357c-0.139-0.101-0.197-0.116-0.32-0.187
	l0.033-0.397C24.677,7.427,24.417,7.431,24.328,7.382z M32.876,24.529c-0.815,0.001-1.697-0.063-2.537-0.026
	c-0.851,0.037-1.688,0.024-2.537,0.065c-0.814,0.039-1.638,0.075-2.45,0.128c-0.812,0.053-1.636,0.154-2.437,0.194
	c-2.729,0.137-5.93,0.035-8.645-0.475c-0.32-0.06-0.82-0.203-1.071-0.236c0.728,0.066,1.552,0.18,2.336,0.222
	c2.54,0.136,5.045,0.112,7.566-0.019c2.977-0.155,4.407-0.282,7.424-0.09C31.224,24.337,32.268,24.388,32.876,24.529 M27.314,25.473
	c-0.197,0.036-0.674,0.205-1.127,0.285c-0.41,0.073-0.824,0.128-1.229,0.182c-2.04,0.275-5.194,0.265-7.185-0.355
	c-0.092-0.029-0.181-0.056-0.277-0.09l-0.185-0.079c-0.075-0.049-0.024-0.008-0.072-0.06c1.189,0.147,1.197,0.16,2.452,0.229
	c0.875,0.048,1.745,0.019,2.619,0.03c1.209,0.016,2.607-0.012,3.809-0.072C26.464,25.525,27.023,25.459,27.314,25.473 M34.081,21.31
	c0.346,0.1,0.958,0.478,0.836-0.355c-0.066-0.453-0.27-0.791-0.372-1.154c0.032,0.087,0.249,0.412,0.316,0.524
	C36.753,23.512,34.251,21.601,34.081,21.31 M23.119,21.304c-0.032,0.043-0.02,0.028-0.058,0.068
	c-0.168,0.179-1.795,1.484-1.381,0.258c0.105-0.31,0.311-0.712,0.467-0.987c0.079-0.139,0.498-0.81,0.501-0.868
	c-0.005,0.13-0.305,0.673-0.375,1.179C22.165,21.739,22.705,21.46,23.119,21.304 M35.476,45.86v-0.336
	c-0.025,0.011-0.054,0.021-0.092,0.031c-0.178,0.055-0.36,0.073-0.541,0.091c-0.223,0.022-0.446,0.044-0.65,0.137h0
	c-0.087,0.039-0.156,0.097-0.201,0.169c-0.046,0.072-0.071,0.16-0.071,0.259c0,0.159,0.058,0.288,0.163,0.375l0,0
	c0.107,0.09,0.266,0.141,0.464,0.141c0.269,0,0.503-0.092,0.668-0.247C35.377,46.326,35.476,46.11,35.476,45.86 M35.996,46.666
	c0.016-0.003,0.038-0.008,0.068-0.015l0.087-0.021v0.09v0.168v0.05l-0.047,0.017c-0.041,0.014-0.079,0.024-0.117,0.029
	c-0.038,0.005-0.077,0.007-0.121,0.007c-0.142,0-0.238-0.035-0.301-0.126c-0.044-0.064-0.067-0.154-0.075-0.279
	c-0.09,0.126-0.192,0.225-0.312,0.3c-0.181,0.113-0.399,0.168-0.669,0.168c-0.295,0-0.532-0.075-0.697-0.215
	c-0.168-0.142-0.259-0.348-0.259-0.605c0-0.332,0.142-0.546,0.354-0.683v0c0.204-0.132,0.472-0.189,0.738-0.211
	c0.35-0.029,0.544-0.046,0.654-0.068c0.092-0.019,0.12-0.042,0.146-0.082l0.001-0.001c0.008-0.013,0.015-0.042,0.019-0.08
	c0.004-0.044,0.006-0.1,0.006-0.159c0-0.179-0.058-0.315-0.169-0.405c-0.115-0.094-0.291-0.143-0.521-0.143
	c-0.23,0-0.407,0.055-0.529,0.163c-0.122,0.108-0.193,0.273-0.213,0.49l-0.006,0.065h-0.065H33.77h-0.075l0.005-0.075
	c0.02-0.31,0.129-0.55,0.318-0.714c0.188-0.163,0.453-0.248,0.785-0.248c0.182,0,0.348,0.027,0.491,0.079h0
	c0.145,0.053,0.267,0.131,0.358,0.233v0c0.17,0.193,0.17,0.417,0.17,0.648v0.022v1.388c0,0.071,0,0.136,0.018,0.174
	c0.012,0.027,0.042,0.044,0.106,0.044C35.964,46.67,35.98,46.669,35.996,46.666L35.996,46.666z M32.193,44.155h0.209h0.071v0.071
	v2.682v0.07h-0.071h-0.209h-0.071v-0.07v-2.682v-0.071H32.193z M32.193,43.107h0.209h0.071v0.071v0.529v0.07h-0.071h-0.209h-0.071
	v-0.07v-0.529v-0.071H32.193z M30.522,44.314c0.182-0.125,0.408-0.18,0.691-0.18h0.071v0.071v0.215v0.071h-0.071h-0.079
	c-0.141,0-0.272,0.029-0.385,0.085c-0.114,0.056-0.214,0.139-0.297,0.248c-0.1,0.134-0.153,0.28-0.18,0.433
	c-0.028,0.156-0.031,0.324-0.031,0.494v1.158v0.07H30.17h-0.21H29.89v-0.07v-2.682v-0.071h0.071h0.204h0.071v0.071v0.398
	C30.316,44.493,30.41,44.391,30.522,44.314L30.522,44.314z M26.698,45.355h1.808c-0.013-0.252-0.096-0.496-0.252-0.673
	c-0.145-0.164-0.356-0.271-0.634-0.271c-0.281,0-0.488,0.099-0.634,0.257C26.825,44.841,26.735,45.087,26.698,45.355z
	 M28.557,45.926h0.21h0.083l-0.013,0.082c-0.051,0.317-0.192,0.587-0.407,0.775c-0.206,0.18-0.48,0.285-0.81,0.285
	c-0.391,0-0.715-0.147-0.941-0.407c-0.223-0.257-0.35-0.624-0.35-1.067c0-0.444,0.131-0.82,0.356-1.086
	c0.228-0.269,0.552-0.425,0.935-0.425c0.397,0,0.696,0.153,0.903,0.397c0.229,0.27,0.341,0.652,0.341,1.057v0.073v0.071h-0.071
	H26.69c0.011,0.292,0.094,0.573,0.26,0.772c0.15,0.181,0.372,0.296,0.675,0.296c0.228,0,0.419-0.069,0.564-0.196
	c0.147-0.13,0.25-0.323,0.299-0.569l0.011-0.057H28.557z M24.918,44.155h0.506h0.071v0.071v0.183v0.071h-0.071h-0.506v1.747v0.022h0
	c0,0.228-0.001,0.41,0.286,0.41c0.026,0,0.055-0.001,0.086-0.004l0-0.001c0.038-0.003,0.078-0.009,0.123-0.015l0.081-0.013v0.082
	v0.194v0.062l-0.061,0.008c-0.06,0.008-0.103,0.014-0.139,0.017v0c-0.042,0.004-0.077,0.005-0.122,0.005
	c-0.608,0-0.606-0.348-0.605-0.786v-0.065V44.48H24.14H24.07v-0.071v-0.183v-0.071h0.071h0.427v-0.773v-0.07h0.071h0.209h0.071v0.07
	V44.155z M22.802,45.86v-0.336c-0.025,0.011-0.054,0.021-0.092,0.031c-0.178,0.055-0.36,0.073-0.541,0.091
	c-0.223,0.022-0.446,0.044-0.65,0.137h0c-0.087,0.039-0.156,0.097-0.201,0.169c-0.046,0.072-0.071,0.16-0.071,0.259
	c0,0.159,0.058,0.288,0.163,0.375l0,0c0.108,0.09,0.266,0.141,0.464,0.141c0.27,0,0.503-0.092,0.668-0.247
	C22.704,46.326,22.802,46.11,22.802,45.86z M23.322,46.666c0.016-0.003,0.037-0.008,0.068-0.015l0.087-0.021v0.09v0.168v0.05
	l-0.047,0.017c-0.041,0.014-0.078,0.024-0.117,0.029c-0.038,0.005-0.076,0.007-0.121,0.007c-0.142,0-0.238-0.035-0.301-0.126
	c-0.044-0.064-0.067-0.154-0.075-0.279c-0.09,0.126-0.192,0.225-0.312,0.3c-0.181,0.113-0.399,0.168-0.67,0.168
	c-0.295,0-0.532-0.075-0.697-0.215c-0.168-0.142-0.259-0.348-0.259-0.605c0-0.332,0.141-0.546,0.354-0.683v0
	c0.204-0.132,0.472-0.189,0.738-0.211c0.349-0.029,0.544-0.046,0.654-0.068c0.091-0.019,0.12-0.042,0.146-0.082l0.001-0.001
	c0.008-0.013,0.015-0.042,0.019-0.08c0.005-0.044,0.006-0.1,0.006-0.159c0-0.179-0.058-0.315-0.168-0.405
	c-0.115-0.094-0.291-0.143-0.521-0.143c-0.23,0-0.407,0.055-0.529,0.163c-0.122,0.108-0.193,0.273-0.213,0.49l-0.006,0.065h-0.065
	h-0.199h-0.075l0.005-0.075c0.02-0.31,0.129-0.55,0.317-0.714c0.188-0.163,0.453-0.248,0.785-0.248c0.181,0,0.347,0.027,0.491,0.079
	h0c0.145,0.053,0.267,0.131,0.358,0.233v0c0.17,0.193,0.17,0.417,0.17,0.648h0v0.022v1.388c0,0.071,0,0.136,0.018,0.174
	c0.012,0.027,0.042,0.044,0.106,0.044C23.291,46.67,23.306,46.669,23.322,46.666L23.322,46.666z M19.519,43.107h0.209h0.071v0.071
	v3.73v0.07h-0.071h-0.209h-0.071v-0.07v-3.73v-0.071H19.519z M16.209,45.355h1.808c-0.013-0.252-0.096-0.496-0.252-0.673
	c-0.145-0.164-0.356-0.271-0.634-0.271c-0.282,0-0.489,0.099-0.634,0.257C16.336,44.841,16.246,45.087,16.209,45.355z
	 M18.068,45.926h0.21h0.082l-0.013,0.082c-0.051,0.317-0.191,0.587-0.407,0.775c-0.206,0.18-0.48,0.285-0.81,0.285
	c-0.391,0-0.715-0.147-0.941-0.407c-0.223-0.257-0.35-0.624-0.35-1.067c0-0.444,0.131-0.82,0.356-1.086
	c0.228-0.269,0.552-0.425,0.935-0.425c0.397,0,0.696,0.153,0.903,0.397c0.229,0.27,0.341,0.652,0.341,1.057v0.073v0.071h-0.071
	h-2.102c0.011,0.292,0.094,0.573,0.26,0.772c0.15,0.181,0.372,0.296,0.674,0.296c0.228,0,0.419-0.069,0.564-0.196
	c0.147-0.13,0.25-0.323,0.299-0.569l0.011-0.057H18.068z M14.194,44.695c-0.155-0.181-0.378-0.283-0.647-0.283
	c-0.271,0-0.494,0.103-0.648,0.287h0c-0.157,0.187-0.245,0.458-0.245,0.79c0,0.334,0.086,0.604,0.239,0.789h0
	c0.151,0.181,0.37,0.283,0.638,0.283c0.291,0,0.508-0.11,0.657-0.286c0.17-0.201,0.253-0.492,0.253-0.806
	C14.44,45.144,14.35,44.878,14.194,44.695z M14.521,44.155h0.194h0.071v0.071v2.468c0,0.188-0.011,0.335-0.036,0.461
	c-0.026,0.128-0.066,0.235-0.125,0.339c-0.094,0.165-0.238,0.293-0.422,0.378C14.021,47.956,13.801,48,13.552,48
	c-0.338,0-0.606-0.078-0.797-0.227c-0.196-0.152-0.309-0.375-0.332-0.66l-0.006-0.076h0.077h0.215h0.065l0.005,0.066
	c0.013,0.19,0.092,0.33,0.216,0.424c0.139,0.104,0.336,0.154,0.568,0.154c0.169,0,0.317-0.025,0.441-0.075
	c0.119-0.048,0.215-0.119,0.283-0.21h0c0.052-0.071,0.09-0.159,0.115-0.269c0.026-0.115,0.038-0.255,0.038-0.428v-0.274
	c-0.075,0.111-0.166,0.203-0.273,0.276c-0.18,0.122-0.402,0.188-0.662,0.188c-0.367,0-0.669-0.137-0.881-0.379
	c-0.209-0.24-0.327-0.582-0.327-0.995c0-0.428,0.123-0.785,0.339-1.036c0.218-0.253,0.53-0.397,0.905-0.397
	c0.251,0,0.463,0.068,0.635,0.188c0.107,0.075,0.199,0.17,0.275,0.283v-0.327v-0.071H14.521z M45.991,29.734
	c0-0.079,0.04-0.132,0.105-0.158c0.132-0.04,0.487-0.079,0.882-0.079c1.409,0,2.278,0.988,2.278,2.633
	c0,1.001-0.342,1.712-0.803,2.028c-0.303,0.211-0.672,0.25-0.988,0.25c-0.579,0-1.185-0.092-1.382-0.211
	c-0.066-0.04-0.092-0.092-0.092-0.158V29.734z M44.938,35.212c0,1.264,0,2.304-0.066,2.857c-0.053,0.382-0.119,0.672-0.382,0.724
	c-0.118,0.026-0.276,0.052-0.395,0.052c-0.079,0-0.105,0.04-0.105,0.079c0,0.079,0.066,0.105,0.211,0.105
	c0.395,0,1.225-0.04,1.238-0.04c0.066,0,0.895,0.04,1.619,0.04c0.145,0,0.211-0.04,0.211-0.105c0-0.039-0.026-0.079-0.105-0.079
	c-0.118,0-0.408-0.026-0.593-0.052c-0.395-0.053-0.474-0.342-0.513-0.724c-0.066-0.553-0.066-1.593-0.066-2.857v-0.316
	c0-0.066,0.026-0.105,0.092-0.105l1.619,0.026c0.079,0,0.118,0.026,0.171,0.079c0.263,0.342,0.882,1.225,1.435,1.949
	c0.75,0.988,1.211,1.633,1.778,1.936c0.342,0.184,0.671,0.25,1.409,0.25h0.935c0.237,0,0.316-0.026,0.316-0.105
	c0-0.039-0.053-0.079-0.118-0.079c-0.079,0-0.263,0-0.513-0.039c-0.329-0.053-0.896-0.198-1.606-0.948
	c-0.764-0.816-1.659-1.988-2.739-3.371c1.185-1.093,1.593-2.067,1.593-3.042c0-0.908-0.579-1.553-0.908-1.791
	c-0.698-0.5-1.58-0.579-2.409-0.579c-0.408,0-1.409,0.039-1.554,0.039c-0.066,0-0.895-0.039-1.488-0.039
	c-0.145,0-0.211,0.026-0.211,0.105c0,0.053,0.053,0.079,0.105,0.079c0.118,0,0.342,0.013,0.448,0.039
	c0.435,0.092,0.54,0.303,0.566,0.751c0.026,0.421,0.026,0.79,0.026,2.844V35.212z M32.641,33.672c0-2.884,1.646-4.332,3.845-4.332
	c2.08,0,4.003,1.699,4.003,4.859c0,3.831-2.449,4.516-3.634,4.516C34.484,38.714,32.641,36.739,32.641,33.672z M31.39,34.04
	c0,2.37,1.501,5.175,5.109,5.175c3.173,0,5.254-2.436,5.254-5.385c0-3.068-2.212-4.937-5.175-4.937
	C32.943,28.892,31.39,31.907,31.39,34.04z M27.98,29.247c-0.026-0.25-0.066-0.355-0.158-0.355c-0.092,0-0.145,0.092-0.197,0.211
	l-3.871,8.269l-4.029-8.282c-0.066-0.145-0.118-0.197-0.198-0.197c-0.079,0-0.132,0.105-0.145,0.25l-0.948,8.572
	c-0.066,0.566-0.118,1.014-0.527,1.093c-0.198,0.039-0.29,0.039-0.395,0.039c-0.066,0-0.132,0.026-0.132,0.066
	c0,0.092,0.092,0.118,0.224,0.118c0.356,0,0.988-0.04,1.106-0.04c0.105,0,0.737,0.04,1.225,0.04c0.158,0,0.237-0.026,0.237-0.118
	c0-0.04-0.053-0.066-0.105-0.066c-0.079,0-0.277-0.013-0.5-0.066c-0.198-0.039-0.342-0.211-0.342-0.408
	c0-0.29,0.013-0.658,0.039-1.014l0.5-5.767h0.053l3.305,6.86c0.198,0.408,0.303,0.54,0.382,0.54c0.105,0,0.158-0.092,0.368-0.54
	l3.292-6.992h0.039l0.619,6.649c0.013,0.158,0.026,0.329,0.026,0.369c0,0.145-0.026,0.237-0.066,0.25
	c-0.066,0.013-0.092,0.04-0.092,0.092c0,0.066,0.066,0.105,0.368,0.132c0.487,0.039,1.909,0.079,2.199,0.079
	c0.158,0,0.277-0.04,0.277-0.118c0-0.053-0.039-0.066-0.105-0.066c-0.132,0-0.474,0-0.856-0.118
	c-0.566-0.184-0.658-0.921-0.711-1.395L27.98,29.247z M12.14,29.721c0-0.092,0.026-0.118,0.079-0.118
	c0.264,0,1.448,0.039,1.528,0.039c0.777,0,1.093,0.263,1.172,0.434c0.079,0.171,0.118,0.395,0.118,0.5
	c0,0.092,0.026,0.145,0.092,0.145c0.066,0,0.092-0.066,0.105-0.132c0.026-0.158,0.053-0.737,0.066-0.869
	c0.039-0.369,0.105-0.527,0.105-0.619c0-0.066-0.026-0.145-0.079-0.145c-0.052,0-0.105,0.053-0.184,0.079
	c-0.052,0.013-0.368,0.04-0.579,0.053c-0.211,0.013-1.554,0.026-2.976,0.026c-0.066,0-0.896-0.039-1.488-0.039
	c-0.145,0-0.211,0.026-0.211,0.105c0,0.053,0.053,0.079,0.106,0.079c0.118,0,0.342,0.013,0.448,0.039
	c0.435,0.092,0.514,0.29,0.553,0.606c0.026,0.224,0.039,0.777,0.039,2.989v2.317c0,1.606-0.026,2.673-0.092,3.015
	c-0.079,0.382-0.145,0.5-0.355,0.566c-0.118,0.039-0.277,0.052-0.395,0.052c-0.079,0-0.105,0.04-0.105,0.079
	c0,0.079,0.066,0.105,0.211,0.105c0.29,0,0.948-0.04,1.29-0.04c0.382,0,1.264,0.079,3.252,0.079c0.513,0,0.619,0,0.711-0.343
	c0.066-0.276,0.171-1.172,0.171-1.277c0-0.092,0-0.198-0.079-0.198c-0.066,0-0.092,0.053-0.118,0.198
	c-0.092,0.54-0.25,0.803-0.593,0.948c-0.342,0.145-0.922,0.145-1.264,0.145c-1.29,0-1.527-0.211-1.527-1.08v-3.41
	c0-0.053,0.026-0.092,0.092-0.092c0.224,0,1.527,0.026,1.883,0.066c0.514,0.053,0.632,0.276,0.685,0.461
	c0.053,0.171,0.053,0.303,0.053,0.435c0,0.066,0.026,0.118,0.092,0.118c0.079,0,0.092-0.105,0.092-0.25
	c0-0.645,0.158-1.527,0.158-1.58c0-0.079-0.026-0.105-0.066-0.105c-0.053,0-0.105,0.066-0.198,0.171
	c-0.118,0.132-0.303,0.158-0.619,0.184c-0.303,0.026-1.923,0.026-2.094,0.026c-0.066,0-0.079-0.039-0.079-0.132V29.721z
	 M2.159,29.734c0-0.079,0.039-0.132,0.105-0.158c0.132-0.04,0.487-0.079,0.882-0.079c1.409,0,2.278,0.988,2.278,2.633
	c0,1.001-0.342,1.712-0.803,2.028c-0.303,0.211-0.672,0.25-0.988,0.25c-0.579,0-1.185-0.092-1.382-0.211
	c-0.066-0.04-0.092-0.092-0.092-0.158V29.734z M1.106,35.212c0,1.264,0,2.304-0.066,2.857c-0.053,0.382-0.118,0.672-0.382,0.724
	c-0.118,0.026-0.277,0.052-0.395,0.052c-0.079,0-0.105,0.04-0.105,0.079c0,0.079,0.066,0.105,0.211,0.105
	c0.395,0,1.225-0.04,1.238-0.04c0.066,0,0.895,0.04,1.62,0.04c0.144,0,0.211-0.04,0.211-0.105c0-0.039-0.026-0.079-0.105-0.079
	c-0.118,0-0.408-0.026-0.592-0.052c-0.395-0.053-0.474-0.342-0.514-0.724c-0.066-0.553-0.066-1.593-0.066-2.857v-0.316
	c0-0.066,0.026-0.105,0.092-0.105l1.62,0.026c0.079,0,0.118,0.026,0.171,0.079c0.263,0.342,0.882,1.225,1.435,1.949
	c0.751,0.988,1.212,1.633,1.778,1.936c0.342,0.184,0.671,0.25,1.409,0.25h0.935c0.237,0,0.316-0.026,0.316-0.105
	c0-0.039-0.053-0.079-0.118-0.079c-0.079,0-0.263,0-0.514-0.039c-0.329-0.053-0.895-0.198-1.606-0.948
	c-0.763-0.816-1.659-1.988-2.739-3.371c1.185-1.093,1.593-2.067,1.593-3.042c0-0.908-0.579-1.553-0.909-1.791
	c-0.698-0.5-1.58-0.579-2.41-0.579c-0.408,0-1.409,0.039-1.554,0.039c-0.066,0-0.896-0.039-1.488-0.039
	c-0.145,0-0.211,0.026-0.211,0.105c0,0.053,0.053,0.079,0.105,0.079c0.118,0,0.342,0.013,0.448,0.039
	c0.435,0.092,0.54,0.303,0.566,0.751c0.026,0.421,0.026,0.79,0.026,2.844V35.212z"/>
</svg>
