<?xml version="1.0" encoding="utf-8"?>
<!-- Generator: Adobe Illustrator 16.0.0, SVG Export Plug-In . SVG Version: 6.00 Build 0)  -->
<!DOCTYPE svg PUBLIC "-//W3C//DTD SVG 1.1//EN" "http://www.w3.org/Graphics/SVG/1.1/DTD/svg11.dtd">
<svg version="1.1" id="Слой_1" xmlns="http://www.w3.org/2000/svg" xmlns:xlink="http://www.w3.org/1999/xlink" x="0px" y="0px"
	 width="115px" height="48px" viewBox="0 0 115 48" enable-background="new 0 0 115 48" xml:space="preserve">
<path fill="#AD6859" d="M97.539,43.326c0-0.004,0.002-0.004,0.002-0.008c0,0,0-0.002,0.002-0.004L97.539,43.326z M86.025,47.188
	c0,0,0-0.002,0-0.004c-0.002,0.002-0.002,0-0.002,0L86.025,47.188z M97.693,42.594c-0.012,0.152,0.072,0.328-0.074,0.459
	c0,0.021,0,0.041,0,0.063c-0.084,0.047-0.088,0.123-0.078,0.205c-0.041,0.035-0.068,0.078-0.055,0.139
	c0.002,0.014-0.006,0.021-0.021,0.021c-0.063,0.012-0.049,0.063-0.053,0.104c-0.363,0.656-0.916,1.121-1.545,1.492
	c-0.502,0.297-1.045,0.506-1.637,0.541c-0.176,0.01-0.363,0.027-0.518-0.105c-0.24,0.055-0.42-0.1-0.611-0.191
	c-0.816-0.393-1.338-1.039-1.449-1.939c-0.1-0.799,0.123-1.518,0.801-2.031c0.195-0.146,0.361-0.336,0.602-0.424
	c0.139-0.045,0.227-0.182,0.377-0.201c-0.027-0.389-0.27-0.674-0.506-0.941c-0.863-0.975-1.945-1.648-3.105-2.209
	c-0.123-0.061-0.256-0.1-0.383-0.148c-0.23-0.09-0.465-0.178-0.635-0.373c-0.049-0.057-0.125-0.094-0.143,0.01
	c-0.074,0.447-0.371,0.783-0.553,1.178c-0.289,0.645-0.471,1.324-0.662,2.002c-0.182,0.643-0.178,1.295-0.172,1.949
	c0.004,0.268,0.16,0.482,0.25,0.719c0.246-0.053,0.408-0.283,0.664-0.311c0.561-0.289,1.119-0.211,1.668,0.018
	c0.404,0.168,0.738,0.438,1.021,0.771c0.08,0.094,0.127,0.193,0.158,0.307c0.088,0.002,0.105,0.063,0.107,0.133
	c0.074,0.131,0.094,0.275,0.131,0.416c0.109,0.123,0.084,0.279,0.111,0.424c0,0.006-0.004,0.016-0.008,0.018
	c-0.006,0.002-0.014-0.002-0.021-0.002c0.01,0.113,0.018,0.225,0.025,0.338c0.035,0.523-0.078,0.994-0.424,1.414
	c-0.449,0.547-1.033,0.906-1.654,1.178c-0.664,0.287-1.369,0.516-2.121,0.311c-0.07-0.02-0.135-0.047-0.189-0.096
	c-0.262-0.078-0.504-0.189-0.666-0.424c0.002,0,0.002,0,0.002,0c-0.072-0.113-0.133-0.242-0.305-0.219
	c-0.006-0.041,0.004-0.1-0.02-0.123c-0.252-0.248-0.375-0.58-0.568-0.863c-0.021-0.023-0.029-0.051-0.014-0.082l-0.082-0.439
	c-0.178-0.568,0.035-1.074,0.322-1.529c0.352-0.553,0.902-0.869,1.527-1.057c-0.006-0.051,0.002-0.109-0.02-0.15
	c-0.301-0.553-0.195-1.145-0.158-1.723c0.035-0.551,0.25-1.068,0.387-1.602c0.221-0.865,0.605-1.682,0.748-2.568
	c0.045-0.291,0.014-0.572-0.08-0.844c-0.051-0.146,0-0.223,0.111-0.285c0.127-0.072,0.24-0.059,0.322,0.07
	c0.15,0.238,0.281,0.49,0.498,0.688c0.326,0.299,0.703,0.521,1.078,0.752c0.818,0.504,1.674,0.965,2.4,1.602
	c0.467,0.406,0.957,0.814,1.186,1.432c0.012,0.121,0.021,0.24,0.127,0.334c-0.105-0.094-0.115-0.213-0.127-0.334
	c0.207-0.066,0.352-0.229,0.527-0.338c0.232-0.148,0.482-0.188,0.742-0.217c0.531-0.102,1.01,0.074,1.465,0.309
	c0.412,0.211,0.748,0.531,0.959,0.943C97.582,41.604,97.729,42.084,97.693,42.594 M88.93,43.955
	c-0.033-0.146-0.117-0.252-0.379-0.197c-0.145,0.025-0.201,0.092-0.164,0.281c0.023,0.115,0.238,0.297,0.311,0.242
	C88.805,44.203,88.975,44.139,88.93,43.955z M87.902,43.488c0.201-0.066,0.23-0.193,0.193-0.408
	C87.98,43.217,87.922,43.33,87.902,43.488z M87.523,44.471c-0.102,0.021-0.195,0.027-0.299-0.016
	c-0.189-0.074-0.385-0.139-0.58-0.197c-0.102-0.033-0.215-0.035-0.287,0.051c-0.078,0.096,0.016,0.17,0.055,0.256
	c0.072,0.152,0.158,0.299,0.27,0.422c0.178,0.195,0.301,0.502,0.646,0.379c0.359-0.033,0.492-0.307,0.543-0.543
	C87.93,44.537,87.803,44.418,87.523,44.471z M94.08,42.127c-0.064-0.092-0.156-0.057-0.242-0.035
	c-0.213,0.051-0.42,0.109-0.641,0.01c-0.104-0.047-0.227-0.059-0.34-0.068c-0.1-0.01-0.215-0.037-0.271,0.084
	c-0.064,0.131,0.037,0.213,0.111,0.283c0.25,0.242,0.553,0.316,0.877,0.238c0.191-0.029,0.357-0.074,0.475-0.229
	C94.117,42.322,94.145,42.225,94.08,42.127z M95.287,41.248c-0.025-0.17-0.127-0.273-0.281-0.254
	c-0.152,0.018-0.178,0.154-0.146,0.289c0.033,0.145,0.119,0.236,0.279,0.215C95.291,41.475,95.32,41.371,95.287,41.248z
	 M86.477,33.039l0.205-0.098c0.063,0.227,0.586,0.271,1.322,0.217l0.873-0.932v0.779l0.947-0.828l0,0v0.631l1.283-0.748l0,0l0,0
	l-0.031,0.221l-0.063,0.404c1.469-0.299,2.744-0.619,2.744-0.619c-2.938,1.51-6.016,1.73-7.629,1.727
	c0.875,0.361,4.439,1.738,7.484,1.615c3.502-0.143,5.6-4.656,5.6-4.656C91.732,28.557,87.822,31.609,86.477,33.039 M14.77,36.047
	c0.084-1.018,0.786-3.176,1.152-4.143l1.577-3.715c0.097,0.053,0.152,0.082,0.178,0.113v0.119c-0.019,0.049-0.051,0.113-0.089,0.209
	C17.184,29.639,15.016,35.762,14.77,36.047 M12.615,30.434l1.664-1.9c0.187-0.186,0.242-0.301,0.414-0.479
	c0.095-0.098,0.136-0.141,0.23-0.244c0.217-0.229-0.07-0.119,0.26-0.154l-1.833,4.826c-0.103,0.287-0.202,0.521-0.313,0.816
	c-0.08,0.217-0.166,0.592-0.348,0.725c-0.148-0.641-0.83-2.031-0.83-2.561C11.861,31.137,12.352,30.75,12.615,30.434z M1.51,37.609
	c0.274,0.225,0.563,0.393,0.859,0.504c0.146,0.057,0.294,0.096,0.441,0.121c0.759,0.143,1.538-0.072,2.229-0.645
	c1.103-0.91,2.162-1.871,3.229-2.822c0.075-0.066,0.15-0.135,0.227-0.201c0.176-0.156,0.349-0.32,0.521-0.482
	c0.31-0.291,0.618-0.588,0.945-0.896c0.229,0.506,0.453,0.941,0.625,1.396c0.462,1.227,1.056,2.412,0.909,3.807
	c-0.007,0.064-0.001,0.131-0.006,0.195c-0.062,0.758-0.021,1.531,0.045,2.293c0.014,0.16,0.036,0.318,0.063,0.473
	c0.165,0.936,0.586,1.746,1.446,2.313c0.481,0.318,0.946,0.666,1.419,1h0.342c0,0,0-0.01,0-0.016
	c-0.02-0.266,0.008-0.545-0.071-0.789c-0.144-0.445-0.23-0.895-0.289-1.346c-0.088-0.662-0.101-1.332-0.027-2.014
	c0.17-1.627,0.558-3.201,1.071-4.74c0.131-0.391,0.264-0.781,0.409-1.17c0.784-2.072,1.584-4.139,2.388-6.203
	c0.349-0.9,0.697-1.801,1.048-2.701c0.063-0.162,0.126-0.324,0.188-0.486c0.214-0.553,0.379-1.173-0.091-1.598
	c-0.771-0.697-1.645-1.279-2.405-1.859c-0.142,0.354-0.235,0.678-0.354,0.965c-0.062,0.146-0.126,0.285-0.21,0.41
	c-0.479,0.695-1.002,1.35-1.545,1.983c-1.044,1.225-2.176,2.355-3.318,3.457c-0.257,0.248-0.513,0.496-0.769,0.742
	c-0.609-0.736-1.154-1.484-1.792-2.145c-1.296-1.342-4.03-0.916-4.972,0.732c-0.008,0.014,0.002,0.037,0.002,0.057
	c2.031-0.209,3.929,1.063,4.731,3.172c-0.343,0.309-0.692,0.609-1.045,0.902c-0.212,0.178-0.428,0.346-0.644,0.516
	c-1.72,1.355-3.554,2.477-5.528,3.082c-0.121,0.037-0.24,0.086-0.362,0.117C0.818,35.842,0.412,35.93,0,35.994l0,0
	C0.55,36.59,0.973,37.17,1.51,37.609z M67.539,31.035c0.146-0.391,0.207-0.813,0.215-1.252c-2.029,3.195-3.408,6.701-5.012,10.133
	c-1.355-0.432-2.535-1.041-3.182-2.424c-0.479,0.426-0.909,0.881-1.415,1.229c-0.116,0.08-0.235,0.162-0.354,0.242
	c-0.333,0.227-0.673,0.445-1.025,0.633c-0.216,0.117-0.438,0.227-0.665,0.313c-0.987,0.369-1.929,0.295-2.775-0.113
	c-0.387-0.188-0.754-0.434-1.097-0.75c-0.428-0.396-0.634-1.031-0.956-1.582c-0.643,0.619-1.371,1.27-2.034,1.98
	c-0.437,0.469-0.84,0.498-1.39,0.229c-0.847-0.412-1.627-0.881-2.15-1.693c-0.022-0.033-0.036-0.068-0.056-0.104
	c-0.139-0.262-0.161-0.516-0.032-0.84c0.734-1.879,1.439-3.771,2.135-5.666c0.259-0.705,0.195-0.783-0.535-1.055
	c-0.585,2.928-2.257,5.229-4.259,7.33c-0.703,0.738-1.454,1.434-2.205,2.125c-0.115,0.107-0.365,0.162-0.521,0.119
	c-0.435-0.119-0.857-0.287-1.276-0.457c-0.962-0.393-1.246-1.076-0.869-2.023c0.24-0.607,0.465-1.221,0.6-1.869
	c-0.271,0.588-0.509,1.193-0.818,1.76c-0.392,0.709-0.817,1.4-1.271,2.072c-0.318,0.469-0.775,0.654-1.377,0.578
	c-1.669-0.221-2.35-0.863-2.763-2.727c-0.872,0.82-1.744,1.625-2.596,2.451c-0.251,0.242-0.463,0.289-0.792,0.152
	c-0.206-0.086-0.402-0.182-0.598-0.279c-0.75-0.377-1.417-0.859-1.926-1.57c-0.218-0.305-0.243-0.566-0.086-0.93
	c0.737-1.693,1.467-3.393,2.138-5.113c0.257-0.658,0.352-1.377,0.552-2.207c-0.721,0.654-4.332,8.953-4.51,10.215
	c-0.513-0.166-0.988-0.379-1.427-0.645c-0.543-0.328-1.026-0.74-1.411-1.301c-0.206-0.297-0.256-0.568-0.107-0.939
	c0.731-1.818,1.437-3.65,2.122-5.488c0.208-0.559,0.327-1.146,0.44-1.734c-0.71,0.611-4.272,8.879-4.406,10.113
	c-1.084-0.307-2.037-0.803-2.748-1.695c-0.33-0.416-0.393-0.82-0.173-1.354c0.711-1.727,1.376-3.473,2.023-5.225
	c0.179-0.482,0.344-0.971,0.438-1.475c0.11-0.584,0.126-1.188-0.058-1.824c0.454,0.027,0.876,0.129,1.271,0.277
	c0.514,0.195,0.976,0.482,1.353,0.895c0.321,0.352,0.337,0.984,0.461,1.393c0.188-0.443,0.41-1.057,0.704-1.629
	c0.509-0.99,0.836-1.109,1.91-0.803c0.146,0.041,0.294,0.08,0.429,0.146c0.502,0.246,0.883,0.436,1.154,0.658
	c0.464,0.381,0.612,0.867,0.493,1.936c0.338-0.67,0.646-1.381,1.039-2.037c0.554-0.922,0.984-1.035,1.985-0.646
	c0.052,0.021,0.102,0.051,0.153,0.072c0.068,0.029,0.124,0.063,0.188,0.092c1.021,0.48,1.493,1.033,1.53,1.854
	c0.018,0.395-0.054,0.846-0.227,1.389c-0.508,1.605-0.979,3.225-1.458,4.84c-0.083,0.281-0.166,0.564-0.25,0.846
	c-0.034,0.117-0.029,0.248-0.063,0.531c1.175-1.068,2.415-1.85,2.847-3.406c0.079-0.283,0.189-0.551,0.289-0.82
	c0.576-1.578,1.477-2.986,2.667-4.207c0.342-0.35,0.729-0.668,1.137-0.934c1.164-0.762,2.093-0.746,3.16,0.088
	c0.131,0.102,0.264,0.209,0.397,0.334c0.285,0.268,0.515,0.596,0.789,0.918c-3.705,1.627-6.511,3.904-6.627,8.289
	c0.05,0.049,0.1,0.1,0.148,0.148c0.218-0.199,0.475-0.371,0.646-0.604c0.735-1.006,1.463-2.021,2.163-3.053
	c0.52-0.764,1.008-1.553,1.48-2.348c0.253-0.424,0.445-0.887,0.704-1.41c0.098,0.049,0.311,0.109,0.472,0.234
	c0.451,0.344,0.901,0.689,1.315,1.078c0.677,0.631,0.775,1.328,0.333,2.152c-0.601,1.123-1.021,2.305-1.251,3.582
	c2.094-1.088,5.256-5.545,5.544-8.398c-0.283-0.17-0.591-0.32-0.856-0.523c-0.22-0.168-0.434-0.373-0.574-0.607
	c-0.265-0.434-0.123-1.219,0.216-1.463c0.356-0.26,1.004-0.16,1.384,0.27c0.233,0.264,0.468,0.572,0.565,0.9
	c0.126,0.43,0.396,0.559,0.77,0.701c0.84,0.32,1.695,0.641,2.471,1.09c0.865,0.5,0.923,0.879,0.62,1.85
	c-0.313,1.008-0.62,2.016-0.928,3.023c-0.287,0.939-0.577,1.879-0.864,2.816c-0.017,0.051-0.016,0.109-0.037,0.273
	c0.244-0.172,0.437-0.293,0.61-0.436s0.333-0.307,0.494-0.467c0.176-0.172,0.335-0.363,0.521-0.52
	c0.582-0.492,0.786-1.107,0.891-1.867c0.031-0.229,0.077-0.447,0.121-0.668c0.471-2.379,1.688-4.256,4.161-5.164
	c1.111-0.41,2.217-0.617,3.378,0.031c1.428,0.797,1.973,2.037,1.133,3.441c-1.047,1.752-2.561,2.982-4.688,3.195
	c-0.134,0.016-0.271,0.014-0.407,0.006c-0.35-0.02-0.714-0.088-1.114-0.123c-0.182,0.963-0.273,2.016,0.089,3.053
	c0.066,0.188,0.178,0.322,0.309,0.432c0.265,0.217,0.631,0.271,1.053,0.084c0.334-0.15,0.675-0.318,0.993-0.512
	c0.242-0.146,0.469-0.313,0.671-0.498c0.031-0.027,0.068-0.055,0.101-0.086c1.158-1.156,2.403-2.297,3.274-3.66
	c0.984-1.547,1.572-3.34,1.779-5.203c0.029-0.256-0.043-0.523-0.076-0.857c0.967,0.057,1.762,0.479,2.443,1.113
	c0.809,0.754,0.365,1.68,0.234,2.725c0.447-0.787,0.787-1.436,1.18-2.049c0.324-0.508,0.703-0.982,1.076-1.457
	c0.26-0.332,0.611-0.418,1.016-0.305c0.109,0.029,0.227,0.045,0.33,0.086c1.682,0.643,2.26,1.26,2.176,2.369
	c-0.027,0.377-0.131,0.811-0.297,1.322c-0.342,1.059-0.668,2.121-0.998,3.182c-0.254,0.811-0.512,1.619-0.766,2.432
	c-0.031,0.104-0.037,0.217-0.082,0.482c0.426-0.367,0.766-0.625,1.061-0.926c0.977-0.996,1.893-1.994,2.342-3.402
	c0.07-0.23,0.174-0.447,0.266-0.67c0.539-1.313,1.365-2.484,2.385-3.504c0.332-0.334,0.703-0.637,1.092-0.898
	c1.311-0.877,2.516-0.734,3.605,0.406c0.166,0.176,0.32,0.369,0.477,0.559c0.098,0.119,0.195,0.23,0.299,0.352
	c-1.164,0.514-2.238,1.09-3.17,1.773c-2.033,1.496-3.379,3.506-3.449,6.516c0.051,0.051,0.104,0.102,0.152,0.15
	c0.219-0.205,0.475-0.383,0.646-0.619c0.744-1.021,1.479-2.053,2.189-3.1c0.49-0.717,0.953-1.453,1.396-2.199
	c0.271-0.457,0.486-0.949,0.775-1.521c0.848,0.512,1.828,1.043,2.244,2.1c0.158,0.398,0,1.016-0.199,1.445
	c-0.529,1.133-0.98,2.277-1.215,3.631c1.838-1.285,3.027-3.021,4.508-4.668c0.047,0.236,0.199,0.518,0.121,0.697
	c-0.256,0.58-0.506,1.201-0.92,1.662c-0.994,1.104-2.045,2.158-3.094,3.215c-0.178,0.178-0.354,0.355-0.531,0.535
	c-0.102,0.102-0.332,0.168-0.469,0.129c-0.098-0.029-0.193-0.064-0.293-0.098c-0.387-0.123-0.771-0.26-1.141-0.426
	c-0.871-0.391-1.119-1.053-0.775-1.926c0.232-0.598,0.449-1.199,0.668-1.803c0.012-0.027-0.012-0.07-0.033-0.16
	c-0.291,0.633-0.529,1.242-0.844,1.811c-0.389,0.709-0.816,1.4-1.271,2.07c-0.318,0.471-0.779,0.65-1.379,0.572
	c-1.721-0.225-2.549-1.066-2.73-2.906c-0.113,0.094-0.207,0.16-0.287,0.242c-0.395,0.398-0.783,0.803-1.176,1.205
	c-0.375,0.381-0.754,0.762-1.123,1.148c-0.223,0.229-0.422,0.295-0.748,0.182c-0.68-0.24-1.299-0.559-1.83-0.998
	c-0.258-0.213-0.492-0.455-0.695-0.74c-0.031-0.047-0.072-0.078-0.102-0.125c-0.197-0.303-0.232-0.584-0.086-0.947
	C66.035,35.023,66.793,33.031,67.539,31.035 M46.21,28.529c-0.104-0.219-0.17-0.465-0.318-0.645
	c-0.087-0.104-0.305-0.096-0.464-0.139c0.017,0.199-0.043,0.465,0.063,0.584c0.143,0.16,0.411,0.211,0.627,0.309L46.21,28.529z
	 M19.295,32.297c-0.052-0.02-0.104-0.039-0.156-0.057c-0.412,1.111-0.824,2.229-1.235,3.342c0.059,0.021,0.116,0.043,0.176,0.064
	C18.484,34.531,18.89,33.414,19.295,32.297z M24.4,32.324c-0.056-0.021-0.109-0.043-0.165-0.064
	c-0.569,1.422-1.139,2.844-1.707,4.268c0.072,0.033,0.146,0.064,0.22,0.1C23.299,35.191,23.85,33.758,24.4,32.324z M28.583,33.582
	c-0.047-0.018-0.095-0.037-0.144-0.055c-0.346,0.871-0.689,1.742-1.035,2.613c0.056,0.031,0.109,0.063,0.165,0.092
	C27.907,35.35,28.245,34.465,28.583,33.582z M49.067,35.152c0.043,0.016,0.085,0.027,0.127,0.043l0.738-2.096l-0.146-0.053
	C49.545,33.748,49.307,34.451,49.067,35.152z M58.013,32.623c-0.038-0.043-0.075-0.084-0.11-0.127
	c-0.49,0.443-0.979,0.891-1.47,1.336c0.027,0.041,0.056,0.08,0.081,0.121C57.014,33.51,57.513,33.066,58.013,32.623z M54.6,34.176
	c1.213,0.008,3.244-1.701,3.537-3.029C56.592,31.813,55.363,32.697,54.6,34.176z M52.717,32.268
	c0.687-0.721,1.484-1.559,2.165-2.273C54.243,30.131,52.804,31.646,52.717,32.268z M62.393,31.76
	c-0.043-0.02-0.088-0.041-0.133-0.061c-0.234,0.643-0.471,1.285-0.707,1.93c0.068,0.021,0.137,0.045,0.205,0.068
	C61.971,33.053,62.182,32.408,62.393,31.76z M67.717,31.906c-0.465,1.262-0.93,2.523-1.395,3.785
	c0.061,0.021,0.121,0.045,0.182,0.068c0.477-1.264,0.953-2.527,1.43-3.791C67.861,31.949,67.789,31.926,67.717,31.906z
	 M20.929,42.367h-1.854v0.563H19.7v3.326h0.604V42.93h0.625V42.367z M22.248,42.367l0.789,3.889h-0.615l-0.151-0.809h-0.716
	c-0.025,0.133-0.051,0.27-0.075,0.402c-0.023,0.139-0.047,0.271-0.068,0.406h-0.615c0.131-0.65,0.261-1.301,0.392-1.945
	s0.262-1.293,0.393-1.943H22.248z M22.175,44.881l-0.252-1.613h-0.026c-0.036,0.268-0.076,0.533-0.117,0.803
	c-0.04,0.266-0.085,0.535-0.135,0.811H22.175L22.175,44.881z M23.601,44.602c0,0.209-0.006,0.383-0.019,0.521
	c-0.014,0.141-0.038,0.26-0.075,0.355c-0.038,0.098-0.087,0.18-0.147,0.246c-0.063,0.066-0.143,0.129-0.238,0.186l0.229,0.445
	c0.16-0.07,0.291-0.15,0.393-0.242c0.101-0.092,0.181-0.211,0.239-0.355c0.061-0.145,0.102-0.324,0.123-0.537
	s0.033-0.477,0.033-0.791v-1.5h0.587v3.326h0.604v-3.889H23.6L23.601,44.602L23.601,44.602z M27.585,44.182
	c0.079,0.102,0.135,0.225,0.169,0.369c0.033,0.145,0.05,0.309,0.05,0.49c0,0.404-0.084,0.709-0.251,0.91
	c-0.168,0.203-0.427,0.305-0.776,0.305H25.91v-3.889h0.604v1.504h0.257c0.2,0,0.365,0.023,0.497,0.078
	C27.398,44.004,27.505,44.08,27.585,44.182 M27.223,45.051c0-0.213-0.036-0.369-0.106-0.469c-0.073-0.1-0.201-0.148-0.387-0.148
	h-0.217v1.258h0.229c0.185,0,0.312-0.061,0.38-0.18C27.188,45.393,27.223,45.24,27.223,45.051z M28.455,42.664
	c0.185-0.197,0.438-0.297,0.758-0.297h0.889v3.889h-0.604v-1.658h-0.155c-0.104,0-0.201,0.041-0.288,0.123
	c-0.088,0.082-0.149,0.229-0.188,0.436l-0.186,1.102h-0.607l0.217-1.236c0.025-0.131,0.066-0.248,0.123-0.354
	c0.057-0.107,0.135-0.189,0.234-0.25c-0.179-0.074-0.303-0.188-0.368-0.338c-0.067-0.15-0.102-0.332-0.102-0.545
	C28.179,43.15,28.271,42.859,28.455,42.664 M29.263,42.93c-0.183,0-0.311,0.055-0.383,0.166c-0.072,0.109-0.108,0.254-0.108,0.434
	c0,0.189,0.047,0.32,0.138,0.395c0.092,0.072,0.207,0.109,0.35,0.109h0.239V42.93H29.263z M31.962,43.994H31.27v-1.627h-0.604v3.891
	h0.604v-1.701h0.692v1.701h0.604v-3.891h-0.604V43.994z M33.726,43.207c0.011-0.053,0.025-0.105,0.051-0.15
	c0.022-0.047,0.059-0.084,0.103-0.115c0.045-0.029,0.102-0.045,0.172-0.045c0.118,0,0.204,0.045,0.258,0.137
	c0.055,0.088,0.08,0.203,0.08,0.344l0.587-0.15c0-0.129-0.018-0.25-0.054-0.357c-0.035-0.109-0.091-0.205-0.167-0.283
	c-0.076-0.08-0.172-0.141-0.288-0.186c-0.114-0.045-0.253-0.066-0.413-0.066c-0.176,0-0.323,0.027-0.443,0.084
	c-0.121,0.057-0.22,0.133-0.295,0.229c-0.073,0.098-0.128,0.209-0.158,0.338c-0.031,0.131-0.047,0.266-0.047,0.412v1.938
	c0,0.313,0.074,0.551,0.229,0.713c0.152,0.162,0.39,0.242,0.71,0.242c0.302,0,0.53-0.086,0.686-0.256
	c0.153-0.172,0.234-0.404,0.242-0.699c-0.101-0.014-0.199-0.027-0.302-0.041c-0.101-0.014-0.201-0.029-0.301-0.047
	c-0.004,0.318-0.118,0.479-0.339,0.479c-0.066,0-0.121-0.014-0.163-0.039c-0.043-0.025-0.077-0.059-0.102-0.098
	c-0.023-0.039-0.039-0.08-0.047-0.125c-0.007-0.045-0.011-0.086-0.011-0.125v-1.977C33.712,43.314,33.716,43.262,33.726,43.207
	 M37.25,44.959c-0.04-0.189-0.102-0.342-0.178-0.457c-0.079-0.117-0.188-0.199-0.331-0.252v-0.012
	c0.107-0.047,0.204-0.127,0.288-0.244s0.146-0.271,0.188-0.459c0.041-0.193,0.082-0.389,0.123-0.58
	c0.04-0.191,0.082-0.389,0.123-0.584h-0.565c-0.007,0.033-0.021,0.104-0.044,0.209c-0.022,0.105-0.046,0.221-0.069,0.342
	c-0.024,0.121-0.049,0.234-0.072,0.34c-0.024,0.107-0.04,0.178-0.047,0.211c-0.045,0.201-0.111,0.342-0.196,0.418
	c-0.086,0.078-0.195,0.119-0.33,0.119h-0.123v-1.643h-0.604v3.889h0.604v-1.699h0.162c0.134,0,0.243,0.041,0.327,0.123
	s0.146,0.229,0.188,0.436c0.039,0.191,0.079,0.381,0.117,0.57c0.036,0.191,0.074,0.381,0.11,0.57h0.604
	c-0.048-0.217-0.095-0.43-0.137-0.646C37.344,45.396,37.299,45.18,37.25,44.959 M38.452,44.83H38.43v-2.463h-0.587v3.889h0.581
	l0.816-2.438h0.017v2.438h0.593v-3.889h-0.587L38.452,44.83z M41.051,42.178c0.102,0.051,0.225,0.076,0.369,0.076
	c0.134,0,0.248-0.025,0.343-0.076c0.098-0.049,0.176-0.113,0.241-0.189c0.064-0.074,0.114-0.158,0.148-0.25
	c0.032-0.092,0.054-0.178,0.062-0.256h-0.441c0,0.041-0.01,0.082-0.024,0.127c-0.018,0.043-0.041,0.082-0.07,0.119
	s-0.065,0.066-0.107,0.094c-0.044,0.023-0.094,0.035-0.148,0.035c-0.052,0-0.099-0.012-0.141-0.035
	c-0.04-0.025-0.077-0.057-0.108-0.094s-0.058-0.076-0.079-0.119c-0.021-0.045-0.032-0.086-0.035-0.127h-0.441
	c0.004,0.078,0.021,0.164,0.051,0.256c0.029,0.092,0.076,0.176,0.14,0.25C40.868,42.064,40.95,42.129,41.051,42.178 M40.995,44.83
	h-0.021v-2.463h-0.588v3.889h0.581l0.816-2.438H41.8v2.438h0.593v-3.889h-0.587L40.995,44.83z M44.958,42.367
	c0.355,0,0.619,0.092,0.784,0.279c0.166,0.186,0.249,0.484,0.249,0.898c0,0.182-0.018,0.35-0.051,0.496
	c-0.033,0.15-0.092,0.277-0.174,0.385c-0.082,0.105-0.188,0.189-0.32,0.25c-0.134,0.059-0.3,0.088-0.5,0.088H44.7v1.492h-0.604
	v-3.889H44.958 M45.41,43.549c0-0.191-0.034-0.342-0.104-0.453c-0.068-0.111-0.195-0.166-0.383-0.166h-0.224v1.26h0.213
	c0.186,0,0.314-0.055,0.389-0.16C45.373,43.922,45.41,43.762,45.41,43.549z M46.4,46.256h1.727v-0.564h-1.124v-1.125h0.979v-0.572
	h-0.979V42.93h1.124v-0.563H46.4V46.256z M49.107,43.207c0.011-0.053,0.025-0.105,0.051-0.15c0.024-0.047,0.059-0.084,0.103-0.115
	c0.045-0.029,0.103-0.045,0.173-0.045c0.117,0,0.203,0.045,0.259,0.137c0.053,0.088,0.079,0.203,0.079,0.344l0.588-0.15
	c0-0.129-0.02-0.25-0.055-0.357c-0.036-0.109-0.092-0.205-0.167-0.283c-0.077-0.08-0.173-0.141-0.288-0.186
	c-0.114-0.045-0.253-0.066-0.414-0.066c-0.176,0-0.322,0.027-0.443,0.084c-0.12,0.057-0.22,0.133-0.293,0.229
	c-0.075,0.098-0.128,0.209-0.16,0.338c-0.031,0.131-0.047,0.266-0.047,0.412v1.938c0,0.313,0.076,0.551,0.229,0.713
	s0.39,0.242,0.709,0.242c0.303,0,0.53-0.086,0.687-0.256c0.152-0.172,0.234-0.404,0.243-0.699c-0.102-0.014-0.201-0.027-0.304-0.041
	c-0.101-0.014-0.2-0.029-0.301-0.047c-0.004,0.318-0.117,0.479-0.339,0.479c-0.066,0-0.121-0.014-0.163-0.039
	c-0.043-0.025-0.076-0.059-0.1-0.098c-0.024-0.039-0.04-0.08-0.049-0.125c-0.007-0.045-0.01-0.086-0.01-0.125v-1.977
	C49.095,43.314,49.098,43.262,49.107,43.207 M50.52,42.93h0.625v3.326h0.604V42.93h0.625v-0.563H50.52V42.93z M54.229,42.605
	c0.072,0.092,0.124,0.197,0.155,0.324c0.032,0.129,0.047,0.271,0.047,0.432v1.898c0,0.342-0.075,0.598-0.228,0.771
	s-0.393,0.26-0.719,0.26c-0.327,0-0.564-0.082-0.715-0.248c-0.147-0.166-0.223-0.406-0.223-0.719v-1.959
	c0-0.15,0.017-0.291,0.053-0.418c0.035-0.125,0.09-0.234,0.164-0.326c0.075-0.092,0.172-0.162,0.293-0.213s0.266-0.074,0.434-0.074
	c0.179,0,0.327,0.021,0.447,0.07C54.059,42.449,54.156,42.516,54.229,42.605 M53.828,43.316c0-0.107-0.023-0.205-0.069-0.291
	c-0.048-0.086-0.136-0.129-0.266-0.129c-0.071,0-0.13,0.018-0.174,0.049s-0.08,0.07-0.104,0.117s-0.041,0.1-0.051,0.156
	c-0.009,0.057-0.014,0.111-0.014,0.158v1.957c0,0.102,0.024,0.189,0.075,0.27c0.051,0.082,0.137,0.121,0.261,0.121
	c0.121,0,0.211-0.041,0.263-0.125s0.078-0.186,0.078-0.305L53.828,43.316L53.828,43.316z M56.88,43.545
	c0,0.182-0.017,0.35-0.051,0.496c-0.033,0.15-0.091,0.277-0.173,0.385c-0.082,0.105-0.189,0.189-0.322,0.25
	c-0.132,0.059-0.298,0.088-0.5,0.088h-0.245v1.492h-0.604v-3.889h0.86c0.357,0,0.619,0.092,0.785,0.277
	C56.797,42.832,56.88,43.131,56.88,43.545 M56.298,43.549c0-0.191-0.034-0.342-0.103-0.453c-0.069-0.111-0.197-0.166-0.384-0.166
	h-0.224v1.26H55.8c0.188,0,0.315-0.055,0.389-0.16C56.262,43.922,56.298,43.762,56.298,43.549z M58.231,42.367l0.79,3.889h-0.614
	l-0.151-0.809H57.54c-0.026,0.133-0.051,0.27-0.075,0.402c-0.024,0.139-0.048,0.271-0.07,0.406h-0.613
	c0.13-0.65,0.261-1.301,0.391-1.945c0.131-0.645,0.261-1.293,0.392-1.943H58.231z M58.159,44.881l-0.252-1.613H57.88
	c-0.037,0.268-0.076,0.533-0.117,0.803c-0.041,0.266-0.086,0.535-0.135,0.811H58.159L58.159,44.881z M60.664,43.994h-0.693v-1.627
	h-0.604v3.891h0.604v-1.701h0.693v1.701h0.604v-3.891h-0.604V43.994z M63.582,42.922v2.334c14.455,2.666,23.414-9.695,23.414-9.695
	C75.289,48.148,63.582,42.922,63.582,42.922 M84.395,31.945c3.447-1.203,6.1-8.397,6.1-8.397c-6.473,1.42-6.775,7.557-6.775,7.557
	c1.135-1.826,2.936-3.783,3.736-4.621C86.32,27.91,84.395,31.945,84.395,31.945 M17.392,44.83H17.37v-2.463h-0.588v3.889h0.582
	l0.814-2.438h0.019v2.438h0.592v-3.889h-0.586L17.392,44.83z"/>
</svg>
