<?xml version="1.0" encoding="utf-8"?>
<!-- Generator: Adobe Illustrator 19.2.1, SVG Export Plug-In . SVG Version: 6.00 Build 0)  -->
<svg version="1.1" id="Слой_1" xmlns="http://www.w3.org/2000/svg" xmlns:xlink="http://www.w3.org/1999/xlink" x="0px" y="0px"
	 width="115px" height="48px" viewBox="0 0 115 48" enable-background="new 0 0 115 48" xml:space="preserve">
<path fill="#625F5E" d="M38.433,34.77l-1.467,0.04l-4.44,0.079l-1.388,0.04v-0.595c0-0.357,0.04-0.595,0.119-0.793
	s0.198-0.317,0.357-0.396c0.198-0.119,0.317-0.278,0.278-0.515l-0.278-12.964c0-0.159-0.04-0.238-0.119-0.317
	c-0.079-0.079-0.119-0.119-0.198-0.198c-0.159-0.079-0.278-0.198-0.357-0.357s-0.119-0.396-0.159-0.714v-0.674l7.414-0.198
	c0.198,0,0.357,0.04,0.436,0.159c0.119,0.119,0.159,0.238,0.159,0.357l0.04,2.498h-0.872c-0.317,0-0.595-0.04-0.833-0.119
	c-0.238-0.079-0.357-0.238-0.357-0.515c0-0.079-0.04-0.198-0.079-0.278c-0.04-0.079-0.119-0.119-0.278-0.119L34.23,19.27
	c-0.079,0-0.159,0.04-0.238,0.119c-0.079,0.079-0.119,0.159-0.119,0.238l0.119,4.916c0,0.238,0.119,0.317,0.357,0.317l2.775-0.079
	c0.079,0,0.159,0.04,0.238,0.079c0.079,0.04,0.119,0.159,0.119,0.278l0.04,1.308c0,0.238-0.119,0.317-0.357,0.317l-2.815,0.079
	c-0.238,0-0.357,0.119-0.357,0.317l0.119,5.471c0,0.238,0.119,0.317,0.278,0.317l2.339-0.04c0.159,0,0.238-0.119,0.238-0.317
	c0-0.238,0.079-0.436,0.317-0.595c0.198-0.159,0.476-0.238,0.833-0.238h0.872l0.04,2.418c0,0.159-0.04,0.317-0.159,0.436
	C38.75,34.73,38.591,34.77,38.433,34.77z M18.926,24.226c0.079,1.15-0.119,2.101-0.634,2.815s-1.427,1.11-2.775,1.229l-1.507,0.119
	c-0.198,0-0.317,0.119-0.317,0.317l0.396,4.876c0,0.159,0.04,0.278,0.079,0.317c0.04,0.04,0.119,0.119,0.198,0.159
	c0.119,0.079,0.278,0.198,0.396,0.357C14.881,34.574,15,34.772,15,35.049l0.04,0.674l-3.885,0.317l-0.079-0.595
	c-0.04-0.278,0.04-0.476,0.119-0.674c0.119-0.198,0.238-0.317,0.357-0.436c0.079-0.079,0.119-0.119,0.159-0.198
	c0.04-0.079,0.04-0.159,0.04-0.317l-1.07-12.964c0-0.238-0.119-0.396-0.357-0.476c-0.159-0.079-0.317-0.198-0.436-0.396
	S9.69,19.548,9.65,19.231l-0.04-0.595l5.074-0.436c1.308-0.119,2.299,0.159,2.934,0.793c0.635,0.634,0.991,1.546,1.11,2.696
	L18.926,24.226z M16.627,24.424l-0.238-2.577c-0.04-0.555-0.198-0.991-0.436-1.269c-0.238-0.317-0.634-0.436-1.11-0.396
	l-1.467,0.119c-0.079,0-0.159,0.04-0.238,0.119c-0.079,0.079-0.119,0.159-0.079,0.238l0.436,5.511c0,0.238,0.119,0.317,0.317,0.317
	l1.546-0.119c0.476-0.04,0.833-0.238,1.031-0.595S16.667,24.979,16.627,24.424z M30.185,33.98l0.04,0.912l-1.943,0.119
	c-0.396,0.04-0.714-0.079-0.912-0.278c-0.198-0.198-0.317-0.476-0.317-0.833l-0.238-4.599c-0.04-0.555-0.159-0.951-0.396-1.269
	c-0.238-0.278-0.595-0.436-1.11-0.396l-1.467,0.079c-0.198,0-0.317,0.119-0.278,0.357l0.238,4.876c0,0.159,0.04,0.278,0.079,0.317
	c0.04,0.079,0.119,0.119,0.159,0.198c0.119,0.079,0.278,0.198,0.396,0.396c0.119,0.159,0.198,0.396,0.238,0.634l0.04,0.674
	l-3.885,0.198l-0.04-0.674c0-0.278,0.04-0.476,0.159-0.674c0.119-0.159,0.238-0.317,0.357-0.436
	c0.079-0.079,0.119-0.119,0.159-0.198c0.04-0.079,0.079-0.159,0.04-0.317L20.83,20.062c0-0.119-0.04-0.238-0.079-0.278
	c-0.04-0.079-0.119-0.119-0.159-0.159c-0.119-0.079-0.238-0.198-0.396-0.357c-0.119-0.159-0.198-0.396-0.198-0.753l-0.04-0.674
	l4.797-0.238c0.674-0.04,1.229,0.04,1.744,0.198c0.476,0.159,0.872,0.436,1.189,0.753c0.317,0.317,0.555,0.714,0.714,1.189
	c0.159,0.476,0.278,0.991,0.278,1.586l0.119,2.418c0.04,0.515-0.04,0.951-0.238,1.388s-0.436,0.793-0.753,1.07
	c-0.119,0.159-0.119,0.317,0.079,0.476c0.357,0.238,0.674,0.595,0.872,1.07c0.198,0.476,0.317,0.991,0.357,1.546l0.159,3.449
	c0,0.159,0.04,0.238,0.079,0.278c0.118,0.003,0.158,0.043,0.237,0.083c0.119,0.079,0.238,0.159,0.396,0.278
	C30.106,33.504,30.185,33.702,30.185,33.98z M26.539,23.868l-0.159-2.576c-0.04-0.555-0.159-0.991-0.396-1.269
	c-0.238-0.317-0.595-0.436-1.11-0.436l-1.388,0.079c-0.238,0-0.357,0.119-0.357,0.357l0.278,5.55c0,0.079,0.04,0.159,0.119,0.198
	c0.079,0.04,0.119,0.079,0.198,0.079l1.467-0.079c0.515-0.04,0.872-0.198,1.07-0.555S26.578,24.423,26.539,23.868z M10.323,35.486
	l0.079,0.634l-3.885,0.436l-0.079-0.634c-0.04-0.278,0-0.515,0.079-0.714c0.079-0.198,0.198-0.317,0.317-0.396
	c0.079-0.079,0.119-0.159,0.159-0.198c0.04-0.079,0.079-0.159,0.04-0.317c-0.079-0.278-0.119-0.555-0.198-0.793
	c-0.04-0.198-0.119-0.396-0.159-0.595c-0.04-0.199-0.079-0.317-0.079-0.396c-0.04-0.198-0.119-0.317-0.238-0.357
	c-0.119-0.04-0.238-0.079-0.357-0.04l-2.656,0.317c-0.238,0.04-0.357,0.198-0.357,0.515c0,0.079,0,0.198,0,0.396s0,0.396,0,0.634
	c0,0.238,0,0.515,0,0.833c0,0.159,0.04,0.238,0.079,0.317c0.04,0.04,0.119,0.119,0.198,0.159c0.119,0.079,0.278,0.159,0.396,0.317
	C3.78,35.762,3.86,36,3.9,36.278l0.079,0.634l-3.885,0.436l-0.079-0.634c-0.04-0.278,0-0.515,0.079-0.714
	c0.079-0.238,0.198-0.396,0.317-0.476c0.079-0.079,0.119-0.159,0.198-0.238c0.04-0.079,0.079-0.198,0.119-0.317
	c0.159-2.418,0.317-4.599,0.476-6.542c0.079-0.833,0.119-1.625,0.159-2.418c0.04-0.793,0.119-1.507,0.159-2.101
	c0.04-0.634,0.079-1.11,0.119-1.507c0.04-0.396,0.04-0.595,0.04-0.595c0-0.119,0-0.238,0-0.357c0-0.119-0.04-0.159-0.159-0.198
	c-0.396-0.119-0.634-0.515-0.714-1.15l-0.079-0.515l3.132-0.357c0.357-0.04,0.674,0.04,0.912,0.198
	c0.238,0.198,0.396,0.396,0.436,0.674c0,0.079,0.079,0.317,0.198,0.714c0.119,0.436,0.278,0.951,0.476,1.625s0.396,1.388,0.634,2.22
	c0.238,0.833,0.476,1.665,0.753,2.498c0.595,1.982,1.269,4.242,1.982,6.779c0.04,0.119,0.119,0.198,0.159,0.278
	c0.119,0.16,0.199,0.2,0.278,0.24c0.119,0.079,0.278,0.198,0.396,0.357C10.204,35.01,10.323,35.208,10.323,35.486z M5.884,29.776
	c0,0-0.04-0.159-0.119-0.396c-0.079-0.238-0.159-0.555-0.278-0.951s-0.238-0.793-0.357-1.308c-0.119-0.476-0.278-0.991-0.436-1.467
	l-1.11-3.925h-0.04l-0.278,4.163c-0.04,0.515-0.079,1.031-0.079,1.546c0,0.476-0.04,0.912-0.04,1.308c0,0.396-0.04,0.714-0.04,0.991
	c0,0.238,0,0.396,0,0.396c0,0.119,0.04,0.198,0.119,0.278c0.079,0.079,0.159,0.079,0.238,0.079l2.142-0.277
	c0.119,0,0.198-0.079,0.238-0.159C5.884,29.975,5.923,29.895,5.884,29.776z M78.593,19.508l-0.079,0.674
	c0,0.278,0,0.476,0.119,0.674c0.079,0.198,0.198,0.317,0.317,0.436c0.08,0.079,0.119,0.119,0.159,0.198c0,0.039,0.04,0.158,0,0.317
	l-1.665,12.885v0.04c0,0.119-0.039,0.238-0.079,0.278c-0.039,0.08-0.119,0.119-0.198,0.159c-0.158,0.079-0.317,0.198-0.436,0.357
	c-0.119,0.158-0.198,0.356-0.238,0.634l-0.079,0.714l3.885,0.515l0.079-0.714c0-0.278,0-0.476-0.119-0.674
	c-0.079-0.198-0.198-0.317-0.317-0.436c-0.08-0.079-0.119-0.119-0.159-0.198c-0.04-0.079-0.04-0.158-0.04-0.317v-0.04l1.625-12.885
	c0.04-0.158,0.08-0.277,0.119-0.317c0.039-0.04,0.119-0.119,0.198-0.159c0.158-0.079,0.277-0.199,0.436-0.357
	c0.159-0.158,0.238-0.356,0.278-0.634l0.079-0.674L78.593,19.508z M49.255,31.52v-2.299c0-0.634-0.158-1.189-0.436-1.665
	c-0.317-0.475-0.674-0.912-1.11-1.308c-0.436-0.396-0.912-0.753-1.427-1.07c-0.515-0.317-0.991-0.634-1.427-0.912
	c-0.436-0.317-0.832-0.594-1.11-0.872c-0.277-0.317-0.436-0.595-0.436-0.912l-0.114-2.419c0-0.158,0.04-0.317,0.159-0.436
	c0.119-0.119,0.277-0.238,0.436-0.317c0.198-0.079,0.357-0.158,0.555-0.198c0.198-0.039,0.396-0.079,0.555-0.079
	c0.158,0,0.317,0.039,0.515,0.079c0.198,0.039,0.396,0.119,0.555,0.198c0.158,0.119,0.277,0.198,0.396,0.357
	c0.119,0.119,0.159,0.278,0.159,0.476v0.872c0,0.396,0.118,0.713,0.396,0.951c0.277,0.277,0.595,0.396,0.991,0.396h1.07v-1.744
	c0.039-0.595-0.08-1.11-0.278-1.546c-0.199-0.436-0.476-0.832-0.833-1.11c-0.357-0.317-0.793-0.515-1.269-0.674
	c-0.476-0.159-0.991-0.238-1.586-0.238c-0.555,0-1.11,0.079-1.586,0.198c-0.476,0.158-0.912,0.356-1.269,0.634
	c-0.357,0.317-0.635,0.674-0.833,1.11c-0.198,0.436-0.317,0.952-0.317,1.586v1.665c0,0.634,0.158,1.189,0.436,1.665
	c0.277,0.476,0.634,0.873,1.07,1.229c0.436,0.356,0.912,0.674,1.427,0.951c0.515,0.277,0.991,0.555,1.427,0.872
	c0.436,0.277,0.792,0.634,1.07,0.991c0.317,0.357,0.436,0.793,0.436,1.308v2.498c-0.039,0.198-0.079,0.396-0.198,0.555
	c-0.119,0.198-0.278,0.317-0.476,0.436c-0.159,0.119-0.357,0.199-0.595,0.278c-0.238,0.079-0.436,0.119-0.634,0.119
	s-0.396,0-0.634-0.079c-0.199-0.08-0.397-0.159-0.595-0.278c-0.158-0.118-0.317-0.237-0.436-0.396
	c-0.119-0.159-0.159-0.357-0.159-0.555v-0.991c0-0.357-0.119-0.635-0.317-0.833s-0.515-0.317-0.951-0.317h-1.11v1.744
	c0,0.595,0.079,1.11,0.317,1.546c0.238,0.436,0.516,0.832,0.912,1.11c0.397,0.317,0.833,0.515,1.348,0.674s1.03,0.238,1.625,0.238
	c0.555,0,1.11-0.079,1.625-0.198s0.952-0.356,1.348-0.634c0.396-0.317,0.713-0.674,0.951-1.11
	C49.136,32.63,49.255,32.115,49.255,31.52z M64.678,18.756c-0.317-0.317-0.753-0.555-1.229-0.753
	c-0.476-0.158-0.991-0.277-1.586-0.317c-0.555-0.04-1.111-0.04-1.586,0.079c-0.475,0.119-0.912,0.277-1.308,0.555
	c-0.357,0.238-0.674,0.595-0.912,1.031c-0.237,0.436-0.356,0.952-0.396,1.586l-0.119,1.665c-0.04,0.674,0.039,1.229,0.317,1.705
	c0.238,0.476,0.594,0.912,0.991,1.269c0.397,0.357,0.872,0.714,1.348,1.031c0.476,0.357,0.912,0.674,1.348,0.991
	c0.436,0.317,0.753,0.674,1.031,1.07c0.278,0.397,0.397,0.833,0.357,1.348l-0.159,2.498c0,0.238-0.079,0.396-0.198,0.555
	c-0.119,0.158-0.278,0.277-0.476,0.396c-0.198,0.119-0.396,0.198-0.634,0.238c-0.238,0.079-0.436,0.079-0.634,0.079
	s-0.436-0.04-0.634-0.119c-0.238-0.04-0.436-0.159-0.595-0.278c-0.198-0.119-0.317-0.277-0.436-0.436
	c-0.119-0.159-0.159-0.357-0.159-0.555l0.079-0.991c0-0.357-0.08-0.635-0.278-0.833s-0.476-0.317-0.912-0.357l-1.11-0.079
	l-0.119,1.744c-0.04,0.595,0.04,1.11,0.238,1.586c0.199,0.436,0.476,0.833,0.833,1.15c0.357,0.278,0.793,0.555,1.308,0.714
	c0.515,0.158,1.03,0.277,1.625,0.317c0.595,0.04,1.15,0,1.665-0.119c0.516-0.119,0.992-0.277,1.388-0.555
	c0.396-0.238,0.713-0.595,0.991-1.031c0.238-0.436,0.396-0.951,0.436-1.546l0.159-2.299c0.04-0.635-0.039-1.19-0.317-1.705
	c-0.278-0.516-0.635-0.952-1.031-1.388c-0.437-0.397-0.873-0.793-1.388-1.15c-0.516-0.357-0.952-0.674-1.388-0.991
	c-0.397-0.317-0.753-0.595-1.031-0.912c-0.277-0.278-0.436-0.595-0.396-0.912l0.202-2.376c0-0.158,0.079-0.317,0.198-0.436
	c0.119-0.119,0.277-0.238,0.436-0.317c0.198-0.08,0.357-0.119,0.555-0.159c0.198-0.04,0.396-0.04,0.555-0.04
	c0.158,0,0.317,0.039,0.515,0.079c0.198,0.079,0.356,0.159,0.515,0.238c0.158,0.079,0.277,0.198,0.396,0.357
	c0.079,0.158,0.119,0.317,0.119,0.515l-0.04,0.872c-0.04,0.356,0.079,0.673,0.317,0.951c0.237,0.277,0.555,0.396,0.951,0.436
	l1.07,0.079l0.119-1.744c0.04-0.595-0.039-1.11-0.198-1.586C65.273,19.47,65.035,19.073,64.678,18.756z M76.732,19.192l-1.467-0.159
	c-0.238,0-0.436,0.04-0.634,0.119c-0.158,0.119-0.317,0.198-0.436,0.317c-0.119,0.159-0.278,0.317-0.357,0.476l-3.647,5.313
	l0.436-4.401c0-0.158,0.039-0.277,0.079-0.317c0.039-0.08,0.119-0.119,0.198-0.159c0.118-0.079,0.237-0.198,0.396-0.357
	c0.119-0.158,0.198-0.356,0.238-0.634l0.079-0.714l-3.846-0.357l-0.079,0.714c-0.04,0.278,0,0.476,0.119,0.674
	c0.079,0.198,0.198,0.317,0.317,0.436c0.04,0.079,0.079,0.119,0.119,0.198c0,0.04,0.04,0.159,0.04,0.278l-1.269,13.043
	c-0.04,0.119-0.079,0.238-0.119,0.278c-0.04,0.04-0.08,0.119-0.159,0.159c-0.118,0.079-0.237,0.198-0.396,0.357
	c-0.119,0.158-0.198,0.356-0.238,0.634l-0.079,0.674l3.885,0.396l0.079-0.674c0.04-0.278,0-0.476-0.119-0.674
	c-0.079-0.198-0.198-0.317-0.317-0.436c-0.08-0.079-0.119-0.119-0.159-0.198c-0.04-0.04-0.04-0.159-0.04-0.278l0.397-4.006
	l0.436-0.674c0.396,1.03,0.753,1.982,1.07,2.854c0.118,0.396,0.277,0.753,0.396,1.11c0.158,0.357,0.277,0.714,0.396,1.031
	c0.119,0.318,0.238,0.595,0.317,0.833c0.079,0.198,0.158,0.397,0.198,0.476c0.079,0.198,0.159,0.396,0.238,0.515
	c0.08,0.158,0.199,0.238,0.278,0.317c0.119,0.08,0.238,0.119,0.357,0.159c0.119,0.039,0.278,0.079,0.476,0.079l1.07,0.119
	l0.476,0.04l0.079-0.872c0.04-0.357,0-0.634-0.079-0.793c-0.118-0.158-0.237-0.317-0.396-0.396
	c-0.159-0.079-0.278-0.158-0.395-0.277c-0.079-0.079-0.119-0.198-0.198-0.317c-0.475-1.269-0.912-2.379-1.308-3.37
	c-0.159-0.436-0.317-0.873-0.476-1.269c-0.158-0.436-0.317-0.793-0.436-1.11s-0.238-0.595-0.317-0.793s-0.119-0.317-0.119-0.357
	c0-0.158-0.04-0.238,0-0.317c0-0.039,0.039-0.119,0.079-0.198c0.079-0.119,0.198-0.317,0.396-0.595
	c0.198-0.317,0.396-0.634,0.634-0.991c0.238-0.357,0.475-0.714,0.753-1.11c0.238-0.396,0.476-0.753,0.714-1.07
	c0.198-0.318,0.396-0.595,0.555-0.833c0.159-0.198,0.238-0.356,0.278-0.396c0.079-0.119,0.159-0.238,0.238-0.317
	c0.04-0.079,0.159-0.158,0.278-0.198c0.159-0.039,0.357-0.159,0.555-0.317c0.198-0.158,0.317-0.396,0.357-0.753L76.732,19.192z
	 M25.983,46.032h0.04v-0.001c-0.011-0.006-0.028-0.01-0.04-0.015V46.032z M25.785,45.397c-0.317,0-0.515,0.158-0.634,0.515v-0.476
	h-0.634v2.418h0.634v-1.189c0-0.198,0.08-0.396,0.159-0.515c0.118-0.119,0.237-0.198,0.396-0.198c0.102,0,0.2,0.03,0.277,0.064
	v-0.579C25.944,45.397,25.864,45.397,25.785,45.397z M50.683,46.387v1.507h-0.634v-0.357c-0.159,0.278-0.396,0.436-0.714,0.436
	c-0.238,0-0.436-0.079-0.555-0.198c-0.119-0.119-0.198-0.317-0.198-0.515c0-0.476,0.278-0.753,0.833-0.793l0.674-0.079
	c0-0.317-0.159-0.476-0.436-0.476c-0.278,0-0.555,0.079-0.833,0.278v-0.595h-0.04c0.119-0.079,0.238-0.119,0.436-0.159
	c0.159-0.04,0.317-0.04,0.476-0.04C50.366,45.396,50.683,45.713,50.683,46.387z M50.089,46.705l-0.516,0.079
	c-0.278,0.04-0.436,0.159-0.436,0.357c0,0.079,0.04,0.159,0.119,0.238c0.079,0.079,0.159,0.079,0.278,0.079
	c0.159,0,0.278-0.04,0.396-0.159c0.119-0.119,0.159-0.238,0.159-0.396V46.705z M57.898,47.3c-0.079,0.039-0.159,0.079-0.238,0.079
	c-0.198,0-0.317-0.118-0.317-0.396v-1.11h0.555v-0.476h-0.555v-0.714l-0.634,0.198v0.555h-0.396v0.476h0.396v1.229
	c0,0.515,0.238,0.793,0.753,0.793c0.198,0,0.357-0.039,0.476-0.079h-0.04V47.3z M53.973,45.437c-0.357,0-0.595,0.119-0.793,0.436
	v-0.396h-0.634v2.418h0.634v-1.388c0-0.198,0.08-0.317,0.159-0.436c0.079-0.119,0.198-0.159,0.357-0.159
	c0.277,0,0.436,0.198,0.436,0.634v1.348h0.634v-1.466C54.766,45.754,54.528,45.437,53.973,45.437z M32.802,46.586
	c-0.119-0.039-0.277-0.119-0.515-0.198c-0.198-0.04-0.317-0.159-0.317-0.278c0-0.04,0.04-0.119,0.119-0.159
	c0.08-0.039,0.159-0.079,0.278-0.079c0.238,0,0.436,0.04,0.634,0.159v-0.515c-0.198-0.079-0.436-0.119-0.634-0.119
	c-0.317,0-0.554,0.079-0.753,0.198c-0.199,0.119-0.278,0.317-0.278,0.555c0,0.158,0.04,0.317,0.119,0.436
	c0.119,0.119,0.317,0.238,0.674,0.357c0.238,0.079,0.357,0.198,0.357,0.317c0,0.159-0.119,0.238-0.436,0.238
	c-0.238,0-0.476-0.079-0.714-0.238h-0.002v0.555c0.199,0.079,0.436,0.119,0.714,0.119c0.317,0,0.595-0.079,0.793-0.198
	c0.199-0.119,0.278-0.317,0.278-0.555c0-0.159,0-0.278-0.079-0.357C33,46.705,32.921,46.626,32.802,46.586z M47.114,46.032h0.04
	v-0.001c-0.011-0.006-0.028-0.01-0.04-0.015V46.032z M36.132,47.3c-0.079,0.039-0.159,0.079-0.238,0.079
	c-0.198,0-0.317-0.118-0.317-0.396v-1.11h0.555v-0.476h-0.555v-0.714l-0.634,0.198v0.555h-0.396v0.476h0.396v1.229
	c0,0.515,0.238,0.793,0.753,0.793c0.198,0,0.357-0.039,0.476-0.079h-0.04V47.3z M43.151,46.863c0,0.198-0.08,0.317-0.159,0.436
	s-0.198,0.159-0.357,0.159c-0.317,0-0.476-0.199-0.476-0.595v-1.388h-0.634v1.467c0,0.674,0.317,1.031,0.872,1.031
	c0.317,0,0.555-0.158,0.753-0.436v0.357h0.634h0.001v-2.419h-0.634V46.863z M39.78,46.387v1.507h-0.634v-0.357
	c-0.159,0.278-0.396,0.436-0.714,0.436c-0.238,0-0.436-0.079-0.555-0.198c-0.119-0.119-0.198-0.317-0.198-0.515
	c0-0.476,0.278-0.753,0.833-0.793l0.674-0.079c0-0.317-0.159-0.476-0.436-0.476c-0.278,0-0.555,0.079-0.833,0.278v-0.595h-0.04
	c0.119-0.079,0.238-0.119,0.436-0.159c0.159-0.04,0.317-0.04,0.476-0.04C39.463,45.396,39.78,45.713,39.78,46.387z M39.186,46.705
	l-0.516,0.079c-0.278,0.04-0.436,0.159-0.436,0.357c0,0.079,0.04,0.159,0.119,0.238c0.079,0.079,0.159,0.079,0.278,0.079
	c0.159,0,0.278-0.04,0.396-0.159c0.118-0.119,0.159-0.238,0.159-0.396V46.705z M29.435,45.714c0.198,0.198,0.278,0.476,0.278,0.872
	l-0.003,0.278h-1.625c0.04,0.396,0.278,0.634,0.714,0.634c0.278,0,0.515-0.079,0.714-0.198v0.436
	c-0.238,0.119-0.515,0.198-0.872,0.198c-0.396,0-0.674-0.119-0.872-0.317c-0.198-0.238-0.317-0.515-0.317-0.912
	c0-0.396,0.119-0.714,0.357-0.951c0.238-0.237,0.515-0.357,0.833-0.357C28.999,45.397,29.237,45.516,29.435,45.714z M29.115,46.428
	c0-0.396-0.159-0.595-0.476-0.595c-0.119,0-0.238,0.04-0.357,0.159c-0.119,0.119-0.159,0.238-0.198,0.436H29.115z M46.916,45.397
	c-0.317,0-0.515,0.158-0.634,0.515v-0.476h-0.634v2.418h0.634v-1.189c0-0.198,0.08-0.396,0.159-0.515
	c0.118-0.119,0.237-0.198,0.396-0.198c0.102,0,0.2,0.03,0.277,0.064v-0.579C47.075,45.397,46.995,45.397,46.916,45.397z
	 M34.586,14.87l-2.18-3.212h-2.101v0.674l3.489,3.212L34.586,14.87z"/>
</svg>
