<svg width="64" height="64" fill="none" xmlns="http://www.w3.org/2000/svg"><path d="M50.545 5.75c6.493 4.938 11.745 11.82 13.116 20.065 1.105 9.356-.38 18.24-6.08 25.896a56.18 56.18 0 01-1.46 1.663l-.915 1.014c-5.386 5.68-12.625 9.26-20.46 9.592-9.025.233-17.022-1.557-23.952-7.651C4.272 50.125.298 42.284.004 33.208c-.129-8.34 2.287-15.795 7.788-22.152l.743-.983C12.61 5.225 19.358 1.775 25.513.577l1.092-.222C35.033-.797 43.543.82 50.545 5.75zM12.222 9.04c1.215.532 1.215.532 2.486.035 4.178-1.186 8.97-.856 12.819 1.174a43.194 43.194 0 012.87 1.907c.786.583.786.583 1.963.915.874-.528.874-.528 1.787-1.285 4.664-3.362 9.703-3.737 15.252-2.963.91.178 1.802.374 2.695.62-4.252-4.556-11.32-7.499-17.527-7.753-8.52-.18-15.766 1.62-22.345 7.35zm-5.265 6.62C4.243 19.32 2.947 23.4 3.51 27.976c1.451 6.932 7.06 11.742 11.92 16.504a58.402 58.402 0 013.368 3.586c1.671 1.936 3.485 3.717 5.305 5.51 2.098 2.066 4.143 4.122 6.006 6.404.696.707 1.346 1.064 2.25 1.456a3103.62 3103.62 0 004.148-4.128l1.407-1.4c2.286-2.271 4.547-4.532 6.637-6.987 1.818-2.05 3.828-3.932 5.778-5.855 2.02-2.003 3.956-4.042 5.793-6.215l.835-.967c3.26-3.997 4.057-7.696 3.687-12.76-.21-1.792-.818-3.258-1.703-4.813l-.503-.935c-2.066-3.464-5.235-6.056-9.09-7.275-5.123-1.014-9.661-.437-14.062 2.495-.891.662-1.74 1.301-2.524 2.088v.806a16.17 16.17 0 01-3.322-2.393c-3.582-3.154-7.818-3.531-12.392-3.318-4.119.354-7.471 2.816-10.091 5.883zM1.75 27.983C1.409 37.248 3.017 45.24 9.29 52.41c4.716 4.954 11.264 9.522 18.341 9.876.77.004 1.541-.018 2.311-.045-.57-.667-1.139-1.334-1.71-1.999-.443-.516-.884-1.032-1.324-1.55-1.904-2.22-3.946-4.275-6.028-6.326-2.064-2.033-4.068-4.076-5.954-6.277-.965-1.083-2.002-2.08-3.047-3.086-3.946-3.812-7.374-7.545-9.02-12.907-.293-1.001-.293-1.001-1.11-2.113zm60.01 1.209l-.268.842c-1.374 4.074-3.284 6.917-6.402 9.865a41.931 41.931 0 00-2.256 2.453c-2.078 2.402-4.367 4.593-6.628 6.822-1.77 1.755-3.47 3.532-5.092 5.425-1.297 1.464-2.704 2.82-4.099 4.19-.579.57-1.157 1.14-1.735 1.712l-.764.75c-.592.502-.592.502-.546.99 6.032.483 12.704-2.664 17.26-6.479l.863-.776 1.003-.89c6.102-5.735 8.937-13.17 9.57-21.373.038-1.369.038-1.369-.101-2.725l-.806-.806z" fill="#8B734B"/></svg>