<svg width="142" height="55" fill="none" xmlns="http://www.w3.org/2000/svg"><path d="M25.378 12.771c-9.843 0-17.85 8.022-17.85 17.883 0 9.861 8.007 17.884 17.85 17.884 9.843 0 17.85-8.023 17.85-17.884 0-9.86-8.007-17.883-17.85-17.883z" fill="#1D1D1B"/><path d="M0 29.929C0 16.174 11.17 4.983 24.9 4.983c13.73 0 24.9 11.19 24.9 24.946 0 13.755-11.17 24.946-24.9 24.946C11.17 54.875 0 43.685 0 29.93z" fill="#8C734B"/><path d="M46.525 29.929c0 11.827-9.57 21.415-21.376 21.415-11.805 0-21.375-9.588-21.375-21.415S13.344 8.514 25.15 8.514c11.806 0 21.376 9.588 21.376 21.415z" fill="#282B2C"/><mask id="a" style="mask-type:luminance" maskUnits="userSpaceOnUse" x="3" y="0" width="44" height="52"><path d="M3.774 0v29.93c0 11.826 9.57 21.413 21.376 21.413 11.805 0 21.375-9.587 21.375-21.414V0H3.775z" fill="#fff"/></mask><g mask="url(#a)"><path d="M17.632 41.777a.342.342 0 00-.02-.32c-.155.176-.151.255.02.32zM17.851 39.912c-.098.028-.11.086-.077.158.005.011.05.018.063.009.06-.043.064-.098.014-.167zM17.687 40.6c-.006.027-.015.056-.016.084 0 .023.01.045.052.069l.013-.151-.05-.003zM20.615 40.755h-.001v-.003.002z" fill="#000"/><path fill-rule="evenodd" clip-rule="evenodd" d="M-6.751 42.47l6.529-1.994s9.157-2.712 10.988-3.51c1.832-.798 4.109-3.995 5.319-3.992.927.002 5.306 1.221 7.302 1.79 1.995-.569 6.374-1.788 7.301-1.79 1.211-.003 3.488 3.194 5.32 3.992 1.83.798 11.465 3.11 11.465 3.11l5.335 4.628.24 7.418H-6.275l-.477-9.652z" fill="#fff"/><path fill-rule="evenodd" clip-rule="evenodd" d="M34.256 35.77S37.6 49.09 37.838 50.287c.24 1.197.956 1.595 1.115 1.197.16-.4-2.723-13.846-3.185-14.44-.557-.718-1.512-1.276-1.512-1.276zM12.445 35.85S9.141 49.25 8.902 50.446c-.24 1.197-.956 1.596-1.115 1.197-.159-.399 2.765-13.814 3.185-14.439.59-.877 1.473-1.356 1.473-1.356zM30.672 32.977c1.115.559 1.752 5.186-1.274 11.488-3.026 6.301-2.787 6.381-3.344 6.54-.557.16 2.548-5.504 2.39-6.301-.16-.798-2.072-3.67-2.47-3.032-.398.638-.693 1.317-1.102 1.576-.41.26-1.167 1.05-1.386.176-.219-.874-.14-4.145-.14-4.145s3.345 1.516 4.54-.478c1.194-1.995 2.786-5.824 2.786-5.824zM15.544 33.137c-.956.718-1.999 5.026 1.027 11.327 3.025 6.302 2.787 6.382 3.344 6.542.558.16-2.38-5.186-2.222-5.983.16-.798 2.469-3.75 2.867-3.111.398.638.128 1.077.538 1.336.41.26 1.166 1.05 1.385.176.22-.874.14-4.145.14-4.145s-3.345 1.516-4.54-.478c-1.193-1.995-2.54-5.664-2.54-5.664z" fill="#BBB"/><path fill-rule="evenodd" clip-rule="evenodd" d="M30.448 32.737c.065-.079 2.454 1.916-1.607 11.728l-4.22-6.063s2.476-1.621 5.827-5.665z" fill="#fff"/><path fill-rule="evenodd" clip-rule="evenodd" d="M24.62 38.402c-.636-.08-3.264.16-3.264.16l-1.353 2.233 1.831 2.233s-1.433 1.835-1.831 8.456c-.399 6.622 6.688 3.75 6.37-.399-.32-4.148-1.593-8.136-1.593-8.136l1.513-2.154-1.672-2.393z" fill="#000"/><path fill-rule="evenodd" clip-rule="evenodd" d="M23.825 43.428c-1.036 0-.876-.08-1.194.08-.32.159-1.593 8.296-1.036 8.694.557.4 1.832.4 2.07.24.24-.16.16-9.014.16-9.014z" fill="#2A2A2A"/><path fill-rule="evenodd" clip-rule="evenodd" d="M15.783 32.898c-.066-.08-2.549 2.153 1.512 11.965l4.116-6.222s-2.278-1.7-5.629-5.743z" fill="#fff"/><path fill-rule="evenodd" clip-rule="evenodd" d="M31.548 17.262c.637.643-.08.971 0 2.793.08 1.82-.557 7.067-1.273 8.245-.717 1.178-1.982 2.078-2.549 2.125-.955.08-9.316.339-9.953-.197-.637-.535-2.787-2.972-2.946-6.185-.16-3.214-.796-5.951-.08-6.701.717-.75 10.033-.718 11.546-.718s5.255.638 5.255.638z" fill="#F9CFA6"/><path fill-rule="evenodd" clip-rule="evenodd" d="M12.518 21.091c.08.958.08 1.596.319 2.313.238.718.238.798.398 1.516.155.701.239 1.277.477 1.436.239.16.395.228.558.32.162.09.398-1.676.238-2.872-.159-1.197-.088-2.243-.482-3.355-.393-1.113-.553-1.75-.871-1.75-.318 0-.845-.104-.637 2.392z" fill="#DD9F78"/><path fill-rule="evenodd" clip-rule="evenodd" d="M14.06 21.782c-.427.107-.507.187-.507.586 0 .399.08 1.197.478 1.515.398.32.796.638.717.24-.08-.399-.687-2.34-.687-2.34z" fill="#B46E4B"/><path fill-rule="evenodd" clip-rule="evenodd" d="M14.096 21.344c-.068.297-.543.146-.702.465-.16.32-.24.798-.16 1.117.08.32.717.957.717 1.516 0 .558-.159.399 0 .717.16.32.876.878.558 1.197-.32.319-.558.479-.717-.24-.16-.717-.239-1.515-.478-1.993-.239-.48-.318-.798-.318-1.437 0-.638-.16-1.595.08-1.994.238-.399.557-.319.557-.638s-.16-.717-.399-.319c-.238.4-.238 1.197-.318.878-.08-.32-.16-1.596.398-1.596s.876 1.915.782 2.327z" fill="#B46E4B"/><path fill-rule="evenodd" clip-rule="evenodd" d="M33.863 21.091c-.08.958-.08 1.596-.319 2.313-.238.718-.238.798-.397 1.516-.156.701-.24 1.277-.478 1.436-.239.16-.395.228-.558.32-.162.09-.397-1.676-.239-2.872.16-1.197.09-2.243.483-3.355.393-1.113.553-1.75.871-1.75.319 0 .845-.104.637 2.392z" fill="#DD9F78"/><path fill-rule="evenodd" clip-rule="evenodd" d="M32.404 21.782c.429.107.508.187.508.586 0 .399-.08 1.197-.478 1.515-.398.32-.796.638-.716.24.08-.399.686-2.34.686-2.34z" fill="#B46E4B"/><path fill-rule="evenodd" clip-rule="evenodd" d="M32.304 21.344c.068.297.543.146.702.465.16.32.239.798.16 1.117-.08.32-.717.957-.717 1.516 0 .558.159.399 0 .717-.16.32-.876.878-.558 1.197.319.319.558.479.717-.24.159-.717.239-1.515.478-1.993.239-.48.318-.798.318-1.437 0-.638.135-1.276-.104-1.674-.239-.4-.533-.639-.533-.958 0-.319.16-.717.398-.319.239.4.239 1.197.318.878.08-.32.16-1.596-.397-1.596-.558 0-.876 1.915-.782 2.327z" fill="#B46E4B"/><path fill-rule="evenodd" clip-rule="evenodd" d="M15.927 31.532c.303.441.676.804 1.289 1.286 1.114.878 1.592 1.755 2.23 2.314.636.558.557.558 1.194.957.636.398 1.831.478 3.105.319 1.274-.16 1.548-.584 2.07-.958.558-.398.797-.797 1.911-1.515 1.049-.675 2.15-2.074 2.628-2.473.063-.053.115-.106.159-.16l-.08 1.755s.552 1.58-1.504 3.292c-.866.723-2.197 1.47-4.228 2.133-4.96 1.618-8.918-3.43-8.998-4.308-.08-.877.224-2.642.224-2.642z" fill="#DD9F78"/><mask id="b" style="mask-type:luminance" maskUnits="userSpaceOnUse" x="16" y="31" width="7" height="6"><path d="M16.288 31.912h6.67v5.014h-6.67v-5.014z" fill="#fff"/></mask><g mask="url(#b)"><path fill-rule="evenodd" clip-rule="evenodd" d="M22.949 36.487c-.797 1.197-3.106-.398-3.743-.718-.403-.202-.515 1.377-.974.968-.46-.41-1.434-.793-1.663-1.678-.23-.885-.552-3.316.127-3.138.679.178 6.518 4.168 6.253 4.566z" fill="#B46E4B" opacity=".62"/></g><mask id="c" style="mask-type:luminance" maskUnits="userSpaceOnUse" x="24" y="32" width="7" height="6"><path d="M24.057 32.152h5.979v4.917h-5.98v-4.917z" fill="#fff"/></mask><g mask="url(#c)"><path fill-rule="evenodd" clip-rule="evenodd" d="M24.063 35.29c.398.798 2.735.4 3.054.718.318.32.515 1.378.974.968.46-.409 1.434-.793 1.663-1.678.23-.885.552-3.315-.127-3.137-.679.178-5.777 2.702-5.564 3.13z" fill="#B46E4B" opacity=".62"/></g><path d="M8.488 11.28c.199-1.388.659-2.688 1.357-3.9 1.041-1.804 2.465-3.236 4.203-4.352 2.334-1.5 4.9-2.277 7.652-2.4a31.874 31.874 0 013.454.019c.54.034 1.075.104 1.607.198 1.292.23 2.541.607 3.738 1.153 1.992.908 3.715 2.177 5.087 3.907 1.291 1.628 2.111 3.466 2.382 5.544.2 1.537.053 3.042-.404 4.518-.014.043-.25.596-.276.657-.252.469-.785 2.084-3.361 4.914-.255.28.545-3-.73-2.856-.234.026-.328.528-.4.517 0-.08-1.067-1.379-1.17-1.379-.027-.046.264-4.02.24-4.068-.29-.56-1.36-3.136-3.344-4.627-.32-.239-2.333-.478-2.333-.478.096-.4.135-.81.117-1.227-.046-1.086-.393-2.052-1.168-2.839a2.873 2.873 0 00-1.333-.777 2.541 2.541 0 00-1.138-.04c-.936.183-1.599.741-2.09 1.534-.3.486-.47 1.02-.563 1.58-.04.235-.04.477-.051.635.003.205.03.403.037.597.001.058.009.225.001.218-.072.02-.25.061-.318.08-.28.077-1.225.28-1.512.399-.477.195-.829.511-1.195.877-.266.265-2.425 4.057-2.548 4.308-.027.054-.5.212-.558.239-.492.23-1.18.957-1.194.957-.155.636.028.795.319 1.516.09.226-.056 1.83 0 1.994 0 0-.319.24-.398.4-.305.609-.025 2.365-.08 2.312-.423-.402-.816-.74-1.195-1.188-.343-.404-.705-.791-.99-1.243-.177-.282-.39-.544-.542-.84a16.322 16.322 0 01-.649-1.419 10.454 10.454 0 01-.654-5.44z" fill="#fff"/><path d="M12.73 16.084c.014.271.128.485.293.867a.982.982 0 00-.027-.247c-.108-.266-.2-.455-.266-.62zM8.592 11.712c.2-1.388.66-2.688 1.358-3.9 1.04-1.804 2.465-3.236 4.202-4.352 2.334-1.5 4.9-2.277 7.653-2.4a31.876 31.876 0 013.454.019c.54.034 1.075.104 1.607.198 1.292.23 2.54.607 3.738 1.153 1.992.908 3.715 2.177 5.087 3.907.963 1.214 1.663 2.546 2.07 4.007-.383-1.63-1.118-3.106-2.175-4.439-1.372-1.73-3.095-3-5.086-3.907A15.524 15.524 0 0026.76.845a14.373 14.373 0 00-1.607-.199A32.015 32.015 0 0021.7.627c-2.752.125-5.318.901-7.652 2.4-1.738 1.117-3.162 2.548-4.203 4.354a10.827 10.827 0 00-1.357 3.899c-.21 1.463-.109 2.89.274 4.28a10.39 10.39 0 01-.17-3.848z" fill="#BBB"/><path d="M26.363 8.669c.038-.27.06-.541.049-.817a4.857 4.857 0 00-.183-1.096 4.454 4.454 0 01-.039 1.891l.173.022zM31.971 14.184a8.635 8.635 0 01-.11-.226c-.04.819-.257 3.822-.233 3.862.016 0 .06.04.116.093.052-.965.247-3.69.227-3.729zM33.91 19.522c.123.907-.147 2.196.017 2.016.028-.03.048-.057.076-.087.044-.559.11-1.42-.093-1.929zM19.844 5.403s-.24 1.01-1.434 1.808-3.822 4.068-4.38 4.627c-.556.558-.716.239-.397-.957.318-1.197 1.114-2.155.398-1.755-.717.398-1.752 3.27-1.832 5.105-.08 1.835.478 4.387.558 4.467.08.08-.398 1.037.796-2.154 1.194-3.19 3.148-7.143 4.799-7.8 1.65-.656 1.142.57 1.636-.92.492-1.49-.144-2.42-.144-2.42z" fill="#BBB"/><path d="M26.297 5.403s.24 1.01 1.434 1.808c1.195.798 3.822 4.068 4.38 4.627.557.558.716.239.398-.957-.319-1.197-1.115-2.155-.398-1.755.716.398 1.752 3.27 1.831 5.105.08 1.835-.478 4.387-.557 4.467-.08.08.398 1.037-.797-2.154-1.194-3.19-3.147-7.143-4.798-7.8-1.651-.656-1.143.57-1.636-.92-.493-1.49.143-2.42.143-2.42z" fill="#BBB"/><path fill-rule="evenodd" clip-rule="evenodd" d="M24.223 22.208c.08.558 0 .798.398 1.197.398.398.418.424.557.797.24.639-.239 1.356-.398 1.436-.27.135-.328-.023-.468-.083-.084-.036-.199-.036-.408.083-.557.319-.393.319-1.114.319-.637 0-.876-.638-1.195-.478-.318.16-.557.24-.796-.16-.239-.399-.176-.57-.08-.957.16-.638.458-.56.637-1.037.239-.639.398-1.995.558-1.915.159.08.397.958.318 1.596-.08.638-.424 1.391 0 1.675.478.32.478.398 1.195.24.388-.087.636-.32.557-1.038-.08-.718-.239-1.915 0-1.915s.239.24.239.24z" fill="#DD9F78"/><path fill-rule="evenodd" clip-rule="evenodd" d="M24.382 25.16c-.16 0-.239 0-.398.16-.203.202-.28.273-.478.478-.141.146.51-.246.637-.24.128.007.08.08.239 0 .202-.1.101-.398 0-.398zM21.532 25.24c.16 0 .24 0 .398.159.204.203.28.273.478.478.142.147-.51-.245-.637-.239-.128.006-.08.08-.239 0-.201-.1-.1-.399 0-.399z" fill="#B46E4B"/><path fill-rule="evenodd" clip-rule="evenodd" d="M29.637 18.06c-1.115-.638-2.07-.718-2.866-.798-.796-.08-2.787.24-3.982.32-1.194.08-2.534-.16-3.503-.16-1.035 0-2.628.16-2.946.478-.169.17-1.194-.638-.717-.718.478-.08 6.291-.957 7.883-.877 1.592.08 2.946.319 4.22.558 1.274.24 1.911 1.197 1.911 1.197z" fill="#DD9F78"/><path fill-rule="evenodd" clip-rule="evenodd" d="M31.628 17.82l1.169 1.379s-.293.935-.373 1.573c-.08.639-.08 1.117-.08 2.154s-.637 1.276-.557 1.835c.08.558.468 1.007.398 1.914a9.927 9.927 0 01-.796 3.111c-.398.878-.557 1.277-1.035 1.675-.478.4-1.58 1.799-2.628 2.473-1.115.718-1.353 1.117-1.91 1.516-.523.374-.797.798-2.07.957-1.275.16-2.47.08-3.106-.319-.638-.398-.558-.398-1.195-.957-.637-.559-1.114-1.436-2.23-2.314-1.114-.877-1.432-1.355-1.99-2.632-.557-1.276-.557-1.197-.876-2.951-.318-1.755.319-3.112.16-3.43-.16-.32-.478-1.117-.478-1.596 0-.479.239-1.436-.16-2.154-.397-.718-.876-1.276-.876-1.436 0-.16-.318-2.153.558-2.074.876.08 1.513-.239 1.433.32-.08.558-.637 8.934 2.549 10.05.986.347 2.496-.915 4.06-.877 1.809.045 4.38-.399 5.813.878 1.186 1.056 1.592-.08 2.15-.958 1.423-2.24 1.513-4.467 2.07-8.136z" fill="#674841"/><mask id="d" style="mask-type:luminance" maskUnits="userSpaceOnUse" x="26" y="17" width="6" height="11"><path d="M26.736 17.086h4.901v10.405h-4.901V17.086z" fill="#fff"/></mask><g mask="url(#d)"><path fill-rule="evenodd" clip-rule="evenodd" d="M31.628 17.262c.08.798-.357 3.83-.398 4.388-.16 2.154-.876 4.227-1.274 4.706-.398.479-.956 1.117-1.354 1.117-.398 0-.478.16-1.115-.479-.566-.567-.955-1.196-.637-1.196.32 0 1.513.399 2.15-.32.637-.717 1.672-2.712 1.672-3.669 0-.957.07-1.67-.16-2.313-.222-.626-.686-1.276-1.273-1.596-.47-.255-1.353-.718-.876-.797.478-.08 3.265.16 3.265.16z" fill="#DD9F78" opacity=".82"/></g><mask id="e" style="mask-type:luminance" maskUnits="userSpaceOnUse" x="14" y="17" width="6" height="11"><path d="M14.853 17.173h4.654v10.145h-4.654V17.173z" fill="#fff"/></mask><g mask="url(#e)"><path fill-rule="evenodd" clip-rule="evenodd" d="M14.906 17.183c-.08.797-.063 3.673 0 4.228.241 2.107.335 3.037 1.036 4.786.335.837.876 1.116 1.273 1.116.399 0 .416.071 1.116-.318.716-.4 1.415-1.396 1.097-1.396-.319 0-1.513.399-2.15-.32-.637-.718-1.672-2.712-1.672-3.67 0-.957-.08-1.674.16-2.312.238-.639.795-1.356 1.273-1.596.478-.24.956-.399.478-.478-.478-.08-2.61-.04-2.61-.04z" fill="#DD9F78" opacity=".82"/></g><path d="M32.583 16.704c-.159.319-.461.478-1.273.478-1.195 0-5.733-.957-7.326-.877-1.592.08-3.344 0-4.619.24-1.273.238-3.343.637-4.379.637-1.035 0-1.33-.219-1.541-.348-.21-.13-.632-.259-.7-.713-.068-.454-.385-.799.37-1.344.756-.546 1.075-.546 1.393-1.025.319-.479 1.474-2.513 1.812-3.091.338-.579 1.453-2.174 3.205-2.334 1.752-.159 7.246-.917 9.316 1.097 2.07 2.015 2.548 4.248 2.787 4.408.239.16 1.115.651 1.154.844.04.193.2.672.04 1.07-.159.4-.239.958-.239.958z" fill="#000"/><path d="M22.81 14.777c-.223.006-.766.269-.8.363-.09.242-.178.483-.265.726a3.347 3.347 0 00-.092.289c-.024.09-.083.127-.167.135-.207.018-1.003.08-1.201.095-.169-.494-.256-1.002-.557-1.457-.132.03-.28.05-.418.097-.42.142-.413.15-.616.553-.105.207-.465.81-.517.916-.054.11-.153.15-.26.166-.272.044-.544.078-.815.121-.153.024-.931.139-1.17.142-.557.007-1.114.002-1.672.002-.047 0-.096-.002-.143.002-.155.012-.184.047-.176.239.068.015.142.034.216.046.354.055.707.133 1.064.154.357.022.717-.006 1.076-.027.141-.008 1.864-.278 1.956-.284a3.67 3.67 0 00.655-.084 5.72 5.72 0 01.934-.166c.518-.04 1.033-.121 1.55-.16.394-.029.791-.02 1.186-.023.431-.003.863.004 1.294 0a13.95 13.95 0 011.738.093c.398.046.797.084 1.194.134.438.055.877.11 1.312.18.312.051.619.136.93.188.419.07 1.802.157 2.072.164.046.001.447-.035.51-.039.007-.098 0-.32-.33-.281-.096 0-.178-.004-.259 0-.184.01-1.36-.046-1.76-.112-.164-.027-1.77-.358-1.907-.374-.284-.034-.564-.102-.846-.151-.175-.031-.352-.056-.53-.08-.23-.031-1.083-.125-1.278-.148-.171-.02-1.38-.082-1.72-.082-.028-.458-.07-.902-.188-1.337z" fill="#fff"/><path d="M19.39 7.477c0 2.4 1.678 4.346 3.748 4.346 2.069 0 3.746-1.946 3.746-4.346 0-2.401-1.677-4.347-3.746-4.347-2.07 0-3.747 1.946-3.747 4.347z" fill="#FFCB00"/><path d="M21.44 8.425c.03.04.06.07.076.105.166.37.464.603.808.788.268.144.538.283.815.428.332-.183.68-.366 1.02-.564.26-.15.454-.368.582-.644.017-.036.044-.068.075-.114l.263.147c.169-.336.142-.661-.005-1.025a1.805 1.805 0 01-.646.675l.165.083c.07.035.08.083.033.145-.259.341-.638.507-1.056.417a.306.306 0 01-.245-.313c-.003-.564-.003-1.128 0-1.693 0-.147.018-.164.168-.164.147.001.295-.025.433.07.097.066.191.032.267-.06.079-.098.077-.212-.007-.312-.07-.085-.187-.123-.27-.055-.152.124-.32.065-.483.075-.075.005-.102-.044-.108-.114a.333.333 0 01.112-.302c.27-.25.192-.663-.129-.825-.247-.125-.56.062-.62.312-.04.172-.04.364.112.484.154.122.13.263.114.436-.195-.002-.38.069-.558-.063-.092-.068-.219-.032-.287.057a.279.279 0 00-.001.303c.071.096.18.128.283.059.175-.117.357-.045.554-.065.008.08.019.144.019.208.002.552.002 1.104 0 1.657 0 .166-.084.273-.243.307a1.015 1.015 0 01-1.067-.461c-.005-.01-.005-.023-.012-.054l.227-.133c-.258-.172-.48-.367-.63-.672-.17.358-.174.68-.017 1.026l.259-.149zm-1.425-1.697c.092-.56.263-1.095.564-1.58.49-.793 1.153-1.351 2.09-1.534a2.54 2.54 0 011.137.04c.513.134.96.398 1.333.777.775.787 1.122 1.753 1.168 2.839a4.437 4.437 0 01-.305 1.83c-.238.603-.58 1.13-1.088 1.535-.872.695-1.83.872-2.871.425a3.01 3.01 0 01-1.173-.924c-.623-.788-.891-1.697-.906-2.773.012-.158.012-.4.05-.635z" fill="#000"/><path d="M23.096 12.042c-.72.007-3.288.113-3.845.239-.57.13-2.07.481-2.251.518-.447.09-1.416.596-1.442.704-.03.128-.076.253-.1.383-.02.111.01.146.122.143.07-.002.777-.292 1.07-.393a34.385 34.385 0 011.338-.33c.315-.07 1.697-.278 2.06-.372.623-.159 2.415-.157 2.678-.154.389.004 1.43-.004 1.56-.002.36.005 1.629.132 1.904.186.328.066 2.005.38 2.517.47.484.087 1.682.585 1.74.593.177.027.464-.594-.276-.822-.313-.15-2.086-.678-2.657-.78-.241-.043-1.52-.284-1.924-.324-.83-.08-1.663-.077-2.494-.06z" fill="#FFCB00"/><path d="M16.281 14.718c.422-.175 1.965-.55 2.293-.641.422-.118 3.928-.292 4.227-.305.617-.024 1.23.027 1.846.063.172.01.347.008.52-.004.251-.019 2.129.193 2.5.285.318.08.632.18.952.25.409.092.814.19 1.202.353.048.022.772.39.705.16.083-.116.092-.273.119-.425.013-.075-.53-.338-.75-.433a7.33 7.33 0 00-1.472-.448c-.575-.116-2.195-.331-2.425-.368-.13-.02-1.062-.081-1.396-.088-.383-.008-1.512-.034-1.695-.034-.215 0-1.132.043-1.377.038a9.236 9.236 0 00-1.04.046c-.314.03-.625.093-.938.14-.207.03-1.627.215-2.125.319-.651.135-1.252.396-1.845.683-.143.068-.148.083-.115.238.026.12.156.322.814.171zM15.325 15.194c-.268-.519-.401-1.046-.174-1.608-.063-.098-.152-.107-.237-.063-.112.059-.217.143-.24.274-.094.512-.127 1.022.121 1.507.079.155.114.17.257.079.09-.057.175-.12.273-.189zM13.718 15.68c-.022-.213-.059-.424-.187-.607-.11-.157-.3-.21-.466-.119a.554.554 0 00-.291.36.893.893 0 00.172.79c.157.202.355.21.538.03.05-.05.095-.104.141-.156.074-.085.13-.176.093-.298zM13.984 15.152c.096-.087.18-.162.262-.24a.13.13 0 00.04-.083c.003-.202.002-.405.002-.606-.082-.051-.135-.004-.192.037-.117.087-.234.175-.354.257-.162.112-.168.169-.035.314.093.102.18.209.277.321zM14.593 15.677l-.233-.44c-.075.053-.146.095-.207.148-.086.073-.135.164-.114.286.015.088.013.178.024.267.013.107.047.126.155.094.145-.044.265-.155.375-.355zM30.733 15.194c.268-.519.401-1.046.174-1.608.063-.098.152-.107.237-.063.112.059.217.143.241.274.093.512.126 1.022-.122 1.507-.079.155-.114.17-.257.079-.09-.057-.175-.12-.273-.189zM32.075 15.152c-.096-.087-.182-.162-.263-.24a.13.13 0 01-.04-.083c-.003-.202-.002-.405-.002-.606.082-.051.135-.004.192.037.117.087.234.175.354.257.162.112.168.169.035.314-.093.102-.18.209-.276.321zM31.465 15.677l.233-.44c.075.053.146.095.207.148.086.073.135.164.114.286-.015.088-.013.178-.023.267-.013.107-.048.126-.156.094-.145-.044-.265-.155-.375-.355z" fill="#FFCB00"/><path fill-rule="evenodd" clip-rule="evenodd" d="M30.832 20.533c-.503.736-1.115 0-1.274.16-.16.16-.638.638-1.274.717-.637.08-2.23-.16-2.628-.319-.37-.148-1.115-.399-1.354 0-.239.4-.239.4-.318-.16-.08-.558-.319-1.834 0-2.233.318-.399 1.831-1.117 2.866-1.117 1.036 0 2.198.205 2.628.479.876.558 1.766 1.87 1.354 2.473zM15.089 20.533c.503.736 1.114 0 1.273.16.16.16.638.638 1.275.717.636.08 2.206-.16 2.605-.16.398 0 1.137-.557 1.376-.159.238.4.238.4.319-.16.079-.558.318-1.834 0-2.233-.32-.399-1.832-1.116-2.867-1.116s-2.198.204-2.628.478c-.876.558-1.766 1.87-1.353 2.473z" fill="#DD9F78"/><mask id="f" style="mask-type:luminance" maskUnits="userSpaceOnUse" x="25" y="19" width="4" height="2"><path d="M25.743 19.336h2.86v.91h-2.86v-.91z" fill="#fff"/></mask><g mask="url(#f)"><path fill-rule="evenodd" clip-rule="evenodd" d="M28.602 19.974c-.092.062-.504.197-.955.24-.72.068-1.574.018-1.672-.08-.16-.16-.35-.229-.136-.274.215-.045.534-.364 1.011-.444.478-.08.956-.16 1.354.08.398.239.398.479.398.479z" fill="#fff" opacity=".56"/></g><mask id="g" style="mask-type:luminance" maskUnits="userSpaceOnUse" x="17" y="19" width="4" height="2"><path d="M17.614 19.368h2.787v.878h-2.787v-.878z" fill="#fff"/></mask><g mask="url(#g)"><path fill-rule="evenodd" clip-rule="evenodd" d="M17.614 19.974c.092.062.432.197.883.24.72.068 1.575.018 1.673-.08.159-.16.35-.229.135-.274-.215-.045-.534-.364-1.011-.444-.478-.08-.884-.08-1.282.16-.398.239-.398.398-.398.398z" fill="#fff" opacity=".56"/></g><path fill-rule="evenodd" clip-rule="evenodd" d="M26.452 19.766c0 .326.357.59.796.59.44 0 .797-.264.797-.59 0-.325-.357-.589-.797-.589-.44 0-.796.264-.796.59z" fill="#543933"/><mask id="h" style="mask-type:luminance" maskUnits="userSpaceOnUse" x="26" y="19" width="2" height="2"><path d="M26.532 19.177h1.433v1.117h-1.433v-1.117z" fill="#fff"/></mask><g mask="url(#h)"><path fill-rule="evenodd" clip-rule="evenodd" d="M26.532 19.735c0 .309.32.559.716.559.396 0 .717-.25.717-.559 0-.308-.321-.558-.717-.558-.395 0-.716.25-.716.558z" fill="#137A96" opacity=".51"/></g><path fill-rule="evenodd" clip-rule="evenodd" d="M18.092 19.785c0 .325.356.588.796.588.44 0 .796-.263.796-.588 0-.324-.357-.587-.796-.587-.44 0-.796.263-.796.587z" fill="#543933"/><mask id="i" style="mask-type:luminance" maskUnits="userSpaceOnUse" x="18" y="19" width="2" height="2"><path d="M18.171 19.177h1.434v1.117H18.17v-1.117z" fill="#fff"/></mask><g mask="url(#i)"><path fill-rule="evenodd" clip-rule="evenodd" d="M18.171 19.735c0 .309.321.559.717.559.395 0 .716-.25.716-.559 0-.308-.32-.558-.716-.558-.396 0-.717.25-.717.558z" fill="#137A96" opacity=".51"/></g><mask id="j" style="mask-type:luminance" maskUnits="userSpaceOnUse" x="27" y="19" width="1" height="1"><path d="M27.05 19.38h.437v.196h-.436v-.195z" fill="#fff"/></mask><g mask="url(#j)"><path fill-rule="evenodd" clip-rule="evenodd" d="M27.487 19.416c0 .08-.239.16-.318.16-.08 0-.204-.087-.03-.16.189-.08.348 0 .348 0z" fill="#fff" opacity=".89"/></g><mask id="k" style="mask-type:luminance" maskUnits="userSpaceOnUse" x="26" y="19" width="2" height="2"><path d="M26.67 19.735h.42v.34h-.42v-.34z" fill="#fff"/></mask><g mask="url(#k)"><path fill-rule="evenodd" clip-rule="evenodd" d="M26.85 19.735c.16 0 .24.08.24.16s0 .239-.16.16c-.16-.08-.319-.16-.24-.24.08-.08.16-.08.16-.08z" fill="#fff" opacity=".89"/></g><mask id="l" style="mask-type:luminance" maskUnits="userSpaceOnUse" x="18" y="19" width="2" height="1"><path d="M18.77 19.38h.436v.196h-.436v-.195z" fill="#fff"/></mask><g mask="url(#l)"><path fill-rule="evenodd" clip-rule="evenodd" d="M19.206 19.416c0 .08-.239.16-.318.16-.08 0-.204-.087-.03-.16.19-.08.348 0 .348 0z" fill="#fff" opacity=".89"/></g><mask id="m" style="mask-type:luminance" maskUnits="userSpaceOnUse" x="18" y="19" width="1" height="2"><path d="M18.31 19.815h.419v.34h-.42v-.34z" fill="#fff"/></mask><g mask="url(#m)"><path fill-rule="evenodd" clip-rule="evenodd" d="M18.49 19.815c.16 0 .239.08.239.16s0 .239-.16.16c-.159-.08-.318-.16-.239-.24.08-.08.16-.08.16-.08z" fill="#fff" opacity=".89"/></g><path fill-rule="evenodd" clip-rule="evenodd" d="M27.01 19.735c0 .11.106.2.239.2.131 0 .238-.09.238-.2 0-.11-.107-.2-.238-.2-.133 0-.24.09-.24.2z" fill="#543933"/><mask id="n" style="mask-type:luminance" maskUnits="userSpaceOnUse" x="26" y="22" width="4" height="3"><path d="M26.344 22.868h3.178v1.737h-3.178v-1.737z" fill="#fff"/></mask><g mask="url(#n)"><path fill-rule="evenodd" clip-rule="evenodd" d="M29.478 23.006c.16.558-.08 1.675-1.195 1.595-1.114-.08-2.309-.398-1.83-.638.477-.24 1.785-.298 2.07-.797.318-.559.955-.16.955-.16z" fill="#FDEECE" opacity=".42"/></g><mask id="o" style="mask-type:luminance" maskUnits="userSpaceOnUse" x="16" y="22" width="4" height="3"><path d="M16.71 22.868h3.178v1.737H16.71v-1.737z" fill="#fff"/></mask><g mask="url(#o)"><path fill-rule="evenodd" clip-rule="evenodd" d="M16.754 23.006c-.16.558.08 1.675 1.194 1.595 1.115-.08 2.31-.398 1.832-.638s-1.786-.298-2.07-.797c-.32-.559-.956-.16-.956-.16z" fill="#FDEECE" opacity=".42"/></g><mask id="p" style="mask-type:luminance" maskUnits="userSpaceOnUse" x="22" y="22" width="2" height="3"><path d="M22.471 22.512h1.038v2.249h-1.038v-2.25z" fill="#fff"/></mask><g mask="url(#p)"><path fill-rule="evenodd" clip-rule="evenodd" d="M23.506 24.17c-.07.6-.398.674-.716.524-.32-.15-.399-.747-.24-1.495.16-.747.399-.822.479-.524.08.3.522 1.108.477 1.496z" fill="#FDEECE" opacity=".42"/></g><mask id="q" style="mask-type:luminance" maskUnits="userSpaceOnUse" x="24" y="19" width="6" height="3"><path d="M24.462 19.975h5.096v1.674h-5.096v-1.674z" fill="#fff"/></mask><g mask="url(#q)"><path fill-rule="evenodd" clip-rule="evenodd" d="M29.558 20.778c-.309-.445-.355-.534-.601-.445-.247.09-.632.534-1.094.445-.462-.09-1.464 0-1.849-.267s-.907-.509-1.108-.521c-.201-.012-.51-.101-.432.343.077.445 0 .623.308.623s.618.05 1.195.336c.577.286 2.117.464 2.579.286.462-.178 1.002-.8 1.002-.8z" fill="#F9CFA6" opacity=".38"/></g><mask id="r" style="mask-type:luminance" maskUnits="userSpaceOnUse" x="16" y="19" width="6" height="3"><path d="M16.5 19.975h5.095v1.667H16.5v-1.667z" fill="#fff"/></mask><g mask="url(#r)"><path fill-rule="evenodd" clip-rule="evenodd" d="M16.5 20.778c.308-.445.354-.534.6-.445.246.09.632.534 1.094.445.462-.089 1.463 0 1.848-.266.386-.268.908-.51 1.109-.522.2-.012.51-.101.432.343-.077.445 0 .623-.308.623s.021.009-.556.295c-.576.286-2.756.506-3.218.328-.463-.179-1.002-.8-1.002-.8z" fill="#F9CFA6" opacity=".38"/></g><mask id="s" style="mask-type:luminance" maskUnits="userSpaceOnUse" x="24" y="23" width="2" height="3"><path d="M24.148 23.64h.914v1.532h-.914V23.64z" fill="#fff"/></mask><g mask="url(#s)"><path fill-rule="evenodd" clip-rule="evenodd" d="M24.62 23.803c.24.08.558.32.399.718-.16.4-.239.718-.398.638-.16-.08-.16-.16-.319-.318-.394-.395.08-1.277.16-1.197l.159.16z" fill="#F9CFA6" opacity=".38"/></g><mask id="t" style="mask-type:luminance" maskUnits="userSpaceOnUse" x="20" y="23" width="2" height="3"><path d="M20.883 23.64h.914v1.532h-.914V23.64z" fill="#fff"/></mask><g mask="url(#t)"><path fill-rule="evenodd" clip-rule="evenodd" d="M21.324 23.803c-.239.08-.557.32-.398.718.16.4.239.718.398.638.16-.08.16-.16.319-.318.394-.395-.08-1.277-.16-1.197l-.159.16z" fill="#F9CFA6" opacity=".38"/></g><path fill-rule="evenodd" clip-rule="evenodd" d="M26.293 28.67c.081.044.707-.127.717 0 .022.305-.857 1.21-1.195 1.435-.478.32-.717.638-1.194.48-.478-.16-.984-.576-.73-.847.252-.27 2.402-1.068 2.402-1.068zM19.722 28.55c-.081.044-.707-.127-.716 0-.023.306.856 1.21 1.194 1.436.478.319.717.638 1.194.479.478-.16.984-.576.731-.846-.253-.271-2.403-1.07-2.403-1.07z" fill="#F9CFA6"/><path fill-rule="evenodd" clip-rule="evenodd" d="M19.047 28.59c-.17-.195 2.628-.957 3.71-.646.451.13.895-.038 1.307-.072.992-.081 3.218.663 2.946.798-.272.134-7.963-.08-7.963-.08z" fill="#F9CFA6"/><path fill-rule="evenodd" clip-rule="evenodd" d="M26.134 28.75c-.398.239-1.433.877-1.912.957-.477.08-1.345 0-1.75 0-.4 0-.877-.08-1.116-.16-.239-.08-1.513-.797-1.513-.957 0-.16-.23.104.319 0 .549-.103 2.866 0 3.503 0s2.23.08 2.628.08c.398 0-.16.08-.16.08z" fill="#DD9F78"/><path fill-rule="evenodd" clip-rule="evenodd" d="M27.01 28.67c0 .067-.09.097-.225.104-.338.018-.958-.104-1.129-.104-.239 0-1.115 0-1.513.08-.398.08-.557.239-.955.159-.399-.08-.717-.08-1.195-.16-.477-.08-1.353-.16-1.672-.08-.318.08-.925-.022-1.035 0-.398.08-.398-.08-.239-.08.16 0 1.752-.557 2.469-.557.716 0 .955.08 1.433.16.477.079.637-.16 1.274-.16s2.787.558 2.787.638zM21.436 19.017c.239.16.477.718.319.958-.16.238-.717.08-1.036.08-.318 0-.53-.266-.876-.48-.393-.242-1.512-.318-1.91 0-.353.282-.24.48-.638.639-.398.16-.239 0-.318-.08-.08-.08.08-.558.875-.797.397-.12 1.117-.26 1.673-.16.56.1.955.399 1.194.478.311.105.557.08.478-.319-.08-.399-.398-.638-.08-.478l.319.16z" fill="#B46E4B"/><path fill-rule="evenodd" clip-rule="evenodd" d="M17.216 20.246c.126.048.126.127.28-.032.156-.16.168-.362.394-.54a1.318 1.318 0 011.029-.305c.514.047.778.178 1.004.286.279.133.597.436.558.4-.068-.064-.518-.545-.86-.592-.343-.047-.575-.206-1.04-.127-.465.08-.93.32-1.007.479-.077.16-.358.43-.358.43z" fill="#543933"/><path fill-rule="evenodd" clip-rule="evenodd" d="M29.398 20.134c.08.16.16.24-.159.16-.318-.08-.637-.718-1.035-.798-.398-.08-.637-.32-1.194-.08-.558.24-1.036.399-1.274.479-.24.08-.16.319-.478.24-.318-.08-.637-.16-.796-.32-.16-.16-.319-.08-.24-.479.08-.399.08-.717.32-.638.238.08 0 .24.159.559.159.319.08.478.557.239.478-.24.716-.32 1.274-.32.557 0 1.593-.08 2.07.16.478.24.796.798.796.798z" fill="#B46E4B"/><path fill-rule="evenodd" clip-rule="evenodd" d="M29.13 20.246c-.13.048-.13.127-.289-.032-.16-.16-.172-.362-.404-.54-.233-.178-.529-.353-1.058-.305-.529.047-.82.26-1.073.313-.252.053-.739.298-.655.255.085-.042.655-.427 1.007-.474.351-.047.59-.206 1.068-.127.478.08.956.32 1.035.479.08.16.368.43.368.43zM18.649 19.775c0 .11.107.2.239.2s.238-.09.238-.2c0-.11-.106-.2-.238-.2s-.239.09-.239.2z" fill="#543933"/><mask id="u" style="mask-type:luminance" maskUnits="userSpaceOnUse" x="22" y="28" width="2" height="1"><path d="M22.753 28.155h1.012v.68h-1.012v-.68z" fill="#fff"/></mask><g mask="url(#u)"><path fill-rule="evenodd" clip-rule="evenodd" d="M23.745 28.191c.08.24-.08.558-.398.638-.319.08-.717-.558-.558-.558.16 0 .637 0 .797-.08.159-.08.159 0 .159 0z" fill="#F9CFA6" opacity=".38"/></g><path fill-rule="evenodd" clip-rule="evenodd" d="M23.745 39.28c.557.478 1.194 1.435.716 2.074-.477.638-.796 1.116-1.353.797-.557-.319-1.433-2.234-.876-2.393.557-.16 1.513-.479 1.513-.479z" fill="#2A2A2A"/><path fill-rule="evenodd" clip-rule="evenodd" d="M10.846 37.365c-.426-.157-1.3-.213-1.823-.163L-.53 40.074l.23 2.476 9.873-3.111c.676-.614 1.054-1.32 1.274-2.074z" fill="#000"/><path d="M9.174 38.083L7.5 39.838l-1.751-.16-.319.32v.558l-.955.24-.16-.64.637-.717-.796-.08-.08-.638.876-.24.173.371.544.028.956-.957 2.548.16zM3.76 38.8l.318 2.154-.956.32-.318-2.154.955-.32z" fill="#FFCB00"/><path d="M7.66 38.561l-.477.559h-.796l.557-.559h.717z" fill="#000"/><path fill-rule="evenodd" clip-rule="evenodd" d="M35.857 37.365c.426-.157 1.3-.213 1.822-.163l9.555 2.872-.23 2.476-9.873-3.111c-.676-.614-1.054-1.32-1.274-2.074z" fill="#000"/><path d="M37.53 38.083l1.672 1.755 1.751-.16.319.32v.558l.955.24.16-.64-.638-.717.797-.08.08-.638-.877-.24-.172.371-.544.028-.956-.957-2.548.16zM42.944 38.8l-.319 2.154.956.32.318-2.154-.955-.32zM44.218 39.2l-.398 2.153 1.114.32.319-2.154-1.035-.32zM45.492 39.598l-.319 2.154 1.035.32.24-2.154-.956-.32z" fill="#FFCB00"/><path d="M39.042 38.561l.478.559h.796l-.557-.559h-.717z" fill="#000"/><path fill-rule="evenodd" clip-rule="evenodd" d="M31.707 24.282c-1.127 1.13.32 2.393-.477 3.43-.796 1.037-.956 2.952-2.07 3.43-1.115.48-1.832 1.437-2.31 2.155-.477.717-2.07 1.834-2.707 1.595-.637-.24-.557-.559-.717-.878-.159-.319 0-1.914-.397-2.073-.399-.16-.479-.799-.717 0-.24.797-.08 1.914-.876 2.233-.796.319-.956.957-1.354.08-.398-.878-.08-1.197-1.035-1.675-.955-.48-2.07-.638-2.389-1.835-.318-1.197-1.274-1.835-1.433-3.032-.159-1.196-.08-3.67-.398-3.43-.319.24-.637 2.074-.319 3.51.319 1.436.55 2.5 1.115 3.35.637.958 2.628 2.473 2.708 2.793.08.319.637.957 1.433 1.515.796.558 1.353.878 2.15 1.037.796.16 2.388 0 3.264-.479.876-.478 2.74-2.105 3.663-3.03 1.035-1.037 1.433-1.197 1.91-1.995.479-.797 1.434-3.27 1.434-4.148 0-.878-.239-2.792-.478-2.553z" fill="#543933"/><path fill-rule="evenodd" clip-rule="evenodd" d="M24.223 29.866c0-.32-2.31-.32-2.548-.08-.239.24.637.878 1.274.878s1.274-.391 1.274-.798zM26.691 28.032c-.876-.798-2.309-.718-2.866-.798-.558-.08-.478-1.037-.956-.878-.478.16-.319.638-1.035.878-.717.24-1.593.32-2.07.638-.478.32-1.195.558-.717.558.478 0 1.911-.478 2.707-.558.796-.08 1.832 0 2.31 0 .477 0 1.671.16 2.15.24.477.08.477-.08.477-.08zM30.633 20.014c-.12.28-.677-.199-.836-.358-.16-.16 0-.559-.478-.798-.478-.24-.318-.48-1.194-.4-.876.08-2.39.16-2.867.32-.478.16-.717.24-.796-.08-.08-.32-.16-.478.159-.718s2.548-.558 3.344-.398c.797.159 1.171.308 1.753.65.795.466.915 1.782.915 1.782zM15.313 20.014c.12.28.629-.359.788-.518.16-.16.08-.479.558-.718.477-.24.477-.32 1.162-.32.88 0 2.389.16 2.867.32.478.16.716.24.796-.08.08-.32.16-.479-.16-.718-.318-.24-2.547-.558-3.344-.399-.796.16-1.17.308-1.752.65-.796.467-.915 1.783-.915 1.783z" fill="#543933"/></g><path d="M48.472 7.98l-.458-.708h.402l.458.708h-.402zm-.785-.876h.345c.132 0 .232-.03.304-.087a.293.293 0 00.108-.241.286.286 0 00-.108-.24.485.485 0 00-.304-.083h-.345v.65zm-.398.876V6.134h.767c.243 0 .433.057.57.173a.581.581 0 01.206.469c0 .203-.068.36-.206.473-.137.112-.327.168-.57.168h-.365v.563h-.402zm.683.473a1.387 1.387 0 00.994-.405c.126-.127.223-.276.291-.448.07-.172.103-.356.103-.552 0-.197-.034-.38-.103-.549a1.327 1.327 0 00-.722-.733 1.407 1.407 0 00-.55-.106c-.199 0-.384.036-.553.106-.17.07-.317.17-.44.298a1.4 1.4 0 00-.395.992c0 .198.034.38.103.549.068.168.165.317.29.445.124.128.271.227.44.297.168.07.348.106.542.106zm.005.258c-.235 0-.451-.043-.65-.127a1.616 1.616 0 01-.872-.88 1.67 1.67 0 01-.125-.648 1.651 1.651 0 01.477-1.173c.15-.15.325-.27.526-.354.202-.084.419-.125.653-.125.233 0 .45.04.652.123.2.083.375.2.523.35a1.626 1.626 0 01.47 1.17c0 .235-.041.452-.126.654a1.629 1.629 0 01-.879.883c-.2.084-.416.127-.65.127z" fill="#8C734B"/><path d="M81.48 23.195l-1.647-2.19.87-.54 2.033 2.73h-1.255zm-.674-2.156l-1-.12 1.675-2.293h1.144l-1.819 2.413zm-1.845-.565h1.546v.89H78.96v-.89zm-.751-1.848h1.067v4.57H78.21v-4.57zM87.877 23.195v-.924l-.06-.197v-1.617c0-.314-.093-.557-.28-.731-.189-.174-.474-.262-.855-.262-.256 0-.509.04-.756.12a1.85 1.85 0 00-.627.334l-.419-.778a2.52 2.52 0 01.876-.424c.338-.094.69-.141 1.054-.141.66 0 1.172.158 1.533.475.361.316.542.805.542 1.467v2.678h-1.008zm-1.434.06c-.342 0-.64-.058-.897-.175a1.392 1.392 0 01-.594-.488 1.242 1.242 0 01-.209-.706c0-.257.061-.488.184-.693.122-.205.323-.368.602-.488.279-.12.649-.18 1.11-.18h1.324v.71h-1.247c-.364 0-.61.059-.734.176a.568.568 0 00-.189.432c0 .194.077.348.231.462.154.114.367.171.64.171.263 0 .498-.06.706-.18.207-.12.357-.296.447-.53l.18.642a1.189 1.189 0 01-.55.624c-.265.149-.6.223-1.004.223zM91.917 23.195v-4.569h4.372v4.57h-1.058v-3.911l.247.248h-2.741l.247-.248v3.91h-1.067zM99.44 23.195v-4.569h1.068v3.012l2.52-3.012h.973v4.57h-1.068v-3.013l-2.51 3.012h-.982zM108.092 23.195v-3.918l.248.256h-1.853v-.907h4.27v.907h-1.845l.247-.256v3.918h-1.067zM116.009 23.195v-.924l-.061-.197v-1.617c0-.314-.093-.557-.281-.731-.188-.174-.473-.262-.854-.262-.256 0-.509.04-.756.12-.247.08-.457.192-.627.334l-.419-.778a2.53 2.53 0 01.875-.424c.339-.094.69-.141 1.055-.141.66 0 1.172.158 1.533.475.361.316.542.805.542 1.467v2.678h-1.007zm-1.435.06c-.342 0-.641-.058-.897-.175a1.396 1.396 0 01-.594-.488 1.244 1.244 0 01-.209-.706c0-.257.061-.488.184-.693.122-.205.323-.368.602-.488.279-.12.649-.18 1.11-.18h1.324v.71h-1.247c-.364 0-.609.059-.734.176a.566.566 0 00-.189.432c0 .194.077.348.231.462.154.114.367.171.64.171.263 0 .498-.06.706-.18.207-.12.357-.296.447-.53l.18.642a1.19 1.19 0 01-.551.624c-.264.149-.599.223-1.003.223zM120.048 23.195v-4.569h1.067v1.857h2.298v-1.857h1.067v4.57h-1.067V21.39h-2.298v1.805h-1.067zM64.904 38.477h3.472c.728 0 1.28-.152 1.658-.456.377-.304.566-.774.566-1.41 0-.608-.19-1.06-.566-1.358-.377-.296-.93-.445-1.658-.445h-3.472v3.67zm0-6.012h2.945c.69 0 1.21-.148 1.56-.446.352-.296.527-.735.527-1.316 0-.58-.175-1.02-.526-1.316-.352-.297-.872-.446-1.56-.446h-2.946v3.524zm-3.14 8.5V26.453h6.358c1.587 0 2.822.325 3.707.975.884.65 1.326 1.575 1.326 2.777 0 1.19-.416 2.112-1.248 2.768-.833.657-1.938.985-3.316.985l.37-.87c1.534 0 2.725.324 3.57.974.845.65 1.268 1.589 1.268 2.819 0 1.272-.453 2.27-1.356 2.996-.904.725-2.22 1.088-3.95 1.088h-6.73zM83.938 40.965l-4.253-6.986 2.556-1.638 5.286 8.624h-3.59zm-1.405-6.883l-2.906-.373 4.428-7.256h3.335l-4.857 7.629zm-5.247-1.762h4.76v2.799h-4.76v-2.8zm-2.223-5.867h3.14v14.512h-3.14V26.453z" fill="#fff"/><path d="M89.325 38.228c.754.236 1.388.301 1.902.197.514-.103.972-.487 1.375-1.15l.663-1.057.293-.353 4.525-9.412h3.102l-5.813 11.485c-.52 1.036-1.135 1.831-1.843 2.384-.71.553-1.486.867-2.331.944-.845.076-1.724-.087-2.634-.488l.761-2.55zm4.174.436l-6.163-12.21h3.374l4.526 9.743-1.737 2.467zM106.939 41.214a7.744 7.744 0 01-2.936-.55 6.843 6.843 0 01-2.35-1.565 7.285 7.285 0 01-1.552-2.384c-.37-.912-.555-1.914-.555-3.006 0-1.092.185-2.094.555-3.006a7.22 7.22 0 011.561-2.384 6.99 6.99 0 012.351-1.565c.897-.366 1.879-.55 2.945-.55 1.183 0 2.253.218 3.209.654a6.304 6.304 0 012.409 1.917l-2.029 1.99c-.468-.566-.988-.991-1.56-1.274a4.161 4.161 0 00-1.873-.425c-.637 0-1.222.11-1.755.331a3.957 3.957 0 00-1.385.953 4.372 4.372 0 00-.907 1.473 5.282 5.282 0 00-.322 1.886c0 .691.107 1.32.322 1.886.214.567.516 1.058.907 1.473.39.414.851.732 1.385.953a4.536 4.536 0 001.755.331c.677 0 1.3-.14 1.873-.424.572-.283 1.092-.715 1.56-1.296l2.029 1.99a6.396 6.396 0 01-2.409 1.928c-.956.442-2.032.664-3.228.664zM120.38 38.353c.61 0 1.173-.111 1.687-.331.514-.221.965-.54 1.356-.955.39-.414.692-.905.906-1.472a5.274 5.274 0 00.322-1.886 5.28 5.28 0 00-.322-1.886 4.473 4.473 0 00-.897-1.472 3.923 3.923 0 00-1.355-.954 4.302 4.302 0 00-1.697-.332c-.612 0-1.174.111-1.688.332-.514.222-.965.54-1.355.954a4.366 4.366 0 00-.907 1.472 5.28 5.28 0 00-.322 1.886c0 .677.107 1.303.322 1.877.214.573.513 1.067.897 1.481a3.9 3.9 0 001.355.955c.52.22 1.086.33 1.698.33zm.019 2.861c-1.08 0-2.077-.187-2.994-.56a7.029 7.029 0 01-2.38-1.576 7.19 7.19 0 01-1.56-2.384c-.371-.912-.556-1.907-.556-2.985 0-1.078.185-2.073.556-2.985a7.129 7.129 0 011.57-2.384 7.157 7.157 0 012.38-1.575c.91-.374 1.898-.56 2.965-.56 1.079 0 2.07.186 2.974.56a7.087 7.087 0 012.361 1.575 7.381 7.381 0 011.569 2.373c.378.906.566 1.904.566 2.996 0 1.078-.188 2.077-.566 2.996-.377.919-.9 1.714-1.569 2.384a7.166 7.166 0 01-2.361 1.565c-.904.373-1.889.56-2.955.56zM132.186 38.477h3.472c.728 0 1.281-.152 1.658-.456.377-.304.566-.774.566-1.41 0-.608-.189-1.06-.566-1.358-.377-.296-.93-.445-1.658-.445h-3.472v3.67zm0-6.012h2.945c.689 0 1.21-.148 1.561-.446.351-.296.527-.735.527-1.316 0-.58-.176-1.02-.527-1.316-.351-.297-.872-.446-1.561-.446h-2.945v3.524zm-3.141 8.5V26.453h6.36c1.586 0 2.821.325 3.706.975.884.65 1.326 1.575 1.326 2.777 0 1.19-.416 2.112-1.248 2.768-.833.657-1.938.985-3.316.985l.371-.87c1.534 0 2.724.324 3.569.974.845.65 1.268 1.589 1.268 2.819 0 1.272-.452 2.27-1.356 2.996-.904.725-2.221 1.088-3.95 1.088h-6.73z" fill="#fff"/></svg>