<svg width="245" height="492" fill="none" xmlns="http://www.w3.org/2000/svg"><path d="M69.545-26.703h38.269v1.532l2.652.24c3.561.45 6.7 1.503 10.025 2.825l1.811.719c22.255 9.148 38.312 27.06 47.639 48.993 1.579 4.01 2.689 8.15 3.697 12.338l.929-2.894c7.465-22.623 20.191-41.712 41.167-53.794l1.348-.777c10.092-5.683 21.02-9.265 32.61-9.364l2.115-.019c1.478-.01 2.957-.019 4.435-.025a473.5 473.5 0 004.475-.047c9.27-.141 17.394.263 26.198 3.337l1.965.669a89.38 89.38 0 014.732 1.869l1.646.693c7.781 3.373 14.256 8.215 20.742 13.623l1.426 1.113c4.252 3.404 7.507 7.612 10.82 11.91l1.414 1.816c13.746 18.583 18.677 42.484 15.329 65.165-3.666 22.177-15.629 42.625-33.582 56.352-11.642 8.204-23.665 12.993-37.504 16.087l2.724.79c24.162 7.197 43.926 20.274 56.391 42.648 10.614 19.725 14.64 44.3 8.24 66.107-7.528 24.42-22.606 43.218-45.189 55.292-6.867 3.483-14.565 6.217-22.166 7.525l1.282.324c9.633 2.484 18.397 5.439 27.038 10.4l2.356 1.341c5.104 3.082 9.424 6.793 13.717 10.916l1.961 1.867 1.866 1.963c.5.505 1 1.01 1.516 1.529 16.604 17.42 21.952 40.339 21.631 63.738-.635 23.002-11.871 44.068-28.37 59.719-17.503 15.985-40.394 22.939-63.806 22-20.483-1.194-39.218-9.8-54.199-23.652l-1.68-1.493c-12.007-11.215-19.997-27.026-23.577-42.938l-.395 1.295c-7.761 25.139-21.967 45.174-45.442 57.661-20.085 10.226-43.816 11.932-65.408 5.59-22.016-7.581-40.892-22.829-51.509-43.738-10.915-22.504-12.107-47.08-4.126-70.741 7.702-21.439 24.29-38.956 44.704-48.743 6.053-2.791 12.422-4.564 18.848-6.272v-.766l-2.188-.536c-23.722-5.962-43.412-19.614-56.038-40.67C.092 256.385-2.88 232.252 2.75 209.326c3.33-12.299 9.158-24.363 17.81-33.792l1.532-1.855c12.731-15.085 30.76-23.825 49.75-28.021l-2.027-.454c-22.656-5.515-42.434-18.962-54.746-38.97C2.808 85.652-1.357 61.484 4.292 38.085c3.641-13.748 9.914-25.76 19.33-36.444L24.779.178C34.157-11.63 51.64-22.2 66.483-25.171h3.062v-1.532zm-20.666 13.79c1.185.814 2.384 1.608 3.588 2.393l2.018 1.347c2.016 1.093 2.016 1.093 4.072.275l1.803-.952c4.093-1.365 8.996-1.55 13.14-.242 3.149 1.676 5.963 3.91 7.526 7.137.686 2.899 1.195 5.742 1.629 8.69.856 3.596 2.22 6.232 5.178 8.516 3.466 1.653 6.126 2.573 10.031 1.945 4.196-1.716 6.818-4.026 8.629-8.187.633-2.016.987-3.995 1.321-6.08.796-4.89 2.489-7.906 6.458-10.917 4.233-2.439 8.714-2.36 13.442-1.628 4.471 1.669 6.832 4.296 9.185 8.427.667 2.8.667 2.8 1.1 5.745.771 4.483 1.467 7.362 5.023 10.342 3.385 2.21 5.935 2.729 9.95 2.298 2.565-1.059 2.565-1.059 4.592-2.298-4.681-9.996-14.483-18.791-23.727-24.514l-2.293-1.496c-21.562-13.32-62-19.662-82.665-.802zm165.324 1.531c3.664 4.14 9.715 5.774 15.096 6.153 7.532-.104 15.507-3.076 20.877-8.45 3.487-4.59 3.487-4.59 5.358-9.96-14.544-1.131-29.043 5.047-41.331 12.257zm48.985-12.257c2.136 6.557 6.812 12.017 12.868 15.321 7.111 3.096 14.132 3.807 21.574 1.533 2.152-.901 4.088-1.912 6.124-3.065v-1.532c-12.436-7.232-25.964-12.816-40.566-12.257zm-3.827 2.299l-.957 1.654c-4.933 8.189-10.895 14.053-20.366 16.54-1.819.37-3.629.695-5.466.957.175 7.626 2.815 13.103 7.92 18.72 5.17 4.893 11.796 7.358 18.869 7.613 8.529-.32 15.493-3.908 21.287-10.102 4.044-4.93 5.809-9.923 6.267-16.231l-1.546-.174c-7.372-1.052-13.554-4.035-19.119-9.019-1.492-2.088-1.492-2.088-2.823-4.309-1.8-3.008-1.8-3.008-4.066-5.65zM27.377 3.236C11.305 20.439 5.154 42.869 5.88 65.969c1.308 22.095 12.6 42.286 28.668 57.094 3.5 3.039 7.35 5.578 11.27 8.04l2.09 1.332c1.663 1.101 1.663 1.101 3.507 1.014 6.463-2.557 13.565-8.898 17.364-14.602l-1.54-.563c-6.19-2.352-9.805-4.578-12.948-10.524-1.313-3.102-1.886-6.274-2.35-9.597h3.827l.06 1.347c.402 5.551 2.192 8.766 6.206 12.634 2.974 2.471 6.036 3.142 9.807 3.638 3.441-4.507 6.35-9.237 9.041-14.219l.892-1.615c2.04-3.854 3.047-7.454 3.844-11.743l13.011-.766a7918.46 7918.46 0 00-4.591-18.661c-.715-2.889-1.427-5.778-2.134-8.669-.684-2.797-1.375-5.594-2.07-8.389a734.91 734.91 0 01-.778-3.176C83.264 24.724 71.278 5.057 50.548-8.46c-8.973-5.446-17.001 5.555-23.171 11.696zM199.278.971c-2.816 2.889-5.243 5.98-7.606 9.24l-.987 1.352c-1.911 2.72-3.147 5.261-4.036 8.463 8.089 3.792 15.376 5.314 24.098 2.376 8.493-3.722 13.33-9.66 16.725-18.086.593-2.227.595-4.21.508-6.505l-1.961-.368c-4.901-1.01-8.897-2.042-12.973-5.003-4.045-2.689-10.945 5.846-13.768 8.53zM60.36-5.253l1.097.93c15.852 13.64 25.707 29.99 30.284 50.395 3.588.287 6.16.371 9.424-1.293 4.014-3.457 5.444-5.979 6.219-11.251.916-5.281 1.881-8.874 6.362-12.197 3.995-2.354 7.892-2.68 12.437-2.07 4.995 1.556 7.987 3.907 10.477 8.521.938 2.365 1.275 4.669 1.626 7.182.689 4.209 2.203 6.867 5.501 9.576 3.252 1.96 6.245 2.033 9.95 1.532 2.96-1.018 5.001-2.678 7.128-4.98 1.848-3.835 2.272-7.683 2.823-11.873l.562-2.328c.258-2.878-.47-4.004-2.045-6.386l-1.313-2.029-1.031-1.514-2.631 1.15c-4.718 1.74-8.988 1.992-13.634-.097-4.095-2.31-6.949-5.658-8.228-10.246-.087-1.1-.166-2.201-.239-3.303-.38-3.93-1.777-6.743-4.353-9.72-3.572-2.6-7.2-2.954-11.481-2.298-3.668 1.21-6.05 3.255-7.836 6.748-.982 2.828-1.269 5.766-1.692 8.72-.891 4.545-3.594 7.272-7.311 9.812-3.87 2.152-8.135 2.082-12.386 1.176-3.75-1.199-6.3-3.069-8.279-6.538-1.473-3.404-2.3-6.85-2.966-10.486-.746-3.56-2.093-5.364-4.688-7.9C71.8-7.46 69.981-7.777 67.25-7.79l-1.962-.04c-2.212.33-3.265 1.117-4.927 2.577zm242.15-.48c-3.843 2.021-7.492 2.934-11.768 3.544.656 9.023 4.548 14.754 11.002 20.875 6.377 4.254 12.768 5.89 20.379 5.17 3.161-.778 6.221-1.705 9.185-3.064l.765-1.532c-4.855-9.633-13.727-21.056-22.962-26.812-3.153 0-3.972.337-6.601 1.82zM288.446 7.77c-1.16 1.84-2.231 3.726-3.316 5.611-5.541 8.898-13.71 12.01-23.473 14.307.281 7.305 3.34 13.787 8.707 18.768 7.494 6.084 14.708 7.326 24.205 6.511 7.847-2.03 13.589-6.201 17.891-13.022 2.296-4.109 3.54-7.49 3.54-12.257l-2.075-.509c-8.948-2.349-16.193-5.483-21.652-13.28-1.156-2.012-2.114-4.005-3.062-6.129h-.765zm-58.935.767a54.79 54.79 0 00-1.961 3.447c-4.584 7.834-11.32 12.34-20.005 14.743-1.598.364-3.21.67-4.823.96 1.75 8.545 4.496 15.17 11.481 20.684 7.67 4.522 14.992 5.805 23.79 4.154 7.101-2.237 13.112-7.45 16.806-13.912 1.487-3.504 2.27-7.207 3.031-10.925l-1.794-.395c-9.291-2.164-16.95-5.61-22.504-13.843a63.797 63.797 0 01-2.49-4.913h-1.531zm-116.53 18.48c-1.599 2.628-1.982 4.898-2.5 7.9-.95 5.03-2.436 8.616-6.494 11.922-3.572 2.225-6.603 2.71-10.715 3.064.858 5.589 2.109 11.076 3.444 16.566l.495 2.093.486 1.959.432 1.77c.383 1.52.383 1.52 2.031 2.126 5.116-3.755 6.628-7.286 7.606-13.454.809-4.8 2.279-7.555 6.219-10.533 4.258-2.448 8.155-2.52 12.964-2.059 3.905 1.09 6.924 3.153 9.179 6.598 1.23 2.916 1.609 6.002 2.127 9.106.779 4.25 2.089 6.956 5.532 9.576 3.059 1.853 6.452 2.156 9.95 1.532 4.437-1.848 6.561-3.948 8.42-8.427.382-1.762.715-3.535 1.004-5.314.977-4.917 2.205-7.403 5.884-10.773l1.531-.766c.172-4.14-.391-7.517-1.531-11.443l-.442-1.587c-.357-1.276-.722-2.55-1.089-3.823h-1.53l-.228 1.514c-.931 5.45-2.14 9.062-6.709 12.514-4.251 2.445-8.16 2.532-12.963 2.06-4.069-1.241-6.923-3.237-9.185-6.895-.935-2.184-1.48-4.221-1.8-6.575-.716-5.136-1.799-8.43-5.854-11.81-6.216-3.766-11.463-1.38-16.264 3.16zm71.372-3.925c-4.119 8.277-7.864 17.702-7.702 27.099l.048 2.776c7.401-1.996 14.162-5.636 18.369-12.256 3.133-6.216 3.133-6.216 3.827-13.023l-2.598-.811-3.381-1.056-1.712-.535a379.262 379.262 0 01-6.851-2.195zm143.932 2.45c-2.731 1.067-5.587 1.592-8.458 2.146.982 7.029 3.401 13.223 8.419 18.385 5.932 4.532 5.932 4.532 13.012 6.128-.192-10.02-2.824-19.231-6.889-28.344-2.456 0-3.883.69-6.084 1.685zM317.531 36.88l-1.101 2.586c-3.971 7.81-9.873 12.777-18.034 15.8a57.142 57.142 0 01-7.654 1.532c.263 6.832 3.159 13.21 7.75 18.29 5.816 5.3 13.195 8.036 20.982 7.92 7.87-.688 14.576-4.537 19.939-10.222 3.446-4.577 2.79-10.536 2.61-15.988l-1.934-.65c-9.705-3.46-16.047-8.226-20.932-17.352l-.861-1.916h-.765zm-117.105.766a129.682 129.682 0 00-2.009 3.495c-4.827 8.08-11.289 12.534-20.378 15.178l-2.105.479c-.247 6.82.065 11.53 4.592 16.949 5.658 5.98 12.441 8.68 20.57 9.336 7.387-.246 14.808-3.481 20.029-8.696 4.323-5.223 7.103-10.733 6.855-17.59l-1.794-.394c-10.056-2.342-17.019-5.93-22.65-14.879l-1.313-2.223-1.031-1.655h-.766zm58.935 0a301.333 301.333 0 00-2.631 4.214c-5.621 8.489-12.49 12.731-22.388 14.746l-1.77.192c.365 7.532 3.034 13.76 8.42 19.15 5.545 4.574 12.407 7.508 19.726 7.162 6.782-1.06 12.767-3.164 17.778-7.927l1.282-1.218c4.503-4.752 6.577-10.72 7.137-17.167l-1.907-.341c-8.525-1.715-15.564-4.97-21.055-11.916a75.443 75.443 0 01-3.827-6.895h-.765zM112.167 56.797c-1.631 3.19-1.897 6.597-2.4 10.105-.902 4.602-3.629 7.166-7.311 9.812a4270 4270 0 01-2.296 1.532l3.062 13.023H89.445c-2.25 4.499-2.25 4.499-4.431 9.031-6.796 14.339-16.248 26.155-29.246 35.4 2.458 1.64 4.88 2.525 7.654 3.447l2.87.981c7.353 2.234 14.54 2.742 22.196 2.706l2.873-.013c19.244-.256 35.951-7.352 50.896-19.378l1.692-1.335c14.405-11.91 22.923-29.713 26.627-47.692l.457-2.13c.45-3.602.388-7.173.356-10.797l-.01-2.262c-.009-1.832-.022-3.663-.038-5.494-3.451 3.32-4.85 5.517-5.677 10.26-.936 5.342-2.122 8.797-6.617 12.194-4.261 2.45-8.153 2.439-12.963 2.059-4.525-1.593-7.438-4.309-9.711-8.522-.939-2.364-1.276-4.669-1.627-7.182-.688-4.209-2.202-6.867-5.501-9.576-6.22-3.75-12.866-1.639-17.078 3.83zm117.344 9.958l-1.148 2.634c-3.886 7.63-9.315 11.895-17.221 14.985a96.843 96.843 0 01-8.42 2.299c1.796 9.319 5.231 15.835 13.012 21.449 6.482 3.881 12.368 4.424 19.9 3.83 7.782-2.004 13.666-6.589 18.369-13.023 2.088-3.98 3.166-7.82 3.827-12.256l-2.075-.51c-10.806-2.836-17.9-7.12-23.852-16.727L231 67.88l-.724-1.125h-.765zm58.935 0l-.789 1.46c-5.382 9.512-11.736 14.625-22.269 17.548-1.241.311-2.484.618-3.731.91.382 6.877 3.146 12.839 7.81 17.927 6.408 5.703 13.322 7.754 21.777 7.589 7.73-.714 14.23-4.377 19.234-10.273C313.702 97.428 316 92.27 316 86.673l-2.383-.623c-10.111-2.794-17.244-6.547-22.615-15.985-.964-1.848-.964-1.848-2.556-3.31zm-114.808 9.959l-.79 2.92c-6.689 23.959-20.23 43.563-42.072 56.066-9.087 5.024-18.895 8.064-29.085 9.958v.766l2.751.65c23.388 5.716 43.366 18.317 56.184 39.185 4.952 8.525 8.973 17.831 10.715 27.578 1.813-.684 1.813-.684 2.356-3.145.303-1.042.601-2.084.897-3.127 4.297-14.265 10.863-25.937 21.24-36.627l1.441-1.586c12.102-12.923 29.875-19.882 46.778-23.694v-.766l-2.804-.676c-23.283-5.765-43.005-18.187-55.67-39.062-5.304-9.03-8.907-18.192-11.176-28.44h-.765zm4.592 0c1.523 10.078 5.739 18.808 10.715 27.578 2.272.261 2.272.261 3.418-1.045 3.711-4.916 6.532-10.31 6.532-16.574l-2.463-.677c-6.128-1.753-11.087-3.41-15.906-7.75l-2.296-1.532zm160.731 1.532l-1.076.87c-5.525 4.097-11.524 5.743-18.058 7.557.878 6.285 2.407 12.055 7.399 16.284l1.785 1.335c4.415-7.865 8.629-15.667 10.716-24.514l-.766-1.532zm-138.535 17.62l-.676 1.486-.95 2.008-.915 1.966c-1.648 2.82-3.696 5.146-5.878 7.562 5.376 6.601 10.683 12.571 17.604 17.619l2.46 1.808c3.834 3.085 3.834 3.085 8.372 4.3 3.573-1.883 5.52-6.512 7.059-10.082.514-2.314.511-4.388.478-6.751l-1.767-.368c-9.349-2.114-16.559-5.718-21.769-13.947l-1.327-2.212c-1.093-1.906-1.093-1.906-2.691-3.39zm58.935 0a107.68 107.68 0 00-2.105 3.542c-5.079 8.513-11.276 13.079-20.857 15.608-1.269.286-2.542.559-3.827.766.409 8.446 3.549 14.215 9.702 19.987 5.664 4.658 12.123 6.341 19.383 5.963 7.56-.835 14.111-4.28 19.096-10.06 3.551-4.753 6.162-9.845 6.162-15.89l-1.74-.368c-8.588-1.959-15.686-4.75-21.222-11.888-1.455-2.485-2.699-5.012-3.827-7.66h-.765zm58.17 0l-.763 1.627c-3.718 7.422-8.883 13.144-16.841 15.991a154.429 154.429 0 01-9.185 2.298c.22 5.714 2.223 10.545 5.358 15.321 1.581 1.052 1.581 1.052 3.061 1.533 10.515-6.618 19.182-13.9 26.789-23.748-1.094-2.304-2.357-4.396-3.779-6.511l-1.169-1.748c-1.12-1.62-2.28-3.197-3.471-4.764zm-29.085 29.109l-.816 1.655c-2.495 4.844-5.06 8.529-9.134 12.134l-1.531 1.532c4.485-.396 8.12-1.343 12.246-3.112l1.576-.654c1.263-.525 2.523-1.06 3.782-1.596-.733-1.23-1.467-2.458-2.201-3.687l-1.237-2.074a121.28 121.28 0 00-2.685-4.198zm-58.935.766c-.48.941-.958 1.883-1.435 2.825l-.807 1.589c-.87 1.819-1.62 3.666-2.35 5.545 6.07 2.53 11.839 4.485 18.369 5.362l-1.579-1.149c-4.811-4.098-8.096-8.406-10.667-14.172h-1.531zM22.856 178.599c-9.853 12.318-19.222 30.515-18.37 46.729 1.783-1.729 3.504-3.442 5.095-5.351 12.305-14.716 31.913-24.145 50.92-25.932 22.247-1.297 42.789 3.838 60.325 18.26l2.003 1.622c5.262 4.478 9.268 9.669 13.305 15.231a152.963 152.963 0 007.175-7.565c1.179-1.31 2.359-2.618 3.54-3.926l1.286-1.445c4.083-4.362 9.074-7.526 14.022-10.812l2.296-1.532c-1.284-9.263-7.966-18.284-13.777-25.279l-1.644-1.999c-13.564-15.781-32.842-25.549-53.464-27.877-28.535-2.096-53.773 8.38-72.712 29.876zm199.001-22.216l-2.541 1.191c-19.377 9.767-33.765 27.119-40.99 47.453-6.459 21.273-5.795 44.701 4.512 64.717 11.089 20.382 28.223 35.297 50.356 42.387 22.656 6.478 45.497 3.604 66.086-7.837 3.806-2.236 7.221-4.893 10.597-7.724l2.338-1.96c15.124-13.076 24.975-31.797 27.512-51.663 1.454-21.175-1.739-41.54-14.543-58.986l-1.372-1.885c-6.068-7.939-13.094-15.034-21.589-20.331l-2.006-1.325c-23.47-14.759-53.482-15.724-78.36-4.037zm-169.15 42.133a92.486 92.486 0 003.444 9.049c6.076 14.615 5.227 31.12-.051 45.855-1.5 3.485-3.389 6.445-5.69 9.444l-1.53 2.298c19.322 4.655 38.151 2.921 55.873-6.128l2.451-1.242c9.203-5.027 16.946-12.124 23.572-20.208l1.154-1.364c1.027-1.254 1.027-1.254 1.907-3.232-.887-3.226-2.581-5.238-4.831-7.66l-1.881-2.029c-1.815-1.916-3.621-3.813-5.534-5.632l-1.411-1.373c-15.005-14.066-34.94-19.944-55.148-19.395-4.146.218-8.24.901-12.326 1.617zm-36.919 20.091c-6.547 6.531-6.547 6.531-11.301 14.381a980.419 980.419 0 004.487 5.626 258.893 258.893 0 012.769 3.495c7.807 9.716 21.034 18.826 33.31 21.521 9.21-9.272 12.232-21.649 12.246-34.472-.406-10.215-2.23-21.207-9.185-29.11-11.304 0-24.626 11.097-32.326 18.559zm131.826 2.89c-5.404 5.361-5.404 5.361-7.654 12.257 1.872 3.135 4.433 5.737 6.889 8.427l1.815 2.008c4.642 4.889 9.851 9.304 15.789 12.547l2.296-.766c.77-2.106.77-2.106 1.244-4.645l.556-2.564c2.152-11.927 3.94-30.182-2.565-41.053-5.545 0-14.685 10.102-18.37 13.789zm-11.48 14.555a76.022 76.022 0 00-3.062 3.735c-12.101 15.042-27.381 24.375-45.923 29.205l-2.192.572c-20.037 4.208-41.84-.191-59.077-10.969-7.816-5.138-14.781-11.398-20.628-18.712-1.028 3.366-.3 6.175.479 9.527.141.617.283 1.233.43 1.868 3.062 12.807 8.754 24.67 17.46 34.567l1.54 1.874c13.591 16.042 33.427 25.627 54.19 27.763 1.323.092 2.647.173 3.97.239l1.594.096c21.743.666 42.559-7.878 58.487-22.428 9.481-8.937 16.217-19.197 21.051-31.291v-1.532a57.085 57.085 0 00-3.54-2.203c-8.247-5.141-15.306-11.281-20.938-19.236a83.045 83.045 0 00-2.311-3.075h-1.53zm35.207 14.555l-.621 2.418c-6.071 22.597-19.765 42.205-40.043 54.16-8.874 4.997-18.383 8.322-28.221 10.835v.766l2.389.481c22.909 4.858 42.627 17.274 55.6 37.096 6.001 9.455 9.58 19.027 12.427 29.835l1.531-.766a125.689 125.689 0 001.626-5.793c3.851-13.908 11.379-25.953 21.336-36.34l1.527-1.649c11.885-12.469 28.503-19.61 45.161-22.864v-.766l-2.918-.65c-24.036-5.547-43.887-18.063-57.302-39.275-5.274-8.655-8.371-17.728-10.961-27.488h-1.531zm-142.072 94.91c-1.236 1.561-1.236 1.561-1.028 3.549.878 2.252 1.851 3.231 3.704 4.766l1.62 1.377c3.444 2.494 7.41 2.326 11.487 1.879 4.495-1.562 7.325-4.648 9.376-8.857.725-2.03.725-2.03.574-4.932h3.827l.096 2.298c.551 3.824 2.643 6.454 5.262 9.193 3.802 2.767 7.706 2.825 12.246 2.298 4.226-1.383 6.607-4.172 9.185-7.66 1.037-2.075.815-3.838.765-6.129h4.593l-.192 2.011c.31 4.179 2.53 6.673 5.597 9.336 3.83 2.855 7.564 3.047 12.199 2.442 4.26-1.685 7.126-4.306 9.184-8.426.61-2.86.61-2.86.766-5.363h3.827l.191 2.394c.948 4.905 3.409 7.821 7.462 10.629 4.106 1.37 8.334 1.295 12.438-.048 2.655-1.872 5.109-3.971 6.697-6.846-.059-2.261-.773-3.073-2.278-4.77-18.098-16.404-39.48-24.62-63.933-23.691-20.42 1.249-39.007 10.561-53.665 24.55zm176.515-5.282c-.923.769-1.847 1.535-2.775 2.298l-1.817 1.532 1.53.766a79.103 79.103 0 004.832-1.819c9.343-3.817 21.753-4.614 31.441-1.326 7.02 2.977 13.43 6.045 18.835 11.572 2.813-1.263 5.129-3.012 7.606-4.836 11.186-7.881 23.809-10.182 37.196-8.022 3.3.748 6.371 1.806 9.484 3.124l1.588.541 1.53-.766c-16.308-15.859-37.937-22.663-60.28-22.38-17.95.529-35.729 7.393-49.17 19.316zm-15.115 18.706c-8.433 10.662-10.599 22.357-9.378 35.683.639 3.302 1.634 6.156 3.062 9.193l.93 2.077c4.478 9.068 11.845 16.279 19.03 23.242 1.693 1.667 3.258 3.411 4.807 5.212 2.819 3.262 5.835 6.285 8.91 9.304 3.535 3.47 6.913 6.993 10.144 10.748 2.245 2.533 4.662 4.886 7.077 7.254 2.897 2.839 5.728 5.686 8.375 8.762 2.903 3.37 6.02 6.497 9.181 9.623l1.697 1.688c1.362 1.354 2.726 2.707 4.092 4.057 3.018-2.512 5.86-5.002 8.419-7.995 3.532-4.015 7.288-7.772 11.104-11.516 2.373-2.343 4.654-4.717 6.829-7.246 3.423-3.973 7.173-7.6 10.91-11.273a160.339 160.339 0 008.845-9.478c2.85-3.214 5.967-6.172 9.031-9.179a153.539 153.539 0 008.701-9.319c1.266-1.46 2.576-2.869 3.898-4.279 8.758-10.089 11.223-20.656 10.491-33.669-1.041-11.561-7.086-21.668-15.787-29.145-10.677-8.46-22.319-10.562-35.653-9.386-10.544 1.843-18.965 7.454-26.023 15.321l-2.296-2.011c-11.612-9.898-22.739-14.339-38.078-13.468-11.122 1.024-21.163 7.458-28.318 15.8zm-166.883-5.944c-7.082 7.477-15.472 20.158-15.472 30.903 5.057.082 8.085-1.032 11.738-4.564 2.428-2.984 3.57-6.107 3.57-9.991h3.826l.006 1.319c.214 4.274 1.069 6.761 4.081 9.833 3.596 3.125 6.921 3.874 11.58 3.72 4.324-.708 7.12-3.062 9.926-6.302 1.463-2.987 1.734-5.265 1.961-8.57h3.827l.144 2.729c.483 3.69 1.795 6.159 4.449 8.762 4.021 2.972 8.094 3.797 13.011 3.064 4.14-1.381 6.877-4.016 9.185-7.661.757-2.064 1.148-3.948 1.53-6.128h3.062l.43 2.681c1.162 4.667 4.253 8.182 8.276 10.725 4.976.948 9.166.885 13.649-1.667 2.868-2.12 4.779-4.583 5.6-8.085.192-1.466.287-2.944.365-4.42h3.827l.191 2.777c.518 3.919 1.918 6.443 4.93 9.082 3.419 2.468 6.392 3.307 10.602 3.061 4.619-.897 7.676-3.38 10.3-7.212 1.494-2.636 1.913-4.646 1.531-7.708h3.826l.255 1.373c.942 4.7 1.84 7.9 5.629 11.075 3.058 1.617 5.234 1.87 8.659 2.107-.432-4.235-1.511-7.768-3.157-11.682l-.721-1.727c-3.033-7.062-7.028-13.089-12.195-18.765l-1.148 1.675c-3.218 3.624-7.43 6.489-12.351 6.934-5.11.124-9.145-.048-13.29-3.247a47.868 47.868 0 01-4.592-5.362l-1.675 1.723c-4.603 4.506-8.076 6.912-14.638 6.991-5.092-.093-8.81-.908-12.461-4.579-.921-1.081-1.772-2.22-2.607-3.369-2.405.555-2.405.555-3.588 2.537-2.93 3.408-5.816 4.866-10.288 5.42-5.157.173-9.527-.092-13.678-3.361a48.23 48.23 0 01-4.592-5.362l-1.675 1.723c-4.382 4.289-7.89 6.896-14.16 7.038-4.846-.089-8.564-1.294-12.485-4.165-1.31-1.486-2.12-2.834-3.061-4.596-.983-.087-.983-.087-2.132 1.271zm1.366 25.54l-.762 1.066c-3.785 4.886-8.094 7.134-14.21 7.936l-2.632.191c-1.296 4.018-1.851 7.713-2.057 11.922l-.109 1.692c-.178 3.246-.037 6.162.636 9.368 5.087.305 8.727.14 12.727-3.403 3.235-3.362 4.275-6.577 4.877-11.152h3.826l-.239 1.915c.327 3.662 1.76 5.99 4.066 8.809 3.683 2.875 6.62 4.127 11.338 4.04 4.17-.522 7.443-2.492 10.045-5.763 1.89-2.925 2.163-5.561 2.344-9.001h3.827l.192 2.777c.427 3.317 1.455 5.353 3.635 7.947 4.195 3.171 7.74 4.5 13.012 3.831 4.392-1.415 7.487-3.703 9.95-7.661.504-2.301.708-4.542.765-6.894l3.827.766.314 1.514c1.26 5.116 2.879 7.898 7.34 10.742 3.161 1.785 6.386 1.982 9.95 1.533 4.677-1.744 7.55-4.418 9.807-8.858 1.075-2.652 1.075-2.652.909-5.697h3.827l.143 2.729c.483 3.688 1.794 6.163 4.449 8.761 3.289 2.385 6.627 3.594 10.703 3.361 3.861-.741 6.795-2.443 9.484-5.276 2.246-3.458 2.966-5.361 2.775-9.575h3.826l.147 1.292c.827 5.156 2.869 8.261 6.742 11.73 3.295 2.083 6.934 1.681 10.715 1.533.17-7.855-.024-15.242-1.53-22.982l-1.654-.227c-7.223-1.129-11.505-3.033-15.95-8.966a69.144 69.144 0 00-3.062 3.065v1.532a130.352 130.352 0 01-3.061 1.532l-2.297 1.245c-4.386 1.841-9.491 1.826-14.037.55-3.918-1.746-6.401-4.518-8.924-7.924l-1.579 1.676c-4.436 4.427-8.258 6.798-14.59 7.038-4.734-.044-8.267-1.449-12.15-4.117-2.01-2.155-2.01-2.155-3.062-3.831-2.119.864-3.231 1.712-4.832 3.4-3.743 3.572-6.912 4.405-11.959 4.596-5.022-.15-8.574-1.203-12.156-4.797a63.847 63.847 0 01-3.2-3.965l-1.674 1.724c-4.433 4.338-7.914 6.907-14.255 6.99-4.392-.059-7.161-1.131-10.859-3.351l-2.296-.766c-.813-1.484-.813-1.484-1.531-3.064l-1.53-1.533zM176.7 390.028c-3.706 21.328 1.13 43.298 13.012 61.284 1.927 2.663 3.976 5.173 6.123 7.661l1.369 1.705c12.034 14.505 30.622 24.006 49.146 26.638 2.568.147 5.088.16 7.654 0-1.084-1.27-2.169-2.54-3.259-3.806a247.06 247.06 0 01-2.427-2.873c-3.582-4.234-7.508-8.107-11.463-11.988-2.409-2.379-4.728-4.787-6.936-7.354-2.788-3.236-5.78-6.227-8.826-9.217-3.527-3.462-6.897-6.978-10.121-10.724-2.373-2.674-4.933-5.158-7.483-7.661a192.957 192.957 0 01-11.481-12.257l-1.647-1.843c-7.409-8.697-11.347-18.327-12.895-29.565h-.766zm163.793 4.596l-.765 2.682c-4.831 14.235-13.34 23.952-23.922 34.295a142.894 142.894 0 00-8.388 8.978c-2.858 3.22-5.98 6.187-9.051 9.201-2.501 2.474-4.923 4.968-7.217 7.637-3.412 3.963-7.154 7.579-10.88 11.242a162.552 162.552 0 00-8.966 9.595c-1.716 1.962-3.533 3.784-5.388 5.615l-2.006 1.987-1.486 1.46c5.526 2.766 17.426-1.697 23.105-3.543 21.225-7.307 38.164-23.001 48.097-42.982 2.268-4.78 3.939-9.651 5.336-14.758l.739-2.571c2.317-9.459 1.772-19.166 1.558-28.838h-.766zm-315.34 10.725l-1.483 2.059c-3.627 4.403-8.73 6.42-14.303 6.99a98.472 98.472 0 01-3.348.144c1.565 11.075 1.565 11.075 5.357 21.449 1.45.805 1.45.805 3.062.766 3.284-1.781 5.678-3.717 7.654-6.894.673-2.275 1.143-4.555 1.53-6.895h3.827l-.239 1.915c.327 3.663 1.76 5.991 4.066 8.81 3.683 2.875 6.62 4.127 11.338 4.04 4.17-.522 7.443-2.492 10.045-5.764 1.89-2.925 2.163-5.561 2.344-9.001h3.827l.192 2.394c1.028 5.318 4.007 8.315 8.228 11.395 1.46.701 1.46.701 3.061.766l2.488.24c4.728-.395 7.77-2.184 11.241-5.363 1.972-3.169 2.255-5.758 2.344-9.432h4.593l.006 1.32c.212 4.238 1.045 6.769 4.02 9.833 2.898 2.404 5.673 3.293 9.368 3.69 4.488-.482 7.561-1.814 10.572-5.171 2.527-3.204 3.588-5.533 3.588-9.672h3.827l.143 2.729c.483 3.688 1.794 6.164 4.449 8.762 3.289 2.385 6.627 3.593 10.703 3.361 3.861-.742 6.795-2.443 9.484-5.276 2.246-3.458 2.966-5.362 2.775-9.576h3.826l.174 1.32c.797 4.685 2.324 7.804 5.95 10.937 2.051 1.218 2.919 1.532 5.357 1.532 3.942-10.847 3.942-10.847 5.358-22.215l-1.767-.174c-7.3-.93-12.45-3.455-17.368-9.019l-.956 1.26c-3.669 4.549-6.566 6.66-12.372 7.403-4.753.243-8.703-.66-12.695-3.3-1.725-1.663-3.199-3.416-4.592-5.363l-1.531 1.676c-4.073 4.088-8.777 6.82-14.59 7.038-4.736-.05-8.358-1.347-12.199-4.118-1.274-1.475-2.105-2.882-3.061-4.596h-1.53l-1.149 2.059c-2.275 3.537-5.667 5.072-9.567 6.368-6.082 1.073-11.037-.322-16.073-3.831-1.519-1.461-2.614-2.856-3.827-4.596l-1.675 1.724c-4.482 4.386-7.93 6.717-14.303 6.942-4.58-.13-8.237-.758-11.588-4.055a92.153 92.153 0 01-2.784-3.351l-1.031-1.26h-.766zm0 26.812l-1.483 2.059c-2.629 3.277-6.226 4.711-9.998 6.367 2.428 5.15 5.148 9.896 8.42 14.555 1.118-2.028 1.53-2.983 1.53-5.362h3.827l-.287 1.867c.484 4.6 3.192 8.122 6.602 11.156 4.332 1.576 8.238 1.981 12.677.67 4.22-2.485 6.755-5.292 8.562-9.863.194-2.107.194-2.107 0-3.83h3.827l.192 2.394c.945 4.889 3.401 7.853 7.462 10.629 3.114 1.87 6.01 1.723 9.514 1.278 4.323-1.125 7.187-3.752 9.62-7.407.814-2.442.949-4.337.766-6.894h4.593l.006 1.32c.21 4.201 1.013 6.793 3.976 9.83 3.383 2.723 6.725 3.64 11.038 3.357 4.178-.669 6.812-2.558 9.663-5.649 2.107-3.087 2.871-5.095 2.871-8.858h3.827l.191 2.777c.435 3.327 1.409 5.368 3.635 7.948 3.862 2.804 7.438 4.043 12.247 3.83 4.981-1.496 7.9-4.001 10.572-8.427.894-2.262 1.12-3.727.909-6.128h3.826l.766 4.596c3.468-4.005 6.736-8.736 8.419-13.789l-1.54-.87c-3.799-2.204-7.03-4.254-9.941-7.556l-.762 1.065c-3.433 4.433-7.031 6.738-12.593 7.679-5.153.307-9.205-1.249-13.433-4.148-1.521-1.46-2.614-2.855-3.827-4.596l-1.531 1.676c-4.17 4.173-8.791 6.814-14.734 6.942-4.446-.088-8.05-.783-11.277-4.007a87.81 87.81 0 01-2.733-3.351l-1.106-1.26h-1.53a60.824 60.824 0 00-2.393 2.92c-3.178 3.713-5.98 5.124-10.793 5.716-5.111.228-9.243-1.052-13.412-3.992a108.14 108.14 0 01-4.784-4.644l-.762 1.065c-3.423 4.42-7.043 6.8-12.62 7.652-4.706.226-8.697-.74-12.641-3.355a37.905 37.905 0 01-3.755-4.297l-.837-1.065h-.766zm31.381 26.046l-1.148 2.058c-2.246 3.389-5.712 5.64-9.573 6.85-4.098.764-8.19.329-12.24-.482 12.934 14.241 33.894 20.338 52.482 21.641 20.224.398 39.888-6.438 55.437-19.343l.766-1.532-1.74.108c-5.952.21-11.776-.104-16.37-4.345-1.025-1.221-1.025-1.221-2.556-3.423l-1.531-1.532-1.578 2.489c-2.444 3.433-5.158 4.989-9.089 6.512-5.777.701-10.574.248-15.374-3.229-3.558-2.973-3.558-2.973-4.574-5.006h-1.53c-1.048 1.122-1.048 1.122-2.106 2.537-2.711 3.277-5.887 5.263-10.141 5.889-5.568.372-9.71-.567-14.351-3.734-1.797-1.699-3.302-3.481-4.784-5.458z" fill="#fff" fill-opacity=".1"/></svg>