<svg width="390" height="210" fill="none" xmlns="http://www.w3.org/2000/svg"><path d="M282.14.12h15.484v.62l1.073.097c1.441.183 2.711.608 4.057 1.143l.732.291c9.005 3.702 15.502 10.95 19.276 19.824.639 1.623 1.088 3.298 1.496 4.992l.376-1.17c3.021-9.155 8.17-16.878 16.657-21.767l.545-.315c4.084-2.3 8.506-3.749 13.195-3.789l.856-.007c.598-.004 1.197-.008 1.795-.01.603-.004 1.207-.01 1.81-.02 3.751-.056 7.038.107 10.601 1.351l.795.27c.648.234 1.281.487 1.915.757l.666.28c3.148 1.365 5.768 3.324 8.392 5.512l.577.45c1.721 1.378 3.038 3.08 4.378 4.82l.573.735c5.561 7.519 7.557 17.19 6.202 26.367-1.483 8.973-6.324 17.247-13.588 22.802-4.711 3.32-9.575 5.257-15.175 6.509.364.105.727.21 1.102.32 9.777 2.911 17.774 8.203 22.817 17.255 4.295 7.982 5.924 17.925 3.334 26.749-3.046 9.881-9.147 17.487-18.284 22.373-2.779 1.409-5.894 2.515-8.969 3.044l.518.132c3.898 1.005 7.445 2.2 10.941 4.208l.953.542c2.065 1.247 3.813 2.749 5.55 4.417l.794.756.755.794.613.619c6.719 7.048 8.883 16.322 8.753 25.79-.257 9.307-4.804 17.83-11.48 24.163-7.082 6.468-16.344 9.282-25.817 8.902-8.288-.483-15.869-3.965-21.93-9.57l-.68-.604c-4.858-4.538-8.091-10.936-9.54-17.374l-.16.524c-3.14 10.172-8.888 18.279-18.387 23.331-8.127 4.138-17.728 4.828-26.465 2.262-8.909-3.067-16.546-9.237-20.842-17.698-4.417-9.105-4.899-19.049-1.67-28.623 3.117-8.675 9.829-15.763 18.089-19.723 2.449-1.129 5.026-1.847 7.626-2.538v-.31l-.885-.216c-9.599-2.413-17.566-7.937-22.674-16.456-4.853-8.267-6.056-18.031-3.778-27.308 1.348-4.976 3.706-9.858 7.207-13.673l.619-.75c5.152-6.104 12.447-9.64 20.131-11.338l-.821-.184c-9.167-2.231-17.17-7.673-22.151-15.768-4.961-8.328-6.646-18.107-4.36-27.575 1.473-5.563 4.011-10.423 7.821-14.746l.468-.592C267.821 6.22 274.895 1.942 280.901.74h1.239V.12zm-8.362 5.58c.479.33.964.65 1.451.968l.817.545c.816.442.816.442 1.648.111l.729-.385c1.656-.552 3.64-.627 5.317-.098 1.274.679 2.413 1.582 3.045 2.888a40.69 40.69 0 01.659 3.516c.347 1.455.898 2.522 2.096 3.446 1.402.669 2.478 1.041 4.058.787 1.698-.694 2.759-1.629 3.492-3.313.256-.815.399-1.616.534-2.46.322-1.978 1.007-3.199 2.613-4.417 1.713-.987 3.526-.955 5.439-.659 1.809.676 2.765 1.739 3.717 3.41.269 1.133.269 1.133.445 2.325.312 1.814.593 2.978 2.032 4.184 1.37.894 2.402 1.104 4.026.93 1.038-.428 1.038-.428 1.858-.93-1.894-4.044-5.86-7.603-9.6-9.919l-.928-.605C298.501.634 282.14-1.93 273.778 5.7zm66.894.62c1.482 1.675 3.931 2.336 6.108 2.489 3.048-.042 6.274-1.245 8.447-3.42 1.411-1.856 1.411-1.856 2.168-4.029-5.885-.458-11.751 2.042-16.723 4.96zm19.82-4.96c.865 2.653 2.756 4.862 5.207 6.2 2.877 1.252 5.718 1.54 8.73.62.87-.365 1.654-.774 2.477-1.24v-.62c-5.031-2.927-10.505-5.186-16.414-4.96zm-1.548.93l-.387.67c-1.996 3.313-4.409 5.686-8.241 6.692a37.84 37.84 0 01-2.212.387c.071 3.086 1.139 5.302 3.205 7.575 2.092 1.98 4.773 2.977 7.635 3.08 3.451-.13 6.269-1.581 8.613-4.088 1.636-1.994 2.35-4.014 2.536-6.567l-.626-.07c-2.983-.426-5.484-1.633-7.736-3.65-.604-.845-.604-.845-1.142-1.743-.728-1.217-.728-1.217-1.645-2.286zm-93.867 9.944c-6.503 6.96-8.992 16.037-8.698 25.384.529 8.94 5.099 17.11 11.6 23.101 1.416 1.23 2.974 2.257 4.56 3.253l.846.54c.673.445.673.445 1.419.41 2.615-1.035 5.488-3.6 7.026-5.909l-.623-.227c-2.505-.952-3.968-1.853-5.24-4.259-.531-1.255-.763-2.538-.95-3.883h1.548l.024.545c.163 2.246.888 3.547 2.512 5.112 1.203 1 2.442 1.271 3.968 1.472 1.392-1.824 2.569-3.738 3.658-5.753l.361-.654c.825-1.56 1.233-3.016 1.555-4.751l5.265-.31c-.617-2.518-1.235-5.035-1.858-7.551-.289-1.169-.577-2.338-.863-3.507a982.616 982.616 0 00-.838-3.395c-.106-.428-.211-.857-.315-1.285-2.343-9.638-7.193-17.596-15.581-23.065-3.631-2.204-6.879 2.248-9.376 4.732zm69.556-.916c-1.14 1.169-2.122 2.42-3.078 3.739l-.399.546c-.774 1.101-1.274 2.13-1.633 3.425 3.273 1.534 6.221 2.15 9.75.961 3.437-1.506 5.394-3.909 6.768-7.318.24-.9.24-1.704.205-2.632l-.793-.149c-1.983-.408-3.6-.826-5.249-2.024-1.637-1.088-4.429 2.365-5.571 3.452zm-56.21-2.519l.444.377c6.414 5.518 10.402 12.134 12.254 20.39 1.451.117 2.492.15 3.813-.522 1.624-1.4 2.203-2.42 2.516-4.553.371-2.137.761-3.59 2.574-4.935 1.617-.953 3.193-1.085 5.033-.838 2.021.63 3.231 1.581 4.239 3.448.38.957.516 1.89.658 2.906.278 1.703.891 2.779 2.226 3.875 1.315.793 2.527.823 4.026.62 1.197-.412 2.023-1.084 2.884-2.015.748-1.552.919-3.109 1.142-4.805l.227-.942c.105-1.164-.19-1.62-.827-2.583l-.531-.821-.418-.613-1.064.465c-1.909.704-3.637.806-5.517-.039-1.656-.934-2.811-2.29-3.329-4.145a119.54 119.54 0 01-.097-1.337c-.153-1.59-.719-2.728-1.761-3.933-1.445-1.052-2.913-1.195-4.645-.93-1.485.49-2.448 1.317-3.171 2.73-.397 1.145-.513 2.333-.685 3.529-.36 1.839-1.454 2.942-2.958 3.97-1.566.871-3.291.843-5.012.476-1.517-.485-2.549-1.242-3.349-2.646-.596-1.377-.931-2.77-1.2-4.242-.302-1.44-.847-2.17-1.897-3.197-.946-.583-1.682-.711-2.788-.717l-.793-.015c-.895.133-1.321.452-1.994 1.042zm97.98-.194c-1.555.818-3.031 1.187-4.762 1.434.266 3.65 1.84 5.97 4.452 8.446 2.58 1.722 5.166 2.384 8.246 2.093 1.279-.315 2.517-.69 3.716-1.24l.31-.62c-1.965-3.898-5.555-8.52-9.291-10.849-1.276 0-1.607.136-2.671.736zm-5.691 5.464c-.469.744-.902 1.507-1.341 2.27-2.243 3.6-5.548 4.86-9.498 5.789.113 2.956 1.351 5.578 3.523 7.594 3.032 2.461 5.951 2.964 9.794 2.634 3.175-.82 5.498-2.509 7.239-5.269.929-1.662 1.432-3.03 1.432-4.96l-.839-.205c-3.621-.95-6.552-2.219-8.761-5.374a26.62 26.62 0 01-1.239-2.48h-.31zm-23.846.31c-.284.453-.544.921-.794 1.394-1.854 3.17-4.58 4.994-8.094 5.966-.647.147-1.299.27-1.952.389.709 3.457 1.82 6.137 4.646 8.369 3.103 1.83 6.066 2.349 9.626 1.68 2.873-.905 5.305-3.014 6.8-5.629.602-1.418.918-2.916 1.226-4.42l-.725-.16c-3.76-.876-6.859-2.27-9.106-5.601a25.627 25.627 0 01-1.008-1.989h-.619zm-47.151 7.477c-.647 1.064-.802 1.982-1.012 3.197-.384 2.035-.985 3.486-2.627 4.824-1.446.9-2.672 1.096-4.336 1.24.347 2.26.853 4.481 1.394 6.702l.2.847.196.793.175.716c.155.615.155.615.822.86 2.07-1.519 2.682-2.948 3.078-5.443.327-1.943.922-3.057 2.516-4.262 1.723-.99 3.3-1.02 5.246-.833 1.58.44 2.801 1.275 3.714 2.67.497 1.18.651 2.428.86 3.684.315 1.72.846 2.814 2.239 3.874 1.238.75 2.61.873 4.026.62 1.795-.747 2.654-1.597 3.407-3.41.154-.712.289-1.43.406-2.15.395-1.99.892-2.995 2.381-4.358l.619-.31c.07-1.676-.158-3.042-.619-4.63l-.179-.643c-.145-.516-.292-1.032-.441-1.547h-.619l-.092.613c-.377 2.205-.866 3.666-2.715 5.064-1.72.988-3.302 1.024-5.245.832-1.646-.501-2.801-1.31-3.716-2.79a9.869 9.869 0 01-.729-2.66c-.289-2.077-.728-3.41-2.368-4.778-2.516-1.524-4.638-.558-6.581 1.278zm28.879-1.588c-1.667 3.35-3.182 7.162-3.117 10.965l.02 1.123c2.995-.807 5.73-2.28 7.432-4.959 1.268-2.515 1.268-2.515 1.549-5.27l-1.051-.328-1.369-.427-.692-.216c-.927-.29-1.852-.581-2.772-.888zm58.238.991c-1.105.432-2.26.645-3.422.869.397 2.844 1.376 5.35 3.406 7.439 2.4 1.833 2.4 1.833 5.265 2.48-.077-4.055-1.142-7.782-2.787-11.47-.994 0-1.571.28-2.462.682zm-4.351 4.588l-.446 1.046c-1.606 3.16-3.995 5.17-7.297 6.393a23.096 23.096 0 01-3.097.62c.106 2.765 1.279 5.346 3.136 7.4 2.353 2.146 5.339 3.253 8.49 3.206 3.184-.279 5.898-1.836 8.068-4.137 1.394-1.852 1.129-4.263 1.056-6.469l-.783-.263c-3.927-1.4-6.493-3.328-8.469-7.021l-.349-.775h-.309zm-47.384.31c-.279.466-.548.94-.813 1.414-1.953 3.27-4.568 5.072-8.245 6.141l-.852.194c-.1 2.76.027 4.666 1.858 6.858 2.29 2.42 5.034 3.512 8.323 3.778 2.989-.1 5.992-1.409 8.104-3.519 1.75-2.113 2.875-4.343 2.774-7.117l-.726-.16c-4.069-.947-6.886-2.399-9.165-6.02l-.531-.9-.417-.669h-.31zm23.847 0c-.36.565-.714 1.134-1.065 1.705-2.274 3.435-5.054 5.151-9.058 5.967l-.717.077c.148 3.048 1.228 5.568 3.407 7.75 2.244 1.85 5.02 3.037 7.982 2.897 2.744-.43 5.166-1.28 7.193-3.208l.519-.492c1.822-1.923 2.661-4.338 2.888-6.947-.255-.045-.51-.09-.772-.138-3.449-.694-6.298-2.011-8.519-4.821a30.314 30.314 0 01-1.549-2.79h-.309zm-59.558 7.75c-.66 1.29-.768 2.669-.972 4.088-.365 1.862-1.468 2.9-2.958 3.97l-.929.62 1.239 5.27h-5.574c-.911 1.82-.911 1.82-1.793 3.654-2.75 5.801-6.574 10.583-11.834 14.323.995.664 1.974 1.022 3.097 1.395l1.161.397c2.976.904 5.884 1.11 8.981 1.095l1.163-.005c7.786-.104 14.546-2.975 20.593-7.841l.685-.54c5.829-4.82 9.275-12.023 10.774-19.298l.185-.862c.182-1.457.157-2.902.144-4.368l-.004-.916-.015-2.223c-1.397 1.344-1.963 2.233-2.297 4.152-.379 2.161-.859 3.56-2.678 4.934-1.724.991-3.299.987-5.245.833-1.831-.645-3.009-1.743-3.929-3.448-.38-.957-.516-1.89-.658-2.906-.279-1.703-.892-2.779-2.226-3.875-2.517-1.517-5.206-.663-6.91 1.55zm47.48 4.029L346.401 39c-1.572 3.088-3.769 4.814-6.968 6.064-1.126.361-2.253.67-3.407.93.727 3.77 2.117 6.407 5.265 8.679 2.623 1.57 5.005 1.79 8.052 1.55 3.149-.811 5.53-2.667 7.433-5.27.845-1.61 1.281-3.164 1.548-4.96l-.839-.205c-4.373-1.148-7.243-2.882-9.652-6.769l-.365-.63-.293-.454h-.309zm23.846 0l-.319.59c-2.178 3.849-4.749 5.918-9.01 7.1-.503.127-1.006.25-1.51.369.154 2.783 1.273 5.195 3.16 7.254 2.593 2.307 5.39 3.137 8.811 3.07 3.128-.289 5.758-1.77 7.783-4.157 1.304-1.815 2.234-3.902 2.234-6.167l-.964-.252c-4.091-1.13-6.977-2.65-9.15-6.468-.391-.748-.391-.748-1.035-1.34zm-46.454 4.03l-.319 1.18c-2.707 9.695-8.186 17.627-17.024 22.686-3.677 2.033-7.645 3.263-11.768 4.03v.31l1.113.263c9.463 2.312 17.547 7.411 22.733 15.855 2.004 3.449 3.631 7.215 4.336 11.158.733-.276.733-.276.953-1.272.122-.422.243-.843.363-1.265 1.739-5.772 4.396-10.495 8.594-14.82l.583-.642c4.897-5.23 12.088-8.045 18.928-9.587v-.31l-1.135-.274c-9.421-2.333-17.401-7.359-22.525-15.806a38.758 38.758 0 01-4.522-11.507h-.31zm1.858 0c.616 4.077 2.322 7.61 4.336 11.158.919.105.919.105 1.383-.423 1.501-1.99 2.643-4.172 2.643-6.706l-.997-.274c-2.48-.71-4.486-1.38-6.436-3.136l-.929-.62zm65.036.62l-.435.351c-2.236 1.658-4.664 2.324-7.307 3.058.355 2.543.974 4.878 2.994 6.589l.722.54c1.786-3.183 3.491-6.34 4.336-9.919l-.31-.62zm-56.055 7.128l-.273.602-.385.812-.37.796c-.667 1.14-1.495 2.082-2.378 3.06 2.175 2.67 4.322 5.086 7.123 7.129l.995.731c1.551 1.248 1.551 1.248 3.388 1.74 1.445-.762 2.233-2.635 2.856-4.08.208-.935.207-1.775.193-2.73l-.715-.15c-3.783-.855-6.7-2.313-8.808-5.643l-.537-.895c-.442-.771-.442-.771-1.089-1.372zm23.847 0a44.06 44.06 0 00-.852 1.434c-2.055 3.444-4.563 5.292-8.439 6.315-.514.116-1.029.226-1.549.31.166 3.417 1.436 5.752 3.926 8.087 2.292 1.885 4.905 2.566 7.843 2.413 3.059-.338 5.709-1.732 7.727-4.07 1.436-1.924 2.493-3.984 2.493-6.43l-.704-.149c-3.475-.793-6.347-1.922-8.587-4.81a27.124 27.124 0 01-1.549-3.1h-.309zm23.537 0l-.309.659c-1.504 3.003-3.594 5.318-6.814 6.47-1.231.351-2.467.655-3.717.93.089 2.312.9 4.267 2.168 6.2.64.425.64.425 1.239.62 4.254-2.678 7.761-5.625 10.839-9.61-.442-.932-.953-1.778-1.529-2.634l-.473-.707a52.69 52.69 0 00-1.404-1.928zm-11.769 11.779l-.33.67c-1.01 1.96-2.047 3.45-3.696 4.91l-.619.619c1.815-.16 3.285-.543 4.955-1.26l.637-.264c.512-.212 1.021-.429 1.531-.646l-.891-1.491-.5-.84a47.91 47.91 0 00-1.087-1.698zm-23.846.31a635.546 635.546 0 00-.908 1.786 32.448 32.448 0 00-.95 2.243c2.456 1.024 4.79 1.815 7.432 2.17l-.639-.465c-1.946-1.658-3.275-3.401-4.316-5.734h-.619zM263.248 83.19c-3.987 4.985-7.778 12.347-7.433 18.908.722-.7 1.418-1.393 2.062-2.165 4.979-5.954 12.913-9.77 20.603-10.493 9.002-.525 17.314 1.553 24.409 7.389l.811.656c2.129 1.812 3.75 3.912 5.383 6.163a62.124 62.124 0 002.903-3.061l1.433-1.589.52-.585c1.652-1.764 3.672-3.045 5.674-4.374l.929-.62c-.52-3.748-3.224-7.398-5.575-10.229l-.665-.809c-5.488-6.385-13.289-10.337-21.633-11.28-11.546-.847-21.758 3.392-29.421 12.09zm80.521-8.989l-1.029.482c-7.84 3.952-13.662 10.973-16.585 19.2-2.614 8.608-2.345 18.088 1.826 26.187 4.487 8.247 11.42 14.282 20.375 17.15 9.167 2.622 18.409 1.459 26.74-3.17 1.54-.905 2.922-1.98 4.288-3.126l.946-.793c6.119-5.291 10.105-12.866 11.132-20.904.588-8.568-.704-16.808-5.884-23.867l-.556-.763c-2.455-3.212-5.298-6.083-8.735-8.226l-.812-.536c-9.497-5.972-21.64-6.363-31.706-1.634zM275.326 91.25a37.621 37.621 0 001.394 3.662c2.459 5.913 2.115 12.592-.021 18.554-.607 1.41-1.371 2.608-2.302 3.821l-.619.93c7.818 1.883 15.437 1.182 22.607-2.48l.992-.502c3.724-2.034 6.857-4.906 9.538-8.177l.467-.552c.416-.507.416-.507.772-1.308-.359-1.305-1.045-2.119-1.955-3.099l-.761-.821a61.773 61.773 0 00-2.239-2.279l-.571-.556c-6.072-5.69-14.138-8.069-22.314-7.847-1.678.088-3.334.365-4.988.654zm-14.938 8.13c-2.649 2.642-2.649 2.642-4.573 5.818.603.761 1.208 1.52 1.816 2.277.377.469.752.939 1.121 1.414 3.158 3.931 8.51 7.617 13.477 8.708 3.727-3.752 4.95-8.76 4.955-13.948-.164-4.133-.901-8.581-3.716-11.779-4.574 0-9.964 4.49-13.08 7.51zm53.34 1.169c-2.186 2.169-2.186 2.169-3.097 4.959.758 1.269 1.794 2.322 2.788 3.41l.734.812c1.878 1.979 3.986 3.765 6.389 5.077l.929-.31c.311-.852.311-.852.503-1.879l.225-1.037c.871-4.826 1.594-12.213-1.038-16.611-2.244 0-5.942 4.087-7.433 5.579zm-4.645 5.889c-.431.489-.84.997-1.239 1.511-4.896 6.087-11.079 9.863-18.582 11.818l-.886.231c-8.108 1.703-16.929-.077-23.905-4.438-3.162-2.079-5.98-4.612-8.346-7.572-.416 1.362-.122 2.499.194 3.855l.174.756c1.239 5.182 3.542 9.982 7.065 13.987l.623.758c5.499 6.491 13.525 10.369 21.926 11.234.536.037 1.071.069 1.607.096l.645.039c8.798.27 17.22-3.188 23.665-9.075 3.836-3.616 6.562-7.767 8.518-12.661v-.62a22.967 22.967 0 00-1.433-.891c-3.337-2.08-6.193-4.565-8.472-7.784a34.21 34.21 0 00-.935-1.244h-.619zm14.246 5.89l-.252.978c-2.456 9.143-7.997 17.077-16.202 21.915-3.591 2.021-7.438 3.367-11.419 4.383v.31l.967.195c9.27 1.966 17.248 6.99 22.497 15.01 2.428 3.826 3.876 7.699 5.028 12.072l.62-.31c.241-.78.454-1.554.658-2.344 1.558-5.628 4.604-10.501 8.633-14.704l.618-.667c4.809-5.046 11.532-7.935 18.273-9.252v-.31l-1.181-.262c-9.726-2.245-17.758-7.309-23.186-15.892-2.134-3.502-3.387-7.174-4.435-11.122h-.619zm-57.486 38.402c-.5.632-.5.632-.416 1.436.355.912.749 1.308 1.499 1.929l.655.557c1.394 1.009 2.999.941 4.648.76 1.819-.632 2.964-1.88 3.794-3.584.293-.821.293-.821.232-1.995h1.549l.038.93c.224 1.547 1.07 2.611 2.13 3.719 1.538 1.12 3.118 1.144 4.955.93 1.71-.559 2.673-1.688 3.716-3.099.42-.84.33-1.553.31-2.48h1.858l-.077.814c.125 1.691 1.023 2.7 2.264 3.777 1.55 1.155 3.061 1.233 4.936.988 1.724-.682 2.883-1.742 3.716-3.409.247-1.157.247-1.157.31-2.17h1.548l.078.969c.384 1.984 1.379 3.164 3.019 4.3 1.662.555 3.372.524 5.033-.019 1.074-.757 2.067-1.607 2.71-2.77-.024-.915-.313-1.243-.922-1.93-7.323-6.637-15.975-9.962-25.869-9.586-8.262.505-15.783 4.273-21.714 9.933zm71.422-2.137c-.373.311-.747.621-1.122.93l-.736.62.619.31c.66-.222 1.311-.472 1.955-.736 3.781-1.545 8.802-1.867 12.722-.537 2.841 1.205 5.434 2.446 7.621 4.683 1.138-.511 2.076-1.219 3.078-1.957 4.526-3.189 9.633-4.12 15.05-3.246 1.335.303 2.578.731 3.838 1.264l.642.219.619-.31c-6.598-6.417-15.35-9.17-24.39-9.055-7.263.214-14.457 2.991-19.896 7.815zm-6.116 7.569c-3.412 4.314-4.288 9.046-3.794 14.439.258 1.335.661 2.49 1.239 3.719l.376.84c1.812 3.67 4.793 6.587 7.7 9.405.685.674 1.318 1.38 1.945 2.109 1.141 1.32 2.361 2.543 3.605 3.764a70.831 70.831 0 014.105 4.349c.908 1.025 1.886 1.977 2.863 2.935 1.172 1.149 2.318 2.301 3.389 3.545 1.175 1.364 2.436 2.629 3.715 3.894l.687.683 1.655 1.642c1.221-1.016 2.371-2.024 3.407-3.235 1.429-1.625 2.949-3.145 4.493-4.66a49.052 49.052 0 002.763-2.932c1.385-1.607 2.902-3.075 4.414-4.561a64.833 64.833 0 003.579-3.835c1.153-1.3 2.415-2.497 3.654-3.714a61.802 61.802 0 003.521-3.771 58.692 58.692 0 011.577-1.731c3.544-4.082 4.541-8.358 4.245-13.624-.421-4.677-2.867-8.767-6.388-11.792-4.32-3.423-9.03-4.274-14.426-3.798-4.266.746-7.673 3.016-10.529 6.199l-.929-.813c-4.699-4.006-9.201-5.803-15.407-5.45-4.501.414-8.564 3.018-11.459 6.393zm-67.525-2.405c-2.865 3.026-6.26 8.156-6.26 12.504 2.046.033 3.271-.417 4.749-1.846.983-1.208 1.445-2.472 1.445-4.043h1.548l.003.534c.086 1.729.432 2.735 1.651 3.978 1.455 1.265 2.8 1.568 4.685 1.505 1.75-.286 2.882-1.239 4.017-2.55.592-1.208.701-2.13.793-3.467h1.549l.058 1.104c.195 1.493.726 2.492 1.8 3.545 1.627 1.203 3.275 1.537 5.265 1.24 1.675-.559 2.782-1.625 3.716-3.1.307-.835.465-1.597.619-2.479h1.239l.174 1.085c.47 1.888 1.721 3.31 3.349 4.339 2.013.384 3.709.358 5.523-.674 1.16-.858 1.933-1.855 2.265-3.272.078-.593.117-1.191.148-1.788h1.548l.078 1.123c.209 1.586.776 2.607 1.995 3.675 1.383.999 2.586 1.338 4.289 1.239 1.869-.363 3.107-1.368 4.168-2.918.605-1.067.774-1.88.619-3.119h1.549l.103.556c.381 1.901.744 3.196 2.278 4.481 1.237.654 2.117.756 3.503.852-.175-1.713-.611-3.143-1.277-4.727l-.292-.698c-1.227-2.858-2.844-5.297-4.934-7.593l-.465.678c-1.302 1.466-3.006 2.625-4.997 2.805-2.068.05-3.701-.019-5.378-1.314a19.294 19.294 0 01-1.858-2.169l-.677.697c-1.863 1.823-3.268 2.797-5.923 2.828-2.061-.037-3.566-.367-5.043-1.852a22.395 22.395 0 01-1.054-1.363c-.973.224-.973.224-1.452 1.026-1.185 1.379-2.353 1.969-4.163 2.193-2.087.07-3.855-.037-5.534-1.36a19.588 19.588 0 01-1.859-2.169l-.677.697c-1.773 1.735-3.193 2.79-5.729 2.848-1.962-.036-3.466-.524-5.052-1.686-.531-.601-.858-1.146-1.239-1.859-.398-.036-.398-.036-.863.514zm.553 10.334l-.308.431c-1.532 1.977-3.275 2.887-5.75 3.211l-1.065.078c-.524 1.626-.749 3.121-.832 4.824l-.044.684c-.072 1.314-.015 2.494.257 3.791 2.059.123 3.531.057 5.15-1.377 1.309-1.36 1.73-2.661 1.973-4.513h1.548l-.096.775c.132 1.482.712 2.424 1.645 3.565 1.49 1.163 2.678 1.67 4.587 1.634 1.687-.211 3.012-1.008 4.065-2.332.764-1.183.875-2.25.948-3.642h1.549l.077 1.124c.173 1.342.589 2.166 1.471 3.216 1.698 1.283 3.132 1.82 5.265 1.55 1.777-.573 3.03-1.498 4.026-3.1.204-.931.287-1.838.31-2.79l1.548.31.127.613c.51 2.07 1.165 3.196 2.97 4.347 1.279.722 2.584.802 4.026.62 1.893-.706 3.055-1.788 3.968-3.584.435-1.073.435-1.073.368-2.306h1.548l.058 1.105c.196 1.492.726 2.493 1.801 3.545 1.331.965 2.681 1.454 4.33 1.36 1.562-.3 2.75-.989 3.838-2.135.909-1.399 1.2-2.169 1.122-3.875h1.549l.059.524c.335 2.086 1.161 3.342 2.728 4.746 1.333.843 2.806.68 4.336.62.068-3.178-.01-6.167-.62-9.299l-.668-.092c-2.923-.457-4.656-1.227-6.454-3.628-.427.4-.839.815-1.239 1.24v.62c-.41.213-.824.418-1.239.62l-.929.504c-1.775.745-3.841.739-5.68.222-1.585-.706-2.59-1.828-3.611-3.206l-.639.678c-1.795 1.792-3.341 2.751-5.903 2.848-1.916-.018-3.345-.586-4.917-1.666-.813-.872-.813-.872-1.238-1.55-.858.35-1.308.693-1.955 1.376-1.515 1.445-2.797 1.782-4.839 1.859-2.032-.06-3.47-.486-4.919-1.94a26.246 26.246 0 01-1.295-1.605l-.677.698c-1.794 1.755-3.202 2.794-5.768 2.828-1.777-.024-2.898-.457-4.394-1.356l-.929-.31c-.329-.6-.329-.6-.619-1.24l-.62-.62zm61.32 4.65c-1.5 8.63.457 17.519 5.265 24.797a46.421 46.421 0 002.477 3.099l.554.69c4.87 5.87 12.391 9.714 19.886 10.779 1.039.059 2.058.065 3.097 0-.439-.514-.878-1.028-1.319-1.54-.33-.385-.658-.772-.982-1.163-1.449-1.713-3.038-3.28-4.638-4.851a49.92 49.92 0 01-2.807-2.975c-1.128-1.309-2.338-2.519-3.571-3.729a70.82 70.82 0 01-4.095-4.34c-.96-1.081-1.996-2.086-3.028-3.099a78.02 78.02 0 01-4.645-4.96l-.667-.746c-2.998-3.519-4.591-7.415-5.218-11.962h-.309zm66.274 1.86l-.309 1.084c-1.955 5.76-5.398 9.692-9.679 13.877a57.978 57.978 0 00-3.395 3.633c-1.156 1.303-2.419 2.503-3.662 3.723-1.012 1.001-1.992 2.01-2.92 3.09-1.38 1.604-2.895 3.066-4.402 4.549a65.549 65.549 0 00-3.628 3.882c-.695.794-1.43 1.531-2.18 2.272l-.812.804-.601.591c2.236 1.119 7.051-.687 9.348-1.434 8.589-2.957 15.443-9.307 19.462-17.391.917-1.934 1.593-3.905 2.159-5.972l.299-1.04c.938-3.828.717-7.755.63-11.668h-.31zm-127.594 4.339l-.6.833c-1.468 1.781-3.532 2.598-5.787 2.828a40.92 40.92 0 01-1.355.059c.633 4.481.633 4.481 2.168 8.678.586.326.586.326 1.238.31 1.33-.72 2.298-1.503 3.097-2.789.273-.921.463-1.843.62-2.79h1.548l-.096.775c.132 1.482.712 2.424 1.645 3.565 1.49 1.163 2.678 1.669 4.587 1.634 1.687-.211 3.012-1.008 4.065-2.332.764-1.183.875-2.25.948-3.642h1.549l.077.969c.416 2.151 1.621 3.364 3.329 4.61.591.284.591.284 1.239.31l1.007.097c1.913-.159 3.144-.883 4.548-2.169.798-1.283.912-2.33.949-3.817h1.858l.002.534c.086 1.715.423 2.739 1.627 3.979 1.173.973 2.295 1.332 3.791 1.493 1.815-.195 3.059-.734 4.277-2.093 1.023-1.296 1.452-2.238 1.452-3.913h1.548l.058 1.104c.196 1.493.726 2.494 1.801 3.546 1.331.965 2.681 1.454 4.33 1.359 1.562-.3 2.75-.988 3.838-2.134.909-1.4 1.2-2.17 1.122-3.875h1.549l.07.534c.323 1.896.941 3.158 2.407 4.426.83.492 1.182.619 2.168.619 1.595-4.388 1.595-4.388 2.168-8.988l-.715-.071c-2.954-.376-5.037-1.398-7.027-3.649l-.387.51c-1.485 1.84-2.657 2.695-5.006 2.995-1.923.099-3.522-.267-5.137-1.335a15.439 15.439 0 01-1.858-2.17l-.619.678c-1.648 1.654-3.552 2.76-5.904 2.848-1.916-.021-3.382-.545-4.936-1.666-.515-.597-.852-1.166-1.238-1.86h-.62l-.464.833c-.921 1.431-2.294 2.052-3.872 2.577-2.46.434-4.465-.131-6.503-1.55-.615-.592-1.058-1.156-1.549-1.86l-.677.697c-1.813 1.775-3.209 2.719-5.787 2.809-1.854-.052-3.333-.306-4.689-1.64a37.477 37.477 0 01-1.127-1.356l-.417-.51h-.31zm0 10.849l-.6.833c-1.064 1.326-2.519 1.906-4.045 2.576a39.122 39.122 0 003.406 5.89c.453-.821.62-1.208.62-2.17h1.548l-.116.755c.196 1.862 1.292 3.287 2.671 4.514 1.753.638 3.334.802 5.13.271 1.707-1.005 2.733-2.141 3.464-3.99.079-.853.079-.853 0-1.55h1.549l.077.968c.383 1.979 1.376 3.178 3.02 4.301 1.26.757 2.431.697 3.849.517 1.749-.455 2.908-1.518 3.893-2.997.329-.988.384-1.755.31-2.789h1.858l.002.534c.085 1.7.41 2.749 1.609 3.977 1.369 1.102 2.722 1.473 4.467 1.359 1.69-.271 2.756-1.035 3.91-2.286.852-1.249 1.161-2.062 1.161-3.584h1.548l.078 1.123c.176 1.347.57 2.172 1.471 3.216 1.562 1.135 3.009 1.636 4.955 1.55 2.016-.605 3.197-1.619 4.278-3.41.362-.915.453-1.508.367-2.479h1.549l.31 1.86c1.403-1.621 2.725-3.535 3.406-5.58l-.623-.352c-1.537-.892-2.844-1.721-4.022-3.057l-.309.431c-1.389 1.793-2.845 2.726-5.095 3.107-2.085.124-3.725-.506-5.435-1.679-.616-.591-1.058-1.155-1.549-1.859l-.619.678c-1.688 1.688-3.557 2.757-5.962 2.809-1.799-.036-3.257-.317-4.563-1.622a35.131 35.131 0 01-1.106-1.356l-.447-.509h-.62c-.336.382-.656.779-.968 1.181-1.285 1.503-2.419 2.074-4.367 2.313-2.068.092-3.74-.426-5.427-1.615-.664-.61-1.31-1.23-1.935-1.879l-.309.431c-1.385 1.788-2.85 2.751-5.106 3.096-1.904.091-3.519-.3-5.115-1.358a15.396 15.396 0 01-1.519-1.738l-.339-.431h-.31zm12.698 10.538l-.465.833c-.909 1.371-2.311 2.282-3.873 2.772-1.658.309-3.314.133-4.953-.195 5.234 5.762 13.714 8.229 21.236 8.756a34.049 34.049 0 0022.431-7.826l.309-.62-.704.044c-2.408.085-4.764-.043-6.623-1.759-.415-.494-.415-.494-1.034-1.385l-.62-.62-.638 1.008c-.989 1.389-2.087 2.018-3.678 2.634-2.338.284-4.279.101-6.221-1.306-1.439-1.203-1.439-1.203-1.85-2.026h-.62c-.423.454-.423.454-.851 1.027-1.098 1.326-2.383 2.13-4.104 2.383-2.253.15-3.929-.23-5.807-1.511-.727-.687-1.336-1.408-1.935-2.209zM5.14.12h15.484v.62l1.073.097c1.441.183 2.711.608 4.056 1.143l.733.291c9.005 3.702 15.502 10.95 19.276 19.824.64 1.623 1.088 3.298 1.496 4.992l.376-1.17c3.02-9.155 8.17-16.878 16.657-21.767l.546-.315C68.92 1.535 73.341.086 78.03.046l.856-.007c.598-.004 1.197-.008 1.795-.01.603-.004 1.207-.01 1.81-.02 3.751-.056 7.038.107 10.6 1.351l.796.27c.648.234 1.281.487 1.915.757l.666.28c3.148 1.365 5.768 3.324 8.392 5.512l.577.45c1.721 1.378 3.038 3.08 4.378 4.82l.573.735c5.561 7.519 7.557 17.19 6.202 26.367-1.483 8.973-6.324 17.247-13.588 22.802-4.71 3.32-9.575 5.257-15.175 6.509.364.105.727.21 1.102.32 9.777 2.911 17.774 8.203 22.817 17.255 4.295 7.982 5.924 17.925 3.334 26.749-3.046 9.881-9.147 17.487-18.284 22.373-2.779 1.409-5.894 2.515-8.969 3.044l.518.132c3.898 1.005 7.444 2.2 10.94 4.208l.954.542c2.065 1.247 3.813 2.749 5.55 4.417l.794.756.755.794.613.619c6.719 7.048 8.883 16.322 8.753 25.79-.257 9.307-4.804 17.83-11.48 24.163-7.082 6.468-16.344 9.282-25.817 8.902-8.288-.483-15.869-3.965-21.93-9.57l-.68-.604c-4.858-4.538-8.091-10.936-9.54-17.374l-.16.524c-3.14 10.172-8.888 18.279-18.387 23.331-8.127 4.138-17.729 4.828-26.465 2.262-8.909-3.067-16.546-9.237-20.842-17.698-4.417-9.105-4.899-19.049-1.67-28.623 3.117-8.675 9.83-15.763 18.089-19.723 2.45-1.129 5.026-1.847 7.626-2.538v-.31l-.885-.216c-9.599-2.413-17.566-7.937-22.674-16.456-4.853-8.267-6.056-18.031-3.778-27.308 1.348-4.976 3.706-9.858 7.207-13.673l.62-.75c5.15-6.104 12.446-9.64 20.13-11.338l-.82-.184c-9.168-2.231-17.17-7.673-22.152-15.768-4.96-8.328-6.646-18.107-4.36-27.575 1.473-5.563 4.011-10.423 7.82-14.746l.469-.592C-9.179 6.22-2.104 1.942 3.901.74H5.14V.12zM-3.223 5.7c.479.33.964.65 1.451.968l.817.545c.816.442.816.442 1.648.111l.73-.385c1.655-.552 3.64-.627 5.316-.098 1.274.679 2.413 1.582 3.045 2.888.278 1.173.484 2.323.66 3.516.346 1.455.897 2.522 2.095 3.446 1.402.669 2.478 1.041 4.058.787 1.698-.694 2.759-1.629 3.492-3.313.256-.815.399-1.616.534-2.46.322-1.978 1.007-3.199 2.613-4.417 1.713-.987 3.526-.955 5.44-.659 1.808.676 2.764 1.739 3.716 3.41.27 1.133.27 1.133.445 2.325.312 1.814.593 2.978 2.032 4.184 1.37.894 2.402 1.104 4.026.93 1.038-.428 1.038-.428 1.858-.93-1.894-4.044-5.86-7.603-9.6-9.919l-.928-.605C21.501.634 5.14-1.93-3.222 5.7zm66.894.62c1.482 1.675 3.93 2.336 6.108 2.489 3.048-.042 6.275-1.245 8.447-3.42 1.411-1.856 1.411-1.856 2.168-4.029C74.51.902 68.644 3.402 63.672 6.32zm19.82-4.96c.864 2.653 2.757 4.862 5.207 6.2 2.877 1.252 5.718 1.54 8.73.62.87-.365 1.654-.774 2.477-1.24v-.62c-5.032-2.927-10.505-5.186-16.414-4.96zm-1.548.93l-.387.67c-1.996 3.313-4.409 5.686-8.241 6.692-.736.15-1.468.281-2.212.387.071 3.086 1.14 5.302 3.205 7.575 2.092 1.98 4.773 2.977 7.635 3.08 3.45-.13 6.269-1.581 8.613-4.088 1.636-1.994 2.35-4.014 2.536-6.567l-.626-.07c-2.983-.426-5.484-1.633-7.736-3.65-.604-.845-.604-.845-1.142-1.743-.728-1.217-.728-1.217-1.645-2.286zm-93.867 9.944c-6.503 6.96-8.992 16.037-8.698 25.384.53 8.94 5.099 17.11 11.6 23.101 1.416 1.23 2.974 2.257 4.56 3.253l.846.54c.673.445.673.445 1.419.41 2.615-1.035 5.488-3.6 7.026-5.909l-.623-.227c-2.505-.952-3.968-1.853-5.24-4.259-.53-1.255-.763-2.538-.95-3.883h1.548l.024.545c.163 2.246.888 3.547 2.512 5.112 1.203 1 2.442 1.271 3.968 1.472 1.392-1.824 2.57-3.738 3.658-5.753l.36-.654c.826-1.56 1.234-3.016 1.556-4.751l5.265-.31c-.617-2.518-1.235-5.035-1.858-7.551-.29-1.169-.577-2.338-.863-3.507a938.591 938.591 0 00-.838-3.395c-.106-.428-.21-.857-.315-1.285C10.691 20.929 5.841 12.97-2.547 7.502c-3.63-2.204-6.88 2.248-9.376 4.732zm69.556-.916c-1.14 1.169-2.122 2.42-3.078 3.739l-.4.546c-.773 1.101-1.273 2.13-1.632 3.425 3.272 1.534 6.221 2.15 9.75.961 3.437-1.506 5.394-3.909 6.768-7.318.24-.9.24-1.704.205-2.632l-.793-.149c-1.983-.408-3.6-.826-5.25-2.024-1.636-1.088-4.428 2.365-5.57 3.452zM1.423 8.799l.444.377c6.414 5.518 10.402 12.134 12.254 20.39 1.451.117 2.492.15 3.813-.522 1.624-1.4 2.203-2.42 2.516-4.553.37-2.137.761-3.59 2.574-4.935 1.617-.953 3.194-1.085 5.033-.838 2.02.63 3.231 1.581 4.239 3.448.38.957.516 1.89.658 2.906.279 1.703.891 2.779 2.226 3.875 1.315.793 2.526.823 4.026.62 1.197-.412 2.023-1.084 2.884-2.015.747-1.552.92-3.109 1.142-4.805l.227-.942c.105-1.164-.19-1.62-.827-2.583L42.1 18.4l-.417-.613-1.065.465c-1.909.704-3.637.806-5.517-.039-1.656-.934-2.811-2.29-3.329-4.145-.035-.446-.067-.891-.096-1.337-.154-1.59-.72-2.728-1.762-3.933-1.445-1.052-2.913-1.195-4.645-.93-1.485.49-2.448 1.317-3.171 2.73-.398 1.145-.513 2.333-.685 3.529-.36 1.839-1.454 2.942-2.958 3.97-1.566.871-3.291.843-5.012.476-1.517-.485-2.549-1.242-3.35-2.646-.595-1.377-.93-2.77-1.2-4.242-.301-1.44-.846-2.17-1.896-3.197-.946-.583-1.682-.711-2.788-.717l-.793-.015c-.895.133-1.321.452-1.994 1.042zm97.98-.194c-1.555.818-3.031 1.187-4.762 1.434.265 3.65 1.84 5.97 4.452 8.446 2.58 1.722 5.166 2.384 8.246 2.093 1.279-.315 2.517-.69 3.716-1.24l.31-.62c-1.965-3.898-5.555-8.52-9.291-10.849-1.276 0-1.607.136-2.671.736zm-5.69 5.464c-.47.744-.903 1.507-1.342 2.27-2.243 3.6-5.548 4.86-9.498 5.789.114 2.956 1.351 5.578 3.523 7.594 3.032 2.461 5.95 2.964 9.794 2.634 3.175-.82 5.498-2.509 7.239-5.269.929-1.662 1.432-3.03 1.432-4.96l-.839-.205c-3.621-.95-6.553-2.219-8.761-5.374a26.766 26.766 0 01-1.24-2.48h-.309zm-23.847.31c-.284.453-.544.921-.794 1.394-1.855 3.17-4.58 4.994-8.094 5.966-.647.147-1.299.27-1.952.389.708 3.457 1.82 6.137 4.646 8.369 3.103 1.83 6.066 2.349 9.626 1.68 2.873-.905 5.305-3.014 6.8-5.629.602-1.418.918-2.916 1.226-4.42l-.725-.16c-3.76-.876-6.859-2.27-9.106-5.601a25.801 25.801 0 01-1.008-1.989h-.62zm-47.151 7.477c-.647 1.064-.802 1.982-1.012 3.197-.384 2.035-.985 3.486-2.627 4.824-1.446.9-2.672 1.096-4.336 1.24.347 2.26.853 4.481 1.394 6.702l.2.847.197.793.174.716c.155.615.155.615.822.86 2.07-1.519 2.682-2.948 3.078-5.443.327-1.943.922-3.057 2.516-4.262 1.723-.99 3.3-1.02 5.246-.833 1.58.44 2.801 1.275 3.713 2.67.498 1.18.652 2.428.861 3.684.316 1.72.846 2.814 2.239 3.874 1.237.75 2.61.873 4.026.62 1.795-.747 2.654-1.597 3.406-3.41.155-.712.29-1.43.407-2.15.395-1.99.892-2.995 2.38-4.358l.62-.31c.07-1.676-.158-3.042-.62-4.63l-.178-.643a203.13 203.13 0 00-.44-1.547h-.62l-.092.613c-.377 2.205-.866 3.666-2.715 5.064-1.72.988-3.301 1.024-5.245.832-1.646-.501-2.8-1.31-3.716-2.79a9.875 9.875 0 01-.729-2.66c-.29-2.077-.728-3.41-2.368-4.778-2.516-1.524-4.639-.558-6.581 1.278zm28.879-1.588c-1.667 3.35-3.182 7.162-3.117 10.965l.02 1.123c2.995-.807 5.73-2.28 7.432-4.959 1.268-2.515 1.268-2.515 1.549-5.27l-1.051-.328-1.369-.427-.692-.216c-.927-.29-1.852-.581-2.772-.888zm58.238.991c-1.105.432-2.26.645-3.422.869.397 2.844 1.376 5.35 3.406 7.439 2.4 1.833 2.4 1.833 5.265 2.48-.077-4.055-1.142-7.782-2.787-11.47-.994 0-1.571.28-2.462.682zm-4.351 4.588l-.446 1.046c-1.606 3.16-3.995 5.17-7.297 6.393a23.107 23.107 0 01-3.097.62c.106 2.765 1.278 5.346 3.136 7.4 2.353 2.146 5.339 3.253 8.49 3.206 3.184-.279 5.898-1.836 8.068-4.137 1.394-1.852 1.129-4.263 1.056-6.469l-.783-.263c-3.927-1.4-6.493-3.328-8.469-7.021l-.349-.775h-.309zm-47.384.31c-.28.466-.548.94-.813 1.414-1.953 3.27-4.568 5.072-8.245 6.141l-.852.194c-.1 2.76.027 4.666 1.858 6.858 2.29 2.42 5.034 3.512 8.323 3.778 2.99-.1 5.992-1.409 8.104-3.519 1.75-2.113 2.875-4.343 2.774-7.117l-.726-.16c-4.069-.947-6.886-2.399-9.165-6.02l-.53-.9-.418-.669h-.31zm23.847 0c-.36.565-.714 1.134-1.065 1.705-2.274 3.435-5.054 5.151-9.058 5.967l-.716.077c.147 3.048 1.227 5.568 3.406 7.75 2.244 1.85 5.02 3.037 7.982 2.897 2.744-.43 5.166-1.28 7.193-3.208l.52-.492c1.82-1.923 2.66-4.338 2.887-6.947-.255-.045-.51-.09-.772-.138-3.45-.694-6.298-2.011-8.52-4.821a30.403 30.403 0 01-1.547-2.79h-.31zm-59.558 7.75c-.66 1.29-.768 2.669-.972 4.088-.365 1.862-1.468 2.9-2.958 3.97l-.929.62 1.24 5.27h-5.575c-.91 1.82-.91 1.82-1.793 3.654C8.649 57.31 4.825 62.092-.435 65.832c.995.664 1.974 1.022 3.097 1.395l1.161.397c2.976.904 5.884 1.11 8.981 1.095l1.163-.005c7.786-.104 14.546-2.975 20.593-7.841l.685-.54c5.829-4.82 9.275-12.023 10.774-19.298l.185-.862c.182-1.457.157-2.902.144-4.368l-.004-.916-.015-2.223c-1.397 1.344-1.963 2.233-2.297 4.152-.38 2.161-.859 3.56-2.678 4.934-1.724.991-3.299.987-5.245.833-1.83-.645-3.01-1.743-3.93-3.448-.38-.957-.515-1.89-.657-2.906-.279-1.703-.892-2.779-2.226-3.875-2.517-1.517-5.206-.663-6.91 1.55zm47.48 4.029L69.4 39c-1.572 3.088-3.769 4.814-6.968 6.064-1.126.361-2.253.67-3.407.93.727 3.77 2.117 6.407 5.265 8.679 2.623 1.57 5.005 1.79 8.052 1.55 3.149-.811 5.53-2.667 7.433-5.27.845-1.61 1.281-3.164 1.548-4.96l-.84-.205c-4.372-1.148-7.242-2.882-9.65-6.769l-.366-.63-.293-.454h-.31zm23.846 0c-.105.195-.21.39-.32.59-2.177 3.849-4.748 5.918-9.01 7.1-.502.127-1.005.25-1.51.369.155 2.783 1.274 5.195 3.16 7.254 2.594 2.307 5.391 3.137 8.813 3.07 3.127-.289 5.757-1.77 7.782-4.157 1.304-1.815 2.234-3.902 2.234-6.167l-.964-.252c-4.09-1.13-6.977-2.65-9.15-6.468-.39-.748-.39-.748-1.035-1.34zm-46.454 4.03c-.105.39-.21.78-.32 1.18-2.706 9.695-8.185 17.627-17.023 22.686-3.677 2.033-7.645 3.263-11.768 4.03v.31l1.113.263c9.463 2.312 17.546 7.411 22.733 15.855 2.004 3.449 3.63 7.215 4.336 11.158.733-.276.733-.276.953-1.272.123-.422.243-.843.363-1.265 1.739-5.772 4.395-10.495 8.594-14.82l.583-.642c4.897-5.23 12.088-8.045 18.928-9.587v-.31l-1.135-.274c-9.42-2.333-17.4-7.359-22.525-15.806a38.763 38.763 0 01-4.522-11.507h-.31zm1.858 0c.616 4.077 2.322 7.61 4.336 11.158.919.105.919.105 1.383-.423 1.501-1.99 2.643-4.172 2.643-6.706l-.997-.274c-2.48-.71-4.486-1.38-6.436-3.136l-.929-.62zm65.036.62l-.435.351c-2.236 1.658-4.664 2.324-7.307 3.058.355 2.543.974 4.878 2.994 6.589l.722.54c1.786-3.183 3.491-6.34 4.336-9.919l-.31-.62zm-56.055 7.128l-.273.602-.385.812-.37.796c-.667 1.14-1.495 2.082-2.378 3.06 2.175 2.67 4.322 5.086 7.123 7.129l.995.731c1.551 1.248 1.551 1.248 3.388 1.74 1.445-.762 2.233-2.635 2.856-4.08.208-.935.207-1.775.193-2.73l-.715-.15c-3.782-.855-6.7-2.313-8.808-5.643l-.537-.895c-.442-.771-.442-.771-1.089-1.372zm23.847 0c-.294.472-.576.951-.852 1.434-2.055 3.444-4.563 5.292-8.44 6.315-.513.116-1.028.226-1.547.31.165 3.417 1.435 5.752 3.925 8.087 2.292 1.885 4.905 2.566 7.843 2.413 3.059-.338 5.71-1.732 7.727-4.07 1.436-1.924 2.493-3.984 2.493-6.43l-.704-.149c-3.475-.793-6.347-1.922-8.587-4.81a27.038 27.038 0 01-1.549-3.1h-.31zm23.537 0l-.309.659c-1.504 3.003-3.594 5.318-6.814 6.47a62.79 62.79 0 01-3.717.93c.09 2.312.9 4.267 2.168 6.2.64.425.64.425 1.239.62 4.254-2.678 7.761-5.625 10.839-9.61-.442-.932-.953-1.778-1.529-2.634l-.473-.707a52.69 52.69 0 00-1.404-1.928zM93.712 61.493l-.33.67c-1.01 1.96-2.047 3.45-3.696 4.91l-.62.619c1.816-.16 3.286-.543 4.956-1.26l.637-.264c.512-.212 1.021-.429 1.53-.646l-.89-1.491-.5-.84a48.323 48.323 0 00-1.087-1.698zm-23.846.31a330.89 330.89 0 00-.908 1.786 32.263 32.263 0 00-.95 2.243c2.456 1.024 4.79 1.815 7.432 2.17l-.639-.465c-1.946-1.658-3.275-3.401-4.316-5.734h-.62zM-13.752 83.19c-3.986 4.985-7.777 12.347-7.432 18.908.72-.7 1.417-1.393 2.06-2.165 4.98-5.954 12.914-9.77 20.604-10.493 9.002-.525 17.314 1.553 24.409 7.389l.81.656c2.13 1.812 3.75 3.912 5.384 6.163a62.227 62.227 0 002.903-3.061l1.433-1.589.52-.585c1.652-1.764 3.672-3.045 5.673-4.374l.93-.62c-.52-3.748-3.224-7.398-5.575-10.229l-.665-.809c-5.488-6.385-13.289-10.337-21.633-11.28-11.546-.847-21.758 3.392-29.42 12.09zm80.52-8.989l-1.028.482c-7.84 3.952-13.662 10.973-16.585 19.2-2.614 8.608-2.345 18.088 1.826 26.187 4.486 8.247 11.42 14.282 20.375 17.15 9.167 2.622 18.41 1.459 26.74-3.17 1.54-.905 2.922-1.98 4.288-3.126l.946-.793c6.119-5.291 10.105-12.866 11.132-20.904.588-8.568-.704-16.808-5.884-23.867l-.556-.763c-2.455-3.212-5.298-6.083-8.735-8.226l-.812-.536c-9.497-5.972-21.64-6.363-31.706-1.634zM-1.673 91.25A37.388 37.388 0 00-.28 94.911c2.459 5.913 2.115 12.592-.02 18.554-.608 1.41-1.372 2.608-2.303 3.821l-.62.93c7.82 1.883 15.438 1.182 22.608-2.48l.992-.502c3.724-2.034 6.857-4.906 9.538-8.177l.467-.552c.416-.507.416-.507.772-1.308-.36-1.305-1.044-2.119-1.955-3.099l-.761-.821a61.384 61.384 0 00-2.24-2.279l-.57-.556c-6.072-5.69-14.138-8.069-22.314-7.847-1.678.088-3.334.365-4.988.654zm-14.938 8.13c-2.649 2.642-2.649 2.642-4.573 5.818.603.761 1.208 1.52 1.816 2.277.377.469.752.939 1.12 1.414 3.16 3.931 8.511 7.617 13.478 8.708 3.727-3.752 4.95-8.76 4.955-13.948-.164-4.133-.901-8.581-3.716-11.779-4.574 0-9.964 4.49-13.08 7.51zm53.34 1.169c-2.186 2.169-2.186 2.169-3.097 4.959.758 1.269 1.794 2.322 2.788 3.41l.734.812c1.878 1.979 3.986 3.765 6.389 5.077l.929-.31c.311-.852.311-.852.503-1.879l.225-1.037c.87-4.826 1.594-12.213-1.038-16.611-2.244 0-5.942 4.087-7.433 5.579zm-4.645 5.889c-.43.489-.84.997-1.239 1.511-4.896 6.087-11.079 9.863-18.582 11.818l-.886.231c-8.108 1.703-16.93-.077-23.904-4.438-3.163-2.079-5.981-4.612-8.347-7.572-.416 1.362-.122 2.499.194 3.855l.174.756c1.239 5.182 3.542 9.982 7.065 13.987l.623.758c5.5 6.491 13.525 10.369 21.926 11.234.536.037 1.071.069 1.607.096l.645.039c8.798.27 17.22-3.188 23.665-9.075 3.836-3.616 6.562-7.767 8.518-12.661v-.62a22.95 22.95 0 00-1.433-.891c-3.337-2.08-6.193-4.565-8.472-7.784-.3-.423-.616-.835-.935-1.244h-.62zm14.246 5.89l-.252.978c-2.456 9.143-7.997 17.077-16.202 21.915-3.59 2.021-7.438 3.367-11.419 4.383v.31l.967.195c9.27 1.966 17.248 6.99 22.497 15.01 2.428 3.826 3.876 7.699 5.028 12.072l.62-.31c.241-.78.454-1.554.658-2.344 1.558-5.628 4.604-10.501 8.633-14.704l.618-.667c4.809-5.046 11.533-7.935 18.273-9.252v-.31l-1.18-.262c-9.727-2.245-17.759-7.309-23.187-15.892-2.134-3.502-3.387-7.174-4.435-11.122h-.62zm-57.486 38.402c-.5.632-.5.632-.416 1.436.355.912.75 1.308 1.499 1.929l.655.557c1.394 1.009 2.999.941 4.648.76 1.82-.632 2.964-1.88 3.794-3.584.293-.821.293-.821.232-1.995H.804l.038.93c.224 1.547 1.07 2.611 2.13 3.719 1.538 1.12 3.118 1.144 4.955.93 1.71-.559 2.673-1.688 3.716-3.099.42-.84.33-1.553.31-2.48h1.858l-.078.814c.126 1.691 1.024 2.7 2.265 3.777 1.55 1.155 3.06 1.233 4.936.988 1.724-.682 2.883-1.742 3.716-3.409.247-1.157.247-1.157.31-2.17h1.548l.078.969c.384 1.984 1.38 3.164 3.02 4.3 1.66.555 3.371.524 5.032-.019 1.074-.757 2.067-1.607 2.71-2.77-.024-.915-.313-1.243-.922-1.93-7.323-6.637-15.975-9.962-25.87-9.586-8.261.505-15.782 4.273-21.713 9.933zm71.422-2.137c-.373.311-.747.621-1.123.93l-.735.62.62.31a32.42 32.42 0 001.954-.736c3.78-1.545 8.802-1.867 12.722-.537 2.84 1.205 5.434 2.446 7.621 4.683 1.139-.511 2.076-1.219 3.078-1.957 4.526-3.189 9.633-4.12 15.05-3.246 1.335.303 2.578.731 3.838 1.264l.642.219.619-.31c-6.599-6.417-15.35-9.17-24.39-9.055-7.263.214-14.457 2.991-19.896 7.815zm-6.116 7.569c-3.412 4.314-4.288 9.046-3.794 14.439.258 1.335.661 2.49 1.239 3.719l.376.84c1.812 3.67 4.793 6.587 7.7 9.405.685.674 1.318 1.38 1.945 2.109 1.14 1.32 2.361 2.543 3.605 3.764a70.917 70.917 0 014.105 4.349c.908 1.025 1.886 1.977 2.863 2.935 1.172 1.149 2.318 2.301 3.389 3.545 1.175 1.364 2.436 2.629 3.715 3.894l.686.683 1.656 1.642c1.221-1.016 2.371-2.024 3.407-3.235 1.429-1.625 2.949-3.145 4.493-4.66a48.956 48.956 0 002.763-2.932c1.385-1.607 2.902-3.075 4.414-4.561a64.965 64.965 0 003.579-3.835c1.153-1.3 2.415-2.497 3.654-3.714a61.802 61.802 0 003.521-3.771 58.692 58.692 0 011.577-1.731c3.544-4.082 4.541-8.358 4.245-13.624-.421-4.677-2.867-8.767-6.388-11.792-4.32-3.423-9.03-4.274-14.426-3.798-4.266.746-7.673 3.016-10.53 6.199l-.928-.813c-4.699-4.006-9.201-5.803-15.407-5.45-4.5.414-8.564 3.018-11.459 6.393zm-67.525-2.405c-2.865 3.026-6.26 8.156-6.26 12.504 2.046.033 3.271-.417 4.75-1.846.982-1.208 1.444-2.472 1.444-4.043h1.548l.003.534c.086 1.729.432 2.735 1.651 3.978 1.455 1.265 2.8 1.568 4.685 1.505 1.75-.286 2.882-1.239 4.017-2.55.592-1.208.701-2.13.793-3.467H.804l.058 1.104c.195 1.493.726 2.492 1.8 3.545 1.627 1.203 3.275 1.537 5.265 1.24 1.675-.559 2.782-1.625 3.716-3.1.306-.835.465-1.597.62-2.479H13.5l.175 1.085c.47 1.888 1.72 3.31 3.348 4.339 2.013.384 3.709.358 5.523-.674 1.16-.858 1.933-1.855 2.265-3.272.078-.593.116-1.191.148-1.788h1.548l.078 1.123c.21 1.586.776 2.607 1.995 3.675 1.383.999 2.586 1.338 4.29 1.239 1.868-.363 3.105-1.368 4.167-2.918.605-1.067.774-1.88.62-3.119h1.548l.103.556c.381 1.901.745 3.196 2.278 4.481 1.237.654 2.117.756 3.503.852-.175-1.713-.611-3.143-1.277-4.727l-.292-.698c-1.227-2.858-2.844-5.297-4.934-7.593l-.465.678c-1.302 1.466-3.006 2.625-4.998 2.805-2.067.05-3.7-.019-5.377-1.314a19.317 19.317 0 01-1.858-2.169l-.677.697c-1.863 1.823-3.268 2.797-5.923 2.828-2.06-.037-3.566-.367-5.043-1.852a22.369 22.369 0 01-1.054-1.363c-.973.224-.973.224-1.452 1.026-1.185 1.379-2.353 1.969-4.163 2.193-2.087.07-3.855-.037-5.534-1.36a19.57 19.57 0 01-1.859-2.169l-.677.697c-1.773 1.735-3.193 2.79-5.73 2.848-1.96-.036-3.465-.524-5.051-1.686-.53-.601-.858-1.146-1.24-1.859-.397-.036-.397-.036-.862.514zm.553 10.334l-.308.431c-1.532 1.977-3.275 2.887-5.75 3.211l-1.065.078c-.524 1.626-.749 3.121-.832 4.824l-.044.684c-.072 1.314-.015 2.494.257 3.791 2.059.123 3.531.057 5.15-1.377 1.308-1.36 1.73-2.661 1.973-4.513h1.548l-.097.775c.133 1.482.713 2.424 1.646 3.565 1.49 1.163 2.678 1.67 4.587 1.634 1.687-.211 3.012-1.008 4.065-2.332.764-1.183.875-2.25.948-3.642H.804l.077 1.124c.173 1.342.59 2.166 1.471 3.216 1.698 1.283 3.132 1.82 5.265 1.55 1.777-.573 3.03-1.498 4.026-3.1.204-.931.287-1.838.31-2.79l1.548.31.127.613c.51 2.07 1.165 3.196 2.97 4.347 1.28.722 2.584.802 4.026.62 1.893-.706 3.055-1.788 3.968-3.584.435-1.073.435-1.073.368-2.306h1.548l.059 1.105c.195 1.492.725 2.493 1.8 3.545 1.33.965 2.68 1.454 4.33 1.36 1.562-.3 2.75-.989 3.838-2.135.909-1.399 1.2-2.169 1.122-3.875h1.549l.06.524c.334 2.086 1.16 3.342 2.727 4.746 1.333.843 2.806.68 4.336.62.068-3.178-.01-6.167-.62-9.299l-.669-.092c-2.922-.457-4.655-1.227-6.453-3.628-.427.4-.839.815-1.24 1.24v.62c-.409.213-.823.418-1.238.62l-.93.504c-1.774.745-3.84.739-5.679.222-1.585-.706-2.59-1.828-3.611-3.206l-.639.678c-1.794 1.792-3.341 2.751-5.903 2.848-1.916-.018-3.345-.586-4.917-1.666-.813-.872-.813-.872-1.238-1.55-.858.35-1.308.693-1.955 1.376-1.515 1.445-2.797 1.782-4.84 1.859-2.031-.06-3.469-.486-4.918-1.94a25.962 25.962 0 01-1.295-1.605l-.677.698c-1.794 1.755-3.202 2.794-5.768 2.828-1.777-.024-2.898-.457-4.394-1.356l-.929-.31c-.33-.6-.33-.6-.62-1.24l-.619-.62zm61.32 4.65c-1.5 8.63.457 17.519 5.265 24.797a46.237 46.237 0 002.477 3.099l.554.69c4.87 5.87 12.39 9.714 19.886 10.779 1.039.059 2.058.065 3.097 0-.439-.514-.878-1.028-1.319-1.54-.33-.385-.658-.772-.982-1.163-1.45-1.713-3.038-3.28-4.638-4.851a49.915 49.915 0 01-2.807-2.975c-1.128-1.309-2.338-2.519-3.571-3.729a70.665 70.665 0 01-4.095-4.34c-.96-1.081-1.996-2.086-3.028-3.099a78.085 78.085 0 01-4.645-4.96l-.667-.746c-2.998-3.519-4.59-7.415-5.218-11.962h-.31zm66.274 1.86l-.309 1.084c-1.955 5.76-5.398 9.692-9.679 13.877a57.978 57.978 0 00-3.395 3.633c-1.156 1.303-2.42 2.503-3.662 3.723-1.012 1.001-1.992 2.01-2.92 3.09-1.38 1.604-2.894 3.066-4.403 4.549a65.676 65.676 0 00-3.627 3.882c-.695.794-1.43 1.531-2.18 2.272l-.812.804-.601.591c2.235 1.119 7.05-.687 9.348-1.434 8.589-2.957 15.443-9.307 19.462-17.391.917-1.934 1.593-3.905 2.159-5.972l.299-1.04c.938-3.828.717-7.755.63-11.668h-.31zm-127.594 4.339l-.6.833c-1.468 1.781-3.532 2.598-5.787 2.828-.452.026-.903.048-1.355.059.633 4.481.633 4.481 2.168 8.678.586.326.586.326 1.238.31 1.33-.72 2.298-1.503 3.097-2.789.273-.921.463-1.843.62-2.79h1.548l-.097.775c.133 1.482.713 2.424 1.646 3.565 1.49 1.163 2.678 1.669 4.587 1.634 1.687-.211 3.012-1.008 4.065-2.332.764-1.183.875-2.25.948-3.642H.804l.077.969c.416 2.151 1.621 3.364 3.33 4.61.59.284.59.284 1.238.31l1.007.097c1.913-.159 3.144-.883 4.548-2.169.798-1.283.912-2.33.949-3.817h1.858l.002.534c.086 1.715.423 2.739 1.627 3.979 1.173.973 2.295 1.332 3.79 1.493 1.817-.195 3.06-.734 4.278-2.093 1.023-1.296 1.452-2.238 1.452-3.913h1.548l.059 1.104c.195 1.493.725 2.494 1.8 3.546 1.33.965 2.68 1.454 4.33 1.359 1.562-.3 2.75-.988 3.838-2.134.909-1.4 1.2-2.17 1.122-3.875h1.549l.07.534c.323 1.896.94 3.158 2.407 4.426.83.492 1.182.619 2.168.619 1.595-4.388 1.595-4.388 2.168-8.988l-.715-.071c-2.954-.376-5.037-1.398-7.027-3.649l-.387.51c-1.485 1.84-2.657 2.695-5.006 2.995-1.923.099-3.522-.267-5.137-1.335a15.427 15.427 0 01-1.858-2.17l-.62.678c-1.647 1.654-3.55 2.76-5.903 2.848-1.916-.021-3.382-.545-4.936-1.666-.515-.597-.852-1.166-1.238-1.86h-.62l-.464.833c-.92 1.431-2.294 2.052-3.872 2.577-2.46.434-4.465-.131-6.503-1.55-.615-.592-1.058-1.156-1.549-1.86l-.677.697c-1.813 1.775-3.209 2.719-5.787 2.809-1.854-.052-3.333-.306-4.69-1.64a37.145 37.145 0 01-1.126-1.356l-.417-.51h-.31zm0 10.849l-.6.833c-1.064 1.326-2.52 1.906-4.045 2.576a39.16 39.16 0 003.406 5.89c.453-.821.62-1.208.62-2.17h1.548l-.116.755c.196 1.862 1.292 3.287 2.671 4.514 1.753.638 3.334.802 5.13.271 1.707-1.005 2.733-2.141 3.464-3.99.079-.853.079-.853 0-1.55H.804l.077.968c.383 1.979 1.376 3.178 3.02 4.301 1.26.757 2.431.697 3.85.517 1.748-.455 2.907-1.518 3.892-2.997.33-.988.384-1.755.31-2.789h1.858l.002.534c.085 1.7.41 2.749 1.61 3.977 1.368 1.102 2.72 1.473 4.466 1.359 1.69-.271 2.756-1.035 3.91-2.286.852-1.249 1.161-2.062 1.161-3.584h1.548l.078 1.123c.176 1.347.57 2.172 1.47 3.216 1.563 1.135 3.01 1.636 4.956 1.55 2.016-.605 3.197-1.619 4.278-3.41.362-.915.453-1.508.367-2.479h1.549l.31 1.86c1.403-1.621 2.725-3.535 3.406-5.58l-.623-.352c-1.537-.892-2.844-1.721-4.022-3.057l-.309.431c-1.389 1.793-2.845 2.726-5.095 3.107-2.085.124-3.724-.506-5.435-1.679-.616-.591-1.058-1.155-1.549-1.859l-.62.678c-1.687 1.688-3.556 2.757-5.961 2.809-1.8-.036-3.257-.317-4.563-1.622-.38-.443-.749-.894-1.106-1.356l-.447-.509h-.62c-.336.382-.656.779-.968 1.181-1.285 1.503-2.42 2.074-4.367 2.313-2.068.092-3.74-.426-5.427-1.615a44.12 44.12 0 01-1.935-1.879l-.309.431c-1.385 1.788-2.85 2.751-5.106 3.096-1.904.091-3.519-.3-5.115-1.358a15.37 15.37 0 01-1.52-1.738l-.338-.431h-.31zm12.698 10.538l-.465.833c-.909 1.371-2.311 2.282-3.873 2.772-1.658.309-3.314.133-4.953-.195 5.234 5.762 13.714 8.229 21.236 8.756a34.05 34.05 0 0022.43-7.826l.31-.62-.704.044c-2.408.085-4.764-.043-6.623-1.759-.415-.494-.415-.494-1.034-1.385l-.62-.62-.638 1.008c-.99 1.389-2.087 2.018-3.678 2.634-2.338.284-4.279.101-6.22-1.306-1.44-1.203-1.44-1.203-1.851-2.026h-.62c-.423.454-.423.454-.851 1.027-1.098 1.326-2.383 2.13-4.104 2.383-2.253.15-3.929-.23-5.807-1.511-.727-.687-1.336-1.408-1.935-2.209z" fill="#8B734B" fill-opacity=".1"/></svg>