<svg width="16" height="24" fill="none" xmlns="http://www.w3.org/2000/svg"><path d="M6.067.626A.547.547 0 005.67.8a.607.607 0 00-.164.418v4.178H1.122V1.217A.607.607 0 00.957.799.547.547 0 00.561.626.547.547 0 00.164.8.607.607 0 000 1.217v5.327c0 .685.195 1.353.56 1.918.25.394.574.73.95.987.378.257.8.432 1.243.512v2.695a2.8 2.8 0 00-1.295.671.617.617 0 00-.195.448v8.06c-.001.285.052.566.155.829.103.262.254.5.444.702.19.2.417.36.666.47a1.962 1.962 0 001.571 0c.25-.11.476-.27.666-.47.19-.201.342-.44.445-.702.103-.263.155-.544.155-.828v-8.061a.618.618 0 00-.195-.448 2.798 2.798 0 00-1.296-.67V9.96c.443-.08.866-.255 1.243-.512.376-.258.7-.593.95-.987a3.527 3.527 0 00.56-1.918V1.217a.618.618 0 00-.164-.418.56.56 0 00-.396-.173z" fill="#285484"/><path d="M3.314 5.03a.547.547 0 00.396-.174.607.607 0 00.165-.418V1.217A.607.607 0 003.71.799a.547.547 0 00-.396-.173.547.547 0 00-.397.173.607.607 0 00-.164.418v3.221c0 .157.059.307.164.418.105.11.248.173.397.173zM16 4.981C16 2.234 14.232 0 12.061 0c-2.17 0-3.937 2.234-3.937 4.981 0 2.506 1.47 4.584 3.377 4.93v2.745a2.8 2.8 0 00-1.296.671.589.589 0 00-.144.201.62.62 0 00-.051.247v8.06c0 .285.052.566.155.829.103.262.254.5.445.702.19.2.416.36.665.47a1.962 1.962 0 001.572 0c.25-.11.475-.27.666-.47.19-.201.341-.44.444-.702a2.26 2.26 0 00.155-.828v-8.061a.617.617 0 00-.195-.448 2.797 2.797 0 00-1.295-.67V9.91C14.53 9.565 16 7.487 16 4.98zm-3.994 3.888a.465.465 0 01-.337-.147.516.516 0 01-.14-.355c0-.133.05-.26.14-.355a.465.465 0 01.337-.147c1.135 0 2.059-1.347 2.059-3.002 0-.133.05-.261.14-.355a.465.465 0 01.336-.147c.127 0 .248.053.338.147.089.094.14.222.14.355 0 2.209-1.352 4.006-3.013 4.006z" fill="#285484"/></svg>