<svg width="345" height="258" fill="none" xmlns="http://www.w3.org/2000/svg"><path fill-rule="evenodd" clip-rule="evenodd" d="M53.479.148H34.496v.761h-1.518C25.616 2.386 16.943 7.641 12.29 13.51l-.574.728c-4.67 5.311-7.782 11.282-9.588 18.117C-.673 43.986 1.393 56 7.474 66.232c6.107 9.946 15.918 16.63 27.156 19.372l1.005.226c-9.419 2.086-18.362 6.43-24.677 13.93l-.76.922c-4.292 4.687-7.182 10.684-8.834 16.798-2.793 11.397-1.318 23.394 4.63 33.549 6.263 10.467 16.03 17.254 27.796 20.217l1.086.267v.38c-3.188.85-6.347 1.731-9.35 3.118-10.125 4.866-18.354 13.574-22.174 24.231-3.959 11.762-3.367 23.979 2.047 35.166 5.266 10.394 14.629 17.974 25.55 21.743 10.71 3.153 22.481 2.304 32.444-2.779 11.644-6.207 18.69-16.167 22.54-28.664l.196-.644c1.776 7.91 5.74 15.77 11.695 21.345l.834.743c7.431 6.885 16.724 11.164 26.884 11.757 11.613.467 22.968-2.99 31.649-10.936 8.185-7.781 13.758-18.253 14.073-29.687.159-11.632-2.494-23.025-10.73-31.685l-.752-.76-.925-.976-.973-.928c-2.129-2.05-4.272-3.894-6.804-5.427l-1.169-.666c-4.286-2.466-8.633-3.935-13.411-5.17l-.636-.161c3.77-.651 7.589-2.01 10.995-3.741 11.202-6.002 18.681-15.347 22.415-27.486 3.175-10.841 1.177-23.057-4.088-32.863-6.182-11.122-15.986-17.623-27.971-21.2l-1.351-.393c6.865-1.538 12.828-3.919 18.603-7.997 8.905-6.824 14.839-16.989 16.658-28.013 1.66-11.275-.786-23.157-7.604-32.394l-.701-.903c-1.644-2.137-3.258-4.228-5.368-5.92l-.707-.554c-3.217-2.688-6.429-5.095-10.288-6.772l-.817-.345a44.564 44.564 0 00-2.347-.929l-.975-.332c-4.367-1.528-8.396-1.73-12.995-1.66-.74.012-1.48.02-2.22.024-.733.003-1.466.007-2.199.013l-1.049.009c-5.75.05-11.17 1.83-16.176 4.655l-.669.386C96.606 11.105 90.293 20.594 86.59 31.84l-.46 1.438c-.5-2.081-1.051-4.139-1.834-6.133C79.669 16.242 71.705 7.338 60.666 2.79l-.899-.357c-1.65-.657-3.206-1.18-4.973-1.405L53.48.91V.148zM26.025 8.192a85.41 85.41 0 01-1.78-1.19C34.496-2.373 54.555.78 65.25 7.401l1.137.744c4.585 2.845 9.447 7.216 11.77 12.186-.465.284-.714.437-.974.571-.303.157-.62.288-1.304.571-1.992.214-3.257-.044-4.936-1.142-1.764-1.482-2.109-2.913-2.491-5.141-.11-.744-.163-1.11-.233-1.473-.068-.35-.15-.699-.313-1.383-1.167-2.054-2.338-3.36-4.556-4.19-2.345-.363-4.568-.402-6.668.81-1.969 1.497-2.808 2.996-3.203 5.427-.166 1.037-.342 2.02-.655 3.022-.899 2.069-2.2 3.217-4.28 4.07-1.938.312-3.257-.145-4.976-.967-1.468-1.135-2.144-2.446-2.569-4.233a50.543 50.543 0 00-.808-4.32c-.775-1.604-2.171-2.715-3.733-3.548-2.055-.65-4.487-.558-6.518.12L29.046 9c-.502.2-.757.301-1.006.288-.256-.014-.506-.15-1.014-.425l-1-.67zm87.714 2.63c-2.669-.188-5.671-1-7.488-3.058 6.095-3.584 13.287-6.656 20.501-6.093-.461 1.327-.693 1.994-1.022 2.61-.333.623-.765 1.193-1.635 2.34-2.664 2.672-6.62 4.15-10.356 4.201zm23.193-1.535c-3.004-1.642-5.324-4.357-6.383-7.616 7.243-.278 13.953 2.498 20.122 6.093v.762c-1.01.573-1.971 1.075-3.038 1.523-3.691 1.13-7.174.777-10.701-.762zm-8.756-5.651l.475-.823c.56.655.841.983 1.092 1.333.253.352.477.726.925 1.476.331.554.496.83.672 1.099.174.266.359.526.728 1.043 2.76 2.477 5.827 3.96 9.483 4.483l.767.087c-.227 3.136-1.103 5.618-3.108 8.068-2.874 3.08-6.329 4.863-10.559 5.022-3.509-.127-6.795-1.352-9.36-3.784-2.532-2.793-3.841-5.515-3.928-9.306.911-.13 1.809-.292 2.711-.476 4.697-1.236 7.655-4.152 10.102-8.222zM2.916 46.216c-.36-11.483 2.691-22.634 10.664-31.185.434-.434.887-.916 1.357-1.416 2.843-3.025 6.317-6.721 10.136-4.398 10.283 6.719 16.228 16.496 19.101 28.337l.387 1.578c.344 1.39.687 2.78 1.026 4.17.35 1.438.704 2.874 1.058 4.31a3931.18 3931.18 0 012.278 9.277l-6.454.38c-.395 2.133-.895 3.922-1.907 5.838l-.442.803c-1.335 2.477-2.778 4.828-4.485 7.069-1.87-.247-3.39-.58-4.864-1.81-1.991-1.922-2.88-3.52-3.079-6.28l-.03-.67h-1.898c.23 1.653.515 3.23 1.166 4.771 1.56 2.956 3.352 4.063 6.423 5.232l.764.28c-1.885 2.836-5.408 5.988-8.614 7.259-.914.043-.914.043-1.74-.504l-1.036-.662c-1.945-1.224-3.854-2.486-5.59-3.997-7.97-7.362-13.572-17.399-14.22-28.382zm92.159-27.718c1.172-1.621 2.376-3.157 3.773-4.593.227-.217.508-.51.827-.844 1.647-1.722 4.322-4.517 6.002-3.397 2.022 1.472 4.004 1.985 6.435 2.487l.973.183c.043 1.14.042 2.127-.252 3.234-1.684 4.188-4.083 7.14-8.296 8.99-4.327 1.46-7.942.704-11.954-1.18.441-1.593 1.054-2.856 2.002-4.208l.49-.672zm-64.59-7.225l-.545-.463c.825-.725 1.347-1.116 2.444-1.28l.973.019c1.356.006 2.257.164 3.417.88 1.288 1.261 1.955 2.158 2.325 3.928.331 1.807.741 3.52 1.472 5.212.981 1.725 2.246 2.654 4.106 3.25 2.11.45 4.224.486 6.144-.584 1.844-1.263 3.185-2.619 3.626-4.878.034-.235.066-.47.098-.703.167-1.23.332-2.45.742-3.632.886-1.736 2.067-2.753 3.887-3.354 2.123-.327 3.923-.15 5.695 1.143 1.277 1.48 1.97 2.877 2.159 4.831.036.548.075 1.095.118 1.642.635 2.28 2.05 3.945 4.082 5.094 2.304 1.038 4.422.912 6.762.047l1.306-.571.511.753.651 1.008c.782 1.184 1.142 1.744 1.015 3.175l-.28 1.157-.043.338c-.254 1.953-.49 3.761-1.356 5.564-1.055 1.145-2.068 1.97-3.536 2.476-1.838.249-3.323.213-4.935-.762-1.636-1.347-2.388-2.668-2.729-4.76-.174-1.25-.341-2.395-.807-3.57-1.235-2.294-2.719-3.463-5.196-4.237-2.255-.303-4.188-.14-6.17 1.03-2.222 1.652-2.701 3.438-3.156 6.063-.384 2.62-1.093 3.875-3.084 5.593-1.619.827-2.895.786-4.675.643-2.27-10.144-7.158-18.272-15.021-25.052zm113.731 1.06c2.122-.303 3.932-.756 5.838-1.76 1.304-.738 1.71-.905 3.274-.905 4.581 2.861 8.982 8.54 11.39 13.328l-.38.762c-1.47.675-2.987 1.136-4.556 1.523-3.775.358-6.945-.455-10.108-2.57-3.202-3.043-5.132-5.892-5.458-10.377zm-2.592 7.407c.474-.825.946-1.65 1.454-2.456h.379c.47 1.056.945 2.047 1.519 3.047 2.708 3.876 6.301 5.434 10.74 6.601l1.029.253c0 2.37-.617 4.051-1.756 6.093-2.134 3.391-4.982 5.465-8.874 6.474-4.711.405-8.289-.212-12.007-3.237-2.662-2.476-4.179-5.698-4.318-9.33 4.842-1.141 8.894-2.688 11.643-7.112l.191-.333zm-28.753-.361c.306-.581.626-1.157.973-1.714h.759c.376.838.79 1.64 1.236 2.443 2.755 4.092 6.554 5.805 11.163 6.881l.889.196c-.377 1.849-.766 3.69-1.503 5.431-1.833 3.213-4.814 5.804-8.337 6.916-4.364.821-7.996.183-11.8-2.065-3.465-2.741-4.827-6.034-5.695-10.282.8-.144 1.6-.296 2.392-.477 4.308-1.195 7.65-3.435 9.923-7.33zm-58.064 11.37c.254-1.478.447-2.6 1.235-3.897 2.381-2.256 4.984-3.443 8.067-1.57 2.012 1.68 2.549 3.317 2.904 5.87.159 1.17.429 2.183.893 3.269 1.122 1.818 2.538 2.81 4.556 3.427 2.382.235 4.322.192 6.43-1.023 2.266-1.717 2.866-3.512 3.328-6.221l.113-.753h.759c.182.633.363 1.266.54 1.9l.22.79c.564 1.951.844 3.63.759 5.688l-.76.38c-1.825 1.676-2.434 2.912-2.918 5.356a51.345 51.345 0 01-.499 2.642c-.921 2.226-1.975 3.27-4.176 4.189-1.735.31-3.418.16-4.935-.762-1.708-1.302-2.358-2.647-2.745-4.76l-.1-.617c-.214-1.334-.426-2.654-.955-3.91-1.118-1.712-2.615-2.738-4.553-3.28-2.385-.229-4.318-.193-6.43 1.024-1.955 1.48-2.684 2.85-3.085 5.236-.485 3.066-1.235 4.821-3.773 6.688-.427-.158-.631-.233-.756-.377-.113-.131-.16-.32-.251-.68l-.215-.88-.24-.974-.246-1.04c-.662-2.73-1.283-5.457-1.708-8.235 2.04-.176 3.543-.417 5.315-1.523 2.012-1.644 2.75-3.426 3.22-5.927l.006-.03zm32.817 7.623c-.08-4.672 1.778-9.357 3.82-13.471 1.13.377 2.263.735 3.399 1.09l.849.266 1.677.525 1.289.403c-.344 3.384-.344 3.384-1.898 6.474-2.087 3.291-5.44 5.1-9.112 6.093l-.024-1.38zm71.211-11.224c1.359-.262 2.71-.523 4.004-1.03l.12-.054c1.025-.465 1.725-.783 2.898-.783 2.016 4.53 3.322 9.11 3.417 14.09-1.732-.391-2.61-.59-3.407-.96-.821-.381-1.556-.944-3.047-2.086-2.49-2.566-3.689-5.646-4.177-9.14l.192-.037zm-1.876 5.892l.545-1.285h.38l.427.952c2.423 4.537 5.569 6.906 10.383 8.626l.959.323c.009.274.021.55.032.829.103 2.473.21 5.074-1.326 7.12-2.66 2.825-5.987 4.739-9.891 5.08-3.862.058-7.522-1.302-10.408-3.937-2.277-2.525-3.713-5.695-3.844-9.092a28.23 28.23 0 003.797-.761c4.048-1.503 6.976-3.972 8.946-7.855zm-58.538.833c.324-.583.654-1.164.996-1.737h.38l.512.822.651 1.106c2.793 4.448 6.247 6.232 11.235 7.396l.89.196c.123 3.409-1.256 6.148-3.401 8.744-2.589 2.592-6.271 4.2-9.935 4.323-4.032-.326-7.396-1.668-10.203-4.641-2.245-2.694-2.4-5.036-2.278-8.426l1.044-.238c4.509-1.314 7.714-3.529 10.109-7.545zm28.925.357c.43-.7.863-1.4 1.305-2.094h.379c.579 1.18 1.2 2.314 1.899 3.427 2.723 3.453 6.215 5.071 10.443 5.924l.946.17c-.278 3.204-1.307 6.17-3.54 8.533l-.636.606c-2.486 2.367-5.454 3.413-8.818 3.94-3.631.172-7.034-1.286-9.785-3.56-2.672-2.68-3.996-5.775-4.176-9.52l.878-.095c4.909-1.002 8.316-3.11 11.105-7.33zm-72.8 11.73c.2-1.49.395-2.937 1.092-4.304 2.09-2.719 5.386-3.768 8.471-1.904 1.637 1.347 2.388 2.668 2.73 4.76.173 1.25.34 2.395.806 3.57 1.127 2.095 2.572 3.445 4.817 4.237 2.386.189 4.316.194 6.43-1.024 2.23-1.688 2.818-3.406 3.282-6.061.41-2.358 1.104-3.45 2.816-5.101.008.91.014 1.82.019 2.731l.005 1.125.003.304c.016 1.698.031 3.374-.18 5.063l-.226 1.059c-1.838 8.937-6.063 17.788-13.208 23.708l-.84.664c-7.413 5.978-15.7 9.505-25.245 9.632l-1.425.007c-3.798.018-7.363-.235-11.01-1.345l-1.424-.488c-1.376-.458-2.577-.898-3.797-1.713 6.448-4.596 11.136-10.47 14.507-17.598.542-1.126.812-1.69 1.087-2.25.274-.562.553-1.121 1.111-2.24h6.834l-1.519-6.473 1.14-.762c1.826-1.315 3.178-2.59 3.625-4.877.035-.241.067-.481.1-.72zm58.729 1.956l.569-1.31h.38l.359.56.448.774c2.952 4.775 6.471 6.905 11.831 8.315l1.029.253c-.327 2.206-.862 4.114-1.898 6.093-2.333 3.198-5.252 5.477-9.112 6.474-3.736.295-6.655.025-9.871-1.904-3.859-2.792-5.563-6.03-6.454-10.663a47.971 47.971 0 004.176-1.143c3.922-1.536 6.615-3.656 8.543-7.45zm29.411-.583l.392-.726c.401.37.598.55.758.76.155.204.274.433.51.885 2.664 4.691 6.202 6.557 11.217 7.946l1.182.31c0 2.782-1.14 5.346-2.739 7.577-2.482 2.931-5.706 4.752-9.54 5.107-4.195.082-7.624-.938-10.803-3.772-2.313-2.53-3.684-5.493-3.873-8.912.618-.145 1.235-.298 1.85-.453 5.225-1.453 8.377-3.994 11.046-8.722zm-56.948 5.676l.391-1.452h.38c1.126 5.095 2.913 9.649 5.543 14.138 6.283 10.377 16.066 16.552 27.614 19.418l1.392.336v.381c-8.385 1.895-17.201 5.354-23.204 11.779l-.715.788c-5.147 5.314-8.404 11.116-10.535 18.207-.147.519-.295 1.037-.445 1.555-.15.677-.216.98-.399 1.172-.146.156-.369.24-.77.391-.864-4.845-2.858-9.471-5.315-13.709-6.358-10.374-16.268-16.638-27.869-19.48l-1.364-.322v-.38c5.054-.943 9.92-2.454 14.427-4.951 10.834-6.216 17.55-15.961 20.869-27.87zm7.984 12.257c-2.468-4.36-4.56-8.699-5.315-13.709l1.14.762c2.39 2.157 4.85 2.98 7.889 3.853l1.222.336c0 3.114-1.4 5.795-3.24 8.24-.253.287-.393.447-.57.525-.221.098-.5.066-1.126-.007zm73.879-12.514l.534-.433.379.761c-1.035 4.398-3.125 8.277-5.315 12.186l-.885-.663c-2.477-2.102-3.235-4.97-3.671-8.095l.07-.02c3.214-.894 6.167-1.715 8.888-3.736zm-68.519 9.065l.335-.74c.395.368.593.552.759.762.168.211.304.448.576.924l.658 1.1c2.585 4.09 6.161 5.882 10.798 6.933l.877.183c.016 1.174.017 2.205-.237 3.356l-.039.088c-.757 1.762-1.72 4.003-3.463 4.923-1.1-.295-1.662-.446-2.172-.702-.533-.268-1.008-.651-1.98-1.436l-1.221-.898c-3.433-2.51-6.066-5.477-8.732-8.759 1.083-1.2 2.098-2.357 2.916-3.759l.454-.977.471-.998zm28.525 1.022c.338-.593.683-1.182 1.044-1.761h.379a33.318 33.318 0 001.899 3.808c2.746 3.548 6.266 4.936 10.526 5.91l.863.183c0 3.004-1.295 5.535-3.056 7.898-2.473 2.874-5.722 4.586-9.472 5.002-3.602.188-6.805-.65-9.615-2.965-3.052-2.87-4.61-5.737-4.812-9.935.637-.103 1.268-.24 1.898-.381 4.752-1.258 7.826-3.527 10.346-7.76zm29.519-.952l.378-.81a63.05 63.05 0 011.722 2.369l.58.868c.706 1.052 1.332 2.092 1.875 3.237-3.774 4.896-8.073 8.516-13.288 11.805-.734-.238-.734-.238-1.519-.761-1.555-2.375-2.549-4.776-2.658-7.616a76.588 76.588 0 004.556-1.143c3.948-1.415 6.51-4.26 8.354-7.95zM142.673 76.37l.405-.823c.456.688.904 1.382 1.331 2.087l.614 1.031 1.092 1.833c-.625.267-1.25.532-1.876.793l-.782.326c-2.047.879-3.85 1.35-6.074 1.547l.759-.762c2.021-1.792 3.293-3.624 4.531-6.032zm-29.541.962l.712-1.404h.759c1.276 2.866 2.905 5.008 5.292 7.045l.783.571c-3.239-.436-6.101-1.407-9.112-2.665.362-.934.735-1.852 1.166-2.757l.4-.79zM2.226 125.435c-.423-8.061 4.224-17.106 9.111-23.23 9.394-10.686 21.913-15.894 36.068-14.852 10.229 1.158 19.791 6.014 26.519 13.858l.816.994c2.882 3.477 6.197 7.962 6.833 12.567l-1.138.761-.568.377c-2.266 1.503-4.518 2.997-6.388 4.998l-.638.718-1.755 1.952a75.958 75.958 0 01-3.56 3.761c-2.002-2.765-3.99-5.346-6.6-7.572l-.993-.806c-8.698-7.17-18.888-9.722-29.923-9.077-9.428.888-19.154 5.575-25.257 12.891-.79.949-1.643 1.8-2.527 2.66zm106.561-33.681l1.261-.593c12.34-5.81 27.226-5.33 38.868 2.007l.995.66c4.214 2.632 7.699 6.159 10.709 10.106l.681.937c6.351 8.672 7.935 18.796 7.213 29.322-1.258 9.876-6.144 19.182-13.646 25.683l-1.16.974c-1.675 1.407-3.369 2.728-5.256 3.839-10.213 5.688-21.543 7.117-32.781 3.896-10.978-3.524-19.478-10.938-24.978-21.071-5.113-9.95-5.442-21.596-2.238-32.171 3.584-10.108 10.72-18.734 20.332-23.59zm-80.935 24.85a45.997 45.997 0 01-1.708-4.498c2.027-.356 4.057-.695 6.114-.804 10.023-.272 19.912 2.649 27.355 9.642l.7.682c.949.905 1.844 1.848 2.745 2.8l.933 1.009c1.116 1.204 1.956 2.204 2.396 3.808-.249.561-.356.802-.496 1.021-.106.165-.231.318-.45.585l-.572.678c-3.287 4.019-7.128 7.547-11.693 10.046l-1.216.617c-8.79 4.498-18.13 5.361-27.715 3.047l.76-1.143c1.141-1.49 2.078-2.962 2.822-4.694 2.618-7.325 3.04-15.53.025-22.796zM2.226 129.243c2.358-3.903 2.358-3.903 5.605-7.15 3.82-3.709 10.428-9.225 16.035-9.225 3.45 3.928 4.355 9.393 4.556 14.471-.007 6.374-1.506 12.527-6.075 17.136-6.089-1.34-12.65-5.869-16.522-10.698-.452-.584-.912-1.162-1.373-1.738a503.87 503.87 0 01-2.226-2.796zm68.478-2.901c.477-.784 1.147-1.449 2.517-2.812.206-.207.447-.454.717-.731 2.112-2.172 5.955-6.123 8.395-6.123 3.227 5.404 2.34 14.479 1.272 20.407l-.276 1.275c-.125.675-.184.989-.27 1.295-.074.267-.169.527-.347 1.014l-1.139.381c-2.945-1.612-5.529-3.807-7.831-6.238l-.9-.998a135.66 135.66 0 00-.5-.544c-1.058-1.15-2.115-2.298-2.918-3.645.546-1.675.825-2.532 1.28-3.281zm-4.696 6.28c.489-.632.99-1.256 1.518-1.856h.76c.39.502.778 1.008 1.146 1.528 2.793 3.955 6.295 7.007 10.385 9.563a27.66 27.66 0 011.756 1.095v.761c-2.397 6.013-5.738 11.113-10.442 15.556-7.9 7.232-18.225 11.48-29.01 11.149l-.791-.048a99.673 99.673 0 01-1.97-.119c-10.299-1.062-20.138-5.827-26.88-13.801l-.763-.931c-4.319-4.921-7.142-10.818-8.661-17.184l-.213-.929-.045-.191c-.368-1.583-.683-2.936-.193-4.545 2.9 3.636 6.355 6.748 10.232 9.302 8.55 5.358 19.365 7.545 29.304 5.453l1.087-.284c9.198-2.401 16.777-7.041 22.78-14.519zm18.674 6.581l.308-1.202h.76c1.284 4.852 2.82 9.362 5.436 13.665 6.655 10.544 16.501 16.766 28.424 19.524l1.448.323v.38c-8.264 1.618-16.506 5.168-22.402 11.367l-.757.819c-4.94 5.164-8.673 11.151-10.583 18.065-.25.97-.511 1.922-.807 2.88l-.76.381c-1.412-5.373-3.187-10.131-6.164-14.831-6.435-9.854-16.215-16.026-27.579-18.441l-1.185-.24v-.38c4.88-1.249 9.597-2.902 13.998-5.386 10.06-5.943 16.852-15.69 19.863-26.924zm-70.687 46.78c.064-.22.217-.414.523-.801 7.271-6.954 16.49-11.583 26.62-12.204 12.129-.462 22.735 3.622 31.712 11.777.747.843 1.1 1.247 1.13 2.371-.787 1.429-2.005 2.473-3.322 3.403-2.035.668-4.133.705-6.169.024-2.01-1.396-3.231-2.846-3.702-5.284l-.095-1.19h-1.898a17.89 17.89 0 01-.095 1.191c-.047.357-.122.71-.285 1.475-1.02 2.049-2.442 3.351-4.555 4.189-2.3.301-4.151.205-6.051-1.214-1.521-1.324-2.623-2.563-2.776-4.641l.095-1h-2.278c.003.148.008.291.012.431.03.938.056 1.718-.392 2.616-1.279 1.734-2.46 3.121-4.556 3.808-2.252.262-4.188.233-6.074-1.142-1.3-1.362-2.337-2.669-2.61-4.57l-.048-1.143h-1.898c.042.825.06 1.178.001 1.518-.044.254-.132.502-.286.934-1.018 2.093-2.421 3.627-4.65 4.403-2.023.222-3.99.306-5.698-.934l-.804-.684c-.92-.764-1.402-1.25-1.838-2.37-.051-.495-.077-.742-.013-.963zm86.704-2.284c.46-.38.918-.761 1.376-1.143 6.667-5.927 15.486-9.339 24.39-9.602 11.082-.141 21.811 3.242 29.9 11.125l-.759.381-.787-.269c-1.545-.655-3.068-1.181-4.705-1.553-6.64-1.073-12.902.07-18.45 3.988l-.184.136c-1.16.857-2.263 1.672-3.589 2.268-2.681-2.748-5.86-4.273-9.343-5.752-4.805-1.635-10.961-1.239-15.595.659-.79.324-1.588.632-2.397.904l-.76-.381.903-.761zm-10.773 25.895c-.606-6.625.468-12.439 4.651-17.739 3.55-4.147 8.53-7.345 14.047-7.854 7.609-.433 13.128 1.774 18.888 6.695l1.139 1c3.501-3.911 7.678-6.7 12.908-7.617 6.614-.584 12.389.461 17.685 4.666 4.316 3.717 7.314 8.741 7.83 14.488.363 6.469-.859 11.722-5.204 16.738-.655.7-1.305 1.401-1.933 2.127a76.185 76.185 0 01-4.316 4.632l-.751.736c-1.273 1.246-2.547 2.492-3.729 3.827a79.395 79.395 0 01-4.387 4.712l-.453.446c-1.702 1.675-3.399 3.344-4.959 5.158a60.321 60.321 0 01-3.387 3.602c-1.893 1.861-3.756 3.729-5.508 5.724-1.269 1.488-2.679 2.726-4.176 3.975-.677-.671-1.354-1.344-2.03-2.017l-.841-.839c-1.568-1.554-3.114-3.108-4.555-4.784-1.312-1.529-2.717-2.944-4.153-4.355l-.16-.157c-1.145-1.124-2.287-2.246-3.351-3.449-1.603-1.867-3.278-3.618-5.032-5.343-1.525-1.501-3.021-3.004-4.419-4.625a42.385 42.385 0 00-2.385-2.592c-3.564-3.461-7.218-7.045-9.44-11.553l-.46-1.033c-.709-1.509-1.202-2.928-1.52-4.569zm-85.802-5.332c0-5.341 4.162-11.645 7.675-15.362.353-.418.487-.577.654-.627.103-.031.217-.021.403-.005.467.876.868 1.546 1.518 2.285 1.946 1.427 3.79 2.026 6.194 2.071 3.11-.071 4.85-1.367 7.023-3.499l.83-.857a23.898 23.898 0 002.279 2.666c2.059 1.625 4.226 1.757 6.784 1.67 2.219-.275 3.65-1 5.104-2.693.285-.479.431-.725.643-.883.225-.168.523-.237 1.136-.379.414.571.837 1.138 1.294 1.675 1.81 1.825 3.655 2.23 6.18 2.276 3.256-.039 4.978-1.235 7.262-3.475l.83-.857a23.725 23.725 0 002.278 2.666c2.056 1.59 4.057 1.676 6.592 1.614 2.441-.221 4.53-1.645 6.127-3.447l.569-.833c2.563 2.822 4.545 5.818 6.05 9.329l.357.858c.816 1.946 1.351 3.702 1.566 5.807-1.7-.117-2.779-.243-4.295-1.047-1.88-1.578-2.325-3.169-2.793-5.505l-.126-.683H74.36c.19 1.522-.018 2.521-.76 3.832-1.3 1.905-2.817 3.139-5.108 3.585-2.089.122-3.563-.295-5.26-1.522-1.493-1.312-2.188-2.566-2.445-4.515l-.095-1.38h-1.898a28.47 28.47 0 01-.18 2.197c-.408 1.741-1.356 2.965-2.778 4.019-2.224 1.269-4.302 1.3-6.77.829-1.996-1.264-3.53-3.012-4.105-5.331l-.214-1.333h-1.519c-.19 1.084-.383 2.02-.759 3.046-1.145 1.812-2.502 3.122-4.556 3.808-2.439.365-4.46-.045-6.454-1.523-1.316-1.294-1.967-2.521-2.207-4.355l-.07-1.357h-1.9c-.112 1.643-.246 2.775-.972 4.26-1.392 1.611-2.779 2.781-4.924 3.133-2.31.077-3.96-.296-5.743-1.849-1.495-1.527-1.919-2.764-2.025-4.888l-.003-.656h-1.898c0 1.931-.566 3.483-1.77 4.967-1.813 1.756-3.315 2.309-5.823 2.268zm7.974-2.136l.378-.529.76.761c.18.398.269.594.365.787.094.188.195.372.394.737l1.139.38c1.834 1.104 3.208 1.637 5.386 1.666 3.145-.041 4.872-1.318 7.071-3.475l.83-.856c.505.682 1.03 1.33 1.588 1.971 1.777 1.786 3.538 2.309 6.03 2.384 2.503-.095 4.075-.509 5.932-2.285.794-.839 1.345-1.26 2.396-1.69.21.336.336.536.476.726.208.281.448.539 1.043 1.179 1.926 1.326 3.679 2.024 6.027 2.046 3.14-.119 5.037-1.298 7.237-3.498l.783-.833c1.252 1.693 2.483 3.071 4.427 3.939 2.255.634 4.787.641 6.963-.274l1.139-.619c.508-.248 1.016-.5 1.518-.761v-.762c.491-.523.997-1.032 1.519-1.523 2.205 2.949 4.329 3.895 7.912 4.456l.82.113c.747 3.848.843 7.52.76 11.425l-.535.023c-1.684.077-3.302.152-4.78-.785-1.922-1.724-2.935-3.268-3.345-5.831l-.073-.643H74.36c.095 2.095-.262 3.041-1.376 4.76-1.334 1.409-2.79 2.254-4.704 2.623-2.023.116-3.678-.485-5.31-1.671-1.317-1.291-1.967-2.522-2.206-4.355l-.072-1.357h-1.898c.043.781.063 1.159 0 1.522-.059.342-.192.672-.45 1.311-1.12 2.207-2.545 3.536-4.865 4.403-1.768.223-3.368.125-4.935-.762-2.213-1.414-3.017-2.797-3.641-5.34l-.156-.753-1.898-.381c-.029 1.17-.13 2.284-.38 3.428-1.221 1.967-2.757 3.105-4.936 3.808-2.615.332-4.373-.328-6.454-1.904-1.08-1.29-1.591-2.302-1.803-3.951l-.095-1.381h-1.898c-.09 1.71-.226 3.021-1.163 4.475-1.291 1.626-2.915 2.606-4.983 2.865-2.34.043-3.797-.579-5.623-2.008-1.144-1.402-1.855-2.559-2.017-4.38l.118-.952h-1.898c-.298 2.275-.815 3.873-2.419 5.544-1.984 1.762-3.79 1.844-6.313 1.692-.334-1.594-.404-3.043-.315-4.657l.054-.841c.102-2.093.377-3.929 1.02-5.927l1.305-.095c3.034-.398 5.172-1.516 7.05-3.945zm82.004 35.648c-5.894-8.941-8.292-19.863-6.454-30.465h.38c.768 5.586 2.72 10.373 6.396 14.697l.817.916a96.008 96.008 0 005.695 6.093l.275.27c1.173 1.154 2.345 2.305 3.437 3.538 1.599 1.863 3.27 3.61 5.02 5.331 1.511 1.487 2.995 2.974 4.378 4.582a61.228 61.228 0 003.441 3.656c1.961 1.929 3.909 3.855 5.685 5.96.398.479.8.954 1.205 1.428.54.629 1.078 1.26 1.616 1.892a31.838 31.838 0 01-3.796 0c-9.189-1.309-18.409-6.032-24.379-13.242l-.679-.848a57.15 57.15 0 01-3.037-3.808zm74.412-26.847l.38-1.333h.38l.036 1.496c.111 4.311.221 8.625-.809 12.839l-.366 1.278c-.694 2.539-1.522 4.96-2.647 7.336-4.927 9.933-13.33 17.735-23.858 21.368-.269.087-.565.186-.885.293-3.029 1.015-8.096 2.711-10.576 1.468l.737-.726.995-.988c.921-.91 1.822-1.816 2.673-2.791a81.169 81.169 0 014.921-5.236c1.691-1.663 3.376-3.32 4.923-5.123 1.138-1.326 2.34-2.566 3.58-3.796l.74-.725c1.28-1.253 2.561-2.507 3.75-3.849a70.768 70.768 0 014.161-4.463c5.249-5.141 9.469-9.972 11.865-17.048zm-156.773 5.021l.735-1.023h.38l.511.626c.447.567.908 1.122 1.381 1.666 1.663 1.639 3.476 1.951 5.749 2.016 3.161-.112 4.871-1.271 7.094-3.451l.83-.857c.602.865 1.146 1.558 1.899 2.285 2.498 1.744 4.956 2.438 7.973 1.904 1.934-.644 3.617-1.407 4.745-3.166l.57-1.023h.76c.474.852.886 1.551 1.518 2.285 1.905 1.377 3.702 2.022 6.05 2.047 2.884-.108 5.217-1.467 7.238-3.499l.76-.833a18.965 18.965 0 002.277 2.666c1.98 1.312 3.94 1.761 6.297 1.64 2.88-.369 4.317-1.418 6.137-3.68l.474-.626c2.44 2.766 4.994 4.021 8.615 4.483l.877.087c-.35 2.816-.526 4.228-.856 5.604-.332 1.386-.82 2.734-1.802 5.439-1.21 0-1.64-.156-2.657-.761-1.799-1.558-2.556-3.108-2.952-5.437l-.086-.656H74.36c.095 2.095-.262 3.041-1.376 4.76-1.334 1.408-2.79 2.254-4.704 2.622-2.023.116-3.678-.485-5.31-1.67-1.317-1.292-1.967-2.522-2.206-4.356l-.072-1.356h-1.898c0 2.057-.526 3.215-1.78 4.807-1.493 1.669-3.017 2.332-5.244 2.571-1.832-.197-3.209-.639-4.646-1.834-1.476-1.523-1.89-2.782-1.995-4.888l-.002-.656h-2.278c-.045 1.826-.185 3.113-1.163 4.688-1.722 1.581-3.23 2.47-5.576 2.666l-1.234-.119c-.395-.016-.594-.024-.783-.071-.19-.048-.372-.135-.736-.31-2.093-1.531-3.57-3.021-4.081-5.664l-.095-1.19h-1.898c-.09 1.71-.226 3.02-1.163 4.474-1.291 1.626-2.915 2.606-4.983 2.865-2.34.043-3.797-.579-5.623-2.008-1.144-1.401-1.855-2.559-2.017-4.379l.118-.952h-1.898c-.192 1.163-.425 2.296-.76 3.427-.98 1.58-2.167 2.542-3.796 3.427-.394.01-.594.015-.782-.031-.192-.047-.372-.147-.737-.35C3.762 225 3.762 225 2.985 219.495a48.46 48.46 0 001.66-.072c2.765-.283 5.296-1.286 7.096-3.475zm0 13.329l.735-1.024h.38l.415.53a18.824 18.824 0 001.863 2.136c1.956 1.3 3.936 1.78 6.27 1.668 2.767-.424 4.562-1.607 6.26-3.804l.378-.53c.767.798 1.558 1.56 2.373 2.309 2.068 1.461 4.117 2.098 6.653 1.984 2.387-.294 3.777-.995 5.354-2.841.382-.494.774-.982 1.186-1.452h.76l.548.627c.438.566.89 1.121 1.356 1.666 1.6 1.602 3.388 1.948 5.593 1.992 2.948-.064 5.24-1.377 7.309-3.452l.76-.833c.601.866 1.143 1.559 1.897 2.285 2.098 1.441 4.108 2.215 6.664 2.062 2.758-.468 4.543-1.614 6.246-3.817l.378-.53c1.444 1.642 3.047 2.661 4.931 3.756l.764.433c-.835 2.512-2.456 4.864-4.176 6.855l-.38-2.285H74.36c.105 1.193-.007 1.922-.45 3.047-1.326 2.199-2.774 3.445-5.245 4.188-2.385.107-4.159-.51-6.074-1.904-1.105-1.282-1.588-2.296-1.804-3.951l-.095-1.38h-1.898c0 1.87-.379 2.869-1.424 4.403-1.414 1.537-2.72 2.476-4.793 2.809-2.14.14-3.797-.315-5.475-1.669-1.47-1.51-1.868-2.798-1.972-4.887l-.003-.656h-2.278c.09 1.271.024 2.213-.38 3.427-1.207 1.817-2.628 3.123-4.772 3.682-1.739.221-3.175.294-4.72-.635-2.014-1.38-3.232-2.853-3.701-5.284l-.095-1.19h-1.898c.043.386.067.598.071.81.005.259-.018.519-.071 1.094-.897 2.272-2.154 3.668-4.248 4.903-2.201.652-4.139.451-6.288-.333-1.691-1.508-3.034-3.259-3.274-5.546l.142-.928h-1.898c0 1.183-.205 1.658-.76 2.666a48.094 48.094 0 01-4.176-7.236l.34-.149c1.746-.764 3.395-1.486 4.62-3.016zm15.732 12.947l.57-1.023c.734.983 1.48 1.869 2.372 2.713 2.302 1.575 4.357 2.041 7.118 1.857 2.11-.312 3.686-1.299 5.03-2.928.282-.376.412-.551.552-.718.122-.145.252-.284.493-.543h.76c.168.339.28.564.422.769.28.408.673.737 1.846 1.719 2.38 1.729 4.76 1.954 7.626 1.605 1.95-.757 3.296-1.53 4.508-3.236l.783-1.238.76.762c.476.686.653.942.845 1.187.114.146.233.288.423.514 2.278 2.108 5.167 2.265 8.12 2.16l.862-.053-.38.761a41.68 41.68 0 01-27.498 9.616c-9.22-.648-19.617-3.679-26.033-10.758 2.01.403 4.04.619 6.072.239 1.915-.601 3.634-1.72 4.749-3.405zM226.226.148h-18.983v.761h-1.518c-7.362 1.477-16.035 6.732-20.687 12.601l-.574.728c-4.67 5.311-7.782 11.282-9.588 18.117-2.802 11.631-.736 23.645 5.345 33.877 6.107 9.946 15.918 16.63 27.156 19.372l1.005.226c-9.419 2.086-18.362 6.43-24.677 13.93l-.76.922c-4.292 4.687-7.182 10.684-8.834 16.798-2.793 11.397-1.318 23.394 4.63 33.549 6.263 10.467 16.03 17.254 27.796 20.217l1.086.267v.38c-3.187.85-6.347 1.731-9.349 3.118-10.126 4.866-18.355 13.574-22.175 24.231-3.959 11.762-3.367 23.979 2.047 35.166 5.266 10.394 14.629 17.974 25.55 21.743 10.71 3.153 22.481 2.304 32.444-2.779 11.645-6.207 18.691-16.167 22.541-28.664l.195-.644c1.776 7.91 5.74 15.77 11.696 21.345l.833.743c7.431 6.885 16.724 11.164 26.884 11.757 11.613.467 22.968-2.99 31.65-10.936 8.184-7.781 13.757-18.253 14.072-29.687.159-11.632-2.493-23.025-10.73-31.685l-.752-.76-.925-.976-.973-.928c-2.129-2.05-4.272-3.894-6.804-5.427l-1.169-.666c-4.286-2.466-8.633-3.935-13.411-5.17l-.636-.161c3.77-.651 7.589-2.01 10.995-3.741 11.202-6.002 18.681-15.347 22.415-27.486 3.175-10.841 1.178-23.057-4.087-32.863-6.183-11.122-15.987-17.623-27.972-21.2l-1.351-.393c6.865-1.538 12.828-3.919 18.603-7.997 8.905-6.824 14.839-16.989 16.658-28.013 1.66-11.275-.786-23.157-7.604-32.394l-.701-.903c-1.644-2.137-3.258-4.228-5.367-5.92l-.708-.554c-3.217-2.688-6.429-5.095-10.288-6.772l-.817-.345a43.887 43.887 0 00-2.347-.929l-.975-.332c-4.367-1.528-8.396-1.73-12.995-1.66-.74.012-1.48.02-2.219.024-.734.003-1.467.007-2.2.013l-1.049.009c-5.75.05-11.17 1.83-16.176 4.655l-.669.386c-10.404 6.007-16.717 15.496-20.419 26.742l-.462 1.438c-.5-2.081-1.05-4.139-1.833-6.133-4.627-10.903-12.591-19.807-23.631-24.355l-.898-.357c-1.649-.657-3.206-1.18-4.973-1.405L226.226.91V.148zm-27.454 8.044a85.099 85.099 0 01-1.779-1.19c10.25-9.375 30.308-6.222 41.004.399l1.137.744c4.585 2.845 9.447 7.216 11.77 12.186-.464.284-.714.437-.974.571-.303.157-.619.288-1.304.571-1.992.214-3.257-.044-4.936-1.142-1.764-1.482-2.109-2.913-2.491-5.141-.11-.744-.163-1.11-.233-1.473-.068-.35-.15-.699-.313-1.383-1.167-2.054-2.338-3.36-4.556-4.19-2.345-.363-4.568-.402-6.668.81-1.969 1.497-2.808 2.996-3.203 5.427-.166 1.037-.342 2.02-.655 3.022-.899 2.069-2.199 3.217-4.28 4.07-1.937.312-3.257-.145-4.976-.967-1.468-1.135-2.144-2.446-2.569-4.233a50.194 50.194 0 00-.808-4.32c-.775-1.604-2.171-2.715-3.733-3.548-2.055-.65-4.487-.558-6.518.12l-.894.474c-.502.2-.757.301-1.006.288-.256-.014-.506-.15-1.014-.425l-1.001-.67zm87.714 2.63c-2.669-.188-5.671-1-7.488-3.058 6.095-3.584 13.287-6.656 20.501-6.093-.461 1.327-.693 1.994-1.022 2.61-.333.623-.765 1.193-1.635 2.34-2.664 2.672-6.62 4.15-10.356 4.201zm23.193-1.535c-3.004-1.642-5.323-4.357-6.383-7.616 7.243-.278 13.954 2.498 20.122 6.093v.762c-1.01.573-1.97 1.075-3.038 1.523-3.691 1.13-7.174.777-10.701-.762zm-8.756-5.651l.475-.823c.56.655.841.983 1.092 1.333.253.352.477.726.925 1.476.331.554.496.83.672 1.099.174.266.359.526.728 1.043 2.76 2.477 5.827 3.96 9.484 4.483l.766.087c-.227 3.136-1.103 5.618-3.108 8.068-2.874 3.08-6.329 4.863-10.559 5.022-3.509-.127-6.795-1.352-9.36-3.784-2.532-2.793-3.841-5.515-3.928-9.306.911-.13 1.809-.292 2.711-.476 4.697-1.236 7.655-4.152 10.102-8.222zm-125.259 42.58c-.36-11.483 2.691-22.634 10.663-31.185a62.66 62.66 0 001.357-1.416c2.843-3.025 6.318-6.721 10.136-4.398 10.283 6.719 16.228 16.496 19.101 28.337l.387 1.578c.344 1.39.687 2.78 1.026 4.17.351 1.438.704 2.874 1.059 4.31.763 3.091 1.521 6.183 2.277 9.277l-6.454.38c-.395 2.133-.895 3.922-1.906 5.838l-.443.803c-1.335 2.477-2.778 4.828-4.485 7.069-1.87-.247-3.389-.58-4.864-1.81-1.991-1.922-2.879-3.52-3.079-6.28l-.029-.67h-1.899c.231 1.653.515 3.23 1.166 4.771 1.559 2.956 3.352 4.063 6.423 5.232l.764.28c-1.885 2.836-5.408 5.988-8.614 7.259-.44.02-.669.032-.879-.024-.227-.06-.433-.197-.86-.48l-1.037-.662c-1.944-1.224-3.854-2.486-5.59-3.997-7.97-7.362-13.572-17.399-14.22-28.382zm92.158-27.718c1.172-1.621 2.376-3.157 3.773-4.593.227-.217.508-.51.827-.844 1.648-1.722 4.322-4.517 6.002-3.397 2.022 1.472 4.004 1.985 6.435 2.487l.973.183c.043 1.14.042 2.127-.252 3.234-1.684 4.188-4.083 7.14-8.296 8.99-4.327 1.46-7.941.704-11.953-1.18.44-1.593 1.053-2.856 2.002-4.208l.489-.672zm-64.59-7.225l-.545-.463c.825-.725 1.347-1.116 2.444-1.28l.973.019c1.356.006 2.257.164 3.417.88 1.288 1.261 1.956 2.158 2.326 3.928.33 1.807.74 3.52 1.471 5.212.981 1.725 2.246 2.654 4.106 3.25 2.109.45 4.224.486 6.144-.584 1.844-1.263 3.185-2.619 3.626-4.878.034-.235.066-.469.098-.703.167-1.23.333-2.45.742-3.632.886-1.736 2.067-2.753 3.887-3.354 2.124-.327 3.923-.15 5.695 1.143 1.277 1.48 1.97 2.877 2.159 4.831.036.548.076 1.095.119 1.642.634 2.28 2.05 3.945 4.081 5.094 2.304 1.038 4.423.912 6.763.047l1.305-.571.511.753.651 1.008c.782 1.184 1.143 1.744 1.015 3.175l-.279 1.157-.044.338c-.254 1.953-.489 3.762-1.356 5.564-1.055 1.145-2.068 1.97-3.536 2.476-1.838.249-3.323.213-4.935-.762-1.636-1.347-2.388-2.668-2.729-4.76-.174-1.25-.341-2.395-.807-3.57-1.235-2.294-2.719-3.463-5.196-4.237-2.255-.303-4.188-.14-6.17 1.03-2.222 1.652-2.701 3.438-3.156 6.063-.384 2.62-1.093 3.875-3.084 5.593-1.619.827-2.895.786-4.675.643-2.27-10.144-7.158-18.272-15.021-25.052zm113.732 1.06c2.121-.303 3.931-.756 5.837-1.76 1.304-.738 1.71-.905 3.274-.905 4.581 2.861 8.982 8.54 11.39 13.328l-.38.762c-1.47.675-2.987 1.136-4.556 1.523-3.775.358-6.945-.455-10.108-2.57-3.202-3.043-5.132-5.892-5.457-10.377zm-2.593 7.407c.474-.825.946-1.65 1.454-2.456h.379c.47 1.056.945 2.047 1.519 3.047 2.708 3.876 6.302 5.434 10.74 6.601l1.029.253c0 2.37-.617 4.051-1.756 6.093-2.134 3.391-4.982 5.465-8.874 6.474-4.711.405-8.289-.212-12.007-3.237-2.662-2.476-4.179-5.698-4.318-9.33 4.842-1.141 8.894-2.688 11.643-7.112l.191-.333zm-28.753-.361c.307-.581.626-1.157.973-1.714h.759c.376.838.79 1.64 1.236 2.443 2.755 4.092 6.554 5.805 11.163 6.881l.889.196c-.377 1.849-.766 3.69-1.503 5.431-1.833 3.213-4.814 5.804-8.336 6.916-4.364.821-7.996.183-11.801-2.065-3.465-2.741-4.827-6.034-5.695-10.282.8-.144 1.6-.296 2.392-.477 4.308-1.195 7.65-3.435 9.923-7.33zm-58.064 11.37c.254-1.478.447-2.6 1.235-3.897 2.381-2.256 4.984-3.443 8.067-1.57 2.012 1.68 2.549 3.317 2.904 5.87.159 1.17.429 2.183.893 3.269 1.122 1.818 2.538 2.81 4.556 3.427 2.382.235 4.322.192 6.43-1.023 2.266-1.717 2.866-3.512 3.328-6.221l.113-.753h.759c.182.633.363 1.266.54 1.9l.219.79c.566 1.951.845 3.63.76 5.688l-.76.38c-1.825 1.676-2.434 2.912-2.918 5.356a51.45 51.45 0 01-.498 2.642c-.922 2.226-1.976 3.27-4.177 4.189-1.735.31-3.418.16-4.935-.762-1.708-1.302-2.358-2.647-2.745-4.76l-.1-.617c-.214-1.334-.426-2.654-.955-3.91-1.118-1.712-2.615-2.738-4.553-3.28-2.385-.229-4.318-.193-6.43 1.024-1.954 1.48-2.684 2.85-3.085 5.236-.485 3.066-1.235 4.821-3.773 6.688-.427-.158-.631-.233-.755-.377-.114-.131-.161-.32-.252-.68l-.215-.88-.24-.974-.246-1.04c-.662-2.73-1.283-5.457-1.708-8.235 2.039-.176 3.543-.417 5.315-1.523 2.013-1.644 2.75-3.426 3.221-5.927l.005-.03zm32.817 7.623c-.08-4.672 1.778-9.357 3.821-13.471 1.128.377 2.262.735 3.398 1.09l.849.266 1.677.525 1.289.403c-.171 1.678-.257 2.524-.49 3.328-.236.816-.625 1.589-1.408 3.146-2.087 3.291-5.441 5.1-9.112 6.093l-.024-1.38zm71.211-11.224c1.359-.262 2.71-.522 4.004-1.03l.12-.054c1.025-.465 1.725-.783 2.898-.783 2.016 4.53 3.322 9.11 3.417 14.09-1.732-.391-2.61-.59-3.407-.96-.82-.381-1.556-.944-3.047-2.086-2.489-2.566-3.689-5.646-4.177-9.14l.192-.037zm-1.876 5.892l.545-1.285h.38l.427.952c2.423 4.537 5.569 6.906 10.383 8.626l.959.323c.009.274.021.55.032.829.103 2.473.21 5.074-1.326 7.12-2.66 2.825-5.987 4.739-9.891 5.08-3.862.058-7.522-1.302-10.407-3.937-2.277-2.525-3.714-5.695-3.844-9.092a28.248 28.248 0 003.796-.761c4.048-1.503 6.976-3.972 8.946-7.855zm-58.538.833c.324-.583.654-1.164.996-1.737h.38l.512.822.651 1.106c2.793 4.448 6.247 6.232 11.235 7.396l.89.196c.123 3.409-1.256 6.148-3.401 8.744-2.589 2.592-6.271 4.2-9.935 4.323-4.032-.326-7.396-1.668-10.203-4.641-2.245-2.694-2.4-5.036-2.278-8.426l1.044-.238c4.509-1.314 7.714-3.529 10.109-7.545zm28.925.357c.43-.7.863-1.4 1.305-2.094h.379c.579 1.18 1.2 2.314 1.899 3.427 2.723 3.453 6.215 5.071 10.443 5.924l.946.17c-.278 3.204-1.306 6.17-3.54 8.533l-.636.606c-2.485 2.367-5.454 3.413-8.818 3.94-3.631.172-7.034-1.286-9.785-3.56-2.672-2.68-3.996-5.775-4.176-9.52l.878-.095c4.909-1.002 8.316-3.11 11.105-7.33zm-72.8 11.73c.2-1.49.395-2.937 1.092-4.304 2.09-2.719 5.386-3.768 8.471-1.904 1.637 1.347 2.388 2.668 2.729 4.76.174 1.25.341 2.395.807 3.57 1.127 2.095 2.572 3.445 4.817 4.237 2.386.189 4.316.194 6.43-1.024 2.23-1.688 2.818-3.406 3.282-6.061.41-2.358 1.105-3.45 2.816-5.101.008.91.014 1.82.019 2.731l.005 1.125.003.304c.016 1.697.031 3.374-.179 5.063l-.227 1.059c-1.838 8.937-6.063 17.788-13.208 23.708l-.839.664c-7.414 5.978-15.701 9.505-25.246 9.632l-1.425.007c-3.798.018-7.363-.235-11.01-1.345l-1.424-.488c-1.376-.458-2.577-.898-3.796-1.713 6.447-4.596 11.135-10.47 14.506-17.598.542-1.126.812-1.69 1.087-2.25.275-.562.553-1.121 1.111-2.24h6.834l-1.519-6.473 1.139-.762c1.827-1.315 3.179-2.59 3.626-4.877.035-.241.067-.481.099-.72zm58.729 1.956l.569-1.31h.38l.359.56.448.774c2.952 4.775 6.471 6.905 11.831 8.315l1.029.253c-.327 2.206-.862 4.114-1.898 6.093-2.333 3.198-5.252 5.477-9.112 6.474-3.736.295-6.655.025-9.871-1.904-3.859-2.792-5.563-6.03-6.454-10.663a47.874 47.874 0 004.176-1.143c3.922-1.536 6.615-3.656 8.543-7.45zm29.411-.583l.392-.726c.401.37.599.55.758.76.155.204.275.433.51.885 2.664 4.691 6.202 6.557 11.217 7.946l1.182.31c0 2.782-1.14 5.346-2.739 7.577-2.482 2.931-5.706 4.752-9.54 5.107-4.195.082-7.624-.938-10.803-3.772-2.313-2.53-3.684-5.493-3.873-8.912.618-.145 1.235-.298 1.851-.453 5.224-1.453 8.376-3.994 11.045-8.722zm-56.948 5.676l.391-1.452h.38c1.126 5.095 2.913 9.649 5.544 14.138 6.282 10.377 16.065 16.552 27.614 19.418l1.391.336v.381c-8.385 1.895-17.201 5.354-23.204 11.779l-.715.788c-5.147 5.314-8.404 11.116-10.535 18.207-.147.519-.295 1.037-.445 1.555-.149.677-.216.98-.398 1.172-.147.156-.37.24-.771.391-.864-4.845-2.858-9.471-5.315-13.709-6.358-10.374-16.268-16.638-27.869-19.48l-1.364-.322v-.38c5.054-.943 9.919-2.454 14.427-4.951 10.834-6.216 17.551-15.961 20.869-27.87zm7.984 12.257c-2.468-4.36-4.559-8.699-5.315-13.709l1.139.762c2.391 2.157 4.85 2.98 7.89 3.853l1.222.336c0 3.114-1.4 5.795-3.24 8.24-.253.287-.393.447-.57.525-.221.098-.499.066-1.126-.007zm73.879-12.514l.534-.433.379.761c-1.035 4.398-3.125 8.277-5.315 12.186l-.885-.663c-2.477-2.102-3.235-4.97-3.671-8.095l.07-.02c3.214-.894 6.167-1.715 8.888-3.736zm-68.519 9.065l.335-.74c.395.368.593.552.759.762.168.211.304.448.576.924l.658 1.1c2.585 4.09 6.161 5.882 10.798 6.933l.877.183c.016 1.174.017 2.205-.237 3.356l-.039.089c-.757 1.761-1.72 4.002-3.463 4.922-1.1-.295-1.662-.446-2.172-.702-.533-.268-1.008-.651-1.98-1.436l-1.221-.898c-3.433-2.51-6.065-5.477-8.732-8.759 1.083-1.2 2.098-2.357 2.916-3.759l.454-.977.471-.998zm28.525 1.022c.338-.593.683-1.182 1.044-1.761h.379a33.318 33.318 0 001.899 3.808c2.746 3.548 6.266 4.936 10.526 5.91l.863.183c0 3.004-1.295 5.535-3.056 7.898-2.473 2.874-5.722 4.586-9.472 5.002-3.601.188-6.805-.65-9.615-2.965-3.052-2.87-4.61-5.737-4.812-9.935.637-.103 1.268-.24 1.898-.381 4.752-1.258 7.826-3.527 10.346-7.76zm29.519-.952l.378-.81a63.05 63.05 0 011.722 2.369l.58.868c.706 1.052 1.332 2.092 1.875 3.237-3.774 4.896-8.073 8.516-13.288 11.805-.734-.238-.734-.238-1.519-.761-1.555-2.375-2.549-4.776-2.657-7.616a76.75 76.75 0 004.555-1.143c3.948-1.415 6.51-4.26 8.354-7.95zM315.42 76.37l.405-.823c.456.688.904 1.382 1.331 2.087l.614 1.031 1.092 1.833c-.625.267-1.249.532-1.876.793l-.782.326c-2.046.879-3.85 1.35-6.074 1.547l.759-.762c2.021-1.792 3.293-3.624 4.531-6.032zm-29.541.962l.712-1.404h.759c1.276 2.866 2.905 5.008 5.292 7.045l.783.571c-3.239-.436-6.101-1.407-9.112-2.665.362-.934.735-1.852 1.166-2.757l.4-.79zm-110.906 48.102c-.423-8.061 4.224-17.106 9.111-23.23 9.394-10.686 21.913-15.894 36.068-14.852 10.229 1.158 19.791 6.014 26.519 13.858l.816.994c2.882 3.477 6.197 7.962 6.833 12.567l-1.138.761-.568.377c-2.266 1.503-4.518 2.997-6.388 4.998l-.638.718-1.755 1.952a76.16 76.16 0 01-3.56 3.761c-2.002-2.765-3.989-5.346-6.599-7.572l-.994-.806c-8.698-7.17-18.887-9.722-29.923-9.077-9.428.888-19.154 5.575-25.257 12.891-.79.949-1.643 1.8-2.527 2.66zm106.561-33.681l1.261-.593c12.34-5.81 27.227-5.33 38.868 2.007l.995.66c4.214 2.632 7.699 6.159 10.709 10.106l.681.937c6.351 8.672 7.935 18.796 7.213 29.322-1.258 9.876-6.144 19.182-13.646 25.683l-1.16.974c-1.674 1.407-3.369 2.728-5.256 3.839-10.213 5.688-21.543 7.117-32.781 3.896-10.978-3.524-19.478-10.938-24.978-21.071-5.113-9.95-5.442-21.596-2.238-32.171 3.584-10.108 10.72-18.734 20.332-23.59zm-80.935 24.85a46.199 46.199 0 01-1.708-4.498c2.027-.356 4.057-.695 6.114-.804 10.023-.272 19.912 2.649 27.355 9.642l.7.682c.949.905 1.844 1.848 2.745 2.8l.933 1.009c1.116 1.204 1.956 2.204 2.396 3.808-.249.561-.356.802-.496 1.021a6.484 6.484 0 01-.45.585l-.572.678c-3.287 4.019-7.128 7.547-11.692 10.046l-1.217.617c-8.79 4.498-18.13 5.361-27.714 3.047l.759-1.143c1.141-1.49 2.078-2.962 2.822-4.694 2.618-7.325 3.04-15.53.025-22.796zm-23.164 8.828c.702-.898 1.514-1.709 3.143-3.339 3.82-3.709 10.428-9.225 16.035-9.225 3.45 3.928 4.355 9.393 4.556 14.471-.007 6.374-1.506 12.527-6.075 17.136-6.089-1.34-12.649-5.869-16.522-10.698-.452-.584-.911-1.162-1.373-1.738a454.24 454.24 0 01-2.226-2.796c1.175-1.945 1.764-2.92 2.462-3.811zm66.017.91c.476-.784 1.146-1.449 2.516-2.812.207-.207.448-.454.717-.731 2.112-2.172 5.955-6.123 8.395-6.123 3.227 5.404 2.34 14.479 1.272 20.407l-.276 1.275c-.125.675-.184.989-.269 1.295-.075.267-.17.527-.348 1.014l-1.139.381c-2.945-1.612-5.529-3.807-7.831-6.238l-.901-.998c-.165-.182-.332-.363-.499-.544-1.058-1.15-2.115-2.298-2.917-3.645.545-1.675.824-2.532 1.28-3.281zm-4.697 6.28c.489-.632.99-1.256 1.518-1.856h.76a41.65 41.65 0 011.146 1.528c2.794 3.955 6.295 7.007 10.386 9.563a27.64 27.64 0 011.755 1.095v.761c-2.397 6.013-5.738 11.113-10.441 15.556-7.901 7.232-18.226 11.48-29.011 11.149l-.791-.048a99.494 99.494 0 01-1.969-.119c-10.3-1.062-20.139-5.827-26.88-13.801l-.764-.931c-4.319-4.921-7.142-10.818-8.661-17.184l-.213-.929-.045-.191c-.368-1.583-.683-2.936-.193-4.545 2.9 3.636 6.355 6.748 10.232 9.302 8.551 5.358 19.365 7.545 29.304 5.453l1.087-.284c9.198-2.401 16.777-7.041 22.78-14.519zm18.674 6.581l.308-1.202h.76c1.284 4.852 2.821 9.362 5.436 13.665 6.655 10.544 16.501 16.766 28.424 19.524l1.448.323v.38c-8.263 1.618-16.506 5.168-22.401 11.367l-.758.819c-4.939 5.164-8.673 11.151-10.583 18.065-.25.97-.511 1.922-.807 2.88l-.759.381c-1.413-5.373-3.188-10.131-6.164-14.831-6.436-9.854-16.216-16.026-27.58-18.441l-1.185-.24v-.38c4.88-1.249 9.597-2.902 13.998-5.386 10.059-5.943 16.852-15.69 19.863-26.924zm-70.687 46.78c.064-.22.217-.414.523-.801 7.271-6.954 16.491-11.583 26.619-12.204 12.13-.462 22.736 3.622 31.713 11.777.747.843 1.101 1.247 1.13 2.371-.787 1.429-2.005 2.473-3.322 3.403-2.035.668-4.133.705-6.169.024-2.01-1.396-3.231-2.846-3.702-5.284l-.095-1.19h-1.898c-.035.575-.055.885-.095 1.191-.046.357-.122.71-.284 1.475-1.022 2.049-2.443 3.351-4.556 4.189-2.299.301-4.151.205-6.051-1.214-1.521-1.324-2.623-2.563-2.776-4.641l.095-1h-2.278c.003.148.008.291.012.431.03.938.056 1.718-.392 2.616-1.279 1.734-2.46 3.121-4.556 3.808-2.252.262-4.188.233-6.074-1.142-1.3-1.362-2.337-2.669-2.61-4.57l-.048-1.143h-1.898c.042.825.061 1.178.001 1.518-.044.254-.132.502-.286.934-1.018 2.093-2.421 3.627-4.651 4.403-2.022.222-3.99.306-5.697-.934l-.804-.684c-.919-.764-1.402-1.25-1.838-2.37-.051-.495-.077-.742-.013-.963zm86.704-2.284c.46-.38.918-.761 1.376-1.143 6.667-5.927 15.486-9.339 24.39-9.602 11.082-.141 21.811 3.242 29.901 11.125l-.76.381-.787-.269c-1.544-.655-3.068-1.181-4.704-1.553-6.641-1.073-12.903.07-18.451 3.988l-.184.136c-1.16.857-2.263 1.672-3.589 2.268-2.681-2.748-5.86-4.273-9.343-5.752-4.805-1.635-10.961-1.239-15.595.659-.79.324-1.588.632-2.397.904l-.759-.381.902-.761zm-10.773 25.895c-.606-6.625.469-12.439 4.651-17.739 3.55-4.147 8.53-7.345 14.047-7.854 7.609-.433 13.128 1.774 18.888 6.695l1.139 1c3.501-3.911 7.678-6.7 12.908-7.617 6.614-.584 12.389.461 17.685 4.666 4.316 3.717 7.314 8.741 7.83 14.488.364 6.469-.859 11.722-5.204 16.738-.655.7-1.305 1.401-1.933 2.127a76.185 76.185 0 01-4.316 4.632l-.751.736c-1.273 1.246-2.547 2.492-3.728 3.827a79.747 79.747 0 01-4.388 4.712l-.453.446c-1.702 1.675-3.399 3.344-4.959 5.158a60.321 60.321 0 01-3.387 3.602c-1.893 1.861-3.756 3.729-5.508 5.724-1.269 1.488-2.679 2.726-4.176 3.975a964.632 964.632 0 01-2.029-2.017l-.842-.839c-1.568-1.554-3.114-3.108-4.554-4.784-1.313-1.529-2.718-2.944-4.154-4.355l-.158-.155c-1.146-1.125-2.288-2.247-3.353-3.451-1.603-1.867-3.278-3.618-5.032-5.343-1.525-1.501-3.021-3.004-4.419-4.625a42.385 42.385 0 00-2.385-2.592c-3.564-3.461-7.218-7.045-9.439-11.553l-.461-1.033c-.709-1.509-1.202-2.928-1.519-4.569zm-85.802-5.332c0-5.341 4.162-11.645 7.675-15.362.353-.418.487-.577.654-.627.103-.031.218-.021.403-.005.467.876.868 1.546 1.519 2.285 1.945 1.427 3.789 2.026 6.193 2.071 3.11-.071 4.85-1.367 7.023-3.499l.831-.857a23.92 23.92 0 002.278 2.666c2.059 1.625 4.226 1.757 6.785 1.67 2.218-.275 3.65-1 5.103-2.693.285-.479.431-.725.643-.883.225-.168.523-.237 1.136-.379.414.571.837 1.138 1.294 1.675 1.81 1.825 3.655 2.23 6.181 2.276 3.255-.039 4.977-1.235 7.261-3.475l.83-.857a23.726 23.726 0 002.278 2.666c2.056 1.59 4.057 1.676 6.592 1.614 2.441-.221 4.53-1.645 6.127-3.447l.569-.833c2.563 2.822 4.545 5.818 6.049 9.329l.358.858c.816 1.946 1.352 3.702 1.566 5.807-1.699-.117-2.779-.243-4.295-1.047-1.88-1.578-2.325-3.169-2.793-5.505l-.126-.683h-1.898c.19 1.522-.018 2.521-.759 3.832-1.302 1.905-2.818 3.139-5.109 3.585-2.089.122-3.563-.295-5.259-1.522-1.494-1.312-2.189-2.566-2.446-4.515l-.095-1.38h-1.898a28.321 28.321 0 01-.181 2.197c-.407 1.741-1.355 2.965-2.777 4.019-2.224 1.269-4.302 1.3-6.77.829-1.996-1.264-3.529-3.012-4.105-5.331l-.214-1.333h-1.519c-.189 1.084-.383 2.02-.759 3.046-1.145 1.812-2.502 3.122-4.556 3.808-2.439.365-4.459-.045-6.454-1.523-1.316-1.294-1.967-2.521-2.207-4.355l-.071-1.357h-1.898c-.113 1.643-.247 2.775-.973 4.26-1.391 1.611-2.779 2.781-4.924 3.133-2.311.077-3.96-.296-5.743-1.849-1.495-1.527-1.919-2.764-2.025-4.888l-.003-.656h-1.898c0 1.931-.566 3.483-1.771 4.967-1.811 1.756-3.314 2.309-5.822 2.268zm7.974-2.136l.378-.529.76.761c.18.398.269.594.365.787.094.188.195.372.394.737l1.139.38c1.834 1.104 3.208 1.637 5.386 1.666 3.145-.041 4.873-1.318 7.071-3.475l.831-.856c.504.682 1.03 1.33 1.587 1.971 1.777 1.786 3.538 2.309 6.03 2.384 2.503-.095 4.075-.509 5.932-2.285.794-.839 1.345-1.26 2.396-1.69.211.336.336.536.476.726.208.281.448.539 1.043 1.179 1.926 1.326 3.679 2.024 6.027 2.046 3.141-.119 5.037-1.298 7.237-3.498l.783-.833c1.252 1.693 2.484 3.071 4.427 3.939 2.255.634 4.787.641 6.963-.274l1.139-.619c.509-.248 1.016-.5 1.518-.761v-.762a34.63 34.63 0 011.519-1.523c2.205 2.949 4.329 3.895 7.912 4.456l.82.113c.747 3.848.843 7.52.759 11.425l-.534.023c-1.684.077-3.302.152-4.781-.785-1.921-1.724-2.934-3.268-3.344-5.831l-.073-.643h-1.898c.095 2.095-.262 3.041-1.376 4.76-1.334 1.409-2.79 2.254-4.704 2.623-2.023.116-3.678-.485-5.31-1.671-1.317-1.291-1.967-2.522-2.206-4.355l-.072-1.357h-1.898c.043.781.063 1.159 0 1.522-.059.342-.192.672-.451 1.311-1.119 2.207-2.544 3.536-4.864 4.403-1.768.223-3.368.125-4.935-.762-2.213-1.414-3.017-2.797-3.641-5.34l-.156-.753-1.898-.381c-.029 1.17-.13 2.284-.38 3.428-1.221 1.967-2.757 3.105-4.935 3.808-2.616.332-4.374-.328-6.455-1.904-1.081-1.29-1.591-2.302-1.803-3.951l-.095-1.381h-1.898c-.09 1.71-.226 3.021-1.163 4.475-1.291 1.626-2.915 2.606-4.983 2.865-2.34.043-3.797-.579-5.623-2.008-1.144-1.402-1.855-2.559-2.017-4.38l.118-.952h-1.898c-.298 2.275-.814 3.873-2.419 5.544-1.984 1.762-3.789 1.844-6.313 1.692-.334-1.594-.404-3.043-.315-4.657l.054-.841c.102-2.093.377-3.929 1.02-5.927l1.305-.095c3.034-.398 5.172-1.516 7.049-3.945zm82.004 35.648c-5.893-8.941-8.292-19.863-6.454-30.465h.38c.768 5.586 2.721 10.373 6.396 14.697l.817.916a96.153 96.153 0 005.695 6.093l.275.27c1.173 1.154 2.345 2.305 3.437 3.538 1.599 1.863 3.27 3.61 5.02 5.331 1.511 1.487 2.995 2.974 4.378 4.582a61.884 61.884 0 003.441 3.656c1.961 1.929 3.909 3.855 5.685 5.96.398.479.8.954 1.205 1.428.54.629 1.078 1.26 1.616 1.892a31.838 31.838 0 01-3.796 0c-9.189-1.309-18.409-6.032-24.378-13.242l-.68-.848a57.307 57.307 0 01-3.037-3.808zm74.412-26.847l.38-1.333h.38l.036 1.496c.111 4.311.221 8.625-.809 12.839l-.366 1.278c-.694 2.539-1.522 4.96-2.647 7.336-4.927 9.933-13.33 17.735-23.858 21.368-.269.087-.565.186-.885.293-3.029 1.015-8.096 2.711-10.576 1.468l.737-.726.995-.988c.921-.91 1.822-1.816 2.673-2.791a81.169 81.169 0 014.447-4.77l.474-.466c1.691-1.663 3.376-3.32 4.923-5.123 1.138-1.326 2.34-2.566 3.58-3.796l.74-.725c1.281-1.253 2.561-2.507 3.75-3.849a70.768 70.768 0 014.161-4.463c5.249-5.141 9.469-9.972 11.865-17.048zm-156.773 5.021l.735-1.023h.38l.512.626a44.97 44.97 0 001.38 1.666c1.663 1.639 3.476 1.951 5.749 2.016 3.161-.112 4.871-1.271 7.094-3.451l.831-.857c.601.865 1.145 1.558 1.898 2.285 2.498 1.744 4.956 2.438 7.973 1.904 1.934-.644 3.617-1.407 4.746-3.166l.569-1.023h.759c.475.852.887 1.551 1.519 2.285 1.905 1.377 3.702 2.022 6.051 2.047 2.883-.108 5.216-1.467 7.237-3.499l.759-.833a18.926 18.926 0 002.278 2.666c1.98 1.312 3.94 1.761 6.297 1.64 2.88-.369 4.317-1.418 6.137-3.68l.474-.626c2.44 2.766 4.994 4.021 8.615 4.483l.877.087c-.35 2.816-.526 4.228-.856 5.604-.332 1.386-.821 2.734-1.802 5.439-1.209 0-1.64-.156-2.657-.761-1.799-1.558-2.556-3.108-2.952-5.437l-.086-.656h-1.898c.095 2.095-.262 3.041-1.376 4.76-1.334 1.408-2.79 2.254-4.704 2.622-2.023.116-3.678-.485-5.31-1.67-1.317-1.292-1.967-2.522-2.206-4.356l-.072-1.356h-1.898c0 2.057-.526 3.215-1.779 4.807-1.494 1.669-3.018 2.332-5.244 2.571-1.833-.197-3.21-.639-4.647-1.834-1.476-1.523-1.889-2.782-1.994-4.888l-.003-.656h-2.278c-.045 1.826-.185 3.113-1.163 4.688-1.722 1.581-3.231 2.47-5.576 2.666l-1.234-.119c-.395-.016-.594-.024-.783-.071-.191-.048-.372-.135-.736-.31-2.093-1.531-3.571-3.021-4.081-5.664l-.095-1.19h-1.898c-.09 1.71-.226 3.02-1.163 4.474-1.291 1.626-2.915 2.606-4.983 2.865-2.34.043-3.797-.579-5.623-2.008-1.144-1.401-1.855-2.559-2.017-4.379l.118-.952h-1.898c-.192 1.163-.425 2.296-.759 3.427-.98 1.58-2.168 2.542-3.797 3.427-.394.01-.594.015-.782-.031-.192-.047-.372-.147-.736-.35-.935-2.562-1.405-3.851-1.737-5.175-.336-1.341-.53-2.717-.921-5.487.554-.013 1.108-.04 1.661-.072 2.764-.283 5.295-1.286 7.095-3.475zm0 13.329l.735-1.024h.38l.415.53a18.828 18.828 0 001.863 2.136c1.956 1.3 3.936 1.78 6.27 1.668 2.767-.424 4.562-1.607 6.26-3.804l.378-.53c.767.798 1.558 1.56 2.373 2.309 2.068 1.461 4.117 2.098 6.653 1.984 2.387-.294 3.777-.995 5.354-2.841.382-.494.774-.982 1.186-1.452h.759l.549.627c.438.566.891 1.121 1.356 1.666 1.6 1.602 3.388 1.948 5.594 1.992 2.947-.064 5.239-1.377 7.308-3.452l.759-.833c.602.866 1.144 1.559 1.898 2.285 2.098 1.441 4.108 2.215 6.664 2.062 2.758-.468 4.543-1.614 6.246-3.817l.378-.53c1.444 1.642 3.047 2.661 4.931 3.756l.764.433c-.834 2.512-2.456 4.864-4.176 6.855l-.38-2.285h-1.898c.105 1.193-.007 1.922-.451 3.047-1.325 2.199-2.773 3.445-5.244 4.188-2.385.107-4.159-.51-6.074-1.904-1.105-1.282-1.588-2.296-1.804-3.951l-.095-1.38h-1.898c0 1.87-.379 2.869-1.423 4.403-1.415 1.537-2.721 2.476-4.794 2.809-2.139.14-3.797-.315-5.475-1.669-1.47-1.51-1.868-2.798-1.972-4.887l-.003-.656h-2.278c.09 1.271.024 2.213-.38 3.427-1.207 1.817-2.628 3.123-4.772 3.682-1.739.221-3.175.294-4.719-.635-2.015-1.38-3.233-2.853-3.702-5.284l-.095-1.19h-1.898c.043.386.067.598.071.81.005.259-.018.519-.071 1.094-.897 2.272-2.154 3.668-4.248 4.903-2.201.652-4.139.451-6.288-.333-1.691-1.508-3.034-3.259-3.274-5.546l.142-.928h-1.898c0 1.183-.205 1.658-.759 2.666a48.076 48.076 0 01-4.176-7.236l.339-.149c1.746-.764 3.395-1.486 4.62-3.016zm15.732 12.947l.569-1.023c.735.983 1.482 1.869 2.373 2.713 2.302 1.575 4.357 2.041 7.119 1.857 2.11-.312 3.685-1.299 5.03-2.928.281-.376.411-.551.552-.718.121-.145.251-.284.492-.543h.759c.169.339.282.564.423.769.28.408.673.737 1.846 1.719 2.381 1.729 4.76 1.954 7.626 1.605 1.95-.757 3.296-1.53 4.508-3.236l.784-1.238.759.762c.476.686.653.942.845 1.187.114.146.233.288.423.514 2.278 2.108 5.167 2.265 8.119 2.16l.864-.053-.38.761a41.68 41.68 0 01-27.498 9.616c-9.221-.648-19.617-3.679-26.033-10.758 2.009.403 4.039.619 6.071.239 1.915-.601 3.634-1.72 4.749-3.405z" fill="#8B734B" fill-opacity=".1"/></svg>