<?xml version="1.0" encoding="utf-8"?>
<!-- Generator: Adobe Illustrator 19.2.1, SVG Export Plug-In . SVG Version: 6.00 Build 0)  -->
<svg version="1.1" id="Слой_1" xmlns="http://www.w3.org/2000/svg" xmlns:xlink="http://www.w3.org/1999/xlink" x="0px" y="0px"
	 width="115px" height="48px" viewBox="0 0 115 48" enable-background="new 0 0 115 48" xml:space="preserve">
<style type="text/css">
	.st0{fill:#1A1A18;}
</style>
<path class="st0" d="M50.8,34.6L50.8,34.6c0.1-0.2,0.2-0.3,0.4-0.4l0.2-0.1c0.2-0.1,0.3-0.1,0.5-0.2c0,0,0,0,0,0c0,0,0,0,0.1,0
	c0.1,0.1,0.3,0.1,0.4,0.2c0.3,0.1,0.7,0.3,1,0.5c0.2,0.1,0.4,0.2,0.5,0.3c0.4,0.2,0.9,0.5,1.1,0.9c0.2,0.3,0.4,0.6,0.6,0.9l0.2,0.2
	l0,0l-0.2,0.4c-0.7,0.3-1.4,0.1-2.1-0.3c-0.3-0.2-0.6-0.3-0.8-0.5c-0.3-0.2-0.7-0.3-1-0.5c-0.1-0.1-0.2-0.1-0.3-0.1
	c-0.3-0.1-0.5-0.3-0.6-0.5C50.6,35.2,50.6,34.9,50.8,34.6 M57.4,38c-0.1-0.2-0.2-0.5-0.3-0.7c-0.2-0.5-0.5-1-0.8-1.5
	c-0.5-0.8-1-1.3-1.5-1.7c-0.4-0.3-0.8-0.5-1.3-0.7c-0.3-0.1-0.5-0.2-0.8-0.4c-0.8-0.4-2.2-0.1-2.9,0.5c-0.4,0.3-0.5,0.8-0.6,1.2
	c0,0.1-0.1,0.2-0.1,0.4c-0.2,0.5,0.3,1.4,0.7,1.6c0.1,0.1,0.2,0.1,0.3,0.2c0.1,0,0.1,0.1,0.2,0.1c0.2,0.1,0.4,0.3,0.6,0.4
	c0.5,0.3,1.1,0.6,1.6,0.9c0.5,0.2,1,0.4,1.5,0.5c0.3,0,0.6,0,0.8,0c0.2,0,0.3,0,0.5-0.1c0.1,0,0.2,0,0.2,0.1c0,0,0,0.1,0,0.2
	c0,0.1,0,2.4,0,2.6c-0.1,0.3-0.2,1.3-0.2,1.6c-0.1,0.7-0.4,1.2-1,1.6c-0.8,0.5-1.6,0.9-2.3,1.1c-0.7,0.2-1.3,0.5-1.9,0.8
	c-0.2,0.1-0.3,0.1-0.5,0.2c-0.1,0.1-0.5,0.3-0.6,0.5c0,0.2,0.1,0.3,0.2,0.5c0,0.1,0.1,0.1,0.1,0.2l0,0.1h0.5l0,0
	c0.2-0.1,0.5-0.2,0.7-0.3c0.5-0.2,1-0.5,1.5-0.6c1.3-0.3,2.4-0.8,3.3-1.6c0.1-0.1,0.2-0.2,0.3-0.3c0.4-0.3,0.9-0.7,1-1.4
	c0,0,0,0,0,0c0,0,0.1-0.1,0.1-0.1c0.1-0.1,0.1-0.2,0.1-0.3c-0.2-0.4,0-1.2,0-1.7c0-0.1,0-0.3,0.1-0.4c0-0.2,0.2-1.6,0.2-1.9
	c0-0.2,0-0.4,0-0.6C57.5,38.6,57.5,38.2,57.4,38z M111,36.7L111,36.7c0.3,0.1,0.6,0.3,0.8,0.5c0,0,0,0.2,0,0.3
	c-0.3,0.2-0.5,0.4-0.7,0.6c-0.7,0.7-1.4,1.3-2.3,1.5c-0.1,0-0.2,0.1-0.3,0.2c-0.1,0.2-0.3,0.3-0.6,0.3c0,0,0,0,0,0
	c0,0,0.1-0.1,0.1-0.1c0.3-0.3,0.5-0.7,0.7-1c0.4-0.6,0.8-1.2,1.3-2c0.2-0.2,0.3-0.4,0.5-0.4C110.7,36.6,110.8,36.6,111,36.7
	 M115,38.8c-0.1-0.1-0.2-0.2-0.3-0.3c-0.2-0.2-0.4-0.5-0.5-0.8c-0.4-1.1-1.3-1.6-2.1-2c-0.1-0.1-0.3-0.1-0.4-0.2
	c-0.1,0-0.1-0.1-0.2-0.1c-0.1,0-0.1-0.1-0.2-0.1c-0.4-0.2-0.8-0.4-1.3-0.2c-0.5,0.2-0.8,0.6-1,1c-0.1,0.2-0.2,0.3-0.4,0.5
	c-0.2,0.2-0.4,0.5-0.6,0.8c-0.3,0.7-0.8,1.3-1.4,1.9c-0.4,0.4-0.9,0.9-1.3,1.4l-0.3,0.3c-0.3,0.3-0.1,0.6,0.1,0.7
	c0,0,0.1,0.1,0.1,0.1c0.1,0.1,0.3,0.2,0.4,0.2c0.1,0,0.1,0,0.2,0c0.2-0.1,0.4-0.1,0.6-0.2c0.1-0.1,0.3-0.1,0.4-0.2
	c0.2-0.1,0.5-0.1,0.7-0.2c0.4-0.1,0.9-0.2,1.3-0.4c0.7-0.3,1.3-0.7,2-1.1c0.5-0.3,0.9-0.6,1.4-1c0.2-0.1,0.4-0.3,0.6-0.4l0.2,0.2
	c0.3,0.3,0.6,0.5,0.9,0.8c0.1,0.1,0.3,0.1,0.4,0c0.2-0.1,0.4-0.2,0.6-0.4L115,39L115,38.8L115,38.8z M13.2,35.6
	c-0.7-0.2-1.3-0.3-1.8-0.2c-0.4,0-0.9,0-1.3,0l0,0c-0.3,0-0.6-0.4-0.6-0.7c0-0.3,0-0.6-0.1-0.8c0-0.5-0.1-1-0.1-1.5
	c-0.2-1.5-0.4-2.9-0.7-4.3c0-0.3-0.2-0.5-0.3-0.7C8,27.1,7.9,27.1,7.7,27c-0.1,0-0.1,0-0.2-0.1l-0.2-0.1l0.1,0.7c0,0-0.1,0-0.1,0
	C7.2,27.7,7,27.8,7,27.9c0,0.7,0,1.2,0,1.7c0.1,0.5,0.2,1.1,0.3,1.6c0.2,0.7,0.4,1.5,0.4,2.2c0,0.3,0,0.7,0,1c0,0.3,0,0.5,0,0.8
	c0,0.1,0,0.2-0.1,0.2l-0.1,0c-0.5,0.2-0.9,0.4-1.4,0.6c-0.3,0.1-0.7,0.2-1,0.3c-0.2,0-0.4,0.1-0.6,0.2c-0.3,0.1-0.6,0.2-1,0.3
	c-0.5,0.1-1,0.3-1.4,0.4c-0.2,0.1-0.5,0.1-0.7,0.1c-0.3,0.1-0.7,0.1-1,0.2C0.3,37.6,0,37.9,0,38.2c0,0.2,0.1,0.3,0.2,0.5
	c0.2,0.2,0.5,0.2,0.7,0.2c0.8-0.2,1.6-0.4,2.4-0.6L8.3,37c0,0,0,0.1,0.1,0.1c0.1,0.1,0.1,0.2,0.1,0.3c0.1,0.5,0.2,1.1,0.3,1.7
	c0,0.2,0,0.3,0,0.5c0,0.3,0,0.6,0.1,0.8c0.1,0.3,0.3,0.5,0.5,0.8c0.1,0.1,0.1,0.1,0.2,0.2c0.1,0.1,0.2,0.2,0.3,0.3l0.1,0
	c0,0,0.1,0,0.1,0.1c0.1,0.1,0.2,0.2,0.3,0.2c0,0,0,0,0,0c0.3-0.1,0.5-0.2,0.5-0.4c0.1-0.2,0.1-0.4,0-0.7c0-0.1-0.1-0.1-0.2-0.2
	c0,0-0.1-0.1-0.1-0.1l-0.1-0.3c-0.1-0.4-0.3-0.8-0.3-1.2c-0.1-0.6-0.2-1.2-0.3-1.8c0-0.2-0.1-0.4-0.1-0.6c0,0,0.1,0,0.1,0
	c0.2,0,0.4,0,0.7,0c0.3-0.1,0.5,0,0.8,0.2l0,0c0.7,0.4,1.2,0.3,1.7-0.4c0.2-0.2,0.2-0.4,0.2-0.5C13.6,35.8,13.5,35.7,13.2,35.6
	 M71,34.6c0-0.1,0-0.4-0.3-0.4c-0.2,0-0.6,0.1-0.7,0.3c-0.2,0.2-0.3,0.5-0.3,0.8c-0.1,0.8-0.2,1.7-0.3,2.5l0,0.2
	c-0.1,0.4-0.1,0.9-0.1,1.3l-0.1,0.5c-0.4,0.1-0.7,0.1-1-0.2c-0.3-0.3-0.6-0.6-0.8-0.8l-0.5-0.6c-0.5-0.6-1.1-1.1-1.6-1.7
	c-0.2-0.2-0.3-0.4-0.4-0.6c-0.1-0.1-0.1-0.2-0.2-0.3c-0.3-0.5-0.6-0.5-0.9-0.5c-0.4,0.1-0.6,0.3-0.6,0.8c0,0.5,0.1,0.9,0.5,1.3
	c0.2,0.2,0.3,0.4,0.5,0.5c0.2,0.3,0.5,0.5,0.7,0.8c0.6,0.6,1.3,1.3,2.2,2.2c0.1,0.1,0.2,0.1,0.2,0.1c0.1,0,0.1,0.1,0.2,0.1
	c0.3,0.3,0.8,0.5,1.2,0.5c0.2,0,0.3,0,0.4-0.1c0.1,0,0.1-0.1,0.2-0.1c0.2-0.1,0.4-0.2,0.6-0.3c0.2-0.2,0.5-0.4,0.5-0.6
	c0.1-0.3,0.1-0.7,0.1-1c0-0.1,0-0.2,0-0.4c0-0.3,0-0.6,0.1-0.9c0-0.7,0.1-1.4,0.2-2.1c0-0.1,0.1-0.2,0.1-0.4
	c0.1-0.2,0.2-0.5,0.1-0.9C71,34.8,71,34.7,71,34.6 M93.7,40.5c0-0.3-0.1-0.5-0.1-0.8c-0.1-0.8-0.3-1.5-0.3-2.3c0-0.1,0-0.2,0-0.3
	c-0.1-0.5-0.1-0.9,0.2-1.3c0.1-0.1,0.1-0.5,0-0.6c-0.2-0.2-0.2-0.5-0.2-0.8c0-0.2,0-0.4-0.1-0.6c-0.1-0.3-0.2-0.6-0.2-0.9
	c0-0.1-0.1-0.3-0.1-0.4c0-0.1-0.1-0.2-0.1-0.3c0-0.2-0.1-0.4-0.1-0.6c0-0.1,0-0.3,0-0.5c0-0.2-0.1-0.4-0.1-0.6
	c-0.1-0.3-0.2-0.5-0.1-0.8c0.1-0.2,0-0.5-0.2-0.6c-0.2-0.1-0.6-0.3-0.8-0.2c-0.3,0.1-0.5,0.4-0.6,0.7c-0.1,0.3,0,0.6,0,0.9l0,0.1
	c0.1,0.9,0.3,1.8,0.4,2.6c0,0.1,0,0.2,0,0.3c0,0.1,0,0.2,0,0.3c0.2,0.6,0.2,1.1,0.2,1.7c0,0.3,0,0.6,0.1,0.8c0,0.1,0.1,0.3,0.1,0.4
	c0,0.1,0,0.2,0,0.3c0,0.1,0,0.2,0,0.3c0,0.1,0,0.3,0.1,0.4c0,0.1,0.1,0.3,0.1,0.4c0,0.1,0,0.2,0,0.3c0,0.1,0,0.3,0,0.4
	c0,0.2,0.1,0.5,0.1,0.7c0,0.1,0,0.1,0,0.2l-0.1,0l0.1,0.5c0.1,0.5,0.2,1,0.3,1.5c0,0,0,0.1,0.4,0.1c0,0,0,0,0,0c0.1,0,0.2,0,0.2-0.1
	c0-0.1,0.1-0.1,0.3-0.1h0c0.3,0,0.4-0.1,0.4-0.2c0.1-0.1,0.1-0.3,0-0.5C93.8,40.8,93.8,40.7,93.7,40.5 M84.1,31.3
	c-0.2,0.1-0.4,0.3-0.6,0.4l-0.1,0.1c-0.3,0.2-0.7,0.5-1,0.7L82,32.6c0,0,0,0-0.1,0c-0.1-0.1-0.2-0.1-0.3-0.1c-0.1,0-0.2,0.1-0.3,0.2
	l0,0c0,0,0,0.1,0,0.1c0,0,0,0,0,0c-0.8,0.7-1.7,1.5-2.5,2.2c-0.5,0.4-0.8,1.3-0.5,1.8c0.2,0.3,0.4,0.6,0.6,0.9
	c0.2,0.2,0.3,0.5,0.5,0.7c0,0.1,0.1,0.2,0,0.3c-0.1,0.2-0.3,0.5-0.5,0.7c-0.1,0.1-0.1,0.2-0.2,0.3L78.3,40l0.2,0.3c0,0,0,0-0.1,0
	c-0.2,0.1-0.3,0.1-0.5,0.2c-0.2,0.2-0.5,0.4-0.6,0.7c0,0.2,0.1,0.4,0.3,0.6c0,0.1,0.1,0.1,0.1,0.2l0.1,0l0,0c0,0,0,0,0,0
	c0.1,0,0.2,0,0.2-0.1c0.4-0.3,0.7-0.6,1.1-0.9c0.2-0.2,0.4-0.3,0.6-0.5l0.3-0.2c0.1,0,0.1-0.1,0.1-0.2c0-0.1,0-0.2,0-0.2
	c-0.1-0.1-0.1-0.1-0.1-0.1c0,0,0.1-0.1,0.1-0.1c0.1,0,0.1-0.1,0.2-0.2c0,0,0.2-0.1,0.2,0c0.2,0,0.4,0.1,0.6-0.1
	c0.1-0.1,0.1-0.4,0-0.6c-0.1-0.3-0.2-0.5-0.4-0.8c-0.1-0.2-0.3-0.3-0.4-0.5c-0.2-0.2-0.3-0.4-0.5-0.7c-0.1-0.1-0.3-0.5-0.3-0.8
	c0-0.1,0.2-0.3,0.4-0.4c0.1-0.1,0.1-0.1,0.2-0.2c0.2-0.2,0.4-0.4,0.6-0.5c0.4-0.3,0.8-0.7,1.1-1.1c0.6-0.7,1.4-1,2.2-1.2
	c0.2-0.1,0.5-0.2,0.7-0.2c0.2-0.1,0.4-0.2,0.5-0.4c0-0.1,0.1-0.3-0.1-0.5C84.9,31.1,84.5,31,84.1,31.3 M28.6,35.2
	c-0.1,0-0.1,0.1-0.2,0.1c-0.3,0.1-0.6,0.2-0.6,0.6c0,0.1-0.1,0.2-0.1,0.4c0,0.1-0.1,0.1-0.1,0.2c-0.1,0.2-0.2,0.4-0.3,0.6
	c-0.2,0.5-0.5,1-0.7,1.5c-0.2,0.5-0.6,0.7-0.9,0.6l-0.2-0.1c-0.7-0.2-1.4-0.4-1.9-1c-0.5-0.6-1-1.1-1.2-1.7
	c-0.1-0.2-0.1-0.3-0.1-0.5c-0.1-0.3-0.2-0.7-0.3-0.9c-0.2-0.3-0.4-0.5-0.7-0.7c-0.1,0-0.1-0.1-0.2-0.1c-0.1,0-0.1,0-0.3,0
	c-0.1,0-0.2,0.1-0.3,0.2l0,0.1c-0.1,0.4-0.1,0.8,0,1.2c0.1,0.4,0.2,0.8,0.3,1.2c0,0.2,0.1,0.3,0.1,0.5c0,0.1,0.1,0.2,0.1,0.3
	c0.1,0.1,0.3,0.3,0.4,0.4c0.2,0.2,0.4,0.4,0.6,0.6c1.1,1.3,2.4,1.9,4.1,1.9h0h0c0.5,0,1-0.4,1.3-0.9c0.2-0.4,0.3-0.7,0.5-1.1
	c0.1-0.2,0.1-0.3,0.2-0.5c0.1-0.1,0.1-0.3,0.2-0.4c0.1-0.3,0.2-0.5,0.4-0.8c0.1-0.4,0.3-0.8,0.4-1.2c0-0.2,0-0.3-0.1-0.4
	C28.9,35.1,28.8,35.1,28.6,35.2 M42.8,38c-0.2-0.5-0.4-1-0.7-1.4c-0.4-0.6-0.9-1.1-1.3-1.5c-0.3-0.3-0.7-0.3-1.1-0.1
	c-0.4,0.3-0.9,0.5-1.3,0.8c-0.7,0.4-1.4,0.8-2,1.3c-0.2,0.2-0.4,0.3-0.6,0.4c-0.2,0.1-0.3,0.2-0.5,0.3c-0.6,0.5-0.7,1.1-0.8,1.8
	l0,0.1c0,0.1,0,0.2,0.4,0.6c0.1,0.1,0.2,0.1,0.3,0.1c0,0,0.1,0,0.1,0c0.1,0,0.2,0.1,0.2,0.1l0.2,0.1l0-0.1c0,0,0-0.1,0-0.1
	c0-0.1,0.1-0.2,0.1-0.3c0-0.1,0-0.3,0.1-0.4c0-0.3,0.1-0.6,0.2-0.8c0.2-0.3,0.4-0.6,0.9-0.9c0.5-0.3,1-0.7,1.6-1
	c0.2-0.1,0.4-0.2,0.6-0.4c0.4-0.3,0.8-0.5,1.2-0.5c0.1,0.1,0.1,0.2,0.2,0.2c0.2,0.2,0.3,0.4,0.5,0.6c0.1,0.1,0.1,0.2,0.2,0.3
	c-0.1,0.1-0.2,0.2-0.2,0.3c0,0.2,0.1,0.3,0.1,0.4c0,0.1,0.1,0.1,0.1,0.2c0,0.1,0.1,0.3,0.1,0.4c0.1,0.2,0.1,0.5,0.2,0.7
	c0,0.3,0.3,0.6,0.6,0.7c0.2,0.1,0.5,0.1,0.6,0c0.2-0.1,0.5-0.4,0.4-0.6C43.2,39,43.1,38.5,42.8,38 M98.9,35.3
	c-0.2,0-0.4,0.1-0.6,0.2c-0.1,0-0.1,0.1-0.2,0.1c-0.3,0.2-0.6,0.3-1,0.5c-0.6,0.3-1.3,0.7-1.9,1c-0.6,0.3-0.7,0.6-0.5,1.3
	c0.1,0.3,0.6,0.6,1,0.5l0.4,1l0.1,0c0.4,0.1,0.7,0.4,1,0.8c0.4,0.5,0.9,0.6,1.4,0.8c0.1,0,0.2,0.1,0.3,0.1c0,0,0,0,0,0
	c0.1,0,0.1,0,0.2-0.1c0,0,0.2-0.2,0.2-0.4l0-0.1c-0.1-0.3-0.2-0.7-0.4-0.9c-0.5-0.5-1-0.9-1.5-1.4c-0.2-0.1-0.3-0.3-0.5-0.4
	c-0.1-0.1-0.3-0.2-0.4-0.3l0,0l1.7-1.1c0.1,0.1,0.1,0.2,0.2,0.2c0.1,0,0.3,0,0.5-0.2c0.1-0.1,0.2-0.2,0.2-0.3
	c0.1-0.1,0.2-0.2,0.3-0.3c0.2-0.1,0.3-0.3,0.3-0.4c0-0.1,0-0.3-0.1-0.4C99.4,35.5,99.1,35.3,98.9,35.3"/>
</svg>
