<?xml version="1.0" encoding="utf-8"?>
<!-- Generator: Adobe Illustrator 19.2.1, SVG Export Plug-In . SVG Version: 6.00 Build 0)  -->
<svg version="1.1" id="Слой_1" xmlns="http://www.w3.org/2000/svg" xmlns:xlink="http://www.w3.org/1999/xlink" x="0px" y="0px"
	 width="115px" height="48px" viewBox="0 0 115 48" enable-background="new 0 0 115 48" xml:space="preserve">
<path fill="#171716" d="M106.526,44.659c0,0.667-1.033,0.667-1.033,0C105.494,43.993,106.526,43.993,106.526,44.659z M6.601,46.362
	c-1.932,0.483-1.841-3.086,0.195-2.454v0.541h0.276v-0.742c-2.922-1.355-2.809,4.431,0.094,2.721l-0.101-0.226
	C6.898,46.272,6.743,46.326,6.601,46.362C6.458,46.397,6.743,46.326,6.601,46.362z M10.096,44.772
	c0.002,0.09,0.003,0.16,0.003,0.211v0.239H8.025c0,1.194,0.923,1.373,1.892,0.961l0.101,0.232c-1.499,0.821-2.725-0.314-2.266-1.907
	C8.146,43.143,10.065,43.272,10.096,44.772z M9.76,44.932c0-1.443-1.612-1.362-1.729,0H9.76z M10.538,44.304h0.282v-0.427h0.767
	v2.507h-0.389v0.277h1.125v-0.277h-0.408v-2.507h0.761v0.427h0.282V43.6h-2.419V44.304z M15.909,45.435
	c0.205,0.66-0.254,1.226-0.924,1.226h-1.207v-2.784h-0.49v-0.277H14.1v1.251h0.836C15.341,44.85,15.781,45.012,15.909,45.435
	C15.943,45.544,15.876,45.326,15.909,45.435z M15.639,45.768c0-0.429-0.324-0.635-0.722-0.635H14.1v1.251h0.886
	C15.361,46.384,15.639,46.156,15.639,45.768z M20.956,44.498c0.242,1.193-0.549,3.011-2.005,1.993v1.2h0.541v0.277h-1.383v-0.277
	h0.497v-3.815H18.09V43.6h0.861v0.314C19.679,43.319,20.753,43.509,20.956,44.498C20.993,44.683,20.918,44.314,20.956,44.498z
	 M20.654,45.064c0-0.97-0.842-1.697-1.703-0.855v1.973C19.948,46.931,20.654,46.032,20.654,45.064z M24.024,44.772
	c0.002,0.09,0.003,0.16,0.003,0.211v0.239h-2.074c0,1.194,0.923,1.373,1.892,0.961l0.101,0.232
	c-1.499,0.821-2.725-0.314-2.266-1.907C22.074,43.143,23.993,43.272,24.024,44.772z M23.688,44.932c0-1.443-1.612-1.362-1.729,0
	H23.688z M26.326,46.362c-1.932,0.484-1.841-3.086,0.195-2.454v0.541h0.276v-0.742c-2.922-1.355-2.809,4.431,0.094,2.721
	l-0.101-0.226C26.623,46.272,26.468,46.326,26.326,46.362C26.183,46.397,26.468,46.326,26.326,46.362z M27.274,44.304h0.282v-0.427
	h0.767v2.507h-0.389v0.277h1.125v-0.277H28.65v-2.507h0.761v0.427h0.282V43.6h-2.419V44.304z M32.56,44.561
	c0.126,0.68,0.086,1.634-0.607,2.004c-0.704,0.376-1.521,0.032-1.765-0.7c-0.221-0.663-0.127-1.671,0.479-2.105
	C31.418,43.223,32.398,43.688,32.56,44.561z M32.262,45.152c0-1.668-1.801-1.646-1.81,0.007
	C30.444,46.756,32.262,46.74,32.262,45.152z M35.88,44.498c0.243,1.193-0.549,3.01-2.005,1.993v1.2h0.541v0.277h-1.383v-0.277h0.497
	v-3.815h-0.515V43.6h0.861v0.314C34.603,43.319,35.677,43.509,35.88,44.498C35.917,44.683,35.842,44.314,35.88,44.498z
	 M35.578,45.064c0-0.971-0.842-1.696-1.703-0.855v1.973C34.872,46.93,35.578,46.032,35.578,45.064z M39.19,46.371l0.025,0.207
	c-0.326,0.155-0.787,0.186-0.798-0.263l-0.013-0.007c-0.502,0.417-1.444,0.653-1.805-0.053c-0.391-0.764,0.3-1.285,1.001-1.323
	l0.817-0.044v-0.251c0-0.963-0.945-0.836-1.635-0.591l-0.094-0.252c0.833-0.382,2.062-0.424,2.062,0.754v1.823H39.19z
	 M38.418,45.158l-0.862,0.044c-0.506,0.027-0.98,0.605-0.544,1.052c0.385,0.395,1.093,0.026,1.405-0.26V45.158z M42.148,43.6h-0.333
	v1.295H40.2V43.6h-0.761v0.276h0.421v2.784h0.333v-1.483h1.621v1.138c0,0.45,0.487,0.411,0.798,0.263v-0.207h-0.466V43.6z
	 M45.468,44.561c0.126,0.679,0.086,1.634-0.606,2.004c-0.704,0.377-1.522,0.032-1.765-0.7c-0.221-0.663-0.127-1.671,0.479-2.105
	C44.326,43.223,45.306,43.688,45.468,44.561z M45.169,45.152c0-1.668-1.801-1.645-1.81,0.007
	C43.352,46.756,45.169,46.74,45.169,45.152z M48.577,45.601c0.117,0.57-0.319,1.059-0.895,1.059H46.06v-0.276h0.326v-2.507h-0.308
	V43.6h1.432c0.774,0,1.463,0.935,0.604,1.446C48.352,45.138,48.526,45.354,48.577,45.601z M46.726,44.926h0.78
	c0.846,0,0.776-1.05-0.051-1.05h-0.729V44.926z M48.254,45.787c0-0.383-0.372-0.572-0.71-0.572h-0.817v1.169h0.817
	C47.901,46.384,48.254,46.184,48.254,45.787z M53.5,43.6h-0.326l-1.263,1.973l-0.321,0.509h-0.025V43.6h-0.785v0.277h0.459v2.784
	h0.308l1.232-1.923l0.371-0.591h0.019v2.168c0.014,0.45,0.478,0.412,0.799,0.264v-0.208H53.5V43.6z M57.956,46.362
	c-1.932,0.484-1.841-3.086,0.195-2.454v0.541h0.276v-0.742c-2.922-1.355-2.809,4.431,0.094,2.721l-0.101-0.226
	C58.254,46.272,58.098,46.326,57.956,46.362C57.813,46.397,58.098,46.326,57.956,46.362z M61.499,43.6h-2.325v0.277h0.483v0.308
	c0,0.791,0.121,1.933-0.766,2.294l0.088,0.277c1.126-0.231,1.005-1.764,1.005-2.627v-0.251h1.181v2.507H60.77v0.277h1.131v-0.277
	h-0.403V43.6z M64.156,43.882h0.415l-0.597,1.823l-0.227,0.685h-0.031l-0.207-0.697L62.855,43.6h-0.578v0.282h0.314l0.899,2.778
	h0.169l-0.201,0.622c-0.169,0.499-0.574,0.455-1.012,0.365l-0.062,0.258c0.6,0.178,1.142,0.159,1.357-0.522l1.156-3.501h0.321V43.6
	h-1.062V43.882z M67.812,43.883h0.434V43.6h-1.188v0.283h0.421v2.501h-0.421v0.277h1.207v-0.277h-0.452V43.883z M67.359,45.045
	l-1.081-1.326c-0.169-0.203-0.452-0.209-0.667-0.069l0.02,0.188l0.408,0.044l0.968,1.187l-0.987,1.307l-0.471,0.044v0.189
	c0.215,0.136,0.557,0.147,0.722-0.07l1.087-1.439V45.045z M68.295,45.045l0.95-1.162l0.408-0.044l0.019-0.188
	c-0.213-0.139-0.511-0.137-0.679,0.069l-1.036,1.301v0.056l1.087,1.464c0.165,0.216,0.507,0.206,0.722,0.07v-0.189l-0.471-0.044
	L68.295,45.045z M72.68,44.564c0.149,0.757,0.056,1.784-0.786,2.084c-0.891,0.317-1.557-0.325-1.659-1.16
	c-0.08-0.66-0.086-1.586,0.209-2.195c0.377-0.778,1.251-1.001,1.996-1.302l0.126,0.271c-0.986,0.532-1.874,0.59-2.005,1.91h0.013
	C71.065,43.165,72.489,43.6,72.68,44.564C72.718,44.755,72.643,44.374,72.68,44.564z M72.385,45.19c0-1.666-1.805-1.562-1.804,0.051
	C70.582,46.773,72.385,46.7,72.385,45.19z M75.99,46.371l0.025,0.207c-0.326,0.155-0.787,0.186-0.798-0.263l-0.013-0.007
	c-0.502,0.417-1.444,0.653-1.805-0.053c-0.391-0.764,0.3-1.285,1.001-1.323l0.817-0.044v-0.251c0-0.963-0.945-0.836-1.635-0.591
	l-0.094-0.252c0.832-0.384,2.062-0.423,2.062,0.754v1.823H75.99z M75.218,45.158l-0.862,0.044c-0.506,0.027-0.98,0.605-0.544,1.052
	c0.386,0.395,1.093,0.026,1.405-0.26V45.158z M80.773,46.384h0.277v1.094h-0.283V46.66h-2.337v0.817h-0.283v-1.094h0.258
	c0.601-0.437,0.522-1.647,0.522-2.294v-0.214h-0.365V43.6h2.212V46.384z M80.433,43.876h-1.181v0.22
	c0,0.692,0.045,1.716-0.421,2.287h1.603V43.876z M84.149,44.561c0.126,0.68,0.086,1.634-0.607,2.004
	c-0.704,0.376-1.521,0.032-1.765-0.7c-0.221-0.663-0.127-1.671,0.479-2.105C83.007,43.223,83.987,43.688,84.149,44.561z
	 M83.851,45.152c0-1.668-1.801-1.646-1.81,0.007C82.033,46.756,83.851,46.74,83.851,45.152z M86.526,46.362
	c-1.932,0.483-1.841-3.086,0.195-2.454v0.541h0.277v-0.742c-2.922-1.354-2.809,4.431,0.094,2.721l-0.101-0.226
	C86.823,46.272,86.668,46.326,86.526,46.362C86.383,46.397,86.668,46.326,86.526,46.362z M87.474,44.304h0.282v-0.427h0.767v2.507
	h-0.389v0.277h1.125v-0.277H88.85v-2.507h0.761v0.427h0.282V43.6h-2.419V44.304z M92.895,46.371l0.025,0.207
	c-0.326,0.155-0.787,0.186-0.798-0.263l-0.013-0.007c-0.502,0.417-1.444,0.653-1.805-0.053c-0.391-0.764,0.3-1.285,1.001-1.323
	l0.817-0.044v-0.251c0-0.963-0.945-0.836-1.635-0.591l-0.094-0.252c0.833-0.382,2.062-0.425,2.062,0.754v1.823H92.895z
	 M92.123,45.158l-0.862,0.044c-0.506,0.027-0.98,0.606-0.544,1.052c0.386,0.395,1.093,0.026,1.405-0.26V45.158z M95.788,45.601
	c0.117,0.57-0.319,1.059-0.895,1.059h-1.621v-0.276h0.326v-2.507H93.29V43.6h1.432c0.774,0,1.463,0.935,0.604,1.446
	C95.562,45.138,95.737,45.354,95.788,45.601z M93.937,44.926h0.78c0.85,0,0.797-1.05-0.051-1.05h-0.729V44.926z M95.464,45.787
	c0-0.383-0.372-0.572-0.71-0.572h-0.817v1.169h0.817C95.111,46.384,95.464,46.184,95.464,45.787z M97.021,43.6h-0.855v0.277h0.522
	v2.507h-0.452v0.277h1.231v-0.277h-0.446V43.6z M97.485,45.039l1-1.175l0.408-0.025l0.019-0.188
	c-0.213-0.139-0.51-0.137-0.678,0.069L97.14,45.02v0.056l1.144,1.464c0.172,0.21,0.497,0.209,0.717,0.07v-0.182l-0.452-0.044
	L97.485,45.039z M102.028,43.6h-0.326l-1.263,1.973l-0.321,0.509h-0.025V43.6h-0.785v0.277h0.459v2.784h0.308l1.232-1.923
	l0.371-0.591h0.019v2.168c0.011,0.451,0.48,0.411,0.798,0.264v-0.208h-0.466V43.6z M0.58,44.142c-0.666,0-0.666,1.034,0,1.034
	S1.246,44.142,0.58,44.142z M76.698,34.747c0.012-1.087,0.606-2.979,0.068-3.968c-0.31-0.571-0.979-0.438-1.537-0.419
	c-0.932,0.032-1.863,0.087-2.793,0.149c-1.885,0.125-3.77,0.281-5.659,0.338c-0.924,0.027-1.849,0.033-2.773-0.001
	c-0.506-0.019-1.345-0.232-1.72,0.23c-0.353,0.435-0.22,1.348-0.238,1.867c-0.024,0.693,0,1.393-0.047,2.085
	c-0.061,0.898-0.632,1.395-1.513,1.547c-0.677,0.117-1.623,0.007-2.024-0.633c-0.279-0.445-0.15-0.985-0.116-1.477
	c0.056-0.796,0.088-1.593,0.142-2.389c0.078-1.142-0.078-3.67,1.205-4.144c0.557-0.206,1.228-0.148,1.812-0.176
	c1.064-0.05,2.126-0.096,3.191-0.096c0.002-0.091,0.052-1.058,0.081-1.058c0.171-1.223,0.397-2.439,0.689-3.639
	c0.16-0.66,0.239-1.825,0.923-2.179c0.849-0.439,2.369-0.288,3.284-0.326c1.05-0.043,2.718-0.319,3.702,0.162
	c0.82,0.401,0.586,1.678,0.575,2.42c-0.019,1.312-0.114,2.62-0.224,3.927h0.279c0.951,0,1.901-0.014,2.852-0.032
	c0.839-0.016,2.032-0.198,2.773,0.314c0.539,0.372,0.601,1.02,0.647,1.623c0.086,1.114,0.128,2.238,0.168,3.355
	c0.05,1.429,0.364,3.663-1.233,4.392C77.814,37.257,76.684,36.15,76.698,34.747C76.715,33.219,76.67,37.666,76.698,34.747z
	 M70.774,26.621l-0.09-2.312c-0.216-1.261-2.073-1.364-2.6-0.261c-0.313,0.655-0.386,1.608-0.47,2.321
	c-0.083,0.703,0.016,1.153,0.822,1.153l1.636-0.006C70.655,27.407,70.774,27.191,70.774,26.621z M38.793,34.049l0.294-5.982
	c0.019-1.148,0.278-2.528-1.216-2.68c-1.262-0.129-2.191,0.296-2.225,1.639l-0.135,5.34c-0.049,0.54-0.217,0.621-0.55,0.633
	l-2.445-0.048c-0.668-0.057-0.277-2.247-0.251-2.749c0.062-1.17,0.144-2.341,0.291-3.504c0.317-1.734-1.418-2.233-2.758-1.567
	c-0.861,0.428-0.789,1.036-0.787,1.902c0.003,1.02,0.04,2.04,0.07,3.059c0.019,0.616,0.314,2.045,0.012,2.588
	c-0.206,0.37-1.976,0.527-2.337,0.322c-0.495-0.281-0.135-1.39-0.099-1.887c0.082-1.118,0.126-2.238,0.161-3.358
	c0.02-0.638,0.334-1.888-0.221-2.332c-0.518-0.415-1.649-0.257-2.24-0.125c-0.511,0.114-0.721,0.282-0.856,0.8
	c-0.264,1.02-0.186,2.24-0.215,3.288c-0.028,1.024-0.03,2.049-0.045,3.074c-0.011,0.756-0.149,1.61-0.035,2.362
	c0.236,1.559,2.774,1.071,3.896,1.057c2.401-0.03,4.798-0.2,7.199-0.254c1.108-0.025,2.322,0.157,3.415,0.028
	C38.661,35.545,38.71,34.89,38.793,34.049z M9.631,33.278C9.56,32.363,8.963,31.44,7.969,31.67
	c-1.036,0.239-1.968,0.863-3.031,0.292c-1.645-0.884-1.376-3.554-0.803-5.012c0.316-0.804,0.861-1.579,1.746-1.791
	c1.145-0.275,2.062,0.567,3.154,0.516c2.429-0.113,2.014-3.488,0.383-4.399c-1.773-0.991-4.173-0.522-5.792,0.548
	c-1.824,1.206-3.026,3.23-3.451,5.352c-0.649,3.241,0.487,7.132,3.866,8.288C5.693,36.029,9.836,35.928,9.631,33.278
	C9.582,32.647,9.893,36.665,9.631,33.278z M106.52,34.908c-0.182-1.833-0.122-3.689-0.297-5.527
	c-0.087-0.914-0.156-4.432-1.551-4.484c-0.932-0.035-1.848,1.437-2.324,2.06c-0.561,0.734-1.216,2.042-2.08,2.466
	c-0.754,0.37-1.005-0.539-1.259-1.117c-0.428-0.975-0.786-2.089-1.539-2.873c-1.924-2.004-2.984,1.535-3.367,2.91
	c-0.344,1.236-0.598,2.495-0.844,3.754c-0.194,0.995-0.944,2.737,0.046,3.423c1.133,0.785,2.543,0.136,2.769-1.171
	c0.151-0.873,0.142-1.774,0.276-2.651c0.073-0.478,0.124-1.548,0.675-0.974c0.417,0.434,0.517,1.411,0.811,1.953
	c0.324,0.599,0.771,1.149,1.464,1.313c1.127,0.267,1.859-0.9,2.435-1.684c0.24-0.327,0.983-1.769,1.231-1.042
	c0.101,0.296-0.065,0.885-0.077,1.187c-0.021,0.52-0.01,1.039,0.004,1.558c0.017,0.62-0.139,1.432,0.454,1.808
	C104.092,36.29,106.65,36.198,106.52,34.908C106.41,33.797,106.627,35.974,106.52,34.908z M50.823,26.367
	c-0.6-2.781-3.221-0.177-4.188,0.902c-0.657,0.732-1.233,1.589-1.957,2.256c-1.066,0.983-0.592-0.982-0.508-1.595
	c0.112-0.822,0.532-2.056-0.335-2.586c-0.589-0.36-1.492-0.321-2.099-0.035c-0.707,0.333-0.818,0.88-0.85,1.595
	c-0.046,1.044-0.055,2.091-0.062,3.137c-0.009,1.203-0.031,2.413,0.028,3.615c0.027,0.54-0.008,1.666,0.572,1.978
	c0.602,0.324,1.482-0.413,1.929-0.732c1.143-0.817,2.178-1.782,3.128-2.815c0.309-0.337,1.305-1.969,1.628-1.138
	c0.244,0.627-0.069,1.705-0.108,2.36c-0.07,1.171,0.201,3.525,2.001,2.579c1.41-0.741,1.354-3.231,1.344-4.563
	C51.334,29.673,51.171,27.984,50.823,26.367C50.473,24.745,51.207,28.148,50.823,26.367z M20.801,25.021
	c-2.077-0.233-2.294,3.489-3.014,4.857c-0.558,1.059-1.061-0.351-1.305-0.984c-0.237-0.615-0.424-1.247-0.626-1.874
	c-0.175-0.546-0.314-1.408-0.709-1.847c-0.636-0.706-2.537-0.151-3.079,0.491c-0.652,0.772,0.319,1.994,0.724,2.683
	c0.67,1.143,1.399,2.251,2.086,3.383c0.258,0.425,0.722,0.977,0.737,1.483c0.018,0.607-0.658,1.465-1.237,1.622
	c-1.364,0.369-2.076-1.659-3.468-0.401c-1.454,1.315,0.021,3.277,1.59,3.592c3.466,0.391,5.05-2.593,6.48-5.165
	c0.76-1.366,1.479-2.758,2.14-4.175c0.424-0.91,0.997-1.935,1.134-2.945C22.149,25.11,21.988,25.155,20.801,25.021
	C19.713,24.899,21.988,25.155,20.801,25.021z M82.057,30.931c-0.099-2.625,1.75-5.512,4.432-6.007
	c2.742-0.506,5.451,1.24,5.769,4.055c0.423,3.737-2.943,7.525-6.841,6.65C83.198,35.13,82.138,33.066,82.057,30.931
	C81.949,28.068,82.347,38.536,82.057,30.931z M85.441,30.607c-0.019,1.052,0.646,1.995,1.792,1.867
	c1.159-0.129,1.749-1.347,1.644-2.405c-0.088-0.89-0.518-1.709-1.482-1.822C86.101,28.096,85.46,29.5,85.441,30.607
	C85.423,31.58,85.461,29.472,85.441,30.607z"/>
</svg>
