<svg id="Слой_1" data-name="Слой 1" xmlns="http://www.w3.org/2000/svg" viewBox="0 0 232.96 210.89"><defs><style>.cls-1{fill:#fff;}</style></defs><title>123</title><g id="LOGO__flower"><path class="cls-1" d="M151.47,82.36c9.71-3.17,18.59,4.68,21.83,13.33,3.06,8.14,2.67,17,3.77,25.52,1.41,10.94,6.34,23.69,18.62,25.75,12.79,2.14,23.71-7.4,30.76-16.88,9.81-13.2,19.73-33.26,39.34-31a0.63,0.63,0,0,0,.44-1.07,46.58,46.58,0,0,0-33.68-12.19c-3.7.2-5.71,1.83-6.65-2.27-0.78-3.41-.86-7.16-1.39-10.62-1.28-8.54-3-17-5.06-25.37a0.63,0.63,0,0,0-1-.28A121.52,121.52,0,0,0,203.2,67.5q-1.72,2.89-3.27,5.87c-0.49.94-2.08,5.75-2.93,6-1.09.39-5.22-4.57-6.69-5.6-12.14-8.56-28.44-6.13-38.2,4.81-0.53.6,0.35,1.49,0.88,0.88a27.63,27.63,0,0,1,43.32,2.08,0.63,0.63,0,0,0,1.08,0A122.36,122.36,0,0,1,205.6,66c3.15-5,6.81-11.57,11.45-15.34,1.5-1.22.84-1.51,1.9,0,0.75,1.1.77,3.32,1.07,4.67q1,4.68,1.89,9.4c1.37,7.49,2.39,15,3.15,22.61a0.64,0.64,0,0,0,.79.6,45.35,45.35,0,0,1,39.51,10.92l0.44-1.07c-15.21-1.74-26,10.62-33.73,22-8.46,12.36-23.21,33.56-41.23,24.27-15.49-8-11.72-29.69-14.89-43.74-2.49-11-12.13-23.29-24.81-19.15a0.63,0.63,0,0,0,.33,1.21h0Z" transform="translate(-33.47 -42.62)"/><path class="cls-1" d="M193.81,146.39C178,178.72,157,214.91,118.63,222.69a56.29,56.29,0,0,1-50.49-14.63C54.08,194.37,48.79,173.89,53.36,155a0.63,0.63,0,0,0-1.21-.33c-6.83,28.3,8.54,57.55,36.1,67.35,29.14,10.36,59.37-6.05,78.1-28.06,11.92-14,20.5-30.45,28.54-46.9,0.35-.72-0.73-1.35-1.08-0.63h0Z" transform="translate(-33.47 -42.62)"/><path class="cls-1" d="M175.65,110.43c1.54-3.64,10.29-2.19,13.53-2.23,4.59-.06,9.23-0.28,13.79.38C213,110,219,117,223.77,125.44a0.63,0.63,0,0,0,1.08-.63c-4.93-8.75-11.39-16-21.8-17.51-6.39-.91-13.05-0.36-19.48-0.28-3.08,0-7.55-.65-9,2.78-0.31.73,0.77,1.37,1.08,0.63h0Z" transform="translate(-33.47 -42.62)"/><path class="cls-1" d="M171.8,101.49c10.43-.84,21.57-2,32-0.45,11.3,1.67,17.92,9.33,24.32,18.06,0.47,0.64,1.56,0,1.08-.63-5.53-7.53-11.45-15.13-20.83-17.78-11.44-3.23-24.88-1.39-36.54-.45-0.8.06-.8,1.31,0,1.25h0Z" transform="translate(-33.47 -42.62)"/><path class="cls-1" d="M191.7,46.68a5.93,5.93,0,0,0-4.88,5.61,5,5,0,0,0,4.55,4.87,4.3,4.3,0,0,0,5-3.52,4.7,4.7,0,0,0-3.63-5.39c-0.79-.12-1.13,1.08-0.33,1.21a3.41,3.41,0,0,1,2.76,3.66c-0.09,2.12-2.07,3.16-4,2.76-4.81-1-3.3-7.27.87-8,0.79-.14.46-1.34-0.33-1.21h0Z" transform="translate(-33.47 -42.62)"/><path class="cls-1" d="M192.11,56.79a110,110,0,0,0,.5,19.19c0.09,0.79,1.34.8,1.25,0a110,110,0,0,1-.5-19.19c0-.8-1.2-0.8-1.25,0h0Z" transform="translate(-33.47 -42.62)"/><path class="cls-1" d="M245.54,59.88C243.45,56,236.83,56,235,60.14c-2.15,4.74,3.8,9.47,8.14,7.42,0.73-.34.09-1.42-0.63-1.08-3.51,1.65-8.59-2.85-6-6.4,1.89-2.63,6.51-2.39,8,.44a0.63,0.63,0,0,0,1.08-.63h0Z" transform="translate(-33.47 -42.62)"/><path class="cls-1" d="M236.28,67.91a68.44,68.44,0,0,0-10.56,13.72,0.63,0.63,0,0,0,1.08.63,67.18,67.18,0,0,1,10.37-13.46,0.63,0.63,0,0,0-.88-0.88h0Z" transform="translate(-33.47 -42.62)"/><path class="cls-1" d="M186,115.19l-2.83.33a0.65,0.65,0,0,0-.6.46,2.4,2.4,0,1,0,4.59-.08,0.63,0.63,0,0,0-1.21.33,1.15,1.15,0,1,1-2.18.08l-0.6.46,2.83-.33c0.79-.09.8-1.34,0-1.25h0Z" transform="translate(-33.47 -42.62)"/><path class="cls-1" d="M202.17,115c-0.46-1.76-2.83-1.92-4-.85a1.67,1.67,0,0,0-.44,2.19,1.92,1.92,0,0,0,2.85,0c0.52-.61-0.36-1.49-0.88-0.88-0.22.25-1,.45-1,0.06a1,1,0,0,1,.64-0.65,1.15,1.15,0,0,1,1.64.47,0.63,0.63,0,0,0,1.21-.33h0Z" transform="translate(-33.47 -42.62)"/><path class="cls-1" d="M216.32,121.71a2.83,2.83,0,0,0-5-.73c-0.43.64-.93,2.21-0.12,2.78s2.24-.08,2.73-0.89a0.63,0.63,0,0,0-1.08-.63,0.91,0.91,0,0,1-1.17.38l0.44,0.44a1.57,1.57,0,0,1,3-1c0.29,0.74,1.5.42,1.21-.33h0Z" transform="translate(-33.47 -42.62)"/><path class="cls-1" d="M195.44,147.68c-4.73-1.15-23.33-1.62-20,8,3.13,9,16.48-6.73,18.78-8.9l-1.07-.44c0.29,4.74,4,15.13,10.82,10.52,5.9-4-6.1-8.68-8.75-9.68-0.75-.28-1.08.92-0.33,1.21a40.13,40.13,0,0,1,4.18,1.81c2.34,1.2,3,.91,1.65,3.8q-0.63,4-2.91.71a3.73,3.73,0,0,1-2.35-2.79,15.21,15.21,0,0,1-1.06-5.58,0.63,0.63,0,0,0-1.07-.44l-5.06,4.76c-1.63,1.53-4.77,5.57-6.94,5.72q-2.58,1.91-1.67-2.84-2.22-3.42.77-3.94a12.69,12.69,0,0,1,4.6-1.26,25,25,0,0,1,10,.54,0.63,0.63,0,0,0,.33-1.21h0Z" transform="translate(-33.47 -42.62)"/><path class="cls-1" d="M169.88,189.38c1.8-8.47,1.89-21.24-10-21.22-2.87,0-7.1,1.24-7.3,4.73a3.76,3.76,0,0,0,4.86,4c0.75-.27.43-1.48-0.33-1.21l-1.22-5.37,1.93-.67a10.58,10.58,0,0,1,4.41.07,9.17,9.17,0,0,1,6.48,5.4c2,4.45.94,9.41,0,14-0.17.78,1,1.12,1.21,0.33h0Z" transform="translate(-33.47 -42.62)"/><path class="cls-1" d="M158.62,199.37c5.07-4.68,10.65-9.41,17.61-10.82a15.84,15.84,0,0,1,11.31,1.59,12.58,12.58,0,0,1,4.61,4.86l1,3.7q0.58,6.36-7.23,1c0.52-.61-0.36-1.5-0.88-0.88a4.41,4.41,0,0,0,3.62,7.42c5.21-.34,6.59-6.45,5.12-10.57-2.24-6.25-9.11-9.2-15.37-8.68-8.23.69-14.85,6.12-20.68,11.5a0.63,0.63,0,0,0,.88.88h0Z" transform="translate(-33.47 -42.62)"/><path class="cls-1" d="M136.18,216.21c8.33-6,10.09-17.92,2.35-25.32-2.7-2.58-7.44-5-10.91-2.38a4.69,4.69,0,0,0-.75,6.82c0.5,0.63,1.38-.26.88-0.88q3.79-8.93,9.35-3.2a15,15,0,0,1,2.86,3.32,15.32,15.32,0,0,1,2.16,5.47c1.07,6-1.76,11.62-6.57,15.09-0.65.47,0,1.55,0.63,1.08h0Z" transform="translate(-33.47 -42.62)"/><path class="cls-1" d="M120.59,222.67c7-3.19,14.55-4,22.18-4,3.44,0,7,0,10.32,1.18a11.32,11.32,0,0,1,6.37,5c2.1,4,.19,10.34-5.64,9.47-0.79-.12-1.13,1.09-0.33,1.21a6.93,6.93,0,0,0,7.7-4.38c1.67-4.14-.87-8.44-4.25-10.78-5-3.44-11.83-3.11-17.59-2.93A50,50,0,0,0,120,221.59c-0.73.33-.1,1.41,0.63,1.08h0Z" transform="translate(-33.47 -42.62)"/><path class="cls-1" d="M85.14,221.9c10.11-.63,21.18-9,16.48-20.21-1.42-3.39-5.29-7.3-9.4-6.22-3.15.83-4.47,4.52-1.92,6.77,0.6,0.53,1.49-.35.88-0.88l5.37-3.84A6.8,6.8,0,0,1,99,199.73a10.69,10.69,0,0,1,1.82,3.42,12.07,12.07,0,0,1-.48,8.48c-2.68,5.95-9,8.64-15.2,9-0.8,0-.8,1.3,0,1.25h0Z" transform="translate(-33.47 -42.62)"/><path class="cls-1" d="M94.18,223c7,1.43,12.82,7.48,12.59,14.93a15.35,15.35,0,0,1-4.12,9.84,14.47,14.47,0,0,1-4.11,3.12l-2.45.92q-8.82-.91-4.18-5.22c0.74-.3.42-1.5-0.33-1.21a4,4,0,0,0-1,6.74c4.23,3.73,11.18-1.13,13.85-4.49,7.7-9.7,1.91-23.45-9.9-25.84-0.79-.16-1.12,1-0.33,1.21h0Z" transform="translate(-33.47 -42.62)"/><path class="cls-1" d="M53.42,187.66c2.57,8.68,10,16,19.66,14.74,6.57-.85,14.81-8.79,7.58-14.62-0.62-.5-1.51.38-0.88,0.88,4.39,3.55,1.34,9.23-2.89,11.29a14.23,14.23,0,0,1-9.85.8c-6.44-1.72-10.6-7.28-12.42-13.42a0.63,0.63,0,0,0-1.21.33h0Z" transform="translate(-33.47 -42.62)"/><path class="cls-1" d="M69.48,212a11.13,11.13,0,0,1,2.89,14.93,10.35,10.35,0,0,1-6.67,4.6c-1.74.34-4.27,0.15-5.6-1.28a4,4,0,0,1,1-6.3c0.72-.35.09-1.43-0.63-1.08a5.16,5.16,0,0,0-1.87,7.46c2.07,3.15,6.59,3.14,9.68,1.77,8.88-3.94,9.09-15.63,1.86-21.18-0.64-.49-1.26.6-0.63,1.08h0Z" transform="translate(-33.47 -42.62)"/><path class="cls-1" d="M49.72,177.73a18.55,18.55,0,0,1-.5,14.47,18.92,18.92,0,0,1-3.52,5.13A13.42,13.42,0,0,1,42.3,200a5.35,5.35,0,0,1-2.32.87q-3.28,2-2.16-2.82a0.63,0.63,0,0,0,1.08-.63,2.85,2.85,0,0,0-5.16.25c-1.46,3.64,3.35,5.32,6,4.8,10.56-2.08,14.51-16.25,11.23-25.05-0.28-.75-1.49-0.42-1.21.33h0Z" transform="translate(-33.47 -42.62)"/><path class="cls-1" d="M148.84,231.24A8.07,8.07,0,0,0,156,235a0.63,0.63,0,0,0,0-1.25,6.8,6.8,0,0,1-6.08-3.1,0.63,0.63,0,0,0-1.08.63h0Z" transform="translate(-33.47 -42.62)"/><path class="cls-1" d="M150.07,231.46c1.91,3.53,7.94,2.72,8.84-1.2a0.63,0.63,0,0,0-1.21-.33c-0.66,2.88-5.15,3.5-6.55.9a0.63,0.63,0,0,0-1.08.63h0Z" transform="translate(-33.47 -42.62)"/><path class="cls-1" d="M148.52,232.76c0.37,2.68,3.4,3.76,5.78,3.13,3.54-.93,4.67-5.12,5.4-8.22a0.63,0.63,0,0,0-1.21-.33c-0.56,2.38-1.19,5.28-3.33,6.77-1.81,1.26-5.1.88-5.45-1.68-0.11-.79-1.31-0.46-1.21.33h0Z" transform="translate(-33.47 -42.62)"/><path class="cls-1" d="M149.71,233.87a5.57,5.57,0,0,0,7.09-.21c2.79-2.2,3.14-6.12,3.25-9.41a0.63,0.63,0,0,0-1.25,0c-0.08,2.43-.24,5-1.6,7.13s-4.5,3.38-6.61,1.61c-0.61-.51-1.5.37-0.88,0.88h0Z" transform="translate(-33.47 -42.62)"/><path class="cls-1" d="M191.83,54.29c3.22,0,3.22-5,0-5s-3.22,5,0,5h0Z" transform="translate(-33.47 -42.62)"/><path class="cls-1" d="M240.16,62.62c3.22,0,3.22-5,0-5s-3.22,5,0,5h0Z" transform="translate(-33.47 -42.62)"/><path class="cls-1" d="M242.66,66c3.22,0,3.22-5,0-5s-3.22,5,0,5h0Z" transform="translate(-33.47 -42.62)"/><path class="cls-1" d="M242.66,63.46c3.22,0,3.22-5,0-5s-3.22,5,0,5h0Z" transform="translate(-33.47 -42.62)"/><path class="cls-1" d="M239.33,71c9.65,0,9.67-15,0-15s-9.67,15,0,15h0Z" transform="translate(-33.47 -42.62)"/><path class="cls-1" d="M192.66,57.62c9.65,0,9.67-15,0-15s-9.67,15,0,15h0Z" transform="translate(-33.47 -42.62)"/></g></svg>