<?xml version="1.0" encoding="utf-8"?>
<!-- Generator: Adobe Illustrator 19.2.1, SVG Export Plug-In . SVG Version: 6.00 Build 0)  -->
<svg version="1.1" id="Слой_1" xmlns="http://www.w3.org/2000/svg" xmlns:xlink="http://www.w3.org/1999/xlink" x="0px" y="0px"
	 width="115px" height="48px" viewBox="0 0 115 48" enable-background="new 0 0 115 48" xml:space="preserve">
<path fill="#A49D6C" d="M8.083,29.335c-0.263,0.824-0.236,1.731-0.507,2.537c-0.205,0.612-0.634,0.72-1.25,0.761
	c-0.927,0.061-2.363-0.373-3.153,0.268c-0.691,0.56-0.427,1.794-0.389,2.556c0.552,0.107,1.696-0.006,2.107,0.456
	c0.414,0.464,0.342,1.533-0.219,1.817c-0.563,0.285-1.308-0.106-1.805,0.385c-0.459,0.454-0.436,1.393-0.44,1.977
	c-0.01,1.662,0.347,3.283,0.497,4.93c0.056,0.618,0.154,1.534-0.372,1.99c-0.563,0.488-1.65,0.281-2.317,0.248
	c-0.265-2.137-0.083-4.317-0.063-6.462c0.026-2.691,0.097-5.407-0.049-8.095c-0.064-1.191-0.552-2.644,0.979-2.966
	C3.388,29.257,5.79,29.926,8.083,29.335C7.159,32.225,6.216,29.816,8.083,29.335z M18.18,34.152
	c1.357,2.832,0.356,16.167-4.984,12.931c-2.729-1.654-3.056-5.002-3.305-7.882c-0.268-3.102-0.174-6.927,2.508-9.015
	C15.654,27.652,17.023,31.78,18.18,34.152C19.324,36.541,16.996,31.723,18.18,34.152z M14.587,32.325
	c-0.895-1.306-1.682,1.447-1.836,1.994c-0.388,1.367-0.649,2.72-0.579,4.146c0.075,1.535,0.293,3.72,1.341,4.949
	c1.301,1.525,1.987-2.03,2.117-2.717C16.134,38.03,16.205,34.653,14.587,32.325C13.322,30.479,16.052,34.433,14.587,32.325z
	 M31.569,46.698c0.221,0.261,0.442,0.542,0.662,0.803c-0.621,0.414-1.736,0.305-2.433,0.2c-0.967-0.146-1.421-0.911-1.662-1.806
	c-0.521-1.933-0.134-4.145-2.109-5.294c-0.338-0.196-1.127-0.657-1.422-0.176c-0.224,0.366-0.024,1.264-0.028,1.688
	c-0.006,0.701-0.03,1.402-0.06,2.103c-0.027,0.647-0.065,1.294-0.088,1.942c-0.011,0.334,0.077,0.842-0.048,1.154
	c-0.275,0.686-1.876,0.676-2.268,0.088c-0.492-0.656-0.358-1.983-0.371-2.748c-0.018-1.105,0.02-2.206,0.075-3.309
	c0.186-3.787,0.095-7.577,0.095-11.367c2.649-0.402,5.817-1.14,7.666,1.39c1.961,2.684,1.383,6.373-1.563,8.065
	c1.05,0.946,1.581,2.084,1.95,3.424C30.325,44.155,30.56,45.714,31.569,46.698C31.79,46.959,30.766,45.915,31.569,46.698z
	 M27.735,33.249c-0.502-1.245-1.767-1.345-2.931-1.345c-0.469,1.152-0.314,2.62-0.331,3.836c-0.009,0.677-0.435,2.362,0.478,2.478
	C27.576,38.554,28.563,35.205,27.735,33.249C27.233,32.004,28.236,34.433,27.735,33.249z M49.294,30.7
	c-0.588-0.681-2.489-1.108-3.266-0.542c-0.506,0.368-0.518,1.539-0.642,2.118c-0.214,0.999-0.426,1.998-0.627,2.999
	c-0.595,2.966-0.675,6.216-1.889,9.015c-0.873-2.121-0.867-4.661-1.059-6.915c-0.129-1.517-0.428-2.999-0.693-4.496
	c-0.19-1.076-0.057-2.61-1.421-2.804c-0.713-0.102-2.108-0.221-2.758,0.108c-0.931,0.472-0.963,2.078-1.102,2.956
	c-0.517,3.28-0.554,6.613-0.991,9.904c-0.124,0.933-0.266,1.862-0.385,2.796c-0.064,0.509-0.368,1.282,0.109,1.628
	c0.548,0.398,1.93,0.248,2.538,0.055c0.15-0.737,0.104-1.552,0.136-2.301c0.065-1.5,0.131-2.999,0.22-4.498
	c0.091-1.519,0.194-3.039,0.379-4.55c0.105-0.862,0.139-2.046,0.63-2.802c0.374,1.806,0.715,3.619,1.003,5.441
	c0.264,1.668,0.375,3.38,0.746,5.028c0.192,0.852,0.389,1.718,0.62,2.559c0.146,0.533,0.308,1.04,0.907,1.15
	c0.426,0.078,0.976-0.037,1.41-0.043c0.369-0.006,0.83,0.022,1.15-0.202c0.829-0.579,0.941-2.507,1.112-3.371
	c0.262-1.325,0.524-2.647,0.811-3.966c0.453-2.083,0.798-4.241,1.516-6.255c0.234,2.266,0.438,4.521,0.515,6.799
	c0.065,1.904-0.024,3.811,0.091,5.713c0.036,0.59-0.064,1.467,0.57,1.712c0.429,0.166,1.282-0.003,1.682-0.179
	c0.705-0.31,0.406-1.128,0.357-1.762c-0.229-2.956-0.522-5.905-0.785-8.858c-0.121-1.362-0.241-2.725-0.408-4.082
	C49.695,32.432,49.729,31.211,49.294,30.7C48.531,29.816,49.755,31.242,49.294,30.7z M63.928,46.136
	c0.064,0.326,0.497,1.204,0.282,1.521c-0.27,0.399-1.314,0.235-1.714,0.214c-0.591-0.031-1.327-0.087-1.568-0.73
	c-0.259-0.693-0.175-1.782-0.273-2.511c-1.084,0.361-2.971,0.241-4.136,0.181c-0.027,0.759,0.291,2.429-0.574,2.832
	c-0.581,0.271-1.472,0.034-2.096,0.039c0.47-1.565,0.555-3.23,0.668-4.851c0.118-1.698,0.322-3.376,0.54-5.063
	c0.234-1.813,0.478-3.627,0.856-5.417c0.263-1.245,0.447-2.083,1.747-2.494c0.76-0.24,1.996-0.363,2.605,0.29
	c0.441,0.473,0.44,1.324,0.562,1.924c0.195,0.953,0.388,1.906,0.587,2.857C62.2,38.677,63.166,42.384,63.928,46.136
	C64.209,47.562,63.386,43.467,63.928,46.136z M60.315,42.443c-0.663-4.095-1.686-9.575-1.847-9.515
	c-0.339,0.113-0.447,1.136-0.507,1.407c-0.211,0.96-0.361,1.934-0.506,2.905c-0.258,1.716-0.52,3.441-0.733,5.163
	C57.685,42.302,59.25,42.122,60.315,42.443C59.652,38.348,59.25,42.122,60.315,42.443z M73.001,37.685
	c-1.232,0.047-1.555,1.11-1.229,2.212c0.216,0.731,0.762,1.423,1.022,2.158c0.251,0.712,0.67,1.966-0.043,2.553
	c-0.542,0.447-1.43,0.26-1.957-0.109c-1.307-0.916-1.593-2.964-1.665-4.425c-0.092-1.845,0.161-3.859,1.03-5.514
	c0.891-1.697,2.487-2.488,4.269-1.532c0.635-1.048,0.832-2.349-0.486-2.903c-1.062-0.446-2.448-0.283-3.491,0.135
	c-3.07,1.228-3.989,5.363-4.086,8.291c-0.101,3.027,0.226,6.636,3.026,8.414c1.129,0.717,2.554,1.032,3.803,0.41
	c1.088-0.542,1.573-1.708,1.77-2.845c0.255-1.47,0.118-2.997-0.066-4.467c-0.071-0.563-0.113-1.15-0.234-1.704
	C74.452,37.4,73.78,37.685,73.001,37.685C71.435,37.745,73.402,37.685,73.001,37.685z M84.162,37.665
	c-1.427,0.096-1.278,1.39-0.91,2.423c0.263,0.738,0.703,1.398,0.8,2.185c0.092,0.742-0.073,1.479-0.131,2.217
	c-3.46,0.779-3.49-4.175-3.283-6.359c0.132-1.39,0.402-2.766,0.968-4.048c0.361-0.819,0.808-1.71,1.802-1.81
	c0.507-0.051,1.067,0.274,1.547,0.022c0.439-0.231,0.696-0.866,0.994-1.234c0.271-1.175-1.778-1.209-2.47-1.196
	c-1.375,0.026-2.619,0.397-3.528,1.483c-1.724,2.06-2.166,5.405-2.236,8.004c-0.068,2.538,0.287,5.677,2.346,7.439
	c1.269,1.085,2.9,1.276,4.332,0.394c1.346-0.829,1.659-1.688,1.748-3.198c0.077-1.301,0.046-2.629,0.058-3.932
	C86.212,38.63,85.788,37.555,84.162,37.665C82.375,37.786,86.831,37.485,84.162,37.665z M92.673,33.55
	c0.1-3.774,0.702-3.553-2.59-3.413c-0.218,3.253-0.104,6.542-0.121,9.8c-0.007,1.454-0.055,2.906-0.086,4.359
	c-0.018,0.852-0.072,1.834,0.24,2.645c0.333,0.868,1.005,0.849,1.716,0.373c0.557-0.373,0.647-0.819,0.744-1.458
	c0.305-2.006,0.224-4.096,0.2-6.117C92.752,37.68,92.617,35.609,92.673,33.55C92.773,29.776,92.613,35.738,92.673,33.55z
	 M26.209,19.057c0,0.894,0,1.787,0,2.681c0,0.512-0.047,1.047,0,1.557c0.037,0.399-0.082,0.424,0.392,0.419
	c0.487-0.005,0.313,0.008,0.392-0.365c0.096-0.46,0-1.048,0-1.518c0-0.924,0-1.849,0-2.773c0.456,0,0.948,0.057,1.4,0
	c0.114-0.014,0.304,0.056,0.387-0.04c0.042-0.049,0.037-0.594,0-0.65c-0.201-0.308-1.798-0.092-2.178-0.092
	c-0.398,0-1.962-0.22-2.178,0.092c-0.023,0.033-0.045,0.602,0,0.65c0.086,0.092,0.272,0.026,0.386,0.04
	C25.26,19.114,25.753,19.057,26.209,19.057z M32.352,21.847l1.324,1.827c-0.666,0.247-0.989,0.019-1.359-0.476
	c-0.221-0.296-0.482-0.844-0.786-1.053c-0.223-0.153-0.323-0.137-0.645-0.137c0,0.427,0.136,1.074,0,1.47
	c-0.076,0.221-0.54,0.493-0.783,0.197c-0.111-0.135,0-0.821,0-0.99c0-0.652,0-1.304,0-1.956c0-0.3-0.158-1.148,0-1.404
	c0.136-0.221,0.704-0.109,0.995-0.107c0.612,0.003,1.273,0.004,1.713,0.504C33.394,20.38,33.169,21.502,32.352,21.847z
	 M32.252,20.603c0-0.727-0.872-0.622-1.365-0.622v1.245C31.385,21.225,32.252,21.334,32.252,20.603z M34.66,23.714l-0.04-0.04
	c0.359-0.853,0.718-1.705,1.077-2.558c0.25-0.594,0.444-1.898,1.172-1.898c0.717,0,0.889,1.227,1.137,1.814
	c0.371,0.881,0.741,1.762,1.112,2.643c-0.861,0.355-0.987-0.265-1.245-0.923h-2.007C35.521,23.629,35.601,23.714,34.66,23.714z
	 M36.206,21.967h1.325l-0.663-1.666L36.206,21.967z M40.984,19.98c0,0.738,0,1.476,0,2.214c0,0.353-0.108,0.918,0,1.253
	c0.097,0.299-0.06,0.267,0.391,0.267c0.691,0,0.392-0.859,0.392-1.43c0-0.768,0-1.536,0-2.304c0.466,0,1.884,0.325,1.546-0.546
	c-0.114-0.293-0.046-0.188-0.412-0.217c-0.501-0.04-1.023,0-1.525,0c-0.461,0-1.723-0.211-1.937,0.154
	C38.91,20.27,40.612,19.98,40.984,19.98z M46.122,19.98c0,0.738,0,1.476,0,2.214c0,0.565-0.31,1.52,0.382,1.52
	c0.678,0,0.382-0.872,0.382-1.43c0-0.768,0-1.536,0-2.304c0.467,0,1.905,0.328,1.566-0.546c-0.114-0.294-0.047-0.188-0.414-0.217
	c-0.504-0.04-1.028,0-1.534,0c-0.462,0-1.733-0.212-1.947,0.154C44.027,20.273,45.749,19.98,46.122,19.98z M54.192,21.466
	c0,3.077-4.818,3.042-4.818,0C49.374,18.427,54.192,18.385,54.192,21.466z M53.309,21.466c0-2-3.037-2.019-3.032,0
	C50.283,23.461,53.309,23.443,53.309,21.466z M56.018,23.714c-0.187-0.472-0.04-1.283-0.04-1.8c0-0.509,0-1.018,0-1.527
	c0-0.219-0.113-0.841,0-1.03c0.179-0.301,1.234-0.178,1.655-0.127c1.31,0.158,2.028,1.996,0.613,2.617
	c0.337,0.473,0.675,0.945,1.012,1.418c0.054,0.075,0.333,0.352,0.272,0.45c-0.023,0.038-0.749,0.015-0.796,0
	c-0.385-0.123-0.61-0.605-0.865-0.947c-0.409-0.547-0.432-0.76-1.11-0.76c0,0.416,0.121,1.014,0,1.403
	C56.63,23.834,56.546,23.714,56.018,23.714z M56.761,21.225c0.501,0,1.364,0.106,1.365-0.622c0.001-0.722-0.873-0.622-1.365-0.622
	V21.225z M61.78,23.714c0.286-0.719,0.04-2.012,0.04-2.795c0-0.356,0.163-1.19,0-1.51c-0.083-0.162-0.498-0.419-0.743-0.192
	c-0.143,0.132-0.04,0.691-0.04,0.873c0,0.641,0,1.281,0,1.922c0,0.39-0.142,1.104,0,1.469C61.171,23.827,61.327,23.714,61.78,23.714
	z M66.557,22.751H64.53c-0.252,0.682-0.366,1.271-1.244,0.923c0.359-0.853,0.718-1.705,1.076-2.558
	c0.258-0.613,0.44-1.89,1.182-1.898c0.728-0.008,0.897,1.221,1.146,1.814c0.371,0.881,0.741,1.762,1.112,2.643
	C66.925,24.027,66.807,23.427,66.557,22.751z M66.196,21.967l-0.642-1.666l-0.662,1.666H66.196z M19.967,20.703
	c-1.144,0.722,0.482,1.586,0.642,0.562c0.02-0.1-0.442-0.1-0.462,0.04c-0.442-0.181-0.181-0.241,0.763-0.181
	c0.261,0.2,0.322,0.622,0.221,0.903c-0.253,0.903-2.059,0.051-2.536-0.13c-1.417-0.538-2.75-0.574-4.221-0.252
	c-1.433,0.314-2.864,0.641-4.337,0.698c-0.762,0.029-1.53-0.02-2.276-0.185c-0.391-0.087-1.414-0.661-1.73-0.344
	c-0.036,0.036,2.338,0.652,2.543,0.673c0.893,0.091,1.792,0.057,2.683-0.046c1.848-0.215,3.728-0.973,5.602-0.769
	c1.174,0.127,3.553,1.715,4.604,0.549C22.152,21.456,20.763,20.199,19.967,20.703C18.822,21.426,20.95,20.081,19.967,20.703z
	 M86.47,21.707c-2.938,1.193-5.912,0.194-8.891-0.218c-0.737-0.102-1.433-0.138-2.167,0.019c-0.739,0.159-1.392,0.524-2.112,0.725
	c-0.41,0.114-1.047,0.219-1.388-0.135c-0.236-0.245-0.26-1.004,0.238-0.89c0.286,0.065,0.204,0.527,0.612,0.546
	c0.277,0.013,0.612-0.274,0.587-0.563c-0.084-0.945-1.676-0.428-1.967,0.103c-0.65,1.187,1.225,1.369,1.96,1.236
	c0.621-0.112,1.161-0.46,1.759-0.646c0.698-0.217,1.429-0.288,2.157-0.231c1.642,0.128,3.244,0.624,4.883,0.799
	c0.795,0.085,1.599,0.113,2.395,0.028c0.248-0.027,2.384-0.552,2.321-0.635C86.802,21.772,86.562,21.67,86.47,21.707
	C83.158,23.051,86.571,21.666,86.47,21.707z"/>
</svg>
