<?xml version="1.0" encoding="utf-8"?>
<!-- Generator: Adobe Illustrator 19.2.1, SVG Export Plug-In . SVG Version: 6.00 Build 0)  -->
<svg version="1.1" id="Слой_1" xmlns="http://www.w3.org/2000/svg" xmlns:xlink="http://www.w3.org/1999/xlink" x="0px" y="0px"
	 width="115px" height="48px" viewBox="0 0 115 48" enable-background="new 0 0 115 48" xml:space="preserve">
<path fill="#3F2D1F" d="M34.469,34.12l-0.006,0.001c-0.131-0.694-0.21-1.413-0.266-2.117c-0.073-0.921-0.399-1.21-1.369-0.949
	c-1.695,0.456-3.36,1.535-5.119,1.695c-0.697,0.063-1.277-0.164-1.898-0.438c-0.914-0.404-1.833-0.694-2.778-1.006
	c-1.297-0.428-2.182-1.402-2.888-2.528c-1.082-1.728-2.012-3.558-2.955-5.364c-0.411-0.787-0.779-1.595-1.175-2.389
	c-0.307-0.615-0.629-1.451-1.282-1.782c-0.625-0.316-1.305-0.042-1.911,0.175c-0.95,0.34-1.905,0.667-2.85,1.02
	c-1.813,0.678-3.563,1.514-5.305,2.353c-1.151,0.554-3.597,1.392-2.875,3.063c0.332,0.769,0.695,1.466,0.963,2.273
	c0.279,0.839,0.554,1.68,0.838,2.517c0.214,0.63,0.702,1.446,0.156,2.011c-0.653,0.676-1.736,1.174-2.531,1.671
	c-1.669,1.044-1.148,2.292-0.648,3.945c0.209,0.692,0.259,1.462,0.69,2.063c0.482,0.671,1.324,1.093,2.059,1.425
	c1.78,0.802,3.725,1.336,5.569,1.976c3.639,1.263,7.28,2.522,10.908,3.817c0.385,0.137,0.859,0.397,1.27,0.429
	c0.486,0.038,0.841-0.282,1.225-0.535c0.858-0.564,1.724-1.116,2.58-1.684c1.757-1.167,3.469-2.399,5.37-3.33
	c0.443-0.217,0.892-0.425,1.355-0.594c0.363-0.132,0.894-0.205,1.172-0.497c0.557-0.585-0.032-1.485,0.028-2.167
	c0.081-0.92,1.316-1.365,1.754-2.11C35.011,36.281,34.574,34.982,34.469,34.12z M21.666,31.632c1.177,0.712,2.537,1.185,3.789,1.754
	c-0.959,0.374-2.166,1.122-3.214,0.957c-0.719-0.114-1.45-0.567-2.134-0.809c-0.6-0.213-1.206-0.409-1.805-0.628
	C19.06,32.109,20.591,30.98,21.666,31.632C21.776,31.698,21.4,31.47,21.666,31.632z M21.162,36.182
	c0.782-0.754,1.834-1.073,2.844-1.393c-0.298,1.229-1.721,2.758-2.926,1.473L21.162,36.182z M20.835,35.506
	c-0.643,0.444-1.286,0.887-1.924,1.338c-0.703,0.497-0.958,0.588-1.75,0.271c-1.136-0.456-2.287-0.89-3.376-1.451
	c0.821-0.597,1.649-1.185,2.464-1.789c1.13-0.836,1.772-0.87,3.083-0.359c0.924,0.36,1.776,0.718,2.64,1.203
	C21.593,34.982,21.214,35.244,20.835,35.506C20.017,36.071,21.158,35.283,20.835,35.506z M3.433,28.464
	c-0.238-0.636-0.408-1.295-0.581-1.951c-0.112-0.423-0.426-1.083-0.34-1.522c0.108-0.55,0.765-0.697,1.207-0.89
	c0.684-0.299,1.367-0.598,2.05-0.899c2.338-1.028,4.734-2.335,7.19-3.058c0.852-0.251,1.487-0.104,2,0.635
	c0.746,1.077,1.258,2.384,1.891,3.533c0.628,1.139,1.297,2.264,1.838,3.448c0.477,1.043,1.141,1.943,1.639,2.973l-0.318,0.23
	c-0.932-1.085-1.553-2.363-2.332-3.562c-0.7-1.079-1.467-2.109-2.241-3.134c-0.822-1.088-1.68-2.531-3.139-2.783
	c-1.508-0.26-3.166,0.74-4.443,1.418c-1.302,0.691-2.566,1.468-3.803,2.27c-0.422,0.273-0.632,0.355-0.464,0.902
	c0.18,0.586,0.419,1.192,0.614,1.78c0.557,1.682,1.296,3.323,1.95,4.97c0.269,0.678,0.593,1.34,0.851,2.019
	c0.24,0.633,0.26,1.283,0.771,1.768c0.518-0.808-1.056-2.537-1.306-3.393c-0.312-1.069,0.815-1.284,1.576-1.608
	c0.858-0.366,1.717-0.731,2.583-1.079c0.702-0.282,1.481-0.716,2.23-0.816c1.419-0.191,3.071,0.859,4.342,1.372l-0.031,0.064
	l1.938,0.199l0.098,0.454c-1.595,0.842-3.193,1.678-4.776,2.542c-1.017,0.555-1.988,1.203-3.034,1.704
	c-0.493,0.236-1.012,0.458-1.544,0.591c-0.414,0.104-0.939-0.006-1.284,0.244c0.336,0.52,1.156,0.09,1.606-0.079
	c0.485-0.182,0.967-0.28,1.473-0.379l-1.625,0.865c0.997,0.636,2.296-1.387,3.297-1.359c0.719,0.021,1.615,0.602,2.29,0.853
	c0.668,0.248,1.298,0.529,1.938,0.838l-0.657,0.396c0.377,0.942,1.674,0.981,2.531,1.215c1.175,0.32,2.349,0.644,3.523,0.968
	c0.835,0.23,1.67,0.459,2.5,0.706c-1.309,1.029-2.385,2.379-4.179,1.811c-2.182-0.691-4.344-1.451-6.51-2.187
	c-2.102-0.714-4.257-1.358-6.328-2.162c0.036-0.224,0.09-0.446,0.139-0.668c-0.52-0.138-1.17,0.23-1.589-0.161
	c-0.33-0.308-0.397-0.995-0.45-1.421c-0.06-0.481-0.19-0.824-0.394-1.274C5.176,32.748,4.242,30.626,3.433,28.464
	C3.195,27.828,3.912,29.745,3.433,28.464z M18.51,30.499c-1.195-0.27-2.265-0.533-3.379-1.058c-1.237-0.583-2.376-0.64-3.656-0.148
	c-1.145,0.441-2.372,1.077-3.585,1.295c-0.331,0.06-0.661-0.133-0.936-0.082c-0.213,0.04-0.572,0.435-0.742,0.564
	c-0.327-0.997-0.665-1.99-0.98-2.99c-0.26-0.826-0.811-1.929-0.039-2.588c1.562-1.335,3.326-2.567,5.355-3.024
	c0.976-0.22,2.005-0.279,2.838,0.368c0.887,0.688,1.566,1.83,2.22,2.731C16.734,27.122,17.73,28.742,18.51,30.499z M1.202,35.193
	c0.82-0.483,1.644-0.959,2.47-1.433c0.475-0.272,1.084-0.847,1.561-0.367c0.418,0.42,0.482,1.737,0.654,2.31
	c0.189,0.629,0.454,1.22,0.698,1.829c-1.057-0.273-2.123-0.513-3.171-0.818C3.025,36.602,0.252,35.753,1.202,35.193
	C2.381,34.499,1.034,35.292,1.202,35.193z M28.787,42.198c-2.038,1.532-4.109,3.021-6.352,4.241l-0.104-2.524
	c-0.48,0.153-0.165,0.893-0.163,1.247c0.003,0.523-0.134,1.155-0.459,1.58c-0.657,0.858-2.108-0.038-2.925-0.304
	c-2.5-0.814-4.996-1.628-7.464-2.536c-2.538-0.934-5.059-1.914-7.585-2.88c-1.186-0.454-1.952-0.731-2.35-1.993
	c-0.305-0.968-0.487-1.88-0.611-2.882c4.986,1.603,9.999,3.142,14.944,4.866c1.636,0.57,3.256,1.186,4.874,1.805
	c0.757,0.289,1.644,0.789,2.472,0.664c1.124-0.169,2.07-1.181,3.043-1.724c0.979-0.546,1.866-0.004,2.856,0.307L28.787,42.198z
	 M28.444,40.596c-0.762,0.091-1.843-0.488-2.568-0.708c-0.873-0.265-1.747-0.528-2.621-0.79c-1.459-0.437-2.994-0.781-4.397-1.375
	c0.395-0.304,0.775-0.671,1.202-0.929c0.674-0.408,0.912,0.01,1.54,0.261c1.269,0.506,2.014-0.611,2.505-1.625
	c0.617-1.274,1.268-1.244,2.549-1.482c0.611-0.113,1.079-0.448,1.657-0.641c0.495-0.165,1.03-0.202,1.536-0.327
	c0.16,1.262,0.161,2.513,0.012,3.778C29.766,37.555,29.478,40.472,28.444,40.596z M31.233,41.11
	c-0.605,0.185-1.177,0.735-1.731,1.054l-0.248-0.337l2.614-2.226C32.024,40.259,31.964,40.886,31.233,41.11
	C30.98,41.187,31.852,40.92,31.233,41.11z M33.617,36.919c-0.987,0.873-1.982,1.736-2.98,2.598
	c-0.451,0.389-0.842,0.844-1.428,0.998c0.694-2.517,1.238-5.096,0.983-7.721c0.759-0.239,2.51-1.193,3.107-0.57
	c0.411,0.429,0.301,1.879,0.365,2.453C33.727,35.239,34.117,36.475,33.617,36.919C32.453,37.949,33.758,36.793,33.617,36.919z
	 M26.943,36.438c-1.289,0.026-2.011,2.367-0.573,2.393C27.537,38.852,27.892,36.413,26.943,36.438z M27.224,37.042
	c0.104,0.311,0.186,0.719-0.004,1.013c-0.234,0.362-0.864,0.514-1.185,0.17c-0.279-0.299-0.147-0.867,0.174-1.071
	C26.492,36.976,26.913,37.086,27.224,37.042z M28.814,34.027l0.463,0.635C28.728,34.855,28.351,34.448,28.814,34.027z
	 M38.516,25.363c0.791,0,0.146,2.274,0.355,2.767c0.628,1.479,2.297,0.597,2.956-0.317c0.348,1.016,1.45,1.324,2.399,0.961
	c0.272-0.104,0.522-0.263,0.747-0.447c0.077-0.07,0.154-0.14,0.23-0.211c0.094-0.25,0.238-0.306,0.432-0.17
	c0.569-0.051,0.957,0.112,1.509-0.237c0.26,1.005,1.441,1.489,2.378,1.082c-0.041,0.506-1.525,0.524-1.934,0.656
	c-0.647,0.209-1.344,0.557-1.641,1.209c-0.702,1.545,0.979,2.839,2.375,2.117c0.672-0.348,1.125-1.044,1.461-1.696
	c0.252-0.489,0.317-0.978,0.775-1.237c0.376-0.213,0.802-0.332,1.176-0.563c0.187-0.116,0.377-0.319,0.578-0.405
	c0.636-0.269-0.01-0.009,0.419-0.012c0.48-0.003,0.578-0.013,0.817-0.475c0.43-0.829,0.67-1.829,0.985-2.707
	c0.593,0.471,1.575-1.024,1.657,0.236c0.058,0.893-0.518,1.943,0.266,2.673c1.566,1.458,3.331-1.534,3.692-2.711
	c0.296-0.964-0.657-1.076-1.057-0.282c-0.339,0.673-0.647,1.63-1.304,2.073c-0.939,0.633-0.621-0.756-0.572-1.254
	c0.069-0.696,0.133-1.58-0.609-1.96c0.647-0.589,1.636-1.199,2.114-1.925c0.197-0.3,0.255-0.695-0.151-0.877
	c-0.488-0.219-0.939,0.41-1.246,0.69c-0.784,0.714-1.573,1.422-2.36,2.133c0.502-1.407,1.207-2.882,1.543-4.346
	c0.162-0.707-0.479-1.292-0.96-0.537c-0.095,0.149-0.134,0.381-0.192,0.547c-0.425,1.202-0.855,2.402-1.284,3.603
	c-0.677,1.892-1.386,3.962-3.349,4.876c0.53-1.511,1.044-3.027,1.611-4.525c0.194-0.512,0.612-1.19,0.669-1.736
	c0.074-0.712-0.63-0.997-1.017-0.378c-0.383,0.613-0.575,1.496-0.828,2.18c-0.422,1.141-0.791,2.566-1.74,3.4
	c-0.295,0.259-0.74,0.46-1.088,0.128c-0.393-0.374-0.056-1.142,0.09-1.546c0.339-0.938,0.696-1.869,1.035-2.807
	c0.109-0.301,0.301-0.648,0.349-0.965c0.108-0.705-0.562-1.022-0.986-0.424c-0.793,1.117-0.969,5.147-2.81,4.98
	c0.699-1.569,0.702-4.844-1.92-4.05c0.747-0.965,1.853-0.944,2.824-1.54c0.398-0.244,1.955-2.111,0.61-2.083
	c-0.461,0.01-0.515,0.521-0.748,0.814c-0.239,0.299-0.552,0.434-0.9,0.563c-1.026,0.378-1.901,0.644-2.599,1.541
	c-1.211,1.557-1.147,3.715-2.47,5.208c-0.166,0.188-0.521,0.584-0.813,0.446c-0.334-0.158-0.109-0.855-0.08-1.134
	c0.079-0.758,0.257-1.809-0.578-2.237c0.647-0.589,1.636-1.199,2.114-1.925c0.197-0.299,0.254-0.695-0.151-0.877
	c-0.488-0.219-0.941,0.411-1.247,0.691c-0.783,0.714-1.572,1.422-2.359,2.132c0.342-0.96,0.683-1.922,1.024-2.883
	c0.178-0.501,0.533-1.119,0.584-1.646c0.076-0.793-0.712-0.908-1.054-0.274c-0.153,0.284-0.228,0.648-0.336,0.951
	c-0.652,1.838-1.142,3.896-2.109,5.585c-0.386,0.674-0.914,1.377-1.703,1.584c-0.982,0.258-2.021-0.443-1.564-1.552
	c0.16-0.389,0.372-0.346,0.788-0.486c0.374-0.126,0.744-0.272,1.097-0.448c0.709-0.354,1.47-0.848,1.801-1.602
	c0.357-0.815,0.115-1.754-0.802-2.011c-0.994-0.279-1.889,0.397-2.483,1.122c-0.736,0.899-1,1.956-1.485,2.979
	c-0.214,0.452-0.825,2.135-1.534,2.059c-1.089-0.117,0.824-4.858,1.039-5.445c0.45-1.226,0.947-2.445,1.348-3.687
	c0.225-0.698-0.257-1.488-0.89-0.674c-0.419,0.54-0.596,1.596-0.83,2.242c-0.151,0.416-0.306,1.24-0.614,1.488
	c0.082,0.851-0.963,2.144-1.607,2.642c-0.421,0.326-0.984,0.584-1.53,0.526c-1.182-0.126-0.733-1.677-0.525-2.439
	c0.164-0.6,0.365-1.19,0.58-1.773c0.097-0.265,0.172-0.641,0.371-0.812c0.136-0.117,0.503-0.17,0.666-0.241
	c0.74-0.321,1.935-1.164,1.164-2.084c-0.387-0.462-1.075-0.437-1.549-0.144c-0.227,0.14-0.419,0.351-0.582,0.56
	c-0.193,0.246-0.35,0.868-0.571,1.018c-0.417,0.282-1.618,0.242-2.117,0.334c-0.947,0.174-1.945,0.397-2.764,0.929
	c-0.95,0.618-1.448,1.712-1.092,2.83c0.182,0.571,0.6,1.066,1.167,1.281c0.432,0.164,1.183,0.244,1.241-0.402
	c0-0.54-0.435-0.441-0.77-0.583c-0.436-0.184-0.692-0.542-0.673-1.033c0-1.881,3.264-1.997,4.562-2.206
	c-0.516,1.36-1.442,3.43-0.73,4.873c0.709,1.436,2.66,1.097,3.69,0.246c-0.277,0.909-0.849,2.723,0.142,3.428
	c0.912,0.649,2.046-0.232,2.556-0.965c0.61,1.385,2.436,1.409,3.57,0.697c0.028,0.202,0.184,0.376,0.373,0.444
	c0.905,0.246,1.499-2.612,1.72-3.226C37.755,26.073,38.067,25.363,38.516,25.363z M47.461,31.922
	c-0.331,0.013-0.583-0.219-0.585-0.553c0.081-0.922,1.489-0.997,2.148-1.134C48.702,31.068,48.196,31.908,47.461,31.922z
	 M42.777,26.747c0.064-0.92,0.354-2.062,1.158-2.623c0.918-0.641,1.549,0.043,1.443,1.04c-0.427-0.46-0.872,0.062-0.973,0.486
	c-0.116,0.49-0.047,1.095,0.203,1.535C43.928,28.047,42.681,28.092,42.777,26.747C42.893,25.067,42.748,27.158,42.777,26.747z
	 M34.923,22.708c0.611,0,0.358,0.552,0.103,0.866c-0.463,0.57-1.302,0.882-1.967,1.12C33.655,23.441,34.335,22.708,34.923,22.708z
	 M28.161,18.295c-0.049,0.065-0.145,0.152-0.277,0.238C27.991,18.408,28.089,18.328,28.161,18.295z M67.349,26.115h-3.782
	c-0.088-0.894,1.246-1.417,2.014-1.417c1.242,0,2.484,0,3.726,0c-0.417,0.203-0.874,0.375-1.268,0.618
	C67.652,25.556,67.579,25.689,67.349,26.115z M50.566,45.325c-0.044,0.279-0.099,0.719,0.158,0.924
	c0.242,0.191,0.588,0.041,0.81,0.283c0.731,0.797-0.632,0.993-1.132,0.779c-1.398-0.599-0.907-2.349-0.58-3.465
	c0.782-2.671,2.003-5.223,2.688-7.92c0.097-0.382,0.37-1.422-0.144-1.554c-0.811-0.209-1.688,1.81-1.971,2.343
	c-0.703,1.324-1.337,2.686-1.961,4.048c-0.272,0.593-0.54,1.187-0.806,1.783c-0.213,0.476-0.408,1.394-0.8,1.721
	c-0.263,0.219-0.629,0.212-0.829-0.08c-0.213-0.312-0.011-0.602,0.109-0.9c0.268-0.662,0.593-1.304,0.878-1.959
	c0.647-1.486,1.273-3.006,1.656-4.584c0.125-0.517,0.467-1.563,0.237-2.087c-0.276-0.631-0.91-0.022-1.195,0.335
	c-0.886,1.11-1.509,2.523-2.188,3.763c-1.143,2.088-3.505,7.168-6.656,5.318c-1.391-0.817-1.347-2.719-0.253-3.773
	c0.498-0.479,1.195-0.784,1.895-0.68c0.816,0.121,1.153,1.055,0.165,1.148c-0.391,0.037-0.568-0.16-0.991,0.073
	c-0.37,0.204-0.656,0.584-0.761,0.992c-0.234,0.916,0.507,1.568,1.401,1.497c1.789-0.142,2.98-2.809,3.735-4.147
	c0.58-1.027,1.139-2.066,1.721-3.092c0.423-0.745,0.829-1.633,1.481-2.21c0.545-0.482,1.358-0.819,2.056-0.442
	c0.742,0.4,0.716,1.345,0.608,2.068c0.554-1.059,1.76-2.956,3.218-2.029c1.15,0.731,0.402,2.723,0.1,3.719
	C52.404,39.877,51.001,42.544,50.566,45.325C50.498,45.75,50.679,44.603,50.566,45.325z M102.857,40.548
	c-0.844-0.356-1.448,1.912-1.896,2.391c-0.347,0.371-0.783,0.65-0.89,0.04c-0.103-0.587,0.351-1.486,0.535-2.014
	c0.299-0.859,0.621-1.71,0.937-2.563c0.084-0.226,0.305-0.611,0.264-0.868c-0.135-0.836-0.931-0.4-1.124,0.094
	c-0.958-1.029-2.334-0.314-3.057,0.563c-0.868,1.053-1.132,2.365-1.738,3.552c-0.208,0.408-1.369,2.398-1.67,1.201
	c-0.238-0.948,0.733-2.357-0.506-2.992c0.647-0.589,1.636-1.199,2.114-1.925c0.197-0.299,0.254-0.695-0.151-0.877
	c-0.488-0.219-0.941,0.411-1.247,0.691c-0.783,0.714-1.572,1.422-2.359,2.132c0.487-1.367,1.01-2.728,1.458-4.108
	c0.14-0.432,0.338-1.286-0.477-1.122c-0.335,0.068-0.379,0.328-0.483,0.586c-0.326,0.806-0.584,1.647-0.876,2.465
	c-0.328,0.918-0.644,1.842-0.986,2.755c-0.234,0.625-0.603,1.698-1.367,1.859c0.317-0.986,0.434-2.564-0.677-3.112
	c0.941-0.872,2.185-2.479,1.484-3.853c-0.561-1.1-1.924-0.782-2.615-0.026c-1.065,1.163-1.675,3.009-2.161,4.483
	c-0.221,0.671-0.945,3.224-2.138,2.415c0.611-1.09,1.424-2.85,0.947-4.123c-0.509-1.36-2.137-1.248-3.048-0.394
	c-1.228,1.152-1.583,2.94-2.369,4.37c-0.133,0.242-0.511,1.147-0.876,1.181c-0.35,0,0.371-2.554,0.449-2.871
	c0.209-0.848,0.627-2.241-0.069-2.993c-0.983-1.063-1.977,0.35-2.397,1.155c-0.528,1.012-0.932,2.085-1.388,3.129
	c-0.1,0.228-0.692,1.8-1.002,1.492c-0.369-0.367,0.358-1.631,0.401-2.014c0.04-0.362-0.058-0.777-0.54-0.741
	c-0.53,0.04-0.665,0.788-0.874,1.154c-0.39,0.685-0.932,1.412-1.735,1.626c-0.988,0.264-1.7-0.27-1.596-1.299
	c0.051-0.503,0.096-0.458,0.503-0.633c0.338-0.145,0.704-0.23,1.044-0.378c0.684-0.296,1.398-0.684,1.868-1.279
	c1.368-1.732-0.619-3.293-2.251-2.1c-1.806,1.321-1.708,3.773-3.144,5.331c-0.319,0.346-0.787,0.686-0.898,0.049
	c-0.102-0.585,0.343-1.458,0.526-2.003c0.199-0.594,0.422-1.18,0.637-1.768c0.145-0.398,0.469-0.966,0.51-1.382
	c0.051-0.516-0.428-0.996-0.903-0.561c-0.178,0.163-0.245,0.539-0.321,0.746c-0.57,1.549-0.999,3.465-2.029,4.787
	c-0.167,0.214-0.675,0.78-0.988,0.507c-0.147-0.128-0.043-0.582-0.012-0.761c0.205-1.171,0.764-2.338,1.166-3.447
	c0.142-0.392,0.582-1.105,0.494-1.526c-0.132-0.63-0.741-0.521-1.035-0.124c-0.254,0.342-0.371,1.003-0.523,1.414
	c-0.268,0.726-0.527,1.456-0.818,2.173c-0.274,0.673-0.557,1.532-1.118,2.026c-0.401,0.353-0.796,0.457-0.822-0.166
	c-0.03-0.699,0.397-1.52,0.621-2.155c0.161-0.455,0.325-0.909,0.489-1.363c0.172-0.475,0.829-1.573,0.506-2.042
	c-0.784-1.14-1.537,1.71-1.691,2.134c-0.363,0.999-0.692,2.005-1.255,2.916c-0.233,0.378-1.321,1.641-1.296,0.476
	c0.028-1.32,0.855-2.812,1.286-4.023c0.131-0.367,0.837-2.167-0.366-1.655c-0.411,0.175-0.596,1.076-0.786,1.431
	c-0.256,0.481-0.558,0.949-0.966,1.315c-0.31-1.261-1.973-1.771-2.831-0.699c-0.963,1.203,0.28,2.477,1.566,2.357
	c-0.315,0.726-1.32,2.179-2.304,1.685c-0.88-0.442-0.137-2.176,0.084-2.829c0.144-0.425,0.296-0.847,0.445-1.27
	c0.144-0.405,0.601-1.174,0.509-1.589c-0.134-0.606-0.761-0.501-1.035-0.096c-0.117,0.173-0.172,0.45-0.246,0.646
	c-0.569,1.49-2.324,4.93-0.338,6.059c0.85,0.484,1.864,0.159,2.575-0.415c0.433-0.349,0.789-0.799,1.062-1.282
	c0.218-0.386,0.326-1.164,0.679-1.382c-0.258,0.834-0.738,2.079-0.114,2.861c0.678,0.848,1.854,0.367,2.457-0.298
	c0.484,1.192,1.939,0.748,2.616,0.02c0.488,1.188,1.96,0.712,2.62-0.016c0.624,1.515,2.326,0.457,2.931-0.414
	c0.758,1.716,3.078,1.285,4.182,0.211c0.394,1.557,1.876,0.9,2.443-0.04c0.916-1.52,1.221-3.42,2.228-4.876
	c0.342-0.494,0.453-0.331,0.453,0.265c-0.001,1.002-0.452,2.012-0.667,2.98c-0.169,0.761-0.45,1.97,0.365,2.469
	c0.796,0.487,1.544-0.202,1.983-0.813c0.354,1.146,1.663,1.133,2.515,0.57c0.25-0.166,0.429-0.418,0.671-0.583
	c0.395-0.271,0.279-0.145,0.712-0.02c0.643,0.186,1.305,0.017,1.802-0.426c0.265,0.962,1.172,1.506,2.144,1.414
	c0.417-0.04,0.826-0.183,1.172-0.421c0.145-0.099,0.41-0.462,0.553-0.522c0.212-0.089,0.624,0.037,0.875-0.031
	c-0.156,0.352-0.204,0.799,0.25,0.962c0.908,0.241,1.498-2.609,1.72-3.226c0.558,0.444,1.155-0.715,1.598-0.16
	c0.312,0.391-0.13,1.614-0.1,2.078c0.12,1.85,2.161,1.414,2.991,0.324c0.485,1.505,2.127,1.046,2.948,0.132
	c0.454,1.495,2.164,0.774,2.844-0.077C102.285,43.017,103.752,40.996,102.857,40.548z M71.566,38.207
	c0.611,0,0.358,0.552,0.103,0.865c-0.463,0.57-1.302,0.882-1.967,1.121C70.297,38.94,70.978,38.207,71.566,38.207z M55.993,40.524
	c-0.445,0-0.703-0.463-0.275-0.732c0.482-0.302,0.839,0.231,0.848,0.662C56.38,40.501,56.195,40.524,55.993,40.524z M82.845,40.614
	c-0.562-0.458-0.885,0.248-0.941,0.689c-0.032,0.253,0.036,0.507,0.012,0.752c-0.04,0.409-0.213,0.638-0.569,0.934
	c-1.054,0.876-1.22-0.147-1.062-1.073c0.188-1.104,0.797-2.847,1.773-3.498C83.612,37.383,83.093,39.953,82.845,40.614
	C82.751,40.537,83.082,39.984,82.845,40.614z M87.75,37.042c0.18-0.349,0.528-1.139,0.987-1.225
	c0.511-0.096,0.534,0.404,0.475,0.799c-0.19,1.276-1.497,2.26-2.546,2.823C86.96,38.677,87.329,37.857,87.75,37.042
	C88.176,36.216,87.329,37.857,87.75,37.042z M88.047,40.495c-1.041,0-0.607,1.993-0.211,2.431c-0.535,0.534-1.584,0.64-1.869-0.189
	c-0.257-0.749,0.2-1.875,0.435-2.571c0.398,0.851,1.803-0.608,2.046,0.519C88.349,40.564,88.203,40.495,88.047,40.495z
	 M97.413,43.352c-0.712,0,0.27-5.419,2.113-5.133c1.122,0.175,0.243,1.719,0.013,2.281C99.204,41.322,98.543,43.352,97.413,43.352z"
	/>
</svg>
