<?xml version="1.0" encoding="utf-8"?>
<!-- Generator: Adobe Illustrator 19.2.1, SVG Export Plug-In . SVG Version: 6.00 Build 0)  -->
<svg version="1.1" id="Слой_1" xmlns="http://www.w3.org/2000/svg" xmlns:xlink="http://www.w3.org/1999/xlink" x="0px" y="0px"
	 width="115px" height="48px" viewBox="0 0 115 48" enable-background="new 0 0 115 48" xml:space="preserve">
<path fill="#402E20" d="M73.023,39.964c-0.128,0.256-0.801,1.044-0.749,1.124c-0.847,0.329-1.895,0.747-2.731,0.457
	c-0.253-0.088-0.317-0.281-0.602-0.33c-0.28-0.048-0.389,0.046-0.724,0.138c-0.268,0.073-0.631,0.184-0.875-0.05
	c-0.241-0.231-0.106-0.799-0.047-1.017c0.07-0.257,0.098-0.417,0.108-0.649c0.009-0.217-0.212-0.587,0.187-0.636
	c0.137-0.017,0.338,0.303,0.401,0.375c0.152,0.172,0.388,0.355,0.593,0.545c0.195,0.18,0.339,0.311,0.54,0.478
	c0.05,0.041,0.207,0.059,0.233,0.074c0.069,0.041,0.028,0.164,0.201,0.241c0.287,0.127,0.519-0.026,0.656-0.047
	c0.187-0.028,0.447,0.093,0.634,0.083c0.513-0.027,1.246-0.367,0.998-0.973c0.292,0.061,0.359-0.054,0.392-0.262
	c0.059-0.38-0.23-0.441-0.436-0.625c-0.346-0.309-0.638-0.395-0.999-0.666c0.611-0.329,0.834,0.079,1.392,0.08
	c-0.027,0.018-0.054,0.036-0.08,0.054C72.905,38.632,73.023,39.231,73.023,39.964z M67.589,36.511
	c0.456,0.245,1.187-0.734,0.87-0.91C68.028,35.361,67.617,36.285,67.589,36.511z M67.696,37.581c0.125,0.052,0.294,0.055,0.428,0.08
	c0.079-0.338-0.145-0.488-0.348-0.723C67.629,37.125,67.537,37.382,67.696,37.581z M34.798,40.098
	c0.047-0.612,0.13-1.206-0.428-1.606c-0.124,0.176-0.282,0.341-0.284,0.526c-0.001,0.122,0.214,0.263,0.203,0.384
	c-0.008,0.096-0.176,0.173-0.201,0.268c-0.081,0.303-0.201,0.271-0.201,0.642c0,0.211,0.461,0.333,0.017,0.658
	c-0.083,0.061-0.318-0.019-0.446,0.032c-0.155,0.061-0.268,0.34-0.427,0.327c-0.186-0.015-0.173-0.252-0.309-0.321
	c-0.151-0.077-0.554-0.097-0.735-0.161c0.347-0.319-0.041-0.51-0.294-0.75c0.176-0.086,0.273-0.218,0.312-0.39
	c0.052-0.23-0.135-0.334-0.125-0.44c0.022-0.227,0.214-0.2,0.197-0.489c-0.029-0.502-0.568-0.497-0.656-0.025
	c-0.03,0.16,0.174,0.319,0.195,0.487c0.029,0.228-0.113,0.2-0.11,0.416c0.004,0.328,0.231,0.45,0.204,0.71
	c-0.047,0.443-0.548,0.528-0.82,0.744c-0.8,0.635,0.559,0.729,0.642,0.218c0.089,0.063,0.223,0.132,0.294,0.214
	c-0.027,0.018-0.054,0.036-0.08,0.054c1.088-0.018,2.289,0.013,3.306,0.021c0.348,0.003,0.529,0.171,0.714-0.13
	c0.186-0.302,0.032-0.532-0.246-0.614c-0.062-0.018-0.316,0.236-0.526,0.111C34.823,40.883,34.833,40.327,34.798,40.098z
	 M28.99,35.681c-0.356-0.089-1.899-0.501-1.395,0.408c0.257,0.464,0.713,0.072,0.996,0.209c0.407,0.199,0.315,0.629,0.241,0.905
	c-0.039,0.146-0.175,0.303-0.168,0.467c0.006,0.155,0.15,0.24,0.176,0.392c0.057,0.333,0.004,0.66-0.064,0.971
	c-0.092,0.421-0.021,0.707-0.058,1.124c-0.02,0.227-0.155,0.869-0.477,0.609c-0.185,0.109-0.74,0.383-0.883,0.241
	c0.017,0.159,0.014,0.224,0.08,0.363c0.199,0.417-0.06,0.15,0.271,0.278c0.114,0.044,0.363-0.009,0.497,0.021
	c0.22,0.05,0.241,0.183,0.438,0.194c0.227,0.014,0.788-0.1,1.031-0.161c0.302-0.075,0.573-0.125,0.352-0.564
	c-0.139-0.277-0.44-0.269-0.559-0.545c-0.124-0.289-0.079-0.983-0.047-1.312c0.016-0.169,0.13-0.351,0.119-0.518
	c-0.011-0.17-0.17-0.304-0.193-0.472c-0.037-0.266,0.252-0.626,0.126-0.818c0.31-0.163,0.702-1.37,1.231-1.017
	c0.007-0.359,0.423-0.136,0.635-0.022c0.369,0.198,0.217,0.055,0.356,0.468c0.008,0.024,0.089,0.166,0.088,0.186
	c-0.019,0.325,0.011,0.034-0.07,0.33c-0.042,0.153-0.273,0.141-0.282,0.296c-0.006,0.109,0.206,0.355,0.264,0.456
	c-0.011,0.001,0.294-0.057,0.348-0.08c-0.064-0.805,0.053-0.542,0.514-1.107c0.201-0.247,0.103-0.694,0.544-0.74
	c0.322-0.033,0.902,0.404,1.091,0.66c0.166,0.224,0.348,1.089,0.1,1.187c0.515,0.374,0.507-0.271,0.642-0.803
	c0.018,0.018,0.036,0.036,0.054,0.053c0.054-0.525-0.124-1.329-0.56-1.596c-0.532-0.325-1.482-0.191-1.689,0.445
	c-0.41-0.447-0.561,0.39-0.99-0.054c0.027-0.027,0.054-0.054,0.08-0.08c-0.094-0.047-0.196-0.099-0.294-0.134
	c0.086-0.053,0.057-0.025,0.054-0.107c-0.025,0.025-0.05,0.05-0.074,0.075c-0.155-0.546-0.93-0.458-1.316-0.218
	c-0.251,0.156-0.15,0.48-0.572,0.489C29.405,36.165,29.165,35.839,28.99,35.681z M48.022,35.681
	c-0.268,1.115-1.489-0.35-2.192-0.247c-0.456,0.067-0.578,0.44-0.262,0.735c0.39,0.365,0.658-0.053,1.022,0.315
	c0.502,0.507-0.095,0.67-0.073,1.187c0.016,0.381,0.269,0.647,0.193,1.12c-0.061,0.383-0.205,0.665-0.183,1.092
	c0.011,0.219-0.001,1.259-0.46,0.884c-0.143,0.102-0.722,0.378-0.857,0.241c0.017,0.159,0.014,0.224,0.08,0.363
	c0.16,0.336-0.034,0.178,0.271,0.278c0.125,0.041,0.4,0.027,0.531,0.053c0.088,0.018,0.15,0.176,0.238,0.191
	c0.095,0.015,0.151-0.08,0.246-0.082c0.518-0.01,1.747,0.028,1.256-0.74c-0.154-0.241-0.41-0.201-0.513-0.476
	c-0.116-0.31-0.079-0.978-0.047-1.312c0.016-0.164,0.134-0.357,0.119-0.518c-0.015-0.171-0.188-0.302-0.213-0.472
	c-0.04-0.266,0.268-0.625,0.147-0.818c0.283-0.196,0.72-1.358,1.231-1.017c0.042-0.344,0.377-0.158,0.632-0.022
	c0.338,0.181,0.194,0.065,0.358,0.399c-0.001-0.001,0.068,0.265,0.068,0.255c0.04,0.066,0.079,0.132,0.119,0.198
	c-0.057,0.044-0.113,0.088-0.17,0.132c-0.036,0.149-0.273,0.144-0.282,0.296c-0.006,0.109,0.206,0.355,0.264,0.456
	c0.291-0.017,0.205-0.128,0.301-0.334c0.174-0.372-0.077-0.253,0.201-0.588c0.14-0.169,0.336-0.283,0.422-0.416
	c0.047-0.073,0.146-0.532,0.228-0.589c0.672-0.472,2.124,1.355,1.445,1.847c0.515,0.374,0.507-0.271,0.642-0.803
	c0.018,0.018,0.036,0.036,0.054,0.054c0.06-0.52-0.147-1.343-0.56-1.596c-0.554-0.339-1.462-0.178-1.716,0.445
	c-0.355-0.416-0.537,0.331-0.99-0.054c0.036-0.027,0.071-0.054,0.107-0.08c-0.103-0.028-0.193-0.102-0.294-0.134
	c0.027-0.018,0.054-0.036,0.08-0.054c-0.018-0.018-0.036-0.036-0.054-0.054c-0.017,0.025-0.033,0.05-0.05,0.075
	C49.153,35.276,48.457,35.528,48.022,35.681z M69.918,35.413c-0.31,0-0.947-0.182-1.097,0.134c0.254,0,0.583-0.063,0.83,0
	c0.239,0.061,0.42,0.32,0.66,0.288c1.035-0.139-0.177-0.485-0.259-0.555C70.007,35.324,69.962,35.369,69.918,35.413z M51.796,41.677
	c0.276,0,0.554,0.011,0.83,0c0.13-0.005,0.658,0.04,0.774-0.006c0.19-0.075,0.385-0.364,0.264-0.608
	c-0.141-0.285-0.285-0.045-0.416-0.056c-0.603-0.051-0.604-0.326-0.616-0.962c-0.012-0.622,0.187-1.128-0.407-1.554
	c-0.134,0.176-0.308,0.34-0.306,0.526c0.001,0.125,0.232,0.26,0.226,0.384c-0.005,0.094-0.177,0.175-0.201,0.268
	c-0.076,0.301-0.201,0.273-0.201,0.642c0,0.214,0.459,0.328,0.017,0.658c-0.088,0.066-0.339-0.024-0.473,0.032
	c-0.151,0.063-0.254,0.334-0.4,0.327c-0.185-0.009-0.179-0.254-0.313-0.321c-0.155-0.078-0.571-0.094-0.758-0.161
	c0.375-0.318,0.007-0.49-0.268-0.75c0.164-0.092,0.25-0.222,0.285-0.39c0.042-0.2-0.11-0.341-0.098-0.44
	c0.025-0.213,0.216-0.234,0.197-0.489c-0.036-0.497-0.567-0.503-0.656-0.025c-0.03,0.16,0.174,0.319,0.195,0.487
	c0.029,0.232-0.111,0.192-0.11,0.416c0.001,0.308,0.212,0.458,0.18,0.71c-0.059,0.46-0.509,0.516-0.796,0.744
	c-0.799,0.635,0.559,0.729,0.642,0.218c0.082,0.038,0.235,0.146,0.294,0.214c-0.036,0.018-0.071,0.036-0.107,0.054
	C50.315,41.593,51.056,41.643,51.796,41.677z M63.654,34.021c-0.274,0.129-0.579,0.217-0.646,0.554
	c-0.064,0.32,0.074,0.532,0.325,0.223c0.312,0.345-0.832,0.591,0.138,1.035c0.359,0.164,1.145,0.046,1.027,0.558
	c-0.115,0.496-1.099,0.713-1.351,1.195c-0.277,0.531-0.051,0.521,0.454,0.398c0.54-0.132,0.214-0.087,0.669-0.428
	c0.205-0.153,0.339-0.042,0.522-0.294c0.211-0.292,0.621-1.272,0.683-1.603c0.107-0.57-0.051-1.301-0.569-1.644
	C64.563,33.786,63.924,33.552,63.654,34.021z M72.193,35.413c-0.37,0.296-0.044,0.525,0.294,0.562
	c-0.077,0.02-0.117,0.063-0.214,0.08c0.045,0.072,0.146,0.191,0.214,0.241C72.498,35.96,72.704,35.348,72.193,35.413z
	 M72.273,36.885c-0.071,0.129,0.068,0.246,0.241,0.375C72.523,37.085,72.436,36.948,72.273,36.885z M71.631,35.922
	c-0.015-0.007,0.016,0.075,0.214,0C71.774,35.922,71.702,35.922,71.631,35.922z M68.686,38.117c0.353,0.203,0.65,0.015,0.964,0.187
	c-0.027,0.018-0.054,0.036-0.08,0.054c0.389,0.021,0.746-0.383,1.124-0.054c-0.03-0.445-1.553-0.455-1.981-0.509
	C68.705,37.89,68.669,38.024,68.686,38.117z M60.255,41.57c0.448,0.217,1.224,0.013,1.429-0.43c0.293-0.635-0.069-1.025-0.577-0.675
	c-0.268,0.184-0.094,0.44-0.576,0.33c-0.392-0.09-0.302-0.199-0.38-0.51c-0.06-0.243-0.089-0.632-0.058-0.882
	c0.014-0.114,0.2-0.207,0.214-0.321c0.004-0.034-0.103-0.303-0.106-0.395c-0.013-0.575,0.05-1.061-0.021-1.637
	c-0.093-0.748,0.135-1.037-0.664-1.42c-0.255-0.122-0.397-0.061-0.614-0.095c-0.067-0.01-0.336-0.068-0.392-0.072
	c-0.081-0.005-0.218,0.078-0.286,0.068c-0.371-0.052-0.483-0.177-0.872-0.103c-0.54,0.103-0.965,0.032-1.46,0.324
	c-0.634,0.374-0.596,0.625-0.43,1.255c0.101,0.381-0.037,0.393,0.372,0.344c0.246-0.029,0.576-0.159,0.511-0.438
	c-0.082-0.355-0.313,0.033-0.442-0.147c-0.159-0.224,0.114-0.443,0.293-0.609c0.413-0.381,0.946-0.517,1.535-0.422
	c0.359,0.058,0.921,0.1,1.218,0.209c0.589,0.218,1.091,0.583,0.955,1.21c-0.097,0.443-0.675,0.847-1.123,0.829
	c-0.141-0.005-0.318-0.21-0.455-0.187c-0.079,0.013-0.063,0.304-0.174,0.321c-0.228,0.035-0.603-0.303-0.731,0.137
	c-0.143,0.49,1.047,0.084,1.302,0.064c0.127-0.01,0.766-0.132,0.826-0.118c0.317,0.074,0.184,0.143,0.207,0.361
	c0.008,0.075-0.125,0.209-0.136,0.298c-0.027,0.199,0.11,0.418,0.1,0.619c-0.014,0.278-0.171,0.51-0.241,0.807
	c-0.195-0.188-0.346,0.01-0.566,0.109c-0.152,0.068-0.307,0.087-0.469,0.159c-0.197,0.087-0.42,0.157-0.608,0.241
	c-0.144,0.065-0.406,0.268-0.552,0.294c0.032-0.006-0.543-0.13-0.562-0.134c-0.213-0.042-0.464-0.097-0.659-0.189
	c-0.5-0.238-1.017-0.62-0.737-1.248c0.164-0.368,0.818-0.801,1.214-0.918c0.145-0.043,0.477,0.191,0.572-0.084
	c0.083-0.24-0.258-0.285-0.462-0.286c-0.091,0-0.492,0.176-0.611,0.204c-0.155,0.036-0.357,0.026-0.501,0.092
	c-0.145,0.067-0.015,0.107-0.101,0.199c-0.081,0.087-0.104,0.26-0.228,0.381c-0.161,0.158-0.438,0.274-0.576,0.482
	c0.277,0.167,0.113,0.423,0,0.669c0.203,0.071,0.509,0.706,0.83,0.921c0.353,0.237,0.814,0.369,1.257,0.377
	c0.389,0.007,0.836-0.001,1.224-0.042c0.359-0.037,1.016-0.656,1.185-0.427c0.161-0.196,0.321-0.393,0.482-0.589
	C59.883,40.751,60.057,41.251,60.255,41.57z M36.806,40.258c0.215,0.12,0.455,0.687,0.804,0.921
	c0.357,0.239,0.822,0.369,1.271,0.377c0.387,0.007,0.844,0.004,1.228-0.042c0.343-0.04,1.03-0.645,1.167-0.427
	c0.161-0.196,0.321-0.393,0.482-0.589c0.464,0.317,0.319,1.144,1.044,1.178c0.619,0.029,1.2-0.399,1.084-1.017
	c-0.172-0.919-0.636,0.075-1.004,0.134c-0.737,0.119-0.696-0.852-0.64-1.357c0.011-0.103,0.145-0.175,0.156-0.272
	c0.014-0.122-0.085-0.187-0.074-0.301c0.03-0.308,0.092-0.609,0.103-0.92c0.015-0.429,0.037-1.331-0.107-1.718
	c-0.2-0.539-0.82-0.61-1.271-0.691c-0.368-0.066-0.75-0.056-1.091-0.1c-0.114-0.015-0.37-0.055-0.555-0.001
	c-0.137,0.04-0.287,0.141-0.429,0.158c-0.127,0.016-0.251-0.129-0.377-0.11c-0.462,0.068-1.137,0.549-1.135,0.997
	c0,0.046,0.15,0.839,0.17,0.859c0.111,0.116,0.609,0.022,0.747-0.123c0.517-0.548-0.518-0.223-0.297-0.753
	c0.193-0.463,0.735-0.668,1.185-0.726c0.316-0.04,0.653,0.029,0.925,0.067c0.215,0.03,0.622-0.002,0.851,0.067
	c0.353,0.107,1.083,0.617,1.077,1.08c-0.007,0.574-0.616,0.992-1.152,0.995c-0.077,0-0.345-0.139-0.424-0.118
	c-0.104,0.027-0.133,0.278-0.205,0.292c-0.31,0.061-0.44-0.29-0.698,0.082c-0.367,0.529,0.911,0.16,1.165,0.136
	c0.433-0.041,1.069-0.261,1.133,0.162c0.013,0.089-0.16,0.258-0.172,0.362c-0.02,0.172,0.107,0.364,0.104,0.538
	c-0.006,0.343-0.172,0.517-0.247,0.888c-0.192-0.18-0.383,0.042-0.616,0.134c-0.126,0.05-0.328,0.072-0.482,0.134
	c-0.124,0.05-0.239,0.187-0.358,0.241c-0.087,0.039-0.211-0.008-0.305,0.031c-0.12,0.049-0.235,0.203-0.36,0.233
	c-0.116,0.028-0.115-0.103-0.208-0.103c-1.009,0.001-2.524-0.693-1.487-1.756c0.2-0.205,0.381-0.386,0.641-0.497
	c0.26-0.111,0.554,0.003,0.699-0.116c0.561-0.46-0.779-0.191-0.948-0.151c-0.168,0.04-0.422,0.02-0.573,0.103
	c-0.112,0.061,0.027,0.164-0.045,0.249c-0.067,0.079-0.104-0.034-0.161,0.08c-0.051,0.102-0.027,0.26-0.117,0.36
	c-0.228,0.255-0.33,0.178-0.432,0.43C36.844,39.728,36.869,40.094,36.806,40.258z M52.92,44.862c0.183,0.322,0.63,0.382,0.964,0.294
	c0.18-0.047,0.746-0.347,0.321-0.509c-0.284-0.108-0.652,0.605-1.017,0.187c-0.021-0.024-0.061-0.484-0.027-0.535
	c0.361-0.542,0.944,0.32,0.964-0.134C54.159,43.372,52.097,43.938,52.92,44.862z M28.883,44.059c-0.47-0.856-1.983,0.265-1.071,0.99
	c0.211,0.168,0.674,0.195,0.923,0.094c0.192-0.078,0.647-0.462,0.167-0.495c-0.291-0.02-0.649,0.621-0.997,0.147
	c0.035,0.048,0.013-0.529,0.027-0.549c0.237-0.339,0.424-0.083,0.602-0.027C28.671,44.263,29.085,44.477,28.883,44.059z
	 M60.683,44.514c0.027-0.036,0.054-0.071,0.08-0.107C60.561,44.315,60.681,44.427,60.683,44.514z M56.186,44.327
	c0.191,0.233,0.628-0.369-0.027-0.542c-0.326-0.086-0.928-0.074-1.017,0.234c-0.135,0.47,0.303,0.017,0.482,0.228
	c0.151,0.178,0.096,0.646-0.161,0.883c0.106,0.033,0.314,0.116,0.428,0.1c0.364-0.051,0.226-0.136,0.228-0.261
	c-0.002,0.136-0.122-0.367-0.12-0.361c-0.048-0.226-0.029-0.302-0.027-0.522C56.198,44.091,56.228,44.149,56.186,44.327z
	 M51.796,44.059c0.481,0.53-0.758,0.465-0.937,0.616c0.094,0.075,0.116,0.134,0.187,0.214c0.052,0.039,0.068-0.049,0.107-0.054
	c0.02,0.159-0.003,0.088,0.107,0.161c0.025-0.022,0.563-0.459,0.589-0.268c0.08,0.606-1.073,0.496-1.292,0.08
	C50.152,44.037,51.356,43.308,51.796,44.059z M50.886,44.835C50.873,44.869,50.953,44.659,50.886,44.835L50.886,44.835z
	 M51.635,44.247c-0.112-0.322-0.939-0.369-0.857,0.007C50.815,44.422,51.556,44.238,51.635,44.247z M62.048,44.862
	c-0.068-0.436,0.364-0.476,0.656-0.576c0.092-0.031,0.162,0.161,0.281-0.04c-0.016,0.027-0.076-0.301-0.107-0.321
	c-0.277-0.181-0.347,0.494-0.669,0.294c-0.408-0.253,0.454-0.519,0.629-0.509c0.547,0.032,0.575,0.314,0.629,0.75
	c0.011,0.092-0.124,0.246-0.053,0.375c-0.011-0.019,0.482-0.148,0.308,0.147c-0.171,0.29-0.514,0.073-0.763,0.067
	C62.6,45.041,62.347,45.215,62.048,44.862z M63.012,44.113c0.009,0.045,0.018,0.089,0.027,0.134
	C63.157,44.109,63.034,44.133,63.012,44.113z M62.289,44.782c0.276,0.298,1.052,0.198,0.857-0.348
	C62.903,44.543,62.275,44.377,62.289,44.782z M72.354,44.407c0.093-0.21,0.423-0.115,0.482-0.268
	c0.099-0.257-0.209-0.475-0.455-0.348c-0.12,0.062-0.097,0.386-0.147,0.468c-0.148,0.242-0.231,0.113-0.201,0.348
	c-0.016-0.125,0.283,0.349,0.268,0.335c0.179,0.175,0.349,0.471,0.589,0.08c0.176-0.288-0.336-0.133-0.274-0.06
	c-0.101-0.12-0.144-0.302-0.127-0.475C72.354,44.521,72.386,44.427,72.354,44.407z M49.119,44.514
	c0.027-0.036,0.054-0.071,0.08-0.107C48.984,44.322,49.113,44.426,49.119,44.514z M44.702,44.996
	c0.091,0.122,0.317,0.081,0.509,0.027c-0.233-0.113-0.152-0.35-0.321-0.509c0.002,0.172-0.005,0.291-0.027,0.455
	C44.791,44.954,44.756,44.978,44.702,44.996z M30.274,44.595c0.039,0.101,0.111,0.175,0.161,0.294
	c0.029,0.013,0.108-0.043,0.134-0.054c0.074,0.379,0.724-0.435,0.669,0c-0.082,0.652-1.614,0.315-1.312-0.596
	c0.146-0.439,0.779-0.693,1.164-0.328C31.782,44.567,30.59,44.528,30.274,44.595z M30.274,44.755
	c0.023,0.055-0.029,0.094,0.054,0.107C30.333,44.805,30.283,44.775,30.274,44.755z M30.274,44.3
	c0.287,0.045,0.457-0.057,0.749-0.027C30.943,43.709,29.991,44.128,30.274,44.3z M33.567,44.059c0.122-0.036,0.104-0.147,0.268-0.08
	c-0.282-0.77-0.71,0.804-0.91,0.723c-0.349-0.142,0.085-0.858-0.535-0.883c-0.373-0.015,0.172,0.297,0.187,0.428
	c-0.146-0.119-0.019-0.018-0.214,0c0.026,0.297,0.112,0.325,0.241,0.053c0.108,0.119,0.256,0.847,0.402,0.83
	c0.291-0.034,0.178-0.802,0.509-0.83c-0.201,0.227,0.132,0.619-0.268,0.75c0.088,0.057,0.464,0.18,0.562,0.027
	c0.027-0.043-0.197-0.14-0.201-0.241c-0.01-0.29,0.139-0.575-0.174-0.75C33.486,44.041,33.502,44.079,33.567,44.059z M45.211,43.925
	c-0.383-0.036-0.081,0.359-0.227,0.522c0.003-0.004-0.118-0.194-0.214-0.147c-0.067,0.033-0.098,0.15-0.147,0.187
	c-0.263,0.202-0.323,0.863-0.83,0.509c0.05-0.006,0.356-0.077,0.375-0.134c0.085-0.257-0.105-0.166-0.107-0.241
	c-0.006-0.291-0.026-0.712-0.268-0.803c0.323-0.018,0.4-0.021,0.535,0.187c-0.032-0.049-0.15,0.539,0.214,0.428
	c0.137-0.041,0.128-0.517,0.214-0.589C44.814,43.796,45.382,43.639,45.211,43.925z M44.114,44.086
	C44.071,44.148,44.061,44.162,44.114,44.086L44.114,44.086z M34.905,44.595c0.026,0.077,0.096,0.178,0.161,0.294
	c0.056,0.039,0.065-0.049,0.107-0.054c0.059,0.32,0.763-0.295,0.723-0.054c-0.125,0.749-1.583,0.371-1.338-0.502
	c0.132-0.471,0.764-0.748,1.164-0.368C36.413,44.567,35.22,44.528,34.905,44.595z M34.905,44.835
	C34.913,44.828,35.001,44.735,34.905,44.835L34.905,44.835z M34.905,44.3c0.287,0.045,0.457-0.057,0.75-0.027
	C35.575,43.716,34.607,44.115,34.905,44.3z M32.469,44.648c-0.106-0.059-0.226,0.407-0.167,0.468
	c0.014,0.014,0.352,0.023,0.381-0.027C32.649,45.148,32.471,44.679,32.469,44.648z M57.578,44.889
	c-0.141-0.703,0.467-1.583,1.151-0.923C59.526,44.734,58.164,45.615,57.578,44.889z M57.738,44.461
	c0.018,0.608,0.833,0.735,0.99,0.161C58.903,43.989,57.84,43.666,57.738,44.461z M45.077,43.765
	C45.077,43.765,45.077,43.765,45.077,43.765L45.077,43.765z M48.771,45.183c-0.025,0.252,0.601,0.282,0.167,0.455
	c-0.219,0.088-0.685,0.036-0.729-0.161c-0.009-0.039,0.245-0.193,0.281-0.281c0.053-0.13,0.066-0.362,0.067-0.495
	c0.001-0.104-0.047-0.359-0.08-0.455c0.039,0.11-0.119-0.495-0.134-0.294c0.027-0.375,0.074-0.101,0.428-0.107
	c0.332-0.006,0.533-0.268,0.857,0.08c0.178,0.192,0.228,0.697,0.027,0.964C49.383,45.249,49.021,45.003,48.771,45.183z
	 M48.851,44.809c0.545,0.397,1-0.513,0.509-0.843C48.871,43.637,48.595,44.438,48.851,44.809z M40.553,44.032
	c0.291-0.037,0.335-0.2,0-0.241c-0.372-0.046-0.559,0.219-0.161,0.268c-0.011,0.071-0.047,0.237-0.08,0.321
	c-0.037,0.026-0.062-0.072-0.08-0.08c-0.018,0.084-0.04,0.141-0.08,0.187c-0.006-0.05-0.039-0.128-0.053-0.187
	c-0.477,0.347-0.576-0.365-0.161-0.321c-0.096-0.154-0.278-0.184-0.482-0.134c-0.423,0.105,0.007,0.095,0.013,0.174
	c0.023,0.302,0.177,1.03-0.228,1.004c0.12,0.141,0.476,0.155,0.616,0.027c-0.186-0.016-0.298-0.323-0.161-0.482
	c0.027-0.031,0.544-0.029,0.562-0.013c0.202,0.172-0.073,0.539-0.107,0.482c0.111,0.189,0.514,0.114,0.616,0.013
	C40.332,44.96,40.528,44.364,40.553,44.032z M71.658,44.943c-0.82,0.152,0.676,0.486,0.455-0.027
	c-0.39,0.328-0.343-0.556-0.134-0.642c-0.267-0.306,0.253-0.188,0.187-0.348c-0.061-0.148-0.416-0.189-0.569-0.134
	c-0.178,0.064-0.194-0.094-0.248,0.12c-0.045,0.178,0.21,0.133,0.201,0.107C71.664,44.321,71.62,44.56,71.658,44.943z
	 M37.609,43.684c0.186,0.041,0.267-0.081,0.455,0.027c0.063-0.191,0.223-0.402-0.047-0.535c-0.161-0.08-0.169,0.212-0.355,0.134
	c-0.159,0.345-0.13-0.279-0.455-0.107c-0.316,0.167-0.022,0.416,0.107,0.535c0.136-0.029,0.059-0.029,0.214-0.027
	c-0.039-0.188-0.028-0.012,0.054-0.161C37.585,43.585,37.589,43.657,37.609,43.684z M69.623,44.166
	C69.686,44.128,69.691,44.125,69.623,44.166L69.623,44.166z M70.48,44.996c-0.01,0.127-0.43,0.281-0.535,0.134
	c-0.123-0.172,0.219-0.243,0.214-0.509c-0.156-0.022-0.273,0.004-0.401,0.08c0.023,0.025,0.065,0.087,0.08,0.107
	c-0.391-0.002-0.349,0.487-0.857,0.294c0.353-0.11,0.402-1.153,0.054-1.151c0.062-0.187,0.566-0.198,0.636,0.02
	c0.052,0.163-0.489,0.2-0.127,0.408c-0.131,0.38,0.13,0.091,0.375,0.107c-0.394-0.273,0.279-0.931,0.549-0.629
	C70.438,43.826,69.953,45.155,70.48,44.996z M69.382,44.059c0.027-0.038,0.114,0.007,0.054-0.08
	C69.346,43.926,69.413,44.016,69.382,44.059z M69.463,44.648c-0.06,0.07-0.183,0.107-0.053,0.241
	C69.468,44.801,69.437,44.739,69.463,44.648z M70.132,44.22c-0.103,0.123-0.179,0.207,0,0.321
	C70.114,44.429,70.136,44.336,70.132,44.22z M43.096,44.247c-0.064,0.209-0.009,0.485,0.027,0.723c0,0.001,0.397,0.006,0.147,0.201
	c-0.129,0.101-1.543,0.082-1.7,0.013c-0.41-0.179,0.005-0.047,0.087-0.341c0.016-0.057,0.011-0.645-0.007-0.703
	c-0.045-0.143-0.436-0.09-0.241-0.321c0.162-0.192,0.798-0.007,0.91,0.161c-0.018,0.001-0.433,0.082-0.428,0.134
	c0.028,0.314,0.139,0.119,0.328,0.228c0.333,0.192,0.554,0.154,0.502,0.602c0.141-0.156,0.169-0.371,0.027-0.482
	c0.337-0.379-0.52-0.559,0.174-0.669c0.162-0.026,0.417-0.048,0.468,0.161C43.434,44.128,43.118,43.958,43.096,44.247z
	 M42.427,44.809c-0.017-0.245-0.238-0.209-0.482-0.241C41.78,44.936,42.239,45.133,42.427,44.809z M59.96,45.612
	c-0.385,0.045,0.089-0.357,0.147-0.562c0.072-0.252,0.03-0.716-0.013-0.99c-0.051-0.323-0.454-0.147,0.08-0.294
	c0.159-0.044,0.605-0.088,0.803,0c0.302,0.135,0.408,0.465,0.375,0.75c-0.079,0.686-0.473,0.406-0.83,0.576
	c-0.436,0.207,0.068,0.246,0.08,0.335c0.004,0.03,0.167,0.06-0.027,0.187C60.44,45.701,60.12,45.595,59.96,45.612z M60.335,44.675
	c0.359,0.627,1.058-0.072,0.696-0.562c-0.116-0.157-0.38-0.251-0.535-0.134C60.257,44.159,60.363,44.405,60.335,44.675z
	 M72.247,45.023C72.19,44.945,72.223,44.99,72.247,45.023L72.247,45.023z M66.652,43.872c-0.003-0.003,0.255,0.175,0.254,0.174
	c0.072,0.127-0.041,0.307,0.033,0.448c0.154,0.292,0.495,0.325,0.783,0.368c-0.568,0.335,0.436,0.408,0.522,0.281
	c0.04-0.059-0.104-0.345-0.134-0.442c-0.049-0.162-0.093-0.454-0.094-0.642c0-0.153,0.371-0.053,0.134-0.268
	c-0.043-0.039-0.439-0.043-0.489-0.007c-0.299,0.221,0.132,0.198,0.114,0.301c-0.034,0.19-0.17,0.265-0.214,0.428
	c-0.23,0.101-0.372,0.006-0.408-0.248c-0.033-0.231,0.156-0.314,0.328-0.422C67.259,43.744,66.827,43.708,66.652,43.872z
	 M37.743,44.996c0.119,0.124,0.335,0.085,0.535,0.027c-0.262-0.106-0.131-0.342-0.321-0.509c-0.004,0.163-0.011,0.282-0.027,0.455
	C37.851,44.956,37.813,44.982,37.743,44.996z M65.876,44.006c0.461-0.217-0.342-0.276-0.455-0.161
	c-0.082,0.084,0.262,0.224,0.134,0.535c-0.034,0.024-0.067-0.069-0.08-0.08c-0.019,0.062-0.025,0.143-0.08,0.187
	c-0.008-0.052-0.041-0.126-0.054-0.187c-0.474,0.355-0.622-0.372-0.161-0.321c-0.089-0.157-0.31-0.192-0.509-0.134
	c-0.421,0.124,0.025,0.114,0.027,0.161c0.007,0.25,0.172,1.031-0.214,1.017c0.12,0.141,0.476,0.155,0.616,0.027
	c-0.183-0.017-0.334-0.311-0.187-0.482c0.01-0.012,0.604-0.038,0.616-0.027c0.202,0.198-0.104,0.556-0.134,0.509
	c0.113,0.18,0.528,0.087,0.616,0C65.644,44.973,65.653,44.128,65.876,44.006z M44.568,43.738c0.153-0.079,0.284-0.103,0.428-0.027
	c0.095-0.279-0.099-0.833-0.268-0.348c-0.075,0.034-0.057-0.04-0.107-0.054c-0.185,0.342-0.139-0.216-0.442-0.134
	c-0.422,0.115-0.012,0.462,0.067,0.562c0.056-0.006,0.075-0.07,0.107-0.107c-0.056,0.018,0.109,0.08,0.107,0.08
	c-0.005-0.166,0.001-0.058,0.054-0.161C44.535,43.608,44.548,43.673,44.568,43.738z M37.314,45.076
	c-0.178,0.013-0.344-0.003-0.455-0.08c0.041-0.006,0.362-0.093,0.375-0.134c0.068-0.227-0.106-0.192-0.107-0.241
	c-0.006-0.293-0.032-0.698-0.268-0.803c0.299,0.008,0.377-0.054,0.522,0.161c0.067,0.1-0.217,0.369,0.201,0.455
	c0.061-0.137,0.081-0.292,0.154-0.395c0.112-0.159-0.005-0.061,0.167-0.154c0.091-0.049,0.307-0.196,0.428-0.094
	c0.053,0.045-0.229,0.22-0.248,0.261c-0.073,0.159,0.074,0.272-0.054,0.388c0.096-0.087-0.245-0.074-0.315-0.033
	C37.541,44.509,37.333,44.923,37.314,45.076z M37.154,44.086C37.131,44.176,37.139,44.144,37.154,44.086L37.154,44.086z
	 M82.82,37.581c0.175,0.421,2.133,0.211,2.275-0.214c0.11-0.328-0.762-0.027-0.937-0.161c-0.025,0.044-0.03,0.186-0.12,0.164
	c-0.152-0.038-0.071-0.344-0.218-0.381c-0.024-0.006-0.287,0.112-0.351,0.11C82.832,37.08,82.576,36.852,82.82,37.581
	C82.867,37.694,82.786,37.479,82.82,37.581z M84.801,37.1C84.812,37.102,84.853,37.111,84.801,37.1L84.801,37.1z M78.858,36.296
	c-0.215-0.215,0.7-0.201,0.696-0.201c0.094-0.018,0.181-0.177,0.278-0.191c0.101-0.014,0.17,0.145,0.264,0.11
	c0.124-0.045,0.407-0.32,0.502-0.308c0.167,0.021,0.286,0.311,0.375,0.375c0.155,0.112,0.357,0.199,0.528,0.283
	c0.301,0.146,0.662,0.061,0.918,0.253c-0.079,0.279,0.032,0.306,0.107,0.482c-0.103,0-0.295,0.089-0.372,0.109
	c0.08-0.02-0.746,0.001-0.524,0.065c0.013,0.004,0.212,0.014,0.227,0.014c0,0.112-0.16,0.177-0.241,0.214
	c0.079-0.02,0.16-0.029,0.241-0.027c-0.021,0.018-0.141,0.026-0.141,0.064c0-0.012,0.235,0.117,0.023,0.117
	c0.068-0.018,0.137-0.03,0.207-0.037c-0.07-0.023-0.61,0.22-0.706,0.231c0.103-0.051,0.344-0.241,0.482-0.241
	c-0.081,0.004-0.21,0.035-0.294,0.054c0.036-0.009,0.063-0.029,0.08-0.06c0.005,0.005-0.149-0.085-0.107-0.127
	c0.063-0.007,0.166-0.107,0.214-0.107c-0.11,0.044-0.224,0.074-0.341,0.09c-0.003-0.001,0.182-0.104,0.207-0.117
	c-0.078,0-0.146-0.018-0.241,0c0.019-0.026,0.048-0.142-0.01-0.084c0.05-0.05,0.157-0.114,0.224-0.157
	c-0.035,0.035-0.348-0.096,0.174-0.321c-0.14-0.107-1.279-0.635-1.348-0.495c-0.163,0.326-0.008-0.023-0.34-0.065
	C79.583,36.173,79.214,36.289,78.858,36.296C78.778,36.216,78.913,36.295,78.858,36.296z M81.809,36.899
	c-0.058,0.04-0.112,0.066-0.141,0.12c0.066,0.066,0.235,0.023,0.318,0.029C81.984,36.98,81.854,36.926,81.809,36.899
	C81.789,36.913,81.844,36.92,81.809,36.899z M81.692,36.821c-0.052,0.031-0.105,0.061-0.157,0.092
	C81.621,36.882,81.813,36.907,81.692,36.821C81.639,36.852,81.713,36.835,81.692,36.821z M100.486,39.616
	c-0.058-0.148-0.206-0.267-0.264-0.421c-0.039-0.104,0.026-0.218-0.004-0.329c-0.114-0.423-0.341-0.717-0.723-0.937
	c-0.199-0.115-0.515-0.143-0.688-0.294c-0.097-0.085-0.169-0.413-0.275-0.455c-0.147-0.059-0.478,0.178-0.68,0.187
	c-0.677,0.03-1.291-0.616-1.93-0.856c-0.68-0.256-1.373-0.31-1.994-0.696c-0.175-0.04-0.631,0.162-0.776,0.241
	c-0.098,0.054-0.334,0.324-0.432,0.355c-0.182,0.057-0.509-0.147-0.719-0.167c-0.09-0.009-1.073,0.24-0.91,0.321
	c0.2,0.016,0.567-0.132,0.752-0.082c0.188,0.051,0.239,0.202,0.399,0.256c0.219,0.073,0.419-0.019,0.66,0.031
	c0.171,0.035,0.577,0.467,0.732,0.437c0.552-0.107,0.042-0.585,0.055-0.621c0.082-0.235,1.071,0.031,1.194,0.083
	c0.58,0.244,1.032,0.426,1.658,0.568c0.504,0.114,1.535,0.906,1.805,0.264c0.16,0.2,0.23,0.439,0.445,0.569
	c0.216,0.13,0.616,0.062,0.861,0.351c0.166,0.195,0.191,1.195,0.005,1.195c0.079,0,0.313-0.16,0.375-0.08
	c0.024,0.192-0.163,0.179-0.187,0.321c0.027-0.154-0.187,0.272-0.187,0.294c0,0.121,0.221,0.242,0.236,0.366
	c0.053,0.432-0.501,1.093-0.529,1.561c0.007-0.114,0.768-0.95,0.881-1.177C100.417,40.558,100.672,40.012,100.486,39.616
	C100.455,39.537,100.537,39.725,100.486,39.616z M88.013,37.528c0.118,0.039,0.282-0.306,0.412-0.388
	c0.364-0.229,0.614-0.074,0.967,0.053c0.304,0.11,0.666,0.227,0.959,0.027c0.037-0.025,0.446-0.663,0.476-0.633
	c-0.042-0.042-0.536-0.264-0.592-0.264c-0.205,0,0.03,0.388-0.053,0.428c-0.066,0.032-0.55,0.027-0.509,0.027
	c-0.579,0.007-1.19-0.088-1.767-0.027c-0.415,0.044-0.856,0.146-1.258,0.214c-0.352,0.06-0.758,0.25-1.071,0.509
	c0.088,0.151,1.239,0.26,1.408,0.155c0.201-0.125-0.025-0.331,0.118-0.422C87.42,37.003,87.778,37.414,88.013,37.528
	C88.093,37.555,87.932,37.489,88.013,37.528z M96.712,42.614c-0.137-0.205-0.191,0.033-0.335,0.013
	c-0.243-0.034-0.299-0.081-0.549-0.254c-0.098,0-0.083,0.408-0.194,0.444c-0.252,0.082-0.168-0.253-0.309-0.279
	c-0.046-0.008-0.56,0.055-0.326,0.29c-0.07,0.001-0.138-0.209-0.187-0.214c-0.048-0.076-0.102-0.149-0.161-0.217
	c-0.114-0.008-0.221,0.02-0.321,0.084c-0.142-0.017-0.271,0.05-0.411,0.029c-0.055-0.008-0.091-0.158-0.196-0.178
	c-0.141-0.026-1.251-0.022-1.334,0.028c-0.517,0.312,0.115,0.334,0.335,0.442c0.279,0.137,0.439,0.408,0.785,0.382
	c0.185-0.013,0.431-0.296,0.634-0.329c0.184-0.03,0.594,0.077,0.803,0.107c0.08,0.011,0.085-0.128,0.187-0.107
	c0.222,0.046,0.363,0.336,0.589,0.348c0.087,0.004,0.433-0.13,0.535-0.161c0.309-0.094,0.459,0.065,0.696-0.294
	C96.862,42.725,96.782,42.68,96.712,42.614C96.659,42.533,96.752,42.667,96.712,42.614z M97.408,42.774
	c-0.039,0.148-0.008,0.233,0.094,0.254c0.063-0.09,0.095-0.192,0.094-0.308C97.533,42.739,97.471,42.756,97.408,42.774
	C97.4,42.858,97.455,42.721,97.408,42.774z M92.028,42.052c0.092,0.092-0.425,0.035-0.348,0.027
	c-0.009,0.001-0.264-0.026-0.268-0.027c-0.004-0.001-0.335,0.046-0.413,0.043c-0.548-0.015-1.186-0.157-1.729-0.284
	c-0.147-0.035-0.166-0.165-0.317-0.169c-0.113-0.003-0.232,0.179-0.299,0.169c-0.153-0.024-0.235-0.248-0.268-0.251
	c-0.049-0.005-0.56,0.063-0.562,0.064c-0.084,0.035-0.192-0.17-0.241,0.054c-0.036,0.165,0.217,0.306,0.321,0.376
	c0.197,0.133,0.884,0.261,1.151,0.274c0.228,0.012,0.367-0.068,0.602-0.007c0.21,0.054,0.375,0.29,0.602,0.32
	c0.182,0.024,0.354-0.093,0.533-0.114c0.055-0.007,0.162,0.153,0.21,0.14c0.103-0.028,0.224-0.211,0.301-0.214
	c0.059-0.042,0.118-0.085,0.177-0.127c0.076,0.023,0.129,0.07,0.157,0.141c0.067-0.014,0.044,0.137,0.186,0.092
	C92.02,42.497,92.065,42.221,92.028,42.052z M85.202,41.088c-0.006,0.117,0.019,0.644-0.154,0.673
	c0.103-0.017-0.513-0.386-0.535-0.398c-0.097-0.054-0.097-0.281-0.248-0.274c-0.095,0.004-0.108,0.306-0.161,0.321
	c-0.135,0.038-0.515-0.001-0.666,0.012c-0.218,0.019-0.494,0.106-0.701,0.116c-0.071,0.003-0.406-0.017-0.44-0.007
	c-0.508,0.141,0.042,0.169-0.288,0.432c-0.151,0.121-0.39-0.061-0.569,0.037c-0.302,0.166-0.323,0.731-0.701,0.78
	c-0.162,0.021-0.359-0.357-0.626-0.205c0.027,0.003,0.037,0.017,0.029,0.041c-0.114,0.016-0.14-0.013-0.077-0.085
	c-0.264,0.028,0.177,0.137-0.159,0.121c0.119,0.02,0.386,0.178,0.503,0.178c-0.103,0.001-0.201-0.016-0.294-0.054
	c0.046,0.022,0.091,0.046,0.134,0.074c-0.069,0.009-0.138,0.01-0.207,0.003c-0.07,0.035,0.123,0.164,0.154,0.164
	c-0.037-0.003-0.268-0.014-0.268,0c-0.011,0.011,0.398,0.184,0.455,0.187c0,0.013-0.352-0.055-0.415-0.023
	c-0.037,0.018,0.171,0.114,0.167,0.11c0.021,0.021-0.29-0.102,0.007,0.047c-0.091-0.043-0.288-0.049-0.381-0.075
	c0.118,0.4-0.351,0.919-0.443,1.305c-0.163,0.684-0.239,1.293-0.567,1.939c-0.261,0.513-0.468,0.574-0.911,0.873
	c-0.265,0.179-0.453,0.168-0.375,0.589c-0.356-0.036-0.715-0.061-1.071-0.107c-0.953-0.124-1.715,0.074-2.651,0.107
	c-0.464,0.016-0.753-0.158-1.199-0.216c-0.394-0.051-0.809,0.031-1.182,0.055c-0.066,0.004-0.973-0.018-0.83-0.161
	c0.457-0.261,1.054-0.565,1.592-0.592c0.441-0.022,0.54,0.225,0.844,0.284c0.16,0.031,0.491-0.121,0.672-0.112
	c0.2,0.01,0.42,0.12,0.618,0.158c0.583,0.114,1.148,0.075,1.735,0.027c0.233-0.019,0.501-0.002,0.724-0.056
	c0.529-0.129,0.419-0.416,0.83-0.781c-0.027,0.118,0.008,0.252-0.02,0.37c0.679-0.565,1.275-0.827,1.506-1.746
	c0.058-0.232-0.004-1.82,0.141-1.892c0.27-0.135,0.066,0.293,0.278-0.171c0.058-0.128,0.085-0.323,0.125-0.438
	c-0.219,0.036-0.747,0.118-0.932-0.03c-0.183-0.146-0.285-0.804,0.037-0.8c0.1,0.11,0.18,0.232,0.242,0.368
	c0.098,0.198,0.21,0.217,0.337,0.057c0.035-0.125,0.106-0.223,0.214-0.294c0.081,0.084,0.173,0.133,0.277,0.147
	c0.093-0.332-0.07-0.073-0.07-0.25c0-0.022,0.156,0.015,0.139,0.012c0.079-0.411,0.012-0.776,0.002-1.167
	c-0.007-0.243,0.067-0.498,0.047-0.729c-0.017-0.207-0.175-0.413-0.146-0.614c0.018-0.12,0.139-0.355,0.274-0.397
	c0.374-0.119,0.175,0.123,0.226,0.295c0.119,0.401-0.169,1.029-0.215,1.445c0.231,0.001,1.173-0.334,1.306-0.268
	c-0.125-0.062-0.265-0.07-0.402-0.104c0.024,0.006,0.263-0.045,0.268-0.047c-0.239,0.12,0.228-0.434,0.228-0.251
	c0-0.016-0.244-0.057-0.194-0.107c0.236-0.033,0.234-0.316,0.197-0.301c0.136-0.054,0.548,0.115,0.392,0.248
	c-0.433-0.181,0.325,0.109,0.294,0.107c-0.055,0.002-0.401,0.003-0.401,0.053c0.124,0.003,0.251,0.005,0.375,0
	c-0.066,0-0.025,0.055-0.027,0.054c-0.185,0.059-0.46-0.034-0.642,0.054c-0.027,0,0.119,0.154,0.187,0.161
	c0.006,0.006-0.333,0.07-0.294,0.054c0.115,0.026,0.231,0.044,0.348,0.054c-0.18,0.18-0.97,0.475-1.057,0.432
	c0.135,0.068,0.448,0.031,0.602,0.077c-0.21,0.036-1.124,0.162-1.124,0.08c0-0.064,0.344-0.084,0.294-0.08
	c-0.092-0.048-0.276-0.127-0.362-0.156c-0.046,0.65,0.402,0.236,0.844,0.531c0.006,0.006-0.403,0.08-0.455,0.08
	c0.002,0,0.287,0.155,0.321,0.161c-0.106-0.006-0.376,0.053-0.428,0.027c0,0.007,0.426,0.118,0.348,0.087
	c-0.122-0.049-0.355,0.117-0.588-0.022c-0.075,0.582,1.221,0.137,1.392,0.054c0.38-0.185,0.578-0.499,1.097-0.547
	c0.276-0.026,0.881,0.22,0.883-0.241c0.201,0.206,0.91,0.139,1.178,0.134C84.8,41.057,84.928,40.782,85.202,41.088z M80.027,41.182
	c0.009,0.078,0.015,0.155,0.018,0.233c0.082-0.027,0.234-0.114,0.286-0.167C80.232,41.223,80.121,41.211,80.027,41.182
	C80.033,41.213,80.091,41.202,80.027,41.182z M79.999,41.864C80.038,41.83,80.007,41.828,79.999,41.864
	C79.999,41.864,80.001,41.855,79.999,41.864z M79.788,42.626C79.992,42.655,79.823,42.608,79.788,42.626
	C79.817,42.63,79.799,42.62,79.788,42.626z M79.697,42.694c0.089-0.033,0.011-0.008,0.125-0.027
	C79.668,42.667,79.789,42.66,79.697,42.694z M79.669,42.856C79.722,42.855,79.723,42.726,79.669,42.856
	C79.678,42.856,79.669,42.856,79.669,42.856z M79.677,42.908C79.779,42.844,79.682,42.905,79.677,42.908L79.677,42.908z
	 M79.849,43.042c-0.055-0.027-0.11-0.055-0.165-0.082c-0.057-0.19,0.218,0.488,0.218,0.263c-0.043-0.016-0.078-0.04-0.107-0.074
	c0.062,0,0.125,0,0.187,0c-0.026-0.008-0.231-0.09-0.244-0.077C79.798,43.012,80.027,43.146,79.849,43.042
	C79.79,43.023,79.873,43.056,79.849,43.042z M80.113,42.528C80.107,42.528,80.112,42.53,80.113,42.528
	C80.112,42.528,80.113,42.528,80.113,42.528z M80.217,42.266C80.196,42.266,80.192,42.351,80.217,42.266
	C80.175,42.266,80.213,42.278,80.217,42.266z M80.258,42.159c-0.125-0.014-0.22-0.019-0.343-0.062
	c-0.008,0.023-0.017,0.046-0.024,0.069C80.008,42.186,80.213,42.245,80.258,42.159z M80.625,42.988
	c0.116-0.063,0.232-0.126,0.348-0.187C80.621,42.97,80.854,42.751,80.625,42.988C80.705,42.935,80.645,42.967,80.625,42.988z
	 M98.479,42.346c-0.267,0.468-0.309-0.216-0.425-0.157c-0.164,0.084-0.466,0.186-0.084,0.425c0.207,0.13,0.821-0.104,0.766-0.378
	C98.713,42.116,98.486,42.323,98.479,42.346C98.372,42.533,98.505,42.253,98.479,42.346z M87.183,41.463
	c-0.078-0.284-1.28-0.191-0.723,0.402c0.131,0.139,0.7,0.172,0.803-0.027C87.347,41.677,87.212,41.65,87.183,41.463
	C87.16,41.379,87.192,41.523,87.183,41.463z M97.143,42.799c0.028-0.02-0.154,0.463,0.185,0.029
	C97.274,42.767,97.213,42.758,97.143,42.799z M85.925,41.115c0.022-0.525-0.603-0.204-0.616,0.04
	c-0.013,0.235,0.35,0.358,0.502,0.352C86.408,41.483,85.97,41.303,85.925,41.115C85.927,41.06,85.945,41.199,85.925,41.115z
	 M80.197,43.336h-0.054C80.25,43.363,80.25,43.363,80.197,43.336z M81.589,39.134c0.097-0.017,0.295-0.033,0.375-0.08
	c-0.116,0.006-0.232-0.005-0.348,0c0.075,0.009,0.275-0.065,0.348-0.077c-0.042,0.007-0.179-0.099-0.207-0.07
	c0.028-0.028,0.227-0.001,0.181-0.094c-0.27-0.352-0.568,0.133-0.803,0.104c0.126-0.003,0.251,0.007,0.375,0.03
	c0.003,0.156-0.034-0.003,0.054,0.134c-0.105,0.018-0.203,0.053-0.294,0.107c0.06,0.038,0.093-0.047,0.167,0.027
	c-0.095-0.095,0.448,0.295,0.448,0.027c0.014,0.007-0.129-0.031-0.12-0.033c0.091-0.035,0.185-0.059,0.281-0.074
	C81.892,39.134,81.74,39.128,81.589,39.134z M81.562,39.402c-0.062,0-0.191,0-0.268,0C81.383,39.402,81.473,39.404,81.562,39.402z
	 M81.294,38.465c-0.168,0.072,0.092,0.109,0.117,0.084c-0.037,0-0.063,0.014-0.077,0.043c0.116-0.019,0.232-0.025,0.348-0.017
	c-0.054,0.034-0.112,0.06-0.174,0.077c0.144,0.017,0.347,0.016,0.482-0.054c0.002,0.002-0.113-0.007-0.12-0.003
	c0.051-0.016,0.1-0.036,0.147-0.06c0-0.04-0.228,0.018-0.214-0.01c-0.007,0.014,0.161-0.383,0.161-0.335
	c0,0.012-0.26,0.005-0.268,0.007c0.068-0.046,0.143-0.071,0.224-0.077c-0.062-0.003-0.125-0.007-0.187-0.01
	c0.003-0.047,0.03-0.069,0.08-0.067c-0.13,0-0.349,0.051-0.445,0.147c0.044-0.044-0.008,0.114-0.047,0.114
	c-0.012,0.012,0.14,0.071,0.141,0.07C81.4,38.394,81.344,38.424,81.294,38.465C81.27,38.475,81.323,38.45,81.294,38.465z
	 M81.776,39.482c0.049-0.001,0.098-0.002,0.147-0.003c0.023-0.004-0.568-0.082-0.452,0.074c0.034,0.046,0.204-0.024,0.224-0.003
	c-0.042-0.004-0.077-0.02-0.107-0.05C81.651,39.493,81.713,39.487,81.776,39.482z M81.481,38.063
	c0.143-0.017,0.295-0.07,0.428-0.134c-0.147-0.148-0.617,0.143-0.569,0.151C81.388,38.074,81.435,38.069,81.481,38.063z
	 M81.562,39.348C81.422,39.399,81.568,39.348,81.562,39.348C81.562,39.348,81.615,39.348,81.562,39.348z M82.151,37.688
	c-0.207-0.018-0.432,0.046-0.616,0.134C81.653,37.763,81.967,37.794,82.151,37.688z M16.275,38.411c0.002-0.074,0.82-0.04,0.937,0
	c-0.059-0.02,0.346,0.056,0.321,0.054c0.055,0.099,0.134,0.171,0.238,0.214c0.093-0.082,0.201-0.136,0.325-0.161
	c0.501-0.091,1.126-0.135,1.392-0.642c-0.208-0.196-0.804-0.224-1.044-0.174c-0.413,0.087-0.729,0.192-1.151,0.254
	C17.045,37.993,15.678,38.005,16.275,38.411C16.275,38.426,16.233,38.383,16.275,38.411z M20.932,36.323
	c-0.154,0.086-0.306,0.175-0.455,0.268c0.151-0.06,0.196-0.036,0.309,0.054C20.892,36.552,20.941,36.445,20.932,36.323z
	 M5.059,36.243c0.358,0.122,0.693,0.293,1.044,0.428c0.561,0.217,1.044,0.591,1.553,0.589c0.087,0,0.471,0.006,0.562-0.027
	c0.155-0.056,0.219-0.289,0.401-0.294c0.206-0.007,0.631,0.377,0.91,0.401c0.021,0.002,0.797-0.006,0.616-0.187
	c-0.227-0.054-0.6,0.003-0.806-0.115c-0.113-0.065-0.176-0.302-0.285-0.347c-0.216-0.089-0.493-0.061-0.72-0.189
	c-0.205-0.116-0.36-0.539-0.585-0.487c-0.568,0.133-0.036,0.481-0.087,0.564c-0.197,0.322-1.214-0.338-1.399-0.443
	c-0.392-0.221-0.718-0.325-1.178-0.375c-0.482-0.052-0.963-0.065-1.445-0.027c-0.193,0.015-0.408-0.014-0.549,0.114
	c-0.081,0.074,0.014,0.338-0.04,0.367c-0.219,0.119-0.56-0.058-0.803,0.08c-0.305,0.174-0.55,0.617-0.834,0.852
	c-0.329,0.272-0.749,0.099-1.018,0.306c-0.168,0.129-0.37,0.744-0.37,0.903c0.067,0.135,0.584-0.726,0.321,0.134
	c-0.058,0.188-0.334,0.423-0.335,0.602c-0.001,0.091,0.236,0.403,0.268,0.522c0.086,0.327,0.025,0.652,0.233,0.967
	c0.166,0.251,0.949,0.853,1.3,0.806c-0.155,0.021-0.753-0.653-0.851-0.81c-0.256-0.414-0.204-0.707-0.161-1.151
	c0.035-0.364-0.12-0.992-0.022-1.287c0.1-0.3,0.447-0.49,0.701-0.691c0.293-0.232,0.581-0.626,0.9-0.806
	c0.217-0.122,0.418-0.005,0.589-0.067c0.166-0.06,0.087-0.042,0.214-0.12c0.149-0.092,0.266-0.388,0.424-0.459
	C4.158,35.75,4.546,36.121,5.059,36.243C5.15,36.274,4.852,36.194,5.059,36.243z M15.472,37.635c-0.147-0.042-0.86-0.27-0.964-0.268
	c-0.269,0.006-0.163,0.139-0.321,0.187c-0.309,0.094,0.495,0.286-0.3,0.085c-0.235-0.059-0.419-0.58-0.606-0.58
	c-0.167,0-0.402,0.317-0.673,0.308c-0.338-0.012-0.428-0.168-0.683-0.348c-0.265-0.187-0.573-0.41-0.917-0.287
	c-0.044,0.016-0.59,0.505-0.602,0.481c-0.036-0.072,0.494,0.421,0.515,0.422c0.15,0,0.059-0.319,0.12-0.335
	c0.024-0.006,0.119-0.028,0.201-0.04c0.409-0.063,1.31,0.423,1.708,0.516c0.786,0.184,1.925,0.532,2.709,0.1
	C15.597,37.796,15.534,37.715,15.472,37.635C15.385,37.61,15.558,37.693,15.472,37.635z M8.78,42.239
	c-0.258,0.09-0.359-0.252-0.589-0.241c-0.359,0.017-0.343,0.276-0.598,0.369c-0.262,0.095-0.898,0.203-1.165,0.19
	c-0.286-0.014-0.587-0.2-0.867-0.223c-0.067-0.006-0.424,0.027-0.528,0.039c-0.245,0.029-0.44,0.014-0.642,0.214
	c0.024,0,0.382,0.256,0.455,0.281c0.098,0.034,0.215-0.102,0.323-0.079c0.189,0.041,0.297,0.24,0.453,0.333
	C5.679,43,5.693,42.607,5.889,42.614c0.165,0.006,0.202,0.36,0.311,0.371c0.225,0.023,0.285-0.398,0.278-0.398
	c0.329,0.328,0.3,0.327,0.723,0.294c0.092-0.007,0.35-0.075,0.428-0.08c0.047-0.003,0.353,0.081,0.428,0.08
	c0.127-0.001,1.084-0.213,1.151-0.294C9.468,42.273,9.127,42.169,8.78,42.239C8.661,42.281,9.181,42.159,8.78,42.239z
	 M13.919,41.811c-0.57-0.181-1.043-0.057-1.646,0.027c-0.381,0.053-0.775-0.097-1.159-0.032c-0.039,0.007-0.503,0.183-0.533,0.199
	c-0.121,0.065-0.337,0.341-0.499,0.405c-0.245,0.097-0.186-0.316-0.445-0.09c-0.067,0.058-0.122,0.54,0.003,0.499
	c0.672-0.224,1.646-0.511,2.593-0.525c0.231-0.003,0.352,0.067,0.584,0.043c0.02-0.002,0.23-0.221,0.313-0.253
	c0.043,0.074,0.093,0.144,0.151,0.207c0.102-0.072,0.198-0.151,0.288-0.238C13.507,42.068,14.472,41.957,13.919,41.811
	C13.843,41.786,13.981,41.827,13.919,41.811z M15.07,41.436c-0.405-0.113-1.224,0.353-0.55,0.628
	C14.928,42.23,15.461,41.858,15.07,41.436C14.956,41.404,15.161,41.534,15.07,41.436z M16.168,41.623
	c-0.116-0.181-1.045,0.018-0.375,0.442c0.28,0.177,0.365,0.082,0.589-0.254C16.307,41.766,16.228,41.655,16.168,41.623
	C16.136,41.574,16.225,41.654,16.168,41.623z M19.915,41.302c0.068-0.001,0.113-0.028,0.134-0.08
	c-0.017-0.008-0.151-0.054-0.161-0.054c0.102-0.051-0.49-0.235-0.552-0.05c0.002-0.005,0.18-0.005,0.204-0.003
	c-0.029,0.041-0.095,0.044-0.134,0.08c0.047,0.001,0.094-0.001,0.141-0.007c-0.022,0.022-0.335,0.075-0.335,0.11
	C19.213,41.421,19.817,41.336,19.915,41.302C20.049,41.249,19.851,41.324,19.915,41.302z M19.621,41.436
	c-0.031,0.008-0.344,0.101-0.328,0.134c-0.003-0.006,0.378,0.031,0.378,0.03c-0.042,0.042-0.299,0.094-0.345,0.13
	c0.143,0.002,0.306-0.074,0.187,0.054c0.07-0.021,0.142-0.03,0.214-0.027c-0.001,0.008-0.519,0.288,0.161,0.054
	c-0.147-0.063-0.058-0.118,0.027-0.161c-0.013,0.043,0.114-0.176,0.114-0.104c0,0.029-0.189-0.056-0.194-0.057
	c0.027-0.027,0.053-0.054,0.08-0.08C19.825,41.4,19.661,41.436,19.621,41.436z M19.996,41.623l-0.08,0.027
	C19.996,41.65,20.022,41.623,19.996,41.623z M19.246,39.937c-0.073-0.016-0.124,0.001-0.154,0.054
	c0.157,0.078,0.311,0.095,0.502,0.08c0.038-0.014-0.268,0.092-0.268,0.161c-0.023,0.088,0.924-0.351,1.071-0.375
	c-0.056-0.006-0.642,0.053-0.642,0.027c0.117-0.105,0.964-0.364,0.964-0.616c-0.125,0.012-0.252-0.005-0.375,0.027
	c0.083-0.016,0.256-0.062,0.321-0.107c-0.051-0.011-0.24-0.134-0.214-0.134c0.193-0.092,0.449-0.069,0.642-0.134
	c-0.002-0.023-0.026,0.006,0.03-0.05c-0.02,0.02-0.405,0.076-0.405,0.023c0.11-0.017,0.196-0.053,0.328-0.083
	c-0.627-0.099-0.141,0.018-0.141-0.078c-0.013-0.069-0.422-0.171-0.475-0.157c0.176-0.044-0.098,0.256-0.167,0.291
	c-0.054,0.054,0.194,0.056,0.194,0.08c0,0.05-0.359,0.064-0.331,0.174c0.004,0.018,0.126,0.089,0.137,0.094
	c-0.012,0-0.274,0.104-0.274,0.104c0.135,0.034,0.288-0.01,0.418,0.033C20.292,39.313,19.424,39.889,19.246,39.937
	C19.201,39.943,19.32,39.917,19.246,39.937z M21.069,38.803C21.025,38.829,21.064,38.806,21.069,38.803
	C21.069,38.803,21.068,38.804,21.069,38.803z M21.093,38.786C21.069,38.81,21.093,38.788,21.093,38.786
	C21.076,38.803,21.093,38.786,21.093,38.786z M19.915,40.472c0.043-0.102,0.183-0.039,0.238-0.131
	c0.044-0.074-0.796,0.064-0.907,0.077c0,0.028,0.295-0.016,0.375-0.027c-0.059,0.077-0.264,0.293-0.268,0.348
	c0.036,0.023,0.075,0.037,0.117,0.044c-0.027,0.033-0.06,0.058-0.1,0.074c-0.079,0.237,0.728-0.137,0.669-0.137
	c-0.123,0.007-0.244,0.023-0.365,0.047c-0.037-0.037,0.415-0.184,0.428-0.187c-0.125,0.001-0.25-0.008-0.375-0.027
	C19.719,40.472,19.782,40.446,19.915,40.472C19.926,40.448,19.849,40.474,19.915,40.472z M20.37,38.331
	c0.071,0.009,0.143,0.018,0.214,0.027C20.581,38.358,20.199,38.246,20.37,38.331C20.451,38.331,20.317,38.304,20.37,38.331z
	 M20.799,38.438c0.049-0.001,0.098-0.002,0.147-0.003c-0.1,0.017-0.311-0.132-0.442-0.023c-0.105,0.105,0.218,0.071,0.214,0.067
	c-0.04-0.004-0.076-0.02-0.107-0.047C20.674,38.433,20.736,38.436,20.799,38.438C20.959,38.438,20.611,38.411,20.799,38.438z
	 M20.585,38.277C20.446,38.336,20.601,38.285,20.585,38.277C20.585,38.277,20.638,38.304,20.585,38.277z M58.568,47.245
	c-0.466-0.203-6.642,0.082-6.641,0.324c0,0.442,1.775,0.084,1.984,0.104c0.235,0.023,0.525,0.077,0.723,0.067
	c0.073-0.004,0.228-0.107,0.355-0.094c0.228,0.024,0.315,0.217,0.502,0.268c0.49,0.134,1.242-0.053,1.792-0.053
	c0.784,0,1.563,0.048,2.304-0.268C59.319,47.42,58.868,47.357,58.568,47.245C58.307,47.131,58.782,47.325,58.568,47.245z
	 M68.686,47.378c-0.661,0.068-1.462,0.149-2.13,0.082c-0.228-0.023-0.502-0.205-0.713-0.214c-0.293-0.012-0.242,0.112-0.332,0.142
	c-0.315,0.105-0.812-0.098-1.134-0.144c-0.544-0.077-1.091,0.064-1.647,0.091c-0.268,0.013-2.769-0.186-2.769,0.257
	c0.438-0.054,0.631,0.275,1.017,0.375c0.248,0.064,0.735,0.004,0.976-0.037c0.531-0.09,1.01-0.223,1.567-0.285
	c0.541-0.059,0.379,0.065,0.864,0.235c0.471,0.165,0.896-0.131,1.357-0.182c0.278-0.031,0.529,0.1,0.776,0.08
	c0.289-0.023,0.55-0.17,0.834-0.201c0.41-0.045,1.494,0.253,1.825-0.144C69.247,47.35,68.648,47.382,68.686,47.378
	C68.348,47.413,68.838,47.364,68.686,47.378z M77.142,46.919c0.015-0.108-0.018-0.233-0.023-0.344
	c-0.301,0.245-0.587,0.534-0.91,0.749C76.669,47.447,76.774,47.23,77.142,46.919z M24.091,31.398
	c0.068,0.034,0.095,0.022,0.08-0.036C24.171,31.27,24.131,31.374,24.091,31.398z M36.592,47.459
	c0.101,0.051-0.764,0.234-0.801,0.238c-0.313,0.033-0.669,0.055-0.985,0.039c-0.694-0.033-1.498-0.341-2.176-0.304
	c-0.369,0.02-0.667,0.229-1.019,0.294c-0.454,0.084-0.953,0.033-1.417,0.107c-0.839,0.134-1.302-0.141-2.123-0.284
	c-0.554-0.096-1.133-0.084-1.692-0.151c-0.663-0.079-2.235-0.048-2.586-0.66c0.078,0.093,0.151,0.19,0.219,0.291
	c-0.241-0.257-0.596-0.337-0.83-0.642c-0.299-0.391-0.458-0.865-0.56-1.338c-0.141-0.651-0.287-1.307-0.412-1.961
	c-0.248,0.538-0.566,0.041-0.955,0.007c-0.364-0.031-0.584,0.208-0.914,0.139c-0.208-0.044-0.472-0.257-0.657-0.359
	c-0.126-0.069-0.264,0.04-0.355-0.125c-0.145-0.262,0.095-0.401-0.128-0.587c-0.083-0.069-0.588-0.14-0.756-0.247
	c-0.216-0.138-0.47-0.464-0.616-0.08c-0.088-0.119-0.862-0.215-0.933-0.167c-0.129,0.086-0.187,0.353-0.432,0.141
	c-0.097-0.085-0.155-0.649-0.027-0.713c-0.034,0.017,0.75,0.385,0.75,0.552c0.339-0.255,0.076-0.346,0.616-0.268
	c0.207,0.03,0.378,0.01,0.589,0.107c-0.087-0.04,0.559,0.311,0.375,0.294c0.082,0.007,0.346-0.181,0.32-0.187
	c0.153,0.04,0.119,0.237,0.215,0.281c0.208,0.095,0.175,0.12,0.321,0.12c-0.047,0.003-0.118,0.02-0.161,0.02
	c0.222,0,0.521-0.191,0.763-0.118c-0.011-0.003-0.259,0.079-0.282,0.098c0.045-0.001,0.089,0,0.134,0.003
	c-0.068,0.012-0.128,0.041-0.181,0.087c-0.065,0.081,0.198,0.094,0.207,0.097c-0.06,0.012-0.116,0.031-0.169,0.058
	c0.057,0.134,0.288,0.067,0.41,0.049c-0.104,0.011-0.191,0.061-0.28,0.084c0.244,0.115,0.493,0.238,0.749,0.331
	c0.603,0.217,0.736-0.043,1.309-0.045c-0.119-0.502-0.432-0.993-0.583-1.478c-0.112-0.36,0.025-0.644,0.063-1.019
	c0.039-0.385-0.085-0.56-0.13-0.915c-0.007-0.056,0.126-0.189,0.131-0.251c0.002-0.027-0.093-0.216-0.087-0.281
	c0.026-0.297,0.112-0.477,0.068-0.781c-0.035-0.244-0.234-0.515-0.044-0.761c-0.11-0.038-0.328-0.107-0.426-0.048
	c0.024,0.006,0.125,0.088,0.14,0.103c-0.11-0.008-0.235-0.056-0.321,0.016c0.058,0.012,0.116,0.023,0.174,0.034
	c-0.029-0.002-0.056,0.005-0.08,0.02c0.07,0.005,0.128,0.031,0.174,0.08c-0.081-0.011-0.161-0.026-0.241-0.044
	c0.017,0.004,0.241,0.116,0.241,0.104c0-0.109-0.3,0.246-0.238,0.204c0.007-0.005,0.211,0.071,0.211,0.064
	c-0.045,0.003-0.089,0.004-0.134,0.003c0.046,0.002,0.081,0.02,0.107,0.054c-0.126,0.013-0.438-0.055-0.535-0.104
	c0.056,0.028,0.166-0.022,0.228-0.007c-0.257-0.064-0.179-0.069-0.44,0.11c0.151-0.035,0.689,0.149,0.611,0.181
	c-0.056,0.011-0.112,0.01-0.167-0.003c0.033-0.033,0.16,0.086,0.171,0.09c-0.123-0.003-0.252,0.013-0.375,0
	c0.077,0.04,0.294,0.057,0.375,0.054c0.018,0.018-0.495,0.077-0.375,0.027c0.535,0.132,0.386,0.002,0.161,0.08
	c0.036,0.018,0.071,0.036,0.107,0.053c-0.053,0.013-0.509,0.055-0.509-0.053c0.028-0.016,0.057-0.029,0.087-0.04
	c-0.024-0.025-0.167,0.002-0.167-0.067c0.1,0.011,0.196-0.024,0.294-0.027c-0.023,0.023-0.164-0.118,0-0.134
	c-0.334-0.078-0.632-0.146-0.964-0.134c0-0.525,0.893-0.746,1.138-1.15c0.09,0.072,0.088,0.081,0.174,0.035
	c0.149-0.079,0.011,0.056-0.088-0.093c-0.017-0.026,0.211,0.031,0.221,0.026c-0.039-0.025-0.129-0.092-0.187-0.13
	c0.135-0.017,0.005,0.004,0.037-0.06c0.012-0.024,0.271,0.046,0.294,0c0.02-0.041-0.171-0.092-0.171-0.154
	c0.096-0.126,0.539,0.141,0.618,0.173c0.149-1.006,0.656-1.907,0.951-2.883c0.211-0.698,0.211-1.363,0.857-1.85
	c0.349-0.263,1.07-0.171,1.267-0.393c-0.023,0.04,0.027,0.033,0.027,0c-0.009,0.027,0,0.036,0.027,0.027
	c-0.033,0.042-0.066,0.084-0.1,0.126c0.779,0.145,1.573,0.184,2.365,0.169c0.367-0.007,2.243-0.361,2.483-0.067
	c-0.169-0.207-1.859,0.298-2.136,0.349c-0.923,0.172-1.793,0.029-2.707,0.065c-0.539,0.022-0.308,0.142-0.602,0.375
	c-0.048,0.038-1.502,0.949-1.097,1.151c0.158-0.074,0.299-0.172,0.422-0.294c-0.15,0.075-0.266,0.871-0.355,1.072
	c-0.159,0.357-0.437,0.419-0.648,0.691c-0.377,0.485-0.658,1.731,0.154,1.743c0.115,0.115-0.492,0.37-0.535,0.375
	c0.085,0.38-0.032,0.357-0.098,0.723c-0.079,0.438,0.06,0.77,0.112,1.19c0.023,0.183,0.004,0.325-0.003,0.519
	c-0.008,0.217-0.095,0.365-0.019,0.557c0.061,0.157,0.26,0.24,0.33,0.382c0,0.109-0.22-0.002-0.251,0.113
	c-0.025,0.092-0.063,0.248-0.07,0.342c-0.024,0.324,0.127,0.28,0.178,0.543c0.049,0.252,0.119,0.394,0.19,0.571
	c0.016,0.039-0.152,0.237-0.095,0.38c0.156,0.396,0.233,0.103,0.517,0.393c0.108,0.11,0.166,0.684-0.022,0.714
	c-0.174,0.028-0.284-0.348-0.4-0.453c0.237,1.433,0.591,3.285,2.27,3.436c0.956,0.086,1.84,0.398,2.784,0.534
	c0.573,0.083,2.141,0.473,2.602,0.108c-0.021,0.016-0.571-0.166-0.56-0.237c0.065-0.389,0.826-0.349,1.076-0.305
	c0.8,0.141,1.427,0.468,2.273,0.472c0.395,0.002,0.647,0.021,1.012,0.136C34.8,47.507,35.638,47.401,36.592,47.459
	C36.699,47.512,36.119,47.43,36.592,47.459z M21.159,36.722C21.154,36.668,21.128,36.706,21.159,36.722
	C21.159,36.715,21.153,36.719,21.159,36.722z M21.576,37.131c-0.016,0.006-0.188-0.124-0.252-0.121
	c0.167,0.068-0.048,0.014-0.071,0.035C21.336,37.087,21.529,37.186,21.576,37.131C21.565,37.135,21.565,37.144,21.576,37.131z
	 M21.643,36.735c-0.103-0.012-0.203-0.038-0.3-0.078C21.391,36.733,21.623,36.932,21.643,36.735
	C21.623,36.732,21.641,36.758,21.643,36.735z M21.672,36.532c-0.086-0.006-0.174-0.024-0.258-0.048
	c0.048,0.074,0.133,0.168,0.238,0.186C21.659,36.624,21.666,36.578,21.672,36.532C21.621,36.528,21.666,36.578,21.672,36.532z
	 M21.681,36.471c-0.107-0.032-0.213-0.063-0.32-0.095C21.437,36.401,21.664,36.585,21.681,36.471
	C21.582,36.418,21.678,36.488,21.681,36.471z M21.976,40.794c-0.04-0.043-0.084-0.083-0.132-0.117
	c-0.02,0.141-0.065,0.318,0.028,0.44C21.94,41.034,21.961,40.901,21.976,40.794z M49.547,47.164
	c-0.614,0.03-1.188-0.076-1.793-0.134c-0.175-0.017-0.5-0.081-0.675,0.023c-0.126,0.075-0.012,0.289-0.072,0.322
	c-0.471,0.259-1.361-0.071-1.824-0.238c-0.671-0.242-0.678-0.142-1.346,0.059c-1.214,0.365-2.265-0.07-3.445-0.273
	c-0.557-0.096-1.255-0.16-1.814-0.028c-0.279,0.066-0.443,0.238-0.687,0.348c-0.189,0.085-0.488,0.115-0.652,0.211
	c0.309-0.18,1.129,0.46,1.439,0.353c0.307-0.106,0.19-0.301,0.495-0.402c0.421-0.139,1.069,0.06,1.509,0.094
	c0.836,0.063,1.676,0.083,2.513,0.13c0.494,0.028,0.985,0.077,1.478,0.109c0.661,0.044,1.287-0.115,1.941-0.099
	c1.414,0.035,2.786,0.116,4.19-0.261C50.452,47.124,49.963,47.113,49.547,47.164C49.217,47.181,49.77,47.137,49.547,47.164z
	 M36.913,31.96c0.431,0.296,0.986-0.072,1.457-0.028c0.258,0.024,0.614,0.299,0.862,0.275c0.188-0.018,0.177-0.096,0.338-0.162
	c0.203-0.084,0.17-0.274,0.475-0.3c0.265-0.022,0.456,0.269,0.682,0.324c0.335,0.082,0.787,0.029,0.734-0.29
	c-0.015-0.089,0.828,0.312,0.886,0.327c0.442,0.113,0.932-0.053,1.394-0.088c0.593-0.045,1.108,0.15,1.712,0.13
	c0.49-0.016,0.955-0.107,1.445-0.107c0.245,0,2.233,0.135,1.752-0.377c-0.137-0.146-0.62-0.084-0.774-0.085
	c-0.596-0.007-1.003-0.101-1.575-0.228c-0.942-0.209-1.659,0.327-2.562,0.33c-0.654,0.002-1.328-0.106-1.987-0.04
	c-0.365,0.037-0.544,0.123-0.935,0.052c-0.476-0.087-0.941-0.314-1.435-0.264c-0.524,0.053-0.925,0.134-1.465,0.092
	c-0.507-0.04-1.112,0.027-1.567,0.28C36.554,31.85,36.719,31.869,36.913,31.96C37.046,32.051,36.792,31.904,36.913,31.96z
	 M35.146,31.692c0.152-0.05-0.396-0.486-0.535,0.027C34.791,31.749,34.97,31.74,35.146,31.692
	C35.227,31.666,34.972,31.74,35.146,31.692z M49.306,32.147c0.02,0.124,0.805,0.018,0.964,0.027
	c0.192,0.011,0.348,0.077,0.558,0.064c0.291-0.018,0.518-0.194,0.862-0.177c1.244,0.062,2.482,0.045,3.732,0.072
	c0.561,0.012,1.058,0.083,1.606,0.13c0.531,0.046,0.935-0.29,1.452-0.249c0.108,0.008,0.171,0.206,0.306,0.223
	c0.223,0.027,0.447-0.128,0.667-0.158c0.109-0.015,1.478,0.202,1.276-0.152c-0.148-0.26-1.191-0.2-1.387-0.216
	c-0.48-0.041-0.969-0.054-1.463-0.07c-1.165-0.039-2.257,0.048-3.418-0.101c-0.477-0.061-0.907-0.103-1.383-0.031
	c-0.503,0.076-0.92-0.01-1.406,0.034c-0.334,0.031-0.544,0.285-0.844,0.342c-0.372,0.071-0.403-0.118-0.746-0.166
	C49.686,31.664,49.241,31.756,49.306,32.147C49.314,32.194,49.3,32.107,49.306,32.147z M75.833,31.318
	c0.104,0.291,0.246,0.621,0.562,0.616C76.191,31.746,76.001,31.538,75.833,31.318z M66.946,31.987
	c-0.36-0.695,0.496-0.239,0.581-0.214c0.331,0.097,0.575,0.038,0.891,0.107c0.17,0.037,0.366,0.224,0.513,0.233
	c0.297,0.019,0.426-0.195,0.705-0.26c0.395-0.092,0.938,0.023,1.338,0.004c0.605-0.028,1.208,0.01,1.815-0.012
	c0.494-0.018,1.077,0.394,1.515,0.209c0.126-0.053,0.051-0.26,0.229-0.318c0.206-0.067,0.578,0.186,0.711,0.118
	c0.066-0.034,0.241-0.471,0.241-0.535c0.427,0.499,0.602,0.824,1.205,0.535c0.059-0.276,0.643,0.432,0.787,0.625
	c0.449,0.6,0.445,1.343,0.592,2.071c0.161,0.796,0.498,1.518,0.585,2.332c0.043,0.405,0.339,2.595-0.642,2.025
	c-0.146,0.437,0.099,0.735,0.097,1.111c-0.001,0.219-0.156,0.308-0.174,0.509c-0.008,0.087,0.174,1.072,0.365,1.034
	c-0.342,0.069-0.385,0.327-0.432,0.733c-0.032,0.276,0.149,0.468,0.191,0.679c0.019,0.093-0.572,0.239-0.572,0.043
	c0-0.066,0.192-0.366,0.209-0.441c0.042-0.19-0.046-0.305-0.014-0.496c0.022-0.133,0.12-0.337,0.134-0.428
	c-0.013,0.088-0.087-0.452-0.054-0.321c0.036-0.045,0.071-0.089,0.107-0.134c-0.058-0.15-0.128-0.294-0.211-0.432
	c-0.095-0.258-0.227-0.528,0.05-0.692c-0.206-0.203,0.014-0.497-0.041-0.843c-0.06-0.375-0.174-0.461-0.119-0.843
	c0.026-0.179-0.042-0.486-0.027-0.589c0.013-0.083-0.156-0.308,0.107-0.348c0.133-0.02,0.509,0.39,0.577,0.486
	c0.403-0.737-0.247-1.07-0.288-1.781c-0.029-0.499,0.104-0.863-0.008-1.355c-0.149-0.656-0.467-1.369-0.95-1.847
	c-0.197-0.195-0.478-0.271-0.321-0.544c-0.765-0.391-1.413-0.045-2.23-0.052c-0.472-0.004-0.937-0.055-1.411-0.073
	c-0.348-0.013-0.651-0.038-0.99-0.107c-0.376-0.077-0.513,0.015-0.85,0.039c-0.114,0.008-0.18,0.05-0.301,0.061
	c-0.221,0.02-0.564-0.093-0.811-0.094c-0.493-0.001-1.25-0.065-1.712-0.012C68.092,32.197,66.833,32.683,66.946,31.987z
	 M77.987,38.323C77.974,38.333,77.976,38.35,77.987,38.323C77.983,38.326,77.985,38.329,77.987,38.323z M31.345,31.826
	c0.383,0.072,0.643-0.09,1.011-0.088c0.402,0.002,0.288,0.145,0.542,0.222c0.099,0.03,0.904,0.374,0.877-0.015
	c-0.03-0.434-1.053-0.353-1.318-0.353C32.277,31.592,31.187,31.747,31.345,31.826C31.576,31.87,31.238,31.773,31.345,31.826z
	 M61.861,32.147c0.387,0.27,0.982,0.084,1.41,0.035c0.308-0.035,0.917,0.081,0.516-0.371c-0.446-0.503-1.906-0.229-2.381,0.068
	C61.557,31.96,61.723,32.046,61.861,32.147C62.009,32.251,61.793,32.097,61.861,32.147z M35.896,31.719
	c0.174-0.175-0.501-0.048-0.482-0.054C35.568,31.74,35.729,31.757,35.896,31.719C35.922,31.692,35.734,31.758,35.896,31.719z
	 M65.126,32.335c0.495,0.488,1.107,0.108,1.66-0.107c-0.262-0.083-0.478-0.258-0.75-0.321c-0.115-0.027-1.512,0.061-1.462,0.211
	C64.573,32.115,65.102,32.312,65.126,32.335C65.176,32.384,65.009,32.225,65.126,32.335z"/>
</svg>
