<?xml version="1.0" encoding="utf-8"?>
<!-- Generator: Adobe Illustrator 19.2.1, SVG Export Plug-In . SVG Version: 6.00 Build 0)  -->
<svg version="1.1" id="Слой_1" xmlns="http://www.w3.org/2000/svg" xmlns:xlink="http://www.w3.org/1999/xlink" x="0px" y="0px"
	 width="115px" height="48px" viewBox="0 0 115 48" enable-background="new 0 0 115 48" xml:space="preserve">
<g>
	<path fill-rule="evenodd" clip-rule="evenodd" fill="#68887D" d="M38.069,33.449c0,2.244,3.48,2.244,3.479,0
		C41.547,31.212,38.069,31.207,38.069,33.449z"/>
	<path fill-rule="evenodd" clip-rule="evenodd" fill="#68887D" d="M66.451,36.503c-2.285-1.378-4.38,0.364-6.508,1.019
		c-2.662,0.819-4.442-0.78-6.002-2.711c-0.815,0.552-1.631,1.103-2.432,1.65c0.65,1.345,0.835,2.485,0.413,3.945
		c-0.397,1.372-1.236,2.541-2.345,3.431c-0.685,0.55-3.177,1.776-2.647-0.12c0.455-1.625,1.832-3.012,2.056-4.707
		c0.214-1.615-1.31-2.756-2.806-2.767c-1.516-0.011-2.85,0.871-3.794,1.995c-1.198,1.427-2.044,3.128-3.18,4.605
		c-0.595,0.773-1.686,2.021-2.778,1.931c-2.528-0.208,2.28-6.711,2.726-7.423c-0.896-0.42-1.768-0.83-2.626-1.23
		c-1.372,1.928-2.597,4.044-4.263,5.741c-0.918,0.935-5.274,4.661-6.151,2.15c-0.351-1.005,0.233-2.427,0.575-3.356
		c0.442-1.201,1.024-2.346,1.573-3.499c1.166-2.449,2.414-4.849,3.765-7.201C43.782,27.222,54.417,19.168,60.027,8.43
		c1.043-1.997,2.002-4.154,2.469-6.37L62.906,0l-2.088,0.245c-2.688,0.311-5.375,1.466-7.758,2.678
		c-6.177,3.141-11.303,7.985-15.508,13.438c-2.728,3.537-5.169,7.296-7.434,11.143c-1.876,0.354-3.705,0.509-5.435,0.467
		c-0.193-2.85-1.369-5.757-3.794-7.417c-1.872-1.281-4.669-1.701-6.471-0.058c-1.973,1.798-1.42,4.838,0.084,6.739
		c1.712,2.164,4.397,3.091,7.033,3.512c-0.445,3.582-1.614,7.032-3.969,9.824c-2.074,2.459-5.194,4.437-8.522,4.203
		c-6.65-0.467-6.776-8.826-4.792-13.482c1.407-3.304,3.952-5.992,7.078-7.733l-1.485-2.668C2.804,24.812-2.199,33.819,0.862,41.807
		c1.37,3.575,4.494,6.048,8.378,6.186c3.832,0.137,7.462-1.829,10.032-4.568c3.204-3.416,4.755-7.824,5.311-12.404
		c1.174,0.028,2.489-0.047,3.724-0.179c-1.631,2.965-3.611,7.547-3.611,7.547c-1.029,2.362-2.904,6.774-0.149,8.706
		c2.801,1.964,6.292-1.121,8.436-2.686c-0.64,2.878,2.664,3.702,4.699,2.864c3.099-1.276,4.405-4.809,6.42-7.225
		c0.334-0.401,1.825-1.529,1.801-0.33c-0.012,0.611-0.503,1.338-0.772,1.853c-0.419,0.8-0.894,1.593-1.188,2.451
		c-0.385,1.127-0.253,2.374,0.788,3.092c1.232,0.85,2.903,0.575,4.216,0.089c1.425-0.527,2.669-1.435,3.654-2.586
		c1.239-1.447,1.836-3.076,2.509-4.827c0.952,0.406,1.912,0.696,2.96,0.627c-0.778,1.977-0.963,4.71,0.772,6.254
		c1.772,1.577,4.359,1.121,6.15-0.133C67.908,44.497,70.314,38.823,66.451,36.503C65.607,35.994,68.633,37.814,66.451,36.503z
		 M41.063,16.734c4.609-5.558,10.684-10.659,17.677-12.859C54.688,14.519,44.668,22.909,34.02,26.477
		C36.165,23.027,38.574,19.727,41.063,16.734C46.167,10.578,38.574,19.727,41.063,16.734z M20.336,27.382
		c-1.274-0.336-2.565-0.951-3.412-1.994c-0.476-0.587-1.046-1.644-0.613-2.403c0.618-1.085,2.345-0.31,3.061,0.239
		c1.364,1.046,2.016,2.776,2.208,4.436C21.156,27.585,20.742,27.491,20.336,27.382C17.136,26.538,20.742,27.491,20.336,27.382z
		 M62.637,44.757c-1.491,0.254-2.35-0.835-2.209-2.262c0.147-1.49,1.322-3.135,2.857-3.411
		C66.798,38.455,65.25,44.309,62.637,44.757C61.251,44.993,64.231,44.484,62.637,44.757z"/>
</g>
</svg>
