<?xml version="1.0" encoding="utf-8"?>
<!-- Generator: Adobe Illustrator 16.0.0, SVG Export Plug-In . SVG Version: 6.00 Build 0)  -->
<!DOCTYPE svg PUBLIC "-//W3C//DTD SVG 1.1//EN" "http://www.w3.org/Graphics/SVG/1.1/DTD/svg11.dtd">
<svg version="1.1" id="Слой_1" xmlns="http://www.w3.org/2000/svg" xmlns:xlink="http://www.w3.org/1999/xlink" x="0px" y="0px"
	 width="115px" height="48px" viewBox="0 0 115 48" enable-background="new 0 0 115 48" xml:space="preserve">
<path fill="#1A1A18" d="M24.667,30.27c-0.091-0.072-0.195-0.098-0.312-0.078c-0.124,0.02-0.218,0.078-0.283,0.175
	c-1.611,2.248-2.603,3.35-2.973,3.305c-0.202-0.202-0.23-0.868-0.087-1.999c0.051-0.402,0.123-0.863,0.214-1.384
	c0.039-0.194,0.078-0.399,0.117-0.614c0.02-0.078,0.039-0.165,0.059-0.263l0.02-0.116l0.019-0.107
	c0.117-0.579,0.186-0.939,0.205-1.082c0.019-0.234-0.082-0.387-0.302-0.459c-0.221-0.07-0.39-0.006-0.507,0.195
	c-0.383,0.689-0.822,1.368-1.316,2.037c-0.169-0.513-0.53-0.818-1.082-0.916c-0.592-0.104-1.196,0.156-1.813,0.779
	c-0.436,0.442-0.796,0.981-1.082,1.618c-0.036,0.079-0.068,0.157-0.099,0.233c-0.468,0.283-0.932,0.613-1.391,0.995
	c-0.247-1.014-0.504-1.969-0.77-2.866c-0.24-0.792-0.442-1.394-0.604-1.803c-0.085-0.215-0.244-0.313-0.478-0.293
	c-0.228,0.014-0.371,0.134-0.429,0.361c-0.052,0.208-0.26,0.641-0.624,1.297c-0.156-0.229-0.357-0.4-0.604-0.518
	c-0.591-0.279-1.134-0.201-1.628,0.234c-0.325,0.286-0.555,0.672-0.692,1.16c-0.127,0.454-0.134,0.871-0.029,1.252
	c-0.025,1.053-0.46,2.204-1.312,3.455C6.015,36.143,5.069,37,4.049,37.442c-0.871,0.377-1.595,0.299-2.173-0.234
	c-0.78-0.728-1.043-1.676-0.79-2.846c0.28-1.261,1.063-2.573,2.349-3.938c1.189-1.267,2.271-2.06,3.246-2.378
	c0.221-0.072,0.318-0.225,0.292-0.458c-0.026-0.228-0.156-0.354-0.39-0.38c-0.111-0.007-0.361,0.01-0.75,0.049l-0.146,0.02
	l-0.166,0.02c-0.13,0.013-0.25,0.021-0.36,0.028c-0.299,0.026-0.562,0.033-0.79,0.02c-0.63-0.02-1.03-0.146-1.199-0.38
	c-0.091-0.137-0.14-0.267-0.146-0.39C3.013,26.393,3.078,26.201,3.221,26c0.435-0.63,1.309-1.173,2.622-1.628
	c1.273-0.448,2.261-0.584,2.963-0.409c0.156,0.039,0.263,0.091,0.322,0.156c0.02,0.02,0.036,0.042,0.048,0.068l0.01,0.029v0.02
	c0.013,0.117,0.065,0.214,0.156,0.292c0.098,0.071,0.205,0.101,0.321,0.087c0.117-0.012,0.211-0.067,0.283-0.165
	c0.078-0.091,0.107-0.195,0.088-0.312c-0.006-0.084-0.026-0.169-0.059-0.253c-0.033-0.104-0.084-0.198-0.156-0.283
	c-0.176-0.221-0.442-0.377-0.799-0.468c-0.871-0.221-2.024-0.082-3.46,0.419c-1.488,0.52-2.501,1.173-3.041,1.959
	c-0.467,0.669-0.484,1.315-0.049,1.939c0.364,0.526,1.082,0.78,2.154,0.761c-1.007,0.728-1.904,1.604-2.69,2.631
	c-0.884,1.15-1.446,2.262-1.687,3.333c-0.325,1.495,0.023,2.717,1.043,3.665c0.5,0.462,1.085,0.692,1.754,0.692
	c0.435,0,0.884-0.101,1.345-0.303c1.169-0.507,2.238-1.472,3.207-2.895c0.676-0.999,1.113-1.947,1.32-2.849
	c0.077,0.044,0.158,0.083,0.245,0.11c0.091,0.032,0.186,0.052,0.283,0.059c0.305,0.019,0.601-0.082,0.886-0.303
	c0.292-0.221,0.527-0.522,0.702-0.906l0.049-0.107c0.059-0.039,0.107-0.091,0.146-0.155c0.071-0.131,0.127-0.27,0.166-0.42
	l0.117-0.205l0.126-0.213l0.283-0.498c0.104-0.182,0.194-0.344,0.272-0.487c0.37,1.144,0.725,2.46,1.063,3.947l-0.263,0.234
	l-0.253,0.243l-0.312,0.322l-0.292,0.341l-0.283,0.351l-0.175,0.234c-0.253,0.338-0.497,0.698-0.731,1.081
	c-0.279,0.449-0.54,0.914-0.78,1.395c-0.656,1.306-1.137,2.599-1.442,3.879c-0.318,1.352-0.39,2.485-0.214,3.401
	c0.169,0.903,0.542,1.595,1.121,2.076c0.579,0.48,1.322,0.721,2.232,0.721c1.04,0,1.852-0.435,2.437-1.306
	c0.76-1.131,1.092-2.992,0.994-5.585c-0.078-2.033-0.412-4.386-1.004-7.056c0.3-0.272,0.601-0.518,0.905-0.741
	c0.004,0.054,0.01,0.105,0.02,0.156c0.052,0.26,0.146,0.468,0.283,0.624c0.104,0.116,0.23,0.198,0.38,0.243
	c0.565,0.175,1.348-0.234,2.349-1.229c0.767-0.766,1.485-1.611,2.154-2.533c-0.202,1.098-0.306,1.949-0.312,2.554
	c0,0.76,0.143,1.283,0.429,1.568c0.162,0.162,0.36,0.244,0.594,0.244h0.078c0.435-0.039,0.981-0.416,1.637-1.131
	c0.461-0.5,1.118-1.342,1.969-2.524c0.065-0.098,0.088-0.205,0.068-0.321C24.823,30.435,24.765,30.34,24.667,30.27 M10.498,30.425
	c-0.156,0.272-0.267,0.484-0.332,0.634c-0.201,0.448-0.426,0.663-0.672,0.644c-0.143-0.007-0.27-0.173-0.38-0.497
	c-0.072-0.221-0.062-0.484,0.029-0.79c0.084-0.306,0.218-0.539,0.4-0.702c0.117-0.097,0.234-0.146,0.351-0.146
	c0.078,0,0.159,0.02,0.244,0.059c0.091,0.045,0.166,0.106,0.224,0.185c0.045,0.059,0.081,0.127,0.107,0.205
	C10.507,30.146,10.517,30.281,10.498,30.425z M14.348,40.932c0.071,2.28-0.208,3.889-0.838,4.824
	c-0.396,0.585-0.946,0.881-1.647,0.887c-1.351,0-2.16-0.679-2.427-2.037c-0.273-1.423,0.149-3.414,1.267-5.975
	c0.26-0.584,0.533-1.14,0.819-1.666c0.117-0.201,0.228-0.39,0.331-0.565c0.084-0.13,0.169-0.26,0.253-0.39l0.146-0.215l0.146-0.204
	l0.137-0.186l0.175-0.215l0.107-0.126c0.078-0.091,0.156-0.176,0.234-0.254l0.068-0.067l0.107-0.099l0.068-0.058l0.117-0.098
	l0.088-0.068C14.006,36.884,14.289,39.054,14.348,40.932z M17.621,32.092c-0.41,0.402-0.767,0.691-1.072,0.867
	c-0.111,0.065-0.205,0.107-0.283,0.127c-0.033,0.013-0.062,0.02-0.088,0.02c-0.02,0.006-0.033,0.006-0.039,0h-0.01v-0.01
	c-0.006-0.007-0.013-0.017-0.02-0.029c-0.02-0.046-0.036-0.104-0.049-0.176c-0.052-0.267,0.036-0.656,0.263-1.169
	c0.24-0.54,0.546-0.998,0.916-1.374c0.357-0.364,0.676-0.547,0.956-0.547l0.087,0.01c0.215,0.039,0.354,0.15,0.419,0.332
	c0.02,0.064,0.033,0.136,0.04,0.214c0,0.065-0.007,0.127-0.02,0.186c-0.014,0.104,0.006,0.198,0.058,0.282
	C18.397,31.273,18.01,31.695,17.621,32.092z"/>
<path fill="#1A1A18" d="M25.559,32.998c-0.124,0.007-0.228,0.049-0.312,0.126c-0.078,0.085-0.117,0.186-0.117,0.303v0.166
	c-0.006,0.071-0.01,0.143-0.01,0.214c0,0.182-0.003,0.351-0.009,0.507c-0.026,0.448-0.072,0.799-0.137,1.053
	c-0.026,0.117-0.006,0.228,0.059,0.331c0.059,0.098,0.146,0.163,0.263,0.195l0.097,0.01c0.228,0,0.367-0.11,0.419-0.331
	c0.065-0.273,0.113-0.621,0.146-1.043c0.02-0.306,0.029-0.669,0.029-1.092c0-0.123-0.042-0.228-0.126-0.313
	C25.776,33.04,25.676,32.998,25.559,32.998"/>
<path fill="#1A1A18" d="M39.022,29.654c-0.936-0.59-1.875-0.877-2.817-0.857c2.372-2.033,3.548-3.434,3.529-4.2
	c-0.007-0.253-0.108-0.458-0.302-0.614c-0.182-0.136-0.452-0.191-0.809-0.166c-0.481,0.033-1.183,0.214-2.105,0.546
	c-0.929,0.331-1.991,0.786-3.187,1.365l0.059-0.342c0.182-1.065,0.283-1.66,0.302-1.783c0.02-0.117-0.003-0.225-0.068-0.322
	c-0.065-0.098-0.156-0.156-0.273-0.175c-0.117-0.026-0.224-0.003-0.322,0.068c-0.098,0.065-0.159,0.156-0.185,0.273
	c-0.02,0.111-0.12,0.708-0.302,1.794l-0.039,0.224l-0.039,0.243c-0.039,0.202-0.069,0.371-0.088,0.508
	c-1.683,0.877-2.576,1.539-2.68,1.988c-0.026,0.11-0.006,0.217,0.059,0.321c0.058,0.097,0.146,0.159,0.263,0.185
	c0.11,0.026,0.214,0.014,0.312-0.038c0.098-0.06,0.163-0.14,0.195-0.244c0.136-0.221,0.692-0.601,1.667-1.14
	c-0.214,1.254-0.41,2.385-0.585,3.391c-0.234,1.326-0.438,2.485-0.614,3.479c-0.461,2.548-0.753,4-0.877,4.357
	c-0.039,0.117-0.033,0.228,0.02,0.331c0.045,0.11,0.127,0.186,0.244,0.224c0.045,0.014,0.091,0.021,0.137,0.021
	c0.208,0,0.344-0.098,0.409-0.293c0.228-0.656,0.968-4.662,2.222-12.018c1.208-0.617,2.355-1.133,3.44-1.549
	c1.215-0.469,1.979-0.66,2.291-0.575c-0.007,0.038-0.017,0.081-0.029,0.126c-0.026,0.059-0.062,0.127-0.107,0.205
	c-0.117,0.201-0.302,0.448-0.555,0.741c-0.715,0.812-1.888,1.897-3.519,3.255l-0.214,0.176c-0.182,0.149-0.218,0.324-0.107,0.525
	c0.11,0.209,0.279,0.28,0.507,0.215c0.721-0.215,1.368-0.282,1.939-0.205c0.565,0.072,1.153,0.303,1.764,0.692
	c0.949,0.599,1.442,1.192,1.481,1.784c0.045,0.662-0.523,1.507-1.706,2.534l-0.029-0.011c-1.007-0.253-2.118-0.162-3.333,0.273
	c-1.046,0.384-1.773,0.838-2.183,1.364c-0.149,0.188-0.228,0.374-0.234,0.556c-0.006,0.071,0,0.14,0.02,0.205
	c0.013,0.052,0.029,0.101,0.049,0.146c0.201,0.377,0.517,0.604,0.945,0.683c0.104,0.025,0.218,0.039,0.341,0.039
	c0.767,0,1.78-0.396,3.041-1.189c0.396-0.247,0.796-0.52,1.199-0.818c0.124-0.091,0.244-0.182,0.36-0.272
	c0.033-0.026,0.065-0.053,0.097-0.078l0.03-0.02v-0.01h0.01c0.714-0.598,1.244-1.131,1.588-1.599
	c0.481-0.649,0.702-1.271,0.663-1.861C40.835,31.234,40.211,30.415,39.022,29.654 M35.503,36.604
	c-0.792,0.39-1.384,0.549-1.774,0.478c-0.136-0.026-0.237-0.085-0.302-0.176c0.162-0.286,0.627-0.601,1.394-0.945
	c0.91-0.403,1.774-0.581,2.593-0.536C36.738,35.912,36.101,36.306,35.503,36.604z"/>
<path fill="#1A1A18" d="M51.267,31.926c0.013-0.117,0.025-0.247,0.039-0.39l0.02-0.186l0.02-0.165l0.01-0.127
	c0.117-0.014,0.211-0.059,0.282-0.137c0.078-0.084,0.117-0.182,0.117-0.292c0-0.208-0.104-0.341-0.312-0.399
	c0.059-0.722,0.029-1.242-0.088-1.56c-0.039-0.11-0.114-0.192-0.224-0.244c-0.104-0.052-0.211-0.058-0.322-0.02
	c-0.117,0.046-0.198,0.12-0.244,0.224c-0.052,0.111-0.059,0.222-0.02,0.332c0.078,0.208,0.088,0.637,0.029,1.287
	c-0.26,0.032-0.601,0.087-1.023,0.165c-0.631,0.117-1.102,0.183-1.414,0.194c0.006-1.078,0.065-1.767,0.175-2.065
	c0.117-0.11,0.156-0.247,0.117-0.409c-0.026-0.117-0.088-0.208-0.185-0.273c-0.104-0.059-0.211-0.074-0.322-0.049
	c-0.156,0.033-0.276,0.131-0.361,0.293c-0.032,0.059-0.059,0.127-0.078,0.205l-0.029,0.087l-0.01,0.078
	c-0.113,0.53-0.167,1.325-0.166,2.378c-0.088,0.041-0.159,0.1-0.202,0.186c-0.338,0.688-0.643,1.222-0.917,1.599
	c-0.104,0.143-0.198,0.26-0.282,0.351c-0.065,0.065-0.124,0.113-0.176,0.146l-0.01-0.028c-0.201-0.578-0.24-1.29-0.117-2.135
	c0.052-0.324,0.126-0.688,0.224-1.092l0.146-0.526l0.068-0.253l0.068-0.254c0.072-0.24-0.006-0.412-0.233-0.516
	c-0.234-0.098-0.416-0.039-0.546,0.175c-0.13,0.228-0.27,0.487-0.419,0.779c-0.085,0.183-0.208,0.445-0.371,0.79
	c-0.364,0.793-0.663,1.367-0.896,1.725c-0.299,0.468-0.579,0.858-0.838,1.17c-0.208,0.253-0.374,0.419-0.497,0.497
	c-0.013-0.032-0.026-0.071-0.039-0.117c-0.013-0.064-0.026-0.14-0.039-0.225c-0.02-0.221-0.013-0.503,0.02-0.848
	c0.078-0.961,0.345-2.31,0.799-4.044c0.11-0.104,0.156-0.23,0.137-0.381c0.006-0.221-0.082-0.37-0.263-0.448
	c-0.033-0.013-0.065-0.022-0.098-0.029c-0.045-0.013-0.091-0.016-0.136-0.01c-0.117,0.02-0.225,0.091-0.322,0.214
	c-0.039,0.047-0.065,0.098-0.078,0.156l-0.039,0.137c-0.533,2.021-0.825,3.555-0.877,4.601c-0.039,0.715,0.045,1.222,0.253,1.521
	c0.143,0.214,0.334,0.335,0.575,0.36l0.048,0.01h0.049c0.084,0,0.176-0.02,0.273-0.059c0.123-0.052,0.26-0.143,0.409-0.272
	c0.383-0.338,0.845-0.926,1.384-1.765c0.104-0.155,0.208-0.327,0.312-0.517c-0.013,0.599,0.065,1.144,0.234,1.638
	c0.078,0.233,0.198,0.406,0.36,0.517c0.059,0.039,0.124,0.071,0.195,0.098c0.059,0.013,0.114,0.022,0.166,0.029
	c0.286,0.02,0.571-0.117,0.857-0.41c0.267-0.271,0.56-0.688,0.879-1.245c0.091,0.932,0.277,1.505,0.561,1.713
	c0.078,0.059,0.169,0.088,0.273,0.088c0.143,0,0.256-0.055,0.341-0.165c0.072-0.098,0.101-0.201,0.088-0.312
	c-0.013-0.117-0.068-0.208-0.166-0.273c-0.15-0.195-0.244-0.848-0.283-1.96c0.37-0.012,0.887-0.08,1.55-0.203
	c0.338-0.059,0.598-0.104,0.78-0.137c-0.117,1.014-0.156,1.728-0.117,2.144c0.052,0.676,0.279,1.111,0.682,1.306
	c0.059,0.033,0.12,0.05,0.185,0.05c0.182,0,0.312-0.081,0.39-0.244c0.052-0.104,0.059-0.211,0.02-0.321
	c-0.039-0.117-0.111-0.201-0.214-0.254c-0.156-0.077-0.228-0.432-0.214-1.063C51.218,32.518,51.234,32.244,51.267,31.926"/>
<path fill="#1A1A18" d="M58.115,28.311c0,0-0.059,0.003-0.175,0.01c-0.124,0.006-0.224,0.055-0.302,0.146
	c-0.052,0.065-0.121,0.155-0.205,0.272c-0.233,0.286-0.428,0.504-0.584,0.653c-0.234,0.228-0.461,0.39-0.682,0.487
	c-0.39,0.176-0.845,0.153-1.365-0.068c-0.247-0.448-0.568-0.672-0.964-0.672c-0.169,0-0.292,0.071-0.371,0.214
	c-0.084,0.149-0.081,0.296,0.01,0.438c0.156,0.254,0.38,0.469,0.672,0.644c0.162,0.423,0.253,0.972,0.272,1.647
	c0.02,0.767-0.062,1.426-0.244,1.979c-0.168,0.514-0.367,0.776-0.594,0.789h-0.029h-0.048c-0.039-0.006-0.075-0.02-0.107-0.039
	c-0.104-0.052-0.198-0.149-0.283-0.292c-0.318-0.553-0.442-1.427-0.37-2.622c0.071-1.189,0.302-2.099,0.692-2.729
	c0.039-0.053,0.074-0.102,0.107-0.146c0.052-0.064,0.1-0.117,0.146-0.156c0.059,0.059,0.127,0.095,0.205,0.107
	c0.11,0.025,0.218,0.006,0.322-0.059c0.097-0.064,0.159-0.156,0.185-0.273c0.026-0.148,0.016-0.292-0.029-0.428
	c-0.059-0.182-0.182-0.283-0.371-0.303c-0.214-0.013-0.416,0.029-0.604,0.127c-0.253,0.13-0.481,0.357-0.682,0.682
	c-0.462,0.729-0.738,1.755-0.829,3.08c-0.097,1.378,0.065,2.427,0.487,3.148c0.292,0.507,0.689,0.76,1.189,0.76h0.059
	c0.565-0.025,0.997-0.419,1.296-1.179c0.266-0.67,0.387-1.491,0.36-2.466c-0.013-0.461-0.058-0.884-0.136-1.268
	c0.527,0.085,0.984,0.043,1.374-0.127c0.436-0.194,0.89-0.571,1.365-1.13c0.149-0.149,0.286-0.318,0.41-0.507
	c0.156-0.24,0.143-0.441-0.039-0.604C58.16,28.349,58.115,28.311,58.115,28.311"/>
<path fill="#1A1A18" d="M68.323,30.844c-0.104-0.052-0.212-0.059-0.322-0.02c-0.116,0.039-0.201,0.111-0.253,0.215
	c-0.338,0.688-0.644,1.222-0.916,1.599c-0.104,0.143-0.199,0.26-0.283,0.351c-0.064,0.065-0.123,0.113-0.176,0.146l-0.01-0.028
	c-0.201-0.578-0.24-1.29-0.116-2.135c0.052-0.324,0.126-0.688,0.224-1.092l0.146-0.526l0.068-0.253l0.068-0.254
	c0.071-0.24-0.007-0.412-0.234-0.516c-0.233-0.098-0.416-0.039-0.545,0.175c-0.131,0.228-0.27,0.487-0.42,0.779
	c-0.084,0.183-0.208,0.445-0.37,0.79c-0.364,0.793-0.663,1.367-0.896,1.725c-0.299,0.468-0.579,0.858-0.839,1.17
	c-0.207,0.253-0.373,0.419-0.497,0.497c-0.013-0.032-0.025-0.071-0.038-0.117c-0.014-0.064-0.026-0.14-0.039-0.225
	c-0.02-0.221-0.014-0.503,0.02-0.848c0.078-0.961,0.344-2.31,0.799-4.044c0.11-0.104,0.156-0.23,0.137-0.381
	c0.006-0.221-0.082-0.37-0.264-0.448c-0.032-0.013-0.064-0.022-0.098-0.029c-0.045-0.013-0.091-0.016-0.136-0.01
	c-0.117,0.02-0.225,0.091-0.321,0.214c-0.039,0.047-0.065,0.098-0.078,0.156l-0.039,0.137c-0.533,2.021-0.826,3.555-0.877,4.601
	c-0.039,0.715,0.045,1.222,0.253,1.521c0.143,0.214,0.335,0.335,0.575,0.36l0.049,0.01h0.049c0.084,0,0.175-0.02,0.272-0.059
	c0.123-0.052,0.26-0.143,0.409-0.272c0.383-0.338,0.845-0.926,1.384-1.765c0.104-0.155,0.208-0.327,0.312-0.517
	c-0.012,0.599,0.065,1.144,0.234,1.638c0.078,0.233,0.198,0.406,0.361,0.517c0.059,0.039,0.123,0.071,0.194,0.098
	c0.059,0.013,0.114,0.022,0.165,0.029c0.287,0.02,0.572-0.117,0.858-0.41c0.403-0.409,0.864-1.144,1.384-2.202
	c0.053-0.104,0.059-0.214,0.02-0.331C68.505,30.978,68.434,30.896,68.323,30.844"/>
<path fill="#1A1A18" d="M82.926,24.664c0.085-0.084,0.127-0.185,0.127-0.301c0-0.117-0.042-0.218-0.127-0.302
	c-0.084-0.084-0.185-0.127-0.302-0.127c-1.371,0.007-3.167,0.25-5.39,0.73c-0.325,0.065-0.728,0.146-1.209,0.244
	c-0.436,0.078-0.721,0.131-0.857,0.156l-0.614,0.117l-0.623,0.117c-0.468,0.097-0.884,0.185-1.247,0.263L72.42,25.62l-0.146,0.029
	l-0.146,0.028c-0.109,0.033-0.201,0.068-0.272,0.107c-0.188,0.104-0.276,0.264-0.263,0.479c0.012,0.109,0.058,0.204,0.136,0.282
	c0.085,0.071,0.183,0.106,0.293,0.106h0.038c0.117-0.006,0.215-0.055,0.293-0.146l0.107-0.02l0.117-0.029l0.146-0.02l0.146-0.039
	c0.356-0.078,0.767-0.162,1.228-0.253l0.624-0.117l0.604-0.117l0.302-0.059c-0.02,0.189-0.045,0.481-0.078,0.878
	c-0.097,1.222-0.188,2.384-0.272,3.489c-0.11,1.461-0.198,2.67-0.264,3.625c-0.084,1.267-0.126,2.047-0.126,2.339
	c0,0.117,0.042,0.218,0.126,0.303c0.085,0.084,0.186,0.127,0.303,0.127c0.123,0,0.225-0.043,0.302-0.127
	c0.085-0.085,0.127-0.186,0.127-0.303c0-0.448,0.107-2.095,0.322-4.94c0.078-0.988,0.162-2.08,0.253-3.275
	c0.032-0.448,0.068-0.893,0.107-1.336c0.025-0.35,0.049-0.666,0.067-0.945l0.917-0.185c2.164-0.468,3.901-0.705,5.214-0.712
	C82.741,24.791,82.842,24.75,82.926,24.664"/>
<path fill="#1A1A18" d="M90.444,31.926c0.013-0.117,0.025-0.247,0.039-0.39l0.019-0.186l0.02-0.165l0.011-0.127
	c0.116-0.014,0.211-0.059,0.282-0.137c0.078-0.084,0.117-0.182,0.117-0.292c0-0.208-0.104-0.342-0.313-0.399
	c0.059-0.722,0.029-1.242-0.087-1.561c-0.04-0.109-0.114-0.191-0.225-0.243c-0.104-0.052-0.212-0.059-0.322-0.02
	c-0.116,0.046-0.197,0.12-0.243,0.224c-0.053,0.111-0.059,0.222-0.02,0.332c0.078,0.208,0.088,0.637,0.029,1.287
	c-0.26,0.031-0.602,0.088-1.023,0.165c-0.63,0.116-1.102,0.183-1.413,0.194c0.006-1.078,0.064-1.767,0.176-2.065
	c0.116-0.11,0.155-0.247,0.116-0.409c-0.025-0.117-0.088-0.209-0.185-0.273c-0.104-0.059-0.211-0.074-0.322-0.049
	c-0.155,0.033-0.275,0.131-0.36,0.293c-0.033,0.059-0.059,0.127-0.078,0.205l-0.028,0.087l-0.011,0.078
	c-0.096,0.453-0.149,1.099-0.162,1.932c-1.594,2.22-2.575,3.309-2.943,3.264c-0.201-0.202-0.23-0.868-0.088-1.999
	c0.052-0.402,0.124-0.863,0.215-1.384c0.039-0.194,0.078-0.399,0.117-0.614c0.02-0.078,0.038-0.165,0.058-0.263l0.02-0.116
	l0.02-0.107c0.117-0.579,0.186-0.939,0.205-1.082c0.02-0.234-0.081-0.387-0.302-0.459c-0.222-0.07-0.391-0.006-0.507,0.195
	c-0.384,0.689-0.822,1.368-1.316,2.037c-0.169-0.513-0.529-0.818-1.082-0.916c-0.591-0.104-1.195,0.156-1.813,0.779
	c-0.436,0.442-0.796,0.981-1.082,1.618c-0.305,0.676-0.416,1.241-0.331,1.696c0.052,0.26,0.146,0.468,0.282,0.624
	c0.104,0.116,0.23,0.198,0.381,0.243c0.565,0.175,1.348-0.234,2.349-1.229c0.767-0.766,1.484-1.611,2.153-2.533
	c-0.201,1.098-0.305,1.949-0.312,2.554c0,0.76,0.144,1.283,0.429,1.568c0.162,0.162,0.361,0.244,0.595,0.244h0.078
	c0.436-0.039,0.981-0.416,1.637-1.131c0.324-0.351,0.744-0.872,1.259-1.557c0.066,1.251,0.266,2.002,0.6,2.248
	c0.078,0.06,0.169,0.088,0.273,0.088c0.143,0,0.257-0.055,0.341-0.165c0.071-0.098,0.101-0.201,0.088-0.313
	c-0.014-0.116-0.068-0.207-0.166-0.272c-0.149-0.195-0.243-0.848-0.282-1.959c0.37-0.013,0.887-0.081,1.55-0.204
	c0.338-0.059,0.598-0.104,0.779-0.137c-0.116,1.013-0.155,1.729-0.116,2.144c0.051,0.676,0.278,1.111,0.682,1.306
	c0.059,0.033,0.12,0.05,0.186,0.05c0.182,0,0.312-0.082,0.39-0.244c0.052-0.104,0.059-0.211,0.02-0.321
	c-0.039-0.117-0.111-0.202-0.215-0.254c-0.155-0.078-0.228-0.432-0.214-1.063C90.396,32.518,90.411,32.244,90.444,31.926
	 M80.038,32.092c-0.409,0.402-0.767,0.691-1.072,0.867c-0.11,0.065-0.205,0.107-0.282,0.127c-0.033,0.013-0.063,0.02-0.088,0.02
	c-0.02,0.006-0.032,0.006-0.039,0h-0.01v-0.01c-0.007-0.007-0.013-0.017-0.02-0.029c-0.02-0.046-0.036-0.104-0.049-0.176
	c-0.052-0.267,0.036-0.656,0.264-1.169c0.239-0.54,0.546-0.998,0.916-1.374c0.357-0.364,0.676-0.547,0.955-0.547l0.088,0.01
	c0.214,0.039,0.354,0.15,0.419,0.332c0.02,0.064,0.032,0.136,0.039,0.214c0,0.065-0.007,0.127-0.02,0.186
	c-0.014,0.104,0.006,0.198,0.059,0.282C80.814,31.273,80.428,31.695,80.038,32.092z"/>
<path fill="#1A1A18" d="M95.597,33.904c-0.104-0.299-0.117-0.929-0.039-1.891c0.084-0.969,0.224-1.79,0.419-2.466
	c0.071-0.247-0.007-0.419-0.233-0.517c-0.234-0.098-0.416-0.039-0.546,0.176c-0.131,0.221-0.271,0.48-0.42,0.779l-0.185,0.39
	l-0.186,0.39c-0.363,0.8-0.663,1.378-0.896,1.735c-0.299,0.461-0.575,0.848-0.828,1.16c-0.215,0.253-0.384,0.422-0.507,0.506
	c-0.014-0.032-0.026-0.074-0.039-0.126c-0.014-0.059-0.026-0.13-0.039-0.215c-0.02-0.228-0.013-0.51,0.02-0.848
	c0.078-0.968,0.344-2.316,0.799-4.045c0.11-0.104,0.156-0.23,0.137-0.38c0.007-0.228-0.081-0.38-0.264-0.458
	c-0.032-0.014-0.064-0.023-0.097-0.029c-0.046-0.006-0.091-0.006-0.137,0c-0.117,0.02-0.224,0.091-0.322,0.214
	c-0.032,0.046-0.058,0.095-0.077,0.146l-0.039,0.146c-0.533,2.021-0.825,3.556-0.877,4.601c-0.039,0.716,0.045,1.222,0.253,1.521
	c0.143,0.215,0.335,0.335,0.575,0.361h0.049l0.059,0.01c0.045,0,0.091-0.007,0.137-0.02c0.116-0.032,0.249-0.104,0.399-0.215
	c0.409-0.305,0.916-0.926,1.521-1.861c0.149-0.233,0.302-0.5,0.458-0.799c-0.098,1.273,0.01,2.072,0.321,2.397
	c0.176,0.188,0.387,0.253,0.634,0.194c0.259-0.058,0.468,0.014,0.623,0.215c0.149,0.188,0.231,0.432,0.244,0.73
	c0.013,0.306-0.046,0.579-0.176,0.819c-0.058,0.11-0.068,0.221-0.029,0.331c0.033,0.117,0.102,0.201,0.205,0.254
	c0.064,0.032,0.133,0.049,0.204,0.049c0.176,0,0.303-0.078,0.381-0.234c0.208-0.396,0.299-0.825,0.272-1.287
	c-0.032-0.467-0.172-0.863-0.419-1.188C96.606,34.002,96.155,33.82,95.597,33.904"/>
<path fill="#1A1A18" d="M105.544,31.156c-0.025-0.111-0.087-0.201-0.185-0.273c-0.098-0.064-0.205-0.084-0.321-0.059
	c-0.117,0.02-0.208,0.078-0.273,0.176c-0.156,0.228-0.384,0.64-0.682,1.237l-0.05,0.098l-0.059,0.117
	c-0.045,0.091-0.087,0.175-0.126,0.253c-0.11,0.208-0.212,0.387-0.302,0.536c-0.254,0.429-0.442,0.66-0.565,0.692
	c-0.092-0.149-0.153-0.48-0.186-0.994c-0.039-0.494-0.036-0.9,0.01-1.218c0.169-1.378,0.465-2.521,0.887-3.431
	c0.091-0.209,0.053-0.381-0.117-0.518c-0.071-0.059-0.133-0.088-0.185-0.088c-0.078,0-0.208,0.039-0.39,0.117
	c-0.261,0.117-1.121,0.576-2.583,1.375c-1.125,0.617-1.943,1.075-2.456,1.374c0.136-0.676,0.419-1.599,0.848-2.769
	c0.039-0.11,0.032-0.221-0.02-0.331c-0.052-0.104-0.133-0.175-0.244-0.214c-0.109-0.046-0.218-0.043-0.321,0.01
	C98.114,27.3,98.04,27.381,98,27.491c-0.447,1.241-0.747,2.219-0.896,2.934c-0.163,0.806-0.241,1.735-0.234,2.787
	c0,0.286,0.049,0.56,0.146,0.819c0.11,0.306,0.272,0.539,0.487,0.701c0.194,0.15,0.415,0.225,0.662,0.225
	c0.11,0,0.221-0.013,0.332-0.039c0.266-0.071,0.559-0.286,0.877-0.644c0.272-0.312,0.51-0.666,0.712-1.063
	c0.175-0.337,0.292-0.656,0.351-0.955c0.084-0.39,0.071-0.728-0.039-1.013c-0.137-0.332-0.342-0.576-0.614-0.731
	c0.813-0.448,1.712-0.942,2.7-1.481c-0.234,0.74-0.413,1.602-0.537,2.583v0.01v0.02c-0.006,0.032-0.009,0.064-0.009,0.097
	c-0.007,0.104-0.014,0.212-0.02,0.322c-0.014,0.357-0.007,0.688,0.02,0.994c0.071,0.981,0.314,1.543,0.73,1.686
	c0.416,0.15,0.822-0.01,1.219-0.478c0.155-0.188,0.321-0.438,0.497-0.75c0.071-0.123,0.149-0.27,0.233-0.438l0.234-0.449
	c0.285-0.564,0.494-0.945,0.624-1.14C105.541,31.383,105.563,31.273,105.544,31.156 M99.326,32.822
	c-0.176,0.338-0.377,0.637-0.604,0.896c-0.195,0.215-0.341,0.335-0.438,0.361c-0.064,0.02-0.12,0.022-0.166,0.01
	c-0.032-0.007-0.064-0.02-0.097-0.039c-0.188-0.149-0.286-0.433-0.293-0.849c0-0.584,0.02-1.104,0.059-1.559l0.088-0.039
	c0.078-0.052,0.172-0.104,0.282-0.156c0.124-0.059,0.247-0.106,0.37-0.146c0.318-0.11,0.565-0.136,0.741-0.077
	c0.064,0.02,0.12,0.049,0.165,0.087c0.065,0.059,0.121,0.144,0.166,0.254C99.703,31.832,99.612,32.251,99.326,32.822z"/>
<polygon fill="#1A1A18" points="18.088,45.331 18.057,44.846 18.537,44.821 18.537,41.815 18.051,41.79 18.082,41.336 
	20.362,41.336 20.958,41.306 20.958,42.498 20.418,42.498 20.387,41.864 19.237,41.864 19.237,44.853 19.778,44.877 19.748,45.331 
	"/>
<path fill="#1A1A18" d="M20.832,45.331l-0.031-0.485l0.461-0.024l1.322-3.485h0.916l1.322,3.522l0.454,0.019l-0.031,0.454h-1.506
	v-0.394l0.375-0.018l-0.295-0.763h-1.647l-0.295,0.744l0.412,0.019l-0.03,0.411H20.832z M22.331,43.715h1.328l-0.657-1.838
	L22.331,43.715z"/>
<path fill="#1A1A18" d="M28.117,42.768l-0.055-0.731c-0.104-0.086-0.351-0.239-0.725-0.239c-0.774,0-1.353,0.529-1.353,1.494
	c0,0.952,0.535,1.579,1.42,1.579c0.811,0,1.303-0.608,1.303-0.608l0.264,0.437c0,0-0.485,0.731-1.635,0.731
	c-1.383,0-2.072-0.879-2.072-2.139c0-1.261,0.854-2.047,1.973-2.047c0.387,0,0.695,0.153,0.897,0.282l0.11-0.228h0.412v1.469H28.117
	z"/>
<polygon fill="#1A1A18" points="29.179,42.405 29.209,41.306 29.806,41.336 32.086,41.336 32.683,41.306 32.683,42.405 
	32.173,42.405 32.129,41.864 31.281,41.864 31.281,44.821 31.761,44.846 31.73,45.331 30.132,45.331 30.101,44.846 30.574,44.821 
	30.574,41.864 29.744,41.864 29.683,42.405 "/>
<path fill="#1A1A18" d="M33.287,45.331l-0.03-0.485l0.479-0.024v-3.006L33.25,41.79l0.03-0.454h1.66
	c0.971,0,1.549,0.362,1.549,1.235c0,1.008-0.805,1.433-1.537,1.433h-0.565v0.885l0.578,0.019l-0.031,0.424H33.287z M34.387,41.834
	v1.69h0.437c0.504,0,0.946-0.246,0.946-0.91c0-0.584-0.387-0.78-0.946-0.78H34.387z"/>
<path fill="#1A1A18" d="M38.972,45.43c-1.297,0-2.034-0.892-2.034-2.157c0-1.261,0.737-2.028,2.034-2.028
	c1.304,0,2.06,0.768,2.06,2.028C41.032,44.538,40.276,45.43,38.972,45.43 M38.972,41.797c-0.842,0-1.315,0.534-1.315,1.476
	c0,0.946,0.467,1.604,1.315,1.604c0.861,0,1.334-0.658,1.334-1.604C40.307,42.331,39.821,41.797,38.972,41.797z"/>
<polygon fill="#1A1A18" points="41.306,45.331 41.275,44.846 41.754,44.821 41.754,41.815 41.269,41.79 41.3,41.336 45.455,41.336 
	45.455,41.79 44.994,41.815 44.994,44.821 45.479,44.846 45.449,45.331 43.85,45.331 43.819,44.846 44.293,44.821 44.293,41.864 
	42.455,41.864 42.455,44.821 42.935,44.846 42.904,45.331 "/>
<path fill="#1A1A18" d="M45.9,45.331l-0.03-0.485l0.461-0.024l1.321-3.485h0.916l1.322,3.522l0.455,0.019l-0.031,0.454h-1.506
	v-0.394l0.375-0.018l-0.295-0.763h-1.647l-0.295,0.744l0.412,0.019l-0.031,0.411H45.9z M47.401,43.715h1.328l-0.658-1.838
	L47.401,43.715z"/>
<path fill="#1A1A18" d="M53.183,42.338l-0.031-0.474H51.91v1.069h0.479c1.088,0,1.752,0.32,1.752,1.113
	c0,0.787-0.565,1.284-1.709,1.284H50.76l-0.03-0.485l0.479-0.024v-3.006l-0.485-0.024l0.03-0.455h2.373l0.597-0.031v1.033H53.183z
	 M51.91,43.414v1.426h0.485c0.689,0,1.064-0.246,1.064-0.763c0-0.504-0.399-0.663-1.07-0.663H51.91z"/>
<polygon fill="#1A1A18" points="56.436,45.381 56.405,44.896 56.762,44.871 56.762,42.817 56.417,42.793 56.448,42.308 
	57.432,42.308 57.432,43.562 58.864,43.562 58.864,42.727 58.582,42.701 58.582,42.308 59.848,42.308 59.848,42.793 59.534,42.817 
	59.534,44.902 59.891,44.927 59.86,45.381 58.864,45.381 58.864,44.042 57.432,44.042 57.432,44.97 57.727,44.988 57.696,45.381 "/>
<path fill="#1A1A18" d="M60.543,43.285l0.024-1.015h0.411l0.063,0.203c0.165-0.116,0.448-0.265,0.805-0.265
	c0.683,0,1.101,0.345,1.101,1.156v1.537l0.356,0.024l-0.031,0.455h-0.873l-0.092-0.351c-0.037,0.073-0.283,0.448-0.953,0.448
	c-0.694,0-1.094-0.344-1.094-0.903c0-0.903,1.236-0.972,2.022-1.045v-0.154c0-0.497-0.172-0.688-0.614-0.688
	c-0.295,0-0.492,0.122-0.591,0.209l-0.03,0.387H60.543z M62.282,44.619v-0.67c-0.713,0.049-1.334,0.092-1.334,0.565
	c0,0.344,0.203,0.504,0.614,0.504C62.08,45.019,62.264,44.656,62.282,44.619z"/>
<polygon fill="#1A1A18" points="66.438,41.878 67.12,43.015 67.734,43.015 67.734,41.865 67.311,41.841 67.342,41.387 
	68.785,41.387 68.785,41.841 68.393,41.865 68.393,43.015 68.958,43.015 69.751,41.878 69.578,41.865 69.578,41.387 71.066,41.387 
	71.066,41.841 70.477,41.859 69.475,43.187 70.648,44.884 71.264,44.896 71.232,45.382 70.249,45.382 70.01,45.13 68.951,43.544 
	68.393,43.544 68.393,44.902 68.879,44.927 68.848,45.382 67.286,45.382 67.256,44.927 67.734,44.902 67.734,43.544 67.17,43.544 
	66.284,45.087 66.045,45.382 65.049,45.382 65.049,44.896 65.607,44.884 66.615,43.298 65.706,41.859 65.135,41.841 65.172,41.387 
	66.628,41.387 66.628,41.865 "/>
<path fill="#1A1A18" d="M71.564,46.401c0,0,0.24,0.087,0.455,0.087c0.313,0,0.584-0.431,0.83-1.106l-1.088-2.563l-0.443-0.025
	l0.037-0.485h0.941l0.896,2.343h0.014l0.669-1.851l-0.313-0.013v-0.479h1.321v0.485l-0.399,0.019l-1.026,2.662
	c-0.362,0.94-0.799,1.543-1.358,1.543c-0.517,0-0.596-0.16-0.596-0.16L71.564,46.401z"/>
<polygon fill="#1A1A18" points="75.226,45.381 75.195,44.896 75.552,44.871 75.552,42.817 75.146,42.793 75.177,42.308 
	76.222,42.308 76.222,43.617 76.658,43.421 77.112,42.763 76.965,42.751 76.996,42.308 78.257,42.308 78.257,42.793 77.691,42.867 
	77.082,43.647 77.905,44.847 78.483,44.865 78.453,45.381 77.574,45.381 77.328,45.124 76.517,43.955 76.222,44.084 76.222,44.938 
	76.517,44.957 76.486,45.381 "/>
<path fill="#1A1A18" d="M78.638,43.82c0-1.009,0.547-1.61,1.58-1.61c1.032,0,1.579,0.602,1.579,1.61
	c0,1.008-0.584,1.659-1.579,1.659C79.185,45.479,78.638,44.828,78.638,43.82 M81.103,43.826c0-0.713-0.258-1.138-0.885-1.138
	s-0.886,0.425-0.886,1.138c0,0.719,0.259,1.181,0.886,1.181S81.103,44.545,81.103,43.826z"/>
<path fill="#1A1A18" d="M82.159,44.896l0.357-0.025v-2.053l-0.345-0.025l0.031-0.485h1.543c0.989,0,1.266,0.289,1.266,0.781
	c0,0.344-0.252,0.553-0.51,0.676c0.326,0.093,0.64,0.289,0.64,0.67c0,0.553-0.351,0.946-1.408,0.946H82.19L82.159,44.896z
	 M83.869,43.648c0,0,0.504-0.056,0.504-0.468c0-0.271-0.147-0.424-0.634-0.424h-0.584v0.892H83.869z M83.155,43.979v0.953h0.572
	c0.627,0,0.756-0.264,0.756-0.547c0-0.246-0.185-0.406-0.67-0.406H83.155z"/>
<path fill="#1A1A18" d="M85.793,43.285l0.024-1.015h0.412l0.062,0.203c0.166-0.116,0.448-0.265,0.806-0.265
	c0.682,0,1.1,0.345,1.1,1.156v1.537l0.356,0.024l-0.03,0.455h-0.873l-0.093-0.351c-0.036,0.073-0.282,0.448-0.952,0.448
	c-0.694,0-1.094-0.344-1.094-0.903c0-0.903,1.235-0.972,2.021-1.045v-0.154c0-0.497-0.172-0.688-0.614-0.688
	c-0.295,0-0.492,0.122-0.59,0.209l-0.031,0.387H85.793z M87.532,44.619v-0.67c-0.713,0.049-1.334,0.092-1.334,0.565
	c0,0.344,0.203,0.504,0.615,0.504C87.329,45.019,87.515,44.656,87.532,44.619z"/>
</svg>
