<?xml version="1.0" encoding="utf-8"?>
<!-- Generator: Adobe Illustrator 19.2.1, SVG Export Plug-In . SVG Version: 6.00 Build 0)  -->
<svg version="1.1" id="Слой_1" xmlns="http://www.w3.org/2000/svg" xmlns:xlink="http://www.w3.org/1999/xlink" x="0px" y="0px"
	 width="115px" height="48px" viewBox="0 0 115 48" enable-background="new 0 0 115 48" xml:space="preserve">
<style type="text/css">
	.st0{fill:#3F2D1F;}
</style>
<path class="st0" d="M44.4,44.5h-2.3v3.5h2.3v-0.5h-1.8v-1.1h1.3v-0.5h-1.3V45h1.7L44.4,44.5L44.4,44.5z M40.4,44.5h-2.2v3.5h0.6
	v-1.4h1.4V46h-1.4v-1h1.7L40.4,44.5L40.4,44.5z M35.4,46.9h-1.2l0.6-1.4L35.4,46.9z M35.8,47.9h0.6l-1.5-3.5h-0.2l-1.5,3.5h0.6
	l0.2-0.6h1.6L35.8,47.9z M30.2,44.4c-0.5,0-0.9,0.2-1.3,0.5c-0.4,0.3-0.5,0.8-0.5,1.3c0,0.5,0.2,0.9,0.5,1.3
	c0.4,0.3,0.8,0.5,1.3,0.5c0.3,0,0.6-0.1,0.9-0.2c0.3-0.1,0.5-0.3,0.6-0.6l-0.4-0.3c-0.3,0.4-0.6,0.6-1.1,0.6c-0.4,0-0.7-0.1-0.9-0.4
	c-0.2-0.2-0.4-0.5-0.4-0.9c0-0.4,0.1-0.7,0.4-0.9s0.5-0.4,0.9-0.4c0.4,0,0.8,0.2,1.1,0.6l0.4-0.3c-0.2-0.2-0.4-0.4-0.6-0.6
	C30.8,44.5,30.5,44.4,30.2,44.4L30.2,44.4z M71.3,24.2c-3.4-1.1-2.2-5.1-3.6-5.9l0.5-0.8c3.2,1.3,1.9,4.7,3.4,6L71.3,24.2
	 M71.2,34.4c0,1-0.1,2.4,0.8,3.4l-0.4,0.8C70.1,38,69,36.6,69,34.1v-3.9v0v-4.7h2.2V34.4 M24.7,25.5c-1.2,0-2.4,0.4-3.2,1.2
	c-0.6-0.7-1.4-1.1-2-1.2L19,26.3c1.4,0.7,1.4,2.3,1.4,3.3v4.7v0v6.1c0,2.4,1,3.9,2.6,4.5l0.4-0.8c-0.9-1-0.8-2.4-0.8-3.4v-2.5
	c0.6,0.3,1.4,0.5,2.2,0.5c2.3,0,4.3-1.4,4.3-4.4v-4.4C29.1,26.9,27.1,25.5,24.7,25.5 M26.9,34.6c0,1-0.1,3.1-2.2,3.1
	c-2.1,0-2.2-2.1-2.2-3.1v-5c0-1,0.1-3.1,2.2-3.1c2.1,0,2.2,2.1,2.2,3.1V34.6z M44.9,25.5c1.4,0,3,0.7,3,1.9c0,1-1.2,1.6-1.2,1.6
	l-0.9-0.4c0.5-0.8,0.4-2.1-1-2.1c-0.9,0-1.4,0.8-1.4,1.9v10.2h-2.2v-9c0-1,0-2.6-1.4-3.3l0.5-0.8c0.6,0.1,1.3,0.4,1.9,1.1
	C42.9,25.9,43.8,25.5,44.9,25.5 M39.3,29.9c0-3-2-4.4-4.3-4.4c-0.1,0-0.1,0-0.2,0v0h0v0c-2.2,0.1-4.1,1.5-4.1,4.4l0,0c0,0,0,0,0,0
	s0,0,0,0v2.2v2.2c0,3,2.1,4.4,4.5,4.4c1.8,0,3.4-0.8,3.4-2.1c0-1-0.9-1.4-0.9-1.4l-0.9,0.4c0.5,0.9-0.1,2.1-1.8,2.1c0,0,0,0,0,0l0,0
	c-2.1,0-2.2-2.1-2.2-3.1v-0.8c0.6,0.3,1.4,0.5,2.2,0.5C37.3,34.3,39.3,32.9,39.3,29.9L39.3,29.9C39.3,29.9,39.3,29.9,39.3,29.9
	C39.3,29.9,39.3,29.9,39.3,29.9L39.3,29.9z M35,33.3c-2.1,0-2.2-2.1-2.2-3.1v-0.6c0-1,0.1-3.1,2.2-3.1c2.1,0,2.2,2.4,2.2,3.4
	C37.2,30.9,37.1,33.3,35,33.3z M56.7,34.6l0-4.7c0-3-2.1-4.4-4.4-4.4c-1.8,0-3.5,0.8-3.5,2.1c0,1,0.9,1.4,0.9,1.4l0.9-0.4
	c-0.5-0.9,0.1-2.1,1.8-2.1c0,0,0,0,0,0l0,0c2.1,0,2.2,2.1,2.2,3.1v0.8c-0.6-0.3-1.4-0.5-2.2-0.5c-2.3,0-4.3,1.4-4.3,4.4l0,0
	c0,0,0,0,0,0s0,0,0,0l0,0c0,3,2,4.4,4.3,4.4c1.2,0,2.4-0.4,3.2-1.2c0.6,0.7,1.4,1.1,2,1.2l0.5-0.8C56.7,37.2,56.7,35.6,56.7,34.6
	 M52.3,37.7c-2.1,0-2.2-2.4-2.2-3.4c0-1,0.1-3.4,2.2-3.4c1.9,0,2.2,1.8,2.2,2.9l0,0.8C54.5,35.6,54.4,37.7,52.3,37.7z M17.9,34.6
	l0-4.7c0-3-2.1-4.4-4.4-4.4c-1.8,0-3.5,0.8-3.5,2.1c0,1,0.9,1.4,0.9,1.4l0.9-0.4c-0.5-0.9,0.1-2.1,1.8-2.1c0,0,0,0,0,0v0
	c2.1,0,2.2,2.1,2.2,3.1v0.8c-0.6-0.3-1.4-0.5-2.2-0.5c-2.3,0-4.3,1.4-4.3,4.4l0,0c0,0,0,0,0,0s0,0,0,0l0,0c0,3,2,4.4,4.3,4.4
	c1.2,0,2.4-0.4,3.2-1.2c0.6,0.7,1.4,1.1,2,1.2l0.5-0.8C17.9,37.2,17.9,35.6,17.9,34.6 M13.5,37.7c-2.1,0-2.2-2.4-2.2-3.4
	c0-1,0.1-3.4,2.2-3.4c1.9,0,2.2,1.8,2.2,2.9l0,0.8C15.7,35.6,15.6,37.7,13.5,37.7z M6.7,32.9c0.6,0.6,1.4,1.4,1.4,2.5
	c0,2-1.9,3.3-4,3.3C2,38.7,0,37.8,0,36.1C0,34.6,1.4,34,1.4,34l0.9,0.4c-1,1.6,0.1,3.2,1.9,3.2c1,0,1.8-0.8,1.8-1.7
	c0-0.9-0.5-1.5-1.1-2c-0.1-0.1-3-3-3-3c-0.5-0.5-1.4-1.3-1.4-2.5c0-1.8,1.7-2.9,3.8-2.9c1.5,0,3.1,0.6,3.1,1.9c0,1-1.2,1.6-1.2,1.6
	l-0.9-0.4c0.5-0.8,0.4-2.1-1-2.1c-1.3,0-1.6,0.8-1.6,1.4c0,0.7,0.3,1.1,0.7,1.6C3.5,29.6,6.6,32.8,6.7,32.9 M65.7,25.6h2.2
	c0,0-3.7,11.9-4.1,13.1c-1,0-2-0.4-2.8-2.9c-0.2-0.5-1.9-6-1.9-6.2c-0.5-1.5-0.8-2.5-2.1-3.2l0.5-0.8c1.9,0.4,3.1,1.6,3.6,3.5
	c0.1,0.2,1.8,6.6,1.8,6.6L65.7,25.6z"/>
</svg>
