<?xml version="1.0" encoding="utf-8"?>
<!-- Generator: Adobe Illustrator 19.2.1, SVG Export Plug-In . SVG Version: 6.00 Build 0)  -->
<svg version="1.1" id="Слой_1" xmlns="http://www.w3.org/2000/svg" xmlns:xlink="http://www.w3.org/1999/xlink" x="0px" y="0px"
	 width="115px" height="48px" viewBox="0 0 115 48" enable-background="new 0 0 115 48" xml:space="preserve">
<path fill="#A21C26" d="M18.185,18.914c-4.492-0.911-9.352-0.258-13.716,0.946c-1.782,0.492-4.277,1.169-4.46,3.372
	c-0.067,0.805,0.173,1.702,1.018,1.975C1.939,25.503,2.916,24.83,3.8,24.67c-0.327,2.372-1.098,4.665-1.425,7.041
	c-0.266,1.932-0.631,3.862-0.651,5.814c-0.014,1.389-0.017,2.778,0.001,4.167c0.021,1.575-0.085,4.959,1.755,5.63
	c0.826,0.301,1.889-0.063,2.294-0.849c0.593-1.15,0.375-2.492,0.308-3.726c-0.064-1.179-0.091-2.358-0.125-3.539
	c-0.012-0.412-0.183-1.079,0.014-1.473c0.215-0.431,0.721-0.511,1.139-0.651c2.242-0.751,4.351-2.017,6.362-3.244
	c2.041-1.245,4.119-2.486,5.912-4.081c1.788-1.591,3.421-3.999,3.422-6.49C22.806,20.747,20.374,19.358,18.185,18.914
	C16.788,18.631,19.738,19.229,18.185,18.914z M18.595,24.206c-1.13,2.111-3.158,3.718-5.154,4.976c-1.11,0.7-2.264,1.313-3.44,1.895
	c-1.159,0.573-2.308,1.232-3.565,1.537c0.158-1.782,0.416-3.493,0.92-5.217c0.269-0.918,0.618-1.811,0.736-2.766
	c0.128-1.035-0.172-1.319,0.97-1.468c1.966-0.256,3.799-0.456,5.789-0.399C15.663,22.788,19.393,22.716,18.595,24.206z
	 M43.135,20.294c0.868,0.989,0.155,3.157,0.01,4.304c-0.179,1.422-0.38,2.846-0.536,4.271c-0.17,1.55-0.16,3.137-0.195,4.695
	c-0.018,0.809,0.024,1.358,0.283,2.103c0.191,0.548,0.167,1.179-0.077,1.721c-0.437,0.971-1.351,1.861-2.477,1.653
	c-1.254-0.233-1.586-1.852-1.693-2.917c-0.078-0.768,0.493-8.671,0.525-8.666c-0.26-0.041-1.156,1.213-1.337,1.421
	c-0.316,0.363-0.614,0.743-0.943,1.094c-0.954,1.017-2.035,1.936-3.075,2.862c-0.903,0.804-1.901,1.554-2.725,2.439
	c-0.81,0.871-1.263,1.997-2.064,2.878c-0.653,0.718-1.66,0.949-2.485,0.297c-0.881-0.697-0.515-2.008-0.397-2.954
	c0.32-2.578,0.602-5.156,0.848-7.742c0.124-1.309,0.227-2.619,0.382-3.925c0.132-1.111,0.04-2.494,0.49-3.525
	c0.827-1.895,3.218-2.036,3.741,0.202c0.242,1.034-0.142,2.183-0.292,3.208c-0.204,1.399-0.423,2.795-0.648,4.191
	c-0.086,0.532-0.174,1.063-0.261,1.594c-0.064,0.393-0.427,1.5-0.234,1.858c0.209,0.389,0.344,0.162,0.654-0.136
	c0.511-0.493,0.977-1.039,1.465-1.556c1.886-1.998,3.761-3.967,5.499-6.109C38.774,22.101,40.969,17.826,43.135,20.294
	C43.609,20.834,42.652,19.744,43.135,20.294z M64.013,35.504c-1.329,1.132-3.096,1.843-4.689,2.518
	c-1.673,0.709-3.31,1.401-5.12,1.667c-1.83,0.269-3.764,0.54-5.52-0.232c-1.241-0.545-2.399-1.888-2.738-3.204
	c-0.863-3.345,0.911-6.92,2.693-9.627c1.784-2.708,4.001-5.776,6.953-7.296c2.824-1.454,6.553-0.642,7.147,2.837
	c0.158,0.927-0.105,1.639-0.421,2.492c-0.251,0.677-0.433,1.425-1.001,1.918c-1.026,0.892-2.603,0.361-3.003-0.929
	c-0.227-0.732,0.127-1.34,0.373-2.006c0.307-0.83-0.122-1.245-0.962-0.89c-1.48,0.626-2.742,1.886-3.795,3.066
	c-1.127,1.263-2.16,2.853-2.995,4.327c-0.753,1.328-1.757,3.252-1.258,4.824c0.509,1.605,3.316,1.268,4.564,0.961
	c1.892-0.465,3.865-1.175,5.577-2.107c1.196-0.651,3.31-2.861,4.8-2.287C66.459,32.244,64.905,34.744,64.013,35.504
	C62.943,36.415,64.944,34.711,64.013,35.504z"/>
<path d="M32.501,43.114c-0.407-0.078-1.45,1.302-1.774,1.569c-0.885,0.73-0.637-0.376-0.517-0.955
	c0.082-0.395,0.582-1.914-0.333-1.645c-0.295,0.086-0.53,0.546-0.765,0.735c-0.408,0.329-0.917,0.479-1.391,0.686
	c0.015-0.286,0.274-0.686,0.095-0.962c-0.192-0.295-0.54-0.15-0.712,0.118c-0.183,0.288-0.187,0.711-0.39,1.022
	c-0.208,0.319-0.486,0.581-0.769,0.832c-0.467,0.415-1.248,1.221-1.111,0.062c0.065-0.552,0.673-1.854-0.012-2.213
	c-1.185-0.621-2.238,3.178-2.813,2.534c-0.301-0.338,0.881-1.426-0.063-1.302c-0.368,0.048-1.527,2.024-2,1.711
	c-0.173-0.115,0.121-1.524,0.147-1.737c0.047-0.389,0.217-0.97-0.282-1.167c-0.881-0.348-1.479,1.302-1.775,1.836
	c-0.189,0.341-0.416,0.943-0.875,0.655c-0.445-0.28-0.003-0.54,0.173-0.844c0.717-1.238-0.946-0.01-1.447-0.438
	c-0.552-0.472-0.357-1.373-1.382-1.191c-0.863,0.153-1.424,1.077-1.718,1.822c-0.413,1.048,0.083,1.978,1.297,1.695
	c0.429-0.1,0.781-0.301,1.081-0.626c0.158-0.172,0.263-0.444,0.426-0.601c0.261-0.253,0.343-0.217,0.768-0.217
	c-0.275,0.939,0.34,1.644,1.317,1.219c0.543-0.236,1.569-2.481,1.775-2.397c-0.097,0.643-0.348,1.534-0.254,2.183
	c0.108,0.74,0.558,0.605,1.163,0.355c0.25-0.103,0.516-0.318,0.798-0.306c0.26,0.011,0.441,0.201,0.687,0.26
	c0.714,0.17,1.087-0.328,1.426-0.868c0.171-0.271,0.777-1.631,0.99-1.591c0.161,0.03-0.199,1.604-0.187,1.903
	c0.065,1.688,1.823,0.237,2.477-0.187c0.116,1.119,0.851,1.485,1.785,0.773c0.37-0.282,0.576-0.617,0.603-1.083
	c0.016-0.274-0.189-0.608-0.139-0.862c0.056-0.287,0.352-0.291,0.681-0.404c-0.228,0.905-0.406,2.875,1.143,2.135
	C31.027,45.433,33.149,43.27,32.501,43.114C32.393,43.093,32.751,43.174,32.501,43.114z M14.139,45.094
	c-0.606,0.576-0.665-0.324-0.513-0.748c0.082-0.226,0.456-0.989,0.711-1.034c0.207-0.037,0.547,0.467,0.562,0.72
	C14.926,44.498,14.439,44.808,14.139,45.094C14.021,45.206,14.428,44.819,14.139,45.094z M28.207,44.888
	c-0.097,0.167-0.428,0.677-0.673,0.648c-0.325-0.038-0.232-0.802-0.14-1.003C27.657,43.955,28.582,44.247,28.207,44.888z
	 M64.438,43.966c-0.399,0.664-0.973,1.393-1.722,1.683c-0.343,0.132-0.717,0.171-1.062,0.016c-0.259-0.117-0.477-0.62-0.672-0.678
	c-0.397-0.119-1.055,0.875-1.526,0.976c-0.797,0.172-0.993-0.665-0.993-1.279c-0.914,0.703-2.823,1.823-2.823-0.152
	c-0.577,0.551-2.174,1.839-2.351,0.289c-0.457,0.359-0.924,1.09-1.584,1.005c-0.854-0.11-0.677-1.067-0.563-1.67
	c0.057-0.304,0.287-2.029,0.897-1.26c0.201,0.254-0.266,2.145-0.141,2.145c0.653-0.002,1.83-3.498,2.534-2.549
	c0.391,0.527-0.566,1.441-0.374,1.977c0.226,0.631,1.021-0.617,1.229-0.879c0.319-0.403,0.808-1.296,1.206-0.509
	c0.222,0.438-0.374,1.353,0.008,1.669c0.443,0.366,1.471-0.656,1.782-0.946c0.356-0.331,0.532-1.151,0.881-1.357
	c1.294-0.764-0.086,2.574,0.294,2.593c0.339,0.017,1.32-1.211,1.518-1.477c0.171-0.229,0.47-1.065,0.822-1.127
	c1.17-0.206-0.655,2.879,0.7,2.375c0.532-0.198,1.056-0.952,1.461-1.331C64.487,42.987,64.804,43.356,64.438,43.966z M50.058,43.069
	c-0.188,1.241,0.059,2.467-0.541,3.632c-0.467,0.906-1.399,1.601-2.437,1.157c-0.344-0.147-1.142-0.659-0.702-1.101
	c0.349-0.352,0.879,0.314,1.251,0.363c1.204,0.159,1.307-1.427,1.469-2.228c-0.563,0.334-1.158,0.826-1.84,0.811
	c-0.871-0.019-0.906-0.482-1.045-1.198c-0.711,0.642-1.966,1.912-3.07,1.521c-1.173-0.415-0.788-1.935-0.384-2.747
	c0.193-0.388,0.489-0.91,0.906-1.107c0.5-0.236,1.137,0.16,1.214,0.707c0.036,0.259-0.054,0.612-0.34,0.632
	c-0.298,0.021-0.332-0.486-0.54-0.484c-0.42,0.004-0.825,1.212-0.838,1.533c-0.067,1.587,1.979,0.016,2.429-0.419
	c0.206-0.199,0.421-0.417,0.601-0.641c0.21-0.261,0.29-0.657,0.503-0.887c0.482-0.518,0.74,0.043,0.639,0.542
	c-0.088,0.437-0.609,1.412,0.028,1.643c0.48,0.173,1.19-0.571,1.407-0.899c0.285-0.43,0.21-1.245,0.587-1.571
	C49.914,41.846,50.132,42.578,50.058,43.069z M11.791,40.876c-0.944-0.158-1.929-0.197-2.861,0.055
	c-0.279,0.075-0.929,0.22-0.929,0.619c0,0.502,0.479,0.317,0.75,0.239c-0.242,1.309-0.441,2.513-0.368,3.853
	C8.398,45.915,8.444,46.869,9,46.537c0.313-0.187,0.167-1.173,0.179-1.433c0.054-1.116,1.812-1.385,2.593-2.027
	C12.44,42.529,13.095,41.094,11.791,40.876z M11.592,42.092c-0.441,0.614-1.125,0.926-1.78,1.255
	c-0.875,0.439-0.615-0.294-0.439-0.965c0.179-0.683,0.475-0.912,1.187-0.95C10.955,41.41,12.027,41.488,11.592,42.092
	C11.213,42.62,11.802,41.801,11.592,42.092z M40.485,43.749c-0.805,1.285-2.264,2.972-3.547,1.227
	c-0.559,0.427-1.602,1.585-2.264,0.701c-0.47-0.626,0.09-2.009,0.34-2.638c0.375-0.944,0.988-0.457,0.703,0.403
	c-0.126,0.382-0.427,1.013-0.383,1.408c0.051,0.452,0.268,0.196,0.635-0.107c0.308-0.255,0.6-0.568,0.858-0.873
	c0.25-0.294,0.456-0.901,0.743-1.126c0.96-0.752,0.381,1.105,0.356,1.449c-0.078,1.055,0.472,0.892,1.105,0.305
	c0.323-0.299,0.61-0.846,0.996-1.054C40.294,43.301,40.744,43.335,40.485,43.749z"/>
</svg>
