<?xml version="1.0" encoding="utf-8"?>
<!-- Generator: Adobe Illustrator 19.2.1, SVG Export Plug-In . SVG Version: 6.00 Build 0)  -->
<svg version="1.1" id="Слой_1" xmlns="http://www.w3.org/2000/svg" xmlns:xlink="http://www.w3.org/1999/xlink" x="0px" y="0px"
	 width="115px" height="48px" viewBox="0 0 115 48" enable-background="new 0 0 115 48" xml:space="preserve">
<path d="M14.742,26.767h-1.634v-1.124h4.483v1.124h-1.385c1.053,0.782,1.999,1.61,2.967,2.496l2.326-2.496H18.95v-1.124h5.515v1.124
	c-0.423,0-1.192-0.155-1.562,0.021c-0.411,0.196-0.853,0.91-1.16,1.238c-0.909,0.97-1.819,1.94-2.728,2.91h1.686v1.098h-5.515
	v-1.098c0.671,0,1.346,0.021,2.016,0c0.615-0.019,0.788-0.403,1.212-0.863L14.742,26.767z M34.816,25.63
	c1.558,0,2.774,1.792,1.538,3.058c-0.589,0.603-1.393,0.575-2.164,0.575c-1.725,0-3.451,0-5.176,0v1.568h2.379v1.202h-5.986v-1.202
	c0.691,0,2.371,0.325,2.371-0.784v0.784h0.007v-3.999h-2.379v-1.189h9.41V25.63z M34.921,26.833h-5.907v1.228
	c1.327,0,2.654,0,3.981,0c0.588,0,1.201,0.05,1.787,0C35.709,27.981,35.994,26.89,34.921,26.833z M41.338,26.846h1.581v-1.189
	h-5.973v1.189c0.524,0,1.179-0.112,1.687,0.014c0.919,0.228,0.986,1.91-0.106,1.91c1.067,0,1.082,1.844,0.14,2.062
	c-0.519,0.12-1.189,0-1.721,0v1.215c1.135,0,2.31,0.096,3.44,0c0.676-0.057,1.158-0.573,1.717-0.97
	c1.914-1.358,3.828-2.716,5.742-4.074c0,0.8,0.498,3.838-0.797,3.838h0.797v0.005h-2.379v1.202h5.973v-1.202h-2.379v-4.012h2.379
	v-1.189c-1.135,0-2.31-0.096-3.44,0c-0.676,0.057-1.158,0.573-1.717,0.97c-1.914,1.358-3.828,2.716-5.742,4.074
	C40.54,29.887,40.045,26.846,41.338,26.846z M52.747,28.335h1.215v-1.503c1.003,0,2.006,0,3.009,0c0.423,0,0.892-0.065,1.185,0.314
	c0.415,0.538,0.152,1.61-0.626,1.61c1.104,0,1.104,2.075,0,2.075h0.798v0.013h-2.366v1.189h5.959v-1.189h-2.378v-0.013h0.797
	c-1.104,0-1.104-2.075,0-2.075c-0.731,0-1.02-0.97-0.689-1.529c0.275-0.464,0.796-0.395,1.252-0.395c1.01,0,2.02,0,3.031,0v1.438
	h1.215v-2.627H52.747V28.335z M28.942,40.938H18.787v-1.202c0.53,0,1.294,0.148,1.806-0.028c0.864-0.298,0.834-2.046-0.212-2.046
	c1.091,0,1.026-1.682,0.106-1.91c-0.511-0.127-1.176-0.014-1.7-0.014v-1.202h10.769v1.202h-7.162v1.255c1.852,0,3.705,0,5.557,0
	c0.83,0,1.727-0.077,2.39,0.536C31.722,38.804,30.634,40.837,28.942,40.938z M28.759,39.735c1.318,0,1.217-1.473-0.027-1.542
	c-0.609-0.034-1.231,0-1.841,0c-1.499,0-2.998,0-4.497,0v1.542H28.759z M40.05,39.827h1.856c-0.274-0.343-0.646-1.069-1.036-1.229
	c-0.543-0.222-1.66,0-2.24,0c-0.659,0-1.714-0.207-2.341,0c-0.445,0.147-0.782,0.826-1.088,1.216h1.843v1.098h-5.502v-1.098
	c0.599,0,1.513,0.187,2.073,0c0.357-0.119,0.57-0.531,0.822-0.848c0.886-1.116,1.773-2.232,2.659-3.347h-2.418v-1.124
	c1.254,0,2.507,0,3.761,0c0.332,0,0.513-0.039,0.749,0.116c0.399,0.262,0.765,0.963,1.056,1.33c0.924,1.164,1.848,2.327,2.772,3.491
	c0.285,0.359,0.224,0.334,0.633,0.396c0.607,0.092,1.299,0,1.916,0v1.098H40.05V39.827z M40.129,37.592l-1.594-2l-1.581,2H40.129z
	 M57.458,35.122c1.118,1.216,0.154,2.871-1.31,3.02c-0.459,0.047-0.935,0.012-1.396,0.012c-1.551,0-3.102,0-4.652,0v1.568h2.379
	v1.202h-5.986v-1.202c0.527,0,1.284,0.146,1.793-0.028c0.865-0.297,0.834-2.046-0.212-2.046c1.091,0,1.027-1.682,0.106-1.91
	c-0.507-0.126-1.167-0.014-1.687-0.014v-1.189h9.41v-0.013C56.726,34.521,57.21,34.847,57.458,35.122
	C57.759,35.449,57.21,34.847,57.458,35.122z M56.726,36.39c0-1.058-2.505-0.667-3.133-0.667c-1.164,0-2.329,0-3.493,0v1.228
	c1.154,0,2.308,0,3.462,0C54.061,36.952,56.726,37.291,56.726,36.39z M12.134,30.472c-0.06,0.12-0.091,0.244-0.093,0.373v-0.052
	c-0.443,1.137-1.579,1.254-2.622,1.254c-1.15,0-2.3,0-3.45,0c-1.99,0-3.979,0-5.969,0v-1.202c0.531,0,1.294,0.148,1.806-0.028
	c0.864-0.298,0.834-2.046-0.212-2.046c1.091,0,1.026-1.682,0.106-1.91C1.19,26.733,0.524,26.846,0,26.846v-1.202h10.769v1.202H3.607
	V28.1c1.414,0,2.829,0,4.243,0c1.387,0,3.596-0.385,4.192,1.283V29.25c0,0.431,0.365,0.797,0.797,0.797
	C12.546,30.047,12.271,30.213,12.134,30.472C12.114,30.578,12.268,30.219,12.134,30.472z M10.965,30.126
	c0-1.245-2.7-0.823-3.461-0.823c-1.299,0-2.598,0-3.897,0v1.542c1.27,0,2.539,0,3.809,0C8.067,30.845,10.965,31.231,10.965,30.126z
	 M27.778,27.643v-0.797H26.98C27.42,26.846,27.778,27.203,27.778,27.643z M27.778,29.568c0-0.532,0-1.063,0-1.595
	c0,0.431-0.365,0.797-0.798,0.797C27.411,28.77,27.778,29.135,27.778,29.568z M77.362,28.77c-0.434,0-0.797,0.365-0.797,0.797
	v-0.045c-0.551,2.581-2.988,2.576-5.07,2.576c-2.097,0-4.583,0.02-5.126-2.591v0.059c0-0.431-0.365-0.797-0.797-0.797
	c0.431,0,0.797-0.366,0.797-0.798v0.204c0.541-2.609,3.041-2.586,5.133-2.586c0.641,0,1.289-0.028,1.929,0
	c1.503,0.066,2.815,1.077,3.135,2.576v-0.195C76.565,28.413,76.922,28.77,77.362,28.77z M75.461,28.845
	c0-2.287-2.398-2.078-3.966-2.078c-1.575,0-4.019-0.208-4.019,2.078c0,2.279,2.439,2.078,4.012,2.078
	C73.055,30.923,75.461,31.128,75.461,28.845z M49.069,26.839v0.798c0-0.44,0.357-0.798,0.797-0.798H49.069z M49.069,27.966
	c0,0.532,0,1.063,0,1.595c0-0.431,0.365-0.797,0.797-0.797C49.435,28.764,49.069,28.398,49.069,27.966z M49.069,30.043v0.797h0.797
	C49.426,30.84,49.069,30.483,49.069,30.043z M14.615,41.861l-0.606-1.227c-0.152,0.309-0.338,1.032-0.606,1.227
	c-0.266,0.193-1.016,0.148-1.354,0.197c0.246,0.24,0.878,0.64,0.98,0.955c0.102,0.313-0.174,1.012-0.231,1.349
	c0.305-0.16,0.88-0.637,1.211-0.637c0.329,0,0.909,0.478,1.211,0.637c-0.058-0.339-0.334-1.034-0.231-1.349
	c0.102-0.313,0.735-0.717,0.98-0.955L14.615,41.861z M62.547,41.834l-0.606-1.227c-0.152,0.309-0.337,1.032-0.606,1.227
	c-0.266,0.193-1.016,0.148-1.354,0.197c0.246,0.24,0.878,0.64,0.98,0.955c0.102,0.313-0.174,1.012-0.231,1.349
	c0.305-0.16,0.88-0.637,1.211-0.637c0.329,0,0.909,0.478,1.211,0.637c-0.058-0.339-0.334-1.034-0.231-1.349
	c0.102-0.313,0.735-0.717,0.98-0.955L62.547,41.834z M21.805,45.86l0.84,0.07v0.58c-0.803,0.488-1.603-0.275-1.525-1.08
	c0.092-0.938,1.065-1.084,1.836-0.842l0.156-0.506c-1.245-0.362-2.897,0.047-2.795,1.611c0.092,1.407,1.846,1.893,2.94,1.173v-1.372
	h-1.451V45.86z M30.596,45.926l0.89,1.174c-0.58,0-0.775,0.106-1.124-0.335c-0.284-0.359-0.492-0.988-1.039-0.927V47.1h-0.762
	v-3.047c0.635-0.086,1.769-0.263,2.309,0.216c0.602,0.534,0.12,1.356-0.546,1.521L30.596,45.926z M30.152,45.315
	c0.779-0.47-0.435-0.861-0.829-0.778v0.893C29.585,45.44,29.922,45.454,30.152,45.315z M36.73,47.1h0.762v-3.078H36.73V47.1z
	 M43.741,44.022H42.98V47.1h3.373v-0.63h-2.612V44.022z M51.059,44.022h-0.762V47.1h3.373v-0.63h-2.611V44.022z M43.037,48h3.252
	v-0.521h-3.252V48z M23.28,20.513l-0.098-0.673h0.024c0.154,0.388,0.692,1.824,1.088,1.82c0.391-0.004,0.896-1.434,1.044-1.82h0.029
	c-0.088,0.817-0.073,1.627-0.073,2.449h0.668l0.022-4.621c-0.207,0.04-0.511,0.042-0.645,0.176
	c-0.189,0.189-0.277,0.846-0.357,1.091c-0.207,0.631-0.404,1.266-0.634,1.89h-0.019c-0.29-0.717-0.69-1.388-1.051-2.071l-0.631,0.12
	v3.415h0.634V20.513z M30.061,21.514H28.68v-4.538l1.234-0.127v-0.595l-1.234,0.126l0.018-0.886l1.339-0.189v-0.595l-2.025,0.279
	v7.118h2.049V21.514z M32.049,21.155c0.381-1.466,0.645-3.025,1.187-4.441c0.555,1.444,0.945,2.965,1.405,4.441h0.795
	c-0.424-1.506-0.848-3.011-1.272-4.517c-0.118-0.418-0.474-1.109-0.436-1.547c0.05-0.572,0.718-1.386,0.985-1.903
	c-0.509,0.104-0.637,0.065-0.893,0.478c-0.205,0.332-0.399,0.732-0.498,1.113c-0.123-0.475-0.415-0.904-0.644-1.332l-0.605,0.187
	c0.206,0.509,0.664,1.2,0.703,1.739c0.032,0.452-0.281,1.115-0.39,1.548c-0.355,1.411-0.711,2.823-1.066,4.234H32.049z
	 M37.31,12.753h-0.668v9.407h0.668V12.753z M39.719,21.914c0.45,0.456,1.423,0.577,1.961,0.194l-0.129-0.891
	c-2.025,1.227-1.541-2.69-1.511-3.536c0.031-0.854,0.057-1.711,0.127-2.563c0.063-0.769,0.46-1.358,1.392-0.914l0.132-0.566
	c-0.941-0.383-2.079,0.015-2.263,1.051c-0.13,0.732-0.07,1.547-0.091,2.288c-0.026,0.905-0.046,1.809-0.064,2.714
	C39.26,20.437,39.148,21.337,39.719,21.914C39.859,22.056,39.579,21.773,39.719,21.914z M43.863,22.315h-0.668l1.155-7.383
	l0.482,0.086l1.314,7.297h-0.703l-0.648-4.552l-0.36-0.062L43.863,22.315z M44.462,17.164l0.27,0.035l-0.155-1.173L44.462,17.164z
	 M48.452,22.289c0-1.058,0.074-2.134-0.078-3.182c0.376,0.483,0.626,1.229,0.896,1.791c0.175,0.365,0.316,0.87,0.569,1.184
	c0.219,0.271,0.174,0.23,0.598,0.23v-3.439l-0.654-0.15c0.009,0.628,0.005,1.239,0.098,1.859c-0.736-0.938-0.865-2.859-2.083-3.219
	l0.02,4.925H48.452z M31.325,22.172h4.191v-0.61h-4.191V22.172z"/>
</svg>
