<svg width="161" height="37" fill="none" xmlns="http://www.w3.org/2000/svg"><g clip-path="url(#clip0)" fill="#fff"><path d="M.283 36.317c-.206-.203-.283-.43-.283-.709v-26.8c0-.304.103-.558.283-.735.18-.202.436-.278.72-.278H13.13c3.263 0 5.704.709 7.323 2.126 1.618 1.417 2.415 3.34 2.415 5.77 0 1.417-.36 2.632-1.054 3.644-.719 1.013-1.541 1.721-2.492 2.151 1.182.532 2.158 1.367 2.955 2.556.796 1.19 1.207 2.531 1.207 4.024 0 2.557-.873 4.607-2.62 6.176-1.748 1.569-4.214 2.353-7.349 2.353H1.002c-.283 0-.514-.101-.72-.278zm12.076-16.729c1.413 0 2.518-.354 3.289-1.037.77-.684 1.156-1.595 1.156-2.759s-.385-2.05-1.13-2.682c-.746-.633-1.85-.937-3.29-.937h-6.5v7.415h6.475zm.437 12.604c1.439 0 2.57-.38 3.391-1.165.797-.784 1.208-1.771 1.208-2.986 0-1.215-.411-2.202-1.233-2.986-.822-.785-1.953-1.164-3.366-1.164H5.884v8.3h6.912zm16.341-20.778c-.205-.203-.282-.43-.282-.709V7.693c0-.303.102-.556.282-.733.206-.203.437-.279.72-.279h3.854c.308 0 .565.101.745.279.205.202.282.43.282.733v3.012a.95.95 0 01-.308.709.995.995 0 01-.72.278h-3.853c-.283 0-.514-.101-.72-.278zm.18 24.903c-.206-.203-.283-.43-.283-.709V16.172c0-.304.103-.532.283-.709.206-.177.437-.278.72-.278h3.545c.283 0 .514.1.72.278.205.202.282.43.282.709v19.436c0 .278-.103.506-.282.709-.206.202-.437.278-.72.278h-3.546a.975.975 0 01-.719-.278zm11.922-.001c-.206-.202-.283-.43-.283-.708V8.377c0-.304.103-.532.283-.709.205-.177.437-.278.72-.278h3.468c.282 0 .514.1.72.278.205.202.282.43.282.709v14.07l6.937-6.554a4.82 4.82 0 00.386-.304c.18-.152.36-.253.514-.303.18-.05.385-.076.616-.076h3.957c.283 0 .514.076.668.253.154.177.257.38.257.658 0 .253-.128.506-.41.734L50.822 24.8 60.38 35c.257.253.385.48.385.708 0 .278-.077.506-.257.658-.18.152-.385.253-.616.253h-4.06c-.385 0-.668-.05-.848-.152-.18-.1-.411-.278-.694-.557l-7.888-8.275v7.972c0 .278-.102.506-.282.709-.206.202-.437.278-.72.278h-3.469c-.257 0-.488-.101-.693-.279zm24.846-1.771c-1.772-1.645-2.749-3.923-2.877-6.833l-.052-1.822.052-1.822c.128-2.885 1.105-5.163 2.929-6.808 1.798-1.67 4.342-2.48 7.554-2.48 3.212 0 5.704.835 7.528 2.48 1.799 1.67 2.775 3.923 2.93 6.808.025.329.05.936.05 1.822s-.025 1.493-.05 1.822c-.129 2.91-1.105 5.188-2.878 6.833-1.773 1.645-4.291 2.48-7.554 2.48-3.315-.025-5.859-.835-7.632-2.48zm11.023-3.062c.797-.911 1.208-2.227 1.285-3.999.026-.278.051-.81.051-1.594 0-.785-.025-1.341-.051-1.595-.052-1.746-.488-3.087-1.285-4.023-.796-.912-1.927-1.367-3.391-1.367-1.465 0-2.621.455-3.418 1.367-.796.91-1.233 2.252-1.285 4.024l-.05 1.594.05 1.594c.052 1.746.489 3.088 1.285 3.999.797.911 1.953 1.367 3.418 1.367 1.438 0 2.595-.456 3.391-1.367zm15.416 4.58c-1.413-.632-2.467-1.366-3.16-2.202-.694-.835-1.028-1.569-1.028-2.15 0-.279.103-.507.283-.659a.859.859 0 01.642-.253h3.417c.231 0 .411.102.591.33.129.1.463.379.95.784a5.727 5.727 0 001.671.961c.617.228 1.31.355 2.056.355 1.104 0 2.03-.203 2.723-.633.694-.43 1.054-1.037 1.054-1.822 0-.557-.155-.987-.489-1.341-.308-.355-.899-.658-1.721-.937-.822-.278-2.056-.607-3.7-.961-2.364-.507-4.111-1.24-5.242-2.253-1.13-1.012-1.695-2.353-1.695-4.024 0-1.088.334-2.126 1.002-3.113.668-.961 1.67-1.771 2.98-2.378 1.31-.608 2.904-.937 4.754-.937 1.9 0 3.52.304 4.881.886 1.362.582 2.39 1.29 3.109 2.126.72.835 1.054 1.544 1.054 2.176a.857.857 0 01-.283.633.881.881 0 01-.642.278h-3.135c-.308 0-.539-.101-.719-.329-.206-.126-.514-.38-.951-.759a5.642 5.642 0 00-1.439-.886c-.54-.227-1.182-.329-1.927-.329-1.028 0-1.824.228-2.39.658-.565.43-.847 1.013-.847 1.721 0 .506.128.911.385 1.24.257.33.797.633 1.619.937.796.278 2.03.582 3.623.885 5.01.962 7.528 3.113 7.528 6.454 0 1.949-.848 3.518-2.569 4.733-1.722 1.214-4.111 1.822-7.169 1.822-2.03-.076-3.803-.38-5.216-1.013zm64.365-12.299l-8.171-8.048a1.316 1.316 0 010-1.898l1.799-1.771a1.364 1.364 0 011.927 0l8.171 8.047a1.316 1.316 0 010 1.898l-1.799 1.772c-.54.532-1.413.532-1.927 0zm-25.745.05l-1.799-1.771a1.316 1.316 0 010-1.898l14.672-14.451a1.364 1.364 0 011.927 0l1.798 1.772c.54.531.54 1.366 0 1.898l-14.671 14.45a1.364 1.364 0 01-1.927 0zm1.875 12.806l8.171-8.047a1.316 1.316 0 000-1.899l-1.799-1.771a1.364 1.364 0 00-1.927 0l-8.171 8.048a1.316 1.316 0 000 1.898l1.799 1.772c.54.531 1.387.531 1.927 0zm25.746-.05l1.799-1.772a1.316 1.316 0 000-1.898l-14.672-14.45a1.364 1.364 0 00-1.927 0l-1.799 1.77a1.316 1.316 0 000 1.899l14.672 14.45a1.364 1.364 0 001.927 0zM77.007 11.211h3.93c.772 0 1.131-.91.592-1.417L71.303.228a.848.848 0 00-1.157 0L59.92 9.794c-.54.506-.18 1.417.591 1.417h3.931c.668 0 1.285-.253 1.773-.708l4.522-4.227 4.523 4.227c.462.48 1.079.708 1.747.708z"/></g><defs><clipPath id="clip0"><path fill="#fff" d="M0 0h161v37H0z"/></clipPath></defs></svg>