<svg width="178" height="41" fill="none" xmlns="http://www.w3.org/2000/svg"><path d="M1.97 30.422l-1.123-.635a.584.584 0 00-.565 0A.552.552 0 000 30.26v1.266A.54.54 0 00.282 32l1.123.636a.566.566 0 00.847-.474v-1.266c0-.2-.105-.377-.282-.474zm4.947-4.887l-6.07-3.427a.584.584 0 00-.565 0 .56.56 0 00-.282.48v1.266a.54.54 0 00.282.474l4.665 2.63v7.388a.54.54 0 00.282.474l1.123.63a.566.566 0 00.847-.473v-8.973a.555.555 0 00-.282-.469z" fill="#fff"/><path d="M11.858 20.642L.847 14.423a.584.584 0 00-.565 0 .56.56 0 00-.282.48v1.26a.54.54 0 00.282.475l9.606 5.421v15.056a.54.54 0 00.283.475l1.123.63a.566.566 0 00.846-.474v-16.63a.552.552 0 00-.282-.474zm19.772 9.145a.573.573 0 00-.56 0l-1.123.636a.552.552 0 00-.282.474v1.266a.54.54 0 00.282.474.566.566 0 00.565 0l1.123-.636a.552.552 0 00.282-.474v-1.266a.564.564 0 00-.288-.474zm-.001-7.679a.584.584 0 00-.564 0L25 25.53a.552.552 0 00-.282.474v8.962a.54.54 0 00.282.474.566.566 0 00.564 0l1.124-.63a.552.552 0 00.282-.475v-7.382l4.665-2.63a.552.552 0 00.282-.474v-1.272a.563.563 0 00-.288-.469z" fill="#fff"/><path d="M31.628 14.423a.584.584 0 00-.564 0l-11.006 6.219a.547.547 0 00-.277.474v16.63a.54.54 0 00.283.474.566.566 0 00.564 0l1.123-.63a.552.552 0 00.282-.475V22.06l9.606-5.421a.552.552 0 00.283-.474v-1.267a.583.583 0 00-.294-.474z" fill="#fff"/><path d="M31.28 8.841a.54.54 0 00-.28-.474l-1.124-.63a.584.584 0 00-.564 0L15.959 15.27 2.607 7.742a.584.584 0 00-.565 0l-1.123.63a.552.552 0 00-.282.474.54.54 0 00.282.475l13.916 7.851v22.73c0 .194.106.377.283.474l.559.318a.566.566 0 00.564 0l.564-.318a.552.552 0 00.283-.474V17.167L31.004 9.32a.575.575 0 00.277-.48z" fill="#fff"/><path d="M7.736 5.483l7.94 4.479a.565.565 0 00.565 0l7.94-4.479a.552.552 0 00.283-.474.54.54 0 00-.282-.474l-1.124-.63a.584.584 0 00-.564 0L15.959 7.59 9.424 3.9a.584.584 0 00-.564 0l-1.124.63a.552.552 0 00-.282.474c0 .194.11.377.282.48zm6.823-3.831l1.123.63a.566.566 0 00.564 0l1.124-.63a.552.552 0 00.282-.474.541.541 0 00-.282-.474l-1.13-.63a.573.573 0 00-.558 0l-1.123.624a.559.559 0 00-.283.474c0 .194.106.378.283.48zM57.293 9.26h-3.596v10.422h-2.214V9.26h-3.619V7.272h9.43V9.26zm9.003 2.921c.504.572.758 1.37.758 2.393v5.109h-2.041v-4.947c0-.512-.117-.911-.355-1.197-.237-.285-.597-.43-1.084-.43-.636 0-1.134.226-1.489.673-.354.452-.536 1.018-.536 1.697v4.198h-2.042V6.54h2.042v4.856c0 .5-.006.91-.017 1.239.576-.878 1.428-1.315 2.568-1.315.957.005 1.693.291 2.196.862zm10.27.216c.68.716 1.024 1.692 1.024 2.92 0 .194-.028.512-.078.949h-5.998c.127.647.426 1.142.907 1.487.482.345 1.063.523 1.754.523.465 0 .875-.065 1.229-.194.354-.13.686-.318.985-.577l.863 1.277a5.34 5.34 0 01-1.516.846 5.13 5.13 0 01-1.743.286c-.885 0-1.671-.183-2.352-.55a4.017 4.017 0 01-1.594-1.53c-.381-.657-.57-1.407-.57-2.247 0-.792.183-1.514.554-2.161.37-.652.88-1.164 1.538-1.541.659-.377 1.395-.566 2.22-.566 1.167.005 2.096.361 2.777 1.078zm-4.26 1.072c-.4.345-.665.83-.787 1.45h4.14c-.028-.63-.21-1.121-.565-1.46-.349-.34-.802-.513-1.35-.513-.559 0-1.04.173-1.439.523zm13.379-1.762l-.525 1.681a3.228 3.228 0 00-1.085-.183c-.597 0-1.079.183-1.444.55-.365.366-.542.862-.542 1.498v4.435h-2.042V11.54h1.389l.393 1.207c.238-.453.564-.792.974-1.03.409-.236.89-.355 1.444-.355a2.849 2.849 0 011.438.345zm13.757.447c.498.555.747 1.315.747 2.29v5.238h-2.042v-5.017c0-.485-.122-.867-.366-1.142-.243-.275-.57-.41-.985-.41-.614 0-1.079.221-1.394.658-.315.436-.476.954-.476 1.552v4.36h-2.025v-5.04c0-.436-.116-.802-.354-1.093-.238-.291-.576-.437-1.013-.437-.597 0-1.057.221-1.378.658-.32.436-.476.954-.476 1.552v4.36h-2.04V11.54h1.389l.415 1.293a3.075 3.075 0 011.106-1.12c.448-.265.969-.394 1.555-.394.587 0 1.096.13 1.527.383.432.253.758.608.985 1.056a2.897 2.897 0 011.107-1.056c.46-.254 1.002-.383 1.61-.383.902.005 1.605.28 2.109.835zm5.311 7.222a4.02 4.02 0 01-1.593-1.53c-.382-.658-.57-1.402-.57-2.226 0-.83.188-1.568.57-2.22a4.009 4.009 0 011.593-1.526c.681-.366 1.45-.55 2.313-.55.864 0 1.638.184 2.324.55a3.995 3.995 0 011.605 1.526c.382.652.57 1.39.57 2.22 0 .83-.188 1.568-.57 2.225a3.906 3.906 0 01-1.605 1.53c-.686.367-1.46.55-2.324.55-.863 0-1.632-.183-2.313-.55zm4.068-1.924c.442-.469.664-1.078.664-1.832 0-.755-.222-1.364-.664-1.832-.443-.47-1.03-.701-1.755-.701-.713 0-1.294.237-1.743.711-.448.475-.675 1.084-.675 1.827 0 .744.227 1.353.675 1.827.449.474 1.03.711 1.743.711.725-.01 1.312-.242 1.755-.711zM122.4 6.54v13.143h-1.406l-.354-1.224c-.348.453-.78.798-1.284 1.051-.503.253-1.084.372-1.732.372-.785 0-1.488-.183-2.097-.55a3.768 3.768 0 01-1.422-1.525c-.337-.652-.503-1.4-.503-2.252 0-.803.171-1.525.514-2.172a3.698 3.698 0 011.433-1.503c.615-.362 1.306-.54 2.081-.54a3.91 3.91 0 011.571.313c.487.205.891.49 1.218.857a45.284 45.284 0 01-.056-2.339V6.54h2.037zm-2.629 10.917c.437-.463.659-1.078.659-1.843 0-.755-.222-1.363-.659-1.827-.437-.463-1.018-.695-1.743-.695-.713 0-1.289.232-1.726.695-.437.464-.659 1.072-.659 1.827 0 .754.216 1.363.659 1.832.437.469 1.013.7 1.726.7.725.006 1.306-.226 1.743-.69zM132 12.397c.681.716 1.024 1.692 1.024 2.92 0 .194-.028.512-.077.949h-5.999c.128.647.426 1.142.908 1.487.481.345 1.062.523 1.754.523a3.57 3.57 0 001.228-.194c.355-.13.687-.318.985-.577l.864 1.277a5.367 5.367 0 01-1.517.846 5.124 5.124 0 01-1.743.286c-.885 0-1.671-.183-2.351-.55a4.017 4.017 0 01-1.594-1.53c-.382-.657-.57-1.407-.57-2.247 0-.792.183-1.514.553-2.161a4.047 4.047 0 011.539-1.541c.658-.377 1.394-.566 2.219-.566 1.173.005 2.097.361 2.777 1.078zm-4.26 1.072c-.399.345-.664.83-.786 1.45h4.139c-.028-.63-.21-1.121-.564-1.46-.349-.34-.803-.513-1.351-.513-.558 0-1.04.173-1.438.523zm9.435 5.955a4.085 4.085 0 01-1.605-1.476c-.415-.652-.62-1.428-.62-2.328 0-.862.199-1.622.592-2.274a3.968 3.968 0 011.605-1.498 4.791 4.791 0 012.213-.523c1.212 0 2.247.366 3.11 1.094l-.99 1.33a3.097 3.097 0 00-.908-.527 3.168 3.168 0 00-1.057-.162c-.714 0-1.306.237-1.781.7-.476.47-.714 1.09-.714 1.854 0 .782.232 1.401.702 1.86.471.463 1.052.695 1.755.695a3.12 3.12 0 001.162-.2c.337-.135.664-.345.973-.641l1.03 1.331c-.487.437-.991.76-1.511.96-.52.199-1.14.301-1.865.301a4.47 4.47 0 01-2.091-.496zm14.984.151v.108h-2.363l-2.999-3.47v3.47h-2.042V6.539h2.042v8.229l2.772-3.228h2.307v.092l-3.314 3.853 3.597 4.09zm2.052-10.067a1.132 1.132 0 01-.349-.846c0-.34.117-.625.349-.846.232-.226.542-.34.93-.34.387 0 .697.114.929.346.233.231.349.517.349.857 0 .328-.116.603-.354.83-.238.226-.543.339-.919.339-.398-.005-.708-.119-.935-.34zm-.105 2.032h2.042v8.143h-2.042V11.54zm11.875.63c.503.566.758 1.374.758 2.42v5.092h-2.042v-4.909c0-1.104-.476-1.66-1.422-1.66-.625 0-1.123.194-1.488.582-.371.388-.554.895-.554 1.515v4.472h-2.042V11.54h1.389l.415 1.277a3.484 3.484 0 011.151-1.088c.471-.275 1.024-.41 1.66-.41.941.005 1.666.291 2.175.851zm12.018-.63v8.471c0 1.266-.398 2.231-1.2 2.905-.803.668-1.86 1.002-3.188 1.002-1.488 0-2.75-.415-3.785-1.24l.786-1.498c.814.63 1.754.949 2.828.949.774 0 1.383-.178 1.826-.528.442-.356.664-.868.664-1.552 0-.571.011-1.008.039-1.315a3.26 3.26 0 01-1.245.819 4.263 4.263 0 01-1.528.275c-.785 0-1.483-.178-2.091-.539a3.727 3.727 0 01-1.417-1.504c-.337-.646-.503-1.374-.503-2.187 0-.814.166-1.547.503-2.188a3.805 3.805 0 011.406-1.514c.597-.367 1.289-.55 2.064-.55a4.35 4.35 0 011.754.345 3.25 3.25 0 011.322 1.04l.415-1.186 1.35-.005zm-2.606 5.874c.426-.47.636-1.073.636-1.816 0-.744-.21-1.348-.625-1.816-.42-.47-1.007-.7-1.771-.7-.724 0-1.3.23-1.726.694-.426.464-.636 1.073-.636 1.827 0 .744.21 1.347.636 1.816.426.469.996.7 1.704.7.764-.005 1.362-.236 1.782-.705zM58.184 25.266v.032l-2.634 7.448h-.227l-2.008-4.818a8.744 8.744 0 01-.305-.84 12.42 12.42 0 01-.293.84l-2.009 4.817h-.22l-2.624-7.452v-.033h.764l1.682 4.861c.15.415.271.792.36 1.137.127-.436.26-.814.393-1.126l1.837-4.478h.21l1.77 4.257c.194.474.36.927.493 1.352.083-.307.221-.732.415-1.277l1.627-4.726h.77v.006zm2.329 7.221a2.319 2.319 0 01-.907-.9 2.65 2.65 0 01-.327-1.31c0-.485.111-.927.327-1.31.216-.387.52-.684.907-.9.388-.215.83-.323 1.323-.323.498 0 .946.108 1.333.324.388.215.692.517.913.9.222.388.332.824.332 1.31 0 .49-.11.926-.332 1.309a2.335 2.335 0 01-.913.9 2.707 2.707 0 01-1.333.323 2.622 2.622 0 01-1.323-.323zm2.678-.83c.355-.356.526-.814.526-1.374 0-.56-.171-1.019-.52-1.375-.349-.355-.802-.533-1.361-.533-.36 0-.68.08-.963.248a1.742 1.742 0 00-.664.684c-.155.291-.238.62-.238.981 0 .56.172 1.018.52 1.374.349.356.797.534 1.34.534.558-.006 1.012-.189 1.36-.54zm4.599.83a2.32 2.32 0 01-.907-.9 2.65 2.65 0 01-.326-1.31c0-.485.11-.927.326-1.31.216-.387.52-.684.908-.9.387-.215.83-.323 1.322-.323.498 0 .946.108 1.334.324.387.215.691.517.913.9.221.388.332.824.332 1.31 0 .49-.111.926-.332 1.309a2.335 2.335 0 01-.913.9 2.706 2.706 0 01-1.334.323 2.622 2.622 0 01-1.322-.323zm2.679-.83c.354-.356.526-.814.526-1.374 0-.56-.172-1.019-.52-1.375-.35-.355-.803-.533-1.362-.533-.36 0-.68.08-.963.248a1.741 1.741 0 00-.664.684c-.155.291-.238.62-.238.981 0 .56.172 1.018.52 1.374.35.356.797.534 1.34.534.558-.006 1.012-.189 1.36-.54zm8.431-6.794v7.83h-.525l-.1-.863c-.21.308-.481.545-.813.717a2.443 2.443 0 01-1.14.259c-.487 0-.919-.108-1.295-.329a2.336 2.336 0 01-.88-.905 2.704 2.704 0 01-.315-1.31c0-.474.105-.9.321-1.277.21-.377.51-.674.885-.89a2.546 2.546 0 011.284-.322c.404 0 .775.08 1.112.247.338.168.603.389.808.674a44.548 44.548 0 01-.022-1.31v-2.51h.68v-.011zm-1.172 6.779c.337-.356.509-.808.509-1.358 0-.555-.172-1.008-.52-1.358-.35-.356-.797-.528-1.35-.528-.549 0-.991.178-1.334.528-.343.356-.515.808-.515 1.358 0 .555.172 1.008.515 1.358.343.355.791.528 1.333.528.57-.006 1.024-.183 1.362-.528zm8.056-3.186h-1.03v-.588h1.03v-1.385c0-.512.138-.927.41-1.255.27-.329.67-.49 1.195-.49.254 0 .481.032.68.102.2.07.399.178.598.323l-.315.48a2.124 2.124 0 00-.427-.216 1.344 1.344 0 00-.459-.07c-.304 0-.547.097-.73.291-.177.194-.271.469-.271.835v1.385h1.627v.588h-1.627v4.235h-.686v-4.235h.005zm5.092 4.031a2.319 2.319 0 01-.908-.9 2.635 2.635 0 01-.326-1.31c0-.49.11-.927.326-1.31.216-.387.52-.684.908-.9.387-.215.83-.323 1.322-.323.498 0 .946.108 1.334.324.387.215.691.517.913.9.221.388.332.824.332 1.31 0 .49-.111.926-.332 1.309a2.335 2.335 0 01-.913.9 2.707 2.707 0 01-1.334.323 2.636 2.636 0 01-1.322-.323zm2.683-.83c.349-.356.526-.814.526-1.374 0-.56-.172-1.019-.52-1.375-.349-.355-.802-.533-1.361-.533-.36 0-.681.08-.963.248a1.741 1.741 0 00-.664.684c-.155.291-.238.62-.238.981 0 .56.171 1.018.52 1.374.349.356.797.534 1.339.534.553-.006 1.007-.189 1.361-.54zm6.623-3.724l-.199.587a2.016 2.016 0 00-.664-.119c-.41 0-.741.135-.985.4-.249.263-.37.63-.37 1.098v2.797h-.687v-4.828h.515l.133.711c.299-.539.78-.808 1.444-.808.299-.006.57.054.813.162zm5.629-3.07h.686l.011 7.83h-.686l-.011-7.83zm3.536 1.593a.444.444 0 01-.144-.34.49.49 0 01.138-.36.502.502 0 01.377-.14.52.52 0 01.376.14.493.493 0 01.138.36c0 .14-.049.254-.144.345a.52.52 0 01-.37.135.475.475 0 01-.371-.14zm.022 1.412h.686v4.828h-.686v-4.828zm3.9.588h-1.029v-.588h1.029v-1.385c0-.512.139-.927.41-1.255.271-.329.669-.49 1.195-.49.255 0 .482.032.681.102.199.07.398.178.597.323l-.315.48a2.108 2.108 0 00-.426-.216 1.346 1.346 0 00-.459-.07c-.305 0-.548.097-.731.291-.177.194-.271.469-.271.835v1.385h1.627v.588h-1.627v4.235h-.686v-4.235h.005zm7.969-.076c.393.42.586.992.586 1.703 0 .146-.011.302-.033.469h-3.967c.049.5.254.9.603 1.196.348.296.763.442 1.245.442.337 0 .619-.048.857-.145.238-.098.454-.248.659-.442l.393.48c-.526.49-1.157.732-1.893.732-.492 0-.935-.108-1.322-.323a2.317 2.317 0 01-.908-.9 2.67 2.67 0 01-.326-1.32c0-.464.105-.89.321-1.272a2.36 2.36 0 01.891-.91c.381-.227.813-.34 1.289-.34.675-.006 1.212.21 1.605.63zm-2.8.426c-.327.29-.531.679-.603 1.158h3.32c-.017-.5-.161-.894-.437-1.174-.277-.28-.642-.42-1.102-.42-.459 0-.852.145-1.178.436zm5.998 3.859c-.105-.087-.155-.21-.155-.372 0-.167.05-.297.15-.383a.556.556 0 01.376-.13c.144 0 .266.044.371.13.105.086.155.216.155.383 0 .161-.05.285-.155.372a.564.564 0 01-.371.129.49.49 0 01-.371-.13z" fill="#fff"/></svg>