<?xml version="1.0" encoding="utf-8"?>
<!-- Generator: Adobe Illustrator 16.0.0, SVG Export Plug-In . SVG Version: 6.00 Build 0)  -->
<!DOCTYPE svg PUBLIC "-//W3C//DTD SVG 1.1//EN" "http://www.w3.org/Graphics/SVG/1.1/DTD/svg11.dtd">
<svg version="1.1" id="Слой_1" xmlns="http://www.w3.org/2000/svg" xmlns:xlink="http://www.w3.org/1999/xlink" x="0px" y="0px"
	 width="127.559px" height="85.039px" viewBox="0 0 127.559 85.039" enable-background="new 0 0 127.559 85.039"
	 xml:space="preserve">
<path fill="#979898" d="M64.311,54.765v2.62l0.377,0.096v0.062h-1.262V57.48l0.378-0.096v-2.588l-0.378-0.096v-0.063h2.146
	c-0.007,0.043-0.016,0.087-0.019,0.133c-0.005,0.043-0.007,0.094-0.011,0.149c-0.001,0.056-0.002,0.121-0.002,0.19
	c0,0.048,0.001,0.099,0.002,0.154c0.004,0.058,0.006,0.109,0.011,0.156c0.003,0.056,0.012,0.109,0.019,0.165h-0.063
	c-0.11-0.099-0.2-0.215-0.271-0.351c-0.073-0.139-0.107-0.294-0.107-0.471H64.311z M67.341,57.512c-0.097,0-0.179-0.02-0.252-0.062
	c-0.071-0.039-0.132-0.081-0.178-0.128c-0.057-0.055-0.1-0.118-0.139-0.189v-1.894c0.047-0.104,0.1-0.2,0.164-0.284
	c0.056-0.071,0.119-0.138,0.195-0.195s0.167-0.091,0.272-0.091c0.071,0,0.144,0.026,0.218,0.073c0.072,0.05,0.14,0.127,0.202,0.237
	c0.06,0.109,0.11,0.256,0.15,0.436c0.04,0.181,0.061,0.406,0.061,0.676s-0.021,0.495-0.061,0.677
	c-0.04,0.179-0.094,0.327-0.158,0.438c-0.063,0.111-0.138,0.188-0.221,0.237C67.514,57.487,67.429,57.512,67.341,57.512
	 M66.267,58.901l-0.378,0.093v0.065h1.264v-0.065l-0.379-0.093v-1.579c0.039,0.06,0.089,0.111,0.151,0.158
	c0.056,0.042,0.124,0.078,0.205,0.11c0.083,0.03,0.184,0.047,0.307,0.047c0.152,0,0.297-0.035,0.436-0.103
	c0.138-0.069,0.262-0.172,0.373-0.305c0.108-0.132,0.195-0.296,0.261-0.485c0.065-0.191,0.098-0.41,0.098-0.652
	c0-0.244-0.031-0.463-0.098-0.654c-0.065-0.191-0.148-0.354-0.251-0.485c-0.104-0.134-0.221-0.235-0.354-0.305
	c-0.135-0.069-0.268-0.104-0.402-0.104c-0.126,0-0.236,0.026-0.329,0.076c-0.093,0.051-0.169,0.105-0.227,0.166
	c-0.071,0.07-0.128,0.147-0.171,0.232V54.64h-0.885v0.063l0.378,0.097L66.267,58.901L66.267,58.901z M71.254,54.859l0.411-0.157
	V54.64h-0.947v0.063l0.412,0.157l-0.651,1.951l-0.803-2.014l0.349-0.095V54.64h-1.264v0.063l0.378,0.095l1.095,2.746l-0.179,0.536
	c-0.063,0.189-0.152,0.333-0.27,0.426c-0.114,0.096-0.298,0.144-0.551,0.144c-0.025,0-0.049-0.002-0.071-0.004
	c-0.02-0.003-0.04-0.007-0.062-0.01c-0.021-0.004-0.04-0.012-0.056-0.021l0.093,0.475c0.019,0.009,0.036,0.015,0.059,0.019
	c0.021,0.006,0.04,0.008,0.063,0.011c0.021,0.002,0.044,0.004,0.069,0.004c0.088,0,0.17-0.019,0.243-0.052
	c0.074-0.033,0.144-0.093,0.214-0.175s0.138-0.188,0.2-0.321s0.128-0.298,0.195-0.495L71.254,54.859z M72.644,57.512
	c-0.117,0-0.224-0.019-0.322-0.055c-0.097-0.035-0.179-0.08-0.248-0.133c-0.07-0.053-0.124-0.111-0.162-0.174
	c-0.037-0.062-0.058-0.122-0.058-0.179c0-0.096,0.032-0.173,0.099-0.229c0.066-0.057,0.17-0.087,0.313-0.087l0.127-0.41
	c-0.017-0.004-0.034-0.008-0.05-0.012c-0.018-0.005-0.037-0.009-0.059-0.014c-0.02-0.004-0.048-0.006-0.083-0.006
	c-0.126,0-0.235,0.053-0.331,0.159c-0.096,0.108-0.14,0.264-0.14,0.472c0,0.102,0.021,0.2,0.067,0.297
	c0.047,0.097,0.111,0.18,0.195,0.251c0.085,0.073,0.187,0.131,0.308,0.176c0.119,0.045,0.255,0.064,0.407,0.064
	c0.197,0,0.371-0.023,0.521-0.072c0.147-0.046,0.272-0.111,0.375-0.192c0.1-0.08,0.175-0.174,0.227-0.28
	c0.052-0.107,0.075-0.219,0.075-0.337c0-0.092-0.016-0.177-0.043-0.25c-0.03-0.073-0.068-0.139-0.114-0.196
	c-0.047-0.058-0.1-0.104-0.161-0.144c-0.06-0.041-0.124-0.076-0.185-0.105c-0.148-0.062-0.316-0.103-0.507-0.126
	c0.157-0.02,0.297-0.056,0.423-0.107c0.11-0.046,0.21-0.11,0.297-0.198c0.089-0.086,0.134-0.206,0.134-0.356
	c0-0.093-0.02-0.183-0.063-0.271c-0.042-0.09-0.101-0.167-0.177-0.234c-0.076-0.066-0.169-0.122-0.277-0.16
	c-0.109-0.042-0.233-0.062-0.367-0.062c-0.105,0-0.195,0.018-0.272,0.051c-0.075,0.035-0.14,0.07-0.194,0.107
	c-0.063,0.047-0.119,0.099-0.166,0.158c-0.016-0.062-0.051-0.122-0.104-0.176c-0.054-0.056-0.1-0.092-0.146-0.108h-0.096
	c0.005,0.056,0.008,0.111,0.013,0.171c0.005,0.052,0.009,0.105,0.013,0.163c0.005,0.061,0.007,0.117,0.007,0.172
	c0,0.063-0.002,0.127-0.007,0.194c-0.004,0.064-0.008,0.122-0.013,0.172c-0.005,0.06-0.008,0.116-0.013,0.173h0.096
	c0.079-0.305,0.195-0.538,0.35-0.701c0.153-0.165,0.31-0.247,0.47-0.247c0.109,0,0.212,0.053,0.303,0.158
	c0.094,0.104,0.139,0.252,0.139,0.441s-0.054,0.337-0.157,0.441c-0.106,0.105-0.255,0.159-0.443,0.159h-0.126v0.126h0.126
	c0.208,0,0.376,0.065,0.501,0.198c0.13,0.135,0.194,0.318,0.194,0.56c0,0.239-0.064,0.425-0.194,0.559
	C73.019,57.445,72.851,57.512,72.644,57.512 M76.305,54.797v0.283l-1.104,1.705v-1.988l0.346-0.097v-0.063h-1.23V54.7l0.378,0.097
	v2.588l-0.378,0.096v0.062h1.23V57.48l-0.346-0.096v-0.378l1.104-1.705v2.083l-0.347,0.096v0.062h1.23V57.48l-0.377-0.096v-2.588
	l0.377-0.097v-0.063h-1.23V54.7L76.305,54.797z M79.588,54.797v1.167h-1.072v-1.167l0.345-0.097v-0.063h-1.229V54.7l0.378,0.097
	v2.588l-0.378,0.096v0.062h1.229V57.48l-0.345-0.096v-1.294h1.072v1.294l-0.347,0.096v0.062h1.23V57.48l-0.377-0.096v-2.588
	l0.377-0.097v-0.063h-1.23V54.7L79.588,54.797z M82.208,54.671c0.159,0,0.315,0.082,0.471,0.247c0.154,0.163,0.27,0.396,0.35,0.699
	h0.096c-0.01-0.055-0.016-0.111-0.02-0.171c-0.004-0.05-0.008-0.107-0.011-0.172c-0.003-0.066-0.003-0.13-0.003-0.194
	c0-0.055,0-0.111,0.003-0.172c0.003-0.058,0.007-0.111,0.011-0.163c0.004-0.061,0.01-0.115,0.02-0.171h-0.096
	c-0.047,0.017-0.096,0.053-0.148,0.106c-0.052,0.056-0.087,0.114-0.104,0.178c-0.047-0.06-0.1-0.111-0.165-0.158
	c-0.055-0.037-0.12-0.073-0.199-0.107c-0.078-0.033-0.167-0.051-0.269-0.051c-0.149,0-0.297,0.035-0.434,0.104
	c-0.139,0.069-0.264,0.171-0.373,0.303c-0.109,0.134-0.197,0.295-0.263,0.486c-0.063,0.191-0.098,0.41-0.098,0.653
	s0.033,0.462,0.098,0.654c0.065,0.189,0.155,0.353,0.27,0.484c0.112,0.134,0.244,0.235,0.393,0.305
	c0.15,0.066,0.308,0.104,0.472,0.104c0.134,0,0.259-0.024,0.377-0.074c0.114-0.048,0.217-0.114,0.305-0.198
	c0.089-0.083,0.162-0.183,0.219-0.299c0.056-0.115,0.093-0.241,0.11-0.377h-0.096c-0.017,0.119-0.051,0.229-0.099,0.331
	c-0.048,0.1-0.11,0.186-0.186,0.26c-0.076,0.068-0.161,0.126-0.258,0.167c-0.098,0.042-0.201,0.064-0.309,0.064
	c-0.098,0-0.188-0.022-0.275-0.068c-0.086-0.049-0.163-0.126-0.229-0.237c-0.068-0.111-0.122-0.259-0.161-0.44
	c-0.039-0.179-0.061-0.406-0.061-0.675c0-0.27,0.021-0.495,0.061-0.676c0.039-0.18,0.092-0.326,0.154-0.436
	c0.062-0.108,0.134-0.188,0.212-0.237C82.05,54.694,82.127,54.671,82.208,54.671 M85.542,57.385l-0.349,0.096v0.062h1.277V57.48
	l-0.379-0.096l-1.042-1.711l0.157-0.277c0.072-0.128,0.152-0.222,0.24-0.286c0.089-0.061,0.219-0.093,0.391-0.093
	c0.021,0,0.046,0.001,0.073,0.004c0.027,0.006,0.053,0.01,0.072,0.014c0.025,0.006,0.052,0.009,0.076,0.015l-0.096-0.441
	c-0.012-0.006-0.026-0.01-0.044-0.016c-0.013-0.003-0.028-0.007-0.051-0.011c-0.021-0.007-0.042-0.008-0.063-0.008
	c-0.056,0-0.104,0.012-0.151,0.033c-0.046,0.02-0.096,0.06-0.148,0.119c-0.052,0.06-0.11,0.142-0.178,0.248
	c-0.067,0.108-0.15,0.247-0.247,0.421l-0.567,1.01v-1.608l0.411-0.097v-0.063H83.63V54.7l0.376,0.097v2.588L83.63,57.48v0.062h1.23
	V57.48l-0.346-0.096v-0.757l0.277-0.48L85.542,57.385z M88.206,56.942c-0.048,0.109-0.102,0.204-0.165,0.285
	c-0.056,0.071-0.122,0.136-0.2,0.195c-0.077,0.058-0.167,0.089-0.267,0.089c-0.111,0-0.211-0.054-0.304-0.158
	c-0.092-0.105-0.139-0.253-0.139-0.442c0-0.286,0.088-0.51,0.262-0.672s0.446-0.244,0.813-0.244V56.942z M88.064,54.829
	c0.094,0.124,0.143,0.346,0.143,0.661v0.38c-0.288,0-0.534,0.029-0.739,0.085c-0.206,0.058-0.376,0.132-0.507,0.223
	c-0.134,0.095-0.232,0.198-0.298,0.317c-0.065,0.117-0.099,0.233-0.099,0.353c0,0.239,0.077,0.431,0.23,0.574
	c0.154,0.142,0.381,0.214,0.685,0.214c0.128,0,0.235-0.021,0.325-0.072c0.092-0.048,0.167-0.101,0.225-0.161
	c0.072-0.07,0.131-0.15,0.179-0.239v0.378h0.882v-0.063l-0.376-0.095v-1.895c0-0.286-0.089-0.515-0.261-0.688
	c-0.177-0.174-0.415-0.26-0.719-0.26c-0.151,0-0.284,0.02-0.401,0.062c-0.115,0.039-0.215,0.093-0.297,0.157
	c-0.082,0.066-0.144,0.139-0.185,0.22c-0.043,0.082-0.063,0.167-0.063,0.257c0,0.042,0,0.076,0.005,0.102
	c0.002,0.024,0.005,0.047,0.008,0.068c0.005,0.021,0.011,0.037,0.021,0.051l0.503-0.127c-0.008-0.021-0.015-0.042-0.018-0.063
	c-0.004-0.021-0.007-0.045-0.01-0.069c-0.002-0.025-0.005-0.055-0.005-0.089c0-0.143,0.044-0.258,0.128-0.344
	c0.085-0.086,0.189-0.129,0.315-0.129C87.859,54.638,87.97,54.701,88.064,54.829z M90.89,56.091c-0.223,0-0.396-0.059-0.516-0.178
	c-0.12-0.116-0.179-0.279-0.179-0.487c0-0.205,0.059-0.367,0.179-0.484c0.12-0.119,0.293-0.179,0.516-0.179h0.253v1.326H90.89
	V56.091z M91.142,56.217v1.168l-0.38,0.096v0.062h1.263V57.48l-0.379-0.096v-2.588l0.379-0.096v-0.063H90.89
	c-0.223,0-0.414,0.022-0.572,0.066c-0.157,0.045-0.287,0.103-0.393,0.173c-0.102,0.072-0.179,0.156-0.226,0.254
	c-0.049,0.097-0.073,0.196-0.073,0.297c0,0.169,0.049,0.299,0.142,0.394c0.096,0.096,0.199,0.169,0.313,0.219
	c0.136,0.06,0.288,0.097,0.461,0.112c-0.127,0.018-0.245,0.051-0.353,0.096c-0.094,0.043-0.179,0.101-0.259,0.175
	c-0.081,0.074-0.129,0.173-0.146,0.3l-0.068,0.505c-0.008,0.079-0.028,0.138-0.058,0.171c-0.03,0.032-0.06,0.049-0.094,0.049
	c-0.025,0-0.049-0.006-0.07-0.021c-0.02-0.015-0.041-0.032-0.063-0.053c-0.02-0.021-0.039-0.049-0.057-0.082l-0.063,0.063
	c0.025,0.055,0.062,0.103,0.108,0.145c0.037,0.034,0.086,0.063,0.146,0.096c0.06,0.028,0.133,0.044,0.219,0.044
	c0.145,0,0.255-0.037,0.332-0.111c0.079-0.072,0.127-0.173,0.142-0.298l0.07-0.505c0.02-0.16,0.075-0.285,0.163-0.372
	c0.089-0.091,0.222-0.133,0.399-0.133h0.253V56.217z M65.322,62.505l-0.346,0.094v0.064h1.275v-0.064l-0.378-0.094l-1.042-1.713
	l0.158-0.278c0.069-0.126,0.152-0.219,0.239-0.283c0.088-0.063,0.218-0.095,0.393-0.095c0.02,0,0.043,0.002,0.071,0.005
	c0.026,0.006,0.052,0.01,0.073,0.014c0.023,0.004,0.049,0.008,0.075,0.013l-0.097-0.44c-0.012-0.006-0.026-0.01-0.043-0.014
	c-0.014-0.004-0.03-0.01-0.05-0.012c-0.022-0.008-0.043-0.008-0.063-0.008c-0.055,0-0.104,0.01-0.152,0.032
	c-0.047,0.021-0.095,0.06-0.146,0.118c-0.055,0.06-0.112,0.143-0.181,0.249c-0.067,0.108-0.149,0.249-0.246,0.42l-0.57,1.011v-1.608
	l0.412-0.095v-0.063h-1.295v0.063l0.378,0.095v2.59l-0.378,0.094v0.064h1.23v-0.064l-0.349-0.094v-0.758l0.279-0.48L65.322,62.505z
	 M68.525,59.978l0.41-0.159v-0.062h-0.948v0.062l0.411,0.159l-0.65,1.951l-0.803-2.014l0.347-0.097v-0.062h-1.261v0.062l0.377,0.097
	l1.093,2.746l-0.178,0.537c-0.063,0.188-0.152,0.33-0.268,0.426c-0.115,0.095-0.299,0.141-0.553,0.141
	c-0.023,0-0.049-0.001-0.068-0.003c-0.021-0.002-0.044-0.005-0.064-0.009c-0.021-0.005-0.038-0.013-0.057-0.02l0.095,0.473
	c0.018,0.01,0.037,0.014,0.058,0.019c0.021,0.006,0.042,0.008,0.063,0.011c0.021,0.002,0.044,0.004,0.069,0.004
	c0.087,0,0.169-0.02,0.242-0.052c0.073-0.034,0.145-0.093,0.216-0.174c0.069-0.082,0.137-0.189,0.199-0.323
	c0.062-0.132,0.129-0.297,0.194-0.494L68.525,59.978z M70.638,62.503l-0.348,0.096v0.063h1.295v-0.063l-0.38-0.096l-0.87-1.515
	l0.649-1.011l0.412-0.159v-0.062h-0.947v0.062l0.411,0.159l-0.58,0.909l-0.555-0.972l0.346-0.097v-0.062h-1.293v0.062l0.377,0.097
	l0.82,1.439l-0.694,1.086l-0.41,0.158v0.063h0.946v-0.063l-0.41-0.158l0.632-0.983L70.638,62.503z M73.699,59.915v1.167h-1.072
	v-1.167l0.348-0.097v-0.062h-1.231v0.062l0.377,0.097v2.588l-0.377,0.096v0.063h1.231v-0.063l-0.348-0.096v-1.295h1.072v1.295
	l-0.346,0.096v0.063h1.23v-0.063l-0.38-0.096v-2.588l0.38-0.097v-0.062h-1.23v0.062L73.699,59.915z M76.447,61.208
	c-0.223,0-0.394-0.059-0.515-0.178c-0.119-0.116-0.18-0.279-0.18-0.485c0-0.207,0.061-0.368,0.18-0.485
	c0.121-0.119,0.292-0.18,0.515-0.18h0.253v1.326h-0.253V61.208z M76.698,61.336v1.167l-0.378,0.095v0.063h1.262v-0.063l-0.377-0.095
	v-2.588l0.377-0.097v-0.062h-1.136c-0.223,0-0.414,0.022-0.573,0.065c-0.157,0.044-0.287,0.103-0.39,0.174
	c-0.103,0.073-0.179,0.156-0.228,0.253c-0.048,0.098-0.071,0.196-0.071,0.298c0,0.168,0.047,0.299,0.141,0.395
	c0.096,0.095,0.198,0.167,0.313,0.219c0.135,0.058,0.289,0.095,0.461,0.111c-0.127,0.017-0.244,0.05-0.354,0.096
	c-0.095,0.041-0.179,0.101-0.259,0.174c-0.079,0.074-0.129,0.174-0.146,0.3l-0.067,0.505c-0.01,0.079-0.027,0.137-0.059,0.17
	c-0.028,0.034-0.06,0.051-0.094,0.051c-0.027,0-0.051-0.007-0.069-0.022c-0.021-0.013-0.043-0.031-0.063-0.053
	c-0.021-0.02-0.041-0.049-0.058-0.082l-0.062,0.063c0.022,0.056,0.06,0.104,0.105,0.145c0.038,0.034,0.085,0.065,0.146,0.095
	c0.058,0.029,0.132,0.046,0.219,0.046c0.143,0,0.254-0.037,0.332-0.111c0.078-0.073,0.125-0.174,0.141-0.298l0.07-0.507
	c0.021-0.158,0.076-0.284,0.164-0.372c0.089-0.088,0.222-0.132,0.399-0.132L76.698,61.336L76.698,61.336z M103.875,21.631
	c-0.51,1.741-1.518,12.191-1.761,13.863c-0.006,0.04-0.782,0.648-0.229,1.167c0.673-0.464,0.051,0.94,0.295,1.444
	c-0.373-0.073-0.717-0.174-0.789-0.548c-0.117,0.091-0.189,0.231-0.249,0.382c-0.144-0.031-0.083-1.021-0.269-0.399
	c-0.071-0.188-0.213-0.854,0.106-0.909c-0.05-0.456-0.35-0.001-0.395-0.275c-0.03-0.362,0.188-0.441,0.382-0.248
	c0.144-0.471-0.645-0.533,0.116-0.517c-0.037-0.231-0.23-0.304-0.523-0.278c-0.165-1.396-0.09,1.105-0.301-0.241
	c-0.022-0.155-0.238-0.119-0.392-0.146c0.11-0.524,0.046-0.596-0.28-0.921c0.177-0.161,0.039-0.638,0.372-0.641
	c-0.01-0.259-0.357-0.177-0.271-0.531c0.669-0.766-0.063-1.39-0.05-1.955c0.245,0.021,0.099,0.435,0.397,0.402
	c0.176-0.034,0.1-0.322,0.115-0.516c-0.127-0.319-0.937,0.044-0.787-0.549c0.685,0.032-0.011-0.812,0.263-1.629
	c-0.076,0.02-0.154,0.038-0.233,0.058c-0.515,0.125-1.059,0.152-1.557,0.344c-0.485,0.187-0.716,0.644-0.927,1.102
	c-0.228,1.872-0.472,3.905-0.688,5.767c-0.186-0.159-0.076-0.63-0.409-0.635c-0.268,0.213-0.02,0.907-0.229,1.169
	c-0.515,0.238-0.796-0.699-0.778,0.15c-0.427-0.129-0.557-0.57-0.935-0.75c-0.012,0.41,0.358,0.422,0.286,0.897
	c-0.292,0.318-0.416,0.208-0.909,0.152c0.493-0.469-0.113-1.182,0.344-1.687c0.29,0.094,0.185,0.602,0.539,0.631
	c0.389-0.561-0.26-0.333-0.289-0.897c-0.391-0.018-0.428,0.49-0.778,0.15c-0.142-0.383,0.283-0.238,0.515-0.272
	c-0.307-1.581,0.015-2.717,0.297-4.018c-0.495-0.166,0.083-0.678-0.417-0.894c0.123-0.179,0.34-0.267,0.51-0.401
	c-0.049-0.299-0.271-0.528-0.021-0.774c-0.04-0.122-0.177-0.259-0.237-0.191c0.304-0.75,0.333-3.252,0.438-3.894
	c0.078-0.494,0.154-0.845,0.007-1.117c-0.33-0.61-0.441-1.278,0.565-1.572c1.212-0.356,2.217-0.592,2.765-0.445
	c0.611,0.163,0.401,1.152,0.268,1.929c-0.006,0.019-0.242,1.874-0.558,4.414c0.158-0.037,0.316-0.071,0.472-0.11
	c0.614-0.15,1.208-0.224,1.691-0.667c0.5-0.458,0.317-1.102,0.626-1.667c0.002-0.003,0.005-0.005,0.007-0.009
	c0.1-0.87,0.196-1.709,0.285-2.699c0.135-0.98-0.492-1.491,0.235-1.756c0.616-0.224,1.173,0.635,1.516,0.292
	c-0.218-0.438-0.481,0.003-0.781-0.286c0.159-0.264,0.189-0.655,0.629-0.631c0.064,0.249-0.155,0.781,0.276,0.661
	c0.349-0.106-0.352-0.255-0.146-0.656c0.998-0.133,1.724-0.138,1.779-0.112C104.489,20.475,104.06,21.006,103.875,21.631
	 M102.404,20.808c-0.05,0.406,0.176,0.538,0.405,0.665c-0.131-0.357,0.788-0.278,0.243-0.644c-0.026,0.228-0.217,0.29-0.513,0.244
	C102.507,20.97,102.53,20.816,102.404,20.808z M95.764,33.546c0.211,0.434-0.086,1.067,0.172,1.415
	C96.045,34.573,96.139,33.298,95.764,33.546z M95.987,32.248c-0.1,0.093-0.27,0.728,0.021,0.774
	C96.109,32.93,96.278,32.293,95.987,32.248z M99.906,28.519c0.05,0.084-0.053,0.189-0.058,0.409c0.656,0.093-0.01-0.462,0.506-0.374
	c-0.036-0.046-0.079-0.076-0.118-0.117C100.126,28.466,100.016,28.492,99.906,28.519z M100.378,29.468
	c-0.153-0.026-0.367,0.009-0.392-0.145c-0.031-0.103-0.011-0.256-0.136-0.265c-0.24,0.238,0,0.678,0.276,0.791
	C100.155,29.666,100.336,29.636,100.378,29.468z M89.433,23.231c0.485-0.231,2.384-0.862,2.691-0.566
	c0.394,0.381,0.051,0.957,0.004,1.521c-0.271,3.365-0.555,5.95-0.815,9.936c-0.015,0.202-0.076,1.089-0.497,1.215
	c0.125-0.039,0.654,0.519,0.663-0.141c-0.01,0.812,0.252,1.041-0.874,1.189c-2.08,0.277-2.229-1.123-2.397-2.734
	c-0.563,2.068-2.88,4.375-5.136,4.156c-0.547-0.055-1.002-0.437-1.305-0.938c-0.194,0.301-0.432,0.614-0.734,0.958
	c-0.861,0.983-1.966,2.037-3.166,2.311c-0.444,0.102-1.013,0.162-1.362-0.053c-0.542-0.333,0.058-0.544-0.046-0.927
	c-0.132,0.142-0.902,0.211-0.931,0.135c-0.185-0.56-0.333-0.314-0.849-0.473c-0.08-0.388,0.259-0.606-0.077-0.874
	c-0.235,0.267-0.23,0.735-0.597,0.895c0.276,0.354,0.251,0.384,0.21,0.871c-0.215,0.04-0.24-0.11-0.415-0.113
	c0.257,0.003-0.085,0.742-0.167,0.846c-0.169,0.217-0.376,0.566-0.579,0.758c-2.214,2.063-4.067,0.953-4.347-0.994
	c-0.248,0.61-0.52,1.182-0.771,1.622c-1.062,1.861-2.855,3.427-4.481,2.697c-0.739-0.331-0.893-1.413-0.956-1.861
	c-0.031-0.218,0.108-0.488,0.083-0.659c-0.033-0.21-0.266-0.199-0.308-0.361c-0.09-0.423,0.225-0.379,0.293-0.618
	c-0.941-0.397-0.259-2.227,0.24-2.559c-0.406-0.105-0.314,0.367-0.792,0.178c0.143-0.672-0.051-1.338,0.604-1.625
	c-0.11,0.05-0.045-2.694-0.044-2.947c0.002-0.892-0.391-0.978-0.541-1.347c-0.354-0.876,0.55-1.117,1.641-1.581
	c1.018-0.432,2.328-1.038,2.667-0.099c0.123,0.342-0.015,1.612-0.095,1.432c0.231,0.531-0.13,0.998-0.052,1.742
	c-0.292,0.041-0.175-0.266-0.377-0.299c-0.361-0.094,0.301,0.516-0.157,0.503c0.014,0.154,0.232,0.136,0.384,0.169
	c-0.157,0.139-0.171,0.442-0.17,0.762c-0.31-0.333-0.429,0.337-0.643-0.197c-0.128,0.253,0.306,0.614,0.376,0.3
	c-0.041,0.181,0.315,0.549,0.295,0.766c-0.012,0.136-0.049,1.539-0.063,3.198c-0.008,0.826,0.136,1.613,0.674,1.577
	c0.712-0.047,1.5-1.288,1.972-3.387c-0.105-0.059-0.211-0.117-0.28-0.214c0.068-0.191,0.196-0.077,0.333-0.029
	c0.011-0.049,0.021-0.094,0.031-0.145c-0.185-0.733-0.026-1.097,0.332-1.725c-0.613,0.391-0.102-0.414-0.575-0.928
	c-0.003-0.217,0.188-0.302,0.506-0.302c0.066-0.756-0.688-0.552-0.638-1.292c0.574-0.8,1.156-0.373,1.02-1.089
	c-0.32-0.292-0.307-0.215,0.057-0.756c-0.171,0.043-0.608,0.422-0.66,0.195c-0.113-0.536,0.395,0.015,0.502-0.303
	c-0.278-0.188-0.382-0.377-0.377-0.717c-0.076-0.89,0.697-0.92,2.672-1.786c0.862-0.379,1.421-0.077,1.227,1.407
	c-0.219,1.674-0.495,5.65-0.545,6.815c-0.086,1.917,0.204,2.234,0.653,2.189c0.989-0.099,1.733-2.346,1.88-3.256
	c0.135-0.824,0.168-1.877,0.352-2.142c0.162-0.237,0.682,0.163,0.706-0.111c0.023-0.254-0.292-0.786-0.475-0.295
	c-0.093-0.107-0.238-0.251-0.417-0.219c0.238-0.166,0.077-0.966,0.484-0.643c-0.066-0.569-0.431-0.903,0.165-1.03
	c-0.65-0.698,0.125-0.586-0.283-1.296c0.115,0.062,0.23,0.122,0.415,0.112c0.014-0.333-0.309-0.314-0.572-0.358
	c0.592-0.332,0.321-0.323,0.111-1.103c-0.097-0.272-0.442-0.858,0.771-1.349c0.78-0.314,2.458-1.033,2.958-0.878
	c0.699,0.213,0.432,1.125,0.372,1.678c-0.027,0.272-0.461,4.203-0.688,6.843c-0.126,1.469-0.023,3.31,1.189,2.729
	c0.678-0.325,1.248-1.163,1.645-2.023c-0.028-0.473,0.083-0.914,0.375-1.195c0.032-0.033,0.061-0.055,0.087-0.071
	c0.035-0.133,0.065-0.259,0.09-0.376c-0.021-0.015-0.038-0.03-0.055-0.061c0.229-0.265-0.102-0.246,0.126-0.511
	c0.005,0.004,0.008,0.006,0.012,0.01c0.021-0.138,0.053-0.271,0.103-0.39c-0.051-0.453,0.058-0.243-0.235-0.618
	c0.362-0.005,0.317-0.297,0.347-0.538c0.154,0.188,0.497,0.325,0.542-0.069c-0.114-0.153-0.354,0.106-0.695-0.04
	c0.611-0.585-0.374-0.798-0.153-1.222c0.226,0.159,0.456,0.316,0.741,0.406c-0.615-0.72-0.733-1.129-0.686-2.15
	c0.128-0.014,0.247-0.023,0.375-0.054c-0.134-0.208-0.097-0.619-0.266-0.78c-0.178-0.171,0.142-0.884-0.058-1.004
	c-0.478-0.288-0.367-1.216,0.428-1.608c2.395-1.179,3.399-1.312,3.231,0.633c-0.265,2.496-0.241,2.346-0.454,4.707
	c-0.234,2.587-0.455,4.611,0.964,4.007c1.743-0.744,1.976-3.911,2.25-7.028C88.695,24.603,88.551,23.652,89.433,23.231
	 M69.162,33.743c0.165-0.208,0.207-0.504,0.287-0.774c-0.426,0.172-0.539,0.433-0.955,0.102
	C68.578,33.458,69.02,33.426,69.162,33.743z M82.881,29.526c-0.002-0.422-0.849-0.417-0.68,0.084
	C82.611,29.475,82.452,29.494,82.881,29.526z M59.426,34.996c2.147,1.028,2.254,4.933,1.409,7.987
	c-0.618,2.23-2.412,3.845-4.349,4.582c-1.539,0.585-3.911,0.12-4.764-0.945c-0.127-0.158-0.109-0.369-0.207-0.53
	c-0.129-0.208-0.426-0.321-0.583-0.52c0.511-0.247-0.145-0.304,0.179-0.754c-0.14,0.076-0.156,0.286-0.413,0.232
	c0.014-0.431-0.228-0.82,0.201-1.132c-0.256-0.223-0.4-0.541-0.337-1.037c0.216-0.023,0.221,0.133,0.391,0.149
	c-0.101-0.153-0.154-0.35-0.094-0.642c-0.4,0.614-0.528-0.408-0.501-0.536c0.021-0.298,0.359,0.067,0.25,0.269
	c0.286-0.288-0.096-0.523,0.437-0.612c-0.089-0.378-0.344,0.145-0.663-0.037c0.006-1.51-0.49-2.792,0.057-4.5
	c-0.438,0.126-0.652,0.021-1.215,0.313c-0.135-1.162,1.84-1.141,1.124-2.646c0.105,0.029,0.124,0.135,0.258,0.142
	c-0.099-1.2,0.243-2.534,0.354-3.727c-0.561-0.097-0.223-1.181,0.465-1.118c-0.205-0.483-0.382-0.365-0.342-0.908
	c0.109-0.063,0.222-0.121,0.406-0.105c-0.273-0.781,0.017-1.226,0.247-1.893c0.982-2.843,2.262-4.549,4.326-5.706
	c2.262-1.266,5.632-0.877,6.401,1.327c1.564,4.48-2.683,9.625-8.048,12.69c-0.526,7.005,0.414,10.114,1.344,10.129
	c0.586,0.01,0.854-0.378,1.145-1.129c0.52-1.346,0.839-5.814,0.182-6.997c-0.547-0.989-1.018-1.146-1.766-0.527
	c-0.034,0.026-0.153-0.33-0.144-0.395c0.025-0.177,0.164-0.355,0.296-0.499C56.728,34.543,58.369,34.488,59.426,34.996
	 M54.55,33.109c5.48-4.122,5.206-11.547,3.17-10.761C56.177,22.943,55.071,27.156,54.55,33.109z M51.421,41.911
	c0.209,0.509-0.784,0.402-0.313,0.746c0.143-0.34,0.475,0.274,0.547-0.223C51.215,42.369,52.091,41.855,51.421,41.911z
	 M53.918,44.781c0.329,0.41-0.039,0.666,0.477,0.918C54.636,45.434,54.191,44.979,53.918,44.781z M39.168,57.97
	c1.61-0.336,2.695-1.288,2.394-1.78c-0.3-0.49-0.511-0.079-1.497-0.401c-3.011-0.979-3.253-6.327-4.866-8.665
	c-1.273-1.849-2.579-2.062-4.16-1.973c0.335-0.062,4.69-1.646,5.301-6.863c0.753-6.424,1.337-6.393,2.297-7.263
	c0.521-0.474-0.78-0.639-2.889,0.332c-1.994,0.917-2.662,1.976-3.027,4.526c-0.435,3.037-0.573,5.361-1.349,6.149
	c0.451-0.312-0.818,2.62-2.696,3.106c0.133-3.793,0.316-5.002,0.238-7.854c-0.054-1.953-2.179-0.378-5.01,0.778
	c-0.732,0.99,0.535,1.101,0.574,1.626c-0.037,3.147-0.198,9.852-0.369,16.762c-0.155,1.49-0.322,1.721-0.542,2.36
	c-0.377,0.864-0.147,1.516,0.559,1.406c1.286-0.709,1.726-0.92,3.26-1.827c0.961-0.569,1.109-0.916,1.138-3.427
	c0.039-3.318,0.018-5.776,0.118-8.58c3.577,0.293,2.871,6.036,4.604,7.237c-0.046-0.003-0.682-0.226-0.682-0.255
	C34.26,58.454,37.557,58.308,39.168,57.97 M48.305,47.85c-0.478,0.51-0.688,1.704-0.729,1.98c0.512-3.851,0.789-10.093,0.746-12.039
	c0.106-0.901-0.43-1.076-1.507-0.658c-0.846,0.33-2.058,0.788-2.54,1.044c-0.689,0.281-0.612,0.699-0.331,1.144
	c0.183,0.288,0.536,0.45,0.532,1.069c-0.009,1.634,0.072,6.184-1.424,8.114c-0.497,0.642-1.044,1.389-1.565,0.624
	c-0.264-0.386-0.301-1.086-0.301-1.571c0.001-0.684,0.156-1.771-0.13-2.346c0.84-0.248-0.308-1.342,0.251-1.353
	c-0.041-0.276-0.345,0.169-0.388-0.293c0.174-0.24,0.457-0.37,0.505-0.75c-0.45-0.153-0.068-0.344-0.392-0.685
	c0.623,0.116,0.489-0.076,0.252-0.374c0.321,0.035,0.4,0.273,0.643,0.045c-0.032-0.908-0.041-1.408-0.062-1.751
	c-0.104-0.712-0.733-0.77-1.075-0.668c-0.541,0.161-1.682,0.75-1.967,0.869c-1.265,0.529-1.878,0.739-1.529,1.894
	c0.148,0.487,0.444,0.431,0.304,1.976c-0.054,2.057-0.059,6.036,0.602,7.117c0.44,0.718,1.363,1.28,3.029,0.454
	c1.6-0.794,2.4-2.114,2.42-2.435c0.007-0.146-0.401-0.607-0.171-0.655c0.051,0.306,0.515,0.214,0.646,0.441
	c0.403,0.703,0.113,2.587,0.025,3.441c-0.37,3.625-1.136,8.428-4.428,9.744c-1.579,0.635-4.248,0.163-5.315-1.45
	c-0.412-0.622-0.567-0.723-0.917-0.519c-0.923,0.534-1.136,3.214,1.089,4.197c1.234,0.545,2.968,0.532,2.953,0.188
	c-0.009-0.224,0.296-0.141,0.453-0.187c0.131,0.22,0.127,0.539,0.389,0.292c0.088-0.575,0.75-0.244,1.274-0.828
	c0.826,0.855,1.266-1.371,2.046-0.637c0.26-0.456,0.673-0.745,0.887-1.25c0.251,0.921,1.265-0.813,1.449-0.892
	c0.18-0.073,0.335-0.02,0.359-0.248c0.016-0.164-0.179-0.25-0.168-0.396c0.018-0.23,0.231-0.174,0.358-0.292
	c0.093-0.085,0.166-0.248,0.197-0.369c0.044-0.163,0-0.418,0.148-0.533c0.082-0.061,0.565-0.011,0.583,0.08
	c-0.099-0.49,0.309-0.709-0.01-1.051c0.165,0.018,0.179,0.179,0.385,0.158c-0.259-0.67,0.091-0.777,0.244-1.295
	c-0.379,0.128-0.558-0.594-0.263-0.676c0.48-0.064,0.285,0.521,0.647,0.573c0.158-0.559-0.862-0.668-0.523-0.959
	c0.191,0.084,0.325,0.218,0.516,0.302c0.136-0.376,0.54-0.456,0.504-1.015c-0.347-0.063-0.729,0.496-1.026,0.056
	c0.364-0.167,0.653,0.22,0.769-0.335c0.049-0.36-0.482-0.158-0.519-0.433c0.266-0.239,0.519-0.399,0.897-0.198
	c-0.065,0.332-0.165,0.449,0.134,0.666c0.027-0.23-0.136-0.666,0.252-0.505c-0.589-0.644,0.705-1.095-0.142-1.325
	c0.33-0.209,0.953-0.777,0.759-1.126c-0.033,0.308-0.478-0.047-0.515-0.167c0.465-1.922,1.042-3.132,2.702-3.179
	c0.333,0.003,0.439-0.202,0.383-0.524C50.521,47.354,49.28,46.809,48.305,47.85 M78.899,41.593
	c-1.795-0.152-8.57,1.896-14.749,4.917c-0.681,0.333-0.959,0.743-1.146,1.118c-0.32,0.647-0.082,3.108-0.087,3.161
	c-0.029,0.286,0.145,0.358,0.119,0.643c0.888,0.006,1.007-1.371,1.57-1.422c-0.455,0.526-0.612,0.938-0.909,1.519
	c-0.021,0.23,0.248,0.192,0.209,0.433c0.454-0.273,1.138-0.856,0.893-1.351c0.111,0.027,0.147,0.123,0.327,0.092
	c0.462-2.214,10.074-6.921,14.618-8.15c0.091-0.024-0.022-0.562-0.065-0.62C79.556,41.761,79.097,41.609,78.899,41.593"/>
</svg>
