<?xml version="1.0" encoding="utf-8"?>
<!-- Generator: Adobe Illustrator 16.0.0, SVG Export Plug-In . SVG Version: 6.00 Build 0)  -->
<!DOCTYPE svg PUBLIC "-//W3C//DTD SVG 1.1//EN" "http://www.w3.org/Graphics/SVG/1.1/DTD/svg11.dtd">
<svg version="1.1" id="Слой_1" xmlns="http://www.w3.org/2000/svg" xmlns:xlink="http://www.w3.org/1999/xlink" x="0px" y="0px"
	 width="127.559px" height="85.039px" viewBox="0 0 127.559 85.039" enable-background="new 0 0 127.559 85.039"
	 xml:space="preserve">
<path fill="#969595" d="M64.887,57.36v-0.953H55.6v-6.192h9.147v-0.951H54.648v7.144h-1.621v0.953h1.621v3.121h10.099V59.53H55.6
	v-2.17H64.887z M69.565,50.259c2.171-0.555,5.549-0.26,7.134,1.464c0.511,0.557,1.211-0.087,0.699-0.644
	c-1.833-1.994-5.547-2.387-8.07-1.74c-0.903,0.23-1.85,0.631-2.517,1.306c-0.511,0.526-0.82,1.203-0.764,1.949
	c0.04,0.494,0.247,0.949,0.552,1.332c0.791,0.979,2.25,1.326,3.439,1.46c0.408,0.054,0.816,0.09,1.229,0.126
	c1.055,0.094,2.328,0.16,3.329,0.473c0.571,0.179,1.169,0.537,1.251,1.191c0.104,0.847-0.657,1.608-1.382,1.906
	c-0.804,0.328-1.773,0.42-2.633,0.41c-1.034-0.016-3.067-0.259-3.938-0.852c-0.625-0.428-1.159,0.359-0.536,0.783
	c1.056,0.718,3.213,1.004,4.462,1.017c0.995,0.016,2.081-0.099,3.007-0.478c1.136-0.468,2.13-1.611,1.968-2.902
	c-0.131-1.041-0.965-1.683-1.911-1.977c-1.09-0.34-2.397-0.417-3.535-0.513c-0.398-0.034-0.807-0.07-1.205-0.117
	c-0.897-0.105-2.208-0.369-2.813-1.117c-0.19-0.235-0.32-0.511-0.346-0.813C66.895,51.234,68.568,50.516,69.565,50.259z
	 M88.648,49.264v7.144h-8.402v-7.144h-0.951v7.144h-1.273v0.953h1.273v3.121h0.951V57.36h8.402v3.121h0.95V57.36h0.001v-0.953
	h-0.001v-7.144H88.648z M92.325,49.263h0.956V60.48h-0.956V49.263z M43.74,57.506h4.527c6.642,0,6.625-8.243,0-8.243h-5.485v11.214
	h0.958V57.506z M43.74,50.214h4.527c5.368,0,5.385,6.341,0,6.341H43.74V50.214z M56.422,28.179l2.46,2.45l6.583-6.585l1.721,1.685
	l1.746,1.705v-6.82l-1.746,1.705L65.466,24l-6.583-6.583l-6.607,6.607l4.146,4.147V28.179z M58.89,24.716l0.882-0.814v3.254
	l-0.882-0.814l-0.88-0.813L58.89,24.716z M56.389,24.79c-0.687,0-1.243-0.557-1.243-1.244c0-0.687,0.556-1.245,1.243-1.245
	c0.615,0,1.125,0.444,1.227,1.028h0.001c0.019,0.071,0.02,0.143,0.02,0.216c0,0.676-0.546,1.226-1.211,1.244H56.389z M72.077,24.022
	l4.148,4.148v-3.38h0.001v3.388l2.459,2.45l6.585-6.583l1.72,1.682l1.749,1.705v-6.82l-1.749,1.705L85.271,24l-0.159-0.157
	l-6.427-6.426L72.077,24.022z M76.23,24.79h-0.036c-0.688,0-1.245-0.557-1.245-1.244c0-0.687,0.558-1.245,1.245-1.245
	c0.613,0,1.123,0.444,1.23,1.028l0,0c0.014,0.071,0.02,0.143,0.02,0.216C77.439,24.222,76.901,24.772,76.23,24.79z M79.575,23.902
	v3.254h-0.001l-0.887-0.814l-0.882-0.813l0.883-0.813L79.575,23.902z M66.347,14.817h0.003v3.389l2.46,2.451l6.584-6.584l1.72,1.682
	l1.75,1.706v-6.821l-1.751,1.706l-1.722,1.683l-6.583-6.585l-6.607,6.606l4.145,4.149L66.347,14.817L66.347,14.817z M68.816,14.741
	l0.887-0.814v3.255l-0.887-0.814l-0.883-0.813L68.816,14.741z M65.072,13.573c0-0.687,0.558-1.245,1.244-1.245
	c0.613,0,1.123,0.443,1.229,1.028h0.001c0.013,0.071,0.019,0.143,0.019,0.216c0,0.676-0.539,1.226-1.21,1.244h-0.037
	C65.629,14.817,65.072,14.261,65.072,13.573z M103.396,71.499c-9.105,6.541-21.314,3.744-31.43,1.89
	c-10.577-1.94-21.969-5.057-32.437-1.12c-2.881,1.223-5.427,3.039-7.547,5.328c3.553-3.395,8.126-5.428,12.977-6.069
	c5.594-0.74,11.247,0.168,16.748,1.15c5.738,1.023,11.463,2.183,17.235,3.03c5.009,0.738,10.146,1.119,15.14,0.072
	c3.712-0.774,7.104-2.327,10.003-4.78C103.854,71.167,103.624,71.333,103.396,71.499C103.172,71.66,103.843,71.176,103.396,71.499z
	 M78.857,30.566l-1.75,1.706l-1.72,1.683l-0.408-0.409l-6.176-6.176l-6.606,6.607l4.146,4.149v-3.381l-0.031,0.001
	c-0.688,0-1.243-0.557-1.243-1.245c0-0.688,0.556-1.245,1.243-1.245c0.614,0,1.124,0.444,1.23,1.028h0.001
	c0.012,0.071,0.019,0.142,0.019,0.216c0,0.677-0.541,1.228-1.213,1.245v0v3.388l2.46,2.451L75.391,34l1.722,1.682l1.75,1.706
	L78.857,30.566L78.857,30.566z M69.698,37.11l-0.887-0.813l-0.883-0.813l0.883-0.814l0.887-0.814V37.11z"/>
</svg>
