<?xml version="1.0" encoding="utf-8"?>
<!-- Generator: Adobe Illustrator 16.0.0, SVG Export Plug-In . SVG Version: 6.00 Build 0)  -->
<!DOCTYPE svg PUBLIC "-//W3C//DTD SVG 1.1//EN" "http://www.w3.org/Graphics/SVG/1.1/DTD/svg11.dtd">
<svg version="1.1" id="Слой_1" xmlns="http://www.w3.org/2000/svg" xmlns:xlink="http://www.w3.org/1999/xlink" x="0px" y="0px"
	 width="127.559px" height="85.039px" viewBox="0 0 127.559 85.039" enable-background="new 0 0 127.559 85.039"
	 xml:space="preserve">
<path fill="#979898" d="M58.948,66.41c-0.06,0.029-0.06,0.086-0.06,0.113c0,0.058,0,0.086,0.06,0.143
	c0.025,0.029,0.056,0.057,0.11,0.057c0.086,0,0.171-0.056,0.198-0.197c-0.027-0.111-0.085-0.172-0.17-0.172
	C59.033,66.354,58.976,66.354,58.948,66.41z M64.333,68.65c-0.17,0.143-0.34,0.228-0.51,0.228c-0.145,0-0.258-0.085-0.343-0.228
	c-0.085-0.112-0.11-0.256-0.11-0.426c0-0.197,0.025-0.343,0.11-0.48c0.027-0.085,0.113-0.17,0.198-0.255
	c0.085-0.087,0.145-0.113,0.145-0.146l-0.028-0.024c-0.145,0.143-0.255,0.199-0.367,0.199c-0.114,0-0.199-0.028-0.229-0.086
	c0.025-0.06,0.025-0.089,0.025-0.089c0-0.11-0.058-0.17-0.17-0.17c-0.143,0-0.198,0.06-0.198,0.199c0,0.11,0.06,0.17,0.17,0.196
	c0.028,0,0.113,0.027,0.313,0.027h0.113c-0.284,0.34-0.429,0.651-0.429,0.879c0,0.17,0.06,0.283,0.145,0.396
	c0.085,0.143,0.199,0.197,0.369,0.197c0.195,0,0.425-0.058,0.623-0.229c0.123-0.099,0.252-0.248,0.413-0.434
	c0.004-0.047,0.008-0.094,0.016-0.141C64.514,68.409,64.428,68.533,64.333,68.65z M62.207,68.963c-0.027,0-0.06-0.027-0.112-0.057
	c-0.058-0.057-0.086-0.086-0.086-0.113V67.29c0-0.084,0.028-0.142,0.113-0.197c0.058-0.028,0.143-0.086,0.196-0.112v-0.059
	c-0.058,0.028-0.144,0.085-0.281,0.143l-0.028-0.024v-0.71c-0.142,0.025-0.227,0.085-0.313,0.111v0.513h0.028
	c-0.028,0.026-0.028,0.11-0.028,0.229c-0.057,0.026-0.142,0.086-0.227,0.11h0.227c-0.025,0.06-0.025,0.199-0.025,0.396v0.097
	c0.026-0.032,0.057-0.058,0.084-0.095v0.11h0.001c-0.031,0.031-0.055,0.063-0.085,0.097v0.219c0,0.027,0,0.086,0,0.143
	c0,0.084,0,0.143,0,0.197c0,0.426,0.113,0.624,0.368,0.624c0.17,0,0.341-0.06,0.511-0.229c0.028-0.025,0.143-0.17,0.368-0.426
	v-0.111C62.605,68.736,62.378,68.963,62.207,68.963z M66.09,68.027c0,0,0,0-0.027,0l0.027-0.145v-0.142
	c0-0.368-0.112-0.538-0.396-0.538c-0.195,0-0.341,0.084-0.366,0.193h0.11c0.256,0.029,0.369,0.26,0.369,0.652
	c0,0.17-0.028,0.34-0.113,0.512c-0.11,0.199-0.228,0.313-0.396,0.313c-0.112,0-0.229-0.085-0.34-0.255
	c-0.085-0.145-0.112-0.284-0.112-0.426c0-0.342,0.112-0.623,0.396-0.821v-0.06c-0.229,0.114-0.368,0.285-0.514,0.514
	c-0.067,0.14-0.108,0.292-0.138,0.445c0.017-0.026,0.039-0.049,0.054-0.076v0.137c-0.024,0.029-0.044,0.051-0.067,0.078
	c-0.006,0.051-0.019,0.104-0.019,0.15c0,0.144,0.028,0.256,0.145,0.369c0.085,0.112,0.195,0.144,0.34,0.144
	c0.228,0,0.425-0.113,0.597-0.343c0.143-0.195,0.282-0.424,0.425-0.623c0.147-0.049,0.295-0.146,0.427-0.268v-0.081
	C66.316,67.943,66.166,68.027,66.09,68.027z M67.027,68.963c-0.025,0-0.057-0.027-0.11-0.057c-0.06-0.057-0.085-0.086-0.085-0.113
	V67.29c0-0.084,0.025-0.142,0.11-0.197c0.06-0.028,0.145-0.086,0.198-0.112v-0.059c-0.058,0.028-0.143,0.085-0.283,0.143
	l-0.025-0.024v-0.71c-0.145,0.025-0.229,0.085-0.313,0.111v0.513h0.026c-0.026,0.026-0.026,0.11-0.026,0.229
	c-0.059,0.026-0.144,0.086-0.229,0.11h0.229c-0.029,0.06-0.029,0.199-0.029,0.396v0.078c0.021-0.021,0.035-0.024,0.058-0.051v0.085
	c-0.019,0.019-0.038,0.029-0.058,0.048v0.268c0,0.027,0,0.086,0,0.143c0,0.084,0,0.143,0,0.197c0,0.426,0.114,0.624,0.369,0.624
	c0.17,0,0.341-0.06,0.513-0.229c0.025-0.025,0.143-0.17,0.366-0.426v-0.111C67.423,68.736,67.197,68.963,67.027,68.963z
	 M61.242,68.17l-0.027-0.027c-0.028-0.17-0.113-0.341-0.256-0.511c-0.145-0.17-0.229-0.284-0.229-0.341
	c0-0.027,0.028-0.113,0.06-0.283c-0.144,0.227-0.198,0.369-0.198,0.482c0,0.141,0.057,0.311,0.198,0.479
	c0.11,0.174,0.17,0.313,0.17,0.428c0,0.144-0.06,0.283-0.145,0.427c-0.11,0.141-0.227,0.196-0.365,0.196
	c-0.06,0-0.089,0-0.145-0.026c-0.057-0.028-0.114-0.058-0.114-0.085c0.086-0.143,0.146-0.227,0.146-0.283
	c0-0.114-0.059-0.171-0.198-0.171c-0.058,0-0.113,0.028-0.171,0.057c-0.057,0.058-0.085,0.114-0.085,0.199
	c0,0.113,0.058,0.228,0.17,0.283c0.114,0.057,0.228,0.085,0.369,0.085c0.169,0,0.312-0.029,0.396-0.143
	c0.085-0.06,0.145-0.17,0.229-0.313c0.085-0.198,0.143-0.34,0.171-0.396c0.114-0.026,0.228-0.084,0.313-0.17
	c0.036-0.056,0.094-0.106,0.145-0.16v-0.113C61.527,67.949,61.385,68.075,61.242,68.17z M57.958,66.47v-0.026
	c0.228-0.48,0.369-0.795,0.369-0.965s-0.06-0.312-0.145-0.479c-0.114-0.17-0.257-0.255-0.427-0.255
	c-0.425,0-0.794,0.194-1.049,0.563c-0.229,0.34-0.34,0.736-0.34,1.19c0,0.142,0,0.312,0.025,0.539c0,0.226,0,0.396,0,0.538
	c0,0.765-0.11,1.191-0.34,1.304c-0.228,0-0.369-0.255-0.369-0.766c0-0.027,0-0.113,0-0.198s0.027-0.17,0.027-0.227
	c0-0.17,0-0.424,0.027-0.737c0-0.341,0-0.597,0-0.767c0-0.283-0.027-0.512-0.085-0.65c-0.085-0.256-0.282-0.369-0.537-0.369
	c-0.37,0-0.709,0.143-1.021,0.426c-0.313,0.284-0.479,0.624-0.479,1.021c0,0.425,0.17,0.652,0.511,0.652
	c0.143,0,0.283-0.061,0.426-0.146c0.141-0.113,0.197-0.229,0.197-0.34v-0.028c-0.085,0.114-0.17,0.17-0.255,0.229
	c-0.059-0.029-0.17-0.086-0.283-0.146c-0.085-0.026-0.144-0.085-0.17-0.144c-0.06-0.057-0.085-0.196-0.085-0.367
	c0-0.256,0.057-0.453,0.197-0.651c0.111-0.196,0.312-0.313,0.536-0.313c0.198,0,0.344,0.087,0.429,0.229
	c0.11,0.113,0.17,0.258,0.17,0.453v2.466c0,0.173,0.026,0.313,0.143,0.429c0.085,0.11,0.229,0.17,0.367,0.17
	c0.199,0,0.341-0.112,0.481-0.34c0.111-0.199,0.171-0.396,0.171-0.599c0-1.133,0-1.843,0.025-2.211
	c0.027-0.17,0.112-0.368,0.283-0.597c0.17-0.228,0.341-0.367,0.511-0.367c0.426,0,0.65,0.313,0.65,0.879
	c0,0.197-0.057,0.368-0.112,0.538c-0.255,0-0.479,0.056-0.681,0.112c-0.283,0.113-0.396,0.256-0.396,0.453
	c0,0.112,0.085,0.17,0.258,0.17c0.196,0,0.426-0.11,0.708-0.366c0.143,0,0.281,0.169,0.427,0.479c0.111,0.257,0.17,0.481,0.17,0.651
	c0,0.283-0.059,0.538-0.17,0.736c-0.146,0.283-0.341,0.396-0.599,0.396c-0.11,0-0.255-0.026-0.34-0.11v-0.08
	c0.144-0.084,0.197-0.197,0.197-0.341c0-0.084-0.027-0.14-0.112-0.196c-0.057-0.086-0.11-0.11-0.195-0.11
	c-0.086,0-0.172,0.057-0.229,0.17c-0.058,0.11-0.085,0.194-0.085,0.28c0,0.145,0.085,0.258,0.313,0.343
	c0.141,0.085,0.312,0.11,0.479,0.11c0.313,0,0.595-0.17,0.821-0.539c0.228-0.34,0.313-0.649,0.313-1.021
	C58.693,67.036,58.466,66.667,57.958,66.47z M57.331,67.008c-0.113,0.086-0.229,0.113-0.34,0.113c-0.06,0-0.114-0.028-0.199-0.057
	c0-0.146,0.058-0.229,0.17-0.313c0.086-0.058,0.199-0.112,0.342-0.112c0.085,0,0.198,0.057,0.313,0.112
	C57.559,66.837,57.446,66.922,57.331,67.008z M59.94,68.454v-0.058c-0.195,0.342-0.396,0.512-0.538,0.512
	c-0.057,0-0.11-0.029-0.17-0.057c-0.058-0.061-0.085-0.086-0.085-0.146c0-0.17,0-0.425,0.027-0.733c0-0.369,0-0.625,0-0.709
	l-0.058-0.06c-0.028,0-0.06,0.024-0.085,0.024c-0.059,0.029-0.088,0.029-0.113,0.029c-0.059,0.084-0.059,0.139-0.086,0.198
	l0.058,0.085c0,0.085-0.028,0.227-0.028,0.426c-0.025,0.17-0.025,0.313-0.025,0.424c0,0.172,0.026,0.342,0.058,0.515
	c0.085,0.11,0.17,0.17,0.284,0.17c0.227,0,0.481-0.17,0.765-0.567L59.94,68.454L59.94,68.454z M72.667,68.652
	c-0.229,0.17-0.396,0.283-0.538,0.283c-0.145,0-0.255-0.061-0.341-0.17c-0.113-0.113-0.17-0.26-0.198-0.369
	c0.229,0,0.454-0.113,0.709-0.283c0.227-0.199,0.368-0.397,0.368-0.596c0-0.229-0.144-0.344-0.368-0.344
	c-0.255,0-0.51,0.146-0.736,0.398c-0.102,0.111-0.171,0.23-0.228,0.353v-0.014v-0.06c0,0.084-0.113,0.197-0.313,0.367
	c-0.11,0.113-0.255,0.229-0.396,0.342c0.058-0.086,0.114-0.256,0.171-0.455c0.085-0.194,0.113-0.364,0.113-0.479
	c0-0.425-0.169-0.82-0.481-1.163c-0.312-0.34-0.68-0.51-1.104-0.51c-0.113,0-0.229,0.026-0.343,0.144
	c-0.11,0.086-0.17,0.197-0.17,0.313v0.057c0.197-0.112,0.313-0.17,0.425-0.17c0.396,0,0.737,0.144,0.992,0.482
	c0.255,0.312,0.368,0.651,0.368,1.075c0,0.229-0.028,0.455-0.113,0.649c-0.085,0.257-0.227,0.396-0.45,0.396
	c-0.144,0-0.283-0.086-0.369-0.227c-0.059-0.113-0.113-0.256-0.113-0.426c0-0.199,0.058-0.369,0.143-0.539
	c0.114-0.227,0.229-0.339,0.396-0.396l0.028-0.057h-0.06c-0.255,0.114-0.479,0.283-0.624,0.51c-0.17,0.229-0.255,0.483-0.283,0.77
	c0.144,0.254,0.198,0.396,0.198,0.396c0.059,0.086,0.197,0.144,0.396,0.144c0.17,0,0.313-0.028,0.453-0.085
	c0.085-0.028,0.195-0.143,0.34-0.256c0.143-0.112,0.284-0.229,0.426-0.342c0.146-0.119,0.242-0.235,0.322-0.341
	c-0.035,0.106-0.066,0.214-0.066,0.313c0,0.169,0.057,0.339,0.142,0.479c0.087,0.172,0.229,0.229,0.396,0.229
	c0.229,0,0.483-0.085,0.767-0.257c0.229-0.17,0.428-0.367,0.566-0.564l0.028-0.086C73.008,68.313,72.866,68.482,72.667,68.652z
	 M71.675,67.632c0.113-0.228,0.228-0.312,0.369-0.312c0.085,0,0.143,0.027,0.17,0.084c0.058,0.057,0.085,0.142,0.085,0.199
	c0,0.254-0.085,0.424-0.197,0.539c-0.085,0.084-0.256,0.141-0.512,0.194c-0.027-0.056-0.027-0.14-0.027-0.194
	C71.562,67.973,71.59,67.802,71.675,67.632z M79.243,68.482c-0.313,0.311-0.48,0.453-0.566,0.453c-0.085,0-0.17-0.028-0.197-0.113
	v-1.588l-0.341,0.17c0,0.029,0,0.086,0,0.199c0,0.084,0,0.17,0,0.227c0,0.709-0.171,1.077-0.511,1.077
	c-0.112,0-0.17-0.113-0.17-0.341c0-0.424,0-0.854,0.025-1.332h-0.025l-0.341,0.113c-0.028,0.28-0.028,0.365-0.028,0.34v0.992
	c-0.147,0.077-0.283,0.141-0.397,0.139c-0.255,0-0.624-0.112-1.077-0.34l-0.025-0.028c0.198-0.255,0.283-0.511,0.283-0.765
	c0-0.17-0.059-0.345-0.198-0.539c-0.255-0.34-0.396-0.514-0.425-0.539c-0.144-0.256-0.199-0.539-0.199-0.821
	c0-0.17,0.059-0.368,0.172-0.539c0.142-0.228,0.282-0.312,0.425-0.312h0.112c0.057,0,0.113-0.028,0.113-0.028
	c0.228,0,0.426,0.085,0.539,0.227c0.141,0.171,0.195,0.369,0.195,0.597c0,0.144-0.025,0.283-0.085,0.396
	c-0.085,0.17-0.17,0.229-0.283,0.229c-0.11,0-0.171-0.026-0.256-0.111c-0.058-0.113-0.085-0.198-0.085-0.283
	c0-0.197,0.085-0.34,0.229-0.453c-0.199,0.113-0.313,0.229-0.369,0.283c-0.112,0.111-0.17,0.254-0.17,0.396
	c0,0.11,0.025,0.195,0.085,0.28c0.085,0.06,0.17,0.114,0.255,0.114c0.257,0,0.482-0.145,0.709-0.428
	c0.228-0.256,0.313-0.51,0.313-0.766c0-0.199-0.058-0.369-0.171-0.479c-0.11-0.113-0.28-0.198-0.479-0.198
	c-0.426,0-0.794,0.169-1.134,0.479c-0.313,0.313-0.481,0.683-0.481,1.104c0,0.256,0.058,0.481,0.229,0.683
	c0.141,0.17,0.281,0.34,0.396,0.51c0.17,0.199,0.229,0.428,0.229,0.683c0,0.17-0.027,0.283-0.086,0.283
	c-0.058,0-0.143-0.027-0.228-0.027c-0.114-0.026-0.172-0.026-0.228-0.026c-0.199,0-0.369,0.026-0.539,0.11
	c-0.199,0.114-0.313,0.259-0.313,0.429c0,0.058,0.028,0.111,0.145,0.143c0.056,0.027,0.11,0.059,0.195,0.059
	c0.256,0,0.514-0.113,0.769-0.283c0.453,0.17,0.793,0.229,1.077,0.229c0.17,0,0.34-0.027,0.51-0.113
	c0.111-0.048,0.189-0.105,0.255-0.174v0.146c0,0.058,0.028,0.084,0.114,0.111c0.058,0.059,0.11,0.059,0.17,0.059
	c0.143,0,0.281-0.059,0.425-0.17c0.143-0.111,0.256-0.228,0.313-0.369c0,0.229,0.027,0.343,0.027,0.369
	c0.028,0.111,0.114,0.199,0.256,0.199c0.144,0,0.283-0.059,0.453-0.199c0.084-0.059,0.197-0.17,0.396-0.34v-0.115h-0.005v-0.006
	H79.243z M74.878,68.991c-0.112,0.057-0.229,0.085-0.34,0.085c-0.229,0-0.34-0.057-0.34-0.143c0-0.084,0.057-0.17,0.142-0.197
	c0.085-0.057,0.17-0.086,0.256-0.086c0.197,0,0.367,0.058,0.566,0.143C75.134,68.878,75.021,68.936,74.878,68.991z M83.014,68.652
	c-0.227,0.17-0.426,0.283-0.538,0.283c-0.144,0-0.256-0.061-0.342-0.17c-0.112-0.113-0.17-0.26-0.197-0.369
	c0.229,0,0.453-0.113,0.684-0.283c0.254-0.199,0.396-0.397,0.396-0.596c0-0.229-0.142-0.344-0.368-0.344
	c-0.256,0-0.51,0.146-0.734,0.398c-0.229,0.255-0.343,0.535-0.343,0.794c0,0.063,0.017,0.133,0.031,0.196
	c-0.164,0.188-0.313,0.313-0.482,0.313c-0.396,0-0.598-0.255-0.598-0.769c0-0.17,0.027-0.28,0.085-0.426
	c0.06-0.17,0.145-0.254,0.255-0.254c0.06,0,0.113,0.027,0.171,0.084c0.027,0.061,0.027,0.113,0.027,0.17h0.085
	c0.085-0.084,0.145-0.17,0.145-0.227c0-0.141-0.085-0.197-0.257-0.197c-0.171,0-0.366,0.17-0.596,0.537
	c-0.171-0.227-0.284-0.367-0.339-0.396c-0.114-0.084-0.283-0.142-0.511-0.142c-0.085,0.027-0.17,0.113-0.282,0.283
	c-0.114,0.144-0.172,0.228-0.199,0.313h0.027c0.028,0,0.087-0.061,0.199-0.17c0.085-0.115,0.17-0.199,0.28-0.229
	c0.368,0.085,0.566,0.368,0.566,0.821c0,0.168-0.058,0.313-0.143,0.479c-0.113,0.17-0.229,0.254-0.368,0.254
	c-0.085-0.024-0.145-0.057-0.17-0.084c0.025-0.086,0.025-0.114,0.025-0.143c0-0.113-0.026-0.144-0.143-0.144
	c-0.057,0-0.085,0-0.144,0.059c-0.027,0.027-0.059,0.085-0.059,0.142c0,0.17,0.113,0.229,0.341,0.229
	c0.284,0,0.566-0.144,0.768-0.452c0.027,0.112,0.114,0.229,0.229,0.313c0.085,0.111,0.197,0.143,0.34,0.143
	c0.198,0,0.368-0.029,0.48-0.143c0.049-0.022,0.146-0.144,0.271-0.31c0.023,0.078,0.06,0.151,0.101,0.222
	c0.084,0.172,0.227,0.229,0.396,0.229c0.229,0,0.482-0.084,0.769-0.254c0.227-0.17,0.424-0.369,0.563-0.566l0.027-0.086
	C83.354,68.313,83.212,68.482,83.014,68.652z M81.908,68.143c0-0.17,0.025-0.341,0.11-0.511c0.085-0.228,0.229-0.312,0.368-0.312
	c0.086,0,0.146,0.027,0.171,0.084c0.06,0.057,0.06,0.142,0.06,0.199c0,0.254-0.059,0.424-0.173,0.539
	c-0.086,0.084-0.256,0.141-0.511,0.194C81.908,68.284,81.908,68.2,81.908,68.143z M84.885,64.4c0.171-0.086,0.283-0.146,0.396-0.229
	c0.11-0.057,0.227-0.142,0.281-0.17c0.428-0.255,0.683-0.396,0.793-0.425c0.198-0.143,0.344-0.229,0.396-0.284v-0.597
	c-0.854,0.853-1.729,1.221-2.692,1.104c-0.819-0.085-1.442-0.48-1.956-1.22c-0.479-0.733-0.681-1.615-0.623-2.638
	c0.964,0.086,1.897,0.144,2.809,0.144c0.989,0,1.813-0.026,2.467-0.11c-0.027-0.481-0.145-0.938-0.341-1.392
	c-0.198-0.479-0.513-0.853-0.938-1.134C85.055,57.143,84.544,57,83.978,57c-1.021-0.027-1.871,0.34-2.604,1.105
	c-0.709,0.733-1.078,1.701-1.078,2.859c0,0.651,0.144,1.275,0.427,1.899c0.282,0.596,0.681,1.104,1.189,1.442
	c0.51,0.371,1.048,0.541,1.672,0.541h11.396V64.4H84.885z M82.163,57.992c0.341-0.368,0.767-0.568,1.219-0.596
	c0.539-0.028,0.992,0.143,1.39,0.539c0.396,0.396,0.598,0.935,0.598,1.611c-0.538,0-1.021,0-1.445,0c-0.426,0-1.219,0-2.408-0.025
	C81.597,58.898,81.795,58.389,82.163,57.992z M59.969,63.633c0.283,0.368,0.681,0.651,1.134,0.879
	c0.454,0.198,0.964,0.313,1.53,0.34c0.795,0,1.474-0.194,2.069-0.623c0.563-0.396,1.021-0.908,1.332-1.561
	c0.28-0.623,0.45-1.303,0.45-1.982c0-1.021-0.34-1.871-0.988-2.605c-0.652-0.74-1.531-1.107-2.637-1.08
	c-1.104,0-2.013,0.368-2.69,1.133c-0.709,0.738-1.05,1.645-1.078,2.723c-0.027,0.513,0.028,1.021,0.173,1.502
	C59.431,62.839,59.657,63.264,59.969,63.633z M60.987,58.275c0.454-0.481,0.967-0.736,1.506-0.736c0.479,0,0.935,0.17,1.357,0.51
	s0.769,0.822,1.021,1.445c0.255,0.624,0.365,1.305,0.34,2.098c-0.027,0.822-0.255,1.475-0.65,1.957
	c-0.427,0.51-0.936,0.766-1.531,0.793c-0.535,0-0.989-0.17-1.417-0.537c-0.426-0.369-0.765-0.852-0.989-1.476
	c-0.229-0.595-0.368-1.247-0.368-1.899C60.281,59.494,60.535,58.758,60.987,58.275z M52.683,63.805
	c-0.198-0.256-0.341-0.625-0.396-1.078c-0.06-0.426-0.086-1.05-0.086-1.813c0-0.737,0.026-1.273,0.026-1.646
	c0.684-0.51,1.444-1.304,2.466-1.304c0.344-0.028,0.624,0.113,0.822,0.341c0.197,0.229,0.34,0.51,0.396,0.821
	c0.086,0.34,0.111,0.767,0.111,1.304c0.027,0.512,0.027,0.907,0,1.162c0,0.965-0.058,1.674-0.196,2.1
	c-0.145,0.428-0.48,0.565-1.021,0.48v0.482c0.283,0,0.481,0,0.596-0.028c0.283-0.028,0.48-0.028,0.599-0.058
	c0.368-0.06,0.733-0.06,1.104,0c0.17,0.029,0.368,0.029,0.623,0.058c0.112,0.028,0.282,0.028,0.599,0.028v-0.482
	c-0.396,0.085-0.684,0-0.854-0.227c-0.198-0.229-0.313-0.51-0.341-0.822c-0.027-0.313-0.027-0.822-0.027-1.531
	c0-0.34,0-0.85,0-1.529c0.027-0.879-0.058-1.588-0.256-2.127c-0.17-0.563-0.623-0.818-1.305-0.818c-0.48,0-1.077,0.17-1.758,0.535
	c-0.565,0.313-1.051,0.652-1.562,1.053c0-1.446,0-2.835,0.06-4.227c0.057-1.391,0.11-2.468,0.195-3.289
	c-0.905,0.283-1.871,0.481-2.946,0.539l0.026,0.481c0.538-0.114,0.905-0.086,1.134,0.058c0.198,0.145,0.313,0.367,0.368,0.735
	c0.027,0.369,0.06,0.964,0.06,1.843v2.187c0,0.851,0,1.673,0,2.491l-1.931,1.445v0.538l1.931-1.444c0,0.313,0,0.623,0,0.938
	c0,1.049-0.028,1.729-0.06,2.101c0,0.342-0.11,0.623-0.313,0.852c-0.145,0.197-0.369,0.255-0.709,0.255h-8.958v0.452h0.002h8.675
	c0.086,0,0.171,0,0.256,0h0.059c0.058-0.028,0.111-0.028,0.171-0.028c0.143-0.028,0.28-0.028,0.426-0.058
	c0.143-0.027,0.283-0.027,0.368-0.027c0.623-0.027,1.049-0.027,1.273,0c0.112,0,0.229,0.027,0.368,0.027
	c0.171,0.029,0.283,0.058,0.341,0.058c0.145,0.028,0.34,0.028,0.565,0.028v-0.482C53.194,64.2,52.882,64.087,52.683,63.805z
	 M75.021,64.654v-0.426c-0.54,0.024-0.852-0.113-0.937-0.453s-0.112-1.051-0.112-2.103v-2.551c0.906-0.769,1.672-1.162,2.271-1.162
	c0.45,0.028,0.733,0.313,0.878,0.879c0.112,0.567,0.171,1.502,0.144,2.81c-0.028,0.623-0.058,1.104-0.085,1.442
	c-0.059,0.37-0.144,0.653-0.313,0.854c-0.171,0.226-0.396,0.311-0.734,0.283v0.426c0.256,0,0.453,0,0.596-0.028
	c0.197-0.028,0.396-0.028,0.566-0.058c0.313-0.027,0.623-0.027,0.937,0c0.112,0.029,0.313,0.029,0.565,0.058
	c0.143,0.028,0.396,0.028,0.709,0.028v-0.426c-0.282,0.025-0.51-0.028-0.736-0.198c-0.228-0.142-0.368-0.453-0.426-0.88
	c-0.027-0.254-0.027-0.769,0-1.502c0.029-0.683,0.058-1.392,0.058-2.069c0-0.793-0.058-1.445-0.256-1.897
	c-0.17-0.455-0.596-0.654-1.305-0.597c-0.623,0.056-1.587,0.595-2.895,1.616c-0.026-0.426-0.17-0.822-0.422-1.192
	c-0.255-0.368-0.649-0.511-1.219-0.426c-0.48,0.028-1.417,0.567-2.778,1.616c0.028-0.737,0.085-1.305,0.199-1.701
	c-0.992,0.311-1.896,0.454-2.692,0.454v0.51c0.427-0.112,0.736-0.085,0.966,0.058c0.227,0.17,0.396,0.396,0.452,0.736
	c0.086,0.368,0.111,0.793,0.111,1.275c0,0.51,0,1.049,0,1.615c0,0.935-0.085,1.612-0.228,2.066
	c-0.145,0.428-0.481,0.598-1.021,0.514v0.426c0.341,0,0.566,0,0.709-0.028c0.254-0.028,0.453-0.028,0.565-0.058
	c0.342-0.027,0.649-0.027,0.965,0c0.171,0.027,0.368,0.058,0.566,0.058c0.142,0.028,0.312,0.028,0.563,0.028v-0.426
	c-0.426,0-0.708-0.199-0.878-0.623c-0.172-0.429-0.229-1.106-0.229-2.07c0-0.965,0-1.758,0.025-2.409
	c0.255-0.228,0.624-0.481,1.104-0.767c0.479-0.282,0.878-0.424,1.188-0.396c0.396,0.028,0.683,0.255,0.793,0.652
	c0.113,0.425,0.173,0.99,0.173,1.757v1.304c0,0.653-0.029,1.135-0.06,1.477c-0.028,0.428-0.171,0.709-0.368,0.853
	c-0.196,0.17-0.453,0.255-0.709,0.229v0.427c0.284,0,0.482,0,0.598-0.028c0.281-0.027,0.451-0.027,0.564-0.059
	c0.229-0.026,0.54-0.026,0.938,0c0.111,0,0.281,0.029,0.596,0.059C74.567,64.654,74.765,64.654,75.021,64.654z M54.753,39.737
	c0.229-0.482,0.229-0.992,0.649-1.275c0.882-0.539,0.882,0.396,0.567-0.851c0.452-0.198,0.595-0.765,0.793-0.794
	c0.481-0.085,0.256,0.369,0.991,0.596L57.7,38.065c-0.229,0.057-0.538,0.085-0.513,0.312c0.027,0.34,0.598,0.766,0.793,0.964
	c-0.255,0.51-1.247,1.276-2.066,1.531c2.151,0.567,3.346-2.069,3.569-0.227c0.258,2.012,0.513,4.053,0.513,4.053
	s0.964-1.7,2.236-0.736c-0.025,0.085-0.025,0.142,0,0.228l0.113,0.396L63,44.869c0.341,0.396,0.624,0.453,0.907,0.367l0.085,0.171
	l0.396,0.028l-0.453-0.199c0.197-0.057,0.425-0.229,0.684-0.313c-0.085,0-0.145-0.057-0.145-0.142c-0.028-0.258,0-0.397,0.06-0.514
	c0.085,0.282,0.195,0.452,0.68,0.709c0.17,0.086,0.284,0.145,0.427,0.17c0.624,0.513,1.445,1.846,2.637,4.903
	c-0.025-0.282-0.057-0.452,0.256-0.51l0.651-0.113c-0.085,0.396-0.426,0.597-0.879,0.709l0.027,0.06
	c0.281,0.766,0.539,1.246,0.794,1.56l0.058,0.255c0.112,0.454,1.729,1.531,2.153,1.76c0.564,0.256,0.709,0.369,1.531,0.313
	c0.68-0.085,1.104,0.058,1.272,0.651l0.06,0.283c0.085,0.313,0.085,1.133,0.085,1.443c-0.258,0.059-0.737,0.085-0.797-0.086
	c-0.34-1.357,0.113-0.793-1.074-1.247L72.3,55.157c-0.651-0.058-0.313,0.624-0.085,1.075c0.198,0.369,0.652,0.539,1.021,0.683
	l0.113-0.026c0.48-0.029,0.425,0.084,0.794,0.17l0.06,0.17v0.059l0.28,0.65l0.539-0.144c0.368-0.112,0.313-1.786,0.255-2.013
	l-0.17-0.624c-0.144-0.566-0.649-1.332-0.937-1.843l-1.898,0.17l-0.143-0.539l-0.368,0.113l-0.058-0.313L71.42,52.83l-0.085-0.313
	l-0.34,0.11l-0.028-0.11c0,0,0-0.027,0.028-0.027l-0.06-1.305c0.283-0.566,0.538-1.078,1.162-1.418
	c0.066-0.033,0.143-0.021,0.219,0.022c-0.188-0.341-0.19-0.787,0.291-1.414c0.539-0.709,1.137-1.871,0.992-2.978
	c-0.228-1.7-2.099-2.408-2.126-2.606c-0.058-0.51,0.282-0.907,0.769-0.992c0.681-0.113,1.104-0.142,1.758-0.198
	c0.596-0.029,0.878,0.283,1.587,0.17l0.228-0.057c0.255-0.028,0.313-0.113,0.284-0.369l-0.029-0.113
	c-0.11-0.907-2.604-1.276-2.721-2.268c-0.113-0.709,2.041-1.786,2.354-2.608l-1.137-0.766c-0.143-1.332-0.989-0.964-1.104-1.899
	l-0.396-2.977c-0.11-0.822,0.396-1.729,1.222-1.871c0.937-0.142,3.771-0.028,4.563,0.142c1.359,0.255,2.692,0.652,3.997,0.85
	c2.238,0.369,1.587,0.652,4.422,0.057c2.101-0.425,2.777-2.211,3.26-2.409l-0.085-0.652c-0.057,0-3.738-2.495-4.224-2.807
	c-1.417-0.878-3.203-1.587-4.508-2.579c-0.624-0.51-1.36-0.879-2.013-1.474c-0.822-0.766-0.368-2.325-1.332-2.495
	c-0.709-0.113-0.938,0-1.563-0.057c-0.538-0.057-0.596-0.369-1.273-0.454c-1.051-0.085-1.845-0.425-2.639-0.794
	c-1.076,0.199-1.729-0.453-3.031-0.227l-0.767,0.113c-0.396,0.085-0.426,0.17-0.767,0.255c0.143,0.142,0.195,0.283,0.479,0.255
	l0.878-0.17v0.17l-0.51,0.369v-0.22l-0.565,0.085c-0.367,0.085-0.427-0.396-1.246-0.482c-0.683-0.057-0.768-0.255-1.504-0.113
	c-0.143-0.142-0.196-0.312-0.48-0.255c-0.735,0.113,0.257,0.822-0.537,0.964l-0.113,0.028c-0.17,0.028-0.341,0-0.368-0.17
	c-0.143-1.248-0.058-0.624-1.503-0.397c-0.396,0.397-0.819,0.539-1.332,0.907c-0.649,0.454-0.623,0.652-1.074,1.049
	c-0.684,0.567-1.846,1.389-1.701,2.494l0.025,0.312c0.06,0.425,0.599,0.737,0.769,1.616c-0.255,0.51-0.709,0.992-1.049,1.474
	c-0.454,0.567-0.624,1.219-0.965,1.644c-0.566,0.737-1.104,3.175-1.417,3.515l-0.623,2.778l0.11,0.028
	c-0.34,0.708-1.077,2.608-1.528,3.09c-0.027,0.028-0.059,0.057-0.085,0.113c-0.258,1.786-0.313,3.6,0.621,4.649
	C54.639,39.964,54.696,39.85,54.753,39.737z M61.273,34.04l-0.171,0.028l-0.025-0.142l0.229-0.057l0.027,0.085L61.273,34.04z
	 M61.895,34.294c-0.084-0.056-0.312-0.141-0.396-0.254l-0.027-0.057h-0.028c-0.025-0.028-0.025-0.028-0.025-0.057
	c0-0.029,0-0.057,0-0.085v-0.028v-0.057c0-0.199,0.058-0.34,0.085-0.51l0.143-0.057l-0.058-0.284l0.255-0.085L61.7,32.281
	l0.365-0.085l-0.058,1.077c0,0.227,0.086,0.312,0.198,0.539L61.895,34.294z M63.967,44.3L63.4,44.357c0-0.086,0-0.17-0.025-0.313
	l-0.027-0.085c-0.059-0.198-0.059-0.17-0.172-0.284c0.028-0.057,0.028-0.113,0.058-0.197c0.369,0.112,0.794,0.283,0.938,0.481
	L63.967,44.3z M64.248,29.93c-0.113-0.34-0.255-0.312-0.313-0.709l-0.085-0.737c-0.058-0.369,0.085-0.113,0.145-0.567
	c0.195,0.085,0.819,0.34,0.879,0.595C64.929,29.022,64.532,29.674,64.248,29.93z M64.872,25.905h-0.113
	c-0.341,0.056-0.736-0.539-0.766-0.738c-0.06-0.34,0.819-0.907,1.219-0.963c0.255-0.057,0.564,0.028,0.597,0.312
	C65.808,24.658,64.986,25.877,64.872,25.905z M65.014,19.073c-0.058-0.227,0.367-0.255,0.596-0.425l0.229,0.312
	c-0.06,0.227-0.085,0.539-0.425,0.595C65.24,19.583,65.014,19.271,65.014,19.073z M65.497,26.443l-0.061-0.425
	c-0.025-0.255,0.027-0.341,0.284-0.369c0.34-0.085,0.623,0.567,0.68,0.851l0.028,0.34c0.027,0.227-0.228,0.567-0.479,0.624
	C65.695,27.492,65.525,26.755,65.497,26.443z M66.488,31.744c-0.878,0.142-0.025-1.531,0.229-1.814l0.821,0.425
	C67.593,30.893,66.998,31.659,66.488,31.744z M68.954,48.496c-0.396,0.057-0.198-0.028-0.652,0
	c-0.027-0.453,0.228-0.566,0.652-0.652c0.025,0.057,0.058,0.114,0.085,0.172l0.085,0.396C69.096,48.439,69.039,48.496,68.954,48.496
	z M78.478,23.326c0.736-0.142,0.938,0.397,1.444,0.51c0.198,0.028,1.616,0.17,1.786,0.142l0.085-0.028
	c0.368-0.057,0.313-0.255,0.283-0.595c-1.021,0.17-0.737-0.057-1.137-0.539c-0.338-0.399-0.679-0.256-0.85-0.88l-0.313,0.056
	c-0.341,0.057-0.511-0.17-0.623-0.425c0.112-0.113,0.112-0.142,0.313-0.17c0.481-0.085,0.086,0.425,1.19,0.567
	c0.451,0.057,0.819,0.397,1.104,0.652c0.736,0.68,1.389,0.878,2.27,1.275l0.538-0.198c0.086,0.737,0.427,0.907,0.965,1.105
	c0.879,0.312,0.511,0,1.358,0.595c0.991,0.708,1.444,0.595,2.238,1.786c-0.964,0.17-1.219-0.227-2.354-0.028h-0.109
	c-0.198,0.057-1.19-1.049-1.588-1.275c-0.513-0.255-1.502-0.652-2.126-0.68c-0.965-0.085-0.256-0.255-0.992-0.34
	c-0.453-0.057-0.821-0.085-1.219-0.113c-0.965-0.113-1.36-0.369-2.555-0.142l-0.479-0.368
	C77.769,24.119,78.421,23.326,78.478,23.326z M78.847,22.701c0.057,0,0.396-0.17,0.426-0.17c0.17-0.028,0.255,0.114,0.283,0.284
	c0,0.141-0.143,0.227-0.313,0.255C79.045,23.127,78.931,22.871,78.847,22.701z M70.485,16.607c0.539-0.085,1.247,0.227,1.531,0.51
	l0.65-0.113l0.256,0.255l0.964,0.17l-0.028,0.142l0.539-0.113l0.565,0.51l-0.085,0.142l-0.793-0.369
	c-0.624,0.085-3.884-0.709-4.024-1.049L70.485,16.607z M70.287,18.648c0.511,0.028,1.332,0.142,1.871,0.255
	c0.563,0.142,1.188,0.368,1.782,0.539c0.938,0.255,0.539,0.765,1.563,0.68l-0.027-0.227l-0.198,0.057l-0.057-0.454
	c-0.058-0.34,0.17-0.425,0.48-0.51l-0.028-0.227c-0.313,0.028-0.538,0.028-0.595-0.312l-0.029-0.34l0.313-0.057
	c0.343-0.057,2.154,0.964,2.384,1.247c-0.258,0.17,0.11,0.085-0.313,0.142c-0.228,0.057-0.228-0.028-0.454-0.114l-0.511,0.199
	c-0.085,0.68-0.511,0.964-0.964,1.36l-0.313-0.482c-0.085,0.085-0.313,0.369-0.369,0.369c-0.425,0.085-0.765,0-1.134-0.028
	l0.06-0.425c-0.453,0.255-0.028,0.312-0.513,0.397l-0.426,0.085c0.061,0.51-0.085,0.68-0.563,0.766l-0.992,0.17
	c-0.34,0.057-0.599-0.312-0.651-0.68v-0.086H70.6c-0.085-0.737,1.049-0.454,1.418-1.134l-0.937-0.255
	c-0.822,0.113-2.438,0-2.522-0.68l-0.113-0.737C68.557,18.166,69.606,18.591,70.287,18.648z M68.586,20.972l0.029,0.113
	c0.025,0.255-0.061,0.34-0.284,0.369l-0.683,0.113c-0.196,0.057-0.794-0.199-0.819-0.51c-0.028-0.142,0.11-0.227,0.28-0.255
	l0.539-0.085C68.047,20.632,68.557,20.604,68.586,20.972z M66.658,19.894L66.658,19.894c0.28-0.056,0.396-0.339,0.62-0.538
	c0.229,0.114,0.567,0.142,0.599,0.425l0.058,0.34c0.027,0.227-0.058,0.312-0.313,0.369l-0.539,0.085l-0.027-0.199l-0.313,0.057
	c-0.199,0.028-0.822-0.114-0.967-0.397l0.768-0.142H66.658z M66.148,17.598l0.34,0.681l-1.049-0.142l-0.453-0.567L66.148,17.598z
	 M63.03,17.57l1.984,0.737c0.057,1.049-2.297-0.396-2.75-0.595L63.03,17.57z M63.682,21.057c0.057,0,0.396-0.425,0.48,0.142
	c0.025,0.397-2.154,1.021-2.639,1.219c-0.195-0.085-0.479-0.142-0.51-0.454C60.904,21.086,63.058,21.171,63.682,21.057z
	 M61.13,27.208c0.257-0.057,0.454,0.085,0.479,0.34c0.085,0.652-0.28,0.397-0.195,1.134l0.538,0.142l-0.145,0.028l-1.049,0.822
	C60.592,29.22,60.479,27.321,61.13,27.208z M60.904,30.838c0.283,0.113,0.454,0.369,0.709,0.312l0.481-0.057l-0.028,1.048
	l-0.085-0.255l-0.563,0.766c-0.197-0.454-0.651-1.248-0.794-1.417L60.904,30.838z M60.592,32.764
	c0.313-0.057,0.341,0.085,0.453,0.255l0.028,0.114L60.677,33.7c-0.142-0.255-0.255-0.539-0.282-0.681
	C60.394,32.906,60.507,32.764,60.592,32.764z M60.309,40.135c-0.852-0.057-1.616-1.248-1.077-1.333
	C59.6,38.745,60.253,39.709,60.309,40.135z M58.069,35.826l0.086,0.312c0.028,0.113,0.343,0.284,0.481,0.425l0.027,0.085
	c0.085,0,0.255,0.085,0.453,0.17v0.142c0.256,0.085,0.451,0,0.479,0.34l0.057,0.34c-0.365,0.028-1.304-0.539-1.33-0.765
	l-0.027-0.312l-0.539-0.057l-0.425-0.567l-0.027-0.595L58.069,35.826z M56.878,34.408l0.171,0.284l0.028,0.198v0.113
	c0.057,0.425,0.057,0.028-0.085,0.369l-0.369-0.369v-0.255C56.566,34.464,56.651,34.493,56.878,34.408z M55.602,36.477
	c0.17-0.028,0.34,0,0.34,0.142c0.03,0.085-0.28,0.482-0.365,0.51c-0.113,0.028-0.229-0.085-0.258-0.17
	C55.291,36.732,55.461,36.477,55.602,36.477z M73.432,51.217l-0.028-0.313c-0.021-0.188-0.336-0.367-0.638-0.61
	C73.15,50.869,73.485,51.643,73.432,51.217z M72.766,50.294c-0.146-0.224-0.306-0.416-0.447-0.498
	C72.426,49.992,72.593,50.154,72.766,50.294z"/>
</svg>
