<?xml version="1.0" encoding="utf-8"?>
<!-- Generator: Adobe Illustrator 16.0.0, SVG Export Plug-In . SVG Version: 6.00 Build 0)  -->
<!DOCTYPE svg PUBLIC "-//W3C//DTD SVG 1.1//EN" "http://www.w3.org/Graphics/SVG/1.1/DTD/svg11.dtd">
<svg version="1.1" id="Слой_1" xmlns="http://www.w3.org/2000/svg" xmlns:xlink="http://www.w3.org/1999/xlink" x="0px" y="0px"
	 width="127.559px" height="85.039px" viewBox="0 0 127.559 85.039" enable-background="new 0 0 127.559 85.039"
	 xml:space="preserve">
<path fill="#979898" d="M97.21,66.552c-0.233-0.073-0.479-0.075-0.728-0.084c-1.049-0.036-2.225-0.116-3.172-0.213
	c-0.137-0.28-0.595,0.034-0.89-0.11c-0.148-0.074-0.313-0.074-0.472-0.102c-0.417-0.246-1.313-0.068-1.771-0.072
	c-2.308-0.021-4.646,0.26-6.978,0.114c-2.387-0.147-4.818,0.004-7.209,0.015c-2.452,0.01-4.902,0.113-7.354,0.196
	c-2.741,0.093-5.48,0.187-8.224,0.279c-1.442,0.049-2.946,0.336-4.367,0.045c-0.654-0.134-1.294-0.354-1.966-0.406
	c-1.182-0.089-2.359,0.226-3.529,0.32c-1.275,0.103-2.438-0.415-3.699-0.406c-0.688,0.004-1.379-0.04-2.068-0.028
	c-0.988,0-2.146,0.314-3.119,0.121c-0.36-0.07-0.442-0.229-0.817-0.121c-0.304,0.088-0.604,0.174-0.909,0.262
	c-0.437,0.125-0.856,0.3-1.292,0.429c-0.629,0.188-1.258,0.374-1.888,0.563c-0.163,0.049-0.342,0.086-0.5,0.148
	c-0.141,0.061-0.218,0.169-0.205,0.316c-0.33,0.054-0.66,0.104-0.993,0.133c-0.65,0.051-1.424,0.046-2.043-0.208
	c-0.262-0.115-0.49,0.19-0.349,0.413c0.178,0.273,0.72,0.285,1.021,0.324c0.533,0.072,3.453,0.271,3.281-0.531
	c1.179-0.334,2.349-0.7,3.521-1.055c0.506-0.15,0.558-0.151,1.03-0.002c0.945,0.196,2.064-0.069,3.026-0.104
	c1.212-0.044,2.457-0.021,3.645,0.229c1.854,0.391,3.575,0.041,5.441-0.08c0.75-0.051,1.519,0.229,2.245,0.375
	c0.903,0.183,1.753,0.182,2.673,0.104c1.063-0.091,2.129-0.115,3.194-0.15c2.744-0.094,5.485-0.188,8.229-0.279
	c4.244-0.145,8.487-0.178,12.733-0.226c2.516-0.026,5.028-0.056,7.544-0.083c0.494-0.006,1.106,0.069,1.595-0.053
	c0.38,0.088,0.838,0.316,1.207,0.316c0.713,0.177,1.565,0.089,2.3,0.113c0.527,0.021,1.06,0.037,1.586,0.06
	C97.324,67.123,97.765,66.576,97.21,66.552z M103.354,65.982c-0.192-0.196-1.354-0.051-1.606-0.082
	c-1.14-0.146-2.223-0.535-3.321-0.84c-1.836-0.506-3.879-0.855-5.794-0.9c-1.665-0.039-3.323,0.24-4.98,0.06
	c-1.056-0.114-2.357-0.308-3.405-0.212c0.08-0.213,0.134-0.398,0.231-0.598c0.142-0.141,0.315,0.041,0.5-0.082
	c0.396-0.197,1.103-0.055,1.543-0.051c0.249,0.003,1.318-0.147,1.486,0.049c0.144,0.427,0.604,0.678,1.034,0.678
	c0.259,0,2.209-0.082,1.652-0.597c-0.168-0.157-1.862-0.067-0.851-0.568c0.395-0.19,1.26-0.211,1.26,0.37
	c-0.206,0.217-0.229,0.74,0.202,0.588c0.389-0.092,0.505-0.646,0.407-0.968c0.143-0.082,0.318-0.122,0.397,0.005
	c-0.685,0.418,0.41,0.846,0.718,0.915c0.538,0.26,0.942-0.001,1.353-0.228c0.327,0,0.18-0.152,0.396,0.119
	c0.109,0.142,0.432,0.188,0.594,0.188c0.251,0.037,0.646,0.088,0.881,0.088c0.443,0,2.151,0.05,1.738-0.76
	c0.317,0.25,0.675-0.14,0.938-0.271c-0.14,0.796,1.993,0.064,1.255-0.885c0.112-0.181,0.097-0.524-0.078-0.669
	c-0.276-0.291-0.062-0.184-0.188-0.503c-0.086-0.213-0.445-0.271-0.548-0.376c0-0.148-0.2-0.573-0.273-0.711
	c0.046,0.093-0.32-0.521-0.508-0.617c0.003-0.161-0.108-0.48-0.361-0.48c-0.319-0.142,0.038-0.239,0.038-0.513
	c0-0.313-0.254-0.461-0.539-0.476c0.017-0.184-0.107-0.393-0.107-0.6c0-0.394-0.586-0.926-0.972-0.961
	c-0.183-0.07-0.416-0.009-0.593,0.045c-0.135-0.084-0.326-0.158-0.492-0.158c-0.024-0.104,0-0.231,0-0.34
	c0.678,0.512,0.259-1.168,0.211-1.308c-0.36-1.351-0.8-2.688-1.197-4.028c-0.229-0.763-0.439-1.525-0.709-2.271
	c-0.063-0.192-0.2-0.883-0.54-0.807c-0.348,0.06-0.324,0.332-0.638,0.319c-0.897-0.034-1.799-0.065-2.696-0.096
	c-0.312-0.011-1.573,0.112-1.741-0.079c0.028-0.584-0.009-1.177,0.063-1.754c0.771-0.182-0.806-1.153-1.018-1.204
	c-0.436-0.112-0.662-0.119-1.067,0.158c-0.229,0.071-1.162,0.446-1.062,0.815c0.058,0.196,0.501,0.411,0.501,0.603
	c0,0.298,0.017,0.603-0.014,0.897c-0.047,0.402-0.94,0.193-1.305,0.188c-1.388-0.019-2.799,0.028-4.185-0.063
	c-2.935,0.043-5.877-0.224-8.813-0.259c-3.318-0.039-6.638-0.06-9.958-0.137c-1.388-0.033-2.773-0.063-4.163-0.099
	c-0.773-0.021-1.854-0.289-2.521,0.177c-1.929,1.339-3.856,2.678-5.785,4.018c-1.479,1.025-3.003,1.983-4.485,3.007
	c-0.4,0.275-1.881,0.938-1.507,1.616c0.148,0.271,1.223,0.372,1.512,0.388c0.485,0.021,0.39,0.066,0.376,0.547
	c-0.011,0.287-0.346,0.14-0.412,0.426c-0.084,0.125-0.124,0.464-0.178,0.613c-0.104,0.222-0.012,0.592,0.152,0.758
	c0.313,0.317,0,1.123-0.075,1.479c-0.195,0.396,0.517,1.041,0.451,1.357c-0.265-0.095-0.562-0.017-0.808,0.087
	c-0.21-1.335-1.455-2.303-2.354-0.917c-0.268-0.323-1-0.427-1.266-0.045c-0.204,0.229-0.446,0.636-0.422,0.964
	c-0.162-0.172-0.777-0.012-0.979-0.123l0.008-0.005c-0.132-0.252-0.44-0.07-0.546,0.077c-0.387-0.209-0.874,0.152-0.987,0.486
	c-0.082,0.233-0.285,0.139-0.346,0.447c-0.046,0.247-0.215,0.439-0.215,0.674c0,0.784-0.067,1.646,0.688,2.122
	c-0.375-0.157-0.673,0.261-0.291,0.517c0.289,0.156,0.663,0.049,0.97,0.027c0.302,0,0.574,0.146,0.841,0.146
	c0.338,0,0.239-0.342,0.587-0.352c0.313-0.037,0.612,0,0.919,0.043c0.388,0.057,1.104,0.299,1.439,0.061
	c0.161-0.053,0.316-0.17,0.469-0.239c0.192-0.026,0.429,0.114,0.634,0.114c0.397,0,2.186,0.039,1.451-0.693
	c2.595-0.107,5.188-0.211,7.778-0.304c0.938-0.034,1.863-0.228,2.795-0.331c1.135-0.13,2.274-0.104,3.413-0.066
	c1.619,0,3.239,0.063,4.854,0.144c-1.229-0.011-2.45,0.085-3.685,0.088c-0.378,0.001-0.766-0.011-1.14-0.065
	c-0.183-0.051-0.522-0.188-0.699-0.039c-0.239,0.205-0.021,0.457,0.201,0.516c-0.707,0.035-1.438,0.104-2.146,0.042
	c-0.257-0.025-1.22-0.362-1.22,0.11c0,0.76,2.751,0.526,3.162,0.512c2.381-0.104,4.738,0.365,7.111,0.101
	c1.444-0.161,2.928-0.157,4.354-0.489c2.397,0,4.854-0.563,7.208-0.01c-0.295,0.889,5.984,0.624,6.753,0.624
	c0.283,0,0.581,0.003,0.826-0.17c0.461-0.301,0.811-0.209,1.361-0.162c0.938,0.079,2.006,0.249,2.938,0.249
	c-0.057,0.615,0.683,0.497,1.138,0.51c0.889,0.021,1.779,0.06,2.665,0.06c0.37-0.13,0.812,0.061,1.199,0.106
	c0.589,0.104,1.132,0.174,1.727,0.174c0.247,0,0.44-0.276,0.235-0.483c-0.135-0.136-0.529-0.103-0.705-0.12
	c-0.646-0.066-1.264-0.277-1.896-0.398c1.891,0.043,3.938,0.347,5.768,0.824c1.078,0.303,2.196,0.699,3.322,0.766
	C101.84,66.507,103.969,66.598,103.354,65.982C103.267,65.895,103.409,66.038,103.354,65.982z M84.839,56.25
	c0.034-0.059,0.305-0.023,0.38-0.018c-0.064,0.131-0.555,0.502-0.66,0.52v-0.148C84.733,56.57,84.866,56.441,84.839,56.25
	C84.842,56.245,84.841,56.264,84.839,56.25z M85.948,56.984c0,0.002,0,0.002-0.005,0.002v-0.012L85.948,56.984z M85.948,56.953
	C85.949,56.945,85.948,56.92,85.948,56.953C85.948,56.953,85.948,56.948,85.948,56.953z M85.953,57.188
	c-0.005,0.104-0.009,0.23-0.064,0.318c0.01-0.111,0.028-0.223,0.058-0.332C85.948,57.18,85.951,57.184,85.953,57.188
	C85.952,57.209,85.951,57.184,85.953,57.188z M84.261,62.38c-0.01,0.022-0.021,0.041-0.032,0.056
	C84.229,62.414,84.24,62.396,84.261,62.38C84.252,62.402,84.251,62.4,84.261,62.38z M84.902,61.626
	c0.021-0.269-0.201-0.382-0.229-0.646c0.211-0.399-0.068-0.754,0.169-1.158c0.122,0.236,0.026,0.562,0.026,0.816
	c0,0.258-0.148,0.477,0.128,0.678C85.042,61.434,84.974,61.521,84.902,61.626z M85.041,61.395
	C85.021,61.432,85.021,61.432,85.041,61.395C85.041,61.395,85.035,61.402,85.041,61.395z M85.293,59.009
	c-0.031,0.029-0.061,0.063-0.079,0.103c0.06-0.264-0.047-0.452,0.048-0.67C85.528,58.708,85.624,58.678,85.293,59.009z
	 M85.295,57.963c0.029,0.032,0.023,0.059-0.012,0.079c-0.031-0.112-0.116-0.157-0.258-0.133c0.122-0.16,0.2-0.314,0.271-0.502
	C85.283,57.559,85.211,57.852,85.295,57.963C85.295,57.98,85.259,57.915,85.295,57.963z M86.483,56.262
	c-0.081,0.047-0.021,0.008,0.002-0.002L86.483,56.262z M86.472,56.271c-0.048,0.047-0.1,0.103-0.156,0.137
	C86.352,56.334,86.409,56.311,86.472,56.271z M84.605,62.295c-0.275,0.105-0.146,0.311-0.429,0.346
	c0.17-0.135,0.17-0.558,0.476-0.363C84.636,62.284,84.621,62.285,84.605,62.295C84.489,62.339,84.621,62.285,84.605,62.295z
	 M85.594,62.674c0.053-0.088,0.053-0.072,0.131-0.15c0.018,0.063,0.05,0.11,0.102,0.15H85.594z M85.834,60.032
	c-0.088,0.094-0.19,0.135-0.317,0.163c0.135-0.43-0.062-0.286,0.298-0.545C85.801,59.75,85.862,59.969,85.834,60.032
	C85.82,60.048,85.837,60.025,85.834,60.032z M88.27,62.128c-0.188,0.185-0.194,0.567-0.445,0.565
	c-0.339-0.002-0.675-0.006-1.012-0.008c0.075-0.082,0.107-0.176,0.103-0.272c0.287,0,0.896,0.119,0.879-0.34h0.536
	C88.305,62.092,88.286,62.109,88.27,62.128C88.195,62.202,88.286,62.109,88.27,62.128z M88.498,62.95
	c0.097-0.015,0.177-0.095,0.222-0.19C88.692,62.859,88.617,62.924,88.498,62.95C88.594,62.936,88.591,62.939,88.498,62.95z
	 M88.661,61.857c0.044-0.141,0.098-0.186,0.277-0.125C88.847,61.77,88.753,61.809,88.661,61.857
	C88.67,61.83,88.753,61.809,88.661,61.857z M89.092,62.496c-0.18,0.178-0.28,0.447-0.28,0.697c-0.375-0.25,0.122-0.709,0.363-0.791
	C89.143,62.432,89.115,62.464,89.092,62.496C89.002,62.585,89.115,62.464,89.092,62.496z M89.292,60.457h-0.285
	c0-0.141,0.258-0.086,0.285-0.266V60.457z M89.323,58.104c-0.448-0.076-0.458,0.311-0.81,0.322c-0.45,0.021-0.54,0.325-0.89,0.342
	c-0.458,0.021-0.688,0.066-0.688,0.582c0,0.141,0.426,0.736,0.593,0.738c-0.202,0.016-0.314,0.137-0.308,0.342
	c-0.287,0-0.896-0.119-0.88,0.34H85.92c0.104-0.131,0.313-0.25,0.453-0.396c0.231-0.243,0.143-0.528,0.229-0.804
	c0.084-0.258-0.218-0.537-0.124-0.699c0.143-0.198,0.103-0.475,0.204-0.657c0-0.093,0.426-0.257,0.426-0.51
	c0.023-0.171-0.142-0.302-0.142-0.427c-0.037-0.148-0.057-0.283-0.174-0.4c0.122-0.191,0.358-0.322,0.412-0.561l0.003,0.002
	c0.366-0.295,1.621-0.063,2.138-0.063L89.323,58.104z M90.794,56.256c0.118-0.04,0.191-0.111,0.227-0.217
	c-0.003,0.271,0.073,0.504-0.229,0.548C90.793,56.477,90.793,56.366,90.794,56.256z M90.766,57.963c0-0.341-0.117-0.717,0.256-0.764
	c0.003,0.395,0.229,1.406-0.279,1.412C90.765,58.402,90.766,58.168,90.766,57.963z M90.766,59.264
	c0.072-0.008,0.205-0.049,0.287-0.068c0.013,0.39,0.219,1.699-0.287,1.688V59.264z M91.078,62.105
	c-0.146-0.051-0.343,0.004-0.343-0.162c0-0.355-0.021-0.393,0.317-0.447C91.053,61.7,91.073,61.902,91.078,62.105L91.078,62.105z
	 M91.731,62.143l-0.059,0.019c0.001-0.28,0.021-0.606,0.058-0.854C91.73,61.582,91.731,61.861,91.731,62.143z M91.733,59.916
	c-0.025,0.255-0.028,0.514-0.026,0.77h-0.001c-0.019-0.451-0.228-1.345,0.03-1.672C91.713,59.313,91.732,59.616,91.733,59.916z
	 M91.759,58.218c0,0.048,0,0.095,0,0.142c-0.028,0-0.058,0.008-0.086,0.018c0-0.316-0.147-1.195,0.086-1.368V58.218z M91.759,54.646
	c0,0.146,0.029,1.688-0.09,1.713c0.011-0.344,0.029-0.768-0.028-1.104c-0.013-0.09-0.15-0.543-0.146-0.551
	c0.002-0.308,0.194-0.72,0.271-1.007C91.763,54.016,91.76,54.33,91.759,54.646L91.759,54.646z M92.863,58.021
	c0.258,0.231,0.213,0.518,0.229,0.857c-0.149-0.027-0.282-0.087-0.438-0.098c0.01-0.412,0.013-0.848,0.015-1.286
	C92.785,57.663,92.706,57.867,92.863,58.021C92.886,58.043,92.809,57.969,92.863,58.021z M92.923,57.886
	c0.021,0.021,0.027,0.052,0.026,0.08C92.937,57.941,92.928,57.914,92.923,57.886C92.924,57.887,92.928,57.914,92.923,57.886z
	 M94.395,62.527c-0.098,0.24-0.162,0.451-0.428,0.423c-0.062-0.267-0.026-0.574-0.187-0.814c0.206-0.079,0.389-0.192,0.407-0.444
	C94.44,61.93,94.371,62.124,94.395,62.527z M96.879,59.117c0.189,0.064,0.154,0.145,0.144,0.295
	C96.854,59.412,96.592,59.117,96.879,59.117z M97.914,60.335c0.063,0.315,0.146,0.199,0.028,0.474
	c-0.133-0.178-0.333-0.293-0.438-0.488c0.022-0.215-0.045-0.438-0.138-0.627c0.226-0.074,0.075,0.111,0.215,0.248
	c0.094,0.086,0.2,0.109,0.316,0.066C97.966,60.109,97.846,60.203,97.914,60.335C97.921,60.37,97.893,60.294,97.914,60.335z
	 M94.958,59.209c0.008,0.014,0.021,0.021,0.038,0.023C94.954,59.251,94.932,59.28,94.958,59.209
	C94.959,59.21,94.952,59.225,94.958,59.209z M95.559,60.486c0.127-0.127,0.327-0.157,0.509-0.17
	c-0.012,0.013-0.021,0.021-0.021,0.021c-0.001-0.001,0.147,0.063,0.137,0.058C96.184,60.582,95.559,60.701,95.559,60.486
	C95.569,60.477,95.559,60.488,95.559,60.486z M96.085,59.675c-0.02,0.005-0.034,0.005-0.047,0.009c0-0.096-0.061-0.211-0.116-0.283
	C95.998,59.4,96.071,59.66,96.085,59.675C96.068,59.68,96.029,59.619,96.085,59.675z M96.011,61.846
	c0,0.004,0.004,0.008,0.005,0.012C96.011,61.857,96.01,61.854,96.011,61.846z M96.236,61.277
	C96.283,61.268,96.283,61.268,96.236,61.277L96.236,61.277z M95.765,61.523c0.154,0.052,0.333,0.045,0.454-0.09
	c-0.025,0.188-0.232,0.217-0.211,0.418C95.899,61.807,95.558,61.73,95.765,61.523C95.771,61.525,95.749,61.539,95.765,61.523z
	 M96.66,60.257c-0.021,0.026-0.043,0.023-0.073-0.009c0.041-0.012,0.118-0.072,0.153-0.049C96.714,60.21,96.687,60.23,96.66,60.257
	C96.654,60.262,96.687,60.23,96.66,60.257z M96.771,61.796c0.021-0.048,0.042,0.005,0.049,0.026
	C96.804,61.813,96.787,61.807,96.771,61.796C96.774,61.788,96.787,61.807,96.771,61.796z M96.811,62.866
	c0.021-0.032,0.021-0.074,0.023-0.11c0.042,0.042-0.016,0.11-0.033,0.125C96.804,62.874,96.809,62.871,96.811,62.866
	C96.832,62.834,96.809,62.871,96.811,62.866z M97.411,62.88c0.007-0.01,0.008-0.019,0.013-0.028c0.001,0.021,0.007,0.039,0.016,0.06
	c-0.011-0.009-0.021-0.013-0.033-0.017C97.406,62.889,97.409,62.884,97.411,62.88z M99.221,61.752
	c0.012,0.082-0.045,0.096-0.167,0.04c0.07-0.044,0.122-0.104,0.153-0.185C99.29,61.645,99.294,61.691,99.221,61.752z M99.485,62.393
	c-0.002,0.004-0.002,0.017-0.003,0.021c-0.087-0.034-0.109-0.07-0.07-0.107C99.442,62.327,99.467,62.357,99.485,62.393
	C99.483,62.396,99.478,62.383,99.485,62.393z M99.272,61.555c0.028,0.03,0.037,0.063,0.021,0.086
	C99.281,61.613,99.274,61.584,99.272,61.555L99.272,61.555z M98.39,61.135c0.007-0.003,0.012-0.008,0.021-0.011
	c-0.021,0.017-0.033,0.035-0.036,0.058c-0.003-0.014-0.017-0.021-0.021-0.033C98.366,61.143,98.379,61.143,98.39,61.135
	C98.397,61.132,98.379,61.143,98.39,61.135z M96.164,57.82c-0.016,0.046-0.109,0.035-0.146,0H96.164z M95.343,57.896
	c0.144-0.037,0.269-0.063,0.415-0.049c-0.095,0.065-0.355,0.229-0.453,0.059C95.319,57.902,95.331,57.9,95.343,57.896
	C95.421,57.876,95.331,57.9,95.343,57.896z M93.179,49.814c-0.317,2.229,0.079,4.567-0.065,6.817
	c-0.143-0.022-0.346-0.003-0.444,0.108c0-2.529-0.297-5.329,0.334-7.785C93.041,49.244,93.198,49.527,93.179,49.814z M86.089,47.928
	c0.163,0.025,0.535,0.049,0.667-0.083c0.17-0.171,0.013-0.233,0.188-0.307c0.298,0.063,0.165,0.881,0.165,1.188
	c-0.278,0-0.563,0.017-0.844-0.017C85.948,48.671,86.089,48.219,86.089,47.928z M79.705,48.184c0.567,0.012,4.869,0.338,4.768-0.274
	c0.143,0.003,0.848-0.083,0.938,0.019c0.039,0.043,0.039,0.764,0,0.803c-0.075,0.071-0.641,0.021-0.729,0.023
	c-0.416,0.014-0.461,0.523-0.039,0.575c1.174,0.141,2.34,0.05,3.519,0.05c0.496-0.003,0.229-0.552-0.141-0.586
	c-0.032-0.074-0.025-0.754,0.022-0.796c0.142-0.117,0.927,0.022,1.103,0.028c1.124,0.031,2.248,0.063,3.372,0.096
	c-0.291,1.453-0.789,2.93-1.171,4.359c-0.192,0.726-0.422,1.447-0.567,2.182c-0.05,0.263-0.155,0.568-0.155,0.839
	c-0.265,0.209-0.285-0.224-0.565-0.229c-0.686-0.149-1.552-0.023-2.248-0.037c-1.464-0.022-2.93-0.049-4.395-0.071
	c-1.004-0.019-2.009-0.034-3.016-0.054c-0.28-0.004-0.116-0.49-0.128-0.717c0-0.615-0.043-1.182-0.528-1.58
	c-0.387-0.313-0.766-0.646-1.146-0.977c-0.499-0.434-1.417-0.318-2.057-0.165c-0.544,0.017-0.731-0.096-1.175,0.277
	c-0.446,0.378-0.896,0.755-1.342,1.132c0.852-0.938,1.725-1.854,2.557-2.807c0.395-0.451,0.77-0.926,1.181-1.36
	c0.214-0.228,0.427-0.456,0.64-0.685C78.624,47.992,79.394,48.171,79.705,48.184C80.178,48.193,79.291,48.167,79.705,48.184z
	 M83.674,61.986c0.021-0.008,0.038-0.01,0.05-0.029c-0.002,0.005-0.004,0.01-0.008,0.016c0.006-0.004,0.011-0.005,0.016-0.007
	c-0.008,0.026-0.026,0.027-0.05,0.054c0.01-0.01,0.021-0.021,0.025-0.033H83.674L83.674,61.986z M83.43,59.082
	c-0.103-0.041-0.111-0.094-0.028-0.158C83.418,58.982,83.419,59.023,83.43,59.082C83.409,59.05,83.427,59.066,83.43,59.082z
	 M83.401,58.695c-0.064-0.195-0.553-0.258-0.429-0.422c0.004-0.02,0.021-0.045,0.021-0.043c0.051-0.076,0.102-0.099,0.18-0.15
	c0.007,0.164,0.169,0.363,0.336,0.369C83.458,58.533,83.413,58.579,83.401,58.695z M83.209,61.173
	c-0.044,0.117-0.04,0.177-0.182,0.136c0.016-0.34,0.039-0.681,0.057-1.021C83.411,60.534,83.099,60.811,83.209,61.173
	C83.194,61.215,83.202,61.15,83.209,61.173z M82.434,57.979c-0.205,0.439-0.583,0.258-1.106,0.244
	c0.047-0.137,1.128-0.537,1.358-0.539C82.59,57.747,82.488,57.878,82.434,57.979C82.427,57.993,82.448,57.951,82.434,57.979z
	 M82.437,61.281c-0.007-0.11-0.009-0.254-0.005-0.376C82.457,61.027,82.458,61.152,82.437,61.281z M81.82,63.566
	c-0.011-0.02-0.021-0.035-0.024-0.063C81.817,63.506,81.815,63.546,81.82,63.566C81.809,63.55,81.819,63.563,81.82,63.566z
	 M80.797,61.966c-0.229-0.098-1.061,0.072-1.347,0.134c0.025-0.25,0.313-0.396,0.29-0.68c0-0.175-0.173-0.212-0.198-0.37
	c-0.025-0.155-0.013,0.089,0.084-0.329c0.174-0.382,0.012-0.818,0.227-1.181c0.135,0.045,0.407,0.077,0.527-0.032
	c0.225-0.201,0.521-0.031,0.771-0.268c-0.004,0.438-0.313,2.514,0.217,2.648C81.101,61.948,81.062,62.016,80.797,61.966
	C80.736,61.939,80.855,61.977,80.797,61.966z M77.827,62.55c-0.75-0.01-1.5-0.021-2.25-0.03c-0.389-0.006-0.771-0.011-1.159-0.016
	c-0.275-0.004-0.033-0.518-0.248-0.715c0.208,0.014,0.638-0.005,0.638-0.303l0,0l0,0c0-0.002,0-0.002,0-0.002l0,0l0,0l0,0
	c0-0.002,0-0.002,0-0.002l0,0l0,0V61.48l0,0v-0.002l0,0l0,0l0,0c0-0.823,0.044-1.65,0.058-2.478
	c0.308,0.231,0.035,2.037,0.031,2.453c-0.005,0.478,1.51,0.521,1.815,0.25c0.354-0.521,0.146-2.043,0.163-2.668
	c0.288,0.259,0.021,1.792,0.013,2.188c-0.018,0.806,0.752,0.614,1.365,0.6C77.957,61.85,77.723,62.281,77.827,62.55z M79.456,62.145
	c-0.005,0.004-0.014,0.008-0.019,0.017C79.44,62.15,79.445,62.146,79.456,62.145z M78.206,61.225
	c-0.023-0.049-0.021-0.164-0.018-0.246C78.2,61.061,78.204,61.143,78.206,61.225z M77.301,56.546v-0.261V56.546L77.301,56.546z
	 M78.889,56.087c0,0.3-0.209,0.533-0.055,0.841l0.002-0.001c0.011,0.025,0.021,0.05,0.036,0.072c-0.564,0.11-0.516-0.051-0.509-0.55
	c0.006-0.432,0.011-0.86,0.016-1.291c0.103,0.089,0.31,0.205,0.369,0.324C78.854,55.688,78.632,55.923,78.889,56.087
	C78.889,56.089,78.808,56.035,78.889,56.087z M79.029,58.523c0.008-0.028-0.001-0.058-0.02-0.08h0.08
	C79.064,58.47,79.046,58.497,79.029,58.523C79.029,58.514,79.046,58.497,79.029,58.523z M76.625,53.564
	c0.241,0.219,0.479,0.438,0.723,0.646c-0.8-0.019-1.313-0.161-1.325,0.763c-0.004,0.359,0.178,1.905-0.202,1.907
	c0.091-0.625,0.074-1.259,0.085-1.89c0.015-0.82-0.315-0.807-1.079-0.821c0.18-0.147,0.372-0.28,0.552-0.437
	c0.152-0.146,0.313-0.291,0.479-0.428C76.226,52.939,76.304,53.271,76.625,53.564C76.866,53.783,76.451,53.405,76.625,53.564z
	 M75.232,56.518c-0.001-0.067,0.001-0.141,0.004-0.211c0.015,0.075,0.021,0.146,0.021,0.215
	C75.248,56.521,75.24,56.52,75.232,56.518L75.232,56.518z M74.155,57.939c0.037-0.006,0.063-0.021,0.075-0.049
	c0.297-0.271,1.213-0.099,1.669-0.093c0.397,0.007,0.798,0.013,1.197,0.019c0.346,0.004,0.031,0.242,0.356,0.377
	c-1.06-0.174-2.286-0.02-3.374-0.063C74.123,58.083,74.154,58.016,74.155,57.939C74.182,57.926,74.154,58.016,74.155,57.939z
	 M76.212,61.195c-0.025-0.08-0.021-0.242-0.02-0.342C76.197,60.968,76.202,61.082,76.212,61.195z M74.211,60.1v-0.232
	C74.216,59.941,74.216,60.021,74.211,60.1z M74.216,61.168h-0.005c0-0.125,0-0.251,0-0.376
	C74.237,60.915,74.238,61.04,74.216,61.168z M79.477,62.13c-0.001,0-0.002,0-0.003,0c0.021-0.013,0.039-0.024,0.057-0.026
	C79.512,62.109,79.493,62.12,79.477,62.13z M79.469,53.559c0.008-0.027,0.021-0.045,0.044-0.045v0.098
	C79.496,53.596,79.482,53.578,79.469,53.559C79.486,53.545,79.484,53.575,79.469,53.559z M80.509,56.177h0.19
	c-0.014,0.015-0.062,0.314-0.081,0.314c0,0,0,0,0-0.001c-0.039,0-0.077,0.01-0.113,0.025C80.538,56.428,80.549,56.268,80.509,56.177
	z M81.913,56.253C81.858,56.393,82.013,56.034,81.913,56.253C81.917,56.243,81.918,56.242,81.913,56.253z M81.932,56.223
	L81.932,56.223C81.951,56.199,81.951,56.199,81.932,56.223z M81.894,56.295c-0.061,0.154-0.226,0.303-0.226,0.461
	c-0.194,0.195-0.129-0.117-0.356-0.191c0.287-0.078,0.335-0.313,0.593-0.375C81.897,56.227,81.894,56.264,81.894,56.295
	C81.882,56.325,81.894,56.264,81.894,56.295z M72.738,48.07c1.598,0,3.216,0.138,4.833,0.17c-0.697,0.885-1.549,1.652-2.295,2.499
	c-0.367,0.419-0.735,0.838-1.104,1.26c-0.188,0.219-0.38,0.437-0.568,0.655c-0.188,0.22-0.38,0.865,0.142,0.67
	c-0.561,0.472-1.542,1.768-2.341,1.587c0.158-0.716,1.114-3.277,0.464-3.812c-1.192-0.979-2.343-1.998-3.483-3.033h4.354
	L72.738,48.07L72.738,48.07z M67.413,53.744l0.016-1.01c0.192,0.166,0.815,0.523,0.882,0.761
	C68.438,53.955,67.689,53.75,67.413,53.744z M67.919,55.298v0.283h-0.146v-0.283H67.919z M62.511,63.018
	c0.009,0.002,0.018,0.004,0.023,0.008C62.526,63.025,62.518,63.021,62.511,63.018z M44.874,59.458
	c-0.014-0.153,0.034-0.201,0.141-0.142C45.011,59.55,44.993,59.709,44.874,59.458C44.9,59.412,44.892,59.495,44.874,59.458z
	 M50.712,63.32c-1.083,0-2.17,0.049-3.25,0.128c-0.573,0.036-0.561-0.069-0.979-0.349l0.009-0.014c-0.167-0.163-0.158,0-0.177-0.221
	c2.859,0.031,5.748,0.054,8.582,0.092c-1.414,0.188-2.756,0.354-4.186,0.354v0.004H50.71L50.712,63.32L50.712,63.32z M46.091,55.752
	c0.443,0,0.175-0.477,0.283-0.664c0.094-0.161,0.366-0.308,0.511-0.43c0.029,0.628,0,1.265,0,1.894
	c-0.208-0.063-0.252-0.271-0.511-0.264c-0.125,0-0.706,0.274-0.805,0.332c-0.116-0.296-0.212-0.336-0.2-0.677
	c0.01-0.35,0.422-0.195,0.723-0.195L46.091,55.752L46.091,55.752z M45.625,55.1l0.099-0.078V55.1H45.625z M53.001,62.214
	c-0.071-0.016-0.146-0.03-0.216-0.046c0.391-0.297,0.701-0.143,1.13-0.016C53.463,62.339,53.502,62.218,53.001,62.214
	C52.958,62.197,53.114,62.215,53.001,62.214z M49.049,57.85l-0.509-0.018c0.146-0.243-0.098-0.352,0.247-0.354
	c0.354,0,0.71,0.021,1.065,0.024c-0.058,0.101-0.063,0.249-0.051,0.361C49.552,57.846,49.301,57.841,49.049,57.85z M49.323,59.663
	L49.32,59.85C49.32,59.787,49.321,59.727,49.323,59.663z M49.275,62.161l-0.197-0.003C49.194,62.115,49.211,62.034,49.275,62.161z
	 M45.892,58.798c0.004-0.008,0.007-0.015,0.01-0.022c0.039,0.106-0.022,0.19-0.128,0.226C45.82,58.936,45.873,58.861,45.892,58.798
	C45.896,58.79,45.873,58.861,45.892,58.798z M45.263,58.504c-0.029-0.102-0.036-0.045,0.042-0.143
	c0.083,0.098,0.092,0.101,0.007,0.188C45.296,58.537,45.282,58.52,45.263,58.504C45.256,58.48,45.282,58.52,45.263,58.504z
	 M48.33,56.206v-0.289V56.206L48.33,56.206z M48.132,61.986c0.534-0.447,0.297,0.156,0,0.158V61.986z M49.727,56.119l0.002-0.123
	C49.732,56.033,49.736,56.084,49.727,56.119z M50.372,55.725c0,0.17-0.002,0.34,0.003,0.51c-0.002,0-0.003,0-0.004,0
	c0-0.17,0-0.34,0-0.512C50.371,55.723,50.372,55.723,50.372,55.725z M50.371,55.469v-0.115h0.001L50.371,55.469L50.371,55.469z
	 M52.897,53.516c0,0.004-0.001,0.006-0.001,0.01c-0.063-0.002-0.108-0.031-0.143-0.096c0.016,0,0.072-0.07,0.082-0.084
	C52.908,53.383,52.928,53.439,52.897,53.516z M52.782,54.611v0.016l-0.018-0.013C52.774,54.613,52.778,54.611,52.782,54.611z
	 M53.294,60.938c0.005-0.026,0.013-0.058,0.021-0.086c0.001,0.029,0.002,0.063,0.003,0.09L53.294,60.938z M51.904,57.909
	c0.176-0.124,0.153-0.859-0.033-0.948c0.079-0.014,0.181,0.012,0.264,0.009c-0.158,0.162-0.194,0.748-0.045,0.929
	C52.031,57.969,51.969,57.973,51.904,57.909C51.91,57.904,51.942,57.911,51.904,57.909z M49.975,59.521v-0.818
	c0.155,0.109,0.061,0.628,0.061,0.818H49.975z M49.788,61.827c-0.055-0.054-0.022-0.075,0.018-0.132
	C49.844,61.805,49.899,61.918,49.788,61.827C49.776,61.814,49.805,61.841,49.788,61.827z M51.677,55.809h-0.244l0.013-0.951
	C51.954,55.152,51.719,55.395,51.677,55.809z M51.307,60.882c0-0.097,0-0.192,0.001-0.289c-0.044,0.121-0.039,0.228,0.019,0.318
	C51.303,60.915,51.298,60.905,51.307,60.882z M52.503,56.895c0.002-0.002,0.005-0.002,0.01,0H52.503z M50.615,62.063
	c0.078-0.196,0.015-0.439-0.193-0.525c0.419-0.012,1.018,0.107,1.393-0.105c0.367-0.482,0.147-2.099,0.166-2.697
	c0.437,0.394-0.601,2.992,0.494,2.836c-0.57,0.447-1.227,0.629-1.928,0.619C50.579,62.146,50.603,62.105,50.615,62.063
	C50.64,62.002,50.603,62.105,50.615,62.063z M53.772,61.441c0.336-0.191,0.181-1.842,0.188-2.229
	c0.01-0.396,0.183-0.607,0.183-0.996c0-0.431-0.72-0.318-0.979-0.322c0.013-0.015,0.021-0.025,0.029-0.041
	c0.123-0.201,0.14-0.771-0.097-0.892c0.161-0.028,0.245-0.122,0.252-0.271c0.084,0,0.168,0,0.253,0c0.233,0,0.296-0.236,0.563-0.271
	c-0.017,1.719-0.058,3.436-0.058,5.15L53.772,61.441z M49.146,52.794c0.368,0.406,0.824,0.746,1.233,1.108
	c-0.79-0.02-1.278-0.146-1.29,0.76c-0.004,0.361,0.174,1.906-0.201,1.911c0.166-0.581,0.092-1.339,0.092-1.941
	c0-0.8-0.377-0.753-1.093-0.769C47.944,53.813,49.125,52.773,49.146,52.794z M46.864,56.552c0.018-0.003,0.023,0.001,0.021,0.011
	C46.878,56.559,46.87,56.555,46.864,56.552z M44.936,57.248c0.112-0.025,0.12-0.045-0.005,0.072
	C44.935,57.297,44.937,57.271,44.936,57.248C44.953,57.244,44.937,57.271,44.936,57.248z M54.767,60.803
	c0.006-1.709,0.112-3.428,0.062-5.136c0-0.562-0.07-0.581,0.358-0.944c0.314-0.269,0.629-0.535,0.943-0.802
	c-0.012,1.282-0.049,2.565-0.061,3.845c-0.007,0.92-0.014,1.84-0.021,2.76C56.048,61.107,55.225,60.783,54.767,60.803
	C54.768,60.533,54.812,60.801,54.767,60.803z M60.577,60.712c-0.021-0.002-0.032-0.003-0.053-0.004
	c0.029-0.172,0.026-0.36,0.021-0.536L60.577,60.712z M59.909,59.521c0.021-0.281,0.453-0.181,0.604,0H59.909z M59.245,59.412
	c0,0.438,0.193,1.345-0.199,1.443C59.046,60.457,58.852,59.66,59.245,59.412z M62.277,52.095c0.08-0.747,0.069-0.622,0.8-0.622
	v1.217H62.27C62.281,52.491,62.277,52.293,62.277,52.095z M61.317,53.662c-0.271-0.048-0.654-0.016-0.883-0.071
	c0.283,0.015,0.596,0.033,0.88,0.005C61.314,53.618,61.315,53.641,61.317,53.662z M63.073,53.664
	c-0.28-0.04-0.571-0.006-0.854-0.039l0.852-0.027C63.071,53.62,63.072,53.643,63.073,53.664
	C63.053,53.661,63.073,53.65,63.073,53.664z M58.65,56.092v-1.587h0.874c-0.021,0.481-0.037,0.965-0.047,1.448
	C59.471,56.23,58.887,56.092,58.65,56.092z M60.917,55.375c-0.023,0.109-0.018,0.159-0.146,0.121
	c0.006-0.094,0.008-0.188,0.005-0.283h0.146L60.917,55.375L60.917,55.375z M60.919,56.148c0,0.021-0.05,0-0.059,0H60.919z
	 M62.532,55.213c0.173,0.01,0.193,0.139,0.143,0.313h-0.143V55.213z M63.982,53.652c0.015-0.105,0.772-0.004,0.818,0.031
	C64.531,53.664,64.251,53.656,63.982,53.652z M64.319,55.241h0.146c0,0.099,0.003,0.198-0.001,0.298
	c-0.047-0.014-0.095-0.02-0.146-0.016V55.241z M64.804,52.718h-0.82l0.043-2.981c0.461,0.402,0.808,0.525,0.801,1.134
	C64.818,51.484,64.811,52.102,64.804,52.718z M59.529,53.626c-0.282-0.008-0.563-0.041-0.849-0.031l0.851-0.026L59.529,53.626
	L59.529,53.626z M65.627,56.205c0.024-0.536,0.039-1.073,0.05-1.61c0.882,0.021,0.846-0.067,0.833,0.815
	C66.499,56.309,66.523,56.207,65.627,56.205L65.627,56.205z M65.673,53.682l-0.002-0.059c0.271,0.025,0.585,0.041,0.854,0.031
	L65.673,53.682z M66.587,51.996v0.773c-0.214-0.004-0.905,0.106-0.902-0.136c0.006-0.475,0.012-0.948,0.02-1.425L66.587,51.996z
	 M63.104,50.779c-0.475-0.012-0.854,0.182-0.848-0.338c0.005-0.361-0.182-1.437,0.019-1.729c0.261-0.378,0.855-0.063,0.853,0.323
	C63.118,49.618,63.111,50.199,63.104,50.779z M61.317,52.661h-0.879c0.007-0.668,0.016-1.336,0.021-2.004
	c0.006-0.608,0.415-0.761,0.879-1.152L61.317,52.661z M59.503,52.633h-0.817c0.021-0.934,0.118-0.988,0.836-1.594L59.503,52.633z
	 M56.835,58.643c-0.043,0-0.085,0.02-0.121,0.039l0.008-0.884c0.555,0.011,0.965-0.2,0.965,0.409
	C57.686,58.764,57.296,58.643,56.835,58.643z M57.346,59.834v0.282h-0.144v-0.282H57.346z M57.26,55.45v-0.294h0.144v0.312
	C57.354,55.471,57.307,55.465,57.26,55.45z M56.764,53.568c-0.049-0.396,0.724-0.801,0.998-1.029
	c-0.003,0.176,0.097,0.922-0.017,1.029C57.633,53.677,56.938,53.568,56.764,53.568z M61.57,60.882c-0.354,0-0.228-0.312-0.21-0.62
	c0.015-0.248-0.066-0.82,0.272-0.931c0.373-0.119,0.206,0.585,0.204,0.788C61.831,60.523,61.995,60.882,61.57,60.882z
	 M44.674,57.566c0.075,0,0.14-0.049,0.188-0.107c-0.021,0.083-0.135,0.311-0.211,0.107C44.658,57.566,44.666,57.566,44.674,57.566z
	 M45.079,60.271c0-0.002,0-0.002,0.001-0.004c0.058,0.064,0.125,0.102,0.205,0.104c-0.01,0.018-0.018,0.034-0.021,0.052
	C45.116,60.417,45.055,60.366,45.079,60.271z M62.504,59.891h0.144c0,0.103,0.004,0.199-0.001,0.299
	c-0.046-0.014-0.095-0.02-0.143-0.016V59.891z M63.665,59.643c0.239-0.422,1.104-0.432,1.411-0.123
	c0.191,0.192,0.229,1.42,0.063,1.42c-0.073,0.059-0.499,0.018-0.596,0c-0.115,0-0.903-0.237-0.902-0.293
	C63.65,60.313,63.657,59.979,63.665,59.643z M65.99,59.669c0.145-0.235,0.278-0.228,0.484-0.304l-0.023,1.563
	c-0.5-0.091-0.483,0.03-0.476-0.473C65.982,60.193,65.986,59.932,65.99,59.669z M70.813,54.686l-0.305-0.267
	c0.129-0.008,0.29-0.093,0.378-0.185L70.813,54.686z M70.895,58.255c0.104,0.044,0.155,0.114,0.155,0.213
	C70.893,58.49,70.854,58.407,70.895,58.255L70.895,58.255z M71.009,62.441c0.187,0.002,0.329,0,0.521,0.022
	c-0.258,0-0.508,0.028-0.765,0.031L71.009,62.441z M71.42,61.395c-0.292,0.146-0.277,0.277-0.58,0.338
	c0.026-0.416,0.03-0.824,0.03-1.241c0.299,0.017,0.84,0.143,0.818-0.345c0.229,0,0.771,0.104,0.793-0.263
	c0.063-0.026,0.29-0.22,0.449-0.081c0.156,0.137-0.017,1.315-0.02,1.559C72.517,61.273,71.792,61.141,71.42,61.395
	C71.278,61.465,71.563,61.297,71.42,61.395z M72.591,55.411l0.092-0.074v0.074H72.591z M61.605,48.057
	c-1.243,1.051-2.495,2.09-3.729,3.151c-0.813,0.699-1.625,1.397-2.438,2.099c-0.392,0.336-1.382,1.601-1.985,1.408
	c0.063-0.382,0.105-0.765,0.143-1.15c0.054-0.658-0.712-1.032-1.181-1.422c0.661-0.068,1.608-1.107,2.104-1.514
	c0.546-0.455,1.15-0.846,1.719-1.273c0.588-0.389,1.087-0.929,1.676-1.304c0.233-0.157,1.112-0.008,1.419-0.009
	C60.089,48.043,60.847,48.046,61.605,48.057z M55.323,47.365c0.007,0.002,0.005,0.002-0.009,0H55.323z M52.171,49.242l2.81-1.836
	C54.598,48.173,56.68,48,56.96,48.007c-0.737,0.581-1.496,1.149-2.245,1.714c-0.468,0.405-1.008,0.719-1.491,1.104
	c-0.229,0.181-1.117,0.694-1.12,1.046c-0.726-0.945-2.285,0.186-2.96-0.492L52.171,49.242z M47.065,52.814
	c-0.771,0.66-1.729,1.959-2.771,1.92L47.065,52.814z M44.244,61.449c0.021,0.018,0.047,0.033,0.068,0.046
	c-0.027-0.011-0.062-0.025-0.086-0.046H44.244z M43.95,63.66c0.001-0.001,0.002-0.001,0.003-0.001
	C43.951,63.682,43.951,63.66,43.95,63.66z M43.053,64.23c0.035,0.054,0.081,0.09,0.137,0.104
	C43.095,64.348,42.913,64.333,43.053,64.23C43.093,64.277,43.034,64.244,43.053,64.23z M41.483,61.711
	c0.23-0.668,0.392-1.109,0.786-1.7c0.515-0.3,0.957,1.205,0.867,1.521c-0.11-0.604-0.638-0.589-0.65,0.026
	c-0.006,0.286,0.141,1.069-0.167,1.198c0-0.243,0.109-0.772-0.065-0.979c-0.298-0.354-0.559,0.207-0.624,0.435
	C41.425,62.089,41.414,61.91,41.483,61.711C41.526,61.587,41.457,61.785,41.483,61.711z M40.734,60.457
	c0.379-0.02,0.351,0.339,0.27,0.596c-0.632-0.099-0.042-0.188-0.354-0.598C40.675,60.457,40.708,60.457,40.734,60.457z
	 M38.605,63.155c-0.005-0.042,0.095-0.099,0.117-0.159c0.007,0.053,0.027,0.322-0.003,0.339
	C38.669,63.285,38.631,63.225,38.605,63.155C38.604,63.146,38.662,63.198,38.605,63.155z M37.48,62.949
	c-0.013,0.104-0.01,0.208,0.006,0.312c-0.051-0.003-0.103,0.001-0.149,0.013c0.072-0.145,0.054-0.388,0.056-0.545
	c0.422,0.174,0.396-0.379,0.396-0.612c-0.001-0.183,0.335-0.21,0.474-0.191c-0.184,0.072-0.307,0.607-0.329,0.778
	C37.74,62.669,37.522,62.734,37.48,62.949C37.459,63.018,37.506,62.814,37.48,62.949z M38.59,64.596c-0.151-0.074-0.341,0-0.495,0
	c0.095-0.604-0.829-0.201-0.024-0.846c-0.021,0.511,0.162,0.854,0.697,0.873C38.723,64.675,38.664,64.666,38.59,64.596
	C38.552,64.577,38.656,64.6,38.59,64.596z M39.001,64.477c0.075-0.121,0.063-0.137,0.188-0.063
	C39.129,64.427,39.066,64.45,39.001,64.477C39.014,64.456,39.066,64.45,39.001,64.477z M40.981,63.623
	c-0.05,0.285-0.089,0.557-0.104,0.841c-0.354-0.051-0.71-0.112-1.066-0.095c-0.084,0.056,1.815-0.365,0.754-0.633
	c0.2-0.256,0.33-0.764,0.338-1.086C41.001,62.65,40.987,63.552,40.981,63.623z M41.554,64.509c-0.01,0.009-0.019,0.017-0.026,0.022
	c0.042-0.083-0.022-0.09,0.104-0.079C41.614,64.462,41.566,64.496,41.554,64.509z M44.257,62.66
	c0.188-0.115-0.304,0.238-0.306,0.245c0.028-0.298,0.208-1.058-0.124-1.271c0.243-0.128,0.952-0.185,1.091,0.183
	c0.079,0.188,0.508,0.17,0.473,0.436c-0.021,0.146-0.112,0.381-0.087,0.525c-0.163-0.077-0.336,0.047-0.433,0.021
	C44.725,62.568,44.496,62.479,44.257,62.66C44.178,62.708,44.578,62.416,44.257,62.66z M62.851,62.209
	c-0.134,0.245-0.249,0.544-0.244,0.825c-0.417-0.072-0.568-0.687-0.46-1.042c0.224,0.092,0.484,0.135,0.724,0.182
	C62.862,62.188,62.856,62.198,62.851,62.209C62.838,62.232,62.856,62.198,62.851,62.209z M63.126,61.45
	c-0.084,0-0.159-0.034-0.246-0.029c0.271-0.047,0.592-0.062,0.867-0.01C63.487,61.514,63.406,61.45,63.126,61.45z M63.265,62.979
	c0.222-1.1,2.057-1.391,2.988-1.326c1.061,0.074,0.69,0.779,0.792,1.574c-1.267-0.055-2.531-0.121-3.797-0.151
	C63.249,63.044,63.256,63.014,63.265,62.979C63.286,62.872,63.256,63.014,63.265,62.979z M66.146,63.916
	c-0.866-0.043-1.76-0.057-2.62-0.159c1.319,0.058,2.638,0.071,3.957,0.115C67.052,63.923,66.596,63.938,66.146,63.916
	C65.828,63.9,66.596,63.938,66.146,63.916z M67.391,58.758l0.014-0.847c0.146,0.003,0.764-0.076,0.854,0.019
	c0.093,0.096-0.011,0.711-0.014,0.857C67.962,58.764,67.675,58.768,67.391,58.758z M67.871,60.911c0,0.001,0,0.002,0,0.003
	c-0.024-0.002-0.053-0.001-0.076-0.003H67.871z M67.72,60.259v-0.312c0.047,0.001,0.096,0.003,0.143-0.002v0.313L67.72,60.259
	L67.72,60.259z M69.081,63.207v0.074c-0.493-0.026-0.986-0.024-1.48-0.041c0.002-0.021,0.004-0.042,0.007-0.063
	c0-0.172,1.254-0.063,1.479-0.062C69.081,63.15,69.081,63.182,69.081,63.207z M69.534,60.995c-0.46,0-0.684,0.119-0.678-0.372
	c0.011-0.773,0.02-1.549,0.024-2.324c0.018-1.416,0.032-2.832,0.049-4.248c0.367,0.327,0.735,0.653,1.104,0.98
	c0.387,0.343,0.23,0.68,0.23,1.178c0,1.055-0.022,2.113-0.044,3.168c-0.011,0.54-0.014,1.079-0.019,1.619
	C69.996,60.975,69.747,60.995,69.534,60.995z M72.356,63.146c-0.188,0.547-2.309,0.177-2.681,0.16c0-0.148,0.021-0.394,0.145-0.49
	c0.204,0.846,2.127,0.229,2.552,0.16l0,0v0.002l0,0C72.369,63.068,72.386,63.053,72.356,63.146
	C72.339,63.195,72.364,63.122,72.356,63.146z M73.616,62.215c0,0.46,0.01,0.989-0.556,1.047c0.194-0.65-0.394-1.133-0.909-1.391
	C72.641,61.896,73.169,62.043,73.616,62.215L73.616,62.215z M73.567,60.995l0.001-0.054C73.572,60.96,73.572,60.979,73.567,60.995z
	 M73.816,57.073c-0.008,0.015-0.015,0.03-0.019,0.047c-0.114-0.261,0.205-0.634-0.305-0.688c0.074-0.139,0.106-0.212,0.318-0.17
	C73.815,56.532,73.815,56.803,73.816,57.073z M73.816,55.043h-0.039l0.039-0.032C73.816,55.021,73.816,55.032,73.816,55.043z
	 M83.54,64.393c-0.402,0.168-1.146,0.033-1.596,0.033c-0.77,0-1.535,0.081-2.305,0.113c-1.03,0.05-1.986,0.029-2.985-0.208
	c0.284-0.815-2.439-0.709-2.719-0.685c0.357-0.64,0.541-0.49,1.277-0.48c0.897,0.012,1.799,0.023,2.697,0.035
	c0.288,0.004,0.405,0.148,0.405,0.402c0,0.446,0.65,0.254,0.869,0.168c0.264-0.027,0.648-0.307,0.779-0.535
	c0.154-0.123,0.394,0.119,0.641-0.098c-0.015,0.219-0.434,0.541-0.209,0.768c0.188,0.185,0.51-0.041,0.702-0.133
	c0.141-0.02,0.229-0.092,0.271-0.229c0.113,0.013,0.229,0.002,0.342-0.026c0.146-0.015,0.162,0.189,0.308,0.258
	c0.308,0.207,0.675,0.072,0.725-0.282c0.135,0.104,0.026,0.178,0.188,0.315c0.357,0.316,0.595-0.304,0.432-0.566
	c0.036,0.078,0.357,0.391,0.389,0.391c0,0,0-0.001,0.001-0.001c-0.084,0.179-0.111,0.488,0.115,0.576
	C83.753,64.255,83.637,64.314,83.54,64.393C83.354,64.47,83.588,64.354,83.54,64.393z M87.86,54.243
	c0.542,0.091,0.774-2.083,0.874-2.406c0.15-0.489,0.219-1.012,0.357-1.509c0.11-0.416,0.438-1.17,0.316-1.604
	c-0.237-0.836-0.75,0.664-0.784,0.813c-0.163,0.665-0.262,1.342-0.479,1.993C88.064,51.775,87.314,54.161,87.86,54.243
	C87.877,54.246,87.723,54.223,87.86,54.243z M56.071,39.623h0.259v-1.644h-0.259v-0.283h0.854c0.454,0,0.822,0.283,0.822,0.708
	c0,0.454-0.344,0.708-0.854,0.708c-0.113,0-0.198,0-0.255,0v0.51h0.282v0.255h-0.851L56.071,39.623L56.071,39.623z M57.431,38.404
	L57.431,38.404c0-0.284-0.228-0.425-0.512-0.425h-0.282v0.879c0.057,0,0.142,0,0.282,0C57.233,38.857,57.431,38.687,57.431,38.404
	L57.431,38.404z M58.99,39.623h0.255v-1.644H58.99v-0.284h1.587v0.567h-0.283V37.95h-0.737v0.68h0.681v0.256h-0.681v0.737h0.737
	v-0.312h0.283v0.567H58.99V39.623z M61.881,38.801c0-0.681,0.512-1.134,1.135-1.134c0.454,0,0.821,0.255,0.821,0.51
	c0,0.142-0.085,0.255-0.229,0.255c-0.109,0-0.194-0.085-0.194-0.198c0-0.057,0.024-0.114,0.058-0.142
	c-0.058-0.057-0.229-0.17-0.482-0.17c-0.449,0-0.794,0.397-0.794,0.879c0,0.454,0.313,0.85,0.822,0.85
	c0.255,0,0.481-0.113,0.651-0.283l0.198,0.198c-0.229,0.227-0.539,0.34-0.854,0.34C62.335,39.906,61.881,39.424,61.881,38.801
	L61.881,38.801z M65.567,39.623h0.283V37.95h-0.482v0.341h-0.283v-0.596h1.843v0.596h-0.283V37.95h-0.482v1.673h0.283v0.255h-0.878
	V39.623z M68.146,38.801c0-0.652,0.453-1.134,1.104-1.134c0.648,0,1.104,0.481,1.104,1.134c0,0.624-0.453,1.105-1.104,1.105
	C68.599,39.906,68.146,39.424,68.146,38.801L68.146,38.801z M70.045,38.801L70.045,38.801c0-0.51-0.341-0.879-0.794-0.879
	c-0.48,0-0.794,0.369-0.794,0.879c0,0.482,0.313,0.85,0.794,0.85C69.704,39.651,70.045,39.283,70.045,38.801L70.045,38.801z
	 M71.66,39.623h0.28v-1.644h-0.28v-0.283h0.852c0.481,0,0.821,0.283,0.821,0.708c0,0.454-0.34,0.708-0.821,0.708
	c-0.113,0-0.228,0-0.283,0v0.51h0.283v0.255H71.66V39.623z M73.022,38.404L73.022,38.404c0-0.284-0.229-0.425-0.511-0.425h-0.283
	v0.879c0.061,0,0.146,0,0.283,0C72.851,38.857,73.022,38.687,73.022,38.404L73.022,38.404z M74.325,39.623h0.194l0.624-1.672H74.89
	v-0.255h1.104v0.255H75.74l0.621,1.672h0.197v0.255h-0.794v-0.255h0.255l-0.17-0.482H75l-0.171,0.482h0.282v0.255h-0.795v-0.255
	H74.325z M75.771,38.914L75.771,38.914l-0.34-0.964l-0.341,0.964H75.771z M77.755,39.623h0.255v-1.644h-0.255v-0.284h0.851v0.284
	h-0.282v0.651h1.104v-0.651h-0.256v-0.284h0.822v0.284H79.74v1.644h0.254v0.255h-0.822v-0.255h0.256v-0.737h-1.104v0.737h0.282
	v0.255h-0.851V39.623z M40.649,19.582h0.396v-2.608h-0.396v-0.425h1.332v0.425h-0.453v1.077h1.786v-1.077H42.86v-0.425h1.332v0.425
	h-0.396v2.608h0.396v0.425H42.86v-0.425h0.454v-1.134h-1.786v1.134h0.453v0.425h-1.332V19.582z M65.51,19.582h0.396v-2.608H65.51
	v-0.425h1.332v0.425h-0.454v1.984l1.786-1.757v-0.227h-0.453v-0.425h1.332v0.425h-0.397v2.608h0.397v0.425h-1.332v-0.425h0.453
	v-1.956l-1.786,1.757v0.199h0.454v0.425H65.51V19.582z M45.949,18.278c0-1.021,0.733-1.786,1.782-1.786
	c0.992,0,1.729,0.793,1.729,1.786c0,1.021-0.735,1.786-1.757,1.786C46.684,20.064,45.949,19.298,45.949,18.278L45.949,18.278z
	 M48.983,18.278L48.983,18.278c0-0.766-0.539-1.333-1.271-1.333c-0.736,0-1.274,0.567-1.274,1.333c0,0.765,0.538,1.361,1.274,1.361
	C48.444,19.639,48.983,19.043,48.983,18.278L48.983,18.278z M51.222,19.582h0.425v-2.608h-0.425v-0.425h1.36
	c0.852,0,1.219,0.425,1.219,0.907c0,0.397-0.255,0.652-0.622,0.766c0.452,0.142,0.709,0.397,0.709,0.822
	c0,0.567-0.427,0.964-1.221,0.964h-1.445V19.582z M52.555,18.051L52.555,18.051c0.511,0,0.766-0.227,0.766-0.566
	c0-0.312-0.255-0.511-0.733-0.511h-0.481v1.077H52.555z M52.668,19.582L52.668,19.582c0.454,0,0.733-0.198,0.733-0.567
	c0-0.368-0.279-0.567-0.794-0.567H52.1v1.134H52.668z M55.673,18.278c0-1.021,0.737-1.786,1.759-1.786s1.729,0.793,1.729,1.786
	c0,1.021-0.709,1.786-1.762,1.786C56.382,20.063,55.673,19.298,55.673,18.278L55.673,18.278z M58.678,18.278L58.678,18.278
	c0-0.766-0.511-1.333-1.247-1.333c-0.737,0-1.275,0.567-1.275,1.333c0,0.765,0.538,1.361,1.275,1.361S58.678,19.043,58.678,18.278
	L58.678,18.278z M60.917,19.582h0.426v-2.608h-0.426v-0.425h1.357c0.736,0,1.274,0.425,1.274,1.105c0,0.737-0.511,1.162-1.305,1.162
	c-0.17,0-0.342-0.028-0.428-0.028v0.793h0.453v0.425h-1.357L60.917,19.582L60.917,19.582z M63.072,17.654L63.072,17.654
	c0-0.425-0.34-0.681-0.793-0.681h-0.45v1.389c0.085,0.028,0.228,0.028,0.45,0.028C62.788,18.391,63.072,18.107,63.072,17.654
	L63.072,17.654z M77.472,18.278c0-1.049,0.821-1.786,1.784-1.786c0.767,0,1.306,0.425,1.306,0.85c0,0.227-0.143,0.369-0.341,0.369
	c-0.171,0-0.313-0.113-0.313-0.312c0-0.085,0.024-0.17,0.085-0.198c-0.113-0.113-0.368-0.284-0.737-0.284
	c-0.735,0-1.274,0.624-1.274,1.361c0,0.737,0.515,1.361,1.309,1.361c0.396,0,0.732-0.17,1.021-0.454l0.283,0.34
	c-0.341,0.34-0.821,0.539-1.304,0.539C78.208,20.063,77.472,19.298,77.472,18.278L77.472,18.278z M82.376,19.582h0.425v-2.608
	h-0.425v-0.425h1.332v0.425h-0.454v1.36l1.361-1.36H84.19v-0.425h1.417v0.425H85.21l-1.049,1.048l0.992,1.56h0.453v0.425H84.87
	l-1.077-1.673l-0.539,0.539v0.709h0.454v0.425h-1.332V19.582z M87.393,19.582h0.313l0.964-2.608H88.3v-0.425h1.701v0.425h-0.369
	l0.965,2.608h0.313v0.425h-1.223v-0.425h0.396l-0.256-0.737h-1.36l-0.255,0.737h0.396v0.425H87.39L87.393,19.582L87.393,19.582z
	 M89.689,18.448L89.689,18.448l-0.538-1.502l-0.563,1.502H89.689z M95.444,20.007h-1.356v-0.425h0.453v-0.935
	c-0.085,0-0.229,0-0.344,0c-0.085,0-0.143,0-0.228,0l-0.766,1.36h-0.737v-0.425h0.396l0.652-1.077
	c-0.396-0.142-0.709-0.482-0.709-0.935c0-0.652,0.539-1.021,1.305-1.021h1.332v0.425h-0.426v2.608h0.426L95.444,20.007
	L95.444,20.007z M94.14,18.25L94.14,18.25c0.197,0,0.313-0.028,0.396-0.028v-1.248H94.14c-0.512,0-0.852,0.227-0.852,0.624
	C93.289,17.994,93.657,18.25,94.14,18.25L94.14,18.25z M75.488,19.582l-0.992-1.56l1.049-1.048h0.368v-0.425h-1.417v0.425h0.453
	l-1.36,1.36v-0.935v-0.425l0,0h0.425v-0.425l0,0h-1.332l0,0v0.425h0.426l0,0v0.425v0.935l-1.332-1.36h0.425v-0.425h-1.417v0.425
	h0.396l1.049,1.048l-1.021,1.56h-0.425v0.425h0.736l1.049-1.673l0.539,0.539v0.709h-0.426l0,0v0.425l0,0h1.332l0,0v-0.425l0,0
	h-0.425v-0.709l0.539-0.539l1.049,1.673h0.765v-0.425H75.488z M44.278,33.585l0.623-0.085l1.053-5.5l-0.77,0.114l-0.143-0.822
	l3.432-0.567l0.146,0.822l-0.77,0.142l2.749,4.847l0.651-0.113l0.143,0.85l-2.438,0.397l-0.146-0.822l0.793-0.142l-0.766-1.36
	l-2.692,0.453L45.89,33.33l0.821-0.142l0.143,0.851l-2.438,0.397L44.278,33.585z M48.444,30.608L48.444,30.608l-1.56-2.806
	l-0.596,3.175L48.444,30.608z M54.369,29.106c-0.198-2.098,1.304-3.742,3.229-3.912c1.502-0.142,2.722,0.595,2.777,1.446
	c0.058,0.425-0.229,0.765-0.599,0.793c-0.396,0.028-0.709-0.198-0.734-0.567c0-0.17,0.058-0.34,0.144-0.425
	c-0.199-0.198-0.733-0.454-1.527-0.396c-1.478,0.142-2.438,1.474-2.3,2.976c0.113,1.417,1.274,2.58,2.863,2.438
	c0.82-0.057,1.444-0.454,1.982-1.077l0.648,0.595c-0.623,0.793-1.56,1.275-2.551,1.36C56.156,32.536,54.568,31.119,54.369,29.106
	L54.369,29.106z M65.963,31.005h0.936v-5.244h-1.56v1.106h-0.906v-1.928H70.3v1.928h-0.907v-1.106h-1.559v5.244h0.907v0.85h-2.778
	V31.005z M74.779,31.402l0.624,0.057l2.354-5.074l-0.766-0.057l0.085-0.85l3.459,0.312l-0.061,0.822l-0.794-0.057l1.478,5.386
	l0.648,0.057l-0.085,0.85l-2.438-0.198l0.057-0.851l0.793,0.057l-0.396-1.502l-2.724-0.227l-0.623,1.417l0.821,0.085l-0.058,0.822
	l-2.47-0.199L74.779,31.402z M79.541,29.531L79.541,29.531l-0.821-3.09l-1.36,2.92L79.541,29.531z M86.457,32.905l0.852,0.113
	l0.854-5.159l-0.854-0.142l0.146-0.822l2.75,0.454c1.645,0.255,2.269,1.19,2.098,2.126c-0.145,0.822-0.736,1.275-1.475,1.389
	c0.851,0.396,1.305,0.992,1.159,1.842c-0.195,1.105-1.22,1.758-2.774,1.502l-2.862-0.482L86.457,32.905z M89.66,30.325L89.66,30.325
	c0.964,0.142,1.561-0.227,1.673-0.879c0.085-0.68-0.368-1.134-1.308-1.304L89.094,28l-0.369,2.154L89.66,30.325z M89.349,33.386
	L89.349,33.386c0.938,0.142,1.563-0.198,1.673-0.878c0.146-0.766-0.396-1.247-1.442-1.417l-0.968-0.17l-0.364,2.296L89.349,33.386z
	 M95.245,35.144l0.595,0.17l3.229-4.564l-0.732-0.198l0.228-0.822l3.349,0.907l-0.229,0.822l-0.737-0.198l0.48,5.556l0.624,0.17
	l-0.229,0.822l-2.381-0.652l0.229-0.794l0.767,0.198l-0.114-1.559l-2.636-0.709l-0.879,1.276l0.794,0.227l-0.2,0.822l-2.382-0.652
	L95.245,35.144z M100.262,34.152L100.262,34.152l-0.256-3.203l-1.87,2.636L100.262,34.152z M40.053,33.755
	c-0.198-0.85-0.851-1.247-1.785-1.275c0.65-0.397,1.049-1.021,0.854-1.843c-0.146-0.624-0.566-1.077-1.333-1.247l0,0
	c0,0,0,0-0.027,0c-0.058,0-0.113-0.028-0.171-0.028c-0.425-0.057-0.906-0.057-1.359,0.057c-1.475,0.34-2.381,1.417-2.184,2.239
	c0.085,0.425,0.453,0.652,0.822,0.567c0.364-0.085,0.595-0.396,0.51-0.765c-0.027-0.17-0.146-0.284-0.255-0.34
	c0.143-0.283,0.563-0.68,1.332-0.85c0.255-0.057,0.479-0.085,0.733-0.057l0,0c0.538,0.029,0.907,0.284,1.021,0.766
	c0.143,0.652-0.256,1.219-1.219,1.446l-0.77,0.17l0.17,0.737l0.821-0.17c1.021-0.227,1.7,0,1.871,0.765
	c0.058,0.255,0.027,0.482-0.085,0.681c-0.256,0.454-0.821,0.765-1.418,0.907c-0.821,0.142-1.529,0-2.238-0.425l-0.426,0.765
	c0.821,0.567,1.87,0.737,2.861,0.51c0.597-0.142,1.104-0.397,1.504-0.708C39.94,35.172,40.224,34.492,40.053,33.755L40.053,33.755z"
	/>
</svg>
