<?xml version="1.0" encoding="utf-8"?>
<!-- Generator: Adobe Illustrator 22.1.0, SVG Export Plug-In . SVG Version: 6.00 Build 0)  -->
<svg version="1.1" id="Слой_1" xmlns="http://www.w3.org/2000/svg" xmlns:xlink="http://www.w3.org/1999/xlink" x="0px" y="0px"
	 viewBox="0 0 127.6 85" style="enable-background:new 0 0 127.6 85;" xml:space="preserve">
<style type="text/css">
	.st0{fill:#979898;}
</style>
<path class="st0" d="M56.5,31c0-1.4,0.7-3,1.8-3.9c0.5-0.5,1.1-0.8,1.7-1.2c1.1-0.6,3.3-1,4.3,0.1c1.4,1.4,0.2,3.8,0.2,5
	c0.5,0,0.7,0.3,1.3,0.3c0.1-1.2,0.5-1.5,0.5-3.5c0-2.4-1.7-3.8-4-3.8c-3.6,0-7.4,3.6-7.1,7.4c0.1,1.5,0.5,2.4,1.3,3.4
	c0.1,0.2,0.2,0.3,0.4,0.5c0.9,1.3,3.4,3.9,3.7,5.3c-2.1,1.4-4.2,3.8-5.6,5.9c-2.8,4.2-2.2,8.6,1.1,7.6c1.3-0.4,2.4-1.7,3.2-2.6
	c1.6-2,3.3-5.5,3.3-8.3c0-0.8-0.3-1.4-0.3-2.1l2.6-1.7c0.7-0.4,2.1-1.3,2.8-1.5c-0.2,1.1-2.9,8.4-0.1,8.4c1.3,0,3.2-1.3,4.1-1.9
	l2.6-1.9c0.3-0.2,0.6-0.5,0.8-0.6c0.9,0.6,0.6,0.7,1.9,0.7c1.8,0,4.4-2.8,5.6-4c0.6-0.6,2.2-2.6,2.6-3c0,0.4-0.2,0.9-0.3,1.4
	c-0.2,1-0.4,2.8,0.7,3.4c1.8,1,3.2-2.4,3.4-3.8l0.3,0.5c1.6,2,3.4,0.2,4.2-0.3c-0.1,0.4-0.2,0.9-0.2,1.4c0.5,0,0.8,0.2,1.3,0.2
	c0.4-1.8,0.1-3,1.1-3.6c0.2,0.7,0.4,1.4,1,1.9c1.6,1.7,4.6,0.2,5.6-1.4c-0.1-0.5-0.4-0.8-0.6-1.2l-1.2,1.2c-0.5,0.4-1.3,0.8-2.1,0.8
	c-1.2,0-1.5-1.6-1.5-2.6c0-0.4,2.2-2.8,2.5-3.3c-0.1-0.2-0.8-0.6-1.1-0.8c-0.8,1.2-1.8,2.5-2.8,3.6c0-0.8,1-6.4,1.2-7.3
	c0.1-0.8,0.1-0.7-0.7-0.8c-0.7-0.1-0.5,0.4-0.6,1.1l-1.2,7.3c-0.3,1.8,0,1.1-1.1,2.3c-1.9,1.9-2.5,1.5-3.3-0.7c-0.7-2,0-2.6-1.1-2.4
	c-0.2,0-0.3,0.1-0.6,0.1l0.8-1.5c-0.4-0.2-0.8-0.5-1.3-0.6c-0.3,1-5.2,6.7-6.3,7.9c-0.5,0.5-0.9,0.9-1.4,1.4c-0.5,0.4-1,0.9-1.6,1.2
	c-0.6,0.3-1.4,0.7-2,0.4c0.1-0.4,0.4-0.5,0.7-0.8c1.3-1.3,4-3.6,4-5.5c0-0.7-0.5-1.4-1.2-1.4c-2.5,0-4.2,3.7-4.7,5.8
	c-0.1,0.3-0.1,1-0.2,1.2c-0.2,0.5-2.5,2.2-3.2,2.7c-0.7,0.5-2.7,2-3.8,2c-0.9,0,1.2-6.8,1.5-7.6c0.1-0.4,0-0.3,0.4-0.5
	c0.9-0.5,2-0.8,2.9-1.3c-0.1-0.4-0.4-0.8-0.5-1.3c-0.6,0.3-1.4,0.6-2,0.9c0-0.5,0.5-1.5,0.6-2c0.2-0.6,0.6-1.3,0.7-1.9
	c-0.5-0.1-0.8-0.3-1.3-0.4c-0.2,1.1-0.8,2.1-1.2,3.2c-0.3,0.9-0.3,1.7-1.1,2.1L64.3,38c-0.6,0.3-2.1,1.5-2.6,1.6
	C59.8,36.1,56.5,33.9,56.5,31 M76.4,38.5c0.1-0.9,1.7-3.8,2.9-3.9c-0.1,0.6-0.8,1.7-1.2,2.2C77.5,37.4,77,38,76.4,38.5z M86,39
	c0-1.7,0.1-2.3,0.5-3.5l1-2.6c0.1-0.2,0.1-0.2,0.2-0.4c0,2.4,0,4.1-1.1,6C86.4,38.8,86.4,38.9,86,39z M55.4,52.8
	c-0.9,0-0.9-1-0.9-1.6c0-3,3.6-6.9,6-8.9c0.3-0.2,0.3-0.4,0.6-0.4l0.1,1.4c0,2.3-1.1,4.2-1.9,5.7c-0.3,0.5-1.2,1.9-1.6,2.3
	C57.2,51.7,56.2,52.8,55.4,52.8z M34.7,31.6c0-1.1,0.3-2,0.5-2.8c0.4-1.6,1.1-3.6-0.6-4.3c-2.6-1.1-4,4.1-4.3,5.9
	c-0.1,0.4-0.2,0.8-0.2,1.1c-0.2,1.8,0.1,3.4,0.9,5.1l-2.2,1.9c-0.2,0.1-0.2,0.2-0.4,0.4c-0.3,0.3-0.5,0.4-0.8,0.7
	c-1.5,1.5-2.1,2.6-2.1,4.9c0,3.4,2.5,6.1,4.8,8c1.4,1.2,2.4,1.4,3.4,3c1.6,2.5,0.6,4.1,0.6,5.1c0.3,0.2,0.8,0.4,1.2,0.5
	c0.5-1,0.5-1.9,0.5-3c0-2-1.4-4.1-2.9-5.2c-0.8-0.6-2.1-1.5-2.8-2.2c-0.2-0.2-0.3-0.3-0.5-0.5c-1-1-1.9-2.2-2.4-3.5
	c-1-2.5-0.4-4.7,1.5-6.3c2-1.7,1.8-1.5,3.8,0.5l1.3,1.4c0.7,0.9,1.1,0.9,1.7,2.7c0.2,0.6,0.6,2.3,0.6,3c0,0.4-1.5,0.7-2.7-1.7
	c-1-2-0.2-1.9-1.2-2.5c-0.3-0.2-0.5-0.3-0.8-0.4c-0.4,0.7-0.9,1.4-1.3,2.1c0.4,0.2,0.8,0.5,1.2,0.7c0.1-0.4,0.1-0.4,0.4-0.6
	c0.1,0.2,0.2,0.4,0.3,0.7c1.8,4.3,5.4,3.6,5.5,1.5c0.5,0.2,0.7,0.5,1.2,0.8c0.7,0.4,2,0.8,2.7,0.1c1-1.1,0-2.9-0.5-3.9l-2.1-4.2
	c-0.2-0.3-0.4-0.7-0.6-1c-0.2-0.3-0.4-0.6-0.5-1.1l0.4-0.4c0.3,0.2,1,0.9,1,1.2c0,0.1,0,0.5,0,0.7c0.8,0.1,0.2,0.1,1.4,0.1
	c0-3.2,0.4-6.1,2.2-8.3c0.2-0.2,0.2-0.3,0.4-0.5c0.2-0.2,0.7-0.7,1-0.8c2.2-1.3,0.9,0.8,0.5,1.8c-1.9,4.7-1,6.5,0,11.2
	c1,5,1.1,7.3-1.4,12c0.3,0.2,0.8,0.5,1.2,0.7c0.1-0.2,1-1.8,1.3-2.8c1.3-3.6,1-6.3,0.2-10.1c-0.8-3.8-1.8-6.1-0.3-9.9
	c0.2-0.5,0.4-0.9,0.6-1.4c0.4-0.9,0.4-1.1,0.4-2c0-1.2-1.5-1.5-3.1-0.7c0-0.7,0.1-0.9-0.4-1.3c-0.3-0.3-0.8-0.5-1.3-0.5
	c-1.5,0-4.1,3.1-5.1,4c-0.3,0.3-1.3,1.3-1.6,1.4C35,32.7,34.7,32.3,34.7,31.6 M31.3,32.8c0-1.7,0.9-5.6,2-6.7
	c1.9-2.1,0.6,2.4,0.5,2.7c-0.7,2.7-0.6,3.3,0.4,5.3c-0.7,0.5-1.6,1.4-2.2,1.5c-0.1-0.3-0.2-0.4-0.3-0.7c-0.1-0.2-0.2-0.4-0.2-0.7
	C31.4,33.9,31.3,33.3,31.3,32.8z M34.8,35.5c0.1-0.3,0.1-0.3,0.4-0.5l3.1-2.7c1-0.8,2.7-3.2,3.7-3.2c1.4,0-3.5,6.6-4.1,7.4
	c-0.2,0.2-0.2,0.3-0.4,0.5c-0.2,0.3-0.2,0.1-0.3,0.5C36.6,37.3,35.9,35.7,34.8,35.5z M31.4,38.1c0.1-0.3,0.2-0.3,0.5-0.5
	c0.9-0.6,1.1-1,2-1c1.5,0,3.3,3.8,4,5.1c0.7,1.3,1,2.1,1.5,3c0.1,0.2,1.9,3,0.9,3c-1.4,0-3-2-3.5-3.5c-0.7-2.1-2.7-3.5-3.5-4.6
	C32.9,39.1,32.1,38.2,31.4,38.1z M97.7,47.2c1-2.1,1.4-4.5,2.3-6.6c0.2-0.4,0.8-1.6,0.8-2.1c-0.3,0-0.9-0.3-1.2-0.4
	c-0.3,0.5-0.4,1.2-0.7,1.8c-0.6,1.2-1,2-1.8,3.1c-0.4,0.5-0.7,0.9-1.1,1.3c-0.4,0.4-1,0.8-1.5,1c-0.4,0.2-0.6,0.3-0.6-0.3
	c-0.2-1.6,1-3.9,1.2-4.7l-1.2-0.6L93,42c-0.3,1-1.3,4.7,0.8,4.7c1.9,0,2.8-1.3,3.4-1.7c-0.1,0.5-0.4,1.1-0.6,1.6
	c-0.4,1.1-0.3,1.1-0.9,1.3c-1.7,0.5-4.7,1.7-6.3,2.5l-5.6,3.2c-1.6,1.1-3.4,2.7-4.5,4.2c-0.8,1.1-1.6,2.8-0.9,4.4
	c0.2,0.4,0.3,0.5,0.6,0.7c3.1,3.1,10.5-3.2,12.9-6c0.3-0.4,0.7-0.8,1-1.2c0.3-0.4,0.6-0.8,0.9-1.2c0.6-0.9,1.1-1.7,1.7-2.7l1.5-2.9
	c0.2-0.3,0.3-0.3,0.7-0.4l2.4-0.8c0-0.5-0.2-0.8-0.3-1.3C99,46.8,98.4,47,97.7,47.2 M79.4,60.8c0-1.4,1.8-3.4,2.6-4.1
	c2.1-1.9,4.7-3.4,7.2-4.7c0.9-0.5,5.3-2.4,5.9-2.4c-0.3,1.4-2.9,4.9-3.9,6.2l-1.6,1.7c-0.3,0.3-0.6,0.5-0.9,0.8
	c-0.5,0.6-1.2,1-1.8,1.5L85,61c-0.9,0.5-2.3,1.4-3.6,1.4C80.1,62.4,79.4,62.2,79.4,60.8z M90.4,42.6c0-0.5,0.3-0.8,0.5-1.1
	c-0.4-0.3-0.7-0.5-1.1-0.8l-3,4.5c-0.5,0.9-2.1,4.2-3.1,4.2c-0.6,0-1-3-1-3.9h-1.3c0.1-0.5,0.6-0.9,0.8-1.5
	c-0.4-0.3-0.7-0.5-1.1-0.8c-0.1,0.4-0.1,0.2-0.4,0.5l-0.1,0.1c0,0,0,0,0,0.1l-4.3,4.5c-1.2,1.4-3.5,3.7-4.9,4.9
	c-0.4,0.3-1.2,1-1.7,1.1c0-0.9,0-0.8,0.5-1.3l2.2-2.2c0.6-0.7,4.3-4.6,2.6-6c-0.6-0.5-1.6,0-2.2,0.4c-0.6,0.4-0.6,0.5-1,1
	c-0.4,0.4-0.5,0.6-0.9,1.1c-0.8,1.1-1.4,2.6-1.9,3.9c-0.3,0.8-1.1,3.1-0.4,4c0.3,0.4,0.5,0.4,0.9,0.4c1.2,0,4-2.5,4.9-3.5l2.1-2.2
	c0.2-0.2,0.3-0.3,0.5-0.5c0.2-0.2,0.3-0.3,0.5-0.6c0.4-0.4,0.7-0.7,1-1c0,0.4-0.3,0.8-0.4,1.3c-1.1,4.4,2.3,4.6,3.7,0.4l0.2-0.4
	c0.2,1,1,2,2.3,1.5c2.3-0.9,4.1-6.3,5-7c0.1,1.4,2.5,2.8-1.3,4.8c0.1,0.5,0.5,0.7,0.6,1.2c0.4-0.1,0.7-0.4,1-0.6
	C93.4,46.6,90.4,44.3,90.4,42.6 M79.4,51.3c0-1.8,0.6-3,1.4-4.5l0.7-1.2c0,1-0.3,2.5-0.6,3.3C80.6,49.5,80,51.1,79.4,51.3z
	 M70.7,51.1c0.1-0.4,0.2-0.5,0.3-0.8c0.6-1.2,1.8-3.7,3.1-4.1C74,47.2,71.3,50.6,70.7,51.1z M65.8,50.9c0.6,0,0.9-0.3,1.6-0.3
	c0,0.4,0.2,0.9,0.3,1.3c-0.5,0-1.2,0.3-1.6,0.4c-0.9,0.2-0.9,0-1.3,0.9c-0.5,1.3-0.7,1.6-1.1,3.1c0.5-0.1,2.2-1.6,2.5-2l0.9,0.9
	c-0.3,0.4-3.3,3.5-4.5,2.2c-0.3-0.3-0.3-0.4-0.3-0.9h-0.2c-0.1,0.3-2.2,2.8-3.2,2.8c-0.6,0-0.8-0.6-0.8-1.1c0-1.2,1.1-3.1,1.3-3.7
	l1.2,0.6c-0.2,0.7-0.6,1.3-0.8,2c0.5-0.3,1.2-1.3,1.6-1.7c0.5-0.6,1.7-1.9,2-2.6c0.4-0.9,0.4-0.5,0.2-1.3c0.9-0.4,0.4-0.3,1.2-1.7
	c0.2-0.4,0.8-1.5,0.9-2c0.3,0.1,0.4,0.1,0.6,0.3c0.2,0.1,0.3,0.2,0.6,0.3C66.9,48.9,66,50.2,65.8,50.9 M46.3,27c0.1-0.4,1-1.6,1.3-2
	c0.4-0.6,0.9-1.3,1.3-1.9c0.3,0.2,0.9,0.5,1.1,0.8c-0.2,0.6-2.3,3.3-2.4,3.8C47,27.5,47.1,27.3,46.3,27 M42.3,25.9
	C41,26,41,26.4,40.9,25.5c0-0.6-0.1-1.2-0.2-1.8c-0.2-2.3-0.5-2.3,0.2-2.3c0.4,0,0.5-0.1,0.9-0.1C41.8,22.4,42.3,24.5,42.3,25.9
	 M44.8,21.5c0.3,0,1,0.2,1.3,0.3c0,0.6-0.4,1.7-0.5,2.3c-0.1,0.4-0.4,1.8-0.6,2.2C44.8,26.2,44,26,43.7,26L44.8,21.5z M61.2,54.2
	L60,53.6c0.2-0.4,0.3-0.8,0.6-1.2c0.4,0.1,0.6,0.4,1.2,0.5L61.2,54.2z"/>
</svg>
