<?xml version="1.0" encoding="utf-8"?>
<!-- Generator: Adobe Illustrator 16.0.0, SVG Export Plug-In . SVG Version: 6.00 Build 0)  -->
<!DOCTYPE svg PUBLIC "-//W3C//DTD SVG 1.1//EN" "http://www.w3.org/Graphics/SVG/1.1/DTD/svg11.dtd">
<svg version="1.1" id="Слой_1" xmlns="http://www.w3.org/2000/svg" xmlns:xlink="http://www.w3.org/1999/xlink" x="0px" y="0px"
	 width="127.559px" height="85.039px" viewBox="0 0 127.559 85.039" enable-background="new 0 0 127.559 85.039"
	 xml:space="preserve">
<path fill="#979898" d="M45.353,57.104c0.198,0.539-0.17,0.992-0.227,1.332c-0.086,0.313-0.086,0.709,0.227,0.795
	c0.539,0.084,1.162-0.566,1.476-0.907c0.196-0.198,0.311-0.368,0.51-0.624c0.17-0.197,0.396-0.566,0.596-0.566
	c0.058,0,0.283,0.113,0.312,0.198c0.143,0.481-0.766,1.247-1.105,1.56c-0.538,0.539-1.188,1.248-2.154,1.049
	c-0.537-0.112-0.793-0.766-0.65-1.475c0.085-0.367,0.48-0.822,0.17-1.162c-0.425,0.086-0.567,0.937-1.162,0.539
	c-0.113-0.313,0.228-0.369,0.284-0.681c0.026-0.198-0.114-0.368-0.058-0.595c0.084-0.455,0.851-0.482,1.021,0
	C44.984,56.623,45.268,56.764,45.353,57.104L45.353,57.104z M41.016,48.119c-1.446,0.367-5.046,1.303-6.038,1.502
	c-0.085,0.027-0.142,0.057-0.227,0.057c-0.964,0.198-1.531,0.34-1.615,0.793c0,0.114,0.113,0.256,0.34,0.397
	c0.313,0.198,0.709,0.341,1.077,0.511c0.255,0.084,0.453,0.17,0.624,0.254c0.084,0.059,0.197,0.114,0.34,0.172
	c0.793,0.367,2.438,1.161,3.826,3.09c0.624,0.877,1.135,1.729,1.531,2.494c0-0.143-0.029-0.283-0.029-0.369
	C40.845,56.51,40.818,51.066,41.016,48.119L41.016,48.119z M41.47,60.563c-0.058,0-0.114,0-0.143-0.027
	c-0.17-0.085-0.198-0.227-0.228-0.368c0-0.085,0-0.17,0-0.283c-0.17-0.794-0.851-2.522-2.324-4.563
	c-1.274-1.785-2.777-2.494-3.571-2.863c-0.143-0.084-0.255-0.141-0.368-0.17c-0.113-0.084-0.341-0.17-0.538-0.255
	c-0.397-0.171-0.852-0.341-1.191-0.567c-0.51-0.311-0.735-0.68-0.68-1.105c0.17-0.936,1.134-1.161,2.183-1.358
	c0.085-0.028,0.143-0.028,0.198-0.058c1.077-0.228,5.074-1.248,6.293-1.588c0.028-0.198,0.028-0.369,0.058-0.51
	c0.057-0.199,0.227-0.341,0.426-0.283c0.196,0.027,0.311,0.197,0.283,0.396c0,0.057-0.029,0.141-0.029,0.197
	c0.511-0.141,1.163-0.34,1.871-0.538c0.992-0.312,2.098-0.651,3.231-0.992c2.408-0.681,3.884-0.851,4.705-0.879
	c0.851-0.028,1.531,0.284,1.56,0.284c0.17,0.084,0.256,0.312,0.17,0.48c-0.084,0.17-0.283,0.256-0.453,0.17
	c-0.028,0-0.566-0.255-1.247-0.227c-0.766,0.027-2.183,0.197-4.536,0.852c-1.133,0.34-2.238,0.68-3.229,0.963
	c-0.852,0.283-1.589,0.511-2.154,0.651c-0.228,2.693-0.199,8.192-0.199,9.071c0.029,0.595,0.17,2.098,0.228,2.806
	c0.028,0.086,0.028,0.17,0.028,0.257c0.027,0.197,0.058,0.34-0.143,0.452C41.611,60.563,41.554,60.563,41.47,60.563L41.47,60.563z
	 M35.431,56.82c-0.141,0-0.254-0.057-0.311-0.197c-0.086-0.17,0-0.396,0.17-0.482c0.026,0,1.813-0.793,4.364-1.615
	c2.354-0.766,5.867-1.729,9.185-1.983c0.199,0,0.369,0.142,0.396,0.34c0,0.198-0.141,0.369-0.34,0.369
	c-6.235,0.481-13.236,3.515-13.321,3.543C35.545,56.82,35.488,56.82,35.431,56.82L35.431,56.82z M59.668,47.607c0,0,0,0-0.027,0
	c-0.313,0.028-0.908,0.481-1.333,3.261c-0.17,0.991-0.368,3.118-0.538,5.073c0.113-0.17,0.198-0.312,0.313-0.48
	c0.879-1.531,1.928-3.799,1.956-6.152c0.027-0.537-0.085-1.444-0.313-1.672C59.697,47.607,59.668,47.607,59.668,47.607
	L59.668,47.607z M57.06,60.449h-0.027c-0.198-0.028-0.342-0.198-0.313-0.368c0-0.085,0.057-0.709,0.113-1.616
	c-0.17,0.227-0.313,0.369-0.369,0.426c-0.197,0.198-0.793,0.793-1.645,0.793c-0.057,0-0.112,0-0.171,0
	c-0.196-0.026-0.396-0.113-0.538-0.312c-0.17-0.228-0.227-0.595-0.227-0.937c-0.085,0.086-0.17,0.172-0.255,0.229
	c-0.283,0.254-0.482,0.425-0.652,0.566c-0.283,0.227-0.481,0.426-0.735,0.254c-0.199-0.112-0.199-0.34-0.199-0.594
	c0-0.086,0-0.199,0-0.341c-0.652,0.681-1.53,1.304-2.154,1.304H49.86c-0.197,0-0.367-0.113-0.511-0.283
	c-0.084-0.113-0.141-0.283-0.17-0.453c-0.48,0.51-1.02,0.793-1.445,0.793h-0.027c-0.313,0-0.596-0.197-0.737-0.51
	c-0.141-0.313-0.227-0.992,0.681-2.069c0.481-0.567,0.964-0.821,1.446-0.794c0.51,0.029,0.765,0.426,0.793,0.454l-0.596,0.396l0,0
	c0,0-0.113-0.142-0.254-0.142c-0.144,0-0.427,0.057-0.853,0.565c-0.565,0.652-0.65,1.078-0.565,1.306
	c0.027,0.085,0.085,0.085,0.112,0.085l0,0c0.283,0,1.135-0.512,1.588-1.53c0.086-0.17,0.283-0.256,0.453-0.17
	c0.17,0.058,0.256,0.228,0.228,0.424c-0.143,0.482-0.17,1.05-0.084,1.22c0.453-0.027,1.729-0.992,2.237-1.871
	c0.087-0.142,0.257-0.197,0.397-0.142c0.17,0.058,0.255,0.198,0.255,0.369c-0.028,0.312-0.057,0.681-0.057,0.992
	c0.369-0.313,0.851-0.767,1.304-1.191c0.113-0.085,0.284-0.112,0.425-0.028c0.113,0.058,0.199,0.229,0.17,0.369
	c-0.084,0.396-0.112,1.104,0.059,1.305c0,0.027,0,0.027,0.027,0.027c0.566,0.058,1.077-0.425,1.22-0.596
	c0.085-0.085,0.481-0.511,0.991-1.219c0.198-2.239,0.453-5.159,0.652-6.406c0.198-1.162,0.396-2.013,0.68-2.636
	c0.341-0.767,0.794-1.162,1.306-1.22c0.227-0.028,0.453,0.058,0.623,0.228c0.539,0.51,0.565,1.929,0.539,2.183
	c-0.029,2.522-1.136,4.933-2.07,6.491c-0.34,0.623-0.708,1.162-1.049,1.615c0,0.028,0,0.058,0,0.112
	c0.539-0.85,1.135-1.02,1.588-0.991c0.565,0.028,0.964,0.313,1.077,0.766c0.17,0.539-0.113,1.22-0.596,1.531
	c-0.17,0.112-0.341,0.17-0.511,0.17c0.028,0,0.028,0.028,0.028,0.028c0.142,0.17,0.34,0.283,0.652,0.312
	c0.905,0.085,2.211-1.502,2.578-2.041c0.113-0.17,0.342-0.227,0.512-0.112c0.142,0.112,0.197,0.34,0.084,0.51
	c-0.027,0-0.424,0.596-0.992,1.191c-0.85,0.821-1.587,1.219-2.238,1.161c-0.511-0.057-0.907-0.256-1.162-0.596
	c-0.396-0.539-0.313-1.162-0.313-1.247c0.027-0.17,0.199-0.341,0.369-0.341l0,0c0.17,0.028,0.312,0.114,0.34,0.284
	c0,0.027,0.027,0.057,0.057,0.142c0.058,0,0.113,0.028,0.198-0.028c0.228-0.17,0.396-0.537,0.312-0.765
	c0-0.058-0.057-0.228-0.425-0.256c-0.027,0-0.027,0-0.057,0c-0.992,0-1.587,2.153-1.7,2.92C57.4,60.336,57.23,60.449,57.06,60.449
	L57.06,60.449z M66.188,61.641c-0.735,0.651-1.444,1.332-2.098,2.125c-0.936,1.162-1.275,2.269-1.105,3.572
	c0.086,0.822,0.597,2.211,1.788,2.268c0.453,0.027,0.793-0.143,1.048-0.453c0.512-0.596,0.992-2.127,0.567-6.01
	C66.33,62.66,66.244,62.15,66.188,61.641L66.188,61.641z M64.856,70.314c-0.026,0-0.084,0-0.112,0
	c-0.737-0.029-1.39-0.426-1.843-1.105c-0.454-0.709-0.596-1.475-0.624-1.787c-0.17-1.502,0.228-2.806,1.247-4.081
	c0.794-0.991,1.672-1.758,2.524-2.522c-0.17-0.965-0.369-1.87-0.511-2.579c-0.368,0.879-0.907,1.784-1.814,1.956
	c-0.539,0.085-0.879-0.113-1.049-0.313c-0.682-0.766-0.199-2.467-0.199-2.523c0.058-0.197,0.256-0.312,0.453-0.254
	c0.199,0.057,0.284,0.254,0.228,0.453c-0.171,0.651-0.228,1.56,0.028,1.842c0.058,0.029,0.143,0.143,0.425,0.086
	c0.908-0.17,1.417-1.899,1.646-2.666c0.057-0.141,0.198-0.254,0.34-0.227c0.17,0,0.312,0.113,0.341,0.256
	c0.142,0.566,0.453,1.871,0.736,3.43c0.964-0.879,2.606-2.493,3.345-3.655c0.114-0.17,0.313-0.199,0.481-0.113
	c0.171,0.113,0.228,0.341,0.113,0.511c-0.879,1.359-2.691,3.117-3.799,4.082c0.085,0.623,0.198,1.304,0.284,1.955
	c0.17,1.475,0.197,2.722,0.141,3.741c-0.112,1.306-0.367,2.211-0.878,2.808C65.99,70.087,65.48,70.314,64.856,70.314L64.856,70.314z
	 M75.627,61.611c-0.396,0.027-0.651-0.143-0.822-0.283c-0.991-0.964-0.141-3.799-0.113-3.826c0.683-2.098,1.276-4.168,1.306-6.35
	c0.027-1.276-0.313-3.006-1.306-3.657c-0.538-0.341-1.274-0.341-2.153,0.028c-2.947,1.274-5.812,4.336-6.49,6.973
	c-0.057,0.199-0.229,0.284-0.426,0.256c-0.17-0.057-0.283-0.227-0.228-0.396c0.368-1.418,1.275-2.948,2.58-4.338
	c1.275-1.359,2.807-2.466,4.31-3.09c1.075-0.48,2.041-0.48,2.776,0.029c1.219,0.793,1.646,2.691,1.615,4.195
	c-0.027,2.268-0.651,4.393-1.359,6.547c-0.086,0.283-0.228,0.965-0.283,1.615c-0.085,0.767,0.027,1.305,0.255,1.53
	c0.028,0.058,0.198,0.199,0.651,0.058c0.085-0.027,0.426-0.228,1.305-1.672c0.595-0.965,1.274-2.184,1.843-3.261
	c1.304-2.409,1.672-3.032,2.041-3.118c0.085-0.027,0.198-0.027,0.283,0.028c0.396,0.198,0.368,0.793-0.113,2.978
	c-0.057,0.254-0.113,0.537-0.113,0.623l-0.027,0.086c-0.058,1.049-0.198,2.806,0.65,3.543c0.313,0.255,0.567,0.34,0.852,0.312
	c0.453-0.057,0.936-0.481,1.503-1.304c0.453-0.623,1.188-2.664,1.644-4.848c0.567-2.638,0.538-4.678-0.057-5.754
	c-0.34-0.625-0.879-0.908-1.616-0.88c-0.197,0-0.34-0.142-0.34-0.34c0-0.17,0.143-0.313,0.313-0.34
	c0.992-0.029,1.757,0.396,2.238,1.246c0.852,1.56,0.539,4.225,0.143,6.209c-0.481,2.295-1.274,4.364-1.758,5.073
	c-0.68,0.992-1.332,1.502-1.983,1.586c-0.481,0.059-0.937-0.084-1.36-0.452c-1.134-0.964-0.964-2.92-0.879-4.109v-0.086
	c0-0.112,0.057-0.312,0.142-0.709c0.086-0.425,0.199-0.963,0.283-1.416c0-0.114,0.029-0.198,0.029-0.284
	c-0.34,0.567-0.852,1.475-1.248,2.269c-1.645,3.005-2.777,4.989-3.543,5.243C75.968,61.583,75.77,61.611,75.627,61.611
	L75.627,61.611z M87.675,60.676c-0.113,0-0.255-0.027-0.368-0.057c-0.426-0.143-0.737-0.48-0.822-0.992c0,0,0,0,0-0.027
	c-0.227-2.041,1.105-2.807,1.162-2.836c0.17-0.113,0.396-0.057,0.482,0.113c0.084,0.171,0.027,0.396-0.144,0.482
	c-0.027,0.027-0.963,0.623-0.821,2.154c0.057,0.227,0.17,0.368,0.341,0.426c0.283,0.084,0.624-0.058,0.878-0.313
	c0.086-0.112,0.228-0.283,0.284-0.538c-0.425-0.283-0.567-0.652-0.538-0.964c0-0.313,0.197-0.565,0.48-0.597
	c0.113-0.026,0.481-0.026,0.651,0.512c0.057,0.227,0.113,0.425,0.113,0.624c0.112,0.057,0.228,0.084,0.369,0.112
	c0.112,0.027,0.396,0.084,0.793-0.736c0.086-0.198,0.313-0.255,0.481-0.171c0.17,0.086,0.256,0.284,0.17,0.454
	c-0.17,0.341-0.651,1.359-1.614,1.162c-0.087-0.028-0.171-0.058-0.257-0.086c-0.084,0.256-0.227,0.511-0.425,0.709
	C88.554,60.479,88.1,60.676,87.675,60.676L87.675,60.676z M91.586,60.676c-0.113,0-0.254-0.027-0.368-0.057
	c-0.425-0.143-0.737-0.48-0.821-0.992c0,0,0,0,0-0.027c-0.228-2.041,1.105-2.807,1.162-2.836c0.17-0.113,0.396-0.057,0.481,0.113
	c0.112,0.171,0.057,0.396-0.113,0.482c-0.057,0.027-0.992,0.623-0.822,2.154c0.028,0.227,0.143,0.368,0.313,0.426
	c0.283,0.084,0.624-0.058,0.879-0.313c0.113-0.112,0.227-0.283,0.283-0.538c-0.396-0.283-0.566-0.652-0.538-0.964
	c0-0.313,0.228-0.565,0.48-0.597c0.113-0.026,0.482-0.026,0.652,0.512c0.085,0.227,0.113,0.425,0.143,0.624
	c0.084,0.057,0.197,0.084,0.341,0.112c0.112,0.027,0.425,0.084,0.821-0.736c0.084-0.198,0.283-0.255,0.453-0.171
	c0.198,0.086,0.255,0.284,0.17,0.454c-0.142,0.341-0.623,1.359-1.588,1.162c-0.113-0.028-0.197-0.058-0.283-0.086
	c-0.085,0.256-0.227,0.511-0.426,0.709C92.465,60.479,92.012,60.676,91.586,60.676L91.586,60.676z M69.505,20.254
	c0.222,0.221,2.4-0.61,2.771-0.656c0.288-0.036,1.987-0.193,2.048-0.365C74.178,18.95,69.797,19.864,69.505,20.254z M73.643,19.574
	c0.06,0.074,0.106,0.083,0.144,0.027C73.758,19.52,73.71,19.511,73.643,19.574z M72.963,19.688c0.014,0.063,0.052,0.082,0.113,0.057
	C73.063,19.68,73.026,19.661,72.963,19.688z M72.708,20.311c0.134-0.004,0.256-0.042,0.368-0.113
	C73.076,19.832,72.553,20.156,72.708,20.311z M73.586,20.084c-0.216,0.054-0.156,0.375-0.058,0.34
	c0.116-0.029-0.025-0.17,0.058-0.227c0,0.084,0.037,0.141,0.113,0.17C73.885,20.367,73.586,20.079,73.586,20.084z M72.367,20.282
	c-0.619-0.155,0.112,0.608,0.112,0.085C72.443,20.339,72.406,20.311,72.367,20.282z M73.133,20.282
	c-0.102-0.069-0.205-0.041-0.313,0.085c-0.035,0,0.696-0.126,0.467-0.154C73.228,20.219,73.177,20.243,73.133,20.282z
	 M70.696,20.594c0.048,0.1,0.096,0.1,0.143,0C70.801,20.521,70.753,20.521,70.696,20.594z M71.858,20.453
	c-0.079,0-0.325,0.198-0.142,0.244C71.892,20.741,72.05,20.453,71.858,20.453z M72.623,20.48c0.085,0.067,0.142,0.048,0.17-0.057
	C72.715,20.384,72.658,20.402,72.623,20.48z M70.186,20.85c0.097-0.023,0.109-0.065,0.043-0.125
	C70.16,20.744,70.147,20.786,70.186,20.85z M71.149,20.707c-0.062,0.226,0.147,0.195,0.265,0.116
	C71.638,20.67,71.259,20.544,71.149,20.707z M72.453,20.537c-0.093-0.029-0.158,0-0.199,0.086
	C72.357,20.69,72.423,20.661,72.453,20.537z M71.971,20.707c0.015,0.073,0.053,0.129,0.113,0.17c0.068-0.076,0.078-0.16,0.027-0.254
	C72.066,20.651,72.018,20.679,71.971,20.707z M69.364,20.991C69.364,21.245,69.537,20.811,69.364,20.991
	C69.364,21.048,69.364,20.991,69.364,20.991z M70.611,20.935c-0.027,0.285,0.455,0.088,0.341-0.085
	C70.815,20.791,70.701,20.819,70.611,20.935z M71.716,20.877c0.227,0,0.046-0.039,0.17,0.086
	C72.233,20.616,71.537,20.771,71.716,20.877z M73.699,20.566c-0.011,0.091,0.027,0.147,0.113,0.17
	C73.88,20.736,73.883,20.474,73.699,20.566z M71.375,20.935c0.077,0.062,0.144,0.052,0.199-0.028
	C71.504,20.817,71.438,20.827,71.375,20.935z M73.559,20.623c-0.044,0.084,0.068,0.451,0.198,0.425
	C73.785,20.992,73.658,20.548,73.559,20.623z M70.469,21.161c0.088-0.204-0.226-0.165-0.199-0.028
	C70.329,21.186,70.396,21.195,70.469,21.161z M71.092,21.02c0.079,0.076,0.146,0.066,0.199-0.028
	C71.217,20.931,71.151,20.94,71.092,21.02z M70.752,21.161c0.094,0.057,0.16,0.039,0.198-0.057
	C70.871,21.028,70.805,21.047,70.752,21.161z M70.469,21.246c0.079,0.076,0.145,0.066,0.198-0.028
	C70.592,21.143,70.527,21.152,70.469,21.246z M73.785,20.85c-0.009,0.138,0.049,0.195,0.17,0.17
	C73.955,20.972,73.891,20.709,73.785,20.85z M70.043,21.502c0.05,0.069,0.088,0.145,0.112,0.227
	c0.023-0.005,0.171-0.364,0.171-0.397c-0.242-0.363-0.598,0.653-0.313,0.511C70.168,21.81,69.949,21.564,70.043,21.502z
	 M72.169,21.104c-0.144-0.085-0.108,0.143-0.028,0.17C72.225,21.235,72.234,21.179,72.169,21.104z M71.886,21.161
	c-0.005,0.088,0.032,0.136,0.113,0.142C72.047,21.231,72.005,21.042,71.886,21.161z M73.927,21.133
	c-0.079,0.079,0.026,0.181,0.085,0.198C74.074,21.219,74.046,21.153,73.927,21.133z M73.785,21.331c0.186,0.093,0-0.312-0.058-0.142
	C73.747,21.237,73.767,21.284,73.785,21.331z M72.084,21.615c0.027-0.089,0.009-0.165-0.058-0.228
	C71.887,21.359,71.934,21.704,72.084,21.615z M72.141,21.359c-0.018,0.054-0.019,0.292,0.113,0.227
	C72.314,21.464,72.277,21.388,72.141,21.359z M53.261,23.91c0,0.044,0.586,0.351,0.663,0.415c0.378,0.32,0.707,0.721,0.994,1.125
	c0.277,0.392,0.498,0.844,0.792,1.221c0.11,0.142,0.954,0.531,0.954,0.046c-0.097-0.048-0.182-0.029-0.256,0.057
	c-0.289,0.149-0.38-0.039-0.596-0.17c-0.063-0.119-0.729-1.25-0.791-1.229C54.785,25.454,53.892,23.539,53.261,23.91z
	 M70.156,21.842c-0.03,0.097,0.043,0.534,0.199,0.481C70.379,22.249,70.274,21.725,70.156,21.842z M73.955,21.615
	c0.025-0.092,0-0.162-0.08-0.208C73.791,21.378,73.773,21.659,73.955,21.615z M74.04,21.473c-0.005,0.085,0.033,0.142,0.112,0.17
	C74.154,21.603,74.183,21.377,74.04,21.473z M72.028,21.729c-0.024,0.12,0.021,0.185,0.143,0.197
	C72.221,21.851,72.15,21.636,72.028,21.729z M72.227,21.699c-0.045,0.067,0.114,0.531,0.197,0.511
	C72.479,22.127,72.363,21.673,72.227,21.699z M69.987,22.012c-0.076,0.154,0.051,0.198,0.144,0.198
	C70.15,22.146,70.113,21.916,69.987,22.012z M62.248,23.74c0.159,0.023,2.154-0.753,2.154-0.963
	C64.215,22.791,62.308,23.441,62.248,23.74z M74.125,21.672c-0.013,0.097,0.025,0.162,0.112,0.197
	C74.277,21.755,74.24,21.689,74.125,21.672z M73.955,21.672c-0.08,0.119,0.021,0.17,0.112,0.17
	C74.085,21.743,74.047,21.686,73.955,21.672z M75.032,21.699c-0.105,0.016-0.183,0.073-0.229,0.17
	C74.911,21.854,74.988,21.797,75.032,21.699z M72.283,22.238c0.018-0.118-0.029-0.175-0.144-0.17
	C72.103,22.196,72.151,22.253,72.283,22.238z M53.375,24.534c0.08,0.23,0.748,0.633,0.936,0.88c0.146,0.192,0.743,1.31,0.992,1.275
	C55.302,26.446,53.613,24.178,53.375,24.534z M70.073,22.437c-0.021,0.182,0.026,0.239,0.141,0.171
	C70.238,22.535,70.193,22.346,70.073,22.437z M70.326,22.437c-0.034,0.067-0.027,0.131,0.021,0.19
	C70.458,22.717,70.505,22.392,70.326,22.437z M72.424,22.323c-0.038,0.114-0.001,0.18,0.113,0.198
	C72.587,22.403,72.549,22.337,72.424,22.323z M72.283,22.38c-0.102,0.033-0.018,0.225,0.084,0.198
	C72.409,22.483,72.381,22.417,72.283,22.38z M70.383,22.805c0,0.074,0.028,0.131,0.086,0.171
	C70.62,22.945,70.466,22.668,70.383,22.805z M70.156,22.834c-0.012,0.097,0.026,0.163,0.113,0.198
	C70.396,23.032,70.265,22.691,70.156,22.834z M70.496,23.061c-0.028,0.114,0.01,0.189,0.113,0.227
	C70.662,23.163,70.624,23.087,70.496,23.061z M70.27,23.146c0,0.14,0.023,0.217,0.17,0.227
	C70.457,23.232,70.401,23.156,70.27,23.146z M69.59,28.418c-0.437,0.523,0.279,1.571,0.635,0.964
	C70.558,28.811,70.192,28.218,69.59,28.418z M69.618,28.135c0.024,0.074,0.438,0.063,0.537,0.113
	c0.171,0.126,0.341,0.41,0.341,0.623c0,0.501-0.423,1.187-0.968,0.695C69.27,29.33,69.057,28.135,69.618,28.135z M69.817,28.928
	c-0.018,0.053-0.009,0.1,0.028,0.143C69.939,29.038,69.863,28.86,69.817,28.928z M69.873,29.184c-0.226,0-0.286-0.455-0.028-0.426
	C70.077,28.758,70.15,29.184,69.873,29.184z M71.064,28.814c0.13,0.193,2.128-0.154,2.382-0.255
	C73.401,28.428,71.319,28.689,71.064,28.814z M72.567,28.418C72.495,28.418,72.526,28.481,72.567,28.418
	C72.537,28.418,72.567,28.418,72.567,28.418z M73.276,27.992c0,0.287,0.146,0.263,0.298,0.418c0.351,0.36-0.319,0.342-0.439,0.434
	C73.523,29.623,74.427,27.992,73.276,27.992z M73.36,27.454c-0.045,0.047-0.216,0.085-0.282,0.085
	c-0.086,0.346,0.108,0.29,0.327,0.294c0.479,0.01,0.698,0.574,0.591,0.967c-0.258,0.926-1.003-0.098-1.4,0.1
	c0.092,0.264,0.605,0.784,0.908,0.708c-0.017-0.038-0.017-0.076,0-0.113c0.109,0,0.314,0.138,0.425,0.028
	c0-0.146,0.446-0.417,0.479-0.79c0.021-0.254,0.036-0.621-0.155-0.824c-0.089-0.092-0.321-0.198-0.38-0.286
	C73.87,27.314,73.36,27.635,73.36,27.454z M69.817,27.709c-0.107,0-0.251,0.17-0.282,0.17c-0.044-0.019-0.082-0.047-0.113-0.084
	c-0.058,0.067-0.066,0.143-0.029,0.227c-0.064-0.01-0.103-0.048-0.113-0.113c-0.019,0.066-0.037,0.131-0.057,0.197
	c-0.041-0.013-0.078-0.032-0.113-0.057c0,0.222-0.144,0.234-0.17,0.426c0,0.03,0.08,0.628,0.055,0.656
	c-0.229,0.234,0.514,0.758,0.514,0.875c0.218-0.112,0.049,0.062,0.198,0.113c0.063-0.064,0.259-0.131,0.312,0.027
	c0.104,0,0.794-0.268,0.794-0.623c0.225-0.447,0.071-1.026-0.202-1.407c-0.206-0.288-0.477-0.24-0.563-0.408
	c-0.095-0.001-0.151,0.046-0.17,0.143C69.837,27.811,69.819,27.764,69.817,27.709z M70.469,27.624
	c-0.031,0.15,0.356,0.511,0.421,0.63c0.322,0.594,0.354,0.241,0.996,0.305C73.364,28.56,70.57,27.52,70.469,27.624z M70.496,27.284
	c0.2,0.243,0.583,0.364,0.894,0.467c0.421,0.14,1.125,0.713,1.573,0.638C72.481,27.898,71.15,27.5,70.496,27.284z M55.785,28.844
	c-0.111,0.085-0.127,0.189-0.228,0.34c-0.086,0.167-0.319,0.272-0.369,0.396C55.495,29.733,55.713,29.057,55.785,28.844z
	 M58.194,28.219C58.194,28.051,57.928,28.493,58.194,28.219C58.194,28.191,58.194,28.219,58.194,28.219z M58.619,28.105
	c-0.134,0.026-0.266,0.055-0.396,0.086C58.364,28.207,58.496,28.178,58.619,28.105z M58.96,28.021
	c-0.058,0.019-0.114,0.038-0.171,0.057C58.857,28.098,58.914,28.079,58.96,28.021z M59.441,27.936
	C59.309,27.936,59.441,27.993,59.441,27.936C59.413,27.936,59.441,27.936,59.441,27.936z M59.867,27.852
	C59.867,27.788,59.867,27.94,59.867,27.852C59.867,27.822,59.867,27.852,59.867,27.852z M68.315,26.773
	c0.089,0.279,0.511,0.539,0.709,0.737c0.279,0.28,0.516,0.061,0.878,0C69.939,27.288,68.527,26.773,68.315,26.773z M62.049,27.313
	c0.197-0.017,0.387-0.064,0.568-0.143C62.484,27.126,62.172,27.252,62.049,27.313z M67.634,26.462
	c0.123,0.137,0.667,0.737,0.907,0.737C68.346,26.907,67.99,26.541,67.634,26.462z M67.918,26.349
	c0.187,0.377,1.382,0.756,1.785,0.821C69.528,26.818,68.274,26.509,67.918,26.349z M70.526,25.781c0,0.227-0.182,1.166,0.023,1.35
	c0.396,0.355,1.103,0.455,1.563,0.72c0.769,0.38,0.07-0.687-0.057-0.964c-0.157-0.344-0.339-0.673-0.496-1.018
	C71.383,25.484,70.878,25.675,70.526,25.781z M67.209,26.094c0.144,0.146,0.349,0.22,0.538,0.283
	C67.676,26.271,67.369,25.93,67.209,26.094z M67.946,25.951c0.079,0.232,1.707,0.879,1.984,0.879c0.031-0.339,0.028-0.68,0.028-1.02
	C69.286,25.837,68.615,25.896,67.946,25.951z M67.606,25.98c0,0.267,2.337,1.05,2.324,1.076
	C69.866,26.803,67.835,26.017,67.606,25.98z M66.812,26.064c0.159,0.317,0.561,0.494,0.809,0.727
	c0.256,0.24,1.033,1.087,1.403,1.087C69.124,27.678,67.03,26.064,66.812,26.064z M68.059,25.781c0.029,0.04,0.067,0.049,0.113,0.029
	C68.172,25.743,68.103,25.781,68.059,25.781z M71.291,25.328c-0.121,0.039-0.227,0.105-0.313,0.198
	C71.171,25.564,71.25,25.371,71.291,25.328z M51.675,27.795c0.101,0.538,0.171,1.389,0.907,1.389
	c0.394,0.029,0.778-0.106,1.162-0.17c-0.086-0.49-0.141-0.985-0.228-1.475c-0.158-0.04-0.376,0.185-0.553,0.195
	C52.536,27.757,52.099,27.729,51.675,27.795z M68.598,25.64c-0.099,0.009-0.184,0.047-0.256,0.114
	C68.44,25.744,68.526,25.706,68.598,25.64z M69.987,25.413c-0.146,0.053-0.268,0.138-0.367,0.255
	C69.749,25.694,69.987,25.549,69.987,25.413z M70.611,25.583c0.109,0.018,0.677-0.236,0.624-0.396
	C70.993,25.267,70.813,25.438,70.611,25.583z M69.108,25.441c-0.094,0.038-0.48,0.167-0.48,0.313
	C68.804,25.676,68.964,25.572,69.108,25.441z M69.703,25.215c-0.206,0-0.688,0.352-0.794,0.51
	C69.045,25.725,69.703,25.355,69.703,25.215z M69.25,25.696c0.135,0,0.787-0.305,0.735-0.51
	C69.879,25.236,69.25,25.542,69.25,25.696z M70.526,25.498c0.109-0.036,0.68-0.482,0.623-0.482
	C71.081,24.949,70.452,25.357,70.526,25.498z M50.172,27.596c-0.038,0.038-0.076,0.076-0.113,0.113
	C50.096,27.671,50.134,27.633,50.172,27.596z M50.228,27.652c0.117-0.06,0.231-0.126,0.341-0.198
	C50.515,27.4,50.228,27.594,50.228,27.652z M71.092,24.846c-0.172,0.083-0.475,0.242-0.566,0.426
	C70.737,25.229,70.985,25.011,71.092,24.846z M50.824,27.341c-0.071,0-0.351,0.25-0.396,0.312
	C50.556,27.609,50.753,27.432,50.824,27.341z M50.994,27.284c0,0.151-0.307,0.215-0.368,0.34
	C50.904,27.545,51.052,27.397,50.994,27.284z M74.891,24.279c-0.086,0.035-0.152,0.091-0.199,0.17
	C74.918,24.411,74.985,24.354,74.891,24.279z M68.002,25.668c0.193-0.052,1.983-0.533,1.983-0.766
	C69.987,25.123,68.111,25.354,68.002,25.668z M54.679,26.773C54.729,26.821,54.387,26.773,54.679,26.773
	C54.65,26.745,54.679,26.773,54.679,26.773z M73.842,24.818c0.319-0.042,0.602-0.354,0.85-0.539
	C74.445,24.368,74.033,24.627,73.842,24.818z M68.428,25.016c-0.468,0.303-0.952,0.586-1.389,0.936
	C67.286,25.87,68.428,25.256,68.428,25.016z M50.824,27.624c0.243-0.091,0.526-0.306,0.709-0.481
	C51.454,27.063,50.872,27.592,50.824,27.624z M70.554,25.072c0.074-0.025,0.604-0.242,0.453-0.396
	C70.857,24.759,70.625,24.906,70.554,25.072z M51.277,27.17C51.277,27.239,51.172,27.065,51.277,27.17
	C51.277,27.143,51.277,27.17,51.277,27.17z M73.303,25.016c0.239,0.041,0.986-0.561,1.162-0.736
	C74.465,24.267,73.413,24.943,73.303,25.016z M72.906,25.13c0.237,0.079,1.115-0.742,1.275-0.879
	C73.82,24.251,73.164,24.901,72.906,25.13z M53.857,27.17c0.168,0,0.64-0.349,0.736-0.48C54.397,26.689,54.017,27.05,53.857,27.17z
	 M72.537,25.243c0.476-0.237,1.022-0.633,1.39-0.992C73.718,24.38,72.537,25.007,72.537,25.243z M51.958,26.973
	c-0.33,0.191-0.605,0.459-0.936,0.651C51.18,27.624,51.958,27.084,51.958,26.973z M52.269,26.943
	c-0.351,0.169-0.712,0.433-1.02,0.681C51.368,27.683,52.269,27.006,52.269,26.943z M54.367,26.689c0,0.119-1.091,0.563-1.22,0.821
	C53.522,27.417,54.103,26.953,54.367,26.689z M72.141,25.328c0.296-0.124,1.446-0.729,1.56-1.077
	C73.192,24.494,72.539,24.93,72.141,25.328z M51.59,27.596c0.252,0,0.889-0.543,1.049-0.709
	C52.456,26.91,51.652,27.345,51.59,27.596z M51.76,27.624c0.412-0.219,0.832-0.532,1.19-0.794
	C52.742,26.729,51.912,27.456,51.76,27.624z M71.291,24.506c0.051,0.586,0.559,1.292,0.834,1.843
	c0.17,0.337,0.651,1.938,1.063,2.041C73.304,28.277,71.502,24.506,71.291,24.506z M71.886,25.328
	c0.362,0.091,1.234-0.873,1.587-1.049C73.412,24.216,71.939,25.116,71.886,25.328z M52.808,27.596
	c0.41-0.103,1.063-0.666,1.332-0.936C53.91,26.66,52.808,27.415,52.808,27.596z M68.342,25.413c0.239-0.08,1.645-0.42,1.645-0.737
	C69.649,24.776,68.454,25.021,68.342,25.413z M73.162,24.279c-0.31,0-1.12,0.694-1.333,0.907
	C72.041,25.187,73.082,24.434,73.162,24.279z M71.545,24.563c-0.008,0.113,0.066,0.075,0.228-0.113
	C71.683,24.459,71.607,24.497,71.545,24.563z M52.525,27.567c0.183,0.122,1.26-0.837,1.305-0.907
	C53.379,26.94,52.952,27.254,52.525,27.567z M71.744,25.045c0.208,0,1.134-0.611,1.134-0.766
	C72.668,24.279,71.808,24.854,71.744,25.045z M52.355,27.539c0.311-0.039,0.998-0.591,1.189-0.822
	C53.505,26.677,52.395,27.374,52.355,27.539z M71.603,24.705c-0.018,0.006,0.644-0.341,0.453-0.341
	C71.905,24.478,71.753,24.591,71.603,24.705z M71.659,24.875c0.055-0.013,0.87-0.518,0.851-0.539
	C72.257,24.336,71.766,24.607,71.659,24.875z M52.014,27.596c0.243,0.06,1.111-0.646,1.247-0.851
	C53.008,26.745,52.253,27.394,52.014,27.596z M68.541,24.732c-0.349,0.246-1.501,0.752-1.646,1.162
	C67.125,25.818,68.599,24.792,68.541,24.732z M68.399,24.705c-0.268,0-0.865,0.498-1.049,0.68c-0.409,0.205-0.895,0.529-1.219,0.851
	C66.93,25.937,67.74,25.199,68.399,24.705z M70.27,27.624c0.172-0.284,0.136-3.175,0.086-3.175
	C70.049,24.679,70.317,27.624,70.27,27.624z M72.283,24.194c0.134,0.201,2.066-0.085,2.381-0.085
	C73.97,23.881,72.992,24.127,72.283,24.194z M49.888,27.624c1.429-0.768,3.244-1.105,4.848-1.105
	C54.493,26.034,50.151,27.117,49.888,27.624z M57.798,25.98c-0.154,0.052-0.286,0.137-0.397,0.255
	C57.428,26.226,57.798,26.025,57.798,25.98z M65.65,26.377c0.431-0.107,0.853-0.521,1.22-0.766c0.294-0.196,1.11-0.576,1.275-0.906
	C67.818,24.638,65.754,26.064,65.65,26.377z M65.168,26.519c0.432-0.108,0.896-0.562,1.247-0.822
	c0.354-0.237,1.189-0.616,1.417-0.991C67.558,24.634,65.249,26.266,65.168,26.519z M67.549,24.705c-0.372,0-0.937,0.623-1.275,0.793
	c-0.321,0.424-1.36,0.641-1.53,1.134c0.458-0.091,1.034-0.67,1.413-0.936C66.326,25.576,67.549,24.936,67.549,24.705z
	 M64.318,26.745c0.494-0.071,1.232-0.804,1.646-1.086c0.146-0.101,1.331-0.767,1.331-0.954c-0.537,0.104-1.183,0.767-1.615,1.076
	C65.402,25.921,64.416,26.451,64.318,26.745z M58.336,25.811c-0.194,0.031-1.021,0.472-1.021,0.708
	C57.682,26.321,58.004,26.058,58.336,25.811z M63.806,26.887c0.544-0.066,1.244-0.767,1.688-1.064
	c0.267-0.179,1.406-0.774,1.488-1.09c-0.29-0.056-1.135,0.652-1.333,0.851C65.259,25.856,63.969,26.422,63.806,26.887z
	 M63.41,26.943c0.637-0.068,1.421-0.891,1.92-1.247c0.141-0.1,1.368-0.777,1.368-0.964c-0.522,0.077-1.286,0.764-1.7,1.078
	C64.534,26.194,63.775,26.457,63.41,26.943z M63.041,27c0.384,0,3.274-2.183,3.26-2.211c-0.481,0.034-1.198,0.771-1.644,1.049
	C64.441,26.055,63.041,26.705,63.041,27z M68.655,25.072c0.288-0.078,0.558-0.207,0.822-0.34c0.194-0.042,0.373-0.117,0.538-0.227
	c0.015-0.127-0.042-0.184-0.17-0.17C69.526,24.416,68.655,24.651,68.655,25.072z M58.845,25.668c-0.41,0-1.169,0.704-1.473,0.964
	C57.53,26.74,58.697,25.777,58.845,25.668z M62.701,27.029c0.517,0,1.333-0.85,1.743-1.127c0.229-0.154,1.604-0.827,1.604-1.14
	c-0.573,0.143-1.157,0.713-1.638,1.041C64.172,25.965,62.701,26.772,62.701,27.029z M59.243,25.583c-0.186,0-1.759,0.993-1.7,1.162
	C57.941,26.745,58.956,25.87,59.243,25.583z M62.333,27.029c0.41,0,3.443-2.184,3.401-2.268c-0.65,0.09-1.097,0.843-1.701,1.049
	C63.586,26.258,62.67,26.517,62.333,27.029z M62.078,27.029c0.461,0,1.443-0.929,1.834-1.192c0.461-0.311,1.092-0.642,1.454-1.048
	c-0.475,0.189-1.213,0.65-1.531,1.049C63.229,26.079,62.598,26.639,62.078,27.029z M56.777,25.838
	c-0.085,0.047-0.17,0.095-0.256,0.143C56.607,25.933,56.692,25.885,56.777,25.838z M61.795,27.057
	c0.54-0.105,0.966-0.68,1.435-0.945c0.596-0.337,1.369-0.808,1.854-1.293c-0.521,0-0.979,0.936-1.446,0.936
	C63.251,26.139,61.958,26.554,61.795,27.057z M57.713,26.803c0.705-0.205,1.395-0.944,2.012-1.333
	C59.474,25.345,57.914,26.55,57.713,26.803z M61.482,27.057c0.479,0,1.273-0.812,1.673-1.076c0.545-0.363,1.112-0.736,1.645-1.135
	c0-0.007-1.454,0.919-1.559,0.965c-0.226,0.217-0.551,0.374-0.805,0.556C62.251,26.498,61.556,26.836,61.482,27.057z M61.256,27.029
	c0.426,0,1.2-0.774,1.535-1.016c0.396-0.286,1.452-0.704,1.669-1.138c-0.283,0-0.986,0.56-1.219,0.793
	C62.617,26.083,61.768,26.499,61.256,27.029z M60.094,25.385c-0.399-0.1-1.805,1.166-2.154,1.445
	C58.607,26.701,59.553,25.817,60.094,25.385z M60.886,27.057c0.397,0.082,1.213-0.729,1.524-0.935
	c0.572-0.378,1.279-0.785,1.735-1.276c-0.422,0.063-1.059,0.627-1.401,0.896C62.19,26.177,61.333,26.507,60.886,27.057z
	 M58.137,26.887c0.326,0,0.812-0.461,1.049-0.651c0.465-0.291,0.922-0.607,1.36-0.936c-0.457,0.093-0.878,0.481-1.253,0.756
	C58.96,26.3,58.375,26.534,58.137,26.887z M63.806,24.875c-0.599,0.096-1.391,0.889-1.884,1.235
	c-0.28,0.196-1.207,0.626-1.319,0.947c0.417,0,1.225-0.768,1.552-1.008C62.461,25.825,63.466,24.875,63.806,24.875z M60.32,27.057
	c0.49,0,1.441-0.974,1.859-1.243c0.206-0.132,1.288-0.67,1.288-0.912c-0.367-0.071-1.357,0.877-1.646,1.08
	C61.51,26.2,60.414,26.682,60.32,27.057z M58.422,26.916c0.881-0.321,1.696-1.174,2.494-1.673c0-0.085-0.891,0.571-0.992,0.624
	C59.464,26.208,58.781,26.464,58.422,26.916z M60.037,27.029c0.513,0,1.313-0.856,1.729-1.105c0.202-0.202,1.333-0.731,1.333-0.965
	c-0.604,0-1.139,1.105-1.758,1.105C60.976,26.341,60.284,26.653,60.037,27.029z M58.648,26.943c0.2,0.042,0.78-0.492,0.92-0.588
	c0.345-0.235,1.551-0.785,1.688-1.197c-0.245,0-0.712,0.399-0.879,0.566C59.88,26.016,58.973,26.462,58.648,26.943z M59.724,27.029
	c0.292,0,0.817-0.45,1.049-0.624c0.658-0.468,1.354-0.913,1.984-1.417c-0.402,0.121-0.953,0.462-1.247,0.766
	C61.029,26.075,60.049,26.537,59.724,27.029z M61.681,25.102c-0.436,0-1.032,0.629-1.39,0.85c-0.45,0.36-1.009,0.612-1.417,1.021
	C59.199,27.007,61.681,25.37,61.681,25.102z M59.186,27c0.247,0.085,1.154-0.757,1.368-0.902c0.254-0.172,1.293-1.053,1.438-1.053
	c-0.541,0.311-1,0.723-1.524,1.052C60.07,26.346,59.49,26.635,59.186,27z M59.441,27.029c0.354,0,1.287-0.754,1.561-1.021
	c0.458-0.325,1.023-0.615,1.417-0.992c-0.442,0-1.085,0.644-1.417,0.883C60.536,26.232,59.793,26.566,59.441,27.029z M64.488,24.676
	c1.271,0,2.717,0.067,3.969-0.142c-0.063-0.128-1.461,0.028-1.645,0.028C66.125,24.734,65.2,24.627,64.488,24.676z M72.51,23.684
	c-0.49,0.123-1.619,0.656-1.956,0.992C71.192,24.494,71.967,24.07,72.51,23.684z M72.227,24.053
	c0.273-0.028,0.546-0.057,0.821-0.057c0.033-0.067-0.033-0.347-0.057-0.396C72.794,23.631,72.354,23.882,72.227,24.053z
	 M63.836,24.732C63.948,24.732,63.948,24.732,63.836,24.732C63.863,24.762,63.836,24.732,63.836,24.732z M69.817,23.939
	c-0.375,0-0.862,0.278-1.247,0.396c0.187,0.278,0.118,0.356,0.491,0.213C69.425,24.409,69.959,24.362,69.817,23.939z M57.543,25.924
	c0.555,0,1.253-0.424,1.813-0.516c0.528-0.086,1.23-0.165,1.729-0.363C60.084,25.045,58.402,25.383,57.543,25.924z M73.162,23.514
	c0,0.089,0.028,0.292,0.056,0.426C73.225,23.794,73.206,23.652,73.162,23.514z M61.482,24.959c0.056,0.031,0.111,0.031,0.17,0
	C61.595,24.96,61.539,24.96,61.482,24.959z M72.765,23.514c-0.081,0.027-0.157,0.065-0.228,0.113
	C72.636,23.635,72.712,23.597,72.765,23.514z M73.473,23.287c-0.188,0.048-0.228,0.152-0.113,0.313
	C73.431,23.508,73.469,23.404,73.473,23.287z M73.814,23.089c-0.2,0-0.353,0.706-0.368,0.851
	C73.606,23.939,73.792,23.174,73.814,23.089z M73.446,23.117c-0.222,0.095-0.429,0.229-0.624,0.368
	C72.996,23.485,73.33,23.231,73.446,23.117z M55.388,25.356c0.013,0.066,0.051,0.113,0.113,0.142
	C55.464,25.451,55.426,25.404,55.388,25.356z M73.559,23.032c-0.038,0.019-0.075,0.038-0.113,0.057
	C73.484,23.07,73.521,23.051,73.559,23.032z M73.672,22.947C73.597,23.023,73.597,23.023,73.672,22.947
	C73.643,22.947,73.672,22.947,73.672,22.947z M73.785,22.918C73.794,22.926,73.543,22.918,73.785,22.918
	C73.757,22.891,73.785,22.918,73.785,22.918z M59.328,25.187c0.398-0.061,0.797-0.136,1.189-0.228
	c0.51-0.127,0.778,0.008,0.567-0.623C60.499,24.596,59.935,24.984,59.328,25.187z M57.911,25.555c0.498,0,3.264-1.167,3.139-1.449
	c-0.116-0.263-1.205,0.365-1.41,0.57C59.052,24.937,58.464,25.223,57.911,25.555z M61.822,23.6c-0.484,0.078-0.531,0.945-0.17,1.189
	c0.065-0.251,0.104-0.506,0.113-0.766c-0.059,0.043-0.115,0.043-0.17,0C61.595,23.865,61.822,23.899,61.822,23.6z M61.369,23.656
	c0.115,0,0.481-0.133,0.481-0.284C61.778,23.372,61.369,23.508,61.369,23.656z M61.822,23.202
	C61.822,23.395,61.805,23.169,61.822,23.202C61.822,23.23,61.822,23.202,61.822,23.202z M75.74,21.331c0,0-0.677,0.44-0.736,0.624
	C75.272,21.776,75.514,21.559,75.74,21.331z M62.73,22.805c-0.065,0.029-0.133,0.057-0.199,0.086
	C62.597,22.862,62.664,22.833,62.73,22.805z M62.276,23.202c0.237,0.047,0.795-0.328,0.992-0.425
	C63.179,22.627,62.276,23.088,62.276,23.202z M53.885,23.854c0.409,0.545,1.055,0.938,1.474,1.503
	C55.359,24.918,54.234,24.038,53.885,23.854z M62.787,22.777C62.985,22.777,62.866,22.692,62.787,22.777
	C62.844,22.777,62.787,22.777,62.787,22.777z M63.07,22.635c-0.062,0.006-0.109,0.035-0.143,0.086
	C62.99,22.715,63.037,22.686,63.07,22.635z M60.916,23.74c0,0.293-2.563,1.381-2.871,1.545c-0.484,0.258-1.194,0.808-1.694,0.808
	c-0.593,0.193-0.308-0.361-0.793-0.482c0.051,0.051,0.595,0.704,0.595,0.709c0,0.286-0.53-0.435-0.531-0.436
	C55.39,25.52,55.1,25.177,54.8,24.869c-0.441-0.453-1.249-0.953-1.538-1.242c-0.302-0.146,0.143,1.544,0.143,1.843
	c0,0.304,0.052,0.636,0.113,0.937c0.436-0.054,1.041-0.213,1.445,0.057c0.201,0.604-0.987,0.754-1.304,0.992
	c0.104,0.276,0.17,0.715,0.17,0.992c0,0.482,0.051,0.511,0.396,0.511c-0.066-0.008-0.133-0.018-0.199-0.029
	c0.051-0.252,3.303-0.696,3.683-0.727c1.464-0.116,2.88-0.71,4.312-0.975c-0.157-0.104-0.828-0.019-0.936,0.143
	c-0.82,0.096-1.646,0.347-2.452,0.522c-0.583,0.126-1.171,0.193-1.743,0.356c-0.612,0.139-1.578,0.447-2.211,0.368
	c0.063-0.308,2.689-0.61,3.062-0.651c1.105-0.123,2.282-0.41,3.345-0.738c-0.594-0.297-5.161,1.081-5.266,0.767
	c-0.012-0.037,3.602-0.661,3.764-0.823c-0.776-0.149-3.124,0.129-2.325-1.275c-0.119,0.052-0.743,0.534-0.878,0.397
	c0.065-0.207,0.593-0.342,0.765-0.425c0.435-0.224,0.872-0.493,1.305-0.709c0.353-0.353,2.688-1.041,2.467-1.502
	c-0.337,0.128-3.711,2.1-3.799,2.012c0.711-0.284,1.39-0.731,2.068-1.077C59.48,24.415,60.651,23.608,60.916,23.74z M52.213,24.336
	c-0.522,0.522-0.556,1.799-0.595,2.467c0.478-0.045,0.97-0.211,1.438-0.321c0.525-0.123,0.146-1.078,0.074-1.543
	c-0.032-0.201-0.052-1.216-0.237-1.312C52.651,23.627,52.258,24.118,52.213,24.336z M66.642,22.352c0,0.247,0.767,0.577,0.767,0.879
	c0.271,0.272,0.926,1.197,1.274,0.964c0.295-0.11,0.588-0.219,0.886-0.318c0.309-0.103,0.063-0.375,0.002-0.583
	c-0.115-0.388-0.157-0.579-0.235-1.111c-0.047,0.042-0.094,0.042-0.142,0c0.021,0.042,0.074-0.513,0.058-0.623
	c-0.355,0-0.744,0.21-1.097,0.311C67.907,21.94,66.754,22.127,66.642,22.352z M77.612,23.797c0.048,0.167,0.142,0.299,0.283,0.397
	c0.129-0.316-0.969-3.657-1.162-3.657c-0.687,0.553-0.481,0.902-0.057,1.588C76.969,22.638,77.186,23.371,77.612,23.797z
	 M62.531,24.705c1.919-0.274,3.883-0.077,5.784-0.369c-0.29-0.382-0.681-0.768-1.021-1.105c-0.142-0.19-0.343-0.343-0.499-0.521
	c-0.125-0.093-0.232-0.203-0.322-0.33c-0.076,0.06-0.161,0.078-0.255,0.057c0.03-0.078,0.087-0.125,0.17-0.142
	c-0.32-0.422-0.327-0.453-0.709-0.198c-0.429,0.268-0.889,0.662-1.247,1.021C64.142,23.261,62.531,24.405,62.531,24.705z
	 M66.16,21.672c-0.196,0,0.04,0.218,0.057,0.227C66.198,21.823,66.179,21.748,66.16,21.672z M65.536,21.586
	c-0.893,0-1.15,1.219-2.014,1.219c-0.133,0.138-0.62,0.249-0.821,0.369c-0.664,0.221-0.544,0.925-0.623,1.559
	c0.318,0.055,1.273-0.879,1.529-1.133c0.566-0.293,1.5-1.063,1.872-1.56c-0.233,0.059-0.437,0.2-0.681,0.227
	c-0.046-0.143,0.935-0.401,1.049-0.538c0-0.297-0.707,0.209-0.879,0.141C65.064,21.729,65.412,21.669,65.536,21.586z M76.563,20.197
	c-0.144,0.097-0.879,0.728-0.879,0.851C75.859,21.163,76.489,20.321,76.563,20.197z M75.344,20.396c0,0.243,0.256,0.048,0.256-0.085
	C75.502,20.3,75.417,20.329,75.344,20.396z M65.905,21.559c0,0.212,0.205-0.019,0.228-0.086
	C66.056,21.501,65.98,21.53,65.905,21.559z M76.081,20.084c-0.13-0.032-0.335,0.039-0.255,0.198
	C75.916,20.223,76.002,20.157,76.081,20.084z M64.289,22.153c0.119,0,0.566-0.473,0.68-0.567
	C64.56,21.177,64.289,21.77,64.289,22.153z M66.812,21.161c-0.038,0.028-0.075,0.057-0.112,0.085
	C66.754,21.24,66.792,21.212,66.812,21.161z M64.772,21.303c0.147,0.125,0.317,0.172,0.511,0.143
	C65.2,21.311,64.872,20.99,64.772,21.303z M69.533,20.707c-0.995,0-2.186,0.585-2.952,1.219c-0.575,0.475,0.401,0.197,0.619,0.128
	c0.442-0.141,0.887-0.282,1.333-0.414c0.229-0.068,0.457-0.133,0.688-0.196c-0.009-0.189-0.019-0.379-0.027-0.568
	c0.057-0.171,0.836-0.281,0.992-0.34C70.186,20.15,69.575,20.687,69.533,20.707z M67.975,20.764
	c0.021-0.068,0.068-0.105,0.142-0.113c-0.142,0-0.646,0.291-0.708,0.539c0.563-0.13,1.09-0.381,1.644-0.539
	C68.919,20.247,68.269,20.825,67.975,20.764z M70.724,20.254c-0.116,0.017-0.528,0.256-0.511,0.256
	c0.199-0.008,0.388-0.055,0.566-0.143C70.739,20.343,70.72,20.305,70.724,20.254z M68.172,20.594c0.23,0.034,0.467-0.109,0.681-0.17
	C68.853,20.311,68.171,20.594,68.172,20.594z M66.5,20.68c0.008,0.115,0.025,0.229,0.057,0.34
	C67.244,20.848,66.653,20.448,66.5,20.68z M75.146,19.488c0,0.115,0.883-0.057,0.992-0.084
	C75.865,19.334,75.402,19.386,75.146,19.488z M65.055,20.68c0.481,0.266,0.441,0.893,1.076,0.51
	c-0.056-0.343,0.112-0.541-0.308-0.539C65.568,20.652,65.31,20.653,65.055,20.68z M68.513,20.197
	C68.316,20.197,68.579,20.331,68.513,20.197C68.485,20.197,68.513,20.197,68.513,20.197z M67.01,20.793
	c0.064-0.065,0.273-0.461,0.039-0.461C66.833,20.332,66.961,20.719,67.01,20.793z M66.812,20.339
	c-0.047,0.038-0.095,0.076-0.142,0.114C66.658,20.453,67,20.433,66.812,20.339z M66.188,20.424c0.059,0.318,0.057,0.643,0.086,0.964
	C66.579,21.312,66.407,20.211,66.188,20.424z M64.544,20.51c0.063,0.05,0.11,0.04,0.142-0.029
	C64.628,20.446,64.581,20.456,64.544,20.51z M62.333,22.777c0.2,0.064,0.695-0.313,0.872-0.401c0.269-0.135,0.885,0.198,0.885-0.223
	c0.141-0.409,0.291-0.74,0.617-1.03c0.408-0.361,0.459,0.19,0.83,0.264c-0.22-0.365-0.471-0.681-0.911-0.696
	c-0.646-0.022-1.338-0.072-1.981-0.012C62.569,20.68,62.31,22.644,62.333,22.777z M64.26,20.537c0.13-0.062,0.284-0.027,0.284-0.227
	C64.425,20.355,64.33,20.431,64.26,20.537z M73.048,19.233c-0.143-0.015-0.274,0.013-0.397,0.085
	C72.783,19.29,72.915,19.262,73.048,19.233z M73.332,19.177c-0.06,0.006-0.118,0.013-0.178,0.021
	C73.198,19.191,73.287,19.22,73.332,19.177z M74.834,19.007c0-0.124,0,1.431,0.085,1.389c-0.203,0.103-0.297-1.156-0.313-1.247
	c-0.899,0.05-1.77,0.2-2.649,0.375c-0.858,0.17-1.809,0.674-2.681,0.674c0,0.65,1.228,0.011,1.562-0.084
	c0.367-0.104,1.101-0.438,1.502-0.342c-0.008,0.058-0.019,0.114-0.029,0.171c-0.538,0.182-0.921,0.007-1.474,0.283
	c0.021,0.036,0.029,0.073,0.028,0.113c0.356,0,3.686-0.849,3.686-0.765c0.031,0.097-0.922,0.232-1.021,0.283
	c0,0.373-0.457,0.257-0.254,0.057c-0.11,0.019-1.125,0.275-1.103,0.305c-0.166-0.219-0.643,0.234-0.77,0.234
	c-0.392,0-2.243,0.156-2.069,0.878c0.095,0.047,0.34-0.086,0.426,0c-0.069,0.14-0.297,0.07-0.396,0.171
	c0,0.188,0.162,0.345,0.178,0.432c-0.146,0.114-0.16,0.268-0.046,0.46c0.008,0.054,0.209,0.436,0.21,0.428
	c-0.063,0.453-0.023,1.03,0.622,0.749c0.491-0.196,0.991-0.376,1.445-0.652c0.22-0.097,1.059-0.675,1.275-0.566
	c-0.126,0.118-0.269,0.212-0.425,0.283c0.022,0.064,0.031,0.131,0.026,0.199c-0.074-0.02-0.122-0.067-0.141-0.143
	c-0.056,0.034-0.065,0.082-0.029,0.143c-0.098,0.066-0.576,0.148-0.77,0.237c-0.313,0.144-0.741,0.451-0.959,0.556
	c-0.049-0.044-0.105-0.063-0.17-0.057c-0.015,0.056-0.023,0.112-0.028,0.17c-0.065-0.006-0.104-0.044-0.114-0.113
	c-0.184,0.066-0.361,0.142-0.538,0.227c0.11,0.44,0.483,0.303,0.737,0c0.22,0.146,1.278-0.551,1.488-0.666
	c0.371-0.203,2.972-1.847,2.99-1.829c-0.193,0.387-1.018,0.848-1.389,1.042c-0.489,0.256-0.961,0.55-1.446,0.814
	c-0.372,0.203-0.757,0.364-1.135,0.553c-0.45,0.3-0.547,0.217-1.076,0.481c0.229,0.476,2.299-0.843,2.701-1.063
	c0.327-0.178,0.804-0.381,1.068-0.638c0.151-0.157,0.684-0.625,0.907-0.625c0.089,0.269-1.892,1.312-2.117,1.445
	c-0.198,0.116-2.11,0.955-2.05,1.135c0.821-0.118,1.764-0.852,2.467-1.268c0.603-0.356,1.17-0.75,1.729-1.169
	c0.113,0,0.407-0.377,0.488-0.457c0.328-0.319,0.417-0.389,0.149-0.779c-0.385-0.56-0.368-1.208-0.439-1.854
	C74.929,18.988,74.881,18.998,74.834,19.007z M73.389,19.177c0.398-0.031,0.795-0.081,1.189-0.142
	C74.185,19.035,73.77,19.073,73.389,19.177z M68.201,19.771c-0.109,0.066-1.015,0.551-0.908,0.709
	C67.626,20.287,67.943,20.059,68.201,19.771z M76.336,18.723c-0.075,0.047-0.151,0.095-0.228,0.143
	C76.209,18.965,76.336,18.774,76.336,18.723z M60.717,20.68c-0.071,0.293,0.2,0.956,0.279,1.253c0.12,0.447,0.226,0.901,0.316,1.354
	c0.747-0.28,0.642-0.68,0.73-1.411c0.044-0.363,0.053-0.757,0.141-1.111C62.218,20.63,60.886,20.669,60.717,20.68z M66.359,21.869
	c0.092,0.031,1.275-0.97,1.275-1.189c0.372-0.124,0.578-0.679,0.944-0.782c0.222-0.063,0.407,0.556,0.672,0.556
	c-0.157-0.188-0.398-0.708-0.652-0.795c-0.181,0.154-1.104,0.853-1.104,1.049c-0.191,0-0.631,0.591-0.76,0.712
	C66.379,21.754,66.523,21.384,66.359,21.869z M77.187,18.609c-0.145,0-0.414,0.217-0.511,0.313
	C76.798,18.922,77.11,18.687,77.187,18.609z M63.92,20.537c0.161,0.055,0.461-0.207,0.54-0.312
	C64.459,20.21,63.92,20.397,63.92,20.537z M62.219,20.453c-0.038,0.019-0.076,0.038-0.113,0.057
	C62.239,20.638,62.219,20.506,62.219,20.453z M63.608,20.537c0.168,0.083,0.628-0.337,0.738-0.425
	C64.346,20,63.654,20.501,63.608,20.537z M61.227,20.453c-0.057,0.028-0.113,0.056-0.17,0.084
	C61.177,20.599,61.195,20.478,61.227,20.453z M74.834,18.837c0.099,0.016,0.154-0.022,0.17-0.114
	C74.948,18.761,74.891,18.799,74.834,18.837z M76.365,18.894c0.131,0.052,0.736-0.306,0.736-0.454
	C76.953,18.458,76.418,18.732,76.365,18.894z M61.822,20.51c0.106,0.053,0.427-0.133,0.427-0.256
	C62.09,20.312,61.948,20.397,61.822,20.51z M76.365,18.752c0.115-0.04,0.396-0.224,0.453-0.34
	C76.703,18.412,76.365,18.596,76.365,18.752z M63.325,20.537c0.235-0.028,0.759-0.371,0.906-0.566
	C64.075,19.971,63.383,20.308,63.325,20.537z M76.053,18.723c0.122-0.023,0.426-0.202,0.482-0.311
	C76.421,18.389,76.08,18.613,76.053,18.723z M75.996,18.553c0.085-0.047,0.17-0.094,0.255-0.141
	C76.145,18.42,76.06,18.467,75.996,18.553z M74.438,18.865c0.207,0.03,0.481-0.178,0.481-0.34
	C74.749,18.625,74.588,18.738,74.438,18.865z M62.248,20.056c-0.235,0.117-0.466,0.267-0.652,0.454
	C61.708,20.51,62.248,20.184,62.248,20.056z M63.013,20.51c0.28,0.054,0.922-0.496,1.076-0.682
	C63.797,19.828,63.253,20.328,63.013,20.51z M59.924,20.453c0.112,0,0.199-0.075,0.227-0.171
	C60.074,20.339,59.999,20.396,59.924,20.453z M74.097,18.894c0.223,0,0.585-0.3,0.737-0.454
	C74.58,18.478,74.275,18.688,74.097,18.894z M73.276,19.035c0.226,0,0.718-0.362,0.851-0.539
	C73.889,18.496,73.413,18.868,73.276,19.035z M73.729,18.95c0.113-0.022,0.736-0.349,0.736-0.481
	C74.389,18.392,73.756,18.869,73.729,18.95z M72.85,19.12c0.3,0,0.707-0.404,0.937-0.567C73.566,18.465,72.953,18.948,72.85,19.12z
	 M72.481,19.177c0.171,0,0.908-0.455,0.908-0.624C73.316,18.53,72.541,19.056,72.481,19.177z M72.056,19.262
	c0.405-0.067,0.724-0.496,1.049-0.68C72.766,18.729,72.325,18.992,72.056,19.262z M71.659,19.375c0.325,0,0.909-0.599,1.161-0.766
	C72.621,18.665,71.659,19.149,71.659,19.375z M62.73,20.51c0.19-0.028,1.246-0.587,1.246-0.822
	C63.758,19.688,62.888,20.295,62.73,20.51z M71.149,19.461c0.271,0.037,1.274-0.597,1.361-0.852
	C72.13,18.609,71.47,19.23,71.149,19.461z M60.746,20.48c0.161,0.108,0.718-0.406,0.821-0.51
	C61.323,20.05,60.905,20.266,60.746,20.48z M70.724,19.602c0.207,0,1.445-0.849,1.445-0.992
	C71.971,18.609,70.8,19.375,70.724,19.602z M59.611,20.453c0.124,0.03,0.471-0.189,0.512-0.313
	C60.052,20.07,59.649,20.378,59.611,20.453z M71.886,18.639c-0.42,0.081-1.314,0.748-1.587,1.076
	C70.558,19.715,71.782,18.846,71.886,18.639z M71.603,18.666c-0.483,0.284-1.439,0.71-1.758,1.191
	C70.096,19.899,71.514,18.844,71.603,18.666z M62.304,19.801c-0.341,0.136-0.685,0.493-1.021,0.68
	C61.459,20.511,62.363,19.975,62.304,19.801z M60.66,20.367c0.142,0.047,0.6-0.344,0.681-0.425
	C61.257,19.957,60.66,20.175,60.66,20.367z M69.307,20.027c0.598-0.149,1.693-0.951,2.068-1.389
	C71.078,18.639,69.307,19.858,69.307,20.027z M62.644,20.424c0.37-0.158,0.972-0.516,1.219-0.85
	C63.732,19.485,62.644,20.279,62.644,20.424z M60.603,20.226c0.175-0.05,0.382-0.21,0.482-0.34
	C60.975,19.886,60.603,20.078,60.603,20.226z M69.108,19.999c0.289-0.145,1.984-1.077,1.984-1.36
	C70.925,18.581,69.108,19.796,69.108,19.999z M69.051,19.857c0.461-0.249,1.46-0.739,1.758-1.191
	C70.769,18.626,69.131,19.624,69.051,19.857z M60.065,19.971c-0.138,0.046-0.629,0.299-0.681,0.453
	C59.635,20.34,59.898,20.151,60.065,19.971z M60.576,20.056c0.103-0.043,0.187-0.11,0.254-0.198
	C60.702,19.868,60.617,19.934,60.576,20.056z M68.909,19.771c0.359-0.116,1.47-0.79,1.645-1.133
	C70.371,18.548,68.877,19.611,68.909,19.771z M61.965,19.886c0.128-0.055,0.251-0.121,0.368-0.198
	c-0.019-0.02-0.037-0.039-0.058-0.057C62.154,19.693,62.05,19.778,61.965,19.886z M62.674,20.197c0.25-0.137,1.02-0.51,1.02-0.766
	C63.511,19.526,62.674,19.968,62.674,20.197z M68.824,19.602c0.206-0.04,1.444-0.833,1.444-0.992
	C69.974,18.609,68.955,19.34,68.824,19.602z M60.547,19.828C60.547,20.015,60.627,19.753,60.547,19.828
	C60.547,19.857,60.547,19.828,60.547,19.828z M68.683,19.488c0.338,0,1.095-0.659,1.304-0.879
	C69.832,18.609,68.683,19.319,68.683,19.488z M59.101,20.424c0.344-0.098,0.645-0.4,0.937-0.596
	C59.882,19.867,59.172,20.211,59.101,20.424z M67.266,20.254c0.362,0,0.978-0.637,1.265-0.822c0.233-0.15,1.103-0.553,1.201-0.85
	c-0.31-0.08-0.682,0.595-0.991,0.595C68.388,19.646,67.621,19.775,67.266,20.254z M62.674,19.971
	c0.157-0.073,0.935-0.473,0.935-0.652C63.408,19.416,62.769,19.731,62.674,19.971z M69.448,18.582c-0.291,0-0.92,0.538-1.155,0.715
	c-0.271,0.203-1.042,0.551-1.17,0.872c0.401-0.08,0.828-0.542,1.162-0.765C68.615,19.075,69.204,18.898,69.448,18.582z
	 M62.333,19.404c-0.214,0.133-0.418,0.279-0.624,0.424C61.859,19.859,62.333,19.577,62.333,19.404z M58.818,20.396
	c0.113,0.113,0.973-0.576,1.076-0.681C59.515,19.853,59.146,20.149,58.818,20.396z M66.472,20.424
	c0.954-0.545,1.846-1.216,2.749-1.842c0-0.065-1.034,0.597-1.115,0.651C67.908,19.364,66.406,20.228,66.472,20.424z M62.701,19.771
	c0.243-0.081,0.665-0.363,0.794-0.566C63.327,19.205,62.787,19.631,62.701,19.771z M66.387,20.254
	c0.537-0.269,1.025-0.653,1.522-0.986c0.265-0.177,0.816-0.439,1-0.715C68.631,18.649,66.387,19.951,66.387,20.254z M58.535,20.367
	c0.063,0.087,1.104-0.55,1.104-0.68C59.301,19.738,58.859,20.149,58.535,20.367z M65.735,20.51c0.472,0,1.241-0.804,1.615-1.06
	c0.24-0.164,1.159-0.954,1.276-0.954c-0.477,0.19-0.94,0.654-1.365,0.938C67.04,19.581,65.735,20.264,65.735,20.51z M58.307,20.367
	c0.396-0.131,0.728-0.488,1.077-0.709C59.166,19.72,58.44,20.103,58.307,20.367z M65.423,20.51c0.294,0.095,1.089-0.689,1.332-0.852
	c0.332-0.16,1.521-0.782,1.644-1.162c-0.37,0-1.009,0.626-1.303,0.822C66.743,19.589,65.56,20.094,65.423,20.51z M56.494,19.942
	c-0.043,0.021-0.081,0.05-0.113,0.085C56.418,19.999,56.456,19.971,56.494,19.942z M62.758,19.545
	c0.206-0.05,0.483-0.27,0.652-0.396C63.41,19.062,62.786,19.406,62.758,19.545z M58.052,20.367c0.402-0.176,0.834-0.47,1.134-0.766
	C59.051,19.625,58.052,20.2,58.052,20.367z M60.178,19.461c-0.008,0.533,1.046,5.357,1.219,5.357
	C61.449,24.8,60.513,19.461,60.178,19.461z M61.482,19.801c0.168,0.082,0.79-0.499,0.907-0.596
	C62.279,19.257,61.482,19.678,61.482,19.801z M65.168,20.51c0.329,0,1.023-0.599,1.247-0.822c0.233-0.163,1.729-0.94,1.729-1.219
	c-0.491,0.19-0.94,0.588-1.372,0.893C66.255,19.727,65.616,20.06,65.168,20.51z M56.607,19.886
	C56.524,19.886,56.493,19.996,56.607,19.886C56.578,19.886,56.607,19.886,56.607,19.886z M57.798,20.339
	c0.204,0.068,0.997-0.629,1.189-0.737C58.805,19.466,57.941,20.231,57.798,20.339z M64.885,20.51
	c0.469-0.117,1.016-0.641,1.402-0.907c0.233-0.162,1.631-0.895,1.631-1.163c-0.394,0-1.332,0.793-1.617,1.078
	C66.029,19.627,64.94,20.225,64.885,20.51z M59.952,19.404c-0.066,0.047-0.133,0.094-0.198,0.141
	C59.82,19.645,60.003,19.506,59.952,19.404z M63.297,18.979c-0.123,0-0.452,0.252-0.51,0.369
	C62.895,19.311,63.297,19.088,63.297,18.979z M57.513,20.311c0.301,0.06,0.98-0.578,1.219-0.736
	C58.563,19.446,57.657,20.168,57.513,20.311z M64.772,20.396c0.201,0.068,2.806-1.695,2.862-1.983
	c-0.269,0.259-0.901,0.663-1.275,0.85C66.005,19.436,64.88,20.058,64.772,20.396z M57.316,20.282
	c0.438-0.125,0.735-0.629,1.162-0.765C58.304,19.532,57.316,20.104,57.316,20.282z M65.225,19.942
	c0.611-0.398,1.771-0.928,2.184-1.53c-0.168-0.126-2.758,1.829-2.75,1.842C64.686,20.366,65.189,19.966,65.225,19.942z
	 M62.389,18.979c-0.239,0.12-1.074,0.533-1.162,0.793C61.637,19.771,62.132,18.979,62.389,18.979z M64.516,20.112
	c-0.007-0.013,2.607-1.435,2.607-1.729c-0.424,0.094-0.844,0.522-1.192,0.758C65.456,19.46,64.979,19.775,64.516,20.112z
	 M62.814,19.148c0.135-0.069,0.257-0.154,0.369-0.255C63.093,18.895,62.853,19,62.814,19.148z M57.145,20.226
	c0.167,0,1.062-0.603,1.105-0.737C58.034,19.384,57.297,20.089,57.145,20.226z M64.403,20.027c0.393,0,2.366-1.768,2.467-1.672
	c-0.446,0-1.147,0.702-1.497,0.95C65.19,19.434,64.465,19.776,64.403,20.027z M56.89,20.197c0.442-0.11,0.787-0.516,1.162-0.736
	C57.908,19.461,56.89,20.061,56.89,20.197z M64.318,19.886c0.257,0.085,2.135-1.235,2.296-1.56
	C66.244,18.326,64.388,19.957,64.318,19.886z M57.798,19.404c-0.266,0.149-0.927,0.464-1.077,0.765
	C56.9,20.059,57.798,19.591,57.798,19.404z M62.814,18.95c0.111-0.029,0.206-0.086,0.284-0.17
	C62.989,18.671,62.814,18.806,62.814,18.95z M64.176,19.744c0.117,0.115,2.106-1.264,2.183-1.418
	C66.104,18.326,64.278,19.434,64.176,19.744z M57.599,19.375c-0.23,0-0.979,0.539-1.078,0.737
	C56.699,19.994,57.599,19.559,57.599,19.375z M62.446,18.752c-0.139,0-1.444,0.834-1.444,0.963
	C61.221,19.76,62.446,18.874,62.446,18.752z M64.062,19.631c0.07,0.07,2.069-1.252,2.013-1.361
	C65.716,18.27,64.208,19.33,64.062,19.631z M57.373,19.348c-0.305,0.073-0.496,0.373-0.767,0.51
	C56.673,19.925,57.342,19.424,57.373,19.348z M62.844,18.695C63.041,18.695,62.844,18.553,62.844,18.695L62.844,18.695z
	 M56.238,19.971c0.319-0.16,0.682-0.37,0.937-0.623C56.909,19.429,56.469,19.74,56.238,19.971z M63.949,19.518
	c0.477,0,1.573-0.922,1.898-1.248C65.848,18.489,63.949,19.05,63.949,19.518z M56.011,19.942c0.203,0.041,0.851-0.507,0.964-0.624
	C56.975,19.276,56.097,19.869,56.011,19.942z M63.836,19.375c0.191,0.05,1.75-1.12,1.729-1.162
	C65.376,18.213,63.836,19.132,63.836,19.375z M55.842,19.857c0.137,0.046,0.907-0.505,0.907-0.596
	C56.511,19.309,55.99,19.67,55.842,19.857z M62.446,18.553c-0.417,0.24-1.472,0.705-1.699,1.162
	C60.996,19.802,62.326,18.744,62.446,18.553z M63.693,19.262c0.383,0,1.386-0.798,1.617-1.077
	C65.107,18.083,63.789,19.118,63.693,19.262z M55.699,19.771c0.228,0.059,0.724-0.436,0.852-0.538
	C56.294,19.233,55.912,19.65,55.699,19.771z M63.608,19.148c0.097,0.048,1.447-0.856,1.447-0.992
	C64.793,18.208,63.693,18.894,63.608,19.148z M56.324,19.205c-0.245,0-0.55,0.321-0.709,0.482
	C55.862,19.564,56.134,19.376,56.324,19.205z M63.523,19.063c0.45-0.281,0.878-0.594,1.306-0.907
	C64.714,18.156,63.437,18.935,63.523,19.063z M62.674,18.383c-0.236,0.178-0.196,1.253-0.238,1.52
	c-0.082,0.522-0.101,1.048-0.188,1.57c-0.069,0.62-0.161,1.236-0.234,1.854c-0.046,0.392-0.294,1.049-0.163,1.436
	C61.978,24.792,62.686,18.383,62.674,18.383z M55.502,19.602c0.167-0.1,0.552-0.241,0.623-0.453
	C55.985,19.121,55.502,19.437,55.502,19.602z M63.382,18.922c0.163-0.041,1.191-0.625,1.191-0.794
	C64.573,18.264,63.507,18.671,63.382,18.922z M62.474,18.326c-0.58,0.15-1.533,0.914-1.956,1.332
	C60.763,19.658,62.474,18.611,62.474,18.326z M55.842,19.148c-0.125,0.069-0.239,0.154-0.34,0.256
	C55.615,19.318,55.73,19.238,55.842,19.148z M63.268,18.809c0.214,0,1.078-0.585,1.078-0.737
	C64.126,18.071,63.337,18.601,63.268,18.809z M55.642,19.148C55.567,19.186,55.567,19.186,55.642,19.148
	C55.615,19.12,55.642,19.148,55.642,19.148z M63.155,18.666c0.116,0.117,0.965-0.514,0.965-0.623
	C63.927,17.995,63.23,18.516,63.155,18.666z M63.013,18.553c0.175,0.088,0.714-0.441,0.85-0.538
	C63.709,18.037,63.084,18.335,63.013,18.553z M62.927,18.439c0.231-0.032,0.5-0.31,0.681-0.453
	C63.517,17.986,62.927,18.267,62.927,18.439z M62.871,18.299c0.199-0.076,0.337-0.225,0.511-0.341
	C63.382,17.949,62.871,18.152,62.871,18.299z M62.674,18.185c0.178,0.025,0.377-0.155,0.453-0.283
	C62.968,17.983,62.817,18.077,62.674,18.185z M60.462,19.545c0.463-0.33,0.943-0.64,1.421-0.947
	c0.275-0.176,0.865-0.419,1.018-0.725C62.703,18.063,60.367,19.265,60.462,19.545z M56.551,18.639
	c-0.152,0.094-0.303,0.188-0.454,0.283C56.271,18.864,56.422,18.77,56.551,18.639z M60.405,19.348
	c0.271,0.087,1.163-0.737,1.417-0.908c0.276-0.205,0.618-0.345,0.822-0.595C62.364,17.845,60.405,19.17,60.405,19.348z
	 M60.263,19.262c0.22,0,0.813-0.502,0.978-0.617c0.288-0.204,0.96-0.478,1.12-0.8C62.141,17.771,60.223,19.142,60.263,19.262z
	 M59.554,19.545c0.881-0.35,1.744-1.16,2.523-1.7c-0.35,0.081-0.813,0.501-1.149,0.729C60.519,18.853,59.856,19.147,59.554,19.545z
	 M56.324,18.525c-0.119,0.028-0.397,0.198-0.454,0.312C56.026,18.739,56.177,18.635,56.324,18.525z M61.851,17.816
	c-0.334,0.066-2.522,1.389-2.522,1.701c0.364,0,0.912-0.586,1.219-0.766C60.951,18.405,61.476,18.167,61.851,17.816z M59.101,19.461
	c0.2,0.064,0.897-0.55,1.088-0.68c0.462-0.314,0.978-0.607,1.406-0.965C61.157,17.926,59.387,19.027,59.101,19.461z M58.818,19.404
	c0.283,0.168,2.213-1.347,2.494-1.588C61.312,17.91,59.034,19.259,58.818,19.404z M56.238,18.383
	c-0.09,0.025-0.166,0.072-0.227,0.143C56.087,18.478,56.162,18.43,56.238,18.383z M56.862,18.27c-0.146,0-0.964,0.597-0.964,0.709
	C56.057,18.873,56.862,18.432,56.862,18.27z M58.619,19.404c0.182,0.058,0.816-0.497,0.939-0.596c0.459-0.37,0.982-0.685,1.47-1.021
	C61.106,18.019,58.715,18.938,58.619,19.404z M58.422,19.375c0.75-0.215,1.728-1.119,2.352-1.587
	C60.462,17.788,58.533,19.027,58.422,19.375z M58.166,19.318c0.318,0.127,2.108-1.34,2.381-1.53
	C59.868,17.97,58.703,18.781,58.166,19.318z M57.344,18.128c-0.22,0.055-0.633,0.322-0.793,0.481
	C56.856,18.527,57.11,18.332,57.344,18.128z M57.968,19.29c0.763-0.153,1.648-1.097,2.268-1.502
	C59.912,17.708,58.175,18.979,57.968,19.29z M57.74,19.262c0.23,0,0.642-0.392,0.82-0.51c0.468-0.308,0.946-0.622,1.392-0.964
	c-0.028,0.009-0.038,0-0.028-0.028C59.301,18.174,58.2,18.655,57.74,19.262z M59.668,17.788c-0.398,0.254-0.782,0.525-1.176,0.783
	c-0.205,0.134-0.846,0.445-0.949,0.662C57.873,19.233,59.563,18.005,59.668,17.788z M57.826,18.015c-0.424,0-1.287,0.709-1.56,1.049
	C56.454,18.98,57.826,18.174,57.826,18.015z M57.373,19.205c0.359-0.09,0.788-0.518,1.08-0.732c0.169-0.124,0.753-0.656,0.96-0.656
	C59.094,17.816,57.55,18.907,57.373,19.205z M57.117,19.177c0.729,0,1.354-1.332,2.041-1.332
	C58.929,17.692,57.298,19.017,57.117,19.177z M56.465,19.092c0.577-0.192,1.239-0.766,1.729-1.134
	C57.983,18,56.465,18.842,56.465,19.092z M56.72,19.12c0.595-0.119,1.232-1.219,1.814-1.219C58.16,17.901,56.947,18.814,56.72,19.12
	z M58.818,17.845c-0.557,0.268-1.525,0.807-1.898,1.304C57.14,19.06,58.818,18.095,58.818,17.845z M56.267,18.355
	c0.621-0.129,1.195-0.396,1.827-0.516c0.848-0.16,1.727-0.19,2.587-0.193c1.507-0.005,3.018,0.194,4.514,0.375
	c1.842,0.222,3.674,0.423,5.528,0.475c1.097,0.142,2.983,0.188,4.025-0.197c-0.182-0.181-1.575,0.097-1.868,0.116
	c-0.601,0.04-1.188,0.074-1.789,0.053c-1.74-0.06-3.479-0.198-5.211-0.408c-1.613-0.196-3.212-0.392-4.831-0.461
	C59.521,17.532,57.637,17.6,56.267,18.355z M74.069,14.868c-0.219,0,0.312,1.663,0.341,1.814c0.629,0.607,0.284,2.543,1.56,2.438
	c0.108-0.145-0.528-1.779-0.709-1.899C75.095,16.729,74.575,15.122,74.069,14.868z M74.551,17.617c0-0.529-0.373-1.297-0.539-1.817
	c-0.051-0.16-0.433-1.123,0.032-1.074c0.271,0.028,0.817,0.928,0.817,1.162c0.092,0.363,0.324,0.729,0.48,1.063
	c0.144,0.305,0.252,0.919,0.483,1.147c0.431,0,0.887,0.026,1.313,0.088c0.651,0.095,0.104,0.621-0.096,0.819
	c0.819,0.615-0.399,0.958-0.058,1.644c0.311,0.855,0.692,1.722,0.906,2.608c0.101,0.244,0.353,0.803,0.117,1.021
	c-0.275,0.257-0.577-0.342-0.682-0.536c-0.431-0.799-0.803-1.712-1.307-2.469c-0.438,0.438-0.904,0.844-1.407,1.205
	c-0.595,0.429-0.733,0.736-0.918,1.46c0.217,0,1.839-0.004,1.337,0.462c-0.354,0.327-1.529,0.898-2.017,0.898
	c-0.308,0.154-0.685,0.07-0.992,0.255c0.124,0.497,0.578,0.917,0.652,1.418c0.092,0.128,0.177,0.26,0.255,0.396
	c0.27-0.179,0.418-0.157,0.708-0.085c0.35,0,0.558,0.194,0.738,0.494c0.355,0.592,0.333,1.564-0.369,1.916
	c-0.355,0.178-0.889,0.07-1.188-0.173c-0.112-0.094-0.208-0.204-0.283-0.33c-0.187-0.407-0.404-0.232-0.79-0.185
	c-0.336,0.042-0.688-0.045-0.688,0.348c-0.063,0.324-0.217,0.627-0.506,0.808c-0.895,0.562-1.532-0.226-1.79-1.007
	c-0.05-0.245-0.061-0.647,0.057-0.878c0.123-0.37-0.101-0.399-0.396-0.646c-0.321-0.267-1.348-1.396-1.758-1.396
	c-0.658,0-1.667,0.432-2.31,0.632c-0.824,0.258-1.684,0.529-2.54,0.671c-0.845,0.211-1.682,0.392-2.539,0.579
	c-0.891,0.194-2.181,0.236-2.987,0.64c-0.636,0.159-0.372,0.852-0.937,1.014c-0.132,0.039-0.715,0.093-0.485-0.252
	c0.208-0.314,0.457-0.193,0.629-0.62c-1.054,0-2.493,0.882-3.479,0.33c-0.431-0.241-0.465-1.001-0.546-1.435
	c-0.285-0.02-1.549,0.228-1.673-0.04c-0.192-0.415,0.8-0.56,1.031-0.645c0.561-0.205,0.598-0.177,0.635-0.769
	c0.048-0.754,0.375-2.713,1.355-2.87c0.839-0.134,1.79,0.516,2.222,1.205c0.185,0.294,0.494,0.635,0.736,0.879
	c0.297,0.445,0.33,0.524,0.822,0.199c1.178-0.64,2.342-1.329,3.554-1.895c0.248-0.116,0.537-0.219,0.726-0.431
	c-0.056-0.195-0.197-0.574-0.197-0.765c-0.16-0.402-0.216-0.937-0.302-1.365c-0.076-0.381-0.022-0.706-0.464-0.706
	c-0.52,0-1.056-0.029-1.582-0.069c-0.58-0.043-1.126-0.06-1.688-0.214c-0.253-0.07-0.876-0.425-1.095-0.425
	c-1.107-0.554,0.484-1.637,1.033-1.831c1.386-0.49,2.809-0.578,4.268-0.578c1.104,0.213,2.354,0.138,3.491,0.284
	c1.293,0.166,2.58,0.306,3.879,0.424c2.187,0,4.318,0.304,6.521-0.085C74.707,17.929,74.641,17.768,74.551,17.617z M44.163,39.955
	l-0.822,0.198l0.085,0.312l0.822-0.198c0.112-0.028,0.197-0.085,0.17-0.198C44.39,39.956,44.276,39.926,44.163,39.955L44.163,39.955
	z M43.965,39.218l-0.794,0.198l0.057,0.256l0.794-0.227c0.085,0,0.113-0.086,0.085-0.143C44.106,39.246,44.021,39.189,43.965,39.218
	L43.965,39.218z M44.389,40.834l-1.077,0.283c-0.17,0.057-0.34-0.057-0.369-0.227l-0.425-1.56c-0.027-0.142,0.059-0.312,0.229-0.368
	l1.075-0.283c0.427-0.113,0.737,0.027,0.853,0.453c0.027,0.113,0,0.255-0.029,0.369c0.113,0.084,0.283,0.17,0.34,0.424
	C45.127,40.38,44.871,40.721,44.389,40.834L44.389,40.834z M47.138,38.65l-0.197,0.652l0.623-0.142L47.138,38.65z M48.386,39.983
	c-0.113,0.028-0.227-0.028-0.313-0.114l-0.197-0.254l-1.049,0.227l-0.086,0.312c-0.028,0.085-0.113,0.198-0.228,0.227
	c-0.17,0.028-0.34-0.085-0.369-0.255c0-0.057,0-0.142,0.029-0.199l0,0l0.453-1.729c0.027-0.113,0.113-0.198,0.227-0.227l0.283-0.057
	c0.114,0,0.229,0.028,0.313,0.113h-0.028l1.134,1.475c0.028,0.027,0.057,0.084,0.057,0.113
	C48.641,39.785,48.556,39.955,48.386,39.983L48.386,39.983z M50.937,37.857l-0.793,0.113l0.058,0.425l0.793-0.113
	c0.112-0.028,0.227-0.085,0.198-0.255C51.164,37.886,51.051,37.828,50.937,37.857L50.937,37.857z M51.731,39.473
	c-0.112,0-0.227-0.027-0.312-0.113l-0.426-0.51l-0.709,0.113l0.057,0.396c0.029,0.17-0.084,0.313-0.228,0.34h-0.026
	c-0.17,0.029-0.313-0.084-0.341-0.254L49.519,37.8c-0.027-0.17,0.085-0.313,0.255-0.34l1.077-0.171
	c0.454-0.057,0.852,0.085,0.937,0.652c0.027,0.312-0.028,0.511-0.198,0.651l0.312,0.369c0.058,0.057,0.058,0.113,0.085,0.17
	C51.986,39.303,51.901,39.445,51.731,39.473L51.731,39.473z M55.302,38.084c-0.227,0.085-0.51,0.255-0.481,0.426
	c0,0.197,0.283,0.283,0.624,0.254c0.142,0,0.283-0.057,0.426-0.141L55.302,38.084z M56.777,38.623c0.085,0.084,0.17,0.17,0.17,0.254
	c0,0.199-0.143,0.341-0.282,0.341c-0.086,0.028-0.17-0.028-0.313-0.142c-0.255,0.198-0.565,0.283-0.85,0.312
	c-0.737,0.058-1.248-0.227-1.306-0.851c-0.057-0.623,0.624-0.879,0.624-0.879c-0.197-0.197-0.425-0.481-0.453-0.736
	c-0.058-0.681,0.453-0.709,0.965-0.766l0.595-0.057c0.17,0,0.341,0.142,0.341,0.313c0.027,0.141-0.114,0.311-0.284,0.311
	l-0.624,0.058c-0.255,0.028-0.34,0.028-0.34,0.113s0.256,0.312,0.396,0.454l0,0c0.313,0.311,0.566,0.538,0.908,0.85
	c0.112-0.142,0.17-0.34,0.396-0.34c0.17-0.029,0.312,0.113,0.312,0.283C57.06,38.311,56.919,38.424,56.777,38.623L56.777,38.623z
	 M60.377,37.092l-0.793,0.028l0.026,0.425l0.794-0.027c0.113,0,0.229-0.057,0.229-0.228C60.603,37.148,60.518,37.092,60.377,37.092
	L60.377,37.092z M60.972,38.793c-0.113,0-0.199-0.057-0.283-0.143l-0.341-0.566l-0.737,0.028l0.029,0.425
	c0,0.143-0.143,0.283-0.284,0.283h-0.027c-0.17,0-0.283-0.113-0.313-0.283l-0.028-1.672c0-0.143,0.113-0.313,0.283-0.313
	l1.105-0.027c0.453,0,0.822,0.17,0.851,0.765c0,0.312-0.113,0.511-0.255,0.624l0.255,0.396c0.028,0.057,0.058,0.113,0.058,0.17
	C61.284,38.65,61.142,38.764,60.972,38.793L60.972,38.793z M64.09,38.736h-1.445c-0.17,0-0.312-0.143-0.312-0.313v-1.615
	c0-0.17,0.17-0.313,0.312-0.313h1.39c0.171,0,0.313,0.143,0.313,0.313s-0.142,0.312-0.313,0.283h-1.105v0.227l0.681,0.029
	c0.143,0,0.284,0.113,0.284,0.254c0,0.17-0.113,0.284-0.284,0.284h-0.681v0.255h1.162c0.143,0,0.285,0.142,0.285,0.283
	C64.374,38.594,64.232,38.736,64.09,38.736L64.09,38.736z M66.5,38.877c-0.623-0.027-1.275-0.254-1.275-0.595
	c0.028-0.283,0.313-0.283,0.313-0.283c0.057,0,0.112,0.028,0.142,0.057c0.313,0.198,0.681,0.227,0.851,0.255
	c0.171,0,0.454-0.057,0.454-0.198c0-0.113-0.113-0.142-0.198-0.17c-0.198,0-0.426-0.028-0.623-0.028
	c-0.567-0.028-0.822-0.369-0.794-0.737c0-0.34,0.255-0.708,1.076-0.681c0.482,0.029,0.992,0.256,0.992,0.511
	c0,0.198-0.17,0.283-0.313,0.255c-0.058,0-0.084-0.028-0.142-0.057c-0.143-0.057-0.341-0.17-0.624-0.17
	c-0.171,0-0.396,0.057-0.396,0.17c0,0.113,0.143,0.17,0.256,0.17c0.17,0.029,0.368,0.057,0.538,0.057
	c0.511,0.029,0.851,0.199,0.822,0.709C67.577,38.566,67.237,38.906,66.5,38.877L66.5,38.877z M70.156,37.375l-0.452-0.027
	l-0.113,1.359c0,0.17-0.142,0.284-0.313,0.284l0,0c-0.17-0.028-0.282-0.171-0.282-0.312l0.086-1.39l-0.454-0.028
	c-0.143,0-0.284-0.142-0.284-0.312h0.029c0-0.17,0.142-0.284,0.282-0.284l1.531,0.114c0.17,0,0.283,0.142,0.283,0.312l0,0
	C70.44,37.262,70.326,37.375,70.156,37.375L70.156,37.375z M72.34,37.688l-0.369,0.538l0.623,0.085L72.34,37.688z M73.133,39.331
	c-0.113-0.028-0.227-0.113-0.255-0.227l-0.113-0.284l-1.077-0.113l-0.17,0.284c-0.057,0.085-0.17,0.142-0.283,0.142
	c-0.171-0.028-0.283-0.17-0.283-0.34c0.027-0.029,0.057-0.143,0.085-0.17l0,0l0.936-1.531c0.057-0.113,0.17-0.142,0.283-0.142
	l0.283,0.028c0.112,0,0.228,0.085,0.256,0.198l0,0l0.651,1.729c0,0.028,0.027,0.085,0,0.142
	C73.446,39.189,73.303,39.331,73.133,39.331L73.133,39.331z M75.317,39.615c-0.766-0.113-1.021-0.567-0.936-1.105l0.141-1.021
	c0.029-0.17,0.17-0.283,0.313-0.255h0.027c0.171,0.028,0.283,0.171,0.256,0.312l-0.143,1.049c-0.027,0.199,0,0.369,0.425,0.426
	c0.454,0.057,0.512-0.113,0.512-0.283l0.142-1.049c0.028-0.17,0.198-0.256,0.34-0.256h0.029c0.141,0.029,0.254,0.17,0.227,0.34
	l-0.143,1.049C76.449,39.274,76.166,39.729,75.317,39.615L75.317,39.615z M79.143,38.48l-0.766-0.142l-0.085,0.425l0.794,0.143
	c0.113,0.028,0.227-0.029,0.255-0.17C79.369,38.594,79.284,38.51,79.143,38.48L79.143,38.48z M79.398,40.267
	c-0.112-0.028-0.197-0.113-0.255-0.198l-0.227-0.623l-0.709-0.114l-0.085,0.397c-0.028,0.17-0.17,0.255-0.341,0.227h-0.027
	c-0.144-0.029-0.256-0.17-0.228-0.34l0.312-1.645c0.029-0.143,0.171-0.256,0.341-0.227l1.077,0.17
	c0.453,0.085,0.793,0.34,0.68,0.936c-0.057,0.283-0.196,0.453-0.396,0.566l0.198,0.426c0.027,0.057,0.027,0.113,0,0.17
	C79.709,40.182,79.569,40.295,79.398,40.267L79.398,40.267z M82.006,39.218l-0.454,0.511l0.624,0.141L82.006,39.218z M82.601,40.947
	c-0.113-0.029-0.227-0.113-0.227-0.228l-0.085-0.313l-1.049-0.255l-0.199,0.255c-0.058,0.086-0.197,0.143-0.312,0.113
	c-0.171-0.027-0.256-0.198-0.228-0.368c0-0.057,0.057-0.113,0.085-0.17l0,0l1.104-1.39c0.113-0.113,0.228-0.141,0.341-0.113
	l0.256,0.057c0.112,0.029,0.197,0.143,0.227,0.227l0,0l0.426,1.787c0.027,0.057,0.027,0.113,0,0.141
	C82.912,40.861,82.742,40.976,82.601,40.947L82.601,40.947z M85.521,41.713h-0.085c-0.086-0.029-0.17-0.086-0.199-0.171
	c-0.227-0.538-0.34-0.851-0.565-1.36l-0.283,0.936c-0.028,0.142-0.199,0.227-0.34,0.198h-0.029
	c-0.141-0.057-0.227-0.227-0.198-0.368l0.454-1.646c0.058-0.142,0.228-0.255,0.368-0.198l0.113,0.028
	c0.085,0.028,0.142,0.085,0.198,0.17l0.566,1.305l0.255-0.879c0.028-0.17,0.199-0.256,0.341-0.199h0.028
	c0.142,0.029,0.228,0.199,0.197,0.34l-0.453,1.645C85.832,41.684,85.662,41.77,85.521,41.713L85.521,41.713z M88.894,41.061
	l-0.425-0.143l-0.454,1.305c-0.057,0.142-0.198,0.227-0.368,0.17h-0.027c-0.143-0.057-0.229-0.227-0.17-0.369l0.452-1.303
	l-0.452-0.143c-0.143-0.057-0.229-0.227-0.172-0.368v-0.028c0.058-0.142,0.229-0.227,0.369-0.17l1.445,0.482
	c0.143,0.057,0.227,0.227,0.17,0.367v0.029C89.205,41.032,89.064,41.117,88.894,41.061L88.894,41.061z"/>
</svg>
