<?xml version="1.0" encoding="utf-8"?>
<!-- Generator: Adobe Illustrator 16.0.0, SVG Export Plug-In . SVG Version: 6.00 Build 0)  -->
<!DOCTYPE svg PUBLIC "-//W3C//DTD SVG 1.1//EN" "http://www.w3.org/Graphics/SVG/1.1/DTD/svg11.dtd">
<svg version="1.1" id="Слой_1" xmlns="http://www.w3.org/2000/svg" xmlns:xlink="http://www.w3.org/1999/xlink" x="0px" y="0px"
	 width="127.559px" height="85.039px" viewBox="0 0 127.559 85.039" enable-background="new 0 0 127.559 85.039"
	 xml:space="preserve">
<path fill="#979898" d="M39.607,39.004c3.16,0,5.728-2.565,5.728-5.726c0-3.161-2.566-5.726-5.728-5.726
	c-3.158,0-5.726,2.565-5.726,5.726C33.881,36.439,36.448,39.004,39.607,39.004z M39.622,29.074c2.204,0,3.985,1.885,3.985,4.204
	c0,2.319-1.781,4.204-3.985,4.204c-2.203,0-3.986-1.885-3.986-4.204C35.636,30.959,37.419,29.074,39.622,29.074z M47.71,27.843
	v10.872h10.872v-1.522h-9.133v-9.35H47.71z M63.105,38.715v-5.219l4.566-5.653H65.57l-3.334,4.146l-3.334-4.146H56.8l4.565,5.653
	v5.219H63.105z M80.139,38.715V27.64l-5.437,5.639l-5.437-5.639v11.075h1.739v-6.943l3.696,3.898l3.696-3.898v6.943H80.139
	L80.139,38.715z M90.575,27.843h-7.771v10.872h1.739v-4.668h6.03c1.71,0,3.103-1.392,3.103-3.102
	C93.678,29.22,92.285,27.843,90.575,27.843z M90.575,32.525h-6.03v-3.161h6.03c0.754,0,1.361,0.711,1.361,1.581
	C91.938,31.814,91.329,32.525,90.575,32.525z M39.318,57.486c3,0,5.437-2.437,5.437-5.437v-5.727h-1.739v5.727
	c0,2.159-1.652,3.914-3.696,3.914s-3.695-1.755-3.695-3.914h-1.74C33.882,55.051,36.317,57.486,39.318,57.486z M47.652,46.324v8.438
	c0,1.508,1.218,2.725,2.726,2.725c1.493,0,2.711-1.217,2.711-2.725v-8.438h-1.739v8.438c0,0.666-0.435,1.203-0.972,1.203
	c-0.551,0-0.985-0.537-0.985-1.203v-8.438H47.652z M55.987,46.121v11.074h1.74v-7.522l9.132,7.728V46.324H65.12v7.523L55.987,46.121
	z M71.499,57.195V46.324H69.76v10.871H71.499z M74.399,48.745v6.017c0,1.508,1.219,2.725,2.727,2.725c1.492,0,2.71-1.217,2.71-2.725
	v-6.017c0-1.493-1.218-2.71-2.71-2.71C75.616,46.035,74.399,47.252,74.399,48.745z M78.095,48.745v6.017
	c0,0.666-0.435,1.203-0.971,1.203c-0.551,0-0.986-0.537-0.986-1.203v-6.017c0-0.651,0.437-1.188,0.986-1.188
	C77.66,47.557,78.095,48.094,78.095,48.745z M93.678,49.427c0-1.71-1.392-3.103-3.103-3.103h-7.771v10.871h1.739v-4.668h2.813
	l4.131,4.668h2.189l-4.117-4.668h1.016C92.286,52.527,93.678,51.137,93.678,49.427z M84.545,51.007v-3.159h6.03
	c0.754,0,1.361,0.709,1.361,1.579s-0.607,1.58-1.361,1.58H84.545z M93.677,23.223H33.882v1.63h59.795V23.223z M93.677,41.704H33.882
	v1.631h59.795V41.704z M33.882,61.816h59.795v-1.631H33.882V61.816z"/>
</svg>
