<?xml version="1.0" encoding="utf-8"?>
<!-- Generator: Adobe Illustrator 16.0.0, SVG Export Plug-In . SVG Version: 6.00 Build 0)  -->
<!DOCTYPE svg PUBLIC "-//W3C//DTD SVG 1.1//EN" "http://www.w3.org/Graphics/SVG/1.1/DTD/svg11.dtd">
<svg version="1.1" id="Слой_1" xmlns="http://www.w3.org/2000/svg" xmlns:xlink="http://www.w3.org/1999/xlink" x="0px" y="0px"
	 width="127.559px" height="85.039px" viewBox="0 0 127.559 85.039" enable-background="new 0 0 127.559 85.039"
	 xml:space="preserve">
<path fill="#979898" d="M72.345,30.047c-0.313-0.709-1.077-1.021-1.786-1.049c-0.454-1.049-1.701-1.333-2.807-1.021
	c-0.708,0.17-1.219,0.737-1.587,1.305c0-0.567-0.028-1.162-0.113-1.418c-0.085-0.313-0.737-0.368-1.39-0.34
	c-0.085-0.198-0.255-0.34-0.426-0.426c-0.112-0.027-0.227-0.057-0.34-0.057c-0.112,0.029-0.228,0.057-0.341,0.086
	c-0.312,0.113-0.565,0.368-0.708,0.736c-0.171,0.396-0.228,0.879-0.313,1.361v0.113c-0.368-0.199-0.766-0.34-1.19-0.396
	c-0.936-0.113-1.898,0.057-2.692,0.51c-0.596,0.34-1.189,0.822-1.475,1.445c-0.312,0.624-0.708,1.956-0.057,2.722
	c0.794,0.794,1.956,0.935,2.92,0.567l-0.028,0.084c-0.396,0.908-0.566,1.645-0.566,2.637c-0.028,1.389,0.341,2.721,1.673,3.486
	c1.189,0.766,3.032,1.021,4.422,0.369c0.511-0.199,1.049-0.624,1.444-1.078c0.397-0.453,0.624-0.963,0.737-1.189
	c0.198-0.482,0.652-1.503,0.652-2.41c0-0.736-0.143-1.531-0.313-2.268c-0.057-0.256-0.143-0.482-0.228-0.737
	c0-0.057-0.028-0.113-0.058-0.198c0.397,0.51,1.05,0.737,1.844,0.539c0.821-0.199,1.389-0.879,1.502-1.332
	c0.113-0.482,0.113-0.795,0.143-1.021c0.538,0.17,0.992,0.596,1.445,0.992C72.855,31.35,72.628,30.642,72.345,30.047L72.345,30.047z
	 M69.283,31.35c0.425-0.254,1.161-0.057,1.389,0.143c0.255,0.227,0.113,0.596-0.057,0.879c-0.228,0.283-0.539,0.51-0.88,0.623
	C69.793,32.428,69.68,31.775,69.283,31.35L69.283,31.35z M67.865,31.039c-0.028-0.369,0.396-0.879,0.736-1.049
	c0.113,0.283,0.34,0.623,0.511,0.878c-0.086,0.142-0.313,0.171-0.453,0.198C68.518,31.066,68.065,31.066,67.865,31.039
	L67.865,31.039z M68.886,31.209c0.113,0.027,0.256,0.255,0.256,0.312c-0.284,0.198-1.049,0.227-1.39,0.227
	c-0.085-0.227,0-0.397,0.085-0.511C67.95,31.236,68.433,31.266,68.886,31.209L68.886,31.209z M68.801,29.904
	c0,0,0.198-0.198,0.454-0.312c0.227-0.113,0.48-0.17,0.48-0.17c0.171,0.283,0.228,0.821,0.228,1.134
	c-0.198,0.113-0.481,0.198-0.68,0.227C69.085,30.613,68.858,30.217,68.801,29.904L68.801,29.904z M67.752,31.889
	c0.481,0,0.964,0,1.475-0.255c0,0,0.17,0.227,0.228,0.425c0.085,0.283,0.112,0.709,0.057,1.078
	C68.433,33.477,67.95,32.824,67.752,31.889L67.752,31.889z M59.361,33.986c-0.027-0.368,0.058-0.736,0.229-1.134
	c0.113-0.057,0.312-0.085,0.48-0.085c0.256,0.17,0.566,0.396,0.737,0.539C60.523,33.731,59.872,33.986,59.361,33.986L59.361,33.986z
	 M60.013,31.832c-0.255,0.198-0.709,0.113-0.907,0.028c-0.227-0.057-0.197-0.255-0.112-0.396c0.227-0.341,0.596-0.624,1.021-0.652
	C60.013,30.812,59.9,31.549,60.013,31.832L60.013,31.832z M60.325,32.03c-0.028,0.198-0.171,0.482-0.538,0.539
	c-0.709,0.057-0.822-0.539-0.822-0.539C59.702,32.285,60.325,32.03,60.325,32.03L60.325,32.03z M60.155,30.783
	c0.143-0.085,0.341-0.057,0.481,0c-0.027,0.283-0.255,0.709-0.425,0.964C60.212,31.747,60.07,31.236,60.155,30.783L60.155,30.783z
	 M60.864,31.066c0.228-0.027,0.368,0.227,0.453,0.397c0.17,0.566-0.057,1.219-0.34,1.673c-0.227-0.171-0.481-0.313-0.766-0.454
	c0.368-0.228,0.312-0.595,0.283-0.907C60.495,31.492,60.609,31.123,60.864,31.066L60.864,31.066z M58.625,33.958
	c0.057-0.425,0.255-0.851,0.538-1.19c0.085,0,0.17,0.028,0.255,0.113c-0.17,0.313-0.313,1.105-0.313,1.105
	C58.851,34.071,58.625,33.958,58.625,33.958L58.625,33.958z M57.122,32.285c0.481-0.312,0.906-0.453,1.475-0.312
	c0,0,0.057,0.255,0.142,0.368c0.086,0.143,0.228,0.284,0.228,0.284c-0.228,0.425-0.425,0.794-0.566,1.247
	c-0.313,0-0.851-0.198-1.135-0.623C57.037,32.881,57.122,32.285,57.122,32.285L57.122,32.285z M59.504,29.451
	c0.198,0.255,0.453,0.793,0.453,1.105c-0.482,0.113-1.162,0.652-1.36,1.134c-0.454-0.028-1.021,0.113-1.446,0.283
	c0.17-1.021,0.567-1.559,1.332-2.069C58.795,29.678,59.191,29.508,59.504,29.451L59.504,29.451z M60.325,29.934
	c0,0.283-0.028,0.453-0.143,0.566c-0.085-0.369-0.312-0.879-0.396-1.105c0.142-0.086,0.282-0.113,0.367-0.086
	C60.212,29.479,60.297,29.734,60.325,29.934L60.325,29.934z M61.091,30.67c-0.255-0.028-0.538-0.085-0.681-0.198
	c0.17-0.312,0.112-0.851-0.028-1.19c0.228-0.086,0.879-0.113,1.162,0.084C61.629,29.848,61.43,30.301,61.091,30.67L61.091,30.67z
	 M62.479,29.678c-0.085,0.369-0.17,0.766-0.312,1.077c-0.028,0.085-0.085,0.198-0.113,0.284c-0.142,0.113-0.255,0.197-0.369,0.311
	c-0.026,0.057-0.057,0.086-0.085,0.114c-0.057-0.284-0.198-0.511-0.34-0.737c0.539-0.539,0.596-1.332,0.596-1.332
	C62.026,29.451,62.253,29.536,62.479,29.678L62.479,29.678z M62.677,29.819c0.029,0,0.058,0.028,0.086,0.028l-0.228,0.822l0,0v0.028
	V30.67c-0.028,0.028-0.058,0.057-0.113,0.085C62.564,30.472,62.621,30.131,62.677,29.819L62.677,29.819z M64.407,27.523
	c-0.058,0-0.086,0.028-0.143,0.028c-0.255,0-0.566,0.028-0.794,0.198c-0.227,0.17-0.255,0.426-0.283,0.567l-0.34,1.219
	c-0.028,0-0.057-0.028-0.113-0.057c0.028-0.085,0.028-0.142,0.058-0.228c0.057-0.453,0.142-0.935,0.283-1.303
	c0.112-0.284,0.312-0.482,0.565-0.596c0.085-0.028,0.171-0.057,0.256-0.057s0.17,0,0.255,0.028
	C64.237,27.382,64.323,27.438,64.407,27.523L64.407,27.523z M66.194,30.557L66.194,30.557c0.965,0.736,1.56,2.607,1.785,4.025
	c0.086,0.596,0.171,1.332,0.058,2.012c-0.085,0.709-0.681,2.268-1.332,2.949c-0.623,0.68-1.332,1.076-2.126,1.246
	c-0.369,0.057-0.737,0.086-1.106,0.057c-0.227-0.906-0.198-0.879-0.198-0.879V39.94c0.028,0,0.085-0.029,0.113-0.086l0,0
	c0.085-0.057,0.198-0.197,0.283-0.311c0.085-0.114,0.143-0.228,0.228-0.284l-0.198-0.227c-0.113,0.085-0.198,0.198-0.283,0.312
	c-0.085,0.114-0.143,0.227-0.228,0.283l0,0c0,0.029,0.028,0.057,0,0.029l-0.027-0.029c-0.341-0.198-0.396-0.566-0.396-0.566
	l-0.313,0.028c0.057,0.368,0.313,0.681,0.596,0.851c0,0.17,0,0.453,0.113,0.879c-1.05-0.113-1.956-0.567-2.693-1.332
	c-1.077-1.305-0.935-3.374-0.368-4.934c0.085-0.17,0.143-0.311,0.198-0.48c0.596-0.283,1.021-0.794,1.189-1.389
	c0.143-0.368,0.172-0.681,0.143-0.964c0.057-0.085,0.114-0.142,0.171-0.198c0.028-0.028,0.057-0.085,0.113-0.114
	c-0.198,0.539-0.34,1.135-0.482,1.787c-0.227,0.992-0.396,2.068-0.48,2.976c-0.085,0.028-0.143,0.057-0.198,0.114
	c-0.114,0.17-0.085,0.396,0.027,0.481c-0.027,0.057-0.057,0.113-0.085,0.17c-0.027,0.113-0.085,0.227-0.142,0.312
	c-0.058,0.086-0.086,0.143-0.114,0.199c-0.085,0.113-0.17,0.197-0.17,0.311c0,0.143,0.113,0.228,0.368,0.143
	c0.058-0.028,0.114-0.028,0.171-0.028c0.058,0,0.113,0,0.198,0.028c0.142,0.085,0.227,0.085,0.283-0.028
	c0-0.057,0-0.085-0.028-0.142c-0.057-0.113-0.113-0.283-0.085-0.539c0.028-0.142,0.028-0.283,0.057-0.396l0,0
	c0.085-0.086,0.17-0.256,0.058-0.453c0-0.057-0.058-0.086-0.085-0.114c0.085-0.907,0.227-1.983,0.454-2.976
	c0.17-0.822,0.396-1.588,0.623-2.154c0.142-0.113,0.255-0.199,0.367-0.256l3.432-0.283h0.111V30.557z M66.335,29.706
	c0.51,0.085,1.134,0.681,1.219,0.936c0.057,0.454-0.227,0.708-0.198,1.077c0,0.028,0,0.028,0,0.057
	c-0.255-0.566-0.596-1.134-1.162-1.475c0-0.084,0-0.227,0-0.367c0-0.029,0-0.029,0-0.057C66.25,29.791,66.335,29.706,66.335,29.706
	L66.335,29.706z M66.675,29.111c0.539,0.141,1.19,0.936,1.049,1.36c-0.34-0.454-0.851-0.822-1.304-0.907
	C66.448,29.365,66.562,29.195,66.675,29.111L66.675,29.111z M68.461,29.734c0,0-0.17,0.057-0.283,0.143
	c-0.113,0.084-0.284,0.283-0.284,0.283c-0.142-0.596-0.565-0.965-1.049-1.219c0.058-0.284,0.596-0.652,1.049-0.682
	C68.32,28.544,68.518,29.168,68.461,29.734L68.461,29.734z M69.312,29.309c-0.227,0.086-0.426,0.171-0.624,0.284
	c-0.027-0.567-0.255-0.992-0.48-1.36c0.312-0.113,0.765-0.086,0.992,0.113C69.312,28.516,69.397,28.828,69.312,29.309L69.312,29.309
	z M69.765,29.139l-0.312,0.113c0,0,0.027-0.34,0-0.51c0-0.142-0.085-0.368-0.085-0.368c0.142,0,0.282,0.057,0.396,0.17
	C69.85,28.742,69.822,28.969,69.765,29.139L69.765,29.139z M70.276,28.969c-0.112,0.029-0.256,0.086-0.368,0.143
	c0,0,0.027-0.17,0.027-0.256c0-0.113,0-0.227,0-0.227C70.105,28.686,70.247,28.828,70.276,28.969L70.276,28.969z M70.417,29.848
	c0,0.283-0.085,0.681-0.085,0.681c-0.058,0-0.229,0.028-0.256,0c0-0.368,0-0.794-0.143-1.134c0.113-0.086,0.284-0.17,0.482-0.086
	C70.417,29.309,70.446,29.536,70.417,29.848L70.417,29.848z M70.955,31.066c0.057,0.113,0.027,0.313-0.113,0.369
	c-0.227-0.199-0.737-0.369-1.105-0.396C70.247,30.755,70.7,30.755,70.955,31.066L70.955,31.066z M71.097,29.479
	c-0.085,0.425-0.227,0.737-0.425,1.049c0,0-0.057,0-0.113,0c-0.028,0-0.085-0.028-0.085-0.028c0.057-0.369,0.113-0.794,0.113-1.191
	C70.785,29.281,70.955,29.309,71.097,29.479L71.097,29.479z M72.004,30.217c-0.113,0.198-0.313,0.425-0.538,0.566
	c-0.198,0-0.482-0.142-0.652-0.255c0.198-0.312,0.341-0.624,0.427-0.992C71.551,29.593,71.891,29.877,72.004,30.217L72.004,30.217z
	 M72.43,31.549c-0.199-0.17-0.567-0.453-0.794-0.624c0.227-0.198,0.368-0.368,0.481-0.51C72.317,30.613,72.458,31.209,72.43,31.549
	L72.43,31.549z M64.634,32.285c0.085-0.057,0.171-0.197,0.085-0.34c-0.057-0.142-0.312-0.17-0.425-0.028
	c-0.114,0.113-0.085,0.341,0.027,0.397C64.407,32.371,64.577,32.371,64.634,32.285L64.634,32.285z M64.606,32.088
	c0,0.057-0.027,0.113-0.085,0.141c-0.085,0.029-0.142-0.057-0.17-0.084c0-0.057,0.058-0.143,0.113-0.143
	C64.549,31.974,64.606,32.03,64.606,32.088L64.606,32.088z M63.443,32.088c-0.027-0.114-0.142-0.228-0.282-0.199
	c-0.142,0.029-0.256,0.17-0.256,0.313c0.028,0.141,0.143,0.254,0.313,0.227C63.415,32.371,63.443,32.229,63.443,32.088
	L63.443,32.088z M63.273,32.172c0,0.057-0.057,0.086-0.112,0.113c-0.028,0-0.085-0.027-0.085-0.084
	c-0.028-0.057,0-0.113,0.085-0.113C63.188,32.059,63.245,32.088,63.273,32.172L63.273,32.172z M62.707,30.585l0.65-2.296l0,0
	c0-0.057,0.028-0.057,0.028-0.086c0.028-0.113,0.057-0.227,0.113-0.283l0,0c0.057-0.084,0.17-0.113,0.313-0.17
	c0.283-0.057,0.708-0.113,1.106-0.113c0.425,0.028,0.793,0.085,0.936,0.199c0.027,0.027,0.058,0.057,0.085,0.084
	c0.028,0.17,0.058,0.511,0.085,0.879c0.028,0.596,0.028,1.305,0.028,1.56v0.085h-0.085l-3.175,0.227l-0.114,0.028L62.707,30.585z
	 M61.204,36.226c0.027,0.028,0.085,0.058,0.085,0.114c0.112,0.197,0.027,0.367-0.058,0.453l0,0
	c-0.027,0.113-0.027,0.255-0.057,0.396c-0.028,0.256,0.028,0.426,0.085,0.539c0.028,0.057,0.028,0.085,0.028,0.142
	c-0.058,0.113-0.143,0.113-0.283,0.028c-0.085-0.028-0.143-0.028-0.198-0.028s-0.113,0-0.171,0.028
	c-0.255,0.085-0.368,0-0.368-0.143c0-0.113,0.085-0.197,0.17-0.311c0.028-0.057,0.058-0.113,0.114-0.199
	c0.057-0.085,0.113-0.198,0.142-0.312c0.028-0.057,0.058-0.113,0.085-0.17c-0.112-0.085-0.143-0.312-0.027-0.481
	c0.057-0.058,0.112-0.086,0.198-0.114C61.034,36.197,61.062,36.169,61.204,36.226L61.204,36.226z M63.047,41.668h0.396h0.028
	c0.085,0.029,0.142,0.057,0.17,0.113c0.028,0.029,0.028,0.057,0.058,0.086c0.057-0.029,0.113-0.029,0.171-0.029
	c0.312-0.057,0.539-0.254,0.651-0.368c0.085-0.057,0.113-0.113,0.198-0.085c0.113,0.057,0.113,0.143,0.029,0.396
	c-0.029,0.113-0.059,0.227-0.086,0.341c0,0.142,0,0.255,0.027,0.34c0.028,0.341-0.027,0.481-0.142,0.511
	c-0.113,0.027-0.255-0.029-0.397-0.143c-0.057-0.057-0.112-0.084-0.197-0.141s-0.199-0.086-0.342-0.143
	c0,0.028-0.027,0.057-0.027,0.057c-0.058,0.057-0.143,0.113-0.228,0.113h-0.396l0,0c-0.085-0.027-0.143-0.057-0.198-0.113
	c0-0.028-0.028-0.057-0.028-0.057c-0.058,0-0.113,0-0.171,0c-0.312,0.057-0.538,0.256-0.65,0.369
	c-0.085,0.057-0.143,0.112-0.198,0.084c-0.114-0.027-0.114-0.141-0.029-0.367c0.029-0.143,0.059-0.256,0.059-0.369
	c0.027-0.142,0.027-0.256,0-0.34c-0.028-0.199-0.028-0.34,0.027-0.426c0.058-0.142,0.198-0.17,0.368,0
	c0.057,0.057,0.143,0.113,0.283,0.199c0.113,0.027,0.227,0.084,0.396,0.141c0-0.027,0-0.057,0.028-0.057
	C62.905,41.725,62.99,41.668,63.047,41.668L63.047,41.668z M63.047,41.668h0.396h0.028c0.085,0.029,0.142,0.057,0.17,0.113
	c0.028,0.029,0.028,0.057,0.058,0.086c0.057-0.029,0.113-0.029,0.171-0.029c0.312-0.057,0.539-0.254,0.651-0.368
	c0.085-0.057,0.113-0.113,0.198-0.085c0.113,0.057,0.113,0.143,0.029,0.396c-0.029,0.113-0.059,0.227-0.086,0.341
	c0,0.142,0,0.255,0.027,0.34c0.028,0.341-0.027,0.481-0.142,0.511c-0.113,0.027-0.255-0.029-0.397-0.143
	c-0.057-0.057-0.112-0.084-0.197-0.141s-0.199-0.086-0.342-0.143c0,0.028-0.027,0.057-0.027,0.057
	c-0.058,0.057-0.143,0.113-0.228,0.113h-0.396l0,0c-0.085-0.027-0.143-0.057-0.198-0.113c0-0.028-0.028-0.057-0.028-0.057
	c-0.058,0-0.113,0-0.171,0c-0.312,0.057-0.538,0.256-0.65,0.369c-0.085,0.057-0.143,0.112-0.198,0.084
	c-0.114-0.027-0.114-0.141-0.029-0.367c0.029-0.143,0.059-0.256,0.059-0.369c0.027-0.142,0.027-0.256,0-0.34
	c-0.028-0.199-0.028-0.34,0.027-0.426c0.058-0.142,0.198-0.17,0.368,0c0.057,0.057,0.143,0.113,0.283,0.199
	c0.113,0.027,0.227,0.084,0.396,0.141c0-0.027,0-0.057,0.028-0.057C62.905,41.725,62.99,41.668,63.047,41.668L63.047,41.668z
	 M62.735,42.292l0.028-0.228c-0.199-0.057-0.341-0.113-0.454-0.17c-0.17-0.084-0.283-0.141-0.34-0.227
	c-0.028,0.029,0.085,0.199,0.028,0.624c0,0.085-0.028,0.17-0.058,0.283c0.143-0.113,0.34-0.227,0.596-0.255
	C62.593,42.32,62.677,42.292,62.735,42.292L62.735,42.292z M63.698,42.094L63.67,42.32c0.171,0.057,0.284,0.113,0.396,0.17
	c0.113,0.057,0.17,0.113,0.255,0.143c0.058,0.057,0.143,0.113,0.143,0.113s0-0.057-0.028-0.256c0-0.085-0.027-0.227,0-0.396
	c0-0.086,0.028-0.17,0.058-0.256c-0.143,0.113-0.341,0.199-0.596,0.227C63.841,42.094,63.755,42.094,63.698,42.094L63.698,42.094z
	 M63.415,41.924h-0.368c0,0,0,0-0.028,0c0,0.027,0,0.057-0.027,0.084l-0.028,0.369c0,0.057-0.028,0.085,0.057,0.085h0.34
	c0.028,0,0.028,0,0.028,0c0.028-0.028,0.028-0.057,0.028-0.085l0.057-0.34C63.471,41.98,63.471,41.924,63.415,41.924L63.415,41.924z
	 M63.415,28.289l-0.623,2.324l3.175-0.255c0-0.425,0-1.984-0.113-2.409c-0.086-0.313-2.069-0.284-2.297,0
	C63.5,28.033,63.471,28.146,63.415,28.289L63.415,28.289z M60.977,36.85L60.977,36.85L60.977,36.85v0.028
	c-0.027,0-0.085,0.085-0.17,0.283c-0.057,0.171-0.142,0.284-0.198,0.341c-0.086,0.113-0.143,0.227,0.058,0.17
	c0.085,0,0.17-0.029,0.283,0.027c0.227,0.086-0.028-0.057,0.027-0.425C61.006,37.048,61.006,36.85,60.977,36.85L60.977,36.85z
	 M61.034,36.396c0.085,0,0.142,0.057,0.142,0.141c0,0.057-0.085,0.113-0.17,0.113c-0.057,0-0.113-0.057-0.113-0.113
	C60.892,36.453,60.949,36.396,61.034,36.396L61.034,36.396z M82.719,48.16c0.313-0.057,1.588-1.248,2.24-1.531
	c-0.737,1.956-2.467,3.885-3.146,4.395c0.766-0.028,1.729,0,3.174-3.09c1.05,0.681,3.402-1.758,0.795-1.502l0.313-0.822
	C84.618,45.807,83.003,46.969,82.719,48.16L82.719,48.16z M80.65,42.264c-1.502,0.34-3.061,0.283-4.449,0.085
	c-1.588-0.227-3.006-0.765-4.763-0.085c-0.992,0.369-3.062,1.475-2.268,2.863c0.453,0.766,1.813,1.049,3.061,1.305
	c-0.538,0.17-1.049,0.566-1.304,1.189c-0.936,2.068,1.984,2.068,3.033,0.197c0.027-0.057,0.057-0.142,0.085-0.197l1.189-1.105
	c-0.112,0.426-0.538,2.494-0.197,2.494c0.481,0,1.304-0.963,1.53-1.389c0.198,1.843,0.341,1.077,1.928-0.256
	c-0.228,0.795,0.027,1.56,1.104,1.56c0.454,0,0.907-0.312,1.191-0.737c0.057,0.313,0.17,0.539,0.425,0.682
	c0.879,0.48,2.381-0.51,2.892-1.332c-0.539,0.425-2.323,1.189-2.354,0.113c0.681-0.284,1.105-0.481,1.333-1.049
	c0.198-0.426,0.17-0.822-0.397-0.822c-0.82,0-1.644,0.851-1.842,1.645c-0.028,0.143-0.057,0.256-0.057,0.396
	c-1.929,0.906-1.361-1.588-0.199-1.674c0.199,0,0.085,0.029,0.313,0.058c0-0.228-0.112-0.511-0.426-0.511
	c-0.905,0-1.672,0.767-1.956,1.56c-0.51,0.284-1.587,1.049-1.444,0.511l0.794-2.636c-2.835,3.431-2.608,4.195-1.588,0
	c-0.511,0.113-1.615,1.247-2.154,2.099c0.028-0.199-0.028-0.342-0.143-0.482c-0.027-0.113-0.142-0.227-0.312-0.368
	c-0.992-0.511-2.495-0.879-3.118-1.39c-0.907-0.736,0.481-1.332,1.162-1.502c0.227-0.058,0.425-0.086,0.652-0.086
	c0.936-0.057,1.644,0.028,2.323,0.113l0,0l0,0c1.05,0.113,2.041,0.229,3.771-0.17L80.65,42.264z M73.394,47.564
	c-0.454,0.879-1.983,0.879-1.333-0.113C72.572,46.686,73.847,46.686,73.394,47.564L73.394,47.564z M81.727,47.252
	c0.059-0.197,0.539-0.595,0.709-0.396C82.549,46.969,82.209,47.252,81.727,47.252L81.727,47.252z M61.091,46.941
	c0.198,0.026,0.453,0.084,0.681,0.084l0.058-0.084l0.85-1.418l0.058,0.623c-0.171,0.283-0.313,0.596-0.426,0.908
	c0.426,0,0.852-0.058,1.19-0.199c-0.34,0.481-0.879,0.51-1.275,0.539c-0.142,0.539-0.17,1.076-0.028,1.529
	c-0.906-0.313-0.622-1.134-0.537-1.587l-0.767-0.198c-0.313,0.596-0.709,1.729-1.871,2.014c0.879-0.992,1.588-2.467,1.844-3.657
	l0.565-0.794l-0.396,1.956l-0.085,0.312L61.091,46.941z M51.538,42.264c-1.503,0.34-3.063,0.283-4.479,0.085
	c-1.588-0.227-3.005-0.765-4.763-0.085c-2.438,0.907-4.337,3.429-1.615,4.677c-1.56-1.53,0.453-3.459,2.551-3.543
	c0.313,0.766,0.682,1.813,0.652,3.033c0,0.906-0.313,2.635-1.843,2.635c-0.794,0-1.729-0.766-0.964-1.559
	c0.596-0.624,1.417,0.028,0.821,0.68c1.275-0.51,0.907-1.699,0-1.644c-0.624,0.028-1.389,0.312-1.758,1.021
	c-0.565,1.021-0.255,2.494,1.077,2.638c1.162,0.112,2.637-0.369,3.175-1.531c0.058,0.255,0.737,1.05,1.871,1.021
	c1.786-0.057,3.571-2.098,3.515-3.601c-0.027-1.502-1.644-1.983-3.345-1.389L45.3,45.155c-0.057-0.425-0.313-1.162-0.652-1.729
	c1.446,0.113,2.468,0.426,4.679-0.085L51.538,42.264z M56.725,47.082c0.879-1.02,1.587-1.757,1.049,0.086
	c-0.454,0.113-1.049,0.368-1.417,0.736c-0.426,0.481-0.511,1.19,0.228,1.19c0.453,0,0.735-0.256,1.049-0.426
	c0,0.17,0.113,0.369,0.312,0.369c0.454,0,1.814-1.588,2.041-2.015c-0.425,0.397-1.503,1.446-1.843,1.446
	c-0.51,0,1.219-3.317-0.142-2.92C57.32,45.75,56.839,46.516,56.725,47.082L56.725,47.082z M57.633,47.564
	c0,0.197-0.313,0.906-0.652,1.134c-0.312,0.227-0.623-0.113-0.453-0.397C56.725,47.99,57.263,47.593,57.633,47.564L57.633,47.564z
	 M52.275,47.934c0.368-0.113,1.645-1.615,2.354-2.014c-0.539,2.354-2.296,4.764-3.005,5.443c0.879-0.144,2.013-0.228,3.23-3.94
	c1.305,0.624,3.687-2.438,0.709-1.843l0.255-0.964C54.145,45.014,52.445,46.544,52.275,47.934L52.275,47.934z M55.365,46.119
	c0.396-0.143,0.935-0.113,0.85,0.255c-0.113,0.51-0.821,0.737-1.19,0.595L55.365,46.119z M50.064,47.111
	c1.077-1.191,1.87-2.07,1.247,0.113c-0.539,0.112-1.247,0.424-1.645,0.879c-0.538,0.565-0.623,1.389,0.255,1.389
	c0.511,0,0.879-0.313,1.22-0.51c0,0.197,0.113,0.453,0.368,0.453c0.538,0,2.154-1.871,2.409-2.381
	c-0.51,0.48-1.757,1.699-2.184,1.699c-0.595,0,1.445-3.911-0.142-3.458C50.772,45.523,50.234,46.432,50.064,47.111L50.064,47.111z
	 M51.141,47.678c0,0.228-0.369,1.077-0.766,1.332c-0.368,0.256-0.737-0.113-0.539-0.453C50.064,48.188,50.716,47.706,51.141,47.678
	L51.141,47.678z M44.82,48.188c0.341-0.68,0.708-1.842,0.426-2.438c1.247-0.906,3.6-0.17,3.315,1.248
	C48.278,48.387,45.726,49.152,44.82,48.188L44.82,48.188z M64.379,48.357l1.189-0.906c-0.085,0.313-0.48,1.814-0.17,1.814
	c0.426,0,1.162-0.709,1.36-1.021c0.17,1.39,0.313,0.738,1.928-0.311c-0.312,0.057-1.615,0.877-1.474,0.424l0.708-1.898
	c-2.522,2.466-2.324,3.005-1.417,0C65.967,46.544,64.549,47.764,64.379,48.357L64.379,48.357z M85.554,46.855
	c0.368-0.058,0.822,0,0.709,0.313c-0.17,0.425-0.766,0.566-1.077,0.396L85.554,46.855z M62.905,56.691c1.56,0,2.184,0,3.091,0.028
	c1.162,0,2.098,0.027,2.551,0.085c0.255,0,0.425,0.028,0.34,0.057c-0.312,0.058-1.021,0.086-1.899,0.113
	c-0.68,0-1.048,0.028-2.237,0.028c-0.568,0-1.192,0-1.844,0c-0.821,0-1.615,0-2.353,0c-1.588,0-2.325-0.058-2.948-0.085
	c-0.426-0.027-0.794-0.059-0.651-0.059c0.142-0.026,0.112-0.057,0.794-0.084c0.708-0.028,1.729-0.057,3.005-0.086
	C61.43,56.691,62.168,56.691,62.905,56.691L62.905,56.691z M83.343,53.658c-0.511,0.199-0.822,0.795-1.53,0.992
	c0.198-0.254,0.596-0.426,0.878-0.651c0.256-0.198,0.454-0.567,1.05-0.567c0.228,0.283,0.368,1.219-0.341,1.275
	C82.918,54.424,83.286,53.999,83.343,53.658L83.343,53.658z M51.878,53.574c0.027,0.027,0.085,0.027,0.085,0.057
	c1.305,0.709-1.275,1.332-2.892,0.992c0.171-0.086,0.396,0.027,0.596,0.057c1.39,0.086,2.098-0.481,1.813-1.021h-0.057l-0.255,0.086
	c-0.113,0-0.229,0.028-0.369,0.028c-0.057,0.027-0.113,0.027-0.142,0H50.63l0,0c-0.028,0-0.057-0.028-0.113-0.086l0.255-0.028
	c0.143-0.058,0.369-0.084,0.512-0.17c0.227-0.113,0.227-0.341-0.852-0.142c0.453-0.256,1.417-0.283,1.758-0.143
	C52.332,53.375,52.133,53.488,51.878,53.574L51.878,53.574z M66.675,53.658c-0.313,0.113-0.538,0.369-0.821,0.596
	c-0.058,0.227-0.199,0.426-0.511,0.453c-0.028-0.027-0.085-0.057-0.113-0.084c-0.027,0-0.057,0.027-0.085,0.027
	c0.028-0.027,0.058-0.027,0.058-0.058c-0.228-0.282,0.057-0.651,0.085-0.936c-0.512,0.198-0.822,0.795-1.502,0.991
	c0.197-0.254,0.595-0.424,0.878-0.65c0.228-0.198,0.426-0.566,1.021-0.566c0.113,0.143,0.198,0.426,0.198,0.68
	c0.058-0.027,0.086-0.084,0.143-0.112c0.255-0.198,0.426-0.567,1.05-0.567c0.227,0.283,0.367,1.219-0.342,1.275
	C66.25,54.424,66.618,53.999,66.675,53.658L66.675,53.658z M62.168,54.197c-0.283,0-0.425-0.143-0.396-0.313
	C61.856,53.488,62.564,53.857,62.168,54.197L62.168,54.197z M80.565,53.574c0.028,0.793-0.34,1.417,0.624,1.587
	c-0.851,0-1.359-0.454-1.189-1.162c-0.482,0.142-0.482,0.708-1.247,0.624c-0.058,0-0.143-0.086-0.143-0.143
	c0.085-0.453,0.453-0.963,0.906-1.076C79.913,53.291,80.168,53.574,80.565,53.574L80.565,53.574z M79.034,54.566L79.034,54.566
	c0.227,0,0.736-0.567,1.021-0.937c-0.028-0.028-0.057-0.057-0.113-0.057C79.886,53.573,78.978,54.227,79.034,54.566L79.034,54.566z
	 M77.107,53.461c0.822,0.057,0.085,0.906-0.906,1.076c-0.171,0.17,0.282,0.199,0.453,0.283c-1.53,0.113-1.333-0.537-0.142-1.021
	c-0.199,0-0.822,0.085-0.709,0.028l0.283-0.114C76.369,53.574,76.767,53.432,77.107,53.461L77.107,53.461z M70.474,53.574
	c0.028,0.793-0.341,1.417,0.623,1.587c-0.85,0-1.36-0.454-1.189-1.162c-0.511,0.142-0.481,0.708-1.247,0.624
	c-0.058,0-0.143-0.086-0.143-0.143c0.085-0.453,0.453-0.963,0.907-1.076C69.822,53.291,70.076,53.574,70.474,53.574L70.474,53.574z
	 M68.943,54.566L68.943,54.566c0.229,0,0.737-0.567,1.021-0.937c-0.028-0.028-0.057-0.057-0.113-0.057
	C69.765,53.574,68.886,54.227,68.943,54.566L68.943,54.566z M55.62,53.432c0,0.795-0.369,1.446,0.623,1.588
	c-0.878,0.028-1.39-0.453-1.22-1.162c-0.48,0.143-0.453,0.736-1.247,0.652c-0.057-0.029-0.142-0.113-0.142-0.17
	c0.085-0.426,0.453-0.936,0.907-1.078C54.939,53.178,55.194,53.461,55.62,53.432L55.62,53.432z M54.06,54.424L54.06,54.424
	c0.229,0,0.767-0.538,1.021-0.906c0-0.057-0.058-0.057-0.085-0.086C54.911,53.432,54.004,54.084,54.06,54.424L54.06,54.424z
	 M48.561,53.318c0.028,0.822-0.34,1.445,0.624,1.588c-0.851,0.027-1.36-0.426-1.189-1.135c-0.482,0.143-0.482,0.709-1.247,0.625
	c-0.059,0-0.144-0.113-0.144-0.144c0.085-0.453,0.454-0.963,0.907-1.076C47.91,53.063,48.165,53.348,48.561,53.318L48.561,53.318z
	 M47.031,54.311L47.031,54.311c0.228,0.029,0.766-0.537,1.021-0.905c-0.028-0.029-0.057-0.058-0.113-0.087
	C47.881,53.348,46.974,53.999,47.031,54.311L47.031,54.311z M44.423,52.639c-0.113,0.368-0.085,0.17-0.198,0.539
	c0.198,0.027,0.482-0.341,0.822-0.199c0,0.313-0.539,0.427-0.879,0.566c0.425,0.539,0.936,1.275,1.983,1.078
	c-0.964,0.425-1.729-0.34-2.211-0.709c-0.313,0.197-0.197,0.766-0.651,0.852c0.197-0.965,0.312-1.531,0.794-2.326
	C44.253,52.439,44.338,52.525,44.423,52.639L44.423,52.639z M44.168,53.518L44.168,53.518c0.227-0.17,0.651-0.17,0.709-0.453
	C44.593,53.12,44.083,53.348,44.168,53.518L44.168,53.518z M72.713,54.111c0.028,0,0.057,0,0.057,0c0.17,0,0.368,0,0.51-0.027h0.029
	l0,0l0,0c0.027-0.085,0.113-0.283,0.198-0.396c0.113-0.057,0.198-0.112,0.312-0.143c0.143,0.143,0.143,0.313,0.085,0.482
	c0.143,0,0.283,0,0.396,0.027c0,0.143-0.198,0.17-0.453,0.17c-0.113,0.256-0.198,0.512,0.17,0.682
	c-0.453,0.085-0.822-0.283-0.737-0.709c-0.227,0-0.396-0.028-0.595-0.028c-0.027,0.142-0.085,0.255-0.17,0.341
	c0.028,0,0.028,0,0.028,0c-0.028,0.027-0.028,0.057-0.058,0.084c-0.027,0.029-0.085,0.057-0.112,0.086
	c-0.709,0-0.284-1.135,0.282-1.248C72.741,53.631,72.77,53.886,72.713,54.111L72.713,54.111z M57.972,53.801c0,0,0.028,0,0.057,0
	c0.171,0,0.369,0,0.512,0h0.027l0,0l0,0c0.028-0.113,0.085-0.283,0.198-0.396c0.085-0.087,0.198-0.113,0.313-0.171
	c0.142,0.171,0.112,0.341,0.057,0.511c0.17,0,0.283,0,0.397,0.028c0,0.142-0.199,0.142-0.454,0.142
	c-0.113,0.283-0.198,0.539,0.197,0.709c-0.452,0.058-0.851-0.283-0.735-0.709c-0.229-0.028-0.427-0.028-0.597-0.028
	c-0.027,0.143-0.112,0.256-0.17,0.34c0,0,0,0,0.028,0c-0.028,0.028-0.057,0.059-0.085,0.059c-0.028,0.057-0.057,0.084-0.085,0.113
	c-0.709-0.029-0.313-1.164,0.255-1.248C58.001,53.348,58.001,53.574,57.972,53.801L57.972,53.801z M63.841,24.717
	c3.827,0.567,6.747,0.851,9.212,1.078c3.629,0.34,6.35,0.566,9.609,1.502c3.601,1.021,6.804,2.296,9.468,3.799
	c2.637,1.502,4.706,3.203,6.123,5.073c0.766,0.992,1.417,2.041,1.813,3.118c0.426,1.105,0.538,2.268,0.255,3.402
	c-0.906,3.288-2.408,6.065-4.394,8.249c-2.013,2.239-4.535,3.826-7.342,4.678c-1.275,0.396-2.354,1.02-3.486,1.672
	c-2.467,1.418-5.103,2.92-10.12,2.354c-1.928-0.228-3.939,0.084-6.01,0.396c-1.672,0.227-3.401,0.48-5.159,0.48
	c-2.777,0-5.414-0.367-7.966-0.736c-2.211-0.313-4.337-0.623-6.406-0.651c-9.666-0.198-14.115-4.394-17.915-7.966l-0.17-0.143
	c-1.304-1.246-2.551-2.606-3.373-4.023c-0.821-1.446-1.162-2.949-0.681-4.451c0.17-0.539,0.312-1.105,0.425-1.701
	c0.539-2.268,1.135-4.875,4.479-7.199c2.408-1.701,5.329-3.402,8.759-4.818c2.892-1.22,6.123-2.24,9.666-2.893
	c0.426-0.084,0.936-0.197,1.474-0.283C55.79,24.916,59.759,24.15,63.841,24.717L63.841,24.717z M73.025,26.248
	c-2.494-0.227-5.441-0.482-9.27-1.049c-3.996-0.566-7.908,0.198-11.564,0.906c-0.481,0.086-0.936,0.199-1.475,0.284
	c-3.515,0.681-6.718,1.673-9.553,2.862c-3.401,1.418-6.321,3.119-8.702,4.791c-3.175,2.211-3.742,4.705-4.252,6.916
	c-0.143,0.596-0.283,1.191-0.454,1.73c-0.453,1.359-0.113,2.721,0.652,4.053c0.766,1.389,1.983,2.722,3.287,3.911l0.143,0.171
	c3.771,3.516,8.136,7.625,17.604,7.823c2.126,0.027,4.252,0.34,6.491,0.651c2.522,0.368,5.159,0.737,7.881,0.737
	c1.729,0,3.431-0.227,5.074-0.482c2.126-0.312,4.167-0.623,6.151-0.396c4.876,0.565,7.427-0.907,9.836-2.298
	c1.135-0.65,2.269-1.303,3.571-1.699c2.749-0.821,5.159-2.381,7.145-4.535c1.927-2.126,3.401-4.848,4.252-8.051
	c0.283-1.048,0.17-2.098-0.229-3.118c-0.367-1.049-0.991-2.041-1.729-3.004c-1.39-1.814-3.431-3.487-5.981-4.933
	c-2.636-1.503-5.811-2.778-9.354-3.771C79.318,26.844,76.625,26.588,73.025,26.248L73.025,26.248z"/>
</svg>
