<?xml version="1.0" encoding="utf-8"?>
<!-- Generator: Adobe Illustrator 22.1.0, SVG Export Plug-In . SVG Version: 6.00 Build 0)  -->
<svg version="1.1" id="Слой_1" xmlns="http://www.w3.org/2000/svg" xmlns:xlink="http://www.w3.org/1999/xlink" x="0px" y="0px"
	 viewBox="0 0 127.6 85" style="enable-background:new 0 0 127.6 85;" xml:space="preserve">
<style type="text/css">
	.st0{fill:#979898;}
</style>
<path class="st0" d="M63.7,54.9c7.8,0,12.8-4,15.5-7.3c3.5-4.2,5.5-9.8,5.5-15.3c0-5.4-2-10.9-5.5-15.1c-2.8-3.3-7.7-7.3-15.5-7.3
	c-12.4,0-20.8,11.6-20.8,22.3C43,43.1,50.9,54.9,63.7,54.9z M63.7,11C75.5,11,81,21.7,81,32.3c0,12.9-6.1,21.6-17.3,21.6
	c-10.2,0-17.2-8.1-17.2-21.6C46.6,22.2,51.4,11,63.7,11z M66.3,38.5v-5.3c1.6-0.2,2.7,0.2,3.1,1c0.2,0.4,0.3,1,0.3,1.6
	c0,0.5-0.1,1.1-0.3,1.6C68.9,38.8,66.5,38.5,66.3,38.5z M65.6,21.1c0.6,0.3,1.5,0.2,2.2,0.2c-0.1,0.7-0.9,3.3-1.6,3.4
	c-0.2,0-0.3-0.1-0.3-0.3c0.1-0.5,0.7-0.6,0.5-1.2c-0.1-0.2-0.2-0.3-0.3-0.4c-0.2-0.1-0.4-0.1-0.6,0c-0.4,0.2-0.4,0.6-0.3,1
	c0,0.1,0.1,0.3,0.1,0.4c0.1,0.4-0.3,0.5-0.6,0.4C64.2,24.2,65.2,21.4,65.6,21.1z M60.1,20.5c0-0.3,0.4-0.6,0.9-0.6
	c0.6,0,0.9,0.2,1.1,0.5C62.1,20.5,60.6,20.5,60.1,20.5z M70,40.7c0.4,0.8,0.5,2.5-0.1,3.7c-0.7,1.6-3.6,1.2-3.6,1.2v-6
	C68.4,39.6,69.5,39.7,70,40.7z M65.9,20.4c0.3-0.3,0.5-0.5,1.1-0.5c0.4,0,0.9,0.3,0.9,0.6C67.4,20.5,65.9,20.5,65.9,20.4z
	 M63.8,52.5c10.5,0,16.2-8.2,16.2-20.3c0-9.9-5.1-20-16.2-20c-11.6,0-16.1,10.5-16.1,20C47.6,44.9,54.2,52.5,63.8,52.5z M73.6,42.8
	c-0.2,4.1-4.5,3.8-4.5,3.8h-7.2v-1h1v-6h-3.6v6h1v1h-5.3v-1h0.8V33.1h-0.8v-0.9h5.3v0.9h-1v5.4h3.6v-5.4h-1v-0.9h7.2
	c0,0,3.9-0.2,4,2.9c0.2,3.6-2.3,3.6-2.5,3.8C70.8,39.1,73.8,39,73.6,42.8z M64.1,27.7c-3.3,0-5.1,0.5-6,1c0,0-0.1-0.7-0.4-1.5
	c0.5-0.3,1.3-0.6,1.7-0.7c3-0.9,6.1-1,9.4,0c0.9,0.3,1.5,0.7,1.6,0.7c-0.1,0.5-0.2,0.9-0.3,1.4C69.1,28.3,67.4,27.7,64.1,27.7z
	 M70,29.4c0,0.7-2.6,1.2-5.9,1.2c-3.3,0-5.9-0.5-5.9-1.2c0-0.7,2.6-1.2,5.9-1.2C67.4,28.2,70,28.7,70,29.4z M54.3,20
	c0.3-0.5,1.1-0.9,1.9-0.9c0.7,0,1.4,0.4,1.6,0.5c0,0,0.8-0.9,2.1-0.9c1.8-0.1,2.3,0.9,2.3,0.9c0-0.6,1-0.9,1.4-1c0,0,0,0,0-0.1
	c0,0,0,0,0,0c-0.7-0.2-1.2-0.9-1.2-1.6c0-1,0.7-1.7,1.5-1.7v-0.8l-0.9,0v-0.4h0.9v-0.8h0.3v0.8h0.9v0.4h-0.9v0.8
	c0.9,0.1,1.5,0.8,1.5,1.7c0,0.7-0.5,1.4-1.2,1.6c0,0,0,0,0,0v0.1c0.5,0.1,1.3,0.4,1.3,1c0,0,0.7-1,2.4-1c1.4,0,1.8,1,1.8,1.1
	c0.3-0.2,1.2-0.6,2-0.5c1.3,0.1,2.1,1.1,1.9,2.3c-0.3,1.8-2.1,2.9-3,4.4c-0.1,0.2-0.4,0.8-0.4,0.8c-0.5-0.3-1.3-0.7-2.7-1
	c-2.6-0.6-4.7-0.6-7.4,0c-1.4,0.3-2.8,0.9-3,1c-0.2-0.5-0.5-0.9-0.7-1.3c-1-1.4-2.8-2.5-2.8-4.3C54,20.7,54.1,20.3,54.3,20z
	 M62.4,21.1c0.5,0.2,1.4,3.1,0.8,3.4c-0.3,0.2-0.7,0-0.6-0.4c0-0.1,0.1-0.3,0.1-0.4c0.1-0.4,0.1-0.8-0.3-1c-0.2-0.1-0.4-0.1-0.6,0
	c-0.2,0.1-0.3,0.2-0.3,0.4c-0.2,0.6,0.4,0.7,0.5,1.2c0.1,0.3-0.1,0.4-0.3,0.3c-0.7-0.1-1.5-2.7-1.6-3.4
	C60.9,21.3,61.7,21.4,62.4,21.1z M64.2,28.7c2.6,0,4.7,0.3,4.7,0.7c0,0.4-2.1,0.7-4.7,0.7c-2.6,0-4.7-0.3-4.7-0.7
	C59.5,29,61.6,28.7,64.2,28.7z M68,24.9c-0.1-0.1-0.1-0.3,0-0.5c0.1-0.4,0.5-0.7,0.7-1c0.3-0.6,0.7-1.1,1-1.7
	c0.2-0.3,0.2-0.5,0.5-0.7c0.2-0.3,0.5-0.3,0.9-0.3c0.3,0.1,0.7,0.3,0.9,0.7c0.2,0.4,0.1,0.8,0,1.2c-0.2,0.6-1.5,2.6-2.1,2.8
	c-0.1,0-0.4,0.1-0.6-0.1c-0.3-0.4,1.5-0.7,1.1-1.6c-0.1-0.2-0.3-0.3-0.5-0.4c-1.3-0.2-0.2,1.6-1.4,1.8C68.3,25.1,68.1,25,68,24.9z
	 M56.1,22.6c-0.1-0.4-0.2-0.8,0-1.2c0.1-0.4,0.5-0.6,0.9-0.7c0.3-0.1,0.6,0,0.9,0.3c0.2,0.3,0.3,0.5,0.5,0.7c0.3,0.6,0.7,1.1,1,1.7
	c0.2,0.3,0.5,0.6,0.7,1c0.1,0.1,0.1,0.3,0,0.5c-0.1,0.1-0.2,0.1-0.3,0.1c-1.2-0.1-0.1-1.9-1.4-1.8c-0.2,0-0.4,0.2-0.5,0.4
	c-0.4,0.9,1.4,1.2,1.1,1.6c-0.2,0.2-0.5,0.2-0.6,0.1C57.7,25.2,56.3,23.1,56.1,22.6z M64,26.2c0.5,0.2,1,0.5,1.5,0.6
	c-0.1,0.1-1.2,0.6-1.4,0.6c-0.2,0-1.3-0.5-1.4-0.6C62.9,26.7,63.8,26.3,64,26.2z M68.4,27.3c0,0.3-0.6,0.4-1,0.4
	c-0.5-0.1-1-0.4-0.9-0.7c0.1-0.2,0.5-0.4,1.1-0.3C67.9,26.7,68.4,27,68.4,27.3z M61.8,26.9c0.1,0.4-0.4,0.7-0.9,0.7
	c-0.5,0.1-1,0-1-0.4c0-0.3,0.5-0.6,0.9-0.7C61.3,26.5,61.7,26.7,61.8,26.9z M58,27.5h1c0,0-0.7,0.9-0.8,1
	C58.3,28.4,58.2,27.8,58,27.5z M69,27.5h1c-0.1,0.5-0.2,0.8-0.2,1C69.8,28.3,69.2,27.6,69,27.5z M48.6,63.4v-1.2
	c0-0.2,0-0.2-0.4-0.2h-1.7c-0.3,0-0.4,0-0.4,0.2v1.2c0,0.8,0.1,0.9,0.4,0.9l0.3,0c0.1,0.1,0.1,0.2,0,0.3c-0.5,0-0.9,0-1.3,0
	c-0.4,0-0.8,0-1.2,0c-0.1-0.1-0.1-0.2,0-0.3l0.2,0c0.4-0.1,0.4-0.1,0.4-0.9v-3.2c0-0.8,0-0.9-0.4-0.9l-0.2,0c-0.1-0.1-0.1-0.2,0-0.3
	c0.4,0,0.8,0,1.2,0c0.4,0,0.8,0,1.2,0c0.1,0.1,0.1,0.2,0,0.3l-0.2,0c-0.4,0.1-0.4,0.1-0.4,0.9v1c0,0.2,0,0.3,0.4,0.3h1.7
	c0.4,0,0.4,0,0.4-0.3v-1c0-0.8,0-0.9-0.4-0.9l-0.2,0c-0.1-0.1-0.1-0.2,0-0.3c0.5,0,0.9,0,1.3,0c0.4,0,0.8,0,1.2,0
	c0.1,0.1,0.1,0.2,0,0.3l-0.2,0c-0.4,0.1-0.4,0.1-0.4,0.9v3.2c0,0.8,0,0.9,0.4,0.9l0.2,0c0.1,0.1,0.1,0.2,0,0.3c-0.4,0-0.8,0-1.2,0
	c-0.4,0-0.8,0-1.2,0c-0.1-0.1-0.1-0.2,0-0.3l0.2,0C48.5,64.3,48.6,64.2,48.6,63.4z M51,61.9c0,1.8,1.2,2.9,2.9,2.9c1.8,0,3-1.1,3-3
	c0-1.7-1.2-2.9-2.9-2.9C52.3,58.9,51,60.2,51,61.9z M55.6,61.9c0,1.4-0.4,2.5-1.5,2.5c-1.4,0-1.7-1.7-1.7-2.7c0-1.4,0.6-2.4,1.6-2.4
	C55,59.3,55.6,60.4,55.6,61.9z M59.4,59.7v1.5c0,0.2,0,0.3,0.2,0.3h0.6c0.4,0,0.5-0.1,0.6-0.5l0-0.2c0.1-0.1,0.3-0.1,0.3,0
	c0,0.3,0,0.6,0,0.9c0,0.3,0,0.6,0,0.9c-0.1,0.1-0.3,0.1-0.3,0l0-0.2c-0.1-0.4-0.2-0.5-0.6-0.5h-0.6c-0.2,0-0.2,0-0.2,0.3v1.2
	c0,0.8,0,0.9,0.4,0.9l0.3,0c0.1,0.1,0.1,0.2,0,0.3c-0.5,0-0.9,0-1.3,0c-0.4,0-0.8,0-1.3,0c-0.1-0.1-0.1-0.2,0-0.3l0.3,0
	c0.4-0.1,0.4-0.1,0.4-0.9v-3.2c0-0.8,0-0.9-0.4-0.9l-0.2,0c-0.1-0.1-0.1-0.3,0-0.3c0.4,0,0.8,0,1.2,0h1.8c0.5,0,1,0,1.1,0
	c0,0.1,0,0.8,0,1.3c0,0.1-0.2,0.1-0.3,0c-0.1-0.3-0.2-0.6-0.2-0.7c-0.1-0.2-0.4-0.3-0.8-0.3h-0.7C59.4,59.4,59.4,59.4,59.4,59.7z
	 M62.4,64.3l-0.2,0.1c-0.1,0-0.1,0.2,0,0.3c0.5,0,0.9,0,1.3,0c0.2,0,0.6,0,0.9,0c0.5,0,1.1,0,1.7-0.2c0.5-0.2,1-0.6,1-1.4
	c0-0.8-0.6-1.3-1.2-1.4c-0.1,0-0.1,0-0.1-0.1c0,0,0.1-0.1,0.2-0.1c0.3-0.1,0.9-0.3,0.9-1.1c0-0.5-0.2-0.9-0.6-1.1
	c-0.4-0.2-0.9-0.3-1.7-0.3c-0.8,0-1.4,0-2.1,0.1c-0.1,0-0.1,0.3,0,0.3l0.2,0c0.4,0.1,0.4,0.1,0.4,1v3C62.8,64.2,62.8,64.2,62.4,64.3
	z M64,59.8c0-0.4,0-0.4,0.4-0.4c0.6,0,1,0.4,1,1.1c0,0.5-0.3,1-1,1c-0.4,0-0.4,0-0.4-0.2L64,59.8L64,59.8z M64,62.2
	c0-0.3,0-0.3,0.5-0.3c0.8,0,1.2,0.5,1.2,1.3c0,0.7-0.3,1.2-0.9,1.2c-0.7,0-0.7-0.4-0.7-1.1V62.2z M72.5,64.3l0.2,0
	c-0.1,0-0.2-0.1-0.3-0.2c-0.4-0.4-0.7-1-1.3-2.1c0-0.1,0-0.1,0-0.2c0.4-0.2,0.9-0.5,0.9-1.3c0-0.5-0.3-1-0.7-1.3
	c-0.3-0.2-0.9-0.3-1.6-0.3c-0.8,0-1.4,0-2.1,0.1c-0.1,0-0.1,0.3,0,0.3l0.2,0c0.4,0.1,0.4,0.1,0.4,1v3c0,0.8-0.1,0.8-0.4,0.9l-0.2,0
	c-0.1,0-0.1,0.2,0,0.3c0.4,0,0.8,0,1.2,0c0.4,0,0.8,0,1.2,0c0.1-0.1,0.1-0.3,0-0.3l-0.2,0c-0.4-0.1-0.4-0.1-0.4-0.9v-1.1
	c0-0.2,0-0.2,0.3-0.2c0.2,0,0.3,0.1,0.4,0.3c0.2,0.5,0.4,0.9,0.7,1.3c0.4,0.6,0.9,0.9,1.6,0.9c0.2,0,0.3,0,0.5,0c-0.1,0-0.1,0-0.2,0
	C72.4,64.6,72.4,64.4,72.5,64.3z M70.4,61.5c-0.2,0.2-0.3,0.2-0.6,0.2c-0.5,0-0.5,0-0.5-0.3v-1.7c0-0.4,0-0.4,0.4-0.4
	c0.7,0,1.1,0.5,1.1,1.3C70.7,61.1,70.6,61.4,70.4,61.5z M75.7,58.1c0-0.3,0.2-0.5,0.5-0.5c0.3,0,0.5,0.2,0.5,0.5
	c0,0.3-0.2,0.5-0.5,0.5C75.9,58.5,75.7,58.4,75.7,58.1z M74.4,58.5c-0.3,0-0.5-0.2-0.5-0.5c0-0.3,0.2-0.5,0.5-0.5
	c0.3,0,0.5,0.2,0.5,0.5C74.9,58.3,74.7,58.5,74.4,58.5z M76,64.3l-0.3,0c-0.1,0.1-0.1,0.2,0,0.3c0.4,0,0.7,0,1.1,0
	c0.4,0,0.9,0,1.3,0c0.1-0.1,0.1-0.3,0-0.3l-0.3-0.1c-0.3-0.1-0.4-0.2-0.6-0.8l-1.1-3.3c-0.2-0.6-0.3-0.9-0.4-1.2
	c0-0.1-0.1-0.2-0.2-0.2c0,0-0.3,0.4-0.7,0.5c0,0.2-0.1,0.5-0.3,1.1l-0.8,2.1c-0.2,0.6-0.4,1-0.5,1.4c-0.1,0.3-0.3,0.4-0.5,0.4l0,0
	c0.1,0,0.2,0,0.2,0c0.1,0,0.1,0.2,0,0.2c0,0-0.1,0-0.2,0c0.2,0,0.4,0,0.6,0c0.4,0,0.7,0,1,0c0.1,0,0.1-0.2,0-0.3l-0.3,0
	c-0.2,0-0.3-0.1-0.3-0.1c0-0.1,0-0.1,0.1-0.3l0.3-1c0.1-0.2,0.1-0.2,0.3-0.2h0.9c0.3,0,0.4,0,0.4,0.2l0.2,0.7
	c0.1,0.3,0.2,0.5,0.2,0.6C76.2,64.2,76.2,64.3,76,64.3z M75.4,62.2h-0.7c-0.2,0-0.2,0-0.2-0.3l0.2-0.6c0.1-0.4,0.3-0.8,0.3-0.9
	c0.1,0.2,0.2,0.5,0.3,0.9l0.2,0.7C75.6,62.2,75.6,62.2,75.4,62.2z M72.9,64.6c0,0-0.1,0-0.2,0c-0.1,0-0.1,0-0.2,0
	c-0.1-0.1-0.1-0.2,0-0.3l0.2,0c0.1,0,0.2,0,0.2,0C73,64.4,73,64.5,72.9,64.6z M78.4,62.4v-2.1c0-0.8-0.1-0.8-0.4-0.9l-0.2,0
	c-0.1-0.1-0.1-0.2,0-0.3c0.4,0,0.8,0,1.2,0c0.4,0,0.8,0,1.2,0c0.1,0.1,0.1,0.2,0,0.3l-0.2,0c-0.4,0.1-0.4,0.1-0.4,0.9v2
	c0,1,0.1,2.1,1.4,2.1c1.1,0,1.4-1,1.4-2.1v-1c0-0.7,0-1.3-0.1-1.6c-0.1-0.2-0.3-0.2-0.5-0.3l-0.2,0c-0.1-0.1-0.1-0.2,0-0.3
	c0.5,0,0.8,0,1.1,0c0.3,0,0.6,0,0.9,0c0,0.1,0.1,0.2,0,0.3l-0.1,0c-0.2,0.1-0.4,0.1-0.5,0.3c-0.1,0.2-0.1,0.9-0.1,1.6v1
	c0,0.8-0.1,1.5-0.5,2.1c-0.4,0.4-1,0.6-1.7,0.6c-0.6,0-1.2-0.1-1.7-0.5C78.6,63.9,78.4,63.3,78.4,62.4z M45.3,75c-0.4,0-0.8,0-1.2,0
	c-0.4,0-0.8,0-1.3,0c-0.1,0-0.1-0.2,0-0.3l0.2-0.1c0.1,0,0.1-0.1,0.1-0.1c0,0,0-0.1-0.1-0.2c0-0.1-0.4-0.6-0.5-0.8l-0.4-0.7
	c-0.3-0.5-0.4-0.7-0.6-0.7c-0.2,0-0.2,0.1-0.2,0.6v0.9c0,0.8,0.1,0.9,0.4,0.9l0.2,0c0.1,0.1,0.1,0.2,0,0.3c-0.4,0-0.9,0-1.3,0
	c-0.4,0-0.8,0-1.3,0c-0.1-0.1-0.1-0.2,0-0.3l0.2,0c0.4-0.1,0.4-0.1,0.4-0.9v-3.2c0-0.8,0-0.9-0.4-0.9l-0.2,0c-0.1-0.1-0.1-0.2,0-0.3
	c0.4,0,0.8,0,1.3,0c0.4,0,0.8,0,1.3,0c0.1,0,0.1,0.2,0,0.3l-0.2,0c-0.4,0.1-0.4,0.1-0.4,0.9v1c0,0.3,0.1,0.3,0.2,0.3
	c0.2,0,0.5-0.3,0.6-0.5c0.4-0.5,0.9-1,1.1-1.4c0.1-0.1,0.1-0.2,0.1-0.2c0,0,0-0.1-0.1-0.1l-0.2,0c-0.1-0.1-0.1-0.3,0-0.3
	c0.4,0,0.7,0,1,0c0.3,0,0.7,0,1,0c0.1,0,0.1,0.2,0,0.3c-0.3,0-0.5,0.1-0.7,0.2c-0.3,0.1-0.7,0.5-1.2,1.1l-0.4,0.4
	c-0.1,0.1-0.1,0.2-0.1,0.2c0,0,0.1,0.1,0.3,0.5c0.4,0.6,0.9,1.5,1.5,2.2c0.2,0.3,0.4,0.4,0.6,0.4l0.2,0l0,0
	C45.2,74.7,45.2,74.9,45.3,75z M45.3,75C45.3,75,45.3,75,45.3,75C45.3,75,45.3,75,45.3,75C45.3,75,45.3,75,45.3,75z M50.1,73.6
	c0,0.4-0.2,1.1-0.4,1.4c-0.4,0-1.2,0-1.9,0h-1.1c-0.4,0-0.8,0-1.4,0c0.1,0,0.1-0.2,0-0.3l0,0l0.4-0.1c0.4-0.1,0.4-0.1,0.4-0.9v-3.2
	c0-0.8,0-0.8-0.4-0.9l-0.2,0c-0.1,0-0.1-0.2,0-0.3c0.4,0,0.8,0,1.2,0h1.8c0.5,0,1,0,1.1,0c0,0.1,0.1,0.7,0.1,1.3
	c0,0.1-0.2,0.1-0.3,0c-0.1-0.3-0.2-0.6-0.3-0.7c-0.2-0.2-0.4-0.3-0.8-0.3h-0.7c-0.3,0-0.3,0-0.3,0.3v1.5c0,0.2,0,0.3,0.2,0.3h0.6
	c0.4,0,0.5-0.1,0.6-0.5l0-0.2c0.1-0.1,0.3-0.1,0.3,0c0,0.3,0,0.6,0,0.9c0,0.3,0,0.6,0,0.9c0,0.1-0.3,0.1-0.3,0l0-0.2
	c-0.1-0.4-0.2-0.5-0.6-0.5h-0.6c-0.2,0-0.2,0-0.2,0.3v1c0,0.4,0,0.7,0.1,0.8c0.1,0.2,0.3,0.2,0.9,0.2c0.7,0,1,0,1.5-1
	C49.9,73.5,50.1,73.5,50.1,73.6z M45.3,75C45.3,75,45.3,75,45.3,75C45.3,75,45.3,75,45.3,75C45.3,75,45.3,75,45.3,75z M45.3,75
	C45.3,75,45.3,75,45.3,75C45.3,75,45.3,75,45.3,75c-0.1-0.1-0.1-0.3-0.1-0.3l0,0l0,0C45.4,74.7,45.4,74.9,45.3,75z M56.7,70.2
	c0,1.8,0,2.7,0.1,3.8c0,0.4,0.1,0.6,0.4,0.6l0.3,0c0.1,0.1,0.1,0.3,0,0.3c-0.4,0-0.7,0-1.2,0c-0.4,0-0.8,0-1.2,0
	c-0.1,0-0.1-0.2,0-0.3l0.3,0c0.4-0.1,0.4-0.2,0.4-0.7l0-2.2v-1h0c-0.6,1.4-1.3,2.8-1.8,4.2c0,0-0.1,0.1-0.2,0.1
	c-0.1,0-0.2,0-0.2-0.1c-0.3-1.1-1.3-3.1-1.8-4.2h0c0,0.6,0,0.9-0.1,1.3c0,0.6,0,1.4,0,1.9c0,0.4,0,0.5,0.4,0.6l0.3,0.1
	c0.1,0.1,0.1,0.3,0,0.3c-0.3,0-0.7,0-1,0c-0.3,0-0.6,0-0.9,0c-0.1,0-0.1-0.3,0-0.3l0.2,0c0.4-0.1,0.5-0.1,0.5-0.7
	c0-0.4,0.1-1.2,0.1-2c0-0.6,0.1-1.3,0.1-1.7c0-0.5-0.2-0.6-0.5-0.7l-0.2,0c-0.1-0.1-0.1-0.3,0-0.3c0.3,0,0.6,0,1.1,0
	c0.3,0,0.5,0,0.8,0c0,0.5,0.3,1,0.7,1.9l0.6,1.2c0.1,0.2,0.3,0.7,0.5,0.9c0.1-0.2,0.2-0.5,0.5-1l0.4-0.9c0.4-0.9,0.6-1.3,0.8-2
	c0.4,0,0.6,0,0.9,0c0.3,0,0.7,0,1,0c0.1,0,0.1,0.2,0,0.3l-0.2,0C56.9,69.7,56.7,69.8,56.7,70.2z M62.6,73.6c0,0.4-0.2,1.1-0.4,1.4
	c-0.4,0-1.2,0-1.9,0h-1.1c-0.4,0-0.8,0-1.4,0c-0.1-0.1-0.1-0.3,0-0.3l0.4-0.1c0.4-0.1,0.4-0.1,0.4-0.9v-3.2c0-0.8,0-0.8-0.4-0.9
	l-0.2,0c-0.1-0.1-0.1-0.2,0-0.3c0.4,0,0.8,0,1.2,0H61c0.5,0,1,0,1.1,0c0,0.1,0.1,0.8,0.1,1.3c0,0.1-0.2,0.1-0.3,0
	c-0.1-0.3-0.2-0.6-0.3-0.7c-0.2-0.2-0.4-0.3-0.8-0.3h-0.7c-0.3,0-0.3,0-0.3,0.3v1.5c0,0.2,0,0.3,0.2,0.3h0.6c0.4,0,0.5-0.1,0.6-0.5
	l0-0.2c0.1-0.1,0.3-0.1,0.3,0c0,0.3,0,0.6,0,0.9c0,0.3,0,0.6,0,0.9c0,0.1-0.3,0.1-0.3,0l0-0.2c-0.1-0.4-0.2-0.5-0.6-0.5h-0.6
	c-0.2,0-0.2,0-0.2,0.3v1c0,0.4,0,0.7,0.1,0.8c0.1,0.2,0.3,0.2,0.9,0.2c0.7,0,1,0,1.5-1C62.4,73.5,62.6,73.5,62.6,73.6z M67.8,74.5
	c-0.4-0.4-0.7-1-1.3-2.1c0-0.1,0-0.1,0-0.2c0.4-0.2,0.9-0.5,0.9-1.3c0-0.5-0.3-1-0.7-1.3c-0.3-0.2-0.9-0.3-1.6-0.3
	c-0.8,0-1.4,0-2.1,0.1c-0.1,0-0.1,0.3,0,0.3l0.2,0c0.4,0.1,0.4,0.1,0.4,1v3c0,0.8,0,0.8-0.4,0.9l-0.2,0c-0.1,0-0.1,0.2,0,0.3
	c0.4,0,0.8,0,1.2,0c0.4,0,0.8,0,1.2,0c0.1-0.1,0.1-0.3,0-0.3l-0.2,0c-0.4-0.1-0.4-0.1-0.4-0.9v-1c0-0.2,0-0.2,0.3-0.2
	c0.2,0,0.3,0.1,0.4,0.3c0.2,0.5,0.4,0.9,0.7,1.3c0.4,0.6,0.9,0.9,1.6,0.9c0.3,0,0.5,0,0.7-0.1c0-0.1,0-0.2,0-0.2
	C68.3,74.7,68,74.6,67.8,74.5z M65.9,71.9c-0.2,0.2-0.3,0.2-0.6,0.2c-0.5,0-0.5,0-0.5-0.3v-1.7c0-0.4,0-0.4,0.4-0.4
	c0.7,0,1.1,0.5,1.1,1.3C66.2,71.4,66,71.7,65.9,71.9z M71.3,69.2c-1.7,0-3,1.3-3,3c0,1.8,1.2,2.9,2.9,2.9c1.8,0,3-1.1,3-3
	C74.2,70.4,73,69.2,71.3,69.2z M71.3,74.7c-1.4,0-1.7-1.7-1.7-2.7c0-1.4,0.6-2.4,1.6-2.4c1,0,1.7,1.2,1.7,2.6
	C72.8,73.6,72.4,74.7,71.3,74.7z M82.3,69.6c-0.2,0-0.3,0.1-0.3,0.2c-0.1,0.1-0.2,0.4-0.5,0.9c-0.4,1-1.4,3.1-1.8,4.2
	c-0.1,0-0.2,0.1-0.3,0.1c-0.1,0-0.2,0-0.2-0.1c-0.1-0.2-0.2-0.5-0.3-0.8l-0.4-0.8c-0.1-0.3-0.2-0.5-0.3-0.7
	c-0.1,0.1-0.2,0.4-0.3,0.6l-0.4,0.9c-0.1,0.3-0.2,0.5-0.3,0.8c0,0-0.1,0.1-0.3,0.1c-0.1,0-0.1,0-0.2-0.1c-0.1-0.4-0.5-1.1-0.8-1.8
	l-1.4-3.1c-0.2-0.5-0.3-0.5-0.6-0.6l-0.2,0c-0.1-0.1-0.1-0.3,0-0.3c0.3,0,0.7,0,1.1,0c0.4,0,0.7,0,1,0c0.1,0,0.1,0.2,0,0.3l-0.2,0
	c-0.1,0-0.2,0.1-0.2,0.1s0.2,0.5,0.4,1.1l0.8,1.9c0.2,0.5,0.3,0.7,0.4,0.9c0.1-0.2,0.2-0.4,0.4-0.8l0.1-0.2c0.1-0.1,0.1-0.3,0.1-0.4
	c0,0,0-0.1-0.1-0.2l-0.8-1.8c-0.2-0.4-0.3-0.5-0.6-0.5l-0.1,0c-0.1-0.1-0.1-0.3,0-0.3c0.4,0,0.7,0,1.1,0c0.4,0,0.7,0,1,0
	c0.1,0,0.1,0.3,0,0.3l-0.1,0c-0.1,0-0.2,0.1-0.2,0.1c0,0.1,0,0.2,0.1,0.3l0.2,0.6c0.1,0.2,0.2,0.4,0.2,0.5c0.1-0.2,0.2-0.4,0.2-0.5
	l0.1-0.2c0.1-0.3,0.2-0.6,0.2-0.6c0-0.1,0-0.1-0.2-0.1l-0.3-0.1c-0.1-0.1-0.1-0.3,0-0.3c0.2,0,0.5,0,0.8,0c0.3,0,0.6,0,0.9,0
	c0.1,0,0.1,0.2,0,0.3l-0.2,0.1c-0.3,0.1-0.3,0.1-0.6,0.6c-0.2,0.4-0.4,0.7-0.5,1c-0.1,0.2-0.2,0.4-0.2,0.4c0,0,0,0.1,0.1,0.2
	l0.4,0.9c0.2,0.5,0.3,0.7,0.4,0.8c0.4-1,0.8-2,1.2-3.1c0.1-0.1,0.2-0.6,0.2-0.7c0-0.1,0-0.1-0.2-0.1l-0.2-0.1
	c-0.1-0.1-0.1-0.3,0-0.3c0.3,0,0.6,0,0.9,0c0.3,0,0.5,0,0.8,0c0.1,0,0.1,0.2,0,0.3L82.3,69.6z M85.2,69.2c-1.7,0-3,1.3-3,3
	c0,1.8,1.2,2.9,2.9,2.9c1.8,0,3-1.1,3-3C88.2,70.4,87,69.2,85.2,69.2z M85.3,74.7c-1.4,0-1.7-1.7-1.7-2.7c0-1.4,0.6-2.4,1.6-2.4
	c1,0,1.7,1.2,1.7,2.6C86.8,73.6,86.4,74.7,85.3,74.7z"/>
</svg>
