<?xml version="1.0" encoding="utf-8"?>
<!-- Generator: Adobe Illustrator 16.0.0, SVG Export Plug-In . SVG Version: 6.00 Build 0)  -->
<!DOCTYPE svg PUBLIC "-//W3C//DTD SVG 1.1//EN" "http://www.w3.org/Graphics/SVG/1.1/DTD/svg11.dtd">
<svg version="1.1" id="Слой_1" xmlns="http://www.w3.org/2000/svg" xmlns:xlink="http://www.w3.org/1999/xlink" x="0px" y="0px"
	 width="127.559px" height="85.039px" viewBox="0 0 127.559 85.039" enable-background="new 0 0 127.559 85.039"
	 xml:space="preserve">
<path fill="#979898" d="M84.203,54.607c-0.313-0.471,0.227-0.254,0.312-0.424c-0.06-0.211-0.351-0.203-0.51-0.256
	c-0.055,0.178-0.101,0.356-0.132,0.539c-0.06,0.329-0.154,1.035,0.33,1.104c1.072,0.238,1.296-1.631,1.788-2.182
	c0.472-0.527,2.524-1.918,2.653-0.313c0.032,0.396-0.497,0.928-0.898,0.659c-0.565-0.375,0.624-0.334,0.624-0.685
	c0.023-0.396-0.617-0.282-0.833-0.231c-0.56,0.133-0.964,0.68-1.208,1.168c-0.309,0.738-1.722,3.056-2.637,1.529
	c-0.326-0.541-0.649-1.879,0.198-2.125C85.195,53.102,85.322,55.205,84.203,54.607z M67.535,68.386
	c-0.753-0.176-1.507-0.227-2.239,0.058C65.66,68.584,67.97,69.256,67.535,68.386z M59.401,67.704
	c-0.22,0.188-0.419,0.426-0.341,0.737c0.98-0.08,1.921-0.358,2.863-0.623C61.287,67.277,60.135,67.602,59.401,67.704z
	 M68.159,66.854c0.564,0.188,1.049,0.143,1.614,0.256c0.401-0.229,1.105-0.762,0.295-1.066c-1.175-0.441-2.487,0.021-3.555,0.527
	C67.034,66.802,67.619,66.713,68.159,66.854z M63.51,67.818c0.038,0.293,1.011,0.469,1.208,0.382c0.47-0.205,0.887-0.433,1.411-0.46
	c0.479-0.025,1.021,0.008,1.46,0.223c0.352,0.173,0.61,0.795,0.306,1.107c-0.936,0.963-2.248-0.123-3.222-0.346
	c-0.711,0.491-2.789,1.858-3.657,1.133c0.229-0.356,0.909-0.228,1.264-0.369c0.595-0.237,1.324-0.531,1.826-0.934
	c-0.235-0.197-0.787-0.304-1.079-0.428c-0.417-0.177-1.155,0.232-1.555,0.367c-0.696,0.234-2.793,1.013-2.793-0.309
	c0-1.338,1.918-1.313,2.764-1.01c0.68,0.245,1.031,0.469,1.715,0.251c0.479-0.153,1.041-0.229,1.432-0.573
	c-0.275,0-0.686-0.33-1.003-0.381c-0.493-0.076-0.979-0.178-1.466-0.277c-1.038-0.213-2.177-0.383-3.23-0.506
	c-0.652-0.075-1.42-0.033-2.003,0.3c-0.271,0.155-0.487,0.396-0.526,0.717c-0.052,0.429,0.232,0.535,0.319,0.884
	c-0.776,0.358-0.721-1.679-0.215-2.044c0.942-0.681,2.12-0.579,3.16-0.233c1.271,0.424,2.608,0.519,3.913,0.804
	c0.528,0.116,1.304,0.473,1.844,0.397c0.431,0,0.99-0.504,1.366-0.685c0.962-0.464,2.148-0.444,3.17-0.251
	c1.062,0.25,1.338,1.451,0.216,1.923c-1.054,0.442-2.455-0.03-3.527-0.214c-0.591-0.102-1.052-0.477-1.624-0.137
	C64.571,67.395,63.827,67.501,63.51,67.818z M43.583,53.956c-0.167-0.29-0.832-0.72-0.907-0.142c0.218,0.125,0.51-0.222,0.335,0.394
	c-0.118,0.413-0.564,0.065-0.648-0.209c-0.368-1.205,1.173-0.858,1.612-0.22c0.735,1.066-0.635,2.291-1.7,1.662
	c-1-0.592-1.25-1.963-2.235-2.618c-0.376-0.263-0.946-0.47-1.305-0.058c0.254,0.59,0.427,0.241,0.822,0.34
	c0.333,0.998-1.994,0.039-0.763-0.823c0.895-0.626,2.39,0.839,2.854,1.548c0.24,0.365,0.478,1.113,0.936,1.22
	C43.219,55.197,43.583,54.484,43.583,53.956z M69.69,34.284c0.079-0.026,0.126,0.002,0.144,0.085
	c-0.067,0.067-0.199,0.097-0.199-0.028c-0.367,0.737-1.002,0.218-1.521-0.035c-0.774-0.378-1.511,0.074-1.88,0.772
	c0.419,0.229,0.522-0.361,0.907-0.425c0-0.206,0.978,0.312,1.144,0.397c0.509,0.261,1.735,0.08,1.834-0.851
	C69.945,34.117,69.803,34.146,69.69,34.284z M64.588,33.632C64.589,33.632,64.655,33.552,64.588,33.632
	C64.559,33.632,64.588,33.632,64.588,33.632z M64.417,33.774c0.057-0.019,0.113-0.038,0.171-0.057
	C64.566,33.824,64.509,33.843,64.417,33.774z M64.191,35.588c-0.032,0.007-0.134-0.001-0.142,0
	c-0.757,0.189-0.905-0.209-0.788-0.883C63.378,34.038,65.018,34.722,64.191,35.588z M63.283,33.094
	c0.451-0.075,1.148,0.266,0.855,0.813c-0.157,0.292-0.536,0.328-0.828,0.292C63.202,33.844,63.193,33.454,63.283,33.094z M63,35.532
	c0.141-0.021,0.178,0.018,0.11,0.115C63.031,35.658,62.993,35.62,63,35.532z M63.085,33.377
	C63.01,33.377,63.01,33.377,63.085,33.377C63.085,33.406,63.085,33.377,63.085,33.377z M64.219,33.434
	c0.028,0.028,0.057,0.057,0.085,0.085C64.192,33.546,64.247,33.493,64.219,33.434z M65.183,35.361
	c0.229-0.553-0.597-0.959-0.394-1.255c0.259-0.376,0.261-0.887-0.236-1.106c-0.286-0.126-0.688-0.005-0.922-0.083
	c-0.43-0.144-1.196-0.278-1.651-0.05c0,0.227,0.337,0.314,0.482,0.17c0.064,0.472,0.093,0.949,0.099,1.425
	c0.003,0.248,0.001,0.495-0.004,0.743c-0.016,0.752-0.174,0.129-0.493,0.554C62.141,36.215,64.938,35.852,65.183,35.361z
	 M60.846,34.369C60.923,34.395,60.846,34.627,60.846,34.369C60.931,34.397,60.846,34.369,60.846,34.369z M60.931,34.086
	c-0.369-0.092-0.442,0.46-0.79,0.542c-0.446,0.105-0.836-0.224-1.207-0.411c-0.832-0.42-1.612,0.021-1.973,0.805
	c0.343,0.214,0.431-0.089,0.647-0.282c0.417-0.37,1.025-0.003,1.394,0.229c0.522,0.332,1.031,0.253,1.526-0.087
	C60.702,34.765,61.257,34.314,60.931,34.086z M85.082,34.454c0.446,1.089-1.104,2.062-1.984,1.474
	c-0.146-0.654-0.039-1.13,0.453-1.617C84.008,33.859,84.711,33.974,85.082,34.454z M84.799,36.24
	C84.799,36.167,84.991,36.24,84.799,36.24C84.799,36.212,84.799,36.24,84.799,36.24z M83.041,34.908
	C83.003,34.908,83.003,34.908,83.041,34.908C83.041,34.936,83.041,34.908,83.041,34.908z M83.296,33.859
	c0.089,0.107,0.057-0.164,0.057,0.085C83.232,33.965,83.336,33.907,83.296,33.859z M83.664,33.717
	C83.664,33.825,83.701,33.644,83.664,33.717C83.664,33.689,83.664,33.717,83.664,33.717z M85.422,34.936
	c0.045,0.083,0.057-0.041,0.057,0.114C85.403,35.055,85.39,35.001,85.422,34.936z M85.535,35.021
	c0.073,0.057,0.064,0.104-0.028,0.142C85.517,35.116,85.526,35.069,85.535,35.021z M82.843,34.879
	C82.881,34.842,82.881,34.842,82.843,34.879C82.815,34.851,82.843,34.879,82.843,34.879z M84.941,33.831
	c-0.695-0.316-1.452-0.577-2.104,0.004c-0.633,0.563-0.657,1.369-0.177,2.031c0.436,0.599,1.052,0.979,1.798,0.763
	c0.456-0.132,1.164-0.575,1.164-1.126c0.01,0.038-0.01,0.048-0.058,0.029C85.971,35.079,85.458,34.208,84.941,33.831z
	 M81.964,33.179C81.742,33.179,82.185,33.068,81.964,33.179C81.907,33.179,81.964,33.179,81.964,33.179z M81.738,33.235
	c0.016,0.014,0.224-0.105,0.082,0.073C81.755,33.344,81.728,33.32,81.738,33.235z M81.681,33.547c-0.042-0.076-0.042-0.151,0-0.227
	c0.033,0.026,0.071,0.036,0.113,0.028C81.796,33.439,81.758,33.506,81.681,33.547z M83.296,32.357
	c-0.37-0.186-0.949-0.876-1.36-0.794c0.055,0.154,0.148,0.277,0.283,0.369c-0.12,0.186-0.248,0.365-0.384,0.54
	c-0.328,0.432-0.599,0.128-0.969-0.179c-0.432-0.358-0.431-0.42-0.075-0.85c0.118-0.138,0.233-0.278,0.351-0.418
	c0.122,0.077,0.254,0.124,0.397,0.142c-0.042-0.164-1.02-1.167-1.276-0.907c0.08,0.479,0.509,0.01,0.063,0.586
	c-0.146,0.186-0.486,0.562-0.486,0.774c-0.197,0.138-0.337,0.354-0.474,0.547c-0.389,0.546-0.306,0.172-0.83,0.304
	c0.081,0.271,0.698,0.511,0.902,0.741c0.144,0.161,0.289,0.326,0.468,0.198c0.162-0.116-0.226-0.329-0.266-0.429
	c0.107-0.251,0.258-0.455,0.442-0.654c0.321-0.348,0.312-0.122,0.604,0.145c0.165,0.15,0.682,0.411,0.738,0.481
	c0.029,0.029-0.079,0.243-0.113,0.312c-0.167,0.201-0.356,0.382-0.51,0.595c-0.167,0-0.302-0.179-0.448-0.059
	c-0.026,0.022,1.139,0.974,1.299,1.051c0.306-0.305-0.468-0.319-0.163-0.803c0.177-0.279,0.326-0.473,0.54-0.702
	c0.291-0.314,0.589-0.621,0.813-0.989C83.157,32.483,83.164,32.621,83.296,32.357z M78.619,29.834
	c-0.122-0.046-0.112-0.083,0.027-0.113C78.665,29.765,78.656,29.802,78.619,29.834z M78.478,29.947
	C78.478,29.894,78.607,29.832,78.478,29.947C78.478,29.919,78.478,29.947,78.478,29.947z M78.335,29.664
	c0.075,0.014,0.113,0.062,0.114,0.142C78.345,29.808,78.307,29.76,78.335,29.664z M78.365,29.891
	C78.365,29.855,78.406,29.858,78.365,29.891C78.365,29.834,78.365,29.891,78.365,29.891z M78.307,29.976
	C78.345,29.938,78.345,29.938,78.307,29.976C78.279,29.976,78.307,29.976,78.307,29.976z M78.194,29.777
	C78.272,29.699,78.153,29.818,78.194,29.777C78.222,29.749,78.194,29.777,78.194,29.777z M77.571,30.486
	c0.005,0.001-0.466,1.072-0.511,1.162c-0.393-0.27-0.855-0.41-1.247-0.68c0.492-0.305,0.857-0.75,1.137-1.251
	c0.122-0.221,0.229-0.449,0.339-0.676c0.298,0.089,0.586,0.206,0.878,0.312C77.979,29.725,77.852,30.169,77.571,30.486z
	 M78.25,29.494C78.313,29.556,78.313,29.556,78.25,29.494L78.25,29.494z M79.356,29.749c-0.282-0.424-0.942-0.573-1.399-0.742
	c-0.475-0.175-0.9-0.477-1.377-0.477c-0.025,0.103,0.177,0.182,0.057,0.085c0.551,0.369,0.085,0.44,0.085,1.021
	c-0.087-0.06-0.144-0.041-0.17,0.057c0.068,0.006,0.087,0.044,0.057,0.113c-0.101-0.118-0.057,0.218-0.057-0.113
	c-0.313,0.438-0.488,0.893-1.022,1.119c-0.364,0.155-0.309-0.251-0.63,0.074c-0.161,0.163-0.522,0.695-0.021,0.649
	c0.104-0.938,1.076-0.238,1.554,0.018c0.487,0.261,0.953,0.564,1.451,0.804c-0.022,0.223-0.149,0.399-0.17,0.624
	c0.247,0,0.229,0.248,0.386-0.124c0.081-0.192,0.306-0.509,0.038-0.644c-0.297-0.148-0.361-0.065-0.188-0.44
	c0.315-0.685,0.669-1.353,0.953-2.052C78.98,29.759,79.356,29.993,79.356,29.749z M71.901,28.813
	c0.058-0.019,0.114-0.038,0.171-0.057C72.045,28.851,71.989,28.87,71.901,28.813z M70.852,28.473
	c0.155-0.257,0.541-0.766,0.794-0.85c0.066,0.33,0.143,0.712,0.143,1.049C71.482,28.569,71.164,28.542,70.852,28.473z M71.759,27.68
	C71.694,27.745,71.694,27.745,71.759,27.68L71.759,27.68z M72.1,29.125C72.161,29.187,72.162,29.188,72.1,29.125L72.1,29.125z
	 M72.128,28.672C72.323,28.575,72.057,28.813,72.128,28.672C72.185,28.644,72.128,28.672,72.128,28.672z M72.156,28.388
	C72.156,28.388,72.09,28.469,72.156,28.388C72.185,28.388,72.156,28.388,72.156,28.388z M71.504,29.692
	c0.189,0.148,1.512,0.762,1.616,0.312c-0.207-0.103-0.383,0.022-0.497-0.209c-0.157-0.314-0.158-0.751-0.205-1.091
	c-0.045-0.322-0.128-2.3-0.801-1.762c-0.175,0.524-0.651,0.922-1.015,1.315c-0.204,0.222-0.361,0.482-0.57,0.721
	c-0.165,0.189-0.549,0.094-0.627,0.289c0.392,0.056,0.791,0.313,1.19,0.142c0-0.2-0.251-0.151-0.368-0.198
	c0.448-0.899,1.806-0.554,1.7,0.454C71.782,29.614,71.641,29.624,71.504,29.692z M68.669,26.659
	c-0.051-0.032-0.079-0.08-0.085-0.142C68.88,26.518,68.669,26.612,68.669,26.659z M66.402,26.857
	c-0.083-0.006-0.109-0.053-0.085-0.142C66.412,26.728,66.441,26.774,66.402,26.857z M66.402,27.141
	c-0.07-0.047-0.15,0.043-0.112-0.114C66.378,27.018,66.416,27.056,66.402,27.141z M66.118,27.283
	c-0.101-0.012-0.119-0.049-0.058-0.113C66.08,27.207,66.1,27.245,66.118,27.283z M67.848,26.234
	C67.923,26.234,67.923,26.234,67.848,26.234C67.848,26.206,67.848,26.234,67.848,26.234z M68.754,28.842
	c0.019-0.569,0.082-1.135,0.149-1.7c0.026-0.217,0.054-0.435,0.077-0.652c0.104,0,0.359,0.074,0.426-0.057
	c0-0.233-1.591-0.467-1.674-0.085c0.462,0,0.303,0.149,0.31,0.563c0.012,0.626-0.165,0.511-0.712,0.411
	c-0.641-0.117-0.594-0.088-0.555-0.712c0.037-0.569,0.322-0.092,0.392-0.433c-0.38-0.084-1.275-0.285-1.531-0.028
	c0.507,0.125,0.407,0.22,0.375,0.768c-0.033,0.566-0.091,1.13-0.091,1.698c-0.061,0.072-0.563-0.125-0.397,0.17
	c0.484,0.138,1.032,0.172,1.531,0.113c0.028-0.285-0.288-0.152-0.426-0.255c0.062-0.402-0.146-1.128,0.363-1.055
	c0.419,0.061,1.063-0.049,0.967,0.512c-0.047,0.228-0.095,0.456-0.14,0.685c-0.153-0.062-0.397,0.007-0.426,0.198
	c0.236,0.068,1.604,0.357,1.729,0.057C69.063,28.889,68.786,29.005,68.754,28.842z M61.214,28.729
	c-0.182-0.363-0.239-1.168,0.198-1.204c0.309-0.025,0.795,0.012,0.895,0.382C62.453,28.451,61.718,28.879,61.214,28.729z
	 M60.818,26.064c-0.038,0.028-0.075,0.028-0.112,0C60.84,25.929,60.732,25.987,60.818,26.064z M60.704,27.453
	c0.076-0.036,0.113-0.008,0.112,0.085C60.768,27.525,60.73,27.497,60.704,27.453z M60.365,26.914c0.053-0.071,0.108-0.071,0.17,0
	C60.478,27.027,60.421,27.027,60.365,26.914z M61.413,26.007C61.374,26.045,61.374,26.045,61.413,26.007
	C61.413,26.036,61.413,26.007,61.413,26.007z M62.689,28.729c0.673-0.613,0.403-1.286-0.41-1.411
	c-0.323-0.05-0.652-0.057-0.979-0.076c-0.332-0.02-0.256-0.744-0.283-1.064c0.187,0,0.455,0.109,0.511-0.17
	c-0.061-0.214-0.472-0.086-0.618-0.092c-0.159-0.005-1.268-0.038-1.196,0.318c0.18,0.06,0.339-0.099,0.51-0.057
	c0.052,0.406,0.104,0.813,0.152,1.218c0.043,0.365,0.084,0.73,0.125,1.095c0.085,0.764-0.313,0.007-0.476,0.493
	c0.487,0.143,0.982-0.083,1.476-0.028C61.916,28.979,62.344,29.015,62.689,28.729z M55.942,26.971
	c0.026,0.035,0.085-0.013,0.058,0.085C55.908,27.057,55.889,27.028,55.942,26.971z M55.828,26.999
	c0.166,0.666,0.183,1.042,0.824,1.352c0.541,0.26,1.037-0.152,1.557-0.274c0.087,0.259,0.084,0.51,0.104,0.777
	c0.042,0.571-0.343,0.1-0.473,0.555c0.495,0.064,0.908-0.193,1.377-0.283c0.621-0.119,0.182-0.272-0.188-0.199
	c-0.132-0.821-0.251-1.644-0.367-2.466c0.442,0.041,0.514-0.317-0.04-0.228c-0.391,0.063-0.99,0.086-1.235,0.455
	c0.154-0.015,0.305-0.043,0.453-0.085c0.06,0.386,0.219,0.748,0.283,1.134c-0.244,0.244-0.587,0.396-0.937,0.368
	c-0.302-0.259-0.418-0.625-0.473-1.005c-0.097-0.669,0.312-0.039,0.388-0.497c-0.38-0.238-1.387,0.156-1.7,0.425
	C55.547,27.059,55.689,27.05,55.828,26.999z M54.185,30.089C54.271,30.048,54.185,30.099,54.185,30.089L54.185,30.089z
	 M53.221,29.664C53.159,29.602,53.158,29.601,53.221,29.664L53.221,29.664z M52.823,28.332
	C52.861,28.294,52.861,28.294,52.823,28.332C52.823,28.303,52.823,28.332,52.823,28.332z M54.61,27.283
	C54.545,27.324,54.591,27.295,54.61,27.283L54.61,27.283z M55.149,28.927c-0.059,0.148-0.069,0.3-0.033,0.456
	c0.043,0.425-0.353,0.336-0.683,0.441c-0.362,0.115-0.563,0.367-0.726-0.029c-0.096-0.229-0.211-0.444-0.231-0.698
	c0.229-0.057,0.47-0.17,0.709-0.17c0.262,0.131-0.041,0.507,0.357,0.348c0.264-0.106-0.104-0.474-0.104-0.688
	c-0.154-0.075-0.021-0.367-0.368-0.425c-0.177,0.436,0.299,0.391-0.228,0.652c0.075-0.017,0.081,0.008,0.018,0.074
	c-0.082,0.035-0.305,0.006-0.471,0.039c-0.088-0.53-0.563-1.062,0.083-1.259c0.332-0.101,0.632-0.275,0.936-0.057
	c0.188,0.056,0.284,0.192,0.285,0.408c0.398,0,0.373-0.125,0.229-0.411c-0.189-0.377-0.198-0.593-0.68-0.525
	c-0.258,0.036-0.631,0.261-0.769,0.313c-0.424,0-1.059,0.166-1.502,0.51c0.06,0.295,0.302,0.142,0.425,0.142
	c0.098,0.292,0.208,0.604,0.337,0.88c0.158,0.337,0.279,0.688,0.35,1.054c0.14,0.733-0.188,0.111-0.262,0.618
	c0.373,0.249,0.364,0.078,0.772-0.118c0.357-0.171,0.739-0.278,1.118-0.389c0.293-0.085,0.869-0.096,0.877-0.402
	C55.599,29.411,55.539,28.901,55.149,28.927z M51.463,30.996C51.426,31.034,51.426,31.034,51.463,30.996
	C51.463,31.024,51.463,30.996,51.463,30.996z M51.718,30.911C51.68,30.949,51.68,30.949,51.718,30.911
	C51.746,30.911,51.718,30.911,51.718,30.911z M48.912,29.522c0.192,0.772,0.762,1.402,0.708,2.239
	c-0.213-0.128-0.487-0.109-0.596,0.142c0.396,0-0.021,0.063,0.097,0.122c0.146,0.073,0.077-0.06,0.103,0.105
	c-0.087,0.019-0.163,0-0.227-0.057c0.118,0.588,0.813,0.165,0.944-0.183c0.158-0.422-0.057-1.176-0.293-1.433
	c0-0.239-0.221-0.591-0.306-0.85c-0.138-0.214-0.069-0.333,0.208-0.36c0.377-0.177,0.472-0.319,0.716,0.057
	c0.271,0.418,0.592,0.83,0.715,1.322c0.464,0.465,0,0.539-0.283,0.879c0.051-0.013,0.173,0.17,0.283,0.17
	c0.352-0.448,1.022-0.464,1.475-0.765c-0.044-0.223-0.29-0.176-0.438-0.124c-0.302,0.106-0.343-0.268-0.474-0.514
	c-0.183-0.342-0.505-0.764-0.505-1.063c0.011,0.112-0.034,0.148-0.136,0.108c-0.018-0.044-0.028-0.089-0.034-0.136
	c0.155-0.159,0.035-0.251-0.059-0.482c0.115-0.049,0.561-0.181,0.313-0.397c-0.299,0.027-0.511,0.226-0.737,0.397
	c-0.269,0-1.956,0.504-1.956,0.907C48.593,29.59,48.754,29.562,48.912,29.522z M48.997,31.96
	C48.997,32.036,48.997,32.036,48.997,31.96L48.997,31.96z M47.579,32.414c0.079,0,0.228,0.095,0.228,0.198
	C47.656,32.645,47.58,32.579,47.579,32.414z M47.183,31.96c0.062-0.037,0.108-0.028,0.143,0.028
	C47.268,32.063,47.221,32.053,47.183,31.96z M47.098,32.158c0-0.047,0-0.094,0-0.142C47.286,32.017,47.213,32.215,47.098,32.158z
	 M46.077,33.037c0-0.381-0.061-0.755-0.085-1.134c0.368,0.13,0.709,0.322,1.076,0.454C46.826,32.669,46.385,32.8,46.077,33.037z
	 M47.041,32.017C47.004,32.054,47.004,32.054,47.041,32.017C47.041,32.045,47.041,32.017,47.041,32.017z M45.709,32.47
	c0.033-0.05-0.018-0.3,0-0.284c0.075-0.017,0.149-0.017,0.227,0C45.928,32.338,45.853,32.433,45.709,32.47z M48.487,32.527
	c0.018-0.069-2.919-2.28-2.919-1.077c0,0.586,0.068,1.345,0.228,1.899c0.087,0.176,0.121,0.553,0.138,0.759
	c0.022,0.272-0.187,0.175-0.223,0.432c0.447,0.28,0.74-0.375,1.134-0.454c-0.077-0.387-0.384-0.163-0.596-0.057
	c0-0.213-0.085-0.412-0.085-0.624c0.253-0.168,0.489-0.36,0.747-0.523c0.183-0.115,0.445-0.33,0.65-0.209
	c0.078,0.045,0.501,0.267,0.258,0.384c-0.586,0.282,0.1,0.363,0.454,0.04c0.165-0.15,0.322-0.254,0.526-0.344
	C49.195,32.581,48.694,32.32,48.487,32.527z M44.519,35.9C44.48,35.9,44.48,35.9,44.519,35.9C44.519,35.928,44.519,35.9,44.519,35.9
	z M44.575,35.985C44.538,36.023,44.538,36.023,44.575,35.985L44.575,35.985z M45.057,35.872c0.598-0.716,0.719-1.772-0.51-1.672
	c-0.092-0.637-0.466-1.207-1.211-0.953c-0.338,0.115-0.61,0.385-0.803,0.676c-0.291,0.437-0.109,0.319-0.538,0.391
	c0,0.344,0.581,1.015,0.936,0.964c0.039-0.308-0.284-0.367-0.227-0.705c0.06-0.352,0.203-0.782,0.644-0.729
	c1.238,0.153,0.005,0.788-0.021,1.178c0.558,0.278,0.897-0.73,1.4-0.278c0.447,0.402-0.039,1.016-0.37,1.228
	c-0.53,0.339-0.289-0.501-0.833-0.297c-0.277,0.069-0.281,0.435-0.112,0.61C43.837,36.721,44.747,36.227,45.057,35.872z
	 M76.323,59.398c-0.222-0.188-0.232-0.531-0.257-0.793c0.179,0,0.324-0.123,0.529-0.143C77.339,58.395,76.649,59.282,76.323,59.398z
	 M75.586,58.15C75.553,58.15,75.586,57.979,75.586,58.15C75.473,58.15,75.586,58.15,75.586,58.15z M76.295,57.443
	C76.257,57.48,76.257,57.48,76.295,57.443C76.295,57.473,76.295,57.443,76.295,57.443z M75.954,58.379
	c-0.035-0.175-0.013-0.313-0.17-0.313c0-0.237,0.005-0.396,0.303-0.489c0.186-0.058,0.456-0.246,0.577-0.017
	c0.073,0.141,0.139,0.304,0.339,0.223c-0.108-1.194-1.439-0.301-2.154-0.17c0.072,0.133,0.187,0.199,0.34,0.197
	c0.101,0.23,0.168,0.475,0.256,0.709c0,0.203,0.27,0.832,0.341,1.135c-0.165-0.041-0.298,0.006-0.396,0.142
	c0.399,0.479,1.843-0.313,2.077-0.722C78.05,58.057,76.522,58.124,75.954,58.379z M73.064,59.2c0.027-0.242,0.15-0.452,0.228-0.681
	c0.185,0.153,0.26,0.408,0.34,0.623C73.43,59.122,73.259,59.2,73.064,59.2z M72.751,59.598c-0.005-0.08,0.033-0.117,0.112-0.113
	C72.869,59.564,72.831,59.604,72.751,59.598z M74.594,59.739c-0.27-0.421-0.49-0.871-0.681-1.332
	c-0.106-0.239-0.14-0.767-0.524-0.593c-0.594,0.27-0.766,1.737-1.317,2.293c0.288,0.129,1.541-0.082,0.736-0.283
	c0.162-0.487,0.947-0.775,1.105-0.143c0.084-0.084,0.112,0.051,0.112,0.113c-0.058,0-0.341,0.089-0.396,0.199
	c0.306,0.138,0.716,0.023,1.027-0.026C74.987,59.915,74.971,59.739,74.594,59.739z M69.946,59.711
	C69.962,59.752,69.946,59.814,69.946,59.711L69.946,59.711z M70.2,57.729c-0.26-0.03-1.041-0.356-1.22,0
	c0.391,0.19,0.244,0.572,0.198,0.963c-0.023,0.199-0.077,0.43-0.098,0.637c-0.06,0.585-0.136,0.023-0.356,0.355
	c0.124,0.28,1.155,0.366,1.409,0.26c0.363-0.154-0.376-0.26-0.36-0.26c-0.021-0.402,0.025-0.81,0.073-1.207
	c0.054-0.438-0.081-0.547,0.406-0.537c0.398,0.01,0.568-0.092,0.568,0.299c0,0.515-0.138,1.056-0.085,1.587
	c-0.139-0.042-0.262-0.015-0.367,0.085c0.176,0.15,1.239,0.438,1.332,0.113c-0.079-0.123-0.192-0.16-0.341-0.113
	c-0.018-0.205-0.018-0.41,0-0.616c0.031-0.412,0.108-0.817,0.17-1.226c0.311,0,0.585-0.178,0.063-0.256
	C71.134,57.744,70.664,57.748,70.2,57.729z M67.082,59.568C66.855,59.568,67.094,59.523,67.082,59.568
	C67.026,59.568,67.082,59.568,67.082,59.568z M66.203,59.257c-0.438-0.084-0.581-0.131-0.992-0.196
	c0.415-0.535,0.563-1.189,0.681-1.844c0.69,0.086,0.581,0.154,0.511,0.766C66.354,58.41,66.329,58.842,66.203,59.257z M65.75,57.188
	C65.712,57.227,65.712,57.227,65.75,57.188C65.75,57.217,65.75,57.188,65.75,57.188z M65.835,57.104
	C65.748,57.146,65.835,57.093,65.835,57.104L65.835,57.104z M67.394,57.443c0.135-0.067-0.433-0.174-0.405-0.17
	c-0.543-0.096-1.141-0.448-1.691-0.198c0.229,0.229,0.22,0.127,0.146,0.56c-0.066,0.408-0.16,0.842-0.439,1.163
	c-0.089,0.16-0.22,0.222-0.392,0.185c-0.381,0-0.204,0.324-0.279,0.588c0.32,0.32,0.344-0.206,0.481-0.34
	c0.362-0.063,1.672,0.146,1.904,0.455c0.017,0.022,0.271,0.879,0.417,0.338c0.096-0.357,0.028-0.681-0.337-0.681
	c0.02-0.427,0.099-0.85,0.195-1.265c0.045-0.193,0.094-0.387,0.145-0.578C67.245,57.559,67.33,57.539,67.394,57.443z M64.645,56.818
	C64.683,56.783,64.683,56.783,64.645,56.818C64.645,56.792,64.645,56.818,64.645,56.818z M62.859,58.208
	C62.859,58.172,62.859,58.172,62.859,58.208C62.83,58.208,62.859,58.208,62.859,58.208z M63.085,57.245
	C63.17,57.188,63,57.33,63.085,57.245L63.085,57.245z M64.049,56.792c0.104,0.058,0.208,0.113,0.312,0.17
	c-0.205,0.308-0.474,0.701-0.765,0.937c-0.128-0.381-0.312-0.756-0.341-1.162c0.314,0,0.516-0.256,0.057-0.256
	c-0.274-0.147-0.774-0.156-1.077-0.113c0.055,0.121,0.149,0.188,0.284,0.197c0.111,0.31,0.25,0.605,0.386,0.903
	c0.042,0.095,0.476,1.447-0.018,1.054c0.19-0.569-0.569-0.506-0.539-0.17c0.331,0.573,0.669,0.541,1.134,0.17
	c0.521-0.369,0.765-1.076,1.276-1.476C65.638,57.046,64.337,56.503,64.049,56.792z M62.15,57.5
	C62.136,57.486,62.138,57.436,62.15,57.5C62.121,57.473,62.15,57.5,62.15,57.5z M60.959,57.557c0.025-0.334,0.146-0.642,0.227-0.964
	c0.225,0.009,0.433,0.122,0.502,0.345C61.835,57.405,61.385,57.747,60.959,57.557z M60.421,57.387
	c-0.583,0.139-0.578-1.101,0.17-0.906C60.522,56.78,60.465,57.081,60.421,57.387z M59.74,57.046
	C59.778,57.046,59.778,57.046,59.74,57.046C59.74,57.02,59.74,57.046,59.74,57.046z M62.206,57.159
	c-0.024-0.429-0.459-0.622-0.792-0.779c-0.567-0.269,0.173-0.131,0.254-0.212c0.09-0.314-1.275-0.572-1.275-0.255
	c0.095-0.099,0.393,0.146,0.198,0.34c-0.319-0.091-1.07-0.052-1.135,0.341c-0.084,0.51,0.138,0.771,0.613,0.973
	c0.673,0.285-0.062,0.238-0.216,0.444c0.2,0.16,1.162,0.45,1.36,0.228c-0.048-0.146-0.711-0.469-0.051-0.381
	C61.605,57.918,62.284,57.73,62.206,57.159z M56.707,57.075c-0.274-0.104-0.567-0.157-0.852-0.228
	c0.313-0.312,0.458-0.727,0.548-1.148c0.129-0.605,0.102-0.698,0.757-0.467C56.995,55.846,56.995,56.498,56.707,57.075z
	 M56.962,57.302C57.038,57.302,57.038,57.302,56.962,57.302C56.99,57.273,56.962,57.302,56.962,57.302z M55.743,56.678
	C55.714,56.611,55.777,56.678,55.743,56.678L55.743,56.678z M55.715,56.792C55.753,56.792,55.753,56.792,55.715,56.792
	C55.715,56.764,55.715,56.792,55.715,56.792z M56.169,56.083C56.094,56.119,56.094,56.119,56.169,56.083
	C56.169,56.109,56.169,56.083,56.169,56.083z M55.262,56.876C55.3,56.876,55.3,56.876,55.262,56.876
	C55.262,56.85,55.262,56.876,55.262,56.876z M57.388,55.091c-0.41-0.108-1.224-0.491-1.616-0.17
	c0.079,0.315,0.402-0.126,0.345,0.354c-0.027,0.22-0.061,0.438-0.121,0.65c-0.115,0.404-0.354,0.771-0.796,0.85
	c-0.728,0.127-0.19,1.17-0.04,0.447c0.11-0.535,1.798,0.159,2.199,0.276c0,0.175-0.104,0.288-0.085,0.481
	c0.278,0.28,0.354-0.062,0.38-0.226c0.105-0.669-0.418-0.301-0.298-0.901c0.052-0.254,0.314-1.455,0.5-1.424
	c0.109,0.02,0.322-0.063,0.166-0.207C57.86,55.075,57.584,55.13,57.388,55.091z M53.674,55.827c0.034-0.067,0.09-0.097,0.17-0.084
	C53.811,55.823,53.754,55.852,53.674,55.827z M53.702,56.141C53.778,56.141,53.778,56.141,53.702,56.141L53.702,56.141z
	 M53.334,54.467C53.41,54.393,53.41,54.393,53.334,54.467C53.334,54.41,53.334,54.467,53.334,54.467z M54.525,54.693
	c0.104,0.029,0.197,0.076,0.283,0.142c-0.216,0.325-0.4,0.687-0.68,0.965c-0.211-0.331-0.292-0.725-0.454-1.077
	c0.089,0,0.312-0.113,0.34-0.113c-0.162-0.203-1.223-0.519-1.304-0.113c0.428,0,1.215,1.928,0.736,1.928
	c0.042-0.134,0.01-0.24-0.099-0.322c-0.309-0.203-0.291,0.031-0.439,0.182c0.2,0.314,0.798,0.627,1.056,0.209
	c0.209-0.34,0.563-0.598,0.784-0.951c0.125-0.199,0.24-0.416,0.399-0.591c0.081-0.021,0.368-0.013,0.368-0.17
	C55.345,54.572,54.7,54.43,54.525,54.693z M50.868,56.281C50.854,56.295,50.854,56.295,50.868,56.281
	C50.868,56.253,50.868,56.281,50.868,56.281z M50.726,56.792C50.726,56.753,50.726,56.753,50.726,56.792
	C50.698,56.792,50.726,56.792,50.726,56.792z M51.35,54.495c-0.393,0.046-0.98-0.017-1.274,0.313c0.113,0.041,0.227,0.041,0.34,0
	c0.084,0.461,0.146,0.926,0.265,1.379c0.208,0.787-0.156,0.115-0.237,0.604c0.263,0.131,0.625-0.067,0.879-0.114
	c0.063,0,0.679-0.074,0.3-0.218c-0.353-0.135-0.281,0.22-0.408-0.336c-0.108-0.469-0.174-0.947-0.174-1.431
	c0.291-0.029,0.597-0.021,0.879-0.112c0.146,0.185-0.037,0.68,0.314,0.599c0.219-0.051,0.059-0.346,0.032-0.488
	C52.174,54.189,51.744,54.456,51.35,54.495z M81,53.021C81.075,53.021,81.075,53.021,81,53.021C81,52.993,81,53.021,81,53.021z
	 M80.745,52.964C80.745,52.857,80.745,53.121,80.745,52.964C80.745,52.88,80.745,52.964,80.745,52.964z M80.66,55.743
	C80.506,55.743,80.843,55.555,80.66,55.743C80.632,55.743,80.66,55.743,80.66,55.743z M80.604,55.289
	C80.642,55.251,80.642,55.251,80.604,55.289L80.604,55.289z M80.519,56.083C80.519,56.036,80.616,55.982,80.519,56.083
	C80.519,56.055,80.519,56.083,80.519,56.083z M80.575,55.459C80.354,55.459,80.575,55.357,80.575,55.459
	C80.547,55.459,80.575,55.459,80.575,55.459z M80.235,58.379c-0.145,1.449-1.191,2.146-2.404,2.701
	c-1.501,0.686-3.17,1.186-4.782,1.529c-1.558,0.334-3.117,0.146-4.69,0.02c-1.662-0.135-3.286-0.49-4.874-0.99
	c-3.07-0.965-6.067-2.048-9.208-2.771c-1.473-0.341-3.02-0.472-4.461,0.008c-0.721,0.239-1.561,0.381-2.221,0.733
	c-0.401,0.215-0.843,0.576-1.26,0.727c-0.104-0.762,0.188-1.513,0.219-2.27c0.03-0.762,0.001-1.522,0.21-2.264
	c0.326-1.152,0.146-2.656,1.357-3.376c0.506-0.192,1.081-0.582,1.587-0.709c0.606-0.131,1.216-0.053,1.844-0.207
	c0.784-0.192,1.641-0.138,2.435-0.024c0.756,0.107,1.575,0.516,2.327,0.516c3.147,0.63,6.045,1.979,9.203,2.629
	c0.873,0.18,9.563,1.546,9.563,0.717c0.066,0.027,0.076,0.057,0.027,0.084c0.438-0.055,0.872-0.141,1.306-0.227
	c-0.025,0.007-0.045-0.003-0.058-0.028c0,0.13,3.976-1.465,4.365-1.673c-0.136,0.686-0.142,1.573-0.142,2.098
	c-0.018-0.033-0.17,0.613-0.18,0.703C80.328,56.994,80.26,57.686,80.235,58.379z M51.18,62.631
	c-1.104-0.083-2.213-0.374-3.229-0.808c-0.338-0.144-0.831-0.281-1.081-0.565c-0.25-0.283-0.051-0.979,0.37-0.979
	c-0.088,0.209-0.198,1.304,0.227,1.219c0.311-0.498-0.432-1.331,0.341-1.531c0.058,0.362-0.118,0.701-0.183,1.049
	c-0.031,0.161,0.134,0.957,0.256,0.51c0.132-0.48-0.003-1.4,0.38-1.784c0.311,0.591-0.359,1.243-0.142,1.87
	c0.658,0.095,0.235-1.707,0.651-1.983c0.145,0.097-0.009,0.946-0.059,1.106c-0.043,0.139-0.147,1.348,0.179,0.895
	c0.383-0.531-0.239-2.014,0.616-2.229c0.041,0.287-0.432,2.117,0.085,2.07c0.18-0.181,0.05-0.988,0.087-1.228
	c0.08-0.505,0.055-0.996,0.593-1.126c0.04,0.494-0.111,0.938-0.271,1.396c-0.063,0.182,0.067,1.17,0.258,0.745
	c0.112-0.251-0.057-0.657,0.071-0.979c0.244-0.618-0.048-1.332,0.765-1.332c0.017,0.263-0.625,2.098-0.17,2.098
	c0.187,0,0.364-1.816,0.453-2.014C51.405,60.212,51.609,61.495,51.18,62.631z M46.786,53.532
	C46.749,53.568,46.749,53.568,46.786,53.532L46.786,53.532z M46.843,53.248C46.767,53.286,46.767,53.286,46.843,53.248
	C46.843,53.275,46.843,53.248,46.843,53.248z M49.933,51.434C49.895,51.434,49.895,51.434,49.933,51.434
	C49.933,51.462,49.933,51.434,49.933,51.434z M50.953,51.377C50.953,51.391,50.894,51.425,50.953,51.377
	C50.953,51.405,50.953,51.377,50.953,51.377z M52.144,51.234c-0.034,0.07-0.091,0.09-0.17,0.058
	C52.006,51.177,52.063,51.158,52.144,51.234z M52.455,51.234c-0.021,0.012-0.065,0.238-0.17,0.029
	C52.331,51.197,52.388,51.188,52.455,51.234z M53.136,51.234C53.138,51.232,53.016,51.234,53.136,51.234
	C53.108,51.264,53.136,51.234,53.136,51.234z M54.525,51.405C54.487,51.405,54.487,51.405,54.525,51.405
	C54.525,51.434,54.525,51.405,54.525,51.405z M60.194,52.768C60.137,52.852,60.08,52.682,60.194,52.768L60.194,52.768z
	 M60.365,53.105C60.365,53.145,60.365,53.145,60.365,53.105C60.393,53.105,60.365,53.105,60.365,53.105z M60.619,53.191
	c0.103-0.064,0.141-0.047,0.112,0.057C60.675,53.259,60.637,53.239,60.619,53.191z M63.312,53.898
	C63.274,53.898,63.274,53.898,63.312,53.898C63.283,53.93,63.312,53.898,63.312,53.898z M65.381,54.354
	C65.466,54.297,65.324,54.438,65.381,54.354L65.381,54.354z M66.6,54.723C66.729,54.723,66.6,54.971,66.6,54.723
	C66.656,54.723,66.6,54.723,66.6,54.723z M72.411,55.232C72.411,55.419,72.225,55.139,72.411,55.232
	C72.411,55.289,72.411,55.232,72.411,55.232z M73.205,55.232C73.13,55.232,73.13,55.232,73.205,55.232L73.205,55.232z
	 M76.239,55.091C76.277,55.053,76.277,55.053,76.239,55.091C76.239,55.063,76.239,55.091,76.239,55.091z M76.748,55.063
	C76.673,55.063,76.673,55.063,76.748,55.063L76.748,55.063z M77.429,54.864C77.467,54.825,77.467,54.825,77.429,54.864
	L77.429,54.864z M78.194,54.042C78.194,53.839,78.286,54.089,78.194,54.042C78.194,54.014,78.194,54.042,78.194,54.042z
	 M79.895,53.391C79.895,53.156,80.03,53.436,79.895,53.391C79.895,53.361,79.895,53.391,79.895,53.391z M79.951,52.88
	C79.951,52.775,80.047,52.777,79.951,52.88C79.951,52.852,79.951,52.88,79.951,52.88z M80.376,53.191
	c-0.01,0.065-0.038,0.074-0.085,0.027C80.301,53.152,80.329,53.145,80.376,53.191z M74.764,50.924
	c0.953-0.02,1.903-0.009,2.838,0.199c0.535,0.119,1.06,0.291,1.592,0.421c0.201,0.049,0.401,0.099,0.603,0.149
	c0.3,0.078,0.29-0.063,0.411-0.006c0,0.343,0.644,0.08,0.566,0.582c-0.045,0.293,0.048,0.797-0.341,0.894
	c-0.027-0.272,0.245-0.784-0.085-0.964c-0.035,0.16-0.104,1.189-0.283,1.189c-0.021-0.33,0.283-0.972-0.057-1.219
	c-0.189,0.266-0.072,1.822-0.737,1.559c-0.047-0.375,0.456-1.223,0.085-1.529c-0.554,0.185,0.003,1.928-0.878,1.928
	c0.128-0.429,0.283-1.148,0.283-1.587c-0.01,0.028-0.019,0.056-0.028,0.084c-0.046-0.138,0.177-0.215-0.112-0.312
	c-0.322,0.609-0.211,1.418-0.539,1.983c0.083-0.028,0.11-0.002,0.085,0.078c0.05-0.075-0.614,0.097-0.708,0.12
	c-0.164-0.28,0.227-0.85-0.113-1.021c-0.258,0.139-0.211,0.479-0.184,0.717c0.055,0.479-0.226,0.51-0.667,0.561
	c-0.103-0.407,0.583-1.495,0.057-1.758c-0.237,0.607-0.192,1.41-0.681,1.898c-0.675,0.16-1.376,0.256-2.069,0.256
	C73.8,53.695,74.383,52.302,74.764,50.924z M73.998,52.682C74.101,52.682,74.087,52.783,73.998,52.682
	C74.055,52.682,73.998,52.682,73.998,52.682z M74.906,50.727C75.003,50.818,74.906,50.788,74.906,50.727
	C74.934,50.753,74.906,50.727,74.906,50.727z M79.98,51.575C79.98,51.641,79.867,51.691,79.98,51.575
	C79.98,51.604,79.98,51.575,79.98,51.575z M81.397,52.199c-0.064-0.521-1.521-0.982-1.934-1.114
	c-0.966-0.312-1.832-0.383-2.829-0.429c-0.447-0.021-0.896-0.055-1.343-0.053c-0.515,0.002-1.206-0.104-1.174,0.483
	c0.057,1.05-0.544,1.97-0.544,2.981c0.051-0.086,0.082-0.073,0.099,0.035c-0.094,0.082-0.136,0.09-0.127,0.021
	c-0.062,0.725-0.051,1.12-0.852,1.021c-0.705-0.023-1.411-0.027-2.114-0.102c-1.538-0.159-3.076-0.404-4.593-0.712
	c-1.44-0.292-2.892-0.622-4.287-1.087c-1.422-0.475-2.788-1.092-4.256-1.417c-0.082,0.163-3.029-0.675-3.474-0.736
	c-1.359-0.188-2.536,0.239-3.857,0.239c-0.6,0-0.986,0.236-1.514,0.497c0,0.053-1.141,0.487-1.314,0.603
	c-0.942,0.615-0.617,2.189-0.86,3.163c-0.311,1.237-0.276,2.625-0.438,3.896c-0.05,0.391-0.126,1.262,0.12,1.606
	c0.308,0.508,1.194,0.861,1.707,1.084c0.656,0.284,3.46,1.424,3.704,0.44c0.153-0.619,0.274-1.25,0.233-1.89
	c-0.038-0.588-0.288-1.76,0.525-1.789c1.38-0.053,2.779,0.435,4.103,0.773c1.488,0.383,2.938,0.898,4.384,1.381
	c2.712,0.928,5.351,1.692,8.225,1.936c0.898,0.076,1.844,0.211,2.745,0.162c0.922-0.057,1.803-0.354,2.693-0.567
	c0.854-0.233,1.763-0.45,2.579-0.794c0.817-0.344,1.563-0.833,2.368-1.18c0.329-0.141,0.557-0.346,0.857-0.56
	c0.332-0.233,0.235-0.87,0.261-1.243c0.049-0.744,0.321-1.666,0.24-2.391c-0.086-0.775,0.292-1.543,0.213-2.338
	c0.177-0.303,0.103-0.693,0.128-1.023C81.096,52.796,81.438,52.489,81.397,52.199z M36.836,45.197
	c-0.073,0.732-0.669,0.863-1.297,0.867c-0.325,0.004-0.65-0.023-0.975-0.056c-0.373-0.036-0.266-0.735-0.272-1.061
	c-0.002-0.132-0.065-1.056,0.135-1.056c0.363-0.018,0.729-0.013,1.089,0.045C36.204,44.051,36.856,44.415,36.836,45.197z
	 M36.383,44.063c-0.843-0.535-1.771-0.396-2.722-0.396c0.057,0.438,0.099,0.882,0.092,1.325c-0.008,0.497-0.233,0.992-0.163,1.47
	c0.079,0.534,0.999,0.383,1.48,0.39c0.579,0.008,1.164-0.007,1.736-0.095c-0.218-0.366,0.534-0.843,0.521-1.3
	C37.312,44.876,36.868,44.341,36.383,44.063z M52.908,40.322C52.9,40.343,52.862,40.435,52.908,40.322L52.908,40.322z
	 M52.965,41.031C52.965,41.068,52.965,41.068,52.965,41.031L52.965,41.031z M45.681,41.711
	C45.555,41.788,45.681,41.772,45.681,41.711L45.681,41.711z M38.906,40.861c0.106-0.092-0.054-0.057,0.143-0.057
	C39.021,40.863,38.974,40.882,38.906,40.861z M38.821,41.598C38.736,41.683,38.736,41.484,38.821,41.598L38.821,41.598z
	 M38.594,41.314C38.68,41.272,38.594,41.324,38.594,41.314L38.594,41.314z M38.622,40.436C38.56,40.374,38.56,40.374,38.622,40.436
	L38.622,40.436z M38.537,40.889C38.408,40.959,38.513,40.854,38.537,40.889L38.537,40.889z M38.906,41.796
	C38.719,41.983,38.906,41.681,38.906,41.796C38.877,41.824,38.906,41.796,38.906,41.796z M38.821,40.407
	C38.821,40.612,38.601,40.188,38.821,40.407C38.821,40.436,38.821,40.407,38.821,40.407z M38.792,44.744
	c-0.05,0.068,0.028,0.128-0.113,0.057C38.717,44.782,38.755,44.764,38.792,44.744z M38.566,45.452
	C38.566,45.329,38.622,45.386,38.566,45.452C38.566,45.396,38.566,45.452,38.566,45.452z M37.177,44.604
	C37.241,44.447,37.207,44.623,37.177,44.604L37.177,44.604z M36.978,44.348c0.018,0.021,0.199-0.053,0.086,0.088
	C36.941,44.587,36.99,44.361,36.978,44.348z M37.034,43.865C36.997,43.865,36.997,43.865,37.034,43.865
	C37.034,43.895,37.034,43.865,37.034,43.865z M37.573,45.538c-0.063-0.015-0.083-0.052-0.058-0.114
	C37.638,45.396,37.573,45.443,37.573,45.538z M37.63,43.922C37.706,43.922,37.706,43.922,37.63,43.922
	C37.63,43.895,37.63,43.922,37.63,43.922z M37.687,45.057c0.02,0.037,0.038,0.074,0.058,0.112
	C37.614,45.174,37.594,45.137,37.687,45.057z M37.828,46.389C37.659,46.473,37.828,46.13,37.828,46.389
	C37.772,46.416,37.828,46.389,37.828,46.389z M37.715,45.227c-0.005,0.002,0.225,0.121,0.198,0.112
	c-0.028,0.058-0.058,0.113-0.085,0.17C37.727,45.441,37.69,45.348,37.715,45.227z M38.311,47.068
	c-0.038,0.053-0.085,0.063-0.142,0.027C38.21,47.059,38.257,47.048,38.311,47.068z M38.027,46.331
	c0.119,0.008,0.167,0.063,0.144,0.17C38.091,46.471,38.043,46.414,38.027,46.331z M38.055,46.559
	c0.095,0.094,0.053,0.197-0.113,0.143C37.955,46.634,37.992,46.586,38.055,46.559z M38.027,45.736c-0.142,0.027-0.057-0.143,0-0.057
	V45.736z M38.113,45.65c-0.009,0,0.233,0.031,0.083,0.084C38.125,45.752,38.097,45.725,38.113,45.65z M38.113,45.766
	C38.254,45.793,38.083,45.936,38.113,45.766L38.113,45.766z M38.198,46.273C37.925,46.273,38.42,46.2,38.198,46.273
	C38.169,46.273,38.198,46.273,38.198,46.273z M38.083,45.595C38.019,45.637,38.064,45.607,38.083,45.595L38.083,45.595z
	 M38.083,45.991c-0.107-0.021-0.126-0.078-0.058-0.171C38.101,45.859,38.12,45.917,38.083,45.991z M38.424,45.82
	c-0.118,0.103,0.216,0.058-0.113,0.058C38.329,45.825,38.367,45.807,38.424,45.82z M36.808,43.809
	C36.845,43.809,36.845,43.809,36.808,43.809C36.808,43.78,36.808,43.809,36.808,43.809z M34.965,43.525
	C34.955,43.516,35.014,43.459,34.965,43.525C34.938,43.497,34.965,43.525,34.965,43.525z M35.278,43.439
	C35.216,43.377,35.216,43.377,35.278,43.439L35.278,43.439z M35.532,43.525C35.47,43.463,35.47,43.463,35.532,43.525L35.532,43.525z
	 M35.617,43.809c-0.054-0.043-0.072-0.101-0.058-0.17C35.668,43.66,35.687,43.717,35.617,43.809z M35.136,46.614
	C35.074,46.552,35.074,46.552,35.136,46.614L35.136,46.614z M34.88,46.501C34.945,46.564,34.942,46.563,34.88,46.501L34.88,46.501z
	 M34.908,46.785C34.858,46.734,34.908,46.641,34.908,46.785C34.88,46.757,34.908,46.785,34.908,46.785z M34.71,46.672
	c0.081-0.102-0.129-0.058,0.085-0.058C34.789,46.67,34.761,46.688,34.71,46.672z M33.491,43.469
	C33.416,43.507,33.416,43.507,33.491,43.469C33.491,43.497,33.491,43.469,33.491,43.469z M33.548,45.169
	C33.548,45.098,33.548,45.273,33.548,45.169C33.548,45.111,33.548,45.169,33.548,45.169z M33.491,41.626
	c0.053-0.035-0.043-0.123,0.085-0.113C33.576,41.661,33.631,41.626,33.491,41.626z M33.661,47.295
	C33.586,47.295,33.586,47.295,33.661,47.295C33.661,47.323,33.661,47.295,33.661,47.295z M33.605,45.595
	C33.667,45.657,33.667,45.657,33.605,45.595L33.605,45.595z M33.718,45.339C33.642,45.377,33.642,45.377,33.718,45.339
	C33.718,45.367,33.718,45.339,33.718,45.339z M33.746,43.78C33.784,43.742,33.784,43.742,33.746,43.78
	C33.746,43.752,33.746,43.78,33.746,43.78z M33.775,45.282C34.01,45.225,33.648,45.535,33.775,45.282
	C33.889,45.254,33.775,45.282,33.775,45.282z M34.455,39.84C34.365,39.931,34.455,39.689,34.455,39.84
	C34.427,39.869,34.455,39.84,34.455,39.84z M35.589,40.237C35.702,40.152,35.532,40.322,35.589,40.237L35.589,40.237z
	 M35.249,39.613c0.106-0.066,0.146-0.042,0.112,0.071C35.285,39.726,35.248,39.702,35.249,39.613z M36.921,39.897
	C36.983,39.959,36.983,39.959,36.921,39.897L36.921,39.897z M35.731,39.585c0.038,0.127-0.009,0.184-0.142,0.17
	C35.433,39.599,35.727,39.589,35.731,39.585z M32.386,39.613C32.281,39.528,32.374,39.604,32.386,39.613L32.386,39.613z
	 M33.378,45.538c-0.07-0.008-0.099-0.046-0.085-0.114C33.421,45.398,33.344,45.466,33.378,45.538z M33.293,42.703
	C33.293,42.716,33.234,42.751,33.293,42.703C33.293,42.731,33.293,42.703,33.293,42.703z M33.322,44.829
	c0.026,0.089-0.002,0.136-0.085,0.142C33.027,44.761,33.305,44.854,33.322,44.829z M33.123,45.339
	c-0.004-0.059,0.005-0.114,0.027-0.17C33.457,45.169,33.228,45.305,33.123,45.339z M32.839,44.604
	c-0.07-0.141,0.097-0.086,0.143-0.086C32.961,44.59,32.913,44.618,32.839,44.604z M33.067,45.227
	c-0.002,0.047-0.021,0.084-0.057,0.112C32.856,45.262,33.059,45.232,33.067,45.227z M33.038,42.477c0.169,0,0.003,0.125,0.027,0.227
	C32.902,42.703,33.038,42.554,33.038,42.477z M32.783,42.703C32.847,42.548,32.814,42.723,32.783,42.703L32.783,42.703z
	 M32.868,43.469C32.611,43.469,32.868,43.293,32.868,43.469C32.811,43.469,32.868,43.469,32.868,43.469z M32.641,45.111
	C32.938,45.111,32.404,45.23,32.641,45.111C32.669,45.111,32.641,45.111,32.641,45.111z M32.669,45.48
	C32.556,45.559,32.556,45.559,32.669,45.48C32.641,45.509,32.669,45.48,32.669,45.48z M32.358,44.857
	C32.381,44.881,32.448,44.924,32.358,44.857C32.386,44.886,32.358,44.857,32.358,44.857z M32.358,40.294
	c0.041-0.059,0.071-0.058,0.093,0.004C32.463,40.432,32.368,40.295,32.358,40.294z M32.301,44.148
	C32.489,43.96,32.301,44.361,32.301,44.148C32.329,44.12,32.301,44.148,32.301,44.148z M32.131,43.667
	C32.069,43.604,32.069,43.604,32.131,43.667L32.131,43.667z M32.244,44.716C32.325,44.688,32.26,44.73,32.244,44.716L32.244,44.716z
	 M32.244,43.469C32.306,43.305,32.28,43.48,32.244,43.469L32.244,43.469z M34.994,46.048c-0.089,0.085-0.474-0.057-0.624-0.057
	c-0.071-0.569-0.104-1.147-0.063-1.722c0.047-0.64,0.823-0.388,1.248-0.314c0.669,0.113,1.305,0.48,1.28,1.242
	C36.74,46.152,35.725,46.083,34.994,46.048z M36.326,46.303C36.402,46.303,36.402,46.303,36.326,46.303
	C36.326,46.273,36.326,46.303,36.326,46.303z M36.156,46.559C36.225,46.473,36.227,46.47,36.156,46.559L36.156,46.559z
	 M35.844,46.359c0.078,0.078,0.125,0.25-0.085,0.197C35.787,46.491,35.816,46.426,35.844,46.359z M35.504,47.012
	C35.617,46.927,35.448,47.098,35.504,47.012L35.504,47.012z M35.561,46.473C35.674,46.559,35.476,46.586,35.561,46.473
	L35.561,46.473z M35.589,47.152c-0.034,0.056,0.032,0.113-0.085,0.086C35.499,47.164,35.528,47.136,35.589,47.152z M35.249,46.331
	c0.019-0.054,0.056-0.071,0.112-0.058c0,0.028,0,0.058,0,0.086C35.319,46.377,35.281,46.367,35.249,46.331z M37.857,47.521
	c-0.015-0.101,0.012-0.136,0.078-0.104C37.966,47.49,37.94,47.523,37.857,47.521z M40.068,44.771
	c-0.17-0.17-0.146-0.558-0.314-0.773c-0.207-0.266-0.499-0.572-0.818-0.7c-0.428-0.171-1.062-0.34-1.53-0.34
	c-0.416,0-0.827-0.056-1.246-0.056c-0.492,0-0.983-0.029-1.476-0.029c-0.382,0-0.227-0.67-0.241-0.957
	c-0.01-0.191-0.019-0.383-0.027-0.574c-0.023-0.495,0.238-0.337,0.66-0.342c0.569-0.008,1.141,0.023,1.71,0.032
	c0.45,0.008,0.817-0.134,0.817,0.367c0,0.203,0.027,0.639,0.085,0.793c0,0.39,0.328,0.284,0.652,0.284
	c0.364,0.007,0.727,0.028,1.091,0.028c0.673,0,0.517-0.297,0.51-0.842c-0.006-0.525,0.043-1.05,0.021-1.576
	c-0.033-0.719-0.078-0.848-0.793-0.861c-2.324-0.042-4.625,0.001-6.948-0.133c-0.607-0.035-1.208-0.061-1.813,0.02
	c-0.693,0.092-0.629,0.08-0.639,0.685c-0.006,0.355-0.063,0.741,0.011,1.092c0.208,0,0.416,0,0.623,0
	c0.208,0,0.439,0.057,0.652,0.057c0.292-0.037,0.391,0.091,0.294,0.384c0.011,0.344,0.019,0.688,0.023,1.031
	c0.016,1.209,0,2.421-0.063,3.63c-0.479-0.068-1.062-0.097-1.504,0.139c-0.314,0.165-0.17,1.427-0.026,1.761
	c1.569-0.156,3.138,0.108,4.705,0.019c1.302-0.076,2.854,0.332,4.072-0.185c0.665-0.281,1.149-0.408,1.325-1.203
	C40.015,45.91,40.02,45.395,40.068,44.771z M65.864,44.688c-0.009-0.008-0.243,0.032-0.1-0.088
	C65.936,44.456,65.829,44.655,65.864,44.688z M65.807,42.363C65.831,42.459,65.823,42.425,65.807,42.363L65.807,42.363z
	 M65.551,45.595C65.466,45.708,65.438,45.509,65.551,45.595L65.551,45.595z M65.296,44.688c-0.055-0.002-0.103-0.021-0.143-0.057
	C65.186,44.507,65.373,44.637,65.296,44.688z M64.9,44.46C64.837,44.396,64.837,44.396,64.9,44.46L64.9,44.46z M64.815,45.509
	C64.815,45.376,65.028,45.509,64.815,45.509C64.815,45.452,64.815,45.509,64.815,45.509z M64.786,44.857
	C65.02,44.857,64.741,44.992,64.786,44.857C64.843,44.857,64.786,44.857,64.786,44.857z M64.616,42.42
	c-0.012-0.117,0.025-0.146,0.112-0.085C64.73,42.409,64.693,42.438,64.616,42.42z M64.389,46.927
	c0.004-0.131,0.062-0.169,0.17-0.112C64.558,46.92,64.501,46.958,64.389,46.927z M64.247,44.857
	c0.094-0.056,0.141-0.026,0.142,0.084C64.291,44.989,64.244,44.961,64.247,44.857z M64.134,44.771
	c0.012-0.096,0.059-0.123,0.142-0.084C64.271,44.787,64.224,44.814,64.134,44.771z M63.794,46.048
	c-0.011-0.116,0.026-0.146,0.113-0.085C63.9,46.032,63.862,46.061,63.794,46.048z M63.453,47.55
	C63.503,47.51,63.538,47.55,63.453,47.55L63.453,47.55z M63.312,47.098c0-0.207,0.038-0.086,0.113-0.086
	C63.429,47.083,63.392,47.111,63.312,47.098z M63.029,47.125c-0.124,0.123-0.112-0.076-0.112-0.113
	C63.01,46.993,63.048,47.03,63.029,47.125z M62.745,47.152c-0.271-0.135,0.088-0.287,0.112-0.112
	C62.773,47.025,62.736,47.063,62.745,47.152z M62.036,47.238C62.074,47.2,62.074,47.2,62.036,47.238
	C62.008,47.21,62.036,47.238,62.036,47.238z M60.761,46.559C60.799,46.52,60.799,46.52,60.761,46.559
	C60.733,46.559,60.761,46.559,60.761,46.559z M60.761,46.785c-0.065-0.026-0.083-0.074-0.057-0.143
	C60.774,46.664,60.793,46.711,60.761,46.785z M60.619,46.729C60.603,46.713,60.648,46.646,60.619,46.729
	C60.591,46.7,60.619,46.729,60.619,46.729z M59.684,42.987c0-0.083,0.198-0.183,0.198,0C59.816,42.986,59.75,42.986,59.684,42.987z
	 M59.627,45.623C59.665,45.623,59.665,45.623,59.627,45.623C59.627,45.595,59.627,45.623,59.627,45.623z M59.542,43.439
	C59.618,43.402,59.618,43.402,59.542,43.439C59.542,43.412,59.542,43.439,59.542,43.439z M60.931,40.436
	C60.893,40.436,60.893,40.436,60.931,40.436C60.931,40.464,60.931,40.436,60.931,40.436z M60.959,41.201
	C60.959,41.238,60.959,41.238,60.959,41.201L60.959,41.201z M62.376,40.464C62.247,40.534,62.352,40.428,62.376,40.464
	L62.376,40.464z M62.575,40.067c0.089,0.106,0.057-0.163,0.057,0.085C62.511,40.173,62.615,40.115,62.575,40.067z M62.745,45.936
	c-1.143,1.142-1.875-0.276-2.011-1.309c-0.124-0.945-0.137-2.085,0.325-2.951c0.582-1.092,1.688-0.728,2,0.326
	C63.448,43.311,63.262,44.691,62.745,45.936z M63.879,40.889C63.941,40.951,63.941,40.951,63.879,40.889L63.879,40.889z
	 M64.871,42.221C64.833,42.221,64.833,42.221,64.871,42.221C64.871,42.25,64.871,42.221,64.871,42.221z M59.201,45.057
	C59.201,45.021,59.242,45.023,59.201,45.057C59.201,44.999,59.201,45.057,59.201,45.057z M58.918,42.448
	C58.956,42.411,58.956,42.411,58.918,42.448C58.89,42.448,58.918,42.448,58.918,42.448z M58.635,41.626
	C58.659,41.578,58.672,41.602,58.635,41.626C58.663,41.569,58.635,41.626,58.635,41.626z M57.189,43.383
	C57.173,43.367,57.219,43.302,57.189,43.383C57.16,43.354,57.189,43.383,57.189,43.383z M56.934,44.007
	C56.985,43.98,57.093,44.007,56.934,44.007L56.934,44.007z M55.687,46.133C55.588,45.936,55.943,46.133,55.687,46.133
	C55.658,46.076,55.687,46.133,55.687,46.133z M55.63,44.432c0.047-0.01,0.094-0.019,0.142-0.027c0,0.117-0.027-0.004-0.027,0.113
	C55.671,44.541,55.633,44.514,55.63,44.432z M55.658,42.816C55.621,42.816,55.621,42.816,55.658,42.816
	C55.63,42.845,55.658,42.816,55.658,42.816z M55.489,42.845c-0.03-0.03-0.039-0.068-0.027-0.113c0.047,0,0.094,0,0.142,0
	C55.571,42.776,55.533,42.814,55.489,42.845z M55.29,45.396c0.055-0.054,0.121-0.071,0.197-0.058
	c-0.004,0.041,0.006,0.079,0.028,0.113C55.415,45.533,55.34,45.516,55.29,45.396z M55.29,47.438
	C55.328,47.438,55.328,47.438,55.29,47.438C55.319,47.408,55.29,47.438,55.29,47.438z M55.12,43.979
	c-0.028-0.139,0.226-0.168,0.17,0C55.236,44.009,55.179,44.009,55.12,43.979z M54.978,44.402c0.047-0.027,0.096-0.057,0.144-0.084
	c0.022,0.033,0.031,0.072,0.027,0.113C55.092,44.422,55.035,44.413,54.978,44.402z M54.921,40.833
	c-0.054-0.002-0.103-0.021-0.143-0.057C54.862,40.683,54.909,40.702,54.921,40.833z M54.865,45.991
	C55.006,46.02,54.836,46.161,54.865,45.991L54.865,45.991z M54.723,41.087C54.723,40.958,54.917,41.087,54.723,41.087
	C54.723,41.059,54.723,41.087,54.723,41.087z M54.723,41.513C54.661,41.451,54.661,41.451,54.723,41.513L54.723,41.513z
	 M54.496,46.416c-0.029-0.089,0.197-0.118,0.197-0.027C54.643,46.496,54.576,46.506,54.496,46.416z M54.44,40.265
	c0.07-0.031,0.137-0.021,0.198,0.029C54.638,40.499,54.408,40.392,54.44,40.265z M54.468,39.783
	C54.403,39.783,54.231,39.783,54.468,39.783C54.44,39.783,54.468,39.783,54.468,39.783z M54.27,47.493
	C54.27,47.469,54.381,47.457,54.27,47.493C54.27,47.465,54.27,47.493,54.27,47.493z M54.213,46.443
	C54.251,46.443,54.251,46.443,54.213,46.443C54.213,46.416,54.213,46.443,54.213,46.443z M54.185,42.136
	c-0.08-0.021-0.089-0.06-0.027-0.113C54.213,42.044,54.222,42.082,54.185,42.136z M54.128,40.067
	c-0.084,0.002-0.123-0.036-0.114-0.113C54.172,39.915,54.081,39.996,54.128,40.067z M54.014,41.428
	C54.079,41.273,54.045,41.448,54.014,41.428L54.014,41.428z M53.958,40.152c-0.114,0.028-0.114-0.142,0-0.113V40.152z
	 M53.759,45.793c-0.013-0.104,0.024-0.141,0.113-0.113C53.877,45.76,53.839,45.798,53.759,45.793z M53.759,46.501
	C53.835,46.463,53.835,46.463,53.759,46.501L53.759,46.501z M53.532,46.359c0.037-0.02,0.075-0.039,0.112-0.058
	C53.648,46.395,53.61,46.413,53.532,46.359z M53.249,47.04c0.04-0.086,0.097-0.104,0.17-0.058
	C53.38,47.042,53.323,47.061,53.249,47.04z M53.278,40.351c0.016,0.032,0.085-0.014,0.058,0.085
	C53.223,40.462,53.278,40.426,53.278,40.351z M53.532,40.946C53.594,41.008,53.594,41.008,53.532,40.946L53.532,40.946z
	 M53.589,40.776C53.552,40.813,53.552,40.813,53.589,40.776C53.617,40.804,53.589,40.776,53.589,40.776z M53.844,45.141
	C53.782,45.174,53.82,45.152,53.844,45.141L53.844,45.141z M53.787,39.812c0.104,0,0.057,0.024,0.057,0.085
	C53.754,39.898,53.735,39.87,53.787,39.812z M54.61,41.059c0.063,0.032,0.056,0.226-0.057,0.17
	C54.589,41.178,54.608,41.122,54.61,41.059z M54.723,40.747C54.702,40.706,54.723,40.772,54.723,40.747
	C54.751,40.804,54.723,40.747,54.723,40.747z M55.034,41.456c0.063-0.019,0.078,0.002,0.047,0.063
	C54.994,41.567,54.979,41.545,55.034,41.456z M55.205,41.343C55.221,41.359,55.177,41.423,55.205,41.343
	C55.234,41.371,55.205,41.343,55.205,41.343z M55.347,41.91c0.057,0.019,0.113,0.038,0.17,0.057
	c-0.044,0.114-0.129,0.161-0.255,0.142C55.268,42.032,55.296,41.965,55.347,41.91z M55.573,42.505
	C55.498,42.505,55.498,42.505,55.573,42.505C55.545,42.533,55.573,42.505,55.573,42.505z M55.772,43.015
	C55.734,43.053,55.734,43.053,55.772,43.015C55.772,43.043,55.772,43.015,55.772,43.015z M52.229,46.842
	c-0.05,0.075-0.116,0.094-0.198,0.057C52.059,46.785,52.379,46.691,52.229,46.842z M52.88,40.01
	C52.869,40,52.928,39.944,52.88,40.01C52.852,39.982,52.88,40.01,52.88,40.01z M52.455,40.265c-0.031,0-0.107-0.085-0.143-0.085
	C52.314,40.01,52.455,40.184,52.455,40.265z M52.172,40.407C52.21,40.407,52.21,40.407,52.172,40.407
	C52.172,40.379,52.172,40.407,52.172,40.407z M56.254,39.755c0.022,0.035,0.085-0.014,0.057,0.085
	C56.196,39.861,56.288,39.806,56.254,39.755z M56.339,40.379C56.33,40.271,56.408,40.31,56.339,40.379L56.339,40.379z
	 M66.628,42.731c0-1.331-1.524-2.718-2.607-3.26c-0.738-0.739-2.716-0.235-3.543-0.085c-1.455,0.277-2.794,1.993-3.118,3.373
	c-0.065-0.198-0.909,0.034-1.076,0c-0.246-0.327-0.387-1.315,0.049-1.478c0.568-0.213,0.908-0.124,0.892-0.815
	c-0.007-0.276,0.026-0.56-0.021-0.834c-0.082-0.465-0.285-0.388-0.665-0.388c-0.644,0-1.304,0.085-1.956,0.085
	c-0.536,0-1.072,0.003-1.608-0.006c-0.315-0.006-0.634-0.014-0.949-0.044c-0.569-0.055-0.577,0.175-0.61,0.656
	c-0.028,0.402-0.16,1.134,0.339,1.176c0.744,0.063,1.17-0.201,1.252,0.667c0.104,1.107,0.103,2.199,0.103,3.306
	c0,0.43,0.117,1.134-0.426,1.134c-0.344,0.101-0.828-0.266-1.134,0.058c-0.324,0.324,0.064,1.086-0.143,1.502
	c0.624,0.219,1.316-0.025,1.956,0c0.699,0.039,1.417,0.057,2.102,0.117c0.799,0.07,1.554,0.446,1.618-0.553
	c0.049-0.763,0.164-1.236-0.742-1.236c-0.295-0.215-0.246-0.819-0.204-1.125c0.124-0.905,0.727-0.369,1.31-0.719
	c-0.061,1.151,0.901,2.09,1.574,2.887c0.801,0.945,2.265,1.307,3.464,1.072c1.271-0.248,2.425-0.654,3.272-1.67
	c0.391-0.468,0.646-1.013,0.831-1.591C66.864,44.091,66.984,43.578,66.628,42.731z M50.471,41.938
	c0.006-0.006-0.026-0.214,0.085-0.075C50.648,41.979,50.488,41.922,50.471,41.938z M50.159,42.448
	c-0.026-0.035-0.085,0.013-0.058-0.085C50.193,42.362,50.212,42.391,50.159,42.448z M49.905,42.278
	C49.98,42.278,49.98,42.278,49.905,42.278C49.905,42.25,49.905,42.278,49.905,42.278z M49.791,41.541
	C49.867,41.465,49.867,41.465,49.791,41.541C49.791,41.513,49.791,41.541,49.791,41.541z M49.479,40.067
	C49.479,40.032,49.519,40.034,49.479,40.067C49.479,40.01,49.479,40.067,49.479,40.067z M49.337,40.605
	C49.413,40.605,49.413,40.605,49.337,40.605C49.337,40.577,49.337,40.605,49.337,40.605z M49.337,41.257
	C49.337,41.22,49.337,41.351,49.337,41.257C49.337,41.229,49.337,41.257,49.337,41.257z M49.167,39.84
	C49.211,39.928,49.128,39.879,49.167,39.84L49.167,39.84z M47.948,43.354c0.047,0,0.094,0,0.142,0
	C48.051,43.455,48.003,43.455,47.948,43.354z M47.892,43.837C47.929,43.837,47.929,43.837,47.892,43.837
	C47.892,43.809,47.892,43.837,47.892,43.837z M47.694,43.525C47.694,43.453,47.694,43.631,47.694,43.525
	C47.694,43.469,47.694,43.525,47.694,43.525z M47.324,43.582C47.262,43.52,47.262,43.52,47.324,43.582L47.324,43.582z M47.07,43.354
	c0-0.093,0.055-0.084,0.143-0.084C47.164,43.298,47.117,43.326,47.07,43.354z M46.162,43.695
	C46.154,43.688,46.206,43.609,46.162,43.695C46.134,43.667,46.162,43.695,46.162,43.695z M45.51,47.012
	c0.058,0.143-0.17,0.143-0.142,0H45.51z M45.992,47.04c0.085-0.058,0.085,0.112,0,0.085V47.04z M45.34,46.927
	c-0.023-0.026-0.261,0.063-0.088-0.108C45.377,46.691,45.329,46.914,45.34,46.927z M45.283,47.04
	C45.341,46.925,45.364,47.12,45.283,47.04C45.312,46.982,45.283,47.04,45.283,47.04z M45.17,46.898
	C45.208,46.859,45.208,46.859,45.17,46.898C45.17,46.87,45.17,46.898,45.17,46.898z M45.057,42.845
	C45.094,42.828,45.153,42.845,45.057,42.845L45.057,42.845z M45.029,43.412C45.029,43.375,45.068,43.379,45.029,43.412
	C45.029,43.354,45.029,43.412,45.029,43.412z M45.029,43.95c-0.076-0.039-0.075-0.072,0.002-0.099
	C45.076,43.884,45.075,43.917,45.029,43.95z M44.915,42.562C44.98,42.52,44.934,42.549,44.915,42.562L44.915,42.562z M44.717,41.626
	c0.087-0.019,0.113-0.032,0.198-0.057C44.915,41.773,44.652,41.789,44.717,41.626z M44.774,46.955
	C44.858,46.799,44.808,46.967,44.774,46.955L44.774,46.955z M44.689,42.477C44.627,42.415,44.627,42.415,44.689,42.477
	L44.689,42.477z M44.632,45.057C44.624,45.048,44.676,44.97,44.632,45.057C44.604,45.027,44.632,45.057,44.632,45.057z
	 M44.519,44.801C44.519,44.818,44.623,44.801,44.519,44.801C44.519,44.771,44.519,44.801,44.519,44.801z M44.405,45.111
	C44.396,45.104,44.448,45.025,44.405,45.111C44.376,45.084,44.405,45.111,44.405,45.111z M44.348,44.489
	c0.07,0.021,0.089,0.059,0.057,0.112C44.352,44.584,44.333,44.546,44.348,44.489z M44.32,44.829
	C44.357,44.791,44.357,44.791,44.32,44.829C44.291,44.829,44.32,44.829,44.32,44.829z M44.263,43.1
	C44.263,43.063,44.263,43.191,44.263,43.1C44.263,43.07,44.263,43.1,44.263,43.1z M44.008,41.343
	C44.084,41.305,44.084,41.305,44.008,41.343L44.008,41.343z M44.008,45.027C44.008,44.992,44.049,44.994,44.008,45.027
	C44.008,44.971,44.008,45.027,44.008,45.027z M43.98,47.152c-0.057,0.011-0.112,0.02-0.17,0.029
	C43.786,47.087,43.98,46.93,43.98,47.152z M43.64,45.111c0.057,0,0.113,0,0.17,0C43.838,45.254,43.64,45.223,43.64,45.111z
	 M43.668,46.246C43.742,46.172,43.668,46.393,43.668,46.246C43.697,46.218,43.668,46.246,43.668,46.246z M43.753,43.156
	C43.769,43.172,43.725,43.236,43.753,43.156C43.781,43.186,43.753,43.156,43.753,43.156z M43.781,42.08
	C43.744,42.117,43.744,42.117,43.781,42.08C43.81,42.08,43.781,42.08,43.781,42.08z M43.81,44.574
	C43.826,44.59,43.781,44.655,43.81,44.574C43.838,44.604,43.81,44.574,43.81,44.574z M44.547,42.505
	c0.02,0.148-0.032,0.185-0.154,0.111C44.384,42.521,44.435,42.484,44.547,42.505z M46.758,40.351
	c0.016,0.009,0.217-0.031,0.09,0.069C46.782,40.456,46.752,40.432,46.758,40.351z M47.07,39.727
	c0.071,0.071,0.085-0.093,0.085,0.113C47.027,39.85,47.122,39.761,47.07,39.727z M47.353,40.407
	C47.277,40.407,47.277,40.407,47.353,40.407C47.324,40.436,47.353,40.407,47.353,40.407z M47.381,40.549
	C47.319,40.487,47.319,40.487,47.381,40.549L47.381,40.549z M47.807,40.351C47.742,40.392,47.788,40.363,47.807,40.351
	L47.807,40.351z M45.057,41.881C45.065,41.902,45.103,41.994,45.057,41.881L45.057,41.881z M45.057,41.711
	c0.02,0.066-0.007,0.082-0.078,0.046C44.912,41.666,44.938,41.65,45.057,41.711z M47.24,43.1c-0.788,0-1.532,0.235-1.667-0.759
	c-0.062-0.446-0.298-1.338,0.335-1.338c0.25,0,0.517,0,0.766,0c0.401,0,0.797,0.173,1.077,0.454c0,0.038,0.191,0.504,0.227,0.539
	C47.977,42.382,47.743,43.1,47.24,43.1z M42.903,40.917C42.838,40.849,42.846,40.858,42.903,40.917L42.903,40.917z M42.25,47.012
	C42.328,46.813,42.325,47.012,42.25,47.012L42.25,47.012z M41.599,40.407c-0.052-0.019-0.071-0.056-0.057-0.113
	C41.634,40.292,41.653,40.33,41.599,40.407z M50.839,40.521c-0.681-1.563-3.109-1.275-4.507-1.275c-1.296,0-2.6-0.002-3.899,0
	c-0.51,0.001-1.58-0.255-1.63,0.431c-0.021,0.284-0.145,0.994-0.083,1.241c0.557,0.124,1.153-0.058,1.701,0.113
	c0.109,0.646,0.166,1.301,0.196,1.955c0.033,0.729,0.032,1.463-0.02,2.191c-0.021,0.292-0.05,0.582-0.092,0.871
	c-0.28,0.149-0.649,0.072-0.949,0.062c-0.862-0.034-0.682,0.729-0.615,1.39c0.061,0.586,1.517,0.386,2.019,0.347
	c0.81-0.063,1.545-0.055,2.354,0.028c0.354,0.036,0.712,0.062,1.068,0.035c0.547-0.04,0.751-0.052,0.792-0.609
	c0.048-0.661,0.184-1.292-0.601-1.267c-0.384,0.013-1.149,0.146-1.149-0.409c0-0.384,0.171-0.763,0.171-1.134
	c0-0.438,1.023-0.357,1.377-0.36c0.969-0.007,2.52,0.373,3.271-0.334C51.062,43.025,51.295,41.528,50.839,40.521z M75.473,40.351
	c-0.094,0.036-0.141,0.007-0.142-0.085c0.074,0.014,0.15,0.014,0.227,0C75.568,40.343,75.539,40.371,75.473,40.351z M75.275,40.464
	c0.02,0.038,0.038,0.076,0.058,0.113C75.232,40.565,75.212,40.528,75.275,40.464z M74.566,40.69c0.11,0.005,0.119,0.053,0.028,0.142
	C74.53,40.789,74.52,40.741,74.566,40.69z M72.638,39.67C72.638,39.652,72.568,39.74,72.638,39.67
	C72.638,39.727,72.638,39.67,72.638,39.67z M72.836,40.152C72.774,40.09,72.774,40.09,72.836,40.152L72.836,40.152z M72.723,39.869
	c0.104-0.07,0.152-0.042,0.143,0.085C72.771,40.008,72.724,39.98,72.723,39.869z M73.262,39.557
	c0.086-0.011,0.151,0.017,0.198,0.085C73.365,39.693,73.299,39.665,73.262,39.557z M73.375,40.351
	C73.438,40.413,73.438,40.413,73.375,40.351L73.375,40.351z M73.375,39.698C73.517,39.727,73.375,39.897,73.375,39.698
	L73.375,39.698z M73.347,40.067c-0.047-0.066-0.095-0.132-0.142-0.198C73.344,39.758,73.489,39.981,73.347,40.067z M73.772,40.379
	c-0.081-0.003-0.108-0.041-0.085-0.114C73.758,40.261,73.786,40.299,73.772,40.379z M74.311,40.01
	C74.424,40.067,74.169,40.067,74.311,40.01L74.311,40.01z M74.537,40.549C74.369,40.605,74.537,40.308,74.537,40.549
	C74.452,40.577,74.537,40.549,74.537,40.549z M74.679,40.407C74.614,40.473,74.614,40.473,74.679,40.407L74.679,40.407z
	 M75.218,40.577C75.23,40.565,75.067,40.577,75.218,40.577C75.189,40.605,75.218,40.577,75.218,40.577z M75.388,40.01
	C75.35,40.01,75.35,40.01,75.388,40.01C75.36,40.01,75.388,40.01,75.388,40.01z M73.687,39.585
	c-0.096,0.045-0.171,0.026-0.227-0.057C73.535,39.547,73.612,39.566,73.687,39.585z M67.677,39.869
	c-0.134-0.134,0.055-0.142,0.114-0.142C67.793,39.806,67.755,39.853,67.677,39.869z M67.507,39.755
	C67.469,39.792,67.469,39.792,67.507,39.755L67.507,39.755z M69.946,46.389c-0.031-0.055-0.021-0.103,0.028-0.143
	C70.063,46.311,70.054,46.357,69.946,46.389z M69.832,44.574c0.078-0.043,0.126-0.024,0.142,0.057
	C69.906,44.631,69.832,44.732,69.832,44.574z M69.661,43.979c0.107,0.006,0.127,0.063,0.057,0.17
	C69.615,44.12,69.595,44.063,69.661,43.979z M69.067,40.124C69.067,40.056,69.067,40.177,69.067,40.124
	C69.067,40.067,69.067,40.124,69.067,40.124z M69.095,41.966C69.032,41.904,69.032,41.904,69.095,41.966L69.095,41.966z
	 M68.953,42.845c-0.024,0.032,0.063,0.229-0.114,0.057C68.877,42.883,68.915,42.864,68.953,42.845z M68.925,42.477
	c-0.089,0.026-0.137-0.002-0.143-0.085C69.004,42.17,68.894,42.449,68.925,42.477z M68.159,40.69
	c-0.058-0.009-0.113-0.019-0.171-0.028c0.037-0.105,0.112-0.143,0.228-0.113C68.216,40.701,68.179,40.664,68.159,40.69z
	 M71.589,40.095C71.627,40.095,71.627,40.095,71.589,40.095C71.617,40.067,71.589,40.095,71.589,40.095z M71.702,40.322
	c-0.017-0.059-0.055-0.097-0.113-0.114c0.04-0.04,0.088-0.049,0.142-0.028C71.721,40.228,71.712,40.275,71.702,40.322z
	 M71.164,40.124C71.181,40.117,71.297,40.071,71.164,40.124L71.164,40.124z M71.164,40.521c-0.154,0.015-0.184-0.023-0.085-0.113
	C71.149,40.415,71.177,40.453,71.164,40.521z M71.136,46.443c0,0.203-0.177,0.004-0.198-0.057
	C71.01,46.391,71.075,46.408,71.136,46.443z M71.476,47.295C71.514,47.295,71.514,47.295,71.476,47.295
	C71.476,47.268,71.476,47.295,71.476,47.295z M70.795,47.352c0,0.063-0.198,0.058-0.143-0.027
	C70.703,47.318,70.75,47.328,70.795,47.352z M70.37,39.897C70.289,39.925,70.355,39.881,70.37,39.897L70.37,39.897z M70.37,40.124
	C70.254,40.239,70.259,40.124,70.37,40.124C70.342,40.152,70.37,40.124,70.37,40.124z M70.257,45.82
	C70.295,45.82,70.295,45.82,70.257,45.82C70.257,45.793,70.257,45.82,70.257,45.82z M72.241,47.125
	c0.004-0.102,0.042-0.12,0.112-0.057C72.33,47.119,72.292,47.139,72.241,47.125z M72.836,40.464c0.01-0.057,0.019-0.113,0.027-0.17
	C72.992,40.294,73.058,40.464,72.836,40.464z M74.226,40.464C74.188,40.426,74.281,40.335,74.226,40.464
	C74.198,40.436,74.226,40.464,74.226,40.464z M75.784,41.824C75.698,41.865,75.784,41.814,75.784,41.824L75.784,41.824z
	 M75.813,40.974C75.814,40.974,75.879,40.894,75.813,40.974C75.784,40.974,75.813,40.974,75.813,40.974z M76.862,42.08
	c0-0.685-0.085-1.357-0.085-2.041c0-0.742,0.092-0.708-0.651-0.708c-0.43,0.061-0.871,0.085-1.305,0.085
	c-2.011,0-4-0.085-6.008-0.143c-0.577-0.017-1.175,0.042-1.741,0.153c-0.653,0.128-0.326,1.047-0.301,1.578
	c0.421,0.121,0.883-0.066,1.313-0.008c0.464,0.062,0.316,1.137,0.324,1.528c0.021,1.242-0.025,2.485-0.107,3.724
	c-0.482,0.092-0.991-0.15-1.462-0.005c-0.372,0.114-0.161,1.347-0.097,1.706c0.524-0.07,1.063,0.058,1.589,0.076
	c0.675,0.024,1.349-0.025,2.023-0.032c0.543-0.007,1.084,0.048,1.627,0.048c0.314,0,0.632-0.02,0.938-0.092
	c0.088-0.307,0.093-0.633,0.071-0.946c-0.05-0.707-0.121-0.783-0.767-0.783c-0.191,0-0.357,0.028-0.553,0.028
	c-0.512-0.146-0.396-0.736-0.396-1.247c0.029-0.774,0.139-1.528,0.085-2.307c-0.075-1.128-0.095-1.605,1.135-1.605
	c0.501,0,1.001,0,1.502,0c0.504-0.168,0.422,0.935,0.488,1.264c0.125,0.604,0.681,0.43,1.194,0.409
	C76.116,42.742,77.088,42.758,76.862,42.08z M86.301,40.776c0.106,0.083,0.088,0.13-0.057,0.142
	C86.229,40.854,86.248,40.807,86.301,40.776z M86.188,40.719C86.263,40.681,86.263,40.681,86.188,40.719
	C86.188,40.69,86.188,40.719,86.188,40.719z M86.216,40.946C86.154,40.884,86.154,40.884,86.216,40.946L86.216,40.946z
	 M86.018,41.257c-0.006-0.134,0.041-0.153,0.143-0.057C86.144,41.282,86.096,41.301,86.018,41.257z M86.103,41.399
	c-0.099-0.123-0.057,0.225-0.057-0.114C86.11,41.299,86.128,41.337,86.103,41.399z M86.131,40.804
	C86.136,40.809,86.077,40.888,86.131,40.804C86.159,40.833,86.131,40.804,86.131,40.804z M86.046,40.917
	c-0.021-0.028,0.229,0.142,0.057,0.142C86.044,41.033,86.026,40.986,86.046,40.917z M86.273,39.954
	c0.015,0.12-0.032,0.157-0.142,0.113C86.139,39.966,86.187,39.928,86.273,39.954z M82.021,46.614
	C82.096,46.614,82.096,46.614,82.021,46.614L82.021,46.614z M81.907,47.04C81.992,47.125,81.823,47.125,81.907,47.04L81.907,47.04z
	 M81.142,47.749C81.188,47.734,81.305,47.749,81.142,47.749L81.142,47.749z M81.34,44.375C81.415,44.375,81.415,44.375,81.34,44.375
	C81.368,44.348,81.34,44.375,81.34,44.375z M81.312,47.465C81.35,47.427,81.35,47.427,81.312,47.465
	C81.312,47.438,81.312,47.465,81.312,47.465z M81.283,47.352C81.349,47.286,81.349,47.286,81.283,47.352L81.283,47.352z
	 M81.539,44.432C81.523,44.357,81.539,44.227,81.539,44.432L81.539,44.432z M81.596,47.664
	C81.634,47.625,81.634,47.625,81.596,47.664L81.596,47.664z M79.356,47.068C79.178,47.016,79.356,47.025,79.356,47.068
	L79.356,47.068z M78.818,40.436c0.09,0.106,0.058-0.163,0.058,0.085C78.753,40.542,78.858,40.483,78.818,40.436z M79.073,40.208
	c-0.072-0.035-0.076-0.067-0.012-0.099C79.112,40.138,79.115,40.171,79.073,40.208z M79.697,44.546
	C79.735,44.546,79.735,44.546,79.697,44.546C79.697,44.518,79.697,44.546,79.697,44.546z M79.583,45.197
	C79.583,45.084,79.583,45.084,79.583,45.197C79.583,45.169,79.583,45.197,79.583,45.197z M79.612,45.595
	C79.674,45.657,79.674,45.657,79.612,45.595L79.612,45.595z M79.47,42.023L79.47,42.023z M79.327,40.379
	C79.365,40.379,79.365,40.379,79.327,40.379C79.327,40.351,79.327,40.379,79.327,40.379z M79.413,40.436
	C79.349,40.499,79.346,40.502,79.413,40.436L79.413,40.436z M79.583,47.323C79.545,47.323,79.545,47.323,79.583,47.323
	C79.583,47.352,79.583,47.323,79.583,47.323z M79.923,47.635C79.848,47.635,79.848,47.635,79.923,47.635
	C79.923,47.664,79.923,47.635,79.923,47.635z M80.49,44.886C80.49,44.848,80.49,44.979,80.49,44.886
	C80.49,44.857,80.49,44.886,80.49,44.886z M80.519,47.55c0.024,0.024,0.167,0.207-0.028,0.144
	C80.456,47.635,80.466,47.588,80.519,47.55z M80.689,43.555c-0.021-0.086,0.006-0.123,0.085-0.115
	C80.786,43.508,80.758,43.546,80.689,43.555z M81.029,39.954C81.114,39.798,81.064,39.965,81.029,39.954L81.029,39.954z
	 M78.846,46.529c0.115-0.035,0.145-0.012,0.084,0.068C78.864,46.617,78.836,46.594,78.846,46.529z M78.335,46.7
	C78.229,46.768,78.327,46.667,78.335,46.7L78.335,46.7z M82.389,47.721C82.227,47.643,82.401,47.709,82.389,47.721L82.389,47.721z
	 M82.673,46.955C82.611,46.893,82.611,46.893,82.673,46.955L82.673,46.955z M84.572,39.84C84.647,39.764,84.647,39.764,84.572,39.84
	C84.572,39.812,84.572,39.84,84.572,39.84z M84.203,39.755c0.022,0.035,0.086-0.014,0.057,0.085
	C84.145,39.861,84.238,39.806,84.203,39.755z M85.564,40.322C85.626,40.384,85.626,40.384,85.564,40.322L85.564,40.322z
	 M85.705,41.144c-0.01-0.008-0.244,0.033-0.101-0.088C85.778,40.912,85.671,41.111,85.705,41.144z M85.337,39.982
	c0.071-0.004,0.1,0.033,0.085,0.113C85.341,40.092,85.313,40.055,85.337,39.982z M85.252,40.18c0.019,0.038,0.038,0.076,0.057,0.114
	C85.248,40.308,85.132,40.3,85.252,40.18z M87.322,41.116c0-0.354,0.146-1.313-0.17-1.587c-0.183-0.183-0.77-0.028-1.049-0.028
	c-0.641,0-1.279,0.005-1.921-0.014c-1.307-0.039-2.611-0.128-3.919-0.128c-0.835,0-1.82-0.133-2.637,0.09
	c-0.39,0.106-0.237,1.006-0.219,1.344c0.027,0.522,1.027,0.222,1.467,0.295c0.199,1.354,0.104,2.727,0.121,4.089
	c0.005,0.376,0.019,0.751,0.049,1.126c-0.255,0.09-0.535,0.055-0.796,0.023c-0.682-0.083-0.887-0.016-0.832,0.699
	c0.019,0.211,0.033,0.422,0.043,0.632c0.017,0.478,0.276,0.288,0.699,0.308c0.72,0.032,1.447-0.064,2.16-0.018
	c0.861,0,1.719,0.057,2.58,0.057c0.152,0,0.532,0.057,0.623-0.027c0.199-0.498,0.028-0.945,0.028-1.446
	c-0.154-0.306-0.192-0.313-0.637-0.315c-0.484-0.005-1.001,0.189-1.01-0.402c-0.014-1.147-0.094-2.293-0.108-3.438
	c-0.004-0.275-0.109-1,0.14-1.2c0.287-0.205,0.867,0,1.19,0c0.51,0,1.02-0.013,1.526-0.059c0.474-0.042,0.512,1.099,0.57,1.533
	c0.612,0.024,1.228,0.072,1.84,0.046C87.597,42.67,87.347,41.543,87.322,41.116z M97.498,41.002
	C97.53,41.144,97.456,41.044,97.498,41.002L97.498,41.002z M97.498,40.634C97.498,40.754,97.498,40.744,97.498,40.634
	C97.498,40.662,97.498,40.634,97.498,40.634z M96.137,40.861C96.137,40.866,96.137,40.729,96.137,40.861
	C96.137,40.833,96.137,40.861,96.137,40.861z M96.307,40.407C96.283,40.407,96.307,40.232,96.307,40.407
	C96.279,40.407,96.307,40.407,96.307,40.407z M96.988,40.492c-0.135,0.003-0.182-0.054-0.142-0.17
	C96.877,40.307,97.001,40.45,96.988,40.492z M94.437,40.549C94.224,40.549,94.437,40.433,94.437,40.549
	C94.408,40.549,94.437,40.549,94.437,40.549z M92.877,47.721L92.877,47.721z M92.14,47.323c0.179,0,0.005,0.131,0.029,0.227
	C92.01,47.473,92.14,47.449,92.14,47.323z M91.885,47.55C91.933,47.438,91.913,47.482,91.885,47.55L91.885,47.55z M90.978,42.023
	c0-0.205,0.038-0.085,0.114-0.085C91.096,42.009,91.058,42.038,90.978,42.023z M88.994,40.521c-0.006-0.068,0.022-0.116,0.085-0.142
	C89.145,40.468,89.116,40.515,88.994,40.521z M89.193,40.208c-0.053-0.032-0.071-0.079-0.057-0.142c0.028,0,0.057,0,0.085,0
	C89.211,40.114,89.202,40.161,89.193,40.208z M89.249,40.208C89.524,40.208,89.077,40.383,89.249,40.208
	C89.278,40.208,89.249,40.208,89.249,40.208z M89.759,40.124C89.721,40.124,89.721,40.124,89.759,40.124
	C89.759,40.152,89.759,40.124,89.759,40.124z M90.043,41.172C90.008,41.109,90.03,41.148,90.043,41.172L90.043,41.172z
	 M90.128,43.241C89.836,43.241,90.37,43.12,90.128,43.241C90.1,43.241,90.128,43.241,90.128,43.241z M90.298,41.881
	c0.019,0.038,0.038,0.076,0.057,0.113c-0.042,0.037-0.089,0.046-0.142,0.028C90.208,41.955,90.237,41.908,90.298,41.881z
	 M90.44,45.595C90.653,45.595,90.298,45.643,90.44,45.595C90.468,45.595,90.44,45.595,90.44,45.595z M90.638,47.438
	C90.6,47.438,90.6,47.438,90.638,47.438C90.638,47.465,90.638,47.438,90.638,47.438z M90.78,40.265
	c-0.059-0.028-0.111,0.027-0.085-0.085C90.723,40.208,90.751,40.237,90.78,40.265z M90.921,47.323
	C90.859,47.261,90.859,47.261,90.921,47.323L90.921,47.323z M90.949,45.936C90.911,45.936,90.911,45.936,90.949,45.936
	C90.949,45.963,90.949,45.936,90.949,45.936z M91.064,40.804C90.999,40.74,91.001,40.743,91.064,40.804L91.064,40.804z
	 M91.517,45.197c0.001,0.008-0.146-0.143,0.002-0.1C91.565,45.131,91.564,45.164,91.517,45.197z M91.375,42.562
	c0.131-0.13,0.128,0.025,0.112,0.085C91.421,42.659,91.383,42.631,91.375,42.562z M91.432,44.375
	C91.493,44.375,91.53,44.516,91.432,44.375C91.517,44.375,91.432,44.375,91.432,44.375z M92.452,40.492
	C92.39,40.43,92.39,40.43,92.452,40.492L92.452,40.492z M93.416,43.752C93.354,43.689,93.354,43.689,93.416,43.752L93.416,43.752z
	 M93.501,43.78c0.019-0.066,0.038-0.132,0.057-0.198C93.671,43.582,93.593,43.811,93.501,43.78z M93.303,43.695
	C93.222,43.725,93.287,43.68,93.303,43.695L93.303,43.695z M91.942,40.237C91.942,40.108,91.942,40.265,91.942,40.237
	C91.942,40.208,91.942,40.237,91.942,40.237z M91.885,40.861C91.878,40.979,91.83,40.916,91.885,40.861L91.885,40.861z
	 M88.938,47.21C88.873,47.146,88.875,47.148,88.938,47.21L88.938,47.21z M97.866,44.318c-0.393-0.074-1.904-0.393-2.064,0.051
	c-0.218,0.602-0.09,1.311-0.09,1.934c-0.992,0-1.984-0.001-2.978-0.027c0.038-0.039-0.191-0.373-0.215-0.453
	c-0.145-0.521-0.279-1.195,0.318-1.342c0.485-0.119,0.98-0.201,1.48-0.22c0.494-0.017,0.517-0.233,0.479-0.726
	c-0.07-0.915-1.324-0.467-1.967-0.535c-0.482-0.052-0.442-0.245-0.433-0.694c0.011-0.442-0.129-1.012,0.354-1.013
	c0.915-0.002,1.841-0.209,2.754-0.085c0.432,0.059,0.271,0.406,0.264,0.772c-0.018,0.698,0.026,0.849,0.746,0.849
	c0.462,0,0.925-0.047,1.38-0.126c0.018-0.573,0.005-1.146,0.003-1.72c-0.002-0.231-0.001-0.463,0.002-0.694
	c0.008-0.411-0.033-0.537-0.146-0.874c-0.601,0.026-1.188,0.146-1.786,0.198c-2.006,0.074-3.99-0.099-5.995-0.115
	c-0.41-0.003-0.819-0.022-1.229-0.032c-0.659-0.016-0.861,0.092-0.788,0.768c0.056,0.507-0.045,0.882,0.473,0.882
	c0.193,0,0.435-0.071,0.624-0.028c0.526,0,0.454,0.372,0.481,0.822c0,0.53,0.085,1.057,0.085,1.587c0,0.926-0.085,1.862-0.085,2.776
	c-0.444,0-0.855-0.067-1.311,0.062c-0.473,0.136-0.248,0.7-0.205,1.063c0.021,0.182,0.053,0.4-0.016,0.578
	c0.363,0.121,0.766,0.118,1.144,0.101c0.93-0.045,1.839,0.001,2.768,0.048c0.814,0.04,1.628-0.007,2.438-0.007
	c0.805-0.029,1.654-0.284,2.457-0.146c0.292,0.049,0.49,0.129,0.792,0.036c0.445-0.139,0.308-0.69,0.307-1.088
	C97.904,46.052,97.83,45.188,97.866,44.318z M60.165,19.063C60.08,18.957,60.156,19.05,60.165,19.063L60.165,19.063z M67.649,19.346
	c0.021,0.017-0.149-0.04-0.131-0.078C67.543,19.216,67.76,19.234,67.649,19.346z M67.507,20.196
	C67.344,20.143,67.524,20.163,67.507,20.196L67.507,20.196z M67.394,19.658c-0.175,0.204-0.397,0.358-0.425,0.652
	c-0.265-0.079-0.425,0.108-0.482,0.34c0-0.222-0.363-0.469-0.34-0.567c0.777-0.194,0.767-0.726,0.767-1.445
	C67.286,18.841,67.463,19.24,67.394,19.658z M66.09,18.694C66.213,18.641,66.085,18.703,66.09,18.694L66.09,18.694z M66.118,17.872
	c0.072-0.018,0.083,0.01,0.027,0.085C65.987,18.037,66.118,17.791,66.118,17.872z M65.864,19.601
	c-0.046-0.047-0.035-0.085,0.028-0.114c0.025,0.023,0.054,0.033,0.085,0.028C65.939,19.544,65.902,19.573,65.864,19.601z
	 M65.494,21.925c-0.266-0.159,0.103-0.365,0.256-0.347C66.118,21.622,65.778,22.114,65.494,21.925z M65.24,19.119
	c-0.247,0.141,0.156,1.201-0.453,1.049c-0.062-0.122-0.012-0.277-0.085-0.425c-0.34-0.038-0.208,0.368-0.397,0.368
	c-0.027-0.302-0.212-0.619-0.566-0.51c0.091-0.36,0.287-0.198,0.357-0.46c0.066-0.243-0.133-0.143-0.188-0.306
	c-0.094-0.232-0.067-0.583-0.097-0.829c-0.074-0.644,0.097-0.047,0.097-0.305c0.532,0.082,0.972-0.081,1.474,0.17
	C65.935,18.426,65.24,18.621,65.24,19.119z M64.389,21.755c-0.272-0.068-0.105-0.371,0.057-0.425
	C64.99,21.33,64.753,21.917,64.389,21.755z M65.75,19.317c0-0.01,0.103-0.001,0.112,0.028C65.815,19.444,65.649,19.419,65.75,19.317
	z M63.568,17.957c-0.022-0.065-0.058,0.136-0.058-0.085C63.51,17.901,63.666,17.858,63.568,17.957z M63.453,21.585
	c-0.308,0.176-0.523-0.269-0.143-0.396C63.504,21.188,63.672,21.476,63.453,21.585z M63.029,18.608
	c-0.046,0.017-0.058,0.08-0.142,0.057C62.956,18.596,63.061,18.608,63.029,18.608z M62.348,20.083
	c-0.105-0.16,0.037-0.297-0.19-0.391c-0.417-0.173-0.178,0.38-0.178,0.533c-0.121-0.302-0.388-0.45-0.709-0.425
	c0.133-0.664-0.892-0.979-0.51-1.616c0.552-0.552,1.158-0.439,1.928-0.567c-0.098,0.36-0.198,0.895-0.198,1.247
	c-0.273,0.283,0.182,0.48,0.283,0.737C62.536,19.661,62.295,19.793,62.348,20.083z M62.433,21.67
	c-0.244,0.246-0.595-0.306-0.283-0.368C62.387,21.242,62.758,21.507,62.433,21.67z M61.157,20.281
	C61.157,20.233,61.315,20.185,61.157,20.281C61.157,20.253,61.157,20.281,61.157,20.281z M60.931,21.783
	c-0.116-0.172-0.104-0.352,0.113-0.425C61.496,21.208,61.313,22.112,60.931,21.783z M60.789,19.686
	C60.789,19.7,60.678,19.636,60.789,19.686C60.789,19.714,60.789,19.686,60.789,19.686z M60.222,20.168
	c-0.031,0.086-0.078,0.162-0.142,0.227c-0.19-0.095-0.168-0.277-0.47-0.259c-0.495,0.029-0.076,0.085-0.238-0.024
	c-0.418-0.415-0.544-1.409,0.17-1.587c-0.205,0.381,0.049,0.829,0.17,1.191c0.146,0.292,0.39,0.24,0.681,0.312
	C60.355,20.097,60.298,20.145,60.222,20.168z M59.995,19.09c0.062-0.061,0.079-0.17,0.17-0.17
	C60.447,19.202,59.989,19.097,59.995,19.09z M60.052,18.042c0.044,0.028,0.044,0.065,0,0.114
	C59.867,18.155,59.993,17.984,60.052,18.042z M68.443,19.261c-0.093-0.277,0.007-0.655-0.276-0.862
	c-0.366-0.268-0.564-0.629-1.111-0.527c-0.24-0.662-1.527-1.027-2.126-0.907c-0.116-0.097-0.252-0.134-0.407-0.111
	c-0.267,0.025-0.428,0.294-0.67,0.055c-0.149-0.151-0.369-0.626-0.369-0.794c0.119-0.026,1.082,0.161,0.691-0.351
	c-0.245-0.321-0.46-0.048-0.634,0.067c0-0.103,0.124-0.646-0.114-0.765c-0.664-0.442-0.527,0.737-0.453,0.737
	c-0.101-0.251-0.742-0.157-0.624,0.199c0.169,0.339,0.436,0.142,0.681,0.142c0,0.263-0.311,0.442-0.34,0.766
	c-0.183-0.275-1.062-0.204-1.32-0.146c-0.205,0.045-0.814,0.186-0.961,0.292c-0.313,0.225-0.621,0.411-0.837,0.733
	c-0.566,0-0.991,0.248-1.348,0.635c-0.399,0.435-0.557,2.062,0.271,2.2c0.051,0.013,0.315,0.028,0.367,0.028
	c0.122,0.203,0.19,0.384,0.399,0.522c0.183,0.121,0.459,0.224,0.565,0.435c0.183,0.365-0.484,0.253-0.365,0.613
	c0.372,1.115,1.918,0.192,2.769,0.106c1.208-0.123,3.002-0.191,4.116,0.365c0.161,0.032,0.421,0.345,0.596,0.135
	c0.08-0.096,0.048-0.324,0.143-0.418c0-0.316-0.624-0.946,0.014-1.105c0.216-0.054,0.348-0.193,0.467-0.372
	c0.188-0.282,0.358-0.097,0.547-0.341c0.183-0.234,0.051-0.403,0.051-0.648C68.254,19.656,68.614,19.688,68.443,19.261z"/>
</svg>
