<?xml version="1.0" encoding="utf-8"?>
<!-- Generator: Adobe Illustrator 16.0.0, SVG Export Plug-In . SVG Version: 6.00 Build 0)  -->
<!DOCTYPE svg PUBLIC "-//W3C//DTD SVG 1.1//EN" "http://www.w3.org/Graphics/SVG/1.1/DTD/svg11.dtd">
<svg version="1.1" id="Слой_1" xmlns="http://www.w3.org/2000/svg" xmlns:xlink="http://www.w3.org/1999/xlink" x="0px" y="0px"
	 width="127.559px" height="85.039px" viewBox="0 0 127.559 85.039" enable-background="new 0 0 127.559 85.039"
	 xml:space="preserve">
<path fill="#979898" d="M58.279,39.897L58.279,39.897l-1.673-0.028c0,0,0.085,2.268,0.085,7.54c0,5.585-0.142,7.739-0.142,7.739
	h1.672c0,0-0.142-1.871-0.142-7.797c0-3.601,0.085-5.726,0.142-6.718c0.397-0.057,0.851-0.085,1.191-0.085
	c1.559,0,2.353,0.227,2.353,0.227l0.028-0.907c0,0-1.729,0.057-2.324,0.057C59.214,39.926,58.732,39.897,58.279,39.897
	L58.279,39.897z M29.904,45.17c0.028-2.324,0.085-3.77,0.113-4.564c0.396-0.028,0.794-0.057,1.105-0.057
	c1.529,0,2.606,0.227,2.606,0.227l0.058-0.907c0,0-2.04,0.057-2.607,0.057c-0.255,0-0.681,0-1.104-0.028l0,0L28.26,39.87
	c0,0,0.085,2.268,0.085,7.54c0,5.585-0.142,7.738-0.142,7.738h0.255c1.445,0.058,6.689,0.736,6.889-3.459
	C35.544,47.184,30.896,45.48,29.904,45.17L29.904,45.17z M33.475,52.342L33.475,52.342c-0.312,1.105-1.332,2.579-2.92,2.467
	c-0.198-0.028-0.368-0.028-0.538-0.028c-0.057-0.794-0.142-2.978-0.142-7.427c0-0.567,0-1.078,0-1.561
	C33.929,46.955,33.701,51.436,33.475,52.342L33.475,52.342z M41.809,47.068c-0.198,1.021-0.368,1.957-0.538,2.75
	c-0.228-0.709-0.511-1.53-0.821-2.409c-1.871-5.017-2.354-7.483-2.354-7.483l-1.928-0.057c0,0,1.189,3.005,3.005,7.938
	c0.708,1.898,1.219,3.373,1.615,4.479c-0.028,0.112-0.058,0.228-0.058,0.312c-0.596,1.899-0.821,2.211-1.673,2.211
	c-0.878,0-1.304-0.425-1.304-0.425l-0.481,1.105c0,0,0.681,0.312,1.615,0.312c1.077,0,1.928-0.736,2.382-2.353V53.42
	c0,0,0.028-0.059,0.058-0.255c0.027-0.144,0.057-0.256,0.085-0.397c0.027-0.112,0.057-0.197,0.057-0.283
	c0.17-0.851,0.453-2.408,0.992-5.385c0.964-5.245,1.53-7.286,1.53-7.286h-0.937C43.056,39.813,42.773,41.882,41.809,47.068
	L41.809,47.068z M53.034,39.897v-0.028h-1.105h-0.681l0,0h-3.146l-0.851-0.057c0,0,0.17,2.353-0.085,7.625
	c-0.255,5.67-2.126,7.455-2.126,7.455l1.162,0.481c0,0,1.475-2.041,1.758-7.938c0.17-4.082,0.34-6.35,0.396-7.17h2.893
	c0.027,0.85,0.085,3.118,0.085,7.143c0,5.585-0.143,7.738-0.143,7.738h1.844c0,0-0.171-1.871-0.171-7.795
	c0-5.357,0.198-7.456,0.198-7.456L53.034,39.897L53.034,39.897z M67.519,39.869h-0.936l0,0h-0.313h-0.595l0,0H65.62
	c0,0-0.229,1.786-1.446,7.229c-1.36,6.01-1.956,8.051-1.956,8.051l0.992-0.028c0,0,0.17-1.162,0.822-4.279h4.194
	c0.652,3.117,0.852,4.279,0.852,4.279l1.842,0.028c0,0-0.595-2.041-1.955-8.051C67.746,41.655,67.519,39.869,67.519,39.869
	L67.519,39.869z M64.117,50.441L64.117,50.441c0.197-0.851,0.396-1.813,0.651-2.947c0.595-2.693,1.049-4.592,1.36-5.839
	c0.312,1.248,0.766,3.146,1.359,5.839c0.257,1.135,0.454,2.098,0.652,2.947H64.117z M76.023,46.021
	c2.58-3.97,3.799-5.812,3.799-5.812l-0.794-0.34c0,0-0.906,2.041-3.938,6.718c-0.144,0.198-0.256,0.396-0.369,0.596
	c0-5.244,0.17-7.285,0.17-7.285l-1.672-0.028c0,0,0.113,2.268,0.113,7.54c0,5.585-0.143,7.739-0.143,7.739h1.672
	c0,0-0.142-1.729-0.142-7.06c0.17-0.313,0.396-0.624,0.596-0.964c0.34,0.624,0.766,1.503,1.105,2.184
	c1.785,3.686,2.721,5.84,2.721,5.84l1.588-0.709c0,0-1.444-1.984-3.43-5.981C76.902,47.721,76.364,46.7,76.023,46.021L76.023,46.021
	z M86.03,39.784c-0.027,0-0.057,0.028-0.085,0.028c-0.027,0-0.057-0.028-0.085-0.028c-1.871,0-4.139,2.919-4.139,7.313
	c0,5.157,2.126,8.021,4.224,8.077l0,0l0,0l0,0l0,0c2.099-0.057,4.225-2.92,4.225-8.077C90.168,42.704,87.901,39.784,86.03,39.784
	L86.03,39.784z M85.945,54.24L85.945,54.24L85.945,54.24L85.945,54.24L85.945,54.24L85.945,54.24c-2.268,0-2.522-4.024-2.522-7.229
	c0-3.117,0.284-6.35,2.522-6.435c2.239,0.085,2.522,3.317,2.522,6.435C88.467,50.216,88.212,54.24,85.945,54.24L85.945,54.24z
	 M95.185,46.021c1.163-0.397,2.41-1.221,2.495-2.836c0.142-2.58-2.268-3.203-3.459-3.288c0,0,0,0,0-0.028h-1.474
	c0,0,0.112,2.268,0.112,7.54c0,5.585-0.142,7.738-0.142,7.738h0.227c1.22,0,6.208,0.426,6.406-3.601
	C99.494,48.061,96.659,46.559,95.185,46.021L95.185,46.021z M96.49,43.525L96.49,43.525c-0.198,1.021-0.965,2.268-1.956,2.295
	c-0.058-0.027-0.113-0.027-0.143-0.057c0-3.033-0.028-4.762-0.028-5.47C96.405,40.549,96.659,42.817,96.49,43.525L96.49,43.525z
	 M97.595,52.172L97.595,52.172c-0.284,1.049-1.104,2.607-2.637,2.494c-0.17,0-0.313-0.027-0.453-0.027
	c-0.028-0.822-0.113-2.723-0.113-6.322v0.228v-2.153C98.275,47.438,97.822,51.32,97.595,52.172L97.595,52.172z M64.543,29.239
	L64.543,29.239L64.543,29.239h-0.058l0,0h-0.028l0,0H64.4l0,0l0,0h-0.027l0,0h-0.058l-2.353,5.499h0.028h0.057h0.028h0.027h0.058
	h0.651h0.028h0.057h0.028h0.057h0.028l0.312-0.737c0.028,0,1.646,0,2.212,0l0.313,0.737h0.028h0.057h0.028h0.057h0.028h0.709h0.027
	h0.058h0.028h0.027h0.058l-2.382-5.499H64.543z M63.664,33.236L63.664,33.236l0.793-1.871c0.228,0.539,0.766,1.871,0.766,1.871
	H63.664z M70.665,29.353h-0.028H70.58h-0.028h-0.057h-0.028h-1.19h-0.027h-0.058h-0.027h-0.028h-0.057v5.386h0.057h0.028h0.027
	h0.058h0.027h0.652h0.028h0.057h0.028h0.057h0.028v-1.275h0.34h0.028h0.057h0.028h0.057h0.028c0.142,0,0.255,0,0.369-0.028
	c0.085,0,0.65-0.085,1.021-0.312c0.595-0.34,0.906-0.936,0.906-1.701C72.961,30.175,72.168,29.353,70.665,29.353L70.665,29.353z
	 M70.127,32.726L70.127,32.726v-2.607h0.312c1.021,0,1.445,0.481,1.445,1.304c0,0.823-0.425,1.304-1.445,1.304L70.127,32.726
	L70.127,32.726z M60.12,32.414L60.12,32.414L60.12,32.414c-0.368-0.794-1.19-0.936-1.813-0.936l0,0l0,0h-0.028H58.25l0,0l0,0
	c0,0,0,0-0.029,0l0,0l0,0l0,0h-0.027l0,0l0,0l0,0c-0.028,0-0.028,0-0.028,0c-0.028,0-0.028,0-0.028,0l0,0l0,0h-0.028l0,0l0,0l0,0
	c-0.027,0-0.027,0-0.027,0H57.26V30.09h2.324h0.027h0.058h0.027h0.058h0.028v-0.737h-0.028h-0.058h-0.027h-0.058h-0.027h-3.175
	h-0.058h-0.027h-0.028h-0.058h-0.027v5.386h0.027h0.058h0.028h0.027h0.058h1.843h0.057h0.028h0.057h0.028h0.057
	c1.22,0,1.813-0.708,1.813-1.616c0-0.255-0.058-0.454-0.143-0.652C60.149,32.471,60.12,32.442,60.12,32.414L60.12,32.414z
	 M57.258,34.03L57.258,34.03v-1.871h0.906c0.736,0,1.05,0.368,1.05,0.935c0,0.539-0.256,0.937-0.993,0.937H57.258z"/>
</svg>
