<?xml version="1.0" encoding="utf-8"?>
<!-- Generator: Adobe Illustrator 22.1.0, SVG Export Plug-In . SVG Version: 6.00 Build 0)  -->
<svg version="1.1" id="Слой_1" xmlns="http://www.w3.org/2000/svg" xmlns:xlink="http://www.w3.org/1999/xlink" x="0px" y="0px"
	 viewBox="0 0 127.6 85" style="enable-background:new 0 0 127.6 85;" xml:space="preserve">
<style type="text/css">
	.st0{fill:#979898;}
</style>
<path class="st0" d="M64.9,47.9c9.7,0,17.6-7.9,17.6-17.6c0-9.7-7.9-17.6-17.6-17.6c-9.7,0-17.6,7.9-17.6,17.6
	C47.4,40,55.2,47.9,64.9,47.9z M64.9,13.7c9.2,0,16.7,7.5,16.7,16.7c0,9.2-7.5,16.7-16.7,16.7c-9.2,0-16.7-7.5-16.7-16.7
	C48.3,21.1,55.7,13.7,64.9,13.7z M64.9,41.7c6.2,0,11.3-5.1,11.3-11.3s-5.1-11.3-11.3-11.3c-6.2,0-11.3,5.1-11.3,11.3
	S58.7,41.7,64.9,41.7z M60.8,34.4c-1.1,0.3-2.3,0.1-3.3-0.3c0,0-0.1,0-0.1,0c0,0,0,0-0.1,0c0,0-0.1,0-0.1,0
	c-0.1-0.1-0.2-0.2-0.2-0.4c0-0.2,0.1-0.4,0-0.5c-0.1-0.5-0.6-0.9-1.1-0.9l0,0c0,0-0.1,0-0.1,0c0,0,0,0,0,0c0,0,0,0-0.1,0
	c0,0,0,0,0,0c0,0,0,0-0.1,0c0,0-0.1,0-0.1,0c0,0,0,0,0,0c0,0,0,0,0,0c0,0-0.1,0-0.1,0c0,0,0,0,0,0c0,0-0.1,0-0.1,0c0,0,0,0,0,0
	c0,0,0,0-0.1,0c0,0,0,0,0,0c0,0,0,0,0,0c0,0,0,0,0,0c0,0,0,0-0.1,0v0c0,0,0,0,0,0c0,0,0,0,0,0c0,0,0,0,0,0c0,0,0,0,0,0c0,0,0,0,0,0
	c-0.3,0.3-0.4,0.7-0.3,1c-0.3-1-0.5-2-0.5-3.1c0-2,0.6-3.9,1.5-5.5c-0.7,1.6,0.6,3.9,2.4,5.3c2.1,1.6,4.9,1.3,6.7,0.1
	c-1.8,0.8-4,0.6-5.7-0.7c-0.9-0.7-1.5-1.7-1.8-2.8c0,0,0-0.1,0-0.1c0,0,0,0,0-0.1c0,0,0-0.1,0-0.1c0-0.2,0.1-0.3,0.2-0.4
	c0.1-0.1,0.4-0.2,0.5-0.3c0.3-0.4,0.3-1,0.1-1.4v0c0,0,0,0,0-0.1c0,0,0,0,0,0c0,0,0,0,0-0.1c0,0,0,0,0,0c0,0,0,0,0,0
	c0,0,0,0-0.1-0.1c0,0,0,0,0,0c0,0,0,0,0,0c0,0-0.1,0-0.1-0.1c0,0,0,0,0,0c0,0-0.1,0-0.1,0c0,0,0,0,0,0c0,0,0,0-0.1,0c0,0,0,0,0,0
	c0,0,0,0,0,0c0,0,0,0,0,0c0,0,0,0-0.1,0c0,0,0,0,0,0c0,0,0,0-0.1,0c0,0,0,0-0.1,0c0,0,0,0,0,0c0,0,0,0,0,0c0,0,0,0,0,0
	c-0.3,0-0.7,0.1-0.9,0.3c1.7-2.4,4.3-4.1,7.3-4.5c-1.7,0.4-2.7,2.9-2.7,5.2c0.1,2.6,2.1,4.6,4.1,5.3c-1.8-0.9-3-2.8-3-4.9
	c0-1.2,0.4-2.3,1-3.2c0,0,0-0.1,0.1-0.1c0,0,0,0,0-0.1c0,0,0.1-0.1,0.1-0.1c0.1-0.1,0.3-0.2,0.4-0.1c0.1,0.1,0.4,0.2,0.5,0.2
	c0.5,0,1-0.3,1.1-0.8h0c0,0,0-0.1,0-0.1c0,0,0,0,0,0c0,0,0,0,0-0.1c0,0,0,0,0,0c0,0,0,0,0-0.1c0,0,0-0.1,0-0.1c0,0,0,0,0,0
	c0,0,0,0,0,0c0,0,0-0.1,0-0.1c0,0,0,0,0,0c0,0,0-0.1,0-0.1c0,0,0,0,0,0c0,0,0,0,0-0.1c0,0,0,0,0,0c0,0,0,0,0,0c0,0,0,0,0,0
	c0,0,0,0,0-0.1c0,0,0,0,0,0c0,0,0,0,0-0.1c0,0,0,0,0-0.1c0,0,0,0,0,0c0,0,0,0,0,0c0,0,0,0,0,0c-0.2-0.3-0.5-0.5-0.9-0.5
	c0.3,0,0.6,0,0.9,0c2.9,0,5.5,1.1,7.4,3c-1.4-1.1-4-0.3-5.8,1.1c-2,1.7-2.3,4.5-1.6,6.5c-0.4-2,0.3-4.1,1.9-5.4
	c0.9-0.7,2-1.1,3.1-1.2c0,0,0.1,0,0.1,0c0,0,0,0,0.1,0c0.1,0,0.1,0,0.1,0c0.2,0,0.3,0.1,0.4,0.3c0,0.1,0.1,0.4,0.2,0.5
	c0.3,0.4,0.9,0.6,1.3,0.4c0,0,0,0,0,0c0,0,0.1,0,0.1,0c0,0,0,0,0,0c0,0,0,0,0.1,0c0,0,0,0,0,0c0,0,0,0,0,0c0,0,0,0,0.1,0
	c0,0,0,0,0,0c0,0,0,0,0,0c0,0,0.1,0,0.1-0.1c0,0,0,0,0,0c0,0,0,0,0.1-0.1c0,0,0,0,0,0c0,0,0,0,0-0.1c0,0,0,0,0,0c0,0,0,0,0,0
	c0,0,0,0,0,0c0,0,0,0,0-0.1c0,0,0,0,0,0c0,0,0,0,0-0.1c0,0,0,0,0-0.1c0,0,0,0,0,0c0,0,0,0,0,0c0,0,0,0,0,0c0.1-0.3,0.1-0.7-0.2-1.1
	c1.8,1.9,2.9,4.5,2.9,7.3c0,5.9-4.8,10.7-10.7,10.7c-4.6,0-8.6-2.9-10-7.1c0.8,1.6,3.5,2.1,5.7,1.5c2.6-0.7,4-3,4.2-5.1
	C64.4,32.4,62.9,34,60.8,34.4z M45.7,56.6L43,62.2c-0.8,1.6-0.7,2.1-1.1,2.1h-2.6c-0.1,0-0.1-0.2,0-0.2c1.3,0,2.6-0.7,3.3-1.9
	l-3-5.8c-0.4-0.7-0.6-1-1.2-1c-0.1,0-0.1-0.2,0-0.2c0.5,0,0.6,0,1.5,0c1.2,0,1.6,0,2,0c0.1,0,0.1,0.2,0,0.2c-0.7,0-1.1,0.2-0.8,0.9
	l2.3,4.4l2-4.1c0.4-0.7,0-1.3-0.9-1.3c0,0,0-0.2,0-0.2c0.5,0,0.9,0,1.6,0c0.6,0,0.9,0,1.4,0c0.1,0,0.1,0.2,0,0.2
	C46.7,55.3,46.1,55.7,45.7,56.6z M57.4,64.2c-0.4,0-0.9,0-1.5,0c-0.8,0-1.4,0-1.9,0c-0.1,0-0.1-0.2,0-0.2c0.5,0,0.7-0.1,0.4-0.6
	l-2.1-3.2l-1.5,2.1c-0.7,1.1-0.6,1.7,0.3,1.7c0.1,0,0.1,0.2,0,0.2c-0.5,0-0.9,0-1.7,0c-0.5,0-0.8,0-1.3,0c-0.1,0-0.1-0.2,0-0.2
	c0.6,0,1.4-0.5,2.3-1.7l1.7-2.3l-2.3-3.6c-0.5-0.8-1-1.1-1.6-1.1c-0.1,0-0.1-0.2,0-0.2c0.4,0,0.8,0,1.2,0c0.8,0,1.5,0,2.1,0
	c0,0,0,0.2,0,0.2c-0.5,0-0.8,0.1-0.5,0.6l2,3.1l1.4-1.9c0.8-1.1,0.7-1.7-0.3-1.7c0,0,0-0.2,0-0.2c0.6,0,0.9,0,1.8,0
	c0.5,0,0.8,0,1.3,0c0,0,0,0.2,0,0.2c-0.6,0-1.4,0.5-2.3,1.8l-1.6,2.1l2.5,3.8c0.5,0.7,1,1,1.7,1C57.4,64,57.4,64.2,57.4,64.2z
	 M62.8,64.2c-0.6,0-1.3,0-2.2,0c-0.7,0-1.3,0-1.8,0c-0.1,0-0.1-0.2,0-0.2c0.9,0,1.1-0.2,1.1-1v-6.8c0-0.8-0.2-1-1.1-1
	c-0.1,0-0.1-0.2,0-0.2c0.5,0,1.1,0,1.8,0c0.5,0,1.3-0.1,2-0.1c1.8,0,3.1,0.7,3.1,2.4c0.1,2-1.7,2.9-3.2,2.9c-0.2,0-0.5,0-0.7-0.1
	c-0.1,0,0-0.2,0-0.2c0.2,0,0.4,0.1,0.5,0.1c0.9,0,1.8-0.8,1.8-2.4c0-1.5-0.8-2.4-2-2.4c-0.7,0-0.9,0.1-0.9,1V63
	c0,0.9,0.2,1.1,1.5,1.1C62.8,64,62.8,64.2,62.8,64.2z M70.4,64c-1.2,0-1.7-0.6-1.2-1.8l1.1-2.5h2.6l1.6,3.2c0.5,0.9,0.3,1.2-0.6,1.2
	c-0.1,0-0.1,0.2,0,0.2c0.6,0,1-0.1,1.6-0.1c0.6,0,1.2,0.1,1.8,0.1c0.1,0,0.1-0.2,0-0.2c-0.5,0-0.9-0.4-1.6-1.8L72.2,55
	c0-0.1-0.2,0-0.2,0l-3.1,7.1c-0.7,1.6-1.1,2-1.9,2c-0.1,0-0.1,0.2,0,0.2c0.6,0,1-0.1,1.7-0.1c0.8,0,1.2,0.1,1.7,0.1
	C70.4,64.2,70.4,64,70.4,64z M71.5,56.9l1.2,2.4h-2.3L71.5,56.9z M88.7,64.2c-0.5,0-1.2,0-1.9,0c-0.8,0-1.4,0-1.9,0c0,0,0-0.2,0-0.2
	c1.1,0,1.2-0.2,1.2-1v-3.4h-5V63c0,0.8,0.2,1,1.2,1c0,0,0,0.2,0,0.2c-0.5,0-1.2,0-2,0c-0.7,0-1.3,0-1.8,0c-0.1,0-0.1-0.2,0-0.2
	c1,0,1.2-0.2,1.2-1v-6.8c0-0.8-0.2-1-1.2-1c0,0,0-0.2,0-0.2c0.5,0,1.1,0,1.8,0c0.8,0,1.5,0,2,0c0,0,0,0.2,0,0.2c-1,0-1.2,0.2-1.2,1
	v3h5v-3c0-0.8-0.2-1-1.2-1c0,0,0-0.2,0-0.2c0.5,0,1.1,0,1.9,0c0.7,0,1.4,0,1.9,0c0.1,0,0.1,0.2,0,0.2c-1,0-1.2,0.2-1.2,1V63
	c0,0.8,0.2,1,1.2,1C88.8,64,88.8,64.2,88.7,64.2z M103.8,64.2c-0.6,0-1.5,0-2.4,0c-1,0-1.8,0-2.5,0c-0.1,0-0.1-0.2,0-0.2
	c1.5,0,1.7-0.2,1.7-1.3v-7.8l-6.8,7.3v0.5c0,1.1,0.2,1.3,1.7,1.3c0.1,0,0.1,0.2,0,0.2c-0.7,0-1.5,0-2.5,0c-0.9,0-1.7,0-2.4,0
	c-0.1,0-0.1-0.2,0-0.2c1.4,0,1.6-0.2,1.6-1.3v-9c0-1.1-0.2-1.3-1.6-1.3c-0.1,0-0.1-0.2,0-0.2c0.6,0,1.5,0.1,2.4,0.1
	c1,0,1.8-0.1,2.5-0.1c0.1,0,0.1,0.2,0,0.2c-1.4,0-1.7,0.3-1.7,1.4v7.8l6.8-7.3v-0.5c0-1.1-0.2-1.4-1.7-1.4c-0.1,0-0.1-0.2,0-0.2
	c0.6,0,1.4,0.1,2.5,0.1c0.9,0,1.8-0.1,2.4-0.1c0.1,0,0.1,0.2,0,0.2c-1.4,0-1.7,0.2-1.7,1.3v9c0,1.1,0.3,1.3,1.7,1.3
	C103.9,64,103.9,64.2,103.8,64.2z M40.9,69.1h1.9v0.3h-1.6v2.9h-0.3V69.1z M45.3,69.3c-0.1-0.1-0.2-0.1-0.3-0.2
	c-0.1,0-0.2-0.1-0.4-0.1h-1.4v3.1h0.3v-1.3h1.1c0.1,0,0.3,0,0.4-0.1c0.1,0,0.2-0.1,0.3-0.2c0.1-0.1,0.1-0.2,0.2-0.3
	c0-0.1,0.1-0.2,0.1-0.4c0-0.1,0-0.3-0.1-0.4C45.4,69.5,45.4,69.4,45.3,69.3z M45.1,70.5c-0.1,0.1-0.3,0.2-0.5,0.2h-1v-1.3h1
	c0.2,0,0.4,0.1,0.5,0.2c0.1,0.1,0.2,0.3,0.2,0.5C45.2,70.2,45.2,70.4,45.1,70.5z M48,69.1h0.3l-1.2,2.5C47,71.8,47,71.9,46.9,72
	c-0.1,0.1-0.1,0.1-0.2,0.2c-0.1,0-0.1,0.1-0.2,0.1c-0.1,0-0.1,0-0.2,0c-0.1,0-0.1,0-0.2,0c-0.1,0-0.1,0-0.1,0v-0.3c0,0,0.1,0,0.1,0
	c0.1,0,0.1,0,0.2,0c0.1,0,0.2,0,0.3-0.1c0.1-0.1,0.1-0.2,0.2-0.3l0-0.1l-1.2-2.4H46l1,2.1L48,69.1z M50.7,70.8
	c0.1,0.1,0.1,0.3,0.1,0.5c0,0.1,0,0.2-0.1,0.3c0,0.1-0.1,0.2-0.2,0.3c-0.1,0.1-0.2,0.2-0.4,0.2c-0.1,0.1-0.3,0.1-0.6,0.1
	c-0.2,0-0.4,0-0.5-0.1c-0.2,0-0.3-0.1-0.4-0.2c-0.1-0.1-0.2-0.2-0.2-0.3c-0.1-0.1-0.1-0.3-0.1-0.4v0h0.3c0,0.3,0.1,0.5,0.3,0.6
	c0.2,0.1,0.4,0.2,0.7,0.2c0.1,0,0.2,0,0.4-0.1c0.1,0,0.2-0.1,0.3-0.2c0.1-0.1,0.1-0.1,0.2-0.2c0-0.1,0.1-0.2,0.1-0.3
	c0-0.1,0-0.2-0.1-0.2c0-0.1-0.1-0.1-0.2-0.2c-0.1-0.1-0.1-0.1-0.2-0.1c-0.1,0-0.2,0-0.3,0h-0.5v-0.3h0.5c0.1,0,0.2,0,0.2,0
	c0.1,0,0.1-0.1,0.2-0.1c0.1,0,0.1-0.1,0.1-0.2c0-0.1,0.1-0.1,0.1-0.2c0-0.1,0-0.2-0.1-0.3s-0.1-0.1-0.2-0.2
	c-0.1-0.1-0.1-0.1-0.2-0.1c-0.1,0-0.2,0-0.3,0c-0.1,0-0.2,0-0.3,0c-0.1,0-0.2,0.1-0.3,0.1c-0.1,0.1-0.1,0.1-0.2,0.2
	c0,0.1-0.1,0.2-0.1,0.3h-0.3c0-0.2,0-0.3,0.1-0.4c0.1-0.1,0.1-0.2,0.2-0.3c0.1-0.1,0.2-0.1,0.4-0.2c0.1,0,0.3-0.1,0.5-0.1
	c0.1,0,0.3,0,0.4,0.1c0.1,0,0.2,0.1,0.3,0.2c0.1,0.1,0.2,0.2,0.2,0.3c0.1,0.1,0.1,0.2,0.1,0.4c0,0.1,0,0.2,0,0.2
	c0,0.1-0.1,0.1-0.1,0.2c0,0.1-0.1,0.1-0.1,0.1c-0.1,0-0.1,0.1-0.2,0.1v0C50.5,70.6,50.6,70.7,50.7,70.8z M53.4,69.1h0.4v3.1h-0.3
	v-2.8l-1.8,2.8h-0.4v-3.1h0.3v2.8L53.4,69.1z M56.6,69.1h0.3v3.1h-0.3v-1.5h-1.9v1.5h-0.3v-3.1h0.3v1.4h1.9V69.1z M59.9,71h0.3
	c0,0.2-0.1,0.4-0.1,0.5c-0.1,0.2-0.2,0.3-0.3,0.4c-0.1,0.1-0.2,0.2-0.4,0.3c-0.2,0.1-0.3,0.1-0.5,0.1c-0.2,0-0.5,0-0.6-0.1
	c-0.2-0.1-0.3-0.2-0.5-0.4c-0.1-0.1-0.2-0.3-0.3-0.5c-0.1-0.2-0.1-0.4-0.1-0.6c0-0.2,0-0.4,0.1-0.6c0.1-0.2,0.2-0.4,0.3-0.5
	c0.1-0.2,0.3-0.3,0.5-0.4c0.2-0.1,0.4-0.1,0.6-0.1c0.1,0,0.3,0,0.4,0.1c0.1,0,0.3,0.1,0.4,0.2c0.1,0.1,0.2,0.2,0.3,0.3
	c0.1,0.1,0.1,0.3,0.1,0.4h-0.3c0-0.1-0.1-0.2-0.1-0.3c-0.1-0.1-0.1-0.2-0.2-0.2c-0.1-0.1-0.2-0.1-0.3-0.1c-0.1,0-0.2-0.1-0.3-0.1
	c-0.2,0-0.4,0-0.5,0.1c-0.1,0.1-0.3,0.2-0.4,0.3c-0.1,0.1-0.2,0.3-0.2,0.4c0,0.2-0.1,0.3-0.1,0.5c0,0.2,0,0.3,0.1,0.5
	c0,0.2,0.1,0.3,0.2,0.4c0.1,0.1,0.2,0.2,0.4,0.3c0.1,0.1,0.3,0.1,0.5,0.1c0.1,0,0.3,0,0.4-0.1c0.1-0.1,0.2-0.1,0.3-0.2
	c0.1-0.1,0.2-0.2,0.2-0.3C59.9,71.3,59.9,71.2,59.9,71z M61.8,70.4l1.5,1.8h-0.4l-1.3-1.6L61,71.1v1.1h-0.3v-3.1H61v1.7l1.8-1.7h0.4
	L61.8,70.4z M64.7,69.1l-1.3,3.1h0.3l0.4-1h1.4l0.4,1h0.3L65,69.1H64.7z M64.2,71l0.6-1.6l0.6,1.6H64.2z M67.2,69.2
	c-0.1,0-0.2,0.1-0.3,0.2c-0.1,0.1-0.1,0.2-0.2,0.3c0,0.1-0.1,0.2-0.1,0.4c0,0.1,0,0.3,0.1,0.4c0,0.1,0.1,0.2,0.2,0.3
	c0.1,0.1,0.2,0.1,0.3,0.2c0.1,0,0.2,0.1,0.4,0.1l-1.1,1.4h0.4l1-1.3h0.7v1.3h0.3v-3.1h-1.3C67.4,69.1,67.3,69.1,67.2,69.2z
	 M68.6,69.3v1.3h-0.9c-0.2,0-0.4-0.1-0.5-0.2s-0.2-0.3-0.2-0.5c0-0.2,0.1-0.4,0.2-0.5c0.1-0.1,0.3-0.2,0.5-0.2L68.6,69.3L68.6,69.3z
	 M72,70.4l1.5,1.8h-0.4l-1.3-1.6l-0.6,0.6v1.1h-0.3v-3.1h0.3v1.7l1.8-1.7h0.4L72,70.4z M75.9,69.1h0.3L75,71.6
	c-0.1,0.1-0.1,0.2-0.2,0.3c-0.1,0.1-0.1,0.1-0.2,0.2c-0.1,0-0.1,0.1-0.2,0.1c-0.1,0-0.1,0-0.2,0c-0.1,0-0.1,0-0.2,0
	c-0.1,0-0.1,0-0.1,0v-0.3c0,0,0.1,0,0.1,0c0.1,0,0.1,0,0.2,0c0.1,0,0.2,0,0.3-0.1c0.1-0.1,0.1-0.2,0.2-0.3l0-0.1l-1.2-2.4h0.3l1,2.1
	L75.9,69.1z M77.9,70.6l1.1,1.6h-0.4l-0.9-1.4l-1,1.4h-0.3l1.1-1.6l-1.1-1.5h0.4l0.9,1.3l0.9-1.3h0.3L77.9,70.6z M81.5,69.1h0.3v3.1
	h-0.3v-1.5h-1.9v1.5h-0.3v-3.1h0.3v1.4h1.9L81.5,69.1L81.5,69.1z M82.9,69.2c-0.1,0-0.2,0.1-0.3,0.2c-0.1,0.1-0.1,0.2-0.2,0.3
	c0,0.1-0.1,0.2-0.1,0.4c0,0.1,0,0.3,0.1,0.4c0,0.1,0.1,0.2,0.2,0.3c0.1,0.1,0.2,0.1,0.3,0.2c0.1,0,0.2,0.1,0.4,0.1l-1.1,1.4h0.4
	l1-1.3h0.7v1.3h0.3v-3.1h-1.3C83.2,69.1,83.1,69.1,82.9,69.2z M84.3,69.3v1.3h-0.9c-0.2,0-0.4-0.1-0.5-0.2s-0.2-0.3-0.2-0.5
	c0-0.2,0.1-0.4,0.2-0.5c0.1-0.1,0.3-0.2,0.5-0.2L84.3,69.3L84.3,69.3z M30.7,70.7h6.8v0.2h-6.8C30.7,70.9,30.7,70.7,30.7,70.7z
	 M88.7,70.7h6.8v0.2h-6.8V70.7z M33.1,54.1l-4.3,10c0,0.1-0.3,0.1-0.3,0l-4.8-9.9L23,62c0,1.4,0.3,2,1.5,2c0.1,0,0.1,0.2,0,0.2
	c-0.6,0-1.2,0-1.9,0c-0.7,0-1.3,0-1.9,0c-0.1,0-0.1-0.2,0-0.2c1.1,0,1.7-0.6,1.8-2l0.7-8.7c-0.4-0.7-1-1-1.7-1c-0.1,0-0.1-0.2,0-0.2
	c0.5,0,1,0,1.4,0c0.5,0,0.9,0,1.1,0c0.4,0,0.5,0.2,0.9,1l4.3,8.8l4-9.3c0.2-0.3,0.4-0.5,0.6-0.5c0.2,0,0.4,0,0.8,0
	c0.7,0,1.2,0,1.7,0c0.1,0,0.1,0.2,0,0.2c-1.2,0-1.8,0.3-1.8,1.4l0.9,8.9c0.1,1.1,0.4,1.3,1.8,1.3c0.1,0,0.1,0.2,0,0.2
	c-0.6,0-1.5,0-2.4,0c-0.9,0-1.6,0-2.2,0c-0.1,0-0.1-0.2,0-0.2c1.2,0,1.3-0.2,1.3-1.3L33.1,54.1z M63,38.7C63,38.7,63,38.7,63,38.7
	c0.1,0,0.1-0.1,0.1-0.1c0,0,0.1,0,0.1,0c1-0.5,1.8-1.3,2.3-2.4c0.9-1.9,0.6-4.1-0.6-5.7c1.5,1.5,2.5,4.1,1.4,6.5
	c-1.1,2.3-3.4,4.3-5.2,3.4c-0.4-0.2-0.6-0.5-0.7-0.9c0,0,0,0,0,0c0,0,0,0,0,0c0,0,0,0,0,0c0,0,0,0,0-0.1c0,0,0,0,0-0.1l0,0
	c0,0,0,0,0-0.1c0,0,0,0,0,0c0,0,0,0,0,0c0,0,0,0,0,0c0,0,0,0,0-0.1c0,0,0,0,0,0c0,0,0-0.1,0-0.1c0,0,0,0,0,0c0,0,0-0.1,0-0.1
	c0,0,0,0,0,0c0,0,0,0,0,0c0,0,0,0,0-0.1c0,0,0,0,0,0c0,0,0,0,0,0c0,0,0,0,0-0.1c0,0,0,0,0,0c0,0,0,0,0.1-0.1l0,0
	c0.4-0.4,0.9-0.5,1.4-0.2c0.1,0.1,0.3,0.3,0.4,0.4C62.7,38.7,62.8,38.8,63,38.7z M65,30.5c2.1-0.3,4.7,0.6,6,3
	c1.1,2.3,1.2,5.3-0.6,6.2c-0.4,0.2-0.8,0.1-1.1-0.1c0,0,0,0,0,0c0,0,0,0,0,0c0,0,0,0,0,0c0,0,0,0-0.1,0c0,0,0,0,0,0c0,0,0,0,0,0
	c0,0,0,0-0.1,0c0,0,0,0,0,0c0,0,0,0,0,0c0,0,0,0,0,0c0,0,0,0,0-0.1c0,0,0,0,0,0c0,0,0,0,0-0.1c0,0,0,0,0,0c0,0,0-0.1-0.1-0.1
	c0,0,0,0,0,0c0,0,0,0,0,0c0,0,0-0.1,0-0.1c0,0,0,0,0-0.1c0,0,0,0,0,0c0,0,0,0,0-0.1c0,0,0,0,0,0c0,0,0-0.1,0-0.1l0,0
	c-0.1-0.5,0.2-1,0.7-1.2c0.1-0.1,0.4-0.1,0.5-0.1c0.2,0,0.3-0.1,0.4-0.3c0,0,0,0,0-0.1c0,0,0,0,0-0.1c0,0,0-0.1,0-0.1
	c0.2-1.1,0-2.2-0.5-3.3C68.9,31.6,67,30.5,65,30.5z M65,30.4c1.1-1.8,3.4-3.3,6-2.8c2.5,0.5,4.9,2.4,4.5,4.3
	c-0.1,0.4-0.4,0.7-0.8,0.9c0,0,0,0,0,0c0,0,0,0,0,0c0,0,0,0,0,0c0,0,0,0-0.1,0c0,0,0,0-0.1,0c0,0,0,0,0,0c0,0,0,0-0.1,0c0,0,0,0,0,0
	c0,0,0,0,0,0c0,0,0,0,0,0c0,0,0,0-0.1,0c0,0,0,0,0,0c0,0-0.1,0-0.1,0c0,0,0,0,0,0c0,0-0.1,0-0.1,0c0,0,0,0,0,0c0,0,0,0,0,0
	c0,0-0.1,0-0.1,0c0,0,0,0-0.1,0c0,0,0,0,0,0c0,0,0,0-0.1,0c0,0,0,0,0,0c0,0,0,0-0.1,0c0,0,0,0,0,0c-0.4-0.3-0.7-0.8-0.5-1.3
	c0-0.2,0.2-0.4,0.3-0.5c0.1-0.1,0.1-0.3,0-0.5c0,0,0,0-0.1-0.1c0,0,0,0,0-0.1c0,0,0,0-0.1-0.1c-0.7-0.8-1.7-1.4-2.9-1.7
	C68.3,28.1,66.3,28.9,65,30.4z M51.3,23.3c0.2,0.1,0.4,0.1,0.6-0.1c0.1-0.2,0.1-0.3,0-0.4c-0.1,0.1-0.3,0.1-0.4,0
	c-0.2-0.1-0.2-0.3,0-0.7c0.2-0.3,0.5-0.3,0.8-0.1l0.5,0.3c-0.1,0-0.2,0.2-0.4,0.4c-0.2,0.3-0.2,0.6-0.1,0.9c0.1,0.3,0.3,0.5,0.5,0.7
	c0.3,0.2,0.6,0.2,0.9,0.2c0.3-0.1,0.5-0.2,0.7-0.5c0.2-0.3,0.2-0.6,0.1-0.9c-0.1-0.3-0.3-0.5-0.5-0.7l-1.3-0.8
	c-0.6-0.4-1.1-0.3-1.5,0.4C50.9,22.6,50.9,23.1,51.3,23.3z M53.8,22.9c0.2,0.1,0.4,0.3,0.5,0.5c0.1,0.2,0.1,0.3,0,0.4
	C54.2,24,54.1,24,53.8,24c-0.2,0-0.4-0.1-0.7-0.3c-0.2-0.2-0.4-0.3-0.5-0.5c-0.1-0.2-0.1-0.3,0-0.4c0.1-0.1,0.2-0.2,0.4-0.2
	C53.3,22.7,53.5,22.8,53.8,22.9z M54.7,20.4c-0.2-0.3-0.2-0.6,0.1-0.8c0,0,0.1-0.1,0.1-0.1c0,0.2,0.1,0.4,0.2,0.5
	c0.2,0.2,0.3,0.2,0.4,0.1c0.1-0.1,0.1-0.3,0-0.6c-0.1-0.3-0.1-0.6,0.1-0.8c0.2-0.1,0.3-0.2,0.4-0.2c0-0.1,0.2-0.3,0.4-0.4
	c0.5-0.4,0.9-0.4,1.2,0l1.2,1.5c0.4,0.5,0.3,0.9-0.4,1.4c-0.6,0.5-1.1,0.5-1.5,0.1l0,0c-0.3-0.3-0.2-0.7,0.2-1.3l0.1,0.1
	c-0.1,0.3,0,0.5,0.1,0.7c0.3,0.3,0.6,0.4,0.9,0.1c0.3-0.2,0.3-0.5,0-0.9l-1.1-1.4c-0.2-0.2-0.4-0.3-0.6-0.2c-0.2,0.2-0.2,0.4,0,0.6
	l0.3,0.4l-0.4,0.3L56,19.2c-0.1-0.1-0.2-0.2-0.3-0.2c-0.1,0.1-0.1,0.3,0.1,0.6c0.1,0.3,0.1,0.6-0.2,0.8
	C55.2,20.7,54.9,20.7,54.7,20.4z M60.2,18.7c0.3,0.1,0.6,0.1,0.9,0c0.3-0.1,0.5-0.3,0.7-0.6c0.1-0.3,0.1-0.6,0-0.9
	c-0.1-0.4-0.3-0.6-0.6-0.7c-0.3-0.1-0.5-0.1-0.8,0c-0.2,0.1-0.3,0.1-0.3,0.2c0.1-0.3,0.3-0.6,0.7-0.8l-0.1-0.1l-0.5,0.1
	c-0.2,0.2-0.3,0.4-0.3,0.6l-0.4-1.1l-0.6,0.2l0.8,2.4C59.8,18.3,60,18.6,60.2,18.7z M60.1,17.1c0-0.2,0.1-0.3,0.3-0.4
	c0.1,0,0.3,0,0.4,0.1c0.1,0.1,0.3,0.3,0.3,0.6c0.1,0.3,0.1,0.6,0.1,0.8s-0.1,0.3-0.3,0.4c-0.1,0-0.3,0-0.4-0.1
	c-0.1-0.1-0.3-0.3-0.3-0.6C60.1,17.5,60.1,17.3,60.1,17.1z M63.5,16.8c0-0.8,0.4-1.4,1.2-1.8c0.8-0.3,1.2-0.6,1.2-0.9
	c0-0.1,0-0.1-0.1-0.2c0.1-0.1,0.3-0.1,0.4-0.1c0.2,0,0.3,0.1,0.3,0.3c0,0.4-0.4,0.7-1.1,0.8c-0.7,0.2-1.1,0.4-1.2,0.6
	c0.1-0.1,0.2-0.1,0.5-0.1c0.4,0,0.7,0.2,0.7,0.5c0.1-0.3,0.4-0.4,0.9-0.4c0.6,0,0.9,0.4,1,1.2c0,0.6-0.4,1.1-1,1.4L66.1,18
	c0.3-0.3,0.5-0.7,0.5-1.1c0-0.6-0.2-0.9-0.6-0.9c-0.3,0-0.4,0.2-0.5,0.6c0,0.3,0,0.5,0.1,0.7c-0.2,0-0.3,0.1-0.5,0.2L65,17.2
	c0.1-0.2,0.1-0.4,0.1-0.6c0-0.5-0.1-0.8-0.4-0.8c-0.4,0-0.6,0.3-0.6,0.9c0,0.6,0.2,0.9,0.6,0.9c-0.1,0.2-0.2,0.3-0.4,0.3
	C63.8,18.1,63.5,17.6,63.5,16.8z M68.8,17.9c0.2-0.3,0.4-0.4,0.9-0.3c-0.2,0.1-0.3,0.3-0.3,0.4c-0.1,0.3,0,0.5,0.3,0.7
	c0.4,0.1,0.7,0,0.9-0.4c0.2-0.4,0.1-0.8-0.2-1.2c-0.3-0.3-0.4-0.6-0.3-0.8c0.1-0.3,0.4-0.3,0.9-0.2c-0.2,0.1-0.3,0.1-0.4,0.3
	c-0.1,0.2,0,0.5,0.4,0.9c0.3,0.4,0.4,0.8,0.2,1.2c-0.3,0.6-0.8,0.8-1.6,0.6C68.8,18.7,68.6,18.3,68.8,17.9z M72.8,20.9
	c0.3,0.2,0.5,0.3,0.8,0.2c0.3,0,0.6-0.2,0.8-0.5c0.2-0.3,0.3-0.5,0.3-0.8s-0.2-0.6-0.4-0.8c-0.2-0.2-0.3-0.2-0.5-0.2l0.4-0.5
	c0.3-0.3,0.6-0.4,0.8-0.2c0.1,0.1,0.2,0.2,0.3,0.3c0.1,0.1,0.1,0.2,0.2,0.3c0.2,0.1,0.4,0.1,0.6-0.1c-0.2,0-0.4-0.1-0.5-0.2
	c-0.1,0-0.1-0.1-0.2-0.3c-0.1-0.1-0.2-0.3-0.3-0.4c-0.6-0.4-1.1-0.4-1.6,0.2l-1,1.2c-0.2,0.3-0.3,0.5-0.3,0.8
	C72.4,20.4,72.5,20.7,72.8,20.9z M72.7,20.3c0-0.2,0.1-0.4,0.3-0.6c0.2-0.2,0.4-0.4,0.6-0.5c0.2-0.1,0.3-0.1,0.5,0
	c0.1,0.1,0.2,0.2,0.1,0.4c0,0.2-0.1,0.4-0.3,0.6c-0.2,0.2-0.4,0.4-0.6,0.5c-0.2,0.1-0.3,0.1-0.5,0C72.8,20.6,72.7,20.5,72.7,20.3z
	 M75.7,21.9c0.3-0.2,0.6-0.3,1-0.2c0.3,0.1,0.6,0.3,0.8,0.6c0.2,0.4,0.3,0.7,0.3,1.1c-0.1,0.3-0.3,0.6-0.6,0.9
	c-0.4,0.2-0.8,0.2-1.4,0.1l-0.2-0.3c0.5,0,0.9-0.1,1.2-0.3c0.3-0.2,0.5-0.4,0.6-0.6c0.1-0.2,0.1-0.4-0.1-0.6
	c-0.1-0.2-0.3-0.3-0.6-0.3c-0.2,0-0.5,0.1-0.8,0.2c-0.5,0.3-0.6,0.6-0.4,1c-0.2,0.1-0.4,0-0.5-0.1c-0.1-0.2-0.1-0.5,0-0.8
	C75.2,22.3,75.4,22.1,75.7,21.9z M52.6,40.3C52.6,40.3,52.6,40.4,52.6,40.3c-0.2-0.1-0.3-0.4-0.4-0.6c-0.1-0.3-0.3-0.5-0.4-0.6
	c0,0,0.1-0.1,0.1,0c0.2,0.3,0.3,0.4,0.6,0.2l2.2-1.4l-3.3,0.4c0,0-0.1-0.1-0.1-0.1l1.9-2.8l-2.1,1.1c-0.4,0.2-0.5,0.5-0.3,0.8
	c0,0-0.1,0.1-0.1,0c-0.1-0.2-0.2-0.3-0.3-0.5c-0.1-0.2-0.2-0.4-0.3-0.5c0,0,0.1-0.1,0.1,0c0.2,0.3,0.5,0.3,0.8,0.1l2.3-1.3
	c0.2-0.3,0.2-0.5,0.1-0.7c0,0,0.1-0.1,0.1,0c0.1,0.1,0.2,0.3,0.2,0.4c0.1,0.2,0.2,0.3,0.2,0.4c0.1,0.1,0,0.2-0.1,0.4l-1.6,2.5l3-0.3
	c0.1,0,0.2,0,0.2,0.1c0,0.1,0.1,0.1,0.1,0.2c0.1,0.2,0.2,0.3,0.3,0.5c0,0-0.1,0.1-0.1,0c-0.2-0.3-0.4-0.4-0.7-0.2l-2.4,1.5
	C52.4,39.9,52.4,40,52.6,40.3z M58.2,41l-2.4,1.1c-0.7,0.3-0.8,0.5-0.9,0.4l-0.9-0.7c0,0,0-0.1,0-0.1c0.4,0.3,1.1,0.4,1.6,0.2
	l0.5-2.7c0.1-0.3,0.1-0.5-0.1-0.7c0,0,0-0.1,0-0.1c0.2,0.1,0.2,0.2,0.5,0.4c0.4,0.3,0.5,0.4,0.7,0.5c0,0,0,0.1,0,0.1
	c-0.2-0.2-0.4-0.2-0.5,0.1l-0.4,2.1l1.7-0.8c0.3-0.1,0.3-0.4,0-0.7c0,0,0-0.1,0-0.1c0.2,0.1,0.3,0.2,0.5,0.4
	c0.2,0.2,0.3,0.2,0.5,0.4c0,0,0,0.1,0,0.1C58.9,40.8,58.6,40.8,58.2,41z M62.8,42.2C62.8,42.2,62.8,42.3,62.8,42.2
	c-0.3,0-0.7,0.1-1.2,0.5l-0.9,0.6l0.5,1.9c0.1,0.4,0.2,0.5,0.5,0.6c0,0,0,0.1,0,0.1c-0.2-0.1-0.4-0.1-0.6-0.2
	c-0.3-0.1-0.6-0.2-0.8-0.3c0,0,0-0.1,0-0.1c0.2,0.1,0.3,0.1,0.3-0.2l-0.4-1.6l-0.9,0.6c-0.4,0.3-0.5,0.6-0.1,0.7c0,0,0,0.1,0,0.1
	c-0.2-0.1-0.4-0.1-0.7-0.3c-0.2-0.1-0.3-0.1-0.5-0.2c0,0,0-0.1,0-0.1c0.2,0.1,0.6,0,1.2-0.4l1-0.7l-0.4-1.8
	c-0.1-0.4-0.2-0.6-0.5-0.7c0,0,0-0.1,0-0.1c0.2,0.1,0.3,0.1,0.5,0.2c0.3,0.1,0.6,0.2,0.8,0.3c0,0,0,0.1,0,0.1
	c-0.2-0.1-0.3-0.1-0.3,0.2l0.4,1.5l0.8-0.6c0.5-0.3,0.5-0.6,0.1-0.7c0,0,0-0.1,0-0.1c0.2,0.1,0.4,0.1,0.7,0.3
	C62.5,42.1,62.6,42.1,62.8,42.2z M66.1,43.3c0,0.8-0.7,1.2-1.4,1.2c-0.1,0-0.2,0-0.3,0c0,0,0-0.1,0-0.1c0.1,0,0.2,0,0.2,0
	c0.4,0,0.8-0.3,0.8-1c0-0.7-0.3-1-0.8-1c-0.3,0-0.4,0-0.4,0.4l-0.1,2.8c0,0.4,0.1,0.5,0.6,0.5c0,0,0,0.1,0,0.1c-0.3,0-0.6,0-0.9,0
	c-0.3,0-0.6,0-0.8,0c0,0,0-0.1,0-0.1c0.4,0,0.5-0.1,0.5-0.4l0.1-2.8c0-0.4-0.1-0.4-0.5-0.4c0,0,0-0.1,0-0.1c0.2,0,0.5,0,0.8,0
	c0.2,0,0.6,0,0.8,0C65.6,42.2,66.1,42.5,66.1,43.3z M71.7,44.6c-0.2,0.1-0.4-0.1-0.9-0.5l-2.3-2.4c0,0-0.1,0-0.1,0l-0.4,3.2
	c-0.1,0.7-0.2,0.9-0.5,1c0,0,0,0.1,0,0.1c0.3-0.1,0.4-0.1,0.7-0.2c0.3-0.1,0.5-0.1,0.7-0.2c0,0,0-0.1,0-0.1c-0.5,0.1-0.8,0-0.7-0.6
	l0.1-1.2l1.1-0.3l1,1.1c0.3,0.3,0.3,0.4-0.1,0.5c0,0,0,0.1,0,0.1c0.2-0.1,0.4-0.1,0.6-0.2C71.3,44.8,71.5,44.8,71.7,44.6
	C71.8,44.7,71.8,44.6,71.7,44.6z M68.4,43.6l0.1-1.1l0.8,0.8L68.4,43.6z M76.5,41.2c-0.2,0.1-0.4,0.3-0.6,0.5
	c-0.3,0.2-0.5,0.4-0.6,0.5c0,0-0.1,0,0-0.1c0.4-0.3,0.4-0.4,0.1-0.7l-0.9-1.1l-1.6,1.3l0.9,1.1c0.2,0.3,0.3,0.3,0.7,0
	c0,0,0.1,0,0,0.1c-0.2,0.1-0.4,0.3-0.7,0.5c-0.2,0.2-0.4,0.4-0.6,0.5c0,0-0.1,0,0-0.1c0.3-0.3,0.3-0.4,0.1-0.6L71.5,41
	c-0.2-0.3-0.3-0.3-0.6,0c0,0-0.1,0,0-0.1c0.2-0.1,0.4-0.3,0.6-0.5c0.3-0.2,0.5-0.4,0.6-0.5c0,0,0.1,0,0,0.1
	c-0.3,0.3-0.4,0.4-0.1,0.7l0.8,1l1.6-1.3l-0.8-1c-0.2-0.3-0.3-0.3-0.7,0c0,0-0.1,0,0-0.1c0.2-0.1,0.4-0.3,0.6-0.5
	c0.2-0.2,0.4-0.4,0.6-0.5c0,0,0.1,0,0,0.1c-0.3,0.3-0.3,0.4-0.1,0.6l1.8,2.2C76.1,41.4,76.2,41.4,76.5,41.2
	C76.5,41.1,76.5,41.2,76.5,41.2z M79.7,36.1c-0.1,0.2-0.3,0.4-0.4,0.7c-0.2,0.3-0.3,0.5-0.4,0.7c0,0-0.1,0-0.1,0
	c0.2-0.4,0.2-0.5-0.1-0.7l-2.1-1.2l0.9,2.8l0.2,0.1c0.3,0.2,0.4,0.1,0.6-0.3c0,0,0.1,0,0.1,0c-0.1,0.2-0.2,0.4-0.4,0.7
	c-0.1,0.3-0.3,0.5-0.4,0.7c0,0-0.1,0-0.1,0c0.2-0.4,0.2-0.5-0.1-0.6L75,37.7c-0.3-0.2-0.4-0.1-0.6,0.2c0,0-0.1,0-0.1,0
	c0.1-0.2,0.2-0.4,0.4-0.7c0.2-0.3,0.3-0.5,0.4-0.7c0,0,0.1,0,0.1,0C75,36.9,75,37,75.3,37.2l2.1,1.1l-0.9-2.8l-0.2-0.1
	c-0.3-0.2-0.4-0.2-0.6,0.2c0,0-0.1,0-0.1,0c0.1-0.2,0.2-0.4,0.4-0.7c0.1-0.2,0.3-0.5,0.4-0.7c0,0,0.1,0,0.1,0
	c-0.2,0.4-0.2,0.5,0.1,0.6l2.5,1.4C79.4,36.4,79.5,36.4,79.7,36.1C79.7,36,79.8,36.1,79.7,36.1z M51.7,29.1c0.3,0,0.5,0.2,0.5,0.5
	c0,0.3-0.2,0.5-0.5,0.5s-0.5-0.2-0.5-0.5C51.3,29.3,51.5,29.1,51.7,29.1z M50.2,30.1c-0.3,0-0.5-0.2-0.5-0.5c0-0.3,0.2-0.5,0.5-0.5
	c0.3,0,0.5,0.2,0.5,0.5C50.7,29.8,50.5,30,50.2,30.1z M50.9,30.6c0.3,0,0.5,0.2,0.5,0.5c0,0.3-0.2,0.5-0.5,0.5
	c-0.3,0-0.5-0.2-0.5-0.5C50.5,30.9,50.7,30.7,50.9,30.6z M79.2,29.6c0-0.3,0.2-0.5,0.5-0.5c0.3,0,0.5,0.2,0.5,0.5
	c0,0.3-0.2,0.5-0.5,0.5C79.4,30.1,79.2,29.8,79.2,29.6z M78.1,29.1c0.3,0,0.5,0.2,0.5,0.5c0,0.3-0.2,0.5-0.5,0.5
	c-0.3,0-0.5-0.2-0.5-0.5C77.6,29.3,77.8,29.1,78.1,29.1z M78.9,30.6c0.3,0,0.5,0.2,0.5,0.5c0,0.3-0.2,0.5-0.5,0.5
	c-0.3,0-0.5-0.2-0.5-0.5C78.4,30.9,78.6,30.7,78.9,30.6z"/>
</svg>
