<?xml version="1.0" encoding="utf-8"?>
<!-- Generator: Adobe Illustrator 16.0.0, SVG Export Plug-In . SVG Version: 6.00 Build 0)  -->
<!DOCTYPE svg PUBLIC "-//W3C//DTD SVG 1.1//EN" "http://www.w3.org/Graphics/SVG/1.1/DTD/svg11.dtd">
<svg version="1.1" id="Слой_1" xmlns="http://www.w3.org/2000/svg" xmlns:xlink="http://www.w3.org/1999/xlink" x="0px" y="0px"
	 width="127.559px" height="85.039px" viewBox="0 0 127.559 85.039" enable-background="new 0 0 127.559 85.039"
	 xml:space="preserve">
<path fill="#979898" d="M24.72,44.09c-2.262,0-4.635,0.194-6.884-0.095c-0.742-0.095-1.619-0.321-1.923-1.094
	c-0.278-0.707,0.267-1.697-0.125-2.294c-0.49-0.734,1.199-0.452,1.466,0.28c0.27,0.739-0.171,1.616,0.513,2.218
	c0.237,0.209,0.414,0.186,0.595,0c0-0.3-0.371-0.729-0.431-1.063c-0.177-1,0.411-2,1.412-2.211c1.029-0.217,2.225-0.056,3.266-0.056
	c1.063,0,2.613-0.222,3.588,0.266c0.889,0.494,1.165,1.517,0.967,2.474C26.917,43.693,25.808,44.09,24.72,44.09z M21.01,42.463
	c0.888,0,1.776,0,2.664,0c0.298,0,0.636,0.045,0.932,0c0.661,0,0.948-0.999,0.232-1.056c-0.896-0.071-1.817-0.005-2.713-0.005
	c-0.367,0-0.733,0-1.101,0C20.167,41.402,20.153,42.463,21.01,42.463z M20.065,34.703c1.779,0,3.667,0.184,5.436-0.06
	c0.347-0.048,1.643-0.699,1.643-0.015c0.08,0.25-0.041,0.779-0.038,1.059c0.002,0.187,0.079,0.383,0.012,0.568
	c-0.105,0.291-0.453,0.012-0.579,0.266c0,0.161,0.412,0.523,0.529,0.643c0.213,0.357,0.206,0.863-0.022,1.211
	c-0.825,1.251-3.49,0.596-4.405-0.199c-0.599-0.52-1.156-1.548-1.962-1.742c-1.124-0.27-0.64,1.154-0.247,1.581
	c0.764,0.832-0.062,0.789-0.767,0.743c-0.706-0.046-1.428,0.275-1.782-0.548c-0.301-0.697-0.366-1.727-0.125-2.447
	C18.254,34.771,19.053,34.703,20.065,34.703z M24.569,36.332c-0.25,0-2-0.11-1.59,0.303c0.486,0.477,1.227,0.818,1.916,0.694
	C25.612,37.201,25.129,36.332,24.569,36.332z M25.855,33.379c-1.175,0-2.351,0-3.525,0c-0.617,0-1.234,0-1.852,0
	c-0.1,0-0.201-0.001-0.301,0c-0.642,0-1.285,0.266-1.893,0.266c-0.853,0.429-0.567-1.278-0.567-1.742
	c0-0.452,0.394-0.204,0.615-0.312c-0.015,0.007-0.691-1.033-0.691-1.278c0-1.606,3.385-1.172,4.467-1.172
	c0.854,0,1.746-0.026,2.576,0.205c0.458,0.128,0.941,0.32,1.224,0.725c0.24,0.345,0.474,1.256-0.039,1.492
	c-0.492,0.227-0.767-0.315-1.113-0.528c-0.521-0.318-1.217-0.243-1.799-0.261c-0.529-0.016-2.665-0.215-2.665,0.563
	c0,0.66,3.261,0.416,3.699,0.416c0.528,0,1.058,0,1.587,0c0.493,0,1.012-0.045,1.468-0.248c0.222-0.098,1.162-1.046,1.227-0.387
	c0.07,0.704,0.005,1.476,0.005,2.185C28.278,33.827,26.277,33.379,25.855,33.379z M29.905,36.748c0-1.155,0-2.31,0-3.464
	c0-1.035-0.344-2.001-0.591-2.994c-0.313-1.258,1.195-0.856,2.022-0.782c0.813,0.073,1.771-0.278,2.543-0.077
	c0.44,0.115,0.515,0.625,0.265,0.958c-0.322,0.537-0.467,1.197-0.536,1.813c-0.146,1.315-0.031,2.696-0.031,4.017
	c0,0.514-0.035,1.052,0.036,1.563c0.141,1.002,1.401,1.526,2.227,0.823c0.747-0.637,0.387-3.047,0.387-3.923
	c0-1.323,0.231-2.944-0.446-4.113c-0.826-1.429,1.214-1.145,1.985-1.051c0.652,0.08,3.342-0.622,3.05,0.612
	c-0.336,1.424-0.614,2.753-0.614,4.22c0,1.106,0,2.211,0,3.317c0,3.126,0,6.251,0,9.377c0,0.904,0,1.81,0,2.714
	c0,0.487,0.015,0.975,0.108,1.453c0.211,1.086,1.206,2.387-0.585,2.338c-0.88-0.023-1.719-0.213-2.607-0.152
	c-0.527,0.035-1.084,0.158-1.608,0.158c-1.698,0-0.271-1.576,0.094-2.328c0.491-1.011,0.625-2.162,0.625-3.272
	c0-0.947,0-1.896,0-2.843c0-0.364,0.171-1.164-0.101-1.424c-0.172-0.164-0.547,0.107-0.703,0.166
	c-0.467,0.168-0.975,0.201-1.467,0.201c-1.52,0-3.359-0.373-3.885-2.017C29.566,40.458,29.905,38.379,29.905,36.748z M42.509,47.383
	c0-2.486,0-4.975,0-7.462c0-1.374-0.054-2.785,0.421-4.097c0.826-2.279,3.481-2.895,5.621-2.115c2.117,0.771,2.739,2.933,2.739,4.99
	c0,1.577,0.158,3.188-0.659,4.611c-0.592,1.033-1.51,1.842-2.495,2.487c-0.935,0.613-2.154,1.525-1.89,2.823
	c0.236,1.164,1.996,1.121,2.669,0.423c0.376-0.392,0.479-1.028,0.899-1.356c0.531-0.416,0.944,0.064,0.944,0.604
	c0,0.699-0.138,1.369-0.09,2.072c0.039,0.576,0.199,1.256,0.016,1.824c-0.466,1.449-2.584,1.553-3.812,1.455
	C43.463,53.373,42.509,50.366,42.509,47.383z M45.953,39.813c0,0.74,0,1.479,0,2.219c0,0.458-0.239,2.144,0.621,1.875
	c1.531-0.478,1.667-3.134,1.451-4.373c-0.108-0.628-0.438-1.235-1.164-1.235C45.984,38.299,45.953,39.132,45.953,39.813z
	 M53.069,48.443c0-2.37,0-4.74,0-7.11c0-1.208,0-2.417,0-3.625c0-0.351-0.012-0.691-0.064-1.042c-0.086-0.571-0.99-2.884-0.212-3.07
	c0.555-0.132,1.222,0.008,1.774,0.067c0.759,0.081,1.957-0.378,2.644-0.004c0.777,0.423,0.909,2.293,1.121,3.08
	c0.118,0.438,0.405,1.975,0.981,1.975c0.656,0,0.97-1.696,1.108-2.182c0.275-0.962,0.483-2.992,1.745-2.963
	c0.956,0.021,1.85,0.069,2.813,0.014c0.348-0.02,1.102-0.153,1.293,0.241c0.184,0.374-0.12,1.06-0.223,1.41
	c-0.77,3.076-0.492,6.429-0.492,9.583c0,1.254,0,2.51,0,3.765c0,0.728,0.011,1.456,0.09,2.181c0.082,0.758,0.982,2.791-0.354,2.791
	c-0.866,0-1.66-0.123-2.527-0.006c-0.243,0.032-0.502,0.006-0.746,0.006c-0.811,0-0.682-0.438-0.485-1.021
	c0.546-1.624,0.579-3.284,0.579-4.974c0-1.518,0-3.033,0-4.551c0-0.236,0.102-0.742,0-0.961c-0.125-0.641-0.469-0.039-0.571,0.225
	c-0.266,0.674-0.511,1.361-0.752,2.044c-0.252,0.676-0.554,1.355-1.184,1.762c-0.655,0.422-1.084-0.479-1.342-0.964
	c-0.427-0.804-0.737-1.62-1.023-2.479c-0.374-1.121-0.766-0.385-0.766,0.436c-0.059,1.791,0,3.595,0,5.388
	c0,0.776-0.012,1.556,0.022,2.332c0.039,0.877,0.148,1.519,0.545,2.31c0,0.545-0.896,0.455-1.269,0.455
	c-0.396,0-0.764-0.029-1.157-0.076c-0.574-0.069-1.218,0.181-1.757,0.051c-0.85-0.205-0.176-1.657-0.079-2.194
	C52.955,50.371,53.069,49.422,53.069,48.443z M67.753,47.496c0-2.43,0-4.859,0-7.288c0-1.699,0.096-3.483,1.035-4.959
	c1.21-1.9,3.92-2.37,5.866-1.317c2.921,1.579,2.221,6.124,2.221,8.936c0,2.881,0.65,7.144-1.338,9.458
	c-1.268,1.474-3.75,1.744-5.441,0.889C68.086,52.195,67.753,49.5,67.753,47.496z M71.198,41.139c0,1.678,0,3.355,0,5.034
	c0,0.915-0.16,2.078,0.277,2.896c0.32,0.597,1.271,0.654,1.622,0.056c0.353-0.597,0.332-1.399,0.332-2.065c0-1.666,0-3.332,0-4.997
	c0-0.894,0.103-1.875-0.228-2.718c-0.243-0.623-1.107-1.026-1.604-0.399C71.142,39.519,71.198,40.457,71.198,41.139z M84.52,53.553
	c-1.347,0-3.162-0.287-4.342,0.467c-0.586,0.373-1.095,2.033-1.805,1.856c-0.69-0.173-0.236-1.726-0.261-2.246
	c-0.022-0.503-0.241-1.358,0.072-1.805c0.287-0.408,0.754-0.579,0.953-1.063c0.222-0.542,0.325-1.145,0.439-1.717
	c0.52-2.611,0.788-5.279,1.004-7.931c0.089-1.096,0.167-2.195,0.188-3.294c0.024-1.317-0.232-2.45-0.525-3.722
	c0-0.943,3.158-0.426,3.729-0.399c0.754,0.035,4.674-0.678,4.674,0.475c0,0.58-0.291,1.203-0.38,1.779
	c-0.079,0.507-0.112,1.019-0.112,1.532c0,0.293,0,0.587,0,0.88c0,3.461,0,6.921,0,10.382c0,0.804-0.084,1.903,0.449,2.545
	c0.396,0.478,1.011,0.392,0.884,1.198c-0.057,0.359-0.093,0.701-0.11,1.066c-0.03,0.582,0.141,1.155,0.141,1.736
	c0,0.698-0.716,0.743-1.06,0.229c-0.401-0.705-0.756-1.381-1.577-1.666C86.136,53.598,85.299,53.553,84.52,53.553z M84.709,48.783
	c0-2.992,0-5.984,0-8.976c0-0.451-0.076-1.885-0.833-1.192c-0.462,0.424-0.442,1.479-0.475,2.052
	c-0.045,0.826-0.015,1.658-0.019,2.485c-0.01,1.865-0.23,3.64-0.497,5.481c-0.11,0.769-0.175,1.398,0.801,1.398
	C84.563,50.033,84.709,49.57,84.709,48.783z M99.698,38.602c0,2.486,0,4.973,0,7.458c0,1.211-0.056,2.449,0.063,3.653
	c0.068,0.702,0.223,1.381,0.42,2.058c0.109,0.375,0.505,1.065,0.293,1.465c-0.298,0.561-1.451,0.236-1.952,0.185
	c-0.487-0.052-1.015,0.063-1.504,0.113c-1.311,0.132-0.46-1.021-1.18-1.306c-0.303,0-0.78,0.644-0.984,0.819
	c-0.418,0.362-0.951,0.618-1.514,0.618c-1.178,0-1.921-0.702-2.319-1.764c-0.756-2.012-0.59-5.217,0.646-7.021
	c0.671-0.98,1.553-1.857,2.453-2.626c0.85-0.727,2.266-1.874,1.945-3.173c-0.233-0.95-1.628-0.946-2.325-0.569
	c-0.618,0.333-1.665,2.002-2.456,1.468c-0.627-0.424-0.175-1.812-0.114-2.39c0.101-0.976-0.487-2.261,0.252-3.087
	c1.161-1.297,4.514-1.445,6.005-0.822C99.558,34.502,99.698,36.624,99.698,38.602z M96.253,48.064c0-0.653,0-1.308,0-1.959
	c0-0.379,0.185-2.195-0.605-1.41c-1.022,1.029-1.768,2.561-1.515,4.046C94.402,50.313,96.253,49.27,96.253,48.064z M102.347,48.896
	c0-2.387,0-4.771,0-7.159c0-1.216,0-2.433,0-3.649c0-0.462,0.001-0.924-0.018-1.386c-0.02-0.461-0.04-0.937-0.155-1.386
	c-0.111-0.438-0.476-1.031-0.284-1.493c0.194-0.466,1.284-0.245,1.688-0.2c0.387,0.043,0.753,0.062,1.145,0.052
	c0.412-0.01,1.237-0.28,1.575,0.006c0.506,0.428-0.43,2.39-0.43,2.989c0,0.446-0.028,1.006,0.343,1.332
	c0.412,0.362,1.154,0.286,1.474-0.158c0.603-0.843,0.198-2.062-0.123-2.916c-0.11-0.297-0.412-0.987-0.07-1.247
	c0.387-0.296,1.075-0.064,1.521-0.046c0.663,0.026,1.306-0.068,1.965-0.068c1.38,0,0.771,1.154,0.492,2.082
	c-0.514,2.553-0.266,5.291-0.266,7.877c0,2.727-0.234,5.606,0.288,8.297c0.084,0.434,0.418,1.195,0.01,1.559
	c-0.288,0.256-0.831,0.203-1.169,0.094c-0.576-0.188-1.263,0.076-1.852,0.076c-0.308,0-0.698,0.053-0.981-0.089
	c-0.506-0.252-0.144-0.989-0.066-1.394c0.21-1.114,0.364-2.223,0.364-3.358c0-1.272,0-2.544,0-3.815c0-0.821-0.136-1.86-1.234-1.653
	c-0.896,0.17-0.771,1.36-0.771,2.048c0,2.482-0.029,4.83,0.431,7.277c0.126,0.674-0.074,1.035-0.825,0.974
	c-0.905-0.074-1.813-0.171-2.723-0.041c-1.225,0.175-0.957-0.538-0.701-1.405C102.28,51.057,102.347,49.975,102.347,48.896z"/>
</svg>
