<svg xmlns="http://www.w3.org/2000/svg" width="127.559px" height="85.039px" viewBox="0 0 127.559 85.039">
<path fill-rule="evenodd" clip-rule="evenodd" fill="#979898" d="M61.64,10.294c-1.341,0.093-2.596,0.413-3.82,0.75
	c-1.235,0.34-2.209,0.894-3.076,1.517c-0.942,0.678-1.904,1.636-2.748,2.358l-0.898,0.843c-0.671,0.65-1.557,1.642-2.135,2.418
	c-0.328,0.438-0.632,0.877-0.927,1.37c-1.893,3.155-2.68,7.486-2.374,11.267c0.23,2.86,1.012,5.247,2.281,7.403
	c0.094,0.159,0.09,0.229,0.156,0.398c0.078,0.203,0.287,0.543,0.402,0.746c0.449,0.797,0.801,1.389,1.322,2.121
	c0.175,0.245,0.318,0.398,0.475,0.674c0.327,0.572,0.598,0.889,1.012,1.285c0.218,0.207,0.42,0.291,0.639,0.469
	c0.758,0.62,0.965,0.881,1.965,1.479c0.938,0.561,2.065,1.011,3.293,1.298c2.494,0.584,6.055,0.506,8.71,0.405
	c3.884-0.149,7.57-0.871,10.353-3.353c0.115-0.104,0.185-0.135,0.298-0.257l0.883-0.859c0.365-0.392,0.73-0.776,1.084-1.212
	c3.859-4.75,3.595-7.396,3.22-14.674c-0.135-2.629-0.417-5.556-1.557-7.588c-1.502-2.682-3.569-3.824-6.507-4.896
	c-1.852-0.676-1.418-0.568-2.886-1.706c-1.094-0.848-1.767-1.197-3.225-1.366C65.605,10.958,63.888,10.139,61.64,10.294
	 M61.569,13.07c1.716-0.17,3.292,0.456,5.026,0.761c1.468,0.259,1.394-0.017,2.783,1.097c0.367,0.294,0.693,0.576,1.09,0.851
	c1.671,1.159,3.363,1.141,5.308,2.491c2.836,1.97,3.001,4.977,3.204,8.432c0.072,1.239,0.136,2.478,0.184,3.72
	c0.1,2.519,0.166,4.413-1.005,6.661c-0.528,1.015-1.599,2.596-2.466,3.393l-0.968,0.973c-0.126,0.137-0.353,0.303-0.537,0.453
	c-2.279,1.843-5.187,2.295-8.233,2.434c-2.298,0.105-5.23,0.172-7.456-0.2c-2.475-0.413-3.843-1.411-5.103-2.655
	c-0.275-0.271-0.688-0.713-0.922-1.059c-0.246-0.367-0.441-0.892-0.646-1.295c-0.515-1.02-0.985-1.404-1.536-2.343
	c-1.006-1.714-1.631-3.565-1.857-5.909c-0.23-2.392,0.041-4.747,0.674-6.924c0.797-2.742,2.072-4.285,3.726-6.012l0.978-0.963
	c0.174-0.151,0.335-0.325,0.518-0.472c0.105-0.086,0.139-0.13,0.244-0.23c1.043-0.989,2.354-2.028,3.785-2.511
	C59.319,13.437,60.49,13.177,61.569,13.07z M68.66,17.743c3.196-0.229,6.588,1.779,7.769,4.702c0.232,0.575,0.685,2.105,0.116,2.533
	c-1.121,0.844-3.463-0.599-4.855-0.881c-1.744-0.353-3.634,0.051-5.103,0.939c-0.855,0.517-1.079,0.82-1.762,1.365
	c-1.049,0.836-1.356,0.821-1.932,0.036c-1.428-1.949-0.31-5.177,1.417-6.765C65.309,18.756,66.72,17.882,68.66,17.743
	 M36.446,52.115c0.017-0.492,0.321-0.369,1.202-0.369c0.565,0,2.699-0.064,3.062,0.047c0.093,0.17,0.113,0.428,0.082,0.682
	c-0.034,0.283-0.193,0.26-0.452,0.311c-1.063,0.205-1.858,1.168-2.633,1.924c-0.333,0.326-2.787,2.809-3.068,3.023
	c0.1,0.244,1.482,1.959,1.664,2.184c0.939,1.158,2.6,3.107,3.701,4.02c1.229,1.018,1.666,0.074,1.627,1.246
	c-0.012,0.396-0.253,0.354-0.617,0.352c-0.633-0.004-1.267,0-1.9,0c-1.221,0-0.791,0.1-1.404-0.531
	c-0.513-0.525-1.708-2.004-2.218-2.613l-2.532-3.287c-0.149-0.203-0.236-0.447-0.554-0.475c0,1.221-0.012,2.445,0.015,3.664
	c0.012,0.5,0.013,1.223,0.16,1.664c0.273,0.813,0.975,0.359,1.061,0.797c0.191,0.98-0.353,0.781-1.02,0.781
	c-0.418,0-3.459,0.039-3.604-0.037c-0.178-0.09-0.18-0.488-0.137-0.738c0.113-0.652,1.006,0.498,1.175-1.594
	c0.099-1.223,0.097-7.896,0.026-9.029c-0.121-1.957-0.988-1.066-1.182-1.543c-0.094-0.232-0.021-0.656,0.06-0.803
	c0.312-0.086,3.548-0.055,4.296-0.045c0.273,0.002,0.379,0.059,0.394,0.33c0.084,1.613-1.179-0.453-1.237,2.418
	c-0.021,0.965-0.02,1.967-0.005,2.934c0.887,0,0.698,0.035,1.553-0.803l2.36-2.352c0.238-0.234,1.022-0.85,0.898-1.41
	C36.659,52.607,36.416,53.008,36.446,52.115 M50.276,30.092c0.8-0.303,2.246,1.226,2.786,1.664c1.443,1.169,3.627,1.953,5.625,1.256
	c1.514-0.527,1.876-1.118,3.497-0.838c0.403,0.07,0.669,0.389,0.83,0.636c0.954,1.463-0.928,4.076-2.015,4.928
	c-0.891,0.699-1.807,1.227-3.005,1.47c-2.085,0.423-3.401-0.089-4.55-1.144c-1.526-1.402-2.838-3.324-3.4-5.547
	C49.882,31.881,49.633,30.335,50.276,30.092 M69.19,25.728c1.366-0.143,3.581,0.268,4.714,0.747
	c2.831,1.198,3.654,4.523,3.084,7.496c-0.103,0.531-0.396,1.723-0.646,2.087c-0.197,0.288-0.529,0.526-0.858,0.159
	c-0.177-0.197-0.325-0.607-0.417-0.932c-0.502-1.766-0.246-2.873-1.395-4.106c-0.826-0.888-2.256-1.351-3.868-1.589
	c-1.053-0.156-3.106,0.007-3.605-0.517c-0.235-0.247-0.296-0.645-0.205-1.066C66.289,26.629,67.845,25.869,69.19,25.728
	 M53.93,20.041c1.409-0.367,1.333,2.267,1.503,3.331c0.205,1.276,0.672,2.834,1.381,3.524c0.095,0.092,0.24,0.194,0.35,0.284
	c0.796,0.647,1.557,1.268,2.258,2.017c0.551,0.588,0.138,1.428-0.215,1.682c-0.521,0.376-1.225,0.431-1.992,0.332
	c-2.907-0.373-5.104-1.569-5.703-4.117c-0.33-1.402-0.156-3.011,0.304-4.278C52.207,21.732,52.919,20.305,53.93,20.041
	 M63.618,15.165c0.807-0.145,1.63,0.132,1.389,1.05c-0.241,0.914-1.312,1.11-2.46,2.685c-0.369,0.506-0.655,1.012-0.925,1.648
	c-0.265,0.625-0.449,1.295-0.545,2.027c-0.137,1.048,0.192,4.251-0.228,4.762c-0.348,0.422-1.517-0.371-1.755-0.544
	c-0.561-0.41-0.855-0.655-1.18-1.393c-0.896-2.039-1.535-4.064-0.499-6.167C58.437,17.161,60.665,15.694,63.618,15.165
	 M66.833,58.277c1.495-1.723,4.55-1.846,5.571,0.258c0.65,1.34,0.15,3.51,0.483,5.137c0.256,1.248,0.931,0.625,1.116,0.982
	c0.054,0.104,0.057,0.561,0.023,0.678c-0.092,0.33-0.853,0.201-1.183,0.201h-2.853c-0.237,0.002-0.438,0.002-0.482-0.232
	c-0.034-0.178-0.004-0.543,0.037-0.691c0.297-0.172,0.666-0.018,0.878-0.344c0.343-0.525,0.32-2.791,0.32-3.439
	c0-0.793-0.046-1.555-0.527-1.967c-0.866-0.738-2.605-0.328-3.208,1.16c-0.234,0.58-0.167,1.713-0.14,2.391
	c0.026,0.67,0.008,1.713,0.493,1.998c0.369,0.217,0.776-0.057,0.796,0.455c0.023,0.602,0.021,0.672-0.58,0.67l-3.753-0.008
	c-0.329-0.066-0.272-0.795-0.148-0.92c0.452-0.455,1.272,1.021,1.158-3.852c-0.016-0.689-0.02-1.648-0.438-2.053
	c-0.331-0.316-0.624-0.205-0.896-0.371c-0.209-0.129-0.072-0.816,0.104-0.922c0.111-0.066,1.825-0.338,2.108-0.389
	C67.325,56.73,66.742,57.568,66.833,58.277 M48.233,64.383c-0.142,0.092-0.209,0.248-0.445,0.445
	c-0.532,0.443-1.072,0.779-1.833,0.896c-1.161,0.18-2.101-0.211-2.734-0.77c-0.793-0.699-0.855-1.674-0.879-2.703
	c-0.027-1.246,0.212-3.158-0.746-3.789c-0.187-0.123-0.559-0.191-0.649-0.26c-0.129-0.098-0.161-0.609-0.077-0.805
	c0.09-0.215,0.516-0.148,0.778-0.148c0.606,0,1.214,0,1.821,0c0.988,0,0.98-0.146,0.923,0.844c-0.067,1.18-0.042,2.381-0.042,3.564
	c0,1.135,0.05,2.279,1.088,2.541c1.105,0.281,1.992-0.572,2.381-1.16c0.244-0.369,0.416-0.832,0.42-1.381
	c0.007-0.977,0.157-2.492-0.527-3.096c-0.551-0.486-0.978,0.006-0.971-0.865c0.002-0.412,0.081-0.451,0.488-0.449h2.736
	c0.518,0.016,0.359,0.43,0.329,1.426c-0.039,1.291-0.143,4.172,0.134,5.211c0.234,0.875,0.813,0.477,1.039,0.742
	c0.1,0.117,0.107,0.641,0.025,0.777c-0.113,0.188-0.515,0.129-0.778,0.129c-0.606-0.002-1.214-0.002-1.821,0
	C48.033,65.535,48.275,65.461,48.233,64.383 M77.676,58.365c0.52-0.303,1.438-0.453,2.072-0.127
	c0.607,0.313,0.668,1.033,0.693,1.873c-1.374,0.201-2.457,0.34-3.582,0.928c-0.896,0.471-1.844,1.357-1.617,2.857
	c0.185,1.225,1.223,1.943,2.624,1.863c0.655-0.037,1.218-0.277,1.681-0.568c0.746-0.469,0.899-0.859,1.137-1.059
	c0.055,0.092,0.141,0.447,0.211,0.6c0.479,1.041,1.923,1.148,2.911,0.799c0.232-0.082,0.382-0.148,0.342-0.443
	c-0.04-0.287-0.043-0.432-0.218-0.574c-0.45-0.102-0.89,0.299-1.132-0.338c-0.244-0.643-0.312-3.4-0.348-4.162
	c-0.046-0.947-0.252-1.779-0.756-2.256c-1.553-1.469-6.031-0.881-5.917,1.484c0.076,1.572,2.225,1.398,2.355,0.15
	C78.204,58.709,77.785,58.578,77.676,58.365 M80.487,61.27c0.411,1.725-1.739,3.584-2.753,2.625
	c-0.406-0.383-0.444-1.395,0.437-2.02C78.647,61.537,79.748,61.174,80.487,61.27z M65.609,32.153c1.462-0.24,1.777,1.58,1.876,2.593
	c0.185,1.915-0.173,3.951-1.23,5.477c-0.229,0.33-0.742,0.955-1.049,1.206c-3.281,2.682-6.093,1.025-4.696-0.854
	c0.367-0.496,1.271-1.207,1.734-1.67c0.197-0.198,0.342-0.393,0.527-0.582c0.704-0.716,1.378-1.953,1.591-2.963
	c0.225-1.064,0.049-1.453,0.132-2.045C64.585,32.661,64.971,32.257,65.609,32.153 M68.484,31c0.734-0.237,2.412,0.794,2.83,1.112
	c0.723,0.55,1.289,1.216,1.604,2.394c0.318,1.186,0.167,2.359-0.222,3.449c-0.374,1.047-1.502,3.061-2.618,3.397
	c-0.628,0.19-1.222-0.082-1.443-0.466c-0.258-0.445-0.022-1.229,0.062-1.744c0.278-1.729,0.384-3.801-0.047-5.475
	c-0.275-1.068-0.863-1.77-0.705-2.206C68.024,31.243,68.223,31.084,68.484,31 M54.966,51.48c0.162-0.043,0.3,0.02,0.477,0.066
	c0.506,0.131,0.316,0.521,0.295,1.6c-0.016,0.832-0.023,1.66-0.026,2.494c-0.007,2.023-0.071,5.557,0.069,7.521
	c0.129,1.799,0.774,1.16,1.11,1.424c0.149,0.117,0.194,0.85-0.097,0.932l-3.785,0.016c-0.579,0.002-0.611-0.07-0.557-0.711
	c0.041-0.488,0.478-0.16,0.813-0.453c0.408-0.359,0.374-1.514,0.397-2.154c0.04-1.121,0.104-6.41-0.061-7.484
	c-0.121-0.789-0.428-1.18-1.166-1.369c-0.336-0.086-0.433-0.191-0.23-0.82c0.089-0.277,0.589-0.342,0.842-0.424
	C53.676,51.914,54.33,51.65,54.966,51.48 M84.909,64.609c0.252-0.143,0.527-0.037,0.76-0.225c0.431-0.35,0.433-1.965,0.438-2.49
	c0.008-0.969,0.125-2.85-0.573-3.305c-0.58-0.379-1.084,0.07-0.784-0.984c0.082-0.289,0.334-0.254,0.673-0.313
	c0.278-0.049,0.539-0.096,0.812-0.143c0.542-0.098,1.116-0.287,1.647-0.117c0.324,0.104,0.241,0.354,0.222,0.715
	c-0.017,0.291-0.055,0.615-0.051,0.9c0.091-0.09,0.274-0.398,0.434-0.553c0.522-0.51,0.939-0.887,1.805-1.047
	c3.258-0.605,3.489,3.422,1.637,3.574c-0.589,0.049-1.04-0.252-1.202-0.691c-0.284-0.771,0.279-1.199,0.361-1.402
	c-0.315-0.463-1.284-0.063-1.568,0.164c-1.361,1.086-1.572,3.197-1.294,4.93c0.205,1.277,0.876,0.682,1.11,1.023
	c0.105,0.154,0.097,0.762-0.096,0.852c-0.153,0.072-2.878,0.035-3.17,0.035C85.289,65.533,84.584,65.771,84.909,64.609
	 M96.536,56.979c0.231-0.041,0.568-0.016,0.774,0.088c0.223,0.111,0.148,0.436,0.14,0.729c-0.042,1.465-0.117,4.066-0.009,5.365
	c0.156,1.873,1.041,1.088,1.222,1.537c0.074,0.186,0.043,0.676-0.074,0.77c-0.16,0.129-3.103,0.066-3.573,0.066
	c-0.253,0-0.712,0.072-0.826-0.119c-0.08-0.137-0.072-0.684,0.027-0.797c0.416-0.467,1.335,1.084,1.169-4.307
	c-0.017-0.555-0.091-1.133-0.356-1.518c-0.347-0.5-1.107-0.252-1.089-0.734c0.031-0.805,0.347-0.691,1.021-0.813
	C95.483,57.154,96.009,57.068,96.536,56.979 M60.43,56.979c0.236-0.041,0.562-0.016,0.776,0.086
	c0.226,0.107,0.149,0.438,0.141,0.727c-0.017,0.59-0.032,1.18-0.039,1.768c-0.014,1.137-0.067,2.521,0.033,3.635
	c0.048,0.529,0.159,1.096,0.584,1.266c0.244,0.098,0.569,0.002,0.645,0.264c0.063,0.223,0.05,0.672-0.105,0.766
	c-0.169,0.102-3.14,0.045-3.596,0.045c-0.271,0-0.697,0.068-0.795-0.15c-0.072-0.16-0.057-0.674,0.059-0.781
	c0.287-0.264,0.746,0.219,1.007-0.816c0.208-0.822,0.174-2.588,0.144-3.494c-0.027-0.826-0.125-1.633-0.916-1.854
	c-0.266-0.072-0.542-0.055-0.529-0.377c0.008-0.201,0.095-0.59,0.253-0.668L60.43,56.979 M62.863,27.791
	c0.675-0.101,2.083,0.372,2.198,1.455c0.127,1.188-0.449,2.053-1.498,2.191c-1.134,0.149-2.011-0.595-2.187-1.5
	C61.148,28.761,61.875,27.939,62.863,27.791 M59.773,52.098c1.031-0.195,1.858,0.543,2.007,1.379
	c0.184,1.027-0.572,1.873-1.388,2.018C58.176,55.885,57.51,52.525,59.773,52.098 M96.218,51.803c0.266-0.17,0.453,0.223,0.566,0.367
	c0.444,0.564,0.443,0.59,1.016,1.043c0.751,0.596,0.714,0.52,0.091,1.027c-0.105,0.086-0.19,0.154-0.281,0.232
	c-0.09,0.078-0.169,0.18-0.253,0.262c-0.102,0.1-0.145,0.145-0.262,0.252c-0.683,0.631-0.601,1.314-1.264,0.434
	c-1.237-1.645-2.136-1.285-1.121-2.064c0.561-0.432,0.622-0.578,1.036-1.023c0.091-0.098,0.154-0.172,0.235-0.279
	C96.079,51.924,96.078,51.891,96.218,51.803 M40.496,74.756c0.29-0.006,0.966,0.037,1.113-0.035
	c-0.016-0.209,0.056-0.076-0.166-0.154c-0.101-0.035-0.138-0.047-0.195-0.121c-0.192-0.236-0.136-1.477-0.134-1.795
	c0.012,0.006,0.024,0.014,0.031,0.018c0.418,0.25,0.848,0.555,1.539,0.162c0.863-0.49,1.017-2.184-0.076-2.555
	c-0.869-0.295-1.312,0.299-1.492,0.383l-0.011-0.424c-0.11-0.037-0.989,0.004-0.963,0.203c0.017,0.123,0.109,0.074,0.239,0.164
	c0.298,0.201,0.229,0.936,0.23,1.348c0.002,0.527,0.004,1.059-0.005,1.584c-0.026,1.52-0.43,0.842-0.417,1.148
	C40.241,74.797,40.329,74.758,40.496,74.756 M41.787,70.561c1.247-0.291,1.322,1.975,0.395,2.199
	c-0.607,0.148-1.049-0.346-1.067-0.887C41.088,71.141,41.154,70.709,41.787,70.561z M51.448,70.305
	c0.023,0.301-0.135,0.064-0.301,0.299c-0.173,0.242-0.12,1.549-0.105,1.854l0.807-1.074c0.264-0.361,0.539-0.754,0.806-1.084
	l0.81,0.002c0.02,0.309-0.266,0.068-0.371,0.467c-0.057,0.221-0.041,0.623-0.041,0.865c0,0.254-0.014,0.619,0.057,0.852
	c0.139,0.455,0.479,0.078,0.443,0.439h-1.404c-0.066-0.412,0.328,0.17,0.393-0.813c0.021-0.322,0.034-0.953-0.008-1.262
	l-1.551,2.074c-0.232,0-0.672,0.051-0.857-0.023c0.004-0.447,0.412,0.393,0.412-1.268c0-0.248,0.015-0.58-0.034-0.82
	c-0.097-0.473-0.392-0.193-0.38-0.486C50.305,70.244,51.185,70.289,51.448,70.305 M56.493,71.467
	c0.146-1.195-0.435-0.814-0.394-1.168l1.321,0.002c0.02,0.301-0.251,0.051-0.371,0.465c-0.068,0.232-0.061,1.416-0.004,1.658
	c0.107,0.453,0.4,0.188,0.373,0.49l-1.314,0.012c-0.059-0.33,0.225-0.006,0.348-0.465c0.058-0.219,0.062-0.551,0.046-0.783h-1.507
	c-0.081,1.471,0.445,0.816,0.407,1.236l-1.329,0.01c-0.024-0.459,0.416,0.348,0.416-1.291c0-0.238,0.018-0.627-0.037-0.848
	c-0.113-0.457-0.408-0.158-0.369-0.486l1.322,0.002c0.021,0.354-0.53-0.047-0.405,1.164L56.493,71.467z M85.672,71.467
	c0.147-1.195-0.435-0.814-0.394-1.168l1.321,0.002c0.02,0.301-0.251,0.051-0.371,0.465c-0.067,0.229-0.06,1.418-0.003,1.658
	c0.106,0.453,0.399,0.188,0.372,0.49l-1.314,0.012c-0.059-0.33,0.225-0.006,0.348-0.465c0.058-0.221,0.062-0.549,0.046-0.783H84.17
	c-0.081,1.469,0.444,0.816,0.408,1.236l-1.33,0.01c-0.017-0.307,0.242-0.031,0.361-0.465c0.072-0.262,0.082-1.416,0.018-1.674
	c-0.113-0.457-0.408-0.158-0.368-0.486l1.321,0.002c0.018,0.281-0.204,0.076-0.352,0.404c-0.073,0.162-0.073,0.568-0.054,0.76
	L85.672,71.467z M70.621,72.924c0.09-0.5-0.412,0.42-0.413-1.291c-0.002-1.713,0.381-0.869,0.418-1.307
	c-0.154-0.084-1.863-0.105-2.275,0.139c-0.233,0.139-0.5,0.516-0.271,0.867c0.182,0.277,0.825,0.369,0.825,0.369
	c0.006-0.01,0.021,0.008,0.031,0.012c-0.375,0.105-0.504,0.316-0.699,0.578c-0.428,0.574-0.475,0.361-0.766,0.49l0.003,0.119
	c0.155,0.068,0.748,0.029,0.957,0.02c0.165-0.195,0.351-0.52,0.49-0.736c0.185-0.283,0.307-0.49,0.784-0.426
	c0,0.246,0.035,0.83-0.214,0.957c-0.192,0.098-0.149-0.041-0.207,0.146c0.06,0.104,0.106,0.068,0.271,0.066L70.621,72.924z
	 M69.685,71.523c-1.519,0.318-1.544-1.342,0.018-1.006L69.685,71.523z M90.045,72.918c0.031-0.318-0.254-0.02-0.371-0.459
	c-0.052-0.197-0.169-1.754,0.145-1.943c0.215-0.131,0.227,0.061,0.217-0.223c-0.614,0-1.865-0.09-2.308,0.188
	c-0.208,0.133-0.439,0.477-0.241,0.844c0.145,0.268,0.479,0.305,0.866,0.361c-0.164,0.105-0.263,0.113-0.403,0.246
	c-0.525,0.498-0.278,0.684-1.063,0.84l0.003,0.15l0.951,0.002c0.641-0.756,0.457-1.189,1.279-1.178
	c-0.001,1.508-0.451,0.717-0.412,1.178L90.045,72.918z M88.475,70.504c0.564-0.08,0.649-0.092,0.645,0.416
	c-0.006,0.602,0.142,0.645-0.478,0.625C87.721,71.52,87.771,70.604,88.475,70.504z M61.085,70.367
	c0.049-0.086-0.039-0.068,0.159-0.068h1.029c0.194,0,0.11-0.018,0.155,0.068c-0.056,0.174-0.017,0.051-0.207,0.146
	c-0.247,0.123-0.245,0.652-0.198,0.895c0.901,0.055,0.777-0.941,1.379-1.143c0.848-0.281,0.802,0.957,0.168,0.707
	c-0.218-0.086-0.133-0.293-0.116-0.477c-0.222,0.098-0.417,0.58-0.61,0.797c-0.1,0.113-0.183,0.117-0.286,0.225
	c0.513,0.189,0.564,0.219,0.837,0.619c0.288,0.42,0.267,0.51,0.869,0.633l0.005,0.143l-0.951,0.014
	c-0.491-0.664-0.723-1.348-1.296-1.307c-0.035,0.217-0.021,0.58,0.024,0.797c0.107,0.518,0.373,0.156,0.376,0.484
	c-0.312,0.059-0.841,0.025-1.178,0.023c-0.188,0-0.106,0.021-0.159-0.063c0.045-0.135,0.045-0.064,0.208-0.15
	c0.093-0.049,0.114-0.08,0.153-0.203c0.042-0.135,0.205-1.793-0.157-1.988C61.087,70.41,61.211,70.57,61.085,70.367 M77.981,72.414
	c0.167-0.287,0.31-0.574,0.476-0.871c0.124-0.219,0.442-0.701,0.395-0.971c-0.057-0.039-0.097-0.061-0.183-0.086
	c-0.213-0.061-0.145,0.035-0.197-0.119c0.056-0.107,0.053-0.07,0.229-0.072c0.104,0,0.215,0.004,0.32,0.004
	c0.215,0,0.438-0.018,0.65,0.012c0.02,0.355-0.168-0.123-0.593,0.629c-0.393,0.693-1.547,2.863-1.827,3.279
	c-0.472,0.701-1.073,0.488-1.183,0.207c-0.201-0.52,0.373-0.73,0.559-0.477c0.121,0.168-0.04,0.326-0.05,0.482
	c0.344,0.02,0.624-0.625,0.776-0.902c0.351-0.637,0.385-0.465,0.048-1.109c-0.197-0.377-0.384-0.754-0.577-1.125
	c-0.134-0.254-0.292-0.66-0.535-0.77c-0.203-0.09-0.222,0.012-0.228-0.199c0.104-0.049,1.367-0.055,1.474,0
	c-0.012,0.314-0.408,0.004-0.385,0.434c0.01,0.168,0.179,0.441,0.257,0.588C77.52,71.559,77.876,72.305,77.981,72.414
	 M74.203,70.301c0.011,0.287-0.186,0.059-0.339,0.373c-0.105,0.219-0.076,0.494-0.076,0.738c0.988,0.008,0.808-1.018,1.439-1.162
	c0.448-0.102,0.785,0.283,0.53,0.615c-0.077,0.1-0.287,0.189-0.453,0.09c-0.179-0.107-0.102-0.285-0.067-0.447
	c-0.253,0.012-0.29,0.523-0.804,0.934l-0.063,0.053c-0.003,0.004-0.013,0.014-0.019,0.021c0.573,0.266,0.537,0.176,0.864,0.676
	c0.613,0.938,0.831,0.293,0.827,0.709c-0.161,0.066-0.729,0.031-0.942,0.018c-0.198-0.209-0.362-0.523-0.525-0.76
	c-0.3-0.434-0.339-0.549-0.788-0.545c0,0.248-0.018,0.619,0.047,0.848c0.117,0.422,0.386,0.156,0.366,0.449l-1.329,0.014
	c-0.03-0.418,0.413,0.227,0.413-1.053c0-0.295,0.039-0.959-0.078-1.193c-0.154-0.305-0.358-0.096-0.337-0.365L74.203,70.301z
	 M45.517,72.414c0.165-0.264,0.322-0.578,0.477-0.869c0.124-0.234,0.445-0.684,0.395-0.975c-0.251-0.17-0.39,0-0.369-0.266
	l1.188-0.004c0.021,0.354-0.221-0.055-0.565,0.586c-0.14,0.26-0.287,0.516-0.421,0.768c-0.277,0.521-0.572,1.02-0.847,1.527
	c-0.253,0.469-0.599,1.207-0.96,1.418c-0.886,0.516-1.245-1.018-0.254-0.688c0.129,0.383-0.028,0.271-0.045,0.518
	c0.342,0.029,0.625-0.623,0.777-0.898c0.354-0.641,0.378-0.482,0.033-1.139c-0.2-0.383-0.401-0.756-0.578-1.123
	c-0.088-0.184-0.193-0.42-0.31-0.563c-0.208-0.254-0.454-0.154-0.435-0.402c0.228-0.014,1.338-0.045,1.469,0.021
	c-0.008,0.205-0.018,0.102-0.211,0.166c-0.377,0.127-0.042,0.613,0.084,0.852C45.067,71.576,45.396,72.281,45.517,72.414
	 M65.204,70.604c0.112-0.223,1.162-0.57,1.115,0.635c-0.24,0.111-0.825,0.121-1.206,0.307c-0.957,0.463-0.621,1.645,0.402,1.434
	c0.207-0.043,0.368-0.135,0.498-0.258c0.06-0.057,0.119-0.113,0.178-0.18c0.084-0.096,0.057-0.107,0.16-0.182
	c0.173,0.246,0.009,0.42,0.336,0.561c0.188,0.08,0.651,0.137,0.702-0.1c-0.096-0.076,0.028-0.006-0.096-0.041
	c-0.042-0.012-0.06-0.01-0.104-0.018c-0.195-0.037-0.25-0.08-0.292-0.404c-0.037-0.285-0.045-0.594-0.059-0.881
	c-0.031-0.662-0.022-1.098-0.674-1.238c-1.516-0.33-1.751,1.131-1.011,0.92C65.592,71.035,65.204,70.604,65.204,70.604
	 M66.328,71.506c0.172,0.756-0.706,1.441-1.088,1C64.752,71.941,65.81,71.305,66.328,71.506z M80.885,70.564
	c0.018,0.234,0.338,0.514,0.472,0.676c0.164-0.086,0.555-0.494,0.606-0.676c-0.13-0.217-0.197,0.025-0.166-0.266h0.905
	c0.077,0.32-0.208,0.016-0.653,0.521l-0.535,0.615l0.972,1.166c0.221,0.207,0.405,0.053,0.408,0.299
	c-0.288,0.053-1.052,0.035-1.375,0.014c0.005-0.293,0.16-0.072,0.243-0.254c0.055-0.121-0.175-0.338-0.268-0.451
	c-0.119-0.145-0.246-0.326-0.375-0.408c-0.188,0.148-0.247,0.275-0.395,0.43c-0.154,0.16-0.322,0.238-0.359,0.484
	c0.218,0.078,0.314-0.031,0.271,0.209L79.6,72.922c-0.03-0.328,0.188,0.014,0.728-0.574c0.228-0.248,0.436-0.473,0.659-0.715
	c-0.071-0.135-0.706-0.926-0.88-1.047c-0.216-0.15-0.372-0.037-0.352-0.277l1.347-0.01C81.121,70.572,81.065,70.375,80.885,70.564
	 M60.553,72.623c-0.097,0.145-0.452,0.291-0.669,0.342c-0.85,0.201-1.807-0.156-1.874-1.18c-0.048-0.725,0.287-1.133,0.699-1.381
	c0.495-0.297,1.28-0.281,1.628,0.117c0.153,0.176,0.262,0.566,0.037,0.756c-0.268,0.227-0.655-0.039-0.475-0.354
	c0.08-0.141,0.254-0.133,0.123-0.318c-0.057-0.08-0.25-0.148-0.362-0.164c-1.092-0.139-1.342,1.242-0.829,1.863
	c0.391,0.473,1.076,0.336,1.676,0.141L60.553,72.623z M47.796,70.645c0.045,0.107,0.295,0.324,0.057,0.506
	c-0.497,0.377-0.884-0.766,0.412-0.93c1.146-0.143,1.344,0.641,0.975,1.008c-0.159,0.16-0.262,0.162-0.407,0.229l-0.112,0.061
	c1.09,0.168,0.889,0.969,0.462,1.275c-0.505,0.363-1.542,0.219-1.88-0.17l0.084-0.162c0.4,0.102,1.107,0.453,1.467,0.004
	c0.156-0.195,0.148-0.535-0.027-0.686c-0.188-0.16-0.531-0.141-0.811-0.141c0.041-0.361,0.195-0.113,0.538-0.266
	c0.185-0.082,0.31-0.252,0.296-0.529C48.823,70.297,48.109,70.338,47.796,70.645 M39.526,70.299c0.06-0.164,0.025-0.166,0.239-0.178
	v1.051c-0.23-0.012-0.148,0.029-0.224-0.203c-0.037-0.115-0.087-0.207-0.161-0.275c-0.164-0.156-0.443-0.162-0.703-0.162
	c-0.3,0-0.248,0.104-0.248,0.389c0,0.34-0.037,1.385,0.082,1.633c0.163,0.336,0.439,0.053,0.416,0.359l-1.412,0.012
	c-0.04-0.482,0.413,0.387,0.413-1.25c0-0.289,0.034-0.84-0.103-1.047c-0.16-0.244-0.336-0.049-0.313-0.316L39.526,70.299z"/>
</svg>
