<?xml version="1.0" encoding="utf-8"?>
<!-- Generator: Adobe Illustrator 16.0.0, SVG Export Plug-In . SVG Version: 6.00 Build 0)  -->
<!DOCTYPE svg PUBLIC "-//W3C//DTD SVG 1.1//EN" "http://www.w3.org/Graphics/SVG/1.1/DTD/svg11.dtd">
<svg version="1.1" id="Слой_1" xmlns="http://www.w3.org/2000/svg" xmlns:xlink="http://www.w3.org/1999/xlink" x="0px" y="0px"
	 width="127.559px" height="85.039px" viewBox="0 0 127.559 85.039" enable-background="new 0 0 127.559 85.039"
	 xml:space="preserve">
<path fill="#979898" d="M69.783,52.659v-1.772h-1.38h-0.815h-1.632h-0.563h-1.632v7.711v1.238c1.069,0.196,2.026,0.506,3.011,0.844
	c0.957-0.395,1.971-0.676,3.012-0.844v-0.592v-2.363c-0.761,0.112-1.491,0.309-2.195,0.563v2.337
	c-0.281,0.084-0.563,0.196-0.844,0.31c-0.253-0.111-0.535-0.197-0.788-0.31v-4.054c0.28-0.168,0.563-0.281,0.872-0.422
	c0.254-0.113,0.395-0.113,0.479,0c0.028,0.112,0.141,0.141,0.227,0.112l0.983-0.169c0.085-0.027,0.143-0.141,0.113-0.225
	l-0.227-0.676c-0.027-0.084-0.111-0.142-0.196-0.113c-0.787,0.227-1.547,0.508-2.251,0.873v-3.603h1.632v1.716
	C68.321,52.996,69.052,52.8,69.783,52.659z M80.028,54.798v-3.911h-2.194v9.568h2.194v-5.038h0.957l0.957,5.038h2.167l-1.068-5.657
	h-0.901h-1.294h-0.141c0.338-0.845,0.76-1.659,1.237-2.42l0.731,0.731c0.112,0.111,0.253,0.111,0.366,0l0.983-0.984
	c0.085-0.085,0.085-0.254,0-0.338l-0.929-0.93c-0.028-0.027-0.028-0.027-0.056-0.057c-0.028-0.027-0.028-0.027-0.058-0.027
	c-0.28-0.197-0.535,0.027-0.788,0.281c-0.872,1.153-1.575,2.393-2.139,3.742L80.028,54.798L80.028,54.798z M62.608,60.455v-9.568
	h-2.194v5.656c-0.506-0.254-1.069-0.451-1.633-0.646v-5.01h-2.167v4.418c-0.027,0-0.027,0-0.027,0v0.592
	c1.351,0.252,2.646,0.674,3.827,1.267v3.293L62.608,60.455L62.608,60.455z M87.26,57.527c0.366-1.238,0.929-2.393,1.633-3.489v6.417
	h2.195v-9.568h-2.195v2.082c-0.646,0.93-1.183,1.914-1.633,2.928v-5.01h-2.194v9.568h2.194V57.527z M94.999,50.126
	c0.085,0.085,0.254,0.085,0.366,0l0.956-0.985c0.112-0.084,0.112-0.252,0-0.336l-0.956-0.986c-0.112-0.111-0.281-0.111-0.366,0
	l-0.984,0.986c-0.085,0.084-0.085,0.252,0,0.336L94.999,50.126z M55.572,59.836v-0.592v-2.42c-0.731,0.113-1.463,0.31-2.194,0.563
	v2.394c-0.253,0.084-0.535,0.196-0.816,0.31c-0.253-0.111-0.535-0.197-0.815-0.31v-4.054c0.281-0.168,0.591-0.281,0.873-0.422
	c0.281-0.113,0.422-0.113,0.506,0c0.027,0.112,0.141,0.141,0.226,0.112l0.957-0.169c0.113-0.027,0.142-0.141,0.113-0.225
	l-0.226-0.676c-0.027-0.084-0.112-0.142-0.196-0.113c-0.761,0.227-1.521,0.508-2.251,0.873v-3.603h1.661v1.716
	c0.73-0.226,1.463-0.422,2.194-0.563v-1.772h-1.379h-0.815h-1.661H51.21h-1.66v7.712v1.237c1.069,0.196,2.026,0.506,3.039,0.845
	C53.546,60.285,54.559,60.004,55.572,59.836z M94.296,57.527c0.365-1.238,0.929-2.393,1.632-3.489v6.417h2.195v-9.568h-2.195v2.082
	c-0.646,0.93-1.182,1.914-1.632,2.928v-5.01h-2.195v9.568h2.195V57.527z M77.044,52.659v-1.772h-1.379H74.85h-1.633h-0.563h-1.633
	v7.711v1.238c1.069,0.196,2.026,0.506,3.013,0.844c0.957-0.395,1.97-0.676,3.011-0.844v-0.592v-2.393
	c-0.76,0.112-1.491,0.311-2.194,0.563v2.364c-0.282,0.084-0.563,0.197-0.845,0.31c-0.253-0.112-0.535-0.196-0.788-0.31v-8.273h1.633
	v1.717C75.581,52.996,76.313,52.8,77.044,52.659z M39.249,59.779c-0.281,0.111-0.563,0.197-0.816,0.31
	c-0.282-0.112-0.563-0.226-0.845-0.31v-2.364c-0.704-0.253-1.436-0.422-2.167-0.534v2.363v0.592
	c1.013,0.168,2.025,0.449,2.982,0.844c0.985-0.338,1.942-0.646,3.012-0.844v-1.238v-7.711h-2.167v5.629
	c-0.535-0.254-1.099-0.479-1.661-0.647v-4.979H35.42v4.389c0,0,0,0-0.028,0v0.592c1.352,0.254,2.646,0.676,3.855,1.267v2.644H39.249
	z M30.553,55.417h0.957l0.957,5.038h2.167l-1.069-5.657h-0.9H31.37h-0.142c0.337-0.845,0.76-1.659,1.238-2.42l0.73,0.731
	c0.113,0.111,0.254,0.111,0.366,0l0.985-0.984c0.084-0.085,0.084-0.254,0-0.338l-0.929-0.93c-0.028-0.027-0.028-0.027-0.057-0.057
	c-0.027,0-0.027-0.027-0.057-0.027c-0.281-0.197-0.563,0.027-0.788,0.281c-0.872,1.153-1.576,2.393-2.139,3.742h-0.028v-3.911
	h-2.195v9.568h2.195L30.553,55.417L30.553,55.417z M44.681,51.506h1.632v8.949h2.195v-9.568h-0.056h-2.14h-1.632h-0.535h-1.632
	v9.568h2.167V51.506z M64.138,41.233c7.176,0,13.001-5.826,13.001-13.002c0-7.148-5.825-12.975-13.001-12.975
	c-7.147,0-12.974,5.826-12.974,12.975C51.165,35.407,56.99,41.233,64.138,41.233z M64.138,15.904
	c6.811,0,12.354,5.544,12.354,12.327c0,6.811-5.544,12.354-12.354,12.354c-6.782,0-12.327-5.544-12.327-12.354
	C51.812,21.448,57.356,15.904,64.138,15.904z M64.138,42.443c7.824,0,14.211-6.389,14.211-14.212
	c0-7.824-6.388-14.185-14.211-14.185s-14.184,6.36-14.184,14.185C49.954,36.055,56.315,42.443,64.138,42.443z M64.138,14.694
	c7.458,0,13.537,6.079,13.537,13.537c0,7.457-6.079,13.536-13.537,13.536s-13.537-6.079-13.537-13.536
	C50.602,20.773,56.68,14.694,64.138,14.694z M56.849,36.927c-0.337,0.028-0.506,0.45-0.479,0.647
	c0.62-0.112,1.126-0.141,1.436,0.366c0.281,0.816,0.957,1.013,1.632,1.182c0.197-0.365-0.253-0.731-0.535-0.929l0.816,0.169
	c0.141-0.084,0.225-0.338,0.169-0.507c-0.141-0.196-0.563-0.225-0.76-0.281l0.788-0.141c-0.058-0.45-0.084-0.45-0.226-0.563
	c-0.141-0.028-0.591-0.028-0.76,0.028c0.227-0.113,0.395-0.338,0.676-0.366c-0.338-0.366-0.507-0.338-1.126-0.112
	c-0.056-0.479-0.027-1.042-0.225-1.436l0.169-0.535c-0.197-0.056-0.506-0.112-0.844,0.057l-0.084-0.422l0.731-0.028l0.226,0.028
	c0.253-0.028,0.619-0.057,0.957-0.226c0.169,0.169,0.338,0.366,0.394,0.507c0.141,0.422,0,0.816-0.338,1.069l-0.394,0.45
	l0.619,0.226l0.45,0.422c0.366,0.422,0.45,0.9,0.9,1.153c-0.169,0.226-0.226,0.592-0.197,1.07c0.422-0.197,0.844-0.254,1.294-0.282
	c0.479,0.057,0.788,0.141,1.268,0.254c0.591,0.112,1.041,0.084,1.266-0.085c-0.057-0.422-0.395-0.534-1.098-0.534v-0.197
	c0.507-0.057,0.957,0.028,1.267,0.563l0.112-0.225c0.111-0.676-0.619-0.929-1.294-0.704l0.084-0.281
	c0.422-0.169,0.983,0.141,1.321,0.31c0.028-0.394-0.056-0.619-0.195-0.9c-0.424-0.028-0.846,0.057-1.183,0.395l-0.141-0.226
	c0.281-0.281,0.619-0.507,1.181-0.479c-0.141-0.281-0.225-0.281-0.394-0.366c-0.395-0.141-1.041,0.028-1.294,0.76L62.843,36.9
	c-0.197-0.169-0.394-0.451-0.563-0.676c0.873-0.676,1.268-1.436,1.154-2.562c-0.225-0.422-0.73-0.872-1.52-1.406
	c-0.676,0.534-1.099,0.844-1.802,1.294c1.042,0.028,1.042,1.069,0.563,1.745h-0.169c0.394-1.295-0.113-1.548-0.873-1.548
	l-0.084-0.141c1.042-0.704,2.28-1.548,2.758-2.224l0.226,0.169l-0.339,0.45c0.676,0.479,1.099,0.929,1.576,1.492
	c0.619,0.281,1.183,0.45,1.688,0.45l0.111,0.225c-0.984,0.845,0.535,1.351,0.93,1.942c0.169,0.253,0.45,0.45,0.479,0.815
	c-0.057,0.338,0,0.647,0.112,0.929c0.338-0.196,0.704-0.365,1.042-0.225c0.225-0.395,0.9-0.141,1.941-0.226
	c0.253,0.141,0.479,0.281,0.618,0.423c0.253-0.676-0.027-0.845-0.449-0.957l-0.028-0.226c0.31-0.225,0.591-0.253,0.816,0.085
	c0.394-1.042-0.311-1.548-1.154-0.535l-0.197-0.225c0.479-0.704,1.042-0.873,1.576-0.31c-0.056-0.929-0.591-0.929-1.436-0.423
	l-0.027-0.394c0.422-0.31,0.957-0.31,1.379-0.028c0.056-0.281-0.311-0.479-0.563-0.676c-0.646-0.027-1.068,0.141-1.237,0.619
	c-0.112,0.395-0.395,0.535-0.731,0.563l-0.112-0.281c-0.28-0.338-0.28-0.676-0.31-1.014l0.141-0.141
	c0.169,0,0.366,0.057,0.535-0.057c-0.112-0.196-0.057-0.422-0.057-0.646c0.084,0.225,0.197,0.422,0.338,0.563l0.196-0.112
	c-0.253-0.31-0.337-0.647-0.337-0.957c0.141,0.253,0.478,0.534,0.702,0.703l0.311-0.169c-0.366-0.112-0.507-0.506-0.619-0.872
	l0.028-0.084c0.196,0.394,0.449,0.703,0.815,0.788l0.142-0.197c-0.197-0.141-0.535-0.535-0.592-0.76l0.027-0.141
	c0.197,0.31,0.423,0.619,0.676,0.731v-0.112l0.227,0.281c0.787,0.534,1.351,0.506,1.801-0.085c0.197-0.084,0.366-0.112,0.534-0.141
	l0.282-0.422l0.084-0.479l0.141,0.31l-0.141,0.535l1.014-0.197L74.41,31.58l0.394-0.676l0.816-0.084l0.196,0.028
	c0.112-0.338-0.169-0.563-0.618-0.676l0.591,0.084c-0.112-0.619-0.647-0.929-1.238-0.563l-0.057-0.084
	c0.423-0.254,0.873-0.31,1.267,0.084l0.112-0.084c-0.084-0.395-0.395-0.845-0.787-0.929c-0.563,0.141-0.845,0.422-0.957,0.956
	l-0.254-0.168c0.085-0.507,0.338-0.816,0.788-1.014c-1.099-0.253-1.521,0.281-1.379,1.773l-0.45-0.085
	c-0.227-0.507-0.619-0.816-0.788-1.322c-0.479-1.576-1.491-2.843-2.983-3.236c-0.76-0.732-0.703-0.929-0.872-1.154l-0.28-0.028
	l0.169,0.676c0.394,0.535,0.76,0.957,1.351,1.463l0.76,0.788c0.479,0.451,0.563,1.238,0.592,1.857c0,0.507-0.085,1.126-0.254,1.548
	c-0.338,0.76-1.041,1.238-1.49,1.633l-0.619,1.126l-0.142-0.028l0.253-0.535l-0.169-0.253c0.619-0.646,0.647-1.745,0.197-2.955
	c-0.31-0.816-1.464-1.379-2.308-0.985c-0.535,0.31-0.873,0.76-1.154,1.352c-0.197,0.45-0.197,0.844-0.169,1.491
	c0.057,0.535,0.395,1.295,0.731,1.857h-0.226c-0.366-0.619-0.646-1.21-0.76-1.914c-0.085-0.731-0.057-1.52,0.45-2.336
	c0.169-0.281,0.479-0.478,0.76-0.646c0.338-0.197,0.731-0.282,1.21-0.254c0.31,0.085,0.619,0.169,0.9,0.366
	c0.703,0.507,1.098,1.491,1.126,3.067l0.365-0.169c0.311-0.281,0.592-0.534,0.761-0.9c0.422-1.52,0.28-2.477-0.338-3.124
	l-0.17,0.112c0.479,1.38,0.508,2.562-0.449,3.49l-0.084-0.366c0.844-0.647,0.619-1.632,0.364-2.646L69.4,27.695
	c-2.362,0.9-4.813,0.197-5.628-1.21l0.084-0.169c0.619,0.591,1.323,1.098,2.393,1.379c1.575,0.281,2.447,0.028,3.319-0.394
	l-0.984-1.069l-0.9-1.07l-0.026-0.956c-0.424-0.226-0.985-0.169-1.099-1.098l0.311-0.113l-0.085-0.112
	c-0.534-0.338-0.703-0.9-0.563-1.772c-0.253-0.085-0.366-0.282-0.479-0.507l0.196-0.169c0.506,0.535,0.872,0.366,1.268-0.197
	l0.309,0.113c0.197,0.168,0.788,0.168,0.957,0.056c0.028-0.169,0.057-0.281-0.112-0.506l-0.225-0.057v-0.197l0.309-0.057
	c0,0.311,0.311,0.592,0.282,0.901c0.112,0.056,0.365,0.084,0.395,0.056c0.057-0.31-0.226-0.591-0.197-0.872l0.226,0.084
	c0,0.282,0.226,0.479,0.197,0.816l0.168,0.085l-0.027,0.225c-0.254-0.112-0.731-0.057-0.929-0.225
	c-0.422,0.168-0.873,0.084-1.183-0.028c-0.311,0.365-0.479,0.45-0.731,0.45c-0.253,1.098-0.027,1.351,0.422,1.52
	c0.479-0.366,0.677-0.281,1.238-0.112l0.395,0.196v-0.112l0.226-0.112l-0.141,0.169l0.057,0.084l0.169,0.057l-0.028,0.169h-0.057
	h-0.141l-0.057-0.112l-0.45-0.169c-1.042-0.197-1.295,0.112-1.153,0.844c0.28,0.422,0.703,0.647,1.436,0.591
	c0.027,0.366,0.253,0.845,0.731,1.21c0.929,0.507,1.829,0.901,2.702,1.323c0.28,0.253,0.533,0.479,0.591,0.872
	c-0.058,0.197,0.141,0.338,0.225,0.535c0.676,0.394,1.521,0.253,1.998-0.366c0.535-0.844,0.226-1.829-0.675-2.251
	c-0.423,0.169-0.929,0.225-1.437,0.169v-0.113c0.592,0.057,0.985-0.056,1.268-0.169c0.872-0.337,0.563-1.351,0-1.913
	c-0.311-0.281-0.76-0.31-1.437-0.085l-0.027-0.253c0.196-0.112,0.479-0.057,0.676-0.084c-0.311-0.676-1.041-0.957-1.66-0.732
	c-0.338,0.169-0.254,0.535-0.057,0.788c0.253,0.254,0.141,0.619,0.027,0.788c-0.141,0.226-0.365,0.366-0.646,0.479h-0.479V24.01
	c0.227,0.084,0.45,0.112,0.788-0.226c0.281-0.619-0.057-0.844-0.394-0.9v-0.197c0.422-0.394,0.281-0.506,0.31-0.844
	c0.168,0.028,0.311,0,0.395-0.141c0.084-0.281,0.027-0.535-0.112-0.676c0-0.141-0.197-0.141-0.338-0.197
	c-0.227-0.225-0.507-0.141-0.872-0.027l-0.028-0.169c0.337-0.281,0.788-0.169,1.041,0l0.169-0.028
	c0.226-0.253,0.281-0.591,0.197-0.957c-0.169-0.703-0.788-0.731-1.323-0.281h-0.31c-0.226-0.226-0.647-0.281-1.098-0.169
	c-0.365-0.31-0.984-0.253-1.575,0.028c-0.732-0.169-1.211,0-1.576,0.169c0.506-0.704,0.479-1.407-0.141-1.829
	c-0.762-0.563-1.38-0.507-1.745,0.027c-2.309-1.041-5.883-0.394-5.91,2.364c-1.295-1.098-3.124,0.704-1.604,1.829
	c-2.702,0.957-3.264,2.674-2.897,4.729c-0.873,0.056-0.985,1.041-0.563,1.548c0.619,0.788,1.437,0.365,1.521-0.281
	c0.535,0.112,0.731-0.395,0.704-1.267c0.225,0.281,0.534,0.479,0.929,0.338c-0.704,0.506-1.323,1.125-1.773,1.97
	c-0.449,0.844-1.068,3.799,1.352,5.178l0.056,0.113l-0.253,0.337c-0.084,0.085-0.084,0.197,0,0.226
	c0.395,0.169,0.647,0.366,0.929,0.619C56.202,35.857,56.512,36.421,56.849,36.927z M67.993,31.552h-0.112
	c0.057-1.182-0.395-1.632-0.929-1.632c-0.197-0.028-0.395,0.141-0.592,0.365l-0.226-0.028c0.085-0.281,0.366-0.619,0.676-0.646
	c0.507-0.028,0.845,0.31,1.014,0.619C68.022,30.68,68.078,31.102,67.993,31.552z M65.264,31.861c-0.112-0.703,0-1.379,0.338-2.026
	c0.142-0.281,0.647-0.76,1.014-0.9c1.014-0.338,2.11,1.21,1.997,1.998l-0.364,0.028c0.027-1.154-0.761-1.717-1.521-1.633
	c-0.479,0.057-0.845,0.647-1.014,1.098c-0.141,0.395-0.057,0.732-0.084,1.183c0.027,0.112-0.057,0.253,0,0.365
	c0.76,0,1.21,0.282,1.97,0.254v0.225c-0.619,0.028-1.098-0.253-1.717-0.112l0.563,0.676c0.17,0.506,0.142,0.984,0.197,1.491
	l0.085,0.084c0.027-0.563,0.112-1.153,0.057-1.744h0.057c0.112,0.591,0.197,1.153,0.169,1.744h0.056
	c0.085-0.563,0.169-1.097,0.143-1.688h0.056c0.028,0.592,0.028,1.183-0.028,1.745l0.142,0.057c0.197-0.563,0.254-1.098,0.338-1.66
	l0.057,0.027c-0.085,0.646-0.057,1.352-0.226,1.971l-0.311-0.085c-0.111-0.141-0.563-0.197-0.844-0.225
	c-0.057-0.479-0.057-0.929-0.226-1.464C65.771,32.931,65.517,32.424,65.264,31.861z M68.95,22.236h-0.112L68.81,22.04l-0.422,0.141
	l-0.366-0.113l-0.141-0.112v-0.112l0.169-0.169l0.31-0.028l0.058-0.056l0.168-0.028c0.027,0.056,0,0.169-0.057,0.225h-0.111
	l-0.113-0.056h-0.168l0.027,0.169c0.196,0.168,0.422,0.168,0.646-0.028v-0.226l0.085-0.084l-0.027-0.169l-0.169,0.028l-0.028,0.056
	h-0.676l-0.169,0.113h-0.281v-0.085l0.338-0.197l0.9-0.028v-0.084l0.112-0.028l0.196,0.338l-0.056,0.141
	C68.979,21.814,68.95,22.012,68.95,22.236z M73.172,24.798l0.225-0.197c0.169-0.141-0.141-0.563-0.394-0.872l0.141-0.226
	c0.281,0.057,0.619,0.563,0.619,1.041c-0.112,0.338-0.703,0.704-1.069,0.647l-0.449-0.056l-0.058-0.226
	C72.441,24.967,72.863,25.022,73.172,24.798z M70.358,23.784c-0.196-0.027-0.338-0.056-0.449-0.253l-0.227,0.112l-0.253,0.028
	l0.028,0.169l0.027,0.112c0.196,0.422,0.311,0.647,0.563,0.788c0.646,0.338,1.154,0.197,1.604-0.225
	c0.534-0.704,0.619-1.211,0.084-1.717l0.255,0.056c0.591,0.535,0.394,1.379-0.058,1.745c-0.226,0.253-0.535,0.338-0.845,0.479
	l-0.027,0.141c0.591,0.45,1.971,0.816,2.786,1.437c0.141,0.197,0.196,0.507,0.084,0.675c-0.084,0.169-0.422,0.254-0.563,0.057
	c-0.142-0.197,0.056-0.591-0.227-0.9c-0.957-0.507-1.886-0.788-3.039-1.379c-0.226-0.112-0.423-0.254-0.535-0.45
	c-0.196-0.31-0.449-0.619-0.563-0.985c-0.227-0.028-0.311-0.112-0.507-0.225c-0.197,0.084-0.45,0.112-0.647,0.084
	c-0.196-0.028-0.225-0.479-0.056-0.563c0.169-0.028,0.422,0.027,0.675,0.169l0.31,0.225h0.281l0.143-0.281l0.141,0.31l0.253,0.057
	c0.253-0.254,0.197-0.282,0.366-0.282c0.253,0.028,0.478,0.113,0.534,0.254C70.583,23.56,70.442,23.672,70.358,23.784z
	 M69.767,21.279l0.872,0.085l0.281,0.169v0.057h-0.196l-0.169-0.113h-0.676l-0.028-0.056l-0.196-0.028v0.169l0.084,0.084
	l-0.027,0.226c0.226,0.196,0.45,0.196,0.676,0.028v-0.17h-0.141l-0.112,0.056H70.02c-0.084-0.056-0.111-0.169-0.084-0.225
	l0.197,0.028h0.056h0.366l0.056,0.31l-0.111,0.225l-0.365,0.057l-0.169,0.141l0.056,0.141l0.113,0.225l-0.338,0.254h-0.113h-0.169
	l-0.141-0.085l0.057-0.141l0.112-0.028l0.027-0.084l0.142,0.169l0.226-0.112l-0.254-0.254l-0.112-0.169
	c0-0.225,0.028-0.422-0.027-0.591l-0.028-0.479h0.169L69.767,21.279z M62.619,29.92c-0.226,0.675-0.985,1.52-1.464,1.998
	l-1.237,1.069c-0.084,0.028-0.226-0.085-0.197-0.141c1.013-0.788,1.801-1.604,2.392-2.617c0.395-0.845,0.282-1.998-0.28-3.49
	c-0.422-0.844-0.816-1.632-1.688-2.477c-0.366-0.422-0.76-0.957-1.153-1.125c-0.563-0.338-0.985-0.451-1.576-0.366
	c-0.395,0.057-0.647,0.253-0.704,0.563c-0.028,0.169,0.027,0.31,0.113,0.507c0.111,0.253,0.506,0.169,0.563,0.253
	c0.057,0.057,0.028,0.254,0,0.31c-0.366,0.113-0.704,0.028-0.844-0.225c-0.112-0.226-0.281-0.76-0.142-1.069
	c0.113-0.281,0.395-0.507,0.647-0.619c0.506-0.226,1.125-0.141,1.885,0.196l0.113,0.085c0.028-0.845,0.084-1.576,0.394-1.97
	c0.253-0.31,0.9-0.563,1.21-0.45c0.704,0.225,0.957,0.872,0.732,1.575c-0.169,0.282-0.395,0.366-0.563,0.338
	c-0.169-0.028-0.31-0.225-0.28-0.45c0-0.141,0.084-0.225,0.196-0.225h0.197c0.085-0.028,0.113-0.113,0.113-0.197
	c0.027-0.366-0.142-0.563-0.422-0.731c-0.142-0.028-0.338-0.028-0.479,0c-0.197,0.056-0.31,0.168-0.479,0.31
	c-0.226,0.422-0.422,0.815-0.338,1.322c-0.028,0.45,0.479,1.098,1.436,2.11l0.844,1.069c0.45,0.845,0.845,1.689,1.041,2.814
	C62.731,28.822,62.731,29.441,62.619,29.92z M57.384,25.22c0.646-0.225,0.957-0.45,0.816-1.182
	c-0.084-0.281-0.339-0.423-0.957-0.563c-0.084-0.027-0.084-0.141,0.027-0.196c0.479-0.31,0.957-0.141,1.521,0.169
	c0.646,0.506,1.379,1.52,2.167,3.123c-1.183-0.394-2.562-0.422-4.054-0.225C57.272,26.064,57.441,25.698,57.384,25.22z
	 M65.461,20.407l-0.591-0.056c-0.169,0.027-0.282,0.141-0.282,0.337l0.057,0.423c-0.226,0.168-0.591,0.394-0.591,0.619
	c0.534-0.141,0.872-0.254,1.379-0.282c0-0.056,0.028-0.084,0.028-0.169c-0.227,0-0.311-0.141-0.507-0.281l0.141-0.141
	c0.226,0.141,0.366,0.281,0.619,0.31c-0.028,0.619,0.112,1.069,0.281,1.407c0.141,0.197,0.281,0.366,0.449,0.479l-0.168,0.169
	l-0.31-0.31c-0.113,0.253-0.169,0.479,0,0.731c0.45,0.591,0.872,1.014,1.491,1.126l-0.058,0.226
	c-0.703-0.169-1.267-0.732-1.771-1.323c-0.085-0.31-0.028-0.703,0.141-0.9l-0.027-0.112c-0.17,0.169-0.366,0.365-0.563,0.45
	c-0.169,0.084-0.169,0.394-0.113,0.591l-0.169-0.112c-0.056-0.254-0.084-0.647,0.085-0.76c0.365-0.142,0.507-0.254,0.591-0.451
	c-0.057-0.225-0.027-0.365-0.027-0.675c-0.647,0.028-1.126,0.084-1.604,0.281c-0.619,0.366-0.929,0.591-0.957,1.238
	c0.93-0.338,1.126-1.322,2.363-1.126v0.226c-1.237-0.226-1.435,0.929-2.392,1.267c-0.084,0.31,0,0.534,0.084,0.956
	c0.535-0.169,0.957-1.238,1.435-1.435l0.028,0.112c-0.675,0.507-0.788,1.379-1.463,1.436c-0.281,0.591-0.169,1.098,0,1.491
	c0.676-0.281,1.069-1.041,1.604-1.941c0.142-0.197,0.45-0.254,0.563-0.057c0.563,0.731,1.322,1.069,2.194,1.013l-0.027,0.226
	c-0.93,0-1.688-0.366-2.363-0.957c-0.085-0.057-0.254,0-0.338,0.197c-0.142,0.45-0.254,0.591-0.45,0.844
	c0.141,0.169,0.056,0.423,0.253,0.507c0.197,0.112,0.563-0.141,0.76,0c0.197,0.169,0.085,0.619,0.311,0.731
	c0.281,0.113,0.507-0.365,0.788-0.31c0.253,0.028,0.31,0.479,0.563,0.535c0.197,0.057,0.312-0.281,0.507-0.281
	c0.255,0,0.396,0.338,0.647,0.338c0.169,0,0.226-0.31,0.422-0.338c0.112-0.028,0.197,0.084,0.338,0.112l0.197,0.226
	c-0.112-0.028-0.366-0.113-0.507-0.085c-0.197,0.057-0.311,0.31-0.479,0.31c-0.253,0.028-0.422-0.253-0.675-0.253
	c-0.197,0-0.366,0.31-0.563,0.253c-0.254-0.028-0.311-0.45-0.563-0.479c-0.281-0.056-0.563,0.366-0.845,0.254
	c-0.253-0.113-0.142-0.592-0.365-0.76c-0.197-0.142-0.507,0.084-0.732,0c-0.196-0.113-0.168-0.31-0.31-0.479
	c-0.225,0.31-0.506,0.534-0.844,0.703c0.338,1.267,0.563,2.562,0.281,3.687l0.084,0.281c0.311,0.31,0.508,0.395,0.901,0.563v0.338
	c-0.646-0.282-1.267-0.704-1.407-1.042c0.253-1.125,0.253-2.223-0.027-3.377c-0.592-1.153-0.788-2.392-2.195-3.377l-0.675-0.619
	c-0.282-0.394-0.479-0.788-0.395-1.238c0.028-0.253,0.226-0.422,0.422-0.563c0.17-0.113,0.395,0.056,0.17,0.225
	c-0.197,0.169-0.254,0.31-0.311,0.507c-0.056,0.281,0.084,0.534,0.506,0.929c0.45,0.141,0.816,0.225,1.183-0.085
	c0.534-0.31,0.534-0.9,0.449-1.688c-0.253-1.041-1.041-1.21-2.025-1.125l0.506-0.282c0.873,0,1.632,0.395,1.829,1.238
	c0.113,0.423,0.084,1.07,0.027,1.267c0.479,0.281,0.845,0.085,1.268-0.281c0.478-0.929,0.394-1.688-0.253-2.42l0.027-0.057
	c0.62,0.366,1.295,0.45,1.914,0.253C65.18,19.816,65.264,20.21,65.461,20.407z M59.551,18.24c0.788-0.479,1.801-0.647,2.758-0.534
	c0.704,0.084,1.099,0.646,2.026,0.619c0.226,0,0.141-0.226,0.169-0.31c0.084-0.113,0.281-0.141,0.394-0.028
	c0.169,0.253,0.113,0.479-0.225,0.675c-0.338,0.085-0.704,0.057-1.041,0c-0.169,0.395-0.338,0.704-0.591,0.788l-0.197-0.141
	c0.337-0.169,0.535-0.45,0.563-0.788c-0.197-0.141-0.254-0.196-0.479-0.253c0.112,0.281-0.084,0.676-0.338,1.013l-0.225-0.056
	c0.253-0.366,0.338-0.788,0.196-1.098c-0.337-0.141-0.563-0.197-0.957-0.141c0.675,0.365,0.619,0.816,0.395,1.294h-0.197
	c0.141-0.479-0.028-0.929-0.619-1.294c-0.337,0-0.506,0.084-0.788,0.141c0.591,0.338,0.873,0.676,0.76,1.267H60.93
	c0.113-0.507-0.112-0.732-0.816-1.098l-0.365,0.169c-0.957,0.815-1.294,1.829-1.323,2.927l-0.169-0.169
	C58.313,20.295,58.482,19.169,59.551,18.24z M56.484,20.407c0.676-0.394,1.099-0.169,1.294,0.76
	C56.765,21.336,56.315,21.111,56.484,20.407z M55.752,25.811c-0.479-0.45-0.676-1.322-0.479-2.251l0.028-0.197
	c-0.45,0.507-0.647,1.323-0.31,1.941c0.112,0.197,0.281,0.451,0.534,0.592c0.338,0.112,0.311,0.534-0.168,0.365
	c-0.112-0.084-0.169-0.112-0.253-0.225c-0.169-0.169-0.28-0.338-0.422-0.535c-0.394-0.815-0.253-1.66,0.844-2.786
	c-0.28,0.113-0.449,0.254-0.675,0.45c-0.815,0.704-0.815,1.492-0.76,2.026l0.113,1.407c-0.085,0.591-0.311,1.041-0.62,1.183
	c-0.281,0.056-0.535-0.142-0.422-0.423c0.141-0.31,0.394-0.31,0.619-0.338c0.141-0.31,0-0.731-0.028-1.351
	c0-0.31-0.142-0.731,0.028-1.322c0.479-1.183,1.322-1.717,2.083-2.083c0.731-0.338,1.575-0.365,2.392-0.253l-0.113,0.112
	c-0.703,0-1.407-0.057-1.94,0.395c-0.142,0.844-0.169,1.772,0.449,2.392c0.142,0.31-0.027,0.507-0.365,0.253
	c-0.253-0.337-0.451-0.815-0.479-1.548c0-0.253,0.112-0.703,0.112-1.013l-0.028-0.028c-0.507,0.845-0.619,1.97,0.112,2.871
	C56.202,25.698,55.977,26.008,55.752,25.811z M55.161,30.933c-0.197-1.126,0.338-2.477,0.9-3.236
	c0.703-0.76,1.773-0.731,2.898-0.676c0.844,0.028,1.688,0.142,2.533,0.45c0.563,1.098,0.479,1.604,0.084,2.73
	c-0.169,0.338-0.592,0.929-0.93,1.322c-0.31,0.366-0.873,0.873-1.406,1.21L58.651,33.1l-0.169-0.169l0.788-0.563
	c0.366-0.197,0.873-0.76,1.154-1.014c0.366-0.45,0.675-0.844,0.9-1.351c0.338-0.788,0.394-1.632-0.084-2.336
	c-1.238-0.365-2.309-0.534-3.547-0.394c-0.872,0.196-1.237,0.31-1.688,1.153c-0.395,0.676-0.76,1.492-0.619,2.393
	c0.169,0.76,0.619,1.267,0.985,1.463c0.253,0.141,0.535,0.141,0.788,0.141c0.507-0.084,0.984-0.253,1.436-0.675
	c0.366-0.619,0.535-1.183,0.506-1.604c-0.111-0.76-0.422-1.21-0.957-1.379c-0.45-0.084-0.844-0.112-1.379,0.197
	c-0.281,0.169-0.563,0.534-0.591,0.816c-0.056,0.281-0.141,0.956,0.197,1.294c0.338,0.338,0.844,0.646,1.295,0.507
	c0.646-0.226,0.844-0.788,0.788-1.407c-0.058-0.281-0.142-0.591-0.422-0.76c-0.254-0.197-0.788,0-0.985,0.225
	c-0.197,0.197-0.338,0.423-0.141,0.816c0.226,0.226,0.479,0.338,0.76,0.197l0.141-0.31l0.142-0.169l0.141,0.112
	c0.113,0.254-0.028,0.507-0.337,0.732c-0.422,0.112-1.014,0-1.21-0.479c-0.057-0.338-0.084-0.619,0.027-0.816
	c0.311-0.535,0.704-0.647,1.154-0.676c0.226,0,0.647,0.197,0.816,0.423c0.507,1.21-0.253,2.194-0.788,2.363
	c-0.676,0.197-2.195-0.253-1.886-1.941c0.169-0.676,0.534-1.238,1.041-1.436c0.646-0.225,1.21-0.169,1.604,0.028
	c0.338,0.169,0.704,0.619,0.844,1.182c0.028,0.423,0.028,0.929-0.112,1.436c-0.169,0.647-0.761,1.379-1.745,1.548
	c-0.338,0.057-0.985,0.084-1.352-0.197C55.696,32.115,55.274,31.523,55.161,30.933z M64.983,45.736h1.21v0.449h-1.21V45.736z
	 M63.013,47.229c0.028,0,0.056,0.027,0.084,0.027h0.028c0.31,0,0.507-0.057,0.676-0.169c0.141-0.112,0.253-0.253,0.31-0.394
	c0.028-0.058,0.057-0.113,0.057-0.197c0.027-0.057,0.027-0.113,0.027-0.169H63.66h-0.028c-0.028,0.028-0.028,0.056-0.028,0.085
	c0,0.027-0.027,0.056-0.027,0.111c-0.028,0.057-0.084,0.112-0.142,0.17c-0.084,0.056-0.169,0.084-0.281,0.084
	c-0.169,0-0.281-0.028-0.365-0.113c-0.057-0.084-0.112-0.168-0.168-0.281c0-0.084-0.028-0.168-0.028-0.225
	c0-0.084-0.028-0.113-0.028-0.141c0-0.254,0.058-0.451,0.142-0.593c0.084-0.141,0.225-0.225,0.422-0.225
	c0.113,0,0.197,0.028,0.282,0.057c0.056,0.058,0.111,0.112,0.141,0.168c0.028,0.029,0.028,0.058,0.028,0.085
	c0.027,0.057,0.027,0.086,0.027,0.086h0.535h0.028c0-0.029,0-0.086,0-0.171c-0.028-0.056-0.057-0.11-0.084-0.168
	c-0.058-0.141-0.169-0.254-0.311-0.366c-0.141-0.111-0.365-0.141-0.676-0.141h-0.028c-0.394,0-0.675,0.111-0.844,0.338
	c-0.197,0.253-0.282,0.563-0.282,0.93c0,0.449,0.113,0.76,0.311,0.928c0.197,0.17,0.422,0.254,0.676,0.281
	C62.956,47.229,62.985,47.229,63.013,47.229z M68.135,47.229c0.422,0,0.731-0.112,0.9-0.367c0.195-0.252,0.28-0.563,0.28-0.871
	c0-0.338-0.085-0.619-0.28-0.872c-0.169-0.254-0.479-0.396-0.9-0.396h-0.057c-0.422,0-0.731,0.142-0.9,0.396
	c-0.197,0.253-0.282,0.534-0.282,0.872c0,0.31,0.085,0.619,0.282,0.871c0.169,0.255,0.479,0.367,0.9,0.367H68.135z M67.572,46.299
	c-0.027-0.057-0.027-0.111-0.027-0.169c0-0.056,0-0.112,0-0.141c0-0.253,0.027-0.423,0.085-0.534
	c0.084-0.085,0.141-0.17,0.253-0.197c0.028-0.027,0.085-0.057,0.112-0.057c0.057,0,0.085,0,0.112,0c0.028,0,0.057,0,0.112,0
	c0.028,0,0.084,0.027,0.112,0.027c0.085,0.057,0.169,0.112,0.253,0.227c0.057,0.111,0.112,0.281,0.112,0.534
	c0,0.028-0.027,0.085-0.027,0.141c0,0.085,0,0.169-0.028,0.226c-0.028,0.112-0.084,0.197-0.169,0.281
	c-0.084,0.084-0.196,0.141-0.365,0.141s-0.31-0.057-0.395-0.168C67.628,46.523,67.6,46.412,67.572,46.299z M73.735,45.258v-0.451
	h-1.886h-0.027v2.365h1.913h0.028v-0.451h-1.351v-0.533h1.153v-0.451h-1.153v-0.479H73.735z M61.69,45.258v-0.451h-1.886h-0.028
	v2.365h1.914h0.028v-0.451h-1.351v-0.533h1.153v-0.451h-1.153v-0.479H61.69z M76.211,47.172h0.027v-2.365h-1.771h-0.028v1.127
	c0,0.196-0.027,0.395-0.085,0.534c-0.056,0.169-0.169,0.253-0.365,0.253H73.96c-0.028,0-0.028,0-0.058,0h-0.027v0.451
	c0.057,0,0.085,0,0.112,0s0.057,0,0.112,0h0.028c0.281,0,0.45-0.057,0.591-0.197c0.112-0.141,0.197-0.281,0.225-0.422
	c0.028-0.085,0.028-0.17,0.028-0.254S75,46.158,75,46.074v-0.816h0.646v1.914H76.211z M57.3,44.807h-0.028v2.365h0.563h0.027v-1.014
	h0.816v1.014h0.563h0.028v-2.365h-0.535h-0.056v0.873h-0.816v-0.873H57.3z M77.337,45.65v-0.844h-0.563h-0.027v2.364h1.125H77.9
	c0.254,0,0.479-0.057,0.619-0.17c0.169-0.112,0.254-0.28,0.254-0.563c0-0.057-0.027-0.084-0.027-0.141c0-0.027,0-0.084-0.028-0.111
	c-0.028-0.143-0.112-0.254-0.226-0.367c-0.112-0.111-0.31-0.168-0.563-0.168H77.337L77.337,45.65z M78.125,46.412
	c0,0.111-0.028,0.195-0.085,0.225c-0.084,0.057-0.169,0.084-0.281,0.084h-0.422V46.13h0.422c0.112,0,0.197,0,0.281,0.058
	C78.097,46.215,78.125,46.299,78.125,46.412z M70.78,47.172h0.028v-1.914h0.731v-0.451h-1.998h-0.028v0.451h0.704v1.914H70.78z
	 M56.118,46.693c-0.057,0.056-0.169,0.111-0.366,0.111c-0.028,0-0.058,0-0.084,0c-0.058-0.027-0.084-0.027-0.113-0.027
	c-0.084-0.028-0.169-0.058-0.225-0.142c-0.057-0.057-0.113-0.141-0.113-0.28h-0.535h-0.028c0,0.28,0.084,0.506,0.226,0.619
	c0.141,0.111,0.31,0.196,0.479,0.225c0.057,0,0.142,0.027,0.197,0.027s0.113,0,0.169,0h0.028c0.056,0,0.111,0,0.168,0
	c0.056,0,0.113-0.027,0.169-0.027c0.197-0.027,0.366-0.084,0.535-0.168c0.141-0.113,0.225-0.254,0.225-0.508
	c0-0.168-0.028-0.281-0.112-0.395s-0.225-0.169-0.394-0.195c0-0.029,0.028-0.029,0.028-0.029c0.027,0,0.057,0,0.057,0
	c0.084-0.027,0.169-0.084,0.253-0.168c0.057-0.086,0.113-0.197,0.113-0.338c0-0.028-0.028-0.084-0.028-0.113
	c0-0.057-0.028-0.111-0.028-0.141c-0.057-0.112-0.141-0.196-0.281-0.281c-0.142-0.084-0.366-0.112-0.676-0.112h-0.027
	c-0.311,0-0.563,0.056-0.76,0.197c-0.168,0.112-0.253,0.337-0.281,0.618h0.563h0.028c0-0.111,0.028-0.226,0.084-0.281
	c0.056-0.027,0.113-0.084,0.197-0.084c0.027,0,0.027-0.027,0.056-0.027s0.056,0,0.084,0c0,0,0.028,0,0.084,0
	c0.028,0,0.084,0.027,0.112,0.027c0.056,0.027,0.113,0.057,0.169,0.084c0.028,0.057,0.056,0.113,0.056,0.197
	s-0.027,0.141-0.056,0.168c-0.056,0.058-0.113,0.058-0.169,0.086c-0.028,0-0.057,0-0.084,0c-0.028,0-0.057,0-0.084,0h-0.253v0.449
	h0.337c0,0,0.027,0,0.057,0c0.057,0,0.084,0,0.112,0c0.057,0.028,0.113,0.057,0.141,0.084c0.058,0.058,0.084,0.112,0.084,0.197
	c0,0,0,0,0,0.028C56.23,46.553,56.202,46.637,56.118,46.693z M50.911,47.172c0.28,0,0.479-0.057,0.591-0.141
	c0.141-0.113,0.226-0.197,0.253-0.312c0.028-0.057,0.028-0.112,0.028-0.141c0.027-0.058,0.027-0.084,0.027-0.112
	c0-0.056,0-0.111-0.027-0.141c0-0.057,0-0.112-0.028-0.169c-0.028-0.113-0.112-0.226-0.253-0.31
	c-0.112-0.113-0.311-0.142-0.591-0.142h-0.563v-0.45h1.295v-0.451h-1.856h-0.028v2.365h1.125h0.028V47.172z M50.348,46.721V46.13
	h0.451c0,0,0.028,0,0.056,0c0.057,0,0.084,0,0.113,0.028c0.056,0,0.112,0.027,0.141,0.084c0.057,0.027,0.084,0.113,0.084,0.197
	c0,0.112-0.056,0.196-0.141,0.254c-0.084,0.026-0.169,0.026-0.281,0.026L50.348,46.721L50.348,46.721z M54.26,47.172h0.028v-2.365
	h-0.563h-0.027l-0.93,1.465v-1.465h-0.563h-0.028v2.365h0.563h0.027l0.93-1.492v1.492H54.26z M47.985,46.523
	c0.057,0.057,0.112,0.057,0.169,0l0.479-0.479c0.056-0.056,0.056-0.142,0-0.168l-0.479-0.507c-0.057-0.028-0.112-0.028-0.169,0
	l-0.479,0.507c-0.056,0.026-0.056,0.112,0,0.168L47.985,46.523z M80.123,46.523c0.057,0.057,0.141,0.057,0.196,0l0.479-0.479
	c0.056-0.056,0.056-0.142,0-0.168l-0.479-0.507c-0.057-0.028-0.141-0.028-0.196,0l-0.479,0.507c-0.057,0.026-0.057,0.112,0,0.168
	L80.123,46.523z M63.548,69.686c-0.395-0.787-0.76-1.744-1.042-3.012h-0.535c0.31,1.182,0.732,2.168,1.294,3.012H63.548z
	 M64.814,68.7l-0.646-0.112l0.704-0.027c0.026-0.057,0.026-0.112,0.056-0.17L64.28,68.25h0.704c0.028-0.057,0.057-0.141,0.084-0.197
	l-0.675-0.141h0.703c0.028-0.084,0.057-0.168,0.057-0.225l-0.676-0.142h0.731c0-0.085,0.027-0.141,0.057-0.196l-0.703-0.142h0.731
	c0-0.058,0.027-0.112,0.027-0.197l-0.703-0.112l0.73-0.027c0-0.057,0.028-0.113,0.028-0.197h-2.701
	c0.028,0.084,0.028,0.141,0.056,0.197l0.704,0.027l-0.675,0.112c0,0.085,0,0.142,0.028,0.197h0.731l-0.704,0.142
	c0.028,0.057,0.028,0.111,0.057,0.196h0.704L62.9,67.688c0.028,0.058,0.057,0.142,0.057,0.226h0.731l-0.675,0.142
	c0.028,0.057,0.056,0.141,0.084,0.196h0.676l-0.646,0.142c0.027,0.057,0.056,0.112,0.084,0.168l0.704,0.028L63.266,68.7
	c0.028,0.057,0.058,0.112,0.084,0.196h0.675h0.703C64.757,68.813,64.785,68.757,64.814,68.7z M68.05,66.141h-0.141l-0.197-0.086
	l-0.338,0.028l-0.142-0.226h-0.111l-0.366,0.197l-0.196-0.027l-0.338,0.111l-0.281-0.084h-0.365l-0.112-0.197h-0.169l-0.281,0.17
	l-0.31,0.027l-0.338,0.057l-0.226-0.028h-0.337l-0.141-0.226h-0.112l-0.338,0.17l-0.226,0.027l-0.449,0.057l-0.197-0.057
	l-0.311,0.027l-0.141-0.227h-0.141l-0.366,0.197h-0.225l-0.366,0.086l-0.226-0.086l-0.337,0.028l-0.112-0.142
	c-0.284,0.188-0.09,0.619,0.225,0.619h7.373C67.952,66.563,68.05,66.345,68.05,66.141z M64.588,69.18
	c0.028-0.057,0.057-0.113,0.085-0.17l-0.647-0.111l-0.618,0.111c0.027,0.057,0.027,0.113,0.056,0.17h0.563H64.588z M63.744,69.686
	h0.591c0.027-0.027,0.027-0.057,0.057-0.084l-0.366-0.084l-0.337,0.084C63.688,69.629,63.717,69.657,63.744,69.686z M66.109,66.674
	h-0.534c-0.281,1.268-0.647,2.225-1.041,3.012h0.28C65.348,68.842,65.799,67.855,66.109,66.674z M67.656,66.674h-1.379
	c-0.395,1.268-0.845,2.225-1.322,3.012h0.815c0.028,0,0.028,0.027,0.057,0.027c0.057-0.027,0.085-0.084,0.112-0.111l-0.646-0.141
	h0.788c0.027-0.057,0.084-0.085,0.111-0.143l-0.591-0.111h0.703c0.057-0.057,0.085-0.113,0.141-0.197l-0.646-0.111h0.73
	c0.057-0.057,0.084-0.112,0.112-0.17l-0.619-0.141h0.704c0.057-0.057,0.084-0.141,0.142-0.197l-0.677-0.141h0.731
	c0.057-0.057,0.085-0.111,0.113-0.169l-0.704-0.142h0.76c0.028-0.056,0.057-0.111,0.085-0.168l-0.647-0.112l0.731-0.028
	c0.028-0.057,0.028-0.111,0.057-0.169l-0.676-0.141h0.76c0.028-0.056,0.028-0.112,0.058-0.169l-0.676-0.168h0.76
	C67.572,66.898,67.6,66.787,67.656,66.674z M64.532,69.318l-0.508-0.111l-0.478,0.111c0.028,0.058,0.056,0.113,0.084,0.17
	l0.394,0.027l0.422-0.027C64.476,69.432,64.504,69.376,64.532,69.318z M62.197,69.713c0.028,0,0.057-0.027,0.084-0.027h0.845
	c-0.479-0.787-0.93-1.744-1.352-3.012h-1.379c0.028,0.113,0.084,0.227,0.113,0.311h0.788l-0.732,0.168
	c0.028,0.058,0.058,0.113,0.084,0.17h0.788l-0.731,0.169c0.027,0.028,0.057,0.084,0.084,0.141l0.76,0.028l-0.704,0.111
	c0.028,0.058,0.056,0.113,0.084,0.17h0.788l-0.703,0.141c0.028,0.057,0.056,0.111,0.084,0.169h0.76l-0.675,0.142
	c0.028,0.084,0.084,0.141,0.113,0.196h0.73l-0.646,0.142c0.056,0.057,0.084,0.112,0.112,0.168h0.76l-0.647,0.142
	c0.028,0.056,0.084,0.112,0.142,0.169h0.731L61.83,69.32c0.056,0.058,0.084,0.113,0.141,0.143h0.788l-0.675,0.141
	C62.14,69.629,62.168,69.686,62.197,69.713z M63.435,71.796c-0.027,0.028-0.027,0.028-0.027,0.058c0,0.195,0.28,0.365,0.618,0.365
	s0.592-0.17,0.592-0.365c0-0.028,0-0.028,0-0.058c-0.197,0.058-0.395,0.085-0.592,0.085C63.801,71.881,63.604,71.854,63.435,71.796z
	 M76.661,67.32c0.214,0.041,0.415,0.121,0.563,0.283c0-0.812-1.294-0.494-1.802-0.367c0.515-0.151,1.035-0.276,1.576-0.226
	c-0.243-0.485-1.608,0.03-1.998,0.142c0.535-0.199,1.088-0.418,1.66-0.479c-0.478-0.478-1.445,0.19-1.941,0.396
	c0.445-0.256,0.899-0.514,1.407-0.619c-1.114-0.188-2.293,0.915-3.152,1.463c0.307-0.641,0.651-1.406-0.38-1.406
	c-0.888,0-1.577,1.027-2.097,1.604c0.188-0.491,0.789-1.469-0.112-1.491c-0.941-0.023-1.379,0.959-1.464,1.717
	c-0.356-0.254-0.909-0.608-1.322-0.196c1.032,0.131,0.152,1.367-0.395,1.549c-0.456,0.148-0.922-0.236-1.237,0.084
	c0.124,0.084,0.074,0.285,0.141,0.338c0.389,0.019,0.777-0.036,1.144-0.168c0.495-0.181,0.939-0.498,1.276-0.901
	c-0.469,0.72-1.215,1.187-2.083,1.21c1.317,0.436,2.271-0.838,3.013-1.773c-0.509,0.799-1.02,1.498-1.887,1.942
	c1.037,0.181,2.021-1.272,2.59-1.97c-0.376,0.756-1.037,1.396-1.688,1.914c1.044,0.031,2.125-1.475,2.617-2.252
	c-0.331,0.797-0.911,1.484-1.576,2.025c1.072-0.269,1.918-1.22,2.479-2.14c-0.254,0.651-0.736,1.267-1.268,1.717
	c0.892-0.353,1.614-1.187,2.082-1.998c-0.231,0.612-0.614,1.14-1.126,1.55c0.682-0.272,1.289-0.822,1.689-1.437
	c-0.188,0.372-0.41,0.716-0.732,0.983c0.491-0.236,0.854-0.481,1.211-0.928c-0.126,0.219-0.259,0.422-0.451,0.59
	C74.361,68.032,75.546,67.227,76.661,67.32z M82.206,68.813c-0.821,0.041-1.373-0.235-1.972-0.76c0.732,0.563,0.45,0.396,0,0
	c0.724,0.555,2.09,1.062,2.702,0.141c-1.21,0.921-3.035-0.834-3.981-1.379c-0.997-0.571-1.84-0.576-2.94-0.506
	c1.298,0,2.02,2.254,0.534,2.308c0.322,0.521,0.926,0.123,1.182-0.281c-0.126,0.313-0.393,0.529-0.703,0.647
	c0.477,0.127,0.816-0.369,1.014-0.731c0.194,0.698,0.337,1.267,1.183,1.267c0.254,0,0.532-0.192,0.661-0.408
	c0.31-0.519-0.45-0.963-0.718-1.42C79.865,68.641,81.016,69.411,82.206,68.813z M76.606,66.336c0.249-0.006,0.481,0.02,0.702,0.068
	C77.093,66.361,76.867,66.33,76.606,66.336c0.352,0.132,0.647,0.337,0.896,0.697C77.28,66.719,76.983,66.479,76.606,66.336z
	 M77.449,66.787c0.063,0.09,0.114,0.186,0.156,0.283C77.561,66.977,77.505,66.885,77.449,66.787
	c0.325,0.109,0.553,0.305,0.781,0.582C78.019,67.115,77.775,66.896,77.449,66.787z M77.967,66.756
	c-0.003-0.002-0.006-0.003-0.009-0.005c0.451,0.151,0.759,0.368,1.096,0.569C78.695,67.105,78.352,66.895,77.967,66.756z
	 M46.352,69.123c-0.704-0.098-1.397-0.574-1.492-1.323c-0.063-0.806,1.209-0.831,1.268-0.112c0.729-0.598-0.477-1.356-0.957-1.479
	c-0.647-0.162-1.175,0.337-1.491,0.831c-0.188-0.41-0.678-1.092-1.225-0.731c-0.081,0.053-0.186,0.103-0.239,0.184
	c-0.224,0.335-0.077,0.175-0.422,0.126c-0.415-0.06-0.818-0.329-1.243-0.407c-0.85-0.154-1.65,0.005-2.43,0.338
	c-0.539,0.23-2.618,1.559-2.885,0.239c-0.339,1.221,1.417,0.892,2.055,0.591c-0.421,0.314-0.965,0.48-1.491,0.45
	c0.58,0.164,0.918,0.062,1.491-0.084c-0.049,0.431,0.218,0.86,0.704,0.787c0.229-0.035,0.417-0.37,0.565-0.358
	c0.288,0.023,0.637,0.1,0.785-0.204c-0.754,0-0.911-1.098-0.184-1.098c1.523,0,3.149,1.147,4.461,1.801
	c-0.248-0.223-0.417-0.5-0.619-0.76c0.433,0.487,0.743,0.759,1.323,0.985c-0.376-0.297-0.641-0.694-0.93-1.069
	c0.507,0.58,0.985,1.106,1.745,1.266c-0.531-0.37-1.003-0.829-1.351-1.379C44.528,68.583,45.231,69.178,46.352,69.123z
	 M89.382,66.336c-1.085-0.373-2.489-0.188-3.462,0.422c-0.357-1.008-1.313-0.349-1.604,0.282c-0.302-0.511-0.887-0.99-1.52-0.831
	c-0.53,0.134-1.615,0.832-0.957,1.479c0.035-0.428,0.666-0.656,1.013-0.451c0.996,0.592-0.601,1.799-1.237,1.888
	c1.121,0.056,1.823-0.54,2.562-1.408c-0.344,0.544-0.808,0.999-1.323,1.379c0.73-0.069,1.288-0.741,1.745-1.266
	c-0.292,0.38-0.577,0.771-0.957,1.069c0.599-0.196,0.896-0.504,1.323-0.985c-0.202,0.26-0.371,0.537-0.619,0.76
	c1.396-0.597,2.904-1.801,4.474-1.801c0.721,0,0.568,1.098-0.195,1.098c0.128,0.246,0.374,0.236,0.63,0.218
	c0.375-0.027,0.371,0.28,0.721,0.346c0.483,0.089,0.753-0.367,0.704-0.787c0.549,0.139,0.934,0.279,1.491,0.084
	c-0.53,0.029-1.061-0.146-1.491-0.45c0.697,0.329,2.385,0.62,2.054-0.62C92.478,68.245,89.953,66.532,89.382,66.336z M65.771,69.826
	h-3.49c-0.141,0-0.225,0.111-0.225,0.225s0.084,0.227,0.225,0.227h3.49c0.112,0,0.197-0.112,0.197-0.227
	C65.968,69.938,65.883,69.826,65.771,69.826z M64.476,71.6c0.396-0.338,0.676-0.731,0.788-1.183h-0.422
	c-0.113,0.507-0.338,0.872-0.591,1.153c0.195-0.31,0.365-0.676,0.394-1.153h-0.534l-0.085,1.238l-0.111-1.238H63.35
	c0.028,0.479,0.197,0.845,0.422,1.153c-0.281-0.281-0.507-0.646-0.619-1.153h-0.338c0.113,0.45,0.366,0.845,0.788,1.183
	c-0.507-0.311-0.844-0.703-0.984-1.183h-0.253c0.084,0.731,0.787,1.323,1.659,1.323s1.576-0.592,1.633-1.323h-0.196
	C65.292,70.896,64.983,71.289,64.476,71.6z M45.058,68.223l0.04,0.023c-0.011-0.02-0.03-0.034-0.04-0.053V68.223z M51.953,66.309
	c-1.121-0.095-1.902-0.01-2.928,0.506c-0.984,0.496-2.662,2.268-3.928,1.433c0.555,0.89,1.992,0.319,2.634-0.192
	c-0.597,0.522-1.147,0.801-1.97,0.76c1.218,0.612,2.323-0.195,3.067-1.125c-0.283,0.424-0.937,0.862-0.761,1.351
	c0.085,0.235,0.343,0.428,0.592,0.479c0.849,0.174,1.125-0.629,1.267-1.268c0.236,0.37,0.538,0.855,1.042,0.732
	c-0.33-0.118-0.576-0.336-0.732-0.648c0.275,0.38,0.857,0.811,1.183,0.281c-0.063,0.001-0.109-0.018-0.168-0.027
	C49.927,68.459,50.799,66.309,51.953,66.309z M51.362,66.336c-0.377,0.143-0.673,0.383-0.896,0.697
	C50.714,66.673,51.011,66.468,51.362,66.336c-0.259-0.006-0.484,0.025-0.699,0.069C50.883,66.355,51.115,66.33,51.362,66.336z
	 M50.039,67.082c-0.019,0.016-0.038,0.027-0.056,0.043C50.001,67.109,50.022,67.098,50.039,67.082z M48.942,67.32
	c0.395-0.252,0.761-0.533,1.436-0.674C49.836,66.759,49.399,67.027,48.942,67.32z M49.892,67.079
	c-0.133,0.162-0.25,0.347-0.359,0.552C49.636,67.438,49.753,67.249,49.892,67.079z M50.314,67.234
	c-0.017,0.048-0.037,0.091-0.05,0.144C50.275,67.332,50.294,67.282,50.314,67.234z M62.084,69.77
	c-0.066-0.064-0.131-0.131-0.197-0.196c-0.603,0.183-1.072,0.249-1.59-0.168c-0.378-0.306-0.628-1.167,0.07-1.267
	c-0.408-0.408-0.938-0.059-1.296,0.195c-0.086-0.777-0.494-1.587-1.379-1.702c-1.003-0.131-0.406,0.963-0.225,1.478
	c-0.496-0.571-1.199-1.604-2.068-1.604c-1.018,0-0.724,0.747-0.407,1.406c-0.784-0.551-2.077-1.674-3.124-1.463
	c0.503,0.111,0.964,0.365,1.406,0.619c-0.579-0.227-1.397-0.822-1.97-0.396c0.573,0.062,1.125,0.279,1.661,0.479
	c-0.388-0.11-1.757-0.631-1.998-0.142c0.544-0.05,1.059,0.072,1.576,0.226c-0.603-0.15-1.646-0.416-1.801,0.367
	c0.889-0.971,3.072,0.496,3.827,0.871c-0.176-0.177-0.326-0.375-0.45-0.591c0.335,0.417,0.728,0.763,1.238,0.929
	c-0.324-0.271-0.57-0.607-0.76-0.984c0.446,0.637,1.007,1.093,1.689,1.436c-0.496-0.419-0.896-0.938-1.126-1.549
	c0.479,0.833,1.204,1.639,2.11,1.998c-0.545-0.439-1.012-1.063-1.267-1.717c0.524,0.931,1.388,1.873,2.449,2.14
	c-0.669-0.545-1.217-1.241-1.576-2.026c0.512,0.768,1.569,2.283,2.617,2.252c-0.667-0.528-1.266-1.172-1.688-1.913
	c0.57,0.696,1.552,2.149,2.589,1.97c-0.847-0.445-1.381-1.137-1.856-1.941c0.717,0.943,1.68,2.199,2.982,1.772
	c-0.866-0.024-1.588-0.495-2.055-1.21c0.324,0.417,0.781,0.736,1.277,0.913c0.272,0.098,0.561,0.151,0.851,0.162
	C62.247,70.137,61.655,69.984,62.084,69.77z M76.221,65.459C76.221,65.458,76.221,65.458,76.221,65.459
	C76.221,65.458,76.221,65.458,76.221,65.459z M56.636,65.461c-0.001-0.002-0.002-0.003-0.002-0.004
	C56.634,65.458,56.635,65.459,56.636,65.461z M99.063,63.943c-0.201,0-0.398,0.087-0.585,0.214
	c-0.644-0.276-1.228-0.263-1.756,0.019c-0.654-0.293-1.246-0.285-1.784-0.004c-0.651-0.29-1.243-0.283-1.777-0.003
	c-0.653-0.289-1.243-0.28-1.776,0.002c-0.673-0.278-1.243-0.305-1.796-0.001c-0.652-0.289-1.244-0.275-1.781,0.01
	c-0.656-0.297-1.25-0.289-1.789-0.008c-0.649-0.29-1.239-0.279-1.772,0c-0.653-0.291-1.243-0.283-1.777-0.004
	c-0.66-0.296-1.245-0.303-1.798,0.003c-0.655-0.29-1.246-0.282-1.78,0c-0.673-0.278-1.243-0.305-1.796-0.001
	c-0.648-0.286-1.236-0.277-1.77,0.002c-0.649-0.288-1.237-0.279-1.771,0c-0.654-0.29-1.245-0.283-1.779-0.004
	c-0.656-0.294-1.237-0.302-1.79-0.001c-0.656-0.265-1.244-0.272-1.777,0.005c-0.655-0.291-1.247-0.277-1.785,0.008
	c-0.656-0.297-1.251-0.289-1.79-0.008c-0.649-0.288-1.237-0.279-1.771,0c-0.651-0.291-1.243-0.283-1.778-0.002
	c-0.651-0.289-1.24-0.281-1.772-0.002c-0.661-0.296-1.245-0.303-1.798,0.003c-0.646-0.286-1.239-0.28-1.771,0.001
	c-0.649-0.289-1.237-0.279-1.771,0c-0.656-0.292-1.249-0.279-1.786,0.008c-0.656-0.297-1.25-0.289-1.788-0.008
	c-0.651-0.291-1.244-0.283-1.778-0.002c-0.652-0.289-1.243-0.281-1.776,0.001c-0.673-0.278-1.243-0.305-1.796-0.001
	c-0.648-0.286-1.236-0.277-1.77,0.002c-0.65-0.29-1.239-0.279-1.773,0c-0.653-0.291-1.243-0.283-1.777-0.004
	c-0.661-0.296-1.245-0.303-1.799,0.003c-0.654-0.291-1.245-0.282-1.78,0c-0.673-0.278-1.243-0.305-1.796-0.001
	c-0.647-0.286-1.236-0.277-1.769,0.002c-0.892-0.396-1.667-0.232-2.348,0.419c-0.293-0.304-0.614-0.702-1.07-0.702
	c-1.024,0-1.217,1.498-0.233,1.771c0.384,0.104,0.646-0.024,0.84-0.278c0.104,0.385,1.019,0.361,1.448,0.253
	c0.167-0.063,0.262-0.146,0.339-0.245c0.125,0.366,1.02,0.35,1.435,0.245c0.145-0.054,0.278-0.149,0.407-0.268
	c0.013,0.038,0.055,0.062,0.079,0.093c-0.022-0.029-0.034-0.076-0.025-0.145c0.303-0.293,0.578-0.692,0.885-0.967
	c0.521-0.33,1.063-0.42,1.666-0.121c-0.018,0.016-0.031,0.035-0.048,0.053c-0.215,0.144-0.419,0.33-0.616,0.563
	c-0.113,0.135-0.167,0.246-0.195,0.346c-0.023,0.024-0.046,0.058-0.07,0.08c-0.145,0.137-0.239,0.244-0.479,0.254
	c0.225-0.318,0.469-0.887,0.873-1.154c-0.66,0.189-0.743,1.347-1.521,1.21c0.239-0.149,0.428-0.375,0.563-0.619
	c-0.042,0.046-0.861,0.706-1.03,0.504c0.203,0.248,0.765,0.304,1.284,0.172c0.135-0.051,0.257-0.139,0.374-0.237
	c0.123,0.369,0.958,0.386,1.399,0.237c0.229-0.075,0.332-0.19,0.425-0.329c0.042,0.396,0.756,0.485,1.376,0.329
	c0.178-0.059,0.281-0.146,0.366-0.251c0.104,0.383,0.961,0.4,1.406,0.251c0.185-0.061,0.286-0.146,0.368-0.248
	c0.113,0.378,0.973,0.394,1.405,0.248c0.183-0.061,0.285-0.145,0.367-0.247c0.122,0.369,1.019,0.353,1.435,0.247
	c0.146-0.054,0.279-0.149,0.408-0.267c0.108,0.342,0.778,0.414,1.365,0.267c0.177-0.065,0.276-0.157,0.359-0.266
	c0.085,0.397,0.96,0.417,1.413,0.266c0.186-0.061,0.287-0.146,0.369-0.249c0.111,0.381,0.968,0.396,1.404,0.249
	c0.18-0.06,0.28-0.143,0.361-0.241c0.118,0.371,1.015,0.35,1.439,0.241c0.18-0.067,0.279-0.157,0.359-0.268
	c0.086,0.397,0.973,0.415,1.414,0.268c0.183-0.061,0.284-0.145,0.366-0.248c0.122,0.37,1.019,0.354,1.435,0.248
	c0.176-0.065,0.273-0.153,0.353-0.26c0.09,0.392,0.979,0.371,1.42,0.26c0.146-0.054,0.28-0.149,0.409-0.268
	c0.013,0.038,0.054,0.061,0.079,0.092c-0.022-0.028-0.034-0.076-0.026-0.146c0.323-0.312,0.615-0.744,0.946-1.017
	c0.479-0.315,1.082-0.328,1.604-0.069c-0.018,0.016-0.03,0.035-0.047,0.051c-0.216,0.145-0.421,0.332-0.617,0.564
	c-0.118,0.141-0.172,0.254-0.201,0.354c-0.022,0.022-0.042,0.053-0.064,0.072c-0.145,0.137-0.24,0.244-0.479,0.254
	c0.241-0.303,0.466-0.885,0.872-1.154c-0.66,0.189-0.743,1.347-1.521,1.21c0.239-0.149,0.429-0.375,0.563-0.619
	c-0.043,0.048-0.86,0.706-1.03,0.504c0.203,0.248,0.764,0.304,1.283,0.172c0.174-0.058,0.276-0.144,0.36-0.245
	c0.108,0.37,0.972,0.355,1.412,0.245c0.186-0.062,0.287-0.146,0.369-0.25c0.11,0.382,0.968,0.396,1.404,0.25
	c0.18-0.06,0.28-0.143,0.361-0.241c0.119,0.371,1.015,0.35,1.439,0.241c0.167-0.063,0.263-0.146,0.34-0.245
	c0.124,0.366,1.019,0.351,1.434,0.245c0.132-0.049,0.255-0.135,0.374-0.237c0.137,0.357,1.017,0.342,1.428,0.237
	c0.176-0.065,0.273-0.153,0.354-0.26c0.09,0.392,0.979,0.371,1.42,0.26c0.207-0.077,0.308-0.19,0.398-0.323
	c0.048,0.391,0.756,0.479,1.374,0.323c0.178-0.059,0.281-0.146,0.366-0.251c0.104,0.385,0.96,0.401,1.406,0.251
	c0.181-0.06,0.279-0.142,0.36-0.241c0.118,0.371,1.016,0.35,1.44,0.241c0.167-0.063,0.262-0.146,0.34-0.245
	c0.124,0.366,1.019,0.351,1.433,0.245c0.146-0.054,0.279-0.149,0.409-0.268c0.013,0.038,0.055,0.062,0.079,0.093
	c-0.023-0.029-0.034-0.076-0.026-0.145c0.304-0.293,0.579-0.693,0.887-0.969c0.521-0.328,1.061-0.419,1.664-0.119
	c-0.019,0.016-0.03,0.035-0.047,0.051c-0.216,0.145-0.421,0.332-0.617,0.564c-0.117,0.141-0.172,0.253-0.201,0.354
	c-0.021,0.022-0.041,0.052-0.063,0.072c-0.145,0.137-0.239,0.246-0.479,0.254c0.223-0.316,0.47-0.888,0.872-1.154
	c-0.658,0.189-0.748,1.346-1.521,1.21c0.239-0.149,0.429-0.375,0.563-0.619c-0.042,0.045-0.865,0.705-1.032,0.502
	c0.2,0.25,0.765,0.306,1.285,0.174c0.172-0.063,0.271-0.153,0.354-0.258c0.09,0.386,0.974,0.37,1.42,0.258
	c0.229-0.075,0.332-0.19,0.426-0.332c0.04,0.398,0.754,0.489,1.376,0.332c0.178-0.059,0.281-0.146,0.365-0.251
	c0.104,0.385,0.961,0.401,1.406,0.251c0.186-0.061,0.286-0.146,0.368-0.248c0.113,0.378,0.974,0.394,1.405,0.248
	c0.183-0.061,0.285-0.145,0.366-0.248c0.123,0.37,1.019,0.354,1.435,0.248c0.18-0.065,0.278-0.157,0.358-0.266
	c0.096,0.39,1.021,0.371,1.442,0.266c0.21-0.077,0.31-0.19,0.397-0.325c0.045,0.394,0.755,0.481,1.375,0.325
	c0.173-0.063,0.271-0.153,0.353-0.258c0.091,0.386,0.976,0.369,1.421,0.258c0.179-0.059,0.281-0.146,0.365-0.251
	c0.106,0.385,0.966,0.399,1.407,0.251c0.18-0.06,0.28-0.142,0.361-0.241c0.119,0.371,1.015,0.349,1.439,0.241
	c0.183-0.067,0.28-0.159,0.361-0.271c0.082,0.402,0.966,0.422,1.411,0.271c0.353-0.116,0.413-0.319,0.592-0.583
	c0.572,0.344,1.039,1.031,1.809,0.569C100.289,65.157,99.963,63.943,99.063,63.943z M29.063,64.861
	c0.119,0.121,0.274,0.19,0.44,0.216c0.104,0.024,0.204,0.041,0.301,0.045c-0.006,0.014-0.014,0.028-0.019,0.043
	c-0.204,0.071-0.404,0.082-0.59,0.017c-0.002-0.002-0.004-0.002-0.006-0.002c-0.086-0.031-0.167-0.085-0.246-0.139
	c-0.051-0.035-0.1-0.072-0.146-0.111c-0.071-0.063-0.143-0.123-0.204-0.197c0.025,0.069,0.068,0.14,0.118,0.209
	c0.103,0.16,0.234,0.279,0.395,0.351c0.195,0.11,0.405,0.151,0.58,0.063c-1.177,1.27-1.861-2.026-0.249-1.271
	c0.269,0.162,0.482,0.37,0.704,0.591c-0.218,0.219-0.641,0.004-0.873-0.111c0.119,0.137,0.473,0.365,0.695,0.312
	c-0.026,0.033-0.037,0.06-0.059,0.089c-0.099,0.012-0.196,0.012-0.293-0.003c-0.289-0.085-0.655-0.293-0.71-0.342
	C28.936,64.716,28.992,64.795,29.063,64.861z M31.559,65.195c-0.013,0.014-0.024,0.029-0.039,0.044
	c-0.145,0.146-0.234,0.261-0.478,0.28c0.189-0.31,0.465-0.901,0.844-1.153c-0.651,0.188-0.713,1.342-1.492,1.21
	c0.24-0.15,0.409-0.389,0.563-0.619c-0.068,0.076-1.24,1.014-1.056,0.281c0.019-0.07,0.056-0.141,0.1-0.209
	c0.008-0.012,0.017-0.022,0.024-0.035c0.151-0.209,0.395-0.399,0.565-0.529c0.58-0.438,1.176-0.574,1.857-0.238
	c-0.014,0.01-0.022,0.023-0.035,0.035c-0.229,0.146-0.447,0.336-0.655,0.58C31.64,64.98,31.586,65.095,31.559,65.195z
	 M34.151,64.297c-0.137,0.096-0.272,0.202-0.41,0.339c-0.232,0.23-0.34,0.419-0.364,0.571c-0.17,0.166-0.354,0.292-0.561,0.313
	c0.214-0.304,0.456-0.896,0.845-1.153c-0.634,0.212-0.728,1.348-1.492,1.21c0.24-0.149,0.409-0.389,0.563-0.619
	c-0.06,0.066-1.239,1.014-1.055,0.281c0.012-0.047,0.042-0.094,0.068-0.141c0.021-0.033,0.041-0.066,0.067-0.104
	c0.168-0.229,0.396-0.407,0.628-0.576c0.558-0.395,1.131-0.516,1.783-0.193C34.199,64.246,34.175,64.273,34.151,64.297z
	 M36.84,65.268c-0.144,0.138-0.25,0.237-0.479,0.254c0.312-0.375,0.447-0.871,0.873-1.154c-0.632,0.182-0.753,1.365-1.491,1.21
	c0.222-0.158,0.402-0.382,0.534-0.619c-0.212,0.267-0.5,0.563-0.857,0.563c-0.131,0-0.212-0.092-0.202-0.203
	c0.357-0.34,0.664-0.826,1.06-1.092c-0.002-0.002-0.004-0.002-0.006-0.002c0.468-0.25,1.043-0.236,1.526,0.002
	c-0.023,0.02-0.039,0.045-0.063,0.064c-0.142,0.098-0.281,0.206-0.421,0.345c-0.181,0.181-0.27,0.327-0.32,0.459
	C36.942,65.15,36.895,65.215,36.84,65.268z M38.712,65.188c-0.024,0.025-0.046,0.058-0.07,0.08c-0.145,0.137-0.24,0.244-0.479,0.254
	c0.241-0.303,0.466-0.885,0.873-1.154c-0.661,0.189-0.743,1.347-1.521,1.21c0.239-0.149,0.428-0.375,0.563-0.619
	c-0.228,0.252-0.497,0.563-0.858,0.563c-0.162,0-0.255-0.139-0.183-0.282c0.167-0.334,0.432-0.515,0.688-0.773
	c0.497-0.5,1.232-0.541,1.843-0.239c-0.017,0.017-0.03,0.037-0.048,0.054c-0.214,0.144-0.419,0.329-0.616,0.563
	C38.793,64.977,38.74,65.088,38.712,65.188z M40.484,65.189c-0.023,0.023-0.044,0.055-0.068,0.078
	c-0.137,0.129-0.226,0.233-0.45,0.252c0.076,0,0.622-1.006,0.844-1.153c-0.638,0.183-0.743,1.362-1.492,1.21
	c0.223-0.158,0.403-0.383,0.535-0.619c-0.203,0.254-1.131,0.98-1.013,0.227c0.001-0.007,0.006-0.012,0.007-0.017
	c0.035-0.056,0.07-0.11,0.114-0.172c0.231-0.317,0.577-0.544,0.892-0.771c-0.002,0-0.003,0-0.005-0.002
	c0.467-0.248,1.043-0.236,1.525,0.002c-0.013,0.012-0.021,0.023-0.033,0.034c-0.229,0.146-0.448,0.337-0.657,0.582
	C40.565,64.979,40.511,65.089,40.484,65.189z M42.253,65.195c-0.013,0.014-0.025,0.029-0.038,0.044
	c-0.146,0.146-0.235,0.261-0.479,0.28c0.104,0,0.614-1,0.845-1.153c-0.64,0.184-0.725,1.366-1.492,1.21
	c0.24-0.15,0.409-0.389,0.563-0.619c-0.068,0.077-1.236,1.016-1.056,0.281c0.012-0.049,0.04-0.09,0.063-0.133
	c0.023-0.037,0.044-0.071,0.072-0.11c0.114-0.155,0.256-0.288,0.407-0.411c0.004-0.004,0.009-0.008,0.013-0.012
	c0.153-0.123,0.316-0.235,0.472-0.348c-0.002,0-0.003,0-0.005-0.002c0.467-0.248,1.042-0.236,1.524,0.002
	c-0.013,0.012-0.021,0.024-0.035,0.036c-0.228,0.146-0.446,0.337-0.654,0.58C42.334,64.982,42.28,65.095,42.253,65.195z
	 M44.072,65.201c-0.175,0.172-0.36,0.303-0.562,0.318c0.189-0.31,0.465-0.901,0.844-1.153c-0.651,0.188-0.713,1.342-1.492,1.21
	c0.24-0.15,0.409-0.389,0.563-0.619c-0.058,0.064-1.237,1.016-1.055,0.281c0.011-0.047,0.041-0.092,0.064-0.137
	c0.023-0.035,0.042-0.068,0.07-0.106c0.168-0.229,0.396-0.406,0.627-0.575c0.558-0.396,1.13-0.518,1.784-0.193
	c-0.023,0.02-0.048,0.047-0.071,0.069c-0.137,0.095-0.274,0.203-0.412,0.34C44.204,64.864,44.098,65.05,44.072,65.201z
	 M45.832,65.188c-0.024,0.025-0.046,0.058-0.07,0.08c-0.145,0.137-0.24,0.244-0.479,0.254c0.224-0.316,0.469-0.887,0.872-1.154
	c-0.658,0.189-0.747,1.346-1.52,1.21c0.239-0.149,0.428-0.375,0.563-0.619c-0.049,0.054-1.113,0.907-1.06,0.356
	c0.303-0.293,0.579-0.691,0.884-0.967c0.522-0.33,1.062-0.421,1.667-0.121c-0.017,0.016-0.03,0.035-0.048,0.053
	c-0.214,0.144-0.419,0.33-0.616,0.563C45.913,64.977,45.86,65.088,45.832,65.188z M47.605,65.188
	c-0.023,0.025-0.045,0.057-0.069,0.08c-0.144,0.138-0.25,0.237-0.479,0.254c0.312-0.375,0.447-0.871,0.873-1.154
	c-0.632,0.182-0.753,1.365-1.492,1.21c0.223-0.158,0.403-0.382,0.535-0.619c-0.212,0.267-0.5,0.563-0.858,0.563
	c-0.162,0-0.256-0.139-0.184-0.282c0.156-0.313,0.397-0.491,0.637-0.724c0.134-0.102,0.27-0.199,0.405-0.289
	c-0.002-0.002-0.004-0.002-0.006-0.004c0.469-0.248,1.015-0.199,1.526,0.004c-0.009,0.006-0.015,0.017-0.022,0.022
	c-0.234,0.146-0.458,0.341-0.669,0.593C47.686,64.977,47.632,65.088,47.605,65.188z M49.37,65.197
	c-0.022,0.021-0.04,0.049-0.063,0.07c-0.136,0.129-0.225,0.233-0.451,0.252c0.077,0,0.622-1.006,0.846-1.153
	c-0.627,0.18-0.737,1.362-1.492,1.21c0.235-0.146,0.401-0.381,0.535-0.619c-0.079,0.098-1.206,1.005-1.027,0.281
	c0.012-0.047,0.039-0.086,0.061-0.129c0.024-0.039,0.046-0.073,0.075-0.114c0.114-0.156,0.256-0.289,0.408-0.412
	c0.004-0.004,0.008-0.007,0.012-0.011c0.153-0.123,0.316-0.235,0.473-0.348c-0.002,0-0.004,0-0.005-0.002
	c0.467-0.248,1.042-0.236,1.524,0.002c-0.013,0.012-0.021,0.024-0.034,0.035c-0.229,0.146-0.447,0.338-0.655,0.581
	C49.454,64.982,49.398,65.096,49.37,65.197z M51.182,65.155c-0.024,0.026-0.047,0.058-0.073,0.084
	c-0.145,0.146-0.235,0.261-0.479,0.28c0.188-0.31,0.465-0.901,0.844-1.153c-0.652,0.188-0.713,1.342-1.492,1.21
	c0.24-0.15,0.409-0.389,0.563-0.619c-0.07,0.077-1.237,1.016-1.055,0.281c0.011-0.045,0.038-0.088,0.061-0.131
	c0.024-0.037,0.045-0.072,0.075-0.112c0.167-0.229,0.395-0.406,0.625-0.574c0.559-0.396,1.132-0.519,1.786-0.194
	c-0.027,0.021-0.045,0.049-0.07,0.072c-0.206,0.141-0.402,0.321-0.592,0.543C51.274,64.961,51.215,65.063,51.182,65.155z
	 M52.948,65.195c-0.014,0.014-0.024,0.029-0.038,0.044c-0.146,0.146-0.236,0.261-0.479,0.28c0.104,0,0.615-1,0.845-1.153
	c-0.639,0.184-0.724,1.364-1.491,1.21c0.239-0.15,0.408-0.389,0.563-0.619c-0.068,0.076-1.24,1.014-1.056,0.281
	c0.036-0.145,0.125-0.258,0.227-0.364c0.032-0.036,0.067-0.067,0.102-0.103c0.117-0.105,0.244-0.203,0.348-0.308
	c0.497-0.499,1.262-0.541,1.871-0.239c-0.013,0.012-0.021,0.024-0.035,0.036c-0.228,0.146-0.447,0.337-0.655,0.58
	C53.029,64.982,52.974,65.095,52.948,65.195z M54.741,65.225c-0.168,0.159-0.347,0.279-0.537,0.297
	c0.188-0.311,0.465-0.902,0.844-1.154c-0.651,0.188-0.713,1.342-1.491,1.21c0.24-0.149,0.409-0.388,0.563-0.619
	c-0.058,0.063-1.24,1.015-1.056,0.281c0.013-0.046,0.041-0.091,0.065-0.136c0.022-0.037,0.043-0.069,0.071-0.107
	c0.167-0.229,0.395-0.406,0.625-0.574c0.558-0.396,1.132-0.52,1.785-0.195c-0.012,0.01-0.023,0.024-0.035,0.037
	c-0.224,0.145-0.437,0.334-0.637,0.579C54.813,64.996,54.763,65.116,54.741,65.225z M57.312,64.298
	c-0.138,0.097-0.274,0.203-0.411,0.338c-0.234,0.233-0.344,0.425-0.366,0.578c-0.177,0.172-0.361,0.3-0.558,0.308
	c0.216-0.306,0.456-0.896,0.845-1.154c-0.634,0.212-0.727,1.347-1.491,1.21c0.238-0.149,0.428-0.375,0.563-0.619
	c-0.061,0.067-1.237,1.015-1.056,0.281c0.012-0.048,0.043-0.097,0.071-0.146c0.021-0.033,0.038-0.064,0.063-0.099
	c0.167-0.229,0.396-0.407,0.627-0.575c0.559-0.395,1.131-0.518,1.784-0.193C57.361,64.245,57.336,64.273,57.312,64.298z
	 M60.073,65.188c-0.024,0.025-0.046,0.057-0.071,0.08c-0.144,0.138-0.25,0.236-0.479,0.254c0.312-0.375,0.447-0.871,0.872-1.154
	c-0.631,0.182-0.753,1.365-1.491,1.21c0.223-0.158,0.403-0.382,0.535-0.619c-0.212,0.267-0.5,0.563-0.857,0.563
	c-0.163,0-0.255-0.139-0.184-0.282c0.064-0.13,0.146-0.232,0.234-0.328c0.063-0.075,0.134-0.146,0.208-0.21
	c0.053-0.049,0.104-0.1,0.159-0.151c0.144-0.112,0.295-0.219,0.439-0.323c-0.002,0-0.004-0.002-0.006-0.002
	c0.469-0.25,1.014-0.199,1.525,0.002c-0.009,0.008-0.015,0.018-0.022,0.023c-0.233,0.146-0.458,0.341-0.669,0.593
	C60.154,64.977,60.1,65.087,60.073,65.188z M61.837,65.197c-0.022,0.021-0.04,0.049-0.063,0.07c-0.136,0.129-0.226,0.233-0.45,0.252
	c0.104,0,0.614-1,0.844-1.153c-0.626,0.181-0.736,1.362-1.491,1.21c0.236-0.146,0.402-0.381,0.535-0.619
	c-0.078,0.098-1.209,1.004-1.027,0.281c0.012-0.049,0.04-0.088,0.063-0.131c0.023-0.037,0.045-0.072,0.073-0.112
	c0.114-0.156,0.257-0.289,0.408-0.412c0.004-0.003,0.008-0.007,0.013-0.011c0.152-0.123,0.315-0.235,0.472-0.348
	c-0.002,0-0.003,0-0.005-0.002c0.467-0.248,1.042-0.236,1.524,0.002c-0.013,0.012-0.021,0.025-0.035,0.036
	c-0.228,0.146-0.446,0.337-0.654,0.58C61.921,64.982,61.865,65.096,61.837,65.197z M63.614,65.195
	c-0.013,0.014-0.024,0.029-0.037,0.044c-0.146,0.146-0.236,0.261-0.479,0.28c0.191-0.311,0.465-0.901,0.845-1.153
	c-0.651,0.188-0.713,1.341-1.491,1.21c0.239-0.15,0.408-0.389,0.563-0.619c-0.068,0.076-1.24,1.014-1.056,0.281
	c0.011-0.045,0.039-0.086,0.061-0.129c0.024-0.039,0.045-0.073,0.075-0.114c0.168-0.229,0.396-0.407,0.627-0.575
	c0.558-0.395,1.131-0.518,1.784-0.193c-0.013,0.01-0.021,0.023-0.034,0.035c-0.229,0.146-0.447,0.336-0.656,0.58
	C63.695,64.982,63.64,65.095,63.614,65.195z M65.411,65.223c-0.164,0.157-0.343,0.276-0.541,0.299
	c0.213-0.305,0.456-0.896,0.844-1.154c-0.634,0.212-0.728,1.347-1.491,1.21c0.239-0.15,0.409-0.39,0.563-0.619
	c-0.062,0.067-1.236,1.015-1.056,0.281c0.013-0.048,0.042-0.095,0.068-0.142c0.021-0.033,0.041-0.065,0.067-0.103
	c0.167-0.229,0.394-0.405,0.625-0.573c0.559-0.398,1.133-0.518,1.786-0.195c-0.031,0.025-0.063,0.062-0.096,0.094
	c-0.196,0.138-0.385,0.311-0.565,0.521C65.484,64.996,65.433,65.116,65.411,65.223z M67.208,65.225
	c-0.168,0.159-0.347,0.28-0.537,0.297c0.188-0.311,0.466-0.901,0.844-1.154c-0.651,0.188-0.713,1.342-1.491,1.21
	c0.24-0.149,0.409-0.388,0.563-0.619c-0.055,0.062-1.163,0.948-1.058,0.327c0.271-0.27,0.521-0.62,0.794-0.881
	c0.55-0.379,1.111-0.496,1.756-0.178c-0.012,0.01-0.023,0.022-0.034,0.033c-0.222,0.143-0.436,0.333-0.638,0.582
	C67.281,64.996,67.231,65.116,67.208,65.225z M68.922,65.268c-0.146,0.137-0.239,0.244-0.479,0.254
	c0.228-0.319,0.47-0.887,0.873-1.154c-0.657,0.189-0.749,1.349-1.52,1.21c0.238-0.149,0.428-0.375,0.563-0.619
	c-0.06,0.065-1.238,1.015-1.055,0.281c0.013-0.05,0.045-0.101,0.074-0.149c0.02-0.031,0.036-0.061,0.061-0.094
	c0.167-0.229,0.395-0.405,0.624-0.573c0.559-0.396,1.136-0.521,1.787-0.196c-0.02,0.02-0.035,0.043-0.055,0.062
	c-0.145,0.098-0.286,0.209-0.428,0.351c-0.206,0.203-0.303,0.369-0.343,0.512C68.991,65.188,68.959,65.232,68.922,65.268z
	 M70.766,65.188c-0.023,0.024-0.046,0.057-0.07,0.08c-0.145,0.135-0.239,0.244-0.479,0.252c0.24-0.302,0.466-0.885,0.872-1.153
	c-0.66,0.19-0.743,1.347-1.521,1.21c0.239-0.149,0.429-0.375,0.563-0.619c-0.05,0.057-1.241,1.018-1.057,0.281
	c0.008-0.032,0.032-0.065,0.049-0.098c0.029-0.049,0.06-0.096,0.099-0.146c0.202-0.268,0.479-0.471,0.756-0.66
	c0.517-0.316,1.048-0.404,1.646-0.109c-0.018,0.017-0.03,0.036-0.047,0.053c-0.216,0.144-0.421,0.33-0.617,0.563
	C70.847,64.977,70.793,65.088,70.766,65.188z M72.531,65.195c-0.021,0.022-0.04,0.051-0.063,0.072
	c-0.143,0.135-0.248,0.235-0.478,0.252c0.311-0.375,0.445-0.871,0.871-1.153c-0.638,0.183-0.741,1.36-1.49,1.21
	c0.222-0.159,0.401-0.383,0.533-0.619c-0.1,0.124-1.205,0.992-1.025,0.281c0.013-0.051,0.041-0.094,0.063-0.139
	c0.023-0.035,0.043-0.067,0.07-0.104c0.113-0.154,0.253-0.285,0.402-0.407c0.008-0.006,0.014-0.012,0.021-0.018
	c0.151-0.122,0.313-0.234,0.468-0.346c-0.002,0-0.004,0-0.006-0.002c0.469-0.248,1.044-0.236,1.525,0.002
	c-0.014,0.012-0.022,0.025-0.035,0.037c-0.228,0.146-0.446,0.336-0.654,0.579C72.615,64.982,72.56,65.095,72.531,65.195z
	 M74.307,65.195c-0.013,0.015-0.022,0.031-0.037,0.044c-0.146,0.146-0.234,0.261-0.479,0.28c0.104,0,0.613-1,0.844-1.153
	c-0.639,0.185-0.724,1.364-1.491,1.21c0.24-0.149,0.409-0.389,0.563-0.619c-0.068,0.076-1.24,1.014-1.057,0.281
	c0.013-0.045,0.039-0.088,0.063-0.131c0.023-0.037,0.045-0.072,0.074-0.112c0.169-0.231,0.398-0.409,0.633-0.579
	c0.556-0.393,1.129-0.512,1.779-0.189c-0.014,0.01-0.021,0.023-0.034,0.034c-0.229,0.146-0.447,0.337-0.656,0.581
	C74.388,64.982,74.334,65.096,74.307,65.195z M76.898,64.298c-0.137,0.095-0.271,0.201-0.409,0.338
	c-0.231,0.23-0.34,0.419-0.363,0.571c-0.17,0.166-0.354,0.292-0.562,0.313c0.219-0.306,0.455-0.896,0.846-1.153
	c-0.634,0.212-0.729,1.348-1.491,1.21c0.239-0.15,0.409-0.389,0.563-0.619c-0.057,0.063-1.239,1.014-1.056,0.281
	c0.012-0.047,0.042-0.094,0.068-0.141c0.021-0.033,0.041-0.066,0.066-0.104c0.168-0.229,0.396-0.407,0.629-0.576
	c0.558-0.395,1.132-0.516,1.782-0.193C76.947,64.246,76.922,64.273,76.898,64.298z M79.588,65.268
	c-0.144,0.137-0.248,0.236-0.479,0.254c0.312-0.375,0.446-0.871,0.872-1.154c-0.633,0.182-0.753,1.365-1.491,1.21
	c0.223-0.158,0.402-0.382,0.534-0.619c-0.228,0.253-0.497,0.563-0.857,0.563c-0.162,0-0.255-0.139-0.184-0.282
	c0.158-0.313,0.398-0.491,0.64-0.726c0.132-0.101,0.268-0.197,0.401-0.287c-0.002-0.002-0.004-0.002-0.007-0.004
	c0.469-0.25,1.017-0.199,1.526,0.004c-0.023,0.02-0.04,0.045-0.063,0.064c-0.142,0.098-0.28,0.207-0.42,0.345
	c-0.18,0.179-0.269,0.325-0.318,0.457C79.691,65.15,79.644,65.215,79.588,65.268z M81.46,65.188c-0.024,0.024-0.046,0.057-0.07,0.08
	c-0.145,0.135-0.24,0.244-0.479,0.252c0.239-0.302,0.466-0.885,0.872-1.153c-0.66,0.188-0.742,1.347-1.521,1.21
	c0.239-0.148,0.428-0.375,0.563-0.619c-0.052,0.057-1.24,1.016-1.056,0.281c0.014-0.051,0.045-0.102,0.074-0.151
	c0.021-0.03,0.037-0.06,0.062-0.092c0.168-0.229,0.396-0.406,0.628-0.575c0.557-0.395,1.136-0.516,1.783-0.193
	c-0.018,0.016-0.029,0.035-0.047,0.053c-0.215,0.143-0.421,0.33-0.617,0.563C81.541,64.977,81.488,65.088,81.46,65.188z
	 M83.232,65.189c-0.023,0.023-0.045,0.055-0.068,0.078c-0.144,0.137-0.249,0.235-0.479,0.252c0.313-0.373,0.447-0.871,0.873-1.153
	c-0.638,0.183-0.743,1.362-1.492,1.21c0.224-0.158,0.403-0.383,0.535-0.619c-0.102,0.126-1.2,0.993-1.026,0.281
	c0.012-0.049,0.039-0.09,0.062-0.133c0.024-0.037,0.046-0.071,0.074-0.11c0.115-0.156,0.258-0.29,0.41-0.414
	c0.003-0.002,0.006-0.005,0.009-0.007c0.153-0.124,0.315-0.236,0.473-0.35c-0.002,0-0.004,0-0.006-0.002
	c0.468-0.248,1.044-0.236,1.525,0.002c-0.014,0.012-0.021,0.023-0.032,0.034c-0.229,0.146-0.449,0.337-0.658,0.582
	C83.313,64.979,83.259,65.089,83.232,65.189z M85.002,65.193c-0.015,0.016-0.025,0.031-0.039,0.046
	c-0.145,0.146-0.235,0.261-0.479,0.28c0.104,0,0.614-1,0.845-1.153c-0.64,0.185-0.725,1.364-1.491,1.21
	c0.239-0.15,0.409-0.389,0.563-0.619c-0.067,0.076-1.239,1.014-1.055,0.281c0.013-0.051,0.041-0.092,0.063-0.135
	c0.022-0.037,0.043-0.07,0.07-0.108c0.113-0.154,0.254-0.286,0.404-0.408c0.006-0.006,0.012-0.011,0.018-0.017
	c0.153-0.122,0.314-0.233,0.471-0.346c-0.002,0-0.004,0-0.006-0.002c0.468-0.248,1.044-0.234,1.525,0.002
	c-0.013,0.012-0.021,0.024-0.034,0.035c-0.229,0.146-0.446,0.336-0.655,0.581C85.083,64.98,85.029,65.094,85.002,65.193z
	 M86.806,65.16c-0.022,0.023-0.045,0.055-0.069,0.079c-0.146,0.146-0.233,0.261-0.479,0.28c0.19-0.31,0.466-0.901,0.845-1.153
	c-0.651,0.188-0.714,1.342-1.492,1.21c0.24-0.149,0.41-0.389,0.563-0.619c-0.057,0.063-1.24,1.016-1.055,0.281
	c0.012-0.047,0.041-0.094,0.065-0.139c0.022-0.035,0.041-0.067,0.068-0.104c0.167-0.229,0.394-0.405,0.624-0.573
	c0.558-0.396,1.134-0.52,1.787-0.195c-0.027,0.021-0.046,0.051-0.072,0.074c-0.204,0.141-0.401,0.32-0.59,0.541
	C86.899,64.964,86.839,65.066,86.806,65.16z M88.537,65.239c-0.145,0.146-0.235,0.261-0.479,0.28
	c0.188-0.31,0.465-0.901,0.844-1.153c-0.65,0.188-0.712,1.341-1.49,1.21c0.238-0.15,0.408-0.389,0.563-0.619
	c-0.057,0.063-1.24,1.014-1.055,0.281c0.031-0.127,0.121-0.248,0.226-0.363c0.047-0.053,0.098-0.102,0.147-0.148
	c0.109-0.1,0.224-0.19,0.315-0.262c0.58-0.439,1.177-0.574,1.857-0.238c-0.023,0.02-0.039,0.043-0.063,0.063
	c-0.141,0.097-0.279,0.206-0.422,0.347c-0.181,0.181-0.271,0.327-0.32,0.459C88.62,65.143,88.581,65.193,88.537,65.239z
	 M90.375,65.193c-0.021,0.022-0.042,0.053-0.064,0.074c-0.145,0.135-0.24,0.243-0.479,0.252c0.225-0.315,0.47-0.885,0.872-1.153
	c-0.658,0.19-0.748,1.346-1.521,1.21c0.239-0.149,0.428-0.375,0.563-0.619c-0.063,0.068-1.234,1.016-1.057,0.281
	c0.012-0.047,0.043-0.094,0.069-0.143c0.021-0.033,0.04-0.064,0.066-0.102c0.168-0.229,0.396-0.407,0.628-0.576
	c0.559-0.393,1.132-0.516,1.782-0.193c-0.018,0.017-0.03,0.037-0.048,0.055c-0.215,0.143-0.42,0.33-0.614,0.563
	C90.459,64.98,90.405,65.094,90.375,65.193z M92.155,65.188c-0.023,0.024-0.045,0.057-0.069,0.08
	c-0.144,0.137-0.25,0.235-0.479,0.252c0.241-0.303,0.465-0.884,0.872-1.153c-0.632,0.182-0.753,1.364-1.491,1.21
	c0.223-0.159,0.402-0.383,0.534-0.619c-0.228,0.253-0.497,0.563-0.857,0.563c-0.162,0-0.255-0.138-0.184-0.281
	c0.158-0.313,0.398-0.491,0.64-0.725c0.132-0.102,0.268-0.199,0.401-0.289c-0.002,0-0.005-0.002-0.007-0.002
	c0.469-0.252,1.016-0.199,1.526,0.002c-0.01,0.008-0.015,0.018-0.022,0.023c-0.232,0.146-0.457,0.341-0.669,0.593
	C92.236,64.977,92.182,65.088,92.155,65.188z M93.919,65.197c-0.021,0.021-0.04,0.049-0.063,0.07
	c-0.136,0.129-0.225,0.233-0.45,0.252c0.076,0,0.622-1.006,0.846-1.153c-0.627,0.18-0.737,1.362-1.492,1.21
	c0.236-0.146,0.403-0.381,0.535-0.619c-0.079,0.1-1.203,1.005-1.027,0.281c0.012-0.051,0.04-0.092,0.063-0.135
	c0.022-0.037,0.044-0.07,0.07-0.108c0.116-0.158,0.261-0.294,0.414-0.418c0.001-0.001,0.002-0.001,0.002-0.002
	c0.155-0.124,0.319-0.237,0.478-0.351c-0.002,0-0.004,0-0.005-0.002c0.468-0.248,1.041-0.236,1.523,0.002
	c-0.013,0.012-0.021,0.024-0.033,0.035c-0.229,0.146-0.447,0.338-0.656,0.581C94.003,64.982,93.948,65.096,93.919,65.197z
	 M95.733,65.154c-0.024,0.027-0.048,0.059-0.073,0.085c-0.146,0.146-0.236,0.261-0.479,0.28c0.104,0,0.614-1,0.844-1.153
	c-0.639,0.184-0.723,1.364-1.49,1.21c0.238-0.15,0.408-0.389,0.563-0.619c-0.068,0.076-1.24,1.014-1.056,0.281
	c0.012-0.045,0.039-0.088,0.061-0.131c0.024-0.037,0.046-0.072,0.075-0.112c0.169-0.229,0.397-0.408,0.63-0.577
	c0.557-0.395,1.13-0.516,1.781-0.191c-0.021,0.019-0.036,0.039-0.058,0.059c-0.211,0.143-0.412,0.328-0.605,0.558
	C95.823,64.96,95.765,65.063,95.733,65.154z M97.663,65.005c-0.076,0.089-0.149,0.185-0.232,0.263
	c-0.136,0.131-0.225,0.234-0.45,0.254c0.104,0,0.614-1.002,0.845-1.154c-0.626,0.181-0.736,1.363-1.491,1.21
	c0.24-0.149,0.409-0.388,0.563-0.619c-0.067,0.076-1.239,1.015-1.056,0.281c0.035-0.14,0.121-0.253,0.22-0.355
	c0.037-0.042,0.077-0.08,0.117-0.118c0.116-0.104,0.239-0.199,0.339-0.3c0.499-0.498,1.261-0.542,1.871-0.239
	C98.096,64.449,97.842,64.764,97.663,65.005z M98.726,65.576c0.384-0.16,0.661-0.417,0.731-0.844
	c-0.161,0.34-0.732,0.98-1.126,0.646c0.422-0.149,0.729-0.409,0.873-0.844c-0.245,0.366-0.722,0.821-1.126,0.618
	c0.373-0.133,0.632-0.348,0.76-0.73c-0.177,0.284-0.68,0.816-1.015,0.498c0.099-0.119,0.205-0.232,0.326-0.331
	c0.01-0.008,0.018-0.016,0.025-0.022c0.099-0.078,0.2-0.148,0.302-0.222c0.102-0.069,0.199-0.146,0.305-0.204
	C99.888,63.573,100.329,65.904,98.726,65.576z M33.474,65.461c0-0.001-0.001-0.002-0.002-0.003
	C33.472,65.459,33.473,65.46,33.474,65.461z"/>
</svg>
