<?xml version="1.0" encoding="utf-8"?>
<!-- Generator: Adobe Illustrator 16.0.0, SVG Export Plug-In . SVG Version: 6.00 Build 0)  -->
<!DOCTYPE svg PUBLIC "-//W3C//DTD SVG 1.1//EN" "http://www.w3.org/Graphics/SVG/1.1/DTD/svg11.dtd">
<svg version="1.1" id="Слой_1" xmlns="http://www.w3.org/2000/svg" xmlns:xlink="http://www.w3.org/1999/xlink" x="0px" y="0px"
	 width="127.559px" height="85.039px" viewBox="0 0 127.559 85.039" enable-background="new 0 0 127.559 85.039"
	 xml:space="preserve">
<path fill="#979898" d="M38.741,50.33c-0.031-0.432-0.401-0.74-0.804-0.71c-0.433,0.03-0.741,0.401-0.71,0.803
	c0.03,0.433,0.401,0.741,0.803,0.71C38.463,51.102,38.772,50.73,38.741,50.33L38.741,50.33z M38.494,50.423
	c0,0.247-0.217,0.463-0.464,0.463c-0.309,0.03-0.556-0.185-0.556-0.463v-0.03L38.494,50.423z M84.204,21.562
	c-5.218-5.155-12.473-8.396-20.467-8.396c-8.025,0-15.279,3.241-20.466,8.396c5.247-5.031,12.472-8.149,20.466-8.149
	C71.702,13.413,78.956,16.531,84.204,21.562L84.204,21.562z M44.908,66.926c4.413,3.488,9.847,5.711,15.712,6.174h4.661
	c0.309,0,0.616-0.031,0.896-0.063c7.964-0.863,14.816-4.877,19.447-10.587c-4.692,5.587-11.545,9.507-19.479,10.372
	C58.213,73.686,50.681,71.371,44.908,66.926L44.908,66.926z M83.37,44.916c0-10.618-8.859-19.292-19.786-19.292
	c-10.897,0-19.756,8.674-19.756,19.292c0,10.65,8.857,19.324,19.756,19.324C74.511,64.24,83.37,55.566,83.37,44.916L83.37,44.916z
	 M62.319,48.064c0.31,0.463,0.03,0.771,0.03,0.771s-0.154-1.02-0.803-1.45c-0.679-0.433-0.987-2.161-0.092-3.643
	c0.895-1.482,1.326-3.242,1.203-4.137h1.481c0,0-0.093,1.081,0.71,3.025c0.802,1.945,2.006,3.797-0.186,5.279
	c0,0-0.187-0.741-0.063-1.885c0.123-1.11,0.123-1.42-0.217-2.252c0,0,0.093,1.266-1.049,1.636c-0.988,0.34-0.988,0.864-1.02,1.205
	C62.287,46.954,62.009,47.604,62.319,48.064L62.319,48.064z M67.906,49.794l1.421-9.816l1.297-0.278L67.906,49.794z M70.992,39.731
	l-2.871,10.742l-0.03-0.277L70.992,39.731z M67.781,49.115l-0.185-0.186l0.987-7.286L67.781,49.115z M67.041,51.214
	c-0.587,0.093-1.821,0.03-1.821,0.03c0.803-1.049,0.063-1.76,0.063-1.76c1.76-2.5,1.697-3.92,0.523-5.988
	c-1.173-2.067-1.08-3.364-1.08-3.364l3.704-0.031C68.43,40.102,67.226,49.641,67.041,51.214L67.041,51.214z M56.175,39.607
	l1.698,0.463l1.173,9.971L56.175,39.607z M58.953,50.658l-0.03,0.309l-3.087-11.051L58.953,50.658z M58.583,40.132l3.426,0.092
	c0,0-0.03,1.204-1.173,3.271c-1.173,2.067-1.234,3.487,0.524,5.989c0,0-0.771,0.586,0.063,1.636c0,0-0.401,0-0.771-0.062
	c-0.371-0.094-0.524-0.494-0.524-1.854c0,0-0.74-0.4-0.896-2.006C59.046,45.596,58.583,40.132,58.583,40.132L58.583,40.132z
	 M80.592,44.484c0.247,0,0.741,0.063,0.957-0.031c0.154-0.061,0.34-0.03,0.494,0.031c0,0.154,0.031,0.309,0.031,0.432
	c0,0.063,0,0.124-0.031,0.186c-0.093,0.031-0.216,0-0.37-0.029c-0.31-0.155-0.187,0.093-0.464,0.093s-0.277,0.153,0,0.246
	c0.217,0.03,0.647,0,0.834,0.124c0,0.185,0,0.339-0.031,0.492c-0.123,0.031-0.339-0.061-0.524-0.061c-0.246,0-1.05-0.031-1.389,0
	c-0.34,0-0.433,0.123-0.031,0.186c0.433,0.062,0.68,0.154,1.08,0.123c0.31-0.063,0.648,0.031,0.864,0.123
	c-0.03,0.123-0.03,0.248-0.062,0.371c-0.063,0.03-0.123,0.03-0.187,0.062c-0.216,0.03-0.246,0.03-0.339-0.062
	c-0.093-0.063-0.124-0.094-0.34-0.063c-0.216,0.063-0.34,0.063-0.587,0.063c-0.216,0-0.246,0.03,0.063,0.154
	c0.339,0.092,0.647,0,0.926,0.123c0.123,0.063,0.31,0.092,0.433,0.154c-0.03,0.186-0.063,0.369-0.092,0.523
	c-0.094,0.031-0.187,0-0.31-0.062c-0.277-0.154-0.4-0.154-0.494-0.093c-0.093,0.061-0.186,0.062-0.587-0.063
	c-0.4-0.093-0.833-0.217-1.204-0.217c-0.339,0-0.586,0.154-0.216,0.217c0.401,0.031,0.864-0.031,1.173,0.186
	c0.34,0.246,0.371,0.217,0.618,0.186c0.216-0.029,0.31,0.031,0.493,0.186c0.093,0.094,0.309,0.03,0.463,0.03
	c-0.03,0.154-0.03,0.278-0.062,0.402c-0.123,0.03-0.247,0.03-0.37,0c-0.31-0.031-0.557-0.031-0.648-0.154
	c-0.093-0.124-0.37-0.094-0.216,0.154c0.154,0.246,0.216,0.31,0.494,0.31c0.185,0,0.463,0.029,0.617,0.185
	c-0.031,0.153-0.063,0.278-0.094,0.401c-0.093,0-0.247-0.031-0.369-0.031c-0.31-0.03-0.588,0.031-0.988-0.154
	c-0.401-0.216-0.494-0.092-0.771-0.154c-0.309-0.092-0.4,0.031-0.03,0.187c0.37,0.153,0.896,0.186,1.173,0.34
	c0.186,0.092,0.647,0.062,0.896,0.187c-0.062,0.185-0.123,0.399-0.186,0.586c-0.063-0.031-0.123-0.063-0.186-0.094
	c-0.186-0.124-0.153-0.124-0.34,0.03c-0.216,0.124-0.154,0.187,0.093,0.248c0.123,0.03,0.217,0.092,0.31,0.153
	c-0.063,0.187-0.123,0.341-0.187,0.494c-0.092,0-0.216-0.063-0.276-0.063c-0.187,0.031-0.37-0.37-0.587-0.186
	c-0.217,0.186,0.03,0.309,0.153,0.401c0.094,0.093,0.401,0.062,0.587,0.154c-0.062,0.153-0.124,0.309-0.186,0.463
	c-0.063-0.031-0.123-0.063-0.154-0.063c-0.276-0.123-0.986-0.494-1.142-0.617c-0.187-0.123-0.525-0.432-0.741-0.309
	c-0.186,0.123-0.278,0.154,0.093,0.309c0.37,0.154,0.957,0.371,1.111,0.588c0.093,0.123,0.432,0.309,0.648,0.492
	c-0.063,0.125-0.124,0.248-0.187,0.402c-0.093-0.063-0.186-0.124-0.309-0.124c-0.401-0.062-0.587-0.37-0.771-0.216
	c-0.217,0.123-0.093,0.154,0.063,0.309c0.154,0.155,0.247-0.031,0.37,0.217c0.062,0.123,0.277,0.186,0.433,0.246
	c-0.093,0.154-0.154,0.277-0.247,0.433c-0.124-0.093-0.247-0.216-0.401-0.339c-0.277-0.186-0.556-0.278-0.863-0.401
	c-0.309-0.123-0.834-0.31-0.434,0.031c0.401,0.309,0.803,0.586,1.081,0.709c0.154,0.063,0.339,0.187,0.433,0.31
	c-0.094,0.153-0.154,0.277-0.277,0.432c-0.063-0.062-0.187-0.122-0.278-0.215c-0.309-0.248-0.71-0.463-0.833-0.401
	c-0.093,0.03,0.03,0.247,0.247,0.494c0.216,0.216,0.401,0.093,0.493,0.339c0.031,0.063,0.063,0.124,0.154,0.154
	c-0.093,0.123-0.154,0.217-0.217,0.309c-0.093-0.061-0.153-0.123-0.186-0.186c-0.123-0.153-0.123-0.123-0.309-0.062
	c-0.154,0.062-0.186,0.154,0,0.31c0.093,0.062,0.217,0.123,0.309,0.186c-0.092,0.154-0.216,0.309-0.309,0.432
	c-0.094-0.031-0.186-0.063-0.277-0.123c-0.278-0.217-0.556-0.402-0.771-0.494c-0.217-0.093-0.309-0.03-0.063,0.154
	c0.186,0.154,0.647,0.432,0.834,0.834c-0.093,0.092-0.187,0.215-0.278,0.309c-0.123-0.063-0.216-0.123-0.37-0.186
	c-0.463-0.154-0.739-0.371-0.833-0.309c-0.093,0.062,0.123,0.186,0.34,0.34c0.153,0.092,0.4,0.339,0.524,0.555
	c-0.093,0.094-0.186,0.186-0.278,0.309c-0.093-0.062-0.216-0.123-0.309-0.215c-0.277-0.248-0.216-0.248-0.463-0.186
	c-0.247,0.061-0.154,0.215,0.093,0.339c0.123,0.093,0.31,0.154,0.463,0.278c-0.153,0.154-0.309,0.309-0.463,0.463
	c-0.124-0.094-0.247-0.186-0.34-0.309c-0.309-0.34-0.648-0.463-0.771-0.648c-0.154-0.217-0.401-0.154-0.154,0.092
	c0.216,0.248,0.494,0.402,0.523,0.557c0.031,0.123,0.154,0.31,0.341,0.648c-0.063,0.061-0.123,0.123-0.217,0.186
	c0-0.063-0.03-0.154-0.186-0.094c-0.187,0.063-0.187,0.217-0.093,0.371c-0.154,0.123-0.31,0.246-0.463,0.37
	c-0.031-0.03-0.094-0.093-0.123-0.124c-0.341-0.4-0.341-0.37-0.434-0.555c-0.093-0.186-0.153-0.186-0.247-0.094
	c-0.093,0.094-0.029,0.217,0.094,0.34c0.093,0.093,0.34,0.34,0.463,0.617c-0.154,0.123-0.34,0.248-0.494,0.34
	c-0.063-0.031-0.092-0.092-0.123-0.123c-0.123-0.123-0.34-0.063-0.154,0.216c0.031,0.03,0.031,0.062,0.031,0.093
	c-0.124,0.094-0.247,0.186-0.371,0.247c-0.063,0-0.093-0.03-0.123-0.093c-0.154-0.277-0.216-0.401-0.433-0.463
	c-0.186-0.063-0.401-0.463-0.463-0.401c-0.063,0.062,0.093,0.247,0.186,0.433c0.03,0.092,0.247,0.494,0.401,0.804
	c-0.124,0.092-0.278,0.153-0.434,0.245c-0.031-0.03-0.062-0.092-0.093-0.153c-0.247-0.37-0.216-0.31-0.339-0.187
	c-0.093,0.095-0.093,0.248,0.123,0.525c-0.154,0.063-0.277,0.154-0.433,0.216c-0.03-0.03-0.063-0.062-0.093-0.093
	c-0.154-0.34-0.217-0.216-0.309-0.092c-0.031,0.061-0.154,0.215-0.031,0.4c-0.093,0.063-0.186,0.092-0.277,0.153
	c-0.063-0.03-0.093-0.062-0.124-0.123c-0.186-0.217-0.247-0.524-0.369-0.401c-0.154,0.125-0.124,0.31-0.031,0.401
	c0.062,0.062,0.124,0.154,0.153,0.277c-0.153,0.063-0.339,0.153-0.523,0.217c-0.031-0.03-0.063-0.093-0.093-0.123
	c-0.154-0.248-0.123-0.217-0.247-0.063c-0.094,0.094-0.063,0.187-0.03,0.341c-0.154,0.062-0.31,0.092-0.464,0.153
	c0-0.031-0.03-0.063-0.03-0.093c-0.154-0.339-0.216-0.247-0.309-0.124c-0.031,0.094,0.062,0.186,0.093,0.309
	c-0.186,0.063-0.371,0.095-0.556,0.154c-0.031-0.029-0.063-0.092-0.063-0.154c-0.062-0.276-0.154-0.432-0.247-0.309
	c-0.092,0.094-0.062,0.278-0.062,0.588c-0.186,0.029-0.339,0.092-0.524,0.123c-0.124-0.186-0.124-0.277-0.154-0.557
	c0-0.369-0.153-0.186-0.153,0.094c0,0.186-0.154,0.34-0.093,0.555c-0.094,0.031-0.217,0.063-0.31,0.063
	c0-0.031-0.031-0.063-0.031-0.093c-0.153-0.434-0.309-0.588-0.492-0.434c-0.187,0.154-0.154,0.154,0.029,0.34
	c0.063,0.063,0.093,0.154,0.124,0.277c-0.217,0.031-0.4,0.063-0.587,0.094c-0.031-0.094-0.062-0.154-0.093-0.217
	c-0.123-0.4-0.186-0.186-0.186,0.031c0,0.063,0,0.123,0.03,0.216c-0.154,0.03-0.309,0.03-0.432,0.062
	c-0.031-0.123-0.063-0.215-0.124-0.309c-0.123-0.217-0.154,0.031-0.186,0.34c-0.063,0-0.124,0-0.186,0v-4.014l2.901-0.063
	c0.246,0.68,0.896,1.144,1.636,1.144c0.927,0,1.698-0.772,1.698-1.729c0-0.955-0.771-1.729-1.698-1.729
	c-0.71,0-1.296,0.402-1.574,0.988l-2.994-0.031v-1.234c0,0,0.927-0.432,0-1.203c0,0,0.864,0,1.327-0.094
	c0.401-0.061,0.68-0.185,0.772-0.74c-0.834,0.031-2.934,0.063-5.465-0.186c0,0,4.537,0.123,6.298-0.123
	c0.309-0.031,0.616-0.123,0.863-0.771c0.187-0.433,0.434-0.711,0.218-1.049c-0.928,0.092-3.552,0.277-7.409,0.029
	c0,0,4.878,0.094,7.1-0.339c-0.185-0.124-0.401-0.247-0.679-0.401l3.241-11.761c0,0,0.523-0.278,0.863-0.494
	c0.34-0.247,0.433-0.71,0.433-1.574c0-0.093,0-0.154,0-0.247c-5.34,0.71-12.532,0.124-12.532,0.124
	c8.148,0.154,11.422-0.216,12.502-0.401c-0.063-0.401-0.247-0.556-0.741-0.771c-0.833-0.371-2.593-1.235-4.814-2.809
	c0,0,0.433-0.957-1.05-1.142c0,0,0.186-1.976-1.45-2.13c0,0,0.34-2.161-1.08-2.161c-1.698,0-1.328,2.253-1.328,2.253
	c-1.636,0.186-1.296,2.099-1.296,2.099c-1.481,0.185-0.928,1.081-0.928,1.081c-2.313,1.636-4.599,2.377-5.277,2.686
	c-0.679,0.278-0.71,0.401-0.71,1.234c0,0.865,0.063,1.143,0.433,1.389c0.34,0.216,0.833,0.586,0.833,0.586l3.458,12.07
	c-1.575,0.804-1.39,1.049-1.111,1.729c0.246,0.647,0.557,0.709,0.864,0.771c0.31,0.062,0.802,0.093,0.802,0.093
	c0.063,0.771,0.341,0.864,0.804,0.956c0.464,0.095,1.297,0.095,1.297,0.095c-0.926,0.771,0,1.203,0,1.203v1.203l-3.18,0.063
	c-0.277-0.586-0.864-0.988-1.543-0.988c-0.957,0-1.729,0.771-1.729,1.729s0.771,1.729,1.729,1.729c0.739,0,1.356-0.464,1.604-1.144
	l3.118,0.063v3.951c-0.093,0-0.187,0-0.278-0.03c0.031-0.186,0.031-0.401-0.154-0.493c-0.216-0.154-0.153,0.123-0.245,0.433
	c-0.187,0-0.371-0.063-0.588-0.093c0.063-0.34,0.187-0.772,0.217-1.111c0-0.465-0.094-0.587-0.154-0.309
	c-0.062,0.277-0.187,0.338-0.247,0.771c-0.03,0.339-0.092,0.433-0.123,0.587c-0.186-0.031-0.37-0.063-0.525-0.093
	c0.187-0.341,0.341-0.618,0.155-0.833c-0.217-0.248-0.371-0.217-0.31,0.154c0.063,0.338-0.092,0.399-0.186,0.586
	c-0.124-0.031-0.277-0.063-0.433-0.123c0.154-0.217,0.063-0.588,0.278-1.021c0.276-0.463-0.063-0.153-0.278,0.031
	c-0.247,0.187-0.277,0.31-0.339,0.71c0,0.063-0.031,0.124-0.063,0.186c-0.153-0.062-0.309-0.123-0.463-0.154
	c0.031-0.215,0.063-0.432,0.154-0.586c0.093-0.217,0.247-0.401,0-0.648c-0.216-0.246-0.123,0.34-0.31,0.494
	c-0.123,0.123-0.246,0.371-0.34,0.556c-0.123-0.03-0.246-0.093-0.37-0.124c0.154-0.277,0.124-0.586,0.278-0.863
	c0.186-0.34,0.092-0.401-0.217-0.277c-0.31,0.093-0.123,0.37-0.31,0.679c-0.029,0.093-0.093,0.187-0.153,0.278
	c-0.154-0.063-0.31-0.124-0.463-0.186c0-0.154,0.062-0.31,0.186-0.434c0.186-0.186,0.216-0.309,0.063-0.432
	c-0.123-0.092-0.123,0.063-0.37,0.246c-0.217,0.154-0.124,0.217-0.217,0.463c-0.123-0.062-0.217-0.123-0.34-0.153
	c0.03-0.247,0-0.524,0.154-0.71c0.216-0.247,0.216-0.4-0.031-0.277c-0.247,0.092-0.309,0.34-0.463,0.617
	c-0.031,0.031-0.062,0.092-0.093,0.154c-0.154-0.094-0.309-0.186-0.494-0.277c0.093-0.063,0.154-0.124,0.217-0.186
	c0.186-0.217,0.186-0.463,0.093-0.617c-0.123-0.186-0.154-0.063-0.246,0.154c-0.063,0.185-0.187,0.34-0.341,0.494
	c-0.123-0.063-0.216-0.154-0.34-0.218c0.094-0.276,0.187-0.586,0.278-0.71c0.154-0.185,0.339-0.309,0.339-0.463
	c0.031-0.124-0.062-0.4-0.216-0.124c-0.154,0.31-0.309,0.433-0.401,0.587c-0.093,0.094-0.216,0.278-0.339,0.494
	c-0.154-0.093-0.277-0.186-0.4-0.277c0.153-0.277,0.123-0.524,0.309-0.648c0.247-0.154,0.493-0.4,0.154-0.493
	c-0.34-0.093-0.31,0.216-0.463,0.37c-0.124,0.123-0.154,0.247-0.371,0.525c-0.123-0.095-0.277-0.218-0.401-0.31
	c0.093-0.248,0.217-0.464,0.371-0.587c0.216-0.124,0.309-0.34,0.247-0.494c-0.031-0.186-0.155-0.309-0.278,0.03
	c-0.123,0.34-0.186,0.278-0.37,0.433c-0.153,0.094-0.186,0.217-0.309,0.37c-0.124-0.092-0.247-0.216-0.371-0.31
	c0.093-0.185,0.154-0.34,0.34-0.463c0.278-0.153,0.216-0.369,0.556-0.771c0.31-0.401-0.276-0.062-0.463,0.187
	c-0.216,0.215-0.309,0.246-0.4,0.432c-0.063,0.123-0.154,0.186-0.31,0.371c-0.153-0.154-0.309-0.278-0.433-0.402
	c0.186-0.246,0.463-0.523,0.68-0.679c0.31-0.216,0.216-0.31,0.123-0.401c-0.093-0.062-0.247,0.031-0.494,0.278
	c-0.185,0.216-0.432,0.401-0.616,0.524c-0.123-0.123-0.247-0.246-0.37-0.371c0.062-0.123,0.153-0.215,0.309-0.277
	c0.31-0.154,0.34-0.34,0.648-0.617c0.276-0.246-0.031-0.246-0.278-0.092c-0.216,0.154-0.339,0.154-0.493,0.369
	c-0.093,0.186-0.217,0.217-0.4,0.371c-0.094-0.094-0.154-0.187-0.247-0.277c0.309-0.277,0.492-0.617,0.647-0.711
	c0.216-0.092,0.31-0.277,0.123-0.37c-0.154-0.093-0.278,0.062-0.523,0.278c-0.218,0.186-0.371,0.216-0.588,0.4
	c-0.093-0.093-0.186-0.186-0.246-0.277c0.277-0.31,0.74-0.648,0.987-0.803c0.277-0.187-0.124-0.341-0.277-0.187
	c-0.154,0.153-0.494,0.153-0.617,0.34c-0.093,0.123-0.216,0.187-0.37,0.277c-0.093-0.123-0.187-0.246-0.278-0.369
	c0.463-0.278,0.557-0.558,0.896-0.681c0.37-0.153,0.647-0.34,0.494-0.432c-0.154-0.124-0.525,0.03-0.804,0.277
	c-0.309,0.247-0.37,0.154-0.524,0.309c-0.123,0.094-0.186,0.123-0.31,0.187c-0.092-0.123-0.153-0.247-0.246-0.371
	c0.186-0.185,0.433-0.339,0.617-0.4c0.37-0.094,0.557-0.37,0.957-0.616c0.4-0.278,0.339-0.341,0.186-0.434
	c-0.186-0.093-0.37,0-0.557,0.186c-0.185,0.153-0.4,0.401-0.71,0.524c-0.276,0.093-0.493,0.277-0.71,0.401
	c-0.093-0.155-0.185-0.311-0.277-0.494c0.31-0.186,0.957-0.557,1.234-0.68c0.31-0.123,0.68-0.34,0.278-0.34
	c-0.371-0.031-0.371-0.031-0.494,0.123c-0.154,0.154-0.37,0.094-0.587,0.278c-0.216,0.185-0.433,0.216-0.648,0.31
	c-0.029-0.125-0.092-0.217-0.153-0.31c0.34-0.124,0.4-0.401,0.587-0.464c0.216-0.092,0.34-0.277,0.647-0.339
	c0.31-0.093,0.433-0.216,0.804-0.556c0.4-0.31-0.154-0.154-0.278-0.063c-0.154,0.063-0.401,0.216-0.586,0.216
	c-0.187,0-0.371,0.34-0.557,0.31c-0.217-0.063-0.217,0.153-0.464,0.186c-0.216,0.031-0.246,0.092-0.399,0.216
	c-0.063-0.124-0.124-0.278-0.218-0.433c0.218-0.246,0.588-0.432,0.928-0.463c0.432-0.03,0.586-0.37,0.956-0.37
	c0.371-0.03,0.464,0,0.74-0.339c0.278-0.34,0.094-0.34-0.122-0.278c-0.218,0.062-0.31,0.062-0.557,0.278
	c-0.217,0.185-0.34,0.123-0.433,0.154c-0.093,0.061-0.339,0.153-0.557,0.185c-0.216,0-0.34,0.216-0.647,0.216
	c-0.246,0-0.37,0.031-0.493,0.124c-0.063-0.093-0.093-0.187-0.124-0.247c0.247-0.154,0.556-0.34,0.896-0.432
	c0.523-0.125,0.4-0.278,0.679-0.31c0.309-0.03,0.371-0.186,0.803-0.217c0.434-0.031,0.154-0.247-0.03-0.276
	c-0.154-0.031-0.34,0-0.587,0.092c-0.216,0.123-0.4,0.093-0.647,0.186s-0.494,0.154-0.803,0.309
	c-0.217,0.063-0.37,0.123-0.493,0.154c-0.031-0.123-0.094-0.277-0.124-0.4c0.4-0.094,0.277-0.278,0.71-0.278
	c0.34,0,0.247-0.216,0.556-0.216c0.34-0.03,0.741-0.309,1.08-0.37c0.34-0.093,0.371,0.063,0.433-0.246
	c0.031-0.34-0.153-0.248-0.277-0.124c-0.154,0.124-0.277,0.154-0.617,0.186c-0.339,0-0.771,0.309-1.02,0.309
	c-0.276,0-0.369,0.248-0.586,0.154c-0.186-0.062-0.277,0-0.464,0.094c-0.029-0.124-0.062-0.248-0.092-0.371
	c0.37-0.092,0.647-0.217,1.049-0.277c0.494-0.031,0.463-0.247,0.804-0.247c0.34,0,0.309-0.186,0.71-0.278
	c0.4-0.092,0.463-0.092,0.463-0.215c-0.03-0.125-0.463-0.063-0.74,0.092c-0.31,0.154-0.617,0.031-0.864,0.123
	c-0.247,0.094-0.371,0.248-0.864,0.31c-0.277,0.031-0.524,0.093-0.68,0.124c-0.03-0.186-0.062-0.34-0.093-0.523
	c0.247-0.125,0.556-0.218,0.896-0.218c0.434,0,0.37-0.186,0.71-0.186c0.341,0.03,0.31-0.062,0.617-0.093
	c0.309-0.03,0.525-0.03,0.494-0.277c-0.031-0.217-0.123-0.154-0.34-0.123c-0.216,0.029-0.401,0-0.771,0.154
	c-0.34,0.153-0.679,0.093-1.05,0.185c-0.339,0.063-0.556,0.154-0.646,0.154c-0.031-0.154-0.063-0.277-0.094-0.433
	c0.433-0.216,0.957-0.277,1.327-0.246c0.463,0,0.617,0,0.804-0.248c0.216-0.215-0.278-0.215-0.464-0.092
	c-0.217,0.092-0.463,0.03-0.771,0.03c-0.339,0-0.679,0.03-0.802,0.093c-0.031,0-0.094,0-0.154,0.031
	c-0.031-0.217-0.063-0.402-0.093-0.587c0.153-0.03,0.276,0,0.37,0c0.216,0,0.4-0.093,0.523-0.154c0.154-0.03,0.34,0.124,0.401,0.03
	c0.093-0.063,0.217,0,0.217-0.215c-0.031-0.186-0.278-0.124-0.371-0.063c-0.093,0.063-0.185,0.063-0.34,0.031
	c-0.154-0.031-0.463-0.124-0.586-0.063c-0.063,0.063-0.154,0.063-0.247,0.031c-0.031-0.154-0.031-0.309-0.031-0.494
	c0.124-0.031,0.278-0.062,0.434,0c0.276,0.094,0.37-0.092,0.679-0.062c0.31,0.062,0.401,0.03,0.647-0.062
	c0.278-0.063,0.434,0.03,0.464-0.187c0.03-0.216-0.31,0-0.617-0.031c-0.277-0.03-0.433,0.063-0.926,0.031
	c-0.341-0.031-0.557-0.031-0.71-0.062c0-0.125,0-0.278,0-0.434c0.153-0.063,0.309-0.063,0.556-0.029
	c0.339,0.062,0.339-0.031,0.523,0c0.217,0.062,0.341,0.153,0.648-0.063c0.309-0.217,0-0.278-0.309-0.402
	c-0.278-0.092-0.494,0.094-0.771,0.031c-0.247-0.031-0.463,0.031-0.647,0c0-0.123,0-0.277,0-0.432c0.246,0,0.556,0,0.771,0
	c0.309,0,0.771,0,1.08,0c0.34,0,0.648,0.031,0.68-0.094c0.03-0.154-0.093-0.216-0.463-0.246c-0.371,0-0.864,0.063-1.297-0.063
	c-0.247-0.063-0.556-0.094-0.741-0.094c0-0.122,0-0.246,0-0.37c0.155,0,0.311,0,0.401-0.03c0.247-0.029,0.647-0.029,0.864,0
	c0.217,0.063,0.433,0.186,0.587-0.029c0.153-0.218-0.247-0.31-0.34-0.218c-0.093,0.123-0.277,0.093-0.464-0.062
	c-0.153-0.125-0.523,0.093-0.679,0c-0.093-0.03-0.216-0.094-0.309-0.154c0-0.154,0.029-0.278,0.062-0.401
	c0.37,0,1.05,0.031,1.234,0.031c0.217,0,0.556,0.062,0.556-0.062c0-0.154-0.523-0.093-0.74-0.216
	c-0.247-0.123-0.34-0.092-0.647-0.092c-0.154,0-0.278-0.031-0.37-0.062c0.03-0.154,0.062-0.309,0.092-0.463
	c0.124-0.031,0.278-0.031,0.401,0.031c0.247,0.154,0.494,0.154,0.741,0.186c0.276,0,0.493,0.062,0.833,0.185
	c0.37,0.124,0.617,0.031,0.617-0.093c0-0.092-0.217-0.278-0.493-0.278c-0.278,0-0.464-0.185-0.771-0.185
	c-0.31-0.031-0.464,0.062-0.68-0.124c-0.154-0.093-0.401-0.154-0.557-0.185c0.031-0.154,0.063-0.278,0.094-0.401
	c0.093,0,0.153-0.031,0.216-0.062c0.186-0.092,0.371,0.124,0.587,0.124c0.186,0,0.093,0.154,0.523,0.186
	c0.464,0.031,0.804,0.309,1.144,0.278c0.309,0,0.493,0.154,0.771,0.154c0.31,0,0.123-0.154-0.062-0.278
	c-0.217-0.124-0.648-0.093-1.05-0.34c-0.401-0.278-0.833-0.062-1.111-0.247c-0.309-0.155-0.401,0.092-0.524-0.093
	c-0.063-0.124-0.246-0.185-0.37-0.185c0.03-0.154,0.063-0.309,0.124-0.432c0.153-0.031,0.309,0,0.432,0.062
	c0.217,0.216,0.371,0.278,0.68,0.278c0.31,0.031,0.463,0.062,0.74,0.216c0.247,0.124,0.648,0.062,0.772,0.124
	c0.092,0.093,0.492,0.186,0.523,0.062c0-0.154-0.463-0.216-0.523-0.278c-0.063-0.093-0.401-0.154-0.681-0.185
	c-0.247,0-0.494-0.247-0.74-0.278c-0.217-0.031-0.4-0.093-0.647-0.278c-0.124-0.062-0.31-0.124-0.433-0.186
	c0.03-0.092,0.062-0.216,0.123-0.309c0.433,0.124,1.05,0.216,1.267,0.309c0.216,0.093,0.803,0.186,0.987,0.309
	c0.216,0.093,0.309,0.186,0.34,0.031c0.03-0.124-0.247-0.309-0.587-0.401c-0.37-0.093-0.804-0.309-1.267-0.463
	c-0.276-0.124-0.463-0.216-0.556-0.309c0.031-0.154,0.093-0.309,0.154-0.432c0.217,0.062,0.587,0.186,0.71,0.278
	c0.186,0.124,0.4,0.186,0.556,0.186c0.124,0.031,0.31,0.031,0.464,0.154c0.154,0.123,0.679,0.247,0.864,0.37
	c0.185,0.093,0.246,0.186,0.339,0.093c0.124-0.093,0.063-0.124-0.123-0.278c-0.186-0.154-0.37-0.154-0.556-0.309
	c-0.154-0.187-0.278-0.031-0.434-0.187c-0.153-0.154-0.432-0.185-0.895-0.401c-0.31-0.124-0.557-0.309-0.71-0.432
	c0.062-0.062,0.093-0.155,0.123-0.247c0.247,0.062,0.803,0.216,1.05,0.309c0.34,0.124,0.432,0.371,0.617,0.401
	c0.185,0.03,0.556,0.185,0.771,0.278c0.187,0.124,0.401,0.339,0.463,0.154c0.094-0.185-0.463-0.432-0.739-0.586
	c-0.278-0.154-0.371-0.34-0.525-0.371c-0.154-0.062-0.493-0.185-0.802-0.309c-0.187-0.062-0.464-0.216-0.618-0.309
	c0.063-0.124,0.124-0.278,0.217-0.401c0.154,0.093,0.339,0.216,0.493,0.339c0.278,0.186,0.771,0.278,0.957,0.432
	c0.186,0.154,0.433,0.093,0.617,0.216c0.217,0.124,0.217-0.031,0.03-0.216c-0.186-0.216-0.34-0.309-0.493-0.309
	c-0.154,0-0.217,0-0.34-0.154c-0.093-0.124-0.463-0.309-0.68-0.432c-0.123-0.093-0.276-0.185-0.37-0.278
	c0.063-0.124,0.123-0.216,0.187-0.339c0.276,0.247,0.556,0.247,0.74,0.401c0.216,0.186,0.4,0.186,0.433,0.093
	c0.03-0.124-0.187-0.185-0.278-0.339c-0.062-0.124-0.123-0.247-0.339-0.34c-0.124-0.031-0.217-0.123-0.309-0.216
	c0.092-0.124,0.153-0.247,0.246-0.34c0.217,0.062,0.556,0.216,0.68,0.34c0.154,0.124,0.37,0.37,0.432,0.124
	c0.063-0.247-0.309-0.494-0.523-0.618c-0.124-0.062-0.247-0.154-0.34-0.216c0.093-0.124,0.153-0.247,0.246-0.371
	c0.217,0.062,0.434,0.154,0.524,0.247c0.124,0.124,0.31,0.278,0.371,0.185c0.062-0.062,0.093-0.124-0.093-0.278
	c-0.247-0.154-0.434-0.37-0.557-0.494c0.123-0.154,0.247-0.278,0.37-0.432c0.124,0.062,0.278,0.154,0.371,0.247
	c0.186,0.124,0.31,0.278,0.463,0.247c0.154-0.031,0.123-0.154,0-0.278c-0.063-0.062-0.371-0.432-0.524-0.586
	c0.063-0.062,0.124-0.154,0.186-0.216c0.37,0.154,0.803,0.432,0.957,0.586s0.494,0.401,0.524,0.216
	c0.062-0.185-0.339-0.401-0.586-0.679c-0.218-0.185-0.401-0.432-0.494-0.524c0.093-0.124,0.186-0.216,0.276-0.309
	c0.247,0.185,0.587,0.494,0.681,0.586c0.093,0.124,0.309,0.278,0.432,0.092c0.093-0.154-0.03-0.216-0.247-0.432
	c-0.123-0.154-0.37-0.463-0.463-0.617c0.093-0.093,0.154-0.185,0.247-0.247c0.124,0.062,0.309,0.185,0.401,0.34
	c0.186,0.278,0.68,0.71,0.834,0.864c0.185,0.185,0.339,0.401,0.399,0.339c0.093-0.093,0.124-0.278-0.062-0.432
	c-0.154-0.154-0.433-0.463-0.71-0.771c-0.186-0.216-0.401-0.525-0.493-0.648c0.092-0.093,0.185-0.185,0.309-0.247
	c0.247,0.247,0.896,0.896,1.049,1.05c0.187,0.216,0.278,0.432,0.371,0.309c0.094-0.093-0.124-0.34-0.186-0.556
	c-0.063-0.216-0.31-0.401-0.556-0.679c-0.154-0.124-0.277-0.278-0.341-0.401c0.094-0.092,0.218-0.185,0.341-0.278
	c0.216,0.154,0.493,0.494,0.71,0.772c0.247,0.37,0.803,1.019,1.11,1.235c0.31,0.185-0.03-0.371-0.247-0.679
	c-0.186-0.278-0.523-0.71-0.803-1.081c-0.154-0.216-0.247-0.432-0.339-0.586c0.092-0.063,0.216-0.124,0.309-0.185
	c0.247,0.339,0.771,0.864,0.864,1.111c0.123,0.247,0.309,0.309,0.339,0.062c0.063-0.247-0.123-0.432-0.309-0.741
	c-0.154-0.216-0.339-0.525-0.463-0.71c0.124-0.093,0.247-0.155,0.37-0.247c0.31,0.586,0.68,0.957,0.896,1.266
	c0.278,0.371,0.154-0.186,0.093-0.34c-0.03-0.185-0.433-0.771-0.433-0.864c0-0.031-0.063-0.185-0.092-0.339
	c0.092-0.031,0.185-0.062,0.246-0.124c0.217,0.247,0.493,0.586,0.587,0.803c0.153,0.309,0.523,0.648,0.523,0.648
	c-0.029-0.494-0.276-0.802-0.432-1.08c-0.093-0.186-0.187-0.432-0.216-0.586c0.123-0.093,0.276-0.155,0.432-0.216
	c0.124,0.185,0.187,0.401,0.309,0.494c0.187,0.123,0.278,0.123,0.278-0.062s0.063-0.154-0.031-0.309
	c-0.062-0.062-0.153-0.186-0.186-0.309c0.124-0.062,0.278-0.124,0.433-0.186c0.187,0.247,0.277,0.556,0.34,0.648
	c0.093,0.093,0.493,0.463,0.493,0.463c-0.153-0.247-0.185-0.71-0.216-0.864c0-0.093-0.062-0.278-0.093-0.463
	c0.124-0.031,0.247-0.093,0.371-0.124c0.154,0.247,0.276,0.71,0.37,0.895c0.123,0.186,0.309,0.463,0.309,0.463s0-0.463-0.093-0.896
	c-0.063-0.309-0.123-0.494-0.186-0.617c0.186-0.062,0.37-0.124,0.557-0.154c0,0.092,0.029,0.216,0.029,0.309
	c0,0.339,0.031,0.216,0.154,0.494c0.154,0.278,0.247,0.463,0.401,0.309c0.154-0.124,0.031-0.401-0.093-0.586
	c-0.093-0.216,0-0.34-0.03-0.494c0-0.062,0-0.124,0-0.185c0.093-0.031,0.216-0.062,0.339-0.093c0.217,0.371,0.401,1.327,0.525,1.698
	c0.123,0.401,0.247,0.494,0.247,0.339c0.029-0.154-0.031-0.648-0.063-0.833c-0.062-0.185-0.123-0.771-0.185-1.049
	c0-0.062-0.031-0.154-0.031-0.247c0.124-0.031,0.216-0.062,0.34-0.092c0.216,0.432,0.34,1.327,0.463,1.821
	c0.123,0.555,0.216,0.555,0.247,0.124c0-0.463-0.093-0.741-0.154-1.173c-0.03-0.247-0.03-0.617,0-0.864
	c0.063,0,0.123-0.031,0.187-0.031c0.123,0.216,0.246,0.525,0.339,0.648c0.154,0.216,0.216,0.309,0.309-0.031
	c0.063-0.247,0.063-0.525,0.094-0.71c0.062-0.031,0.153-0.031,0.216-0.031c0.031,0.031,0.031,0.093,0.063,0.124
	c0.063,0.154,0.216,0.247,0.339,0c0.031-0.062,0.063-0.124,0.094-0.185c0.153,0,0.309,0,0.463-0.031
	c0.031,0.093,0.031,0.216,0.062,0.278c0.063,0.154,0.278,0.463,0.401,0.093c0.063-0.154,0.093-0.278,0.154-0.371
	c0.063-0.031,0.153-0.031,0.217-0.031c0.03,0.062,0.062,0.154,0.092,0.247c0.093,0.309,0.278,0.401,0.371,0.124
	c0.062-0.124,0.093-0.247,0.154-0.371c0.093,0,0.216,0.031,0.309,0.031c0.031,0.093,0.031,0.186,0.093,0.278
	c0.063,0.216,0.123,0.247,0.277,0c0.062-0.092,0.124-0.185,0.186-0.247c0.123,0,0.217,0,0.341,0
	c0.029,0.123,0.062,0.277,0.062,0.432c0,0.247,0.062,1.019,0.247,0.401c0.093-0.339,0.154-0.617,0.216-0.771
	c0.154,0.031,0.31,0.031,0.494,0.062c0,0.093-0.031,0.216-0.031,0.309c0,0.154-0.153,0.339,0.063,0.524
	c0.217,0.216,0.309-0.062,0.309-0.37c0-0.124,0-0.278,0.063-0.401c0.216,0.031,0.4,0.062,0.586,0.092
	c-0.03,0.093-0.094,0.186-0.154,0.309c-0.154,0.309-0.093,0.309-0.062,0.524c0,0.216,0,0.186,0.216-0.062
	c0.153-0.154,0.277-0.463,0.463-0.679c0.093,0.031,0.186,0.062,0.309,0.062c-0.062,0.123-0.153,0.247-0.153,0.401
	c0,0.401-0.093,0.618-0.154,0.772c-0.03,0.154,0.031,0.371,0.278,0.062c0.153-0.247,0.34-0.802,0.523-1.111
	c0.124,0.062,0.247,0.093,0.37,0.124c0,0.154-0.03,0.432-0.185,0.71c-0.217,0.463-0.31,0.648-0.31,1.111s0.216,0.371,0.31-0.124
	c0.093-0.463,0.34-0.154,0.34-0.679c0-0.37,0.123-0.709,0.37-0.864c0.123,0.031,0.247,0.093,0.369,0.124
	c-0.029,0.062-0.062,0.124-0.093,0.186c-0.092,0.092,0.187,0.309-0.153,0.555c-0.31,0.278-0.093,0.556,0.063,0.587
	c0.123,0.031,0.277-0.093,0.339-0.401c0.031-0.247,0.154-0.586,0.34-0.741c0.123,0.031,0.278,0.092,0.401,0.154
	c0,0.092-0.031,0.185-0.093,0.278c-0.154,0.247-0.216,0.309-0.216,0.494c0,0.154-0.31,0.463-0.217,0.679
	c0.093,0.247,0.31,0.309,0.339-0.031c0.031-0.371,0.31-0.34,0.31-0.71c0-0.247,0.186-0.432,0.34-0.525
	c0.123,0.031,0.216,0.093,0.309,0.124c-0.029,0.092-0.093,0.216-0.153,0.309c-0.063,0.154-0.093,0.34-0.063,0.525
	s-0.186,0.463-0.124,0.617c0.031,0.154,0.187,0.216,0.34-0.124c0.154-0.309,0.278-0.833,0.464-1.111
	c0.186,0.093,0.34,0.186,0.493,0.278c-0.03,0.124-0.093,0.278-0.246,0.432c-0.277,0.278-0.247,0.433-0.37,0.556
	c-0.124,0.093-0.063,0.216,0.062,0.216s0.34-0.216,0.401-0.371c0.03-0.124,0.276-0.463,0.523-0.648
	c0.124,0.062,0.247,0.124,0.34,0.185c-0.03,0.124-0.124,0.278-0.277,0.432c-0.216,0.247-0.246,0.494-0.277,0.833
	c-0.031,0.339-0.062,0.525,0.154,0.124c0.154-0.34,0.463-0.895,0.741-1.173c0.123,0.062,0.247,0.155,0.4,0.247
	c-0.03,0.093-0.063,0.186-0.124,0.278c-0.185,0.371-0.185,0.525-0.309,0.648c-0.123,0.092-0.123,0.247,0.031,0.247
	c0.123,0.031,0.247-0.124,0.369-0.34c0.094-0.154,0.247-0.432,0.434-0.556c0.092,0.062,0.216,0.124,0.309,0.216
	c-0.03,0.124-0.093,0.278-0.153,0.401c-0.124,0.247-0.434,0.648-0.557,0.802c-0.124,0.186-0.309,0.525,0.063,0.186
	c0.34-0.34,0.741-0.71,1.142-1.05c0.063,0.062,0.154,0.124,0.217,0.185c-0.063,0.155-0.217,0.433-0.277,0.494
	c-0.123,0.093-0.247,0.093-0.277,0.309c-0.062,0.216-0.433,0.618-0.217,0.556c0.217-0.062,0.433-0.371,0.71-0.617
	c0.186-0.185,0.31-0.34,0.524-0.371c0.123,0.093,0.217,0.187,0.341,0.278c-0.124,0.154-0.371,0.309-0.434,0.432
	c-0.123,0.185-0.37,0.494-0.463,0.648c-0.062,0.154-0.062,0.37,0.186,0.124c0.246-0.278,0.587-0.371,0.711-0.648
	c0.062-0.154,0.153-0.247,0.276-0.278c0.123,0.124,0.247,0.216,0.34,0.309c-0.03,0.093-0.093,0.186-0.153,0.247
	c-0.187,0.124-0.401,0.339-0.494,0.525c-0.093,0.185-0.247,0.401-0.37,0.524c-0.154,0.093,0,0.186,0.154,0.062
	c0.185-0.093,0.556-0.371,0.739-0.618c0.124-0.216,0.247-0.401,0.464-0.401c0.124,0.124,0.217,0.216,0.309,0.339
	c-0.092,0.154-0.37,0.371-0.524,0.463c-0.276,0.186-0.493,0.34-0.616,0.525c-0.154,0.216-0.247,0.371-0.031,0.309
	c0.217-0.062,0.433-0.309,0.587-0.494c0.154-0.154,0.432-0.186,0.617-0.34c0.093-0.062,0.186-0.124,0.277-0.154
	c0.093,0.124,0.186,0.216,0.246,0.309c-0.062,0.093-0.185,0.216-0.309,0.371c-0.31,0.371-0.586,0.648-0.493,0.772
	c0.123,0.154,0.277-0.124,0.493-0.309c0.154-0.124,0.371-0.37,0.617-0.463c0.093,0.093,0.186,0.216,0.277,0.339
	c-0.093,0.093-0.186,0.247-0.34,0.309c-0.309,0.092-0.339,0.339-0.216,0.463s0.216,0.062,0.34-0.154
	c0.063-0.124,0.247-0.247,0.463-0.278c0.123,0.154,0.216,0.309,0.31,0.432c-0.123,0.092-0.31,0.124-0.401,0.185
	c-0.216,0.093-0.401,0.401-0.309,0.494c0.093,0.124,0.247,0.092,0.4-0.093c0.123-0.124,0.34-0.216,0.557-0.216
	c0.062,0.092,0.123,0.216,0.185,0.309c-0.154,0.154-0.432,0.309-0.524,0.432c-0.186,0.154-0.832,0.525-1.079,0.741
	c-0.217,0.216-0.217,0.339,0.093,0.185c0.339-0.154,1.049-0.432,1.296-0.617c0.154-0.124,0.34-0.216,0.525-0.247
	c0.062,0.124,0.122,0.247,0.185,0.371c-0.093,0.093-0.277,0.185-0.401,0.185c-0.216,0.062-0.37,0.247-0.523,0.247
	c-0.154,0-0.557,0.339-0.278,0.463c0.278,0.093,0.401-0.093,0.556-0.216c0.154-0.093,0.341-0.216,0.588-0.186
	c0.122,0,0.216-0.031,0.309-0.031c0.062,0.093,0.093,0.154,0.154,0.247c-0.123,0.124-0.277,0.247-0.463,0.309
	c-0.277,0.062-0.711,0.278-0.864,0.371c-0.187,0.092-0.557,0.37-0.71,0.524c-0.124,0.124,0.093,0.124,0.34,0.093
	c0.277-0.062,0.617-0.339,0.926-0.494c0.31-0.155,0.463,0.031,0.679-0.216c0.063-0.124,0.187-0.154,0.278-0.154
	c0.063,0.124,0.123,0.278,0.186,0.401c-0.154,0.154-0.37,0.247-0.587,0.278c-0.433,0.062-0.523,0.216-0.834,0.339
	c-0.309,0.154-0.616,0.34-0.863,0.432c-0.216,0.093-0.154,0.154,0.186,0.093c0.37-0.062,0.864-0.185,1.267-0.371
	c0.4-0.185,0.647-0.062,0.833-0.247c0.063-0.062,0.124-0.092,0.186-0.092c0.031,0.092,0.093,0.216,0.124,0.339
	c-0.154,0.154-0.401,0.278-0.618,0.309c-0.276,0.031-0.276-0.031-0.679,0.154c-0.37,0.216-0.434,0.309-0.587,0.433
	c-0.154,0.123-0.03,0.154,0.063,0.247c0.092,0.062,0.186-0.031,0.401-0.185c0.185-0.124,0.37-0.216,0.71-0.216
	c0.37,0,0.463-0.123,0.71-0.216c0.062-0.031,0.123-0.031,0.185-0.031c0.031,0.154,0.094,0.278,0.124,0.432
	c-0.186,0.124-0.524,0.339-0.803,0.309c-0.34-0.031-0.617,0.247-0.957,0.339c-0.309,0.124-0.71,0.494-0.154,0.371
	c0.557-0.123,0.833-0.278,1.143-0.278c0.278-0.031,0.618-0.216,0.927-0.247c0.03,0.124,0.063,0.216,0.093,0.34
	c-0.124,0.062-0.247,0.124-0.4,0.185c-0.494,0.154-1.111,0.339-1.297,0.432c-0.187,0.093-0.71,0.339-0.063,0.247
	c0.679-0.062,0.926,0,1.204-0.185c0.185-0.124,0.493-0.155,0.679-0.124c0.031,0.092,0.031,0.185,0.063,0.309
	c-0.154,0.063-0.401,0.124-0.586,0.186c-0.34,0.124-0.557,0.093-0.834,0.278c-0.247,0.185-0.463,0.216-0.586,0.216
	c-0.124,0-0.218,0.154,0.092,0.154c0.278,0.031,0.71-0.062,0.834-0.031c0.123,0.031,0.247,0.031,0.494-0.155
	c0.153-0.154,0.463-0.185,0.679-0.123c0.031,0.123,0.063,0.247,0.063,0.37c-0.154,0.062-0.37,0.093-0.493,0.093
	c-0.247,0-0.988,0.247-0.681,0.401c0.31,0.185,0.31,0.154,0.524,0c0.247-0.155,0.371,0.092,0.494-0.031
	c0.062-0.031,0.124-0.031,0.216,0c0.031,0.124,0.031,0.278,0.063,0.432c-0.094,0.031-0.187,0.063-0.31,0.093
	c-0.371,0.094-0.278,0.125-0.647,0.154c-0.371,0-0.278,0.094-0.71,0.063c-0.434-0.031-0.401,0.093-0.617,0.093
	c-0.187,0-0.094,0.153,0.216,0.216c0.309,0.031,0.803,0.124,1.111-0.063c0.276-0.185,0.34,0.154,0.679-0.029
	c0.093-0.063,0.216-0.094,0.309-0.063c0.031,0.186,0.031,0.37,0.031,0.557c-0.093,0-0.186-0.031-0.278-0.063
	c-0.246-0.092-0.246,0.031-0.556,0.031c-0.309,0-0.524,0.062-0.71,0.092C80.283,44.361,80.345,44.484,80.592,44.484L80.592,44.484z
	 M64.911,34.545c0,0,0.309,0.926-0.494,1.759C64.417,36.304,64.603,35.07,64.911,34.545L64.911,34.545z M65.189,30.501
	c0,0,0.557,0.186,0.494,1.297c0,0-0.123,0.123-0.494,0.092C65.189,31.89,65.374,31.211,65.189,30.501L65.189,30.501z M66.701,32.786
	c0,0,0.463,0.278,0.277,0.71c0,0-0.217,0.031-0.309-0.186C66.671,33.31,66.701,33.063,66.701,32.786L66.701,32.786z M68.337,36.613
	h-0.74l0.03-1.019L68.337,36.613z M67.906,34.854c0,0,2.037,1.173,2.531,1.513c0,0-0.494,0.247-1.42,0.185L67.906,34.854z
	 M88.001,45.227c0-0.434-0.34-0.772-0.772-0.772c-0.4,0-0.74,0.34-0.74,0.772c0,0.4,0.34,0.74,0.74,0.74
	C87.661,45.967,88.001,45.627,88.001,45.227L88.001,45.227z M87.754,45.227L87.754,45.227l-1.02-0.094
	c0.03-0.247,0.246-0.432,0.493-0.432C87.537,44.701,87.754,44.916,87.754,45.227L87.754,45.227z M42.069,36.521
	c-1.508-0.454-2.771,1.033-2.771,2.454c0,0.338,0.074,0.689,0.185,1.007c0.14,0.4,0.142,0.305-0.162,0.305
	c-0.885,0-0.613-1.192-0.391-1.653c0.303-0.628,0.786-1.385,0.609-2.121c-0.135-0.563-0.647-0.501-1.083-0.795
	c-0.369-0.182-1.388-0.688-1.315,0.228c0.049,0.636,0.93,0.245,0.481-0.197c0-0.366,0.536,0.137,0.433,0.555
	c-0.15,0.595-0.746,1.003-0.864,1.605c-0.467,1.553,0.612,2.175,1.884,2.608c1.152,0.393,2.321,0.966,3.334-0.046
	C43.516,39.364,43.747,37.192,42.069,36.521z M42.81,39.237c-0.258,0.766-3.24-0.236-2.995-0.988
	C39.815,37.756,43.079,38.415,42.81,39.237z M41.173,31.829c0.372-0.739,1.037-0.67,1.698-0.339c0.181,0.12,0.601,0.285,0.463,0.555
	c-0.407,0.41-0.756,0.778-0.756,1.401c0,2.527,3.75,1.632,2.946-0.382c0.159,0.079,0.287,0.237,0.434,0.309
	c0.263-0.529,0.532-1.058,0.957-1.482c-0.304-0.201-0.681-0.244-0.984-0.467c-0.355-0.261-0.679-0.585-1.053-0.826
	c-1.044-0.67-2.328-1.072-3.312-0.062c-0.563,0.58-1.301,2.551,0.042,2.767C42.896,33.509,42.643,30.945,41.173,31.829z
	 M44.106,33.279c-0.875-0.438-0.8-1.465,0.278-0.926C45.41,32.867,44.857,34.037,44.106,33.279z M47.625,27.26
	c0.622-1.244,2.353-1.163,3.363-0.555c0.393,0.261,1.178,0.708,0.617,1.034c-0.573,0.334-1.065,0.729-1.48,1.25
	c-0.441-0.588-1.008-1.739-1.944-1.42c-0.952,0,1.141,1.809,1.296,1.944c-0.671,0.335-1.219,0.816-1.697,1.389
	c-1.069-1.603-2.257-3.164-3.734-4.414c0.386-0.386,0.751-0.835,0.926-1.358c0.101-0.397,0.229-0.963,0.513-1.273
	c0.26-0.283,0.666-0.417,0.938-0.054c0.354,0.534-0.438,0.86-0.617,0.309c-0.418,1.239,0.662,2.016,1.327,2.902
	c-0.208-0.73-0.426-1.543-0.02-2.251c0.386-0.669,1.289-0.949,1.81-0.28c1.292,1.292-1.358,2.229-1.358,0.833
	C47.036,25.579,47.381,26.899,47.625,27.26z M55.249,24.204c0.283,0.565,0.901,1.15,1.578,1.096
	c0.667-0.053,1.586-0.694,1.523-1.436c-0.045-0.549-0.77-1.212-1.127-0.494c-0.343,0.458,0.508,0.972,0.771,0.432
	c0.15,0.303-0.063,0.627-0.401,0.605c-0.445-0.027-0.64-0.507-0.799-0.849c-0.501-1.076-0.645-2.362-0.807-3.523
	c-0.69,0.416-1.422,0.688-2.223,0.803c0.308,0.463,1.749,3.404,0.926,3.612c-0.917,0.304-1.329-2.973-1.266-3.488
	c-0.769,0.44-1.589,0.77-2.47,0.895c1.187,1.013,0.775,2.68,1.667,3.797c0.414,0.619,1.122,0.962,1.81,0.513
	C55.073,25.751,55.136,24.876,55.249,24.204z M62.072,19.049c-0.705,0.089-1.492,0.234-2.19,0c0.391,1.709,0.214,3.561,0,5.279
	c0.681-0.105,1.45-0.114,2.129,0c-0.21-0.644-0.312-2.036-0.092-2.686c0.46,0.23,0.99,0.23,1.45,0c0,0.84,0.116,1.88-0.154,2.686
	c0.707-0.119,1.455-0.129,2.161,0c-0.318-1.72-0.313-3.563,0.03-5.279c-0.659,0.221-1.495,0.154-2.16,0
	c0.086,0.704,0.123,1.391,0.123,2.099c-0.197,0-0.371-0.116-0.556-0.162c-0.305-0.076-0.637,0.09-0.926,0.162
	C61.886,20.455,61.934,19.728,62.072,19.049z M67.226,21.92c-0.472,1.902,1.054,3.111,2.778,3.303c0.599,0,1.849-0.19,1.744-1.077
	c-0.128-1.095-1.496,0.12-0.633,0.336c-0.367,0.553-1.242,0.441-1.637-0.031c-0.35-0.527-0.468-1.162-0.366-1.787
	c0.122-0.76,1.281-3.093,2.22-1.702c-0.688-0.677-1.538,0.697-1.34,1.293c0.398,1.196,1.603,0.427,1.957-0.274
	C72.537,19.327,67.532,19.255,67.226,21.92z M75.931,24.76c0.31-0.458,1.272-1.016,1.821-0.741
	c-1.192,0.479,0.071,2.415,1.123,1.169c0.54-0.64,0.199-1.427-0.537-1.704c-0.879-0.33-1.66,0.262-2.345,0.72
	c0.49-0.825,1.051-2.398,2.282-2.223c-0.259,0.258-0.21,0.81,0.278,0.648c0.412-0.206,0.407-0.784,0-0.988
	c-0.313-0.21-0.784-0.124-1.142-0.124c-0.728,0-1.32-0.073-1.977-0.401c-0.688,1.835-1.793,3.414-2.871,5.032
	c0.691,0.23,1.335,0.595,1.853,1.111c0.191-0.429,0.727-2.566,1.421-1.883c0.286,0.876-0.063,1.67-0.711,2.315
	c0.752,0.213,1.385,0.679,1.976,1.173c0-0.173,0.266-0.483,0.328-0.646c0.191-0.485,0.291-1.028,0.197-1.547
	C77.456,25.721,76.876,24.994,75.931,24.76z M81.365,30.933c-0.124,0.155-0.247,0.34-0.371,0.494
	c-0.094,0.185-0.186,0.371-0.217,0.525c-0.062,0.185-0.062,0.37-0.03,0.556c0,0.185,0.093,0.339,0.217,0.524
	c0.154,0.154,0.277,0.309,0.432,0.432c0.154,0.124,0.31,0.216,0.494,0.309c0.154,0.062,0.34,0.092,0.524,0.062
	c0.153,0,0.34-0.062,0.494-0.216c0.153-0.093,0.246-0.247,0.309-0.401c0.062-0.154,0.031-0.309-0.093-0.494
	c-0.094-0.092-0.186-0.154-0.339-0.185c-0.124-0.031-0.247,0-0.371,0.093c-0.094,0.092-0.154,0.185-0.154,0.309
	c-0.03,0.124,0,0.247,0.093,0.339c0.031,0.031,0.063,0.062,0.093,0.093c0.063,0.031,0.094,0.062,0.154,0.062
	c-0.093,0.062-0.186,0.124-0.309,0.124c-0.093,0-0.216-0.031-0.278-0.154c-0.093-0.124-0.154-0.247-0.123-0.371
	c0-0.124,0.063-0.247,0.154-0.37c0.062-0.124,0.154-0.216,0.276-0.309c0.094-0.093,0.187-0.186,0.278-0.247
	c0.277-0.216,0.524-0.401,0.833-0.586c0.278-0.186,0.556-0.34,0.864-0.525c0.186-0.124,0.4-0.216,0.647-0.309
	c0.217-0.124,0.434-0.216,0.648-0.309c-0.154-0.154-0.309-0.278-0.433-0.432c-0.154-0.124-0.277-0.278-0.401-0.433
	c-0.123-0.154-0.216-0.309-0.339-0.494c-0.093-0.154-0.187-0.34-0.278-0.525c-0.093,0.093-0.185,0.216-0.276,0.309
	c-0.124,0.124-0.247,0.216-0.341,0.309c-0.123,0.124-0.247,0.216-0.37,0.309c-0.093,0.092-0.216,0.185-0.309,0.278
	c-0.124,0.092-0.309,0.216-0.494,0.37c-0.186,0.124-0.37,0.247-0.556,0.34c-0.187,0.092-0.34,0.154-0.494,0.185
	c-0.154,0.031-0.247,0-0.339-0.093c-0.063-0.092-0.063-0.154-0.063-0.247c0-0.062,0.031-0.154,0.094-0.247
	c0.03-0.062,0.124-0.154,0.186-0.247c0.093-0.093,0.186-0.154,0.309-0.247c0.094-0.062,0.187-0.154,0.277-0.216
	c0.093-0.062,0.187-0.124,0.278-0.185c0.093-0.031,0.186-0.093,0.247-0.124c0.062-0.063,0.123-0.063,0.153-0.093
	c0.217-0.124,0.464-0.247,0.71-0.371c0.247-0.154,0.493-0.247,0.74-0.309c-0.154-0.154-0.339-0.309-0.493-0.494
	c-0.124-0.154-0.277-0.309-0.433-0.494c-0.123-0.154-0.247-0.339-0.339-0.524c-0.124-0.155-0.247-0.371-0.34-0.556
	c-0.094,0.247-0.247,0.494-0.434,0.679c-0.185,0.216-0.4,0.401-0.617,0.587c-0.276,0.185-0.556,0.37-0.833,0.524
	s-0.556,0.34-0.803,0.525c-0.153,0.124-0.309,0.278-0.433,0.432c-0.123,0.154-0.216,0.34-0.31,0.525
	c-0.062,0.185-0.093,0.37-0.062,0.556c0,0.185,0.093,0.37,0.216,0.556c0.154,0.185,0.31,0.309,0.494,0.401
	c0.186,0.062,0.401,0.124,0.617,0.124c0.186,0.031,0.4,0,0.617-0.031C80.963,30.995,81.179,30.964,81.365,30.933L81.365,30.933z
	 M85.223,37.755c-0.186-0.031-0.401-0.062-0.618-0.093c-0.216-0.062-0.399-0.124-0.617-0.185c-0.185-0.093-0.34-0.216-0.493-0.34
	c-0.153-0.154-0.277-0.339-0.34-0.555c-0.062-0.216-0.062-0.401-0.03-0.587c0.062-0.185,0.153-0.37,0.277-0.494
	c0.123-0.154,0.277-0.278,0.464-0.401c0.185-0.093,0.34-0.185,0.523-0.247c0.31-0.092,0.617-0.185,0.957-0.216
	c0.309-0.062,0.648-0.124,0.957-0.216c0.277-0.092,0.524-0.216,0.771-0.339c0.246-0.123,0.463-0.278,0.647-0.494
	c0.063,0.463,0.154,0.896,0.31,1.297c0.062,0.185,0.123,0.401,0.216,0.586c0.093,0.216,0.186,0.401,0.277,0.586
	c-0.247,0-0.523,0-0.803,0.031c-0.277,0.062-0.556,0.093-0.771,0.124c-0.063,0-0.124,0.031-0.187,0.031
	c-0.093,0.031-0.186,0.031-0.277,0.062c-0.123,0-0.217,0.031-0.34,0.062c-0.124,0.031-0.216,0.062-0.34,0.093
	c-0.123,0.062-0.247,0.092-0.339,0.154c-0.124,0.031-0.217,0.092-0.31,0.154c-0.063,0.062-0.123,0.124-0.154,0.216
	c-0.03,0.062-0.03,0.154,0,0.216c0.031,0.124,0.124,0.216,0.278,0.216c0.153,0.031,0.34,0.031,0.523,0
	c0.216-0.031,0.434-0.062,0.648-0.124c0.216-0.062,0.4-0.123,0.587-0.185c0.123-0.031,0.246-0.092,0.37-0.154
	c0.153-0.031,0.309-0.092,0.432-0.154c0.155-0.062,0.31-0.124,0.433-0.185c0.123-0.063,0.247-0.124,0.37-0.187
	c0.031,0.187,0.063,0.401,0.094,0.587c0.03,0.185,0.093,0.401,0.153,0.586c0.063,0.185,0.123,0.37,0.216,0.556
	c0.094,0.154,0.187,0.339,0.278,0.524c-0.247,0-0.463,0.031-0.741,0.062c-0.247,0-0.493,0.031-0.71,0.093
	c-0.339,0.062-0.647,0.123-0.986,0.185c-0.341,0.062-0.648,0.154-0.957,0.278c-0.124,0.031-0.247,0.062-0.37,0.124
	c-0.124,0.062-0.278,0.123-0.371,0.216c-0.123,0.062-0.216,0.154-0.277,0.278c-0.061,0.124-0.062,0.247,0,0.401
	c0.03,0.124,0.123,0.216,0.216,0.247c0.123,0.031,0.217,0,0.341-0.031c-0.063-0.031-0.094-0.062-0.124-0.092
	c-0.03-0.062-0.063-0.093-0.063-0.154c-0.031-0.093-0.031-0.216,0-0.34c0.063-0.092,0.154-0.185,0.278-0.216
	c0.123-0.062,0.276-0.031,0.37,0.031c0.123,0.062,0.216,0.154,0.247,0.278c0.062,0.216,0.062,0.371-0.063,0.494
	c-0.124,0.155-0.247,0.247-0.433,0.309c-0.187,0.063-0.37,0.063-0.557,0c-0.153-0.031-0.309-0.124-0.463-0.247
	c-0.124-0.124-0.247-0.278-0.34-0.432c-0.123-0.185-0.185-0.371-0.247-0.556c-0.062-0.216-0.093-0.401-0.062-0.586
	c0.03-0.185,0.124-0.34,0.216-0.494c0.124-0.154,0.247-0.278,0.4-0.401C84.883,38.002,85.037,37.879,85.223,37.755L85.223,37.755z
	 M90.161,34.761c-0.123-0.309-0.277-0.494-0.433-0.618c-0.186-0.124-0.371-0.154-0.524-0.124c-0.187,0.062-0.341,0.154-0.433,0.309
	c-0.093,0.154-0.153,0.309-0.186,0.524c-0.031,0.185-0.031,0.401,0,0.648c0.031,0.216,0.093,0.463,0.154,0.71l0.03,0.031
	c0.092,0.247,0.186,0.525,0.339,0.741c0.124,0.247,0.278,0.463,0.465,0.648c0.153,0.154,0.339,0.278,0.523,0.371
	c0.216,0.062,0.401,0.092,0.617,0c0.216-0.062,0.37-0.186,0.401-0.401c0.062-0.216,0.062-0.463-0.031-0.71
	c-0.063-0.216-0.186-0.401-0.339-0.556c-0.124-0.154-0.31-0.216-0.494-0.216c0.093,0.062,0.153,0.154,0.216,0.278
	c0.031,0.093,0.031,0.186,0,0.278c-0.062,0.093-0.123,0.154-0.247,0.216c-0.154,0.031-0.309,0.031-0.432,0
	c-0.124-0.062-0.247-0.124-0.34-0.216c-0.094-0.124-0.154-0.216-0.247-0.371c-0.063-0.123-0.094-0.247-0.154-0.37
	c-0.031-0.093-0.063-0.216-0.093-0.339c-0.03-0.093-0.03-0.216,0-0.309c0.03,0.062,0.062,0.154,0.124,0.247
	c0.062,0.062,0.123,0.154,0.185,0.216c0.093,0.092,0.155,0.154,0.278,0.185c0.093,0.031,0.186,0.031,0.309,0
	c0.123-0.031,0.187-0.093,0.247-0.154c0.063-0.062,0.093-0.154,0.123-0.247c0.031-0.093,0.031-0.216,0.031-0.339
	c0-0.093-0.031-0.216-0.063-0.34L90.161,34.761z M48.891,65.506c0.67-0.783,0.498-1.807-0.073-2.591
	c-0.626-0.86-1.45-1.007-2.428-1.144c-0.024,0,0.394-0.553,0.587-0.58c0.626-0.088,1.021,0.437,1.39,0.856
	c0.297,0.396,0.657,0.804,1.114,1.015c0.839,0.391,0.942-0.154,1.54-0.552c0.466-0.235,0.916-0.747,0.463-1.204
	c-0.324-0.215-0.899,0.053-0.524,0.434c0.241,0.24,0.433-0.223,0.433,0.246c-0.491,0.371-0.931-0.217-1.185-0.586
	c-0.601-0.873-1.56-1.887-2.726-1.245c-0.66,0.362-1.144,1.09-1.625,1.651c-0.806,0.938-1.374,1.938-0.423,3.082
	C46.222,66.068,47.822,66.575,48.891,65.506z M46.081,65.166c-0.617-0.617,1.57-2.928,2.1-2.407
	C48.704,63.282,46.72,65.49,46.081,65.166z M50.527,70.754c-1.642-0.82-0.373-3.521,0.783-2.543
	c1.107,0.938-0.428,2.725-1.215,1.523c-0.113,0.232,0.253,0.711,0.494,0.711c0.499,0.283,1.023-0.029,1.37-0.395
	c0.593-0.624,0.796-1.604,0.976-2.416c-1.043,0.146-2.005-0.091-2.091-1.347c-0.074-1.08,0.825-1.8,0.825-2.883
	c0.829,0,1.292,1.055,2.161,0.834c-0.47,0.624-1.068,1.159-1.267,1.944c-0.198,0.586,0.231,1.504,0.699,0.641
	c0.415-0.768,0.833-1.524,1.37-2.215c0.49,0.381,1.115,0.771,1.76,0.771c-0.568,0.758-1.144,1.48-1.544,2.346
	c-0.402,0.805-0.488,1.779-0.987,2.531c-0.081,0.16-0.252,0.648-0.463,0.648c-0.116,0.033-0.585-0.225-0.788-0.213
	C51.938,70.732,51.177,71.079,50.527,70.754z M62.287,66.648c-1.724-0.219-3.399-0.521-5.095-0.896
	c1.038,0.957,1.87,4.007,0.218,4.848c1.581-1.9-2.59-1.828-1.327,0.062c0.684,0.817,1.806,0.192,2.396-0.39
	c0.75-0.74,1.364-2.021,1.492-3.068c0.134,1.318-0.255,3.025-0.803,4.229c0.724,0.103,1.452,0.062,2.13,0.401
	C61.537,70.07,61.818,68.37,62.287,66.648z M63.615,66.71c-0.351,0.031-0.705,0.001-1.051-0.062c0.394,1.696,0.62,3.504,0.464,5.246
	c0.798-0.11,1.531-0.146,2.339-0.188c0.692-0.035,1.349-0.26,1.776-0.832c1.154-1.541-0.957-3.65-2.387-2.221
	c0-0.752-0.063-1.436,0.062-2.191C64.427,66.593,64.021,66.65,63.615,66.71z M64.757,69.889c-0.121-0.354-0.025-1.255,0.556-0.863
	c0.374,0.371,0.463,0.984,0.463,1.481c0,0.272-0.053,0.933-0.532,0.726C64.815,71.049,64.757,70.277,64.757,69.889z M73.492,68.5
	c-0.246-0.982-1.332-0.884-2.131-0.771c0.448-0.297,0.907-0.604,1.02-1.172c0.113-0.558-0.281-1.138-0.821-1.252
	c-0.622-0.13-1.188,0.211-1.771,0.387c-0.646,0.258-1.279,0.326-1.944,0.494c0.763,1.533,1.321,3.347,1.45,5.063
	c0.882-0.297,1.715-0.539,2.624-0.741C72.923,70.257,73.71,69.59,73.492,68.5z M71.455,70.291c-0.649,0-1.187-1.572-0.991-2.038
	C70.655,67.795,72.717,69.65,71.455,70.291z M70.313,65.907c1.161-0.283,0.393,2.319,0.021,1.948
	C70.012,67.535,69.768,66.041,70.313,65.907z M74.11,64.426c1.015,0,1.472,1.311,0.306,1.59c-0.736,0.178-0.979-0.629-0.837-1.188
	c0.146-0.58,0.688-1.046,1.211-1.287c2.605-1.204,3.13,2.193,4.444,3.509c-0.569,0.23-1.082,0.527-1.573,0.896
	c0-0.06-0.113-0.432-0.217-0.432c-0.573,2.354-4.075,0.894-2.624-1.297c0.402-0.48,1.514-0.471,1.063-1.173
	C75.484,64.425,74.796,63.739,74.11,64.426z M76.055,67.02c0.187,0.186,0.455,0.692,0.803,0.463c0.297-0.199,0.131-0.664,0-0.926
	C76.459,65.374,75.456,65.84,76.055,67.02z M82.074,67.48c0.475-0.713,1.072-1.146,1.759-1.636c-0.89-0.59-1.716-1.347-2.47-2.1
	c1.688-0.208,2.151-2.082,0.987-3.24c-1.031-1.239-3.241-1.071-3.241,0.802c-0.357-0.285-0.58-0.692-0.863-1.05
	c-0.111-0.221-0.277-0.497-0.217-0.76c0.017-0.065,0.182-0.342,0.246-0.144c0.198,0.599,0.94,0.385,0.745-0.162
	c-0.28-0.784-1.204-0.069-1.411,0.367c-0.307,0.646-0.292,1.385-0.541,2.049c-0.163,0.434,0.137,0.445,0.479,0.722
	c0.395,0.315,0.763,0.657,1.116,1.019C79.915,64.627,81.014,66.042,82.074,67.48z M80.129,62.543
	c-0.305-0.309-0.889-0.956-0.714-1.443c0.222-0.617,1.159,0.236,1.361,0.43c0.274,0.259,1.345,1.307,0.896,1.755
	C81.255,63.701,80.36,62.848,80.129,62.543z"/>
</svg>
