<?xml version="1.0" encoding="utf-8"?>
<!-- Generator: Adobe Illustrator 22.1.0, SVG Export Plug-In . SVG Version: 6.00 Build 0)  -->
<svg version="1.1" id="Слой_1" xmlns="http://www.w3.org/2000/svg" xmlns:xlink="http://www.w3.org/1999/xlink" x="0px" y="0px"
	 viewBox="0 0 127.6 85" style="enable-background:new 0 0 127.6 85;" xml:space="preserve">
<style type="text/css">
	.st0{fill:#979898;}
</style>
<path class="st0" d="M53.2,63.4c-0.8,0-1.6,0.1-2.5,0.1c-0.2-0.4-0.1-0.8,0.2-1.1c0.2-0.2,0.2-0.4,0.2-0.6c-0.1-0.3,0-0.5,0-0.8
	c-0.1-1.3-0.1-2.6-0.2-3.9c0,0,0-0.1,0-0.1c0-1.1-0.1-2.2-0.1-3.4c0-0.2-0.1-0.4-0.3-0.5c-0.4-0.3-0.3-0.7-0.3-1
	c0,0,0.1-0.1,0.2-0.1c1.2-0.1,2.4-0.2,3.6-0.1c0.7,0,1.3,0.5,1.7,1.2c0.2,0.5,0.2,1,0.3,1.5c0.1,0.5,0,1,0.1,1.5
	c0,0.5-0.2,1-0.6,1.4c-0.2,0.2-0.2,0.2,0,0.4c0.4,0.3,0.6,0.7,0.6,1.1c0.1,0.9,0.1,1.8,0.2,2.8c0,0.1,0.1,0.3,0.1,0.3
	c0.4,0.2,0.4,0.5,0.4,0.8c0,0.1,0,0.2,0,0.4c-0.5,0-0.9,0.1-1.4,0.1c-0.3,0-0.6-0.3-0.7-0.6c0-1.1-0.1-2.2-0.2-3.4
	c0-0.5-0.4-0.8-0.9-0.8c-0.3,0-0.7,0-1,0.1c-0.1,0-0.2,0.1-0.2,0.2c0,0.7,0.1,1.5,0.1,2.2c0,0.3,0,0.6,0,0.9c0,0.1,0.1,0.3,0.1,0.3
	C53.2,62.5,53.3,62.9,53.2,63.4z M53,53.2C53,53.2,53,53.2,53,53.2c-0.2,0-0.3,0-0.5,0c-0.3,0-0.4,0.1-0.3,0.4
	c0,0.4,0.1,0.8,0.1,1.2c0,0.7,0.1,1.5,0.1,2.2c0,0.2,0.1,0.2,0.3,0.2c0.3,0,0.7,0,1-0.1c0.2,0,0.4-0.1,0.5-0.3
	c0.2-0.3,0.2-0.7,0.2-1.1c0-0.3-0.1-0.7-0.1-1c0-0.3-0.1-0.6-0.1-0.9c-0.1-0.4-0.3-0.6-0.7-0.6C53.4,53.2,53.2,53.2,53,53.2z
	 M85.9,64.4c-0.5-0.1-0.9-0.1-1.2-0.1c-0.4-0.1-0.6-0.4-0.7-0.8c-0.2-0.5-0.4-0.9-0.5-1.4c-0.2-0.4-0.3-0.9-0.5-1.3
	c-0.2-0.4-0.3-0.8-0.5-1.3c-0.2,0.2-0.3,0.4-0.3,0.7c0,0.6-0.1,1.2-0.2,1.8c0,0.2,0,0.3,0,0.5c0,0.2,0,0.4,0.2,0.5
	c0.3,0.3,0.3,0.6,0.2,1c0,0.1-0.1,0.1-0.2,0.1c-0.1,0-0.3,0-0.4-0.1c-0.6,0-1.1-0.1-1.7-0.1c-0.1,0-0.2-0.1-0.2-0.2
	c0-0.3,0.1-0.7,0.3-0.9c0.2-0.2,0.3-0.4,0.3-0.7c0.1-1,0.2-1.9,0.3-2.9c0-0.3,0.1-0.6,0.1-1c0.1-0.8,0.2-1.7,0.2-2.5
	c0-0.3,0.1-0.6,0.1-0.9c0-0.2,0.1-0.5,0.1-0.7c0-0.2,0-0.4-0.2-0.5c-0.2-0.2-0.3-0.5-0.3-0.9c0-0.1,0.1-0.2,0.2-0.2
	c0.7,0.1,1.4,0.1,2.1,0.2c0.2,0,0.3,0.1,0.3,0.4c-0.1,0.3-0.1,0.6-0.4,0.8c-0.2,0.1-0.2,0.3-0.3,0.5c0,0.6-0.1,1.2-0.2,1.8
	c0,0.2,0,0.5,0,0.7c0,0,0.1,0,0.1,0c0.2-0.3,0.5-0.7,0.7-1c0.5-0.8,1.1-1.6,1.6-2.4c0.2-0.3,0.6-0.6,1-0.5c0.2,0,0.4,0,0.6,0
	c0.3,0,0.3,0.1,0.3,0.4c0,0.1-0.1,0.2-0.1,0.4c0,0.2-0.2,0.4-0.3,0.5c-0.4,0.1-0.6,0.4-0.8,0.7c-0.4,0.7-0.9,1.3-1.3,2
	c-0.2,0.3-0.4,0.6-0.6,0.9c-0.2,0.3-0.1,0.5,0,0.8c0.2,0.6,0.4,1.1,0.7,1.7c0.3,0.7,0.6,1.4,0.9,2.1c0.1,0.3,0.3,0.6,0.6,0.8
	c0.1,0.1,0.2,0.2,0.2,0.3C86,63.8,85.9,64.1,85.9,64.4z M41.4,64.3c-0.2-0.4-0.1-0.8,0.2-1.2c0.1-0.1,0.1-0.2,0.1-0.3
	c-0.1-0.4-0.2-0.8-0.3-1.2c0-0.1-0.3-0.2-0.4-0.2c-0.6,0-1.1,0.1-1.7,0.2c-0.1,0-0.2,0.1-0.2,0.1c0,0.1-0.1,0.2-0.1,0.3
	c0,0.4,0,0.7,0,1.1c0,0.1,0.1,0.3,0.2,0.3c0.4,0.3,0.4,0.6,0.4,1c-0.2,0-0.5,0.1-0.7,0.1c-0.5,0.1-1.1,0.1-1.6,0.2
	c-0.2,0-0.3,0-0.3-0.2c0-0.4,0.1-0.7,0.3-0.9c0.1-0.1,0.1-0.2,0.1-0.4c0.1-0.6,0.1-1.2,0.1-1.8c0.1-1.1,0.2-2.2,0.2-3.3
	c0-0.5,0.1-0.9,0.1-1.4c0.1-0.6,0.1-1.3,0.2-1.9c0-0.3,0-0.5-0.3-0.6c-0.1-0.1-0.2-0.3-0.2-0.4c0-0.1,0-0.2-0.1-0.3
	c0-0.2,0-0.3,0.2-0.3c0.6-0.1,1.3-0.1,1.9-0.2c0.4,0,0.7,0.2,0.8,0.6c0.2,0.7,0.4,1.4,0.6,2.1c0.1,0.5,0.2,0.9,0.4,1.4
	c0.2,0.6,0.4,1.1,0.5,1.7c0.1,0.5,0.2,0.9,0.4,1.4c0.1,0.3,0.2,0.6,0.3,0.9c0.1,0.3,0.2,0.7,0.3,1c0.1,0.4,0.2,0.8,0.6,1
	c0.3,0.2,0.4,0.6,0.4,0.9c0,0.1-0.1,0.1-0.1,0.1C43,64.1,42.2,64.2,41.4,64.3C41.4,64.3,41.4,64.3,41.4,64.3z M39.4,54.7
	C39.4,54.7,39.4,54.7,39.4,54.7c-0.1,0.1-0.1,0.1-0.1,0.2c0,1.1-0.1,2.1-0.1,3.2c0,0.1,0,0.1,0,0.2c0,0.6-0.1,1.2-0.1,1.8
	c0,0.2,0.1,0.3,0.3,0.2c0.5-0.1,0.9-0.1,1.4-0.2c0.2,0,0.2-0.1,0.2-0.2c0-0.2-0.1-0.4-0.2-0.6c-0.1-0.3-0.2-0.6-0.3-1
	c-0.1-0.3-0.2-0.7-0.3-1c-0.1-0.5-0.3-0.9-0.4-1.4C39.7,55.5,39.6,55.1,39.4,54.7z M43.4,52.6c0.3,0,0.6-0.1,0.9-0.1
	c0.9-0.1,1.8-0.1,2.6-0.2c0.8,0,1.5,0.1,1.9,0.8c0.2,0.3,0.3,0.6,0.4,1c0.1,0.5,0.1,0.9,0.1,1.4c0,0.2,0.1,0.5,0.1,0.7
	c0.1,0.7-0.1,1.4-0.6,2c-0.3,0.3-0.6,0.5-1,0.5c-0.6,0.1-1.1,0.1-1.7,0.2c-0.1,0-0.2,0.2-0.2,0.3c0,0.6,0.1,1.2,0.2,1.7
	c0,0.3,0,0.6,0,0.9c0,0.3,0,0.7,0.4,1c0.3,0.2,0.3,0.5,0.3,0.9c0,0.1-0.1,0.2-0.2,0.2c-0.7,0.1-1.4,0.1-2.1,0.2
	c-0.2,0-0.3-0.1-0.3-0.3c0-0.3,0.1-0.6,0.3-0.8c0.1-0.1,0.2-0.3,0.2-0.5c-0.1-0.7-0.1-1.4-0.1-2c0-0.4-0.1-0.7-0.1-1.1
	c-0.1-0.6-0.1-1.3-0.2-1.9c0,0,0-0.1,0-0.1c0-0.7-0.1-1.4-0.1-2.1c0-0.4-0.1-0.8-0.1-1.2c0-0.1-0.1-0.2-0.2-0.3
	C43.4,53.4,43.4,53,43.4,52.6z M48,56.3c-0.1-0.7-0.2-1.4-0.3-2.1c0-0.4-0.5-0.7-0.8-0.7c-0.3,0-0.7,0.1-1,0.1
	c-0.2,0-0.3,0.1-0.3,0.3c0.1,0.5,0.1,1,0.1,1.5c0,0.6,0.1,1.2,0.1,1.9c0,0.2,0.1,0.3,0.3,0.3c0.3,0,0.6,0,0.9-0.1
	c0.3,0,0.6-0.1,0.7-0.5C47.9,56.8,47.9,56.6,48,56.3z M69.2,55.1c-0.4,0-0.7-0.1-1-0.1c-0.3-0.1-0.5-0.4-0.6-0.7c0-0.1,0-0.3,0-0.4
	c0-0.6-0.1-0.7-0.6-0.9c-0.5-0.2-1-0.1-1.4,0.3c-0.1,0.1-0.2,0.3-0.2,0.4c0,0.5,0,0.9,0,1.4c0,0.2,0.1,0.4,0.3,0.6
	c0.5,0.4,1,0.8,1.6,1.1c0.7,0.5,1.4,1,1.8,1.8c0.1,0.2,0.2,0.4,0.2,0.6c0,0.8,0.1,1.5,0,2.3c-0.1,0.7-0.5,1.2-1.1,1.6
	c-0.7,0.3-1.4,0.4-2.1,0.3c-0.6-0.1-1.2-0.3-1.7-0.7c-0.3-0.3-0.6-0.7-0.6-1.2c0-0.5,0-0.9,0-1.4c0-0.2,0.1-0.2,0.2-0.2
	c0.3,0,0.6,0,0.8,0.1c0.4,0.1,0.5,0.3,0.5,0.7c0,0.2,0,0.4,0,0.5c0,0.4,0.2,0.7,0.5,0.8c0.5,0.2,1,0.2,1.4-0.1
	c0.3-0.2,0.5-0.4,0.5-0.8c0-0.5,0-1,0-1.5c0-0.5-0.2-0.8-0.5-1.1c-0.5-0.4-1-0.7-1.4-1c-0.5-0.3-1-0.6-1.4-1.1
	c-0.2-0.3-0.4-0.6-0.4-1c-0.1-0.7,0-1.4,0-2.1c0.1-0.6,0.4-1.1,1-1.4c0.6-0.3,1.3-0.4,2-0.3c0.8,0.1,1.6,0.4,2,1.3
	c0.1,0.2,0.2,0.4,0.2,0.6C69.2,53.9,69.2,54.5,69.2,55.1z M77.6,60.4c0-0.1,0-0.2,0-0.2c0.1-0.6-0.2-1.2-0.7-1.5
	c-0.5-0.4-1-0.8-1.5-1.1c-0.5-0.4-0.9-0.8-1.2-1.3c-0.1-0.2-0.2-0.5-0.1-0.7c0-0.6,0-1.2,0.1-1.8c0.1-0.7,0.6-1.4,1.4-1.6
	c0.5-0.2,1.1-0.2,1.6-0.1c0.7,0.1,1.4,0.4,1.8,1c0.2,0.3,0.3,0.7,0.3,1.1c0,0.4,0,0.9,0,1.3c0,0.1-0.1,0.2-0.1,0.2
	c-0.4,0-0.7,0-1.1-0.2c-0.3-0.2-0.4-0.4-0.4-0.7c0-0.1,0-0.3,0-0.4c0-0.5,0-0.7-0.5-0.9c-0.4-0.2-0.9-0.1-1.3,0.1
	c-0.2,0.1-0.3,0.3-0.3,0.5c0,0.5,0,0.9-0.1,1.4c0,0.4,0.2,0.7,0.5,0.9c0.5,0.4,1.1,0.8,1.6,1.3c0.6,0.5,1.1,1,1.4,1.7
	c0.1,0.2,0.1,0.4,0.1,0.7c0,0.7-0.1,1.4-0.1,2c-0.1,0.7-0.5,1.2-1.2,1.5c-0.8,0.4-1.6,0.4-2.4,0.2c-0.7-0.2-1.3-0.4-1.7-1.1
	c-0.1-0.3-0.3-0.6-0.3-0.9c0-0.5,0-1,0.1-1.4c0,0,0.1-0.1,0.2-0.1c0.2,0,0.4,0.1,0.6,0.1c0.4,0,0.7,0.3,0.7,0.7c0,0.2,0,0.4,0,0.6
	c0,0.5,0.2,0.8,0.7,1c0.5,0.2,1,0.1,1.4-0.2c0.1-0.1,0.2-0.3,0.3-0.4C77.6,61.3,77.6,60.9,77.6,60.4C77.6,60.4,77.6,60.4,77.6,60.4z
	 M59.8,51.6c0.8,0,1.5,0,2.3,0c0.3,0,0.5,0.1,0.5,0.5c0,0.4,0,0.9,0,1.3c0,0.1,0,0.2-0.2,0.2c-0.3,0-0.5,0-0.8,0
	c-0.2,0-0.4-0.2-0.4-0.4c0-0.2-0.1-0.3-0.3-0.2c-0.5,0-0.9,0-1.4,0.1c-0.2,0-0.2,0.2-0.2,0.3c0,0.8,0,1.7,0.1,2.5c0,0.1,0,0.2,0,0.3
	c0,0.5,0,0.5,0.5,0.5c0.5,0,1,0,1.5,0c0.3,0,0.4,0.1,0.4,0.4c0,0.2,0,0.4,0,0.6c0,0.2-0.1,0.3-0.3,0.3c-0.6,0-1.1,0-1.7,0.1
	c-0.3,0-0.3,0.1-0.3,0.3c0,1.1,0.1,2.3,0.1,3.4c0,0.2,0.1,0.3,0.3,0.3c0.5,0,0.9,0,1.4,0c0.1,0,0.2-0.1,0.3-0.2
	c0.1-0.3,0.2-0.5,0.6-0.5c0.2,0,0.4,0,0.6,0c0.1,0,0.2,0.1,0.2,0.2c0,0.5,0,1,0,1.4c0,0.2-0.2,0.4-0.5,0.4c-0.9,0-1.8,0-2.8,0
	c-0.6,0-1.1,0-1.7,0c-0.2,0-0.3-0.1-0.3-0.3c0-0.4,0-0.7,0.4-0.9c0.1-0.1,0.2-0.3,0.2-0.4c0-1.3-0.1-2.5-0.1-3.8
	c0-1.5-0.1-3.1-0.1-4.6c0-0.1-0.1-0.3-0.2-0.3c-0.3-0.2-0.4-0.4-0.4-0.7c0-0.5-0.1-0.4,0.4-0.4C58.4,51.7,59.1,51.7,59.8,51.6
	C59.8,51.6,59.8,51.6,59.8,51.6z M90.5,53.4c0,0.4-0.1,0.8-0.4,1c-0.3,0.2-0.2,0.5-0.3,0.7c-0.1,0.4-0.1,0.9-0.2,1.4
	c-0.1,0.7-0.2,1.4-0.3,2c0,0,0,0.1,0,0.1c-0.1,0.8-0.2,1.5-0.3,2.3c-0.1,0.5-0.1,1.1-0.2,1.6c0,0.1,0,0.2,0,0.3
	c-0.1,0.3-0.1,0.6,0.1,0.9c0.2,0.3,0.2,0.5,0.1,1.1c-0.6-0.1-1.3-0.2-1.9-0.3c-0.1,0-0.2,0-0.3,0c-0.2,0-0.2-0.1-0.2-0.3
	c0-0.4,0.1-0.7,0.5-0.9c0.1-0.1,0.2-0.3,0.2-0.4c0.1-0.7,0.2-1.4,0.3-2.1c0.1-0.6,0.2-1.2,0.2-1.8c0.1-0.6,0.2-1.2,0.2-1.8
	c0.1-0.8,0.2-1.7,0.3-2.5c0-0.2,0-0.4-0.2-0.5c-0.3-0.3-0.2-0.6-0.2-1c0,0,0.1-0.1,0.2-0.1c0.3,0,0.6,0.1,1,0.1
	C89.6,53.3,90,53.4,90.5,53.4z M63.5,45.4c-2.6,0-5.2,0.1-7.8-0.3c-0.5-0.1-1.2-0.1-1.6-0.4c-0.2-0.1-0.2-0.3-0.1-0.5
	c0.1-0.2,0.5-0.3,0.7-0.4c0.6-0.2,1.2-0.2,1.9-0.3c0.6-0.1,1.3-0.1,1.9-0.1c1.3-0.1,2.6-0.1,3.9-0.1c1.3,0,2.6,0,4,0
	c1.3,0,2.6,0.1,3.9,0.2c0.6,0.1,1.3,0.2,1.9,0.3c0.4,0.1,1.1,0.2,0.9,0.7c0,0.1-0.1,0.2-0.3,0.2c-0.2,0.1-0.4,0.1-0.6,0.2
	C71.9,45,71.4,45,71,45c-0.8,0.1-1.7,0.2-2.5,0.2C66.9,45.4,65.2,45.4,63.5,45.4C62.4,45.4,65.5,45.4,63.5,45.4z M54.6,44.3
	c0.6,0.1,1.2,0.2,1.8,0.3c0.6,0.1,1.3,0.1,1.9,0.2c1.3,0.1,2.6,0.1,4,0.1c1.3,0,2.6,0,4,0c1.3,0,2.6,0,3.9-0.2
	c0.4,0,0.8-0.1,1.2-0.1c0.4,0,0.7-0.1,1.1-0.2c-0.1,0-0.2-0.1-0.3-0.1c-0.2,0-0.3,0-0.5-0.1c-0.3,0-0.7-0.1-1-0.1
	c-0.6-0.1-1.3-0.1-1.9-0.2c-1.3-0.1-2.6-0.2-4-0.2c-1.3,0-2.6,0-4,0.1c-1.3,0-2.6,0.1-3.9,0.2c-0.4,0-0.8,0.1-1.2,0.1
	c-0.2,0-0.4,0.1-0.6,0.1C54.9,44.2,54.7,44.2,54.6,44.3C55.1,44.4,54.7,44.3,54.6,44.3z M66.7,11.8c0.1,0.2,0.4,0.4,0.4,0.6
	c0.1,0.3-0.2,0.4-0.3,0.7c-0.1,0.1,0.1,0.2,0.1,0.2c0.1,0.1,0.2,0.2,0.2,0.3c0.1,0.2-0.1,0.5-0.2,0.7c-0.1,0.1-0.4-0.2-0.4-0.3
	c0.1-0.1,0.2-0.3,0-0.5c-0.2-0.2-0.4-0.3-0.6-0.3c-0.3-0.1-0.6-0.2-0.9-0.2c-1.2-0.2-2.5-0.2-3.7,0.1c-0.3,0.1-0.5,0.2-0.7,0.3
	c-0.2,0.1-0.2,0.3-0.1,0.4c0.1,0.2-0.1,0.4-0.3,0.4c-0.2-0.1-0.3-0.3-0.3-0.5c0-0.2,0.1-0.4,0.2-0.5c0.1-0.1,0.2-0.2,0.3-0.2
	c0.2-0.1,0.3-0.1,0.5-0.2c0.6-0.2,1.3-0.3,1.9-0.3c1.2-0.1,2.6,0,3.7,0.5c0.1,0,0.1,0.1,0.2,0.1c0.1-0.1,0-0.1-0.1-0.2
	c0-0.1-0.1-0.1-0.1-0.2c0,0,0.1-0.1,0.1-0.1c0.1-0.2,0-0.4-0.2-0.5c-0.5-0.3-1.1-0.5-1.7-0.5c-0.6-0.1-1.3-0.1-1.9-0.1
	c-0.3,0-0.6,0.1-0.9,0.1c-0.3,0.1-0.6,0.1-0.9,0.3c-0.2,0.1-0.6,0.3-0.6,0.5c0,0.1,0.1,0.2,0.1,0.3c0,0.1-0.2,0.2-0.2,0.3
	c-0.3-0.2-0.5-0.6-0.3-0.9c0-0.1,0.1-0.2,0.2-0.3c0.1-0.1,0.1-0.1,0.1-0.1c0,0-0.1-0.1-0.1-0.1c-0.1-0.2-0.2-0.4-0.2-0.6
	c0-0.4,0.5-0.6,0.8-0.8c0.5-0.2,1.1-0.4,1.6-0.4c1.1-0.1,2.3-0.1,3.4,0.2c0.5,0.1,1,0.3,1.3,0.8C67.3,11.1,67.1,11.5,66.7,11.8
	c0-0.1-0.1-0.2-0.1-0.3c0-0.2,0.1-0.3,0.1-0.4c0-0.3-0.5-0.5-0.8-0.6c-0.7-0.3-1.6-0.3-2.3-0.3c-0.8,0-1.5,0.1-2.3,0.3
	c-0.3,0.1-0.7,0.3-0.8,0.6c0,0,0,0.1,0,0.2c0,0.1,0.1,0.1,0.1,0.2c0,0.1-0.1,0.2-0.2,0.3c0.2-0.1,0.4-0.2,0.6-0.3
	c0.3-0.1,0.6-0.2,0.8-0.2c0.6-0.1,1.1-0.1,1.7-0.1c0.6,0,1.2,0,1.8,0.1C65.7,11.3,66.3,11.4,66.7,11.8
	C66.9,11.9,66.4,11.5,66.7,11.8z M71.3,43.1c0.2,0,0.3-0.1,0.5-0.1c0.1,0,0.4-0.1,0.3-0.2c-0.3-0.1-0.6-0.2-0.9-0.2
	c-0.6-0.1-1.3-0.2-1.9-0.2c-1.3-0.1-2.6-0.1-3.9-0.2c-1.3,0-2.6,0-3.9,0c-1.3,0-2.6,0.1-3.9,0.2c-0.6,0.1-1.1,0.1-1.7,0.2
	c-0.1,0-0.8,0.1-0.8,0.2c0,0.1,0.7,0.2,0.8,0.2c-0.1,0.2-0.3,0.2-0.5,0.2c-0.2,0-0.5,0-0.7-0.1c-0.2-0.1-0.4-0.2-0.4-0.4
	c0-0.3,0.4-0.3,0.6-0.4c0.6-0.2,1.2-0.3,1.9-0.3c0.6-0.1,1.3-0.1,1.9-0.2c1.3-0.1,2.6-0.1,3.9-0.1c1.3,0,2.6-0.1,4,0
	c0.8,0,1.5,0.1,2.3,0.1c0.8,0.1,1.5,0.1,2.3,0.3c0.3,0.1,0.7,0.2,1,0.3c0.2,0.1,0.6,0.1,0.6,0.4c0,0.3-0.3,0.4-0.5,0.5
	C71.9,43.4,71.6,43.2,71.3,43.1C71.5,43,71.6,43.3,71.3,43.1z M70.9,41.8c0.1,0,0.3-0.1,0.4-0.1c0.1,0,0.4-0.1,0.4-0.2
	c0-0.1-0.3-0.1-0.4-0.1c-0.2,0-0.4-0.1-0.5-0.1c-0.6-0.1-1.3-0.1-1.9-0.2c-1.3-0.1-2.6-0.2-4-0.2c-2.6,0-5.3,0-7.9,0.3
	c-0.4,0-0.9,0.1-1.3,0.2c-0.1,0-0.2,0-0.3,0.1c0,0-0.1,0-0.1,0c0,0.1,0,0.1,0.1,0.1c0.2,0.1,0.4,0.1,0.6,0.2c-0.2,0-0.5,0.2-0.7,0.2
	c-0.3,0-0.5-0.1-0.7-0.4c-0.3-0.5,0.8-0.7,1.1-0.7c1.2-0.3,2.6-0.4,3.8-0.4c2.6,0,5.3-0.2,7.9,0c1.3,0.1,2.6,0.1,3.8,0.4
	c0.3,0.1,0.6,0.2,0.8,0.3c0.2,0.1,0.3,0.3,0.2,0.5c-0.1,0.2-0.4,0.3-0.6,0.3c-0.1,0-0.2,0-0.4-0.1C71.3,41.9,70.9,41.9,70.9,41.8
	C71.2,41.7,70.9,41.8,70.9,41.8z M70.6,40.5c0.3-0.1,0.6-0.1,0.8-0.2c-0.2-0.1-0.4-0.2-0.7-0.3c-0.3-0.1-0.7-0.1-1-0.1
	c-0.7-0.1-1.3-0.1-2-0.2c-1.3-0.1-2.6-0.1-3.9-0.1c-1.3,0-2.6,0-3.9,0.1c-0.6,0-1.3,0.1-1.9,0.1c-0.6,0.1-1.3,0.1-1.9,0.2
	c-0.2,0-0.3,0.1-0.5,0.2c0.3,0.1,0.5,0.1,0.8,0.2c-0.4,0.2-1,0.4-1.3-0.1c-0.4-0.6,0.6-0.7,1-0.8c1.2-0.3,2.5-0.4,3.7-0.4
	c1.3,0,2.6-0.1,4-0.1c1.3,0,2.6,0,4,0.1c0.6,0,1.2,0.1,1.8,0.2c0.6,0.1,1.2,0.1,1.7,0.3c0.3,0.1,1.2,0.4,0.7,0.8
	C71.5,40.8,71,40.7,70.6,40.5C70.9,40.4,70.7,40.5,70.6,40.5z M70.3,39.2c0.2-0.1,0.5-0.2,0.7-0.3c-0.5-0.2-1.1-0.3-1.7-0.3
	c-0.6-0.1-1.3-0.1-1.9-0.2c-1.3-0.1-2.6-0.1-3.9-0.1c-0.6,0-1.3,0-1.9,0c-0.7,0-1.3,0.1-2,0.1c-1.2,0.1-2.6,0.1-3.7,0.5
	c0.1,0.1,0.3,0.1,0.4,0.2c0.1,0,0.1,0.1,0.2,0.1c0.1,0,0.1,0,0.1,0.1c-0.2,0-0.4,0.1-0.7,0.1c-0.4,0-0.9-0.6-0.4-0.8
	c0.5-0.3,1.2-0.3,1.8-0.4c0.3,0,0.6-0.1,0.9-0.1c0.3-0.1,0.6,0,1-0.1c2.6-0.1,5.3-0.2,7.9-0.1c1.2,0.1,2.5,0.1,3.7,0.5
	c0.2,0.1,0.6,0.1,0.7,0.3c0.1,0.1,0.1,0.4,0,0.5c-0.1,0.1-0.3,0.2-0.5,0.2c-0.1,0-0.2,0-0.3-0.1C70.7,39.3,70.4,39.3,70.3,39.2
	C70.6,39.1,70.4,39.2,70.3,39.2z M60.2,23.1c0.1,0.1,0.3,0.2,0.4,0.3c-0.1,0.1-0.3,0.2-0.4,0.2c-0.2,0-0.3-0.2-0.4-0.3
	c-0.2-0.4,0.2-0.7,0.6-0.9c-0.2-0.3-0.5-0.6-0.3-0.9c0.2-0.3,0.7-0.5,1-0.6c0.9-0.2,1.7-0.3,2.6-0.3c0.9,0,1.8,0,2.6,0.3
	c0.3,0.1,0.8,0.3,1,0.6c0.2,0.3-0.2,0.6-0.4,0.8c0.3,0.2,0.7,0.4,0.6,0.8c0,0.2-0.1,0.3-0.3,0.4c-0.2,0.1-0.4-0.1-0.6-0.1
	c0.1-0.1,0.2-0.2,0.3-0.3c0.1-0.1,0-0.1,0-0.1c-0.1-0.1-0.1-0.1-0.2-0.1c-0.2-0.1-0.5-0.2-0.7-0.2c-0.6-0.1-1.3-0.2-2-0.2
	c-0.7,0-1.3,0-2,0.1C61.3,22.6,60.7,22.7,60.2,23.1C60.3,23.2,60.3,23,60.2,23.1z M66.3,22.1c0.1-0.1,0.4-0.3,0.2-0.4
	c-0.2-0.2-0.6-0.3-0.8-0.4c-0.7-0.2-1.4-0.2-2-0.2c-0.7,0-1.4,0-2.1,0.2c-0.3,0.1-0.6,0.2-1,0.3c-0.4,0.1-0.2,0.3,0.1,0.5
	c-0.1,0.1-0.2,0.2-0.3,0.2c2-0.5,4.2-0.4,6.2,0C66.5,22.2,66.4,22.1,66.3,22.1C66.4,22,66.5,22.2,66.3,22.1z M69.9,37.9
	c0.2-0.1,0.5-0.2,0.7-0.2c-0.2-0.2-0.4-0.2-0.7-0.3c-0.3,0-0.6-0.1-0.9-0.1c-0.6-0.1-1.2-0.1-1.9-0.2C66,37,64.8,37,63.5,37
	c-1.2,0-2.4,0-3.7,0.1c-0.6,0-1.2,0.1-1.9,0.2c-0.3,0-0.6,0.1-0.9,0.1c-0.1,0-0.3,0.1-0.4,0.1c-0.2,0-0.2,0.1-0.3,0.2
	c0.2,0.1,0.4,0.1,0.7,0.2c-0.2,0.1-0.5,0.2-0.7,0.2c-0.2,0-0.5-0.1-0.6-0.4c-0.2-0.5,0.7-0.7,1.1-0.8c0.6-0.1,1.2-0.2,1.9-0.3
	c0.7,0,1.3-0.1,2-0.1c1.3-0.1,2.6-0.1,4-0.1c0.7,0,1.3,0.1,2,0.1c0.6,0,1.3,0.1,1.9,0.1c0.4,0,0.9,0.1,1.3,0.2
	c0.4,0.1,0.9,0.1,1.2,0.4c0.3,0.2,0.2,0.5-0.1,0.7C70.7,38.2,70.2,38,69.9,37.9C70.2,37.8,70.1,38,69.9,37.9z M69.7,36.5
	c0.2-0.1,0.4-0.1,0.7-0.2C70,36,69.4,36,69,35.9c-0.6-0.1-1.1-0.1-1.7-0.2c-1.2-0.1-2.4-0.1-3.6-0.1c-1.2,0-2.4,0-3.6,0.1
	c-0.6,0-1.2,0.1-1.8,0.2c-0.3,0-0.6,0.1-0.8,0.1c-0.3,0.1-0.5,0.1-0.7,0.3c0.2,0.1,0.5,0.1,0.7,0.2c-0.2,0.4-0.8,0.3-1.1,0
	c-0.5-0.5,0.5-0.8,0.8-0.9c1.3-0.3,2.5-0.4,3.8-0.4c1.3,0,2.6-0.1,3.9-0.1c1.3,0,2.6,0.1,3.9,0.3c0.4,0,0.8,0.1,1.1,0.2
	c0.3,0.1,0.8,0.2,1,0.4c0.3,0.3-0.1,0.6-0.4,0.7C70.2,36.8,69.8,36.7,69.7,36.5C69.9,36.5,69.8,36.7,69.7,36.5z M69.4,35.3
	c0.1-0.2,0.5-0.1,0.6-0.4c-0.5-0.1-1-0.3-1.6-0.3c-0.6-0.1-1.2-0.1-1.7-0.1c-1.2-0.1-2.4-0.1-3.6-0.1c-1.2,0-2.3,0-3.5,0.1
	c-0.6,0-1.1,0.1-1.7,0.2c-0.1,0-0.2,0.1-0.4,0.1c-0.1,0-0.3,0-0.4,0.1c-0.1,0.1,0,0.2,0.1,0.2c0.1,0,0.3,0.1,0.4,0.1
	c-0.2,0.1-0.5,0.2-0.7,0.2c-0.2,0-0.5-0.2-0.5-0.5c0-0.2,0.3-0.4,0.5-0.4c0.3-0.1,0.6-0.2,0.9-0.3c1.3-0.3,2.6-0.3,3.9-0.3
	c2.6,0,5.3-0.2,7.8,0.4c0.3,0.1,1.2,0.2,1.1,0.7c0,0.2-0.2,0.4-0.4,0.4C69.9,35.5,69.6,35.4,69.4,35.3
	C69.5,35.1,69.6,35.4,69.4,35.3z M69.1,33.9c0.1,0,0.3-0.1,0.4-0.1c0.1,0,0.1,0,0.2-0.1c0-0.1,0-0.1-0.1-0.1
	c-0.3-0.1-0.5-0.2-0.8-0.2c-0.5-0.1-1.1-0.2-1.6-0.2c-1.1-0.1-2.2-0.1-3.4-0.1c-1.1,0-2.2,0-3.3,0.1c-0.6,0-1.1,0.1-1.6,0.2
	c-0.3,0.1-0.6,0.1-0.8,0.2c-0.1,0-0.3,0.1-0.4,0.1c-0.1,0-0.2,0.1-0.3,0.2c0.2,0.1,0.4,0.1,0.6,0.2c-0.3,0.3-1,0.3-1.1-0.2
	c-0.1-0.2,0.2-0.4,0.4-0.5c0.3-0.2,0.6-0.2,0.9-0.3c1.2-0.3,2.6-0.3,3.8-0.3c1.3-0.1,2.6-0.1,3.9,0c1.3,0.1,2.6,0.1,3.8,0.6
	c0.3,0.1,0.9,0.3,0.6,0.7c-0.1,0.1-0.2,0.3-0.4,0.3C69.6,34.2,69.3,34.1,69.1,33.9C69.1,34,69.1,33.9,69.1,33.9
	C69.3,33.9,69.1,33.9,69.1,33.9z M57.7,32.4c0.2,0.1,0.4,0.2,0.6,0.3c-0.2,0.1-0.4,0.2-0.7,0.2c-0.2,0-0.4-0.2-0.4-0.4
	c0-0.3,0.2-0.4,0.4-0.5c0.3-0.1,0.6-0.2,0.9-0.3c0.6-0.1,1.2-0.2,1.8-0.3c0.7,0,1.3-0.1,2-0.1c1.3,0,2.6,0,3.9,0
	c0.6,0,1.3,0.1,1.9,0.2c0.5,0.1,1.2,0.2,1.6,0.5c0.2,0.2,0.1,0.5-0.2,0.7c-0.3,0.2-0.6,0-0.8-0.1c0.2-0.1,0.4-0.2,0.6-0.3
	c-0.9-0.3-1.8-0.4-2.8-0.5c-1-0.1-2-0.1-3.1-0.1c-1,0-2,0-3.1,0.1C59.5,31.9,58.6,32,57.7,32.4C57.9,32.5,57.9,32.3,57.7,32.4z
	 M58.1,31.1c0.2,0.1,0.3,0.1,0.5,0.2c-0.3,0.2-0.8,0.4-1-0.1c-0.2-0.5,0.6-0.8,1-0.9c1.3-0.3,2.5-0.3,3.8-0.4c1.3,0,2.6-0.1,3.9,0
	c0.6,0.1,1.3,0.2,1.9,0.3c0.3,0.1,0.6,0.1,0.8,0.3c0.2,0.1,0.5,0.2,0.4,0.5c0,0.2-0.2,0.4-0.4,0.4c-0.2,0.1-0.5-0.1-0.7-0.2
	c0.2-0.1,0.4-0.2,0.5-0.2c-0.1-0.3-0.6-0.3-0.9-0.3c-0.5-0.1-1-0.2-1.4-0.2c-1-0.1-1.9-0.1-2.9-0.2c-1,0-2,0-3,0.1
	c-0.5,0-1,0.1-1.5,0.2c-0.2,0-0.4,0.1-0.7,0.2c-0.1,0-0.2,0.1-0.4,0.1C58.2,31,58.1,31.1,58.1,31.1C58.3,31.2,58.2,31,58.1,31.1z
	 M68.1,30.1c0.2-0.1,0.3-0.2,0.5-0.3c-0.2-0.1-0.3-0.1-0.5-0.2c-0.2-0.1-0.4-0.1-0.6-0.1c-0.5-0.1-0.9-0.1-1.4-0.2
	c-1,0-1.9-0.1-2.9-0.1c-0.9,0-1.9,0-2.8,0.1c-0.5,0.1-0.9,0.1-1.3,0.2c-0.2,0.1-0.4,0.1-0.6,0.2c0,0.2,0.3,0.3,0.4,0.4
	c-0.2,0.1-0.4,0.2-0.6,0.2c-0.2-0.1-0.4-0.3-0.4-0.5c0.1-0.2,0.4-0.4,0.6-0.5c0.3-0.1,0.6-0.2,0.9-0.3c1.3-0.2,2.6-0.3,3.8-0.3
	c1.3,0,2.6,0,3.9,0.2c0.6,0.1,1.2,0.2,1.7,0.4c0.2,0.1,0.4,0.3,0.4,0.5c0,0.2-0.3,0.5-0.5,0.5C68.5,30.2,68.3,30.1,68.1,30.1
	C68.3,30,68.4,30.2,68.1,30.1z M67.8,28.7c0.1,0,0.4-0.2,0.4-0.3c0-0.1-0.2-0.2-0.3-0.2c-0.4-0.1-0.8-0.2-1.2-0.3
	c-0.9-0.1-1.8-0.1-2.7-0.2c-0.9,0-1.8-0.1-2.7,0c-0.4,0-0.9,0.1-1.3,0.2c-0.2,0-0.5,0.1-0.7,0.1c-0.2,0-0.3,0.2-0.5,0.2
	c0.2,0.1,0.3,0.2,0.5,0.3c-0.2,0.1-0.4,0.2-0.6,0.2c-0.2-0.1-0.4-0.3-0.4-0.5c0-0.3,0.2-0.4,0.4-0.5c0.3-0.1,0.6-0.3,0.9-0.3
	c1.3-0.2,2.6-0.3,3.9-0.3c1.3,0,2.6,0.1,3.8,0.3c0.3,0.1,0.6,0.1,0.9,0.2c0.2,0.1,0.6,0.2,0.6,0.5c0.1,0.2-0.1,0.4-0.2,0.5
	c-0.2,0.1-0.4,0-0.6-0.1C67.9,28.8,67.8,28.8,67.8,28.7C68,28.7,67.9,28.8,67.8,28.7z M67.6,27.4c0.1-0.1,0.3-0.2,0.4-0.2
	c-0.1-0.1-0.3-0.1-0.4-0.2c-0.2-0.1-0.4-0.1-0.5-0.1c-0.4-0.1-0.8-0.1-1.1-0.2c-0.8-0.1-1.6-0.1-2.4-0.1c-0.8,0-1.5,0-2.3,0.1
	c-0.4,0-0.7,0.1-1.1,0.2c-0.3,0.1-0.7,0.1-0.9,0.4c0.1,0.1,0.3,0.2,0.4,0.3c-0.2,0.1-0.4,0.3-0.6,0.2c-0.2-0.1-0.3-0.3-0.3-0.5
	c0-0.5,0.8-0.6,1.2-0.7c0.6-0.2,1.2-0.3,1.8-0.3c0.6,0,1.2,0,1.8,0c1.3,0,2.5,0,3.7,0.3c0.4,0.1,1,0.2,1.2,0.7
	c0.1,0.2-0.1,0.4-0.2,0.5c-0.1,0.1-0.2,0.1-0.3,0C67.8,27.6,67.7,27.5,67.6,27.4C67.5,27.4,67.6,27.4,67.6,27.4
	C67.7,27.3,67.6,27.4,67.6,27.4z M67.2,26.1c0.1-0.1,0.3-0.2,0.3-0.3c0-0.1-0.3-0.2-0.4-0.2c-0.4-0.1-0.7-0.2-1.1-0.3
	c-0.8-0.1-1.6-0.2-2.5-0.2c-0.8,0-1.6,0.1-2.4,0.2c-0.4,0.1-0.8,0.1-1.2,0.3c-0.1,0-0.4,0.1-0.4,0.2c0,0.1,0.3,0.2,0.3,0.3
	c-0.2,0.1-0.4,0.2-0.6,0.2C59.1,26.2,59,26,59,25.8c0-0.2,0.1-0.3,0.3-0.4c0.3-0.1,0.5-0.2,0.8-0.3c0.6-0.1,1.1-0.2,1.7-0.3
	c0.6-0.1,1.2-0.1,1.7-0.1c0.6,0,1.1,0,1.7,0.1c0.6,0.1,1.2,0.1,1.7,0.3c0.3,0.1,0.5,0.2,0.7,0.3c0.2,0.1,0.4,0.2,0.4,0.4
	c0,0.2-0.1,0.4-0.3,0.5C67.5,26.3,67.4,26.2,67.2,26.1C67.3,26.1,67.3,26.2,67.2,26.1z M67.5,9.4c-0.1-0.1-0.2-0.2-0.2-0.3
	c0-0.1,0-0.2-0.1-0.3c-0.1-0.2-0.2-0.4-0.4-0.5c-0.5-0.3-1-0.5-1.6-0.5c-0.6-0.1-1.3-0.2-2-0.2c-0.6,0-1.3,0.1-1.9,0.2
	c-0.5,0.1-1.2,0.3-1.5,0.7c-0.1,0.2-0.1,0.4-0.1,0.6c0,0.1,0,0.3-0.1,0.4c0,0.1,0,0.1-0.1,0.1c-0.1,0-0.1-0.1-0.1-0.2
	c-0.1-0.2-0.3-0.5-0.3-0.7c0-0.3,0.2-0.5,0.4-0.6c0.4-0.4,0.9-0.6,1.5-0.7c0.3-0.1,0.7-0.1,1-0.2c0.4-0.1,0.7-0.1,1.1-0.1
	c0.7,0,1.5,0,2.2,0.2c0.6,0.1,1.3,0.3,1.8,0.7c0.2,0.1,0.4,0.3,0.4,0.6C67.8,8.7,67.8,9.3,67.5,9.4C67.5,9.2,67.6,9.4,67.5,9.4z
	 M67.3,25.1c-0.2-0.1-0.3-0.2-0.5-0.3c0.1-0.1,0.2-0.2,0.3-0.3c-0.1-0.1-0.2-0.2-0.3-0.2c-0.1-0.1-0.3-0.1-0.4-0.1
	c-0.3-0.1-0.6-0.1-1-0.2c-0.7-0.1-1.3-0.1-2-0.1c-0.7,0-1.3,0-2,0.1c-0.3,0-0.6,0.1-1,0.2c-0.3,0.1-0.5,0.2-0.8,0.3
	c0.1,0.1,0.3,0.2,0.4,0.3c-0.1,0.1-0.4,0.3-0.5,0.2c-0.1-0.1-0.2-0.2-0.3-0.3c-0.1-0.4,0.2-0.7,0.5-0.8c1-0.4,2-0.4,3.1-0.5
	c1.1-0.1,2.1,0,3.2,0.2c0.4,0.1,0.9,0.2,1.3,0.5c0.2,0.1,0.3,0.3,0.3,0.5C67.7,24.8,67.5,24.9,67.3,25.1C67.2,25,67.4,25,67.3,25.1z
	 M60.4,10.1c-0.1,0.1-0.2,0.2-0.3,0.3c-0.1,0-0.2-0.1-0.2-0.2c-0.1-0.2-0.2-0.4-0.1-0.6c0.1-0.5,0.6-0.7,1-0.9
	c1.1-0.5,2.4-0.5,3.6-0.4c0.6,0.1,1.2,0.2,1.8,0.4c0.4,0.1,0.9,0.4,1,0.9c0.1,0.2-0.2,1-0.5,0.6c-0.1-0.2,0-0.3,0-0.5
	c0-0.2-0.2-0.3-0.4-0.4c-0.5-0.3-1.2-0.4-1.7-0.5c-0.6-0.1-1.3-0.1-1.9,0c-0.6,0-1.2,0.1-1.7,0.4c-0.2,0.1-0.5,0.2-0.6,0.4
	C60.2,9.7,60.3,9.9,60.4,10.1C60.3,10.2,60.1,9.7,60.4,10.1z M60.2,15.7c-0.4-0.3-0.5-0.7-0.1-1.1c0.3-0.4,1-0.5,1.5-0.6
	c0.6-0.1,1.3-0.2,1.9-0.2c0.6,0,1.3,0.1,1.9,0.2c0.5,0.1,1.1,0.2,1.5,0.6c0.3,0.3,0.4,0.7,0.1,1.1c0,0-0.1,0.1-0.1,0.1
	c-0.1,0-0.1-0.1-0.1-0.1c-0.1,0-0.1-0.1-0.2-0.1c0-0.1,0.1-0.1,0.1-0.1c0.2-0.3-0.2-0.4-0.4-0.5c-0.5-0.3-1.2-0.4-1.8-0.4
	c-0.5,0-1,0-1.4,0c-0.5,0-1,0.1-1.5,0.2c-0.2,0.1-0.4,0.1-0.6,0.2c-0.1,0.1-0.4,0.2-0.5,0.3c-0.1,0.2,0.1,0.2,0.1,0.4
	C60.5,15.5,60.3,15.6,60.2,15.7C59.6,15.2,60.4,15.5,60.2,15.7z M60.2,17c-0.4-0.3-0.5-0.7-0.1-1.1c0.4-0.4,1-0.5,1.5-0.6
	c1.2-0.3,2.5-0.3,3.8,0c0.3,0.1,0.6,0.1,0.9,0.3c0.2,0.1,0.5,0.2,0.7,0.4c0.1,0.1,0.2,0.3,0.2,0.5c0,0.1-0.2,0.6-0.4,0.5
	c-0.2-0.1-0.4-0.3-0.1-0.4c0,0,0-0.2,0-0.2c0-0.1-0.2-0.2-0.3-0.2c-0.6-0.3-1.1-0.4-1.7-0.5c-0.5,0-1-0.1-1.4,0
	c-0.5,0.1-1,0.1-1.5,0.2c-0.4,0.1-0.9,0.2-1.2,0.5c-0.1,0.2,0,0.2,0.1,0.4C60.6,16.8,60.3,16.9,60.2,17C59.6,16.6,60.3,17,60.2,17z
	 M60.6,18.1c-0.1,0-0.4,0.2-0.4,0.2c-0.2-0.1-0.3-0.3-0.3-0.6c0-0.4,0.4-0.6,0.7-0.7c1-0.4,2.2-0.5,3.3-0.5c0.6,0,1.1,0.1,1.7,0.2
	c0.3,0.1,0.5,0.1,0.7,0.3c0.2,0.1,0.4,0.2,0.6,0.3c0.3,0.3,0.2,0.7-0.1,0.9c-0.1,0.1-0.1,0.1-0.2,0c-0.1,0-0.1-0.1-0.1-0.1
	c0-0.1,0.1-0.3,0.2-0.4c-0.2-0.1-0.4-0.3-0.7-0.4c-0.3-0.1-0.6-0.2-1-0.2C64.5,17,63.8,17,63.2,17c-0.6,0-1.2,0.1-1.8,0.2
	c-0.3,0.1-0.6,0.2-0.8,0.3C60.3,17.7,60.5,17.9,60.6,18.1C60.6,18.1,60.6,18,60.6,18.1z M66.4,19.4c0.1-0.1,0.2-0.2,0.2-0.3
	c0-0.1-0.1-0.2-0.2-0.2c-0.1-0.1-0.3-0.1-0.4-0.1c-0.2-0.1-0.3-0.1-0.5-0.1c-0.6-0.2-1.2-0.2-1.9-0.2c-0.6,0-1.3,0-1.9,0.1
	c-0.2,0-1.6,0.4-1.4,0.7c0,0.1,0.2,0.1,0.2,0.2c0,0.1-0.1,0.2-0.1,0.2c-0.2,0.2-0.4,0-0.5-0.2c-0.3-0.5,0.1-0.8,0.5-1
	c0.5-0.3,1.1-0.3,1.7-0.4c0.6-0.1,1.3-0.1,1.9-0.1c0.8,0.1,1.8,0.1,2.5,0.5c0.3,0.2,0.7,0.5,0.6,0.9c0,0.1-0.2,0.3-0.3,0.4
	C66.6,19.7,66.5,19.5,66.4,19.4C66.5,19.3,66.6,19.7,66.4,19.4z M60.7,20.8c-0.1,0.1-0.3,0.3-0.5,0.2c-0.2-0.1-0.3-0.3-0.3-0.5
	c-0.1-0.4,0.3-0.6,0.6-0.8c1-0.4,2.1-0.5,3.2-0.5c0.9,0,2,0,2.9,0.5c0.3,0.2,0.7,0.5,0.6,0.9C67,20.8,66.9,21,66.8,21
	c-0.2,0-0.3-0.2-0.4-0.3c0.1-0.1,0.3-0.3,0.2-0.4C66.3,20.1,66,20,65.7,20c-0.7-0.2-1.5-0.2-2.3-0.2c-0.7,0-1.5,0.1-2.2,0.3
	c-0.3,0.1-0.6,0.1-0.8,0.3C60.3,20.4,60.6,20.7,60.7,20.8C60.5,20.8,60.3,20.4,60.7,20.8z M57,48c0.4,0,0.8,0,1.3,0
	c0.1,0,0.2,0.2,0.3,0.3c0.4,0.5,0.7,1.1,1.1,1.6c0.1,0.1,0.1,0.2,0,0.3c-0.4,0.3-0.4,0.3-0.7,0c-0.6-0.5-1.1-1.1-1.7-1.6
	C57,48.4,56.9,48.3,57,48z M62.1,75.7c0.3,0.2,0.6,0.4,0.9,0.6c0-0.4-0.1-0.7-0.1-1.1c0.2,0,0.3,0,0.5,0c0,0.3-0.1,0.7-0.1,1
	c0.4,0,0.6-0.4,1-0.5c0.1,0.1,0.1,0.2,0.2,0.4c-0.3,0.1-0.5,0.2-0.7,0.4c-0.1,0-0.1,0.1-0.2,0.1c0,0,0.1,0.1,0.2,0.1
	c0.2,0.1,0.4,0.2,0.6,0.3c0.1,0.1,0.2,0.1,0.1,0.3c-0.1,0.1-0.2,0.2-0.3,0.1c-0.2-0.1-0.3-0.2-0.5-0.4c-0.1,0-0.1-0.1-0.2-0.1
	c0,0.4,0.1,0.7,0.1,1c-0.2,0-0.3,0-0.5,0c0-0.3,0-0.6,0.1-1c-0.4,0-0.6,0.4-0.9,0.5c0,0,0-0.1-0.1-0.1c-0.2-0.1-0.1-0.3,0.1-0.3
	c0.2-0.1,0.4-0.2,0.6-0.3c0.1,0,0.1-0.1,0.1-0.1c0,0-0.1-0.1-0.1-0.1c-0.2-0.1-0.3-0.2-0.5-0.2c-0.2-0.1-0.2-0.1-0.1-0.4
	C62.1,75.8,62.1,75.8,62.1,75.7z M75.8,70.4c0,0.1,0.1,0.2,0.1,0.3c-0.2,0-0.5,0-0.7,0c0-0.1,0.1-0.2,0.1-0.3
	c-0.3,0-0.6-0.1-0.7-0.3c-0.2-0.3-0.2-0.9,0.4-1c0,0,0,0,0.1,0c0.3-0.1,0.3-0.1,0.2-0.4c0.3,0,0.5,0,0.7,0c0,0,0,0,0,0
	c0,0.1-0.1,0.2,0,0.3C75.9,69,76,69,76.1,69c0.3,0.1,0.4,0.2,0.5,0.5c0,0.3-0.1,0.6-0.3,0.7C76.1,70.3,76,70.4,75.8,70.4z
	 M75.2,69.1c-0.5,0.2-0.4,0.7-0.2,0.9c0,0,0.1,0.1,0.2,0.1c0,0,0.1-0.1,0.1-0.2c0-0.1,0-0.2,0-0.4C75.3,69.5,75.3,69.3,75.2,69.1z
	 M75.8,69.1c0,0.4,0,0.7,0,1c0.2,0,0.3-0.1,0.3-0.2C76.2,69.6,76.1,69.3,75.8,69.1z M67.3,70.7c0.3-0.4,0.1-0.8,0.2-1.2
	c0,0-0.1,0-0.1,0c-0.2,0.3-0.4,0.6-0.6,0.9c0,0.1,0.1,0.2,0.1,0.3c-0.2,0-0.5,0-0.7,0c0.2-0.3,0.2-1.8,0-2c0.3,0,0.5,0,0.8,0
	c-0.3,0.4-0.1,0.8-0.2,1.2c0,0,0.1,0,0.1,0c0.2-0.2,0.4-0.5,0.6-0.7c0.1-0.1,0.2-0.3,0-0.5c0.2,0,0.5,0,0.7,0c-0.1,0.3-0.1,1.7,0,2
	C67.8,70.7,67.6,70.7,67.3,70.7z M63.3,70.7c-0.3,0-0.5,0-0.7,0c0.2-0.7,0.2-1.3,0-2c0.2,0,0.5,0,0.7,0c-0.2,0.3-0.1,0.5-0.1,0.8
	c0,0,0.1,0.1,0.1,0.1c0.2,0,0.5,0,0.5-0.1c0.1-0.2,0-0.4,0-0.6c0,0-0.1-0.1-0.1-0.2c0.3,0,0.5,0,0.8,0c-0.2,0.3-0.2,1.7,0,2
	c-0.3,0-0.5,0-0.8,0c0.3-0.3,0.1-0.5,0.1-0.8c0,0-0.1-0.1-0.2-0.1c-0.1,0-0.3,0-0.4,0c0,0-0.1,0.1-0.1,0.1
	C63.2,70.1,63.1,70.4,63.3,70.7z M71.2,69c-0.1,0.2-0.2,0.4-0.3,0.5c0.3,0.4,0.5,0.8,0.7,1.2c-0.4,0.2-0.7,0-0.8-0.5
	c0-0.1,0-0.1-0.1-0.2c-0.1-0.1-0.2-0.1-0.3-0.2c0,0.1-0.1,0.2-0.1,0.3c0,0.2,0.1,0.4,0.1,0.6c-0.2,0-0.4,0-0.7,0
	c0.2-0.3,0.2-1.8,0-2c0.3,0,0.5,0,0.8,0c-0.3,0.2-0.2,0.5-0.2,0.8c0,0,0.2,0.1,0.2,0.1c0.2-0.1,0.2-0.3,0.3-0.5
	c0.1-0.2,0.2-0.4,0.4-0.4c0.1,0,0.2,0.1,0.3,0.1c0,0,0,0.2,0,0.2C71.5,69,71.4,69,71.2,69z M56.6,70.7c-0.3,0-0.6-0.1-0.7-0.4
	c-0.2-0.3-0.2-0.7-0.1-1c0.1-0.2,0.2-0.5,0.4-0.6c0.5-0.3,1.2,0,1.4,0.6c0.1,0.3,0,0.6,0,0.8C57.4,70.5,57.3,70.8,56.6,70.7z
	 M57.1,69.7C57.1,69.7,57.1,69.7,57.1,69.7c0-0.2,0-0.3-0.1-0.5c-0.1-0.3-0.2-0.5-0.4-0.5c-0.2,0-0.4,0.2-0.4,0.4c0,0.4,0,0.7,0,1.1
	c0,0.2,0.2,0.3,0.3,0.3c0.1,0,0.3-0.1,0.3-0.2C57.1,70.2,57.1,69.9,57.1,69.7z M59,70.7c-0.2,0-0.4,0-0.7,0c0.2-0.4,0.2-1.7,0-2
	c0.1,0,0.1,0,0.2,0c0.3,0,0.6,0,1,0c0.4,0,0.5,0.2,0.5,0.5c0,0.3-0.2,0.6-0.5,0.6c0,0-0.1,0-0.1,0c-0.1,0.1-0.5-0.1-0.4,0.3
	C58.9,70.3,58.9,70.5,59,70.7z M58.9,69.8c0.2-0.1,0.4-0.1,0.4-0.2c0.1-0.2,0.1-0.4,0-0.6c-0.1-0.1-0.2-0.1-0.3-0.1
	c0,0-0.1,0.1-0.1,0.1C58.9,69.2,58.9,69.5,58.9,69.8z M60.6,70.7c-0.2,0-0.4,0-0.5,0c0.2-0.4,0.3-0.8,0.5-1.2
	c0.1-0.2,0.1-0.5,0.3-0.7c0-0.1,0.2-0.1,0.3-0.1c0.1,0,0.2,0.1,0.2,0.2c0.1,0.3,0.2,0.7,0.3,1c0,0.1,0.1,0.3,0.1,0.4
	c0,0.1,0.1,0.3,0.2,0.4c-0.2,0-0.5,0-0.8,0c0.2-0.2,0.2-0.4,0-0.5c-0.2-0.1-0.4,0-0.6,0C60.5,70.3,60.4,70.5,60.6,70.7z M61,69.2
	C61,69.2,61,69.2,61,69.2c-0.2,0.2-0.2,0.5-0.3,0.7c0.2,0,0.3,0,0.5,0C61.1,69.7,61.1,69.4,61,69.2z M73.2,70.7
	c0.1-0.2,0.1-0.5,0.1-0.5c-0.2,0-0.4,0-0.6,0c-0.2,0-0.1,0.3,0,0.5c-0.2,0-0.4,0-0.5,0c0.2-0.6,0.5-1.2,0.7-1.9
	c0.1-0.2,0.2-0.2,0.3-0.2c0.2,0,0.2,0.1,0.3,0.2c0.2,0.5,0.3,1,0.5,1.6c0,0.1,0.1,0.2,0.1,0.3C73.7,70.7,73.5,70.7,73.2,70.7z
	 M73.2,69.9c-0.1-0.2-0.1-0.4-0.2-0.7c-0.2,0.1-0.3,0.4-0.3,0.7C72.9,69.9,73,69.9,73.2,69.9z M78.3,69.4c0.1,0.2,0.1,0.4,0,0.6
	c-0.1-0.1-0.3-0.2-0.4-0.2c-0.2,0.1-0.1,0.3-0.1,0.4c0,0.1-0.1,0.3,0.2,0.4c0.2,0,0.4-0.1,0.5-0.3c0-0.1,0.1-0.1,0.1-0.2
	c0,0,0,0,0.1,0c0,0.2,0,0.3,0,0.5c-0.5,0-1,0-1.4,0c0.2-0.3,0.2-1.8,0-2c0.5,0,1,0,1.5,0c0,0.1,0,0.3,0,0.5
	c-0.1-0.1-0.2-0.1-0.2-0.2c-0.1-0.1-0.2-0.2-0.4-0.2c-0.2,0-0.3,0.1-0.3,0.2c0,0.1,0,0.2,0,0.3c0,0.1,0.1,0.2,0.1,0.2
	c0.1,0,0.2,0,0.3-0.1C78.3,69.5,78.3,69.4,78.3,69.4z M50.5,69.4c0,0.2,0,0.4,0,0.7c-0.1-0.1-0.2-0.1-0.2-0.2
	c-0.1,0-0.2-0.1-0.3-0.1c0,0-0.1,0.1-0.1,0.2c0,0.1,0,0.2,0,0.3c0,0.1,0.1,0.3,0.1,0.3c0.2,0,0.3-0.1,0.5-0.1
	c0.1-0.1,0.2-0.2,0.3-0.3c0,0.1,0.1,0.3,0.1,0.4c0,0-0.1,0.1-0.1,0.1c-0.5,0-0.9,0-1.4,0c0.3-0.4,0.3-1.7,0-2c0.1,0,0.2,0,0.3,0
	c0.3,0,0.6,0,0.9,0c0.4,0,0.4,0,0.4,0.4c-0.1,0.1-0.2,0-0.3-0.1c-0.1-0.2-0.3-0.2-0.5-0.2c0,0-0.1,0.1-0.1,0.1c0,0.2,0,0.4,0,0.7
	C50.2,69.5,50.3,69.5,50.5,69.4z M47.9,70.7c-0.2,0-0.5,0-0.7,0c0.1-0.7,0.1-1.3,0-2c0,0,0,0,0.1,0c0.3,0,0.7,0,1,0
	c0.3,0,0.5,0.2,0.5,0.5c0,0.4-0.1,0.6-0.4,0.7c-0.1,0-0.2,0-0.2,0.1c-0.1,0-0.3,0.1-0.3,0.1C47.7,70.2,47.6,70.5,47.9,70.7z
	 M47.7,69.7c0.3,0.1,0.5-0.1,0.6-0.3c0.1-0.2,0-0.5-0.3-0.6c-0.1,0-0.3-0.1-0.3,0.1C47.7,69.2,47.7,69.5,47.7,69.7z M54.8,70.7
	c-0.3,0-0.5,0-0.8,0c0.2-0.1,0.2-0.4,0.2-0.6c0-0.3,0-0.7,0-1c0-0.1-0.1-0.2-0.1-0.3c-0.1,0.1-0.2,0.1-0.3,0.2
	c-0.1,0.1-0.1,0.1-0.2,0.2c0-0.1-0.1-0.2-0.1-0.3c0-0.1,0-0.1,0-0.2c0.6,0,1.2,0,1.8,0c0,0.2,0.1,0.4-0.1,0.5
	c-0.1-0.1-0.2-0.2-0.3-0.3c-0.1-0.1-0.2,0-0.2,0.1c0,0.5,0,1,0,1.5C54.6,70.5,54.7,70.6,54.8,70.7z M52.9,68.7c0,0.1,0,0.3,0,0.5
	c-0.1,0-0.2-0.1-0.2-0.1c-0.1-0.2-0.2-0.3-0.3-0.2c-0.1,0-0.3,0.2-0.4,0.3c-0.2,0.4-0.2,0.8,0,1.2c0.1,0.1,0.2,0.3,0.3,0.3
	c0.1,0,0.2-0.1,0.3-0.2c0,0,0.1-0.1,0.1-0.1c0,0.1,0.1,0.1,0.1,0.2c0,0.1,0,0.2,0,0.3c-0.4,0-0.7,0.1-1,0c-0.2,0-0.4-0.3-0.4-0.5
	c-0.1-0.3,0-0.7,0-1c0.1-0.5,0.5-0.6,1-0.6C52.6,68.7,52.8,68.7,52.9,68.7z"/>
</svg>
