<?xml version="1.0" encoding="utf-8"?>
<!-- Generator: Adobe Illustrator 16.0.0, SVG Export Plug-In . SVG Version: 6.00 Build 0)  -->
<!DOCTYPE svg PUBLIC "-//W3C//DTD SVG 1.1//EN" "http://www.w3.org/Graphics/SVG/1.1/DTD/svg11.dtd">
<svg version="1.1" id="Слой_1" xmlns="http://www.w3.org/2000/svg" xmlns:xlink="http://www.w3.org/1999/xlink" x="0px" y="0px"
	 width="127.559px" height="85.039px" viewBox="0 0 127.559 85.039" enable-background="new 0 0 127.559 85.039"
	 xml:space="preserve">
<path id="XMLID_18471_" fill="#979898" d="M74.791,37.606c0.345,0,0.574-0.229,0.574-0.574c0-0.306-0.229-0.535-0.574-0.535
	c-0.306,0-0.535,0.229-0.535,0.535C74.256,37.376,74.487,37.606,74.791,37.606L74.791,37.606z M45.54,37.606
	c0.306,0,0.573-0.229,0.573-0.574c0-0.306-0.268-0.535-0.573-0.535c-0.307,0-0.573,0.229-0.573,0.535
	C44.967,37.376,45.235,37.606,45.54,37.606L45.54,37.606z M91.501,36.382v2.6c0.382-0.076,0.765-0.306,1.107-0.65
	c0.346-0.382,0.536-0.765,0.536-1.109c0-0.268-0.077-0.459-0.229-0.612c-0.152-0.153-0.345-0.229-0.611-0.229H91.501z
	 M91.501,35.771c0.459,0,0.841,0,1.146,0.038c0.573,0.077,0.955,0.268,1.109,0.65c0.076,0.153,0.114,0.42,0.114,0.727
	c0,0.382-0.077,0.726-0.307,1.032c-0.268,0.459-0.688,0.879-1.225,1.186c-0.573,0.344-1.108,0.535-1.605,0.535
	c0.076-0.153,0.115-0.344,0.115-0.612v-3.938c0-0.268-0.039-0.459-0.115-0.574h0.918C91.578,34.968,91.501,35.273,91.501,35.771
	L91.501,35.771z M89.972,34.738c-0.077,0.153-0.114,0.344-0.114,0.612v3.977c0,0.229,0.037,0.42,0.114,0.612h-0.917
	c0.076-0.153,0.113-0.344,0.113-0.612v-3.403c-0.458,0.229-0.84,0.65-1.186,1.186c-0.345,0.574-0.534,1.109-0.534,1.644
	c0,0.382,0.189,0.765,0.572,1.186h-1.069c0-0.077,0.037-0.153,0.037-0.229s-0.037-0.229-0.113-0.459
	c-0.077-0.191-0.115-0.458-0.115-0.688c0-0.497,0.191-1.033,0.535-1.645c0.307-0.497,0.688-0.956,1.108-1.3
	C88.94,35.159,89.475,34.853,89.972,34.738L89.972,34.738z M83.166,35.388c0-0.229-0.039-0.42-0.153-0.574h0.956
	c-0.115,0.115-0.153,0.306-0.153,0.574v1.568l1.187-1.3c0.229-0.268,0.345-0.459,0.345-0.573c0-0.115-0.039-0.191-0.115-0.268h0.918
	c-0.114,0.115-0.152,0.306-0.152,0.574v3.938c0,0.268,0.038,0.459,0.152,0.612h-0.957c0.077-0.191,0.154-0.382,0.154-0.612v-3.059
	l-1.53,1.797v1.262c0,0.268,0.038,0.459,0.153,0.612h-0.956c0.114-0.191,0.153-0.382,0.153-0.612L83.166,35.388L83.166,35.388z
	 M80.412,35.426v2.218h0.039l0.688-0.994c0.115-0.153,0.269-0.344,0.383-0.497c0.152-0.268,0.229-0.459,0.229-0.573
	c0-0.115-0.076-0.153-0.269-0.153L80.412,35.426L80.412,35.426z M79.61,34.814h2.332c0.421,0,0.612,0.153,0.612,0.459
	c0,0.268-0.077,0.497-0.229,0.688l-1.912,2.676v0.688c0,0.229,0.039,0.42,0.152,0.612H79.61c0.115-0.153,0.152-0.344,0.152-0.574
	v-3.977C79.762,35.121,79.725,34.929,79.61,34.814L79.61,34.814z M76.703,35.388c0-0.268-0.076-0.459-0.152-0.574h2.523v0.841
	c-0.115-0.076-0.229-0.153-0.269-0.153c-0.076-0.038-0.19-0.038-0.307-0.038h-1.146v3.862c0,0.153,0.076,0.382,0.191,0.612H76.55
	c0.076-0.153,0.152-0.344,0.152-0.574L76.703,35.388L76.703,35.388z M71.886,35.426v2.218h0.038l0.688-0.994
	c0.114-0.153,0.269-0.344,0.383-0.497c0.152-0.268,0.229-0.459,0.229-0.573c0-0.115-0.077-0.153-0.269-0.153L71.886,35.426
	L71.886,35.426z M71.082,34.814h2.333c0.421,0,0.611,0.153,0.611,0.459c0,0.268-0.076,0.497-0.229,0.688l-1.911,2.676v0.688
	c0,0.229,0.038,0.42,0.153,0.612h-0.957c0.114-0.153,0.152-0.344,0.152-0.574v-3.977C71.236,35.121,71.198,34.929,71.082,34.814
	L71.082,34.814z M68.177,37.721h1.376v-2.18c-0.306,0.153-0.611,0.497-0.879,0.956C68.406,36.917,68.253,37.338,68.177,37.721
	L68.177,37.721z M70.356,39.938h-0.917c0.076-0.153,0.114-0.344,0.114-0.612V38.37H68.1c-0.037,0.191-0.037,0.382-0.037,0.612
	c0,0.459,0.037,0.765,0.152,0.956h-0.956c0.114-0.229,0.191-0.421,0.191-0.612v-0.765c0-0.268,0-0.574,0.075-0.879
	c0.191-0.994,0.612-1.759,1.301-2.333c0.459-0.382,0.88-0.574,1.301-0.574c0.076,0,0.151,0,0.229,0.038
	c-0.076,0.153-0.151,0.344-0.151,0.574v3.938C70.203,39.594,70.28,39.786,70.356,39.938L70.356,39.938z M66.303,37.224
	c0-0.268-0.076-0.459-0.229-0.612c-0.153-0.153-0.345-0.229-0.611-0.229h-0.765v2.6c0.383-0.076,0.727-0.306,1.069-0.65
	C66.112,37.95,66.303,37.568,66.303,37.224L66.303,37.224z M64.698,35.426v0.344c0.459,0,0.803,0,1.107,0.038
	c0.612,0.077,0.956,0.268,1.147,0.65c0.075,0.153,0.114,0.42,0.114,0.727c0,0.382-0.114,0.726-0.345,1.032
	c-0.268,0.459-0.688,0.879-1.224,1.186c-0.574,0.344-1.109,0.535-1.605,0.535c0.076-0.153,0.114-0.344,0.114-0.612v-3.9
	c0-0.306-0.038-0.497-0.114-0.612h2.829v0.688c-0.114-0.077-0.229-0.077-0.421-0.077L64.698,35.426L64.698,35.426z M59.268,35.388
	c0-0.229-0.039-0.42-0.115-0.574h0.918c-0.075,0.115-0.114,0.306-0.114,0.574v1.568l1.146-1.3c0.229-0.268,0.346-0.459,0.346-0.573
	c0-0.115-0.039-0.191-0.115-0.268h0.918c-0.076,0.115-0.115,0.306-0.115,0.574v3.938c0,0.268,0.039,0.459,0.115,0.612h-0.918
	c0.076-0.191,0.115-0.382,0.115-0.612v-3.059l-1.492,1.797v1.262c0,0.268,0.039,0.459,0.114,0.612h-0.918
	c0.076-0.191,0.115-0.382,0.115-0.612V35.388z M53.952,35.388c0-0.229-0.038-0.42-0.114-0.574h0.918
	c-0.077,0.115-0.115,0.306-0.115,0.574v3.938h1.146v-3.938c0-0.229-0.037-0.42-0.114-0.574h0.918
	c-0.077,0.115-0.153,0.306-0.153,0.574v3.938h1.187v-3.938c0-0.229-0.038-0.42-0.152-0.574h0.955
	c-0.114,0.115-0.152,0.306-0.152,0.574v3.938c0,0.268,0.038,0.459,0.152,0.612h-4.588c0.076-0.153,0.114-0.344,0.114-0.612
	L53.952,35.388L53.952,35.388z M49.823,34.814c0.076,0.115,0.114,0.306,0.114,0.459c0,0.306,0,0.574,0.076,0.803
	c0.115,0.612,0.497,1.109,1.109,1.491c0.306,0.191,0.688,0.382,1.186,0.573c0,0.344-0.077,0.612-0.229,0.841
	c-0.191,0.268-0.42,0.382-0.766,0.382c-0.306,0-0.611-0.076-0.879-0.268v0.765c0.459,0.115,0.766,0.153,0.879,0.153
	c0.269,0,0.535-0.076,0.728-0.191c0.306-0.153,0.535-0.42,0.727-0.803c0.115-0.306,0.191-0.688,0.191-1.07v-2.562
	c0-0.268,0.039-0.459,0.152-0.574h-0.918c0.077,0.153,0.115,0.306,0.115,0.536v2.064c-0.727-0.306-1.186-0.612-1.376-0.879
	c-0.19-0.229-0.268-0.65-0.268-1.224c0-0.153,0.038-0.344,0.152-0.497L49.823,34.814L49.823,34.814z M49.9,39.174v0.803
	c-0.879-0.229-1.605-0.612-2.18-1.224c-0.612-0.65-0.956-1.415-0.956-2.256c0-0.497,0.191-0.917,0.497-1.262
	c0.306-0.306,0.727-0.459,1.224-0.459c0.421,0,0.688,0,0.842,0.038v0.879c-0.269-0.191-0.574-0.268-0.88-0.268
	s-0.534,0.115-0.727,0.306c-0.153,0.229-0.229,0.497-0.229,0.803c0,0.459,0.114,0.918,0.421,1.338
	c0.229,0.382,0.572,0.727,0.993,0.956C49.288,39.059,49.632,39.174,49.9,39.174L49.9,39.174z M43.59,37.224
	c0-0.268-0.076-0.459-0.229-0.612c-0.152-0.153-0.344-0.229-0.611-0.229h-0.766v2.6c0.383-0.076,0.728-0.306,1.07-0.65
	C43.437,37.95,43.59,37.568,43.59,37.224L43.59,37.224z M41.985,35.426v0.344c0.458,0,0.804,0,1.108,0.038
	c0.612,0.077,0.995,0.268,1.147,0.65c0.075,0.153,0.114,0.42,0.114,0.727c0,0.382-0.114,0.726-0.344,1.032
	c-0.268,0.459-0.688,0.879-1.224,1.186c-0.535,0.344-1.071,0.535-1.606,0.535c0.077-0.153,0.153-0.344,0.153-0.612v-3.9
	c0-0.306-0.076-0.497-0.153-0.612h2.868v0.688c-0.115-0.077-0.269-0.077-0.459-0.077L41.985,35.426L41.985,35.426z M38.276,37.721
	h1.376v-2.18c-0.344,0.153-0.611,0.497-0.918,0.956C38.505,36.917,38.352,37.338,38.276,37.721L38.276,37.721z M40.455,39.938
	h-0.956c0.113-0.153,0.152-0.344,0.152-0.612V38.37h-1.49c0,0.191,0,0.382,0,0.612c0,0.459,0.038,0.765,0.114,0.956H37.32
	c0.153-0.229,0.191-0.421,0.191-0.612v-0.765c0-0.268,0.039-0.574,0.115-0.879c0.19-0.994,0.611-1.759,1.262-2.333
	c0.458-0.382,0.917-0.574,1.338-0.574c0.077,0,0.153,0,0.229,0.038c-0.115,0.153-0.153,0.344-0.153,0.574v3.938
	C40.302,39.594,40.34,39.786,40.455,39.938L40.455,39.938z M33.687,34.814h3.137c-0.077,0.115-0.153,0.306-0.153,0.574v3.938
	c0,0.229,0.077,0.42,0.153,0.612h-0.919c0.077-0.153,0.115-0.344,0.115-0.612v-3.9H34.49v3.9c0,0.229,0.037,0.42,0.114,0.612h-0.918
	c0.115-0.153,0.153-0.344,0.153-0.612v-3.938C33.84,35.121,33.802,34.929,33.687,34.814L33.687,34.814z M63.091,37.3
	c0.114,0,0.269-0.114,0.269-0.268c0-0.115-0.153-0.268-0.269-0.268c-0.153,0-0.268,0.153-0.268,0.268
	C62.823,37.186,62.938,37.3,63.091,37.3L63.091,37.3z M51.391,26.441c3.56,1.777,7.572,2.399,11.483,1.531
	c1.896-0.421,3.751-0.976,5.531-1.76c1.645-0.724,3.703-1.521,5.087-2.677c-0.271-0.153-0.617-0.133-0.911-0.259
	c-0.479-0.205-0.499-0.266-1.058-0.107c-0.861,0.246-1.723,0.494-2.583,0.749c-1.725,0.511-3.456,1.096-5.24,1.35
	c-3.507,0.499-7.068-0.001-10.475-0.891C53.772,25.699,52.765,26.715,51.391,26.441z M51.926,24.185
	c0,0.133,0.305,0.598,0.104,0.921c-0.297,0.476-0.775,0.55-1.288,0.685c0.601,0.119,1.122,0,1.605-0.363
	C52.858,25.043,52.387,24.361,51.926,24.185z M50.397,24.338c0.333-0.109,0.416-0.595,0-0.612
	C49.965,23.708,50.01,24.267,50.397,24.338z M71.35,25.293c0.204,0.102,0.408,0.204,0.612,0.306c-0.2,0.281-0.196,0.445-0.555,0.325
	c-0.235-0.079-0.507-0.232-0.707-0.134c0.306,0.125,0.623,0.263,0.955,0.344c-0.089,0.159-0.177,0.324-0.229,0.497
	c-0.482-0.212-1.008-0.296-1.491-0.535c0.25,0.3,1.359,0.626,1.359,0.626l-0.156,0.344c0,0-1.628-0.455-2.006-0.587
	c-0.013,0.025-0.026,0.051-0.039,0.077c0.647,0.3,1.345,0.454,2.027,0.65c-0.09,0.167-0.146,0.348-0.153,0.535
	c-0.512-0.146-1.068-0.251-1.587-0.458c-0.152-0.061-0.959-0.448-1.052-0.402c-0.35,0.174-0.775,0.279-1.146,0.401
	c-1.471,0.486-3.281,1.43-4.855,1.377c0.166,0.313,0.414,0.432,0.344,0.765c-0.064,0.307-0.528,0.9-0.728,1.147
	c-0.215-0.359-0.472-0.689-0.677-1.058c-0.113-0.203-0.211-0.414-0.314-0.622c-0.176-0.35-0.194-0.265-0.646-0.242
	c-1.018,0.052-2.041,0.013-3.053-0.099c-2.001-0.222-4.104-0.661-5.825-1.765c0.143-0.02,0.278-0.095,0.42-0.115
	c-0.488-0.244-0.978-0.266-1.415-0.612c-0.605-0.48-1.333-1.25-1.683-1.95c0.408,0.077,0.815,0.153,1.224,0.229
	c-0.254-0.243-0.957-0.913-0.784-1.262c0.333-0.67,1.613-0.548,2.197-0.503c1.789,0.137,3.568,0.732,5.365,0.732
	c0.816,0,1.589,0.057,2.391-0.173c0.593-0.17,0.944-1.639,1.233-2.17c0.167-0.309,0.316-0.664,0.647-0.677
	c0.264-0.011,0.859,0.41,1.111,0.537c0.72,0.36,1.458,0.669,2.177,1.031c-1.209,1.059,0.722,1.015,1.452,0.929
	c0.68-0.08,1.356-0.117,1.874-0.585c0.578-0.523,0.835-0.962,1.53-0.382c-0.871,0.576,0.322,0.445,0.765,0.344
	c1.016-0.232,2.033-0.601,3.017-0.941c0.716-0.248,1.313-1.329,1.764-1.888c0.462-0.574,1.038-1.594,1.74-1.874
	c0.917-0.365,0.763,0.971,0.793,1.517c0.059,1.03,0.133,2.084,0.448,3.072c0.146,0.457,0.343,0.876,0.594,1.281
	c0.165,0.266,0.627,0.712,0.413,0.926c-0.608,0.606-1.762,0.268-2.483,0.107c-0.825-0.182-1.564-0.827-2.423-0.555
	C72.893,24.088,72.106,24.743,71.35,25.293z M29.481,48.657l-1.95,1.644l1.645,1.797l-1.3,1.453l-2.676-3.441l2.943-2.791
	L29.481,48.657z M54.908,53.092l-3.327-0.113l1.645-4.359L54.908,53.092z M59.651,55.578l0.19-2.602l-1.529-0.037v0.268
	l-0.804-0.038l-2.179-5.276l1.3,0.039l-0.038-1.377l-6.845,0.113v1.186h1.376l-1.874,5.049l-0.766-0.039v-0.269l-1.567-0.075
	l0.229,2.639l1.376,0.037l-0.038-0.955l9.789,0.344v0.957L59.651,55.578z M25.389,48.657l-1.338-1.339l-2.944,2.791l2.678,3.44
	l1.338-1.452L23.478,50.3L25.389,48.657z M38.352,54.66c-1.491,0-2.791-0.346-3.861-1.071c-1.032-0.728-1.568-1.604-1.568-2.6
	c0-1.032,0.536-1.912,1.568-2.64c1.07-0.688,2.37-1.069,3.861-1.069c1.529,0,2.792,0.382,3.862,1.069
	c1.071,0.728,1.605,1.606,1.605,2.64c0,0.993-0.535,1.872-1.605,2.6C41.143,54.314,39.881,54.66,38.352,54.66L38.352,54.66z
	 M38.352,45.406c-2.333,0-4.321,0.535-5.965,1.645c-1.644,1.07-2.447,2.371-2.447,3.938c0,1.528,0.804,2.829,2.447,3.938
	c1.644,1.071,3.632,1.606,5.965,1.606s4.321-0.535,5.965-1.606c1.646-1.108,2.485-2.409,2.485-3.938
	c0-1.567-0.841-2.868-2.485-3.938C42.673,45.941,40.684,45.406,38.352,45.406L38.352,45.406z M70.28,49.039l0.191-2.639h-1.567
	v0.268l-8.795,0.115v1.262l2.485-0.113v5.391h-1.988v1.262l7.802-0.076v0.229h1.3l0.113-2.639l-1.528,0.077l0.039,0.88l-3.327,0.076
	l0.114-1.912l1.225-0.037l-0.077,0.993l1.3-0.077l0.612-3.021h-1.721l-0.038,0.88h-1.225l0.076-1.798l3.633-0.076v0.956H70.28z
	 M76.512,53.438c-0.955,0-1.758-0.269-2.408-0.766c-0.688-0.497-0.994-1.146-0.994-1.874c0-0.688,0.307-1.338,0.994-1.835
	c0.65-0.497,1.453-0.765,2.408-0.765c0.88,0,1.646,0.229,2.295,0.688l-0.459,0.65l0.918,0.803l2.639-3.44l-1.186-0.688l-0.918,1.3
	c-0.994-0.496-2.104-0.727-3.289-0.727c-1.567,0-2.906,0.382-4.053,1.186c-1.109,0.803-1.683,1.721-1.683,2.829
	c0,1.147,0.496,2.104,1.49,2.868c1.033,0.803,2.295,1.186,3.862,1.186c1.415,0,2.792-0.459,4.091-1.414l-0.917-1.07
	C78.615,53.092,77.698,53.438,76.512,53.438L76.512,53.438z M86.645,53.438c1.147,0,2.104-0.346,2.792-1.07l0.88,1.07
	c-1.301,0.955-2.639,1.414-4.054,1.414c-1.567,0-2.868-0.383-3.862-1.186c-0.993-0.766-1.489-1.721-1.489-2.868
	c0-1.108,0.571-2.026,1.682-2.829c1.109-0.804,2.485-1.186,4.053-1.186c1.187,0,2.295,0.229,3.289,0.727l0.918-1.3l1.187,0.688
	l-2.64,3.44l-0.918-0.803l0.459-0.65c-0.649-0.459-1.415-0.688-2.295-0.688c-0.955,0-1.758,0.268-2.446,0.765
	c-0.649,0.497-0.994,1.146-0.994,1.835c0,0.728,0.345,1.377,0.994,1.874C84.887,53.169,85.69,53.438,86.645,53.438L86.645,53.438z
	 M94.981,50.301l0.918-1.835l0.65,1.722L94.981,50.301z M100.143,53.475l-2.562-5.813h1.224v-1.107h-5.124l0.114,1.031l0.994-0.113
	l-3.021,5.122l-1.224,0.115l-0.114,1.224h4.589l0.114-1.339l-1.262-0.114l0.611-1.224h2.484l0.842,2.103l-1.453,0.229l0.076,0.994
	h5.047l0.115-1.224L100.143,53.475z M101.864,49.995l4.32-0.115l0.27,2.142h-4.704L101.864,49.995z M96.855,62.844l1.911-1.645
	l-1.644-1.797l1.224-1.606l2.83,3.365l-2.982,2.981L96.855,62.844z M49.403,58.18v-2.181l-5.697,0.077l-4.167,6.079l-3.595-4.741
	l-5.238-0.115v1.684l1.835,0.076l-0.269,5.889h-2.103v2.218l6.231-0.115v-1.682l-1.835-0.153l0.497-5.047l4.589,6.118l5.048-7.074
	l0.229,4.972l-2.371,0.19v1.873l7.38,0.114v-2.408h-2.371v-5.697L49.403,58.18z M55.291,60.893l0.918-1.834l0.648,1.722
	L55.291,60.893z M60.453,64.066l-2.563-5.813h1.187v-1.107h-5.124l0.113,1.031l0.994-0.113l-3.02,5.123l-1.187,0.114l-0.113,1.224
	h4.55l0.113-1.338l-1.224-0.115l0.611-1.223h2.485l0.804,2.103l-1.453,0.229l0.115,1.031h4.895v0.153l4.664-0.076v-1.263
	l-1.338-0.114l0.344-3.785l3.441,4.588l3.785-5.313l0.19,3.746l-1.797,0.115v1.414l5.545,0.077v-1.798h-1.798v-4.282l1.376-0.039
	v-1.644l-4.281,0.076l-3.098,4.55l-2.715-3.556l-3.938-0.076v1.224l1.376,0.076l-0.19,4.437h-1.566v0.268L60.453,64.066z
	 M81.292,60.893l0.917-1.834l0.688,1.722L81.292,60.893z M86.454,64.066l-2.563-5.813h1.224v-1.107h-5.123l0.113,1.031l0.994-0.113
	l-3.021,5.123l-1.225,0.114l-0.113,1.224h4.588l0.114-1.338l-1.225-0.115l0.612-1.223h2.446l0.842,2.103l-1.453,0.229l0.115,1.031
	h5.009l0.113-1.262L86.454,64.066z M93.184,55.578l-2.18,8.986l-1.797-0.153l0.19-9.024L93.184,55.578z M89.055,67.661h2.141v-1.797
	l-2.332-0.191L89.055,67.661z M92.878,62.844l1.338,1.301l2.982-2.982l-2.829-3.365l-1.187,1.605l1.646,1.798L92.878,62.844z"/>
</svg>
