<?xml version="1.0" encoding="utf-8"?>
<!-- Generator: Adobe Illustrator 22.1.0, SVG Export Plug-In . SVG Version: 6.00 Build 0)  -->
<svg version="1.1" id="Слой_1" xmlns="http://www.w3.org/2000/svg" xmlns:xlink="http://www.w3.org/1999/xlink" x="0px" y="0px"
	 viewBox="0 0 127.6 85" style="enable-background:new 0 0 127.6 85;" xml:space="preserve">
<style type="text/css">
	.st0{fill:#979898;}
</style>
<path class="st0" d="M74.3,57.3h-2.9v4.3h3V61h-2.3v-1.4h1.6V59h-1.6v-1.1h2.2V57.3z M69.3,57.3h-2.8v4.3h0.7v-1.8h1.7v-0.7h-1.7
	v-1.3h2.1L69.3,57.3L69.3,57.3z M63,60.3h-1.4l0.8-1.8L63,60.3z M63.5,61.7h0.8l-1.9-4.4h-0.3l-1.9,4.4H61l0.3-0.8h2L63.5,61.7z
	 M56.5,57.2c-0.7,0-1.2,0.2-1.6,0.7c-0.4,0.5-0.7,0.9-0.7,1.6s0.2,1.2,0.7,1.6c0.5,0.5,0.9,0.7,1.6,0.7c0.4,0,0.8-0.1,1.1-0.3
	s0.6-0.5,0.8-0.8l-0.6-0.4c-0.3,0.5-0.8,0.8-1.3,0.8c-0.5,0-0.8-0.2-1.1-0.5c-0.3-0.3-0.5-0.7-0.5-1.1s0.2-0.8,0.5-1.1
	s0.7-0.5,1.1-0.5c0.6,0,1,0.3,1.3,0.8l0.6-0.4c-0.2-0.3-0.5-0.6-0.8-0.8C57.3,57.4,56.9,57.3,56.5,57.2L56.5,57.2z M108.2,31.8
	c-4.2-1.4-2.7-6.4-4.5-7.4l0.7-1c4,1.7,2.4,5.9,4.3,7.5L108.2,31.8 M108.1,44.7c0,1.2-0.2,3.1,1,4.3l-0.5,0.9
	c-2-0.8-3.3-2.6-3.3-5.7v-4.9l0,0v-5.8h2.7V44.7 M49.7,33.4c-1.6,0-3,0.5-4.1,1.5c-0.8-0.9-1.8-1.4-2.5-1.5l-0.8,1
	c1.7,0.9,1.7,2.8,1.7,4.1v5.8l0,0v7.6c0,3.1,1.3,4.9,3.3,5.7l0.5-0.9c-1.2-1.2-1-3-1-4.3v-3.1c0.8,0.4,1.8,0.6,2.7,0.6
	c2.9,0,5.5-1.7,5.5-5.6v-5.5C55,35.2,52.6,33.4,49.7,33.4 M52.4,44.9c0,1.2-0.1,3.9-2.7,3.9s-2.7-2.6-2.7-3.9v-6.3
	c0-1.2,0.1-3.9,2.7-3.9c2.6,0,2.7,2.6,2.7,3.9V44.9z M74.9,33.4c1.8,0,3.8,0.8,3.8,2.5c0,1.3-1.5,2.1-1.5,2.1l-1.1-0.5
	c0.7-1,0.5-2.6-1.3-2.6c-1.1,0-1.8,0.9-1.8,2.4V50h-2.7V38.7c0-1.2,0-3.2-1.7-4.1l0.7-1c0.7,0.2,1.6,0.6,2.4,1.4
	C72.4,33.9,73.6,33.4,74.9,33.4 M67.9,39c0-3.8-2.5-5.5-5.5-5.5c-0.1,0-0.2,0-0.3,0l0,0h-0.1l0,0c-2.8,0.1-5.2,1.9-5.2,5.5l0,0l0,0
	l0,0v2.7v2.7c0,3.8,2.6,5.6,5.7,5.6c2.3,0,4.3-0.9,4.3-2.6c0-1.2-1.2-1.8-1.2-1.8l-1.1,0.5c0.7,1.1-0.2,2.6-2.3,2.6l0,0l0,0
	c-2.6,0-2.7-2.6-2.7-3.9v-0.9c0.8,0.4,1.8,0.6,2.7,0.6C65.4,44.5,67.9,42.8,67.9,39L67.9,39L67.9,39L67.9,39L67.9,39z M62.5,43.3
	c-2.6,0-2.7-2.6-2.7-3.9v-0.8c0-1.2,0.1-3.9,2.7-3.9s2.7,3,2.7,4.2C65.2,40.2,65.1,43.3,62.5,43.3z M89.8,44.9V39
	c0-3.8-2.5-5.6-5.6-5.6c-2.3,0-4.4,0.9-4.4,2.6c0,1.2,1.2,1.8,1.2,1.8l1.1-0.5c-0.7-1.1,0.2-2.6,2.3-2.6l0,0l0,0
	c2.6,0,2.7,2.6,2.7,3.9v0.9c-0.8-0.4-1.8-0.6-2.7-0.6c-2.9,0-5.5,1.7-5.5,5.5l0,0l0,0l0,0l0,0c0,3.8,2.5,5.5,5.5,5.5
	c1.6,0,3-0.5,4.1-1.5c0.8,0.9,1.8,1.3,2.5,1.5l0.7-1C89.8,48.2,89.8,46.2,89.8,44.9 M84.4,48.7c-2.6,0-2.7-3-2.7-4.2
	s0.1-4.2,2.7-4.2c2.5,0,2.7,2.3,2.7,3.6v1C87.1,46.2,87,48.7,84.4,48.7z M41,44.9V39c0-3.8-2.5-5.6-5.6-5.6c-2.3,0-4.4,0.9-4.4,2.6
	c0,1.2,1.2,1.8,1.2,1.8l1.1-0.5c-0.7-1.1,0.2-2.6,2.3-2.6l0,0l0,0c2.6,0,2.7,2.6,2.7,3.9v0.9c-0.8-0.4-1.8-0.6-2.7-0.6
	c-2.9,0-5.5,1.7-5.5,5.5l0,0l0,0l0,0l0,0c0,3.8,2.5,5.5,5.5,5.5c1.6,0,3-0.5,4.1-1.5c0.8,0.9,1.8,1.3,2.5,1.5l0.7-1
	C41,48.2,41,46.2,41,44.9 M35.5,48.7c-2.6,0-2.7-3-2.7-4.2s0.1-4.2,2.7-4.2c2.5,0,2.7,2.3,2.7,3.6v1C38.2,46.2,38.2,48.7,35.5,48.7z
	 M26.9,42.7c0.8,0.8,1.7,1.7,1.7,3.2c0,2.5-2.5,4.1-5,4.1s-5.2-1.1-5.2-3.2c0-2,1.7-2.6,1.7-2.6l1.1,0.5c-1.2,2.1,0.1,4.1,2.4,4.1
	c1.3,0,2.3-0.9,2.3-2.2c0-1.1-0.7-1.9-1.3-2.5c-0.1-0.1-3.8-3.7-3.8-3.8C20.1,39.6,19,38.6,19,37c0-2.3,2.2-3.7,4.8-3.7
	c1.9,0,4,0.8,4,2.5c0,1.3-1.5,2.1-1.5,2.1l-1.1-0.5c0.7-1,0.5-2.6-1.3-2.6c-1.6,0-2.1,1-2.1,1.8c0,0.8,0.4,1.4,0.9,2
	C22.9,38.6,26.8,42.6,26.9,42.7 M101.1,33.5h2.8c0,0-4.7,15-5.2,16.5c-1.2,0-2.5-0.6-3.5-3.7c-0.2-0.7-2.4-7.5-2.5-7.8
	c-0.6-1.9-1-3.2-2.6-4.1l0.7-1c2.4,0.6,3.9,2,4.5,4.4c0.1,0.3,2.2,8.3,2.2,8.3L101.1,33.5z"/>
</svg>
