<?xml version="1.0" encoding="utf-8"?>
<!-- Generator: Adobe Illustrator 22.1.0, SVG Export Plug-In . SVG Version: 6.00 Build 0)  -->
<svg version="1.1" id="Слой_1" xmlns="http://www.w3.org/2000/svg" xmlns:xlink="http://www.w3.org/1999/xlink" x="0px" y="0px"
	 viewBox="0 0 127.6 85" style="enable-background:new 0 0 127.6 85;" xml:space="preserve">
<style type="text/css">
	.st0{fill-rule:evenodd;clip-rule:evenodd;fill:#979898;}
</style>
<path class="st0" d="M30.4,27.8c8.1,0,14.8,6.6,14.8,14.8c0,1.3-0.2,2.6-0.5,3.9C43.4,50.8,36.9,51,33,47c-2-2-4-3.6-6.2-4.5h1.6
	c2.4-0.7,4.2-2.9,4.2-5.5c0-2.6-1.8-4.9-4.2-5.5h-4.2c2.4,0.7,4.2,2.9,4.2,5.5c0,2.2-1.3,4.2-3.1,5.1c-1.8-0.4-3.7-0.3-6,0.4
	l-0.9,0.9c6-1.8,8.6,1.4,13.1,5.3c4.2,3.7,9.8,3.5,12.3,0c-2.4,5.1-7.5,8.6-13.4,8.6c-8.1,0-14.8-6.6-14.8-14.8
	C15.6,34.4,22.2,27.8,30.4,27.8 M56.9,38.6l-2.6-3.8l2.4-3.3h-1l-2.3,3.3h0v-3.3h-0.9v7.2h0.9v-3.7h0l2.3,3.7H56.9z M64.3,35
	c0-0.9-0.1-1.8-0.6-2.6c-0.4-0.7-1.1-1.1-2-1.1c-0.8,0-1.5,0.4-2,1.1c-0.5,0.8-0.6,1.7-0.6,2.6c0,0.9,0.1,1.9,0.6,2.6
	c0.5,0.7,1.2,1.1,2,1.1c0.8,0,1.5-0.4,2-1.1C64.1,36.9,64.3,35.9,64.3,35z M63.3,35c0,0.7,0,1.4-0.3,2c-0.2,0.6-0.7,1-1.3,1
	c-0.7,0-1.1-0.4-1.3-1c-0.3-0.6-0.3-1.4-0.3-2c0-0.7,0-1.4,0.3-2.1c0.2-0.6,0.7-1,1.3-1c0.6,0,1.1,0.4,1.3,1
	C63.2,33.6,63.3,34.3,63.3,35z M71.9,38.6v-7.2h-1v3.1h-2.7v-3.1h-1v7.2h1v-3.4h2.7v3.4H71.9z M80.6,38.6l-2.4-7.2h-0.9l-2.4,7.2
	h0.9l0.7-2.1h2.5l0.7,2.1H80.6z M78.7,35.9h-2.1l0.9-2.7c0.1-0.3,0.2-0.6,0.2-0.9h0c0,0.3,0.1,0.6,0.2,0.9L78.7,35.9z M88,38.6
	l-2.6-3.8l2.4-3.3h-1l-2.3,3.3h0v-3.3h-0.9v7.2h0.9v-3.7h0l2.3,3.7H88z M95.4,35c0-0.9-0.1-1.8-0.6-2.6c-0.5-0.7-1.1-1.1-2-1.1
	c-0.8,0-1.5,0.4-2,1.1c-0.5,0.8-0.6,1.7-0.6,2.6c0,0.9,0.1,1.9,0.6,2.6c0.5,0.7,1.2,1.1,2,1.1c0.8,0,1.5-0.4,2-1.1
	C95.3,36.9,95.4,35.9,95.4,35z M94.5,35c0,0.7,0,1.4-0.3,2c-0.2,0.6-0.7,1-1.3,1c-0.7,0-1.1-0.4-1.3-1c-0.3-0.6-0.3-1.4-0.3-2
	c0-0.7,0-1.4,0.3-2.1c0.2-0.6,0.7-1,1.3-1c0.6,0,1.1,0.4,1.3,1C94.4,33.6,94.5,34.3,94.5,35z M103.5,36.7c0-0.9-0.8-1.7-1.7-1.9v0
	c0.8-0.1,1.4-0.8,1.4-1.7c0-1.3-1.3-1.8-2.4-1.8c-0.6,0-1.3,0.1-1.9,0.4v6.6c0.6,0.3,1.3,0.4,2,0.4
	C102.3,38.7,103.5,38.2,103.5,36.7z M102.3,33.2c0,1.2-1,1.4-2,1.4h-0.5v-2.6c0.3-0.1,0.6-0.2,0.9-0.2
	C101.7,31.9,102.3,32.3,102.3,33.2z M102.6,36.7c0,1-0.7,1.4-1.7,1.4c-0.4,0-0.7,0-1-0.2v-2.9h0.5C101.5,35.1,102.6,35.3,102.6,36.7
	z M111.6,35c0-0.9-0.1-1.8-0.6-2.6c-0.5-0.7-1.1-1.1-2-1.1c-0.9,0-1.5,0.4-2,1.1c-0.5,0.8-0.6,1.7-0.6,2.6c0,0.9,0.1,1.9,0.6,2.6
	c0.5,0.7,1.2,1.1,2,1.1c0.8,0,1.5-0.4,2-1.1C111.5,36.9,111.6,35.9,111.6,35z M110.7,35c0,0.7,0,1.4-0.3,2c-0.2,0.6-0.7,1-1.3,1
	c-0.7,0-1.1-0.4-1.3-1c-0.3-0.6-0.3-1.4-0.3-2c0-0.7,0-1.4,0.3-2.1c0.2-0.6,0.7-1,1.3-1c0.6,0,1.1,0.4,1.3,1
	C110.6,33.6,110.7,34.3,110.7,35z M59.7,53.6l-3.2-4.8v0c0.4,0,0.8-0.1,1.2-0.3c0.4-0.1,0.7-0.3,0.9-0.6c0.2-0.2,0.4-0.5,0.6-0.9
	c0.1-0.3,0.2-0.7,0.2-1.1c0-1-0.3-1.8-1-2.4c-0.7-0.6-1.6-0.9-3-0.9c-0.6,0-1.2,0.1-1.7,0.2c-0.5,0.1-0.9,0.3-1.2,0.4v10.3h2v-4.9h0
	l3,4.9H59.7z M57.5,46c0,0.7-0.2,1.3-0.6,1.7c-0.4,0.4-0.9,0.6-1.7,0.6c-0.1,0-0.3,0-0.4,0c-0.1,0-0.2,0-0.3-0.1V44
	c0.1-0.1,0.3-0.1,0.4-0.1c0.2,0,0.4-0.1,0.6-0.1c0.7,0,1.2,0.2,1.6,0.5C57.3,44.7,57.5,45.3,57.5,46z M63,43.1
	c0-0.3-0.1-0.5-0.3-0.7c-0.2-0.2-0.4-0.3-0.8-0.3c-0.3,0-0.5,0.1-0.7,0.3c-0.2,0.2-0.3,0.4-0.3,0.7c0,0.3,0.1,0.5,0.3,0.7
	c0.2,0.2,0.5,0.3,0.7,0.3c0.3,0,0.6-0.1,0.8-0.3C62.9,43.6,63,43.4,63,43.1z M62.9,45.2H61v8.4h1.9V45.2z M71.4,45.2h-1.8l-1.5,5.4
	c-0.1,0.3-0.2,0.7-0.2,1.2h0c-0.1-0.5-0.1-0.9-0.2-1.2l-1.5-5.4h-2l2.7,8.4h1.8L71.4,45.2z M78.9,49.3c0-1.4-0.2-2.5-0.8-3.2
	c-0.6-0.7-1.4-1.1-2.6-1.1c-0.6,0-1.1,0.1-1.5,0.3c-0.4,0.2-0.8,0.5-1.1,0.9c-0.3,0.4-0.6,0.8-0.7,1.4c-0.2,0.5-0.2,1.1-0.2,1.8
	c0,1.4,0.4,2.5,1.1,3.3c0.7,0.7,1.7,1.1,2.9,1.1c0.6,0,1.2-0.1,1.6-0.2c0.5-0.1,0.8-0.3,1.1-0.4L78.2,52c-0.2,0.1-0.5,0.2-0.9,0.3
	c-0.3,0.1-0.8,0.1-1.3,0.1c-1.4,0-2.1-0.8-2.3-2.3L78.9,49.3z M77.1,48.6l-3.5,0.5c0-1,0.1-1.7,0.5-2.2c0.3-0.5,0.8-0.7,1.4-0.7
	c0.5,0,0.9,0.2,1.2,0.6C77,47.1,77.1,47.7,77.1,48.6z M84.4,45c-0.5,0-1,0-1.4,0c-0.4,0-0.8,0.1-1.1,0.1c-0.3,0.1-0.6,0.1-0.9,0.2
	c-0.2,0.1-0.5,0.2-0.7,0.3v8h1.9v-7.1c0.2-0.1,0.5-0.2,0.8-0.2c0.3,0,0.6,0,1,0.1L84.4,45z M91.8,53.1l-0.5-1.3
	c-0.2,0.1-0.4,0.2-0.6,0.3c-0.2,0.1-0.5,0.1-0.8,0.1c-0.4,0-0.8-0.1-1.1-0.3c-0.3-0.2-0.6-0.5-0.8-0.9c-0.2-0.4-0.3-0.8-0.4-1.3
	c-0.1-0.5-0.1-1-0.1-1.5c0-0.5,0-1,0.1-1.5c0.1-0.5,0.2-0.9,0.4-1.3c0.2-0.4,0.4-0.7,0.8-0.9c0.3-0.2,0.7-0.4,1.2-0.4
	c0.3,0,0.6,0,0.8,0.1c0.2,0.1,0.4,0.2,0.6,0.3l0.4-1.2c-0.3-0.2-0.6-0.3-0.9-0.4c-0.4-0.1-0.8-0.2-1.3-0.2c-0.7,0-1.3,0.2-1.8,0.5
	c-0.5,0.3-0.9,0.7-1.3,1.2c-0.3,0.5-0.6,1.1-0.8,1.8c-0.2,0.7-0.3,1.4-0.3,2.1c0,0.7,0.1,1.5,0.3,2.1c0.2,0.7,0.4,1.3,0.8,1.8
	c0.3,0.5,0.8,0.9,1.3,1.2c0.5,0.3,1.1,0.4,1.8,0.4C90.5,53.7,91.2,53.5,91.8,53.1z M95,42.5h-1.9v11.1H95V42.5z M103.3,53.1v-7.9
	h-1.9v7c-0.2,0.1-0.4,0.2-0.6,0.2c-0.2,0-0.4,0.1-0.7,0.1c-0.5,0-0.9-0.1-1.1-0.4c-0.2-0.3-0.3-0.6-0.3-1v-5.9h-1.9v5.8
	c0,0.9,0.3,1.6,0.8,2.1c0.5,0.5,1.3,0.7,2.5,0.7c0.7,0,1.4-0.1,1.9-0.2C102.5,53.4,103,53.3,103.3,53.1z M112,49.2
	c0-0.6-0.1-1.2-0.2-1.7c-0.2-0.5-0.4-0.9-0.7-1.3c-0.3-0.4-0.6-0.6-1-0.8c-0.4-0.2-0.9-0.3-1.3-0.3c-0.4,0-0.7,0-1,0.1
	c-0.2,0.1-0.5,0.1-0.7,0.2v-2.9h-1.9v10.6c0.3,0.2,0.6,0.3,1.1,0.4c0.5,0.1,1,0.2,1.7,0.2c0.7,0,1.2-0.1,1.7-0.3
	c0.5-0.2,0.9-0.5,1.3-0.9c0.3-0.4,0.6-0.9,0.8-1.4C111.9,50.5,112,49.9,112,49.2z M110.1,49.3c0,1-0.2,1.8-0.5,2.4
	c-0.3,0.6-0.9,0.9-1.6,0.9c-0.4,0-0.7-0.1-1-0.2v-6c0.2-0.1,0.3-0.1,0.5-0.2c0.2,0,0.4-0.1,0.6-0.1c0.4,0,0.7,0.1,0.9,0.2
	c0.2,0.2,0.5,0.4,0.6,0.7c0.2,0.3,0.3,0.6,0.3,1C110,48.5,110.1,48.9,110.1,49.3z"/>
</svg>
