<?xml version="1.0" encoding="utf-8"?>
<!-- Generator: Adobe Illustrator 22.1.0, SVG Export Plug-In . SVG Version: 6.00 Build 0)  -->
<svg version="1.1" id="Слой_1" xmlns="http://www.w3.org/2000/svg" xmlns:xlink="http://www.w3.org/1999/xlink" x="0px" y="0px"
	 viewBox="0 0 127.6 85" style="enable-background:new 0 0 127.6 85;" xml:space="preserve">
<style type="text/css">
	.st0{fill:#979898;}
</style>
<path class="st0" d="M64.8,55.3c0.1-2.3,0.2-4.6,0.3-6.8c0.1-2.1,0.4-4.5,1.5-6.2c1-1.6,2.7-2.3,4.5-2.7c1-0.3,1.5,0.2,1.6,1.1
	s0,1.8,0,2.7c0,2.9-0.1,5.8,0,8.7c0,2.1,0.1,4.2,0,6.3c-0.1,1-0.1,2.2-0.1,3.3c0,0.4-0.1,0.9,0,1.3c0.2,0.4,0.5,0.6,0.5,1
	c0,0.6-0.7,1.1-1.2,1.2c-1.1,0.3-1-1.2-1-2C70.7,61.1,70.9,59,71,57c0-2.9,0-5.8,0-8.7c0-1.3,0-2.6,0-3.9c0-0.8,0-1.7-0.1-2.4
	c0-0.3,0-0.4-0.3-0.4c-0.4-0.1-1,0.4-1.3,0.6c-1.7,1-1.8,2.4-2.2,4.2c-0.5,2.2-0.3,4.6-0.3,6.7c0,2.3-0.4,4.6-0.4,6.8
	c0,1-0.1,2.2,0,3.3c0,0.7,0.4,1.8-0.7,2.1c-0.8,0.2-1.1-0.6-1.1-1.2c0-1.1,0.1-2.2,0.1-3.4C64.6,58.9,64.7,57,64.8,55.3 M77.9,57.4
	c0.1,1.4,0,2.9,0,4.3c0,0.4-0.1,1,0.3,1.3c0.3,0.2,0.7,0.2,1,0.2s0.8,0.1,1.2,0.1s1.6,0.3,1.9-0.2c0.3-0.3-0.1-1.4-0.1-1.8
	c0-1.5,0.1-3.1,0.1-4.6c0.2-2,0.2-3.8,0.1-5.9c0-0.7-0.1-1.4,0-2.1c0-1.2-0.1-2.3-0.3-3.5c-0.2-1-0.2-2.3-1-3.2
	c-0.7-0.7-1.8-1-2.4-0.2c-0.7,0.9-1,1.9-0.9,3.1c0,1.2-0.1,2.4,0,3.6C78.1,51.6,77.8,54.5,77.9,57.4z M83.9,46.2
	c0.3,1.8,0.1,3.6,0.1,5.4c0.1,1.7,0.2,3.3,0,4.9c-0.2,1.9-0.1,3.8,0,5.9c0,0.6,0.4,2.1-0.3,2.6c-0.4,0.3-0.7-0.1-1.1-0.1
	c-0.5,0-1,0-1.5,0c-1-0.1-2-0.2-3-0.2c-1-0.1-1.7-0.3-1.8-1.3c-0.3-2.2,0-4.6,0-6.7c0-1-0.1-2-0.1-2.9c-0.1-0.9,0.2-1.9,0.1-2.8
	c-0.1-2.4-0.6-4.8-0.1-7.3s2.4-5,5.2-3.8C83.7,40.7,83.7,44.2,83.9,46.2z M90.2,64.8c-0.4,0-0.7,0-1,0.1c-0.4,0-0.6,0.3-0.8,0.3
	c-0.7,0.2-1.2-0.3-1.3-0.8c-0.2-0.7-0.2-1.6-0.2-2.3c0-0.9,0.3-1.8,0.3-2.6c-0.1-2-0.1-3.8,0.1-5.9c0.1-1-0.1-1.9-0.1-2.9
	c-0.3-3.3-0.7-8.6,2.9-10.3c1-0.5,2.4-0.9,3.5-0.7c0.9,0.2,0.7,1,0.7,1.7c0,0.7,0.1,1.5,0,2.1c-0.1,0.7-0.7,1.2-1.3,0.8
	c-0.4-0.3-0.4-0.7-0.4-1.2s0-1,0-1.4c-0.1-0.7-0.7-0.4-1.2-0.1c-3.5,1.4-2.7,6.7-2.5,9.7c0.2,3-0.1,6-0.2,9c0,0.4,0,0.8,0,1.1
	c0,0.4-0.2,1-0.1,1.4c0.2,0.6,1.4,0.5,2,0.5c0.5,0,1.6,0.4,2,0.1c0.5-0.4,0.3-1.9,0.3-2.4c0-0.8-0.2-1.8-0.1-2.5
	c0-0.7,0.5-1.3,1.2-0.9c0.7,0.4,0.6,1.8,0.6,2.4c0,0.9-0.2,1.8,0,2.7c0.1,0.5,0.4,1.3,0.2,1.8c-0.3,0.8-1.4,0.7-2.1,0.6
	C91.8,64.9,91,64.9,90.2,64.8z M93.9,43.4C93.9,43.4,93.9,43.5,93.9,43.4z M98.6,47c-0.3,1.2-0.1,2.7-0.1,3.9c0,1.6,0,3.2,0.1,4.7
	c0.1,1.4,0.2,2.9,0.3,4.3c0,0.7-0.7,2.9,0.2,3.1c0.5,0.2,1.1,0.1,1.8,0.1c0.6,0,0.6-0.2,0.6-0.7c0.2-1.7,0.1-3.3,0.1-4.9
	c-0.1-1.6-0.2-3.2-0.3-4.6c0-0.9-0.1-1.8-0.1-2.6C101.1,48.6,100.1,47.7,98.6,47z M100.4,64.7c-0.4,0-0.9-0.1-1.3-0.1
	S98.2,65,97.8,65s-0.8-0.5-1-0.7c-0.4-0.6-0.2-1-0.1-1.7c0.3-1.2,0.2-2.7,0.2-3.9c0-1.5-0.2-2.9-0.3-4.4c-0.2-2.3-0.3-4.8-0.1-7.1
	c0.1-1.7,0.2-3.2,0.2-4.8c0-0.6-0.2-1.6,0.1-2.1c0.2-0.4,0.6-0.6,1-0.5c0.6,0.1,0.7,0.7,0.7,1.1c0.1,0.7,0,1.4,0,2.1
	c0,0.8-0.4,2,0.5,2.4c1,0.7,2.1,1,2.9,2c0.8,1,1,2.4,1.1,3.6c0.1,1.4,0.1,2.7,0.2,4.1c0.1,2.2,0,4.5,0,6.6c0,0.7-0.1,1.1,0.2,1.8
	c0.2,0.5,0.1,0.9-0.5,1.1C102.4,64.9,100.7,65,100.4,64.7z M24.5,46c0-1.8,0-3.5,0-5.2c0-0.4,0-0.9,0.4-1.1c0.4-0.3,1.1-0.1,1.6,0
	c0.5,0.1,1.2,0,1.7,0.3c0.6,0.4,0.4,1.1,0.4,1.8c0.3,2.4,0,4.9,0,7.4c0,0.8,0,1.7,0,2.4c0,0.3,0,0.5,0,0.8c0,0.4,0.3,1,0.2,1.4
	c-0.1,0.4-0.5,0.7-0.8,0.4c-0.3-0.3-0.3-0.7-0.3-0.9c0-0.7,0-1.5,0-2.2c0-1.9-0.1-3.7-0.1-5.6c0-1.3,0-2.6-0.1-3.9
	c0-0.5-0.1-0.4-0.6-0.5c-0.3,0-0.7-0.1-0.9-0.1c-0.4,0-0.4,0-0.4,0.4c-0.2,1.5-0.1,3.1-0.1,4.6c0,1.3,0,2.5-0.1,3.8
	c0,1-0.1,2.1,0,3.2c0,0.4,0.2,0.8,0,1.1c-0.4,0.7-0.8,0.1-0.9-0.4c-0.1-1,0-2.1,0.1-3.2C24.4,48.7,24.5,47.3,24.5,46z M35.5,45.9
	c-0.5,1.9-1,3.8-1.5,5.7c-0.2,0.5-0.7,3.2-1.7,2.3c-0.4-0.4-0.2-1.6-0.1-2c0-0.7,0-1.5,0.1-2.2c0-1.5-0.1-3-0.1-4.4s0-2.7,0-4.1
	c0-0.4-0.1-1.1,0.3-1.5c0.4-0.3,0.7-0.2,0.7,0.2c0.1,0.3,0.1,0.4,0,0.7c0,0.5,0,1,0,1.5c0.1,1.1,0,2.2,0,3.4
	c-0.1,1.4,0.1,2.8,0.1,4.3c0.4-1.4,0.7-2.7,1-4.1c0.2-0.7,0.4-1.5,0.6-2.3c0.2-0.5,0.4-0.9,0.5-1.5c0.1-0.5-0.1-1.1,0.2-1.7
	c0.3-0.6,0.8-0.6,1-0.1c0.3,0.4,0.1,1.2,0,1.8c-0.1,1.8,0.1,3.6-0.2,5.3c-0.2,1.2,0.1,2.5,0,3.8c0,0.4,0,0.7,0,1.1s0.1,1.5-0.4,1.8
	c-0.7,0.5-0.8-0.5-0.8-0.9c0.1-0.8,0.1-1.8,0.1-2.5C35.5,48.9,35.5,47.4,35.5,45.9z M40,50.9c0-2,0-4,0-6c0-1.1-0.1-2.2,0-3.4
	c0-0.4,0-2.5,1-1.8c0.4,0.4,0.1,0.8,0.1,1.2c-0.1,0.4,0,0.7,0,1.1c0,0.8,0,1.7,0,2.4C41,47,41,49.2,41,51.6c0,0.4-0.2,1,0.3,1.1
	c0.3,0.1,0.7,0.1,0.9,0.1c0.2,0,0.6,0.2,0.7,0.1c0.1-0.1,0-0.1,0.1-0.2c0.3-0.4,0.1-1.1,0.1-1.5c0-0.7,0-1.2,0.1-1.9
	c0.1-2.2-0.1-4.4-0.1-6.6c0-0.5,0-1,0-1.5c0-0.4-0.1-0.9,0.1-1.2c0.4-0.6,0.9-0.2,1,0.4c0.1,0.5,0.1,1,0,1.5c-0.2,1.4-0.1,3,0,4.5
	c0.1,1.5,0,3,0,4.6c0,0.4,0,0.7,0,1c0,0.3-0.2,1,0,1c0.3,0.3,0.7,0,0.8,0.5c0.2,0.4,0.2,1.6-0.1,1.9c-0.5,0.7-1-0.1-1-0.6
	c0-0.2,0.1-0.4,0-0.6c-0.2-0.3-0.7-0.2-0.9-0.2c-0.7,0-1.2-0.1-1.8-0.1C39.6,53.9,40.1,51.9,40,50.9z M48,50.9c0-2.1,0-4.4,0-6.5
	c0-1-0.1-2.1,0-3.2c0-0.4,0-0.7,0.1-1c0.1-0.7,0.9-0.9,1-0.2c0.1,0.4-0.1,0.8-0.1,1.2c0,0.3,0,0.6,0,0.8c0,0.8,0.1,1.7,0,2.4
	C49,46.9,49,49.4,49,51.8c0,0.8,0,0.7,0.8,0.8c0.3,0,0.6,0.1,0.8,0.1c0.4,0,0.2,0.1,0.4-0.3c0.2-0.4,0.1-1,0.1-1.5
	c0-0.7,0-1.3,0.1-2c0.1-2.1-0.1-4.4-0.1-6.5c0-0.6,0-1.1,0-1.8c0-0.3-0.1-0.7,0.1-0.9c0.4-0.7,1,0,1,0.5c0.1,0.5,0,1,0,1.5
	c-0.1,0.7,0,1.4,0,2.1c0,0.7-0.1,1.6,0,2.3c0.1,1.5,0,3,0,4.6c0,0.4,0,0.6,0,0.9c0,0.2-0.2,1,0,1.1c0.3,0.3,0.7,0,0.8,0.5
	c0.2,0.4,0.2,1.5-0.1,1.8c-0.4,0.7-1,0.1-1-0.5c0-0.4,0.2-0.7-0.4-0.7c-0.4-0.1-0.8,0-1.2,0c-0.4,0-0.6-0.1-0.9-0.1
	c-0.7,0-1.1,0-1.2-0.9C47.9,52.3,48,51.5,48,50.9z M59.9,52.3c0,0.5,0.4,1.2-0.1,1.6c-0.4,0.3-1.1,0.2-1.6,0.1c-0.2,0-0.4-0.1-0.6,0
	c-0.3,0-0.6,0.3-0.8,0.2c-0.4-0.1-0.7-0.7-0.7-1c0.1-1.1,0.2-2.3,0.1-3.5c-0.1-1.5-0.2-3-0.3-4.4c-0.1-1.4,0.1-2.7,0-4.1
	c0-0.4-0.1-0.7,0.2-1c0.7-0.7,1,0.3,1,0.8c0,0.6-0.2,1.3,0,1.9c0.2,0.4,0.7,0.6,1.1,0.7c0.5,0.4,0.9,0.7,1,1.3
	c0.4,1.1,0.4,2.4,0.4,3.6C59.9,49.8,59.8,51.1,59.9,52.3z M56.9,53.8L56.9,53.8L56.9,53.8z M58.7,52.8c0.2-1.8,0-3.5-0.2-5.2
	c-0.1-0.5-0.1-1-0.1-1.6c-0.1-0.9-0.4-1.5-1.2-1.9c-0.1,1.8,0.1,3.5,0.3,5.2c0.1,0.9,0.2,1.9,0.1,2.8c0,0.2-0.2,0.7,0,0.8
	c0.1,0.1,1,0.1,1.1,0.1C58.7,52.8,58.7,52.8,58.7,52.8z M62,52.2c0,0.4,0.1,1.8-0.7,1.5c-0.6-0.3-0.4-1.4-0.4-1.9
	c0-1.4-0.1-2.9-0.1-4.3c0-0.6,0.2-1.1,0.2-1.8c0-0.4-0.2-0.9-0.2-1.3c0-0.7,0.1-1.4,0.2-2.1c0-0.4,0-0.7,0-1c0-0.4-0.2-1,0.1-1.4
	c0.7-1,1,0.7,1.1,1h-0.1c0.2,1-0.1,2-0.2,3c-0.1,0.7,0.1,1.2,0.1,1.9c0,0.4-0.2,0.8-0.2,1.3c-0.1,0.6,0.1,1.1,0,1.8
	C62,49.9,62,51.1,62,52.2z M24.9,56.7c0.6,0,1.2-0.1,1.8,0.1c0.7,0.4,0.7,0.9,0.7,1.6c0,0.3,0,0.5-0.1,0.7c-0.1,0.2-0.3,0.3-0.3,0.4
	c0,0.3,0.1,0.2,0.3,0.5c0.1,0.2,0.1,0.3,0.1,0.4c0.3,1,0.1,2.3,0,3.4c0,0.6,0,1-0.7,1c-0.5,0-0.9-0.1-1.4-0.1c-0.3,0-0.5,0-0.7,0
	c-0.4-0.1-0.6-0.5-0.2-0.7c0.3-0.1,0.7,0,0.9,0c0.3,0,0.9,0.2,1,0c0.2-0.1,0.2-0.5,0.2-0.7c0-0.7,0.3-2.1,0-2.7
	c-0.3-0.6-0.8-0.1-1.2-0.4c-0.3-0.2-0.4-0.5-0.1-0.7c0.2-0.2,0.4,0,0.6-0.1c0.7-0.1,0.7-0.9,0.7-1.5c0-0.6-0.6-0.5-1-0.5
	c-0.4,0-0.9,0.2-1-0.3C24.2,56.8,24.5,56.7,24.9,56.7z M33.7,62.1c0-0.4,0.3-1.7-0.1-1.8c-0.4-0.2-1.1-0.1-1.5-0.1
	c-0.1,0.7,0,1.5,0,2.2c0,0.5,0.4,2.1-0.1,2.5c-0.4,0.4-0.7-0.1-0.7-0.4c-0.2-0.7,0-1.6-0.1-2.3c0-1.2-0.4-3.3,0.4-4.4
	C32,57,32.9,57,33.8,57c1-0.1,0.7,1.2,0.7,2.1c0.1,1.8-0.1,3.5,0,5.2c0,0.4-0.1,1-0.7,0.8c-0.4-0.2-0.3-0.9-0.3-1.2
	C33.6,63.1,33.6,62.5,33.7,62.1z M33.7,58.1c0-0.1,0-0.2,0-0.2c-0.7,0.1-1.2,0.2-1.4,0.8c0,0.1-0.2,0.6-0.1,0.7c0.1,0.1,0.3,0,0.4,0
	c0.4,0.1,0.8,0,1.2,0.1C33.7,58.9,33.6,58.3,33.7,58.1z M41.1,57.3L41.1,57.3z M40.2,59.1c0.4-0.5,0.4-1.1,0.4-1.8
	c0.2-0.6,0.7-0.7,0.9-0.1c0.1,0.5-0.1,1.5-0.4,1.9c-0.1,0.1-0.4,0.4-0.4,0.4c0,0.3,0.3,0.7,0.4,0.9c0.3,1,0.2,2.2,0.3,3.4
	c0,0.4,0.2,0.8-0.1,1c-0.7,0.6-0.8-0.5-0.8-0.9c0-1-0.1-2.1-0.3-3.2c0-0.3-0.1-0.8-0.5-0.8c-0.6,0-0.6,1.8-0.6,2.1
	c0,0.6-0.1,1.1,0,1.8c0,0.3,0.2,0.6,0,0.7c-0.2,0.3-0.6,0.2-0.7,0c-0.3-0.3-0.2-0.7-0.2-1c0.1-0.7-0.1-1.4,0-2.1
	c0-0.5,0.1-1,0.4-1.5c0.1-0.1,0.4-0.4,0.4-0.5l-0.3-0.3c-0.3-0.5-0.5-0.8-0.5-1.4c0-0.3-0.1-0.7,0.1-0.9c0.4-0.4,0.7-0.1,0.8,0.3
	c0.1,0.4-0.1,0.7,0,1C39.6,58.9,39.8,58.9,40.2,59.1z M48.6,60.1c0.1,1.3,0,2.6,0,3.9c0,0.5,0.1,0.9-0.6,0.9c-0.4,0-0.7-0.1-1-0.1
	c-0.4,0-1,0.1-1.3-0.1c-0.6-0.4-0.3-1.6-0.3-2.1c0-0.7,0-1.2,0-1.9c0.1-1-0.5-3.1,0.8-3.6c0.8-0.4,1.8-0.4,2.1,0.6
	C48.7,58.5,48.8,59.5,48.6,60.1z M46.3,62.7c0,0.3-0.2,1.1,0,1.3c0.2,0.2,1.1,0.1,1.5,0.1c-0.1-1,0.1-2.1,0.1-3.1
	c0-0.7,0.4-2.7-0.4-3.1c-0.5-0.3-0.9,0-1,0.4c-0.2,0.6-0.2,1-0.2,1.4C46.3,60.8,46.2,61.7,46.3,62.7z M54.4,59.7
	c0,1.5,0.1,3.1,0,4.6c0,0.3,0,0.5-0.2,0.7c-0.4,0.4-0.7-0.2-0.7-0.5c0-0.5,0.1-0.9,0.1-1.4c0-1.4-0.1-2.9-0.2-4.3c0-0.2,0-0.4,0-0.5
	c0-0.4-0.1-0.4-0.5-0.4c-0.3,0-0.5,0-0.7-0.1c-0.4-0.4-0.3-0.7,0.3-0.8c0.5-0.1,1.2,0,1.8,0c0.4,0,0.7,0,1,0
	c0.4,0.1,0.7,0.5,0.4,0.8c-0.3,0.2-0.9,0.1-1.1,0C54.4,58.5,54.4,59.1,54.4,59.7z M60.4,60.5c0,1.1,0,2.4,0.1,3.5
	c0.4,0,1.5,0,1.6,0.4c0.3,0.8-1.1,0.5-1.6,0.5c-0.6,0-0.8,0-0.9-0.6c-0.1-0.7,0-1.4,0-2.1c0-1-0.2-2.2,0-3.4c0.1-1,1-2.4,2.2-2
	c0.5,0.3,0.3,0.7-0.2,0.8c-0.4,0.2-0.7,0-1,0.4c-0.3,0.4-0.4,1-0.2,1.1s0.7-0.1,1,0c0.5,0.2,0.5,0.7,0,0.9c-0.4,0.1-0.8,0-1.2,0
	C60.4,60.3,60.4,60.4,60.4,60.5z M59.9,26.9c-0.4,0.2-1,0.3-1.5,0.3c-1.2,0-2.2,0-3.1,0c-2.1,0-2.4-0.4-2.4-2.4
	c0-0.5-0.2-2.2,0.5-2.1c0.7,0.1,0.3,1.8,0.4,2.3c0.2,0.7,1.2,0.7,1.6,0.3c0.6-1-0.2-2.4,0.6-2.4c0.8,0-0.3,2.9,1,2.9
	c1.8,0,0.4-2.9,1.3-2.9c0.4,0,0.4,0.3,0.4,0.8c0,2.9-0.1,3.1,1.9,3C60.4,26.6,60.1,26.7,59.9,26.9 M65.4,26.9c0.4,0.2,1,0.3,1.5,0.3
	c1.2,0,2.2,0,3.1,0c2.1,0,2.4-0.4,2.4-2.4c0-0.5,0.2-2.2-0.5-2.1c-0.7,0.1-0.3,1.8-0.4,2.3c-0.2,0.7-1.2,0.7-1.6,0.3
	c-0.6-1,0.2-2.4-0.6-2.4c-0.8,0,0.3,2.9-1,2.9c-1.8,0-0.4-2.9-1.3-2.9c-0.4,0-0.4,0.3-0.4,0.8c0,2.9,0.1,3.1-1.9,3
	C64.8,26.6,65.1,26.7,65.4,26.9z M68.4,28.2c-1-0.4-1.9,0.1-2.4,0.7C66.4,29.3,67.9,29.1,68.4,28.2z M61.4,32.1c0.8,1.1,0.4,1,1,0.9
	c-0.2-0.7-0.4-0.9-0.7-1.1L61.4,32.1z M62.8,35.1c2.1-0.1,1.9-1.1,1.9-2.1c0-0.6,0.5-0.8,0.3-1.8c-0.1-0.4-0.3-0.4-0.3-0.8
	c0-0.4-0.1-0.6-0.1-0.9c0.7-0.5,0.3-0.4,0.4-0.8c0.1-0.4,0.3-0.2,0.5-0.8l-0.3-0.2l-0.8,0.8c-0.3-0.2-0.4-0.3-0.4-0.4l-0.4,0.2
	c0.2,0.4,0.4,0.7,0.4,1.2c0.1,0.6,0,1,0.2,1.4c0.2,0.4,0.4,0.7,0.1,1.2c-0.4,1-0.4,0-0.1,1.1c0.2,1-0.7,1.3-1.6,1.3
	c-0.1,0-0.1,0-0.2,0c-0.9,0-1.8-0.4-1.6-1.3c0.2-1.1,0.3-0.2-0.2-1c-0.3-0.5-0.1-0.9,0.1-1.2c0.2-0.4,0.1-0.8,0.2-1.4
	c0.1-0.5,0.4-0.8,0.4-1.2l-0.4-0.2c-0.1,0.1-0.2,0.2-0.4,0.4l-0.8-0.8l-0.3,0.2c0.3,0.7,0.4,0.4,0.5,0.8c0.2,0.5-0.3,0.4,0.4,0.8
	c0,0.3-0.1,0.6-0.1,0.9c-0.1,0.5-0.2,0.4-0.3,0.8c-0.3,0.8,0.3,1.1,0.3,1.8c0,1-0.3,2.1,1.9,2.1C62.6,35.1,62.7,35.1,62.8,35.1z
	 M63.9,32.1c-0.8,1.1-0.4,1-1,0.9c0.2-0.7,0.4-0.9,0.7-1.1L63.9,32.1z M56.9,28.2c1-0.4,1.9,0.1,2.4,0.7
	C58.8,29.3,57.3,29.1,56.9,28.2z M62.6,25.7c-0.6-0.1-2.9,0.6-3.4,0.1c-0.4-1,0.4-3.3-0.7-3.6c-0.6-0.2-1.1,0.1-1.2,0.7
	C57.3,23.2,57.6,25,57,25c-0.8,0,0.4-2.4-0.9-2.8c-0.7-0.3-1.1,0.2-1.2,0.7c-0.1,0.7,0.4,2.1-0.5,2.1c-1,0,0.4-2.7-1.1-2.9
	c-0.5-0.2-0.7,0.4-0.7,1c-0.1,4.7,0.4,4.4,4.4,4.5h1.7c0.5,0,0.4,0.2,0.4,0.4c-0.2,0-1.5-0.7-2.6,0.2c0.1,0.8,1.7,1.8,2.7,1.4
	c0.4,0.3,0.4,1.2,1,1.2c0.4-0.7-0.4-0.4-0.4-1.3l0.5-0.5c-0.4-0.4-0.7-0.6-0.7-1c0.4-0.5,2.3-1.8,3.2-1.8c0.8,0,2.9,1.3,3.2,1.8
	c-0.1,0.5-0.4,0.7-0.7,1l0.5,0.5c-0.1,1-0.9,0.7-0.4,1.3c0.7-0.1,0.7-1,1-1.2c1,0.4,2.5-0.6,2.7-1.4c-1.1-0.9-2.4-0.2-2.6-0.2
	c0.1-0.2-0.1-0.4,0.4-0.4h1.7c3.9,0,4.5,0.4,4.4-4.5c0-0.7-0.3-1.2-1-1.1c-1.6,0.2-0.1,2.9-1.1,2.9c-0.7,0-0.4-1.4-0.5-2.1
	c-0.1-0.5-0.6-0.9-1.2-0.7c-1.2,0.4,0,2.9-0.9,2.8c-0.7,0-0.4-1.8-0.4-2.1c-0.1-0.6-0.7-0.9-1.2-0.7c-1,0.4-0.2,2.6-0.7,3.6
	C65.6,26.3,63.2,25.6,62.6,25.7z M68.4,22.4c-0.2-0.1-0.4-0.1-0.5-0.2c0.1,0.1,0.1,0.2,0.2,0.3c0,0.1,0.1,0.2,0.1,0.3
	c0,0.2,0,0.4,0,0.6c0,0.2,0,0.4,0,0.6c0,0.4,0,0.7,0.2,0.7c0.1,0,0.1-0.2,0.1-0.4s0-0.4,0-0.5C68.2,23.4,68.2,22.8,68.4,22.4z
	 M70.8,23.6c-0.1-0.1-0.3-0.2-0.4-0.2c0,0.1,0,0.2,0,0.3c0,0.2,0,0.4,0,0.5c0,0.4,0,0.6,0.3,0.6c0.2,0,0.2-0.2,0.2-0.4s0-0.4,0-0.5
	C70.8,23.8,70.8,23.7,70.8,23.6z M72.8,26.5c0.2-0.2,0.4-0.4,0.6-0.6c-0.2-0.2-0.4-0.4-0.5-0.5C72.9,25.8,72.9,26.2,72.8,26.5z
	 M71.4,25.3c0.3,0.1,0.4,0.2,0.6,0.4c0-0.3,0.1-0.6,0-0.9c0,0,0-0.1,0-0.2c-0.1-0.1-0.3-0.2-0.4-0.4c0,0.3,0,0.5,0,0.7
	C71.7,25.1,71.6,25.2,71.4,25.3z M69.8,26.9c0-0.1,0-0.2,0-0.3c0-0.5,0.3-0.9,0.6-1.1c-0.3-0.1-0.4-0.3-0.5-0.4
	c-0.3-0.6-0.3-1.1-0.3-1.7c0-0.2,0-0.3,0-0.4c0-0.2,0-0.3-0.1-0.4c0,0,0,0-0.1,0l0,0c-0.2,0-0.2,0.4-0.2,0.9c0,0.9,0,1.9-1,1.9
	c-1,0-1.1-0.7-1.1-1.6c0-0.2,0-0.4,0-0.4c0-0.2,0-0.4,0-0.4c0-0.3,0-0.4-0.2-0.4c-0.1,0-0.1,0-0.1,0.1s0,0.3,0,0.5v0.4
	c0,0.4,0,0.8,0,1c0,1.5-0.3,1.8-1.5,1.8c0.1,0,0.1,0.1,0.2,0.1c0.1,0.1,0.3,0.1,0.5,0.2c0.4,0.1,0.7,0.1,0.8,0.1c0.7,0,1.5,0,2.1,0
	C69.2,26.9,69.5,26.9,69.8,26.9z M65.1,30.9L65.1,30.9c0,0.1,0,0.2,0,0.3c0.2,0.6,0,0.9-0.2,1.2c-0.1,0.2-0.2,0.4-0.2,0.5
	c0,0.1,0,0.2,0,0.3c0,0.3,0,0.5,0,0.7c0.6-0.7,1.2-1.2,1.8-1.8c-0.4-0.2-0.5-0.5-0.5-0.8c0-0.5,0.4-0.9,0.8-0.9
	c0.4,0,0.7,0.3,0.8,0.7c1-1,2.1-1.9,3.2-2.9c-0.4,0-0.6-0.2-0.8-0.4c-0.4,0-0.7,0-1,0h-0.4l0.1,0.1l0.1,0.1V28c0,0.1,0,0.1,0,0.2
	c-0.2,0.4-0.6,0.8-1,1.1s-1,0.4-1.7,0.4c-0.1,0-0.1,0-0.2,0c-0.1,0.1-0.2,0.3-0.2,0.4C65.9,30.5,65.7,30.9,65.1,30.9L65.1,30.9z
	 M65.9,24.3c-0.2,0.5-0.7,0.9-1.1,0.9c-0.1,0-0.2,0-0.3,0v0.5c0.6,0.1,1.1,0.1,1.3-0.1C65.9,25.3,65.9,24.8,65.9,24.3z M64.4,22v0.8
	c0.1,0,0.2,0,0.3,0c0.5,0,1,0.4,1.1,0.8c0-0.7,0.1-1.2,0.5-1.5C65.7,21.9,65,21.9,64.4,22z M71.7,23.8c0.2,0.1,0.3,0.2,0.4,0.4
	c0-0.3,0-0.5,0-0.7c0-0.4-0.1-0.7-0.2-0.6C71.7,22.7,71.7,23.2,71.7,23.8z M64.4,19.7v1.9c1.5-0.2,2.9,0,4.2,0.4
	c0.1-0.1,0.3-0.2,0.4-0.2s0.2-0.1,0.3-0.1c0.4-0.1,0.6,0,0.7,0.2c0.3,0.2,0.4,0.4,0.5,0.6c0,0.1,0.1,0.2,0.1,0.3s0,0.1,0,0.2
	c0.1,0.1,0.3,0.1,0.4,0.2c0-0.7,0.2-1.1,1-1.3c0.5-0.1,0.8,0.1,1,0.4c0.2,0.3,0.3,0.6,0.3,1c0,0.7,0,1.1,0,1.7
	c0.3,0.3,0.5,0.5,0.7,0.7c0.5-0.5,0.9-0.9,1.3-1.4C72.3,21.1,68.9,19.4,64.4,19.7z"/>
</svg>
