<?xml version="1.0" encoding="utf-8"?>
<!-- Generator: Adobe Illustrator 22.1.0, SVG Export Plug-In . SVG Version: 6.00 Build 0)  -->
<svg version="1.1" id="Слой_1" xmlns="http://www.w3.org/2000/svg" xmlns:xlink="http://www.w3.org/1999/xlink" x="0px" y="0px"
	 viewBox="0 0 127.6 85" style="enable-background:new 0 0 127.6 85;" xml:space="preserve">
<style type="text/css">
	.st0{fill:#979898;}
</style>
<path class="st0" d="M58.4,21.4L58.4,21.4C58.4,21.3,58.4,21.3,58.4,21.4C58.5,21.3,58.5,21.3,58.4,21.4c0.1-0.1,0.1-0.1,0.2-0.1
	l0.2,0.1c0.2,0.1,0.3,0.1,0.3,0.1l0,0c0,0,0,0,0,0.1l0,0l0,0c0-0.1,0.1-0.1,0.1-0.1s0,0,0-0.1c0,0,0-0.1,0.1-0.1
	c0-0.1,0.1-0.2,0.1-0.3c0-0.1-0.1-0.2-0.1-0.2h-0.1H59c0,0,0,0-0.1,0.1v-0.1v-0.1c0,0,0,0-0.1-0.1h-0.1l-0.1,0.1v0.1
	c0,0,0,0.1-0.1,0.1C58.4,21.2,58.4,21.3,58.4,21.4L58.4,21.4z M58.8,21.2C58.8,21.1,58.9,21.1,58.8,21.2c0.1-0.1,0.1-0.1,0.2-0.1
	h0.1c0.1,0,0.1,0.1,0.1,0.1s0,0.1,0,0.2c0,0,0,0.1-0.1,0.1L58.8,21.2C58.7,21.3,58.7,21.3,58.8,21.2z M58.5,21.1
	C58.5,21,58.5,21,58.5,21.1l0.2-0.1c0,0,0.1,0,0.1,0.1v0.1v0.1c0,0,0,0,0,0.1c0,0,0,0-0.1,0c-0.1,0-0.2-0.1-0.2-0.1
	C58.5,21.1,58.5,21.1,58.5,21.1z M58.8,20.2L58.8,20.2c0-0.1,0-0.2,0.1-0.3c0-0.1,0.1-0.2,0.2-0.4c0.1,0,0.1,0.1,0.2,0.1l0,0
	c-0.1,0-0.1,0-0.1,0l0,0c0,0,0,0,0,0.1l-0.1,0.2l0.2,0.1l0.1,0.1l0.1-0.1c0-0.1,0-0.1,0-0.1l0,0c0,0,0,0-0.1-0.1l0,0l0,0
	c0.1,0,0.1,0.1,0.1,0.1s0.1,0,0.1,0.1l0,0c-0.1,0-0.1,0-0.1,0l0,0c0,0,0,0,0,0.1l-0.1,0.2l0.3,0.1l0.1-0.2l0,0v-0.1l0,0
	c0,0,0-0.1-0.1-0.1l0,0l0,0c0,0,0.1,0.1,0.2,0.2c-0.1,0.1-0.1,0.3-0.2,0.4c0,0.1-0.1,0.2-0.1,0.3l0,0v-0.1l0,0l0,0l0,0l-0.2-0.5
	c0,0-0.1,0-0.1-0.1c-0.1,0-0.2-0.1-0.2-0.1H59C58.9,20.1,58.9,20.1,58.8,20.2C58.9,20.1,58.9,20.1,58.8,20.2L58.8,20.2z M59.5,19
	L59.5,19c0-0.1,0-0.2,0.1-0.3c0-0.1,0.1-0.2,0.2-0.4c0.1,0,0.1,0.1,0.2,0.1l0,0c-0.1,0-0.1,0-0.1,0l0,0c0,0,0,0,0,0.1l-0.1,0.2
	l0.2,0.1l0.1,0.1l0.1-0.1c0-0.1,0-0.1,0-0.1l0,0c0,0,0,0-0.1-0.1l0,0l0,0c0.1,0,0.1,0.1,0.1,0.1s0.1,0,0.1,0.1l0,0
	c-0.1,0-0.1,0-0.1,0l0,0c0,0,0,0,0,0.1L60,19.1l0.3,0.1l0.1-0.2l0,0v-0.1l0,0c0,0,0-0.1-0.1-0.1l0,0l0,0c0,0,0.1,0.1,0.2,0.2
	c-0.2-0.2-0.2-0.1-0.3,0c0,0.1-0.1,0.2-0.1,0.3l0,0v-0.1l0,0l0,0l0,0L60,19.1c0,0-0.1,0-0.1-0.1c-0.1,0-0.2-0.1-0.2-0.1
	c-0.1,0-0.1,0-0.1,0C59.6,18.9,59.5,18.9,59.5,19C59.5,18.9,59.5,18.9,59.5,19L59.5,19z M60,17.7C60,17.7,60,17.6,60,17.7
	C60.1,17.6,60.1,17.6,60,17.7c0.1-0.1,0.1-0.1,0.2-0.1l0.3,0.1c0.2,0.1,0.3,0.1,0.3,0.1l0,0c0,0,0,0,0,0.1l0,0l0,0
	c0-0.1,0.1-0.1,0.1-0.2c0-0.1,0.1-0.1,0.1-0.2l0,0l0,0l-0.1,0.1l0,0l-0.3-0.1c0,0,0-0.1,0.1-0.1h0.2l0,0c0,0,0,0,0.1,0
	c0.1,0,0.1,0,0.1,0v-0.1c0,0,0-0.1,0.1-0.1l0,0L61,17.4l0,0c0,0,0,0-0.1,0l-0.3,0.1v-0.1v-0.1l-0.1-0.1c-0.1,0-0.1,0-0.2,0
	c-0.1,0-0.1,0.1-0.1,0.1s0,0,0,0.1v0.1C60,17.5,60,17.6,60,17.7L60,17.7L60,17.7z M60.2,17.5C60.2,17.4,60.3,17.4,60.2,17.5l0.2-0.1
	c0.1,0,0.1,0.1,0.1,0.1s0,0.1,0,0.2v0.1l-0.3-0.1C60.1,17.5,60.2,17.5,60.2,17.5z M59.9,23.5c-0.1,0-0.2,0-0.2,0l0,0
	c0,0,0,0-0.1,0.1l0,0c0-0.1,0.1-0.1,0.1-0.2c0,0,0-0.1,0.1-0.2l0,0v0.1l0,0c0,0,0,0,0.1,0c0.2,0,0.4,0,0.5,0.1l-0.3-0.3
	c-0.1,0-0.1,0-0.1,0l0,0c0,0,0,0-0.1,0.1l0,0c0-0.1,0.1-0.1,0.1-0.2c0,0,0-0.1,0.1-0.2l0,0l0,0V23l0,0l0,0c0,0,0.1,0,0.2,0h0.4
	c-0.1-0.1-0.1-0.1-0.2-0.2l-0.4-0.1l0,0l0,0c0,0,0,0-0.1,0.1l0,0c0-0.1,0.1-0.1,0.1-0.1s0-0.1,0.1-0.1l0,0v0.1l0,0
	c0,0,0.1,0.1,0.3,0.3c0,0,0.1,0.1,0.3,0.3l0,0h-0.4c0,0-0.1,0-0.2,0c0.1,0.1,0.2,0.2,0.4,0.4l0,0C60.4,23.5,60.2,23.5,59.9,23.5z
	 M60.6,21.7L60.6,21.7c0-0.1,0-0.2,0.1-0.2c0-0.1,0-0.1,0.1-0.2l0,0l0,0c0,0.1,0,0.1,0,0.1l0,0l0,0l0.2,0.1l0.3,0.1c0,0,0,0,0.1,0
	c0,0,0,0,0.1-0.1l0,0l0,0c0,0.1-0.1,0.1-0.1,0.2s-0.1,0.1-0.1,0.2l0,0l0,0c0-0.1,0-0.1,0-0.1l0,0l0,0L61,21.7
	c-0.2-0.1-0.3-0.1-0.3-0.2C60.7,21.6,60.7,21.6,60.6,21.7C60.7,21.6,60.7,21.6,60.6,21.7C60.6,21.6,60.6,21.6,60.6,21.7z M61.1,20.5
	L61.1,20.5C61.1,20.4,61.1,20.4,61.1,20.5v-0.2l0.3-0.1c0,0,0.2-0.1,0.6-0.1c-0.1,0-0.1,0-0.1-0.1c-0.1,0-0.2-0.1-0.3-0.1
	c-0.1,0-0.1,0-0.1,0l0,0c0,0,0,0-0.1,0.1l0,0l0,0c0-0.1,0.1-0.1,0.1-0.2c0,0,0-0.1,0.1-0.2l0,0l0,0c0,0.1,0,0.1,0,0.1l0,0l0,0
	c0,0,0.1,0,0.2,0.1c0.1,0,0.2,0.1,0.3,0.1c0.1,0,0.2,0.1,0.3,0.1l0,0L62,20.1l-0.5,0.1l0.3,0.1c0.1,0.1,0.2,0.1,0.2,0.1l0,0
	c0,0,0,0,0.1-0.1l0,0l0,0c0,0.1-0.1,0.1-0.1,0.1s0,0.1-0.1,0.2l0,0l0,0v-0.1l0,0c0,0-0.1,0-0.2-0.1c-0.2-0.1-0.3-0.1-0.3-0.1
	c-0.1,0-0.1-0.1-0.2-0.1l0,0C61.2,20.3,61.2,20.4,61.1,20.5C61.1,20.4,61.1,20.4,61.1,20.5z M62,18.7L62,18.7c0-0.1,0-0.2,0.1-0.3
	c0-0.1,0.1-0.2,0.2-0.4c0.1,0,0.1,0.1,0.2,0.1l0,0c-0.1,0-0.1,0-0.1,0l0,0c0,0,0,0,0,0.1l-0.1,0.2l0.2,0.1l0.1,0.1l0.1-0.1
	c0-0.1,0-0.1,0-0.1l0,0c0,0,0,0-0.1-0.1l0,0l0,0c0.1,0,0.1,0.1,0.1,0.1s0.1,0,0.1,0.1l0,0c-0.1,0-0.1,0-0.1,0l0,0c0,0,0,0,0,0.1
	l-0.1,0.2l0.3,0.1l0.1-0.2l0,0v-0.1l0,0c0,0,0-0.1-0.1-0.1l0,0l0,0c0,0,0.1,0.1,0.2,0.2c-0.1,0.1-0.1,0.3-0.2,0.4
	c0,0.1-0.1,0.2-0.1,0.3l0,0v-0.1l0,0l0,0l0,0l-0.1-0.1c0,0-0.1,0-0.1-0.1c-0.1,0-0.2-0.1-0.2-0.1c-0.1,0-0.1,0-0.1,0
	C62,18.6,62,18.6,62,18.7C62,18.6,62,18.6,62,18.7L62,18.7z M61.1,26.1c-0.1,0-0.2,0-0.2,0l0,0c0,0,0,0-0.1,0.1l0,0
	c0-0.1,0.1-0.1,0.1-0.2c0,0,0-0.1,0.1-0.2l0,0v0.1l0,0c0,0,0,0,0.1,0c0.2,0,0.4,0,0.5,0.1l-0.3-0.3c-0.1,0-0.1,0-0.1,0l0,0
	c0,0,0,0-0.1,0.1l0,0c0-0.1,0.1-0.1,0.1-0.2c0,0,0-0.1,0.1-0.2l0,0l0,0v0.1l0,0l0,0c0,0,0.1,0,0.2,0h0.4c-0.1-0.1-0.1-0.1-0.2-0.2
	l-0.2-0.2l0,0l0,0c0,0,0,0-0.1,0.1l0,0c0-0.1,0.1-0.1,0.1-0.1s0-0.1,0.1-0.1l0,0v0.1l0,0c0,0,0.1,0.1,0.3,0.3c0,0,0.1,0.1,0.3,0.3
	l0,0h-0.4c0,0-0.1,0-0.2,0c0.1,0.1,0.2,0.2,0.4,0.4l0,0C61.6,26.1,61.4,26.1,61.1,26.1z M61.7,24.5L61.7,24.5c0-0.1,0-0.1,0.1-0.2
	c0-0.1,0-0.1,0.1-0.2l0,0v0.1l0,0l0,0l0.3,0.1c0-0.1,0.1-0.1,0.1-0.2c0-0.1,0.1-0.2,0.1-0.2l0,0l-0.1-0.1h-0.1l0,0l0,0L62,24l0,0
	c0-0.1,0.1-0.1,0.1-0.2c0,0,0-0.1,0.1-0.2l0,0c0,0.1,0,0.1,0,0.1l0,0c0,0,0,0,0.1,0s0.2,0.1,0.3,0.1l0.3,0.1l0,0l0,0
	c0,0,0,0,0.1-0.1l0,0c-0.1,0.1-0.1,0.2-0.1,0.2s0,0.1-0.1,0.2l0,0v-0.1l0,0l0,0L62.5,24c0,0.1-0.1,0.2-0.1,0.2
	c0,0.1-0.1,0.1-0.1,0.2l0.3,0.1l0,0l0,0c0,0,0,0,0.1-0.1l0,0c0,0.1-0.1,0.2-0.1,0.2s0,0.1-0.1,0.2l0,0v-0.1l0,0l0,0
	c-0.1,0-0.2-0.1-0.3-0.1L62,24.5l0,0l0,0C61.7,24.5,61.7,24.5,61.7,24.5L61.7,24.5z M62.2,23.2L62.2,23.2c0-0.1,0-0.2,0.1-0.2
	c0-0.1,0-0.1,0.1-0.2l0,0l0,0c0,0.1,0,0.1,0,0.1l0,0l0,0l0.2,0.1l0.3,0.1c0,0,0,0,0.1,0c0,0,0,0,0.1-0.1l0,0l0,0
	c0,0.1-0.1,0.1-0.1,0.2s-0.1,0.1-0.1,0.2l0,0l0,0c0-0.1,0-0.1,0-0.1l0,0l0,0l-0.2-0.1c-0.2-0.1-0.3-0.1-0.3-0.2
	C62.3,23.1,62.3,23.1,62.2,23.2C62.3,23.1,62.3,23.1,62.2,23.2C62.3,23.2,62.2,23.2,62.2,23.2z M62.8,22.2L62.8,22.2
	c0-0.2,0-0.2,0-0.2c0-0.1,0.1-0.1,0.1-0.2c0.1,0,0.1,0,0.1,0h0.1l0,0c-0.1,0-0.1,0-0.1,0h-0.1c0,0,0,0-0.1,0.1v0.1
	C62.8,22.1,62.9,22.1,62.8,22.2c0.1,0,0.2,0,0.2,0s0.1,0,0.2-0.1s0.1-0.1,0.2-0.1c0.1,0,0.1,0,0.1,0s0.1,0,0.1,0.1v0.1
	c0,0.1,0,0.1,0,0.2c0,0,0,0.1-0.1,0.1l-0.1,0.1c0,0-0.1-0.1-0.2-0.1l0,0c0.1,0,0.1,0,0.1,0h0.1c0,0,0,0,0.1-0.1v-0.1
	c0,0,0-0.1-0.1-0.1h-0.1c0,0-0.1,0-0.2,0.1c-0.1,0.1-0.1,0.1-0.2,0.1C63,22.3,62.9,22.3,62.8,22.2L62.8,22.2z M63.2,21.1L63.2,21.1
	c0-0.1,0-0.1,0.1-0.2l0,0l0.1-0.2l0,0l0,0c0,0.1,0,0.1,0,0.1l0,0c0,0,0,0,0.1,0.1l0.2,0.1c0-0.1-0.1-0.3-0.1-0.4v-0.1l0,0
	c0,0,0,0,0,0.1l0,0l0,0c0-0.1,0.1-0.1,0.1-0.1s0-0.1,0.1-0.2l0,0c0,0.1,0,0.1,0,0.1l0,0v0.1l0.1,0.2v0.1c0.1,0,0.1-0.1,0.3-0.1
	l0.2-0.1l0,0c0,0,0,0,0.1-0.1l0,0c0,0.1-0.1,0.1-0.1,0.2c0,0,0,0.1-0.1,0.2l0,0v-0.1l0,0l0,0c0,0-0.2,0.1-0.3,0.1h-0.1l0.3,0.1l0,0
	l0,0c0,0,0,0,0.1-0.1l0,0c0,0.1-0.1,0.1-0.1,0.2c0,0,0,0.1-0.1,0.2l0,0l0,0c0-0.1,0-0.1,0-0.1l0,0c-0.1,0-0.2-0.1-0.3-0.1L63.4,21
	l0,0l0,0C63.2,21,63.2,21.1,63.2,21.1L63.2,21.1z M63.8,19.8L63.8,19.8c0-0.1,0-0.1,0-0.2c0,0,0-0.1,0.1-0.2l0,0v0.1l0,0l0,0
	c0.1,0,0.2,0,0.4-0.1c-0.1-0.1-0.1-0.2-0.2-0.3l0,0l0,0c0,0,0,0-0.1,0.1l0,0c0-0.1,0.1-0.1,0.1-0.1s0-0.1,0.1-0.1l0,0v0.1v0.1
	c0.1,0.1,0.1,0.2,0.2,0.3l0,0c0.1,0.1,0.2,0.1,0.2,0.1l0,0c0,0,0,0,0.1-0.1l0,0l0,0c0,0.1-0.1,0.1-0.1,0.2c0,0,0,0.1-0.1,0.2l0,0
	l0,0v-0.1l0,0c0,0-0.1,0-0.2-0.1h-0.1C64.1,19.8,64,19.8,63.8,19.8L63.8,19.8C63.9,19.8,63.9,19.8,63.8,19.8
	C63.8,19.8,63.8,19.8,63.8,19.8z M62.2,29.1c-0.2,0-0.3,0-0.3,0l0,0c0,0,0,0-0.1,0.1l0,0c0-0.1,0.1-0.1,0.1-0.2c0,0,0-0.1,0.1-0.2
	l0,0l0,0V29l0,0l0,0c0,0,0.1,0,0.3,0h0.3c-0.1-0.1-0.2-0.2-0.3-0.3c-0.1-0.1-0.2-0.2-0.2-0.2l0,0l0,0c0,0,0,0-0.1,0.1l0,0l0,0
	c0-0.1,0-0.1,0.1-0.1v-0.1l0,0v0.1c0,0,0,0,0,0.1c0,0,0.2,0.2,0.4,0.4l0.2,0.2l0,0C62.6,29.1,62.4,29.1,62.2,29.1z M63.2,27.2
	c0.1,0.1,0.2,0.1,0.3,0c0.1,0,0.2-0.1,0.2-0.2c0.1-0.1,0.1-0.2,0-0.4c0-0.1-0.1-0.2-0.3-0.3c-0.1-0.1-0.2-0.1-0.3,0
	c-0.1,0-0.2,0.1-0.2,0.2c-0.1,0.1-0.1,0.2,0,0.4C63,27.1,63.1,27.2,63.2,27.2z M63,26.8C63,26.7,63.1,26.7,63,26.8
	c0.1-0.1,0.2-0.1,0.3-0.1c0.1,0,0.1,0,0.2,0.1c0.1,0,0.1,0.1,0.2,0.1c0,0,0.1,0.1,0.1,0.2c0,0.1,0,0.1,0,0.2s-0.1,0.1-0.2,0.2
	c-0.1,0-0.2,0-0.3,0c-0.1,0-0.1-0.1-0.2-0.1c0,0-0.1-0.1-0.1-0.2C63,26.8,63,26.8,63,26.8z M63.9,24.8L63.9,24.8L63.9,24.8l0.3,0.1
	c0.1,0,0.1,0.1,0.3,0.1c0.1,0,0.1,0,0.1,0l0,0l0,0c0,0,0,0,0,0.1l0,0c0-0.1,0-0.1,0.1-0.2c0,0,0,0,0.1-0.1c0-0.1,0-0.1,0-0.1
	c0.1-0.1,0.1-0.3,0-0.4c0-0.1-0.1-0.2-0.3-0.3c-0.1,0-0.1,0-0.2,0c-0.1,0-0.1,0-0.2,0.1c0,0-0.1,0.1-0.1,0.2l-0.1,0.3
	C63.9,24.7,63.8,24.8,63.9,24.8L63.9,24.8L63.9,24.8z M64.1,24.5c0-0.1,0.1-0.1,0.1-0.2l0.1-0.1h0.1h0.1c0.1,0,0.1,0.1,0.2,0.1
	c0,0.1,0.1,0.1,0.1,0.2c0,0.1,0,0.1,0,0.2c0,0,0,0.1-0.1,0.1c-0.1,0-0.2-0.1-0.3-0.1C64.3,24.6,64.2,24.6,64.1,24.5
	C64,24.6,64,24.6,64.1,24.5z M64.8,22.7L64.8,22.7c0-0.1,0-0.1,0.1-0.2l0,0l0.1-0.2l0,0l0,0c0,0.1,0,0.1,0,0.1l0,0c0,0,0,0,0.1,0.1
	l0.2,0.1c0-0.1-0.1-0.3-0.1-0.4v-0.1l0,0c0,0,0,0,0,0.1l0,0l0,0c0-0.1,0.1-0.1,0.1-0.1s0-0.1,0.1-0.2l0,0c0,0.1,0,0.1,0,0.1l0,0v0.1
	l0.1,0.2v0.1c0.1,0,0.1-0.1,0.3-0.1l0.2-0.1l0,0c0,0,0,0,0.1-0.1l0,0c0,0.1-0.1,0.1-0.1,0.2c0,0,0,0.1-0.1,0.2l0,0v-0.1l0,0l0,0
	c0,0-0.2,0.1-0.3,0.1h-0.1l0.3,0.1l0,0l0,0c0,0,0,0,0.1-0.1l0,0c0,0.1-0.1,0.1-0.1,0.2c0,0,0,0.1-0.1,0.2l0,0l0,0c0-0.1,0-0.1,0-0.1
	l0,0c-0.1,0-0.2-0.1-0.3-0.1l-0.3-0.1l0,0l0,0C64.9,22.6,64.9,22.6,64.8,22.7C64.9,22.7,64.9,22.7,64.8,22.7z M66.5,20.8
	C66.5,20.8,66.6,20.8,66.5,20.8C66.5,20.9,66.5,20.9,66.5,20.8L66.5,20.8C66.5,20.8,66.5,20.8,66.5,20.8c0.1,0,0.1-0.1,0.2-0.1l0,0
	l0,0C66.6,20.7,66.6,20.7,66.5,20.8C66.6,20.7,66.6,20.7,66.5,20.8C66.6,20.7,66.6,20.7,66.5,20.8l-0.1-0.2l0.1-0.2
	c0,0,0-0.1,0.1-0.2h0.2l0,0l0,0c0,0,0,0,0,0.1l0,0c0-0.1,0.1-0.1,0.1-0.2c0,0,0-0.1,0.1-0.1l0,0l-0.1,0.1l0,0h-0.3
	c-0.2,0-0.4,0-0.5,0l0,0l0.3,0.3C66.4,20.6,66.5,20.7,66.5,20.8z M66.5,20.2c0,0.1-0.1,0.2-0.1,0.2s0,0.1-0.1,0.1L66,20.2L66.5,20.2
	z M63.6,31.5c-0.1-0.1-0.2-0.1-0.2-0.3c0-0.1,0-0.2,0-0.4c0-0.1,0.1-0.2,0.2-0.2h0.1c0,0,0.1,0,0.2,0.1l0,0c-0.1,0-0.1,0-0.2,0h-0.1
	l-0.1,0.1c0,0.1,0,0.2,0,0.3c0,0.1,0.1,0.1,0.2,0.2c0.1,0,0.2,0.1,0.3,0c0.1,0,0.2-0.1,0.2-0.2v-0.1c0,0,0-0.1,0-0.2h0.1
	c0,0.1,0,0.1,0,0.2c0,0.1,0,0.1-0.1,0.2c0,0.1-0.1,0.1-0.1,0.2c-0.1,0-0.1,0.1-0.2,0.1C63.7,31.5,63.7,31.5,63.6,31.5z M64.4,29.7
	c0.1,0.1,0.2,0.1,0.3,0c0.1,0,0.2-0.1,0.2-0.2c0.1-0.1,0.1-0.2,0-0.4c0-0.1-0.1-0.2-0.3-0.3c-0.1-0.1-0.2-0.1-0.3,0
	c-0.1,0-0.2,0.1-0.2,0.2c-0.1,0.1-0.1,0.2,0,0.4S64.3,29.7,64.4,29.7z M64.3,29.2C64.3,29.1,64.3,29.1,64.3,29.2
	c0.1-0.1,0.2-0.1,0.3-0.1c0.1,0,0.1,0,0.2,0.1c0.1,0,0.1,0.1,0.2,0.1c0,0,0.1,0.1,0.1,0.2c0,0.1,0,0.1,0,0.2s-0.1,0.1-0.2,0.2
	c-0.1,0-0.2,0-0.3,0s-0.1-0.1-0.2-0.1c0,0-0.1-0.1-0.1-0.2C64.3,29.3,64.3,29.2,64.3,29.2z M65.1,27.6c0-0.1,0-0.2,0-0.4
	c0,0,0-0.1,0.1-0.1c0,0,0-0.1,0.1-0.2l0,0c0,0,0.1,0,0.2,0.1l0,0c-0.1,0-0.1,0-0.1,0s-0.1,0-0.1,0.1l-0.1,0.1
	C65.1,27.4,65.1,27.5,65.1,27.6c0.1,0,0.2,0.1,0.3,0.1c0.1,0.1,0.2,0.1,0.3,0c0.1,0,0.2-0.1,0.2-0.2c0-0.1,0-0.1,0.1-0.2
	c0,0-0.1,0-0.2-0.1h-0.1l0,0c0,0,0,0-0.1,0.1l0,0l0,0l0.1-0.2c0,0,0-0.1,0.1-0.1l0,0v0.1l0,0l0,0c0,0,0.1,0,0.1,0.1
	c0,0,0.1,0,0.2,0.1v0.1c0,0.1,0,0.1,0,0.1v0.1c-0.1,0.1-0.1,0.2-0.2,0.3c-0.1,0-0.2,0-0.3,0C65.2,27.8,65.1,27.7,65.1,27.6z
	 M65.8,25.8L65.8,25.8C65.8,25.7,65.8,25.7,65.8,25.8v-0.2l0.3-0.1c0,0,0.2-0.1,0.6-0.1c-0.1,0-0.1,0-0.1-0.1
	c-0.1,0-0.2-0.1-0.3-0.1c-0.1,0-0.1,0-0.1,0l0,0c0,0,0,0-0.1,0.1l0,0l0,0c0-0.1,0.1-0.1,0.1-0.2c0,0,0-0.1,0.1-0.2l0,0l0,0
	c0,0.1,0,0.1,0,0.1l0,0l0,0c0,0,0.1,0,0.2,0.1c0.1,0,0.2,0.1,0.3,0.1c0.1,0,0.2,0.1,0.3,0.1l0,0l-0.4,0.1l-0.5,0.1l0.3,0.1
	c0.1,0.1,0.2,0.1,0.2,0.1l0,0c0,0,0,0,0.1-0.1l0,0l0,0c0,0.1-0.1,0.1-0.1,0.1s0,0.1-0.1,0.2l0,0l0,0v-0.1l0,0c0,0-0.1,0-0.2-0.1
	c-0.2-0.1-0.3-0.1-0.3-0.1c-0.1,0-0.1-0.1-0.2-0.1l0,0C65.9,25.7,65.8,25.7,65.8,25.8L65.8,25.8z M67.3,24.2L67.3,24.2
	C67.3,24.3,67.3,24.3,67.3,24.2L67.3,24.2C67.3,24.2,67.3,24.2,67.3,24.2c0.1,0,0.1-0.1,0.2-0.1l0,0l0,0
	C67.4,24.1,67.4,24.1,67.3,24.2C67.4,24.1,67.4,24.1,67.3,24.2C67.4,24.1,67.4,24.1,67.3,24.2L67.2,24l0.1-0.2c0,0,0-0.1,0.1-0.2
	h0.2l0,0l0,0c0,0,0,0,0,0.1l0,0c0-0.1,0.1-0.1,0.1-0.2c0,0,0-0.1,0.1-0.1l0,0l-0.1,0.1l0,0h-0.3c-0.2,0-0.4,0-0.5,0l0,0l0.3,0.3
	C67.2,24,67.3,24.1,67.3,24.2z M67.3,23.6c0,0.1-0.1,0.2-0.1,0.2s0,0.1-0.1,0.1l-0.2-0.3H67.3z M67.7,22c0-0.1,0-0.2,0-0.4
	c0-0.1,0.1-0.2,0.2-0.2h0.1c0,0,0.1,0,0.2,0.1l0,0c-0.1,0-0.1,0-0.2,0h-0.1l-0.1,0.1C67.7,21.8,67.7,21.9,67.7,22
	c0.1,0,0.2,0.1,0.3,0.1c0.1,0,0.2,0.1,0.3,0c0.1,0,0.2-0.1,0.2-0.2v-0.1c0,0,0-0.1,0-0.2h0.1c0,0.1,0,0.1,0,0.2s0,0.1-0.1,0.2
	c0,0.1-0.1,0.1-0.1,0.2c-0.1,0-0.1,0.1-0.2,0.1s-0.2,0-0.2,0C67.8,22.1,67.7,22.1,67.7,22z M64.4,34.1
	C64.4,34.1,64.5,34.1,64.4,34.1L64.4,34.1C64.4,34.2,64.4,34.1,64.4,34.1c0-0.2,0-0.3,0.1-0.3c0-0.1,0.1-0.2,0.1-0.3
	c0.1,0,0.2,0.1,0.2,0.1l0,0c-0.1,0-0.1,0-0.1,0l0,0c0,0,0,0,0,0.1h-0.2c0.1,0,0.2,0.1,0.4,0.2C65,34,65.1,34,65.2,34l0,0
	c0,0,0,0,0.1-0.1l0,0l0,0c0,0.1-0.1,0.1-0.1,0.2s0,0.1-0.1,0.2l0,0l0,0c0-0.1,0-0.1,0-0.1l0,0c0,0,0,0-0.1-0.1
	C64.9,34,64.8,34,64.7,34s-0.2-0.1-0.3-0.1V34.1L64.4,34.1C64.4,34,64.4,34,64.4,34.1L64.4,34.1z M65.3,32.2L65.3,32.2
	c0-0.1,0-0.2,0.1-0.3c0-0.1,0.1-0.2,0.2-0.4c0.1,0,0.1,0.1,0.2,0.1l0,0c-0.1,0-0.1,0-0.1,0l0,0c0,0,0,0,0,0.1l-0.1,0.2l0.2,0.1
	l0.1,0.1l0.1-0.1c0-0.1,0-0.1,0-0.1l0,0c0,0,0,0-0.1-0.1l0,0l0,0c0.1,0,0.1,0.1,0.1,0.1s0.1,0,0.1,0.1l0,0c-0.2-0.1-0.2-0.1-0.2-0.1
	l0,0c0,0,0,0,0,0.1l-0.1,0.2l0.3,0.1l0.1-0.2l0,0V32l0,0c0,0,0-0.1-0.1-0.1l0,0l0,0c0,0,0.1,0.1,0.2,0.2c-0.1,0.1-0.1,0.3-0.2,0.4
	c0,0.1-0.1,0.2-0.1,0.3l0,0v-0.1l0,0l0,0l0,0l-0.1-0.1c0,0-0.1,0-0.1-0.1c-0.1,0-0.2-0.1-0.2-0.1c-0.1,0-0.1,0-0.1,0
	C65.4,32.1,65.4,32.1,65.3,32.2C65.3,32.1,65.3,32.1,65.3,32.2L65.3,32.2z M66.5,30.3c0.1,0,0.1,0,0.2,0.1c0.1,0,0.1,0,0.2,0
	c0,0,0,0,0,0.1l0,0c0-0.1,0.1-0.1,0.1-0.1l0.1-0.1c0.1-0.1,0.2-0.1,0.2-0.2l0.1-0.1c0,0,0,0,0-0.1c0,0,0-0.1,0-0.2l0,0
	c0,0.1,0,0.1,0,0.2c0,0,0,0.1-0.1,0.1l-0.1,0.1l-0.2,0.2l0.1-0.1c0-0.1,0.1-0.2,0-0.3c0-0.1-0.1-0.2-0.3-0.3c-0.1,0-0.2-0.1-0.2,0
	c-0.1,0-0.1,0-0.2,0.1c-0.1,0-0.1,0.1-0.1,0.2c-0.1,0.1-0.1,0.2,0,0.4C66.3,30.3,66.4,30.3,66.5,30.3z M66.4,29.9
	C66.4,29.8,66.5,29.8,66.4,29.9c0.1-0.1,0.2-0.1,0.3-0.1c0.1,0,0.1,0,0.2,0.1c0.1,0,0.1,0.1,0.2,0.1c0,0,0.1,0.1,0.1,0.2
	s0,0.1,0,0.2c0,0.1-0.1,0.1-0.2,0.2c-0.1,0-0.2,0-0.3,0c-0.1,0-0.1-0.1-0.2-0.1c0,0-0.1-0.1-0.1-0.2C66.3,30,66.3,29.9,66.4,29.9z
	 M67.1,28.1L67.1,28.1c0-0.1,0-0.1,0.1-0.2c0-0.1,0-0.1,0.1-0.2l0,0l0,0c0,0.1,0,0.1,0,0.1l0,0c0,0,0.1,0.1,0.3,0.1
	c0.1,0,0.2,0.1,0.2,0.1h0.1c0,0,0.1,0,0.1-0.1l0.1-0.1c0-0.1,0-0.1,0-0.2c0,0,0-0.1-0.1-0.1c0,0-0.1-0.1-0.2-0.1
	c-0.2-0.1-0.2-0.1-0.3-0.1l0,0c0,0,0,0-0.1,0.1l0,0l0,0c0-0.1,0.1-0.1,0.1-0.2c0,0,0-0.1,0.1-0.1l0,0l0,0c0,0.1,0,0.1,0,0.1l0,0
	c0,0,0.1,0.1,0.3,0.1c0.1,0.1,0.2,0.1,0.2,0.1s0.1,0,0.1,0.1v0.1v0.1c0,0.1,0,0.1,0,0.1C68.1,28,68,28,68,28L67.9,28h-0.1h-0.1
	L67.5,28c-0.1,0-0.1-0.1-0.2-0.1l0,0C67.2,28,67.2,28,67.1,28.1C67.1,28,67.1,28.1,67.1,28.1L67.1,28.1z M68,26L68,26
	c0-0.1,0-0.2,0.1-0.2c0-0.1,0-0.1,0.1-0.2l0,0l0,0c0,0.1,0,0.1,0,0.1l0,0l0,0l0.2,0.1l0.3,0.1c0,0,0,0,0.1,0c0,0,0,0,0.1-0.1l0,0
	l0,0c0,0.1-0.1,0.1-0.1,0.2c0,0.1-0.1,0.1-0.1,0.2l0,0l0,0c0-0.1,0-0.1,0-0.1l0,0l0,0L68.5,26c-0.2-0.1-0.3-0.1-0.3-0.2
	C68.1,25.9,68.1,25.9,68,26C68.1,25.9,68.1,26,68,26C68.1,26,68,26,68,26z M68.9,24.5L68.9,24.5c0-0.1,0-0.2,0.1-0.2
	c0,0,0-0.1,0.1-0.2l0,0c0,0.1,0,0.1,0,0.1l0,0l0,0c0,0,0.2,0.1,0.4,0.2c0,0,0.1,0.1,0.2,0.1l0.1-0.2v-0.1l0,0c0,0,0-0.1-0.1-0.1l0,0
	l0.1,0.1c0,0,0,0,0.1,0.1c-0.1,0.2-0.1,0.3-0.2,0.4c0,0.1-0.1,0.2-0.1,0.2l0,0c0-0.1,0-0.1,0-0.1l0,0c0,0,0,0-0.1,0l-0.3-0.2
	L68.9,24.5L68.9,24.5C68.9,24.4,68.9,24.4,68.9,24.5C68.9,24.4,68.9,24.4,68.9,24.5z M70.3,22.7L70.3,22.7
	C70.3,22.8,70.3,22.8,70.3,22.7L70.3,22.7C70.3,22.7,70.3,22.7,70.3,22.7c0.1,0,0.1-0.1,0.2-0.1l0,0l0,0
	C70.4,22.6,70.4,22.6,70.3,22.7C70.4,22.6,70.4,22.6,70.3,22.7C70.4,22.6,70.4,22.6,70.3,22.7l-0.1-0.2l0.1-0.2c0,0,0-0.1,0.1-0.2
	h0.2l0,0l0,0c0,0,0,0,0,0.1l0,0c0-0.1,0.1-0.1,0.1-0.2c0,0,0-0.1,0.1-0.1l0,0l-0.1,0.1l0,0h-0.3c-0.2,0-0.4,0-0.5,0l0,0l0.3,0.3
	C70.2,22.5,70.3,22.6,70.3,22.7z M70.3,22.1c0,0.1-0.1,0.2-0.1,0.2s0,0.1-0.1,0.1l-0.3-0.3L70.3,22.1z M65.6,36.6L65.6,36.6
	C65.6,36.5,65.6,36.5,65.6,36.6C65.7,36.5,65.7,36.5,65.6,36.6c0.1-0.1,0.1-0.1,0.2-0.1l0.2,0.1c0.2,0.1,0.3,0.1,0.3,0.1l0,0
	c0,0,0,0,0,0.1l0,0l0,0c0-0.1,0.1-0.1,0.1-0.1s0,0,0-0.1c0,0,0-0.1,0.1-0.1c0-0.1,0.1-0.2,0.1-0.3c0-0.1-0.1-0.2-0.1-0.2h-0.1h-0.1
	c0,0,0,0-0.1,0.1v-0.1V36c0,0,0,0-0.1-0.1H66L65.9,36v0.1c0,0,0,0.1-0.1,0.1C65.6,36.4,65.6,36.5,65.6,36.6L65.6,36.6z M66.1,36.4
	C66.1,36.3,66.2,36.3,66.1,36.4c0.1-0.1,0.1-0.1,0.2-0.1h0.1c0.1,0,0.1,0.1,0.1,0.1s0,0.1,0,0.2c0,0,0,0.1-0.1,0.1L66.1,36.4
	C66,36.5,66.1,36.5,66.1,36.4z M65.7,36.2C65.7,36.1,65.8,36.1,65.7,36.2l0.2-0.1c0,0,0.1,0,0.1,0.1v0.1v0.1c0,0,0,0,0,0.1
	c0,0,0,0-0.1,0c-0.1,0-0.2-0.1-0.2-0.1C65.7,36.3,65.7,36.3,65.7,36.2z M66.9,34.6c0.1,0.1,0.2,0.1,0.3,0c0.1,0,0.2-0.1,0.2-0.2
	c0.1-0.1,0.1-0.2,0-0.4c0-0.1-0.1-0.2-0.3-0.3c-0.1-0.1-0.2-0.1-0.3,0c-0.1,0-0.2,0.1-0.2,0.2c-0.1,0.1-0.1,0.2,0,0.4
	C66.7,34.4,66.8,34.5,66.9,34.6z M66.7,34C66.7,33.9,66.8,33.9,66.7,34c0.1-0.1,0.2-0.1,0.3-0.1s0.1,0,0.2,0.1
	c0.1,0,0.1,0.1,0.2,0.1c0,0,0.1,0.1,0.1,0.2c0,0.1,0,0.1,0,0.2c0,0.1-0.1,0.1-0.2,0.2c-0.1,0-0.2,0-0.3,0c-0.1,0-0.1-0.1-0.2-0.1
	c0,0-0.1-0.1-0.1-0.2C66.7,34.1,66.7,34.1,66.7,34z M67.7,32.1L67.7,32.1c0-0.1,0-0.1,0.1-0.2c0-0.1,0-0.1,0.1-0.2l0,0l0,0
	c0,0.1,0,0.1,0,0.1l0,0c0,0,0.1,0.1,0.3,0.1c0.1,0,0.2,0.1,0.2,0.1h0.1c0,0,0.1,0,0.1-0.1l0.1-0.1c0-0.1,0-0.1,0-0.2
	c0,0,0-0.1-0.1-0.1c0,0-0.1-0.1-0.2-0.1c-0.2-0.1-0.2-0.1-0.3-0.1l0,0c0,0,0,0-0.1,0.1l0,0l0,0c0-0.1,0.1-0.1,0.1-0.2
	c0,0,0-0.1,0.1-0.1l0,0l0,0c0,0.1,0,0.1,0,0.1l0,0c0,0,0.1,0.1,0.3,0.1c0.1,0.1,0.2,0.1,0.2,0.1s0.1,0,0.1,0.1v0.1v0.1
	c0,0.1,0,0.1,0,0.1c0,0.1-0.1,0.1-0.1,0.1L68.5,32h-0.1h-0.1L68,31.9c-0.1,0-0.1-0.1-0.2-0.1l0,0C67.8,32,67.8,32,67.7,32.1
	L67.7,32.1L67.7,32.1z M68.8,29.8C68.8,29.8,68.8,29.7,68.8,29.8C68.8,29.7,68.8,29.7,68.8,29.8c0.1-0.1,0.1-0.1,0.2-0.1l0.3,0.1
	c0.2,0.1,0.3,0.1,0.3,0.1l0,0c0,0,0,0,0,0.1l0,0l0,0c0-0.1,0.1-0.1,0.1-0.2s0.1-0.1,0.1-0.2l0,0l0,0l-0.1,0.1l0,0l-0.3-0.1
	c0,0,0-0.1,0.1-0.1h0.2l0,0c0,0,0,0,0.1,0s0.1,0,0.1,0v-0.1c0,0,0-0.1,0.1-0.1l0,0l-0.1,0.1l0,0c0,0,0,0-0.1,0l-0.3,0.1v-0.1v-0.1
	l-0.1-0.1c-0.1,0-0.1,0-0.2,0S69,29.3,69,29.3s0,0,0,0.1v0.1C68.8,29.6,68.8,29.7,68.8,29.8L68.8,29.8
	C68.7,29.8,68.8,29.8,68.8,29.8z M68.9,29.5C68.9,29.4,69,29.4,68.9,29.5l0.2-0.1c0.1,0,0.1,0.1,0.1,0.1s0,0.1,0,0.2v0.1l-0.3-0.1
	C68.9,29.5,68.9,29.5,68.9,29.5z M69.8,27.6C69.8,27.5,69.8,27.5,69.8,27.6C69.8,27.5,69.8,27.5,69.8,27.6c0.1-0.1,0.1-0.1,0.2,0
	l0.2,0.1c0.2,0.1,0.3,0.1,0.3,0.1l0,0c0,0,0,0,0,0.1l0,0l0,0c0-0.1,0.1-0.1,0.1-0.1s0,0,0-0.1c0,0,0-0.1,0.1-0.1
	c0-0.1,0.1-0.2,0.1-0.3c0-0.1-0.1-0.2-0.1-0.2h-0.1h-0.1c0,0,0,0-0.1,0.1v-0.1V27c0,0,0,0-0.1-0.1h-0.1L70.1,27v0.1
	c0,0,0,0.1-0.1,0.1C69.8,27.5,69.8,27.5,69.8,27.6L69.8,27.6L69.8,27.6z M70.2,27.5C70.2,27.4,70.3,27.4,70.2,27.5
	c0.1-0.1,0.1-0.1,0.2-0.1h0.1c0.1,0,0.1,0.1,0.1,0.1s0,0.1,0,0.2c0,0,0,0.1-0.1,0.1L70.2,27.5C70.1,27.5,70.1,27.5,70.2,27.5z
	 M69.9,27.3C69.9,27.2,70,27.2,69.9,27.3l0.2-0.1c0,0,0.1,0,0.1,0.1v0.1v0.1c0,0,0,0,0,0.1c0,0,0,0-0.1,0c-0.1,0-0.2-0.1-0.2-0.1
	C69.9,27.3,69.9,27.3,69.9,27.3z M71.1,25.6c0.1,0.1,0.2,0.1,0.3,0c0.1,0,0.2-0.1,0.2-0.2c0.1-0.1,0.1-0.2,0-0.4
	c0-0.1-0.1-0.2-0.3-0.3c-0.1-0.1-0.2-0.1-0.3,0c-0.1,0-0.2,0.1-0.2,0.2c-0.1,0.1-0.1,0.2,0,0.4C70.9,25.5,71,25.6,71.1,25.6z
	 M70.9,25C70.9,24.9,71,24.9,70.9,25c0.1-0.1,0.2-0.1,0.3-0.1s0.1,0,0.2,0.1c0.1,0,0.1,0.1,0.2,0.1c0,0,0.1,0.1,0.1,0.2
	c0,0.1,0,0.1,0,0.2c0,0.1-0.1,0.1-0.2,0.2c-0.1,0-0.2,0-0.3,0c-0.1,0-0.1-0.1-0.2-0.1c0,0-0.1-0.1-0.1-0.2
	C70.9,25.2,70.9,25.1,70.9,25z M71.8,23.2L71.8,23.2C71.8,23.1,71.8,23.1,71.8,23.2V23l0.3-0.1c0,0,0.2-0.1,0.6-0.1
	c-0.1,0-0.1,0-0.1-0.1c-0.1,0-0.2-0.1-0.3-0.1c-0.1,0-0.1,0-0.1,0l0,0c0,0,0,0-0.1,0.1l0,0l0,0c0-0.1,0.1-0.1,0.1-0.2
	c0,0,0-0.1,0.1-0.2l0,0l0,0c0,0.1,0,0.1,0,0.1l0,0l0,0c0,0,0.1,0,0.2,0.1c0.1,0,0.2,0.1,0.3,0.1c0.1,0,0.2,0.1,0.3,0.1l0,0l-0.4,0.1
	l-0.5,0.1l0.3,0.1c0.1,0.1,0.2,0.1,0.2,0.1l0,0c0,0,0,0,0.1-0.1l0,0l0,0c0,0.1-0.1,0.1-0.1,0.1s0,0.1-0.1,0.2l0,0l0,0v-0.1l0,0
	c0,0-0.1,0-0.2-0.1C72.2,23,72.1,23,72.1,23c-0.1,0-0.1-0.1-0.2-0.1l0,0C71.8,23.1,71.8,23.1,71.8,23.2L71.8,23.2z M67.1,39.2
	l-0.2-0.1l0,0c0,0,0,0-0.1,0.1l0,0l0,0c0-0.1,0.1-0.2,0.1-0.2s0-0.1,0.1-0.2l0,0c0,0.1,0,0.1,0,0.1l0,0l0,0c0,0,0.2,0.1,0.4,0.2
	c0,0,0.1,0.1,0.2,0.1l0.1-0.2v-0.1l0,0c0,0,0-0.1-0.1-0.1l0,0l0.1,0.1c0,0,0,0,0.1,0.1c-0.1,0.2-0.1,0.3-0.2,0.4
	c0,0.1-0.1,0.2-0.1,0.2l0,0c0-0.1,0-0.1,0-0.1l0,0c0,0,0,0-0.1,0L67.1,39.2z M68.2,36.1L68.2,36.1c0-0.1,0-0.2,0.1-0.2
	c0-0.1,0-0.1,0.1-0.2l0,0l0,0c0,0.1,0,0.1,0,0.1l0,0l0,0l0.2,0.1l0.3,0.1c0,0,0,0,0.1,0c0,0,0,0,0.1-0.1l0,0l0,0
	C69,36,69,36,69,36.1s-0.1,0.1-0.1,0.2l0,0l0,0c0-0.1,0-0.1,0-0.1l0,0l0,0l-0.2-0.1c-0.2-0.1-0.3-0.1-0.3-0.2
	C68.3,36,68.3,36,68.2,36.1C68.3,36.1,68.2,36.1,68.2,36.1L68.2,36.1z M69.9,33.5c0.1,0,0.1,0,0.2,0.1c0.1,0,0.1,0,0.2,0
	c0,0,0,0,0,0.1l0,0c0-0.1,0.1-0.1,0.1-0.1l0.1-0.1c0.1-0.1,0.2-0.1,0.2-0.2l0.1-0.1c0,0,0,0,0-0.1c0,0,0-0.1,0-0.2l0,0
	c0,0.1,0,0.1,0,0.2c0,0,0,0.1-0.1,0.1l-0.1,0.1l-0.2,0.2l0.1-0.1c0-0.1,0.1-0.2,0-0.3c0-0.1-0.1-0.2-0.3-0.3c-0.1,0-0.2-0.1-0.2,0
	c-0.1,0-0.1,0-0.2,0.1c-0.1,0-0.1,0.1-0.1,0.2c-0.1,0.1-0.1,0.2,0,0.4C69.7,33.3,69.7,33.4,69.9,33.5z M69.7,32.9
	C69.7,32.8,69.8,32.8,69.7,32.9c0.1-0.1,0.2-0.1,0.3-0.1s0.1,0,0.2,0.1c0.1,0,0.1,0.1,0.2,0.1c0,0,0.1,0.1,0.1,0.2s0,0.1,0,0.2
	s-0.1,0.1-0.2,0.2c-0.1,0-0.2,0-0.3,0c-0.1,0-0.1-0.1-0.2-0.1c0,0-0.1-0.1-0.1-0.2C69.6,33,69.7,32.9,69.7,32.9z M71,30.1L71,30.1
	c0-0.1,0-0.1,0.1-0.2c0-0.1,0-0.1,0.1-0.2l0,0l0,0c0,0.1,0,0.1,0,0.1l0,0c0,0,0.1,0.1,0.3,0.1c0.1,0,0.2,0.1,0.2,0.1h0.1
	c0,0,0.1,0,0.1-0.1l0.1-0.1c0-0.1,0-0.1,0-0.2c0,0,0-0.1-0.1-0.1c0,0-0.1-0.1-0.2-0.1c-0.2-0.1-0.2-0.1-0.3-0.1l0,0c0,0,0,0-0.1,0.1
	l0,0l0,0c0-0.1,0.1-0.1,0.1-0.2c0,0,0-0.1,0.1-0.1l0,0l0,0c0,0.1,0,0.1,0,0.1l0,0c0,0,0.1,0.1,0.3,0.1c0.1,0.1,0.2,0.1,0.2,0.1
	s0.1,0,0.1,0.1v0.1v0.1c0,0.1,0,0.1,0,0.1c0,0.1-0.1,0.1-0.1,0.1L71.8,30h-0.1h-0.1l-0.4,0.1C71.2,30.1,71.2,30,71,30.1L71,30.1
	C71.1,30,71.1,30,71,30.1C71.1,30,71,30,71,30.1L71,30.1z M72.8,26.9c0.1,0.1,0.2,0.1,0.3,0c0.1,0,0.2-0.1,0.2-0.2
	c0.1-0.1,0.1-0.2,0-0.4c0-0.1-0.1-0.2-0.3-0.3c-0.1-0.1-0.2-0.1-0.3,0c-0.1,0-0.2,0.1-0.2,0.2c-0.1,0.1-0.1,0.2,0,0.4
	C72.6,26.8,72.7,26.9,72.8,26.9z M72.6,26.4C72.6,26.3,72.7,26.3,72.6,26.4c0.1-0.1,0.2-0.1,0.3-0.1s0.1,0,0.2,0.1
	c0.1,0,0.1,0,0.2,0c0,0,0.1,0.1,0.1,0.2s0,0.1,0,0.2c0,0.1-0.1,0.1-0.2,0.2c-0.1,0-0.2,0-0.3,0c-0.1,0-0.1-0.1-0.2-0.1
	c0,0-0.1-0.1-0.1-0.2C72.6,26.6,72.6,26.5,72.6,26.4z M74,23.5L74,23.5C74,23.4,74,23.4,74,23.5c0.1-0.1,0.1-0.1,0.2-0.1l0.3,0.1
	c0.2,0.1,0.3,0.1,0.3,0.1l0,0c0,0,0,0,0,0.1l0,0l0,0c0-0.1,0.1-0.1,0.1-0.2s0.1-0.1,0.1-0.2l0,0l0,0l-0.1,0.1l0,0l-0.3-0.1
	c0,0,0-0.1,0.1-0.1h0.2l0,0c0,0,0,0,0.1,0s0.1,0,0.1,0v-0.1c0,0,0-0.1,0.1-0.1l0,0L75,23.2l0,0c0,0,0,0-0.1,0l-0.3,0.1v-0.1v-0.1
	L74.6,23c-0.1,0-0.1,0-0.2,0s-0.1,0.1-0.1,0.1s0,0,0,0.1v0.1C74,23.4,74,23.4,74,23.5L74,23.5C73.9,23.5,73.9,23.5,74,23.5z
	 M74.1,23.3C74.1,23.2,74.2,23.2,74.1,23.3l0.2-0.1c0.1,0,0.1,0.1,0.1,0.1s0,0.1,0,0.2v0.1L74.1,23.3L74.1,23.3z M68.4,41.5
	c0.1,0,0.1,0.1,0.3,0.1c0.1,0,0.1,0,0.1,0l0,0l0,0c0,0,0,0,0,0.1l0,0c0-0.1,0-0.1,0.1-0.2c0,0,0,0,0.1-0.1c0-0.1,0-0.1,0-0.1
	c0.1-0.1,0.1-0.3,0-0.4c0-0.1-0.1-0.2-0.3-0.3c-0.1,0-0.1,0-0.2,0s-0.1,0-0.2,0.1c0,0-0.1,0.1-0.1,0.2l-0.1,0.3
	c0,0.1-0.1,0.2-0.1,0.2l0,0c0-0.1,0.1-0.1,0.1-0.1l0,0l0,0L68.4,41.5z M68.3,41.1c0-0.1,0.1-0.1,0.1-0.2l0.1-0.1h0.1h0.1
	c0.1,0,0.1,0.1,0.2,0.1c0,0.1,0.1,0.1,0.1,0.2c0,0.1,0,0.1,0,0.2c0,0,0,0.1-0.1,0.1s-0.2-0.1-0.3-0.1C68.5,41.2,68.4,41.2,68.3,41.1
	C68.2,41.2,68.2,41.2,68.3,41.1z M69.2,39.1L69.2,39.1c0-0.1,0-0.2,0.1-0.2c0-0.1,0-0.1,0.1-0.2l0,0l0,0c0,0.1,0,0.1,0,0.1l0,0l0,0
	l0.2,0.1l0.3,0.1c0,0,0,0,0.1,0c0,0,0,0,0.1-0.1l0,0l0,0c0,0.1-0.1,0.1-0.1,0.2c0,0.1-0.1,0.1-0.1,0.2l0,0l0,0c0-0.1,0-0.1,0-0.1
	l0,0l0,0l-0.2-0.1c-0.2-0.1-0.3-0.1-0.3-0.2C69.3,39,69.3,39,69.2,39.1C69.3,39,69.2,39,69.2,39.1L69.2,39.1z M70.1,37.1L70.1,37.1
	c0-0.1,0-0.2,0.1-0.2c0,0,0-0.1,0.1-0.2l0,0l0,0c0,0.1,0,0.1,0,0.1l0,0c0,0,0.1,0.1,0.3,0.1c0.1,0,0.2,0.1,0.2,0.1l0.1,0.1v0.1v0.1
	c0,0,0,0.1-0.1,0.1c-0.1,0-0.1-0.1-0.2-0.1l0,0c0.1,0,0.1,0,0.1,0s0.1,0,0.1-0.1v-0.1c0,0-0.1-0.1-0.3-0.2c-0.2-0.1-0.3-0.1-0.3-0.1
	l0,0C70.2,37,70.2,37,70.1,37.1C70.1,37,70.1,37,70.1,37.1z M71.1,35.1L71.1,35.1c0-0.1,0-0.2,0.1-0.3c0-0.1,0.1-0.2,0.2-0.4
	c0.1,0,0.1,0.1,0.2,0.1l0,0c-0.1,0-0.1,0-0.1,0l0,0c0,0,0,0,0,0.1l-0.1,0.2l0.2,0.1l0.1,0.1l0.1-0.1c0-0.1,0-0.1,0-0.1l0,0
	c0,0,0,0-0.1-0.1l0,0l0,0c0.1,0,0.1,0.1,0.1,0.1s0.1,0,0.1,0.1l0,0c-0.1,0-0.1,0-0.1,0l0,0c0,0,0,0,0,0.1l-0.1,0.2l0.3,0.1l0.1-0.2
	l0,0V35l0,0c0,0,0-0.1-0.1-0.1l0,0l0,0c0,0,0.1,0.1,0.2,0.2c-0.1,0.1-0.1,0.3-0.2,0.4c0,0.1-0.1,0.2-0.1,0.3l0,0v-0.1l0,0l0,0l0,0
	l-0.1-0.1c0,0-0.1,0-0.1-0.1c-0.1,0-0.2-0.1-0.2-0.1h-0.1C71.2,35,71.2,35,71.1,35.1C71.1,35,71.1,35,71.1,35.1L71.1,35.1z
	 M72.2,32.7L72.2,32.7c0-0.2,0-0.2,0-0.2c0-0.1,0.1-0.1,0.1-0.2c0.1,0,0.1,0,0.1,0h0.1l0,0c-0.1,0-0.1,0-0.1,0h-0.1c0,0,0,0-0.1,0.1
	v0.1C72.2,32.7,72.3,32.7,72.2,32.7c0.1,0,0.2,0,0.2,0s0.1,0,0.2-0.1c0.1-0.1,0.1-0.1,0.2-0.1c0.1,0,0.1,0,0.1,0s0.1,0,0.1,0.1v0.1
	c0,0.1,0,0.1,0,0.2c0,0,0,0.1-0.1,0.1l-0.1,0.1c0,0-0.1-0.1-0.2-0.1l0,0c0.1,0,0.1,0,0.1,0h0.1c0,0,0,0,0.1-0.1v-0.1
	c0,0,0-0.1-0.1-0.1h-0.1c0,0-0.1,0-0.2,0.1c0,0,0,0-0.1,0C72.4,32.8,72.3,32.8,72.2,32.7C72.3,32.8,72.2,32.8,72.2,32.7z M73.3,30.7
	c-0.1,0-0.1-0.1-0.2-0.1c0.1-0.2,0.1-0.3,0.2-0.3c0-0.1,0.1-0.2,0.1-0.3c0.1,0,0.2,0.1,0.2,0.1l0,0c-0.1,0-0.1,0-0.1,0l0,0
	c0,0,0,0,0,0.1l-0.1,0.1c0.1,0,0.2,0.1,0.4,0.2c0.1,0.1,0.2,0.1,0.3,0.1l0,0c0,0,0,0,0.1-0.1l0,0l0,0c0,0.1-0.1,0.1-0.1,0.2
	c0,0.1,0,0.1-0.1,0.2l0,0l0,0c0-0.1,0-0.1,0-0.1l0,0c0,0,0,0-0.1-0.1c-0.1-0.1-0.2-0.1-0.3-0.1s-0.2-0.1-0.3-0.1l-0.1,0l0,0l0,0l0,0
	C73.2,30.6,73.2,30.6,73.3,30.7L73.3,30.7z M74.1,28.4L74.1,28.4c0-0.1,0-0.2,0.1-0.2c0-0.1,0-0.1,0.1-0.2l0,0l0,0
	c0,0.1,0,0.1,0,0.1l0,0l0,0l0.2,0.1l0.3,0.1c0,0,0,0,0.1,0c0,0,0,0,0.1-0.1l0,0l0,0c0,0.1-0.1,0.1-0.1,0.2s-0.1,0.1-0.1,0.2l0,0l0,0
	c0-0.1,0-0.1,0-0.1l0,0l0,0l-0.2-0.1c-0.2-0.1-0.3-0.1-0.3-0.2C74.2,28.3,74.2,28.3,74.1,28.4C74.2,28.3,74.2,28.3,74.1,28.4
	L74.1,28.4z M75,26.5L75,26.5c0-0.1,0-0.1,0-0.2c0,0,0-0.1,0.1-0.2l0,0l0,0v0.1l0,0l0,0c0,0,0.1,0,0.3,0h0.3
	c-0.1-0.1-0.2-0.2-0.3-0.3c-0.1-0.1-0.2-0.2-0.2-0.2l0,0l0,0c0,0,0,0-0.1,0.1l0,0l0,0c0-0.1,0-0.1,0.1-0.1v-0.1l0,0v0.1
	c0,0,0,0,0,0.1c0,0,0.2,0.2,0.4,0.4l0.2,0.2l0,0c-0.2,0-0.3,0-0.6,0C75.2,26.4,75.1,26.4,75,26.5C75.1,26.4,75.1,26.4,75,26.5
	C75,26.4,75,26.4,75,26.5z M76,24.1L76,24.1c0-0.1,0-0.2,0.1-0.3c0-0.1,0.1-0.2,0.2-0.4c0.1,0,0.1,0.1,0.2,0.1l0,0
	c-0.1,0-0.1,0-0.1,0l0,0c0,0,0,0,0,0.1l-0.1,0.2l0.2,0.1l0.1,0.1l0.1-0.1c0-0.1,0-0.1,0-0.1l0,0c0,0,0,0-0.1-0.1l0,0l0,0
	c0.1,0,0.1,0.1,0.1,0.1s0.1,0,0.1,0.1l0,0c-0.1,0-0.1,0-0.1,0l0,0c0,0,0,0,0,0.1l-0.1,0.2l0.3,0.1l0.1-0.2l0,0V24l0,0
	c0,0,0-0.1-0.1-0.1l0,0l0,0c0,0,0.1,0.1,0.2,0.2c-0.1,0.1-0.1,0.3-0.2,0.4c0,0.1-0.1,0.2-0.1,0.3l0,0v-0.1l0,0l0,0l0,0l-0.1-0.1
	c0,0-0.1,0-0.1-0.1c-0.1,0-0.2-0.1-0.2-0.1c-0.1,0-0.1,0-0.1,0C76.1,24,76.1,24,76,24.1C76.1,24,76.1,24.1,76,24.1L76,24.1z
	 M69.3,43.9c0-0.1,0.1-0.2,0.2-0.2h0.1c0,0,0.1,0,0.2,0.1l0,0c-0.1,0-0.1,0-0.2,0h-0.1C69.4,43.8,69.4,43.9,69.3,43.9
	c0,0.2,0,0.2,0.1,0.3c0,0.1,0.1,0.1,0.2,0.2c0.1,0,0.2,0.1,0.3,0c0.1,0,0.2-0.1,0.2-0.2v-0.1c0,0,0-0.1,0-0.2h0.1c0,0.1,0,0.1,0,0.2
	c0,0.1,0,0.1-0.1,0.2c0,0.1-0.1,0.1-0.1,0.2c-0.1,0-0.1,0.1-0.2,0.1c-0.1,0-0.2,0-0.2,0c-0.1-0.1-0.2-0.1-0.2-0.3
	C69.2,44.1,69.2,44,69.3,43.9z M70.3,41.9L70.3,41.9c0-0.1,0-0.2,0.1-0.2c0-0.1,0-0.1,0.1-0.2l0,0v0.1l0,0l0,0l0.3,0.1
	c0-0.1,0.1-0.1,0.1-0.2c0-0.1,0.1-0.2,0.1-0.2l0,0l-0.1-0.1h-0.1l0,0l0,0l-0.1,0.1l0,0c0-0.1,0.1-0.1,0.1-0.2c0,0,0-0.1,0.1-0.2l0,0
	c0,0.1,0,0.1,0,0.1l0,0c0,0,0,0,0.1,0c0.1,0,0.2,0.1,0.3,0.1l0.3,0.1l0,0l0,0c0,0,0,0,0.1-0.1l0,0c-0.1,0.1-0.1,0.2-0.1,0.2
	s0,0.1-0.1,0.2l0,0v-0.1l0,0l0,0l-0.3-0.1c0,0.1-0.1,0.2-0.1,0.2c0,0.1-0.1,0.1-0.1,0.2l0.3,0.1l0,0l0,0c0,0,0,0,0.1-0.1l0,0
	c0,0.1-0.1,0.2-0.1,0.2s0,0.1-0.1,0.2l0,0v-0.1l0,0l0,0c-0.1,0-0.2-0.1-0.3-0.1H70.3L70.3,41.9L70.3,41.9
	C70.3,41.8,70.3,41.8,70.3,41.9L70.3,41.9z M72.1,39.6C72.1,39.6,72.1,39.6,72.1,39.6C72.1,39.6,72.1,39.6,72.1,39.6L72.1,39.6
	C72.1,39.6,72.1,39.6,72.1,39.6c0.1,0,0.1-0.1,0.2-0.1l0,0l0,0C72.2,39.5,72.2,39.6,72.1,39.6C72.2,39.6,72.2,39.6,72.1,39.6
	C72.2,39.6,72.2,39.5,72.1,39.6L72,39.4l0.1-0.2c0,0,0-0.1,0.1-0.2h0.2l0,0l0,0c0,0,0,0,0,0.1l0,0c0-0.1,0.1-0.1,0.1-0.2
	c0,0,0-0.1,0.1-0.1l0,0l-0.1,0.1l0,0h-0.3c-0.2,0-0.4,0-0.5,0l0,0l0.3,0.3C72,39.5,72.1,39.6,72.1,39.6z M72.1,39.1
	c0,0.1-0.1,0.2-0.1,0.2s0,0.1-0.1,0.1l-0.3-0.3H72.1z M72.6,36.9L72.6,36.9c0-0.1,0-0.1,0-0.2v-0.1h0.1c0,0,0.2,0,0.4,0
	c0.1,0,0.2,0,0.3,0L73,36.1l-0.1-0.1c0,0,0-0.1,0.1-0.1c0,0,0-0.1,0.1-0.1l0,0l0,0c0,0.1,0,0.1,0,0.1l0,0l0,0l0.2,0.1
	c0.2,0.1,0.4,0.2,0.4,0.2l0,0c0,0,0,0,0.1-0.1l0,0l0,0c0,0.1-0.1,0.1-0.1,0.2c0,0.1,0,0.1-0.1,0.2l0,0l0,0v-0.1l0,0c0,0,0,0-0.1,0
	L73,36.2c0.1,0.1,0.2,0.2,0.4,0.5c0.1,0.1,0.1,0.1,0.1,0.1l0,0C73.3,36.8,73,36.8,72.6,36.9l0.6,0.1h0.1c0,0,0,0,0.1-0.1l0,0l0,0
	c0,0.1-0.1,0.1-0.1,0.2c0,0,0,0.1-0.1,0.2l0,0l0,0c0-0.1,0-0.1,0-0.1s0,0-0.1,0L73,37.1C72.9,37,72.8,37,72.6,36.9L72.6,36.9
	C72.6,36.9,72.6,36.9,72.6,36.9L72.6,36.9C72.6,36.8,72.6,36.8,72.6,36.9L72.6,36.9z M73.8,34.1C73.9,34.1,73.9,34.1,73.8,34.1
	C73.9,34,73.9,34,73.8,34.1L73.8,34.1h0.4l0.3,0.1h0.1c0,0,0,0,0,0.1l0,0l0,0c0-0.1,0-0.1,0.1-0.2c0-0.1,0.1-0.1,0.1-0.2l0,0l0,0
	c0,0.1-0.1,0.1-0.1,0.1l0,0c0,0-0.1,0-0.2-0.1c0,0-0.1,0-0.1-0.1l0.1-0.1c0-0.1,0-0.2,0-0.2c0-0.1-0.1-0.1-0.1-0.2
	c-0.1,0-0.1,0-0.2,0c-0.1,0-0.1,0.1-0.1,0.2L74,33.8C73.8,34,73.8,34.1,73.8,34.1L73.8,34.1L73.8,34.1z M74,33.8
	C74,33.8,74.1,33.8,74,33.8l0.2-0.1c0.1,0,0.1,0.1,0.1,0.1s0,0.1,0,0.2c0,0,0,0.1-0.1,0.1C74.1,34.1,74,34,74,33.8
	C74,33.9,74,33.9,74,33.8z M75.5,32.1C75.5,32.2,75.5,32.2,75.5,32.1C75.5,32.2,75.5,32.2,75.5,32.1L75.5,32.1
	C75.5,32.1,75.5,32.1,75.5,32.1c0.1,0,0.1-0.1,0.2-0.1l0,0l0,0C75.6,32.1,75.6,32.1,75.5,32.1C75.6,32.1,75.6,32.1,75.5,32.1
	C75.6,32.1,75.6,32.1,75.5,32.1l-0.1-0.2l0.1-0.2c0,0,0-0.1,0.1-0.2h0.2l0,0l0,0c0,0,0,0,0,0.1l0,0c0-0.1,0.1-0.1,0.1-0.2
	c0,0,0-0.1,0.1-0.1l0,0l-0.1,0.1l0,0h-0.3c-0.2,0-0.4,0-0.5,0l0,0l0.3,0.3C75.4,32,75.5,32.1,75.5,32.1z M75.5,31.6
	c0,0.1-0.1,0.2-0.1,0.2s0,0.1-0.1,0.1L75,31.6L75.5,31.6z M76.1,29.3c0-0.1,0-0.2,0-0.4c0,0,0-0.1,0.1-0.1c0,0,0-0.1,0.1-0.2l0,0
	c0,0,0.1,0,0.2,0.1l0,0c-0.1,0-0.1,0-0.1,0s-0.1,0-0.1,0.1L76.2,29C76.1,29.1,76.1,29.2,76.1,29.3c0.1,0,0.2,0.1,0.3,0.1
	c0.1,0.1,0.2,0.1,0.3,0c0.1,0,0.2-0.1,0.2-0.2c0-0.1,0-0.1,0.1-0.2c0,0-0.1,0-0.2-0.1h-0.1l0,0c0,0,0,0-0.1,0.1l0,0l0,0l0.1-0.2
	c0,0,0-0.1,0.1-0.1l0,0v0.1l0,0l0,0c0,0,0.1,0,0.1,0.1c0,0,0.1,0,0.2,0.1v0.1c0,0.1,0,0.1,0,0.1v0.1c-0.1,0.1-0.1,0.2-0.2,0.3
	c-0.1,0-0.2,0-0.3,0C76.2,29.5,76.1,29.4,76.1,29.3z M77.1,26.9L77.1,26.9C77.1,26.8,77.1,26.8,77.1,26.9v-0.2l0.3-0.1
	c0,0,0.2-0.1,0.6-0.1c-0.1,0-0.1,0-0.1-0.1c-0.1,0-0.2-0.1-0.3-0.1c-0.1,0-0.1,0-0.1,0l0,0c0,0,0,0-0.1,0.1l0,0l0,0
	c0-0.1,0.1-0.1,0.1-0.2c0,0,0-0.1,0.1-0.2l0,0l0,0c0,0.1,0,0.1,0,0.1l0,0l0,0c0,0,0.1,0,0.2,0.1c0.1,0,0.2,0.1,0.3,0.1
	s0.2,0.1,0.3,0.1l0,0l-0.6,0.2l-0.5,0.1l0.3,0.1c0.1,0.1,0.2,0.1,0.2,0.1l0,0c0,0,0,0,0.1-0.1l0,0l0,0c0,0.1-0.1,0.1-0.1,0.1
	s0,0.1-0.1,0.2l0,0l0,0V27l0,0c0,0-0.1,0-0.2-0.1C77.3,26.8,77.2,26.8,77.1,26.9c0-0.1,0-0.2-0.1-0.2l0,0
	C77.2,26.8,77.2,26.8,77.1,26.9L77.1,26.9z M78.3,24.4L78.3,24.4c0-0.1,0-0.2,0.1-0.3c0-0.1,0.1-0.2,0.2-0.4c0.1,0,0.1,0.1,0.2,0.1
	l0,0c-0.1,0-0.1,0-0.1,0l0,0c0,0,0,0,0,0.1l-0.1,0.2l0.2,0.1l0.1,0.1l0.1-0.1c0-0.1,0-0.1,0-0.1l0,0c0,0,0,0-0.1-0.1l0,0l0,0
	c0.1,0,0.1,0.1,0.1,0.1s0.1,0,0.1,0.1l0,0c-0.1,0-0.1,0-0.1,0l0,0c0,0,0,0,0,0.1l-0.1,0.2l0.3,0.1l0.1-0.2l0,0v-0.1l0,0
	c0,0,0-0.1-0.1-0.1l0,0l0,0c0,0,0.1,0.1,0.2,0.2c-0.1,0.1-0.1,0.3-0.2,0.4c0,0.1-0.1,0.2-0.1,0.3l0,0v-0.1l0,0l0,0l0,0L79,24.8
	c0,0-0.1,0-0.1-0.1c-0.1,0-0.2-0.1-0.2-0.1c-0.1,0-0.1,0-0.1,0C78.4,24.3,78.4,24.3,78.3,24.4C78.4,24.3,78.4,24.3,78.3,24.4
	L78.3,24.4z M86.3,14.8c-1.1-1.6-2.4-2.4-3.9-2.4c-0.6,0-1.2,0.1-1.7,0.4c-2.3,1-4.6,1.5-7.1,1.5c-3.5,0-6.8-1.1-10-2.1
	c-1.5-0.5-2.9-1-4.5-1.4c-2.2-0.6-4.6-0.8-7.1-0.8c-5.6,0-10.5,1.5-12.8,2.1c-0.3,0.1-0.5,0.2-0.6,0.2C38,12.3,38,12.4,39.7,19
	c0.8,3.1,1.7,6.3,1.7,6.3c0,0.1,0.1,0.2,0.2,0.2c0.1,0,0.2,0.1,0.3,0c0,0,2.8-1.2,4.7-1.2c0.7,0,1.2,0.2,1.5,0.5
	c0.2,0.2,0.6,1.3,1,2.9l10.5,38.9c-2.2,1.7-5.9,4.7-6.5,6.7c-0.2,0.6-0.2,0.9,0,1.3c0.1,0.2,0.4,0.3,0.5,0.3c0.3,0,4.2,0.4,9.8,0.4
	c5.3,0,8.3-0.6,9.4-1.7C72.9,73,73,72.5,73,72c0-0.1-0.6-5.1,1.3-9.1c1.7-3.5,3.7-6.6,5.7-9.7c2.6-4,5.2-8,7-12.8
	C90.7,30.4,89.5,19.3,86.3,14.8z M55.5,73.2c0.6-1,2.4-2.6,4.6-4.7l0.1,0.5c0.1,0.3,0.3,0.6,0.6,1c-1,1.2-1.9,2.3-2.7,3.3
	c-0.1,0.2-0.3,0.6-0.6,1.1c-1,0-1.8-0.1-2.5-0.2C55.2,73.7,55.4,73.3,55.5,73.2z M63.9,69.9c-0.5,0.2-0.8,0.3-1.2,0.3l0,0
	c-1.4,0-1.7-1.3-1.7-1.4l-0.6-2.1c0-0.1,0-0.1,0-0.2v-0.1c-0.2-0.6-1.4-5.2-2.9-10.5c-3.2-12.2-6.1-22.9-7.6-28.2l-0.1-0.3l3.9-6.4
	c0.7,1,2.7,4.1,5.3,11.6c3.5,9.8,10,28.4,11,31.3c0.8,2.5,0.6,2.7-0.9,3.5l-0.2,0.1C67.2,68.7,66.8,68.8,63.9,69.9z M86.4,40.3
	c-1.7,4.8-4.4,8.7-6.9,12.6c-1.8,2.9-3.8,5.8-5.4,9c-0.8,1.4-2.4,4.1-2.9,5.5c-0.6,1.2-0.9,2.5-1.1,3.1c0.8,0,1.6,0.1,2.3,0.1
	c0,0.8,0.1,1.4,0.1,1.4c0,0.3,0,0.6-0.3,0.8c-0.9,1-3.8,1.5-8.8,1.5c-0.5,0-0.9,0-1.3,0c0.5-1.1,1.1-2.4,1.7-3.8
	c0.1,0,0.3-0.1,0.4-0.1c3-1.1,3.5-1.4,5.1-2.3l0.2-0.1c1.5-0.8,2-1.4,1.5-3.5c0.5-0.7,1.4-2.6,1.7-2.9c0,0-0.4-0.7-1-2.1
	c2.3-2.4,5.4-5.6,8.7-10.6C87.9,37.5,86.4,25,86.4,25s0.2,2.5-0.4,6.2c-0.6,4.6-3.2,11.2-7.9,17.6c-1.7,2.4-4.7,5.5-7.6,8.4
	l-0.1,0.1c-2-4.3-5.1-11.1-7.1-16.8c-5.8-15.8-9.5-20.6-9.5-20.6h-0.1l0,0l-11.4,4.8c-0.1,0-0.2,0.1-0.3,0.1c-1.1-4.2-2.9-10.6-3-12
	c0.1,0,0.3-0.1,0.4-0.1c2.3-0.6,7-2.1,12.5-2.1c2.4,0,4.8,0.3,6.9,0.8c1.5,0.4,3,0.9,4.5,1.4C66.6,13.9,70,15,73.6,15
	c2.5,0,4.9-0.6,7.4-1.6c1.8-0.7,3.4-0.2,4.8,1.7C89.6,20.7,89.2,32.6,86.4,40.3z M82.9,14.2c0,0,0.6,5.5-8.7,4.3
	c-4.9-0.6-13.9-4.1-20.1-5.2c-4-0.7-8.7-0.2-10.3,0.2c-0.1,0-0.1,0-0.1,0c-0.2,0-0.3,0.2-0.3,0.4s0.2,0.3,0.4,0.3l0,0l0,0
	c2.6,0,8.1,0.8,12.4,8.5c2.5,4.3,7.2,16.6,10.5,23.8c2.9,6.5,3,6.8,4.2,8.7l1.7-1.8c0,0-2.6-3.2-4.9-7.7C63.6,37.5,59,25,56.3,21
	c-4.1-6.1-8.6-6.8-11.1-6.9h0.1c2.6,0,7.6,0.8,11.2,6.6c2.6,4.1,5.3,10.1,7.6,15.6c1.2,2.8,2.4,5.4,3.3,7.3c2.9,5.9,4.8,7.6,5.6,8
	c0.2,0.1,0.3,0.1,0.5,0.1c0.2,0,0.5-0.1,0.7-0.4c0.9-1.1,4.1-5.2,6-13.5c1-4.6,1.4-8.2,1.5-10.8c1.2-1.8,2.8-4.3,3.4-5.6l0,0
	c0.6-0.3,1.2-0.6,1.2-0.6s0.2-1.7-0.7-3.6C84.5,15.3,82.9,14.2,82.9,14.2z M61.8,17.2l-2.9,6.4c-0.4-0.6-0.7-1.3-1-1.8l2.4-5.2
	C60.7,16.6,61.2,16.9,61.8,17.2z M62.1,17.4c0.5,0.3,1,0.6,1.5,0.8L60,25.9c-0.4-0.6-0.6-1.3-1-1.9L62.1,17.4z M64.1,18.4
	c0.2,0.1,0.3,0.2,0.5,0.3c0.4,0.2,0.7,0.5,1.1,0.6l-4.2,9.1c-0.4-0.6-0.6-1.4-1-2L64.1,18.4z M65.9,19.6c0.6,0.3,1,0.6,1.6,0.8
	l-5,10.8c-0.3-0.7-0.6-1.4-0.9-2L65.9,19.6z M67.9,20.6c0.6,0.3,1,0.5,1.6,0.6l-5.8,12.4c-0.3-0.6-0.6-1.4-0.9-2L67.9,20.6z
	 M73.6,22.5L66,38.9c-0.3-0.6-0.6-1.4-0.9-2.1L72,22.1C72.5,22.2,73.1,22.4,73.6,22.5z M74.1,22.6c0.6,0.1,1.1,0.2,1.7,0.3
	l-8.7,18.5c-0.3-0.6-0.6-1.3-0.9-1.9L74.1,22.6z M78.9,23.2c0.7,0,1.3,0,1.7-0.1L69.7,46.4c-0.4-0.6-0.7-1.3-1.1-2l9.9-21.2
	C78.6,23.2,78.8,23.2,78.9,23.2z M48.7,14c2.9,0.1,6.9,0.6,11.1,2.3l-2.3,4.9c-0.2-0.3-0.3-0.5-0.5-0.7C54.5,16.4,51.4,14.7,48.7,14
	z M63.9,34.2l6-12.8c0.6,0.2,1.1,0.4,1.6,0.6l-6.6,14.3c0-0.1-0.1-0.2-0.1-0.2C64.4,35.4,64.2,34.9,63.9,34.2z M67.4,41.9l8.8-19
	c0.6,0.1,1.2,0.1,1.7,0.2l-9.7,20.7c-0.1-0.2-0.2-0.4-0.3-0.6C67.8,42.9,67.7,42.4,67.4,41.9z M79.4,37.7
	c-1.7,8.1-4.9,12.2-5.8,13.2c-0.1,0.1-0.2,0.2-0.2,0.2h-0.1c-0.5-0.3-1.6-1.2-3.4-4.1l10.9-23.3C81,25.6,81.1,30.4,79.4,37.7z
	 M67.5,63.9c0.2,0.7,0.2,1.4-0.1,1.8c-0.2,0.4-0.6,0.6-1.2,0.7l-2,0.6c-0.6,0.2-0.6,0.3-0.5,0.7l-0.2,0.1L63,66.1l0.2-0.1
	c0.2,0.6,0.3,0.6,0.8,0.4l1.8-0.6c0.6-0.2,1-0.4,1.3-0.6c0.3-0.4,0.4-0.7,0.2-1.3c-0.2-0.6-0.6-1-1-1.2c-0.4-0.1-0.7,0-1.4,0.2
	l-1.4,0.5c-0.6,0.2-0.7,0.3-0.8,0.4c-0.1,0.1-0.1,0.3,0,0.6l-0.2,0.1L62,62.9l0.2-0.1c0.1,0.3,0.2,0.4,0.4,0.5
	c0.2,0.1,0.4,0,0.9-0.1l1.4-0.5c0.7-0.3,1.2-0.3,1.6-0.1C66.8,62.7,67.2,63.1,67.5,63.9z M62,62.2l-0.2,0.1l-0.6-1.8l0.2-0.1
	c0.2,0.6,0.3,0.6,0.8,0.5l3.6-1.1l-0.4-1.1c-0.3-0.8-0.6-1-1.5-0.9v-0.2l1.3-0.3l1.2,3.6l-0.2,0.1c-0.2-0.6-0.3-0.6-0.8-0.4
	l-2.9,0.9C61.9,61.6,61.8,61.7,62,62.2z M60.9,58.9L60.8,59l-0.5-1.8h0.2c0.1,0.4,0.2,0.5,0.4,0.4c0.1,0,0.2-0.1,0.4-0.4l1.1-1.4
	l-1.6-0.6c-0.3-0.1-0.5-0.1-0.6-0.1c-0.2,0-0.2,0.2-0.1,0.6h-0.2l-0.6-1.6h0.2c0.1,0.4,0.4,0.6,0.9,0.7l1.8,0.6l1.4-0.5
	c0.6-0.2,0.6-0.3,0.5-0.7l0.2-0.1l0.6,1.7l-0.2,0.1c-0.2-0.6-0.3-0.6-0.8-0.4l-1.2,0.4L61.3,58C60.9,58.3,60.8,58.5,60.9,58.9z
	 M59.4,53.2c-0.3-0.2-0.5-0.5-0.6-0.8c-0.1-0.3-0.1-0.4-0.1-0.8c0-0.1,0-0.2,0-0.3s-0.1-0.2-0.2-0.4l1.2-0.4l0.1,0.2
	c-0.3,0.1-0.5,0.2-0.6,0.4c-0.2,0.3-0.3,0.6-0.2,1.1c0.1,0.3,0.3,0.6,0.5,0.6c0.2,0.1,0.4,0.1,0.6,0c0.4-0.1,0.6-0.4,0.6-1.3
	s0.2-1.3,0.5-1.6c0.2-0.2,0.4-0.3,0.6-0.4c0.4-0.1,0.6-0.1,0.9,0.1c0.3,0.2,0.6,0.6,0.6,0.9c0.1,0.3,0.1,0.5,0.2,0.9
	c0,0.1,0,0.2,0.1,0.2c0,0.1,0.1,0.2,0.2,0.5l-1.3,0.4l-0.1-0.2c0.4-0.2,0.6-0.3,0.6-0.6c0.2-0.3,0.2-0.6,0-1.1
	C63,50.1,62.6,49.9,62,50c-0.5,0.2-0.6,0.5-0.7,1.6c-0.1,0.6-0.1,0.9-0.3,1.1c-0.1,0.3-0.4,0.5-0.6,0.6C60,53.5,59.7,53.5,59.4,53.2
	z M58.2,49.5c-0.3-0.2-0.5-0.5-0.6-0.8c0-0.2-0.1-0.3-0.1-0.7c0-0.1,0-0.2,0-0.3c0-0.1-0.1-0.2-0.2-0.4l1.2-0.4l0.1,0.2
	c-0.3,0.1-0.5,0.2-0.6,0.4c-0.2,0.3-0.3,0.6-0.2,1c0.1,0.3,0.3,0.5,0.5,0.6c0.2,0.1,0.4,0.1,0.6,0c0.4-0.1,0.6-0.4,0.6-1.3
	c0.1-0.9,0.2-1.3,0.5-1.6c0.2-0.2,0.4-0.3,0.6-0.4c0.4-0.1,0.6-0.1,0.9,0.1s0.6,0.6,0.6,0.9c0.1,0.3,0.1,0.4,0.2,0.9
	c0,0.1,0,0.2,0.1,0.2c0,0.1,0.1,0.2,0.2,0.5l-1.2,0.4l-0.3-0.1c0.4-0.2,0.6-0.3,0.6-0.5c0.2-0.3,0.2-0.6,0-1.1
	c-0.2-0.6-0.6-0.8-1.1-0.6c-0.5,0.2-0.6,0.5-0.7,1.6c-0.1,0.6-0.1,0.8-0.3,1.1c-0.1,0.3-0.4,0.4-0.6,0.5S58.5,49.8,58.2,49.5z
	 M57.3,46c-0.1,0.1-0.1,0.2,0,0.5h-0.2l-0.9-3.1l1-0.5l0.1,0.2c-0.6,0.4-0.7,0.6-0.6,1.5l0.3,0.8l1.8-0.6l-0.2-0.6
	c-0.2-0.6-0.4-0.7-0.8-0.6l-0.1-0.2l1.4-0.5l0.1,0.2c-0.3,0.1-0.4,0.2-0.5,0.3c-0.1,0.1,0,0.4,0.1,0.7l0.2,0.6l1.9-0.6l-0.3-1
	c-0.3-0.7-0.6-0.9-1.4-0.8V42l1.2-0.3l1,3.2h-0.2c-0.1-0.2-0.1-0.4-0.2-0.4c-0.1-0.1-0.1,0-0.6,0.1l-2.8,0.8
	C57.3,46,57.3,46,57.3,46z M56,42c-0.3-0.2-0.5-0.5-0.6-0.7c-0.1-0.2-0.1-0.4-0.1-0.7c0-0.1,0-0.2,0-0.3c0-0.1-0.1-0.2-0.2-0.4
	l1.2-0.3l0.1,0.2c-0.3,0.1-0.5,0.2-0.6,0.4c-0.2,0.3-0.3,0.6-0.2,1c0.1,0.3,0.3,0.5,0.5,0.6c0.2,0.1,0.4,0.1,0.6,0
	c0.4-0.1,0.6-0.4,0.6-1.2c0.1-0.8,0.2-1.2,0.5-1.5c0.2-0.2,0.3-0.3,0.6-0.4c0.4-0.1,0.6-0.1,0.9,0.1c0.3,0.2,0.5,0.5,0.6,0.9
	c0.1,0.3,0.1,0.4,0.2,0.8c0,0.1,0,0.2,0,0.2c0,0.1,0.1,0.2,0.2,0.4l-1.2,0.4L59,41.3c0.4-0.1,0.6-0.3,0.6-0.5c0.2-0.3,0.2-0.6,0-1
	c-0.2-0.6-0.6-0.7-1-0.6c-0.5,0.2-0.6,0.5-0.7,1.5c-0.1,0.6-0.1,0.8-0.3,1c-0.1,0.3-0.4,0.4-0.6,0.5C56.6,42.3,56.2,42.2,56,42z
	 M54.9,36.6l2.7-0.8c0.6-0.2,0.6-0.2,0.7,0.3h0.2L58,34.6h-0.2c0.1,0.5,0.1,0.5-0.5,0.6l-1,0.4l-0.1-0.4c-0.1-0.5-0.3-0.8-0.5-1
	c-0.3-0.5-0.7-0.6-1.3-0.4c-0.5,0.2-0.7,0.5-0.8,0.8c0,0.3,0,0.6,0.2,1l0.5,1.6h0.1C54.3,36.8,54.4,36.8,54.9,36.6z M54.2,36.2
	L54,35.7c-0.2-0.7,0-1.2,0.6-1.4c0.4-0.1,0.6-0.1,0.8,0c0.2,0.1,0.4,0.4,0.6,0.8l0.1,0.4L54.2,36.2z M53.4,33.8L53.4,33.8l-0.6-1.4
	h0.1c0.2,0.4,0.2,0.5,0.7,0.3l1.7-0.5c0.6-0.2,0.9-0.4,1.1-0.6c0.3-0.3,0.3-0.6,0.2-1c-0.2-0.5-0.5-0.8-0.8-0.8
	c-0.3-0.1-0.6,0-1.2,0.2l-1.2,0.4c-0.5,0.2-0.6,0.2-0.7,0.3c-0.1,0.1-0.1,0.3,0,0.5h-0.1L52,29.8h0.1c0.1,0.2,0.2,0.3,0.3,0.4
	c0.1,0,0.3,0,0.8-0.1l1.2-0.4c0.6-0.2,1-0.3,1.4-0.1c0.5,0.1,0.7,0.6,0.9,1.1c0.2,0.6,0.1,1.1-0.1,1.5c-0.2,0.3-0.5,0.5-1.1,0.6
	l-1.7,0.3C53.3,33.3,53.3,33.3,53.4,33.8z M52.1,29c0,0,0.1,0,0.4-0.2L55,28c0.5-0.1,0.5-0.1,0.6-0.1c0.1,0,0.1,0.1,0.2,0.3h0.1
	l-0.5-1.5c-0.1-0.4-0.3-0.7-0.4-0.9c-0.3-0.5-0.7-0.6-1.2-0.4c-0.5,0.1-0.6,0.4-0.7,0.8c0,0.2,0,0.4,0,0.6l0,0
	c-0.3-0.6-0.6-0.9-1.2-0.7c-0.4,0.1-0.6,0.4-0.6,0.7c0,0.3,0,0.6,0.2,1l0.5,1.5H52C52,29.1,52,29,52.1,29z M53.4,26.7
	c0.1-0.3,0.3-0.6,0.6-0.6c0.4-0.1,0.6-0.1,0.8,0c0.2,0.1,0.4,0.4,0.5,0.7l0.2,0.6l-1.9,0.6l-0.2-0.6C53.4,27.1,53.4,26.8,53.4,26.7z
	 M51.8,28.5L51.6,28c-0.2-0.7-0.1-1.1,0.5-1.3s0.9,0.1,1.1,0.7l0.2,0.6L51.8,28.5z"/>
</svg>
