<?xml version="1.0" encoding="utf-8"?>
<!-- Generator: Adobe Illustrator 22.1.0, SVG Export Plug-In . SVG Version: 6.00 Build 0)  -->
<svg version="1.1" id="Слой_1" xmlns="http://www.w3.org/2000/svg" xmlns:xlink="http://www.w3.org/1999/xlink" x="0px" y="0px"
	 viewBox="0 0 127.6 85" style="enable-background:new 0 0 127.6 85;" xml:space="preserve">
<style type="text/css">
	.st0{fill-rule:evenodd;clip-rule:evenodd;fill:#979898;}
</style>
<path class="st0" d="M59.3,22c0.1,0.1,0.8,1.4,0.9,1.5c0.2,0.3,0.3,0.2,0.4,0.5c0.4,0.5,1.2,1.8,1.5,2.4c0.3,0.5,0.6,1,0.9,1.5
	c0.1,0.2,0.2,0.2,0,0.4c-0.4,0.8-0.8,1.6-1.2,2.4l-0.8,1.6c-0.2,0.4-0.9,1.7-1.1,2c-0.7,0-3.1,0.3-3.7,0.4c-1,0.2-2,0.4-2.9,0.7
	c-0.1,0-0.3,0.1-0.4,0.1c-0.1-0.4-0.3-0.8-0.5-1.1c-0.2-0.2-0.3-0.4-0.6-0.6c-0.1-0.1-0.2-0.1-0.2-0.2c0.2,0,0.3-0.2,0.5-0.3
	c0.1-0.1,0.3-0.3,0.3-0.5c0-0.3-0.3-1-0.4-1.3c-0.1-0.4-0.4-1.1-0.6-1.4c-0.1-0.1-0.1-0.2-0.2-0.2c-0.1,0-0.6-0.1-0.7-0.1
	c0-0.3,0-0.1,0.1-0.4c0-0.1,0.1-0.2,0.1-0.4c0.1-0.4,0.1-1,0-1.5c0-0.2-0.1-0.3,0-0.4c0.3-0.7,0.3-1.4,0.2-2.1
	c0-0.3,0.6-0.6,0.6-2.4c-0.1,0-0.2,0-0.4,0c0-0.1,0-0.1,0.1-0.1c0.4-0.6,0.5-1.3,0.5-2.1c0-0.3-0.1-0.6-0.1-0.8
	c-0.2,0-0.3,0.1-0.5,0.1c0-0.1,0.1-0.3,0.1-0.4c0.1-0.3,0.5-0.5,0.7-1.4c0.1-0.5,0-0.3,0.4-0.6c0.1-0.1,0.2-0.2,0.3-0.2l1.4-1.2
	c0.1-0.1,0.2-0.1,0.3-0.2c0.2-0.2,0.4-0.3,0.5-0.6c-0.1,0-0.2-0.1-0.2-0.3l-0.2-0.7c0-0.1-0.1-0.2-0.1-0.3c0.1-0.2,1.6-1,2-1.1
	c0.2-0.1,0.3-0.2,0.5-0.2c0.6-0.2,1.1-0.5,1.7-0.7c1.4-0.5,3-0.8,4.5-0.9c1.1-0.1,2.7,0.1,3.7,0.2c1.7,0.3,3.7,1,5.1,1.8
	c0.3,0.2,1.3,0.7,1.4,0.9L73,14.1c0,0.1-0.1,0.2-0.1,0.4c0,0.3-0.1,0.1-0.2,0.3c0.1,0.3,0.7,0.8,1,1c0.2,0.2,1.5,1.2,1.7,1.4
	c0.1,0.1,0.1,0,0.1,0.2l0.2,0.6c0.2,0.6,0.6,0.8,0.6,1.4c-0.1,0-0.3-0.1-0.5-0.1c0,0.1,0,0.2-0.1,0.4c-0.2,1,0,1.8,0.6,2.7
	c-0.5,0-0.5-0.1-0.4,0.4c0.1,1.5,0.7,1.7,0.6,2c-0.1,0.7-0.1,1.4,0.2,2.1c0.1,0.2,0,0.3,0,0.5c-0.1,0.7-0.1,1.4,0.2,1.9
	c0.2,0.6-0.4,0.2-0.6,0.6c-0.3,0.5-0.5,1-0.7,1.6l-0.3,1c0,0.2-0.1,0.3,0,0.4c0,0.1,0.1,0.1,0.2,0.2c0.1,0.1,0.1,0.1,0.1,0.2
	c0.1,0.1,0.2,0.3,0.3,0.4c0,0.1-0.1,0.1-0.2,0.2c-0.2,0.2-0.4,0.4-0.6,0.6c-0.2,0.3-0.5,0.7-0.5,1.1c-0.1,0-0.3-0.1-0.4-0.1
	c-0.1,0-0.3-0.1-0.4-0.1c-0.3-0.1-0.5-0.1-0.7-0.2c-1-0.3-2.1-0.5-3.2-0.6c-0.5-0.1-1.2-0.2-1.7-0.2c-0.3-0.6-0.8-1.3-1.2-1.9
	c-0.3-0.4-2.6-4.2-2.6-4.3c0-0.1,0.2-0.4,0.2-0.5c0.2-0.4,0.4-0.7,0.5-1c0.2-0.3,0.4-0.7,0.5-1l0.5-1c0.4-0.8,0.7-0.9,0.8-1.1
	l0.9-1.8c0,0,0-0.1,0.1-0.1l2.1-3.9c0-0.1,0.1-0.2,0.1-0.2l0.4-0.8c0.1-0.2,0.5-0.8,0.5-1c0-0.5-0.7-0.8-1.1-0.5
	c-0.2,0.1-0.3,0.6-0.4,0.7c0,0.1-0.1,0.2-0.1,0.2L69,16.8c-0.1,0.2-0.2,0.3-0.3,0.5c-0.1,0.1-0.1,0.1-0.1,0.2
	c-0.4,0.8-0.8,1.5-1.2,2.3c-0.4,0.8-0.8,1.5-1.2,2.2c0,0.1-0.1,0.2-0.1,0.3c-0.4,0.7-0.3,0.9-0.6,1.7c-0.3,0.6-0.7,1.4-1.1,2l-0.5,1
	c-0.1-0.1-1-1.5-1.1-1.8l-0.5-0.9c-0.2-0.3-0.4-0.6-0.5-1c0-0.1-0.1-0.3-0.2-0.4c0-0.1-0.2-0.3-0.2-0.4l-4.1-6.9
	c0-0.1-0.1-0.1-0.1-0.2c-0.1-0.2-0.2-0.3-0.5-0.4c-0.1,0-0.2,0-0.2,0c-0.3,0.2-0.6,0.5-0.4,0.9c0.7,1.2,1.4,2.4,2.1,3.7
	c0.2,0.4,0.3,0.9,0.3,1.4c0,0.2,0,0.4,0,0.6c0.1,0.8-0.2,1.7-0.1,2.1c0.1,0.4,0.1,0.6,0.4,0.8c0.1,0.2,0.1,0.1,0.4,0.2
	c0.1,0,0.2,0,0.3-0.1c0.3-0.2,0.4-0.5,0.4-0.9C59.7,23.1,59.3,22.2,59.3,22 M51.1,14.4c0-0.4,0-0.3,0.3-0.5c0.1-0.1,0.4-0.3,0.5-0.3
	l0.1,0.2c-0.2,0.2-0.4,0.3-0.7,0.5C51.2,14.3,51.1,14.4,51.1,14.4z M75.8,13.5c0.2,0.1,0.6,0.4,0.7,0.5l-0.1,0.4
	c-0.2-0.1-0.5-0.4-0.8-0.5L75.8,13.5z M77.8,17.6c-0.4-0.4-0.9-1.2-1-2c-0.1-0.5,0-1,0.1-1.4c0.1-0.3,0.3-1,0.4-1.1
	c0.4,0.2,1,0.6,1.3,0.9l0.4,0.4c0.1,0.1,0.1,0.1,0.2,0.2c0.4,0.4,1.1,1.6,1,2.4c-0.1,0-0.3-0.2-0.4-0.3c-0.2-0.2-0.2-0.1-0.3-0.4
	c-0.3-0.8-0.7-1.5-1.2-2.1L78,13.9c0.2,0.3,0.5,0.7,0.7,1.1c0.2,0.3,0.5,1,0.6,1.3c-0.3-0.1-0.6-0.3-1-0.4c-0.2,0.2-0.3,0.9-0.4,1.2
	C77.8,17.3,77.8,17.5,77.8,17.6z M47.3,16.8c0-0.8,0.7-2,1.1-2.3c0.4-0.5,1.4-1.3,1.9-1.5c0,0.1,0.1,0.3,0.2,0.4
	c0.4,1,0.4,2.1,0,3.1c-0.2,0.3-0.5,0.9-0.8,1.1c-0.1-0.7-0.2-1.1-0.5-1.6c-0.3,0.1-0.7,0.3-1,0.4c0.1-0.4,0.3-0.9,0.5-1.3
	c0.3-0.6,0.4-0.7,0.7-1.1c-0.1,0.1-0.5,0.5-0.6,0.7c-0.3,0.5-0.7,1.1-0.9,1.7c-0.1,0.2-0.2,0.2-0.3,0.3c-0.1,0.1-0.3,0.2-0.4,0.2
	L47.3,16.8z M52.4,14L52.4,14L52.4,14z M51.1,14.6c0.1-0.1,0.7-0.6,0.9-0.7l0.2,0.4c-0.1,0.1-0.2,0.2-0.3,0.2
	c-0.3,0.2-0.6,0.5-0.7,0.7l0.5-0.4c0.2-0.2,0.3-0.3,0.6-0.4l0.3,0.3c-0.2,0.1-0.6,0.5-0.7,0.6c-0.3,0.3-0.2,0.4-0.8,0.5
	C51.1,15.2,51.1,15.1,51.1,14.6z M75.6,13.9c0.2,0.1,0.6,0.4,0.8,0.5l0,0.6c-0.1,0-0.4-0.3-0.5-0.4c-0.2-0.1-0.3-0.2-0.5-0.4
	L75.6,13.9z M46.2,15.9c0-0.3,0.3-0.9,0.4-1.2c0.1-0.2,0.2-0.3,0.3-0.5c0.1-0.1,0.3-0.4,0.4-0.4c0.1,0.1,0.5,0.5,0.6,0.7
	c-0.3,0.5-0.6,0.8-0.8,1.5c0,0.1-0.1,0.2-0.1,0.3c0,0.1,0,0.2-0.1,0.3c-0.1-0.1-0.2-0.2-0.2-0.3c0-1.1,0.2-1.2,0.2-1.7
	c0,0.1-0.1,0.2-0.2,0.4c-0.1,0.3-0.2,0.7-0.2,1c0,0,0,0.1,0,0.1c0,0.1,0,0-0.1,0.1C46.5,16.1,46.4,16,46.2,15.9z M79.5,14.6
	c0.1-0.3,0.4-0.6,0.6-0.8c0.3,0.4,0.4,0.5,0.7,0.9c0.1,0.2,0.4,0.8,0.4,1.2C81.1,16,81.1,16,81,16.1c-0.1,0.1-0.1,0.1-0.2,0.2
	c0-0.6-0.2-1.1-0.4-1.6c0,0.2,0.1,0.5,0.2,0.7c0,0.3,0.1,0.6,0.1,0.8c0,0.2,0,0.3-0.2,0.4c-0.1-0.1-0.1-0.5-0.2-0.6
	C80,15.2,79.7,15,79.5,14.6z M75.1,14.7c0-0.1,0.2-0.3,0.2-0.3c0.2,0.1,0.5,0.4,0.7,0.5c0.4,0.4,0.3,0.1,0.4,0.8
	c-0.2-0.1-0.3-0.1-0.4-0.2C76,15.4,75.3,14.8,75.1,14.7z M51.6,15.5c0.2-0.1,0.7-0.7,1.1-0.9c0.1,0,0.1,0.1,0.2,0.1
	c0.1,0,0.1,0,0.2,0.1C53,15,52.9,15,52.8,15.1c-0.1,0.1-0.8,0.7-0.9,0.8l-0.1-0.3c0,0-0.1,0-0.1,0C51.6,15.6,51.7,15.6,51.6,15.5z
	 M52.3,16.4c0.2-0.2,1.2-1,1.5-1.2c0.3-0.3,0.3-0.3,0.6-0.3c-0.2,0.2-0.4,0.4-0.6,0.5L52,16.9c0-0.1-0.1-0.9-0.1-0.9
	c0-0.1,0.4-0.4,0.5-0.4c0.9-0.8,0.6-0.6,1.4-0.6L53,15.6C52.9,15.7,52.3,16.3,52.3,16.4z M75.4,16.8c-0.2-0.2-0.4-0.3-0.6-0.5
	c-0.2-0.2-1.7-1.3-1.8-1.5c0.1,0,0.3,0,0.4,0c0.2,0.1,0,0,0.2,0.1c0.4,0.3,0.8,0.6,1.2,1c0.1,0.1,0.4,0.4,0.5,0.4l-1.2-1.1
	c-0.1-0.1-0.3-0.2-0.4-0.4c0.5,0,0.5-0.1,0.8,0.1l1,0.8c0,0.1,0,0.4-0.1,0.5C75.4,16.5,75.5,16.6,75.4,16.8z M74.6,14.9
	c0.1,0,0.4-0.2,0.5-0.1c0.1,0,0.3,0.2,0.4,0.3c0.1,0.1,0.6,0.5,0.7,0.6l-0.5-0.1c0,0.1,0,0.2-0.1,0.2L74.6,14.9z M64.1,27.7
	c-0.2-0.3-0.2-0.2,0-0.6c0.1-0.3,0.3-0.5,0.4-0.8c0.3-0.5,0.6-1.1,0.9-1.6c0.3-0.5,0.6-1.2,1-1.5c0.3-0.2,0.1,0.1,0.5-0.7
	c0.1-0.3,0.3-0.5,0.4-0.8c0,0,3.2-6.2,3.3-6.3c0.1-0.1,0.1-0.1,0.2-0.1c0,0,0,0,0,0.1c0,0.2-0.7,1.3-0.8,1.6
	c-0.3,0.5-0.5,1.1-0.8,1.6c-0.7,1.3-1.4,2.7-2.1,3.9c-0.1,0.3-0.3,0.5-0.4,0.8c-0.1,0.1-0.2,0.2-0.3,0.3c-0.1,0.1-0.1,0.2-0.2,0.4
	c-0.4,0.7-0.9,1.6-1.3,2.3c-0.2,0.3-0.7,1.3-0.8,1.6L64.1,27.7z M61.6,23.7c0.6,1.1,1.5,2.4,2.1,3.5l1.4,2.3
	c0.8,1.4,1.7,2.7,2.5,4.1c0.1,0.2,0.3,0.4,0.4,0.6c-0.2,0-0.3,0-0.5,0c-0.2,0-0.2,0-0.3-0.2l-1.1-1.8c-1.5-2.5-3.1-5.1-4.6-7.6
	c-0.3-0.4-0.3-0.5-0.4-1c0-0.2,0-0.3,0-0.4c0-0.1-3.4-5.7-3.9-6.5c-0.1-0.2-0.7-1.1-0.6-1.2c0.2-0.3,0.4,0.3,0.5,0.4l1,1.8
	c0.5,0.8,0.9,1.6,1.4,2.4c0.5,0.8,0.9,1.6,1.4,2.4c0.1,0.2,0.3,0.4,0.3,0.6C61.4,23.2,61.4,23.4,61.6,23.7z M49.7,18.1
	c0-0.1,0-0.1,0.1-0.2c0.3-0.3,0.6-0.6,0.8-1c0.1-0.1,0.1-0.2,0.2-0.4l0.1-0.1c0.1-0.4,0-0.3,0.3-0.4c0.1,0,0.3-0.1,0.4-0.1
	c0.2,1.2,0.2,1.3-0.2,2.3C51.2,18,50,18,49.7,18.1z M76.1,18.2c-0.2-0.4-0.3-0.6-0.3-1.1c0-0.3,0-1,0.1-1.2c0.1,0,0.3,0.1,0.4,0.1
	c0.4,0.1,0.2,0.1,0.3,0.4l0.3,0.5c0.1,0.3,0.3,0.4,0.4,0.6c0.3,0.4,0.5,0.4,0.5,0.6c-0.3,0-0.6,0-0.9,0l-0.6,0.1
	C76.1,18.1,76.1,18.1,76.1,18.2z M44.9,18.8c0-0.5,0.1-1.1,0.3-1.6c0.1-0.4,0.4-1,0.6-1.2c0.2,0.1,0.5,0.4,0.7,0.5
	c0.2,0.1,0.4,0.5,0.5,0.7c-0.1,0.2-0.3,0.3-0.4,0.5c-0.4,0.5-0.7,1-0.9,1.8c-0.1-0.3-0.2-1-0.2-1.3c0-0.5,0-0.6,0.1-1.1
	c0,0.1-0.1,0.4-0.1,0.6c-0.1,0.8,0,1.3,0.1,2.1c-0.1-0.1-0.3-0.2-0.5-0.3c-0.1-0.1-0.1,0-0.1-0.2C44.9,19.1,44.9,18.9,44.9,18.8z
	 M80.4,17.2c0.1-0.3,0.9-1.1,1.2-1.2c0.1,0.2,0.2,0.4,0.3,0.6c0.1,0.2,0.2,0.4,0.3,0.6c0.3,0.9,0.3,1.3,0.3,2.1
	c-0.1,0.1-0.2,0.1-0.3,0.2c-0.1,0.1-0.2,0.1-0.3,0.2c0-0.4,0.1-0.7,0.1-1.1c0-0.4,0-1.2-0.2-1.5l0.1,0.7c0,0.4,0,1.4-0.2,1.6
	c-0.1-0.2-0.1-0.5-0.5-1.2C80.8,17.6,80.5,17.3,80.4,17.2z M46,20c-0.2-0.6,0.2-1.4,0.5-1.9c0.5-0.7,1.5-1.5,2.4-1.8
	c0.3,0.4,0.4,1.7,0.4,2.3c-0.1,0.4-0.2,0.7-0.3,1c-0.1,0.1-0.4,0.7-0.6,0.8c-0.1-0.1-0.2-0.5-0.4-0.9c-0.1-0.3-0.3-0.6-0.5-0.7
	c-0.2,0.1-0.5,0.3-0.7,0.4c0.1-0.3,0.4-0.9,0.5-1.1l0.5-0.7c0.1-0.1,0.1-0.1,0.2-0.2c-0.5,0.3-1.3,1.5-1.5,2.2
	c-0.1,0.3-0.1,0.2-0.3,0.4C46.3,19.8,46.1,20,46,20z M78.1,18c0-0.8,0.2-1.1,0.4-1.7c0.7,0.2,1.8,1,2.2,1.6c0.2,0.2,0.4,0.5,0.5,0.8
	c0.1,0.3,0.4,0.9,0.2,1.3c0,0,0,0,0,0.1c-0.2-0.4-0.4-0.3-0.5-0.7c-0.1-0.3-0.3-0.6-0.4-0.8c-0.2-0.3-0.8-1.2-1.1-1.3
	c0.1,0.1,0.1,0.2,0.2,0.3c0.3,0.4,0.9,1.3,1,1.8c-0.2-0.1-0.5-0.3-0.7-0.4c-0.1,0.2-0.3,0.4-0.5,0.8L79,20.4
	C78.4,19.8,78.1,19,78.1,18z M49.7,18.3c0.3,0,1-0.1,1.3,0c0.1,0.5-0.5,1.8-0.9,2.3c-0.2,0.2-0.2,0.2-0.4,0.2
	c-0.4,0-0.7,0.1-1.1,0.2c0-0.2-0.1-0.2,0.1-0.4c0.5-0.5,0.7-0.8,0.9-1.5c0-0.1,0-0.1,0.1-0.2c0.1-0.3,0.2-0.2,0.4-0.3l-0.4,0.1
	c0-0.1,0-0.1,0-0.2L49.7,18.3z M77.5,18.6c0.7,0.3,0.2,0.1,0.7,1.1c0.2,0.4,0.5,0.8,0.8,1l0,0.2c-0.2,0-0.4-0.1-0.5-0.1
	c-0.8-0.1-0.7,0.1-1-0.3c-0.4-0.5-1-1.7-0.9-2.3l0.6,0c0.8,0,0.7,0,0.8,0.4L77.5,18.6z M82.8,18.4c0.1,0.2,0.4,1,0.4,1.3
	c0-0.1-0.2-0.4-0.2-0.5l-0.2,0.1L82.8,18.4z M80,23.6c-0.1-0.1-0.2-0.2-0.3-0.4c-0.6-0.9-0.6-2-0.2-3c0.1-0.2,0.4-0.9,0.5-1
	c0.3,0.1,0.7,0.5,0.9,0.7c0.7,0.7,1.7,2.3,1.3,3.3c-0.1-0.1-0.2-0.2-0.3-0.3c-0.1-0.1-0.2-0.1-0.3-0.3c-0.2-0.9-0.5-1.7-1.1-2.4
	c0.1,0.2,0.2,0.3,0.3,0.5c0.2,0.5,0.5,1.2,0.6,1.8c-0.2-0.1-0.4-0.3-0.6-0.4c0,0.1-0.2,0.2-0.2,0.4C80.3,22.8,80.1,23.6,80,23.6z
	 M45.2,23.1c-0.1-0.9,0.3-1.8,0.7-2.4l0.5-0.7c0.2-0.2,0.8-0.8,1.1-0.9c0.1,0.2,0.3,0.4,0.5,1c0.1,0.4,0.2,0.8,0.3,1.3
	c0,0.5-0.1,0.9-0.2,1.3c-0.3,0.6-0.4,0.6-0.6,0.9l-0.1-0.1c-0.2-0.6-0.3-1-0.8-1.5L46,22.4c0-0.4,0.2-0.9,0.3-1.2
	c0.2-0.5,0.4-0.8,0.5-1.1c-0.3,0.3-0.6,1-0.8,1.5c-0.1,0.3-0.2,0.6-0.3,0.9c0,0.2-0.1,0.2-0.2,0.3C45.4,22.9,45.3,23.1,45.2,23.1z
	 M81.7,20.3c0.1-0.2,0.9-0.7,1.2-0.8c0.2,0.4,0.4,1.4,0.4,2c0,0.3,0,1-0.1,1.2l-0.7,0.5c0.2-1,0.5-1.6,0.4-2.6
	c-0.1,0.7-0.2,1.1-0.3,1.7c0-0.1-0.1-0.6-0.4-1.1C82,20.9,81.8,20.6,81.7,20.3z M45,23.2c-0.1,0-0.1-0.1-0.2-0.1
	c-0.1,0-0.1-0.1-0.2-0.1c-0.1-0.1-0.3-0.1-0.3-0.3c-0.2-0.6-0.1-1.6,0-2.2c0.1-0.4,0.2-0.6,0.3-0.9c0.5,0.1,1.1,0.7,1.3,0.7
	c-0.1,0.3-0.5,0.5-0.9,2c-0.2-0.2-0.3-1.6-0.4-1.7C44.5,21.9,44.8,22.2,45,23.2z M58.5,20.5L58.5,20.5
	C58.5,20.5,58.5,20.5,58.5,20.5z M59.2,21.8L59.2,21.8l0.3,1.8c0,0.3,0.1,1.2-0.4,1.2c-0.2,0-0.5-0.3-0.5-0.6
	c-0.1-0.8,0.3-1.6,0-3.1l-0.1-0.4C58.6,20.6,59.2,21.7,59.2,21.8z M50.5,20.5c0.6-0.8,0.2-0.8,0.8-0.9c0.1,0.8,0.1,1.7-0.4,2.5
	c-0.2,0.3-0.2,0.3-0.7,0.3c0.1-0.6,0.2-0.9,0.2-1.5l-0.3,0L50.5,20.5z M77.2,22.3c-0.5,0-0.5,0-0.7-0.3c-0.5-0.8-0.5-1.6-0.4-2.5
	c0.1,0,0.2,0,0.2,0c0.1,0,0.1,0,0.1,0.1c0.1,0.1,0.1,0.3,0.2,0.4c0.1,0.2,0.3,0.5,0.5,0.7l-0.3,0C76.9,21.5,77,21.8,77.2,22.3z
	 M79.6,23.5c0.2,0.3,0.4,0.3,0.3,0.5c-0.4-0.1-0.7-0.2-1.2-0.2c-0.3,0-0.3-0.1-0.5-0.2c-0.3-0.4-0.6-0.8-0.8-1.4
	c-0.1-0.2-0.2-0.9-0.2-1.2c0.7,0,1,0.1,1.6,0.1l0,0.4c-0.2-0.1-0.4-0.2-0.7-0.2l0.7,0.3C79,22.5,79.2,23,79.6,23.5z M83.8,21.2
	c0.1,0.2,0.2,0.3,0.2,0.5l-0.1-0.2c0-0.1,0-0.1-0.1-0.2c0,0.1,0,0.1,0,0.2c0.2,0.3,0.4,1.1,0.4,1.4L84,22.4l-0.5,0.2
	c0.1-0.5,0.1-0.8,0.1-1.3L83.8,21.2z M48.6,21.2c0.7-0.1,0.9-0.2,1.6-0.1c-0.1,1-0.4,1.9-1,2.6c-0.2,0.2-0.2,0.2-0.5,0.2
	c-0.6,0-1,0.2-1.2,0.2c0-0.1,0-0.1,0.1-0.2c0.6-0.5,0.8-1.2,0.9-2c0-0.1,0-0.1,0.1-0.2c0.2-0.1,0.4-0.2,0.5-0.3
	c-0.2,0-0.4,0.1-0.6,0.2L48.6,21.2z M59.2,21.8L59.2,21.8L59.2,21.8z M59.3,21.8L59.3,21.8L59.3,21.8z M59.3,21.8L59.3,21.8
	L59.3,21.8z M59.3,21.9L59.3,21.9L59.3,21.9z M43.2,22.9c0-0.4,0.3-1.3,0.5-1.5l0.2,0.1c0,0.4,0,0.7,0.1,1.1l-0.3-0.1l0-0.2
	c0,0.2,0,0.1-0.1,0.1C43.4,22.5,43.4,22.8,43.2,22.9z M77.5,24.6c-0.2,0-0.5-0.1-0.7-0.2c-0.1,0-0.3-0.4-0.3-0.5
	c-0.2-0.4-0.3-1-0.3-1.4c0.3,0,0.5,0,0.8,0c0.3,0,0.3,0.1,0.4,0.4l-0.3-0.1l-0.1,0c0,0,0.1,0,0.1,0c0.1,0,0.2,0.1,0.2,0.1
	c0.2,0.1,0.2,0.1,0.3,0.3c0.2,0.2,0.3,0.4,0.5,0.6l-0.6,0.1C77.4,24.2,77.5,24.4,77.5,24.6z M50.1,23c0,0,0.1-0.3,0.1-0.3
	c0.1-0.1,0.9-0.1,1.1-0.1c0.1,0.4-0.3,1.8-0.7,1.9c-0.2,0-0.5,0.1-0.7,0.2c0-0.2,0.1-0.4,0.1-0.7c-0.1-0.1-0.4-0.1-0.6-0.1
	c0.1-0.1,0.1-0.1,0.2-0.3c0.6-0.8,0.1-0.3,0.8-0.7L50.1,23z M44.2,26c0-0.8,0.4-1.6,0.8-2.1c0.3-0.4,1.1-1.3,1.5-1.4
	c0.1,0.1,0.2,0.3,0.3,0.5c0.5,0.9,0.7,1.9,0.3,2.9c-0.1,0.3-0.2,0.5-0.3,0.7l-0.3-0.4c-0.1-0.1-0.2-0.2-0.3-0.4
	c-0.2-0.2-0.5-0.6-0.7-0.7c-0.1,0.1-0.1,0.1-0.2,0.2c-0.1,0.1-0.1,0.1-0.2,0.2c0.1-0.5,0.3-1.2,0.5-1.7c0.1-0.2,0.2-0.3,0.2-0.5
	c-0.6,0.7-0.9,1.6-1.1,2.5c0,0.1-0.4,0.7-0.4,0.8C44.2,26.4,44.2,26.3,44.2,26z M80.2,24.7c0-0.4,0.1-0.9,0.3-1.3
	c0.1-0.3,0.3-0.8,0.5-1c0.6,0.3,1.3,1.1,1.7,1.6c0.3,0.5,0.8,1.5,0.6,2.2c0,0,0,0.1-0.1,0.1c0,0,0,0.1,0,0.1c0,0,0,0,0,0.1
	c-0.1-0.1-0.4-0.6-0.4-0.8c-0.1-0.7-0.6-2-1.1-2.4c0.1,0.2,0.2,0.3,0.2,0.5c0.1,0.2,0.1,0.3,0.2,0.5c0.1,0.3,0.3,0.8,0.3,1.1
	c-0.2-0.1-0.2-0.3-0.4-0.4c-0.1,0-0.3,0.2-0.4,0.3c-0.1,0.1-0.2,0.2-0.3,0.3c-0.3,0.3-0.4,0.5-0.6,0.8c0,0,0,0,0,0c0,0,0,0,0,0
	C80.3,26,80.2,25.2,80.2,24.7z M43.1,24.8c0-0.7,0.2-1.4,0.4-2c0.4,0.1,1,0.5,1.2,0.8c-0.1,0.2-0.5,0.5-0.7,1.4
	c-0.1,0.2-0.1,0.4-0.1,0.6c-0.2-0.5-0.3-1.2-0.3-1.8l0,0.3c-0.1,1,0.3,1.7,0.4,2.1c0,0.3,0.1,0.3,0.2,0.5c-0.2-0.1-0.3-0.1-0.5-0.2
	c-0.1,0-0.1,0-0.2-0.2C43.2,25.9,43.1,25.4,43.1,24.8z M82.6,23.5c0.3-0.3,0.8-0.6,1.2-0.8c0.1,0.1,0.3,0.8,0.3,1
	c0.2,0.8,0.2,1.6-0.1,2.4c-0.1,0.2-0.1,0.3-0.3,0.4c-0.2,0.1-0.3,0.1-0.5,0.2c0.3-0.6,0.1-0.1,0.2-0.7c0.2-0.8,0.4-1.2,0.3-2.3
	c-0.1,0.5-0.1,1.3-0.4,1.7c-0.2-0.7-0.2-1-0.6-1.6C82.8,23.9,82.7,23.6,82.6,23.5z M79.9,24.9c0,0.1,0,0.7,0.5,1.5
	c0.1,0.1,0.3,0.3,0.2,0.4c0,0,0.1,0.1-0.1,0L80,26.8c-0.9-0.2-0.8,0-1.1-0.3c-0.6-0.6-1-1.4-1.1-2.2c0,0,0,0,0-0.1c0-0.1,0,0,0-0.1
	c1.1-0.1,0.9-0.1,2.1,0.1l0,0.5c-0.3-0.1-0.6-0.3-1-0.3C79.1,24.6,79.6,24.7,79.9,24.9z M47.6,24.3c0.7-0.2,1.3-0.2,2-0.1
	c0.1,0.4-0.4,1.6-0.7,2c-0.4,0.6-0.5,0.5-0.8,0.6c-0.2,0-1.1,0.2-1.1,0.2c-0.1-0.1-0.1-0.1,0-0.2c0.2-0.3,0.4-0.8,0.5-1.2
	c0.2-0.8-0.2-0.5,1.1-1.1c-0.3,0-0.8,0.2-1,0.3C47.6,24.5,47.6,24.5,47.6,24.3C47.6,24.3,47.6,24.3,47.6,24.3z M49.7,25.2
	c0.1-0.3,0-0.3,0.3-0.4c0.1,0,0.4-0.1,0.5-0.1c0.1,0.6,0.1,1.4-0.1,1.9c-0.1,0.2-0.2,0.1-0.4,0.2c-0.6,0.2-1,0.5-1.2,0.5
	c0-0.1,0-0.3,0-0.4c0-0.1,0-0.2,0-0.3c0,0,0,0.1,0,0c0,0,0,0,0,0c0.1-0.1,0.4-0.5,0.5-0.7c0.3-0.5,0.1-0.5,0.5-0.8L49.7,25.2z
	 M78.5,27.4c-0.4-0.2-0.5-0.3-1.2-0.5c-0.3-0.1-0.3,0-0.4-0.2c-0.2-0.6-0.3-1.3-0.1-2c0.2,0,0.4,0.1,0.6,0.1
	c0.3,0.1,0.2,0.1,0.3,0.4l-0.1,0c0.2,0.1,0.2,0.2,0.2,0.4c0.1,0.3,0.5,0.9,0.7,1.1c0,0,0,0,0,0C78.4,26.8,78.5,27,78.5,27.4z
	 M42.5,26c0-0.3,0.1-0.5,0.1-0.8l0.3,0.1c0.1,0.5,0.1,0.8,0.3,1.2c-0.2,0-0.3-0.2-0.3-0.4l0,0.2C42.8,26.2,42.6,26,42.5,26z
	 M84.7,25.2c0.1,0.2,0.1,0.7,0.1,1c-0.1,0.1-0.2,0.1-0.3,0.2l0-0.3c-0.1,0.3,0,0.4-0.3,0.4c0.2-0.8,0.1-0.4,0.3-1.2L84.7,25.2z
	 M76.3,30.2c0-0.1,0.1-0.3,0.1-0.3c0.1-0.1,0.2-0.1,0.3-0.1c0.6-0.1,1.3-0.3,2-0.4c2.2-0.6,3.8-1.3,5.6-2.5l0.9-0.7
	c0,0.3,0,0.2-0.2,0.4l-2.6,1.7c0.6-0.1,2.6-1.6,2.7-1.6c-0.1,0.6,0,0.4-0.4,0.7c-0.2,0.2-0.4,0.3-0.6,0.4l-1.4,0.8
	c0.4-0.1,1.4-0.7,1.7-1c0.2-0.1,0.4-0.3,0.5-0.4c0,0.1,0,0.3,0,0.4c0,0.2,0,0.2-0.2,0.3c-0.4,0.3-1.2,0.8-1.7,1
	c0.5-0.1,1.4-0.7,1.8-1c0,0.1,0,0.3,0,0.4c0,0.2-0.3,0.4-0.6,0.5c-0.3,0.2-0.6,0.4-0.9,0.5c0.5-0.1,1.3-0.7,1.5-0.8l0,0.4
	c0,0.1-1.3,0.9-1.3,0.9c0.2-0.1,0.5-0.2,0.7-0.3l0.6-0.4c0,0.1-0.1,0.2-0.2,0.2c-0.1,0.1-0.2,0.1-0.2,0.2L83,30.6
	c-0.7,0.4-1.4,0.7-2.2,1c-1.7,0.6-3.5,0.8-5.4,0.9c0-0.3,0-0.3,0.1-0.3c0.6,0,1.6,0,2.1-0.2c-1.2,0.1-1.1,0.1-2.1,0.1l0.1-0.4
	c0.8,0.1,1.2,0,2-0.2c-1.1,0.1-0.9,0.1-1.9,0l0-0.1c0,0,0-0.1,0-0.1c0-0.1,0-0.1,0.1-0.2c0.4,0,1.4,0,1.8-0.2
	c-0.7,0.1-1,0.1-1.7,0.1c0-0.1,0-0.2,0.1-0.4c0.7,0,1.2-0.2,1.6-0.2c-0.5,0.1-1,0.1-1.6,0.1c0.2-0.5,0-0.3,0.9-0.5
	c0.2-0.1,0.4-0.1,0.6-0.2L76.3,30.2z M44.3,27.2c0.2-0.6,0.7-1.4,1.1-1.8c0.2,0.1,0.8,0.9,1,1.2c0.2,0.4,0.6,1.2,0.5,1.8
	c-0.6-0.2-1.5-0.6-2-0.9c0-0.4,0.1-0.8,0.2-1.1c0,0-0.1,0.4-0.2,0.5c0,0.2-0.1,0.4-0.1,0.5C44.6,27.4,44.4,27.3,44.3,27.2z
	 M80.5,28.5c0-0.7,0.2-1.3,0.5-1.8c0.2-0.4,0.7-1.1,1.1-1.2c0.1,0.1,0.2,0.3,0.3,0.4c0.2,0.4,0.6,1,0.7,1.4l-0.4,0.2
	c-0.1-0.1-0.1-0.4-0.1-0.5c-0.1-0.2-0.1-0.3-0.2-0.5c0,0.3,0.2,0.7,0.2,1.1C82.3,27.8,80.8,28.5,80.5,28.5z M83.3,27
	c0.1-0.1,0.4-0.2,0.6-0.2c-0.2,0.1-0.4,0.3-0.6,0.4L83.3,27z M44.1,27.1c-0.1-0.1-0.3-0.2-0.4-0.2C43.8,26.9,44.1,26.9,44.1,27.1
	L44.1,27.1z M47,27.2c0.4-0.2,1.1-0.3,1.6-0.3c0.1,0.4-0.2,1.6-0.4,2l0,0c-0.2-0.1-0.8-0.2-1-0.3c0-0.4,0-0.6,0-0.9l0.5-0.3
	c-0.2,0-0.4,0.1-0.5,0.2L47,27.2z M79.3,28.9c-0.1-0.3-0.2-0.4-0.3-0.9c-0.1-0.3-0.1-0.8-0.1-1.1c0.6,0,1,0.1,1.6,0.2l-0.1,0.4
	l-0.5-0.2c0.1,0.1,0.1,0.1,0.2,0.1l0.2,0.1c0,0.4-0.1,0.6,0,1L79.3,28.9z M48.8,28.4c0-0.1,0.1-0.5,0.1-0.6c0.1-0.3,1.3-0.7,1.5-0.8
	c0.1,0.2,0.2,0.7,0.2,1c0,0.4,0,0.6-0.1,1c-0.1,0-0.1,0-0.2,0c-0.3,0.2-0.4,0.3-0.6,0.2c-0.3-0.1-0.7-0.2-1-0.3
	c0.1-0.3,0.3-0.5,0.5-0.8c0.3-0.4,0.4-0.4,0.6-0.7c-0.2,0.1-0.6,0.5-0.7,0.6L48.8,28.4z M77,29c-0.2-0.7-0.1-1.3,0-2
	c0.3,0.1,0.8,0.3,1.1,0.4c0.4,0.3,0.4,0.2,0.6,0.9c-0.1-0.1-0.3-0.3-0.4-0.4c-0.1-0.1-0.3-0.3-0.5-0.4c0.1,0.2,0.7,0.7,1.1,1.4
	c-0.2,0.1-0.4,0.1-0.5,0.1c-0.7,0.2-0.6,0.1-1-0.1C76.9,28.9,77.2,29,77,29z M60.4,34.1c0.1-0.2,0.6-1.2,0.8-1.5
	c0.2-0.5,0.5-1,0.8-1.4c0.3-0.5,0.5-0.9,0.8-1.4l0.8-1.4c0.1,0.1,0.2,0.2,0.2,0.3c0.1,0.2,0.1,0.2,0,0.3c-0.1,0.2-0.3,0.5-0.4,0.7
	c-0.5,0.9-1,1.9-1.5,2.9L61,34.1L60.4,34.1z M49.8,29.3c0.1-0.1,0.3-0.2,0.4-0.2l0.2,0.3c-0.1,0-0.2,0-0.3-0.1
	C49.9,29.4,49.9,29.4,49.8,29.3z M77.2,29.1c0.1,0,0.4,0.2,0.5,0.3l-0.6,0.1L77.2,29.1z M43.9,32.6c0.1,0.2,0.2,0.3,0.4,0.5
	c0.1,0.2,0.3,0.3,0.4,0.5c-0.2,0-0.4,0.1-0.5,0.1c-0.2,0-0.7-0.9-0.8-1.1c-0.2-0.5-0.4-1.4-0.4-2c0.5,0,1,0.1,1.4,0.2
	c0,0.4-0.1,0.7-0.1,1.1c0,0.4,0.1,0.7,0.1,1c-0.1-0.1-0.4-0.5-0.6-0.7c-0.2-0.2-0.3-0.5-0.5-0.7C43.3,31.8,43.7,32.4,43.9,32.6z
	 M83.2,30.8c0.3-0.3,1-0.3,1.4-0.3c0.1,0.5-0.2,1.4-0.3,1.8c-0.2,0.6-0.4,0.8-0.8,1.3l-0.6-0.1c0-0.1,0.3-0.3,0.4-0.5
	c0.3-0.4,0.9-1.1,0.9-1.6c-0.1,0.3-0.8,1.3-1,1.4c0.1-0.4,0.1-0.6,0.1-1C83.3,31.4,83.2,31.2,83.2,30.8z M45.3,32.4
	c-0.1-0.4-0.2-0.8-0.2-1.2l1.1,0.5l-0.7-0.2L45.3,32.4z M82.3,31.3c0,0.3-0.1,0.9-0.2,1.1c0-0.1-0.1-0.4-0.1-0.5
	c-0.1-0.5-0.1-0.3-0.2-0.3L82.3,31.3z M47.3,32.3c-0.1-0.1-0.3-0.2-0.4-0.3c-0.1-0.1-0.3-0.1-0.5-0.2l0.9,0.3L47.3,32.3z M80.8,31.9
	c-0.1,0-0.6,0.3-0.6,0.4l0-0.2L80.8,31.9z M83,30.9c0.1,0.7,0.1,1.2-0.1,1.9c-0.2,0.7-0.3,0.7-0.6,0.7c0-0.2,0-0.5,0-0.6
	c0.2-0.7,0.2-1,0.2-1.7L83,30.9z M44.5,30.9l0.5,0.2c0,0.4,0,0.9,0.1,1.2c0.1,0.8,0.1,0.2,0.1,1.2l-0.3,0c-0.1-0.1-0.1-0.2-0.2-0.3
	c-0.2-0.5-0.3-0.9-0.3-1.5L44.5,30.9z M47.7,32.6c-0.2-0.1-0.2-0.2-0.1-0.5l0.5,0.1L47.7,32.6z M79.4,32.3c0.1-0.1,0.4-0.1,0.5-0.1
	l0,0.3l-0.2,0.1C79.6,32.5,79.5,32.4,79.4,32.3z M77.7,32.6c0.2-0.1,0.8-0.1,1.1-0.2c0.3-0.1,0.3-0.1,0.4,0.1
	c0.1,0.1,0.2,0.2,0.3,0.3c-0.1,0.1-0.2,0.2-0.3,0.3c-0.1-0.1-0.3-0.5-0.5-0.6c0.1,0.2,0.2,0.4,0.4,0.6c0.1,0.2,0.1,0.1,0,0.3
	c-0.1,0.1-0.1,0.2-0.2,0.3c-0.2,0.4-0.3,0.7-0.3,1.2c0,0.2,0,0.2-0.2,0.3c-0.2-0.1-0.3-0.3-0.5-0.5c-0.3-0.3-0.4-0.3-0.4-0.5
	C77.5,33.7,77.5,33,77.7,32.6z M48.4,32.3c0.1-0.1,0.6,0.1,0.8,0.1c0.7,0.1,0.6,0,0.6,0.3c0.1,0.5,0.2,1,0.1,1.5
	c0,0.2-0.1,0.2-0.3,0.3L49.1,35c-0.1,0.1-0.1,0.1-0.1,0.1c-0.2-0.1-0.2-0.2-0.2-0.5c-0.1-0.6-0.3-0.9-0.5-1.4
	c0.1-0.2,0.3-0.4,0.4-0.7c-0.1,0,0,0-0.1,0.1l-0.4,0.5c-0.1,0-0.3-0.3-0.3-0.3L48.4,32.3z M50.4,34.2c-0.1-0.2-0.1-0.1-0.2-0.1
	c0.1-0.6,0-0.9-0.1-1.5l1.1,0.1c0.1,0.1,0.1,0.4,0.1,0.6c0,0.1-0.2,0.3-0.3,0.4l-0.5,0.8C50.5,34.4,50.5,34.3,50.4,34.2z M77.3,32.6
	c-0.1,0.6-0.1,0.8-0.1,1.4c-0.1,0,0-0.1-0.2,0.1c-0.1,0.1-0.1,0.2-0.2,0.2c-0.2-0.3-0.3-0.5-0.4-0.8c-0.3-0.5-0.3-0.2-0.2-0.9
	L77.3,32.6z M45.4,33.5c0-0.3,0-0.6,0.1-0.8c0-0.3,0.1-0.5,0.2-0.7c0.9,0.2,2,1,2.5,1.8c0.2,0.3,0.3,0.7,0.3,1.1
	c-0.4-0.2-0.9-0.6-1.6-0.7c0,0.1-0.3,1.1-0.3,1.1c-0.3-0.4-0.8-1.7-0.8-2.3c0,0.5,0.2,1.3,0.3,1.7c0.5,1.3,0.5,0.6,0.4,1.6
	c-0.2,0-0.3,0-0.3-0.1C45.7,35.4,45.4,34.4,45.4,33.5z M78.9,34.8c0.1-0.4,0.2-0.7,0.4-1.1c0.5-0.8,1.6-1.7,2.5-1.8
	c0.1,0.3,0.2,0.9,0.2,1.2c0.1,0.8-0.1,1.7-0.4,2.4c-0.1,0.2-0.2,0.3-0.3,0.4c-0.2,0.2-0.1,0.3-0.4,0.3c0-0.1,0-0.4,0-0.5
	c0-0.1,0.3-0.7,0.5-1.1c0.2-0.4,0.4-1.2,0.3-1.7c-0.1,0.6-0.4,1.8-0.8,2.3c0-0.3-0.2-0.9-0.3-1.1c-0.3,0-0.9,0.3-1.2,0.5
	C79.1,34.7,79,34.8,78.9,34.8z M61.2,34.1l2.7-5c0,0.1,0.6,1.1,0.7,1.3c0.3,0.4,0.5,0.8,0.8,1.3l0.8,1.3c0.1,0.2,0.7,1.2,0.8,1.3
	c-0.1-0.1-2.2-0.1-2.6-0.1h-1.1c-0.4,0-0.7,0-1.1,0C61.8,34,61.5,34.1,61.2,34.1z M81.7,35.9c0.1-0.1,0.1-0.3,0.2-0.5
	c0.2-0.5,0.3-1.1,0.4-1.7c0.6,0,0.9,0.1,1.5,0.2c-0.2,0.7-0.6,1.4-1,1.9c-0.1,0.1-0.1,0.1-0.1,0.2c-0.5,0.4-0.1,0.3-1,0.2
	c0.1-0.1,1.1-0.7,1.5-1.4C82.9,34.9,82.1,35.8,81.7,35.9z M43.7,34c0.4-0.1,0.5-0.2,1.1-0.2c0.1,0,0.3,0,0.4,0
	c0.1,1.1,0.1,1.1,0.6,2.1c-0.5-0.2-1.1-0.8-1.4-1.1c0.1,0.2,0.5,0.6,0.7,0.8c0.2,0.2,0.4,0.3,0.6,0.5c0.1,0.1,0.1,0.1,0.2,0.2
	c-0.7,0.1-0.6,0.2-0.9,0C44.5,35.7,43.9,34.8,43.7,34z M51,35.1C51,35.1,51,35.1,51,35.1C50.9,35.1,50.9,35.1,51,35.1
	c-0.1-0.1-0.1-0.2-0.1-0.2c0-0.1-0.1-0.1-0.1-0.2c0-0.1,0.4-1,0.6-1.1c0.5,0.4,1.3,1.2,1.3,1.9c-1.5,0.4-1.4,0.6-1.5,0.1
	c-0.2-0.5,0-0.6,0-1.1C51.1,34.5,51,35.1,51,35.1z M74.8,35.5c0-0.6,1-1.7,1.3-1.8c0.2,0.2,0.3,0.5,0.4,0.7c0.1,0.1,0.2,0.3,0.1,0.4
	c0,0-0.2,0.3-0.2,0.4c0-0.2-0.1-0.5-0.1-0.6c0,0.5,0.1,0.9-0.1,1.3C76.1,35.9,75,35.6,74.8,35.5z M49.2,35.4
	c0.1-0.2,0.8-0.8,0.9-0.9l0.1,0.1c0.2,0.3,0.4,0.7,0.5,1c0.1,0.3,0.1,0.4-0.2,0.5c-0.2,0-0.5,0.2-0.7,0.2c-0.5-0.8-0.4-0.5-0.3-0.8
	l-0.1,0.2C49.3,35.5,49.3,35.5,49.2,35.4z M77.6,36.3c-0.2,0-0.5-0.1-0.7-0.2c-0.4-0.1-0.4-0.1-0.2-0.5c0.1-0.3,0.4-1,0.6-1.1
	c0.3,0.1,0.8,0.7,1,0.9l-0.2,0.3c-0.1-0.1-0.1-0.1-0.2-0.2c0.1,0.3,0.2,0.2,0,0.4C77.8,36,77.7,36.1,77.6,36.3z M77.9,36.3
	c0.1-0.2,0.3-0.4,0.4-0.6c0.4-0.5,1.4-1.1,2-1.2c0.1,0.4,0.2,0.7,0.2,1c0.1,0.4,0,0.8,0,1.2l-0.5,0c0.1-0.3,0.2-0.7,0.1-1.1l0,0
	c0,0,0,0,0,0c0,0.2-0.2,0.9-0.3,1.1C79.3,36.6,78.6,36.5,77.9,36.3z M46.9,36.8c0-0.6,0-1.7,0.3-2.2c0.4,0,1.2,0.5,1.4,0.7
	c0.4,0.3,0.7,0.6,1,1.1c-0.4,0.2-1.6,0.3-2,0.4c-0.2-0.3-0.2-0.8-0.3-1c0,0.4,0.1,0.7,0.1,1.1L46.9,36.8z M82.5,36.7
	c0-0.1,0-0.2,0.1-0.2C82.6,36.5,82.6,36.5,82.5,36.7C82.5,36.7,82.6,36.7,82.5,36.7z M44.9,36.6C44.9,36.5,45,36.5,44.9,36.6
	C44.9,36.6,44.9,36.7,44.9,36.6z M46.3,37c2.7,0,5.7-1.1,8.3-1.8c1.5-0.4,2.8-0.6,4.3-0.7c3.9-0.4,5.9-0.4,9.8,0
	c1.6,0.2,2.8,0.4,4.3,0.7c2.7,0.6,5.5,1.8,8.3,1.8c0.9,0,1.3,0,2-0.4c0,0.1-0.3,0.5-0.3,0.5c-0.3,0.3-1.9,0.4-2.3,0.4
	c0.8,0.1,1.3,0,2.1-0.2c0,0.1-0.2,0.4-0.3,0.5c-0.1,0.1-0.4,0.2-0.6,0.2c-0.6,0.1-1.2,0.2-1.9,0.2l0.6,0.1c0.6,0,1.2-0.2,1.7-0.2
	c-0.1,0.1-0.2,0.4-0.4,0.4c-0.2,0.1-0.4,0.1-0.6,0.1c-0.6,0.1-1.2,0.2-1.8,0.1c0.3,0.2,1.3,0,1.7,0c0.3,0,0.6-0.1,0.8-0.2
	C82,38.7,81.8,39,81.7,39c-0.9,0.3-1.8,0.4-2.8,0.3c0.5,0.1,0.9,0.1,1.4,0.1c0.5-0.1,1-0.2,1.4-0.3c0,0.1-0.1,0.2-0.2,0.3
	c-0.1,0.1-0.1,0.2-0.2,0.2c-1,0.3-2,0.4-3.1,0.3c0.7,0.1,0.8,0.2,1.6,0.1c0.4,0,1.5-0.3,1.5-0.3c-0.1,0.1-0.1,0.2-0.2,0.3
	c-0.1,0.2-0.1,0.2-0.3,0.2c-1,0.3-2,0.4-3,0.4l0.1,0.1c0.8,0.2,2.2-0.2,2.9-0.3c-0.1,0.2-0.3,0.5-0.4,0.5c-0.3,0.1-0.5,0.1-0.8,0.2
	c-0.8,0.2-1.7,0.2-2.5,0.2c0.2,0.1,0.5,0.1,0.7,0.1c1,0,1.7-0.2,2.6-0.4c0,0.1-0.1,0.2-0.2,0.3c-0.1,0.1-0.2,0.1-0.3,0.1
	c-0.7,0.2-1.4,0.4-2.1,0.4c-1.3,0-2.2-0.4-3.3-0.7c-1-0.3-2-0.5-3.1-0.7c-3.1-0.5-5.1-0.7-8.2-0.7c-3.1,0-7.2,0.5-10.2,1.4
	c-1.1,0.3-1.9,0.7-3.2,0.7c-0.6,0-1.1-0.1-1.7-0.2c-0.2-0.1-0.4-0.1-0.7-0.2c-0.2-0.1-0.2,0-0.3-0.2c0-0.1-0.1-0.2-0.1-0.2
	c0.8,0.2,1.6,0.4,2.4,0.4c0.3,0,0.7,0,0.9-0.1c-1.1,0-2.1-0.1-3.2-0.3c-0.2-0.1-0.2,0-0.4-0.2c-0.1-0.1-0.2-0.3-0.2-0.4
	c0.8,0.1,1.3,0.4,2.3,0.4c0.4,0,0.9-0.1,1.1-0.1c-1.2,0.1-2.2,0-3.4-0.4c-0.2-0.1-0.4-0.3-0.4-0.5c0.3,0.1,0.7,0.2,1.1,0.2
	c0.6,0.1,1.2,0.2,1.8,0.1l0.2-0.1c-0.8,0-1.5,0-2.3-0.2c-0.7-0.1-0.9-0.1-1.2-0.7c0.3,0,0.7,0.2,1,0.2c0.5,0.1,1.3,0.2,1.8,0
	c-0.7,0-1.4,0-2.1-0.2c-0.2,0-0.5-0.1-0.7-0.2c-0.2,0-0.1-0.1-0.2-0.2c-0.1-0.1-0.1-0.1-0.2-0.3c0.5,0.1,2,0.4,2.5,0.2
	c-0.8,0-1.8-0.1-2.5-0.3c-0.1,0-0.3-0.3-0.3-0.4c0.4,0.1,1.8,0.4,2.3,0.2c-0.6,0-1.3,0-1.9-0.2c-0.2,0-0.5-0.1-0.6-0.2
	c-0.1-0.1-0.2-0.3-0.3-0.4c0.2,0,0.5,0.1,0.7,0.2c0.3,0.1,1.1,0.2,1.4,0c-0.6,0-1,0-1.6-0.2c-0.1,0-0.6-0.1-0.7-0.2
	c0,0-0.3-0.4-0.3-0.5c0.3,0.1,0.4,0.2,0.7,0.3C45.4,37.1,45.9,37,46.3,37z M44.9,36.7C44.9,36.6,45,36.7,44.9,36.7
	C45,36.7,44.9,36.7,44.9,36.7z M45.2,36.6c0.1,0,0.1,0,0.2,0c0.1,0,0.2-0.1,0.4-0.1c0.2,0,0.7-0.1,0.8,0l0,0.3c-0.3,0-1.3,0-1.5-0.1
	L45.2,36.6z M80.9,36.5c0.3,0,0.6,0,0.8,0.1c0.1,0,0.2,0,0.4,0.1c0.1,0,0.1,0,0.2,0l0.1,0.1c-0.2,0.1-1.2,0.1-1.5,0.1L80.9,36.5z
	 M58,40.3c0.3,0,1.8-0.2,2.5-0.3c0.1,0,0.2,0,0.3,0c0.1,0,0.2,0,0.3,0l3.2-0.1l2,0.1c0.8,0.1,1.6,0.1,2.5,0.2c0.2,0,0.4,0.1,0.6,0.1
	c0,0.1-0.7,0.5-1,1c-0.1,0.1-0.1,0.2-0.2,0.2c-0.1,0.1-0.2,0.4-0.3,0.5l-0.8-0.4c-0.1-0.1-0.3-0.1-0.4-0.2c-1.7-0.6-3.7-0.7-5.4-0.1
	c-0.5,0.1-1.1,0.4-1.6,0.7c-0.1,0-0.1,0.1-0.2,0.1c0-0.1-0.1-0.2-0.1-0.3c0-0.1-0.1-0.2-0.1-0.3c-0.1-0.2-0.2-0.3-0.3-0.5
	C58.6,40.7,58.1,40.4,58,40.3z M56.4,41.6c0.1-0.2,0.3-0.6,0.4-0.8c0.2-0.3,0-0.4,0.8-0.4l-0.8,1.5C56.8,41.8,56.5,41.6,56.4,41.6z
	 M56.7,40.5l-0.4,0.7c-0.1-0.1-0.2-0.2-0.3-0.3c-0.1-0.1-0.2-0.2-0.3-0.3L56.7,40.5z M71.2,41.2c-0.1,0.2-0.1,0.2-0.4,0.2
	c0-0.2-0.1-0.3-0.1-0.5c0-0.1,0-0.1-0.1-0.2c0-0.1,0-0.1,0.1-0.2c0.1,0,0.1,0.1,0.2,0.2L71.2,41.2z M72,41.7l-0.7-1.1
	c0.2,0,0.3,0.1,0.4,0.1c0.2,0,0.2,0,0.3,0.2c0.1,0.2,0.3,0.5,0.4,0.6L72,41.7z M68.1,43.1c0-1,0.7-1.9,1.4-2.4
	c0.5-0.3,0.5-0.3,0.9-0.3c0.1,0.3,0.2,0.7,0.3,1l-0.3,0.1l0-0.3l0,0.3c-0.1,0.1-0.2,0.1-0.4,0.2c-0.5,0.2-0.5,0.4-0.9,0.7
	c-0.1,0.1-0.3,0.4-0.4,0.6c-0.3,0.6,0,0.5-0.4,0.6L68.1,43.1z M53.2,41.3c0.1,0.3,0.4,0.6,0.5,0.8c0.3,0.3,0.6,0.6,0.7,0.7l-0.3,0.5
	c-0.4-0.2-1.1-1.2-1.3-1.8c0,0,0.1,0,0.2-0.1C53.2,41.3,53.2,41.3,53.2,41.3C53.3,41.2,53.2,41.3,53.2,41.3l0.3-0.1
	c0.1,0,0.3-0.1,0.4-0.1c0.3-0.1,0.5-0.1,0.8-0.2c0.5-0.1,0.5-0.2,0.7,0c0.2,0.1,0.4,0.3,0.5,0.5c-0.3,0-0.5,0-0.8,0.1
	c-0.3,0-0.5,0.1-0.7,0.1c0,0.2,0.1,0.4,0.1,0.6c0.1,0.3,0.1,0.2-0.1,0.4c-0.1-0.1-0.6-0.5-0.7-0.6L53.2,41.3z M74.2,41.3
	c0.1,0,0.2,0,0.3,0.1c-0.1,0.3-0.4,0.8-0.5,1L73.7,42C73.9,41.8,74.1,41.6,74.2,41.3c-0.2,0.2-0.4,0.5-0.6,0.7
	c-0.1-0.2-0.5-0.5-0.9-0.5c-0.3,0-0.3,0-0.4-0.2c-0.1-0.1-0.2-0.3-0.2-0.4c0.2,0,0.9,0.2,1.1,0.2c0.2,0,0.3,0.1,0.5,0.1L74.2,41.3
	C74.2,41.3,74.2,41.3,74.2,41.3z M52.7,41.4l0.2,0.4l-0.4-0.2c0,0,0,0,0-0.1L52.7,41.4z M74.8,41.4c0.1,0,0.2,0,0.3,0.1
	c-0.1,0.1-0.3,0.2-0.5,0.3L74.8,41.4z M57.8,40.6c0.2,0.1,0.5,0.3,0.6,0.5c0.6,0.5,1,1.3,1,2.2c-0.1,0-0.2-0.1-0.3-0.2
	c-0.2-0.1-0.2-0.1-0.3-0.2c-0.6-1-1.4-1.1-1.6-1.3L57.8,40.6z M55.3,41.6l-0.5,0.4l-0.1-0.4L55.3,41.6z M51.5,41.8
	c0.1-0.1,0.5-0.2,0.7-0.2c0.1,0.1,0.4,0.3,0.5,0.4c-0.1,0.1-0.2,0.1-0.3,0.2c-0.1,0.1-0.2,0.1-0.3,0.2C51.9,42.3,51.6,42,51.5,41.8z
	 M74.8,42.1c0.1-0.1,0.2-0.1,0.3-0.2c0.3-0.2,0.2-0.3,0.9,0c-0.2,0.2-0.4,0.4-0.7,0.6C75.2,42.3,75,42.1,74.8,42.1z M58.4,42.7
	c-0.1,0-1.1-0.6-1.3-0.7c-0.1,0,0,0-0.1-0.1l0.1-0.1C57.5,41.9,58.2,42.5,58.4,42.7z M68.6,43.5c0.1-0.5,0.7-1,1-1.3
	c0.5-0.3,1.1-0.5,1.8-0.5c0.1,0,0.1,0,0.1,0.1c0,0,0.1,0.1,0.1,0.1C71.4,42.1,69,43.4,68.6,43.5z M51.9,43.3
	c-0.7-0.1-1.9-0.8-2.2-1.3c0.2,0,0.3,0.1,0.5,0.2c0.6,0.3,0.8,0.4,1.5,0.6c-0.1,0.1,0.1,0.2,0.2,0.4L51.9,43.3z M50.2,42
	c1.4-0.1,0.7-0.3,1.6,0.5c-0.3,0-0.9-0.2-1.3-0.3C50.5,42.1,50.3,42.1,50.2,42z M77.1,42.2c-0.5,0.1-0.7,0.2-1.3,0.3
	c-0.4,0.1-0.1-0.2,0.1-0.3c0.1-0.1,0.3-0.3,0.4-0.4c0.2,0,0.6,0.1,0.8,0.1c0.3,0,0.5,0,0.8,0c-0.1,0.2-0.8,0.6-1,0.8
	c-0.3,0.2-0.9,0.5-1.3,0.5c0.1-0.1,0.1-0.1,0.2-0.2c0,0,0.1-0.1,0.1-0.1c0.1-0.1,0,0,0.1-0.1l-0.1-0.1c-0.1-0.1,0,0-0.1-0.1
	C76.1,42.7,76.9,42.4,77.1,42.2z M74.6,43.4c-0.1,0-0.1,0-0.1-0.1l-0.2-0.5c-0.2-0.3-0.1-0.1,0.1-0.6c0.3,0.1,1,0.6,1.1,0.8
	c0,0,0,0,0,0c-0.2,0.2-0.7,0.7-0.9,0.8c-0.1-0.1,0-0.1,0-0.2C74.6,43.4,74.5,43.5,74.6,43.4z M51.9,43c0.1-0.2,0.8-0.7,1.1-0.8
	c0.1,0.1,0.7,1,1.1,1.2l0,0.2c-0.5-0.1-0.9-0.2-1.3-0.3c0.1,0,0.2,0.1,0.3,0.1c0.1,0,0.2,0.1,0.3,0.1c0.2,0.1,0.6,0.2,0.6,0.2
	c-0.1,0.1-0.2,0.1-0.3,0.3c-0.2,0-0.8-0.4-1-0.5c-0.1-0.1-0.3-0.2-0.4-0.3C52.2,43.2,52.1,43.1,51.9,43z M54.4,43.4
	c0.1-0.3,0.5-1,0.7-1.1c0.3-0.3,0.5-0.7,1.2-0.5c0.2,0.1,0.4,0.2,0.6,0.3c1.2,0.7,3,1.7,4.3,2c1,0.3,2.1,0.4,3.3,0.4
	c1.1,0,2.3-0.1,3.3-0.4c1.1-0.3,2.7-1.1,3.7-1.7c0.3-0.2,0.9-0.6,1.1-0.7c0.6-0.2,0.9,0.3,1.1,0.5c0.2,0.2,0.5,0.8,0.7,1.1
	c-0.3,0-0.4-0.2-0.7,0c-0.2,0.1-0.3,0.3-0.5,0.4C73,44,73,44,72.9,44.1c-0.3,0.4-0.8,0.8-1.2,1.1c-0.5,0.4-1,0.8-1.6,1.1
	c-1.4,0.8-3.9,1.4-5.8,1.4c-1.8,0-4.5-0.7-5.8-1.4c-0.4-0.2-0.8-0.5-1.1-0.7c-0.2-0.1-0.3-0.3-0.5-0.4c-0.4-0.3-1-0.9-1.4-1.4
	C55,43.2,54.8,43.3,54.4,43.4z M76.5,43.8c0.2-0.1,0.4-0.2,0.7-0.3c0.6-0.3,1.2-0.5,1.8-0.8c0.2-0.1,0.2-0.1,0.4,0
	c0.3,0.2,0.3,0.5,0.3,0.7c-0.1,0.1-0.4,0.3-0.5,0.4c-0.4,0.3-1.2,0.8-1.6,1c-0.7,0.4-1.4,0.9-2.2,1.3c-0.6,0.4-1.7,0.9-2.4,1.2
	c-0.4,0.1-0.9,0.3-1.3,0.4l-1.3,0.5c-0.2-0.3,0-0.2-0.4-0.6l3.4-2.1c0.7-0.5,0.2-0.1,1.1-0.3c0.1,0,0.1,0,0.2,0c0.1,0,0.1,0,0.1-0.1
	c-0.5,0-0.6,0.2-0.8-0.3c-0.1-0.2-0.4-0.6-0.4-0.7c0.1-0.1,0.3-0.3,0.4-0.3c0.2,0.1,0.6,1,0.7,1.2L76.5,43.8z M75,43.8
	c0.1-0.1,0.2-0.1,0.3-0.2c0.3,0,0.5-0.1,0.8-0.2c0,0.1,0.1,0.1,0.1,0.2c0,0,0,0,0,0L76,43.7c-0.7,0.4-0.6,0.3-1.3,0.3L75,43.8z
	 M51.4,43.5c0.2,0,0.5,0.1,0.8,0.2c0.1,0,0.5,0.3,0.6,0.4c-0.3,0.1-0.6,0-0.9,0c0.2,0.1,0.6,0.1,0.9,0.1c0.2,0,0.2,0,0.4,0.1
	c0.1,0.1,0.3,0.1,0.3,0.2c-0.3,0.2-1,0-1.3-0.1c-0.4-0.1-0.7-0.3-1-0.4C51.2,43.8,51.3,43.6,51.4,43.5z M75.3,44.1
	c-0.2,0.1-0.5,0.4-0.8,0.3c0.1-0.1,0.1-0.2,0.2-0.3L75.3,44.1z M55.6,44.3c-0.1,0.2-0.6,1.1-0.8,1.3c-0.7,0.7-0.9,1-2,1.4
	c-1,0.4-3.1,0.4-4.2,0c-0.3-0.1-0.3-0.1-0.4-0.3c-0.2-0.3-0.2-0.8-0.1-1.2c0.1-0.4,0.3-0.7,0.4-1c0.1-0.2,0.2-0.2,0.4-0.3
	c0.2-0.1,0.2-0.1,0.5-0.2c0.8-0.3,2.4,1.1,4.4,1c0.6,0,0.7-0.2,1-0.3c-0.1,0.2-0.7,1.2-0.6,1.5l0.1-0.2c0.1-0.5,0.7-1.4,1-2
	C55.3,44,55.4,44.1,55.6,44.3z M53.8,44.6c0.1-0.1,0.4-0.4,0.5-0.5l0.2,0.2C54.3,44.5,54,44.6,53.8,44.6z M72.5,45.3
	c0.1,0,1.6-0.6,0.9-0.1C73.1,45.4,73,45.4,72.5,45.3z M54.3,46.2c0.1-0.1,0.2-0.2,0.3-0.3l0.8-1c0.1,0,0.6,0.2,0.9,0.3
	c-0.1,0.1-0.3,0.2-0.5,0.3c-0.2,0.1-0.3,0.2-0.5,0.2C55.1,45.9,54.6,46.2,54.3,46.2z M71.4,45.8c0.6-0.4,0.6-0.3,1.3-0.2
	c-0.2,0.1-0.4,0.2-0.6,0.4c-0.2,0.1-0.2,0.1-0.5-0.1L71.4,45.8z M53.7,46.7c0.1-0.1,0.2-0.2,0.4-0.3c0.2-0.1,0.2-0.1,0.5-0.2
	c0.3-0.1,0.7-0.2,1-0.3c1.3-0.5,1-0.7,1.5-0.3c0.1,0.1,0.1,0.1,0.2,0.1c0,0,0,0,0,0c0,0,0,0,0,0C56.3,46.4,54.6,46.8,53.7,46.7z
	 M70.7,46.3c0,0,0.4-0.3,0.5-0.3c0.1-0.1,0.5,0.1,0.6,0.1l-0.5,0.3C71.2,46.5,70.8,46.4,70.7,46.3z M68.6,47.3
	c0.1-0.1,0.4-0.2,0.6-0.2c0.5-0.2,0.7-0.3,1.1-0.5c0.3-0.1,0.2,0.1,0.6,0.1c0,0.1-0.9,0.6-1,0.7c0,0-0.1,0-0.1,0.1
	c-0.3,0.2-0.2,0.1-0.8,0C68.8,47.4,68.7,47.3,68.6,47.3z M58,47.8c0.5,0,1-0.2,1.5-0.3c0.2,0,0.6-0.2,0.7-0.1c0.1,0,0.5,0.2,0.6,0.3
	c-0.4,0.1-1,0.3-1.4,0.4C59,48.1,58,48.3,58,47.8z M67.2,47.7c0.1-0.1,0.4-0.1,0.6-0.2c0.3-0.1,0.3-0.1,0.6,0
	c0.4,0.1,0.8,0.2,1.2,0.3c0,0.2,0.1,0.2,0,0.3c-0.3,0.1-0.8,0.1-1.1,0C68.1,47.9,67.6,47.8,67.2,47.7z M67.4,48.7
	c-0.2,0.5-2.5,0-3-0.1c-0.6-0.1-1.4-0.4-2-0.6l-0.5-0.2c0,0-0.1,0-0.1,0c0,0,0,0-0.1,0c1,0.1,1.3,0.3,2.5,0.3c0.5,0,1.1,0.2,1.7,0.3
	C66.2,48.4,67.3,48.7,67.4,48.7z M65.5,48C65.5,48,65.5,48,65.5,48C65.5,48,65.5,48,65.5,48l0.2-0.1c0.1,0,0.1,0,0.2,0
	c0.7-0.1,0.6-0.2,1.2,0c0.3,0.1,1.3,0.3,1.5,0.4c0,0.1,0,0.1-0.1,0.1C67.8,48.7,66.3,48.1,65.5,48z M59.2,48.3
	c0.2-0.1,1.1-0.3,1.3-0.4c0.6-0.2,0.4-0.2,1,0c0.1,0,0.2,0.1,0.3,0.1C61.3,48.2,59.4,48.8,59.2,48.3z M59.1,35.4
	c0.1-0.1,1.6-0.2,1.8-0.2l1.4-0.1c0.1,0,0.1,0,0.1,0.1c0,0.1,0,0.1,0,0.1c0,0-0.2,0-0.2,0.1c-0.3,0.1-0.2,0.4-0.2,0.8
	c0,0.3,0.1,0.6,0.1,0.9c0.2,1.6,0,1.3,0.6,1.4l0,0.1c-0.1,0.1-1.4,0.2-1.6,0.2c0-0.2,0-0.1,0.1-0.2c0.3,0,0.4-0.1,0.3-0.4
	c0-0.3-0.1-0.6-0.1-0.9c0-0.3-0.1-0.6-0.1-0.9c0-0.3,0-0.7-0.2-0.8c-0.1,0-0.8,0-0.9,0.1c-0.3,0.1-0.3,0.4-0.3,0.7
	c0.1,0.6,0.2,1.3,0.2,1.9c0,1-0.8,0.8-1,0.6c-0.2-0.2-0.2-0.6,0.1-0.6c0.3,0,0.3,0.4,0.4,0.5c0.6,0.1,0.3-1.4,0.3-1.8
	c-0.1-1.4,0-1.3-0.8-1.4L59.1,35.4z M63.6,36.7c0-1.8,0.1-1.4-0.5-1.6l0-0.1l2.8,0.1c0.1,0,0.3,0.7,0.3,0.8c-0.2,0-0.2-0.1-0.3-0.2
	c-0.3-0.3-0.6-0.5-1.1-0.5c-0.4,0-0.6,0-0.6,0.4c0,0.2,0,0.8,0,1c0.2,0,0.6,0,0.8,0c0.3-0.1,0.3-0.4,0.4-0.5l0.1,0l0,1.3l-0.2,0
	c0-0.3-0.1-0.5-0.3-0.5c-0.1,0-0.6-0.1-0.8,0c0,0.3,0,0.7,0,1.1c0,0.5,0.2,0.5,0.6,0.5c0.4,0,0.6-0.1,0.8-0.3
	c0.4-0.3,0.2-0.4,0.6-0.4L66,38.5c-0.3,0-2.9-0.1-3-0.1l0-0.1c0.2-0.2,0.5,0.2,0.5-0.5C63.6,37.4,63.6,37.1,63.6,36.7z M67,35.3
	C67,35.3,67,35.3,67,35.3L67,35.3c0.1-0.2,2.5,0.2,2.8,0.3l0.2,0.8c-0.2,0-0.2-0.1-0.3-0.2c-0.2-0.3-0.6-0.5-1-0.6
	c-0.5-0.1-0.6,0-0.6,0.4c0,0.3-0.1,0.6-0.1,0.9c0.6,0,1.1,0.3,1.2-0.4l0.2,0l-0.2,1.3c-0.3,0-0.1-0.1-0.2-0.3
	c-0.1-0.4-0.8-0.4-1-0.4c0,0.3-0.1,0.6-0.1,1c-0.1,0.5,0,0.6,0.4,0.6c0.9,0.1,1.2-0.4,1.4-0.5c0.1,0,0.1,0,0.2,0L69.4,39
	c-0.5,0-1-0.1-1.5-0.2l-1.3-0.2c-0.1,0-0.1,0-0.1-0.1c0.1-0.1,0.3,0,0.5-0.1c0.1-0.1,0.2-1.2,0.3-1.4C67.5,35.4,67.6,35.5,67,35.3
	L67,35.3z M71.1,36c-0.2-0.2-0.4,0-0.3-0.3c0.1-0.1,1,0.2,1.2,0.3c0.4,0.1,0.8,0.2,1.1,0.4c0.3,0.2,0.6,0.5,0.4,1
	c-0.2,0.4-0.5,0.4-1,0.5c0.1,0,0.4,0.2,0.4,0.3c0.6,0.6,0.2,1.3-0.5,1.4c-0.5,0.1-1.7-0.3-2.3-0.5c0,0-0.2,0-0.2,0
	c-0.1,0-0.1,0,0-0.1c0.2,0,0.4,0.1,0.5-0.1c0.1-0.1,0.4-1.2,0.4-1.4C71,37.1,71.3,36.2,71.1,36z M55.1,36.3c0-0.1,0-0.1,0.1-0.1
	l2.7-0.6c0.1,0.2,0.4,0.6,0.4,0.7c-0.1,0.1-0.2,0-0.4-0.1c-0.4-0.2-0.9-0.3-1.3-0.2c-0.4,0.1-0.4,0.2-0.3,0.7
	c0.1,0.3,0.1,0.6,0.2,0.8c0.7-0.1,1-0.2,1-0.8l0.2,0l0.3,1.2l-0.2,0c-0.1-0.3-0.2-0.4-0.5-0.4c-0.2,0-0.6,0.1-0.8,0.1
	c0.1,0.3,0.1,0.7,0.2,1c0.1,0.5,0.2,0.5,0.7,0.4c0.3-0.1,0.6-0.2,0.8-0.4c0.3-0.5,0.3-0.6,0.6-0.6l-0.1,0.9c-0.5,0.1-1,0.2-1.5,0.3
	c-0.1,0-1.4,0.3-1.5,0.3c0-0.1,0-0.1,0.2-0.1c0.3-0.1,0.3-0.2,0.2-0.6c-0.1-0.3-0.1-0.6-0.2-1c-0.1-0.3-0.2-1.3-0.4-1.4
	C55.4,36.2,55.1,36.4,55.1,36.3C55.1,36.3,55.1,36.3,55.1,36.3z M52.9,37c0-0.1,0-0.1,0.1-0.1l0.5-0.2c0.2-0.1,0.4-0.1,0.7-0.2
	c0.1,0,0.3-0.1,0.3,0c0,0.1-0.2,0.1-0.3,0.2c-0.2,0.2,0,0.5,0,0.7c0.2,0.4,0.3,0.9,0.4,1.3c0.1,0.2,0.1,0.5,0.2,0.7
	c0.2,0.3,0.3,0.1,0.6,0.1l0.4,0.7c-0.2,0.1-0.1,0.1-0.3,0c-0.2-0.2-0.5-0.3-0.7-0.3c-0.3,0-1.7,0.5-2.1,0.6
	c-0.2,0.1-0.3,0.1-0.5,0.2c-0.1,0-0.5,0.2-0.5,0.1c-0.1-0.3,0.6,0.1,0.3-0.8l-0.6-1.9c-0.1-0.4-0.2-0.5-0.7-0.4l0-0.1
	c0.1-0.1,0.6-0.2,0.8-0.3c0.1,0,0.3-0.1,0.4-0.1c0.1,0,0.3-0.1,0.4-0.1c0.1,0.1,0,0.1-0.1,0.2c-0.3,0.2-0.2,0.5-0.1,0.7
	c0.1,0.3,0.2,0.7,0.3,1c0.5,1.4,0.3,1.4,1.3,1.1c0.5-0.2,0.8-0.2,0.7-0.6c-0.1-0.3-0.2-0.7-0.3-1c-0.1-0.2-0.4-1.3-0.5-1.5
	C53.3,36.9,53,37,52.9,37z M60.6,44.8c0.1-0.1,0.1,0,0.2,0l0.5,0.1c0.2,0,0.2,0,0.2,0.1c-0.2,0.1-0.2-0.1-0.3,0.2
	c0,0.2-0.1,0.3-0.1,0.5c0.1,0,0.7-0.3,0.8-0.4c0.1-0.2-0.1-0.2-0.1-0.3l0.6,0.1c0.2,0,0.1,0,0.1,0.1c-0.1,0-0.2,0-0.5,0.1
	c-0.1,0.1-0.3,0.2-0.4,0.2l0.5,1c0.1,0.1,0.2,0.2,0.2,0.3c-0.1,0-0.8-0.1-0.8-0.2c0.1-0.1,0.1,0,0.2,0c0.1-0.2-0.3-0.7-0.3-0.9
	c-0.2,0.1-0.2,0.1-0.2,0.3c-0.2,0.7,0,0.3,0.1,0.6l-0.4-0.1c-0.1,0-0.4-0.1-0.4-0.1c0,0,0,0,0,0l0.2,0c0.1,0,0.2-0.4,0.2-0.6
	c0.1-0.2,0.2-0.7,0.2-0.9L60.6,44.8z M37.1,56.2c-0.3,0-0.4,0-0.7,0c-0.2,0-1-0.2-1,0.1c0,0.5,0.5,0.2,0.9,0.5
	c0.3,0.2,0.4,0.5,0.4,0.9v4.7c0,0.4-0.1,0.6-0.3,0.8c-0.3,0.3-0.6,0.1-0.6,0.5c0,0.3,0.6,0.2,0.9,0.2c2.3,0,4.7,0,6.9,0
	c0.4,0,0.2,0.2,0,0.4c-0.1,0.1-0.2,0.2-0.3,0.3c-0.4,0.3-1.6,1.4-1.6,2c0,0.3,0.5,0.1,0.9,0.2c0.2,0,0.4,0.1,0.6,0
	c0.1-0.1,0.2-0.5,0.3-0.7c0.3-0.8,0.6-1.4,1.2-2c0.5-0.5,0-0.9-0.2-0.9c-0.2,0-0.8,0.4-1.1-0.1C43.1,63,43,62.8,43,62.6v-5
	c0-1.2,0.9-0.9,0.9-1.2c0-0.4-0.2-0.3-0.8-0.2l-1,0.1c-0.3,0-0.4,0-0.7,0c-0.5,0-1-0.2-1,0.2c0,0.2,0.3,0.2,0.4,0.2
	c0.5,0.1,0.9,0.4,0.9,1v5.1c0,0.3-0.2,0.6-0.5,0.6h-2.6c-0.3,0-0.5-0.3-0.5-0.6v-5.3c0-0.2,0.1-0.4,0.2-0.6c0,0,0,0,0.1-0.1
	c0,0,0,0,0,0c0.1-0.1,0.2-0.2,0.4-0.2c0.4-0.1,0.3-0.5,0-0.5L37.1,56.2z M36.4,56.6c0.2,0.1,0.4,0.2,0.5,0.3
	c0.1,0.2,0.2,0.4,0.2,0.7v4.9c0,0.6-0.2,0.9-0.6,1.1c0-0.1,0.2-0.2,0.3-0.5c0.1-0.2,0.1-0.4,0.1-0.7v-4.9c0-0.3-0.1-0.6-0.3-0.8
	C36.5,56.7,36.4,56.7,36.4,56.6z M41.4,56.6c0.5,0.1,0.7,0.6,0.7,1.2v4.6c0,0.3,0,0.6-0.1,0.8c-0.1,0.2-0.3,0.4-0.5,0.4
	c0.2-0.2,0.3-0.2,0.4-0.6c0.1-0.3,0-4.4,0-4.9c0-0.4,0-0.6,0-0.9C41.8,56.8,41.5,56.7,41.4,56.6z M43.3,64.8L43.3,64.8L43.3,64.8z
	 M75.8,56.4c0,0.5,1.2-0.1,1.2,1.3v4.7c0,0.2,0,0.4-0.1,0.5c-0.1,0.3-0.3,0.4-0.6,0.6c-0.2,0.1-0.3,0.1-0.3,0.4
	c0,0.3,0.9,0.1,1.6,0.1c1.7,0,4.3,0.7,5-1.7c0.4-1.3-0.5-2.6-1.7-2.6c0,0,0,0,0,0l0.4-0.2c1.2-0.7,1.2-3.3-1.8-3.3c-0.4,0-0.7,0-1,0
	c-0.2,0-0.3,0-0.5,0c-0.5,0-0.5,0.1-1,0c-0.2,0-0.4,0-0.5,0l-0.5,0C75.9,56.2,75.8,56.2,75.8,56.4z M80.1,56.6
	c0.6,0.1,1.3,0.8,1.3,1.5c0,0.4-0.1,1-0.5,1.2c0-0.2,0.4-0.5,0.2-1.4c-0.1-0.2-0.1-0.3-0.2-0.5C80.5,56.8,80.2,56.8,80.1,56.6
	C80,56.5,80.2,56.8,80.1,56.6L80.1,56.6z M76.9,56.7c0.6,0.1,0.6,1,0.6,1.4l0,4c0,0.2,0,0.7-0.1,0.9c-0.1,0.3-0.2,0.5-0.5,0.5
	c0.1-0.2,0.2-0.2,0.3-0.6c0.1-0.4,0-4,0-4.6c0-0.5,0.1-0.9-0.1-1.2C77,56.8,77,56.8,76.9,56.7 M79.8,59.6c-1.7,0-1.5,0.1-1.5-1.8
	c0-0.7,0-1.1,0.7-1.1c1,0,1.8,0.7,1.8,1.7C80.8,59.1,80.6,59.6,79.8,59.6z M80.5,60.2c0.2,0,0.4,0.1,0.5,0.2c1.2,0.7,1,2.2,0.1,2.9
	c-0.2,0.1-0.3,0.2-0.5,0.3c0-0.1,0.3-0.2,0.6-0.6c0.4-0.6,0.4-1.5,0-2.1c-0.2-0.2-0.4-0.4-0.6-0.5C80.6,60.2,80.6,60.2,80.5,60.2
	L80.5,60.2z M54.2,56.4c0,0.5,0.9,0.2,1.2,0.5c0.3,0.2,0.1,1,0.1,1.3c-0.1,1-0.6,4-1.2,4.7c-0.5,0.5-0.9-0.5-1.2-0.5
	c-0.4,0-0.4,0.7-0.4,1c0,0.5,0.3,0.7,0.8,0.7c0.2,0,0.5-0.1,0.6-0.1c0.2-0.1,0.3-0.2,0.4-0.3c0.1-0.1,0.2-0.2,0.3-0.4
	c0.3-0.6,0.5-1,0.6-1.7c0.2-0.6,0.4-1.9,0.5-2.5c0.1-0.5,0.1-0.9,0.2-1.3c0.2-1.2,0.2-1,1.7-1c0.3,0,0.5,0.3,0.5,0.5v5.4
	c0,0.8-0.8,0.7-0.9,1c-0.1,0.4,0.6,0.2,0.8,0.2c0.2,0,0.5,0,0.7,0c0.4,0,1.1,0,1.5,0.1c0.1,0,0.4,0.1,0.5-0.1c0,0,0.1-0.1,0.1-0.1
	c0-0.4-0.7-0.1-1-0.6c-0.1-0.1-0.2-0.3-0.2-0.6c0-0.3,0-0.5,0-0.8V58c0-0.4,0-0.8,0.2-1c0.5-0.5,0.7-0.1,0.7-0.7
	c0-0.1-0.1-0.1-0.2-0.1h-6.1C54.4,56.2,54.2,56.3,54.2,56.4z M58.3,56.6c0.5,0.1,0.7,0.4,0.7,1v4.7c0,0.7-0.1,1-0.6,1.3
	c0-0.1,0.1-0.2,0.2-0.3c0.2-0.3,0.2-0.8,0.2-1.2v-4.6c0-0.3-0.1-0.7-0.3-0.8C58.4,56.7,58.3,56.7,58.3,56.6z M88.8,56.5
	C88.7,56.5,88.8,56.5,88.8,56.5C88.9,56.5,88.8,56.5,88.8,56.5z M88.8,56.5c0.5,0,1.3,0.7,1.6,1.1c1.1,1.4,1.1,3.8,0.1,5.2
	c-0.1,0.2-0.5,0.6-0.8,0.6l0.2-0.2c0.4-0.3,0.7-0.8,0.8-1.3c0.4-1.3,0.2-3-0.6-4.2c-0.1-0.1-0.2-0.3-0.3-0.4
	C89.1,56.5,89,56.7,88.8,56.5 M86.9,63.9c-0.3-0.2-0.4-0.1-1-0.5c-0.1,0-0.2-0.1-0.2-0.2C84,62,83.8,59.6,84.8,58
	c0.2-0.3,0.5-0.7,0.8-0.9c0,0.1-0.3,0.3-0.4,0.5c-0.3,0.4-0.4,0.6-0.5,1.1c-0.3,0.8-0.3,2.2,0.1,3c0.5,1,1,1.5,1.9,2
	C86.7,63.8,86.8,63.8,86.9,63.9C86.9,63.9,86.9,63.8,86.9,63.9z M92.2,59.7v0.6c0,0.6-0.2,1.1-0.4,1.6c-0.4,0.9-1.2,1.6-2.1,1.9
	c-0.2,0.1-0.5,0.2-0.8,0.2c-0.1,0-0.3,0.1-0.4,0.1c-0.2,0-0.3,0-0.5,0c-0.6,0-1.1-0.1-1.7-0.3c-0.5-0.2-0.7-0.4-1.1-0.7
	C85,63,85,63,84.8,62.8c-0.6-0.7-0.9-1.7-0.9-2.7c0-1.2,0.6-2.4,1.6-3.2c1.5-1.2,4-1.2,5.4,0.1c0.3,0.3,0.3,0.3,0.6,0.6
	C91.9,58.2,92.2,59,92.2,59.7z M61.6,56.4c0,0.4,0.4,0.2,0.8,0.4c0.2,0.1,0.4,0.5,0.4,0.8v4.8c0,0.3-0.1,0.6-0.3,0.8
	c-0.3,0.3-0.6,0.2-0.6,0.5c0,0.3,0.4,0.2,0.7,0.2c0.1,0,0.3,0,0.5,0l1,0l2,0.1c0.9,0,1.4-0.4,1.6-1.1c0.4-1.1,0-1-0.2-0.9
	c-0.3,0.4-0.3,0.7-1.2,1.1c-0.1,0.1-0.2,0.1-0.4,0.1c-0.3,0.1-0.6,0.1-1,0.1c-0.5,0-0.8-0.1-0.8-0.6v-2.3c0-0.5,0.5-0.4,1.2-0.4
	c0.3,0,0.6,0.1,0.7,0.4c0.2,0.4,0.1,0.8,0.4,0.8c0.2,0,0.2-0.1,0.2-0.2c0-0.2,0-0.4,0-0.6c0-0.2,0-0.5,0-0.7
	c-0.1-0.4,0.2-1.2-0.1-1.2c-0.6,0-0.1,1-1.6,1c-0.3,0-0.7,0.1-0.7-0.4v-1.9c0-0.4,0.4-0.5,0.9-0.5c2.8,0,1.4,1.5,2.3,1.2
	c0.1-0.3,0-1.1,0-1.4c0-0.6-0.5-0.3-1.3-0.3c-0.2,0-0.2,0-0.4,0c-0.1,0-0.3,0-0.5,0c-0.4,0-1.7,0.1-2.1,0l-0.8,0
	c-0.2,0-0.4-0.1-0.6,0C61.7,56.2,61.6,56.3,61.6,56.4z M67.1,57.2C67,57.1,67,57,66.9,56.9c-0.1-0.1-0.4-0.2-0.6-0.3
	c-0.1,0-0.2,0-0.3-0.1C66.7,56.6,67.1,56.5,67.1,57.2z M62.8,63.5c0.1-0.2,0.2-0.3,0.3-0.6c0.1-0.2,0.1-0.6,0.1-0.9
	c0-0.7,0-4.2,0-4.7c0-0.1-0.1-0.3-0.1-0.4c-0.1-0.1-0.1-0.2-0.2-0.3c0.6,0.1,0.6,0.9,0.6,1.4c0,0.8,0.1,4.4-0.1,4.9
	C63.2,63.2,63.1,63.4,62.8,63.5z M65.7,59.8c0.3-0.1,0.3-0.3,0.5-0.3c0,0.1,0,0.2,0,0.3c0,0.1,0,0.1,0,0.3
	C66,60,65.9,59.9,65.7,59.8L65.7,59.8z M65.8,63.6c0.1-0.1,0.3-0.1,0.5-0.2c0.9-0.3,0.9-0.6,1.2-0.8c0,0.2-0.2,0.4-0.3,0.6l0,0
	C66.8,63.6,66.3,63.6,65.8,63.6z M68.7,56.4c0,0.4,0.5,0.2,0.8,0.4c0.3,0.2,0.4,0.4,0.4,0.8v4.9c0,0.2,0,0.3-0.1,0.5
	c-0.1,0.2-0.2,0.3-0.2,0.3c-0.2,0.2-0.4,0.2-0.6,0.3C68.9,63.7,69,64,69.3,64l0.9-0.1c0.2,0,0.3,0,0.5,0c0.2,0,0.3,0,0.5,0l2,0.1
	c0.9,0,1.4-0.5,1.7-1.3c0.3-0.8-0.1-0.8-0.2-0.7c0,0-0.1,0.1-0.1,0.2c-0.2,0.3-0.4,0.6-0.8,0.8c-0.4,0.2-1,0.4-1.7,0.4
	c-0.5,0-0.8-0.1-0.8-0.6v-2.4c0-0.5,0.5-0.3,1.1-0.3c1.2,0,0.7,1.2,1.2,1.2c0.3,0,0.2-0.4,0.1-0.9c0-0.5-0.1-0.9,0-1.4
	c0-0.1,0-0.2,0-0.3c-0.1-0.3-0.4-0.2-0.5,0.1c-0.3,0.7-0.6,0.7-1.5,0.7c-0.2,0-0.5-0.1-0.5-0.3v-2c0-0.7,1.9-0.4,2.3-0.2
	c0.2,0.1,0.3,0.3,0.4,0.5c0.1,0.3,0,0.6,0.3,0.6c0.1,0,0.1-0.1,0.1-0.1v-1.3c0-0.5-0.6-0.3-1.4-0.3c-0.2,0-0.2,0-0.4,0
	c-0.4,0-2.2,0.1-2.5,0l-1.1-0.1C68.9,56.2,68.7,56.2,68.7,56.4z M73.1,56.6c0.6,0,1.1-0.1,1.1,0.6c-0.1-0.1-0.1-0.2-0.4-0.4
	C73.4,56.6,73.2,56.6,73.1,56.6z M69.8,63.5c0.2-0.2,0.2-0.3,0.3-0.6c0.1-0.5,0.1-5.2,0-5.5c-0.1-0.4-0.2-0.4-0.3-0.6
	c0.2,0.1,0.4,0.3,0.5,0.5c0.1,0.5,0.1,2.3,0.1,2.9c0,0.7,0,1.3,0,2c0,0.3,0,0.7-0.1,0.9C70.2,63.2,70.1,63.4,69.8,63.5z M73.2,59.4
	c0,0.2,0,0.4,0,0.6c-0.1,0-0.2-0.1-0.2-0.1c-0.1-0.1-0.2-0.1-0.3-0.1c0.1-0.1,0.2-0.1,0.3-0.2C73.1,59.6,73.1,59.5,73.2,59.4z
	 M72.8,63.6c0.1-0.1,0.3-0.1,0.5-0.2c0.5-0.1,0.9-0.4,1.2-0.8c0,0.3-0.3,0.6-0.6,0.8C73.7,63.6,73.3,63.6,72.8,63.6z M45.3,56.4
	c0,0.3,0.6,0.1,1,0.5c0.3,0.2,0.3,0.7,0.3,1.2v4.1c0,1.6-1,1.1-1,1.6c0,0.1,0,0.1,0.1,0.2c0.1,0.1,0.4,0.1,0.6,0.1l1.4-0.1l2,0.1
	c0.6,0,1-0.2,1.3-0.5c0.2-0.2,0.9-1.6,0.3-1.6c-0.2,0-0.3,0.4-0.7,0.8c-0.1,0.1-0.2,0.2-0.3,0.2c-0.5,0.3-1.9,0.6-2.3,0.3
	C48,63.1,48,62.9,48,62.6c0-0.4-0.1-2.2,0.1-2.4c0.1-0.2,0.7-0.1,1.1-0.1c0.4,0,0.6,0.1,0.8,0.4c0.3,0.5,0,0.8,0.4,0.8
	c0.1,0,0.2-0.1,0.2-0.2c0,0,0-0.3,0-0.4c-0.1-0.6,0-1.9,0-2c0,0,0-0.1,0-0.1c-0.2-0.2-0.3,0.1-0.4,0.2c-0.3,0.7-0.6,0.7-1.5,0.7
	c-0.3,0-0.5-0.1-0.5-0.4v-1.9c0-0.5,0.5-0.5,0.9-0.5c2.7,0,1.3,1.5,2.2,1.2c0.1-0.1,0.1-0.3,0-0.6c-0.1-0.9,0.3-1.2-0.6-1.2
	c-0.2,0-0.2,0-0.6,0c-0.2,0-0.4,0-0.6,0c-0.4,0-2.1,0.1-2.4,0l-0.9,0c-0.1,0-0.1,0-0.3,0c-0.1,0-0.2,0-0.3,0.1
	C45.4,56.3,45.3,56.4,45.3,56.4z M49.7,56.6c0.5,0,1.1-0.1,1.1,0.7c-0.2-0.1-0.1-0.4-0.9-0.6L49.7,56.6z M46.5,56.7
	c0.2,0.1,0.4,0.3,0.5,0.5c0.1,0.4,0.1,2.4,0.1,2.9c0,0.6,0.1,2.4-0.1,2.9c-0.1,0.2-0.2,0.5-0.5,0.5c0.1-0.2,0.2-0.2,0.3-0.6
	c0.1-0.5,0.1-3.9,0.1-4.7c0-0.3,0-0.6,0-0.9C46.8,56.9,46.6,56.8,46.5,56.7 M49.4,59.8c0.1,0,0.2-0.1,0.3-0.2c0.1-0.1,0-0.1,0.1-0.1
	c0,0.2,0,0.4,0,0.6c-0.1,0-0.2-0.1-0.3-0.1C49.3,59.8,49.4,59.9,49.4,59.8z M59.1,68.3c-0.2,0-0.6-0.1-0.8,0c0,0.3,0.5,0,0.5,0.5
	c-0.3,0-0.7-0.2-1.3,0.3c-0.1,0.1-0.2,0.2-0.3,0.4c-0.2,0.4-0.1,1.1,0.2,1.4c0.4,0.3,0.8,0.3,1.4,0.3c0,0.1,0,0.3-0.1,0.4
	c-0.1,0.2-0.3,0-0.3,0.2c0,0.1,0.2,0.1,0.3,0.1c0.8-0.1,1.1,0.1,1.2-0.1c0,0,0.1-0.1-0.1-0.1c-0.1,0-0.2,0-0.3-0.1
	c-0.1-0.1-0.2-0.2-0.2-0.4c0.6,0,1.3,0,1.6-0.7c0.4-0.7-0.1-1.6-1.1-1.6c-0.2,0-0.4,0.1-0.5,0.1c0-0.5,0.4-0.3,0.4-0.5
	C59.9,68.2,59.5,68.3,59.1,68.3z M58.9,71.6c0.1-0.3,0.1-0.1,0.1-0.7l0-2.1c0-0.2-0.1-0.2-0.1-0.3c0.3,0.1,0.2,1,0.2,1.5
	C59.1,70.5,59.2,71.4,58.9,71.6z M60.2,69.1L60.2,69.1C60.3,69.1,60.2,69.1,60.2,69.1z M57.8,69.2L57.8,69.2
	C57.8,69.2,57.8,69.2,57.8,69.2z M60.5,70.7c0.1-0.2,0.2-0.2,0.2-0.9c0-0.2-0.1-0.3-0.1-0.4c-0.1-0.1-0.1-0.2-0.2-0.3
	c0.2,0.1,0.4,0.4,0.5,0.7C60.8,70.2,60.7,70.6,60.5,70.7z M57.6,70.8c-0.4-0.3-0.4-1.4,0.2-1.6c-0.1,0.1-0.1,0-0.1,0.1
	c-0.3,0.3-0.3,0.8-0.2,1.2C57.5,70.7,57.6,70.7,57.6,70.8z M59.5,69.1c0.8-0.2,1.2,0.6,1,1.2c-0.1,0.2-0.1,0.3-0.3,0.4
	c-0.1,0.1-0.4,0.2-0.7,0.2c-0.1,0-0.1,0.1-0.1-0.4C59.5,70.1,59.5,69.6,59.5,69.1z M57.8,70c0-0.5,0.3-0.9,0.8-0.9
	c0.1,0,0.3,0,0.3,0.1v1.7C58.9,71.1,57.8,71.1,57.8,70z M60.4,70.8L60.4,70.8C60.5,70.8,60.5,70.8,60.4,70.8z M57.6,70.8L57.6,70.8
	L57.6,70.8z M57.6,70.8L57.6,70.8L57.6,70.8z M60.4,70.8L60.4,70.8L60.4,70.8z M57.7,70.9L57.7,70.9L57.7,70.9z M60.4,70.8
	L60.4,70.8L60.4,70.8z M57.7,70.9L57.7,70.9L57.7,70.9z M65.4,68.5c0,0.2,0.5,0.1,0.5,0.5c0,0.3,0,0.3-0.4,0.6
	c-0.1,0.1-0.1,0.1-0.2,0.2l-0.9,0.9c-0.1,0,0,0.1-0.1,0.1c0-0.3,0-1.7,0-1.8c0.1-0.2,0.3-0.1,0.3-0.3c0-0.2-0.7,0-1.2-0.1
	c-0.2,0-0.3,0-0.3,0.1c0,0.1,0.1,0.1,0.1,0.1c0.1,0,0.1,0,0.2,0.1c0.1,0.1,0.2,0.2,0.2,0.3v2.2c0,0.5-0.5,0.2-0.4,0.6
	c0.4,0,0.9-0.1,1.3,0c0.3,0,0.2-0.1,0.2-0.1c0,0,0.1-0.1-0.1-0.1c-0.1,0-0.2,0-0.3-0.1c-0.2-0.1-0.2-0.3-0.2-0.5
	c0-0.1,0.7-0.6,0.8-0.8c0.2-0.2,0.7-0.6,0.8-0.8c0,0.2,0.1,1.8,0,1.9c-0.1,0.2-0.2,0.1-0.3,0.2c-0.1,0.1,0,0.1,0,0.2
	c0.1,0,0,0,0.1,0c0,0,0.2,0,0.2,0c0.3,0,0.5,0,0.9,0c0.1,0,0.3,0,0.3-0.1c0-0.3-0.6,0.2-0.6-0.7v-1.9c0-0.7,0.4-0.4,0.4-0.7
	c0-0.1-0.1-0.1-0.2-0.1c-0.3,0-0.6,0-0.9,0C65.8,68.4,65.4,68.3,65.4,68.5z M65.9,68.6c0.1,0,0.2,0.2,0.2,0.3c0.1,0.4,0,1.5,0,1.9
	c0,0.3,0,0.8-0.3,0.9c0.1-0.2,0.2-0.2,0.2-0.5V69C66.1,68.8,66,68.8,65.9,68.6z M63.7,68.7L63.7,68.7L63.7,68.7z M63.7,71.6
	c0-0.1,0.1-0.2,0.1-0.3l0-2c0-0.3,0-0.5-0.1-0.7c0.2,0.1,0.2,0.5,0.2,0.7V71C63.9,71.1,63.9,71.5,63.7,71.6z M63.7,71.6L63.7,71.6
	L63.7,71.6z M69,68.5c0,0.2,0.5,0,0.5,0.5v2.3c0,0.1-0.1,0.2-0.2,0.3c-0.1,0.1-0.2,0.1-0.2,0.2c0.2,0.1,0.2,0,0.6,0h0.4
	c0.2,0,0.6,0.1,0.6-0.1c0-0.3-0.6,0.1-0.6-0.7v-2c0-0.2,0.1-0.4,0.3-0.4h1c0.2,0,0.3,0.1,0.3,0.4v2.2c0,0.6-0.4,0.4-0.4,0.6
	c0,0.2,0.3,0.1,0.6,0.1c0.3,0,0.5,0,0.7,0c0.1,0,0.2,0,0.2-0.1c0-0.1-0.2-0.1-0.3-0.2c-0.1-0.1-0.2-0.2-0.2-0.3v-2.3
	c0-0.3,0.3-0.3,0.4-0.4c0-0.1,0-0.1-0.1-0.1h-3.5C69.1,68.4,69,68.4,69,68.5z M69.6,68.7L69.6,68.7L69.6,68.7z M69.6,68.7
	c0.2,0.1,0.2,0.5,0.2,0.7V71c0,0.3,0,0.5-0.2,0.7c0-0.2,0.1-0.2,0.1-0.7l0-1.6C69.7,69,69.7,68.9,69.6,68.7z M71.9,68.7L71.9,68.7
	L71.9,68.7z M71.9,68.7c0.2,0.2,0.1,1.1,0.1,1.5c0,0.3,0,0.5,0,0.8c0,0.2,0,0.5-0.2,0.6c0.1-0.2,0.1-0.1,0.1-0.7l0-1.9
	C71.9,68.9,71.9,68.8,71.9,68.7 M71.8,71.6L71.8,71.6L71.8,71.6z M57.7,75.9c0-0.3,0-0.7,0-0.9c0-0.1,0.1-0.2,0.2-0.3
	c0.2-0.1,0.2,0,0.2-0.3c-0.2-0.1-0.5,0-0.8,0c-0.2,0-0.3,0-0.4,0c-0.2,0-0.3-0.1-0.3,0.1c0,0.2,0.5,0,0.5,0.5v2.4
	c0,0.4-0.5,0.2-0.4,0.5l0.8,0c0.3,0,0.9,0.1,0.8-0.1c0-0.1-0.1-0.1-0.1-0.1c-0.4-0.1-0.4-0.2-0.4-0.7c0-0.3,0-0.5,0-0.8
	c0.1,0,0.1,0,0.2,0c0.9,0.3,0.8,1.7,1.7,1.7c0.2,0,0.6,0,0.6-0.2c0-0.1-0.2-0.1-0.3-0.2c-0.3-0.1-0.5-0.7-0.8-1.1
	c-0.2-0.2-0.6-0.5-0.9-0.5c0,0,0,0,0,0c0,0,0,0,0.1,0c0.1-0.1,0.2-0.1,0.3-0.2c0.4-0.4,0.4-0.5,0.6-0.8c0.2-0.2,0.2-0.1,0.5-0.1
	c0.4,0,0.2-0.6-0.3-0.6c-0.5,0-0.5,1.2-1.3,1.5C58,75.9,57.8,75.9,57.7,75.9z M59.1,74.7c0.1-0.2,0.4-0.3,0.5-0.1
	c-0.1,0.1-0.1,0-0.3,0C59.2,74.6,59.2,74.7,59.1,74.7z M57.2,74.7L57.2,74.7L57.2,74.7z M57.2,74.7c0.1,0,0.1,0.1,0.2,0.2
	c0,0.1,0,1.8,0,2.1c0,0.3,0,0.5-0.2,0.7c0-0.1,0.1-0.2,0.1-0.7c0-0.4,0-1.9,0-2.2C57.2,74.7,57.2,74.8,57.2,74.7z M58.4,76.3
	L58.4,76.3C58.4,76.3,58.4,76.3,58.4,76.3z M58.5,76.4c0.1,0,0.1,0.1,0.2,0.1c0.2,0.2,0.2,0.4,0.4,0.6c0.2,0.3,0.2,0.5,0.5,0.7
	c-0.3,0-0.5-0.5-0.6-0.7c-0.1-0.1-0.1-0.3-0.2-0.4c0-0.1-0.1-0.1-0.1-0.2C58.5,76.5,58.5,76.4,58.5,76.4 M53.4,36.9
	c0.3-0.2,0.4,0.3,0.5,0.6l0.6,1.7c0.1,0.3,0.3,0.6-0.1,0.7c0.1-0.3,0-0.5-0.1-0.8c-0.1-0.3-0.2-0.5-0.2-0.7l-0.4-1.2
	C53.5,37,53.5,37,53.4,36.9z M51.2,37.6c0.4-0.1,0.4,0.3,0.5,0.6c0.1,0.3,0.2,0.6,0.3,0.8c0.1,0.3,0.2,0.6,0.3,0.8
	c0.1,0.3,0.3,0.6-0.1,0.7c0.2-0.2,0-0.5-0.1-0.8c-0.1-0.3-0.2-0.5-0.3-0.8l-0.4-1.1C51.4,37.7,51.3,37.7,51.2,37.6z M61.1,74.5
	c0,0.3,0.6,0,0.6,0.4c0,0.4-0.3,2.5-0.7,2.5c-0.2,0-0.2-0.2-0.5-0.3c-0.2,0.2-0.2,0.8,0.1,0.8c0.4,0,0.6-0.1,0.8-0.5
	c0.4-0.7,0.4-1.7,0.6-2.4c0.1-0.4,0.1-0.3,0.6-0.3c0.2,0,0.3,0.1,0.3,0.2v2.4c0,0.5-0.5,0.2-0.4,0.6c0.5,0,0.7-0.1,1.2,0
	c0.1,0,0.3,0,0.3-0.1c0-0.3-0.6,0.1-0.6-0.7v-2c0-0.3,0.1-0.4,0.4-0.5v-0.2c-0.3-0.1-2.3,0-2.8,0C61.2,74.4,61.1,74.5,61.1,74.5z
	 M63.1,77.6c0.1-0.3,0.1-0.2,0.1-0.7l0-2c0-0.2-0.1-0.2-0.1-0.3c0.2,0.1,0.2,0.3,0.2,0.6l0,2.1c0,0,0,0.1,0,0.1L63.1,77.6z
	 M63.1,77.6L63.1,77.6L63.1,77.6z M60.7,77.8c-0.1,0-0.1,0,0-0.4h0.1C60.7,77.5,60.7,77.7,60.7,77.8z M78.2,68.4c0,0.1,0,0.1,0,0.1
	c0,0.3,0.6,0,0.6,0.4c0,0.3-0.2,1.5-0.3,1.8c-0.4,1.2-0.5,0.5-0.8,0.4c-0.1,0.1-0.3,0.8,0.3,0.8c0.2,0,0.3-0.1,0.4-0.2
	c0.5-0.5,0.7-2,0.8-2.8c0.1-0.4,0.1-0.3,0.7-0.3c0.2,0,0.3,0.1,0.3,0.2v2.4c0,0.3-0.4,0.2-0.4,0.5c0.2,0.1,0.3,0,0.7,0h0.4
	c0.2,0,0.6,0.1,0.6-0.1c0-0.3-0.6,0.1-0.6-0.7v-2c0-0.7,0.4-0.4,0.4-0.7c0-0.1,0-0.1-0.1-0.1C80.7,68.4,78.4,68.4,78.2,68.4z
	 M80.1,71.7c0-0.2,0.1-0.2,0.1-0.7c0-0.3,0-1.9,0-2.1c0-0.2-0.1-0.2-0.2-0.3c0.2,0.1,0.2,0.3,0.2,0.6V71
	C80.3,71.3,80.3,71.5,80.1,71.7z M77.7,71.7c-0.1,0-0.1,0,0-0.4h0.1C77.8,71.5,77.8,71.6,77.7,71.7z M50.2,68.4
	c0,0.1-0.1,0.2,0.3,0.3c0.2,0,0.3,0.1,0.3,0.2c0,0.4-0.3,2.6-0.7,2.6c-0.2,0-0.2-0.3-0.5-0.3c-0.1,0.2-0.3,0.8,0.3,0.8
	c0.7,0,1-1.3,1.1-1.9c0.1-0.3,0.1-0.6,0.2-1c0.1-0.4,0.1-0.3,0.7-0.3c0.2,0,0.3,0.1,0.3,0.2v2.4c0,0.3-0.3,0.3-0.4,0.4
	c0.1,0.2,0.1,0.1,0.7,0.1h0.4c0.2,0,0.6,0.1,0.6-0.1c0-0.3-0.6,0.1-0.6-0.7v-2c0-0.6,0.4-0.4,0.4-0.6c0-0.1,0-0.1-0.1-0.1
	C52.7,68.4,50.4,68.4,50.2,68.4z M52.1,71.7c0-0.1,0.1-0.1,0.1-0.3c0.1-0.2,0-1.7,0-2.1c0-0.6,0-0.4-0.2-0.7
	c0.2,0.1,0.2,0.3,0.2,0.6V71C52.3,71.3,52.3,71.5,52.1,71.7z M49.7,71.7c-0.1,0-0.1,0-0.1-0.2c0-0.1,0-0.2,0-0.2h0.1
	C49.7,71.5,49.8,71.6,49.7,71.7z M68.2,74.5c0,0.2,0.3,0.1,0.4,0.2c0.1,0.1,0.1,0.3,0.1,0.5v1.8c0,0.8-0.5,0.4-0.4,0.8
	c0.3,0,0.5,0,0.8,0c0.2,0,0.2,0,0.4,0c0.5,0,1,0,1.4-0.3c0.5-0.5,0.4-1.7-0.6-1.7l-0.7,0c-0.2,0-0.2,0-0.2-0.2v-0.9
	c0-0.4,1-0.2,1.1-0.2c0.3,0.2,0.1,0.5,0.3,0.5c0.1,0,0.1-0.3,0.1-0.7c0-0.2-0.4-0.1-0.7-0.1c-0.3,0-0.5,0-0.8,0l-1,0
	C68.3,74.4,68.2,74.4,68.2,74.5z M70.3,74.6c0.2,0,0.4,0,0.4,0.3C70.6,74.7,70.8,74.8,70.3,74.6C70.3,74.6,70.4,74.6,70.3,74.6z
	 M68.8,74.7L68.8,74.7L68.8,74.7z M68.8,74.7c0.1,0,0.1,0.1,0.2,0.3l0,2.1c0,0.3,0,0.6-0.2,0.6c0.1-0.1,0.1-0.1,0.1-0.3
	c0-0.1,0-0.2,0-0.4l0-1.6C68.9,75,68.9,74.9,68.8,74.7 M70.3,76.2L70.3,76.2C70.3,76.2,70.3,76.2,70.3,76.2z M70.5,77.6
	c0.1-0.1,0.1-0.2,0.2-0.3c0.1-0.2,0.1-0.5-0.1-0.8c-0.1-0.2-0.2-0.2-0.2-0.3c0.3,0.1,0.7,0.6,0.3,1.2C70.6,77.5,70.6,77.5,70.5,77.6
	z M69.4,77.2c0-0.3,0-0.7,0-1c0.4-0.2,1.2,0,1.2,0.6V77c0,0.3-0.3,0.6-0.5,0.6C69.6,77.7,69.4,77.7,69.4,77.2z M70.5,77.6L70.5,77.6
	L70.5,77.6z M75.1,71.9c0.6,0,1.1-0.1,1.5-0.5c1-1.1,0.5-3.1-1.3-3.1c-0.6,0-0.9,0.2-1.3,0.5L73.7,69c-0.1,0.1-0.1,0.2-0.2,0.3
	c-0.2,0.4-0.3,1-0.1,1.5C73.7,71.5,74.3,71.9,75.1,71.9z M75.7,68.6L75.7,68.6C75.7,68.6,75.7,68.6,75.7,68.6z M75.8,68.7L75.8,68.7
	L75.8,68.7z M76.2,71.4c0-0.2,0.4-0.4,0.3-1.5c0-0.2-0.1-0.5-0.2-0.7c-0.1-0.1-0.1-0.2-0.2-0.3c-0.1-0.1-0.2-0.1-0.2-0.2
	c0.1,0,0.2,0.1,0.3,0.2c0.5,0.4,0.6,1.3,0.5,1.9C76.5,71,76.4,71.3,76.2,71.4z M74,68.9L74,68.9L74,68.9z M74,68.9L74,68.9L74,68.9z
	 M73.9,69L73.9,69L73.9,69z M73.9,69.1L73.9,69.1L73.9,69.1z M73.8,69.1L73.8,69.1L73.8,69.1z M74.5,71.7c-0.3,0-0.8-0.6-0.9-1
	c-0.1-0.3-0.1-0.5,0-0.8c0-0.2,0.2-0.6,0.3-0.7c-0.1,0.3-0.1,0.2-0.2,0.7c-0.1,0.8,0.2,1.3,0.7,1.7L74.5,71.7z M75.1,68.6
	c0.5,0,0.8,0.2,1,0.5c0.4,0.6,0.7,2.5-0.9,2.5c-0.7,0-1.1-0.8-1.2-1.5c0-0.2,0-0.3,0-0.6C74.2,69,74.5,68.6,75.1,68.6z M76.2,71.4
	L76.2,71.4L76.2,71.4z M76.2,71.4L76.2,71.4L76.2,71.4z M76.1,71.5L76.1,71.5L76.1,71.5z M76.1,71.5L76.1,71.5L76.1,71.5z M76,71.6
	L76,71.6C76,71.6,76,71.6,76,71.6z M74.5,71.7L74.5,71.7L74.5,71.7z M81.6,70c0,0.5,0,0.8,0.3,1.2c0,0.1,0,0.1,0.1,0.1
	c0.4,0.5,0.9,0.6,1.5,0.6c1,0,1.8-0.8,1.8-1.8c0-0.6-0.1-1-0.5-1.4c-0.8-0.8-2.5-0.6-3,0.5C81.7,69.5,81.6,69.8,81.6,70z M83.9,68.6
	L83.9,68.6C83.9,68.6,83.9,68.6,83.9,68.6z M84,68.6L84,68.6C84,68.6,84,68.6,84,68.6z M84.5,71.3c0-0.1,0.1-0.2,0.1-0.3
	c0-0.1,0.1-0.2,0.1-0.4c0-0.3,0-0.6,0-0.9c-0.1-0.8-0.6-1-0.7-1.1c0.4,0.1,0.7,0.7,0.8,1.1C84.9,70.3,84.8,71.1,84.5,71.3z M82.2,69
	L82.2,69L82.2,69z M82.1,69.1C82.1,69,82.1,69.1,82.1,69.1C82.1,69.1,82.2,69.1,82.1,69.1z M82.8,71.7c-0.4-0.1-0.8-0.6-0.9-1
	c-0.2-0.5,0-1.4,0.3-1.6c-0.1,0.3-0.5,0.9,0,1.9c0.1,0.1,0.1,0.2,0.2,0.3l0.4,0.3C82.7,71.6,82.7,71.6,82.8,71.7z M82.3,70.1
	c0-0.4,0-0.8,0.3-1.1c0.4-0.5,1.2-0.5,1.7,0.1c0.5,0.6,0.7,2.6-0.8,2.6C82.7,71.7,82.3,70.9,82.3,70.1z M84.4,71.5l0.1-0.1
	C84.5,71.4,84.5,71.5,84.4,71.5z M84.4,71.5L84.4,71.5L84.4,71.5z M82.8,71.7L82.8,71.7L82.8,71.7z M47,71.9c0.6,0,1.1-0.1,1.5-0.5
	c1-1.1,0.5-3.1-1.3-3.1c-0.7,0-1.4,0.4-1.7,1C45,70.5,45.7,71.9,47,71.9z M47.6,68.6L47.6,68.6C47.7,68.6,47.6,68.6,47.6,68.6z
	 M47.8,68.7L47.8,68.7L47.8,68.7z M48.2,71.4c0-0.2,0.2-0.3,0.3-0.7c0.1-0.6,0-1.3-0.4-1.8c-0.1-0.1-0.2-0.2-0.2-0.2
	c0.2,0,0.4,0.3,0.5,0.5C48.8,69.9,48.6,71.1,48.2,71.4z M46,68.9L46,68.9L46,68.9z M46,68.9L46,68.9L46,68.9z M45.9,69L45.9,69
	L45.9,69z M45.9,69.1L45.9,69.1L45.9,69.1z M45.8,69.2C45.8,69.1,45.8,69.2,45.8,69.2C45.8,69.2,45.8,69.2,45.8,69.2z M46.5,71.7
	c-0.2,0-0.5-0.3-0.6-0.4c-0.7-0.8-0.4-1.9-0.1-2.1c-0.1,0.3-0.1,0.2-0.2,0.7c-0.1,0.6,0.2,1.2,0.6,1.6L46.5,71.7z M47.1,68.6
	c0.9,0,1.3,0.9,1.3,1.7c0,0.4,0,0.7-0.3,1.1c-0.2,0.3-0.5,0.4-0.9,0.4c-0.7,0-1.2-0.8-1.2-1.5c0-0.4,0-0.7,0.2-1.1
	C46.4,68.8,46.7,68.6,47.1,68.6z M48.2,71.4L48.2,71.4L48.2,71.4z M48.2,71.4L48.2,71.4L48.2,71.4z M48.2,71.4L48.2,71.4L48.2,71.4z
	 M48.1,71.5L48.1,71.5L48.1,71.5z M48.1,71.5L48.1,71.5L48.1,71.5z M46.5,71.7L46.5,71.7L46.5,71.7z M53.5,68.6
	c0.2,0,0.5,0.1,0.5,0.5v2.2c0,0.2-0.1,0.3-0.2,0.3c-0.2,0.1-0.2,0-0.2,0.2c0.1,0,0.7,0,0.9,0c0.2,0,0.2,0,0.4,0c0.6,0,1,0,1.4-0.4
	c0.3-0.3,0.3-0.8,0.1-1.1c-0.1-0.1-0.1-0.2-0.2-0.3c-0.6-0.5-1.6,0-1.6-0.3V69c0-0.5,0.4-0.3,0.4-0.5c0-0.2-0.3-0.1-0.6-0.1
	C53.6,68.4,53.5,68.3,53.5,68.6z M54.1,68.7L54.1,68.7L54.1,68.7z M54,71.7c0.2-0.2,0.1-0.3,0.1-0.7v-1.6c0-0.3,0-0.5-0.1-0.7
	c0.2,0.1,0.2,0.5,0.2,0.7l0,1.7C54.2,71.3,54.2,71.6,54,71.7z M55.9,71.5c0.2-0.4,0.3-0.8,0-1.2c-0.1-0.1-0.1,0-0.1-0.1
	c0.4,0.1,0.6,0.7,0.3,1.2C56,71.4,56,71.5,55.9,71.5z M55.3,71.6c-0.7,0-0.6,0-0.6-1.4c0-0.4,0.8-0.2,1,0
	C56.2,70.6,56.1,71.6,55.3,71.6z M55.9,71.5L55.9,71.5L55.9,71.5z M55.8,71.6C55.8,71.6,55.8,71.6,55.8,71.6
	C55.8,71.6,55.8,71.6,55.8,71.6z M71.2,36c0.4,0.1,0.2,0.4,0.1,0.7l-0.5,1.7c-0.1,0.3-0.1,0.7-0.5,0.6c0.3-0.2,0.2-0.2,0.3-0.7
	l0.4-1.6C71.2,36.4,71.3,36.3,71.2,36z M72.4,37.8c0.3-0.1,0.4-0.3,0.5-0.6c0.1-0.3,0-0.6-0.2-0.8C73.3,36.4,73.3,37.8,72.4,37.8z
	 M71.5,37.5c0.1-0.3,0.2-0.9,0.3-1.1c0.2-0.4,0.9,0,1,0.1c0.3,0.3,0.1,0.9-0.1,1.1C72.3,37.9,71.6,37.6,71.5,37.5z M72.4,37.9
	c0.3,0,0.5,0.5,0.4,0.9c-0.1,0.4-0.3,0.6-0.8,0.6C72.5,39.4,73,38.5,72.4,37.9z M74.5,40.2c-0.2-0.1-0.4-0.5-0.4-0.8
	c-0.1-0.4,0-0.7,0.1-1c0.2-0.6,0.7-1.1,1.3-1.1c-0.1,0-0.3,0.1-0.4,0.2c-0.1,0.1-0.2,0.1-0.3,0.3c-0.4,0.4-0.7,1.1-0.6,1.7
	C74.2,39.8,74.4,40,74.5,40.2z M76.7,37.7c0.2,0.1,0.4,0.4,0.4,0.7c0.2,0.7-0.3,2.1-1.1,2.2c0.1-0.1,0.3-0.2,0.5-0.5
	c0.4-0.5,0.6-1.4,0.3-2C76.9,38,76.7,37.7,76.7,37.7z M67,38.5C67,38.5,67,38.4,67,38.5L67,38.5C67.1,38.4,67.1,38.4,67,38.5
	c0.1-0.1,0.1-0.1,0.1-0.2c0.1-0.1,0.1-0.4,0.1-0.6c0-0.3,0.1-0.5,0.1-0.8c0.1-0.4,0.3-1.2,0.1-1.6c0.3,0.1,0.2,0.4,0.2,0.7l-0.2,1.7
	C67.3,38.3,67.3,38.5,67,38.5z M69.7,36C69.7,36,69.7,36,69.7,36l-0.2-0.2c-0.1,0-0.2-0.2-0.3-0.2l0.4,0.1L69.7,36z M68.7,37.1
	c0.1-0.1,0.2-0.1,0.3-0.2l-0.1,0.4C68.8,37.2,68.8,37.2,68.7,37.1z M63.5,38.3c0.2-0.2,0.1-0.4,0.2-0.7l0-1.7c0-0.3,0.1-0.5-0.1-0.7
	c0.3,0,0.3,0.4,0.3,0.7l0,1.8C63.8,38,63.9,38.3,63.5,38.3z M65.9,35.6c-0.1-0.1-0.4-0.3-0.5-0.3C65.8,35.2,65.8,35.2,65.9,35.6z
	 M65,36.7c0.1,0,0.2-0.1,0.3-0.2l0,0.4L65,36.7z M57.7,35.8c0.1,0.1,0.2,0.2,0.2,0.3c-0.1,0-0.5-0.2-0.6-0.2L57.7,35.8z M55.6,36.2
	c0.3-0.1,0.3,0.2,0.4,0.6l0.5,2.1c0,0.2,0,0.3-0.2,0.3c0.1-0.3,0-0.5,0-0.8l-0.3-1.6C55.8,36.6,55.8,36.4,55.6,36.2z M57.5,37.2
	C57.5,37.2,57.5,37.2,57.5,37.2l0.1,0.3c-0.1-0.1-0.1-0.1-0.3-0.1L57.5,37.2z M67.1,74.6L67.1,74.6L67.1,74.6z M67.2,75
	c0-0.3,0-0.2-0.1-0.4c0.1,0,0.1,0,0.2,0.1C67.3,74.8,67.3,74.9,67.2,75z M64.9,74.7c0.2,0.1,0.6,0.8,0.7,1.1
	c0.1,0.3,0.6,0.9,0.6,1.2h-0.1c0-0.1-0.5-1-0.6-1.1C65.4,75.5,65.1,74.9,64.9,74.7 M65.6,78L65.6,78L65.6,78c-0.6,0-0.3-0.6-0.3-0.7
	c0.3,0,0.2,0.2,0.5,0.3c0.1,0,0.3-0.4,0.3-0.4c0-0.1-1-1.9-1.2-2.2c-0.2-0.4-0.6-0.2-0.5-0.5c0-0.1,0.2-0.1,0.3,0
	c0.4,0.1,0.5,0.1,1,0c0.1,0,0.3-0.1,0.3,0.1c0.1,0.3-0.7,0-0.2,0.9l0.4,0.8c0.1,0.2,0.1,0.3,0.3,0.3c0.1-0.4,0.8-1.3,0.6-1.7
	c-0.1-0.2-0.3-0.1-0.4-0.2c-0.1,0-0.2-0.2,0.3-0.2c0.7,0.1,1-0.1,1,0.1c0,0.1-0.1,0.1-0.2,0.2c-0.4,0.2-1.3,2.6-1.7,3
	C65.9,77.9,65.8,78,65.6,78z M61.6,38.4c0.2-0.2,0.1-0.5,0.1-0.8c0-0.3-0.1-0.5-0.1-0.8c0-0.3-0.1-0.6-0.1-0.8c0-0.3,0-0.5-0.2-0.7
	c0.4,0,0.3,0.3,0.4,0.6l0.2,1.8C61.9,38,62,38.4,61.6,38.4z M60.1,35.4c-0.1,0.1-0.1,0.1-0.2,0.2c0,0,0,0,0,0l-0.1-0.1c0,0,0,0,0,0
	c0,0,0,0,0,0L60.1,35.4z M42.3,68.5c0,0.2,0.5,0,0.5,0.5v2.3c0,0.4-0.4,0.2-0.4,0.5c0.1,0.1,0.1,0.1,0.3,0.1c0.3,0,0.8,0,1.1,0
	c0.1,0,0.2,0,0.2-0.1c0-0.2-0.6,0.1-0.6-0.6v-2.3c0-0.4,0.9-0.2,1-0.1c0.3,0.2,0.1,0.4,0.3,0.5c0.1-0.1,0.1-0.2,0.1-0.6
	c0-0.1,0-0.1,0-0.2c-0.2-0.1-1.7,0-2.3,0C42.4,68.4,42.3,68.4,42.3,68.5z M44.3,68.6c0.2,0,0.4,0,0.4,0.2
	C44.4,68.6,44.6,68.7,44.3,68.6C44.3,68.6,44.3,68.6,44.3,68.6z M42.8,71.7c0.2-0.4,0.1-1,0.1-1.5c0-0.3,0-0.5,0-0.8
	c0-0.4,0-0.5-0.1-0.7C43,68.7,43,69,43,69.3V71C43,71.3,43,71.6,42.8,71.7z M66.8,46.7c0.1-0.2-0.1-0.6-0.1-0.8
	c-0.1-0.2-0.1-0.6-0.3-0.7c0.2,0,0.2,0.1,0.2,0.3l0.2,0.9C66.9,46.5,67,46.6,66.8,46.7z M65.9,45.3l-0.1,0.2c0-0.1-0.1-0.1-0.1-0.1
	L65.9,45.3z M62.9,45.3l0.2,0c0,0,0,0-0.1,0.1L62.9,45.3z M63.6,47c0.1-0.2,0.2-1.5,0.1-1.6c0.2,0,0.1,0.3,0.1,0.9
	c0,0.1,0,0.3,0,0.4C63.8,47,63.8,46.9,63.6,47z M65.4,46.7c-0.2-0.3-0.7-1.1-0.9-1.3c0.2,0,0.3,0.3,0.5,0.6
	C65.1,46.1,65.4,46.5,65.4,46.7z M67.7,46.4c0.1-0.4,0-0.5-0.2-0.7C67.8,45.7,67.9,46.2,67.7,46.4z M66.9,45.8
	c0.4-0.1,0.6-0.1,0.7,0.3c0.1,0.4-0.2,0.6-0.5,0.5C67.1,46.4,66.9,46,66.9,45.8z M62.5,46.9c-0.1-0.1-0.2-0.3,0-0.2l-0.1,0.1
	L62.5,46.9z M60.5,46.4c0.1-0.1,0.1-0.2,0.2-0.4c0.1-0.3,0.3-1.1,0.2-1.2c0.1,0,0.1,0,0.1,0.1c0,0.2-0.1,0.6-0.2,0.8
	C60.7,46.2,60.7,46.4,60.5,46.4z M61.9,45.1l0.2,0.1l-0.2,0.1L61.9,45.1z M67.3,8.5c0.1,0.2,0.3-0.1,0.1,0.5c0,0.1,0,0.2-0.1,0.4
	c-0.1,0.4-0.1,0.6-0.3,0.4c0,0.1,0,0.1,0.3,0.2c0.1,0,0.2,0.1,0.4,0.1V9.9c-0.3,0-0.2-0.2-0.1-0.7c0-0.2,0.1-0.5,0.2-0.5
	c0.2,0,0.4,0.1,0.6,0.1c0,0.2-0.1,0.5-0.1,0.7C68.2,10,68.2,10,68,10v0.1c0.1,0,0.2,0,0.4,0.1c0.1,0,0.3,0.1,0.3,0
	c0-0.1,0,0-0.1-0.1c0,0-0.1,0-0.1,0c0-0.2,0.1-0.8,0.2-1c0-0.2,0.1-0.2,0.3-0.2V8.8C68.7,8.8,67.4,8.4,67.3,8.5z M67.3,9.8
	c0-0.1,0-0.2,0.1-0.3c0.1-0.3,0.2-0.6,0.2-0.9c0.1,0.1,0,0.1,0,0.3l-0.1,0.6c0,0.1,0,0.1,0,0.2C67.4,9.7,67.4,9.7,67.3,9.8z
	 M68.2,10c0-0.2,0.2-0.9,0.2-1.2h0c0,0.3-0.1,0.6-0.2,0.9C68.3,9.9,68.3,9.9,68.2,10z M71.9,11.2c0,0.8,0.9,1,1.3,0.6
	c0.3-0.3,0.3-0.7,0-1C72.7,10.2,71.9,10.6,71.9,11.2z M72.5,10.5L72.5,10.5C72.5,10.5,72.5,10.5,72.5,10.5z M72.4,10.6L72.4,10.6
	L72.4,10.6z M72.2,10.7c0-0.1,0-0.1,0.1-0.1C72.3,10.7,72.3,10.7,72.2,10.7z M72.1,10.8c0-0.1,0-0.1,0.1-0.1
	C72.2,10.8,72.2,10.8,72.1,10.8z M72,11.1c0-0.1,0-0.2,0.1-0.3c0,0.1,0,0.1,0,0.1L72,11.1C72,11.1,72,11.1,72,11.1z M73.2,10.9
	C73.2,10.9,73.3,10.8,73.2,10.9C73.2,10.9,73.2,11,73.2,10.9z M73.2,11.1C73.2,11,73.2,11.1,73.2,11.1
	C73.3,11.2,73.3,11.1,73.2,11.1z M72.2,11.5c0-0.5,0.3-0.9,0.6-0.9c0.6,0,0.5,0.9,0,1.2C72.5,12,72.2,11.7,72.2,11.5z M73.1,11.5
	l0.1-0.3c0,0,0,0,0,0l0,0c0,0,0,0,0,0c0,0.1,0,0.1,0,0.2C73.2,11.4,73.2,11.4,73.1,11.5z M72,11.1l0,0.3C72,11.3,71.9,11.2,72,11.1z
	 M73,11.6c0-0.1,0-0.1,0.1-0.1C73.1,11.6,73.1,11.5,73,11.6z M73,11.6L73,11.6L73,11.6z M72.9,11.8l0.1-0.1
	C73,11.7,73,11.7,72.9,11.8z M72.9,11.8L72.9,11.8L72.9,11.8z M72.8,11.8L72.8,11.8L72.8,11.8z M68.9,9.8c0,0.8,0.9,1,1.3,0.6
	c0.5-0.5,0.2-1.3-0.5-1.3c-0.2,0-0.4,0.1-0.5,0.2c-0.1,0.1-0.1,0.1-0.2,0.2C69,9.5,68.9,9.7,68.9,9.8z M69.4,9.2
	C69.4,9.2,69.4,9.2,69.4,9.2C69.4,9.2,69.4,9.2,69.4,9.2z M69.3,9.2L69.3,9.2L69.3,9.2z M69.3,9.2L69.3,9.2L69.3,9.2z M69.2,9.3
	L69.2,9.3L69.2,9.3z M69.2,9.3L69.2,9.3L69.2,9.3z M69.2,9.3L69.2,9.3L69.2,9.3z M69,9.6c0-0.1,0-0.2,0.1-0.2c0,0.1,0,0.1,0,0.1
	C69.1,9.5,69.1,9.5,69,9.6C69,9.6,69.1,9.6,69,9.6z M70.2,9.4C70.2,9.4,70.2,9.4,70.2,9.4C70.2,9.5,70.2,9.5,70.2,9.4 M69,9.6
	c0,0.1,0,0.2,0,0.4h0C69,9.8,69,9.7,69,9.6z M69.6,10.5c-0.5,0-0.5-1.1,0-1.3c0.7-0.3,0.7,0.9,0.3,1.2
	C69.8,10.4,69.7,10.5,69.6,10.5z M70.1,10.1c0-0.1,0-0.2,0.1-0.3c0-0.1,0-0.2,0-0.4c0.1,0.1,0,0.4,0,0.5
	C70.2,10.1,70.2,10.1,70.1,10.1z M69,10C69,10,69.1,10,69,10C69,10,69,10.1,69,10z M69,10.1L69,10.1C69.1,10.1,69,10.1,69,10.1z
	 M69.1,10.2C69.1,10.1,69.1,10.2,69.1,10.2L69.1,10.2z M70.1,10.1L70.1,10.1L70.1,10.1z M70.1,10.2L70.1,10.2L70.1,10.2z M70.1,10.2
	L70.1,10.2L70.1,10.2z M70,10.4C70,10.3,70,10.3,70,10.4C70,10.3,70,10.3,70,10.4z M55.6,11.4c1.1,0,1.1-1.5,0.1-1.5
	c-0.3,0-0.7,0.3-0.7,0.7C54.9,11,55.3,11.4,55.6,11.4z M55.8,10L55.8,10L55.8,10z M55.9,10.1L55.9,10.1L55.9,10.1z M56.2,10.4
	c0,0-0.3-0.3-0.3-0.3C56,10.1,56.1,10.3,56.2,10.4z M55.5,10c0.5,0,0.8,0.6,0.7,0.9c-0.1,0.3-0.5,0.3-0.7,0.1
	c-0.1-0.1-0.2-0.2-0.2-0.3C55.1,10.4,55.2,10,55.5,10z M56.2,10.4L56.2,10.4L56.2,10.4z M56.2,10.4L56.2,10.4L56.2,10.4z M55,10.5
	C55,10.4,55.1,10.4,55,10.5C55,10.5,55,10.6,55,10.5z M56.2,10.5l0.1,0.2c0,0.1,0,0.2,0,0.2h0C56.3,10.6,56.2,10.7,56.2,10.5z
	 M55.1,10.9C55,10.8,55,10.7,55,10.6h0C55.1,10.7,55.1,10.8,55.1,10.9z M55.1,10.9c0,0,0,0,0.1,0.1C55.1,10.9,55.1,11,55.1,10.9
	 M55.1,11C55.2,11,55.2,11,55.1,11C55.1,11,55.2,11.1,55.1,11z M55.2,11.1l0.1,0.1C55.2,11.1,55.2,11.2,55.2,11.1z M55.3,11.2
	L55.3,11.2L55.3,11.2z M55.4,11.2L55.4,11.2C55.4,11.2,55.4,11.2,55.4,11.2z M55.5,11.3L55.5,11.3C55.5,11.3,55.4,11.3,55.5,11.3z
	 M71.1,9.7c0,0.1-0.2,0.5-0.2,0.6c-0.1,0.1-0.1,0.2-0.1,0.3c-0.1,0.1-0.1,0.2-0.2,0.2c0-0.2,0.1-0.3-0.1-0.3c-0.2,0-0.2,0.4,0.2,0.4
	c0.3,0,0.4-1.1,0.8-1.1c0,0,0.4,0.1,0.3,0.3c0,0.1,0,0.1-0.1,0.1l-0.3,0.7C71.1,11.1,71.1,11,71,11c-0.1,0,0-0.1-0.1,0.1
	c0.2,0.1,0.4,0.2,0.7,0.3c0-0.1-0.1-0.1-0.1-0.1c0-0.2,0.4-0.9,0.5-1.1c0.1,0,0.1,0,0.2,0c0-0.1-0.1-0.1-0.3-0.2
	c-0.2-0.1-0.8-0.4-1-0.4C70.9,9.6,71.1,9.6,71.1,9.7z M71.1,9.7L71.1,9.7L71.1,9.7z M71.7,10.1c0-0.1,0-0.1,0-0.1
	C71.7,10,71.8,9.9,71.7,10.1C71.7,10.2,71.7,10.1,71.7,10.1z M71.3,11c0-0.1,0.1-0.3,0.2-0.4l0.2-0.4c0-0.1,0,0,0,0
	c0,0.1-0.1,0.3-0.2,0.4c0,0.1-0.1,0.1-0.1,0.2L71.3,11z M70.3,10.6C70.3,10.5,70.2,10.6,70.3,10.6C70.3,10.6,70.3,10.6,70.3,10.6z
	 M70.3,10.6L70.3,10.6L70.3,10.6z M57.8,9L57.8,9c0.3,0.1,0.2,0,0.4,0.5c0.1,0.2,0.2,0.5,0.2,0.7c0,0.2-0.1,0-0.1,0.2
	c0.2,0,0.5-0.1,0.7-0.2c0.1,0,0.2-0.1,0.3-0.1c0.3-0.2,0.1-0.6-0.2-0.7c-0.2,0-0.4,0.1-0.6,0.1c0-0.2-0.1-0.3-0.1-0.4
	c0-0.2,0.1-0.1,0.2-0.2C58.4,8.7,58,8.9,57.8,9z M58.1,9c0.1,0.1,0.1,0.1,0.1,0.2l0.2,0.9c0,0.1,0,0.1-0.1,0.1c0-0.1,0-0.1,0-0.3
	c0-0.1-0.1-0.2-0.1-0.3L58.1,9z M59,9.5L59,9.5L59,9.5z M59,9.5L59,9.5L59,9.5z M59,9.5L59,9.5L59,9.5z M58.5,9.5
	c0.1,0,0.6-0.2,0.6,0.3c0,0.1-0.2,0.3-0.3,0.3C58.6,10.1,58.5,9.5,58.5,9.5z M59,9.5c0.1,0.1,0.1,0.2,0.1,0.3h0
	C59.1,9.7,59,9.7,59,9.5z M56.3,9.6c0.3,0,0.2-0.2,0.5,0.4c0.1,0.2,0.2,0.4,0.2,0.6c0,0.1,0,0,0,0.1c-0.2,0,0,0-0.2-0.1
	c-0.2-0.1-0.3,0.2,0,0.2c0.4,0,0.1-0.6,0.1-0.8c-0.2-0.5-0.3-0.6,0-0.7c0.3-0.2,0.3-0.1,0.4,0.1c0,0.1,0.1,0.2,0.1,0.3
	c0.1,0.2,0.2,0.4,0.2,0.6c0,0-0.2,0.1-0.1,0.1c0,0,0.1,0,0.2-0.1c0.2-0.1,0.4-0.1,0.4-0.2c-0.1,0-0.1,0-0.2,0
	c-0.1-0.1-0.4-0.9-0.4-1.1c0.1-0.1,0.1,0,0.1-0.2l-1,0.4C56.4,9.5,56.3,9.5,56.3,9.6z M57.4,9.6c-0.1-0.1-0.1-0.2-0.2-0.3
	c0.1,0,0.1,0,0.1,0.1C57.4,9.5,57.4,9.5,57.4,9.6z M56.6,9.5C56.6,9.5,56.7,9.5,56.6,9.5C56.6,9.5,56.6,9.6,56.6,9.5z M57.4,9.6
	C57.4,9.7,57.4,9.7,57.4,9.6c0.1,0.1,0.1,0.1,0.1,0.1c0,0.1,0,0.1,0,0.2c0,0,0,0,0,0c0,0,0-0.1,0-0.1C57.4,9.7,57.4,9.7,57.4,9.6z
	 M57.5,9.9c0.1,0.1,0.2,0.4,0.2,0.5h0C57.6,10.2,57.5,10.1,57.5,9.9z M56.7,10.8C56.7,10.7,56.7,10.8,56.7,10.8c0-0.1-0.1-0.1,0-0.1
	C56.7,10.7,56.7,10.7,56.7,10.8z M60.8,8.8c0.1,0.1,0.1,0.1,0.1,0.3c0,0,0,0,0,0.1c0,0.1,0,0,0,0.1c0-0.1,0-0.2,0-0.2
	C60.8,8.8,60.8,8.9,60.8,8.8 M60.3,8.7c0.1,0,0.5-0.2,0.5,0.4c0,0.1-0.2,0.2-0.3,0.2C60.3,9.3,60.3,8.8,60.3,8.7z M60.8,9.2
	L60.8,9.2L60.8,9.2z M53.6,11.1c0.2,0.1,0.1-0.2,0.4,0.2c0.1,0.2,0.5,0.6,0.5,0.8c0,0.2-0.2,0.1-0.1,0.2c0,0,0,0,0.3-0.2
	c0,0,0.2-0.2,0.3-0.2c0.1-0.1-0.1,0-0.2,0c-0.1,0-0.3-0.4-0.4-0.5c-0.1-0.1-0.3-0.4-0.3-0.5c0.4-0.3,0.6-0.1,0.7-0.1
	c0-0.1-0.2-0.2-0.3-0.2C54.5,10.5,53.6,11,53.6,11.1z M54.4,10.6C54.5,10.6,54.5,10.7,54.4,10.6C54.5,10.6,54.4,10.7,54.4,10.6z
	 M54.3,11.7c-0.1-0.1-0.4-0.5-0.5-0.7C54,11.1,54.3,11.6,54.3,11.7z M54.3,11.7C54.4,11.8,54.4,11.7,54.3,11.7
	C54.3,11.8,54.3,11.8,54.3,11.7 M54.4,11.8C54.4,11.8,54.4,11.8,54.4,11.8C54.4,11.8,54.4,11.9,54.4,11.8z M54.4,11.9
	C54.5,11.9,54.5,11.9,54.4,11.9C54.4,11.9,54.4,12,54.4,11.9z M60.1,9C60.1,9,60.1,8.9,60.1,9c0,0,0-0.3-0.1-0.4
	c0.1-0.1,0-0.1,0.1,0c0,0,0,0.1,0,0.1C60.1,8.8,60.1,8.8,60.1,9z M60.1,9.1C60.1,9.1,60.1,9.1,60.1,9.1c0-0.1,0-0.1,0-0.1
	C60.1,9,60.1,9,60.1,9.1C60.1,9,60.1,9.1,60.1,9.1z M60.2,9.2C60.1,9.2,60.1,9.2,60.2,9.2c0-0.1,0-0.1,0-0.1
	C60.2,9.1,60.1,9.1,60.2,9.2C60.2,9.2,60.2,9.2,60.2,9.2z M60.2,9.4C60.2,9.4,60.2,9.4,60.2,9.4c0-0.1,0-0.1,0-0.1
	C60.2,9.3,60.2,9.2,60.2,9.4C60.2,9.3,60.2,9.4,60.2,9.4z M60.2,9.7c0-0.1,0-0.1,0-0.3C60.3,9.5,60.2,9.6,60.2,9.7
	C60.2,9.7,60.2,9.7,60.2,9.7z M60,8.6v0.1c-0.8,0-0.8,0.7-0.4,0.8c0.1,0,0.4,0,0.5,0c0,0.2,0,0.1,0,0.3H60v0.1
	c0.1,0,0.5-0.1,0.7-0.1V9.6c-0.1,0-0.1,0-0.2,0c0-0.1,0-0.1-0.1-0.2c0.8,0,0.8-0.7,0.4-0.8c-0.2-0.1-0.4,0-0.6,0
	c-0.1-0.3,0.1-0.1,0.1-0.3c-0.2,0.1-0.5,0.1-0.7,0.1C59.8,8.7,59.7,8.4,60,8.6z M60,8.8c0,0.2,0.1,0.4,0.1,0.7h-0.3
	c-0.1,0-0.2-0.2-0.2-0.4C59.7,8.8,59.9,8.8,60,8.8z M59.4,9.3l0-0.1c0-0.1,0-0.1,0-0.1V9.3z M59.4,9.3L59.4,9.3L59.4,9.3z M59.5,9.4
	L59.5,9.4L59.5,9.4z M59.5,9.4L59.5,9.4L59.5,9.4z M59.5,9.4L59.5,9.4L59.5,9.4z M44.1,20.1c0.1-0.5,0.4-0.9,0.4-1.4
	C44.2,19.2,44.1,19.9,44.1,20.1z M44.4,18.2c0.1-0.2,0-0.2,0.2-0.2c0-0.1,0-0.1,0-0.2l0.1-0.3c0.1-0.3,0.2-0.5,0.3-0.8
	c0.2-0.5,0.4-0.7,0.7-1.1c0.1,0,0.1,0.1,0.2,0.1c0.1-0.2,0.1-0.5,0.2-0.7c0.4-0.9,1-1.3,1.2-1.6c0.2,0.1,0.7,0.7,0.8,0.9
	c0.1,0,0.2-0.1,0.3-0.2l0.4-0.4c0.3-0.3,0.6-0.5,1-0.7c0.1-0.1,0.2-0.1,0.3-0.2c0.1-0.1,0.2-0.1,0.3-0.1c0.2,0.3,0.4,0.8,0.5,1.2
	c0.1-0.1,0.6-0.4,0.7-0.5c-0.3-0.5-1.2-0.7-1-1.5c0.3-0.8,1.7-1.6,2.5-2c0.2-0.1,0.3-0.1,0.4-0.2l3.5-1.5C57.3,8.1,57.4,8,57.6,8
	l1.5-0.4c1.2-0.3,2.7-0.5,3.9-0.5h1.8c0,0,0,0,0.1,0c0.1,0,0.4,0,0.6,0c0.9,0,1.9,0.2,2.8,0.4c0.4,0.1,0.7,0.1,1,0.2
	c2.2,0.6,4.2,1.5,6.1,2.8l0.8,0.5c0.1,0.1,0.2,0.2,0.4,0.3c0.6,0.4,0.3,0.8,0,1.2c-0.1,0.1-0.2,0.2-0.3,0.3
	c-0.1,0.1-0.2,0.3-0.2,0.4c0.1,0.1,0.6,0.4,0.7,0.4c0-0.2,0.3-0.8,0.4-1c0.3,0,1.4,0.8,1.7,1.1l0.6,0.6c0-0.2,0.3-0.4,0.4-0.5
	c0.1-0.2,0.3-0.3,0.4-0.4c0.1,0.1,0.1,0.2,0.2,0.2c0.4,0.4,1.1,1.5,1.1,2.1c0.1,0,0.1-0.1,0.2-0.1c0.1,0.1,0.3,0.4,0.4,0.5
	c0.3,0.4,0.7,1.4,0.7,1.9c0.1,0,0.1,0,0.2-0.1c0.1,0.3,0.6,1,0.6,2.3c0,0.2,0,0.4,0,0.5c0,0.1,0.1,0.3,0.1,0.4
	c0.1,0,0.2-0.1,0.3-0.1c0.3,0.5,0.5,1,0.6,1.7c0.1,0.7,0,0.6,0,1.1c0,0.2,0,0.3,0.1,0.5c0,0.2,0,0.3,0,0.5c0.1,0,0.2-0.1,0.3-0.1
	c0,0.3,0.1,0.3,0.2,0.5c0.1,0.2,0.1,0.3,0.1,0.5c0.3,0,0.2,0.2,0.1,0.5c0,0.2-0.1,0.4-0.1,0.7c-0.1,0.4-0.2,1.6-0.1,2
	c0,0.6,0.1,0.5-0.5,0.9c-0.1,0.1-0.4,0.2-0.4,0.3h0.7c0,1-0.2,2-0.6,2.8c-0.1,0.2-0.4,0.6-0.4,0.7c0.1,0,0.2,0,0.3,0.1
	c0,0.2-0.2,0.8-0.3,1c0.2,0.2,0.3,0.4,0.3,0.7L84,35.9c0,0.1-0.7,1.1-0.8,1.3l-1,1.6c-0.6,0.8-1.1,1.7-1.6,2.5
	c-0.1,0.2-0.1,0.2-0.3,0.3c-0.4,0.1-0.8,0.3-1.2,0.3c-0.2,0-0.3,0-0.5,0.1c-0.1,0-0.3,0-0.4,0.1c-0.5,0.4-0.6,0.6-1.1,0.9
	c-0.1,0.1-0.5,0.3-0.7,0.3c0,0.1,0,0,0.1,0.1c0.1,0,1.9-0.8,2-0.9c0.6-0.2,0.7-0.4,1-0.1c0.3,0.3,0.4,0.5,0.4,1
	c-0.2,0-0.4,0.3-0.6,0.4c-0.2,0.1-0.4,0.2-0.6,0.4L77,45.4c-0.6,0.4-1.2,0.7-1.7,1c-0.2,0.1-0.4,0.2-0.6,0.3
	c-0.2,0.1-0.4,0.2-0.6,0.3c-0.2,0.1-0.4,0.2-0.6,0.3c-0.2,0.1-0.4,0.2-0.7,0.3c-0.4,0.1-2.3,0.8-2.7,1c-0.1-0.1-0.1-0.1-0.2-0.2
	c-0.1-0.1-0.1-0.1-0.1-0.2c-0.1,0-0.1,0.1-0.2,0.1c-0.3,0.1-0.5,0-0.8,0c0,0.2-0.2,0.3-0.4,0.4c-0.2,0.1-0.5,0.1-0.7,0
	c-0.1,0.5-1,0.4-1.3,0.4c-0.5,0-1.1-0.1-1.5-0.2c-1.3-0.3-0.6-0.3-1.9,0c-0.3,0.1-0.6,0.1-1,0.2c-0.4,0-1.8,0.3-1.8-0.3
	c-0.2,0-0.1,0-0.4,0c-0.4-0.1-0.6-0.1-0.8-0.4c-0.2,0-0.3,0-0.5,0c-0.2,0-0.3,0-0.4-0.1c-0.3-0.2-0.3-0.4-0.3-0.7
	c0.3-0.1,0.7-0.1,1-0.2c0.3-0.1,0.6-0.1,0.9-0.2c0,0,0,0-0.1,0L59.3,47c-0.4-0.2-0.8-0.4-1.2-0.6c-0.1-0.1-0.2-0.1-0.3-0.1
	c-0.1,0-0.3-0.1-0.3-0.2c-0.1-0.1,0-0.1-0.2-0.2c-0.1,0-0.3,0.2-0.4,0.2c-0.1,0.1-0.2,0.1-0.4,0.2c-0.5,0.3-1.2,0.4-1.8,0.5
	c-0.4,0.1-0.7,0-1.1,0c-0.2,0-0.4-0.1-0.5,0c-0.1,0.1-0.3,0.1-0.4,0.2c-1,0.3-2.1,0.4-3.1,0.2c-0.5-0.1-1-0.1-1.4-0.4
	c-0.1,0-0.1-0.1-0.2-0.1c-0.3-0.2-0.4-0.7-0.4-1c0-0.2,0-0.4,0-0.6c0.1-0.5,0.3-0.7,0.6-1.1c0.3-0.3,0.5-0.4,0.9-0.6
	c0.1,0,0.1-0.1,0.2-0.1c0.4,0,0.9,0.2,1.3,0.4c0.1-0.2,0.2-0.4,0.3-0.5c-0.5-0.1-1.3-0.7-1.7-1.1C49.2,42.1,49.3,42,49,42
	c-0.6-0.1-1.3-0.2-1.8-0.4c-0.2-0.1-0.2-0.1-0.3-0.3l-0.7-1c-0.2-0.2-0.3-0.4-0.4-0.7c-0.2-0.2-0.3-0.5-0.4-0.7
	c-0.2-0.2-0.3-0.4-0.4-0.7l-1.3-2.1c-0.3-0.4-0.1-0.2-0.1-0.5c0-0.1,0-0.2,0-0.3c0-0.2,0.1-0.3,0.1-0.4c0.1-0.2,0.1-0.1,0-0.4
	l-0.3-0.8c0.1,0,0.2-0.1,0.3-0.1c0-0.1-0.2-0.3-0.2-0.4c-0.6-1-0.9-1.9-0.9-3.2h0.8c-0.1-0.1-0.3-0.2-0.4-0.3
	c-0.6-0.4-0.5-0.3-0.5-0.9c0-0.8,0-1.2-0.1-2L42.1,26c0-0.2,0-0.1,0.1-0.2c0-0.3,0-0.4,0.2-0.6c0.1-0.1,0.1-0.1,0.2-0.2
	c0.1-0.1,0.2-0.1,0.3-0.1c0-0.2,0-0.4,0-0.6c0-0.1,0.1-0.4,0.1-0.5c0-0.1,0-0.4,0-0.6c0-0.5,0.1-1,0.3-1.5c0.1-0.2,0.3-0.7,0.4-0.8
	c0.2,0.1,0.3,0.1,0.3,0.1C43.9,19.8,43.8,19.5,44.4,18.2z M74.7,11.2L74.7,11.2L74.7,11.2L74.7,11.2C74.7,11.2,74.7,11.2,74.7,11.2
	C74.7,11.3,74.7,11.3,74.7,11.2l0.8,0.5c0.4,0.2,0.5,0.3,0.8,0.5c-0.1,0.1-0.2,0.2-0.2,0.3l-1.2-0.7c-0.1-0.1-0.3-0.2-0.5-0.2
	l0.2,0.1c0.6,0.4,0.8,0.5,1.3,0.9c-0.1,0.1-0.1,0.2-0.2,0.3l-0.4-0.2c-0.1-0.1-0.3-0.1-0.4-0.2c-0.1-0.1-0.7-0.4-0.8-0.4l1.2,0.7
	c0.1,0.1,0.2,0.2,0.4,0.3c-0.1,0.1-0.1,0.2-0.2,0.3c-0.4-0.3-1.1-0.7-1.6-0.9c0,0.1,0.3,0.2,0.4,0.2c0.3,0.2,0.7,0.4,0.9,0.6
	c0.1,0.1,0.1,0.1,0.2,0.1c0,0.1-0.1,0.2-0.1,0.3c-0.2-0.1-0.4-0.3-0.8-0.5c-0.2-0.1-0.7-0.3-0.9-0.4l1,0.6c0.1,0,0.1,0.1,0.2,0.1
	c0.1,0.1,0.3,0.2,0.4,0.3c0,0.1-0.1,0.3-0.2,0.3c-0.1,0.1-0.2,0.2-0.3,0.1c-0.6-0.4-0.7-0.7-1.6-1.3c-0.4-0.2-1.5-0.9-1.9-1.1
	c-0.2-0.1-0.4-0.2-0.7-0.3c-0.9-0.4-1.9-0.7-2.9-1c-0.8-0.2-1.3-0.2-2.1-0.4c-0.2,0-0.3,0-0.4,0l-0.9-0.1c-0.3,0-0.6,0-1,0l-1.3,0.1
	c-1.6,0.2-2.9,0.5-4.3,1.1c-0.9,0.4-1.8,0.8-2.6,1.3l-0.6,0.4c-0.1,0.1-0.2,0.1-0.3,0.2c-0.1,0.1-0.5,0.3-0.6,0.4
	c0,0.1,0,0.1-0.1,0.1c-0.2,0.2-0.5,0.4-0.7,0.6c-0.2-0.1-0.3-0.2-0.1-0.4c0.1-0.1,0.3-0.2,0.4-0.4c0.1-0.1,0.1-0.1,0.2-0.2l0.7-0.5
	h0l0,0l0,0c-0.2,0-0.7,0.3-0.8,0.5l-0.5,0.4c-0.1,0.1-0.1,0.1-0.1,0.2l-0.1-0.3c0,0,0,0,0,0c0-0.1,0,0,0.1-0.1
	c0.1-0.1,0.3-0.3,0.4-0.4l0.8-0.6c0.1-0.1,0.1,0,0.1-0.1c-0.7,0.4-0.7,0.5-1.3,0.9c-0.1,0.1-0.1,0.1-0.2,0.1
	c-0.1-0.1-0.1-0.2-0.2-0.3l1-0.9c0.1-0.1,0.3-0.2,0.3-0.3h0l0,0l0,0c-0.1,0-0.6,0.4-0.7,0.5l-0.7,0.5c0,0-0.2-0.2-0.2-0.3
	c0.1-0.1,0.2-0.2,0.3-0.3c0.1-0.1,0.1-0.1,0.2-0.1l0.5-0.4c0.1-0.1,0.3-0.2,0.3-0.3h0l0,0l0,0c-0.2,0-0.9,0.6-1.1,0.8
	c-0.1,0.1-0.1,0.1-0.2,0.1c-0.1,0.1-0.1,0.1-0.2,0.2c0,0,0,0-0.1-0.1c-0.1-0.1-0.1-0.1-0.2-0.2c0.1-0.1,0.4-0.4,0.5-0.5
	c0.1,0,0.1-0.1,0.2-0.2c0.1-0.1,0.2-0.2,0.4-0.3l0.4-0.3c-0.2,0-1,0.6-1.2,0.8c-0.1,0.1-0.1,0.1-0.2,0.2c-0.1,0-0.1,0.1-0.2,0.2
	c-0.2-0.3-0.2-0.5,0-0.8c0-0.1,0.1-0.1,0.1-0.1l0.4-0.4c1-0.7,1.7-1.1,2.9-1.6c0.1-0.1,0.2-0.1,0.4-0.2l1.2-0.5
	c1.4-0.6,2.8-1,4.4-1.2l1.5-0.2c0.1,0,0.4,0,0.5,0l1.1,0c0.8,0,1.4,0.1,2.1,0.1l1,0.1c1.1,0.1,2.6,0.5,3.6,0.8
	c1.1,0.4,2.2,0.8,3.1,1.3c0.7,0.4,1.4,0.8,2.1,1.3l0.7,0.5c0.5,0.4,0.3,0.3,0.2,0.7c-0.1-0.1-0.3-0.2-0.4-0.3
	C75.7,11.7,74.9,11.2,74.7,11.2z M54.5,12C54.5,12,54.5,11.9,54.5,12c0,0.1,0,0.1,0,0.1V12z M59.1,9.9L59.1,9.9
	C59.1,9.9,59.1,9.9,59.1,9.9z M71.3,11c0,0.1,0,0.1-0.1,0.1C71.3,11,71.2,11,71.3,11z M55.5,11.3L55.5,11.3
	C55.5,11.3,55.5,11.3,55.5,11.3z M61.6,46.5c0.1,0.1,0.1,0.2-0.1,0.2c0.1-0.2-0.1-0.5-0.3-0.7c-0.1-0.3-0.1-0.2-0.1-0.2l0,0
	c0,0,0,0,0,0L61.6,46.5z M64.9,46.9c0,0.1,0,0.1,0.1,0.1c-0.1,0-0.2-0.1-0.2-0.2l0.1,0C65,46.8,65,46.8,64.9,46.9z M63.5,8.3
	c-0.3,0-0.6,0.1-0.9,0.1c0,0.1,0.2,0.2,0.3,0.3c0.5,0.4,0.4,0.3,0.3,0.8c0,0.2-0.1,0.4-0.1,0.5c0.1,0,0.3-0.2,0.4-0.2
	c0.5-0.2,0.3-0.3,0.8,0c0.1,0.1,0.3,0.1,0.4,0.2c0-0.1,0-0.3-0.1-0.4C64.6,9,64.5,9.2,65,8.7c0.3-0.3,0.4-0.2-0.6-0.3
	c-0.2,0-0.2-0.1-0.2-0.2C64.2,7.9,64,7.6,64,7.5h-0.1C63.9,7.7,63.6,8.1,63.5,8.3z M59.5,38.7c-0.6-0.2-0.3-0.7,0-0.4l-0.1,0.1
	C59.3,38.6,59.5,38.6,59.5,38.7z M65.3,77.8c-0.1-0.1,0-0.3,0-0.4c0.1,0,0.1,0,0.1,0.2C65.4,77.7,65.4,77.7,65.3,77.8z M58.4,38.8
	L58,38.9c0.2-0.1,0.3-0.2,0.4-0.4L58.4,38.8z M65.8,38.4l-0.4,0c0.1-0.1,0.4-0.2,0.5-0.3L65.8,38.4z M68.8,38.7
	c0.2-0.1,0.4-0.1,0.5-0.2l-0.2,0.2L68.8,38.7z M71.5,37.7c0.3,0,0.9,0.2,1,0.5c0.2,0.3,0.1,1.4-0.9,1.1c-0.2-0.1-0.4-0.1-0.4-0.4
	C71.1,38.8,71.4,37.8,71.5,37.7z M82.8,71.7L82.8,71.7L82.8,71.7z M70.3,77.6L70.3,77.6C70.4,77.6,70.3,77.6,70.3,77.6z M55,39.8
	C55.1,39.8,55,39.8,55,39.8l0.3-0.1l0.2,0.3C55.4,39.9,55.3,39.8,55,39.8z M75.8,37.4c-1,0.2-1.5,2-1,2.8c0.2,0.3,0.5,0.5,0.9,0.4
	c1-0.2,1.5-2,1-2.8C76.6,37.6,76.2,37.3,75.8,37.4z M49.5,63.6c0.1-0.1,0.3-0.1,0.5-0.2c0.8-0.2,1.1-0.7,1.2-0.8
	c-0.1,0.3-0.3,0.6-0.6,0.8C50.3,63.6,50,63.6,49.5,63.6z M85.4,59.8c0-0.9,0.1-1.6,0.6-2.3c0.4-0.5,1-0.9,1.7-0.9
	c0.7,0,1.1,0,1.7,0.4c1.8,1.3,2.1,5.3,0.1,6.3L89,63.5c-1.2,0.3-2.2-0.1-2.9-1.1C85.7,61.8,85.4,60.8,85.4,59.8z M53,63.8
	c-0.2,0-0.1-0.6,0-0.8c0-0.1,0-0.2,0.1-0.2c0.2,0.1,0.1,0.3,0.1,0.5C53.2,63.4,53.2,63.8,53,63.8z M79.7,63.5c-1,0-1.4,0-1.4-1.3
	c0-0.3,0-1.7,0.1-1.9c0.1-0.2,0.6-0.2,0.9-0.2c1,0,1.9,0.5,2,1.5c0,0.5,0,1-0.3,1.4C80.6,63.3,80.2,63.5,79.7,63.5z M52,32.1
	L52,32.1c-0.6,0.1-1.6,0.1-2.1-0.1c0.3,0,0.7,0.1,1,0.1C51.2,32.2,51.9,32.1,52,32.1l0.1,0.4c-1.9-0.1-3.8-0.4-5.5-0.9
	c-1.2-0.4-2.1-1-3.1-1.6c-0.2-0.1-0.3-0.2-0.5-0.3c-0.2-0.1-0.4-0.2-0.4-0.4c0.1,0,0.4,0.3,0.6,0.4c0.2,0.1,0.5,0.3,0.6,0.3
	c-0.2-0.2-0.4-0.3-0.6-0.4c-0.7-0.5-0.6-0.3-0.6-0.8l0.7,0.5c0.2,0.1,0.4,0.2,0.7,0.3c0.1,0,0.1,0,0.2,0.1c0,0-0.1,0-0.2-0.1
	c-0.2-0.1-0.7-0.4-0.8-0.5c-0.7-0.4-0.6-0.4-0.6-0.9l0.9,0.5c0.3,0.2,0.6,0.3,0.9,0.5c-0.2-0.1-0.9-0.5-1.1-0.7
	c-0.8-0.5-0.7-0.5-0.8-1.1c0.2,0.1,0.4,0.3,0.6,0.4c0.2,0.1,0.4,0.2,0.6,0.4c0.2,0.1,1,0.6,1.2,0.6c-0.3-0.1-1.7-1-2-1.3
	c-0.3-0.3-0.3-0.2-0.4-0.7c0.5,0.3,1.9,1.4,2.8,1.7c-0.5-0.2-1.8-1.1-2.3-1.4c-0.5-0.4-0.5-0.3-0.6-0.6c0.1,0.1,0.3,0.2,0.5,0.4
	c0.5,0.4,0.9,0.6,1.4,0.9c1.8,1.1,3.8,1.7,5.9,2.1c0.9,0.2,0.9,0.1,1.1,0.5L50.1,30c0.3,0.2,0.9,0.2,1.3,0.3
	c0.1,0.1,0.1,0.2,0.2,0.4c-0.5,0-1.4-0.1-1.5-0.1c0.1,0,0.6,0.1,0.8,0.2c0.3,0,0.5,0.1,0.8,0.1c0,0.1,0.1,0.3,0.1,0.4
	c-0.6,0.1-1.1-0.1-1.7-0.1c0.3,0.2,1.3,0.2,1.8,0.2l0.1,0.4c-0.4,0-0.6,0-1,0c-0.3,0-0.7-0.1-0.9-0.1c0.3,0,1,0.3,2,0.1L52,32.1z
	 M66.9,45.7c0.3,0,0.5-0.2,0.8-0.1c0.2,0.1,0.7,0.7-0.4,1c-0.1,0-0.7,0.2-0.8,0.1c0.1-0.1,0.1,0,0.2-0.1c0.1-0.2-0.3-1.3-0.4-1.5
	c-0.4-0.1-0.5,0.1-0.5,0.4c-0.1,0.2-0.2,0.5-0.2,0.7c-0.1,0.2-0.2,0.6-0.3,0.7c-0.2,0.2-0.6,0.1-0.4-0.3l0.1,0l0.1,0.3
	c0.1,0,0.1-0.1,0.2-0.2c0-0.2-0.4-0.6-0.5-0.8c-0.1-0.1-0.2-0.3-0.3-0.4c-0.1-0.2-0.2-0.2-0.5-0.1c-0.1,0.1-0.2,1.3-0.1,1.5
	c0.1,0.1,0,0,0.1,0.1c0.1,0.1,0.1,0,0.1,0.1c-0.1,0-0.7,0-0.8-0.1c0-0.1,0,0,0.2-0.1c0.1-0.2,0.2-1.3,0.1-1.5
	c-0.2-0.1-0.6-0.1-0.7,0C63,45.5,63,46.1,63,46.3c0,0.2,0,0.6-0.2,0.7c-0.2,0.1-0.6,0-0.5-0.3l0.2,0c0.1,0.1,0,0.2,0.1,0.3
	c0.3,0.1,0.3-0.6,0.3-0.8c0-0.1,0.1-0.4,0-0.5c0-0.2-0.1-0.2-0.2-0.2l-0.1,0c0.1-0.1,0.5,0,0.6,0c0.2,0,0.4,0,0.7,0.1
	c0.2,0,0.4,0,0.6,0c0.1,0,0.5-0.1,0.6,0c0,0.1,0,0-0.2,0.1c0,0.2,0.4,0.7,0.5,0.9c0.1-0.1,0.3-0.7,0.2-0.9c-0.1-0.2-0.2,0-0.2-0.2
	c0.1,0,0.4,0,0.5-0.1l1.4-0.4c0.1,0.1,0.2,0.2,0.3,0.3c-0.2,0.1-0.4-0.3-0.8-0.1C66.7,45.1,66.8,45.3,66.9,45.7z M75.4,37.2
	c0.9-0.1,1.9,0.5,2.1,1.5c0.1,0.5-0.1,1.1-0.4,1.4c-0.9,1.2-3,0.7-3.2-0.8C73.8,38.4,74.4,37.4,75.4,37.2z M60.3,48.7
	c0.1-0.1,1.3-0.3,1.5-0.4c0.4-0.1,0.4-0.1,0.8,0c0.2,0.1,0.6,0.2,0.7,0.2C62.8,48.7,60.6,49.2,60.3,48.7z M63.8,41.3
	c1.5,0,3.3,0.6,3.9,1.2c-0.1,0.5,0,0.8,0,1.3c-0.7,0.4-2.7,0.5-4.5,0.3c-1-0.1-2.7-0.3-3.5-0.9c0-0.4-0.1-0.4-0.1-0.6
	C59.6,42.2,61.9,41.3,63.8,41.3z M43.3,64.8c0,0.1-0.1,0.1-0.1,0.2c-0.1,0.1-0.1,0.1-0.1,0.2c-0.1,0.1-0.2,0.3-0.3,0.4
	c-0.3,0.5-0.3,0.7-0.6,0.7c-0.1-0.3,0.2-0.6,0.4-0.8C42.8,65.3,43.1,64.9,43.3,64.8z"/>
</svg>
