<?xml version="1.0" encoding="utf-8"?>
<!-- Generator: Adobe Illustrator 22.1.0, SVG Export Plug-In . SVG Version: 6.00 Build 0)  -->
<svg version="1.1" id="Слой_1" xmlns="http://www.w3.org/2000/svg" xmlns:xlink="http://www.w3.org/1999/xlink" x="0px" y="0px"
	 viewBox="0 0 127.6 85" style="enable-background:new 0 0 127.6 85;" xml:space="preserve">
<style type="text/css">
	.st0{fill-rule:evenodd;clip-rule:evenodd;fill:#979898;}
</style>
<path class="st0" d="M68.7,34.7c0.1,0,0.1-0.1,0.2-0.1c0.1-0.1,0.1-0.1,0.2-0.2l1-1c0.1-0.1,0.1-0.1,0.2-0.2
	c-0.1,0.1-0.3,0.1-0.4,0.2c-0.1,0-0.6,0.1-0.7,0.1l-0.1,0c0,0-0.1,0.1-0.1,0.1c0,0-0.1,0.1-0.1,0.2C68.8,34.1,68.7,34.4,68.7,34.7
	 M66.6,36.8c0.1-0.1,0.2-0.2,0.3-0.3c-0.1,0-0.2,0-0.2,0L66.6,36.8z M60.5,38.2c0.1-0.1,0.3-0.3,0.4-0.4l1.1-1.1
	c0.1-0.1,0.1-0.1,0.2-0.2c-0.3,0-0.5,0-0.7-0.1c-0.1,0.1-0.2,0.2-0.4,0.4c-0.1,0.1-0.6,0.6-0.8,0.8c0,0.1,0.1,0.1,0.1,0.2
	C60.4,38,60.4,38.1,60.5,38.2z M56.6,39.7c0,0.1,0.4,0.2,0.5,0.2c0.1,0,0.5-0.5,0.7-0.6c0.1-0.1,0.1-0.1,0.2-0.2c0,0,0,0-0.1,0
	c-0.2,0-0.3-0.2-0.3-0.4l0,0C57.4,38.9,56.6,39.6,56.6,39.7z M60.2,36.9c0.1-0.1,0.2-0.2,0.3-0.3c0.1-0.1,0.3-0.2,0.3-0.3
	c-0.1-0.1-0.2-0.1-0.4-0.2c0,0.2-0.1,0.3-0.1,0.5C60.3,36.7,60.2,36.8,60.2,36.9z M54.2,27.1c0.2,0,0.2-0.2,0.4-0.3l0.6-0.6
	c0.2-0.2,0.3-0.2,0.3-0.4h0h-0.6c-0.2,0-0.2,0.1-0.6,0.4C54.1,26.4,54.2,26.7,54.2,27.1z M57.7,40.3c0.2,0,0.3,0.1,0.5,0.2
	c0.2-0.1,0.9-0.9,1.2-1.2c0.1-0.1,0.1-0.1,0.1-0.1h-0.6c-0.1,0-0.1,0-0.2,0c-0.1,0.1-0.3,0.3-0.6,0.6C57.8,40.1,57.7,40.1,57.7,40.3
	z M55.5,39.2c0,0.1,0.1,0.1,0.2,0.2c0.4,0.2,0.2,0.2,1-0.6c0.1-0.1,0.4-0.4,0.6-0.6c0-0.2,0-0.4,0-0.6H57c-0.2,0.1-0.4,0.4-0.7,0.7
	C56.3,38.5,55.5,39.1,55.5,39.2z M71.8,31.6c0.2-0.1,0.6-0.6,0.8-0.7c0.9-0.9,0.7-0.5,0.7-1.5c-0.2,0-0.3,0.2-0.5,0.4
	c-0.2,0.2-1.1,1.1-1.3,1.3C71.6,31.3,71.7,31.5,71.8,31.6z M70.8,39.7c0.2,0,0.8-0.4,1.1-0.5c0.3-0.1,0.5-0.4,0.9-0.7
	c0.6-0.6,0.5-0.3,0.5-1.2c-0.1,0-0.1,0-0.2,0.1l-2,2C71,39.5,70.8,39.6,70.8,39.7z M54.5,38.8c0.6,0.1,0.3,0.4,0.8-0.1l1.5-1.5
	c0.1-0.1,0.1-0.1,0.1-0.1c0-0.1,0-0.2,0-0.2c0-0.2-0.1-0.3-0.1-0.5c-0.2,0.1-0.4,0.4-0.5,0.5l-1.7,1.7
	C54.5,38.7,54.5,38.6,54.5,38.8z M54.2,28.7c0.2,0,0.2-0.1,0.4-0.3c0.7-0.7,1.6-1.6,2.3-2.3C56.9,26,57,26,57,25.9h-0.6
	c-0.2,0-0.2,0.2-0.7,0.6l-1.2,1.2C54.1,28.1,54.2,27.9,54.2,28.7z M71.1,30.7c0.3-0.3,1.5-1.5,1.7-1.6c0.1-0.1,0.2-0.2,0.3-0.3
	c0.3-0.3,0.2-0.2,0.2-1c-0.1,0-0.1,0-0.2,0.1c-0.3,0.3-1.7,1.6-2.2,2.2c0,0.1-0.1,0.1-0.1,0.2C70.9,30.5,71,30.6,71.1,30.7z
	 M54.2,35c0.1,0,0.2-0.1,0.4-0.3c0.1-0.1,0.2-0.2,0.4-0.4l1.7-1.7c0,0,0.1-0.1,0.1-0.1c0-0.2,0-0.3,0-0.5c0-0.1,0-0.2,0-0.3
	c-0.1,0.1-0.2,0.2-0.3,0.3l-1.1,1.1c-0.1,0.1-1.1,1-1.1,1.1C54.2,34.3,54.2,34.9,54.2,35z M54.2,38.1c0.1,0,0.2-0.2,0.4-0.3
	c0.2-0.2,1.7-1.7,2.2-2.2c0-0.3,0-0.5,0.1-0.9c-0.1,0.1-0.2,0.2-0.3,0.3c-0.1,0.1-0.3,0.3-0.4,0.4l-1.9,1.9
	C54.1,37.5,54.2,37.9,54.2,38.1z M54.2,36.6c0.2,0,0.2-0.1,0.4-0.3c0.3-0.3,1.9-1.9,2.3-2.3c0-0.2,0-0.5-0.1-0.7
	c-0.1,0.1-0.2,0.2-0.4,0.4l-2.1,2.1C54.1,35.9,54.2,36.4,54.2,36.6z M70.9,29.3c0.5-0.4,1.8-1.8,2-2c0.4-0.4,0.3-0.1,0.3-1
	c-0.2,0-0.2,0.1-0.4,0.3l-2.5,2.5c-0.1,0.1-0.1,0.1-0.2,0.2c0.1,0,0.2-0.1,0.3-0.1l0.5,0V29.3z M62,42.3c0.7,0.2,0,0.8,2.2-1.5
	c0.3-0.3,0.5-0.5,0.8-0.8l0.6-0.6c0.1-0.1,0.1-0.1,0.1-0.1h-0.4c-0.2,0-0.3,0-0.5,0c-0.1,0.1-0.2,0.2-0.4,0.4L62.2,42
	C62.1,42.1,62,42.1,62,42.3z M60.9,41.7c0.1,0.1,0.1,0.1,0.2,0.1c0.4,0.2,0.2,0.2,1.1-0.6l2-2c0.2-0.2,0.3-0.3,0.3-0.3
	c0,0,0-0.1,0-0.1c-0.1,0-0.1-0.1-0.1-0.2c-0.1-0.1-0.1-0.2-0.1-0.3c-0.1,0-0.1,0.1-0.2,0.1c-0.1,0.1-0.1,0.1-0.2,0.2l-2.5,2.5
	C61.2,41.4,60.9,41.6,60.9,41.7z M69.5,29.2l3-3c0.1-0.1,0.2-0.1,0.2-0.3h-0.6c-0.3,0-0.3,0.2-1,0.9c-0.3,0.3-0.6,0.6-0.9,0.9
	l-1.7,1.7c-0.1,0.1-0.1,0.1-0.2,0.2c0.3-0.1,0.5-0.3,0.8-0.3C69.2,29.2,69.4,29.2,69.5,29.2z M54.2,30.3c0.2,0,0.2-0.1,0.3-0.2
	l1.9-1.9c0.4-0.4,0.7-0.7,1.1-1.1l0.8-0.8c0.1-0.1,0.2-0.2,0.2-0.3h-0.7c-0.2,0-0.3,0.2-0.8,0.7l-2.8,2.8
	C54.1,29.6,54.2,29.5,54.2,30.3z M67.5,29.7c0.1-0.1,0.3-0.3,0.4-0.4l3.1-3.1c0.1-0.1,0.1-0.1,0.1-0.1c0.1-0.1,0.1-0.1,0.1-0.2h0
	h-0.5c-0.4,0-0.4,0.2-1.2,1l-2.6,2.6c-0.1,0.1-0.1,0.2-0.2,0.3c-0.1,0.1-0.2,0.1-0.2,0.2C66.8,29.8,67.1,29.7,67.5,29.7z M60.7,30.2
	c0.5-0.4,2-2,2.1-2.1l2-2c0.1-0.1,0.1-0.1,0.1-0.2h0h-0.6c-0.2,0-0.2,0.1-0.6,0.5l-3.5,3.5C60,30,59.9,30,59.9,30.1
	C60.2,30.1,60.4,30.1,60.7,30.2z M62.2,30.2c0,0,0.1-0.1,0.1-0.1l3.9-3.9c0.1-0.1,0.3-0.2,0.3-0.4h-0.7c-0.2,0-0.3,0.2-0.9,0.8
	l-3.2,3.2c-0.1,0.1-0.2,0.1-0.2,0.3c0.2,0,0.4,0.1,0.7,0.1H62.2z M60.2,39.2c-0.1,0.1-0.3,0.3-0.6,0.6l-0.7,0.7
	c-0.1,0.1-0.2,0.1-0.2,0.3c0.1,0,0.4,0.2,0.5,0.2c0.1,0,2.2-2.1,2.3-2.3l2-2c0.1-0.1,0.2-0.1,0.2-0.2c-0.3,0-0.6,0.1-0.9,0.1
	c0,0-0.1,0.1-0.2,0.2l-1.9,1.9c-0.1,0.1-0.1,0.1-0.1,0.1l0.1,0.5H60.2z M59.2,30.1c0,0,0.1-0.1,0.1-0.1c0.2-0.2,0.4-0.4,0.6-0.6
	l3.3-3.3c0.1-0.1,0.1-0.1,0.1-0.2h0h-0.6c-0.2,0-0.2,0.1-0.6,0.5l-3.5,3.5c-0.1,0.1-0.2,0.1-0.2,0.2c0.2,0,0.3,0,0.5,0
	C59,30.1,59.1,30.1,59.2,30.1z M59.8,41.2c0.1,0.1,0.4,0.2,0.5,0.2c0.1,0,1.9-1.9,2-2c0.1-0.1,1.6-1.6,1.9-2c0,0,0-0.1,0-0.1
	c-0.1-0.2-0.1-0.3-0.2-0.5c-0.1,0.1-0.3,0.3-0.5,0.5L62,39c-0.4,0.4-0.7,0.7-1.1,1.1c-0.2,0.2-0.4,0.4-0.6,0.6
	C60.2,40.8,59.9,41.1,59.8,41.2z M65.5,30.1c0.1-0.1,0.3-0.3,0.6-0.6l3.4-3.4c0.1-0.1,0.1-0.1,0.1-0.2h0h-0.6
	c-0.2,0-0.2,0.1-0.6,0.5c-0.2,0.2-0.4,0.4-0.5,0.5L64.7,30c0,0-0.1,0.1-0.1,0.1c0.1,0,0.3,0,0.6,0C65.3,30.1,65.4,30.1,65.5,30.1z
	 M63.8,30.2C63.8,30.2,63.8,30.2,63.8,30.2c1.3-1.4,2.7-2.7,4-4C68,26,68,26,68,25.9h0h-0.6c-0.2,0-0.2,0.1-0.6,0.5L64,29.2
	c-0.2,0.2-0.4,0.4-0.6,0.6c-0.1,0.1-0.4,0.3-0.5,0.5c0.2,0,0.5,0,0.7,0C63.7,30.2,63.7,30.2,63.8,30.2z M67.8,41.1
	c0.2,0,0.8-0.4,1.1-0.5c0.3-0.1,0.2-0.1,0.6-0.4l3.5-3.5c0.3-0.3,0.3-0.2,0.3-1c-0.2,0-0.2,0.1-0.4,0.3l-2.4,2.4
	c-0.8,0.8-1.7,1.8-2.5,2.5C67.9,41,67.9,41,67.8,41.1z M54.2,31.8c0.1,0,0.2-0.1,0.4-0.3c0.8-0.8,4.6-4.6,4.9-4.9
	c0.1-0.1,0.4-0.4,0.6-0.5c0.1-0.1,0.1-0.1,0.1-0.3h0h-0.6c-0.1,0-0.2,0.1-0.4,0.3l-4.6,4.6C54.1,31.2,54.2,30.9,54.2,31.8z
	 M66.5,38.5c0.1,0,0.1-0.1,0.2-0.1l6.5-6.5c0.1-0.1,0.1-0.4,0.1-0.8c-0.1,0-0.3,0.2-0.5,0.4l-6.4,6.4c0,0.1,0,0.2,0,0.3
	C66.4,38.2,66.5,38.3,66.5,38.5z M54.2,33.4c0.1,0,0.2-0.1,0.3-0.2c2.1-2.1,4.3-4.3,6.4-6.4l0.7-0.7c0.1-0.1,0.2-0.1,0.2-0.3h0h-0.6
	c-0.2,0-0.2,0.1-0.5,0.4l-5.9,5.9C54,32.8,54.2,32.5,54.2,33.4z M64.9,42.5c0.2,0,1.2-0.5,1.4-0.6c0.3-0.3,0.7-0.7,1-1l4-4
	c0.1-0.1,2-1.9,2-2v-0.7c-0.2,0-0.3,0.2-0.6,0.4l-7.6,7.6C65,42.3,64.9,42.3,64.9,42.5z M63.1,42.7c0.1,0.1,0.4,0.2,0.5,0.2
	c0.1,0,0.3-0.2,0.3-0.3l9.1-9.1c0.4-0.4,0.3-0.1,0.3-1c-0.2,0-0.2,0.1-0.4,0.3l-6.1,6.1C66.8,39,66.8,39,66.7,39l-0.1,0.1l0,0h0
	l-3.2,3.2C63.2,42.5,63.1,42.6,63.1,42.7z M50.8,22.7v4V39v1.8c0,0.1,0.5,0.3,0.7,0.4c0.7,0.3,2,0.9,2.6,1.2
	c0.3,0.2,0.5,0.2,0.8,0.4l1.4,0.7c0.7,0.3,2.2,1,2.8,1.3c0.1,0.1,0.3,0.1,0.4,0.2c0.1,0,0.1,0.1,0.2,0.1l0.6,0.3
	c0.1,0.1,0.2,0.1,0.4,0.2l2.9,1.3c0.1,0,1.5-0.7,1.6-0.7c0.1-0.1,0.3-0.1,0.4-0.2l3.7-1.7c0.3-0.1,0.5-0.2,0.8-0.4
	c0.6-0.3,2.3-1.1,2.8-1.3l0.8-0.4c0.1-0.1,0.3-0.1,0.4-0.2l2-0.9c0.1-0.1,0.4-0.1,0.4-0.2V39v-1.4V28v-1.7v-3.6H50.8z M75.1,39.8
	c0,0.1-11.3,5.4-11.4,5.4c-0.1,0-11.2-5.3-11.4-5.3c0,0-0.1-15.7,0.1-15.7H75c0.1,0,0.1,0,0.1,0.1V39.8z M74.1,44.5h0.2
	c0.1,0,0.2,0,0.2,0c0,0,0.1-0.1,0.1-0.1c0,0,0-0.1,0-0.1c0,0,0,0-0.1-0.1c0,0-0.1,0-0.2,0h-0.2V44.5z M74,45.1V44h0.4
	c0.1,0,0.2,0,0.3,0c0.1,0,0.1,0.1,0.1,0.1c0,0.1,0.1,0.1,0.1,0.2c0,0.1,0,0.2-0.1,0.2c-0.1,0.1-0.1,0.1-0.2,0.1c0,0,0.1,0,0.1,0.1
	c0,0,0.1,0.1,0.2,0.2l0.1,0.2h-0.2l-0.1-0.2c-0.1-0.1-0.1-0.2-0.2-0.3c0,0-0.1,0-0.1,0h-0.1v0.5H74z M74.4,43.7
	c-0.1,0-0.3,0-0.4,0.1c-0.1,0.1-0.2,0.2-0.3,0.3c-0.1,0.1-0.1,0.3-0.1,0.4c0,0.1,0,0.3,0.1,0.4c0.1,0.1,0.2,0.2,0.3,0.3
	c0.1,0.1,0.3,0.1,0.4,0.1c0.1,0,0.3,0,0.4-0.1c0.1-0.1,0.2-0.2,0.3-0.3c0.1-0.1,0.1-0.3,0.1-0.4c0-0.2,0-0.3-0.1-0.4
	c-0.1-0.1-0.2-0.2-0.3-0.3C74.7,43.7,74.5,43.7,74.4,43.7z M74.4,43.5c0.2,0,0.3,0,0.5,0.1c0.2,0.1,0.3,0.2,0.4,0.4
	c0.1,0.2,0.1,0.3,0.1,0.5c0,0.2,0,0.3-0.1,0.5c-0.1,0.2-0.2,0.3-0.4,0.4c-0.2,0.1-0.3,0.1-0.5,0.1c-0.2,0-0.4,0-0.5-0.1
	c-0.2-0.1-0.3-0.2-0.4-0.4c-0.1-0.2-0.1-0.3-0.1-0.5c0-0.2,0-0.4,0.1-0.5c0.1-0.2,0.2-0.3,0.4-0.4C74.1,43.5,74.2,43.5,74.4,43.5z
	 M57.6,37.4c0,0.2,0,0.8,0.1,1c0.1,0.2,0.1,0,0.1,0.2c0.1,0.3,0,0.1,0.1,0.2c0.1,0.1,0.6,0,0.7,0c0-0.3-0.4-0.5-0.4-0.9l0-1
	c0-0.1-0.3-0.7-0.3-0.9H58C57.9,36.7,57.6,37.3,57.6,37.4 M64.4,36.4c0,1.1,0.4,0.6,0.2,1.6c-0.1,0.4-0.2,0.5,0.1,0.5
	c0,0.1,0,0.1,0,0.2c0.2,0,0.3,0,0.5,0c0-0.2-0.1-0.2-0.2-0.4c0-0.2,0-0.4,0-0.6c0-0.5-0.2-1-0.2-1.4C64.5,36.3,64.4,36.2,64.4,36.4z
	 M62.4,30.7h-0.5c-0.3,0-0.6-0.1-0.9-0.1c-0.5,0-1.8,0-2.4-0.1c-0.3,0-0.4,0-0.7,0c-0.6,0-1,1-1,1.6c0,1,0.3,1.4,0.2,2.6
	c-0.2,1.8,0.1,1.9,0.1,2.6h0.1c0.1-0.3,0.1-0.4,0.2-0.6c0.4-0.9,0-1.3,0-2c0-0.3,0-0.5,0-0.7c-0.1-0.3-0.2-0.6,0-0.8
	c0,0.6,0.2,1,0.4,1.5c0.1,0.2,0.2,0.5,0.2,0.7c0.1,0.3,0.4,1.2,0.5,1.4c0.2,0.3,0.2,0.3,0.2,0.7c0.1,0.6,0.2,0.4,0.2,0.7
	c0,0.1,0,0.3,0.1,0.4c0.1,0.1,0-0.1,0.1,0.2c0,0,0,0.1,0.1,0.1h0.8c0-0.2-0.2-0.5-0.3-0.7c-0.4-0.9-0.2-1,0-1.7
	c0.1-0.3,0.1-0.7,0.3-0.9c0.1-0.2,0.6-0.8,0.7-1.1c0-0.1,0.1-0.1,0.1-0.2c0,0,0-0.1,0-0.1l0.1-0.1c0,0.4-0.1,0.6-0.2,0.9
	c-0.1,0.1-0.1,0.2-0.2,0.4c-0.1,0.1-0.2,0.3-0.2,0.4c0.8,0.4,0.9,0.6,1.7,0.6c0.8,0,1.5-0.2,2.6-0.2c0-0.2-0.1-0.3-0.2-0.5
	c0.5,0,0.6,0.9,0.7,1.5c0.2,0.9,0,1.3,0.2,1.6c0,0,0,0,0,0c0,0,0,0,0,0c0.1,0.2,0.1,0.2,0.5,0.2c0-0.4-0.3-0.5,0-1.9
	c0.2-1,0.1-0.8,0.5-1.7c0.1-0.2,0.1-0.2,0.1-0.4c0-0.1,0.1-0.4,0.1-0.5c0.4,0.3-0.1,1.3-0.2,1.5c-0.1,0.3-0.1,0.3,0.2,0.2
	c0.5-0.1,1-0.3,1.2-0.8c0.4-0.7,0.2-1.5,0.6-2c0.3-0.3,0.6-0.2,1-0.3c0.3-0.1,0.6-0.4,1-0.4c0.1,0,0.3,0,0.5-0.2
	c0.4-0.4,0.1-0.7-0.2-1c-0.2-0.3-0.5-0.5-0.7-0.9c-0.3,0-0.4,0-0.5-0.2c0.5,0,0.7-0.1,0.7-0.6c-0.2,0-0.2,0.1-0.4,0.1
	c-0.3,0-0.6-0.2-0.9-0.1c-0.3,0.1-0.5,0.2-0.8,0.3c-0.7,0.2-0.7-0.1-1.9,0.3c-0.3,0.1-0.6,0.2-0.9,0.2c-0.2,0-0.4,0-0.5,0
	c-0.3,0-1.2,0.1-1.5,0.1C63.1,30.7,62.8,30.7,62.4,30.7z M40.7,61.9c0,0.1,0,0.1,0,0.1c0,0,0.1,0,0.2,0H41v0.2h-1V62h0.1
	c0.1,0,0.1,0,0.2,0c0,0,0-0.1,0-0.1v-1.1c0-0.1,0-0.1,0-0.1c0,0-0.1,0-0.2,0H40v-0.2h1c0.3,0,0.5,0,0.6,0.1c0.1,0.1,0.2,0.2,0.2,0.4
	c0,0.1,0,0.2-0.1,0.3c0,0.1-0.1,0.1-0.2,0.2c-0.1,0-0.1,0.1-0.2,0.1c-0.1,0-0.2,0-0.4,0h-0.3V61.9z M40.7,61.2h0.2
	c0.2,0,0.3,0,0.4-0.1c0.1,0,0.1-0.1,0.1-0.2c0-0.1,0-0.2-0.1-0.2c-0.1,0-0.2-0.1-0.4-0.1h-0.2V61.2z M42.7,61.9c0,0.1,0,0.1,0,0.1
	c0,0,0.1,0,0.2,0H43v0.2h-1V62h0.1c0.1,0,0.1,0,0.2,0c0,0,0-0.1,0-0.1v-1.1c0-0.1,0-0.1,0-0.1c0,0-0.1,0-0.2,0H42v-0.2h1.2
	c0.2,0,0.4,0,0.5,0.1c0.1,0.1,0.2,0.2,0.2,0.4c0,0.1,0,0.3-0.1,0.3c-0.1,0.1-0.2,0.1-0.4,0.2c0.1,0,0.2,0.1,0.3,0.1
	c0.1,0.1,0.1,0.2,0.1,0.3l0,0.2c0,0.1,0,0.1,0,0.1c0,0,0,0,0.1,0c0.1,0,0.1-0.1,0.1-0.3v0H44c0,0,0,0,0,0c0,0,0,0,0,0.1
	c0,0.2,0,0.3-0.1,0.4c-0.1,0.1-0.2,0.1-0.3,0.1c-0.1,0-0.2,0-0.3-0.1c-0.1-0.1-0.1-0.2-0.1-0.3l0-0.2c0-0.2,0-0.3-0.1-0.3
	c-0.1-0.1-0.2-0.1-0.4-0.1h-0.1V61.9z M42.7,61.1H43c0.1,0,0.2,0,0.3-0.1c0.1,0,0.1-0.1,0.1-0.2c0-0.1,0-0.2-0.1-0.2
	c-0.1,0-0.2-0.1-0.3-0.1h-0.3V61.1z M44.2,62.3V62h0.1c0.1,0,0.1,0,0.2,0c0,0,0-0.1,0-0.1v-1.1c0-0.1,0-0.1,0-0.1c0,0-0.1,0-0.2,0
	h-0.1v-0.2h1.9v0.8h-0.2c0-0.2,0-0.4-0.1-0.4c-0.1-0.1-0.2-0.1-0.4-0.1h-0.5v0.6H45c0.1,0,0.2,0,0.2-0.1c0,0,0.1-0.1,0.1-0.3l0.2,0
	v1l-0.2,0c0-0.2,0-0.3-0.1-0.3c0,0-0.1-0.1-0.2-0.1h-0.1V62h0.5c0.2,0,0.3,0,0.3-0.1c0.1-0.1,0.1-0.2,0.1-0.5h0.2v0.8H44.2z
	 M48,62.3V62h0.1c0.1,0,0.1,0,0.2,0c0,0,0-0.1,0-0.1v-1.3l-0.6,1.7h-0.2L47,60.6v1.3c0,0.1,0,0.1,0,0.1c0,0,0.1,0,0.2,0h0.1v0.2
	h-0.9V62h0.1c0.1,0,0.1,0,0.2,0c0,0,0-0.1,0-0.1v-1.1c0-0.1,0-0.1,0-0.1c0,0-0.1,0-0.2,0h-0.1v-0.2h0.9l0.4,1.3l0.5-1.3H49v0.2h-0.1
	c-0.1,0-0.1,0-0.2,0c0,0,0,0.1,0,0.1v1.1c0,0.1,0,0.1,0,0.1c0,0,0.1,0,0.2,0H49v0.2H48z M49.2,62.3V62h0.1c0.1,0,0.1,0,0.2,0
	c0,0,0-0.1,0-0.1v-1.1c0-0.1,0-0.1,0-0.1c0,0-0.1,0-0.2,0h-0.1v-0.2h1v0.2h-0.1c-0.1,0-0.1,0-0.2,0c0,0,0,0.1,0,0.1v1.1
	c0,0.1,0,0.1,0,0.1c0,0,0.1,0,0.2,0h0.1v0.2H49.2z M50.6,60.7c0-0.1,0-0.1,0-0.1c0,0-0.1,0-0.2,0h-0.1v-0.2h1v0.2h-0.1
	c-0.1,0-0.1,0-0.2,0c0,0,0,0.1,0,0.1v0.9c0,0.1,0,0.2,0.1,0.3c0.1,0.1,0.2,0.1,0.3,0.1c0.1,0,0.2,0,0.3-0.1c0.1-0.1,0.1-0.2,0.1-0.3
	v-0.9c0-0.1,0-0.1,0-0.1c0,0-0.1,0-0.2,0h-0.1v-0.2h0.9v0.2h-0.1c-0.1,0-0.1,0-0.2,0c0,0,0,0.1,0,0.1v0.9c0,0.2-0.1,0.4-0.2,0.5
	c-0.1,0.1-0.3,0.2-0.6,0.2c-0.2,0-0.4-0.1-0.6-0.2c-0.1-0.1-0.2-0.3-0.2-0.5V60.7z M54.3,62.3V62h0.1c0.1,0,0.1,0,0.2,0
	c0,0,0-0.1,0-0.1v-1.3L54,62.3h-0.2l-0.6-1.7v1.3c0,0.1,0,0.1,0,0.1c0,0,0.1,0,0.2,0h0.1v0.2h-0.9V62h0.1c0.1,0,0.1,0,0.2,0
	c0,0,0-0.1,0-0.1v-1.1c0-0.1,0-0.1,0-0.1c0,0-0.1,0-0.2,0h-0.1v-0.2h0.9l0.4,1.3l0.5-1.3h0.9v0.2h-0.1c-0.1,0-0.1,0-0.2,0
	c0,0,0,0.1,0,0.1v1.1c0,0.1,0,0.1,0,0.1c0,0,0.1,0,0.2,0h0.1v0.2H54.3z M56.3,62.3V62h0.1c0.1,0,0.1,0,0.2,0c0,0,0-0.1,0-0.1v-1.1
	c0-0.1,0-0.1,0-0.1c0,0-0.1,0-0.2,0h-0.1v-0.2h1.1c0.2,0,0.4,0,0.5,0.1c0.1,0.1,0.2,0.2,0.2,0.4c0,0.1,0,0.2-0.1,0.3
	c-0.1,0.1-0.2,0.1-0.3,0.2c0.2,0,0.3,0.1,0.4,0.2c0.1,0.1,0.1,0.2,0.1,0.3c0,0.2-0.1,0.3-0.2,0.4c-0.1,0.1-0.3,0.1-0.7,0.1H56.3z
	 M57,61.1h0.3c0.2,0,0.3,0,0.3-0.1c0.1,0,0.1-0.1,0.1-0.2c0-0.1,0-0.2-0.1-0.2c-0.1,0-0.2-0.1-0.3-0.1H57V61.1z M57,62h0.3
	c0.2,0,0.3,0,0.4-0.1c0.1-0.1,0.1-0.1,0.1-0.3c0-0.1,0-0.2-0.1-0.3c-0.1-0.1-0.2-0.1-0.4-0.1H57V62z M58.4,60.3h1v0.2h-0.1
	c-0.1,0-0.1,0-0.2,0c0,0,0,0.1,0,0.1V62h0.4c0.1,0,0.2,0,0.3,0c0.1,0,0.1-0.1,0.1-0.1c0,0,0-0.1,0.1-0.2c0-0.1,0-0.2,0-0.3v0h0.2
	v0.8h-1.8V62h0.1c0.1,0,0.1,0,0.2,0c0,0,0-0.1,0-0.1v-1.1c0-0.1,0-0.1,0-0.1c0,0-0.1,0-0.2,0h-0.1V60.3z M60.3,62.3V62h0.1
	c0.1,0,0.1,0,0.2,0c0,0,0.1-0.1,0.1-0.1l0.5-1.5h0.4l0.6,1.5c0,0.1,0.1,0.1,0.1,0.2c0,0,0.1,0,0.1,0h0.1v0.2h-1V62h0.2
	c0.1,0,0.1,0,0.1,0c0,0,0,0,0-0.1c0,0,0,0,0,0c0,0,0,0,0-0.1l-0.1-0.2H61l-0.1,0.2c0,0,0,0,0,0c0,0,0,0,0,0.1c0,0,0,0,0,0.1
	c0,0,0.1,0,0.1,0h0.1v0.2H60.3z M61.6,61.4l-0.3-0.7l-0.2,0.7H61.6z M64.1,61.5h0.2c0,0.3-0.1,0.5-0.2,0.6c-0.1,0.1-0.3,0.2-0.6,0.2
	c-0.1,0-0.3,0-0.4-0.1c-0.1,0-0.2-0.1-0.3-0.2c-0.1-0.1-0.2-0.2-0.2-0.3c-0.1-0.1-0.1-0.3-0.1-0.4c0-0.1,0-0.3,0.1-0.4
	c0-0.1,0.1-0.2,0.2-0.3c0.1-0.1,0.2-0.2,0.3-0.2c0.1,0,0.2-0.1,0.4-0.1c0.1,0,0.2,0,0.3,0c0.1,0,0.2,0.1,0.3,0.2l0.1-0.2h0.2v0.8
	h-0.2c0-0.2-0.1-0.3-0.2-0.4c-0.1-0.1-0.2-0.2-0.4-0.2c-0.2,0-0.3,0.1-0.4,0.2C63,60.9,63,61,63,61.3c0,0.2,0.1,0.4,0.2,0.6
	c0.1,0.1,0.2,0.2,0.4,0.2c0.1,0,0.3,0,0.3-0.1C64,61.8,64,61.7,64.1,61.5 M65.2,61.6v0.3c0,0.1,0,0.1,0,0.1c0,0,0.1,0,0.2,0h0.1v0.2
	h-1V62h0.1c0.1,0,0.1,0,0.2,0c0,0,0-0.1,0-0.1v-1.1c0-0.1,0-0.1,0-0.1c0,0-0.1,0-0.2,0h-0.1v-0.2h1v0.2h-0.1c-0.1,0-0.1,0-0.2,0
	c0,0,0,0.1,0,0.1v0.5l0.7-0.6c0,0,0,0,0,0c0,0,0,0,0,0c0,0,0,0,0,0c0,0,0,0-0.1,0h-0.1v-0.2h1v0.2h-0.1c-0.1,0-0.2,0-0.2,0.1
	c-0.1,0-0.2,0.1-0.3,0.2l-0.3,0.3l0.6,0.8c0,0.1,0.1,0.1,0.1,0.1c0,0,0.1,0,0.2,0h0.1v0.2h-1.1V62h0.2c0.1,0,0.1,0,0.1,0
	c0,0,0,0,0,0c0,0,0,0,0,0c0,0,0,0,0-0.1l-0.4-0.6L65.2,61.6z M67.6,62.3V62h0.1c0.1,0,0.1,0,0.2,0c0,0,0.1-0.1,0.1-0.1l0.5-1.5h0.4
	l0.6,1.5c0,0.1,0.1,0.1,0.1,0.2c0,0,0.1,0,0.1,0h0.1v0.2h-1V62h0.2c0.1,0,0.1,0,0.1,0c0,0,0,0,0-0.1c0,0,0,0,0,0c0,0,0,0,0-0.1
	l-0.1-0.2h-0.6l-0.1,0.2c0,0,0,0,0,0c0,0,0,0,0,0.1c0,0,0,0,0,0.1c0,0,0.1,0,0.1,0h0.1v0.2H67.6z M68.8,61.4l-0.3-0.7l-0.2,0.7H68.8
	z M71.7,62.3h-0.4l-1-1.6v1.2c0,0.1,0,0.1,0,0.1c0,0,0.1,0,0.2,0h0.1v0.2h-1V62h0.1c0.1,0,0.1,0,0.2,0c0,0,0-0.1,0-0.1v-1.1
	c0-0.1,0-0.1,0-0.1c0,0-0.1,0-0.2,0h-0.1v-0.2h0.8l0.9,1.4v-1c0-0.1,0-0.1,0-0.1c0,0-0.1,0-0.2,0h-0.1v-0.2H72v0.2h-0.1
	c-0.1,0-0.1,0-0.2,0c0,0,0,0.1,0,0.1V62.3z M73.8,62.3l-0.1-0.2c-0.1,0.1-0.2,0.1-0.3,0.2c-0.1,0-0.2,0.1-0.3,0.1
	c-0.1,0-0.3,0-0.4-0.1c-0.1,0-0.2-0.1-0.3-0.2c-0.1-0.1-0.2-0.2-0.2-0.3c0-0.1-0.1-0.3-0.1-0.4c0-0.1,0-0.3,0.1-0.4
	c0.1-0.1,0.1-0.2,0.2-0.3c0.1-0.1,0.2-0.2,0.3-0.2c0.1,0,0.2-0.1,0.4-0.1c0.1,0,0.2,0,0.3,0.1c0.1,0,0.2,0.1,0.3,0.2l0.1-0.2H74v0.8
	h-0.2c0-0.2-0.1-0.3-0.2-0.4c-0.1-0.1-0.2-0.1-0.4-0.1c-0.2,0-0.3,0.1-0.4,0.2c-0.1,0.1-0.2,0.3-0.2,0.6c0,0.2,0.1,0.4,0.2,0.6
	c0.1,0.1,0.2,0.2,0.4,0.2c0.1,0,0.2,0,0.3-0.1c0.1-0.1,0.1-0.1,0.1-0.3v-0.1c0-0.1,0-0.1,0-0.1c0,0-0.1,0-0.2,0h-0.1v-0.2h1v0.2
	h-0.1c-0.1,0-0.1,0-0.1,0c0,0,0,0.1,0,0.1v0.6H73.8z M74.7,60.7c0-0.1,0-0.1,0-0.1c0,0-0.1,0-0.2,0h-0.1v-0.2h1v0.2h-0.1
	c-0.1,0-0.1,0-0.2,0c0,0,0,0.1,0,0.1v0.9c0,0.1,0,0.2,0.1,0.3c0.1,0.1,0.2,0.1,0.3,0.1c0.1,0,0.2,0,0.3-0.1c0.1-0.1,0.1-0.2,0.1-0.3
	v-0.9c0-0.1,0-0.1,0-0.1c0,0-0.1,0-0.2,0h-0.1v-0.2h0.9v0.2h-0.1c-0.1,0-0.1,0-0.2,0c0,0,0,0.1,0,0.1v0.9c0,0.2-0.1,0.4-0.2,0.5
	c-0.1,0.1-0.3,0.2-0.6,0.2c-0.2,0-0.4-0.1-0.6-0.2c-0.1-0.1-0.2-0.3-0.2-0.5V60.7z M76.7,62.3v-0.8h0.2c0,0.2,0.1,0.3,0.2,0.4
	c0.1,0.1,0.3,0.2,0.4,0.2c0.1,0,0.2,0,0.3-0.1c0.1,0,0.1-0.1,0.1-0.2c0-0.1,0-0.1-0.1-0.2c-0.1,0-0.1-0.1-0.3-0.1l-0.3-0.1
	c-0.2-0.1-0.4-0.1-0.5-0.2c-0.1-0.1-0.1-0.2-0.1-0.4c0-0.2,0.1-0.3,0.2-0.4c0.1-0.1,0.3-0.2,0.5-0.2c0.1,0,0.2,0,0.3,0
	c0.1,0,0.2,0.1,0.3,0.2l0.1-0.1h0.2V61H78c0-0.2-0.1-0.3-0.2-0.4c-0.1-0.1-0.2-0.1-0.4-0.1c-0.1,0-0.2,0-0.3,0.1
	c-0.1,0-0.1,0.1-0.1,0.2c0,0.1,0,0.1,0.1,0.2c0,0,0.1,0.1,0.2,0.1l0.4,0.1c0.2,0,0.4,0.1,0.5,0.2c0.1,0.1,0.2,0.2,0.2,0.4
	c0,0.2-0.1,0.3-0.2,0.4c-0.1,0.1-0.3,0.2-0.5,0.2c-0.1,0-0.2,0-0.3-0.1c-0.1,0-0.2-0.1-0.3-0.2l-0.1,0.2H76.7z M79.4,62.3V62h0.1
	c0.1,0,0.1,0,0.2,0c0,0,0-0.1,0-0.1v-1.1c0-0.1,0-0.1,0-0.1c0,0-0.1,0-0.2,0h-0.1v-0.2h1.1c0.2,0,0.4,0,0.5,0.1
	c0.1,0.1,0.2,0.2,0.2,0.4c0,0.1,0,0.2-0.1,0.3c-0.1,0.1-0.2,0.1-0.3,0.2c0.2,0,0.3,0.1,0.4,0.2c0.1,0.1,0.1,0.2,0.1,0.3
	c0,0.2-0.1,0.3-0.2,0.4c-0.1,0.1-0.3,0.1-0.7,0.1H79.4z M80.1,61.1h0.3c0.2,0,0.3,0,0.3-0.1c0.1,0,0.1-0.1,0.1-0.2
	c0-0.1,0-0.2-0.1-0.2c-0.1,0-0.2-0.1-0.3-0.1h-0.3V61.1z M80.1,62h0.3c0.2,0,0.3,0,0.4-0.1c0.1-0.1,0.1-0.1,0.1-0.3
	c0-0.1,0-0.2-0.1-0.3c-0.1-0.1-0.2-0.1-0.4-0.1h-0.3V62z M81.5,62.3V62h0.1c0.1,0,0.1,0,0.2,0c0,0,0-0.1,0-0.1v-1.1
	c0-0.1,0-0.1,0-0.1c0,0-0.1,0-0.2,0h-0.1v-0.2h1.9v0.8h-0.2c0-0.2,0-0.4-0.1-0.4c-0.1-0.1-0.2-0.1-0.4-0.1h-0.5v0.6h0.1
	c0.1,0,0.2,0,0.2-0.1c0,0,0.1-0.1,0.1-0.3l0.2,0v1l-0.2,0c0-0.2,0-0.3-0.1-0.3c0,0-0.1-0.1-0.2-0.1h-0.1V62h0.5c0.2,0,0.3,0,0.3-0.1
	c0.1-0.1,0.1-0.2,0.1-0.5h0.2v0.8H81.5z M83.7,62.3V62h0.1c0.1,0,0.1,0,0.2,0c0,0,0-0.1,0-0.1v-1.1c0-0.1,0-0.1,0-0.1
	c0,0-0.1,0-0.2,0h-0.1v-0.2h1.9v0.8h-0.2c0-0.2,0-0.4-0.1-0.4c-0.1-0.1-0.2-0.1-0.4-0.1h-0.5v0.6h0.1c0.1,0,0.2,0,0.2-0.1
	c0,0,0.1-0.1,0.1-0.3l0.2,0v1l-0.2,0c0-0.2,0-0.3-0.1-0.3c0,0-0.1-0.1-0.2-0.1h-0.1V62h0.5c0.2,0,0.3,0,0.3-0.1
	c0.1-0.1,0.1-0.2,0.1-0.5h0.2v0.8H83.7z M85.8,62.3V62H86c0.1,0,0.1,0,0.2,0c0,0,0-0.1,0-0.1v-1.1c0-0.1,0-0.1,0-0.1
	c0,0-0.1,0-0.2,0h-0.1v-0.2h1.8v0.8h-0.2c0-0.1,0-0.2,0-0.3c0-0.1,0-0.1-0.1-0.2c0-0.1-0.1-0.1-0.1-0.1c-0.1,0-0.2,0-0.3,0h-0.4v0.6
	h0c0.1,0,0.2,0,0.2-0.1c0,0,0.1-0.1,0.1-0.3l0.2,0v1l-0.2,0c0-0.2,0-0.3-0.1-0.3c0,0-0.1-0.1-0.2-0.1h-0.1v0.5c0,0.1,0,0.1,0,0.1
	c0,0,0.1,0,0.2,0h0.1v0.2H85.8z M15.6,49H19c0.5,0,1,0.1,1.4,0.2c0.4,0.1,0.7,0.3,1,0.6c0.3,0.3,0.5,0.6,0.6,0.9
	c0.1,0.4,0.2,0.8,0.2,1.2v0c0,0.5-0.1,0.9-0.3,1.3c-0.2,0.4-0.4,0.7-0.7,0.9c-0.3,0.3-0.7,0.4-1.1,0.6c-0.4,0.1-0.9,0.2-1.3,0.2
	h-1.4v2.5h-1.9V49z M18.9,53.2c0.5,0,0.8-0.1,1.1-0.4c0.3-0.2,0.4-0.6,0.4-0.9v0c0-0.4-0.1-0.7-0.4-1c-0.3-0.2-0.6-0.3-1.1-0.3h-1.4
	v2.6H18.9z M32,49h1.9v8.5H32V49z M35.3,49h2l2.2,3.6l2.2-3.6h2v8.5h-1.8v-5.5l-2.4,3.6h0l-2.4-3.6v5.5h-1.8V49z M45.2,49h6.4v1.7
	H47v1.7h4V54h-4v1.8h4.6v1.7h-6.4V49z M53,49h3.9c1,0,1.7,0.3,2.2,0.7c0.4,0.4,0.6,0.9,0.6,1.4v0c0,0.2,0,0.5-0.1,0.6
	c-0.1,0.2-0.1,0.4-0.2,0.5c-0.1,0.1-0.2,0.3-0.4,0.4c-0.1,0.1-0.3,0.2-0.4,0.3c0.5,0.2,0.9,0.4,1.2,0.8c0.3,0.3,0.4,0.8,0.4,1.3v0
	c0,0.4-0.1,0.7-0.2,1c-0.1,0.3-0.4,0.5-0.6,0.7c-0.3,0.2-0.6,0.3-1,0.4c-0.4,0.1-0.8,0.1-1.3,0.1h-4V49z M56.5,52.4
	c0.4,0,0.7-0.1,1-0.2c0.2-0.1,0.4-0.4,0.4-0.7v0c0-0.3-0.1-0.5-0.3-0.6c-0.2-0.1-0.5-0.2-0.9-0.2h-1.8v1.8H56.5z M57,55.8
	c0.4,0,0.7-0.1,1-0.2c0.2-0.1,0.4-0.4,0.4-0.7v0c0-0.3-0.1-0.5-0.3-0.7c-0.2-0.2-0.6-0.2-1.1-0.2h-2.2v1.9H57z M61.1,49h6.4v1.7H63
	v1.7h4V54h-4v1.8h4.6v1.7h-6.4V49z M68.9,49h6.4v1.7h-4.5v1.7h4V54h-4v1.8h4.6v1.7h-6.4V49z M76.7,49h6.4v1.7h-4.6v1.8h4.6v1.7h-4.6
	v3.3h-1.9V49z M28.5,54.6c0.1,0.1,0.3,0.2,0.4,0.3c0.2,0.2,0.3,0.3,0.5,0.5C30,56,30.2,56,31,56l0,1.5c-1.5,0.2-2.4-0.1-3.3-1.2
	c-0.1-0.2-0.5-0.6-0.6-0.7c-0.1-0.1-0.2-0.2-0.3-0.3c-0.1-0.1-0.4-0.2-0.5-0.2h-0.8v2.5h-1.9V49H27c0.5,0,1,0.1,1.4,0.2
	c0.4,0.1,0.7,0.3,1,0.6c0.3,0.3,0.5,0.6,0.6,0.9c0.1,0.4,0.2,0.8,0.2,1.2v0c0,0.5-0.1,0.9-0.3,1.3c-0.2,0.4-0.4,0.7-0.7,0.9
	C29,54.3,28.8,54.5,28.5,54.6 M26.9,53.2c0.5,0,0.8-0.1,1.1-0.4c0.3-0.2,0.4-0.6,0.4-0.9v0c0-0.4-0.1-0.7-0.4-1
	c-0.3-0.2-0.6-0.3-1.1-0.3h-1.4v2.6H26.9z M87.3,49h3.9c1,0,1.7,0.2,2.2,0.7c0.4,0.4,0.6,0.9,0.6,1.4v0c0,0.2,0,0.5-0.1,0.6
	c-0.1,0.2-0.1,0.4-0.2,0.5c-0.1,0.1-0.2,0.3-0.4,0.4c-0.1,0.1-0.3,0.2-0.4,0.3c0.5,0.2,0.9,0.4,1.2,0.8c0.3,0.3,0.4,0.8,0.4,1.3v0
	c0,0.4-0.1,0.7-0.2,1c-0.1,0.3-0.4,0.5-0.6,0.7c-0.3,0.2-0.6,0.3-1,0.4c-0.4,0.1-0.8,0.1-1.3,0.1h-4V49z M90.8,52.4
	c0.4,0,0.7-0.1,1-0.2c0.2-0.1,0.4-0.4,0.4-0.7v0c0-0.3-0.1-0.5-0.3-0.6c-0.2-0.1-0.5-0.2-0.9-0.2h-1.8v1.8H90.8z M91.3,55.8
	c0.4,0,0.7-0.1,1-0.2c0.2-0.1,0.4-0.4,0.4-0.7v0c0-0.3-0.1-0.5-0.3-0.7c-0.2-0.2-0.6-0.2-1.1-0.2h-2.2v1.9H91.3z M109.4,54.6
	c0.1,0.1,0.3,0.2,0.4,0.3c0.2,0.2,0.3,0.3,0.5,0.5c0.6,0.6,0.8,0.6,1.6,0.5l0,1.5c-1.5,0.2-2.4-0.1-3.3-1.2
	c-0.1-0.2-0.5-0.6-0.6-0.7c-0.1-0.1-0.2-0.2-0.3-0.3c-0.1-0.1-0.4-0.2-0.5-0.2h-0.8v2.5h-1.9V49h3.5c0.5,0,1,0.1,1.4,0.2
	c0.4,0.1,0.7,0.3,1,0.6c0.3,0.3,0.5,0.6,0.6,0.9c0.1,0.4,0.2,0.8,0.2,1.2v0c0,0.5-0.1,0.9-0.3,1.3c-0.2,0.4-0.4,0.7-0.7,0.9
	C110,54.3,109.7,54.5,109.4,54.6 M107.8,53.2c0.5,0,0.8-0.1,1.1-0.4c0.3-0.2,0.4-0.6,0.4-0.9v0c0-0.4-0.1-0.7-0.4-1
	c-0.3-0.2-0.6-0.3-1.1-0.3h-1.4v2.6H107.8z M101,55.5h-3.6l-0.8,1.9h-1.9l3.6-8.6h1.7l3.6,8.6h-2L101,55.5z M98.1,53.9h2.3l-1.1-2.8
	L98.1,53.9z"/>
</svg>
