<?xml version="1.0" encoding="utf-8"?>
<!-- Generator: Adobe Illustrator 22.1.0, SVG Export Plug-In . SVG Version: 6.00 Build 0)  -->
<svg version="1.1" id="Слой_1" xmlns="http://www.w3.org/2000/svg" xmlns:xlink="http://www.w3.org/1999/xlink" x="0px" y="0px"
	 viewBox="0 0 127.6 85" style="enable-background:new 0 0 127.6 85;" xml:space="preserve">
<style type="text/css">
	.st0{fill:#979898;}
</style>
<path class="st0" d="M43.1,55.2l0.1,2.6l-10.8,2.4L32.3,60c0.7-1,0.8-1.3,0.6-2.1l-2.2-9.5c-0.2-0.8-0.5-1.1-1.5-1.6l0-0.3l6.5-1.4
	l0.1,0.3c-0.7,1-0.8,1.3-0.6,2.1l2.4,10.8l0.2-0.1c1.1-0.3,2-0.8,5.1-3.1L43.1,55.2z M50.1,42.9l-6.7,0.6v0.3c1,0.7,1.2,1,1.3,1.8
	l0.6,7.1c0.3,2.9,1.9,4.9,6.4,4.4c4.5-0.5,5.7-2.6,5.4-5.5l-0.4-5.6c-0.1-1.4-0.1-1.9,1.3-3.7v-0.3L54,42.5v0.3
	c1.6,1.5,1.8,2,1.9,3.3l0.5,5.3c0.2,2.3-0.5,3.7-3,4c-2.3,0.2-3.3-1.1-3.6-3.3l-0.6-6.9c-0.1-0.8,0.1-1.2,0.9-2V42.9z M73.6,44.6
	l-0.1-2.2c-1.4-0.2-3.2-0.4-4.1-0.4c-5-0.1-8.3,2.6-8.4,7.2c-0.1,4.4,2.9,7.2,7.6,7.3c1.5,0,3.1-0.3,4.2-0.5l0.5-2.3l-0.2-0.1
	c-2.6,1.9-3.4,2.3-4.6,2.3c-2.7-0.1-2.8-2.4-2.7-6.5c0.1-4.7,0.4-6.6,2.9-6.6c1,0,1.7,0.3,4.7,1.8L73.6,44.6z M82.2,45.5
	c0.1-0.8,0.3-1.1,1.3-1.8v-0.3l-6.7-0.7v0.3c0.8,0.9,1,1.2,0.9,2l-1,9.6c-0.1,0.8-0.3,1.1-1.3,1.8v0.3l6.6,0.7v-0.3
	c-0.8-0.9-1-1.2-0.9-2L82.2,45.5z M98.4,60.3c-0.7-1.3-0.9-1.8-1-3l-1.3-11.7L92,44.7l-5.6,9.5c-0.8,1.3-1.3,1.8-2.6,2.8l-0.1,0.4
	l4.4,1l0.1-0.3c-1.2-1.4-1.6-1.8-1.4-2.5c0.1-0.4,0.3-0.7,0.5-1.1l0.5-1l4.8,1.1l0.2,2.1c0.1,0.5,0.1,0.9,0,1.2
	c-0.1,0.4-0.4,0.7-1.2,1.1l-0.1,0.3l6.8,1.5L98.4,60.3 M88.2,52.9l3.6-6l0.7,7L88.2,52.9z M48.2,63.1c-0.7,0-1.4,0.3-1.8,0.7
	c-0.5,0.5-0.7,1.1-0.7,1.7c0,0.7,0.3,1.3,0.7,1.7c0.5,0.5,1.1,0.7,1.8,0.7s1.4-0.3,1.8-0.7c0.5-0.5,0.7-1.1,0.7-1.7
	c0-0.7-0.3-1.3-0.7-1.7C49.6,63.4,48.9,63.1,48.2,63.1 M48.2,64.3c0.4,0,0.7,0.1,0.9,0.4c0.3,0.3,0.4,0.5,0.4,1c0,0.4-0.1,0.7-0.4,1
	c-0.3,0.3-0.5,0.4-0.9,0.4s-0.7-0.1-0.9-0.4c-0.3-0.3-0.4-0.5-0.4-1c0-0.4,0.1-0.7,0.4-1C47.6,64.4,47.9,64.3,48.2,64.3z M56.1,64.1
	c-0.4-0.6-0.9-1-1.6-1c-0.5,0-0.9,0.1-1.2,0.4c-0.3,0.3-0.5,0.6-0.5,1c0,0.6,0.4,1.1,1.2,1.4l0.5,0.2c0.4,0.2,0.5,0.3,0.5,0.5
	c0,0.3-0.2,0.4-0.5,0.4c-0.4,0-0.7-0.2-1.1-0.6l-0.8,0.6c0.4,0.6,1,1.1,1.9,1.1c0.5,0,0.9-0.1,1.3-0.4c0.4-0.3,0.5-0.6,0.5-1.1
	c0-0.6-0.4-1.1-1.2-1.4l-0.5-0.3c-0.3,0-0.4-0.1-0.4-0.3s0.2-0.3,0.5-0.3c0.4,0,0.5,0.2,0.8,0.5L56.1,64.1 M57.9,63.2v1.1h1.4v3.6
	h1.3v-3.6h1.4v-1.1H57.9z M64,63.2v4.7h3.3v-1.1h-2.2V66h1.5v-1h-1.4v-0.6h2.1v-1.1L64,63.2L64,63.2z M72.4,66.2
	c0.5-0.3,0.7-0.7,0.7-1.4c0-0.5-0.2-0.9-0.5-1.2c-0.4-0.3-0.8-0.5-1.4-0.5h-1.9v4.7h1.3v-1.4h0.5l1.1,1.4h1.4L72.4,66.2z M71.5,64.3
	c0.4,0,0.5,0.2,0.5,0.5c0,0.4-0.2,0.5-0.5,0.5h-0.6v-1.1H71.5z M76.9,63.2h-1.2v4.7h1.3L76.9,63.2L76.9,63.2z M83.4,68l-2.2-4.8
	h-0.4L78.7,68h1.4l0.2-0.4H82l0.2,0.4H83.4z M80.7,66.5l0.4-1.1l0.5,1.1H80.7z M57.9,26.7c1.4,0,2.5-0.4,2.7-0.5
	c0.5-0.2,0.6-0.6,0.5-1c-0.2-0.5-0.6-0.6-1-0.5c0,0-3.5,1.2-4.4-0.8c-0.4-0.9-0.4-1.8,0-2.7c0.6-1.4,2.1-2.3,2.7-2.4
	c1.2-0.3,2.7-0.7,5.9,0.9c1.1,0.5,2.1,0.9,2.9,1.2l-4.7,8.2c-0.2,0.4-0.1,0.8,0.3,1.1c0.1,0.1,0.3,0.1,0.4,0.1
	c0.3,0,0.5-0.2,0.7-0.4l5-8.6c0.9,0,1.7-0.2,2.4-0.6c0.2-0.1,0.3-0.3,0.4-0.5c0-0.2,0-0.5-0.1-0.5c-0.3-0.4-0.7-0.5-1.1-0.2
	c-0.5,0.1-1.1,0.3-2,0.1l0,0c-0.8-0.1-1.9-0.5-3.5-1.3c-3.7-1.8-5.7-1.4-7-1c-1,0.3-2.8,1.4-3.7,3.2c-0.6,1.4-0.6,2.7-0.1,4.1
	C54.9,26,56.1,26.7,57.9,26.7 M75.1,29.1c-0.2-0.4-0.6-0.5-1-0.4c-0.2,0.1-0.4,0.3-0.5,0.5s-0.1,0.5,0,0.6c0,0,0.8,1.9,0.1,3.1
	c-0.5,0.7-1.4,1.2-3,1.2c-2.8,0.1-5-1.1-7.1-2.2h-0.1c-0.5-0.3-0.9-0.5-1.4-0.7c-1.6-0.8-3.3-1.4-5.4-1.3c-1.8,0.2-3.1,1.1-3.4,2.3
	c-0.3,1,0,2,0.8,2.6c0.6,0.5,2.4,1.5,5.9-0.4c0.4-0.2,0.5-0.6,0.4-1.1c-0.1-0.2-0.3-0.4-0.5-0.4c-0.2-0.1-0.5,0-0.6,0.1
	c-2.3,1.2-3.7,1-4.2,0.5c-0.3-0.3-0.4-0.5-0.3-0.9c0.2-0.5,0.8-1.1,2.2-1.3c1.7-0.2,3.2,0.5,4.6,1.1c0.5,0.2,0.9,0.5,1.4,0.7
	c2.2,1.1,4.5,2.3,7.6,2.3c0.1,0,0.3,0,0.4,0c2.1-0.1,3.5-0.7,4.2-1.9C76.3,31.8,75.1,29.3,75.1,29.1 M43.6,65.6
	c0-0.5-0.4-0.8-0.8-0.8c-0.5,0-0.8,0.4-0.8,0.8c0,0.5,0.4,0.8,0.8,0.8C43.3,66.4,43.6,66.1,43.6,65.6 M87.2,65.6
	c0-0.5-0.4-0.8-0.8-0.8s-0.8,0.4-0.8,0.8c0,0.5,0.4,0.8,0.8,0.8S87.2,66.1,87.2,65.6"/>
</svg>
