<?xml version="1.0" encoding="utf-8"?>
<!-- Generator: Adobe Illustrator 19.2.1, SVG Export Plug-In . SVG Version: 6.00 Build 0)  -->
<svg version="1.1" id="Слой_1" xmlns="http://www.w3.org/2000/svg" xmlns:xlink="http://www.w3.org/1999/xlink" x="0px" y="0px"
	 width="115px" height="48px" viewBox="0 0 115 48" enable-background="new 0 0 115 48" xml:space="preserve">
<g>
	<path fill="#949393" d="M25.188,29.677c1.024-0.262,2.173-0.235,3.184,0.066c0.501,0.149,0.915,0.367,1.336,0.672
		c0.147,0.107,0.262,0.345,0.456,0.357c0.277,0.018,0.61-0.289,0.273-0.546c-1.539-1.675-5.826-2.094-7.282-0.068
		c-1.08,1.503,0.675,2.724,2.034,2.936c1.071,0.166,3.88-0.175,4.217,1.22c-0.02,1.479-1.949,1.603-3.034,1.547
		c-0.69-0.036-1.336-0.199-1.984-0.429c-0.387-0.137-1.237-0.25-0.672,0.391c0.343,0.389,1.471,0.543,1.96,0.614
		c0.668,0.098,1.385,0.112,2.053,0.005c1.184-0.19,2.363-0.837,2.31-2.206c-0.369-2.009-3.438-1.51-4.896-1.799
		c-0.745-0.147-1.88-0.629-1.634-1.573C23.687,30.182,24.579,29.833,25.188,29.677C26.643,29.305,24.519,29.849,25.188,29.677z"/>
	<polygon fill="#949393" points="37.976,29.009 37.976,33.798 32.345,33.798 32.345,29.009 31.708,29.009 31.708,33.798 
		30.854,33.798 30.854,34.436 31.708,34.436 31.708,36.528 32.345,36.528 32.345,34.436 37.976,34.436 37.976,36.528 38.614,36.528 
		38.614,34.436 38.614,34.436 38.614,33.798 38.614,33.798 38.614,29.009 	"/>
	<rect x="40.441" y="29.009" fill="#949393" width="0.637" height="7.518"/>
	<polygon fill="#949393" points="22.052,34.436 22.052,33.798 15.828,33.798 15.828,29.647 21.959,29.647 21.959,29.009 
		15.191,29.009 15.191,33.798 14.104,33.798 14.104,34.436 15.191,34.436 15.191,36.528 21.959,36.528 21.959,35.89 15.828,35.89 
		15.828,34.436 	"/>
	<path fill="#949393" d="M7.88,34.534L7.88,34.534l3.039,0c4.447,0,4.44-5.525,0-5.525H7.242v7.514H7.88V34.534z M7.88,29.647h3.039
		c3.597,0,3.604,4.25,0,4.25H7.88V29.647z"/>
	<path fill="#949393" d="M16.38,14.878l1.648,1.642l4.412-4.413c0.774,0.757,1.548,1.514,2.322,2.27V9.807
		c-0.774,0.757-1.548,1.513-2.322,2.27l-0.295-0.294l0.295,0.294l-4.412-4.413L13.6,12.092
		C14.526,13.018,15.485,13.926,16.38,14.878z M18.034,12.557l0.59-0.545v2.181c-0.393-0.364-0.787-0.727-1.181-1.09L18.034,12.557z
		 M16.358,12.607c-1.144-0.001-1.018-1.828,0.122-1.659C17.482,11.096,17.343,12.571,16.358,12.607z"/>
	<path fill="#949393" d="M26.871,12.092c1.477,1.477,2.949,2.955,4.428,4.428l4.413-4.413c0.774,0.757,1.548,1.513,2.322,2.27V9.807
		c-0.774,0.757-1.548,1.513-2.322,2.27L31.3,7.664L26.871,12.092z M30.452,11.628c0.161,0.923-1.155,1.357-1.569,0.515
		C28.341,11.043,30.237,10.413,30.452,11.628L30.452,11.628z M35.262,11.628l0.45,0.449L35.262,11.628L35.262,11.628z
		 M31.896,12.011v2.181c-0.394-0.363-0.787-0.727-1.181-1.09C31.109,12.738,31.502,12.375,31.896,12.011z"/>
	<path fill="#949393" d="M23.032,8.194l1.648,1.642l4.413-4.413c0.774,0.757,1.548,1.514,2.322,2.271V3.122
		c-0.774,0.757-1.549,1.513-2.323,2.27L24.68,0.98l-4.428,4.428C21.178,6.334,22.137,7.242,23.032,8.194z M29.093,5.393
		L29.093,5.393L28.759,5.06L29.093,5.393z M24.686,5.873l0.59-0.545v2.181c-0.394-0.363-0.787-0.727-1.181-1.09L24.686,5.873z
		 M23.01,5.923c-1.144,0-1.018-1.828,0.122-1.659C24.14,4.413,23.996,5.883,23.01,5.923z"/>
	<path fill="#949393" d="M47.861,43.913c-5.553,4.007-12.979,2.739-19.221,1.604c-3.724-0.677-7.445-1.442-11.195-1.962
		c-3.145-0.436-6.395-0.659-9.527-0.002C4.873,44.192,2.113,45.704,0,48c5.115-4.812,11.972-4.635,18.474-3.548
		c3.734,0.624,7.448,1.365,11.181,1.994c3.069,0.516,6.192,0.935,9.309,0.707c3.426-0.251,6.715-1.341,9.356-3.572
		C48.32,43.58,48.161,43.696,47.861,43.913C47.711,44.021,48.161,43.696,47.861,43.913z"/>
	<path fill="#949393" d="M31.415,16.479c-0.775,0.756-1.549,1.513-2.323,2.27c-0.322-0.322-0.353-0.387-0.739-0.449
		c-0.514-0.083-1.112,0-1.632,0c-0.963,0-1.927,0-2.89,0c0.355,1.977-2.99,0.373-1.219-0.588c0.315-0.171,0.716-0.117,0.974,0.131
		c0.119,0.114,0.18,0.402,0.285,0.457c0.171,0.089,0.635,0,0.824,0c0.975,0,1.949,0,2.924,0c0.76,0,0.937-0.086,1.473,0.449
		l-4.413-4.413l-4.428,4.428c1.477,1.477,2.949,2.954,4.428,4.428l4.413-4.413c0.774,0.757,1.548,1.514,2.323,2.271V16.479z
		 M25.276,20.864c-0.393-0.364-0.787-0.727-1.181-1.09c0.394-0.363,0.787-0.727,1.181-1.091V20.864z"/>
</g>
</svg>
