<?xml version="1.0" encoding="utf-8"?>
<!-- Generator: Adobe Illustrator 19.2.1, SVG Export Plug-In . SVG Version: 6.00 Build 0)  -->
<svg version="1.1" id="Слой_1" xmlns="http://www.w3.org/2000/svg" xmlns:xlink="http://www.w3.org/1999/xlink" x="0px" y="0px"
	 width="115px" height="48px" viewBox="0 0 115 48" enable-background="new 0 0 115 48" xml:space="preserve">
<style type="text/css">
	.st0{fill:#1A1A18;}
</style>
<path class="st0" d="M36.2,28.3c0.1,0.1,0.1,0.2,0.1,0.3c0,0.1,0,0.2-0.1,0.3c-0.1,0.1-0.2,0.1-0.3,0.1h0c-0.1,0-0.2,0-0.3-0.1
	c0,0,0-0.1,0-0.1c0,0,0.1,0,0.1,0c0,0,0.1,0.1,0.2,0.1c0.1,0,0.1,0,0.2-0.1c0,0,0.1-0.1,0.1-0.2c0-0.1,0-0.1-0.1-0.2
	c0,0-0.1-0.1-0.2-0.1c-0.1,0-0.1,0-0.2,0.1c0,0-0.1,0-0.1,0l0,0l0,0l0,0l0,0l0,0v0l0.1-0.5c0,0,0-0.1,0-0.1l0,0l0,0c0,0,0,0,0,0h0.5
	c0.1,0,0.1,0,0.1,0.1c0,0.1,0,0.1-0.1,0.1h-0.4l0,0.2c0,0,0.1,0,0.1,0C36,28.2,36.1,28.2,36.2,28.3 M35.1,27.9V29
	c0,0.1,0,0.1-0.1,0.1c-0.1,0-0.1,0-0.1-0.1v-0.9l-0.1,0c0,0,0,0-0.1,0c0,0-0.1,0-0.1,0c0,0,0-0.1,0-0.1l0.2-0.1l0,0l0,0l0,0l0,0l0,0
	L35.1,27.9L35.1,27.9L35.1,27.9L35.1,27.9L35.1,27.9L35.1,27.9L35.1,27.9L35.1,27.9L35.1,27.9L35.1,27.9L35.1,27.9L35.1,27.9
	L35.1,27.9L35.1,27.9L35.1,27.9L35.1,27.9C35.1,27.9,35.1,27.9,35.1,27.9z M35.6,26.3c0-0.2,0-0.3,0.1-0.4c0.1-0.1,0.2-0.2,0.3-0.2
	c0.1,0,0.3,0.1,0.3,0.2c0.1,0.1,0.1,0.3,0.1,0.4c0,0.2,0,0.3-0.1,0.4c-0.1,0.1-0.2,0.2-0.3,0.2c-0.1,0-0.3-0.1-0.3-0.2
	C35.7,26.6,35.6,26.5,35.6,26.3z M36.3,26.3c0-0.1,0-0.2-0.1-0.3c-0.1-0.1-0.1-0.1-0.2-0.1c-0.1,0-0.1,0-0.2,0.1
	c-0.1,0.1-0.1,0.2-0.1,0.3c0,0.1,0,0.2,0.1,0.3c0.1,0.1,0.1,0.1,0.2,0.1s0.1,0,0.2-0.1C36.3,26.5,36.3,26.4,36.3,26.3z M35.2,26.8
	C35.2,26.9,35.2,26.9,35.2,26.8l-0.7,0.1c0,0-0.1,0-0.1,0c0,0,0-0.1,0-0.1l0.5-0.5c0.1,0,0.1-0.1,0.1-0.2c0-0.1,0-0.1-0.1-0.2
	c0-0.1-0.1-0.1-0.2-0.1c-0.1,0-0.1,0-0.2,0.1l-0.1,0c0,0-0.1,0-0.1,0c0,0,0-0.1,0-0.1l0.1-0.1c0.1-0.1,0.2-0.1,0.3-0.1
	c0.1,0,0.2,0,0.3,0.1c0.1,0.1,0.1,0.2,0.1,0.3c0,0.1,0,0.2-0.1,0.3l-0.3,0.3L35.2,26.8C35.2,26.7,35.2,26.8,35.2,26.8z M4.4,29v-1.1
	c0-0.1,0-0.1,0.1-0.1h0.2c0.3,0,0.6,0.3,0.6,0.6c0,0.3-0.3,0.6-0.6,0.6L4.4,29C4.4,29.1,4.4,29,4.4,29z M4.6,28.9h0.1
	c0.2,0,0.4-0.2,0.4-0.4c0-0.2-0.2-0.4-0.4-0.4H4.6V28.9z M3.8,28H3.5v1c0,0.1,0,0.1-0.1,0.1c-0.1,0-0.1,0-0.1-0.1v-1H3.1
	C3,28,3,28,3,27.9c0-0.1,0-0.1,0.1-0.1h0.8C3.9,27.8,3.9,27.9,3.8,28C3.9,28,3.9,28,3.8,28z M4.3,26.6c0,0,0.1,0,0.1,0
	c0.1,0.1,0.2,0.1,0.3,0.1c0.1,0,0.2,0,0.2-0.1c0.1,0,0.1-0.1,0.1-0.1c0,0,0,0,0-0.1c0,0,0,0-0.1-0.1c-0.1,0-0.1-0.1-0.2-0.1h0
	c-0.1,0-0.2,0-0.2-0.1c-0.1,0-0.1-0.1-0.2-0.1c0,0,0-0.1,0-0.1c0-0.1,0.1-0.2,0.1-0.3c0.1-0.1,0.2-0.1,0.3-0.1
	c0.2,0,0.3,0.1,0.4,0.1c0,0,0.1,0.1,0,0.1c0,0-0.1,0.1-0.1,0c-0.1-0.1-0.2-0.1-0.3-0.1c-0.1,0-0.2,0-0.2,0.1c0,0-0.1,0.1-0.1,0.1
	c0,0,0,0,0,0c0,0,0,0,0,0c0,0,0.1,0.1,0.2,0.1h0c0.1,0,0.2,0,0.2,0.1c0.1,0,0.1,0.1,0.2,0.1c0,0,0,0.1,0,0.2c0,0.1-0.1,0.2-0.2,0.3
	c-0.1,0.1-0.2,0.1-0.3,0.1c-0.2,0-0.4-0.1-0.5-0.2C4.3,26.7,4.3,26.7,4.3,26.6z M3.1,26.8v-1.1c0-0.1,0-0.1,0.1-0.1h0.6
	c0.1,0,0.1,0,0.1,0.1s0,0.1-0.1,0.1H3.3v0.3h0.4c0.1,0,0.1,0,0.1,0.1c0,0.1,0,0.1-0.1,0.1H3.3v0.3h0.5c0.1,0,0.1,0,0.1,0.1
	c0,0.1,0,0.1-0.1,0.1H3.2L3.1,26.8L3.1,26.8C3.2,26.9,3.1,26.9,3.1,26.8z M35.2,35.2l-0.4,0.7l0.3,0.3c0,0.1,0.1,0.1,0,0.2
	c0,0,0,0,0,0c-0.1,0.1-0.2,0.1-0.3,0L33.6,35c0-0.1-0.1-0.1,0-0.2c0-0.1,0.1-0.1,0.2-0.1l2,0.2c0.1,0,0.2,0.1,0.2,0.2c0,0,0,0,0,0.1
	c0,0.1-0.1,0.1-0.2,0.1L35.2,35.2z M34.9,35.2l-0.7-0.1l0.5,0.5L34.9,35.2z M32.8,36.6l0.6,1.9l0.6-0.8c0.1-0.1,0.2-0.1,0.3,0
	c0.1,0.1,0.1,0.2,0,0.2L33.4,39l0,0l0,0l0,0l0,0l0,0l0,0l0,0l0,0l0,0l0,0h0l0,0l0,0l0,0l0,0l0,0l0,0l0,0l0,0l0,0l0,0l0,0l0,0l0,0
	l0,0l-0.6-1.9l-0.6,0.8c-0.1,0.1-0.2,0.1-0.2,0c-0.1-0.1-0.1-0.2,0-0.2l0.8-1.1l0,0l0,0l0,0l0,0l0,0l0,0l0,0l0,0l0,0l0,0h0l0,0l0,0
	l0,0l0,0l0,0L32.8,36.6L32.8,36.6L32.8,36.6L32.8,36.6L32.8,36.6L32.8,36.6L32.8,36.6L32.8,36.6L32.8,36.6z M31.1,38.8l0.2,2
	l0.8-0.7c0.1-0.1,0.2-0.1,0.3,0c0.1,0.1,0.1,0.2,0,0.3l-1,0.9c0,0,0,0,0,0l0,0l0,0l0,0l0,0l0,0l0,0l0,0l0,0l0,0l0,0l0,0l0,0l0,0l0,0
	l0,0l0,0l0,0l0,0l0,0l0,0l0,0l0,0l0,0l0,0l-0.2-2L30,39.9c-0.1,0.1-0.2,0.1-0.2,0c-0.1-0.1-0.1-0.2,0-0.2l1-0.9l0,0l0,0l0,0l0,0l0,0
	l0,0l0,0l0,0l0,0l0,0l0,0l0,0l0,0l0,0l0,0l0,0l0,0l0,0L31.1,38.8L31.1,38.8L31.1,38.8L31.1,38.8L31.1,38.8L31.1,38.8L31.1,38.8z
	 M28.6,40.6c-0.1-0.1,0-0.2,0-0.2c0.1-0.1,0.2,0,0.2,0L30,42c0.1,0.1,0,0.2,0,0.2c-0.1,0.1-0.2,0-0.2,0L28.6,40.6z M27.8,42.5
	l-0.3,0.2l0.3,0.6c0,0.1,0,0.2-0.1,0.2c-0.1,0-0.2,0-0.2-0.1l-0.9-1.7c0-0.1,0-0.2,0.1-0.2l0,0l0.5-0.3c0.3-0.2,0.7,0,0.9,0.3
	C28.3,41.9,28.2,42.3,27.8,42.5z M27.3,42.4l0.3-0.2c0.2-0.1,0.2-0.3,0.1-0.4c-0.1-0.2-0.3-0.2-0.4-0.1L27,41.8L27.3,42.4z
	 M23.5,44.8L23.1,43c0-0.1,0-0.2,0.1-0.2l0,0l0,0l1-0.2c0.1,0,0.2,0,0.2,0.1c0,0.1,0,0.2-0.1,0.2l-0.8,0.2l0.1,0.6l0.7-0.2
	c0.1,0,0.2,0,0.2,0.1c0,0.1,0,0.2-0.1,0.2L23.7,44l0.1,0.6l0.8-0.2c0.1,0,0.2,0,0.2,0.1c0,0.1,0,0.2-0.1,0.2l-1,0.2l0,0l0,0
	C23.6,45,23.5,44.9,23.5,44.8z M20.5,45.2l-0.1-1.9c0-0.1,0.1-0.2,0.2-0.2l0.4,0c0.6,0,1.1,0.4,1.2,1c0,0.6-0.4,1.2-1,1.2l-0.4,0
	C20.6,45.3,20.5,45.3,20.5,45.2z M20.8,45l0.2,0c0.4,0,0.7-0.4,0.7-0.8c0-0.4-0.4-0.7-0.8-0.7l-0.2,0L20.8,45z M18.6,44.8l-0.8-0.1
	l-0.2,0.4c0,0.1-0.1,0.1-0.2,0.1c0,0,0,0-0.1,0c-0.1,0-0.1-0.2-0.1-0.2l0.9-1.8c0-0.1,0.1-0.1,0.2-0.1c0.1,0,0.1,0.1,0.2,0.1
	l0.5,1.9c0,0.1,0,0.2-0.1,0.2c0,0,0,0-0.1,0c-0.1,0-0.1-0.1-0.1-0.1L18.6,44.8z M18.5,44.4l-0.2-0.7L18,44.3L18.5,44.4z M16.4,42.9
	l-0.5,1.8c0,0.1-0.1,0.1-0.2,0.1c-0.1,0-0.1-0.1-0.1-0.2l0.4-1.3l-0.6,0.5c0,0-0.1,0-0.2,0l0,0l0,0c-0.1,0-0.1-0.1-0.1-0.1l-0.3-0.7
	l-0.4,1.3c0,0.1-0.1,0.1-0.2,0.1c-0.1,0-0.1-0.1-0.1-0.2l0.5-1.8c0-0.1,0.1-0.1,0.2-0.1l0,0c0,0,0.1,0.1,0.1,0.1l0.4,1l0.9-0.7
	c0,0,0.1,0,0.2,0h0C16.4,42.7,16.4,42.8,16.4,42.9z M11.3,42.8l0.9-1.7c0-0.1,0.2-0.1,0.2-0.1l0,0l0,0l0.9,0.5
	c0.1,0,0.1,0.2,0.1,0.2c0,0.1-0.2,0.1-0.2,0.1l-0.8-0.4L12.1,42l0.7,0.4c0.1,0,0.1,0.2,0.1,0.2c0,0.1-0.2,0.1-0.2,0.1L12,42.3
	l-0.3,0.5l0.8,0.4c0.1,0,0.1,0.2,0.1,0.2c0,0.1-0.2,0.1-0.2,0.1l-0.9-0.5l0,0l0,0C11.3,43,11.2,42.9,11.3,42.8z M11.1,40.5l-1.2,1.5
	C9.9,42,9.7,42,9.7,42c-0.1-0.1-0.1-0.2,0-0.2l0.8-1l-0.8,0.2c-0.1,0-0.1,0-0.2,0l0,0l0,0c0,0-0.1-0.1-0.1-0.1l0-0.8l-0.8,1
	C8.6,41,8.5,41,8.4,41c-0.1-0.1-0.1-0.2,0-0.2l1.2-1.5c0.1-0.1,0.2-0.1,0.2,0l0,0c0,0,0.1,0.1,0.1,0.1l-0.1,1.1l1-0.3
	c0.1,0,0.1,0,0.2,0l0,0C11.1,40.3,11.2,40.4,11.1,40.5z M8.4,38.2c0,0.3-0.2,0.6-0.4,0.8c-0.2,0.2-0.5,0.3-0.8,0.3
	c-0.3,0-0.6-0.2-0.7-0.4c-0.2-0.2-0.3-0.5-0.2-0.8c0-0.3,0.2-0.6,0.4-0.8C6.8,37,7.1,36.9,7.4,37c0.3,0,0.6,0.2,0.8,0.4
	C8.4,37.6,8.4,37.9,8.4,38.2z M7.7,38.6C7.9,38.5,8,38.3,8,38.1c0-0.2,0-0.4-0.1-0.5c-0.1-0.2-0.3-0.2-0.5-0.3c-0.2,0-0.4,0-0.6,0.2
	c-0.2,0.1-0.3,0.3-0.3,0.5c0,0.2,0,0.4,0.1,0.5c0.1,0.1,0.3,0.2,0.5,0.2C7.3,38.8,7.6,38.8,7.7,38.6z M4.3,35l1.7-0.9
	c0.1,0,0.2,0,0.2,0.1c0,0.1,0,0.2-0.1,0.2l-0.7,0.3l0.4,0.7l0.7-0.3c0.1,0,0.2,0,0.2,0.1c0,0.1,0,0.2-0.1,0.2L5,36.4
	c-0.1,0-0.2,0-0.2-0.1s0-0.2,0.1-0.2l0.7-0.3L5.1,35l-0.7,0.3c-0.1,0-0.2,0-0.2-0.1C4.1,35.2,4.2,35.1,4.3,35z M28.6,17.2
	c-0.1,0.1-0.3,0.1-0.4,0c-0.1-0.1-0.1-0.3,0-0.4l2.2-2.4l0,0c0.1-0.1,0.2-0.1,0.3-0.1c0.2,0,0.3,0.2,0.3,0.3l-0.3,3.1l1.6-1.7
	c0.1-0.1,0.3-0.1,0.4,0c0.1,0.1,0.1,0.3,0,0.4l-2.2,2.5c-0.1,0.1-0.3,0.1-0.4,0c-0.1-0.1-0.1-0.2-0.1-0.2c0,0,0,0,0,0l0.3-3.1
	L28.6,17.2z M26.5,15.2l-1.3-0.5l-0.5,0.6c-0.1,0.1-0.2,0.1-0.4,0.1c0,0-0.1,0-0.1-0.1c-0.1-0.1-0.1-0.3,0-0.5l2.5-2.6
	c0.1-0.1,0.2-0.1,0.4-0.1c0.1,0,0.2,0.2,0.2,0.3L27,16c0,0.2-0.2,0.3-0.3,0.3c0,0-0.1,0-0.1,0c-0.1,0-0.2-0.2-0.2-0.3L26.5,15.2z
	 M26.5,14.5l0.1-1.3l-0.9,0.9L26.5,14.5z M22.7,11.1c0-0.2,0.2-0.3,0.4-0.3c0.2,0,0.3,0.2,0.3,0.4l-0.6,3.3c0,0.2-0.2,0.3-0.4,0.3
	c-0.2,0-0.3-0.2-0.3-0.4L22.7,11.1z M18.4,14.3L18.2,11c0-0.2,0.1-0.3,0.3-0.3s0.3,0.1,0.3,0.3l0.1,3l1.5-0.1c0.2,0,0.3,0.1,0.3,0.3
	c0,0.2-0.1,0.3-0.3,0.3l-1.8,0.1h0h0C18.5,14.7,18.4,14.5,18.4,14.3z M16,14.2l-1.3,0.5l0,0.8c0,0.1-0.1,0.2-0.2,0.3
	c0,0-0.1,0-0.1,0c-0.2,0-0.3-0.2-0.3-0.3l0.1-3.6c0-0.1,0.1-0.3,0.2-0.3c0.1,0,0.3,0,0.4,0.1l2.3,2.8c0.1,0.1,0.1,0.3,0,0.4
	c0,0-0.1,0-0.1,0.1c-0.1,0-0.3,0-0.3-0.1L16,14.2z M15.6,13.7l-0.8-1l0,1.3L15.6,13.7z M11.5,13.5L10.7,14l1.7,2.5
	c0.1,0.1,0.1,0.3-0.1,0.4c-0.1,0.1-0.3,0.1-0.4-0.1l-1.7-2.5l-0.7,0.5C9.3,15,9.1,14.9,9,14.8c-0.1-0.1-0.1-0.3,0.1-0.4l2-1.4
	c0.1-0.1,0.3-0.1,0.4,0.1C11.6,13.2,11.6,13.4,11.5,13.5z M7.1,16.7c-0.1-0.1-0.1-0.3,0-0.4c0.1-0.1,0.3-0.1,0.4,0l2.5,2.3
	c0.1,0.1,0.1,0.3,0,0.4c-0.1,0.1-0.3,0.1-0.4,0L7.1,16.7z M28.5,22.3c-2.2-2.3-5.4-3.6-8.5-3.6c-3.2,0-6.3,1.3-8.5,3.5l-0.2,0.2
	l2.3,4.8v4c0,0.7,0.6,1.3,1.3,1.3c0.4,0,0.8-0.2,1-0.6l4.1,8.5l2.1-4.4v0.5c0,0.7,0.6,1.3,1.3,1.3c0.7,0,1.3-0.6,1.3-1.3V31l4.1-8.5
	L28.5,22.3z M23.6,30.8v5.9c0,0.2-0.1,0.3-0.3,0.3s-0.3-0.1-0.3-0.3v-4.7L20,38.3l-4.9-10.1v3.1c0,0.2-0.1,0.3-0.3,0.3
	c-0.2,0-0.3-0.1-0.3-0.3v-4.3l-0.9-1.8c1.8-1.4,4-2.2,6.3-2.2c2.3,0,4.5,0.8,6.3,2.2L23.6,30.8z M26.7,24.5
	c-1.9-1.5-4.3-2.3-6.7-2.3c-2.4,0-4.8,0.8-6.7,2.2l-0.9-1.8c2-1.9,4.8-3,7.6-3c2.8,0,5.6,1.1,7.6,3L26.7,24.5z M20.6,33.4
	c0.2,0,0.4,0.1,0.6,0.3l0.6-0.6c-0.3-0.3-0.7-0.5-1.2-0.5c-0.4,0-0.9,0.1-1.2,0.4c-0.7,0.6-0.8,1.7-0.2,2.4l0.6-0.6
	c-0.2-0.2-0.2-0.5-0.1-0.8l1,1.1l0.6-0.6l-1-1.1C20.4,33.4,20.5,33.4,20.6,33.4z M23.1,24.8c-0.8-0.5-1.9-0.3-2.5,0.5l0.8,0.5
	c0.2-0.3,0.5-0.4,0.8-0.4l-0.8,1.3l0.8,0.5l0.8-1.3c0.1,0.3,0.1,0.6,0,0.9l0.8,0.5C24.2,26.5,24,25.4,23.1,24.8z M21,31.9
	c-0.5,0-0.9-0.2-1.2-0.5c-0.7-0.7-0.7-1.8,0-2.4c0.7-0.7,1.8-0.7,2.4,0l0,0c0.7,0.7,0.7,1.8,0,2.4C21.9,31.7,21.5,31.9,21,31.9z
	 M21,29.3c-0.2,0-0.4,0.1-0.6,0.3c-0.3,0.3-0.3,0.9,0,1.2c0.2,0.2,0.4,0.3,0.6,0.3c0.2,0,0.4-0.1,0.6-0.3c0.3-0.3,0.3-0.9,0-1.2
	C21.5,29.4,21.3,29.3,21,29.3z M20.9,29.9c0.3,0,0.3-0.4,0-0.4C20.7,29.5,20.7,29.9,20.9,29.9z M21.5,30.6c0.3,0,0.3-0.4,0-0.4
	C21.2,30.2,21.2,30.6,21.5,30.6z M20.7,30.7c0.3,0,0.3-0.4,0-0.4C20.5,30.3,20.5,30.7,20.7,30.7z M17.5,28.6c-0.5,0-0.9-0.2-1.2-0.5
	c-0.3-0.3-0.5-0.8-0.5-1.2c0-0.5,0.2-0.9,0.5-1.2c0.7-0.7,1.8-0.7,2.4,0c0.3,0.3,0.5,0.8,0.5,1.2c0,0.5-0.2,0.9-0.5,1.2
	C18.4,28.5,18,28.6,17.5,28.6z M17.5,26.1c-0.2,0-0.4,0.1-0.6,0.3c-0.2,0.2-0.3,0.4-0.3,0.6s0.1,0.4,0.3,0.6
	c0.2,0.2,0.4,0.3,0.6,0.3s0.4-0.1,0.6-0.3c0.2-0.2,0.3-0.4,0.3-0.6c0-0.2-0.1-0.4-0.3-0.6C17.9,26.2,17.7,26.1,17.5,26.1z
	 M17.4,26.7c0.3,0,0.3-0.4,0-0.4C17.1,26.3,17.1,26.7,17.4,26.7z M18,27.4c0.3,0,0.3-0.4,0-0.4C17.7,27,17.7,27.4,18,27.4z
	 M17.2,27.5c0.3,0,0.3-0.4,0-0.4C16.9,27.1,16.9,27.5,17.2,27.5z M20.2,20.6c0.4,0,0.4-0.6,0-0.6C19.8,20,19.8,20.6,20.2,20.6z
	 M13.5,22.9c0.4,0,0.4-0.6,0-0.6C13.1,22.2,13.1,22.9,13.5,22.9z M15.8,21.6c0.4,0,0.4-0.6,0-0.6C15.3,21,15.3,21.6,15.8,21.6z
	 M18,21c0.4,0,0.4-0.6,0-0.6C17.6,20.3,17.6,21,18,21z M22.4,20.8c0.4,0,0.4-0.6,0-0.6C22,20.2,22,20.8,22.4,20.8z M24.7,21.8
	c0.4,0,0.4-0.6,0-0.6C24.3,21.1,24.3,21.8,24.7,21.8z M26.6,22.9c0.4,0,0.4-0.6,0-0.6C26.1,22.3,26.1,22.9,26.6,22.9z M15,22.9
	c0.4,0,0.4-0.6,0-0.6C14.6,22.3,14.6,22.9,15,22.9z M17.1,22.1c0.4,0,0.4-0.6,0-0.6C16.7,21.5,16.7,22.1,17.1,22.1z M19.2,21.7
	c0.4,0,0.4-0.6,0-0.6S18.8,21.7,19.2,21.7z M21.3,21.7c0.4,0,0.4-0.6,0-0.6C20.9,21.1,20.9,21.7,21.3,21.7z M23.2,22.2
	c0.4,0,0.4-0.6,0-0.6C22.8,21.6,22.8,22.2,23.2,22.2z M25.3,23c0.4,0,0.4-0.6,0-0.6C24.9,22.4,24.9,23,25.3,23z M20,48.1
	c-11,0-20-9-20-20s9-20,20-20s20,9,20,20C40,39.2,31,48.1,20,48.1z M20,9C11,9,3.4,15.3,1.4,23.8h5.9v0.9H1.2
	c-0.2,1.1-0.3,2.3-0.3,3.5c0,0.7,0,1.3,0.1,2h6.3V31H1.1c1.4,9.2,9.3,16.2,18.9,16.2s17.5-7,18.9-16.2h-6.2v-0.9H39
	c0.1-0.7,0.1-1.3,0.1-2c0-1.2-0.1-2.4-0.3-3.5h-6.1v-0.9h5.9C36.6,15.3,29,9,20,9z"/>
</svg>
