<?xml version="1.0" encoding="utf-8"?>
<!-- Generator: Adobe Illustrator 16.0.0, SVG Export Plug-In . SVG Version: 6.00 Build 0)  -->
<!DOCTYPE svg PUBLIC "-//W3C//DTD SVG 1.1//EN" "http://www.w3.org/Graphics/SVG/1.1/DTD/svg11.dtd">
<svg version="1.1" id="Слой_1" xmlns="http://www.w3.org/2000/svg" xmlns:xlink="http://www.w3.org/1999/xlink" x="0px" y="0px"
	 width="115px" height="48px" viewBox="0 0 115 48" enable-background="new 0 0 115 48" xml:space="preserve">
<path fill="#323231" d="M0.385,43.081V22.619c0,0,0.02-0.03,0.127-0.015c0.109,0.014,0.167,0.049,0.167,0.049
	c0.451,0.195,0.836,0.809,1.154,1.606c0.859,2.151,0.898,4.341,0.168,6.516c-0.322,0.96-0.766,1.771-1.271,2.043L0.644,32.86
	L0.73,32.9c0.506,0.273,0.95,1.083,1.271,2.045c0.73,2.177,0.691,4.365-0.168,6.518c-0.301,0.753-0.695,1.245-1.065,1.485
	C0.769,42.948,0.597,43.052,0.385,43.081 M33.442,43.081c0.211-0.029,0.383-0.133,0.383-0.133c0.37-0.24,0.765-0.732,1.066-1.485
	c0.858-2.152,0.896-4.341,0.168-6.518c-0.322-0.962-0.768-1.771-1.273-2.045L33.7,32.86l0.087-0.042
	c0.505-0.272,0.951-1.083,1.273-2.043c0.729-2.175,0.69-4.365-0.168-6.516c-0.319-0.798-0.705-1.412-1.155-1.606
	c0,0-0.059-0.036-0.167-0.049c-0.109-0.015-0.128,0.015-0.128,0.015V43.081 M41.579,39.364c0.077-4.012,0.081-8.095,0.015-12.155
	c-0.03-1.874-0.072-3.457-0.12-3.886c-0.048,0.429-0.09,2.012-0.12,3.886c-0.065,4.061-0.062,8.144,0.016,12.155
	c0.027,1.486,0.063,2.672,0.104,3.034C41.515,42.036,41.551,40.851,41.579,39.364L41.579,39.364 M43.041,39.835
	c-0.424,1.597-0.965,2.863-1.567,3.253c-0.602-0.39-1.143-1.656-1.567-3.253c-1.144-4.302-1.196-8.682-0.224-13.033
	c0.449-2.011,1.077-3.708,1.791-4.169c0.714,0.461,1.341,2.158,1.791,4.169C44.236,31.153,44.186,35.533,43.041,39.835z
	 M49.383,39.364c0.079-4.012,0.08-8.095,0.017-12.155c-0.031-1.874-0.073-3.457-0.121-3.886c-0.048,0.429-0.091,2.012-0.121,3.886
	c-0.063,4.061-0.062,8.144,0.015,12.155c0.029,1.486,0.065,2.672,0.106,3.034C49.319,42.036,49.355,40.851,49.383,39.364
	L49.383,39.364 M50.845,39.835c-0.423,1.597-0.965,2.863-1.566,3.253c-0.602-0.39-1.144-1.656-1.567-3.253
	c-1.145-4.302-1.196-8.682-0.223-13.033c0.45-2.011,1.076-3.708,1.791-4.169c0.713,0.461,1.341,2.158,1.791,4.169
	C52.041,31.153,51.99,35.533,50.845,39.835z M12.621,26.453c-0.821-1.926-1.762-3.501-2.556-3.824l1.944,10.426H8.091l1.944-10.426
	c-0.794,0.323-1.734,1.898-2.556,3.824c-1.777,4.164-2.542,8.553-2.208,13.076c0.123,1.675,0.423,3.049,0.95,3.552l1.811-9.715
	h4.034l1.811,9.715c0.525-0.503,0.827-1.877,0.95-3.552C15.163,35.006,14.398,30.617,12.621,26.453 M56.142,43.081
	c0.21-0.029,0.383-0.133,0.383-0.133c0.37-0.24,0.764-0.732,1.065-1.485c0.859-2.152,0.897-4.341,0.168-6.518
	c-0.32-0.962-0.766-1.771-1.271-2.045l-0.087-0.04l0.087-0.042c0.505-0.272,0.951-1.083,1.271-2.043
	c0.729-2.175,0.691-4.365-0.168-6.516c-0.317-0.798-0.703-1.412-1.154-1.606c0,0-0.059-0.036-0.167-0.049
	c-0.107-0.015-0.127,0.015-0.127,0.015V43.081 M68.376,26.453c-0.821-1.926-1.762-3.501-2.556-3.824l1.944,10.426h-3.918
	l1.945-10.426c-0.796,0.323-1.735,1.898-2.558,3.824c-1.775,4.164-2.54,8.553-2.207,13.076c0.124,1.675,0.423,3.049,0.95,3.552
	l1.813-9.715h4.033l1.812,9.715c0.525-0.503,0.825-1.877,0.95-3.552C70.919,35.006,70.153,30.617,68.376,26.453 M28.088,26.453
	c-0.822-1.926-1.762-3.501-2.555-3.824l0.008,0.051l-1.807,18.45l-1.829-18.485l-0.007,0.036l0.008-0.045
	c-0.794,0.325-1.733,1.9-2.556,3.824c-1.776,4.163-2.542,8.551-2.208,13.071c0.125,1.673,0.425,3.047,0.951,3.55l3.602-19.319
	l1.878,18.986l0.029,0.291h0.262l0.029-0.291l1.856-18.944l3.594,19.277c0.528-0.503,0.827-1.877,0.952-3.552
	C30.63,35.006,29.865,30.617,28.088,26.453 M73.806,22.852v-0.098h-0.083c-0.021-0.024-0.036-0.041-0.036-0.041v0.041h-0.191v20.328
	h0.311v-7.887c0.02-0.023,0.043-0.049,0.063-0.074c0.755,1.041,2.102,3.288,2.045,6.049v1.925h0.313v-2.005
	c0.062-2.907-1.436-5.245-2.16-6.202C78.692,29.187,74.57,23.765,73.806,22.852 M53.437,42.234c0.039-0.583,0.04-1.172,0.007-1.761
	c-0.016-0.271-0.037-0.5-0.06-0.564c-0.024,0.064-0.045,0.293-0.061,0.564c-0.031,0.589-0.03,1.178,0.008,1.761
	c0.015,0.215,0.034,0.386,0.053,0.438C53.404,42.62,53.421,42.449,53.437,42.234L53.437,42.234 M53.83,42.609
	c-0.121,0.301-0.275,0.541-0.446,0.613c-0.171-0.072-0.326-0.313-0.446-0.613c-0.325-0.812-0.34-1.639-0.063-2.461
	c0.127-0.379,0.306-0.7,0.509-0.787c0.203,0.087,0.382,0.408,0.51,0.787C54.17,40.971,54.156,41.798,53.83,42.609z M0.679,18.404
	c0.045-0.012,0.132-0.021,0.246-0.021c0.289,0,0.479,0.13,0.479,0.398c0,0.279-0.193,0.432-0.508,0.432
	c-0.087,0-0.16-0.006-0.217-0.021l0,0V18.404z M0.417,20.216h0.261v-0.811c0.06,0.015,0.132,0.018,0.21,0.018
	c0.256,0,0.481-0.075,0.62-0.223c0.102-0.105,0.156-0.249,0.156-0.432c0-0.181-0.066-0.328-0.177-0.424
	c-0.121-0.109-0.31-0.169-0.568-0.169c-0.211,0-0.375,0.019-0.502,0.04V20.216z M4.7,19.375l0.198-0.587
	C4.938,18.666,4.97,18.542,5,18.422h0.006c0.031,0.117,0.061,0.238,0.105,0.369l0.199,0.584l0,0H4.7z M5.364,19.58l0.216,0.637h0.28
	L5.168,18.19H4.853l-0.688,2.026h0.271l0.21-0.637H5.364z M8.957,20.216v-0.866c0-0.336-0.006-0.58-0.021-0.835l0.01-0.003
	c0.102,0.219,0.237,0.451,0.377,0.676l0.644,1.028h0.265V18.19H9.985v0.848c0,0.315,0.006,0.562,0.03,0.832l-0.006,0.003
	c-0.096-0.208-0.214-0.421-0.364-0.659L8.996,18.19H8.711v2.026H8.957z M13.624,19.375l0.198-0.587
	c0.039-0.123,0.072-0.246,0.103-0.366h0.006c0.031,0.117,0.061,0.238,0.105,0.369l0.198,0.584l0,0H13.624z M14.288,19.58
	l0.218,0.637h0.279l-0.692-2.026h-0.315l-0.689,2.026h0.271l0.21-0.637H14.288z M17.533,20.118c0.108,0.072,0.322,0.132,0.517,0.132
	c0.478,0,0.71-0.274,0.71-0.587c0-0.297-0.175-0.463-0.518-0.595c-0.28-0.108-0.403-0.202-0.403-0.391
	c0-0.139,0.106-0.304,0.382-0.304c0.184,0,0.319,0.06,0.384,0.097l0.072-0.213c-0.089-0.051-0.24-0.1-0.447-0.1
	c-0.394,0-0.656,0.234-0.656,0.551c0,0.285,0.204,0.457,0.535,0.574c0.274,0.104,0.382,0.213,0.382,0.402
	c0,0.205-0.157,0.346-0.423,0.346c-0.181,0-0.353-0.06-0.47-0.133L17.533,20.118z M21.671,18.19v2.026h0.261V18.19H21.671z
	 M25.324,19.375l0.199-0.587c0.039-0.123,0.072-0.246,0.103-0.366h0.006c0.03,0.117,0.06,0.238,0.105,0.369l0.198,0.584l0,0H25.324z
	 M25.99,19.58l0.215,0.637h0.28l-0.692-2.026h-0.315l-0.688,2.026h0.27l0.211-0.637H25.99z M29.583,20.216v-0.866
	c0-0.336-0.006-0.58-0.021-0.835l0.008-0.003c0.102,0.219,0.237,0.451,0.379,0.676l0.643,1.028h0.265V18.19H30.61v0.848
	c0,0.315,0.006,0.562,0.03,0.832l-0.006,0.003c-0.096-0.208-0.213-0.421-0.364-0.659l-0.649-1.025h-0.285v2.026H29.583z M37.32,18.4
	c0.042-0.012,0.132-0.023,0.259-0.023c0.276,0.003,0.466,0.117,0.466,0.379c0,0.231-0.177,0.384-0.458,0.384H37.32l0,0V18.4z
	 M37.059,20.216h0.261v-0.877h0.247c0.237,0.009,0.346,0.114,0.405,0.394c0.058,0.252,0.103,0.424,0.136,0.483h0.271
	c-0.042-0.078-0.091-0.273-0.157-0.556c-0.048-0.21-0.141-0.354-0.297-0.409v-0.008c0.213-0.073,0.382-0.25,0.382-0.518
	c0-0.156-0.058-0.295-0.16-0.384c-0.126-0.114-0.306-0.166-0.586-0.166c-0.18,0-0.37,0.016-0.502,0.042V20.216z M42.278,19.05
	h-0.787V18.41h0.833V18.19h-1.094v2.026h1.14v-0.219h-0.879v-0.73h0.787V19.05z M45.16,20.118c0.107,0.072,0.322,0.132,0.517,0.132
	c0.478,0,0.709-0.274,0.709-0.587c0-0.297-0.174-0.463-0.517-0.595c-0.28-0.108-0.403-0.202-0.403-0.391
	c0-0.139,0.104-0.304,0.381-0.304c0.184,0,0.319,0.06,0.385,0.097l0.073-0.213c-0.092-0.051-0.241-0.1-0.449-0.1
	c-0.395,0-0.656,0.234-0.656,0.551c0,0.285,0.205,0.457,0.535,0.574c0.274,0.104,0.383,0.213,0.383,0.402
	c0,0.205-0.156,0.346-0.424,0.346c-0.18,0-0.353-0.06-0.469-0.133L45.16,20.118z M49.682,20.216h0.265v-1.804h0.62V18.19h-1.501
	v0.222h0.616V20.216z M53.501,19.375l0.198-0.587c0.041-0.123,0.072-0.246,0.103-0.366h0.005c0.03,0.117,0.06,0.238,0.105,0.369
	l0.198,0.584l0,0H53.501z M54.166,19.58l0.217,0.637h0.278L53.97,18.19h-0.315l-0.688,2.026h0.269l0.211-0.637H54.166z
	 M57.425,18.19v1.194c0,0.627,0.313,0.866,0.728,0.866c0.438,0,0.767-0.255,0.767-0.878V18.19h-0.265v1.2
	c0,0.448-0.192,0.646-0.492,0.646c-0.271,0-0.472-0.193-0.472-0.646v-1.2H57.425z M62.187,18.4c0.042-0.012,0.134-0.023,0.259-0.023
	c0.277,0.003,0.466,0.117,0.466,0.379c0,0.231-0.177,0.384-0.457,0.384h-0.268l0,0V18.4z M61.927,20.216h0.26v-0.877h0.248
	c0.236,0.009,0.346,0.114,0.405,0.394c0.058,0.252,0.102,0.424,0.136,0.483h0.27c-0.041-0.078-0.09-0.273-0.155-0.556
	c-0.048-0.21-0.141-0.354-0.298-0.409v-0.008c0.212-0.073,0.382-0.25,0.382-0.518c0-0.156-0.058-0.295-0.159-0.384
	c-0.128-0.114-0.307-0.166-0.587-0.166c-0.18,0-0.369,0.016-0.501,0.042V20.216z M66.494,19.375l0.197-0.587
	c0.04-0.123,0.072-0.246,0.103-0.366h0.007c0.029,0.117,0.06,0.238,0.105,0.369l0.197,0.584l0,0H66.494z M67.159,19.58l0.216,0.637
	h0.279l-0.691-2.026h-0.314l-0.689,2.026h0.27l0.211-0.637H67.159z M70.752,20.216v-0.866c0-0.336-0.007-0.58-0.022-0.835
	l0.011-0.003c0.102,0.219,0.237,0.451,0.378,0.676l0.643,1.028h0.266V18.19h-0.247v0.848c0,0.315,0.006,0.562,0.031,0.832
	l-0.007,0.003c-0.097-0.208-0.215-0.421-0.364-0.659l-0.648-1.025h-0.286v2.026H70.752z M75.42,20.216h0.266v-1.804h0.619V18.19
	h-1.501v0.222h0.616V20.216z M0.533,47.128l0.198-0.584c0.039-0.124,0.072-0.246,0.102-0.366h0.006
	c0.03,0.116,0.06,0.236,0.104,0.369l0.198,0.581l0,0H0.533z M1.196,47.332l0.215,0.635H1.69l-0.689-2.021H0.687L0,47.967h0.27
	l0.209-0.635H1.196z M7.646,47.967H7.91v-1.798h0.618v-0.223H7.031v0.223h0.615V47.967z M11.289,47.128l0.198-0.584
	c0.039-0.124,0.072-0.246,0.102-0.366h0.006c0.03,0.116,0.06,0.236,0.104,0.369l0.198,0.581l0,0H11.289z M11.952,47.332l0.216,0.635
	h0.279l-0.689-2.021h-0.314l-0.687,2.021h0.27l0.209-0.635H11.952z M15.022,47.867C15.13,47.939,15.343,48,15.538,48
	c0.477,0,0.708-0.273,0.708-0.584c0-0.297-0.174-0.463-0.516-0.594c-0.278-0.107-0.401-0.2-0.401-0.39
	c0-0.139,0.104-0.303,0.38-0.303c0.183,0,0.318,0.061,0.384,0.095l0.072-0.213c-0.09-0.051-0.24-0.098-0.446-0.098
	c-0.393,0-0.654,0.232-0.654,0.548c0,0.284,0.204,0.455,0.534,0.573c0.272,0.104,0.38,0.213,0.38,0.402
	c0,0.202-0.156,0.344-0.423,0.344c-0.18,0-0.351-0.06-0.467-0.133L15.022,47.867z M19.366,47.967h0.264v-1.798h0.618v-0.223h-1.496
	v0.223h0.614V47.967z M23.899,46.804h-0.785v-0.639h0.831v-0.219h-1.091v2.021h1.136v-0.218h-0.875v-0.73h0.785V46.804z
	 M29.886,46.968c0-0.442,0.215-0.841,0.647-0.841c0.434,0,0.645,0.42,0.645,0.82c0,0.459-0.234,0.84-0.648,0.84
	C30.119,47.787,29.886,47.399,29.886,46.968L29.886,46.968 M30.544,45.914c-0.539,0-0.938,0.42-0.938,1.061
	c0,0.612,0.375,1.025,0.908,1.025c0.516,0,0.938-0.369,0.938-1.065C31.453,46.336,31.096,45.914,30.544,45.914z M34.172,47.967h0.26
	v-0.913h0.765v-0.217h-0.765v-0.672h0.828v-0.219h-1.088V47.967z M41.291,47.967h0.264v-1.798h0.617v-0.223h-1.496v0.223h0.615
	V47.967z M44.778,45.946v2.021h0.261v-0.948h0.978v0.948h0.263v-2.021h-0.263v0.845h-0.978v-0.845H44.778z M50.159,46.804h-0.785
	v-0.639h0.83v-0.219h-1.09v2.021h1.135v-0.218h-0.875v-0.73h0.785V46.804z M56.146,46.968c0-0.442,0.216-0.841,0.647-0.841
	c0.435,0,0.645,0.42,0.645,0.82c0,0.459-0.234,0.84-0.648,0.84C56.378,47.787,56.146,47.399,56.146,46.968L56.146,46.968
	 M56.805,45.914c-0.54,0-0.938,0.42-0.938,1.061c0,0.612,0.375,1.025,0.907,1.025c0.517,0,0.938-0.369,0.938-1.065
	C57.712,46.336,57.356,45.914,56.805,45.914z M60.693,46.156c0.041-0.012,0.131-0.024,0.258-0.024
	c0.275,0.004,0.464,0.117,0.464,0.379c0,0.231-0.177,0.383-0.455,0.383h-0.267l0,0V46.156z M60.432,47.967h0.262v-0.875h0.245
	c0.237,0.009,0.345,0.112,0.404,0.393c0.057,0.252,0.103,0.423,0.135,0.482h0.271c-0.042-0.078-0.09-0.272-0.156-0.555
	c-0.049-0.21-0.142-0.354-0.296-0.408v-0.009c0.212-0.071,0.38-0.249,0.38-0.516c0-0.154-0.057-0.293-0.159-0.384
	c-0.125-0.113-0.306-0.164-0.584-0.164c-0.181,0-0.369,0.015-0.501,0.042V47.967z M64.426,45.946v2.021h0.261v-2.021H64.426z
	 M68.569,46.804h-0.785v-0.639h0.831v-0.219h-1.092v2.021h1.137v-0.218h-0.876v-0.73h0.785V46.804z M71.625,47.967v-0.862
	c0-0.337-0.006-0.579-0.021-0.834l0.009-0.004c0.103,0.219,0.237,0.45,0.377,0.676l0.643,1.024h0.264v-2.021H72.65v0.845
	c0,0.315,0.007,0.561,0.03,0.83l-0.007,0.004c-0.096-0.208-0.212-0.421-0.362-0.657l-0.646-1.021H71.38v2.021H71.625z
	 M76.116,47.967h0.264v-1.798h0.618v-0.223h-1.496v0.223h0.614V47.967z"/>
</svg>
