<?xml version="1.0" encoding="utf-8"?>
<!-- Generator: Adobe Illustrator 19.2.1, SVG Export Plug-In . SVG Version: 6.00 Build 0)  -->
<svg version="1.1" id="Слой_1" xmlns="http://www.w3.org/2000/svg" xmlns:xlink="http://www.w3.org/1999/xlink" x="0px" y="0px"
	 width="115px" height="48px" viewBox="0 0 115 48" enable-background="new 0 0 115 48" xml:space="preserve">
<path fill="#46331E" d="M20.903,28.526c0-0.577,0.853-0.679,1.004-0.125C22.105,29.126,20.903,29.238,20.903,28.526z M27.317,27.638
	h1.352v-0.464h-1.932v2.821h0.58V27.638z M42.116,29.995l1.159-1.816v1.816h0.502v-2.821h-0.541l-1.198,1.893v-1.893h-0.502v2.821
	H42.116z M58.382,29.956h-1.314v-2.782h0.58v1.12c0.444,0,1.164-0.111,1.507,0.232C59.713,29.224,59.183,29.956,58.382,29.956z
	 M58.189,29.531c0.237,0,1.054-0.323,0.464-0.618c-0.198-0.198-0.779-0.116-1.043-0.116v0.734
	C57.803,29.531,57.996,29.531,58.189,29.531z M70.554,29.956h-1.352v-2.782h2.125v0.464h-1.546v0.657
	c0.43,0,1.115-0.099,1.478,0.184C72.02,29.072,71.307,29.956,70.554,29.956z M70.322,29.531c0.134,0,0.433-0.008,0.541-0.116
	c0.081-0.161,0.123-0.402-0.077-0.502c-0.272-0.182-0.73-0.116-1.043-0.116v0.734C69.935,29.531,70.128,29.531,70.322,29.531z
	 M77.161,29.995h-0.58l1.082-2.821h0.618l1.121,2.821h-0.618l-0.232-0.657h-1.121L77.161,29.995z M77.586,28.874h0.773l-0.425-1.043
	L77.586,28.874z M90.568,29.029c0.709,0,0.598-1.13-0.104-0.987C89.903,28.156,89.965,29.029,90.568,29.029z M85.236,29.995h-0.58
	v-2.821c0.654,0,1.698-0.191,2.079,0.468c0.641,1.107-0.784,1.326-1.5,1.309V29.995z M85.236,28.449
	c0.321,0.006,0.642-0.155,0.927-0.155c0.327-0.653-0.53-0.668-0.927-0.657V28.449z M35.934,27.522
	c0.873,1.164-0.751,1.442-1.468,1.43v1.043h-0.541v-2.821C34.568,27.174,35.437,27.025,35.934,27.522
	C36.049,27.676,35.779,27.367,35.934,27.522z M35.509,28.024c0-0.077-0.039-0.155-0.077-0.232c-0.305-0.152-0.627-0.162-0.966-0.155
	v0.811c0.338,0.012,0.663-0.155,0.966-0.155C35.47,28.217,35.509,28.14,35.509,28.024z M50.925,29.995h0.541v-2.821h-1.893
	c0,0.478,0.284,2.527-0.464,2.396v0.425c0.879,0,0.958-0.281,0.966-1.138c0.004-0.406,0-0.813,0-1.219h0.85V29.995z M48.027,37.374
	h1.352c0-0.348,0-0.657,0-1.005h-5.177v1.005h1.352c0.039,0.155,0.039,3.786,0,3.941c-0.116,0.039-4.907,0.039-5.062,0v-3.941
	c0.464,0,0.927,0,1.391,0c0-0.348,0-0.657,0-1.005h-5.139c0,0.335,0,0.67,0,1.005h1.352v9.582h-1.391v0.927h5.216v-0.966h-1.391
	V42.32c0.116,0,4.868-0.039,5.062,0c0.039,0.116,0.039,4.443,0,4.598h-1.352c0,0.335,0,0.67,0,1.005h5.177v-0.966h-1.391
	C47.989,46.841,47.989,37.529,48.027,37.374z M111.665,41.818c0,3.302-2.801,5.975-6.082,6.105c-1.856,0.074-3.729,0-5.587,0v-0.966
	h1.352c0.039-0.116,0.039-9.389,0-9.582h-1.352c0-0.335,0-0.67,0-1.005c1.772,0,3.557-0.065,5.328,0
	c1.229,0.045,2.46,0.444,3.501,1.113c0.757,0.487,1.436,1.105,1.928,1.863C110.873,39.532,111.806,41.818,111.665,41.818z
	 M108.805,41.741c-0.065-1.309-0.694-2.662-1.686-3.524c-0.998-0.867-2.038-0.92-3.298-0.92v9.66c1.394,0,2.49-0.125,3.529-1.171
	C108.413,44.716,108.882,43.227,108.805,41.741C108.767,40.968,108.883,43.247,108.805,41.741z M11.398,38.456
	c1.969,2.109,1.986,5.237,0.029,7.367c-1.957,2.13-5.324,2.694-7.927,1.48c-2.06-0.96-3.634-3.102-3.5-5.431
	c0.147-2.56,2.148-4.598,4.559-5.23C6.97,36.01,9.658,36.582,11.398,38.456C12.48,39.615,10.394,37.374,11.398,38.456z
	 M10.085,41.972c0-2.14-1.395-5.158-3.96-4.816c-2.409,0.321-3.393,3.295-3.274,5.377c0.119,2.093,1.462,4.99,4.013,4.591
	C9.154,46.766,10.085,43.966,10.085,41.972z M35.663,41.161c1.269,6.163-7.25,8.734-11.124,4.894
	c-1.928-1.911-2.182-4.939-0.541-7.112c1.409-1.866,3.544-2.535,5.792-2.535V36.37c1.32,0.44,2.52,0.469,3.685,1.362
	C34.58,38.578,35.424,39.774,35.663,41.161C35.934,42.475,35.47,40.04,35.663,41.161z M32.881,41.431
	c-0.205-2.054-1.746-4.748-4.191-4.234c-2.428,0.511-3.18,3.635-2.933,5.741c0.235,2,1.699,4.649,4.1,4.156
	C32.29,46.594,33.101,43.561,32.881,41.431C32.804,40.659,32.997,42.552,32.881,41.431z M60.198,43.943
	c0.522,1.74-0.906,3.348-2.468,3.863C57.03,48.038,56.402,48,55.673,48c-1.621,0-3.242,0-4.863,0c0-0.309,0-0.657,0-1.005H52.2
	v-9.621h-1.352V36.37h5.062v1.005h-1.275v3.98C56.765,41.354,59.545,41.33,60.198,43.943C60.43,44.716,60.044,43.325,60.198,43.943z
	 M57.919,44.677c0-0.657-0.232-1.236-0.695-1.739c-0.724-0.724-1.643-0.618-2.589-0.618c-0.076,1.529,0,3.068,0,4.598
	c0.545,0,1.353,0.135,1.855-0.116C57.262,46.532,57.919,45.643,57.919,44.677z M97.446,46.145c0,0.225,0.071,0.559,0,0.773
	c-1.365,0-2.73,0-4.096,0c-0.039-0.309-0.039-4.637,0-4.753h3.439c0,0.348,0,0.695,0,1.082c0.386,0,0.695,0,1.043,0
	c0.039-0.232,0.039-3.168,0-3.284h-1.043v1.198c-0.116,0.039-3.323,0.039-3.439,0v-3.786c0.155-0.039,3.864-0.039,3.98,0v1.198
	c0.348,0,0.695,0,1.043,0V36.37h-8.81c0,0.335,0,0.67,0,1.005h1.352v9.582h-1.391v0.927h8.964c0-0.721,0-1.443,0-2.164h-1.043
	V46.145z M82.956,36.37v-0.077h-3.207c0,0.335,0,0.67,0,1.005h1.121c0.288,0.432-0.472,1.696-0.653,2.175
	c-0.32,0.848-0.64,1.697-0.96,2.546c-0.604,1.601-1.1,3.332-1.865,4.861h-1.468c0,0.335,0,0.67,0,1.005h2.164
	c1.12-2.937,2.241-5.912,3.362-8.887c0.039,0,0.039,0,0.039,0c0.524,1.371,1.039,2.746,1.555,4.12
	c0.246,0.657,0.493,1.314,0.741,1.971c0.198,0.524,0.68,1.306,0.68,1.869h-1.468c0,0.322,0,0.644,0,0.966h5.062
	c0-0.322,0-0.644,0-0.966h-1.121C85.622,43.441,84.27,39.886,82.956,36.37z M13.833,36.872c0,0.155,0,0.309,0,0.502h1.352v9.582
	h-1.391c0,0.335,0,0.67,0,1.005h5.332c0-0.308,0.075-0.706,0-1.005h-1.507v-9.544c0.155-0.039,3.671-0.039,3.786,0v1.159
	c0.193,0.039,0.927,0.039,1.043,0V36.37h-8.616C13.833,36.563,13.833,36.718,13.833,36.872z M71.017,40.852h0.618v-0.541H68.66
	v0.541c0.232,0,0.425-0.039,0.657,0c-0.734,1.005-1.43,2.009-2.125,2.975h-0.039c0-1.005,0-1.971,0-2.975c0.219,0,0.438,0,0.657,0
	c0.039-0.155,0.039-0.425,0-0.541h-2.859v0.502h0.618c0.039,0.193,0.039,4.289,0,4.405h-0.618v0.541h2.898v-0.541h-0.657
	c0-0.686,0.592-1.19,0.988-1.723c0.39-0.523,0.752-1.138,1.214-1.6c0.039,0.271,0.039,3.246,0,3.362h-0.618c0,0.193,0,0.348,0,0.541
	h2.898v-0.541h-0.657V40.852z"/>
</svg>
