<?xml version="1.0" encoding="utf-8"?>
<!-- Generator: Adobe Illustrator 22.1.0, SVG Export Plug-In . SVG Version: 6.00 Build 0)  -->
<svg version="1.1" id="Слой_1" xmlns="http://www.w3.org/2000/svg" xmlns:xlink="http://www.w3.org/1999/xlink" x="0px" y="0px"
	 width="115px" height="48px" viewBox="0 0 115 48" enable-background="new 0 0 115 48" xml:space="preserve">
<style type="text/css">
	.st0{fill:#979898;}
</style>
<path class="st0" d="M34.8,39.4v2.2l0.3,0.1v0.1H34v-0.1l0.3-0.1v-2.2L34,39.3v-0.1h1.8c0,0,0,0.1,0,0.1c0,0,0,0.1,0,0.1
	c0,0,0,0.1,0,0.2c0,0,0,0.1,0,0.1c0,0,0,0.1,0,0.1c0,0,0,0.1,0,0.1h-0.1c-0.1-0.1-0.2-0.2-0.2-0.3c-0.1-0.1-0.1-0.2-0.1-0.4
	L34.8,39.4L34.8,39.4z M37.3,41.7c-0.1,0-0.2,0-0.2-0.1c-0.1,0-0.1-0.1-0.2-0.1c0,0-0.1-0.1-0.1-0.2v-1.6c0-0.1,0.1-0.2,0.1-0.2
	c0-0.1,0.1-0.1,0.2-0.2s0.1-0.1,0.2-0.1c0.1,0,0.1,0,0.2,0.1c0.1,0,0.1,0.1,0.2,0.2c0.1,0.1,0.1,0.2,0.1,0.4c0,0.2,0.1,0.3,0.1,0.6
	s0,0.4-0.1,0.6c0,0.2-0.1,0.3-0.1,0.4c-0.1,0.1-0.1,0.2-0.2,0.2C37.5,41.7,37.4,41.7,37.3,41.7 M36.4,42.9L36.1,43V43h1.1V43
	l-0.3-0.1v-1.3c0,0.1,0.1,0.1,0.1,0.1c0,0,0.1,0.1,0.2,0.1c0.1,0,0.2,0,0.3,0c0.1,0,0.3,0,0.4-0.1c0.1-0.1,0.2-0.1,0.3-0.3
	c0.1-0.1,0.2-0.3,0.2-0.4c0.1-0.2,0.1-0.3,0.1-0.6c0-0.2,0-0.4-0.1-0.6c-0.1-0.2-0.1-0.3-0.2-0.4c-0.1-0.1-0.2-0.2-0.3-0.3
	c-0.1-0.1-0.2-0.1-0.3-0.1c-0.1,0-0.2,0-0.3,0.1c-0.1,0-0.1,0.1-0.2,0.1c-0.1,0.1-0.1,0.1-0.1,0.2v-0.3h-0.8v0.1l0.3,0.1L36.4,42.9
	L36.4,42.9z M40.7,39.5l0.3-0.1v-0.1h-0.8v0.1l0.4,0.1L40,41.1l-0.7-1.7l0.3-0.1v-0.1h-1.1v0.1l0.3,0.1l0.9,2.3l-0.2,0.5
	c-0.1,0.2-0.1,0.3-0.2,0.4c-0.1,0.1-0.3,0.1-0.5,0.1c0,0,0,0-0.1,0c0,0,0,0-0.1,0c0,0,0,0,0,0l0.1,0.4c0,0,0,0,0.1,0c0,0,0,0,0.1,0
	c0,0,0,0,0.1,0c0.1,0,0.1,0,0.2,0c0.1,0,0.1-0.1,0.2-0.1c0.1-0.1,0.1-0.2,0.2-0.3s0.1-0.3,0.2-0.4L40.7,39.5z M41.8,41.7
	c-0.1,0-0.2,0-0.3,0c-0.1,0-0.2-0.1-0.2-0.1c-0.1,0-0.1-0.1-0.1-0.1c0-0.1,0-0.1,0-0.2c0-0.1,0-0.1,0.1-0.2c0.1,0,0.1-0.1,0.3-0.1
	l0.1-0.3c0,0,0,0,0,0c0,0,0,0-0.1,0c0,0,0,0-0.1,0c-0.1,0-0.2,0-0.3,0.1c-0.1,0.1-0.1,0.2-0.1,0.4c0,0.1,0,0.2,0.1,0.3
	c0,0.1,0.1,0.2,0.2,0.2c0.1,0.1,0.2,0.1,0.3,0.1c0.1,0,0.2,0.1,0.3,0.1c0.2,0,0.3,0,0.4-0.1c0.1,0,0.2-0.1,0.3-0.2
	c0.1-0.1,0.1-0.1,0.2-0.2c0-0.1,0.1-0.2,0.1-0.3c0-0.1,0-0.2,0-0.2c0-0.1-0.1-0.1-0.1-0.2c0,0-0.1-0.1-0.1-0.1
	c-0.1,0-0.1-0.1-0.2-0.1c-0.1-0.1-0.3-0.1-0.4-0.1c0.1,0,0.3,0,0.4-0.1c0.1,0,0.2-0.1,0.3-0.2c0.1-0.1,0.1-0.2,0.1-0.3
	c0-0.1,0-0.2-0.1-0.2c0-0.1-0.1-0.1-0.2-0.2c-0.1-0.1-0.1-0.1-0.2-0.1c-0.1,0-0.2-0.1-0.3-0.1c-0.1,0-0.2,0-0.2,0
	c-0.1,0-0.1,0.1-0.2,0.1c-0.1,0-0.1,0.1-0.1,0.1c0-0.1,0-0.1-0.1-0.1c0,0-0.1-0.1-0.1-0.1h-0.1c0,0,0,0.1,0,0.1c0,0,0,0.1,0,0.1
	c0,0.1,0,0.1,0,0.1c0,0.1,0,0.1,0,0.2c0,0.1,0,0.1,0,0.1c0,0.1,0,0.1,0,0.1h0.1c0.1-0.3,0.2-0.5,0.3-0.6c0.1-0.1,0.3-0.2,0.4-0.2
	c0.1,0,0.2,0,0.3,0.1c0.1,0.1,0.1,0.2,0.1,0.4s0,0.3-0.1,0.4c-0.1,0.1-0.2,0.1-0.4,0.1h-0.1v0.1h0.1c0.2,0,0.3,0.1,0.4,0.2
	c0.1,0.1,0.2,0.3,0.2,0.5c0,0.2-0.1,0.4-0.2,0.5C42.2,41.7,42,41.7,41.8,41.7 M45,39.4v0.2L44,41.1v-1.7l0.3-0.1v-0.1h-1v0.1
	l0.3,0.1v2.2l-0.3,0.1v0.1h1v-0.1L44,41.6v-0.3l0.9-1.4v1.8l-0.3,0.1v0.1h1v-0.1l-0.3-0.1v-2.2l0.3-0.1v-0.1h-1v0.1L45,39.4z
	 M47.7,39.4v1h-0.9v-1l0.3-0.1v-0.1h-1v0.1l0.3,0.1v2.2l-0.3,0.1v0.1h1v-0.1l-0.3-0.1v-1.1h0.9v1.1l-0.3,0.1v0.1h1v-0.1l-0.3-0.1
	v-2.2l0.3-0.1v-0.1h-1v0.1L47.7,39.4z M50,39.3c0.1,0,0.3,0.1,0.4,0.2c0.1,0.1,0.2,0.3,0.3,0.6h0.1c0,0,0-0.1,0-0.1c0,0,0-0.1,0-0.1
	c0-0.1,0-0.1,0-0.2c0,0,0-0.1,0-0.1c0,0,0-0.1,0-0.1c0-0.1,0-0.1,0-0.1h-0.1c0,0-0.1,0-0.1,0.1c0,0-0.1,0.1-0.1,0.2
	c0-0.1-0.1-0.1-0.1-0.1c0,0-0.1-0.1-0.2-0.1c-0.1,0-0.1,0-0.2,0c-0.1,0-0.3,0-0.4,0.1c-0.1,0.1-0.2,0.1-0.3,0.3
	c-0.1,0.1-0.2,0.3-0.2,0.4c-0.1,0.2-0.1,0.3-0.1,0.6s0,0.4,0.1,0.6c0.1,0.2,0.1,0.3,0.2,0.4c0.1,0.1,0.2,0.2,0.3,0.3
	c0.1,0.1,0.3,0.1,0.4,0.1c0.1,0,0.2,0,0.3-0.1c0.1,0,0.2-0.1,0.3-0.2c0.1-0.1,0.1-0.2,0.2-0.3c0-0.1,0.1-0.2,0.1-0.3h-0.1
	c0,0.1,0,0.2-0.1,0.3c0,0.1-0.1,0.2-0.2,0.2c-0.1,0.1-0.1,0.1-0.2,0.1c-0.1,0-0.2,0.1-0.3,0.1c-0.1,0-0.2,0-0.2-0.1
	c-0.1,0-0.1-0.1-0.2-0.2c-0.1-0.1-0.1-0.2-0.1-0.4c0-0.2-0.1-0.3-0.1-0.6c0-0.2,0-0.4,0.1-0.6c0-0.2,0.1-0.3,0.1-0.4
	c0.1-0.1,0.1-0.2,0.2-0.2C49.8,39.3,49.9,39.3,50,39.3 M52.8,41.6l-0.3,0.1v0.1h1.1v-0.1l-0.3-0.1l-0.9-1.5l0.1-0.2
	c0.1-0.1,0.1-0.2,0.2-0.2c0.1-0.1,0.2-0.1,0.3-0.1c0,0,0,0,0.1,0c0,0,0,0,0.1,0c0,0,0,0,0.1,0l-0.1-0.4c0,0,0,0,0,0c0,0,0,0,0,0
	c0,0,0,0-0.1,0c0,0-0.1,0-0.1,0c0,0-0.1,0.1-0.1,0.1c0,0.1-0.1,0.1-0.2,0.2c-0.1,0.1-0.1,0.2-0.2,0.4l-0.5,0.9v-1.4l0.3-0.1v-0.1
	h-1.1v0.1l0.3,0.1v2.2l-0.3,0.1v0.1h1v-0.1l-0.3-0.1V41l0.2-0.4L52.8,41.6z M55.1,41.3c0,0.1-0.1,0.2-0.1,0.2c0,0.1-0.1,0.1-0.2,0.2
	c-0.1,0-0.1,0.1-0.2,0.1c-0.1,0-0.2,0-0.3-0.1c-0.1-0.1-0.1-0.2-0.1-0.4c0-0.2,0.1-0.4,0.2-0.6c0.1-0.1,0.4-0.2,0.7-0.2
	C55.1,40.4,55.1,41.3,55.1,41.3z M55,39.5c0.1,0.1,0.1,0.3,0.1,0.6v0.3c-0.2,0-0.5,0-0.6,0.1c-0.2,0-0.3,0.1-0.4,0.2
	c-0.1,0.1-0.2,0.2-0.3,0.3c-0.1,0.1-0.1,0.2-0.1,0.3c0,0.2,0.1,0.4,0.2,0.5c0.1,0.1,0.3,0.2,0.6,0.2c0.1,0,0.2,0,0.3-0.1
	c0.1,0,0.1-0.1,0.2-0.1c0.1-0.1,0.1-0.1,0.2-0.2v0.3h0.7v-0.1l-0.3-0.1V40c0-0.2-0.1-0.4-0.2-0.6c-0.2-0.1-0.4-0.2-0.6-0.2
	c-0.1,0-0.2,0-0.3,0.1c-0.1,0-0.2,0.1-0.3,0.1c-0.1,0.1-0.1,0.1-0.2,0.2c0,0.1-0.1,0.1-0.1,0.2c0,0,0,0.1,0,0.1c0,0,0,0,0,0.1
	c0,0,0,0,0,0l0.4-0.1c0,0,0,0,0-0.1c0,0,0,0,0-0.1c0,0,0,0,0-0.1c0-0.1,0-0.2,0.1-0.3c0.1-0.1,0.2-0.1,0.3-0.1
	C54.8,39.3,54.9,39.3,55,39.5z M57.4,40.5c-0.2,0-0.3-0.1-0.4-0.2c-0.1-0.1-0.2-0.2-0.2-0.4c0-0.2,0.1-0.3,0.2-0.4
	c0.1-0.1,0.2-0.2,0.4-0.2h0.2v1.1L57.4,40.5L57.4,40.5z M57.6,40.6v1l-0.3,0.1v0.1h1.1v-0.1L58,41.6v-2.2l0.3-0.1v-0.1h-1
	c-0.2,0-0.4,0-0.5,0.1c-0.1,0-0.2,0.1-0.3,0.1c-0.1,0.1-0.2,0.1-0.2,0.2c0,0.1-0.1,0.2-0.1,0.3c0,0.1,0,0.3,0.1,0.3
	c0.1,0.1,0.2,0.1,0.3,0.2c0.1,0.1,0.2,0.1,0.4,0.1c-0.1,0-0.2,0-0.3,0.1c-0.1,0-0.2,0.1-0.2,0.1c-0.1,0.1-0.1,0.1-0.1,0.3l-0.1,0.4
	c0,0.1,0,0.1,0,0.1c0,0-0.1,0-0.1,0c0,0,0,0-0.1,0c0,0,0,0-0.1,0c0,0,0,0,0-0.1L56,41.6c0,0,0.1,0.1,0.1,0.1c0,0,0.1,0.1,0.1,0.1
	c0.1,0,0.1,0,0.2,0c0.1,0,0.2,0,0.3-0.1c0.1-0.1,0.1-0.1,0.1-0.3l0.1-0.4c0-0.1,0.1-0.2,0.1-0.3c0.1-0.1,0.2-0.1,0.3-0.1L57.6,40.6
	L57.6,40.6L57.6,40.6z M35.6,46l-0.3,0.1v0.1h1.1v-0.1L36.1,46l-0.9-1.5l0.1-0.2c0.1-0.1,0.1-0.2,0.2-0.2c0.1-0.1,0.2-0.1,0.3-0.1
	c0,0,0,0,0.1,0c0,0,0,0,0.1,0c0,0,0,0,0.1,0L36,43.6c0,0,0,0,0,0c0,0,0,0,0,0c0,0,0,0-0.1,0c0,0-0.1,0-0.1,0c0,0-0.1,0.1-0.1,0.1
	c0,0.1-0.1,0.1-0.2,0.2c-0.1,0.1-0.1,0.2-0.2,0.4l-0.5,0.9v-1.4l0.4-0.1v-0.1H34v0.1l0.3,0.1V46L34,46.1v0.1h1v-0.1L34.8,46v-0.6
	l0.2-0.4L35.6,46z M38.3,43.8l0.3-0.1v-0.1h-0.8v0.1l0.3,0.1l-0.6,1.7L37,43.8l0.3-0.1v-0.1h-1.1v0.1l0.3,0.1l0.9,2.3l-0.2,0.5
	c-0.1,0.2-0.1,0.3-0.2,0.4C37,47,36.8,47,36.6,47c0,0,0,0-0.1,0c0,0,0,0-0.1,0c0,0,0,0,0,0l0.1,0.4c0,0,0,0,0,0c0,0,0,0,0.1,0
	c0,0,0,0,0.1,0c0.1,0,0.1,0,0.2,0c0.1,0,0.1-0.1,0.2-0.1c0.1-0.1,0.1-0.2,0.2-0.3c0.1-0.1,0.1-0.3,0.2-0.4L38.3,43.8z M40.1,46
	l-0.3,0.1v0.1h1.1v-0.1L40.6,46l-0.7-1.3l0.6-0.9l0.4-0.1v-0.1H40v0.1l0.3,0.1l-0.5,0.8l-0.5-0.8l0.3-0.1v-0.1h-1.1v0.1l0.3,0.1
	l0.7,1.2L39,45.9l-0.3,0.1v0.1h0.8v-0.1l-0.3-0.1l0.5-0.8L40.1,46z M42.7,43.8v1h-0.9v-1l0.3-0.1v-0.1h-1v0.1l0.3,0.1V46l-0.3,0.1
	v0.1h1v-0.1L41.8,46v-1.1h0.9V46l-0.3,0.1v0.1h1v-0.1L43.2,46v-2.2l0.3-0.1v-0.1h-1v0.1L42.7,43.8z M45.1,44.9
	c-0.2,0-0.3-0.1-0.4-0.2c-0.1-0.1-0.2-0.2-0.2-0.4c0-0.2,0.1-0.3,0.2-0.4c0.1-0.1,0.2-0.2,0.4-0.2h0.2v1.1L45.1,44.9L45.1,44.9z
	 M45.3,45v1L45,46.1v0.1H46v-0.1L45.7,46v-2.2l0.3-0.1v-0.1h-1c-0.2,0-0.4,0-0.5,0.1c-0.1,0-0.2,0.1-0.3,0.1
	c-0.1,0.1-0.2,0.1-0.2,0.2c0,0.1-0.1,0.2-0.1,0.3c0,0.1,0,0.3,0.1,0.3c0.1,0.1,0.2,0.1,0.3,0.2c0.1,0,0.2,0.1,0.4,0.1
	c-0.1,0-0.2,0-0.3,0.1c-0.1,0-0.2,0.1-0.2,0.1c-0.1,0.1-0.1,0.1-0.1,0.3l-0.1,0.4c0,0.1,0,0.1-0.1,0.1c0,0-0.1,0-0.1,0
	c0,0,0,0-0.1,0c0,0,0,0-0.1,0c0,0,0,0,0-0.1l-0.1,0.1c0,0,0.1,0.1,0.1,0.1c0,0,0.1,0.1,0.1,0.1c0,0,0.1,0,0.2,0c0.1,0,0.2,0,0.3-0.1
	c0.1-0.1,0.1-0.1,0.1-0.3l0.1-0.4c0-0.1,0.1-0.2,0.1-0.3c0.1-0.1,0.2-0.1,0.3-0.1L45.3,45L45.3,45z M68.4,11.2
	C68,12.7,67.1,21.6,66.9,23c0,0-0.7,0.6-0.2,1c0.6-0.4,0,0.8,0.3,1.2c-0.3-0.1-0.6-0.1-0.7-0.5c-0.1,0.1-0.2,0.2-0.2,0.3
	c-0.1,0-0.1-0.9-0.2-0.3c-0.1-0.2-0.2-0.7,0.1-0.8c0-0.4-0.3,0-0.3-0.2c0-0.3,0.2-0.4,0.3-0.2c0.1-0.4-0.5-0.5,0.1-0.4
	c0-0.2-0.2-0.3-0.4-0.2c-0.1-1.2-0.1,0.9-0.3-0.2c0-0.1-0.2-0.1-0.3-0.1c0.1-0.4,0-0.5-0.2-0.8c0.2-0.1,0-0.5,0.3-0.5
	c0-0.2-0.3-0.2-0.2-0.5c0.6-0.7-0.1-1.2,0-1.7c0.2,0,0.1,0.4,0.3,0.3c0.1,0,0.1-0.3,0.1-0.4c-0.1-0.3-0.8,0-0.7-0.5
	c0.6,0,0-0.7,0.2-1.4c-0.1,0-0.1,0-0.2,0c-0.4,0.1-0.9,0.1-1.3,0.3c-0.4,0.2-0.6,0.5-0.8,0.9c-0.2,1.6-0.4,3.3-0.6,4.9
	c-0.2-0.1-0.1-0.5-0.3-0.5c-0.2,0.2,0,0.8-0.2,1c-0.4,0.2-0.7-0.6-0.7,0.1c-0.4-0.1-0.5-0.5-0.8-0.6c0,0.3,0.3,0.4,0.2,0.8
	c-0.2,0.3-0.4,0.2-0.8,0.1c0.4-0.4-0.1-1,0.3-1.4c0.2,0.1,0.2,0.5,0.5,0.5c0.3-0.5-0.2-0.3-0.2-0.8c-0.3,0-0.4,0.4-0.7,0.1
	c-0.1-0.3,0.2-0.2,0.4-0.2c-0.3-1.3,0-2.3,0.3-3.4c-0.4-0.1,0.1-0.6-0.4-0.8c0.1-0.2,0.3-0.2,0.4-0.3c0-0.3-0.2-0.4,0-0.7
	c0-0.1-0.2-0.2-0.2-0.2c0.3-0.6,0.3-2.8,0.4-3.3c0.1-0.4,0.1-0.7,0-0.9c-0.3-0.5-0.4-1.1,0.5-1.3c1-0.3,1.9-0.5,2.3-0.4
	c0.5,0.1,0.3,1,0.2,1.6c0,0-0.2,1.6-0.5,3.8c0.1,0,0.3-0.1,0.4-0.1c0.5-0.1,1-0.2,1.4-0.6c0.4-0.4,0.3-0.9,0.5-1.4c0,0,0,0,0,0
	c0.1-0.7,0.2-1.5,0.2-2.3c0.1-0.8-0.4-1.3,0.2-1.5c0.5-0.2,1,0.5,1.3,0.2c-0.2-0.4-0.4,0-0.7-0.2c0.1-0.2,0.2-0.6,0.5-0.5
	c0.1,0.2-0.1,0.7,0.2,0.6c0.3-0.1-0.3-0.2-0.1-0.6c0.8-0.1,1.5-0.1,1.5-0.1C68.9,10.3,68.5,10.7,68.4,11.2 M67.1,10.6
	c0,0.3,0.1,0.5,0.3,0.6c-0.1-0.3,0.7-0.2,0.2-0.5c0,0.2-0.2,0.2-0.4,0.2C67.2,10.7,67.2,10.6,67.1,10.6z M61.5,21.4
	c0.2,0.4-0.1,0.9,0.1,1.2C61.7,22.2,61.8,21.2,61.5,21.4z M61.7,20.3c-0.1,0.1-0.2,0.6,0,0.7C61.8,20.8,61.9,20.3,61.7,20.3z
	 M65,17.1c0,0.1,0,0.2,0,0.3c0.6,0.1,0-0.4,0.4-0.3c0,0-0.1-0.1-0.1-0.1C65.2,17.1,65.1,17.1,65,17.1z M65.4,17.9
	c-0.1,0-0.3,0-0.3-0.1c0-0.1,0-0.2-0.1-0.2c-0.2,0.2,0,0.6,0.2,0.7C65.2,18.1,65.4,18.1,65.4,17.9z M56.1,12.6
	c0.4-0.2,2-0.7,2.3-0.5c0.3,0.3,0,0.8,0,1.3c-0.2,2.9-0.5,5.1-0.7,8.4c0,0.2-0.1,0.9-0.4,1c0.1,0,0.6,0.4,0.6-0.1
	c0,0.7,0.2,0.9-0.7,1c-1.8,0.2-1.9-1-2-2.3c-0.5,1.8-2.4,3.7-4.4,3.5c-0.5,0-0.9-0.4-1.1-0.8c-0.2,0.3-0.4,0.5-0.6,0.8
	c-0.7,0.8-1.7,1.7-2.7,2c-0.4,0.1-0.9,0.1-1.2,0c-0.5-0.3,0-0.5,0-0.8c-0.1,0.1-0.8,0.2-0.8,0.1c-0.2-0.5-0.3-0.3-0.7-0.4
	c-0.1-0.3,0.2-0.5-0.1-0.7c-0.2,0.2-0.2,0.6-0.5,0.8c0.2,0.3,0.2,0.3,0.2,0.7c-0.2,0-0.2-0.1-0.4-0.1c0.2,0-0.1,0.6-0.1,0.7
	c-0.1,0.2-0.3,0.5-0.5,0.6c-1.9,1.8-3.5,0.8-3.7-0.8c-0.2,0.5-0.4,1-0.7,1.4c-0.9,1.6-2.4,2.9-3.8,2.3c-0.6-0.3-0.8-1.2-0.8-1.6
	c0-0.2,0.1-0.4,0.1-0.6c0-0.2-0.2-0.2-0.3-0.3c-0.1-0.4,0.2-0.3,0.2-0.5c-0.8-0.3-0.2-1.9,0.2-2.2c-0.3-0.1-0.3,0.3-0.7,0.2
	c0.1-0.6,0-1.1,0.5-1.4c-0.1,0,0-2.3,0-2.5c0-0.8-0.3-0.8-0.5-1.1c-0.3-0.7,0.5-0.9,1.4-1.3c0.9-0.4,2-0.9,2.3-0.1
	c0.1,0.3,0,1.4-0.1,1.2c0.2,0.5-0.1,0.8,0,1.5c-0.2,0-0.1-0.2-0.3-0.3c-0.3-0.1,0.3,0.4-0.1,0.4c0,0.1,0.2,0.1,0.3,0.1
	c-0.1,0.1-0.1,0.4-0.1,0.6c-0.3-0.3-0.4,0.3-0.5-0.2c-0.1,0.2,0.3,0.5,0.3,0.3c0,0.2,0.3,0.5,0.3,0.7c0,0.1,0,1.3-0.1,2.7
	c0,0.7,0.1,1.4,0.6,1.3c0.6,0,1.3-1.1,1.7-2.9c-0.1-0.1-0.2-0.1-0.2-0.2c0.1-0.2,0.2-0.1,0.3,0c0,0,0-0.1,0-0.1
	c-0.2-0.6,0-0.9,0.3-1.5c-0.5,0.3-0.1-0.4-0.5-0.8c0-0.2,0.2-0.3,0.4-0.3c0.1-0.6-0.6-0.5-0.5-1.1c0.5-0.7,1-0.3,0.9-0.9
	c-0.3-0.2-0.3-0.2,0-0.6c-0.1,0-0.5,0.4-0.6,0.2c-0.1-0.5,0.3,0,0.4-0.3c-0.2-0.2-0.3-0.3-0.3-0.6c-0.1-0.8,0.6-0.8,2.3-1.5
	c0.7-0.3,1.2-0.1,1,1.2c-0.2,1.4-0.4,4.8-0.5,5.8c-0.1,1.6,0.2,1.9,0.6,1.9c0.8-0.1,1.5-2,1.6-2.8c0.1-0.7,0.1-1.6,0.3-1.8
	c0.1-0.2,0.6,0.1,0.6-0.1c0-0.2-0.2-0.7-0.4-0.3c-0.1-0.1-0.2-0.2-0.4-0.2c0.2-0.1,0.1-0.8,0.4-0.5c-0.1-0.5-0.4-0.8,0.1-0.9
	c-0.6-0.6,0.1-0.5-0.2-1.1c0.1,0.1,0.2,0.1,0.4,0.1c0-0.3-0.3-0.3-0.5-0.3c0.5-0.3,0.3-0.3,0.1-0.9c-0.1-0.2-0.4-0.7,0.7-1.1
	c0.7-0.3,2.1-0.9,2.5-0.7c0.6,0.2,0.4,1,0.3,1.4c0,0.2-0.4,3.6-0.6,5.8c-0.1,1.2,0,2.8,1,2.3c0.6-0.3,1.1-1,1.4-1.7
	c0-0.4,0.1-0.8,0.3-1c0,0,0.1,0,0.1-0.1c0-0.1,0.1-0.2,0.1-0.3c0,0,0,0,0-0.1c0.2-0.2-0.1-0.2,0.1-0.4c0,0,0,0,0,0
	c0-0.1,0-0.2,0.1-0.3c0-0.4,0-0.2-0.2-0.5c0.3,0,0.3-0.3,0.3-0.5c0.1,0.2,0.4,0.3,0.5-0.1c-0.1-0.1-0.3,0.1-0.6,0
	c0.5-0.5-0.3-0.7-0.1-1c0.2,0.1,0.4,0.3,0.6,0.3c-0.5-0.6-0.6-1-0.6-1.8c0.1,0,0.2,0,0.3,0c-0.1-0.2-0.1-0.5-0.2-0.7
	c-0.2-0.1,0.1-0.8,0-0.9c-0.4-0.2-0.3-1,0.4-1.4c2-1,2.9-1.1,2.7,0.5c-0.2,2.1-0.2,2-0.4,4c-0.2,2.2-0.4,3.9,0.8,3.4
	c1.5-0.6,1.7-3.3,1.9-6C55.5,13.8,55.4,13,56.1,12.6 M38.9,21.5c0.1-0.2,0.2-0.4,0.2-0.7c-0.4,0.1-0.5,0.4-0.8,0.1
	C38.4,21.3,38.8,21.3,38.9,21.5z M50.5,18c0-0.4-0.7-0.4-0.6,0.1C50.3,17.9,50.2,17.9,50.5,18z M30.6,22.6c1.8,0.9,1.9,4.2,1.2,6.8
	c-0.5,1.9-2,3.3-3.7,3.9c-1.3,0.5-3.3,0.1-4-0.8C24,32.3,24,32.2,23.9,32c-0.1-0.2-0.4-0.3-0.5-0.4c0.4-0.2-0.1-0.3,0.2-0.6
	c-0.1,0.1-0.1,0.2-0.4,0.2c0-0.4-0.2-0.7,0.2-1c-0.2-0.2-0.3-0.5-0.3-0.9c0.2,0,0.2,0.1,0.3,0.1c-0.1-0.1-0.1-0.3-0.1-0.5
	c-0.3,0.5-0.4-0.3-0.4-0.5c0-0.3,0.3,0.1,0.2,0.2c0.2-0.2-0.1-0.4,0.4-0.5c-0.1-0.3-0.3,0.1-0.6,0c0-1.3-0.4-2.4,0-3.8
	c-0.4,0.1-0.6,0-1,0.3c-0.1-1,1.6-1,1-2.2c0.1,0,0.1,0.1,0.2,0.1c-0.1-1,0.2-2.2,0.3-3.2c-0.5-0.1-0.2-1,0.4-0.9
	c-0.2-0.4-0.3-0.3-0.3-0.8c0.1-0.1,0.2-0.1,0.3-0.1c-0.2-0.7,0-1,0.2-1.6c0.8-2.4,1.9-3.9,3.7-4.8c1.9-1.1,4.8-0.7,5.4,1.1
	c1.3,3.8-2.3,8.2-6.8,10.8c-0.4,6,0.4,8.6,1.1,8.6c0.5,0,0.7-0.3,1-1c0.4-1.1,0.7-4.9,0.2-5.9c-0.5-0.8-0.9-1-1.5-0.4
	c0,0-0.1-0.3-0.1-0.3c0-0.2,0.1-0.3,0.3-0.4C28.3,22.2,29.7,22.2,30.6,22.6 M26.5,21c4.7-3.5,4.4-9.8,2.7-9.1
	C27.9,12.4,26.9,15.9,26.5,21z M23.8,28.5c0.2,0.4-0.7,0.3-0.3,0.6c0.1-0.3,0.4,0.2,0.5-0.2C23.6,28.9,24.4,28.4,23.8,28.5z
	 M25.9,30.9c0.3,0.3,0,0.6,0.4,0.8C26.5,31.5,26.2,31.1,25.9,30.9z M13.4,42.1c1.4-0.3,2.3-1.1,2-1.5c-0.3-0.4-0.4-0.1-1.3-0.3
	c-2.6-0.8-2.8-5.4-4.1-7.4c-1.1-1.6-2.2-1.8-3.5-1.7c0.3-0.1,4-1.4,4.5-5.8c0.6-5.5,1.1-5.4,2-6.2c0.4-0.4-0.7-0.5-2.5,0.3
	c-1.7,0.8-2.3,1.7-2.6,3.8c-0.4,2.6-0.5,4.6-1.1,5.2c0.4-0.3-0.7,2.2-2.3,2.6C4.6,28,4.8,27,4.7,24.5c0-1.7-1.9-0.3-4.3,0.7
	c-0.6,0.8,0.5,0.9,0.5,1.4c0,2.7-0.2,8.4-0.3,14.2c-0.1,1.3-0.3,1.5-0.5,2C-0.2,43.6,0,44.1,0.6,44c1.1-0.6,1.5-0.8,2.8-1.6
	c0.8-0.5,0.9-0.8,1-2.9c0-2.8,0-4.9,0.1-7.3c3,0.2,2.4,5.1,3.9,6.1c0,0-0.6-0.2-0.6-0.2C9.2,42.5,12,42.4,13.4,42.1 M21.2,33.5
	c-0.4,0.4-0.6,1.4-0.6,1.7c0.4-3.3,0.7-8.6,0.6-10.2c0.1-0.8-0.4-0.9-1.3-0.6c-0.7,0.3-1.7,0.7-2.2,0.9c-0.6,0.2-0.5,0.6-0.3,1
	c0.2,0.2,0.5,0.4,0.5,0.9c0,1.4,0.1,5.3-1.2,6.9c-0.4,0.5-0.9,1.2-1.3,0.5c-0.2-0.3-0.3-0.9-0.3-1.3c0-0.6,0.1-1.5-0.1-2
	c0.7-0.2-0.3-1.1,0.2-1.1c0-0.2-0.3,0.1-0.3-0.2c0.1-0.2,0.4-0.3,0.4-0.6c-0.4-0.1-0.1-0.3-0.3-0.6c0.5,0.1,0.4-0.1,0.2-0.3
	c0.3,0,0.3,0.2,0.5,0c0-0.8,0-1.2-0.1-1.5c-0.1-0.6-0.6-0.7-0.9-0.6c-0.5,0.1-1.4,0.6-1.7,0.7c-1.1,0.4-1.6,0.6-1.3,1.6
	c0.1,0.4,0.4,0.4,0.3,1.7c0,1.7-0.1,5.1,0.5,6c0.4,0.6,1.2,1.1,2.6,0.4c1.4-0.7,2-1.8,2.1-2.1c0-0.1-0.3-0.5-0.1-0.6
	c0,0.3,0.4,0.2,0.5,0.4c0.3,0.6,0.1,2.2,0,2.9c-0.3,3.1-1,7.2-3.8,8.3c-1.3,0.5-3.6,0.1-4.5-1.2C9,44,8.9,43.9,8.6,44.1
	c-0.8,0.5-1,2.7,0.9,3.6c1,0.5,2.5,0.5,2.5,0.2c0-0.2,0.3-0.1,0.4-0.2c0.1,0.2,0.1,0.5,0.3,0.2c0.1-0.5,0.6-0.2,1.1-0.7
	c0.7,0.7,1.1-1.2,1.7-0.5c0.2-0.4,0.6-0.6,0.8-1.1c0.2,0.8,1.1-0.7,1.2-0.8c0.2-0.1,0.3,0,0.3-0.2c0-0.1-0.2-0.2-0.1-0.3
	c0-0.2,0.2-0.1,0.3-0.2c0.1-0.1,0.1-0.2,0.2-0.3c0-0.1,0-0.4,0.1-0.5c0.1-0.1,0.5,0,0.5,0.1c-0.1-0.4,0.3-0.6,0-0.9
	c0.1,0,0.2,0.2,0.3,0.1c-0.2-0.6,0.1-0.7,0.2-1.1c-0.3,0.1-0.5-0.5-0.2-0.6c0.4-0.1,0.2,0.4,0.5,0.5c0.1-0.5-0.7-0.6-0.4-0.8
	c0.2,0.1,0.3,0.2,0.4,0.3c0.1-0.3,0.5-0.4,0.4-0.9c-0.3-0.1-0.6,0.4-0.9,0c0.3-0.1,0.6,0.2,0.7-0.3c0-0.3-0.4-0.1-0.4-0.4
	c0.2-0.2,0.4-0.3,0.8-0.2c-0.1,0.3-0.1,0.4,0.1,0.6c0-0.2-0.1-0.6,0.2-0.4c-0.5-0.5,0.6-0.9-0.1-1.1c0.3-0.2,0.8-0.7,0.6-1
	c0,0.3-0.4,0-0.4-0.1c0.4-1.6,0.9-2.7,2.3-2.7c0.3,0,0.4-0.2,0.3-0.4C23.1,33.1,22,32.6,21.2,33.5 M47.2,28.2
	c-1.5-0.1-7.3,1.6-12.5,4.2c-0.6,0.3-0.8,0.6-1,0.9c-0.3,0.5-0.1,2.6-0.1,2.7c0,0.2,0.1,0.3,0.1,0.5c0.8,0,0.9-1.2,1.3-1.2
	c-0.4,0.4-0.5,0.8-0.8,1.3c0,0.2,0.2,0.2,0.2,0.4c0.4-0.2,1-0.7,0.8-1.1c0.1,0,0.1,0.1,0.3,0.1c0.4-1.9,8.6-5.9,12.4-6.9
	c0.1,0,0-0.5-0.1-0.5C47.7,28.4,47.3,28.2,47.2,28.2"/>
</svg>
