<?xml version="1.0" encoding="utf-8"?>
<!-- Generator: Adobe Illustrator 16.0.0, SVG Export Plug-In . SVG Version: 6.00 Build 0)  -->
<!DOCTYPE svg PUBLIC "-//W3C//DTD SVG 1.1//EN" "http://www.w3.org/Graphics/SVG/1.1/DTD/svg11.dtd">
<svg version="1.1" id="Слой_1" xmlns="http://www.w3.org/2000/svg" xmlns:xlink="http://www.w3.org/1999/xlink" x="0px" y="0px"
	 width="115px" height="48px" viewBox="0 0 115 48" enable-background="new 0 0 115 48" xml:space="preserve">
<path fill="#972A40" d="M54.776,25.27l0.456,2.558l-0.099,0.021c-0.115-0.318-0.278-0.609-0.489-0.872
	c-0.211-0.262-0.44-0.469-0.686-0.622c-0.246-0.156-0.521-0.276-0.825-0.363c-0.307-0.087-0.591-0.132-0.854-0.137
	c-0.406-0.007-0.757,0.075-1.059,0.247c-0.303,0.174-0.48,0.442-0.539,0.804c-0.001,0.146,0.056,0.277,0.169,0.396
	c0.051,0.053,0.112,0.103,0.186,0.153l0.272,0.149c0.175,0.078,0.408,0.164,0.699,0.261l0.735,0.225l0.83,0.265l0.342,0.106
	c0.109,0.035,0.192,0.064,0.253,0.085c0.06,0.022,0.132,0.053,0.214,0.085c0.209,0.068,0.376,0.14,0.506,0.216
	c0.392,0.22,0.694,0.519,0.907,0.899c0.214,0.379,0.317,0.786,0.31,1.225c-0.01,0.593-0.203,1.121-0.577,1.582
	c-0.374,0.465-0.845,0.815-1.42,1.054c-0.575,0.239-1.152,0.353-1.732,0.343c-0.601-0.01-1.17-0.125-1.704-0.341
	c-0.2-0.07-0.355-0.105-0.469-0.106c-0.258-0.005-0.446,0.069-0.562,0.221l-0.697-3.217l0.126-0.024
	c0.092,0.395,0.28,0.798,0.561,1.213c0.281,0.413,0.649,0.771,1.102,1.07c0.229,0.145,0.47,0.256,0.726,0.331
	c0.254,0.075,0.51,0.115,0.771,0.119c0.137,0.003,0.237,0.003,0.304,0c0.064-0.004,0.165-0.02,0.304-0.044
	c0.138-0.028,0.231-0.049,0.281-0.063c0.051-0.015,0.146-0.043,0.284-0.087c0.36-0.104,0.68-0.288,0.956-0.545
	c0.126-0.125,0.229-0.266,0.307-0.429c0.077-0.166,0.119-0.347,0.122-0.549c0.006-0.285-0.036-0.517-0.122-0.691
	c-0.088-0.175-0.225-0.322-0.412-0.438c-0.189-0.119-0.461-0.259-0.818-0.419c-0.215-0.095-0.519-0.203-0.908-0.321l-0.965-0.291
	l-0.394-0.12c-0.065-0.023-0.121-0.04-0.163-0.056c-0.046-0.016-0.12-0.047-0.222-0.094c-0.237-0.101-0.446-0.218-0.632-0.35
	c-0.256-0.188-0.452-0.4-0.583-0.639c-0.132-0.238-0.194-0.503-0.188-0.795l0.071-0.524c0.135-0.511,0.473-0.904,1.015-1.185
	c0.544-0.279,1.169-0.411,1.873-0.398c0.128,0.001,0.225,0.006,0.284,0.01c0.063,0.004,0.162,0.02,0.302,0.044l0.333,0.063
	c0.058,0.012,0.114,0.023,0.165,0.033c0.053,0.009,0.134,0.029,0.247,0.061l0.572,0.128C54.5,25.497,54.676,25.415,54.776,25.27
	 M94.041,38.993c0.089,0.057,0.166,0.106,0.229,0.15c0.073,0.053,0.131,0.095,0.169,0.131l0.561,0.351
	c0.046,0.028,0.085,0.053,0.118,0.07c0.032,0.021,0.061,0.036,0.085,0.047c0.036,0.016,0.093,0.04,0.166,0.073l0.086,0.035
	c0.102,0.045,0.195,0.075,0.279,0.09c0.081,0.013,0.152,0.011,0.218-0.006c0.061-0.016,0.122-0.05,0.18-0.102
	c0.063-0.055,0.124-0.13,0.184-0.224l0.023-0.039l0.256,0.027c-0.375,0.948-0.75,1.897-1.127,2.845l-0.266-0.044l0.023-0.08
	c0.076-0.232,0.123-0.444,0.143-0.632c0.019-0.185,0.012-0.347-0.024-0.484c-0.032-0.136-0.089-0.266-0.167-0.385
	c-0.077-0.12-0.178-0.232-0.302-0.336c-0.129-0.109-0.3-0.237-0.513-0.386c-0.2-0.136-0.438-0.292-0.717-0.468l-2.02,3.231
	c-0.05,0.08-0.089,0.153-0.12,0.222c-0.033,0.069-0.056,0.135-0.071,0.196v0.001c-0.016,0.056-0.019,0.116-0.006,0.184
	c0.012,0.067,0.04,0.142,0.084,0.222c0.043,0.078,0.11,0.16,0.204,0.245c0.097,0.087,0.219,0.176,0.368,0.27
	c0.056,0.034,0.104,0.064,0.146,0.089c0.041,0.022,0.079,0.042,0.113,0.06l0.006,0.004c0.084,0.051,0.165,0.098,0.24,0.139
	c0.078,0.043,0.153,0.081,0.226,0.114h0.001c0.071,0.034,0.148,0.065,0.229,0.094c0.081,0.029,0.167,0.055,0.255,0.081
	c0.163,0.047,0.336,0.082,0.515,0.11c0.183,0.027,0.371,0.044,0.565,0.053c0.353,0.016,0.72-0.037,1.104-0.156
	c0.387-0.119,0.79-0.307,1.21-0.563l0.047-0.029l0.19,0.182c-0.922,0.76-1.844,1.518-2.767,2.274l-0.023-0.115
	c-0.019-0.083-0.05-0.159-0.097-0.223s-0.108-0.121-0.185-0.169c-1.691-0.859-3.501-2.155-5.133-3.177l0.155-0.245l0.059,0.058
	c0.21,0.128,0.423,0.137,0.639,0.023c0.232-0.121,0.47-0.378,0.714-0.768l2.826-4.525c0.123-0.197,0.22-0.375,0.288-0.531
	c0.067-0.153,0.106-0.286,0.119-0.398c0.012-0.108-0.008-0.215-0.063-0.318c-0.055-0.109-0.145-0.219-0.271-0.326l-0.047-0.042
	l0.127-0.203l4.762,2.974c0.033,0.021,0.062,0.041,0.081,0.059c0.019,0.014,0.032,0.028,0.044,0.044
	c0.087,0.041,0.168,0.069,0.243,0.087c0.079,0.017,0.151,0.022,0.219,0.014l0.113-0.013l-0.938,2.668l-0.223-0.08l0.011-0.062
	c0.031-0.152,0.047-0.306,0.046-0.459c0-0.153-0.016-0.308-0.047-0.463c-0.021-0.079-0.04-0.159-0.063-0.237
	c-0.023-0.075-0.047-0.148-0.072-0.223c-0.027-0.072-0.059-0.144-0.093-0.214c-0.035-0.073-0.077-0.146-0.122-0.219
	c-0.082-0.14-0.175-0.275-0.275-0.406c-0.103-0.132-0.213-0.262-0.334-0.388l-0.055-0.057l-0.065-0.064
	c-0.027-0.023-0.06-0.053-0.1-0.086s-0.083-0.067-0.128-0.104l-0.134-0.107c-0.038-0.03-0.068-0.053-0.094-0.071
	c-0.022-0.017-0.052-0.038-0.089-0.063l-0.134-0.084c-0.145-0.091-0.275-0.16-0.392-0.207c-0.114-0.045-0.213-0.071-0.297-0.075
	c-0.086-0.006-0.161,0.001-0.226,0.019c-0.062,0.017-0.112,0.044-0.153,0.079c-0.049,0.043-0.099,0.096-0.149,0.159
	c-0.053,0.064-0.105,0.141-0.161,0.229L94.041,38.993z M87.79,33.124l2.865,1.338l-0.101,0.216l-0.059-0.016
	c-0.153-0.039-0.289-0.053-0.407-0.042c-0.115,0.011-0.213,0.046-0.293,0.103c-0.085,0.063-0.164,0.143-0.236,0.237
	c-0.075,0.098-0.144,0.215-0.206,0.348l-2.429,5.199c-0.084,0.182-0.145,0.348-0.183,0.5c-0.037,0.147-0.052,0.28-0.044,0.4
	c0.008,0.112,0.044,0.216,0.106,0.307c0.063,0.092,0.156,0.173,0.276,0.244l0.057,0.034l-0.114,0.244l-2.93-1.369l0.112-0.241
	l0.06,0.017c0.109,0.033,0.208,0.052,0.298,0.057c0.087,0.005,0.163-0.001,0.23-0.021c0.065-0.021,0.129-0.052,0.19-0.096
	c0.062-0.045,0.123-0.104,0.182-0.178l0,0c0.06-0.073,0.123-0.166,0.188-0.278c0.066-0.113,0.135-0.245,0.204-0.396l2.205-4.719
	c0.112-0.243,0.196-0.454,0.249-0.637c0.049-0.176,0.072-0.322,0.063-0.438v-0.001c-0.006-0.111-0.041-0.215-0.105-0.313
	c-0.066-0.1-0.166-0.193-0.295-0.278l-0.051-0.034l0.101-0.219L87.79,33.124z M79.035,34.598l-0.872,2.416
	c-0.067,0.186-0.11,0.354-0.13,0.497c-0.018,0.142-0.013,0.263,0.014,0.361c0.028,0.099,0.078,0.189,0.149,0.271
	c0.072,0.084,0.167,0.159,0.285,0.228l0.053,0.029l-0.09,0.246l-3.028-1.095l0.089-0.249l0.059,0.009
	c0.144,0.022,0.27,0.024,0.384,0.007c0.109-0.017,0.204-0.054,0.286-0.109c0.083-0.055,0.164-0.148,0.243-0.281
	c0.084-0.136,0.163-0.313,0.241-0.528l1.864-5.158c0.09-0.246,0.146-0.46,0.166-0.641c0.021-0.175,0.011-0.318-0.032-0.431
	c-0.044-0.113-0.1-0.206-0.166-0.278c-0.065-0.07-0.144-0.122-0.233-0.154l-0.067-0.024l0.083-0.231l4.764,1.721
	c0.335,0.121,0.607,0.249,0.817,0.384c0.218,0.14,0.369,0.285,0.459,0.441c0.088,0.155,0.138,0.319,0.147,0.49
	c0.012,0.17-0.017,0.347-0.082,0.529c-0.087,0.237-0.206,0.442-0.361,0.615c-0.154,0.173-0.344,0.313-0.566,0.423
	c-0.219,0.106-0.461,0.197-0.726,0.272c-0.237,0.067-0.494,0.124-0.771,0.167c0.113,0.288,0.211,0.579,0.296,0.873
	c0.094,0.322,0.171,0.647,0.231,0.976c0.029,0.153,0.053,0.31,0.076,0.472c0.022,0.156,0.042,0.316,0.06,0.479
	c0.017,0.165,0.032,0.329,0.044,0.49c0.011,0.162,0.02,0.326,0.025,0.492c0.003,0.111,0.007,0.216,0.013,0.32
	c0.004,0.096,0.01,0.191,0.017,0.28l0.015,0.222c0.006,0.059,0.01,0.103,0.014,0.13l0.002,0.004c0.007,0.084,0.021,0.167,0.04,0.251
	c0.02,0.083,0.044,0.165,0.075,0.249c0.031,0.069,0.072,0.131,0.12,0.183c0.05,0.055,0.109,0.1,0.177,0.137l0.054,0.029l-0.09,0.246
	l-2.665-0.963l0.092-0.256l0.068,0.024c0.115,0.041,0.213,0.038,0.291-0.007c0.084-0.049,0.152-0.147,0.206-0.296
	c0.043-0.119,0.071-0.257,0.085-0.413c0.015-0.159,0.015-0.338-0.001-0.536v-0.005c-0.003-0.098-0.01-0.194-0.02-0.289
	c-0.009-0.093-0.021-0.185-0.037-0.275l-0.002-0.003c-0.011-0.093-0.025-0.181-0.042-0.268c-0.016-0.085-0.034-0.164-0.056-0.238
	l-0.604-2.227L79.035,34.598z M79.285,33.908c0.441,0.023,0.854,0.022,1.237-0.003c0.41-0.028,0.786-0.087,1.129-0.172
	c0.338-0.086,0.608-0.2,0.813-0.347c0.201-0.144,0.338-0.316,0.412-0.521c0.013-0.034,0.022-0.07,0.031-0.112
	c0.008-0.042,0.016-0.088,0.02-0.136v-0.002c0.013-0.1,0.004-0.194-0.022-0.286c-0.028-0.094-0.077-0.185-0.146-0.273
	c-0.035-0.044-0.077-0.088-0.126-0.13c-0.05-0.043-0.107-0.086-0.172-0.13c-0.065-0.042-0.14-0.084-0.225-0.123
	c-0.084-0.04-0.178-0.08-0.28-0.115L81.52,31.4l-0.104-0.037l-0.104-0.033c-0.036-0.01-0.07-0.02-0.105-0.028
	c-0.035-0.008-0.069-0.016-0.103-0.02l-0.005-0.002c-0.062-0.017-0.124-0.029-0.19-0.041c-0.071-0.013-0.144-0.022-0.218-0.029
	h-0.006c-0.06-0.01-0.116-0.009-0.172,0.006c-0.054,0.013-0.107,0.039-0.16,0.078c-0.053,0.038-0.102,0.092-0.148,0.163
	c-0.049,0.075-0.093,0.166-0.131,0.273L79.285,33.908z M70.541,29.923c0.102,0.026,0.19,0.05,0.263,0.072
	c0.087,0.026,0.153,0.05,0.201,0.071l0.644,0.159c0.05,0.012,0.094,0.022,0.134,0.031c0.039,0.009,0.07,0.015,0.095,0.017
	c0.04,0.005,0.1,0.011,0.178,0.018l0.095,0.009c0.112,0.011,0.211,0.01,0.294-0.005c0.081-0.011,0.149-0.035,0.205-0.07
	c0.054-0.034,0.101-0.086,0.141-0.153c0.042-0.071,0.076-0.162,0.104-0.271l0.011-0.044l0.253-0.053l-0.188,3.055l-0.267,0.04
	v-0.084c-0.003-0.244-0.024-0.459-0.063-0.644c-0.039-0.182-0.097-0.333-0.172-0.454c-0.076-0.119-0.168-0.225-0.28-0.313
	c-0.11-0.09-0.241-0.165-0.391-0.225c-0.154-0.063-0.356-0.132-0.607-0.206c-0.233-0.069-0.509-0.144-0.828-0.223l-0.913,3.699
	c-0.021,0.089-0.037,0.173-0.045,0.248c-0.009,0.075-0.012,0.146-0.008,0.207v0.003c0.003,0.058,0.021,0.117,0.052,0.175
	c0.034,0.062,0.083,0.122,0.148,0.185c0.065,0.062,0.156,0.118,0.273,0.169c0.117,0.055,0.263,0.102,0.433,0.144
	c0.063,0.016,0.118,0.028,0.165,0.037c0.05,0.01,0.092,0.017,0.126,0.022h0.009c0.095,0.024,0.186,0.044,0.271,0.06
	s0.169,0.028,0.25,0.037h0.001c0.079,0.01,0.162,0.018,0.246,0.019c0.085,0.003,0.174,0.002,0.267-0.003
	c0.17-0.007,0.345-0.025,0.525-0.056c0.179-0.029,0.363-0.072,0.553-0.125c0.339-0.095,0.673-0.26,1.001-0.491
	c0.329-0.234,0.654-0.538,0.974-0.911l0.036-0.043l0.236,0.114l-1.921,3.021l-0.06-0.103c-0.043-0.072-0.097-0.134-0.16-0.18
	c-0.065-0.049-0.141-0.083-0.229-0.104c-1.876-0.291-3.993-0.961-5.865-1.421l0.063-0.25h0.064l0.01,0.003
	c0.242,0.06,0.45,0.001,0.622-0.177c0.183-0.187,0.329-0.504,0.439-0.951l1.278-5.179c0.057-0.226,0.093-0.425,0.108-0.594
	c0.016-0.167,0.013-0.307-0.012-0.419c-0.021-0.104-0.074-0.198-0.156-0.282c-0.087-0.087-0.207-0.162-0.359-0.226l-0.058-0.024
	l0.058-0.232l5.45,1.346c0.037,0.009,0.068,0.019,0.095,0.028c0.021,0.009,0.04,0.019,0.056,0.028
	c0.096,0.012,0.182,0.015,0.259,0.007c0.081-0.008,0.15-0.025,0.211-0.054l0.104-0.047c-0.021,0.941-0.04,1.885-0.062,2.827
	L74.66,31.15l-0.007-0.062c-0.02-0.153-0.053-0.304-0.101-0.45c-0.049-0.146-0.112-0.288-0.189-0.426
	c-0.044-0.069-0.088-0.138-0.133-0.204c-0.046-0.065-0.092-0.13-0.138-0.19c-0.096-0.119-0.208-0.234-0.339-0.346
	c-0.122-0.106-0.251-0.205-0.389-0.299s-0.284-0.183-0.438-0.265l-0.069-0.037l-0.082-0.039c-0.031-0.015-0.071-0.031-0.121-0.052
	c-0.041-0.017-0.093-0.037-0.155-0.06l-0.161-0.061c-0.049-0.019-0.085-0.031-0.109-0.04c-0.025-0.007-0.062-0.019-0.105-0.03
	c-0.04-0.011-0.091-0.023-0.151-0.039c-0.167-0.042-0.313-0.065-0.438-0.074c-0.122-0.009-0.225-0.001-0.307,0.02
	c-0.083,0.023-0.152,0.053-0.208,0.089c-0.052,0.035-0.094,0.076-0.122,0.123c-0.032,0.056-0.063,0.121-0.092,0.197
	c-0.028,0.078-0.056,0.166-0.081,0.268L70.541,29.923z M64.688,26.297l0.182,2.661l-0.234,0.025l-0.014-0.063
	c-0.039-0.159-0.09-0.314-0.153-0.463c-0.064-0.149-0.14-0.294-0.229-0.435c-0.089-0.138-0.183-0.263-0.281-0.375
	c-0.102-0.112-0.206-0.213-0.317-0.3c-0.109-0.088-0.229-0.169-0.357-0.243c-0.127-0.072-0.262-0.138-0.406-0.195
	c-0.145-0.06-0.285-0.108-0.422-0.146c-0.135-0.036-0.267-0.063-0.394-0.079c-0.194-0.024-0.379-0.025-0.554-0.004
	c-0.173,0.02-0.336,0.063-0.488,0.13c-0.149,0.064-0.271,0.155-0.367,0.271c-0.096,0.113-0.167,0.254-0.212,0.419
	c-0.007,0.06-0.002,0.119,0.016,0.176c0.019,0.06,0.051,0.119,0.095,0.178c0.021,0.025,0.044,0.052,0.07,0.079
	c0.025,0.027,0.055,0.053,0.086,0.081l0.247,0.172c0.083,0.048,0.178,0.1,0.286,0.154c0.111,0.056,0.235,0.115,0.371,0.178
	c0.506,0.216,1.003,0.432,1.504,0.655c0.271,0.117,0.519,0.224,0.778,0.363c0.103,0.045,0.193,0.091,0.272,0.136
	c0.083,0.047,0.155,0.093,0.218,0.141c0.188,0.134,0.351,0.286,0.488,0.455c0.14,0.17,0.251,0.359,0.341,0.564
	c0.088,0.206,0.146,0.416,0.176,0.632c0.03,0.215,0.031,0.434,0.003,0.658c-0.038,0.301-0.12,0.582-0.248,0.841
	c-0.128,0.26-0.3,0.496-0.516,0.711c-0.216,0.216-0.451,0.399-0.712,0.551c-0.26,0.152-0.541,0.272-0.845,0.362
	c-0.304,0.088-0.604,0.145-0.901,0.172c-0.297,0.025-0.594,0.02-0.888-0.017c-0.303-0.039-0.594-0.103-0.873-0.19
	c-0.28-0.088-0.55-0.202-0.809-0.341c-0.091-0.043-0.173-0.077-0.245-0.103c-0.072-0.024-0.134-0.04-0.185-0.046
	c-0.118-0.016-0.222-0.011-0.31,0.014c-0.084,0.022-0.155,0.063-0.212,0.123l-0.106,0.113l-0.37-3.503l0.271-0.021l0.009,0.07
	c0.022,0.195,0.069,0.397,0.14,0.604c0.069,0.205,0.163,0.419,0.278,0.637c0.114,0.215,0.252,0.421,0.413,0.614
	c0.162,0.194,0.344,0.376,0.548,0.546c0.104,0.083,0.212,0.158,0.324,0.225c0.11,0.065,0.226,0.124,0.345,0.174
	c0.119,0.049,0.24,0.091,0.362,0.123c0.123,0.033,0.247,0.059,0.372,0.074l0.176,0.02c0.048,0.006,0.09,0.009,0.122,0.012
	c0.03,0.001,0.069,0.001,0.118,0c0.047-0.003,0.107-0.006,0.18-0.012l0.174-0.017c0.045-0.005,0.081-0.009,0.104-0.013l0.122-0.021
	l0.17-0.034c0.18-0.033,0.351-0.084,0.514-0.155c0.163-0.07,0.318-0.161,0.464-0.271c0.067-0.053,0.127-0.109,0.183-0.171
	c0.055-0.061,0.106-0.129,0.151-0.203c0.044-0.073,0.081-0.151,0.109-0.234c0.028-0.085,0.05-0.173,0.062-0.267
	c0.017-0.138,0.022-0.263,0.014-0.376c-0.007-0.109-0.027-0.208-0.059-0.293s-0.075-0.166-0.13-0.241
	c-0.057-0.074-0.125-0.144-0.208-0.208c-0.085-0.067-0.191-0.143-0.317-0.226c-0.13-0.085-0.277-0.176-0.442-0.272
	c-0.101-0.059-0.223-0.122-0.364-0.191c-0.143-0.068-0.307-0.143-0.494-0.222c-0.487-0.207-0.987-0.404-1.467-0.632
	c-0.024-0.012-0.055-0.027-0.09-0.047l-0.123-0.071c-0.115-0.065-0.224-0.132-0.323-0.201c-0.099-0.071-0.192-0.146-0.28-0.224
	h-0.002c-0.119-0.11-0.225-0.226-0.313-0.346c-0.088-0.121-0.159-0.247-0.213-0.378c-0.057-0.132-0.092-0.269-0.11-0.409
	c-0.018-0.142-0.018-0.287,0.003-0.438c0.029-0.156,0.085-0.377,0.13-0.53c0.1-0.257,0.247-0.479,0.445-0.663
	c0.195-0.185,0.441-0.333,0.735-0.445c0.291-0.112,0.599-0.185,0.923-0.218c0.322-0.032,0.66-0.026,1.017,0.019l0.168,0.021
	c0.048,0.007,0.088,0.014,0.117,0.02c0.034,0.006,0.075,0.016,0.125,0.028c0.224,0.063,0.441,0.131,0.662,0.199
	c0.029,0.01,0.063,0.021,0.103,0.035c0.035,0.013,0.082,0.031,0.141,0.055l0.543,0.185c0.115,0.003,0.215-0.009,0.296-0.037
	c0.081-0.027,0.145-0.069,0.193-0.127l0.113-0.135L64.688,26.297z M41.527,30.354l-0.682,2.241c-0.011,0.043-0.021,0.088-0.03,0.135
	c-0.01,0.051-0.019,0.101-0.027,0.147v0.002c-0.008,0.051-0.016,0.109-0.023,0.173c-0.005,0.062-0.013,0.135-0.02,0.219
	c0.006,0.101,0.025,0.19,0.057,0.269c0.033,0.076,0.078,0.142,0.135,0.194c0.059,0.053,0.126,0.091,0.206,0.113
	c0.083,0.024,0.178,0.034,0.283,0.029l0.072-0.003l0.014,0.271l-2.776,0.141l-0.013-0.269l0.064-0.01
	c0.112-0.017,0.216-0.052,0.308-0.107c0.095-0.056,0.182-0.131,0.257-0.225c0.08-0.098,0.158-0.229,0.234-0.394
	c0.078-0.166,0.155-0.367,0.233-0.604l1.975-6.146c0.023-0.063,0.039-0.124,0.048-0.184c0.01-0.058,0.014-0.113,0.011-0.166
	c-0.005-0.106-0.038-0.19-0.098-0.253c-0.061-0.063-0.153-0.104-0.275-0.126l-0.058-0.01l-0.011-0.236
	c1-0.051,1.999-0.102,2.999-0.153l0.013,0.234l-0.054,0.018c-0.104,0.032-0.182,0.084-0.234,0.151
	c-0.051,0.067-0.081,0.153-0.088,0.259c0.039,0.126,0.076,0.251,0.111,0.379l2.603,6.411c0.016,0.046,0.033,0.09,0.051,0.13
	s0.038,0.078,0.06,0.116c0.02,0.034,0.045,0.071,0.075,0.112c0.031,0.044,0.067,0.088,0.104,0.135l0.001,0.002
	c0.061,0.078,0.129,0.135,0.2,0.17c0.07,0.035,0.145,0.051,0.227,0.047l0.071-0.004l0.014,0.272
	c-1.025,0.051-2.05,0.104-3.076,0.156l-0.014-0.26l0.054-0.018c0.192-0.058,0.333-0.156,0.42-0.291
	c0.089-0.138,0.128-0.316,0.117-0.537c-0.01-0.187-0.056-0.379-0.139-0.573c-0.084-0.197-0.206-0.397-0.365-0.603
	c-0.16-0.204-0.348-0.39-0.563-0.557c-0.217-0.167-0.462-0.316-0.736-0.447c-0.142-0.066-0.284-0.123-0.427-0.171
	c-0.142-0.049-0.286-0.087-0.43-0.117c-0.142-0.028-0.292-0.05-0.448-0.06C41.817,30.351,41.673,30.35,41.527,30.354z
	 M41.737,29.575c0.479-0.013,0.927,0.051,1.348,0.191c0.368,0.122,0.713,0.306,1.035,0.546l-1.457-3.586L41.737,29.575z
	 M32.026,31.442l0.406,2.535c0.031,0.194,0.075,0.36,0.129,0.497c0.053,0.133,0.115,0.237,0.186,0.31
	c0.072,0.072,0.161,0.128,0.261,0.166c0.105,0.038,0.226,0.058,0.361,0.06l0.061,0.001l0.041,0.258l-3.181,0.51l-0.042-0.261
	l0.056-0.02c0.135-0.05,0.247-0.109,0.338-0.181c0.086-0.067,0.153-0.146,0.197-0.233c0.045-0.089,0.071-0.211,0.077-0.364
	c0.006-0.16-0.008-0.354-0.045-0.579l-0.869-5.416c-0.041-0.259-0.096-0.472-0.166-0.641c-0.066-0.163-0.145-0.282-0.237-0.36
	c-0.092-0.078-0.186-0.132-0.279-0.163c-0.093-0.03-0.185-0.037-0.278-0.023l-0.071,0.012l-0.04-0.243l5.001-0.802
	c0.351-0.057,0.652-0.077,0.9-0.062c0.257,0.018,0.461,0.071,0.615,0.164c0.152,0.093,0.276,0.213,0.368,0.357
	c0.091,0.144,0.153,0.313,0.183,0.504c0.04,0.249,0.034,0.485-0.017,0.712s-0.147,0.441-0.29,0.646
	c-0.139,0.199-0.307,0.396-0.503,0.59c-0.176,0.175-0.374,0.348-0.593,0.52c0.238,0.197,0.465,0.403,0.683,0.619
	c0.237,0.235,0.463,0.482,0.675,0.741c0.101,0.123,0.199,0.248,0.294,0.375c0.092,0.123,0.188,0.254,0.285,0.392
	c0.094,0.135,0.186,0.27,0.275,0.407c0.09,0.14,0.178,0.279,0.262,0.419c0.058,0.097,0.113,0.188,0.165,0.273
	c0.051,0.081,0.101,0.159,0.152,0.238h0.001c0.045,0.072,0.085,0.135,0.119,0.185c0.033,0.048,0.057,0.084,0.076,0.106l0.002,0.004
	c0.047,0.07,0.1,0.137,0.158,0.2c0.057,0.064,0.118,0.124,0.183,0.181c0.063,0.046,0.128,0.08,0.196,0.103
	c0.071,0.022,0.145,0.034,0.22,0.034h0.063l0.042,0.258l-2.799,0.449l-0.043-0.269l0.071-0.012c0.121-0.02,0.204-0.067,0.251-0.147
	c0.05-0.082,0.062-0.201,0.036-0.357c-0.02-0.124-0.061-0.259-0.125-0.403c-0.065-0.146-0.152-0.303-0.261-0.469l-0.001-0.002
	c-0.051-0.086-0.104-0.167-0.158-0.245c-0.054-0.078-0.11-0.152-0.166-0.222l-0.003-0.003c-0.055-0.075-0.11-0.146-0.166-0.213
	c-0.055-0.066-0.111-0.128-0.165-0.182l-1.607-1.656L32.026,31.442z M31.909,30.717c0.397-0.193,0.758-0.395,1.079-0.602
	c0.345-0.225,0.647-0.456,0.906-0.697c0.254-0.237,0.436-0.471,0.544-0.699c0.105-0.222,0.142-0.44,0.106-0.654
	c-0.006-0.035-0.014-0.074-0.027-0.113c-0.013-0.042-0.028-0.084-0.048-0.13V27.82c-0.039-0.093-0.091-0.172-0.159-0.238
	c-0.071-0.068-0.158-0.125-0.26-0.168c-0.053-0.022-0.111-0.04-0.175-0.053c-0.065-0.014-0.136-0.024-0.213-0.029
	c-0.077-0.006-0.164-0.006-0.256,0c-0.094,0.005-0.194,0.017-0.301,0.033l-0.459,0.074l-0.108,0.019l-0.108,0.022
	c-0.038,0.009-0.072,0.018-0.106,0.027c-0.034,0.009-0.066,0.02-0.098,0.031L32.22,27.54c-0.06,0.016-0.122,0.034-0.186,0.058
	c-0.067,0.022-0.135,0.049-0.205,0.079l-0.004,0.003c-0.057,0.02-0.106,0.048-0.147,0.087c-0.041,0.038-0.077,0.088-0.104,0.146
	c-0.027,0.06-0.044,0.133-0.05,0.216c-0.006,0.09,0,0.19,0.019,0.304L31.909,30.717z M24.572,31.637
	c0.43,0.021,0.822,0.077,1.171,0.167c0.402,0.104,0.75,0.254,1.045,0.448c0.297,0.196,0.541,0.419,0.731,0.666
	c0.193,0.25,0.332,0.526,0.417,0.828c0.024,0.086,0.045,0.173,0.063,0.26c0.017,0.088,0.03,0.175,0.04,0.261v0.002
	c0.009,0.085,0.011,0.169,0.01,0.251c-0.001,0.083-0.007,0.163-0.017,0.241c-0.019,0.219-0.067,0.425-0.145,0.616
	c-0.08,0.192-0.188,0.371-0.327,0.533c-0.136,0.159-0.291,0.307-0.464,0.441c-0.17,0.135-0.36,0.259-0.568,0.369
	c-0.209,0.111-0.417,0.209-0.629,0.294c-0.212,0.087-0.428,0.16-0.645,0.223l-4.091,1.16l-0.072-0.257l0.058-0.025
	c0.13-0.054,0.236-0.119,0.316-0.197c0.08-0.074,0.135-0.159,0.167-0.254c0.034-0.099,0.045-0.221,0.037-0.364
	c-0.01-0.148-0.042-0.32-0.098-0.517l-1.479-5.209c-0.027-0.094-0.053-0.18-0.078-0.26c-0.025-0.078-0.051-0.151-0.077-0.219
	c-0.027-0.067-0.053-0.129-0.077-0.183c-0.025-0.053-0.051-0.103-0.08-0.146l-0.001-0.003c-0.048-0.084-0.102-0.154-0.161-0.213
	c-0.055-0.057-0.116-0.101-0.18-0.132c-0.055-0.022-0.122-0.04-0.203-0.049c-0.083-0.008-0.182-0.01-0.294-0.003l-0.057,0.005
	l-0.065-0.229l4.745-1.347c0.629-0.179,1.129-0.22,1.502-0.123c0.386,0.1,0.635,0.344,0.744,0.731
	c0.01,0.035,0.02,0.069,0.027,0.101c0.007,0.029,0.013,0.056,0.016,0.075v0.001c0.004,0.021,0.005,0.046,0.005,0.075
	c-0.001,0.03-0.001,0.063-0.004,0.097c-0.001,0.056-0.007,0.114-0.017,0.174c-0.01,0.063-0.026,0.126-0.044,0.191
	c-0.031,0.11-0.082,0.228-0.155,0.35c-0.071,0.12-0.162,0.247-0.272,0.379c-0.102,0.123-0.231,0.263-0.388,0.415
	C24.86,31.379,24.724,31.504,24.572,31.637z M22.042,32.699c0.274-0.166,0.522-0.329,0.746-0.491
	c0.244-0.178,0.457-0.353,0.64-0.525c0.184-0.172,0.337-0.335,0.459-0.491c0.122-0.153,0.213-0.3,0.275-0.437
	c0.063-0.135,0.102-0.261,0.118-0.376c0.017-0.112,0.013-0.215-0.014-0.307v-0.003c-0.063-0.216-0.227-0.345-0.493-0.389
	c-0.285-0.047-0.686,0.001-1.198,0.147l0,0c-0.167,0.047-0.31,0.091-0.431,0.132c-0.119,0.04-0.216,0.078-0.29,0.113
	c-0.074,0.034-0.138,0.071-0.192,0.108c-0.051,0.035-0.095,0.072-0.129,0.112c-0.024,0.032-0.042,0.069-0.056,0.11
	c-0.011,0.043-0.017,0.088-0.016,0.138l0.024,0.2L22.042,32.699z M22.242,33.402l0.841,2.962l-0.003,0.088
	c0.024,0.064,0.051,0.121,0.078,0.172c0.03,0.054,0.061,0.1,0.094,0.14l0.005,0.007c0.016,0.025,0.04,0.047,0.07,0.062
	c0.033,0.017,0.075,0.028,0.125,0.033c0.099-0.002,0.219-0.013,0.356-0.029c0.139-0.018,0.294-0.04,0.466-0.069l0.196-0.059
	c0.054-0.016,0.095-0.03,0.125-0.041c0.054-0.021,0.138-0.06,0.253-0.111l0.058-0.025c0.072-0.034,0.155-0.076,0.246-0.128
	c0.091-0.05,0.193-0.109,0.307-0.179c0.182-0.109,0.333-0.222,0.455-0.336c0.121-0.114,0.211-0.23,0.274-0.349
	c0.125-0.269,0.202-0.529,0.23-0.785c0.028-0.254,0.009-0.503-0.06-0.744c-0.064-0.225-0.165-0.432-0.302-0.622
	c-0.138-0.191-0.314-0.367-0.527-0.526c-0.213-0.159-0.461-0.293-0.749-0.397c-0.28-0.104-0.595-0.182-0.944-0.233L22.242,33.402z
	 M10.058,42.51l0.078-0.039c0.028-0.015,0.065-0.031,0.113-0.052c0.044-0.019,0.101-0.041,0.17-0.067l0.429-0.159
	c0.072-0.039,0.143-0.077,0.211-0.115c0.069-0.038,0.138-0.079,0.207-0.122c0.065-0.041,0.134-0.084,0.203-0.132
	c0.065-0.044,0.132-0.093,0.2-0.144l0.001-0.002c0.129-0.095,0.251-0.192,0.367-0.295c0.113-0.103,0.22-0.206,0.318-0.313
	c0.193-0.211,0.361-0.428,0.503-0.653c0.142-0.227,0.258-0.46,0.351-0.703c0.092-0.244,0.161-0.491,0.203-0.744
	s0.063-0.512,0.057-0.774l-0.001-0.058l0.242-0.057c0.116,1.173,0.234,2.346,0.352,3.519l-0.111-0.046
	c-0.037-0.016-0.071-0.023-0.102-0.028c-0.028-0.003-0.054-0.001-0.08,0.006l-0.303,0.127l-5.063,2.6l0.853-9.219
	C9.125,35.1,8.992,35.159,8.859,35.22c-0.177,0.085-0.356,0.163-0.537,0.243c-0.104,0.054-0.203,0.107-0.298,0.164
	c-0.095,0.056-0.186,0.112-0.271,0.171l0,0c-0.084,0.057-0.165,0.115-0.243,0.178c-0.082,0.065-0.16,0.135-0.237,0.206l-0.001,0.001
	c-0.142,0.128-0.269,0.274-0.379,0.438c-0.109,0.165-0.204,0.35-0.281,0.553c-0.076,0.203-0.129,0.429-0.159,0.676
	c-0.028,0.247-0.034,0.519-0.014,0.81l0.003,0.061l-0.234,0.058c-0.244-0.991-0.486-1.984-0.729-2.977l0.141,0.072
	c0.04,0.021,0.101,0.027,0.179,0.019c0.087-0.01,0.19-0.037,0.314-0.081c1.177-0.813,3.483-1.812,4.854-2.515L10.058,42.51z
	 M0.063,39.378l2.694-1.657l0.125,0.203l-0.045,0.041c-0.117,0.106-0.203,0.212-0.26,0.318c-0.054,0.101-0.078,0.2-0.074,0.299
	c0.004,0.105,0.027,0.215,0.067,0.328c0.041,0.117,0.101,0.237,0.177,0.364l3.006,4.888c0.105,0.17,0.21,0.312,0.315,0.427
	c0.104,0.112,0.207,0.199,0.311,0.257c0.099,0.056,0.204,0.083,0.315,0.08c0.111-0.002,0.23-0.034,0.356-0.097l0.058-0.028
	L7.25,45.03l-2.755,1.694l-0.141-0.227l0.048-0.04c0.087-0.074,0.158-0.147,0.212-0.219c0.051-0.069,0.088-0.138,0.108-0.203
	c0.02-0.065,0.028-0.137,0.025-0.212c-0.004-0.078-0.02-0.16-0.048-0.248c-0.028-0.093-0.072-0.194-0.129-0.312
	c-0.059-0.116-0.131-0.245-0.219-0.389l-2.728-4.437c-0.141-0.229-0.272-0.414-0.395-0.557C1.11,39.742,1,39.645,0.9,39.586H0.899
	c-0.097-0.055-0.203-0.083-0.32-0.083c-0.121,0.001-0.252,0.032-0.396,0.094L0.126,39.62L0,39.415L0.063,39.378z"/>
<path fill-rule="evenodd" clip-rule="evenodd" fill="#972A40" d="M67.306,45.827h-0.758v-0.055c0.076-0.023,0.115-0.065,0.115-0.128
	v-0.879h-1.407v0.879c0,0.063,0.038,0.104,0.114,0.128v0.055h-0.754v-0.055c0.074-0.026,0.111-0.068,0.111-0.128v-2.061
	c0-0.065-0.037-0.108-0.111-0.13v-0.058h0.754v0.058c-0.076,0.021-0.114,0.064-0.114,0.13v0.781h1.407v-0.781
	c0-0.068-0.039-0.111-0.115-0.13v-0.058h0.758v0.058c-0.076,0.019-0.114,0.062-0.114,0.13v2.061c0,0.06,0.038,0.102,0.114,0.128
	V45.827z M61.464,44.872l-0.386-0.854h-0.006l-0.397,0.854H61.464z M62.6,45.827h-0.893v-0.055c0.076-0.016,0.115-0.053,0.115-0.109
	c0-0.027-0.012-0.063-0.037-0.111l-0.162-0.345h-1.107l-0.165,0.342c-0.022,0.05-0.034,0.087-0.034,0.115
	c0,0.05,0.041,0.085,0.122,0.108v0.055h-0.807v-0.055c0.077-0.016,0.143-0.08,0.196-0.19l0.892-1.87
	c0.028-0.059,0.043-0.105,0.043-0.143c0-0.056-0.034-0.094-0.101-0.115v-0.058h0.861v0.058c-0.072,0.016-0.107,0.05-0.107,0.102
	c0,0.032,0.011,0.072,0.034,0.117l0.929,1.878c0.063,0.133,0.138,0.208,0.221,0.222V45.827z M57.444,44.116
	c0-0.134-0.041-0.22-0.122-0.261c-0.081-0.04-0.2-0.061-0.358-0.061H56.15v0.64h0.813c0.153,0,0.271-0.021,0.355-0.059
	C57.401,44.336,57.444,44.251,57.444,44.116z M57.986,44.119c0,0.481-0.319,0.722-0.956,0.722h-0.88v0.804
	c0,0.063,0.038,0.104,0.115,0.128v0.055h-0.754v-0.055c0.075-0.023,0.111-0.065,0.111-0.128v-2.061c0-0.065-0.036-0.108-0.111-0.13
	v-0.058h1.52c0.295,0,0.52,0.044,0.67,0.135C57.891,43.646,57.986,43.842,57.986,44.119z M52.784,44.62
	c0-0.255-0.078-0.463-0.236-0.62c-0.158-0.159-0.364-0.238-0.619-0.238c-0.247,0-0.452,0.078-0.612,0.235
	c-0.162,0.157-0.243,0.36-0.243,0.61c0,0.247,0.081,0.452,0.243,0.61c0.161,0.159,0.365,0.239,0.612,0.239
	c0.244,0,0.447-0.08,0.61-0.237C52.703,45.062,52.784,44.861,52.784,44.62z M53.33,44.626c0,0.385-0.141,0.691-0.422,0.92
	c-0.261,0.216-0.588,0.324-0.979,0.324c-0.394,0-0.722-0.109-0.983-0.329c-0.278-0.237-0.417-0.549-0.417-0.932
	c0-0.396,0.138-0.706,0.414-0.937c0.257-0.213,0.586-0.319,0.987-0.319c0.395,0,0.721,0.112,0.984,0.338
	C53.191,43.928,53.33,44.238,53.33,44.626z M48.687,43.91h-0.06c-0.02-0.076-0.063-0.115-0.127-0.115h-0.751v1.85
	c0,0.063,0.039,0.104,0.112,0.128v0.055h-0.761v-0.055c0.077-0.023,0.115-0.065,0.115-0.128v-1.85H46.46
	c-0.065,0-0.108,0.039-0.129,0.115h-0.06v-0.633h0.06c0.019,0.079,0.061,0.119,0.129,0.119h2.04c0.066,0,0.11-0.04,0.127-0.119h0.06
	V43.91z M44.326,45.502l-0.045,0.031c-0.03-0.031-0.057-0.045-0.083-0.045c-0.006,0-0.132,0.063-0.378,0.194
	c-0.149,0.078-0.295,0.132-0.441,0.159c-0.106,0.019-0.23,0.028-0.372,0.028c-0.405,0-0.74-0.106-1.004-0.319
	c-0.286-0.231-0.428-0.546-0.428-0.941c0-0.402,0.142-0.716,0.428-0.943c0.261-0.207,0.598-0.313,1.008-0.313
	c0.247,0,0.454,0.034,0.622,0.101c0.057,0.023,0.122,0.055,0.195,0.091c0.063,0.034,0.126,0.071,0.19,0.108
	c0.101,0.056,0.161,0.082,0.181,0.082c0.027,0,0.054-0.016,0.083-0.048l0.045,0.035l-0.336,0.507l-0.05-0.035
	c0-0.105-0.066-0.197-0.202-0.275c-0.096-0.057-0.211-0.098-0.346-0.126c-0.1-0.021-0.208-0.031-0.319-0.031
	c-0.271,0-0.496,0.07-0.672,0.216c-0.19,0.154-0.284,0.364-0.284,0.63c0,0.265,0.094,0.475,0.284,0.629
	c0.179,0.146,0.402,0.221,0.672,0.221c0.092,0,0.188-0.012,0.291-0.031c0.124-0.025,0.241-0.07,0.355-0.133
	c0.147-0.083,0.221-0.173,0.221-0.268l0.05-0.031L44.326,45.502z M39.447,45.942h-0.056c-0.022-0.077-0.065-0.115-0.127-0.115
	h-2.211v-0.055c0.075-0.026,0.112-0.068,0.112-0.128v-2.061c0-0.065-0.037-0.108-0.112-0.13v-0.058h2.166
	c0.065,0,0.108-0.04,0.127-0.119h0.06v0.633h-0.06c-0.02-0.076-0.063-0.115-0.127-0.115h-1.525v0.577h0.993
	c0.064,0,0.105-0.037,0.126-0.111h0.058v0.611h-0.058c-0.021-0.075-0.063-0.114-0.126-0.114h-0.993v0.671h1.571
	c0.063,0,0.105-0.039,0.127-0.115h0.056V45.942z M34.387,44.116c0-0.134-0.04-0.22-0.121-0.261c-0.081-0.04-0.2-0.061-0.358-0.061
	h-0.814v0.64h0.814c0.152,0,0.271-0.021,0.354-0.059C34.346,44.336,34.387,44.251,34.387,44.116z M34.93,44.119
	c0,0.481-0.318,0.722-0.956,0.722h-0.879v0.804c0,0.063,0.039,0.104,0.115,0.128v0.055h-0.754v-0.055
	c0.074-0.023,0.111-0.065,0.111-0.128v-2.061c0-0.065-0.037-0.108-0.111-0.13v-0.058h1.518c0.296,0,0.52,0.044,0.671,0.135
	C34.834,43.646,34.93,43.842,34.93,44.119z M30.803,47.812h38.156V48H30.803V47.812z M30.803,41.22h38.156v0.188H30.803V41.22z
	 M22.626,44.61l1.762-0.27l1.761-0.271v0.014c0.159-0.233,0.419-0.384,0.713-0.384c0.301,0,0.567,0.159,0.725,0.4V42.83l1.038-1.082
	h42.458l1.038,1.082v1.364c0.146-0.294,0.439-0.494,0.778-0.494c0.294,0,0.554,0.15,0.712,0.384V44.07l1.762,0.271l1.761,0.27
	l-1.761,0.27l-1.762,0.271v-0.013c-0.158,0.231-0.418,0.383-0.712,0.383c-0.339,0-0.633-0.201-0.778-0.495v1.365l-1.038,1.083
	H28.625l-1.038-1.083v-1.271c-0.158,0.242-0.423,0.401-0.725,0.401c-0.294,0-0.554-0.151-0.713-0.383v0.013l-1.761-0.271
	L22.626,44.61z"/>
</svg>
