<svg width="18" height="18" fill="none" xmlns="http://www.w3.org/2000/svg"><g clip-path="url(#clip0_43_2240)"><path d="M9.749.75a.75.75 0 01.75-.75 7.508 7.508 0 017.5 7.5.75.75 0 11-1.5 0 6.007 6.007 0 00-6-6 .75.75 0 01-.75-.75zm.75 3.75a3 3 0 013 3 .75.75 0 101.5 0 4.505 4.505 0 00-4.5-4.5.75.75 0 100 1.5zm6.82 8.055a2.325 2.325 0 010 3.283l-.683.787c-6.142 5.88-21.09-9.063-15.3-15.225L2.2.65a2.31 2.31 0 013.245.03c.023.023 1.413 1.828 1.413 1.828a2.325 2.325 0 01-.005 3.212l-.869 1.092a9.586 9.586 0 005.199 5.209l1.098-.874a2.325 2.325 0 013.211-.005s1.805 1.39 1.828 1.413zm-1.032 1.09s-1.795-1.38-1.818-1.404a.825.825 0 00-1.162 0c-.02.021-1.533 1.226-1.533 1.226a.75.75 0 01-.734.114 11.256 11.256 0 01-6.616-6.606.75.75 0 01.109-.75s1.205-1.513 1.225-1.533a.825.825 0 000-1.161c-.023-.023-1.404-1.82-1.404-1.82a.825.825 0 00-1.132.03l-.863.75c-4.231 5.088 8.722 17.323 13.18 13.11l.684-.788a.84.84 0 00.064-1.168z" fill="#B50717"/></g><defs><clipPath id="clip0_43_2240"><path fill="#fff" d="M0 0h18v18H0z"/></clipPath></defs></svg>