<svg width="18" height="18" fill="none" xmlns="http://www.w3.org/2000/svg"><g clip-path="url(#clip0_43_2212)"><mask id="a" style="mask-type:luminance" maskUnits="userSpaceOnUse" x="0" y="0" width="18" height="18"><path d="M0 0h18v18H0V0z" fill="#fff"/></mask><g mask="url(#a)"><path d="M13.219 16.383H4.78l.047-.047C2.28 14.884.528 12.142.528 9 .527 4.34 4.34.527 9 .527S17.473 4.34 17.473 9c0 3.142-1.753 5.884-4.301 7.336l.047.047z" stroke="#B50717" stroke-width="1.2" stroke-miterlimit="10" stroke-linecap="round" stroke-linejoin="round"/><path d="M5.836 14.273h6.328c.582 0 1.055-.472 1.055-1.054V5.836a2.11 2.11 0 00-2.11-2.11H6.891a2.11 2.11 0 00-2.11 2.11v7.383c0 .582.472 1.054 1.055 1.054zM4.96 5.836h8.078M3.727 17.473l3.164-3.2M11.11 14.273l3.163 3.2M4.781 10.055h8.438M9 5.836v4.219" stroke="#B50717" stroke-width="1.2" stroke-miterlimit="10" stroke-linecap="round" stroke-linejoin="round"/><path d="M7.418 12.164a.527.527 0 11-1.055 0 .527.527 0 011.055 0zM11.637 12.164a.527.527 0 11-1.055 0 .527.527 0 011.055 0z" fill="#B50717"/></g></g><defs><clipPath id="clip0_43_2212"><path fill="#fff" d="M0 0h18v18H0z"/></clipPath></defs></svg>