<svg width="18" height="18" fill="none" xmlns="http://www.w3.org/2000/svg"><g clip-path="url(#clip0_43_2251)" fill="#B50717"><path d="M8.998 4.5a3 3 0 100 6 3 3 0 000-6zm0 4.5a1.5 1.5 0 110-3 1.5 1.5 0 010 3z"/><path d="M8.996 18a3.952 3.952 0 01-3.233-1.65c-2.858-3.943-4.308-6.907-4.308-8.81a7.541 7.541 0 1115.083 0c0 1.903-1.45 4.867-4.308 8.81A3.954 3.954 0 018.996 18zm0-16.365a5.912 5.912 0 00-5.905 5.906c0 1.507 1.42 4.295 3.997 7.85a2.359 2.359 0 003.817 0c2.577-3.555 3.997-6.343 3.997-7.85a5.912 5.912 0 00-5.906-5.906z"/></g><defs><clipPath id="clip0_43_2251"><path fill="#fff" d="M0 0h18v18H0z"/></clipPath></defs></svg>