<svg width="17" height="10" fill="none" xmlns="http://www.w3.org/2000/svg"><path fill-rule="evenodd" clip-rule="evenodd" d="M16.341.977c.118-.36 0-.622-.52-.622h-1.729c-.436 0-.638.229-.755.475 0 0-.89 2.096-2.132 3.455-.403.393-.588.524-.806.524-.117 0-.268-.131-.268-.491V.96c0-.426-.135-.623-.504-.623h-2.72c-.268 0-.436.197-.436.393 0 .41.621.508.688 1.654v2.49c0 .54-.1.638-.318.638-.588 0-2.015-2.112-2.87-4.52-.169-.475-.337-.655-.773-.655H1.452C.95.338.865.568.865.813c0 .442.587 2.67 2.736 5.617 1.427 2.014 3.458 3.095 5.287 3.095 1.108 0 1.243-.246 1.243-.655V7.347c0-.491.1-.573.453-.573.252 0 .705.13 1.729 1.097 1.175 1.146 1.376 1.67 2.03 1.67h1.73c.503 0 .738-.245.604-.72-.151-.475-.722-1.163-1.46-1.982-.403-.458-1.007-.966-1.192-1.211-.252-.328-.185-.459 0-.754-.017 0 2.098-2.914 2.316-3.897z" fill="#6A6A6A"/></svg>