<svg width="17" height="17" fill="none" xmlns="http://www.w3.org/2000/svg"><path fill-rule="evenodd" clip-rule="evenodd" d="M8.535.76C6.417.76 6.15.768 5.32.805c-.83.038-1.397.17-1.893.363-.513.199-.948.465-1.381.899-.434.433-.7.868-.9 1.38-.193.497-.325 1.063-.362 1.893C.747 6.173.737 6.44.737 8.556c0 2.118.01 2.383.047 3.215.038.83.17 1.396.362 1.892.2.513.466.948.9 1.381.433.434.868.701 1.38.9.496.193 1.063.324 1.893.362.832.038 1.097.047 3.215.047 2.117 0 2.382-.009 3.214-.047.83-.038 1.397-.17 1.893-.362.513-.199.947-.466 1.38-.9.434-.433.7-.868.9-1.38.192-.497.324-1.063.363-1.893.037-.832.047-1.097.047-3.215 0-2.117-.01-2.383-.047-3.215-.04-.83-.17-1.396-.362-1.892a3.827 3.827 0 00-.9-1.381 3.81 3.81 0 00-1.381-.9c-.497-.192-1.064-.324-1.894-.362C10.915.77 10.65.76 8.532.76h.003zm-.26 1.405h.26c2.082 0 2.328.007 3.15.044.76.035 1.173.162 1.448.269.364.141.623.31.896.583.273.273.442.533.584.897.106.274.233.687.268 1.447.037.822.046 1.069.046 3.15 0 2.08-.009 2.328-.046 3.15-.035.76-.162 1.172-.268 1.447-.142.364-.311.623-.584.896a2.412 2.412 0 01-.896.583c-.275.107-.688.234-1.448.268-.822.038-1.069.046-3.15.046-2.082 0-2.33-.008-3.151-.046-.76-.035-1.173-.162-1.448-.268a2.415 2.415 0 01-.897-.584 2.416 2.416 0 01-.583-.896c-.107-.274-.234-.687-.269-1.447-.037-.822-.044-1.069-.044-3.151s.007-2.328.044-3.15c.035-.76.162-1.173.269-1.447.141-.364.31-.624.583-.897a2.42 2.42 0 01.897-.584c.275-.107.688-.234 1.448-.268.72-.033.998-.043 2.451-.044v.002h.44zm3.486 2.23a.936.936 0 111.87 0 .936.936 0 01-1.87 0zm-3.226.157a4.004 4.004 0 100 8.009 4.004 4.004 0 000-8.009zm2.599 4.004a2.6 2.6 0 10-5.199 0 2.6 2.6 0 005.199 0z" fill="#6A6A6A"/></svg>