<svg width="18" height="15" fill="none" xmlns="http://www.w3.org/2000/svg"><path fill-rule="evenodd" clip-rule="evenodd" d="M9.811 11.553c-.657.648-1.307 1.284-1.951 1.926-.225.225-.479.349-.802.331-.22-.012-.344-.11-.411-.323-.493-1.552-.994-3.101-1.485-4.654-.048-.15-.12-.223-.27-.27-1.163-.36-2.323-.728-3.482-1.1a1.967 1.967 0 01-.494-.227c-.26-.174-.296-.45-.06-.651a2.75 2.75 0 01.744-.447c1.469-.589 2.945-1.158 4.42-1.735L16.655.243c.68-.266 1.208.103 1.145.846-.042.49-.168.972-.27 1.456-.785 3.761-1.574 7.522-2.361 11.283l-.004.022c-.193.86-.81 1.095-1.513.571-1.221-.91-2.44-1.825-3.66-2.738-.057-.043-.117-.083-.182-.13zm-2.699 1.185c.02-.089.033-.13.036-.171.078-.846.159-1.691.228-2.538a.631.631 0 01.214-.457c1.85-1.683 3.695-3.373 5.542-5.061.525-.48 1.053-.958 1.573-1.444.054-.05.066-.149.098-.225-.08-.023-.17-.081-.24-.062a1.735 1.735 0 00-.457.197c-2.745 1.75-5.487 3.505-8.232 5.254-.14.09-.18.163-.124.333.435 1.323.857 2.65 1.284 3.976.016.053.04.102.078.198z" fill="#6A6A6A"/></svg>