<svg width="20" height="20" fill="none" xmlns="http://www.w3.org/2000/svg"><path fill-rule="evenodd" clip-rule="evenodd" d="M7.263 5.37c-.183-.436-.32-.453-.597-.464a5.333 5.333 0 00-.316-.011c-.36 0-.735.105-.962.337-.276.282-.962.94-.962 2.29s.984 2.655 1.117 2.838c.138.182 1.919 2.992 4.684 4.138 2.162.896 2.804.813 3.296.708.719-.155 1.62-.686 1.847-1.328.227-.642.227-1.19.16-1.305-.066-.116-.249-.183-.525-.321-.277-.138-1.62-.802-1.875-.89-.249-.095-.486-.061-.674.204-.266.37-.526.747-.736.974-.166.177-.437.199-.664.105-.304-.127-1.155-.426-2.206-1.361-.813-.725-1.366-1.626-1.526-1.897-.16-.277-.017-.437.11-.586.139-.172.271-.294.41-.454.138-.16.215-.243.304-.432.094-.182.027-.37-.039-.509-.066-.138-.62-1.488-.846-2.036zM9.89.591c-5.187 0-9.407 4.22-9.407 9.41a9.34 9.34 0 001.792 5.514l-1.172 3.496 3.616-1.156a9.335 9.335 0 005.176 1.554c5.187 0 9.407-4.22 9.407-9.409 0-5.188-4.22-9.409-9.407-9.409H9.89z" fill="#6A6A6A"/></svg>