<svg width="90" height="90" fill="none" xmlns="http://www.w3.org/2000/svg"><rect width="90" height="90" rx="45" fill="#fff"/><g clip-path="url(#clip0_5_7842)" fill="#B50717"><path d="M51.174 60.75c-1.585 0-2.945-1.19-3.234-2.83l-1.335-8.974c-.145-.83-.821-1.447-1.605-1.447s-1.458.618-1.606 1.468L42.065 57.9c-.294 1.661-1.654 2.851-3.239 2.851-1.687 0-3.094-1.33-3.269-3.094l-.518-5.176c-.021-.216-.214-1.491-1.526-8.666a46.766 46.766 0 01-.763-8.427c0-3.384 2.378-6.137 5.3-6.137 1.009 0 1.994.324 2.85.933 2.529 1.802 5.672 1.802 8.199 0a4.91 4.91 0 012.85-.933c2.923 0 5.301 2.753 5.301 6.137 0 2.825-.255 5.661-.763 8.428-1.313 7.175-1.505 8.45-1.526 8.665l-.518 5.176c-.177 1.764-1.582 3.094-3.269 3.094zM45 45.747c1.636 0 3.036 1.227 3.332 2.917l1.335 8.974c.137.78.772 1.362 1.507 1.362.784 0 1.442-.653 1.528-1.519l.518-5.177c.052-.521.572-3.482 1.547-8.804.486-2.663.733-5.392.733-8.111 0-2.42-1.593-4.389-3.55-4.389-.641 0-1.277.21-1.835.609-3.155 2.249-7.073 2.25-10.23 0A3.147 3.147 0 0038.05 31c-1.959 0-3.551 1.969-3.551 4.387 0 2.723.247 5.452.733 8.111.973 5.322 1.495 8.285 1.547 8.806l.518 5.179c.086.864.744 1.517 1.528 1.517.733 0 1.37-.583 1.51-1.383l1.328-8.93c.3-1.713 1.7-2.94 3.336-2.94z"/><path d="M28.114 57.245c-1.892 0-3.146-.473-3.75-1.412-.262-.41-.521-1.115-.25-2.134.934-3.512 7.962-9.205 17.488-14.164 10.235-5.329 21.773-8.883 24.032-5.367 1.066 1.646-.124 4.066-3.54 7.19a.876.876 0 01-1.181-1.293c3.202-2.926 3.55-4.489 3.251-4.95-1.076-1.68-9.872-.218-21.752 5.968-10.007 5.21-15.929 10.516-16.606 13.064-.086.322-.075.57.033.739.322.505 1.833.892 5.009.329a.874.874 0 11.306 1.723c-1.15.203-2.163.307-3.04.307z"/><path d="M61.886 57.245c-.877 0-1.89-.102-3.038-.305a.875.875 0 01.306-1.723c3.18.563 4.685.175 5.007-.33.108-.168.119-.416.033-.738-.677-2.548-6.6-7.854-16.606-13.064-11.882-6.186-20.672-7.644-21.749-5.973-.31.482.067 2.095 3.434 5.107a.875.875 0 11-1.166 1.306c-3.57-3.194-4.828-5.669-3.741-7.358 2.256-3.517 13.795.037 24.03 5.368 9.524 4.96 16.552 10.652 17.487 14.164.271 1.019.014 1.722-.25 2.134-.6.94-1.857 1.412-3.747 1.412z"/></g><defs><clipPath id="clip0_5_7842"><path fill="#fff" transform="translate(24 24)" d="M0 0h42v42H0z"/></clipPath></defs></svg>