<svg width="90" height="90" fill="none" xmlns="http://www.w3.org/2000/svg"><rect width="90" height="90" rx="45" fill="#fff"/><g clip-path="url(#clip0_5_7812)" fill="#B50717"><path d="M54.067 66c-2.123 0-3.95-1.496-4.342-3.56l-1.956-10.284C47.519 50.849 46.355 49.9 45 49.9c-1.355 0-2.518.949-2.767 2.256l-1.956 10.283C39.883 64.504 38.057 66 35.933 66c-2.263 0-4.15-1.677-4.392-3.9l-.767-7.043a37.145 37.145 0 00-1.613-7.506l-1.495-4.584a38.86 38.86 0 01-1.916-12.054c0-3.812 3.14-6.913 7-6.913 2.844 0 5.591.693 8.547 2.12 2.492 1.203 4.916 1.203 7.406 0 2.956-1.427 5.703-2.12 8.398-2.12 4.01 0 7.149 3.101 7.149 6.913 0 4.096-.646 8.153-1.916 12.055l-1.495 4.583a37.145 37.145 0 00-1.613 7.506l-.767 7.042C58.218 64.323 56.33 66 54.067 66zM45 48.15c2.194 0 4.083 1.547 4.485 3.68l1.957 10.283c.236 1.237 1.34 2.137 2.625 2.137 1.367 0 2.508-1.006 2.653-2.34l.766-7.042c.29-2.665.86-5.311 1.69-7.859l1.495-4.583A37.148 37.148 0 0062.5 30.912c0-2.847-2.355-5.162-5.25-5.162-2.576 0-5.073.637-7.786 1.946-2.962 1.43-5.967 1.43-8.928 0-2.713-1.309-5.21-1.946-7.637-1.946-3.044 0-5.399 2.315-5.399 5.163 0 3.912.616 7.787 1.83 11.513l1.495 4.583a38.897 38.897 0 011.689 7.858l.766 7.041c.145 1.336 1.286 2.342 2.653 2.342 1.285 0 2.387-.9 2.623-2.139l1.957-10.282c.404-2.132 2.293-3.679 4.487-3.679z"/><path d="M61.188 43.25h-6.15a4.35 4.35 0 01-3.913-2.419l-.691-1.38A2.61 2.61 0 0048.087 38h-6.174c-1 0-1.9.556-2.347 1.45l-.691 1.381a4.35 4.35 0 01-3.913 2.419h-6.15a.875.875 0 010-1.75h6.15c1 0 1.899-.556 2.347-1.45L38 38.668a4.35 4.35 0 013.913-2.419h6.174A4.35 4.35 0 0152 38.669l.691 1.38a2.61 2.61 0 002.347 1.451h6.15a.875.875 0 010 1.75z"/></g><defs><clipPath id="clip0_5_7812"><path fill="#fff" transform="translate(24 24)" d="M0 0h42v42H0z"/></clipPath></defs></svg>