<svg width="90" height="90" fill="none" xmlns="http://www.w3.org/2000/svg"><rect width="90" height="90" rx="45" fill="#fff"/><g clip-path="url(#clip0_5_7830)" fill="#B50717"><path d="M61.124 66c-1.303 0-2.432-.865-2.68-2.058l-1.03-5.82c-.082-.387-.53-.697-1.039-.697-.51 0-.957.312-1.045.725l-1.018 5.766C54.058 65.136 52.929 66 51.626 66c-1.395 0-2.563-.973-2.715-2.264l-.399-3.35c-.033-.275-.425-2.149-1.167-5.57a26.066 26.066 0 01-.595-5.537A4.284 4.284 0 0151.029 45c.792 0 1.571.215 2.252.623a6.005 6.005 0 006.188 0A4.379 4.379 0 0161.721 45 4.284 4.284 0 0166 49.279c0 1.86-.2 3.722-.597 5.538-1.034 4.752-1.153 5.462-1.167 5.569l-.399 3.35C63.687 65.026 62.519 66 61.124 66zm-4.749-10.325c1.34 0 2.5.89 2.756 2.116l1.03 5.82c.075.352.491.639.963.639.5 0 .928-.317.979-.72l.397-3.349c.016-.131.061-.532 1.195-5.734.37-1.695.555-3.432.555-5.166a2.531 2.531 0 00-2.529-2.531c-.476 0-.943.13-1.349.374a7.756 7.756 0 01-7.989 0 2.624 2.624 0 00-1.35-.374 2.532 2.532 0 00-2.533 2.529c0 1.732.185 3.47.555 5.164.796 3.675 1.155 5.388 1.195 5.736l.399 3.35c.049.404.478.721.977.721.472 0 .889-.287.969-.667l1.019-5.766c.26-1.253 1.42-2.142 2.761-2.142zM38 39.75c-4.342 0-7.875-3.533-7.875-7.875C30.125 27.533 33.658 24 38 24c4.342 0 7.875 3.533 7.875 7.875 0 4.342-3.533 7.875-7.875 7.875zm0-14a6.132 6.132 0 00-6.125 6.125A6.132 6.132 0 0038 38a6.132 6.132 0 006.125-6.125A6.132 6.132 0 0038 25.75zM42.375 57.25h-17.5a.875.875 0 01-.875-.875v-7a6.132 6.132 0 016.125-6.125h14a.875.875 0 010 1.75h-14a4.379 4.379 0 00-4.375 4.375V55.5h16.625a.875.875 0 010 1.75z"/><path d="M43.945 32.02c-2.08 0-3.58-1.412-4.356-2.366-3.906 3.008-8.531 2.245-8.741 2.207a.873.873 0 01.3-1.722c.048.005 4.617.742 8.007-2.405a.85.85 0 01.723-.224.879.879 0 01.628.426c.07.119 1.733 2.905 4.265 2.22a.875.875 0 01.456 1.69 4.92 4.92 0 01-1.282.174z"/></g><defs><clipPath id="clip0_5_7830"><path fill="#fff" transform="translate(24 24)" d="M0 0h42v42H0z"/></clipPath></defs></svg>