<svg width="90" height="90" fill="none" xmlns="http://www.w3.org/2000/svg"><rect width="90" height="90" rx="45" fill="#fff"/><g clip-path="url(#clip0_5_7836)" fill="#B50717"><path d="M49.75 48.5c-1.304 0-2.433-.866-2.681-2.058l-1.03-5.82c-.082-.386-.53-.697-1.039-.697-.51 0-.957.312-1.045.723l-1.018 5.766c-.254 1.22-1.383 2.086-2.686 2.086-1.395 0-2.563-.973-2.715-2.264l-.399-3.35c-.024-.189-.245-1.31-1.167-5.57a26.063 26.063 0 01-.595-5.536c0-2.36 1.92-4.28 4.279-4.28.792 0 1.571.215 2.252.623a6.013 6.013 0 006.188 0 4.379 4.379 0 012.252-.623 4.284 4.284 0 014.279 4.28c0 1.859-.2 3.721-.597 5.54-1.032 4.749-1.153 5.461-1.167 5.566l-.399 3.351c-.15 1.29-1.318 2.263-2.713 2.263zM45 38.175c1.34 0 2.5.889 2.756 2.114l1.03 5.82c.075.354.491.641.963.641.5 0 .928-.317.979-.721l.399-3.35c.04-.353.442-2.282 1.195-5.733a24.42 24.42 0 00.553-5.165 2.533 2.533 0 00-2.529-2.531c-.476 0-.943.13-1.349.375a7.756 7.756 0 01-7.989 0 2.64 2.64 0 00-1.354-.375 2.531 2.531 0 00-2.529 2.53c0 1.733.185 3.469.555 5.165.796 3.673 1.153 5.388 1.195 5.736l.399 3.35c.049.402.478.719.977.719.472 0 .889-.287.969-.667l1.019-5.766c.26-1.253 1.42-2.142 2.761-2.142z"/><path d="M61.625 60.75h-33.25A4.38 4.38 0 0124 56.375v-15.75A2.628 2.628 0 0126.625 38h2.22a4.39 4.39 0 014.295 3.542c.588 2.968.917 5.07.917 5.07C34.42 49.699 37.081 52 40.251 52c1.534 0 3.01-.558 4.156-1.573a.875.875 0 011.157-.002A6.327 6.327 0 0049.748 52c3.171 0 5.831-2.3 6.19-5.352.004-.031.32-2.09.917-5.108A4.394 4.394 0 0161.151 38h2.224A2.628 2.628 0 0166 40.625v15.75a4.38 4.38 0 01-4.375 4.375zm-35-21a.876.876 0 00-.875.875v15.75A2.628 2.628 0 0028.375 59h33.25a2.628 2.628 0 002.625-2.625v-15.75a.876.876 0 00-.875-.875h-2.224c-1.25 0-2.335.896-2.58 2.132-.586 2.966-.9 4.994-.901 5.003-.457 3.9-3.864 6.865-7.92 6.865a8.08 8.08 0 01-4.762-1.547 8.007 8.007 0 01-4.737 1.547c-4.057 0-7.466-2.966-7.928-6.9-.002 0-.326-2.064-.9-4.968a2.638 2.638 0 00-2.577-2.132h-2.221z"/></g><defs><clipPath id="clip0_5_7836"><path fill="#fff" transform="translate(24 24)" d="M0 0h42v42H0z"/></clipPath></defs></svg>