<svg width="90" height="90" fill="none" xmlns="http://www.w3.org/2000/svg"><rect width="90" height="90" rx="45" fill="#fff"/><g clip-path="url(#clip0_5_7806)" fill="#B50717"><path d="M45 63.375c-10.133 0-18.375-8.242-18.375-18.375S34.867 26.625 45 26.625 63.375 34.867 63.375 45 55.133 63.375 45 63.375zm0-35c-9.166 0-16.625 7.459-16.625 16.625S35.834 61.625 45 61.625 61.625 54.166 61.625 45 54.166 28.375 45 28.375z"/><path d="M45 31a.875.875 0 01-.875-.875v-5.25a.875.875 0 011.75 0v5.25A.875.875 0 0145 31zM45 66a.875.875 0 01-.875-.875v-5.25a.875.875 0 011.75 0v5.25A.875.875 0 0145 66zM65.125 45.875h-5.25a.875.875 0 010-1.75h5.25a.875.875 0 010 1.75zM30.125 45.875h-5.25a.875.875 0 010-1.75h5.25a.875.875 0 010 1.75zM49.748 55.5c-1.306 0-2.433-.866-2.681-2.06l-1.03-5.82c-.08-.385-.528-.695-1.037-.695-.51 0-.957.31-1.043.721l-1.02 5.768c-.254 1.22-1.381 2.086-2.685 2.086-1.395 0-2.56-.973-2.714-2.264l-.399-3.35c-.026-.219-.347-1.797-1.167-5.57a25.973 25.973 0 01-.597-5.535c0-2.361 1.92-4.281 4.28-4.281.793 0 1.57.215 2.251.623a6.005 6.005 0 006.188 0 4.382 4.382 0 012.25-.623c2.361 0 4.281 1.92 4.281 4.28 0 1.857-.2 3.72-.595 5.538-1.036 4.758-1.157 5.465-1.167 5.568l-.4 3.351c-.153 1.29-1.32 2.263-2.715 2.263zM45 45.175c1.342 0 2.5.889 2.756 2.116l1.03 5.819c.073.353.49.64.962.64.5 0 .929-.317.976-.721l.4-3.35c.015-.129.062-.523 1.194-5.733a24.43 24.43 0 00.555-5.164 2.53 2.53 0 00-2.529-2.532c-.474 0-.941.13-1.349.374a7.747 7.747 0 01-7.988 0 2.633 2.633 0 00-1.351-.374 2.532 2.532 0 00-2.531 2.53c0 1.731.187 3.469.555 5.165.75 3.447 1.151 5.376 1.195 5.733l.399 3.351c.049.404.478.721.978.721.473 0 .89-.287.968-.667l1.02-5.766c.26-1.253 1.418-2.142 2.76-2.142z"/></g><defs><clipPath id="clip0_5_7806"><path fill="#fff" transform="translate(24 24)" d="M0 0h42v42H0z"/></clipPath></defs></svg>