<svg width="90" height="90" fill="none" xmlns="http://www.w3.org/2000/svg"><rect width="90" height="90" rx="45" fill="#fff"/><g clip-path="url(#clip0_5_7818)" fill="#B50717"><path d="M49.748 66c-1.304 0-2.433-.865-2.681-2.058l-1.03-5.82c-.08-.387-.528-.697-1.037-.697-.51 0-.957.312-1.043.723l-1.02 5.768C42.683 65.136 41.556 66 40.252 66c-1.393 0-2.56-.973-2.714-2.264l-.399-3.348c-.026-.22-.347-1.8-1.167-5.572a25.975 25.975 0 01-.597-5.537A4.284 4.284 0 0139.655 45c.793 0 1.57.215 2.251.623a6.005 6.005 0 006.188 0 4.382 4.382 0 012.25-.623c2.361 0 4.281 1.92 4.281 4.279 0 1.858-.2 3.72-.595 5.538-1.008 4.63-1.153 5.434-1.167 5.569l-.4 3.351C52.31 65.027 51.144 66 49.749 66zM45 55.675c1.342 0 2.502.89 2.756 2.117l1.03 5.82c.073.351.49.638.962.638.5 0 .929-.317.976-.72v-.001l.4-3.35c.017-.141.06-.521 1.194-5.733a24.43 24.43 0 00.555-5.164 2.532 2.532 0 00-2.53-2.53c-.475 0-.942.13-1.35.374a7.744 7.744 0 01-7.988 0 2.607 2.607 0 00-1.35-.376 2.531 2.531 0 00-2.53 2.529c0 1.73.187 3.468.555 5.164.75 3.45 1.153 5.38 1.195 5.735l.399 3.35c.049.405.478.722.978.722.473 0 .89-.287.968-.667l1.02-5.766c.258-1.253 1.418-2.142 2.76-2.142zM31.875 55.5a.872.872 0 01-.684-.329l-7-8.75a.877.877 0 01-.124-.884l8.75-21a.882.882 0 011.144-.472.875.875 0 01.47 1.144l-8.548 20.524 2.987 3.735-1.307-3.267a.873.873 0 01.03-.716l10.5-21a.875.875 0 111.566.782L29.334 45.914 32.69 54.3a.875.875 0 01-.814 1.2zM58.125 55.5a.874.874 0 01-.81-1.199l3.355-8.386-10.327-20.648a.875.875 0 111.566-.782l10.5 21a.873.873 0 01.03.715l-1.307 3.268 2.987-3.735-8.55-20.522a.875.875 0 111.615-.672l8.75 21a.877.877 0 01-.125.884l-7 8.75a.88.88 0 01-.684.327z"/></g><defs><clipPath id="clip0_5_7818"><path fill="#fff" transform="translate(24 24)" d="M0 0h42v42H0z"/></clipPath></defs></svg>