<svg width="90" height="90" fill="none" xmlns="http://www.w3.org/2000/svg"><rect width="90" height="90" rx="45" fill="#fff"/><g clip-path="url(#clip0_5_7824)" fill="#B50717"><path d="M35.078 62.5a2.789 2.789 0 01-1.456-.41c-1.105-.626-1.656-1.933-1.286-3.093l2.024-5.564a.98.98 0 00.035-.225c0-.345-.227-.7-.58-.907-.436-.247-.99-.201-1.276.114L28.782 56.9c-.842.938-2.319 1.097-3.386.446-1.185-.68-1.713-2.108-1.206-3.309l1.332-3.103c.12-.281.966-2.854 1.773-5.397a25.184 25.184 0 012.266-5.094 4.235 4.235 0 013.713-2.145c.716 0 1.467.203 2.113.57a4.358 4.358 0 011.653 1.698 6.012 6.012 0 005.23 3.07h.227c.73 0 1.471.202 2.147.585.395.22.752.508 1.052.853a.877.877 0 01-.088 1.235.877.877 0 01-1.235-.087 2.163 2.163 0 00-.585-.473 2.63 2.63 0 00-1.291-.364h-.228a7.769 7.769 0 01-6.765-3.983 2.608 2.608 0 00-.996-1.022c-1.195-.679-2.768-.217-3.432.942a23.466 23.466 0 00-2.114 4.747c-.406 1.281-1.615 5.053-1.832 5.558l-1.33 3.1c-.16.376.056.87.49 1.118.625.381.952.156 1.17-.09l3.76-4.49c.86-.943 2.308-1.134 3.463-.48.905.527 1.46 1.453 1.46 2.424 0 .244-.04.496-.125.776l-2.026 5.577c-.107.336.112.79.52 1.022.229.14.43.166.565.166a.8.8 0 00.647-.297l2.011-2.695c.235-.319 1.67-1.908 3.904-4.37a24.974 24.974 0 003.077-4.193c.065-.117.127-.256.18-.406a.88.88 0 01.838-.63c.483 0 .875.383.875.866v.018a.87.87 0 01-.045.276 4.39 4.39 0 01-.324.737 26.736 26.736 0 01-3.306 4.508c-1.064 1.172-3.556 3.915-3.794 4.237l-2.016 2.7c-.469.626-1.233 1-2.047 1z"/><path d="M57.623 55.5c-1.306 0-2.433-.866-2.681-2.06l-1.03-5.82c-.08-.385-.528-.695-1.037-.695-.51 0-.957.31-1.043.721l-1.02 5.768c-.254 1.22-1.381 2.086-2.685 2.086-1.395 0-2.56-.973-2.714-2.264l-.399-3.35c-.026-.219-.347-1.797-1.167-5.57a25.98 25.98 0 01-.597-5.535c0-2.361 1.92-4.281 4.28-4.281.793 0 1.57.215 2.251.623a6.005 6.005 0 006.188 0 4.382 4.382 0 012.25-.623c2.361 0 4.281 1.92 4.281 4.28 0 1.857-.2 3.72-.595 5.538-1.036 4.758-1.157 5.465-1.167 5.568l-.4 3.351c-.153 1.29-1.32 2.263-2.715 2.263zm-4.748-10.325c1.342 0 2.5.889 2.756 2.116l1.03 5.819c.073.353.49.64.962.64.5 0 .929-.317.976-.721l.401-3.35c.016-.129.063-.523 1.195-5.733.368-1.695.555-3.433.555-5.165a2.533 2.533 0 00-2.53-2.531c-.475 0-.942.13-1.35.374a7.747 7.747 0 01-7.988 0 2.633 2.633 0 00-1.351-.374A2.532 2.532 0 0045 38.78c0 1.731.187 3.469.555 5.165.75 3.447 1.151 5.376 1.195 5.733l.399 3.351c.049.404.478.721.978.721.473 0 .89-.287.968-.667l1.02-5.766c.26-1.253 1.418-2.142 2.76-2.142zM24.875 45a.875.875 0 01-.324-1.687l4.375-1.75a.876.876 0 01.65 1.626l-4.375 1.75a.887.887 0 01-.326.06z"/><path d="M65.125 45a.87.87 0 01-.39-.093l-3.5-1.75a.877.877 0 01-.392-1.174.878.878 0 011.174-.392l3.5 1.75A.877.877 0 0165.125 45zM35.853 33.79a.881.881 0 01-.378-.086l-2.23-1.075a.876.876 0 01.76-1.576l2.23 1.074a.874.874 0 01-.382 1.662zM42.46 31.48a.874.874 0 01-.788-1.253l1.076-2.23a.874.874 0 111.577.758l-1.075 2.23a.875.875 0 01-.79.495zM38.581 30.983a.875.875 0 01-.826-.587l-.577-1.652a.876.876 0 011.652-.577l.577 1.652a.874.874 0 01-.826 1.164z"/></g><defs><clipPath id="clip0_5_7824"><path fill="#fff" transform="translate(24 24)" d="M0 0h42v42H0z"/></clipPath></defs></svg>