<svg width="90" height="90" fill="none" xmlns="http://www.w3.org/2000/svg"><rect width="90" height="90" rx="45" fill="#fff"/><g clip-path="url(#clip0_5_4651)" fill="#B50717"><path d="M63.375 60.75h-36.75A2.628 2.628 0 0124 58.125v-24.5A2.628 2.628 0 0126.625 31h3.5a.875.875 0 010 1.75h-3.5a.875.875 0 00-.875.875v24.5c0 .481.392.875.875.875h36.75a.876.876 0 00.875-.875v-24.5a.875.875 0 00-.875-.875h-3.5a.875.875 0 010-1.75h3.5A2.628 2.628 0 0166 33.625v24.5a2.628 2.628 0 01-2.625 2.625z"/><path d="M51.125 66h-12.25a.875.875 0 01-.62-1.495c2.303-2.302 2.333-4.532 2.333-4.626a.883.883 0 01.877-.879H48.5c.481 0 .873.39.875.87.002.11.07 2.338 2.37 4.636a.875.875 0 01-.62 1.495zm-10.376-1.75h8.5c-.98-1.402-1.369-2.69-1.523-3.5H42.25c-.149.814-.527 2.1-1.5 3.5zM65.125 55.5h-40.25a.875.875 0 010-1.75h40.25a.875.875 0 010 1.75zM49.748 45c-1.306 0-2.433-.866-2.681-2.06l-1.03-5.82c-.08-.385-.528-.695-1.037-.695-.51 0-.957.31-1.043.721l-1.02 5.768C42.683 44.134 41.556 45 40.252 45c-1.395 0-2.56-.973-2.714-2.264l-.4-3.35c-.027-.219-.347-1.797-1.168-5.57a26.087 26.087 0 01-.595-5.536c0-2.36 1.92-4.28 4.28-4.28.793 0 1.57.215 2.251.623a6.005 6.005 0 006.188 0 4.383 4.383 0 012.25-.623c2.361 0 4.281 1.92 4.281 4.28 0 1.857-.2 3.72-.595 5.538-1.036 4.758-1.157 5.465-1.167 5.568l-.4 3.351C52.31 44.027 51.144 45 49.749 45zM45 34.675c1.342 0 2.5.889 2.756 2.116l1.03 5.819c.073.353.49.64.962.64.5 0 .929-.317.976-.721l.401-3.35c.016-.129.063-.523 1.195-5.733a24.43 24.43 0 00.555-5.164 2.533 2.533 0 00-2.53-2.532c-.475 0-.942.13-1.35.375a7.747 7.747 0 01-7.988 0 2.633 2.633 0 00-1.351-.375 2.532 2.532 0 00-2.531 2.53c0 1.731.187 3.469.555 5.165.75 3.447 1.153 5.376 1.195 5.733l.399 3.351c.049.404.478.721.978.721.473 0 .89-.287.968-.667l1.02-5.766c.26-1.253 1.418-2.142 2.76-2.142z"/></g><defs><clipPath id="clip0_5_4651"><path fill="#fff" transform="translate(24 24)" d="M0 0h42v42H0z"/></clipPath></defs></svg>