<svg width="35" height="36" fill="none" xmlns="http://www.w3.org/2000/svg"><rect y=".893" width="34.215" height="34.215" rx="17.108" fill="#B50717"/><rect y=".893" width="34.215" height="34.215" rx="17.108" stroke="#B50717"/><path fill-rule="evenodd" clip-rule="evenodd" d="M16.811 22.553c-.657.648-1.307 1.285-1.951 1.927-.226.224-.479.348-.802.33-.22-.011-.344-.11-.411-.323-.493-1.551-.994-3.1-1.485-4.653-.048-.151-.12-.224-.27-.27-1.163-.36-2.323-.729-3.482-1.101a1.968 1.968 0 01-.494-.227c-.26-.174-.296-.45-.06-.651.219-.185.478-.34.744-.447 1.469-.589 2.945-1.158 4.42-1.735l10.636-4.16c.68-.266 1.208.103 1.145.846-.042.49-.168.973-.27 1.456-.785 3.761-1.574 7.522-2.361 11.283l-.004.022c-.193.86-.81 1.096-1.513.571-1.221-.91-2.44-1.825-3.66-2.738-.057-.043-.117-.083-.182-.13zm-2.699 1.185c.02-.088.033-.13.036-.17.078-.847.159-1.692.228-2.539a.63.63 0 01.214-.457c1.85-1.683 3.695-3.373 5.542-5.06.525-.48 1.053-.959 1.573-1.444.054-.051.066-.15.098-.226-.08-.023-.17-.081-.24-.062a1.732 1.732 0 00-.456.197c-2.746 1.75-5.488 3.505-8.233 5.255-.14.089-.18.162-.124.332.435 1.324.857 2.651 1.284 3.977.016.052.04.101.078.197z" fill="#fff"/></svg>