<svg width="35" height="36" fill="none" xmlns="http://www.w3.org/2000/svg"><rect x=".785" y=".893" width="34.215" height="34.215" rx="17.108" fill="#B50717"/><rect x=".785" y=".893" width="34.215" height="34.215" rx="17.108" stroke="#B50717"/><path fill-rule="evenodd" clip-rule="evenodd" d="M15.263 13.37c-.183-.437-.32-.453-.597-.464a5.28 5.28 0 00-.316-.011c-.36 0-.735.105-.962.337-.276.282-.962.94-.962 2.29s.984 2.655 1.117 2.838c.138.182 1.919 2.992 4.684 4.137 2.162.897 2.804.814 3.296.709.719-.155 1.62-.687 1.847-1.328.227-.642.227-1.19.16-1.305-.066-.117-.249-.183-.525-.321-.277-.139-1.62-.802-1.875-.891-.249-.094-.486-.06-.674.205-.266.37-.526.747-.736.973-.166.177-.437.2-.663.105-.305-.127-1.156-.426-2.207-1.36-.813-.725-1.366-1.626-1.526-1.897-.16-.277-.017-.438.11-.587.139-.171.271-.293.41-.453.138-.16.215-.244.304-.432.094-.182.027-.37-.039-.509s-.62-1.488-.846-2.036zm2.627-4.78c-5.187 0-9.407 4.221-9.407 9.41a9.34 9.34 0 001.792 5.515L9.103 27.01l3.616-1.156a9.334 9.334 0 005.176 1.554c5.187 0 9.407-4.22 9.407-9.409 0-5.188-4.22-9.409-9.407-9.409h-.005z" fill="#fff"/></svg>