<?xml version="1.0" encoding="utf-8"?>
<!-- Generator: Adobe Illustrator 19.2.1, SVG Export Plug-In . SVG Version: 6.00 Build 0)  -->
<svg version="1.1" id="Слой_1" xmlns="http://www.w3.org/2000/svg" xmlns:xlink="http://www.w3.org/1999/xlink" x="0px" y="0px"
	 width="115px" height="48px" viewBox="0 0 115 48" enable-background="new 0 0 115 48" xml:space="preserve">
<path fill="#C51468" d="M4.573,32.713c-0.091-0.03-0.091,0.061-0.091,0.121c-0.061-0.03,0-0.151-0.121-0.091
	c0.025-0.008,0.182-0.121,0.182-0.151C4.603,32.622,4.513,32.652,4.573,32.713C4.482,32.682,4.513,32.652,4.573,32.713z
	 M4.27,33.288c0.121,0.061,0.182-0.151,0.061-0.151C4.301,33.167,4.27,33.197,4.27,33.288z M14.022,35.166
	c0.03-0.061,0.061-0.212,0-0.273C14.022,35.014,13.931,35.105,14.022,35.166z M7.42,35.681c0.03,0.061-0.061,0.242,0.061,0.212
	C7.481,35.832,7.511,35.681,7.42,35.681z M12.205,39.375c-0.03,0.03-0.03,0.091-0.03,0.151
	C12.296,39.557,12.235,39.436,12.205,39.375z M4.179,40.223c0.121,0,0.151-0.212,0.121-0.242C4.21,40.011,4.24,40.163,4.179,40.223z
	 M7.723,40.102c-0.121,0.121,0,0.424-0.061,0.545c0,0,0,0,0.03,0.03C7.723,40.435,7.905,40.284,7.723,40.102
	C7.602,40.223,7.905,40.284,7.723,40.102z M7.632,41.283c-0.03,0.061-0.03,0.151,0.03,0.212C7.662,41.465,7.753,41.283,7.632,41.283
	z M3.846,37.256c0,0.047-0.071,0.112-0.075,0.153c0.025-0.045,0.054-0.094,0.081-0.141C3.85,37.264,3.852,37.258,3.846,37.256
	C3.846,37.303,3.852,37.258,3.846,37.256z M3.998,34.712c0.01,0,0.019,0.006,0.028,0.01c0-0.022-0.001-0.044-0.001-0.067
	C4.016,34.674,4.011,34.691,3.998,34.712C4.008,34.712,4.011,34.691,3.998,34.712z M7.814,39.285
	c0.032-0.021,0.016-0.401-0.03-0.424c0.03,0.212-0.061,0.273-0.061,0.394c0.061,0,0.091,0.03,0.091,0.061
	c-0.091,0.061-0.061,0.242-0.061,0.333c0.023-0.046,0.047-0.005,0.083,0.004c-0.007-0.123-0.008-0.24-0.011-0.36
	C7.821,39.29,7.819,39.286,7.814,39.285C7.82,39.281,7.819,39.286,7.814,39.285z M5.4,31.715c0.005-0.013,0.009-0.029,0.014-0.042
	c-0.007,0.004-0.012,0.01-0.024,0.01C5.391,31.698,5.396,31.705,5.4,31.715C5.405,31.701,5.396,31.705,5.4,31.715z M4.846,31.289
	c0.029,0.058-0.048,0.114-0.004,0.146c0.015-0.043,0.031-0.087,0.046-0.131C4.878,31.297,4.869,31.289,4.846,31.289
	C4.874,31.347,4.869,31.289,4.846,31.289z M14.537,41.132c-0.091,0.242,0,0.818-0.061,1.121c-0.03-0.03-0.061-0.03-0.091-0.03
	c0.03,0.273,0.03,0.545-0.061,0.757c-0.359-0.067-1.124-0.057-1.363,0.182c-0.333-0.121-0.787,0.03-0.999-0.212
	c0-0.091,0.091-0.061,0.03-0.151c0.03,0,0.091,0,0.121,0c-0.061-0.091-0.151-0.182-0.182-0.333c0.061,0.03,0.061,0,0.121,0
	c0-0.424-0.03-1.09,0.151-1.333c0.03-0.061-0.091-0.03-0.121-0.03c0.069-0.312,0.017-1.242,0.363-1.242
	c-0.061-0.091-0.242-0.091-0.151-0.242c0.061,0.03,0.03,0.121,0.091,0.121c0.212-0.212,0.151-0.545,0.273-0.848
	c0.061,0.03,0,0.151,0.03,0.212c0.061-0.091,0.151-0.121,0.182-0.242c0.061,0.03,0.061,0.091,0.121,0.091
	c-0.03,0.121-0.182,0.121-0.182,0.273c0.03-0.03,0.061-0.061,0.061-0.091c0.061,0.03-0.03,0.061,0,0.121
	c0.015,0,0.017-0.006,0.029-0.007c-0.004,0.156-0.017,0.383,0.092,0.491c0-0.218-0.094-0.509,0-0.697
	c0.091-0.03,0.061,0.061,0.151,0.121c0.108-0.541,0.066-1.101,0.069-1.649c0.002-0.355,0.261-1.202,0.082-1.47
	c-0.091,0-0.121,0.03-0.121,0.121c0.03,0.03,0.061,0.03,0.091,0.03c-0.061,0.091-0.121,0.03-0.182,0.091c-0.03,0,0,0.091-0.03,0.151
	c0.03,0.061,0.061-0.03,0.151,0c-0.03,0.061-0.091,0.061-0.182,0.061c0.061,0.091-0.151,0.273-0.121,0.454
	c0.209,0.209,0.01,0.655-0.151,0.848c-0.066-0.398,0.03-0.777,0.03-1.121c-0.091-0.03,0-0.03-0.091-0.061
	c0.03-0.03,0.03-0.061,0.091-0.061c-0.116-0.755,0.002-1.492-0.002-2.239c-0.001-0.118-0.179-1.207-0.046-1.247
	c-0.029,0.026-0.064,0.037-0.103,0.034c0.03-0.363-0.061-0.727,0.061-1.03c-0.061-0.03-0.091-0.03-0.091,0.03
	c-0.03-0.091,0.151-0.182,0.091-0.394c-0.03,0.03,0,0.151-0.121,0.121c-0.176-0.615-0.118-1.272-0.291-1.891
	c-0.063-0.225-0.243-1.034-0.466-1.168c-0.509,0.06-0.776,0.436-1.075,0.757c-0.145,0.156-0.676,0.623-0.591,0.878
	c-0.03-0.03-0.061-0.03-0.091-0.03c0.061,0.151,0.03,0.121-0.121,0.182c0.076,0.076-0.459,1.184-0.528,1.398
	c-0.081,0.25-0.41,1.249-0.259,1.449c-0.061,0.03-0.03,0.091-0.121,0.061c0.121,0.303-0.121,0.697-0.121,1.03
	c-0.03,0-0.061,0-0.091,0c0.049,0.39-0.053,0.774-0.045,1.163c0.009,0.391,0.119,0.779,0.166,1.169
	c0.083,0.696,0.216,1.368,0.257,2.072c0.038,0.649,0.073,1.293,0.091,1.93c0.022,0.794,0.247,1.557,0.167,2.357
	c-0.424,0.121-1.211,0.151-1.666,0.151c-0.071-0.338-0.02-0.664,0.006-1.003c0.008-0.098,0.102-0.442,0.085-0.512
	c-0.03-0.03-0.061,0-0.061,0.03c-0.007-0.151,0.016-0.296,0.07-0.437c0.092-0.131,0.075-0.236-0.051-0.316
	c-0.014-0.13-0.043-0.283-0.08-0.428c0.018,0.032,0.043,0.056,0.074,0.074c-0.026,0.009,0.165-0.093,0.138-0.013
	c0.03,0-0.03,0.121-0.091,0.121c0.18,0.18,0.09,0.443,0.242,0.697c-0.061-0.515,0.03-1.151-0.091-1.787
	c-0.091,0.03-0.03,0.182-0.182,0.121c-0.007-0.083-0.003-0.157-0.007-0.238c0.011,0.003,0.024,0.003,0.038-0.004
	c0-0.248,0.03-0.399,0.03-0.666c-0.207-0.104-0.071-0.965-0.061-1.181c0-0.091-0.151,0-0.121-0.091c0.03,0,0.03,0.03,0.061,0.03
	c0-0.303,0-0.515-0.091-0.878c0-0.121,0.061,0,0.091-0.061c-0.069-0.103-0.07-0.428-0.061-0.424c-0.121,0,0.091,0.151-0.061,0.121
	c0-0.089-0.06-0.207-0.062-0.394c-0.001-0.108,0.1-0.439,0.032-0.575c-0.061,0-0.061,0.061-0.061,0.091
	c-0.061-0.212,0.242-0.454,0.091-0.666c-0.061,0.03,0.03,0.212-0.121,0.212c-0.159-0.529-0.077-1.349-0.061-1.908
	c0.012-0.39,0.072-0.905,0.144-1.337c0.151-0.908,0.318-2.417-0.386-3.176c-0.273-0.091-0.454,0.061-0.575,0.182
	c-0.424,0.757-0.485,2.059-0.939,2.938c0.03,0.061,0.091,0.061,0.151,0.061c-0.091,0.03-0.061,0.061,0,0.121
	c0,0.03-0.061,0.03-0.091,0.03c0.049,0.049,0.078,0.394-0.061,0.394c0,0.127,0.061,0.006,0.061,0.061
	c0,0.118-0.091,0.008-0.091,0.061c0.121,0.03-0.061,0.242,0.061,0.303c0,0.091-0.151,0-0.121,0.061
	c-0.03,0.121,0.121,0.03,0.121,0.091c0.015,0.046-0.121,0.218-0.121,0.303c0.121,0.03,0.03-0.091,0.091-0.121
	c0.091,0,0.03,0.061,0.03,0.151c-0.061-0.03-0.091,0.03-0.151,0.03c0.03,0.121,0.091,0.182-0.03,0.273
	c0.061,0.061,0.121-0.091,0.151-0.121c-0.052,0.544-0.067,1.258-0.201,1.872c0.016,0.005,0.033,0.006,0.049,0.006
	c0,0.061,0,0.121-0.061,0.121c-0.03-0.03,0-0.03,0.03-0.03c-0.01-0.019-0.022-0.029-0.033-0.036
	c-0.048,0.207-0.166,1.756,0.003,1.732c-0.165,0.165-0.043,0.851-0.048,1.054c-0.014,0.587-0.042,1.192-0.088,1.792
	c-0.049,0.64-0.083,1.309-0.075,1.951c0.003,0.231,0.08,0.424,0.104,0.644c0.023,0.221-0.097,0.501,0.078,0.676
	C5.444,43.495,5.3,43.611,5.3,43.737c-0.196-0.122-0.73-0.101-0.947-0.072c-0.208,0.028-0.61,0.263-0.658-0.171
	c0-0.351-0.003-0.697,0.004-1.047c0.003-0.182,0.094-0.433,0.057-0.619c-0.028,0.023-0.038,0.054-0.03,0.091
	c0-0.357,0.004-0.742,0.091-1.09c0-0.03-0.061-0.03-0.091-0.03c0.131-0.526,0.073-1.142,0.085-1.683
	c0.006-0.258-0.012-0.536-0.001-0.806c0.009-0.206-0.113-0.763-0.037-0.901c-0.001,0.011,0.001,0.022,0.014,0.028
	c0-0.04,0.069-0.168,0.091-0.212c-0.03-0.03-0.03,0-0.091,0c0.039-0.04-0.016-0.22,0.121-0.151c0-0.061-0.03-0.061-0.061-0.061
	c0-0.061,0.061-0.061,0.121-0.061c0-0.121-0.061-0.151-0.091-0.212c-0.006,0.084-0.045,0.137-0.119,0.159
	c-0.05-0.021,0.089-0.388,0.119-0.462c-0.03-0.03-0.03,0-0.091,0c0-0.061,0.03-0.091,0.091-0.091
	c-0.121-0.061,0.061-0.182-0.061-0.273c0.151-0.301,0.168-0.719,0.242-1.09c-0.03-0.03-0.091-0.03-0.121-0.03
	c0-0.061,0.061-0.061,0.091-0.061c-0.007-0.054-0.001-0.114-0.002-0.171c0.018,0.009,0.032,0.02,0.032,0.02
	c0.03-0.061,0.03-0.151,0.061-0.212c-0.047,0-0.063,0.058-0.094,0.125c0.01-0.414,0.149-0.891,0.275-1.246
	c0.091,0.03-0.03,0.151,0,0.212c0.061,0.061,0.151-0.03,0.182,0.061c0.06-0.181,0.169-0.362,0.33-0.481
	c-0.088,0.009-0.114,0.037-0.239,0.087c0.151-0.333,0.303-0.606,0.333-1.03c-0.091-0.03-0.03,0.121-0.091,0.121
	c-0.091-0.091,0.151-0.273,0.121-0.485c-0.03,0-0.03,0.03-0.03,0.061c-0.03,0-0.03-0.061-0.03-0.091
	c-0.091-0.03-0.061,0.121-0.091,0.03c-0.03,0,0,0.121,0.061,0.091c-0.121,0.182-0.151,0.363-0.212,0.575
	c-0.121-0.091,0.061-0.273-0.091-0.273c0-0.039,0.126-0.363,0.212-0.363c0-0.03-0.061-0.03-0.091-0.03
	c0.03-0.03,0.061-0.091,0.061-0.151c0.061,0.03,0.091,0,0.121-0.03c0-0.121-0.03,0-0.091-0.03c0.025-0.078,0.059-0.166,0.087-0.248
	c0.002,0.002,0.001,0.004,0.004,0.005c0.23-0.23,0.383-1.041,0.527-1.365c0.208-0.467,0.462-1.219,0.883-1.515
	c0.658-0.462,1.285,0.177,1.542,0.753c0.315,0.706,0.375,1.526,0.436,2.286c0.078,0.968,0.216,1.995,0.216,2.96
	c0.211-0.506,0.26-1.178,0.391-1.716c0.149-0.612,0.334-1.218,0.578-1.799c0.436-1.04,1.124-2.194,2.272-2.542
	c0.978-0.391,1.41,1.093,1.575,1.817c-0.061,0-0.091,0-0.091,0.061c0.03,0.091,0.061-0.091,0.121,0
	c0.043,0.121,0.045,0.243,0.007,0.366c-0.062,0.145-0.026,0.244,0.107,0.297c0.013,0.231-0.024,0.406-0.053,0.64
	c0.091,0.091,0.061-0.121,0.182-0.121c0.091,0.363,0.061,0.757,0.121,1.272c0.061,0,0.091-0.03,0.091-0.091
	c0.046,0.3,0.022,0.944-0.03,1.242c-0.018,0.1-0.199,0.141-0.212,0.212c-0.029,0.159,0.03,0.382,0.03,0.545
	c0.182-0.121,0.061-0.273,0.212-0.424c0.03,0.303,0.121,0.606,0.121,1.03c-0.091-0.061-0.03,0.061-0.121,0.03
	c0.151,0.212,0.091,0.636,0.182,0.787c0.121-0.242,0.03-0.636,0.121-0.818c0.091,0.091,0.061,0.03,0.151,0.061
	c-0.059,0.117-0.051,0.287-0.062,0.42c-0.022,0.254-0.042,0.361-0.107,0.499c-0.155,0.329-0.192,0.519-0.133,0.929
	c0.151-0.303,0.212-0.424,0.333-0.697c0.174,0.522-0.114,1.069-0.363,1.514c-0.117,0.209-0.232,0.593-0.394,0.787
	c0.061,0.091,0.061-0.091,0.121-0.061c-0.061,0.242,0.121,0.606,0.121,0.878c0.104-0.035,0.323-0.988,0.363-1.151
	c-0.03-0.03-0.061-0.061-0.061-0.03c-0.061-0.061,0.061-0.03,0.091-0.061c-0.03-0.061-0.061-0.061-0.121-0.061
	c0.182-0.151,0-0.454,0.273-0.515c0.03,0.394-0.212,0.727-0.03,1.242c-0.03,0.061-0.061,0.061-0.121,0.061
	c0.121,0.273,0.061,0.454,0.121,0.757c0.061,0.061,0.091-0.03,0.121,0.061C14.264,40.102,14.507,40.89,14.537,41.132
	C14.446,41.374,14.507,40.89,14.537,41.132z M4.301,34.469c0.061-0.03,0.151-0.03,0.121-0.121
	C4.331,34.318,4.301,34.378,4.301,34.469z M4.028,35.711c0.151-0.03,0.182-0.242,0.121-0.333C4.06,35.467,4.092,35.647,4.028,35.711
	C4.179,35.681,4.089,35.65,4.028,35.711z M3.998,36.741c0-0.061,0-0.212-0.061-0.121c0.015,0.039-0.006,0.06-0.061,0.061
	C3.91,36.713,3.95,36.733,3.998,36.741C3.998,36.68,3.907,36.741,3.998,36.741z M5.088,33.137c-0.06-0.423,0.06-0.726,0.151-1.148
	c-0.155,0.394-0.294,0.819-0.363,1.209c-0.026,0-0.044,0.002-0.062,0.004c-0.052,0.195-0.075,0.712-0.24,0.844
	c0,0.408-0.16,0.817-0.246,1.263c-0.082,0.424-0.329,0.649-0.329,1.1c0.121-0.091,0.061-0.333,0.242-0.363
	c-0.06,0.301-0.05,0.639-0.067,0.945c-0.015,0.271-0.143,0.695-0.054,0.963c0,0.091-0.061,0.03-0.121,0.03
	c0.038,0.038,0.106,0.137,0.151,0.182c-0.151,0.909,0,1.726-0.091,2.817c0.056,0.056,0.182,0.324,0.182,0.545
	c0.203-0.65,0.13-1.352,0.181-2.02c0.031-0.402,0.116-0.788,0.105-1.198c-0.005-0.189-0.111-0.539-0.044-0.719
	c0.028-0.073,0.146-0.052,0.121-0.151c-0.03-0.061-0.061-0.061-0.091-0.121c-0.121,0-0.03,0.151-0.121,0.182
	c0.083-0.456,0.16-0.918,0.172-1.382c0.005-0.197-0.025-0.395-0.023-0.59c-0.01-0.111-0.029-0.221-0.058-0.329
	c0.058-0.076,0.108-0.158,0.149-0.245c0.079-0.374,0.241-0.789,0.275-1.179C4.917,33.653,4.741,33.137,5.088,33.137
	C5.028,32.714,4.906,33.137,5.088,33.137z M5.573,31.592c-0.03,0-0.061,0-0.061-0.03c-0.079,0-0.049,0.087-0.098,0.111
	c0.037-0.09,0.078-0.176,0.098-0.293c-0.091,0.03-0.091,0.151-0.182,0.212c0,0.03,0.03,0.03,0.061,0.03
	c-0.051,0.116-0.102,0.239-0.151,0.363C5.482,32.076,5.542,31.804,5.573,31.592C5.542,31.592,5.542,31.804,5.573,31.592z
	 M7.753,35.59c-0.061,0.061,0.03,0.212-0.061,0.363C7.814,35.953,7.814,35.681,7.753,35.59z M7.814,36.135
	c0,0.061-0.091,0.03-0.091,0.061c0.03,0.151,0.061,0.212,0.03,0.333C7.905,36.498,7.814,36.196,7.814,36.135z M7.874,38.497
	c-0.018,0.071-0.076,0.424,0.03,0.424C7.874,38.739,7.965,38.649,7.874,38.497C7.844,38.618,7.965,38.649,7.874,38.497z
	 M7.995,38.013c-0.091-0.091-0.061-0.182-0.121-0.242c0.013,0.117-0.067,0.606,0.03,0.606c-0.03-0.061-0.03,0.061-0.061,0.121
	C8.086,38.528,7.874,38.134,7.995,38.013C7.905,37.922,7.874,38.134,7.995,38.013z M8.571,39.86c-0.061,0-0.061-0.03-0.121-0.03
	c0.061,0.091-0.03,0.182,0.061,0.212C8.54,40.011,8.571,39.921,8.571,39.86C8.51,39.86,8.571,39.921,8.571,39.86z M12.932,35.196
	c-0.182,0.03-0.121,0.273-0.121,0.454C12.992,35.469,12.811,35.378,12.932,35.196z M13.719,37.801c0.03,0,0.151-0.182,0.03-0.182
	C13.75,37.649,13.659,37.77,13.719,37.801z M13.477,37.558c0.121-0.091,0.121-0.303,0.182-0.454
	c-0.121-0.03-0.091,0.091-0.182,0.091C13.477,37.407,13.507,37.377,13.477,37.558C13.598,37.467,13.507,37.377,13.477,37.558z
	 M13.477,36.165c0.091,0.03,0.121-0.212,0.03-0.212C13.477,36.074,13.477,36.044,13.477,36.165z M13.416,36.468
	c-0.091,0.121,0.061,0.03,0,0.151c0.061,0,0.061-0.03,0.091-0.03C13.507,36.529,13.477,36.468,13.416,36.468
	C13.326,36.589,13.477,36.468,13.416,36.468z M13.326,36.438c0.061,0,0.091,0,0.121,0c0-0.091-0.061-0.091-0.091-0.121
	C13.356,36.347,13.326,36.347,13.326,36.438C13.386,36.438,13.326,36.347,13.326,36.438z M13.507,37.982
	c-0.03-0.121,0.03-0.303-0.03-0.394c-0.121,0.061,0.061,0.333-0.091,0.303C13.477,37.861,13.416,38.013,13.507,37.982
	C13.477,37.861,13.416,38.013,13.507,37.982z M5.512,31.774c-0.025-0.025-0.09-0.012-0.112-0.059
	c-0.014,0.039-0.032,0.072-0.04,0.12C5.451,31.804,5.482,31.865,5.512,31.774C5.487,31.749,5.482,31.865,5.512,31.774z
	 M12.902,39.194c0,0.015-0.001,0.036-0.001,0.054c0.014-0.002,0.025-0.005,0.036-0.008C12.924,39.224,12.918,39.207,12.902,39.194
	C12.902,39.209,12.918,39.207,12.902,39.194z M14.234,37.831c0-0.03,0-0.061-0.03-0.091C14.143,37.77,14.204,37.831,14.234,37.831z
	 M7.541,37.589c0.061-0.061,0.091-0.394-0.03-0.454C7.541,37.286,7.571,37.407,7.541,37.589z M4.755,32.41
	c-0.121,0.061-0.091,0.273-0.151,0.363C4.694,32.682,4.725,32.531,4.755,32.41z M4.422,32.864c-0.03,0.151-0.182,0.212-0.121,0.273
	c0.151-0.03,0.121-0.121,0.212-0.242C4.482,32.894,4.452,32.894,4.422,32.864C4.391,33.016,4.452,32.894,4.422,32.864z M46.276,34.5
	c0.03,0.061-0.061,0.121,0,0.151c0-0.03,0.061-0.03,0.061,0c-0.03,0.061-0.091,0.121-0.03,0.212
	C46.397,34.742,46.428,34.59,46.276,34.5C46.306,34.56,46.428,34.59,46.276,34.5z M46.185,36.771
	c-0.182,0.03-0.303-0.091-0.515-0.061C45.761,36.832,46.155,36.862,46.185,36.771z M46.306,34.954
	c0.03,0.061,0.03,0.151,0.061,0.182c0-0.091,0.03-0.242,0-0.242C46.397,34.954,46.306,34.954,46.306,34.954z M46.276,33.894
	c0.03,0,0.061-0.03,0.03-0.061c-0.061,0.091-0.061,0.091-0.061,0.182C46.306,34.015,46.276,33.954,46.276,33.894
	C46.306,33.894,46.276,33.954,46.276,33.894z M48.638,40.92c-0.061,0.121-0.03,0.394-0.03,0.545c-0.061,0.03-0.091,0.03-0.151,0.061
	c0,0.091-0.03,0.151-0.061,0.212c-0.091-0.03-0.121,0-0.212,0.03c0,0.121-0.212,0.182-0.182,0.333c-0.322,0-0.292,0.845-0.878,0.485
	c0.03-0.182-0.182-0.363-0.212-0.636c0-0.061,0.061-0.061,0.061-0.061c0-0.394-0.121-0.757-0.182-1.03c0.03,0,0.03,0.03,0.03,0.061
	c0.091-0.515-0.121-1.545-0.182-2.211c0.03,0,0.03,0.03,0.03,0.061c0.086-0.518,0.088-1.477-0.091-1.969
	c-0.121,0-0.182-0.03-0.273-0.03c0.03-0.03,0.061-0.03,0.061-0.061c-0.273-0.03-0.545-0.061-0.818-0.091
	c0,0.061,0.03,0.061,0.061,0.061c0,0.09-1.467-0.457-1.605-0.485c0.03-0.061,0.121,0,0.151,0.03c0.03-0.121-0.242-0.151-0.394-0.212
	c0.061,0.03,0.121,0.121,0.212,0.151c-0.151,0.03-0.273-0.121-0.454-0.151c-0.257,0.386-0.129,1.049-0.151,1.495
	c-0.027,0.544-0.081,1.071-0.092,1.617c-0.014,0.642-0.062,1.288-0.018,1.93c0.029,0.414,0.298,1.1-0.041,1.439
	c-0.061-0.091-0.151-0.03-0.242-0.061c0.07-0.348-0.228-0.99-0.28-1.365c-0.085-0.617-0.12-1.241-0.119-1.863
	c0-1.17,0.127-2.336,0.278-3.495c-0.304-0.111-1.171,0.039-1.997,0.314c0.077,0.251,0.043,0.443,0.074,0.694
	c0.016,0.133,0.099,0.392,0.076,0.507c0.091-0.242-0.03-0.485,0-0.727c0.014,0,0.182,0.6,0.182,0.606
	c0.03,0.121-0.091,0.121-0.03,0.333c-0.061,0-0.091-0.03-0.091-0.091c-0.03,0.242,0.03,0.273,0,0.606
	c0.151,0,0.091-0.242,0.212-0.273c-0.03,0.212-0.182,0.515-0.061,0.727c0.121-0.03,0.061-0.242,0.121-0.303
	c0.061,0.061,0.061,0.151,0.061,0.212c0.091-0.061,0.091-0.212,0.091-0.363c0.175,0.279-0.035,0.638-0.063,0.908
	c-0.04,0.377-0.044,0.746-0.104,1.124c-0.136,0.861-0.355,1.504-0.893,2.208c0,0.03,0.03,0.03,0.03,0
	c-0.031,0.5-0.599,0.847-0.869,1.119c-0.26,0.262-0.494,0.532-0.79,0.771c-0.797,0.647-1.829,0.926-2.611,1.562
	c0.03-0.03,0.03-0.061,0-0.061c-0.081,0.121-0.602,0.16-0.666,0.182c-0.121,0.091-0.091,0.303-0.303,0.303
	c0.03-0.182-0.151-0.151-0.151-0.273c-0.151,0-0.03,0.121-0.273,0.061c0.091,0.061,0.091,0.091,0.182,0.182
	c-0.091,0.061-0.03,0.091-0.03,0.212c-0.091,0-0.061-0.121-0.091-0.151c-0.061,0-0.061,0.03-0.121,0.03
	c-0.03,0.061,0.061,0.121,0,0.212c-0.091,0,0.03-0.151-0.061-0.151c-0.061,0.061,0.03,0.151-0.03,0.242
	c-0.212,0.061-0.394,0.363-0.636,0.242c0,0.024,0.007,0.039,0.015,0.053c-0.103-0.091-0.129-0.36-0.287-0.386
	c0.061,0.121,0,0.212,0.121,0.273c-0.242,0-0.242-0.454-0.151-0.666c0.061,0.091,0,0.151,0.03,0.303
	c0.17-0.085,0.088-0.937,0.03-1.06c0-0.188,0.064-0.508,0.151-0.727c-0.107,0.149-0.019-0.389-0.03-0.454
	c0.097,0.081,0.117,0.049,0.132-0.007c-0.009-0.024-0.023-0.043-0.102-0.023c0.242-0.515,0-0.999,0.242-1.423
	c0.091,0.151-0.03,0.363-0.03,0.454c0.061,0,0.061-0.061,0.061-0.091c0.061,0.03,0,0.151,0.03,0.212c-0.03,0-0.03-0.061-0.061-0.061
	c0.001-0.009-0.041,0.281-0.03,0.303c0.182-0.151,0.151-0.515,0.212-0.787c0.069,0.758-0.142,1.533,0,2.241
	c0.151-0.636,0.121-1.121,0.242-1.696c0.03,0,0.03,0.061,0.03,0.091c0.03,0,0.03-0.03,0.061-0.061
	c-0.085,0.255-0.3,1.696,0.121,1.696c0.141-0.264-0.01-0.253,0.091-0.454c0.028,0-0.018,0.102-0.003,0.189
	c0.126-0.489,0.104-1.021,0.198-1.52c0.045-0.241,0.062-0.411,0.059-0.656c0-0.038-0.028-0.557-0.072-0.587
	c-0.061,0.061-0.061,0.182-0.121,0.242c-0.131,0,0.166-1.335,0.151-1.514c-0.061,0.03-0.091,0.061-0.121,0.061
	c0,0.091,0.091,0.182,0.03,0.242c-0.03,0-0.03-0.03,0-0.03c0.03-0.091-0.091-0.03-0.061,0.03c-0.061,0-0.061-0.151-0.121-0.061
	c0.03-0.212,0.091-0.666,0.061-1.03c-0.121,0.545-0.151,1.09-0.212,1.575c-0.121-0.818,0.061-1.151,0.061-1.938
	c0.061,0,0,0.121,0.03,0.182c0.091-0.061,0-0.212,0.121-0.212c0,0.091,0,0.151,0,0.212c0.05-0.263,0.06-0.54,0.059-0.808
	c-0.038,0.189-0.066,0.377-0.089,0.566c-0.03-0.091-0.03-0.273,0-0.454c-0.061,0-0.061,0.03-0.061,0.061
	c-0.091-0.121,0.03-0.242,0.121-0.303c0,0.091-0.061,0.091-0.03,0.182c0.162-0.054,0.03-0.925,0.03-1.06
	c-0.242,0.061-0.151,0.091-0.303,0.182c0.03-0.454-0.061-0.697-0.03-1.151c-0.03-0.03-0.03,0-0.091,0
	c0.09-0.39-0.199-0.9-0.121-1.211c-0.123,0.123-0.143,0.692-0.121,0.848c0.021-0.063-0.121-0.636-0.121-0.787
	c-0.061,0.03,0,0.151-0.03,0.212c-0.03-0.03-0.061-0.03-0.061,0.03c-0.028-0.023-0.038-0.054-0.03-0.091
	c-0.052,0.105-0.072,0.216-0.061,0.333c-0.308,0-0.056-0.542-0.034-0.655c0.085-0.426-0.063-0.853-0.027-1.283
	c0-0.03-0.061-0.03-0.091-0.03c-0.03-0.424,0-1.181-0.182-1.605c0-0.03-0.03-0.03-0.03,0c-0.061-0.03,0-0.151-0.03-0.242
	c-0.153-0.049-0.295-0.029-0.426,0.061c-0.081,0.131-0.185,0.158-0.314,0.082c-0.156,0.075-0.262,0.207-0.411,0.281
	c-0.061,0-0.061-0.061-0.061-0.121c-0.212,0.091-0.212-0.182-0.424-0.091c0.091-0.121-0.091-0.121-0.091-0.303
	c0.358-0.089,0.893-0.515,1.115-0.631c0.142-0.075,0.425-0.14,0.578-0.171c0.332-0.068,0.745-0.184,1.098-0.186
	c0.465-0.003,0.491,0.01,0.854,0.222c0.199,0.116,0.781,0.227,0.958,0.404c0.033-0.04,0.023-0.07-0.03-0.091
	c0.205,0,0.131,0.154,0.242,0.212c0.184,0.096,0.438,0.188,0.636,0.273c0.061,0,0.061-0.061,0.061-0.091
	c0.158,0.158,0.624,0.666,0.878,0.666c0,0.091,0.03,0.121,0.061,0.182c0.091-0.151,0.121,0.151,0.212,0
	c0.641,0.641,1.725,1.523,1.787,2.514c0.061-0.061,0.03-0.212,0.151-0.182c0.038,0.068,0.062,0.136,0.08,0.204
	c0.943-0.454,2.002-0.796,2.495-0.84c0.284-1.355,0.405-2.769,0.939-4.058c0.337-0.813,0.914-2.684,2.029-2.605
	c1.031,0,1.254,1.752,1.419,2.463c0.129,0.552,0.162,1.137,0.313,1.682c0.087,0.313,0.24,0.733,0.145,1.064
	c0.03,0.03,0.061,0.03,0.061-0.03c0.046,0.023,0.182,1.526,0.182,1.757c-0.03,0-0.03-0.03-0.061-0.03
	c0.03,0.151,0.121,0.242,0.03,0.333c0.03,0.03,0.03,0,0.091,0c-0.007,0.079-0.024,0.818,0.091,0.818c0,0.061-0.061-0.03-0.061,0.061
	c0.03,0.061,0.061,0.091,0.121,0.121c0,0.03-0.061,0.03-0.061,0.091c0.151,0.061,0.091-0.091,0.182-0.091
	c-0.061,0.03,0.03,0.121-0.03,0.182c-0.03-0.03,0-0.091-0.061-0.03c0,0.061,0.03,0.061,0.061,0.061
	c-0.182,0.212-0.061,0.303-0.121,0.545c0.061-0.03,0.121,0.091,0.151,0.061c0.03,0.273-0.151,0.636-0.061,0.969
	c-0.03,0-0.03-0.03-0.03-0.061c-0.061,0.182,0.151,0.424-0.061,0.606c0,0.03,0.03,0.03,0.061,0.03
	c-0.219,0.109,0.319,0.939,0.03,0.939c-0.03,0.091,0.091,0.03,0.091,0.091c0.03,0.091-0.061,0.061-0.091,0.061
	c0,0.091,0.03,0.091,0.03,0.151c0.091,0-0.03-0.151,0.061-0.121c-0.045,0.204,0.008,0.408-0.052,0.609
	c-0.057,0.195-0.22,0.212-0.16,0.451c0.091,0,0.182-0.03,0.182-0.121c0.03-0.061-0.03-0.03-0.061-0.061
	c0.061,0.03,0.091-0.121,0.061-0.151c0.139-0.046,0.065,0.324,0.061,0.333C48.613,40.779,48.518,40.896,48.638,40.92
	C48.578,41.041,48.487,40.89,48.638,40.92z M34.192,35.136c-0.091-0.03,0.03-0.394-0.061-0.333c0,0.151-0.03,0.03-0.061,0
	c0,0.01-0.014,0.27,0.061,0.121C34.132,34.915,34.108,35.248,34.192,35.136C34.101,35.105,34.101,35.257,34.192,35.136z
	 M34.041,44.221c0.03,0.121-0.061,0.121-0.061,0.212C34.041,44.463,34.132,44.221,34.041,44.221z M34.101,43.858
	c-0.054-0.162,0.01-0.35,0.025-0.56c-0.046,0.23-0.104,0.457-0.09,0.652C34.048,43.913,34.063,43.877,34.101,43.858
	C34.047,43.696,34.063,43.877,34.101,43.858z M41.128,39.073c0-0.091,0.121-0.212,0-0.242
	C41.158,38.921,41.067,39.012,41.128,39.073z M40.552,37.831c-0.03,0.121-0.03,0.242,0,0.333
	C40.582,38.104,40.613,37.891,40.552,37.831z M40.249,37.589c-0.061,0.121-0.091,0.273,0.03,0.394
	C40.189,37.831,40.37,37.74,40.249,37.589z M39.462,35.953c-0.025,0.076,0.004,0.119,0,0.198c0.053-0.037,0.108-0.074,0.165-0.111
	c-0.002-0.048,0.039-0.096-0.043-0.117c0.013,0.048,0.003,0.089-0.03,0.121C39.522,36.014,39.492,35.984,39.462,35.953
	C39.437,36.029,39.522,35.953,39.462,35.953z M39.189,35.438c0,0.121,0.03,0.182,0.091,0.242c0-0.03,0.03-0.03,0.061-0.03
	C39.341,35.56,39.28,35.469,39.189,35.438C39.189,35.56,39.28,35.469,39.189,35.438z M36.979,33.561
	c0.196,0.065,0.288,0.235,0.485,0.333c-0.091-0.182-0.303-0.242-0.394-0.424C37.069,33.53,36.948,33.47,36.979,33.561
	C37.069,33.591,36.948,33.47,36.979,33.561z M36.645,33.228c0.03,0.151,0.212,0.212,0.333,0.303
	C37.009,33.379,36.766,33.288,36.645,33.228z M35.676,36.589c-0.03,0-0.03,0.03-0.091,0.03c0,0.151,0.061,0.273,0.151,0.424
	c0.058-0.088,0.044-0.702-0.03-0.757C35.707,36.317,35.585,36.589,35.676,36.589z M35.676,41.314
	c-0.034,0.101,0.026,0.417,0.03,0.394C35.676,41.526,35.767,41.405,35.676,41.314C35.646,41.405,35.767,41.405,35.676,41.314z
	 M35.676,44.039c-0.03,0.03,0,0.151,0.03,0.182C35.707,44.161,35.767,44.07,35.676,44.039z M35.676,41.98
	c-0.077,0.537-0.09,1.217,0,1.757C35.676,43.377,35.976,42.467,35.676,41.98C35.646,42.192,35.918,42.374,35.676,41.98z
	 M35.737,40.133c-0.061,0.394-0.061,0.787-0.03,1.03C35.737,40.89,35.949,40.375,35.737,40.133z M35.858,37.801
	c-0.03,0-0.061,0-0.091,0c-0.03,0.666,0.03,1.333,0.03,1.938C35.949,39.042,35.737,38.346,35.858,37.801
	C35.828,37.801,35.737,38.346,35.858,37.801z M40.249,38.255c0,0.121,0,0.242-0.091,0.242c-0.091-0.424,0.091-0.697-0.151-0.999
	c-0.03,0.091,0.061,0.182,0,0.212c-0.03-0.061-0.03-0.182-0.091-0.242c-0.03,0.061,0.03,0.151-0.03,0.151
	c0-0.242,0-0.454-0.121-0.545c0,0.03,0,0.091-0.03,0.091c-0.033-0.166-0.082-0.376-0.117-0.582
	c-0.371,0.235-0.597,0.491-0.519,0.734c-0.151,0-0.273-0.061-0.363-0.121c-0.088-0.323,0.221-0.686,0.712-1.034
	c-0.038-0.09-0.113-0.201-0.167-0.147c0.03,0,0.03,0.061,0,0.061c-0.061-0.121-0.03-0.03-0.091,0.03
	c-0.121-0.515-0.394-0.878-0.697-1.211c0.007,0.04-0.012,0.363,0,0.363c-0.043-0.13-0.187-0.215-0.218-0.296
	c-0.056-0.146,0.064-0.422-0.146-0.491c-0.03,0.091,0.121,0.121,0.03,0.151c-0.121-0.212-0.151-0.485-0.454-0.515
	c0-0.03,0.03-0.03,0.03-0.091c-0.212,0.03,0.03,0.151,0.03,0.273c-0.515-0.545-1.181-1.06-1.908-1.393
	c-0.03,0.485-0.121,1.211-0.061,1.575c0-0.03,0-0.091,0.03-0.091c0.233,1.868,0.333,3.697,0.333,5.578c0,0.876,0.009,1.753,0,2.629
	c-0.003,0.28-0.216,2.118-0.03,2.211c0-0.03,0-0.03,0-0.061c0.03,0,0.091-0.03,0.091-0.03c0,0.061,0.03,0.061,0,0.091
	c0.636-0.242,1.151-0.606,1.605-0.999c-0.03,0-0.061,0-0.061-0.061c0.182,0,0.151-0.182,0.303-0.212c0,0.03-0.03,0.061,0,0.061
	c0.091-0.121,0.121-0.182,0.333-0.242c-0.03,0-0.061-0.03-0.061-0.061c0.21,0.12,1.11-1.211,1.204-1.407
	c-0.011,0.011-0.025,0.011-0.053-0.017c0.121-0.151,0.121-0.424,0.273-0.545c-0.03,0.03-0.061,0.151,0,0.151
	c0.091-0.091,0.151-0.212,0.182-0.333c-0.091,0.03-0.091,0.151-0.182,0.182c0-0.185,0.129-0.116,0.182-0.212
	c0.094-0.17,0.147-0.399,0.195-0.588c0.08-0.317,0.053-0.623,0.108-0.926C40.337,39.101,40.365,38.776,40.249,38.255
	C40.249,38.376,40.31,38.528,40.249,38.255z M40.431,37.286c0,0.061,0,0.151,0.061,0.182C40.492,37.377,40.492,37.286,40.431,37.286
	z M40.643,37.861c-0.03,0.485-0.151,0.727-0.182,1.09c0.061-0.182,0.151-0.273,0.182-0.485c0,0.03,0,0.091,0.03,0.091
	C40.704,38.315,40.734,37.982,40.643,37.861C40.613,38.346,40.734,37.982,40.643,37.861z M40.677,36.087
	c-0.02,0.007-0.04,0.013-0.059,0.021c0.009,0.03,0.013,0.058,0.025,0.088C40.663,36.163,40.671,36.125,40.677,36.087
	C40.657,36.094,40.671,36.125,40.677,36.087z M46.488,35.136c-0.061-0.454-0.061-1.272-0.182-1.878c0,0.121,0,0.303-0.03,0.333
	c-0.03-0.03-0.03-0.03-0.061,0c0.005-0.035-0.005-0.411,0.03-0.394c-0.03,0.091,0-0.091-0.061-0.061c0,0.03,0,0.061-0.03,0.061
	c0.03-0.121,0.151-0.182,0.121-0.273c-0.091-0.061-0.061,0.151-0.121,0.061c0.03-0.363-0.03-0.666-0.061-0.999
	c-0.03,0-0.061,0.03-0.061,0c0.169-0.236-0.055-0.661-0.091-0.909c-0.042-0.291,0.059-0.676-0.091-0.939
	c0,0.03-0.03,0.061-0.03,0.061c0-0.424-0.151-0.666-0.212-1.121c-0.424,0.515-0.636,1.272-0.999,1.878c0.03,0,0.061,0,0.061,0.03
	c-0.434,0.217-0.591,1.693-0.697,2.165c-0.122,0.544-0.332,1.044-0.332,1.591c1.06,0.061,2.059,0.454,2.847,0.757
	c0.03-0.061-0.03-0.182,0.03-0.182c0.061,0.061-0.061,0.182,0.061,0.212C46.579,35.378,46.64,35.136,46.488,35.136
	C46.428,34.681,46.64,35.136,46.488,35.136z M47.276,37.498c0-0.113,0.098-0.112-0.03-0.212
	C47.215,37.377,47.245,37.528,47.276,37.498C47.276,37.467,47.245,37.528,47.276,37.498z M47.336,39.618
	c-0.125-0.063-0.001-0.394-0.151-0.394c-0.03,0.242-0.03,0.575,0.061,0.757C47.276,39.83,47.245,39.739,47.336,39.618
	C47.215,39.557,47.245,39.739,47.336,39.618z M18.993,39.698c-0.001-0.007-0.004-0.012-0.004-0.019
	c-0.024,0-0.032,0.032-0.048,0.048c0.004,0.006,0.008,0.013,0.018,0.013C18.959,39.718,18.974,39.709,18.993,39.698
	C18.992,39.691,18.974,39.709,18.993,39.698z M21.412,40.526c0.003,0,0.002,0.004,0.004,0.004c0-0.013,0-0.026,0-0.038
	C21.407,40.498,21.402,40.507,21.412,40.526C21.415,40.526,21.402,40.507,21.412,40.526z M21.775,42.737
	c-0.091,0.03-0.03,0.182-0.03,0.242C21.896,42.919,21.684,42.798,21.775,42.737z M21.745,39.133c0.121-0.091-0.03-0.182,0.03-0.303
	C21.684,38.861,21.684,39.103,21.745,39.133z M23.774,47.946c-1.59,0.742-2.511-2.111-2.847-3.059c0.03,0,0.061-0.03,0.061-0.061
	c-0.151-0.151-0.182-0.454-0.273-0.666c0.061-0.03,0.091,0.091,0.121,0.03c-0.139-0.186-0.291-0.697-0.182-0.697
	c0-0.273-0.151-0.454-0.061-0.697c-0.03,0.091,0.121,0.061,0.091,0c-0.03-0.091-0.121,0-0.121-0.061
	c0.151-0.091,0.03-0.212,0.03-0.303c-0.03,0-0.03-0.03-0.061-0.03c0,0.03,0,0.061-0.03,0.061c0-0.03-0.03-0.121,0.03-0.121
	c0.03,0.03,0.061,0.061,0.091,0.03c-0.085-0.34-0.125-0.639-0.173-0.991c-0.051-0.373-0.063-0.761-0.071-1.14
	c-0.006-0.275-0.017-0.517,0.016-0.804c0.028-0.24-0.078-0.817,0.107-1.002c-0.03-0.03-0.061,0.03-0.091-0.061
	c0.121-0.03,0.03-0.151,0.061-0.182c-0.061,0-0.091,0-0.091-0.061c0.182-0.03,0.03-0.273,0.061-0.333
	c-0.039-0.02-0.068-0.004-0.098,0.012c-0.101,0.381-0.06,1.071-0.417,1.321c0,0.051,0.03,0.159,0.03,0.273
	c-0.002-0.054-0.022-0.064-0.061-0.03c0.121,0.151-0.151,0.242-0.03,0.394c-0.164,0,0.044,0.138-0.091,0.273
	c0-0.03-0.091,0.03-0.121,0.061c0.124,0.372-0.528,0.952-0.273,1.272c0.091-0.182,0.121-0.394,0.242-0.515
	c-0.321,0.883-0.524,1.854-0.878,2.716c-0.233,0.568-0.347,1.242-0.566,1.873c-0.134,0.387-0.309,0.758-0.448,1.143
	c-0.081,0.224-0.144,0.771-0.35,0.919c-0.214,0.153-0.463,0.007-0.699-0.016c-0.407-0.04-0.767-0.03-1.177-0.153
	c-0.007-0.065-0.027-0.126-0.061-0.182c0.091-0.088,0.149-0.195,0.175-0.319c0.072-0.22,0.071-0.498,0.109-0.727
	c0.034-0.2-0.006-0.868,0.14-1.014c-0.03,0-0.061,0-0.061,0c0-0.398-0.066-1.256,0.091-1.726c0.03,0-0.03,0.091,0.061,0.121
	c-0.03-0.182,0.03-0.394-0.03-0.515c-0.061,0.151,0.061,0.303-0.061,0.363c0.009-0.188,0.06-1.817,0.03-1.817
	c0.03,0.091,0.061,0.091-0.03,0.151c0.03-0.394-0.061-0.515,0-0.848c0,0.03,0,0.091,0.061,0.061c0-0.091,0.03-0.242-0.03-0.303
	c0,0.061,0.03,0.151-0.061,0.182c-0.061-0.091,0-0.151-0.03-0.273c0.091-0.03,0.03,0.091,0.091,0.061
	c-0.032-0.065-0.141-0.239-0.091-0.273c0.061,0-0.03,0.061,0.091,0.061c-0.061-0.03,0-0.151-0.061-0.182
	c-0.03,0-0.03,0.061-0.061,0.061c-0.03-1.242-0.121-2.756-0.182-3.846c0.017,0.055,0.047,0.075,0.091,0.061
	c0.012-0.098-0.008-0.189-0.061-0.273c-0.03,0,0.03,0.091-0.061,0.061c0.03-0.273-0.182-0.575-0.03-0.727
	c-0.03,0.091,0.03,0.151,0.061,0.212c0.079-0.157-0.061-0.481-0.061-0.636c0.001,0,0.001,0.001,0.002,0.001
	c-0.008-0.041-0.012-0.082-0.032-0.122c0,0.061,0.03,0.151-0.03,0.182c-0.262-0.494-0.189-1.069-0.319-1.582
	c-0.113-0.445-0.231-0.914-0.378-1.356c0.135-0.083-0.03-0.059-0.03-0.121c-0.061-0.151-0.091-0.424,0.061-0.485
	c0.03,0,0.03,0.061,0.061,0.061c0-0.061,0.091-0.091,0.061-0.121c0,0.03-0.03,0.03-0.061,0c0.03-0.03,0.061-0.03,0.121-0.03
	c0.061,0.03-0.061,0.061,0,0.091c0.127-0.158,0.616-0.051,0.818-0.091c0.63,2.244,0.866,4.492,1.121,6.784
	c0,1.15,0.066,2.444-0.007,3.641c-0.028,0.465-0.021,1.001-0.054,1.507c-0.005,0.07-0.059,0.236-0.055,0.38
	c0.004,0.173,0.146,0.407,0.025,0.62c-0.03-0.212,0.03-0.363-0.061-0.485c0.03,0.303-0.091,0.515,0.091,0.757
	c0-0.03,0-0.061,0.03-0.061c0.03,0.091,0,0.151,0.03,0.182c0.061-0.273,0.273-0.424,0.333-0.666c0,0.03,0.03,0.03,0.061,0.03
	c0-0.151,0.061-0.363,0.091-0.606c-0.03-0.061-0.061,0.03-0.061-0.03c0.426-0.852,0.863-1.894,1.181-2.847
	c-0.03-0.061,0.03-0.091-0.061-0.091c0.121-0.242,0.273-0.727,0.454-0.939c0,0.02,0.004,0.037,0.013,0.048
	c-0.031,0.031,0.108,0.013,0.109,0.013c-0.03,0.061-0.061,0.03-0.061,0.03c-0.03,0,0,0.03,0,0.061c0.03,0,0.03,0,0.061,0
	c0-0.061,0-0.091,0-0.091c-0.046,0-0.055-0.019-0.057-0.041c0.009-0.006,0.017-0.01,0.027-0.019
	c-0.285-0.245,0.277-0.683,0.212-0.878c-0.03,0.03-0.03,0.121-0.091,0.151c0.046-0.183,0.106-0.362,0.151-0.545
	c0.033,0.198-0.002-0.062,0.061-0.03c0.03,0.121-0.091,0.151,0,0.212c0.002,0.007,0.078-0.238,0.091-0.242
	c0.03,0,0,0.091,0.061,0.091c0-0.182,0.182-0.454,0.061-0.697c-0.042,0-0.121,0.147-0.121,0.182c0.007-0.064-0.003-0.124-0.03-0.182
	c-0.009,0.005,0.213-0.212,0.182-0.212c0.091,0.151,0,0.273,0.061,0.363c0.091-0.303,0.091-0.485,0.212-0.878
	c-0.03,0-0.061-0.03-0.091-0.061c-0.03,0,0,0.182-0.061,0.091c0.061-0.454,0.212-0.818,0.303-1.302c0.03,0,0.091,0,0.091-0.03
	c-0.061-0.061-0.03-0.061-0.061-0.151c0-0.086,0.135-0.487,0.161-0.659c0.053-0.353,0.132-0.702,0.201-1.052
	c0.148-0.745,0.261-1.494,0.183-2.256c0.104-0.26,0.49-0.104,0.633-0.095c0.402,0.026,0.661,0.031,1.063,0.186
	c-0.121,0.212,0,0.394-0.151,0.515c0,0.061,0.03,0.061,0.061,0.03c-0.03,0.394-0.03,0.697-0.061,1.06
	c-0.506,0.506,0.137,1.793-0.273,2.362c0.027,0.031,0.027,0.071,0,0.121c0.021-0.032,0.026-0.06,0.028-0.088
	c0.116,0.145,0.033,1.049-0.028,1.209c-0.03-0.061-0.061-0.121-0.091-0.212c0,0.03,0,0.091-0.03,0.091c0-0.228,0.155-0.715,0-0.909
	c-0.046,0.507,0.065,1.335-0.182,1.787c0.061,0,0.03-0.061,0.061-0.061c0,0.06-0.064,0.46-0.03,0.394
	c0.032,0.126-0.06,0.183,0,0.424c-0.03,0.061-0.061-0.03-0.061,0.03c0.182,0.061-0.078,0.355-0.034,0.291
	c-0.086,0.125,0.049,0.224,0.034,0.224c0.111,0.332-0.285,0.928-0.061,1.333c-0.022,0.022-0.05,0.021-0.057,0.039
	c0.003-0.231,0.013-0.461-0.004-0.614c-0.061,0.394-0.03,0.697-0.03,1.151c0.025,0,0.032-0.004,0.051-0.022
	c0.06,0.109,0.04,0.219,0.04,0.355c-0.03,0-0.061-0.03-0.061,0c0.082,0.082-0.061,0.009-0.061,0.091
	c0.256,0.16,0.212,0.604,0.151,0.848c-0.03-0.03-0.061-0.091-0.091-0.061c0,0.424,0.151,0.999,0.061,1.393
	c0.03-0.03,0.061-0.03,0.091,0c0,0.202-0.03,0.19-0.03,0.363c-0.03,0.061-0.061-0.061-0.091,0c0.061,0.212,0.091,0.394,0.151,0.575
	c-0.091,0.03,0.03-0.061-0.061-0.061c-0.061,0.061-0.061,0.182,0,0.273c0.03-0.03,0.03,0.03,0.091,0.03
	c-0.03,0.151,0.091,0.182,0.061,0.303c-0.091-0.03-0.061-0.151-0.091-0.182c-0.091,0.061,0.061,0.091-0.03,0.212
	c0.061,0.03,0.061,0,0.151,0c0,0.242,0.091,0.394,0.091,0.545c-0.061-0.121-0.091-0.303-0.182-0.454
	c0.03,0.424,0.151,0.727,0.303,0.999c0-0.03-0.03-0.03,0-0.061c0.103,0.103,0.121,0.441,0.172,0.604
	c0.142,0.451,0.428,0.803,0.797,1.092c0.182,0.061,0.515,0.212,0.697,0.061c-0.03,0-0.03-0.061-0.061-0.061
	c0.091-0.03,0.091,0,0.182,0C23.956,47.765,23.865,47.916,23.774,47.946C23.32,48.158,23.865,47.916,23.774,47.946z M21.866,34.651
	c-0.03-0.061-0.03-0.121-0.03-0.182c0.03-0.091-0.03-0.091-0.03,0c-0.081,0.324-0.03,0.383-0.03,0.606
	C21.866,34.954,21.775,34.712,21.866,34.651C21.836,34.59,21.775,34.712,21.866,34.651z M21.775,33.076
	c0.061,0-0.03-0.182,0.061-0.182C21.715,32.804,21.775,33.016,21.775,33.076z M21.745,33.258c0.061,0,0.061-0.091,0.061-0.151
	C21.715,33.106,21.745,33.197,21.745,33.258z M21.745,33.561c-0.061-0.061,0.03-0.121-0.03-0.182
	C21.654,33.379,21.654,33.591,21.745,33.561z M21.593,36.498c0.061-0.061,0.03-0.091,0.061-0.182
	C21.563,36.317,21.563,36.468,21.593,36.498z M21.563,36.832c0.03,0,0.03-0.03,0.061-0.03c-0.03-0.151,0-0.091,0-0.242
	C21.503,36.62,21.563,36.71,21.563,36.832C21.593,36.832,21.563,36.71,21.563,36.832z M21.442,38.739
	c0.03-0.03,0.03-0.212,0.061-0.303C21.412,38.528,21.442,38.588,21.442,38.739z M15.506,34.833c0,0.061,0.061,0.03,0.061,0.091
	c-0.03-0.061,0.121-0.182,0-0.182C15.627,34.802,15.597,34.863,15.506,34.833C15.506,34.893,15.597,34.863,15.506,34.833z
	 M15.809,36.71c0.061-0.03-0.03-0.121-0.03-0.151C15.718,36.589,15.809,36.68,15.809,36.71z M15.809,36.832
	c-0.061,0.03,0,0.121-0.03,0.182C15.9,36.983,15.809,36.892,15.809,36.832z M15.9,38.164c-0.121-0.03-0.061,0.182,0,0.182
	C15.9,38.285,15.9,38.225,15.9,38.164z M16.233,34.288c-0.024,0.024-0.032,0.012-0.048,0.005c0.006,0.026,0.013,0.051,0.018,0.086
	c0.021,0,0.03-0.012,0.042-0.021C16.241,34.334,16.239,34.313,16.233,34.288C16.209,34.312,16.239,34.313,16.233,34.288z
	 M15.96,41.919c0,0.03,0.03,0.061,0.061,0.091c0.03-0.03,0-0.151,0-0.212C15.9,41.798,16.082,41.919,15.96,41.919
	C15.96,41.95,16.082,41.919,15.96,41.919z M16.021,44.039c-0.151,0.03,0,0.121-0.03,0.242C16.021,44.342,15.991,44.13,16.021,44.039
	z M16.051,42.434c-0.121,0.061-0.061,0.303-0.061,0.394C16.082,42.677,15.991,42.586,16.051,42.434z M16.051,42.131
	c-0.091,0.03-0.061,0.121-0.061,0.273C16.082,42.374,16.021,42.283,16.051,42.131z M16.182,34.28c0.009,0,0.02,0.008,0.02,0.008
	c0.061-0.061-0.03-0.212-0.061-0.273C16.118,34.113,16.152,34.156,16.182,34.28C16.191,34.28,16.152,34.156,16.182,34.28z
	 M16.384,35.681c0.07-0.07-0.062-0.75-0.121-0.727c0-0.03,0.03-0.03,0.061-0.03c-0.051-0.179-0.04-0.319-0.071-0.521
	C16.115,34.806,16.355,35.188,16.384,35.681C16.475,35.59,16.355,35.188,16.384,35.681z M16.506,37.104
	c0.151,0,0.151,0.212,0.242,0.333c0.121-0.061-0.03-0.242,0-0.363c-0.091,0.03-0.03,0.03-0.061,0.091
	c-0.091-0.333-0.121-0.575-0.212-0.878c-0.061,0,0,0.121-0.03,0.182c-0.091,0.03-0.03-0.091-0.061-0.091
	C16.354,36.589,16.596,36.892,16.506,37.104C16.657,37.104,16.596,36.892,16.506,37.104z M16.506,37.437
	c0.03,0,0.03-0.061,0.061-0.03c0.045-0.045-0.043-0.237-0.061-0.273C16.384,37.225,16.506,37.316,16.506,37.437
	C16.536,37.437,16.506,37.316,16.506,37.437z M16.566,37.467c-0.03,0.03,0.03,0.121,0.061,0.151
	C16.687,37.589,16.596,37.498,16.566,37.467z M16.748,40.102c-0.091-0.061,0.03-0.212-0.121-0.212c0.03,0.091,0,0.091-0.03,0.182
	C16.687,40.042,16.657,40.133,16.748,40.102C16.657,40.042,16.657,40.133,16.748,40.102z M16.778,41.556
	c-0.091,0.03,0,0.061-0.03,0.151C16.839,41.677,16.778,41.617,16.778,41.556z M18.171,44.706c-0.058,0.035-0.078,0.015-0.061-0.061
	c0.04,0.061,0.096-0.062-0.061-0.03c-0.02-0.02,0.061,0.281,0.061,0.273C18.171,44.857,18.171,44.797,18.171,44.706
	C18.141,44.736,18.171,44.797,18.171,44.706z M18.292,44.161c0-0.091-0.061,0-0.091,0c0.03,0.091,0,0.061,0,0.151
	C18.262,44.282,18.232,44.161,18.292,44.161C18.292,44.07,18.232,44.161,18.292,44.161z M19.928,36.801
	c-0.03,0.03-0.061,0.091-0.03,0.121C19.988,36.953,19.958,36.801,19.928,36.801z M20.11,36.105
	c-0.061,0.121-0.151,0.303-0.121,0.485C20.019,36.408,20.14,36.317,20.11,36.105z M20.2,35.741c-0.03,0-0.091,0.151-0.091,0.273
	C20.11,36.074,20.17,35.832,20.2,35.741z M20.352,37.74c0,0.013-0.001,0.018-0.002,0.027C20.357,37.763,20.36,37.756,20.352,37.74z
	 M20.503,37.68c-0.091,0.121-0.03-0.091-0.061-0.182c-0.03-0.061,0,0.182-0.061,0.182c0,0.061,0.091,0.03,0.061,0.091
	C20.503,37.77,20.503,37.71,20.503,37.68C20.412,37.801,20.503,37.71,20.503,37.68z M20.473,37.407c0,0.03,0,0.091,0,0.121
	c0.03,0,0.061,0,0.061,0C20.503,37.467,20.594,37.407,20.473,37.407C20.473,37.437,20.594,37.407,20.473,37.407z M20.685,42.919
	c-0.061,0.061-0.061,0.091-0.03,0.151C20.745,43.07,20.685,42.949,20.685,42.919z M21.291,42.071c0.121,0.061,0-0.151,0.03-0.242
	C21.23,41.829,21.351,42.041,21.291,42.071z M21.291,43.525c0.03,0.061,0.091,0.091,0.182,0.091c0-0.032-0.048-0.236-0.121-0.273
	C21.382,43.434,21.412,43.525,21.291,43.525C21.321,43.585,21.412,43.525,21.291,43.525z M19.716,37.407c0-0.091,0-0.212-0.03-0.242
	C19.642,37.208,19.62,37.375,19.716,37.407C19.716,37.316,19.625,37.377,19.716,37.407z M19.807,40.284
	c-0.061,0.061-0.151,0.363-0.151,0.485C19.746,40.587,19.776,40.435,19.807,40.284z M21.806,38.013
	c-0.061,0.03-0.03,0.151-0.03,0.303C21.866,38.255,21.806,38.134,21.806,38.013z M21.912,35.544
	c-0.001,0.004-0.003,0.009-0.004,0.013C21.909,35.553,21.911,35.548,21.912,35.544z M21.432,40.838
	c0.004-0.003,0.005-0.004,0.01-0.009c-0.003-0.014-0.002-0.032-0.004-0.047c-0.009,0.005-0.018,0.009-0.026,0.017
	C21.421,40.812,21.425,40.825,21.432,40.838C21.436,40.834,21.425,40.825,21.432,40.838z M21.472,40.708
	c-0.088,0.059,0.02-0.163-0.056-0.177c0.002,0.09,0.01,0.173,0.022,0.251C21.466,40.766,21.495,40.754,21.472,40.708
	C21.384,40.767,21.495,40.754,21.472,40.708z M21.416,40.351c0-0.01,0-0.019,0-0.028C21.409,40.334,21.409,40.343,21.416,40.351z
	 M21.503,40.466c0.029-0.086-0.075-0.066-0.087-0.114c0,0.047-0.001,0.095,0,0.141C21.435,40.48,21.482,40.486,21.503,40.466
	C21.531,40.38,21.482,40.486,21.503,40.466z M21.867,35.652c0.01,0.01,0.018,0.021,0.027,0.032c0.003-0.038,0.002-0.078,0.014-0.126
	C21.886,35.586,21.872,35.618,21.867,35.652C21.877,35.661,21.868,35.65,21.867,35.652z M21.927,35.499
	C21.93,35.499,21.868,35.616,21.927,35.499C21.924,35.499,21.918,35.516,21.927,35.499z M28.65,36.559
	c-0.091,0.061-0.182,0-0.273,0.061C28.468,36.62,28.62,36.65,28.65,36.559z M28.105,36.62c-0.091,0-0.242-0.061-0.363,0
	C27.867,36.645,27.99,36.706,28.105,36.62C28.014,36.62,28.075,36.642,28.105,36.62z M31.588,38.315
	c0.091,1.484,0.485,3.271,0.606,4.815c-0.303,0.061-0.424,0-0.727,0.091c0,0-0.091,0.121,0,0.121
	c-0.254,0.127-0.445,0.379-0.694,0.113c-0.156-0.167-0.112-0.511-0.125-0.714c-0.046-0.71-0.095-1.434-0.19-2.14
	c-0.171-1.275-0.089-2.705-0.445-3.951c-0.727,0.061-1.666,0.212-2.393,0.151c0-0.03,0.03-0.061,0.03-0.091c-0.013,0-0.02,0-0.03,0
	c0.001,0,0.002,0,0.003,0c-0.002,0-0.003,0-0.005,0c0.001,0,0.002,0,0.002,0c-0.088,0-0.104,0-0.212,0
	c0.001-0.001,0.003-0.002,0.003-0.003c-0.305-0.002-0.569-0.01-0.76-0.057c0.065-0.016,0.152-0.023,0.245-0.024
	c0.003,0.026,0.391-0.024,0.391,0.024c0,0.001-0.001,0.001-0.001,0.002c0.605,0.074,1.408,0.03,2.06-0.093
	c-0.076-0.152-1.381,0.011-1.556,0.008c-0.664-0.013-1.335-0.059-1.987-0.19c-0.027,0.054,0.681,0.2,0.787,0.242
	c-0.151,0.061-0.333-0.061-0.515-0.03c0.091,0.091,0.333,0.03,0.424,0.151c-0.242,0-0.363-0.151-0.697-0.061
	c0,1.556,0.075,3.104,0.111,4.661c0.013,0.57,0.033,1.12,0.052,1.638c0.02,0.56-0.301,0.508-0.678,0.697
	c0.058,0-0.152,0.137-0.172,0.146c-0.231,0.112-0.274-0.056-0.495-0.056c0.065-0.804,0.032-1.616,0.02-2.421
	c-0.012-0.842,0.121-1.743,0.026-2.568c-0.008,0.022-0.016,0.047-0.016,0.083c-0.091,0.03-0.03-0.121-0.061-0.061
	c-0.061-0.03,0.061-0.091,0.061-0.121c0.006,0.006,0.006,0.011,0.01,0.017c-0.003-0.046-0.007-0.092-0.01-0.138
	c0,0.02-0.078,0.143-0.061,0.091c0-0.061-0.03-0.182-0.03-0.363c0.03,0.061,0.03,0.091,0.061,0.121
	c0.051-0.204-0.085-0.482-0.113-0.76c-0.038-0.381-0.117-1.044,0.022-1.39c-0.121-0.061,0,0.151-0.091,0.151
	c-0.03-0.061-0.061-0.121,0-0.182c-0.346-0.139-0.71-0.416-0.969-0.545c-0.362-0.164-0.673-0.625-0.785-0.992
	c-0.071-0.232-0.089-0.965,0.27-1.037c0.121-0.03,0.363,0.03,0.273,0.212c0,0.061-0.061,0.091-0.151,0.061
	c-0.354,0.62,0.93,0.954,1.302,1.06c0.025-0.505-0.001-1.041-0.061-1.545c-0.029-0.248-0.028-0.586-0.121-0.818
	c0.061,0.03,0.061-0.03,0.061-0.061c0.091-0.03,0.061,0.03,0.121,0.061c0-0.091,0.03-0.091,0.03-0.151
	c-0.091-0.061-0.091,0.061-0.182,0c0.062-0.718-0.082-1.433-0.245-2.129c-0.126-0.542-0.135-1.107-0.331-1.596
	c0.454,0.03,1.06-0.121,1.333,0.303c-0.065,0.456,0.298,1.038,0.404,1.48c0.117,0.483,0.193,0.991,0.226,1.486
	c0.071,1.051,0.247,2.099,0.278,3.152c0.058,0.115,0.751,0.055,0.857,0.06c0.478,0.024,0.839-0.091,1.293-0.139
	c0.655-0.07,1.373-0.124,2.059-0.314c-0.137-0.48-0.077-1.074-0.113-1.574c-0.026-0.363-0.105-0.646-0.099-1.001
	c0.008-0.452,0.143-0.987,0.182-1.484c0.026-0.333-0.018-0.598-0.022-0.909c-0.004-0.334,0.13-0.664,0.082-0.999
	c0.333-0.061,0.878-0.091,1.211-0.061c0,0.719,0.044,1.416-0.057,2.168c-0.104,0.776-0.192,1.635-0.139,2.411
	c0.057,0.829,0.101,1.672,0.186,2.498c0.047,0.458,0.126,0.912,0.169,1.37C31.53,37.464,31.419,38.147,31.588,38.315
	C31.679,39.799,31.557,38.285,31.588,38.315z M24.683,35.953c-0.121,0.03-0.242-0.121-0.333-0.061
	C24.471,35.953,24.622,36.105,24.683,35.953z M28.801,35.832c-0.03,0.03-0.182-0.03-0.151,0.061
	C28.711,35.893,28.771,35.893,28.801,35.832z M29.983,36.408c-0.091-0.151-0.454,0-0.485,0.03
	C29.649,36.438,29.831,36.377,29.983,36.408z M31.133,41.525c-0.023-0.231,0.064-0.44,0.061-0.665
	c-0.004-0.246-0.098-0.482-0.121-0.727c-0.027-0.292-0.027-0.697-0.022-1.015c0.014-0.819-0.158-1.786-0.281-2.649
	c0,0.065-0.092,0.3-0.074,0.462c0.047,0.427,0.129,0.818,0.138,1.253C30.856,39.292,30.992,40.418,31.133,41.525
	C31.103,41.223,31.026,40.68,31.133,41.525z M31.134,41.526c0.019,0.152,0.037,0.306,0.06,0.454
	C31.285,41.798,31.194,41.647,31.134,41.526z M34.737,43.161c0-0.03,0.03-0.03,0.03-0.061
	C34.768,43.101,34.737,43.131,34.737,43.161z M34.132,36.65c-0.121,0.212-0.091,0.394-0.061,0.727
	c0.072-0.252,0.151-0.523,0.151-0.787C34.223,36.643,34.109,36.717,34.132,36.65C34.011,36.862,34.101,36.741,34.132,36.65z
	 M34.677,43.101c0-0.363,0.151-0.606,0-0.697C34.707,42.586,34.616,43.01,34.677,43.101z M34.041,36.771
	c0.061-0.212,0.182-0.545,0.091-0.818C34.162,36.196,33.95,36.438,34.041,36.771z M34.98,43.191
	c0.061-0.121,0.121-0.242,0.091-0.333C35.01,42.949,34.919,43.101,34.98,43.191z M34.889,38.013
	c-0.03,0.151-0.242,0.242-0.121,0.394C34.768,38.255,35.01,38.104,34.889,38.013z M34.192,37.104c0,0.212-0.151,0.303-0.121,0.606
	c0.061-0.03,0.091,0,0.121-0.03C34.132,37.528,34.253,37.286,34.192,37.104C34.192,37.316,34.253,37.286,34.192,37.104z
	 M34.132,38.164c0-0.121,0.061-0.333,0.03-0.394c-0.061,0.091-0.121,0.333-0.03,0.515c-0.03-0.121,0.182-0.151,0.061-0.242
	C34.192,38.104,34.162,38.134,34.132,38.164C34.132,38.043,34.162,38.134,34.132,38.164z M34.223,39.981c0,0.001,0,0.001,0,0.002
	C34.241,39.956,34.248,39.947,34.223,39.981z M34.223,38.346c0.03,0.151-0.151,0.636,0.03,0.666
	C34.132,38.921,34.313,38.285,34.223,38.346z M34.162,42.253c0-0.03,0-0.061-0.03-0.061c0.03,0.061-0.091,0.121,0,0.151
	c0-0.03,0-0.03,0.03-0.03c0,0.03,0,0.121,0.03,0.061c-0.03-0.091,0.091-0.151,0-0.182C34.192,42.222,34.192,42.253,34.162,42.253
	C34.162,42.222,34.192,42.253,34.162,42.253z M34.313,40.223c0,0.09,0.003,0.256-0.091,0.303c0-0.241,0.03-0.333,0-0.543
	c-0.047,0.069-0.178,0.271-0.091,0.271c0-0.061,0-0.121,0.061-0.121c0.03,0.636-0.182,1.211-0.121,1.726
	C34.363,41.713,34.407,40.474,34.313,40.223C34.313,40.284,34.495,40.708,34.313,40.223z M38.735,35.529
	c0.03,0.091,0,0.212,0.091,0.273C38.887,35.681,38.796,35.62,38.735,35.529z M41.309,40.254c-0.008,0.181-0.078,0.339-0.091,0.515
	C41.37,40.647,41.279,40.405,41.309,40.254C41.302,40.413,41.279,40.405,41.309,40.254z M37.796,34.348
	c0.03,0.091,0.061,0.151,0.151,0.212C37.978,34.378,37.826,34.409,37.796,34.348z M34.071,46.765
	c-0.019-0.004-0.031-0.025-0.046-0.038C34.037,46.75,34.053,46.765,34.071,46.765z M51.758,37.649
	c-0.151,0.091-0.121,0.242-0.03,0.363c0-0.03,0.03-0.03,0.03-0.03c0-0.061-0.03-0.121-0.061-0.182c0-0.03,0.061-0.03,0.061,0
	C51.818,37.77,51.727,37.71,51.758,37.649C51.606,37.74,51.727,37.71,51.758,37.649z M55.15,38.861
	c0.151,1.159,0.278,2.325,0.278,3.495c0,0.575-0.03,1.149-0.102,1.72c-0.048,0.38-0.368,1.156-0.298,1.509
	c-0.091,0.03-0.182-0.03-0.242,0.061c-0.363-0.363-0.042-1.279-0.03-1.725c0.019-0.715-0.013-1.436-0.035-2.15
	c-0.028-0.877-0.05-1.778-0.191-2.647c-0.096-0.597-0.162-1.237-0.279-1.816c-0.088-0.438-0.251-1.024-0.372-1.519
	c-0.097-0.398-0.219-1.472-0.577-1.651c0-0.03,0.03-0.03,0.061-0.03c-0.363-0.606-0.575-1.363-0.999-1.878
	c-0.061,0.454-0.212,0.697-0.212,1.121c0,0-0.03-0.03-0.03-0.061c-0.145,0.254-0.05,0.658-0.091,0.939
	c-0.038,0.261-0.266,0.663-0.091,0.909c0,0.03-0.03,0-0.061,0c-0.03,0.333-0.091,0.636-0.061,0.999
	c-0.061,0.091-0.03-0.121-0.121-0.061c-0.03,0.091,0.091,0.151,0.121,0.273c-0.03,0-0.03-0.03-0.03-0.061
	c-0.061-0.03-0.03,0.151-0.061,0.061c0.032-0.016,0.024,0.353,0.03,0.394c-0.03,0-0.03-0.03-0.061,0
	c-0.03-0.03-0.03-0.212-0.03-0.333c-0.125,0.625-0.084,1.287-0.204,1.898c-0.068,0.346-0.124,0.68-0.143,1.039
	c-0.043,0.806-0.179,1.841-0.046,2.636c0-0.03,0-0.061,0.03-0.061c-0.061,0.666-0.273,1.696-0.182,2.211c0-0.03,0-0.061,0.03-0.061
	c-0.061,0.273-0.182,0.636-0.182,1.03c0,0,0.061,0,0.061,0.061c-0.03,0.273-0.242,0.454-0.212,0.636
	c-0.586,0.36-0.556-0.485-0.878-0.485c0.03-0.151-0.182-0.212-0.182-0.333c-0.091-0.03-0.121-0.061-0.212-0.03
	c-0.03-0.061-0.061-0.121-0.061-0.212c-0.061-0.03-0.091-0.03-0.151-0.061c0.091-0.212,0.121-0.485,0.03-0.606
	c0.121-0.024,0.025-0.141,0.151-0.091c-0.005-0.01-0.078-0.379,0.061-0.333c-0.03,0.03,0,0.182,0.061,0.151
	c-0.03,0.03-0.091,0-0.061,0.061c0,0.091,0.091,0.121,0.182,0.121c0.06-0.239-0.103-0.256-0.16-0.451
	c-0.059-0.202-0.006-0.406-0.052-0.609c0.091-0.03-0.03,0.121,0.061,0.121c0-0.061,0.03-0.061,0.03-0.151
	c-0.03,0-0.121,0.03-0.091-0.061c0-0.061,0.121,0,0.091-0.091c-0.288,0,0.249-0.829,0.03-0.939c0.03,0,0.061,0,0.061-0.03
	c-0.212-0.182,0-0.424-0.061-0.606c0,0.03,0,0.061-0.03,0.061c0.091-0.333-0.091-0.697-0.061-0.969
	c0.03,0.03,0.091-0.091,0.151-0.061c-0.061-0.242,0.061-0.333-0.121-0.545c0.03,0,0.061,0,0.061-0.061
	c-0.061-0.061-0.03,0-0.061,0.03c-0.061-0.061,0.03-0.151-0.03-0.182c0.091,0,0.03,0.151,0.182,0.091
	c0-0.061-0.061-0.061-0.061-0.091c0.061-0.03,0.091-0.061,0.121-0.121c0-0.091-0.061,0-0.061-0.061c0.112,0,0.099-0.728,0.091-0.818
	c0.061,0,0.061,0.03,0.091,0c-0.091-0.091,0-0.182,0.03-0.333c-0.03,0-0.03,0.03-0.061,0.03c0-0.228,0.132-1.732,0.182-1.757
	c0,0.061,0.03,0.061,0.061,0.03c-0.096-0.335,0.062-0.748,0.145-1.064c0.145-0.549,0.184-1.128,0.313-1.682
	c0.168-0.72,0.391-2.463,1.419-2.463c0.774-0.055,1.037,0.597,1.333,1.181c0.418,0.826,0.826,1.623,1.056,2.524
	C54.749,36.199,54.95,37.539,55.15,38.861z M50.698,40.557c0.03,0,0.03,0.061,0.03,0.091c0.03,0.03,0.061-0.121,0.03-0.212
	C50.789,40.435,50.607,40.617,50.698,40.557C50.728,40.557,50.607,40.617,50.698,40.557z M50.849,42.374
	c-0.193,0-0.073,0.693-0.061,0.757C50.88,42.949,50.88,42.616,50.849,42.374C50.819,42.374,50.88,42.616,50.849,42.374z
	 M51.667,38.043c-0.061,0-0.03,0.182,0,0.242c0.03-0.03,0.03-0.121,0.061-0.182C51.727,38.104,51.637,38.104,51.667,38.043
	C51.606,38.043,51.637,38.104,51.667,38.043z M51.758,37.044c-0.03,0.061-0.03,0.121,0.03,0.121c0-0.091,0-0.091-0.061-0.182
	C51.697,37.013,51.727,37.044,51.758,37.044C51.727,37.104,51.727,37.044,51.758,37.044z M62.358,37.134
	c-0.061,0.151,0.03,0.182,0.061,0.303C62.404,37.41,62.358,37.184,62.358,37.134C62.297,37.286,62.358,37.165,62.358,37.134z
	 M62.327,38.194c0.086,0.086-0.039,0.442,0.091,0.545c0.03-0.182,0.061-0.333,0.03-0.454C62.388,38.225,62.327,38.346,62.327,38.194
	C62.297,38.164,62.327,38.346,62.327,38.194z M60.662,41.041c-0.02,0.024-0.036,0.053-0.053,0.08
	C60.624,41.094,60.647,41.072,60.662,41.041z M62.358,37.558c0.03,0.061,0.121,0.03,0.091,0.121c0.03,0,0.03,0,0.061,0
	c-0.03-0.061-0.091-0.121-0.151-0.182C62.297,37.498,62.418,37.558,62.358,37.558C62.388,37.619,62.418,37.558,62.358,37.558z
	 M57.412,31.629c-0.023-0.028-0.047-0.055-0.081-0.067C57.345,31.592,57.382,31.607,57.412,31.629z M61.298,37.165
	c-0.006-0.018-0.013-0.03-0.021-0.043C61.267,37.158,61.277,37.186,61.298,37.165z M57.437,31.658
	c-0.007-0.009-0.013-0.02-0.023-0.027C57.422,31.641,57.432,31.647,57.437,31.658z M57.149,31.895c0,0,0.03-0.273,0-0.363
	C57.088,31.592,57.118,31.774,57.149,31.895z M57.058,29.714c-0.061,0.212-0.03,0.394,0.061,0.485
	C57.036,30.075,57.058,29.855,57.058,29.714C56.997,29.926,57.058,29.805,57.058,29.714z M57.187,33.121
	c0.002-0.015,0.003-0.029,0.002-0.047c-0.004,0.002-0.005-0.001-0.01,0.002C57.179,33.09,57.183,33.106,57.187,33.121
	C57.188,33.106,57.183,33.106,57.187,33.121z M57.179,32.137c0.061,0,0-0.091,0-0.121c-0.03,0-0.03,0-0.03,0
	C57.149,32.046,57.179,32.077,57.179,32.137C57.239,32.137,57.179,32.077,57.179,32.137z M57.179,33.379
	c0.03,0.091,0,0.121,0.03,0.182c0.083,0,0.013-0.148,0.03-0.182C57.209,33.379,57.209,33.379,57.179,33.379
	C57.209,33.47,57.209,33.379,57.179,33.379z M62.449,38.104c-0.091-0.061-0.061-0.242-0.151-0.303
	c-0.128,0.895-0.245,1.772-0.394,2.665c-0.03,0.03-0.03,0-0.091,0c-0.061,0.273-0.212,0.424-0.242,0.697
	c0-0.03-0.03-0.061-0.03-0.061c-0.03,0.061-0.061,0.182-0.03,0.212c-0.061,0.03-0.03-0.061-0.061-0.061
	c-0.242,0.121-0.273,0.545-0.666,0.636c0,0.03,0,0.061,0.03,0.061c-0.424,0.091-0.818,0.121-1.151-0.121
	c0.061-0.03,0.151,0.061,0.182-0.03c-0.273-0.121-0.454-0.303-0.666-0.515c0.03-0.03-0.03-0.03,0-0.061
	c-0.274,0-0.521-0.758-0.606-0.969c0.03,0.485-0.061,1.09-0.091,1.545c-0.171,0-0.171,0.171-0.242,0.242
	c-0.394,0.182-0.727,0.151-1.121,0.212c-0.03-0.061,0.03-0.091,0-0.121c-0.121,0-0.151,0.03-0.242,0
	c0.061-0.091,0.091-0.212,0.061-0.273c-0.03,0.03-0.03,0.091-0.061,0.151c0-0.666,0.061-1.484,0.182-2.15
	c0,0.03,0.03,0.091,0.061,0.091c-0.2-1.204,0.403-2.152,0.212-3.392c0.03,0,0.061-0.061,0.091,0
	c-0.061-0.212-0.061-0.545,0.03-0.727c-0.061,0.061-0.03-0.061-0.091-0.061c0.061,0.061-0.061,0.151,0,0.212
	c-0.03,0-0.061,0-0.091,0.03c-0.01-0.038-0.071-0.404-0.061-0.424c0,0.03,0.03,0.03,0.061,0.03c-0.03-0.091,0.061-0.151,0-0.212
	c0.061-0.03,0.03,0.061,0.091,0.03c-0.03-0.242-0.03-0.273-0.061-0.606c-0.03,0.03-0.061,0.03-0.091,0c0-0.03,0-0.061,0-0.121
	c0.061-0.03,0,0.061,0.061,0.091c0-0.167,0.087-0.429-0.03-0.606c0,0.061-0.03,0.121-0.03,0.151c0.03-0.182-0.03-0.182-0.03-0.303
	c0.091,0,0,0.091,0.091,0.091c0-0.091,0-0.182,0.03-0.273c0,0.03,0.061,0.061,0.061,0.03c-0.091-0.061-0.061-0.151-0.151-0.182
	c0,0.03,0.03,0.212,0,0.121c0.03-0.091-0.091-0.121-0.061-0.182c0.021,0.01,0.037,0.006,0.054,0.004
	c-0.015-0.039-0.012-0.095,0.037-0.095c0,0.026,0.005,0.056,0.006,0.081c0.051-0.038,0.074-0.121,0.054-0.141
	c0.03,0,0.03,0.091,0.061,0.091c0-0.151-0.151-0.333-0.091-0.515c-0.028,0-0.035-0.021-0.081-0.002
	c-0.016-0.449,0.111-0.732,0.111-1.209c0.091-0.046,0.213-0.051,0.137-0.207c0.015,0.02,0.024,0.045,0.014,0.086
	c0.03-0.091,0.061-0.363-0.03-0.424c-0.004-0.018-0.082,0.476-0.061,0.454c-0.02-0.061-0.181-0.273-0.061-0.333
	c-0.048,0.008-0.079-0.012-0.091-0.061c0.03,0,0.061,0,0.061-0.03c-0.061,0-0.03-0.121-0.091-0.121
	c0.03,0.061,0.03,0.121-0.061,0.151c0-0.242,0.03-0.303-0.03-0.515c0.121,0.03,0.03,0.242,0.091,0.242
	c0.148-0.198-0.213-0.544-0.091-0.666c0,0.03,0.03,0.061,0.091,0.03c-0.03-0.061-0.03-0.061,0-0.121c0.061-0.03,0.091,0.061,0.091,0
	c-0.03-0.121-0.121-0.182-0.061-0.303c0,0.03,0.03,0.061,0.03,0.061c-0.03-0.121,0.061,0.03,0.061-0.03
	c-0.085-0.085-0.251-0.256-0.182-0.394c0.03,0.03,0.03,0,0.061,0.03c0.078-0.156-0.097-0.504-0.151-0.666
	c0,0.069-0.045,0.167,0.03,0.242c-0.091,0.03,0.03-0.061-0.091-0.03c0.025-0.1-0.128-0.666,0-0.666
	c-0.03,0.061,0.03,0.061,0.061,0.091c-0.03,0.061-0.061-0.03-0.061,0.061c0.061,0.03,0.061,0.121,0.121,0.151
	c0.123-0.246-0.134-0.46-0.182-0.697c0,0.03-0.03,0.03-0.03,0.061c0.03,0,0.061,0,0.061,0.03c-0.091,0-0.03,0.061,0,0.121
	c-0.151,0.03-0.091-0.303-0.091-0.333c0.03,0.03,0.03,0.091,0.061,0.091c0-0.03,0-0.061,0-0.091l1.575-0.182
	c0.049,0.243,0.217,0.821,0.121,1.06c0-0.03,0-0.061-0.03-0.061c0.071,0.777,0.224,1.483,0.244,2.267
	c0.019,0.749,0.173,1.773-0.154,2.427c0.061,0.03-0.03,0.182,0.061,0.182c0.033-0.166,0.753-0.392,0.911-0.414
	c0.255-0.035,0.694,0.353,0.876,0.262c0,0.061-0.03,0.061,0,0.091c0.25,0.036,0.84,0.518,0.878,0.787c0.03,0,0.03-0.03,0.061,0
	c0.264,0.352,0.305,1.288,0.697,1.484c-0.03,0.061-0.091-0.03-0.091,0.03c0.068,0.102,0.186,0.126,0.273,0.212
	c-0.026,0-0.05-0.014-0.074-0.029c0.029,0.115,0.163,0.425,0.104,0.544c0.061-0.03,0.061-0.061,0.091,0.03
	c-0.03,0.212-0.061,0.091-0.121,0.121c0-0.061,0-0.121-0.061-0.121c0.023,0.082,0.072,0.685,0.061,0.697
	c-0.091,0.03-0.061,0.273-0.061,0.333c0.03,0,0-0.061,0.061-0.061C62.358,37.861,62.479,37.922,62.449,38.104
	C62.358,38.043,62.479,37.922,62.449,38.104z M58.754,32.319c0.091-0.394,0.061-0.787,0.03-1.211
	C58.754,31.532,58.723,31.865,58.754,32.319z M57.33,30.562c0.03-0.061,0.061-0.212,0-0.303
	C57.361,30.381,57.27,30.502,57.33,30.562z M57.27,29.351c0.03,0,0.03,0,0.03,0.03c0.03,0,0-0.03,0-0.091h-0.03
	C57.27,29.321,57.239,29.321,57.27,29.351C57.3,29.351,57.239,29.321,57.27,29.351z M57.361,29.745
	c-0.03-0.03-0.03-0.061-0.061-0.121C57.27,29.654,57.3,29.805,57.361,29.745z M57.27,30.684c0.061-0.03,0.091,0.03,0.121,0.061
	C57.451,30.653,57.239,30.532,57.27,30.684z M57.118,39.042c-0.061,0.03,0,0.242-0.03,0.273
	C57.149,39.345,57.118,39.133,57.118,39.042z M57.482,33.833c0.091,0,0-0.182,0-0.212C57.451,33.652,57.451,33.773,57.482,33.833z
	 M57.512,34.409c0.03,0,0-0.091,0-0.151C57.391,34.288,57.512,34.318,57.512,34.409z M57.512,34.53c-0.091,0.091-0.03,0.273,0,0.394
	C57.542,34.772,57.542,34.651,57.512,34.53z M57.573,33.137c-0.091-0.485-0.03-0.606-0.151-1.03
	c-0.03,0.545,0.061,0.999,0.061,1.484C57.633,33.5,57.391,33.137,57.573,33.137C57.482,32.652,57.391,33.137,57.573,33.137z
	 M58.602,33.561c-0.023,0.068-0.19,0.636-0.061,0.636c0.061,0.03,0.061-0.151,0.151-0.151
	C58.663,33.864,58.663,33.712,58.602,33.561C58.542,33.742,58.663,33.712,58.602,33.561z M58.693,32.894
	c-0.052,0.129-0.19,0.511,0,0.606C58.754,33.258,58.633,33.106,58.693,32.894C58.633,33.046,58.633,33.106,58.693,32.894z
	 M58.481,29.926c-0.014,0.055-0.002,0.111,0.008,0.172C58.491,30.035,58.493,29.972,58.481,29.926z M58.39,28.473
	c0.03-0.03,0.061-0.03,0.091-0.03c-0.055-0.164-0.121-0.149-0.121-0.333C58.33,28.23,58.33,28.382,58.39,28.473
	C58.421,28.442,58.33,28.382,58.39,28.473z M58.481,30.35c0.03,0.091,0.03,0.333,0.03,0.485c0.03-0.061,0.091-0.182,0.03-0.242
	c0.121,0,0.061,0.091,0.091,0.212c0.209-0.174-0.061-0.571-0.061-0.727c-0.03,0.061-0.061,0.182-0.03,0.242
	c-0.025-0.008-0.037-0.033-0.044-0.066C58.495,30.285,58.493,30.316,58.481,30.35c-0.061-0.575-0.03-0.999-0.151-1.484
	c-0.043,0.556-0.012,1.166,0.121,1.696C58.511,30.532,58.421,30.381,58.481,30.35C58.511,30.441,58.421,30.381,58.481,30.35z
	 M58.511,31.865c0.03-0.151,0.03-0.303,0-0.454C58.451,31.532,58.481,31.744,58.511,31.865z M58.935,40.738
	c-0.151,0-0.091-0.182-0.182-0.273c-0.03,0.061,0.091,0.303,0.151,0.424c0.03-0.091,0.061,0,0.091,0.03
	C59.057,40.859,58.905,40.859,58.935,40.738C58.784,40.738,58.905,40.859,58.935,40.738z M61.146,40.466
	c-0.061,0.03-0.03,0.091,0,0.121C61.207,40.557,61.207,40.526,61.146,40.466z M61.328,39.83c-0.089,0,0,0.121,0,0.121
	C61.358,39.921,61.358,39.86,61.328,39.83C61.313,39.83,61.358,39.86,61.328,39.83z M61.419,39.678
	c-0.029-0.029-0.031-0.03-0.058-0.03c0,0.01-0.002,0.021-0.002,0.03c0.026-0.052,0.05-0.015,0.037,0.016
	C61.402,39.685,61.41,39.678,61.419,39.678C61.39,39.649,61.41,39.678,61.419,39.678z M61.419,39.527
	c-0.05,0-0.056,0.06-0.058,0.116C61.366,39.59,61.419,39.585,61.419,39.527z M61.479,39.254c0,0.061-0.061,0.091-0.061-0.03
	c-0.061,0.061-0.061,0.151-0.03,0.273C61.449,39.436,61.51,39.375,61.479,39.254C61.479,39.315,61.51,39.375,61.479,39.254z
	 M61.479,38.043c-0.03,0.061-0.061-0.03-0.091-0.061c-0.091,0.091,0.061,0.363-0.061,0.454c-0.061-0.303-0.03-0.424-0.061-0.757
	c0.03,0,0.061,0.03,0.091,0.061c-0.091,0.061,0.061,0.121,0,0.242c0.066,0-0.006-0.182,0.061-0.182c0,0.033,0.01,0.063,0.03,0.091
	c0.064-0.256-0.052-0.568-0.151-0.818c-0.018,0.018-0.016,0.032-0.021,0.048c-0.034-0.057-0.101-0.172-0.101-0.23
	c0.03,0,0.061,0.061,0.03,0.061c0.138,0.034-0.069-0.19-0.061-0.182c0.11,0.073-0.09-0.331-0.091-0.333c0-0.03,0.03-0.03,0.03,0
	c-0.057-0.511-0.424-0.956-0.424-1.454c-0.03,0.061-0.061,0.03-0.121,0c0-0.03,0.03-0.061,0.03-0.121c-0.061,0-0.061-0.03-0.091,0
	c0.03-0.061-0.061-0.151-0.091-0.182c0-0.03,0.091,0,0.121-0.061c0-0.026-0.371-0.227-0.424-0.333c-0.03,0-0.03,0.03-0.061,0.03
	c-0.03-0.061,0.061-0.03,0-0.091c-0.03,0-0.03,0.03-0.03,0.061c-0.121-0.091-0.242-0.121-0.333-0.151c-0.03,0,0,0.03,0,0.03
	c-0.03-0.03-0.091,0.03-0.091-0.061c-0.061,0.03,0.03,0.061,0.03,0.091c-0.194,0.097-0.468-0.03-0.712,0.268
	c-0.355,0.433,0.025,0.835-0.196,1.277c-0.121-0.151,0-0.363-0.121-0.485c-0.102,0.034-0.144,0.796,0.03,0.818
	c0,0.061-0.061,0-0.091,0c0.03,0.061-0.03,0.091,0,0.151c0.03,0,0.03,0.061,0.091,0.03c0.03-0.03,0-0.061,0.03-0.061
	c0-0.03-0.03-0.03-0.03-0.03c0.03-0.061,0.061-0.03,0.091,0c0.03,0.091,0,0.121,0,0.182c-0.03,0-0.03-0.03-0.03-0.03
	c0,0.03,0.061,0.242,0,0.394c-0.061-0.182-0.061-0.303-0.121-0.424c-0.026,0-0.046,0.182,0.03,0.182c0,0.061-0.03-0.03-0.091,0
	c0.061,0.061,0.061,0.061,0.121,0.091c0,0.03-0.03,0.061,0,0.091c-0.061-0.03-0.03-0.151-0.121-0.121
	c0.206,0.618,0.066,1.411,0.333,2.059c0,0.03-0.03,0.091-0.061,0.061c0,0.061,0.061,0.151,0.091,0.242
	c-0.061-0.091-0.151-0.182-0.182-0.303c-0.096,0.191,0.37,1.183,0.454,1.393c0,0.03-0.03,0-0.03-0.03
	c0.182,0.606,0.606,1.363,1.181,1.696c0.158-0.131,0.227-0.351,0.341-0.526c-0.015,0.026-0.023,0.057-0.008,0.102
	c0.182-0.303,0.303-0.606,0.394-0.999c-0.03,0,0,0.061-0.061,0.061c-0.03-0.03,0.03-0.151,0.03-0.212c0.03,0,0.03,0.061,0.091,0
	c-0.03-0.091,0.03-0.091-0.03-0.182c0-0.061,0.03,0.061,0.091,0c-0.03-0.061,0-0.061-0.061-0.091c0-0.055,0.027,0.012,0.077,0.001
	c-0.111,0.576-0.286,1.094-0.532,1.634c0.401-0.534,0.527-1.26,0.666-1.817c-0.035,0-0.006,0.099-0.063,0.058
	c-0.015-0.172,0.067-0.761,0.124-0.875c0.03,0.121-0.03,0.182,0,0.303C61.479,38.739,61.419,38.437,61.479,38.043
	C61.449,38.104,61.419,38.437,61.479,38.043z M61.177,39.648c-0.02,0.04-0.033,0.095-0.044,0.153
	C61.187,39.79,61.2,39.689,61.177,39.648z M57.209,37.619c0.03,0,0.061-0.03,0.061,0c0.061-0.03-0.061-0.03-0.061-0.121
	C57.179,37.498,57.209,37.589,57.209,37.619C57.239,37.619,57.209,37.589,57.209,37.619z M57.3,37.195
	c-0.061,0-0.061,0.061-0.091,0.121c0.03,0,0.03,0,0.061,0C57.209,37.256,57.33,37.256,57.3,37.195
	C57.239,37.195,57.33,37.256,57.3,37.195z M57.414,31.631c-0.001-0.001-0.002-0.001-0.003-0.002
	C57.413,31.629,57.413,31.63,57.414,31.631z M57.187,33.121c-0.002,0.017-0.003,0.036-0.008,0.046
	C57.225,33.213,57.201,33.171,57.187,33.121z M62.297,39.406c-0.03-0.091-0.03-0.091-0.061-0.182
	C62.206,39.254,62.206,39.436,62.297,39.406z M28.196,24.657c-0.079-0.21,0.281-0.311,0.411-0.354
	c0.445-0.149,0.393-0.08,0.567-0.565c0.137-0.38,0.493-1.155,0.991-1.11c0.387,0,0.889,0.977,0.727,1.302c0.03,0,0.03,0,0.03,0
	c-0.002-0.002,0.044,0.315,0.061,0.363l-0.03,0.03c0,0.03,0.03,0.03,0.03,0.061c-0.03,0-0.03,0-0.03,0c0,0.061,0.03,0.061,0,0.091
	c0,0,0,0,0.03,0c-0.03,0.091,0,0.091,0,0.182c0.03,0,0.03,0.03,0.061,0.03l-0.03,0.03c0.061,0,0.03-0.03,0.061-0.03
	c-0.014,0.026-0.04,0.111-0.061,0.151c0.03-0.03,0.061,0,0.061,0c0,0.062,0,0.354-0.061,0.394h0.03
	c-0.078,0.039,0.03,0.173,0.03,0.242h-0.03c0,0.03,0.03,0.03,0.03,0.03c-0.031,0-0.049,0.001-0.03,0.03c0.061,0,0-0.03,0.03-0.03
	c0,0.14-0.061,0.155-0.061,0.273c0.069-0.011,0.079-0.031,0.03-0.061c0.03,0,0.03-0.03,0.03-0.03c0.075,0-0.006,0.121,0.091,0.121
	c-0.03,0.03-0.03,0.091-0.03,0.121c-0.03,0-0.03,0-0.061,0c0,0.03-0.03,0.061-0.03,0.061c-0.03-0.03-0.03,0-0.061,0
	c0,0.03-0.061,0.061-0.061,0.091c-0.178,0-0.058,0.231-0.333,0.121c0-0.03-0.091-0.091-0.091-0.151h0.03
	c0-0.227-0.018-1.071-0.151-1.272c-0.339,0-0.642-0.182-0.969-0.182c0.03-0.03,0.061,0,0.061,0c-0.04-0.044-0.09-0.064-0.151-0.061
	c0.03,0.01,0.061,0.02,0.091,0.03c-0.061,0.03-0.121-0.03-0.182-0.03c-0.293,0.293,0.162,1.386-0.121,1.575c-0.03,0-0.061,0-0.091,0
	c0-0.218-0.153-0.488-0.165-0.728c-0.015-0.307,0.034-0.609,0.104-0.907c-0.106-0.026-0.717-0.048-0.606,0.212
	C28.297,24.677,28.246,24.667,28.196,24.657C28.105,24.414,28.226,24.687,28.196,24.657z M30.588,25.384c0,0.061,0,0.121,0.03,0.182
	c0.038-0.038,0.038-0.144,0-0.182C30.588,25.414,30.588,25.384,30.588,25.384z M30.285,24.293h-0.008
	c0,0.001,0.002,0.002,0.003,0.004C30.283,24.296,30.283,24.293,30.285,24.293z M29.286,24.293c0.394,0.03,0.757,0.121,1.09,0.212
	c0-0.103-0.09-0.063-0.099-0.181c-0.007,0.01-0.012,0.02-0.022,0.03c0.016-0.019,0.023-0.039,0.02-0.061h-0.02c-0.03,0,0,0,0-0.03
	c0.017,0.009,0.015,0.017,0.019,0.026c-0.011-0.105-0.028-0.221-0.05-0.329c-0.03,0.03,0,0-0.03,0c0.03-0.03,0.061-0.03,0.061-0.061
	c-0.061,0-0.03,0.061-0.061,0.03c0-0.091,0-0.151-0.03-0.242c-0.03,0-0.03,0-0.03,0c0.089-0.089-0.094-0.617-0.121-0.727
	c-0.151,0.121-0.242,0.303-0.363,0.454c-0.008,0-0.015,0-0.03,0C29.491,23.638,29.286,24.032,29.286,24.293
	C29.68,24.324,29.286,24.263,29.286,24.293z M30.255,24.778c-0.091,0.03-0.151,0-0.212,0C30.073,24.808,30.225,24.808,30.255,24.778
	z M30.195,23.99c0.03,0.03,0.03,0.03,0,0.061h0.03c0,0,0-0.061,0-0.091C30.255,23.96,30.195,23.99,30.195,23.99z M30.357,24.475
	c-0.001-0.01,0-0.019-0.011-0.03C30.346,24.445,30.349,24.458,30.357,24.475z M27.923,21.931c0.061,0.03,0.121,0.091,0.212,0.091
	C28.044,21.992,27.984,21.961,27.923,21.931z M25.379,24.354c0,0.03,0,0.061,0,0.091C25.384,24.445,25.397,24.354,25.379,24.354
	C25.379,24.384,25.385,24.354,25.379,24.354z M25.743,21.871c0.03,0,0.091-0.03,0.121-0.061
	C25.803,21.81,25.803,21.871,25.743,21.871z M25.399,24.264c0-0.001,0-0.002,0-0.003C25.398,24.262,25.399,24.263,25.399,24.264z
	 M30.376,24.505c-0.011-0.011-0.015-0.021-0.019-0.03C30.358,24.492,30.357,24.505,30.376,24.505z M35.243,23.403
	c0.004-0.005,0.009-0.009,0.009-0.018C35.234,23.385,35.237,23.394,35.243,23.403z M30.982,24.657h0.03
	C31.012,24.657,30.982,24.627,30.982,24.657z M35.252,23.415c0,0-0.005-0.006-0.009-0.012c-0.009,0.012-0.021,0.021-0.021,0.042
	C35.222,23.445,35.222,23.445,35.252,23.415z M31.255,23.9c-0.03,0-0.03-0.03-0.061,0C31.194,23.93,31.224,23.9,31.255,23.9z
	 M35.761,23.708c0.001-0.018,0.006-0.032,0.006-0.051C35.767,23.68,35.758,23.698,35.761,23.708z M31.285,24.142
	c-0.03,0-0.03-0.03-0.061-0.03C31.255,24.112,31.285,24.172,31.285,24.142z M34.828,25.717c0-0.03,0-0.061-0.03-0.061
	C34.798,25.686,34.798,25.717,34.828,25.717z M34.768,25.535c0,0.03,0.03,0.061,0.03,0.061
	C34.828,25.596,34.798,25.565,34.768,25.535z M37.221,22.264C37.13,22.264,37.16,22.295,37.221,22.264L37.221,22.264z
	 M27.075,25.626v-0.03C27.075,25.596,27.045,25.626,27.075,25.626z M36.77,22.301c-0.009-0.005-0.017-0.007-0.034-0.007
	C36.743,22.295,36.759,22.299,36.77,22.301z M38.493,25.05c-0.091,0-0.212,0-0.212,0.061c0.03,0,0.03-0.03,0.061,0
	c0.147,0.018,0.145,0.092,0.11,0.161C38.55,25.176,38.569,25.089,38.493,25.05C38.402,25.05,38.569,25.089,38.493,25.05z
	 M35.404,23.688c0-0.005,0.054-0.097,0.03-0.121C35.404,23.597,35.404,23.688,35.404,23.688z M36.706,22.264
	c0-0.03,0.03,0,0.03-0.03C36.706,22.234,36.706,22.234,36.706,22.264z M38.451,25.272c-0.102,0.099-0.243,0.132-0.329,0.246
	C38.257,25.468,38.383,25.407,38.451,25.272C38.393,25.329,38.429,25.317,38.451,25.272z M31.255,23.99
	c0.03-0.03-0.03-0.061,0-0.091c0,0.03,0,0.03,0.03,0.03c0-0.061,0.03-0.182,0-0.212h-0.03c0.03,0,0.03-0.091,0.03-0.121
	c0,0,0,0.03-0.03,0c0-0.03-0.061-0.061-0.03-0.121c0.03,0.03,0.03,0.091,0.061,0.091c0.011-0.046,0.017-0.08,0.023-0.117
	c-0.067-0.004-0.065-0.056,0.007-0.156c0.011,0.006,0.014,0.013,0.016,0.021c0.035-0.21,0.129-0.395,0.196-0.596c0.03,0,0,0,0.03,0
	c0.03-0.091,0.121-0.121,0.121-0.212c0,0,0,0.03,0.03,0.03c0.03-0.03,0.03-0.061,0.03-0.061c0.03,0,0,0.03,0.03,0.03
	c0.121-0.03,0.151-0.182,0.303-0.182v-0.03c0.182,0,0.363,0,0.485,0.091c-0.03,0-0.061-0.03-0.061,0
	c0.297,0.074,0.283,0.365,0.363,0.606c0,0,0-0.03,0.03-0.03c0,0.061,0,0.061,0.03,0.121c-0.048,0.263,0.266,0.45,0.182,0.787
	c0,0,0.03,0.03,0.03,0c-0.032,0.063,0,0.181,0,0.212c0-0.02,0-0.04,0-0.061h-0.03c0,0.03,0,0.03,0.03,0.03
	c0,0.03-0.03,0.061-0.03,0.091c0,0,0,0,0.03,0c-0.03,0.03,0.03,0.03,0,0.061c0.061,0,0.03,0.085,0.03,0.151h-0.03v0.03
	c0.03,0,0-0.03,0.03-0.03c0,0.008,0.005,0.009,0.008,0.013c-0.132,0.172-0.257,0.347-0.371,0.532c-0.027,0-0.048,0-0.091,0
	c-0.235,0.29-0.596-0.066-0.787,0.03c0-0.03,0,0,0-0.03c-0.114-0.038-0.286-0.273-0.363-0.273c-0.105-0.106-0.096-0.436-0.242-0.485
	c0-0.03,0.03,0,0.03,0C31.292,24.088,31.255,24.086,31.255,23.99C31.285,23.96,31.255,24.051,31.255,23.99z M31.891,22.779
	c0.03,0.03,0.03,0,0-0.03C31.86,22.749,31.86,22.779,31.891,22.779z M31.8,22.961c0,0.03,0,0.061,0,0.091h0.03
	c0.059-0.059,0.095-0.225,0.135-0.301C31.928,22.807,31.882,22.961,31.8,22.961C31.8,22.976,31.83,22.961,31.8,22.961z
	 M31.709,23.173c0.061,0,0.061-0.03,0.061-0.091c-0.001,0.001-0.002,0.001-0.003,0.002c0.002-0.01,0.003-0.021,0.003-0.032
	c-0.01,0-0.02,0-0.03,0C31.752,23.096,31.742,23.136,31.709,23.173C31.769,23.173,31.685,23.149,31.709,23.173z M31.679,23.657
	c-0.048,0.048,0.055,0.229,0.058,0.243c0.003,0,0.023,0.142,0.033,0.181h-0.03c0,0.175,0.151,0.313,0.151,0.485
	c0.03-0.03,0.03,0,0.061,0l-0.03,0.03c0.03,0,0.03,0,0.03,0l0.03,0.061c0,0-0.03,0-0.061,0c0.04,0.041,0.119,0.093,0.182,0.121
	c0,0.03-0.03,0,0,0.03c0.03,0,0.03,0,0.03-0.03c0.076,0.007,0.136,0.038,0.182,0.091c0.03,0,0-0.03,0-0.03
	c0.396,0,0.245-0.155,0.424-0.424c0.061,0.061-0.03,0.121,0.03,0.151c0.044,0,0.104-0.248,0.03-0.273c0-0.03,0.03,0,0.03,0
	c0,0.004,0.014-0.121,0-0.121c0-0.03,0.03,0,0.03,0c-0.027-0.013-0.037-0.033-0.03-0.061c0.03,0,0,0.061,0.03,0.03
	c0-0.187,0.032-0.509-0.03-0.697c0.06,0,0-0.018,0-0.091c0.03,0.03,0.061,0.061,0.061,0.091c0.039-0.039-0.132-0.415-0.151-0.454
	c0,0,0,0,0.03,0c-0.061-0.212-0.212-0.454-0.454-0.575c-0.091,0.03-0.121,0.121-0.182,0.182c0-0.03,0.03-0.03,0.03-0.061
	c-0.091,0.091-0.151,0.182-0.212,0.303c0.03,0,0-0.03,0.03-0.03c-0.017,0.013-0.097,0.085-0.061,0.121c0,0.03,0-0.03-0.03,0
	c0,0.03,0,0.03,0.03,0.03c0-0.013-0.136,0.302-0.151,0.333c0-0.03,0.03-0.061,0.03-0.091c-0.061,0.121-0.061,0.212-0.121,0.333
	c0.02-0.02,0.026-0.011,0.028,0.005c-0.001,0-0.021,0.073-0.033,0.048C31.669,23.612,31.679,23.635,31.679,23.657
	C31.648,23.688,31.679,23.635,31.679,23.657z M37.221,22.234c0.03,0,0.03,0.03,0.061,0.03
	C37.281,22.234,37.221,22.234,37.221,22.234z M36.736,22.173c0,0,0,0,0,0.03c0,0,0,0,0.03,0L36.736,22.173z M37.221,22.325
	c0.011,0.003,0.028,0.006,0.045,0.008C37.254,22.327,37.239,22.325,37.221,22.325z M25.985,25.172c0.004-0.01,0.004-0.02,0-0.03
	V25.172z M25.383,24.437c0.003-0.058,0.009-0.115,0.016-0.173c-0.003,0.007-0.004,0.015,0.011,0.029c0-0.03,0.03-0.061,0-0.061
	c0,0.014-0.007,0.021-0.011,0.028c0.036-0.282-0.019-0.635,0.071-0.906c0,0-0.03,0.03-0.03,0c0.061-0.121,0-0.333,0.061-0.454
	l-0.03-0.03c0-0.061,0-0.121,0.03-0.212h-0.03c0-0.091,0.061-0.242,0.061-0.363c0.212-0.03,0.454,0,0.666,0.061
	c0.15,0.4-0.201,0.811-0.121,1.211c0.16-0.267,1.886-1.874,2.09-1.06c0,0.121-0.061,0.182-0.212,0.151
	c0-0.061,0.091-0.03,0.121-0.061c0-0.307-0.878,0.271-0.934,0.316c-0.313,0.249-0.567,0.555-0.732,0.926
	c0.151-0.091,0.454-0.151,0.606-0.03c0.382,0.637,0.245,1.486,0.969,1.969c0.207-0.052,0.133-0.307,0.303-0.363
	c0.03,0.182-0.061,0.394-0.182,0.545c-0.358,0.286-1.09,0.032-1.09-0.485v0.03c-0.03-0.061-0.061-0.091-0.061-0.151c0,0,0,0-0.03,0
	c0-0.466-0.242-0.942-0.242-1.423c-0.474,0.095-0.563,0.499-0.636,0.939v-0.03c-0.078,0.156,0.099,0.647-0.061,0.727
	c0.03-0.061,0.061-0.151,0.03-0.212c-0.03,0,0,0.03-0.03,0.03c0-0.111,0-0.222,0-0.333c-0.03,0,0,0.03-0.03,0.03
	c0-0.061-0.03-0.061-0.03-0.091c-0.091,0.273,0.061,0.515,0.091,0.787c0.061-0.121,0-0.242,0.03-0.363
	c0.233,0.467,0.187,0.9-0.454,0.757c-0.03,0,0,0.03-0.03,0.03c-0.074-0.074-0.091-0.519-0.091-0.606c0.03,0.03,0.03,0.03,0.03,0.061
	c0.03-0.091-0.03-0.212-0.03-0.303c0.03,0.03,0,0.03,0.03,0.061c0-0.005,0.001-0.009,0.002-0.013
	c0.004,0.06,0.028,0.139,0.028,0.195c0.031-0.123-0.061-0.243-0.061-0.363c0.03,0.03,0,0.061,0.03,0.091
	c0.005-0.122-0.005-0.244-0.03-0.363c0.015,0.061,0.015,0.121,0,0.182c-0.061-0.303-0.03-0.515-0.03-0.878
	c-0.03,0.091,0,0.182-0.03,0.242c0,0,0-0.03,0-0.061c-0.03,0.182,0,0.363,0,0.545C25.359,24.8,25.365,24.62,25.383,24.437
	C25.401,24.427,25.365,24.62,25.383,24.437z M27.227,25.838c0,0,0-0.03-0.03-0.03C27.166,25.808,27.196,25.838,27.227,25.838z
	 M25.985,23.597c0-0.03,0.061-0.03,0-0.061C25.985,23.566,25.955,23.566,25.985,23.597z M25.955,23.748c0.03,0,0.091-0.091,0-0.121
	C25.924,23.657,25.955,23.718,25.955,23.748z M25.712,25.565c-0.03,0.061,0.03,0.061,0,0.091
	C25.743,25.626,25.712,25.565,25.712,25.565z M25.864,24.96c0,0.03,0,0.03,0.03,0.03C25.864,24.99,25.894,24.96,25.864,24.96z
	 M25.864,25.323c0,0.03,0,0.061-0.03,0.091c-0.03-0.151-0.061-0.273-0.061-0.424h-0.03c0,0.067,0.026,0.848,0.151,0.848
	C25.894,25.795,25.9,25.36,25.864,25.323C25.864,25.353,25.924,25.384,25.864,25.323z M25.803,25.202c0.061-0.03,0.03-0.061,0-0.091
	C25.803,25.141,25.803,25.172,25.803,25.202z M25.773,24.203c0-0.03,0.03-0.091,0-0.121C25.773,24.112,25.743,24.172,25.773,24.203z
	 M25.743,24.899c0-0.121-0.03-0.273-0.03-0.454C25.682,24.536,25.682,24.748,25.743,24.899z M25.5,25.414v-0.03
	c0,0.005,0.002,0.012,0.002,0.017C25.506,25.387,25.5,25.272,25.5,25.414z M26.863,25.293c0,0.03,0.03,0.061,0.03,0.091
	C26.924,25.353,26.893,25.323,26.863,25.293z M35.464,25.747c0.03,0,0.03-0.03,0.03-0.03C35.464,25.747,35.464,25.717,35.464,25.747
	z M35.525,25.808c-0.015,0-0.015-0.015-0.015-0.03c-0.011,0-0.015,0-0.015,0L35.525,25.808z M35.434,25.596
	c0-0.03-0.03-0.061-0.03-0.091C35.404,25.535,35.404,25.565,35.434,25.596z M35.555,26.201c0.03,0-0.03-0.03,0.03-0.061
	c0,0,0,0-0.03,0C35.525,26.171,35.585,26.171,35.555,26.201C35.585,26.201,35.585,26.171,35.555,26.201z M33.963,22.375
	c-0.013,0.005-0.031,0.004-0.043,0.01C33.936,22.385,33.951,22.378,33.963,22.375z M32.951,23.203c0,0,0-0.061-0.03-0.061
	C32.92,23.142,32.92,23.203,32.951,23.203z M32.92,22.9c0-0.012-0.013-0.037-0.025-0.061C32.902,22.859,32.903,22.883,32.92,22.9z
	 M33.193,25.808c0.018,0.018,0.005,0.037,0.004,0.056c0.014-0.006,0-0.029,0.026-0.056C33.193,25.808,33.223,25.838,33.193,25.808z
	 M32.769,22.567c-0.052-0.031-0.072-0.082-0.061-0.151c0.03,0,0.03,0.03,0.03,0.03c0.03-0.03,0-0.03-0.061-0.061
	c0.063,0,0.091,0.023,0.091-0.03c0.207,0,0.424,0.091,0.606,0.091c0.03,0.151,0.091,0.303,0.091,0.424
	c0.033-0.067,0.14-0.303,0.242-0.303c0-0.03,0.03-0.03,0-0.03c0.091-0.061,0.151-0.121,0.273-0.151c0-0.014-0.008-0.013-0.017-0.01
	c0.119-0.044,0.278-0.05,0.441-0.05c0,0.03,0,0.03,0,0.03c0.151,0,0.182,0.121,0.303,0.151c0.03,0,0-0.03,0.03-0.03
	c0,0.03,0,0.061,0.03,0.061c0.03-0.03,0.03-0.03,0.03-0.03c0,0.091,0.091,0.121,0.121,0.182c0.03,0,0,0,0.03,0
	c0.014,0.035,0.281,0.787,0.273,0.787h-0.03c-0.03,0.03,0,0.121,0,0.182c0.03,0,0.03,0,0.03-0.03c0.012,0.012,0.01,0.025,0.011,0.04
	c0.005-0.004,0.01-0.01,0.019-0.01c0,0.011-0.007,0.02-0.014,0.028c0.007,0.017,0.022,0.037,0.074,0.063
	c0.001,0.068-0.029,0.108-0.091,0.121c0,0,0.03-0.03,0.03,0c-0.15,0.05-0.138,0.35-0.242,0.454c-0.12,0-0.204,0.242-0.363,0.242
	c0,0.03,0,0,0,0.03c-0.071,0-0.757,0.181-0.757,0c-0.061,0,0,0.061-0.03,0.061c0,0.03,0.03,0.03,0.061,0.03
	c0.109,0.436,0.061,0.821,0.061,1.242v-0.03c0.04,0.04-0.045,0.346-0.061,0.394c0,0,0,0-0.03,0v0.03h0.03
	c0,0.225-0.032,0.759-0.212,0.939c-0.053-0.042-0.104-0.042-0.151,0c-0.078,0-0.149-0.015-0.212-0.03c-0.02,0-0.114,0.037-0.151,0
	c0.03-0.03,0,0,0-0.03c-0.03,0-0.03,0-0.03,0.03c-0.03-0.03-0.061-0.03-0.091-0.03c0-0.071,0.069-0.294,0-0.363
	c0.03,0,0-0.03,0.03-0.03h-0.03c0.163,0,0.036-0.609,0.151-0.666c0,0.03-0.03,0.061,0,0.091c0.03,0,0.061-0.03,0.061-0.061
	c-0.043-0.043,0-0.175,0-0.242c-0.03,0-0.03,0.03-0.061,0.03h0.03c-0.03,0.03-0.03,0-0.03,0.03c-0.048,0,0.076-0.257,0.061-0.273
	c-0.03,0-0.03,0-0.03,0c0-0.062,0.007-0.067,0.061-0.121c-0.026,0.001-0.037,0.005-0.061,0.03c-0.053-0.053,0.091-0.091,0-0.091
	c0,0,0,0,0-0.03c-0.03,0-0.03,0-0.03,0c0.027-0.044,0.048-0.134,0-0.182c0.01,0,0.013,0.007,0.017,0.012
	c-0.002-0.01-0.008-0.021-0.008-0.03c-0.005,0.016-0.017,0.078-0.039,0.078c0.03-0.03,0-0.061,0-0.121c0.03,0,0.03,0,0.03,0.03
	c0.03,0,0-0.03,0.03-0.03h-0.03c0-0.021,0.061-0.091,0.061-0.121c0.03,0.03-0.03,0.03,0,0.061c0.03,0,0.03-0.03,0.03-0.061
	c-0.02,0-0.04,0-0.061,0c-0.056-0.056-0.05-0.172-0.121-0.242c0.03-0.03,0.03-0.061,0.03-0.091c0.03,0,0,0.03,0,0.03h0.03
	c-0.03-0.061,0.03-0.121,0.03-0.151c0.01,0-0.106,0.015-0.091,0c0,0.061,0.039-0.135,0.03-0.03c0.03-0.03,0.03-0.03,0.061-0.061
	c0-0.03-0.03,0-0.03,0c-0.03,0-0.03-0.03-0.03-0.061c-0.03,0,0,0.03-0.03,0.03c0-0.03,0.03-0.03,0-0.091l0.03,0.03
	c0.03-0.03,0-0.091,0.03-0.121c0,0-0.014-0.004-0.023-0.017c0.075-0.097,0.126-0.201,0.235-0.255
	c-0.012-0.036-0.004-0.079,0.003-0.123c0.026-0.003,0.029-0.029,0.058-0.029c-0.026-0.007-0.045,0.002-0.057,0.027
	c0.07-0.425-0.188-0.799-0.397-1.148c0,0.03,0,0.061,0,0.091c-0.038-0.075-0.128-0.333-0.242-0.333
	C32.769,22.567,32.739,22.567,32.769,22.567C32.757,22.559,32.739,22.567,32.769,22.567z M33.193,26.686
	c-0.03,0.03-0.091,0.061,0,0.091C33.193,26.816,33.193,26.686,33.193,26.686C33.163,26.716,33.223,26.686,33.193,26.686z
	 M33.314,26.232c-0.029,0-0.1,0.04-0.121,0.061c0,0.03,0.03,0.03,0.061,0.03C33.314,26.292,33.284,26.292,33.314,26.232
	C33.284,26.232,33.284,26.292,33.314,26.232z M33.284,24.384c0-0.03,0-0.061-0.03-0.091C33.253,24.354,33.223,24.384,33.284,24.384z
	 M33.284,24.475v-0.03C33.284,24.445,33.223,24.475,33.284,24.475z M33.314,25.05c0.009-0.035,0.027-0.454-0.03-0.454
	C33.284,24.738,33.287,24.915,33.314,25.05C33.344,24.929,33.284,24.899,33.314,25.05z M33.314,25.202c0,0,0.03,0.03,0.03,0.061
	C33.34,25.266,33.407,25.039,33.314,25.202z M33.375,25.686c-0.03,0-0.061,0.03-0.03,0.03
	C33.375,25.717,33.375,25.686,33.375,25.686z M33.375,25.565c0-0.03,0-0.091-0.03-0.091C33.314,25.474,33.344,25.505,33.375,25.565z
	 M33.375,25.414c-0.03,0.03-0.03,0.03-0.061,0.03C33.284,25.474,33.375,25.444,33.375,25.414z M33.768,24.596
	c0.03-0.03,0.03-0.061,0.03-0.121c-0.03,0-0.061-0.03-0.091,0C33.708,24.536,33.738,24.596,33.768,24.596
	C33.799,24.566,33.738,24.596,33.768,24.596z M33.829,24.808c-0.03-0.03,0-0.091-0.03-0.151c0,0,0,0-0.03,0.03
	C33.799,24.717,33.799,24.778,33.829,24.808z M33.799,25.081c0,0.03-0.03,0.091,0.03,0.121
	C33.829,25.172,33.829,25.111,33.799,25.081z M33.768,26.504c0,0.061-0.03,0.061,0,0.091C33.768,26.565,33.829,26.504,33.768,26.504
	z M33.768,26.656c0-0.03,0.061-0.061,0.03-0.091C33.799,26.595,33.738,26.625,33.768,26.656z M33.738,26.686
	c0.061,0.03,0.03,0.061,0.061,0.091C33.799,26.746,33.829,26.686,33.738,26.686z M33.829,26.292
	c-0.061,0.03-0.061,0.091-0.061,0.151c0.03,0,0.061-0.03,0.061-0.03C33.829,26.383,33.799,26.292,33.829,26.292
	C33.768,26.322,33.799,26.292,33.829,26.292z M33.889,26.02h-0.03c-0.015,0.03-0.015,0.061,0,0.091
	C33.859,26.045,33.868,26.072,33.889,26.02z M33.889,24.96c0,0.121,0.03,0.212,0.061,0.333C33.92,25.172,33.92,25.05,33.889,24.96z
	 M33.859,25.444c-0.038-0.099-0.048-0.079-0.03,0.061c-0.03,0,0-0.061-0.03-0.061c0,0.149-0.053,0.295,0,0.454
	c0.018-0.036,0.026-0.363,0.061-0.363c0.011,0.069,0.031,0.079,0.061,0.03c-0.03-0.03,0.061-0.151-0.03-0.182
	C33.889,25.414,33.92,25.444,33.859,25.444z M34.737,22.961c0,0.03,0,0.061,0.061,0.061C34.798,22.991,34.768,22.991,34.737,22.961z
	 M34.737,22.931h-0.03c0,0,0.004,0.017,0.02,0.024C34.724,22.951,34.724,22.944,34.737,22.931z M34.344,22.507
	c0.085,0.085,0.208,0.407,0.303,0.454h0.03C34.677,22.837,34.456,22.544,34.344,22.507C34.435,22.597,34.435,22.537,34.344,22.507z
	 M33.708,22.961c0.03,0,0.03,0,0.03,0c-0.018,0.026-0.16,0.394-0.151,0.394c0-0.03,0.03-0.061,0.061-0.091
	c0,0.05-0.056,0.061,0,0.061c-0.045,0.112-0.025,0.348,0,0.454c-0.061,0.03-0.03,0.061-0.03,0.091c0.03,0,0-0.03,0.03-0.03
	c0.007,0.027-0.003,0.048-0.03,0.061c0,0,0.03-0.03,0.03,0c-0.03,0,0,0.03,0,0.03c0-0.03,0-0.061,0.03-0.121
	c0.031,0.062,0.03,0.116,0.03,0.182c-0.016,0-0.039-0.03-0.061-0.03c0,0,0,0,0,0.03c0,0,0.03-0.03,0.03,0
	c-0.079,0,0.001,0.212,0.03,0.212c0.061-0.03-0.03-0.061,0.03-0.121c0.174,0.261,0.056,0.363,0.424,0.363c0,0-0.03,0.03,0,0.03
	c0.045-0.053,0.106-0.084,0.182-0.091c0,0.03,0,0.03,0.03,0.03c0.03-0.03,0,0,0-0.03c0.07-0.017,0.142-0.053,0.182-0.091
	c-0.03,0-0.061,0-0.061,0c0-0.03,0.03-0.061,0.03-0.061s0,0,0.03,0c0-0.03-0.03-0.03-0.03-0.03c0.03,0,0.03-0.03,0.061,0
	c0-0.144,0.151-0.247,0.151-0.394h-0.03c0-0.027,0.006-0.042,0.03-0.061c-0.017-0.023-0.017-0.091,0.03-0.091
	c-0.023-0.023,0.008-0.137,0.036-0.144c-0.008,0.075-0.008,0.07,0-0.015c-0.001,0.003,0.002,0.008-0.006,0.008
	c-0.03-0.03,0-0.061-0.03-0.061c0-0.03,0-0.03,0.03-0.03c-0.047-0.07-0.063-0.14-0.093-0.21c0.003,0.009,0.012,0.019,0.002,0.028
	c-0.028-0.028-0.151-0.298-0.151-0.273c0.03,0,0.03-0.03,0.03-0.03c-0.03-0.03-0.03,0.03-0.03,0c0.047-0.047-0.01-0.061-0.03-0.061
	c-0.03-0.03-0.03-0.061-0.03-0.061c0.03,0,0,0.03,0.03,0.03c-0.061-0.121-0.121-0.212-0.212-0.273c0,0.03,0.03,0.03,0.03,0.061
	c-0.061-0.061-0.091-0.121-0.182-0.151C33.92,22.597,33.768,22.809,33.708,22.961C33.738,22.961,33.768,22.809,33.708,22.961z
	 M33.576,22.782c-0.004,0.02,0.089-0.094,0.071-0.094c0,0,0,0.03-0.03,0C33.617,22.708,33.594,22.744,33.576,22.782
	C33.58,22.764,33.594,22.744,33.576,22.782z M33.223,26.08c0.002,0.002,0.001,0.001,0.003,0.003c0-0.001,0.002-0.002,0.002-0.003
	H33.223z M33.193,25.868c0.002,0.002,0.002,0.002,0.004,0.004c-0.001-0.003,0-0.006,0-0.009
	C33.195,25.864,33.197,25.868,33.193,25.868C33.195,25.871,33.197,25.868,33.193,25.868z M33.253,26.05
	c-0.018,0-0.017,0.016-0.022,0.027C33.231,26.073,33.238,26.065,33.253,26.05z M33.231,26.076c-0.001,0.001-0.003,0.002-0.003,0.004
	h0.025C33.239,26.08,33.232,26.08,33.231,26.076z M33.072,23.536c0,0.01,0.004,0.018,0.004,0.028
	c0.008,0.001,0.01,0.002,0.026,0.002C33.072,23.536,33.072,23.536,33.072,23.536z M33.223,25.898c0,0-0.002-0.002-0.026-0.026
	C33.199,25.881,33.206,25.89,33.223,25.898z M33.253,26.11c0,0-0.002-0.002-0.028-0.028c-0.007,0.027-0.003,0.058-0.003,0.058
	S33.223,26.11,33.253,26.11z M33.829,25.626c0.004-0.007,0.005-0.015,0.004-0.023C33.831,25.611,33.829,25.616,33.829,25.626
	C33.833,25.626,33.829,25.616,33.829,25.626z M33.405,23.99c0.001,0,0.002-0.001,0.003-0.001c0-0.001,0-0.001,0-0.002
	C33.407,23.989,33.405,23.987,33.405,23.99z M33.829,25.505c0,0.036,0.002,0.066,0.004,0.098
	C33.839,25.56,33.854,25.53,33.829,25.505z M33.708,23.99c0,0,0,0-0.03,0C33.677,24.021,33.708,23.99,33.708,23.99z M34.737,23.324
	c-0.03,0.091,0,0.121,0,0.212C34.801,23.536,34.747,23.334,34.737,23.324C34.707,23.415,34.768,23.355,34.737,23.324z
	 M31.739,23.657c0-0.091,0.03-0.151,0-0.242C31.727,23.427,31.676,23.657,31.739,23.657C31.739,23.566,31.709,23.657,31.739,23.657z
	 M34.741,23.662c-0.003,0.004-0.004,0.011-0.004,0.025C34.737,23.688,34.752,23.669,34.741,23.662z M34.741,23.662
	c0.001-0.001,0.006-0.002,0.009-0.002C34.737,23.654,34.734,23.655,34.741,23.662z M31.766,23.084
	c-0.015,0.005-0.025,0.014-0.027,0.028C31.758,23.112,31.764,23.1,31.766,23.084C31.756,23.089,31.764,23.1,31.766,23.084z
	 M31.739,23.9c-0.002,0-0.001,0.001-0.003,0.001c0,0.001,0,0.002,0,0.003C31.739,23.902,31.736,23.9,31.739,23.9z M35.373,24.505
	c0-0.02,0-0.04,0-0.061c0.03,0,0.061,0,0.03,0.03c0.119,0,0.07-0.369,0.061-0.424c-0.03,0.091-0.03,0.212-0.061,0.303h-0.03
	c-0.024-0.024,0.062-0.24,0.03-0.303h-0.03c0.03-0.061,0.061-0.182,0.03-0.273c-0.03,0.03-0.03,0.03-0.03,0.061
	c-0.03-0.03,0-0.091,0-0.121l0.03,0.03c0-0.018,0.098-0.303,0.03-0.303c0,0,0,0,0.03,0c-0.03-0.03,0-0.091,0-0.121
	c0,0,0,0.03-0.03,0.03c0.109-0.654,0.455-1.438,1.272-1.03c0.03,0-0.03,0,0-0.03c0.03,0,0.03,0.03,0.091,0.03
	c-0.013-0.013-0.02-0.019-0.027-0.024c0.075,0.015,0.141,0.054,0.118-0.007c0.11,0,0.296,0.028,0.394,0.061
	c0-0.013-0.007-0.018-0.016-0.022c0.167,0.028,0.58,0.063,0.47,0.173c-0.467-0.185-1.208-0.109-1.696,0.03
	c0,0.061,0.027,0.188,0,0.242h0.03c-0.03,0.061,0,0.121-0.03,0.151c0,0.125,0.088,0.341,0.03,0.485h0.03
	c-0.041,0.041,0,0.44,0,0.424h-0.03c0.03,0.03,0,0.061,0,0.091c0.139-0.035,1.605-0.354,1.605-0.121
	c-0.436,0.103-0.897,0.141-1.314,0.312c-0.408,0.167-0.321,0.174-0.321,0.627c0.03,0.03,0.03,0,0.03,0
	c-0.08,0,0.242,0.848,0.242,0.878c0,0-0.03,0-0.03,0.03c0,0,0.061,0.121,0.091,0.091c-0.008,0-0.018,0-0.03,0
	c0.03,0.03,0.03,0.03,0.061,0.061c0.527,0.041,1.226-0.105,1.719-0.289c-0.411,0.543-1.867,1.033-2.506,0.713
	c-0.03,0,0.03,0.03,0,0.03c-0.03-0.03,0-0.03-0.03-0.061c0.03,0,0.03,0,0.03,0s0.03-0.03-0.03-0.061c0-0.03-0.03,0-0.03,0
	c0.061-0.03,0.03-0.091,0.03-0.121c0,0,0,0.03-0.03,0.03c0-0.112-0.03-0.189-0.03-0.273c-0.009,0-0.011,0-0.015,0
	c0-0.015,0-0.03-0.015-0.03c0.001-0.003-0.061-0.138-0.061-0.03c-0.03-0.061,0.061-0.061,0.03-0.121c-0.03,0-0.03,0.03-0.061,0.03
	c0,0,0.03-0.03,0-0.03h0.03c0.03-0.121-0.091-0.303-0.091-0.454c0.026,0.091,0.002,0.061-0.03,0.061c0-0.03-0.03-0.091,0.03-0.091
	h-0.03c0-0.16-0.002-0.287,0.061-0.424c-0.169,0,0.077-0.074-0.03-0.182H35.373z M35.676,25.232c0,0.024-0.03,0.081-0.03,0.121
	C35.707,25.353,35.707,25.262,35.676,25.232C35.676,25.262,35.707,25.262,35.676,25.232z M35.676,25.141c0,0.03,0,0.091,0.03,0.121
	C35.737,25.232,35.707,25.172,35.676,25.141z M35.737,25.384c0.03,0,0,0.061,0.03,0.061C35.797,25.414,35.767,25.353,35.737,25.384z
	 M35.797,24.808c0,0.03-0.03,0.061,0,0.03c-0.02-0.02-0.003-0.018,0.013-0.02C35.804,24.814,35.797,24.808,35.797,24.808
	c0.061-0.03,0-0.091,0-0.151C35.828,24.717,35.737,24.778,35.797,24.808C35.797,24.838,35.737,24.778,35.797,24.808z M35.828,25.05
	c0-0.03,0-0.03-0.03-0.091C35.828,24.99,35.767,25.05,35.828,25.05z M35.767,24.929h0.03c0.033,0-0.051-0.115,0.016-0.028
	c0.006-0.01,0.007-0.021-0.016-0.033C35.767,24.899,35.797,24.929,35.767,24.929z M35.767,24.657c-0.03-0.03,0-0.061-0.03-0.061
	C35.767,24.627,35.707,24.657,35.767,24.657z M35.828,25.929c0,0,0-0.03-0.03-0.03C35.828,25.898,35.797,25.929,35.828,25.929z
	 M35.828,25.717c0,0,0-0.03-0.03-0.03C35.797,25.717,35.797,25.717,35.828,25.717z M35.828,25.353c0-0.03,0-0.091-0.03-0.091
	C35.828,25.293,35.797,25.353,35.828,25.353z M35.949,25.474c0-0.062-0.102-0.363-0.151-0.363
	C35.797,25.198,35.881,25.429,35.949,25.474C35.949,25.414,35.858,25.414,35.949,25.474z M35.979,24.899c0-0.061,0-0.091,0-0.182
	h-0.03c-0.078,0.157-0.01,0.51,0.091,0.636c0,0,0,0,0.061-0.03C36.04,25.172,36.04,25.05,35.979,24.899
	C35.979,24.838,36.04,25.05,35.979,24.899z M35.949,24.687c0-0.061,0.03-0.091,0-0.121C35.918,24.596,35.888,24.657,35.949,24.687z
	 M35.858,24.172c0,0.03-0.061,0.061,0,0.091c0.03,0,0-0.03,0.03-0.03C35.858,24.203,35.888,24.172,35.858,24.172
	C35.858,24.203,35.888,24.172,35.858,24.172z M35.828,23.99c0-0.03,0.03-0.061,0-0.091C35.828,23.9,35.828,23.96,35.828,23.99z
	 M35.797,24.324c0.03,0,0,0.03,0.03,0.03c0,0,0.061-0.061,0-0.061C35.828,24.293,35.797,24.293,35.797,24.324
	C35.828,24.324,35.797,24.293,35.797,24.324z M35.828,24.627c0.061-0.03,0.03-0.212,0.03-0.273
	C35.767,24.414,35.767,24.566,35.828,24.627z M35.676,24.505c-0.112,0.106,0,0.036,0,0.091c-0.03,0.061-0.061,0.182-0.03,0.273
	c0-0.283,0.131-0.619,0.091-0.939c0,0.03,0,0.03-0.03,0.03c0.026-0.077,0.047-0.157,0.055-0.252c0.001,0.004-0.002,0.01,0.006,0.01
	c0-0.043-0.001-0.183-0.03-0.212C35.707,23.839,35.676,24.142,35.676,24.505z M35.676,23.415c0,0,0,0,0.03-0.03
	C35.676,23.385,35.676,23.385,35.676,23.415z M35.676,23.445c0.03,0.03,0.061-0.03,0.03-0.03
	C35.676,23.415,35.646,23.415,35.676,23.445z M35.646,23.688c0,0.006-0.007,0.012-0.011,0.018
	C35.647,23.695,35.661,23.688,35.646,23.688z M35.616,23.779c0.03,0,0.03-0.03,0.03-0.03c-0.027-0.013-0.023-0.026-0.014-0.037
	C35.617,23.734,35.593,23.756,35.616,23.779C35.646,23.779,35.593,23.756,35.616,23.779z M35.616,23.839
	c0.03,0,0.03-0.03,0.03-0.061C35.585,23.779,35.616,23.839,35.616,23.839z M35.616,23.93c0-0.011,0.001-0.015,0.003-0.019
	C35.604,23.92,35.596,23.93,35.616,23.93z M35.525,23.657l0.03,0.03C35.555,23.688,35.555,23.657,35.525,23.657z M35.555,25.353
	c-0.004,0-0.002-0.003-0.004-0.004C35.548,25.361,35.54,25.368,35.555,25.353z M35.494,24.869c-0.008,0.016,0.095-0.061,0.03-0.061
	C35.525,24.838,35.494,24.869,35.494,24.869z M35.494,24.99c0.061,0,0.03-0.03,0.03-0.061h-0.03
	C35.494,24.96,35.525,24.96,35.494,24.99C35.555,24.99,35.525,24.96,35.494,24.99z M32.896,22.839
	c-0.017-0.035-0.036-0.072-0.036-0.09c-0.03,0.03-0.03,0-0.03,0C32.802,22.776,32.893,22.83,32.896,22.839
	C32.878,22.804,32.891,22.824,32.896,22.839z M31.8,22.961C31.8,22.961,31.83,23.021,31.8,22.961L31.8,22.961z M31.739,23.93
	c0-0.011-0.001-0.019-0.003-0.027C31.721,23.909,31.739,23.93,31.739,23.93z M32.769,24.203c0,0.03,0,0.03,0,0.061
	c0.016,0,0.039-0.03,0.061-0.03c0-0.061,0-0.091-0.03-0.151C32.769,24.112,32.769,24.203,32.769,24.203z M31.709,23.566
	c-0.006-0.011-0.006-0.021,0-0.03C31.701,23.552,31.707,23.557,31.709,23.566C31.709,23.556,31.707,23.557,31.709,23.566z
	 M32.799,24.263c-0.03,0-0.03,0-0.03,0S32.799,24.293,32.799,24.263z M31.255,23.809c0-0.03-0.03-0.061-0.03-0.091
	C31.22,23.758,31.228,23.783,31.255,23.809z M35.241,23.353c0.022-0.001,0.042-0.005,0.042-0.029h-0.03
	c0.015,0.015,0.008,0.015-0.004,0.015c0.011-0.015,0.019-0.03,0.004-0.045c-0.03,0.03-0.03,0.061-0.061,0.091c0,0,0,0,0.03,0
	C35.222,23.374,35.232,23.363,35.241,23.353C35.263,23.352,35.232,23.363,35.241,23.353z M35.404,24.414c-0.03,0-0.03,0-0.03,0
	c0,0.01,0,0.02,0,0.03C35.404,24.445,35.404,24.414,35.404,24.414z M35.283,23.627c-0.03,0-0.03,0-0.061,0
	C35.252,23.627,35.283,23.657,35.283,23.627z M31.224,23.657h-0.03c0,0,0.03,0.03,0.061,0.03
	C31.255,23.657,31.224,23.688,31.224,23.657z M35.373,26.02c-0.03-0.061-0.091-0.061-0.121-0.121
	C35.252,25.989,35.313,26.02,35.373,26.02z M35.101,22.961c0.03-0.03,0.03-0.03,0.03-0.061C35.101,22.9,35.101,22.931,35.101,22.961
	z M35.192,23.203c0-0.117,0.184,0.216,0-0.151C35.171,23.062,35.142,23.203,35.192,23.203
	C35.192,23.173,35.161,23.203,35.192,23.203z M10.055,25.505c2.217-0.41,4.291-0.324,6.514-0.11
	c2.176,0.209,4.352,0.311,6.539,0.292v-0.151c-1.961,0.018-3.924-0.033-5.877-0.223c-1.59-0.155-3.17-0.376-4.772-0.279
	c-2.286,0.138-4.477,0.715-6.786,0.611c-1.9-0.086-3.786-0.745-5.674-0.745v0.151c1.477,0,2.986,0.511,4.459,0.666
	C6.326,25.912,8.208,25.843,10.055,25.505C12.841,24.99,6.42,26.171,10.055,25.505z M56.058,25.353
	c-1.186,0.128-2.369,0.241-3.563,0.173c-1.64-0.094-3.237-0.511-4.877-0.616c-1.346-0.086-2.696-0.024-4.031,0.164
	c-1.21,0.17-2.448,0.582-3.671,0.582v0.151c1.888,0,3.774-0.66,5.674-0.746c2.311-0.105,4.504,0.473,6.793,0.611
	c1.598,0.096,3.177-0.121,4.765-0.267c1.955-0.18,3.914-0.252,5.877-0.235V25.02C59.602,24.96,57.633,25.172,56.058,25.353
	C54.09,25.565,57.633,25.172,56.058,25.353z"/>
</svg>
