<?xml version="1.0" encoding="utf-8"?>
<!-- Generator: Adobe Illustrator 16.0.0, SVG Export Plug-In . SVG Version: 6.00 Build 0)  -->
<!DOCTYPE svg PUBLIC "-//W3C//DTD SVG 1.1//EN" "http://www.w3.org/Graphics/SVG/1.1/DTD/svg11.dtd">
<svg version="1.1" id="Слой_1" xmlns="http://www.w3.org/2000/svg" xmlns:xlink="http://www.w3.org/1999/xlink" x="0px" y="0px"
	 width="115px" height="47.99px" viewBox="0 0 115 47.99" enable-background="new 0 0 115 47.99" xml:space="preserve">
<path fill="#727272" d="M24.206,28.893h-1.235V27.9c0-0.764,0.035-1.23,0.104-1.406c0.071-0.174,0.251-0.26,0.545-0.26
	c0.237,0,0.395,0.1,0.472,0.307c0.077,0.205,0.114,0.654,0.114,1.359V28.893z M11.645,39.916c-0.142-0.09-0.301-0.133-0.476-0.133
	c-0.251,0-0.465,0.086-0.646,0.256c-0.18,0.174-0.271,0.459-0.271,0.859c0,0.322,0.086,0.576,0.259,0.762
	c0.173,0.184,0.39,0.277,0.652,0.277c0.267,0,0.485-0.096,0.657-0.281c0.172-0.188,0.258-0.451,0.258-0.795
	c0-0.217-0.037-0.408-0.111-0.57C11.894,40.131,11.786,40.006,11.645,39.916z M16.712,40.996c-0.095-0.02-0.255-0.029-0.479-0.029
	h-0.472v0.924h0.645c0.222,0,0.383-0.035,0.482-0.111c0.1-0.074,0.15-0.195,0.15-0.359c0-0.109-0.031-0.203-0.091-0.279
	C16.886,41.064,16.808,41.018,16.712,40.996z M33.827,39.916c-0.142-0.09-0.301-0.133-0.478-0.133c-0.25,0-0.466,0.086-0.645,0.256
	c-0.181,0.174-0.271,0.459-0.271,0.859c0,0.322,0.086,0.576,0.259,0.762c0.173,0.184,0.39,0.277,0.652,0.277
	c0.265,0,0.484-0.096,0.657-0.281c0.172-0.188,0.258-0.451,0.258-0.795c0-0.217-0.038-0.408-0.11-0.57
	C34.076,40.131,33.967,40.006,33.827,39.916z M14.152,40.613c0.09-0.025,0.158-0.072,0.204-0.135
	c0.045-0.061,0.068-0.139,0.068-0.232c0-0.09-0.021-0.168-0.064-0.234c-0.042-0.068-0.103-0.115-0.182-0.141
	c-0.079-0.023-0.215-0.037-0.406-0.037h-0.535v0.811h0.579C13.973,40.645,14.084,40.633,14.152,40.613z M39.138,39.916
	c-0.142-0.09-0.3-0.133-0.476-0.133c-0.25,0-0.465,0.086-0.646,0.256c-0.181,0.174-0.27,0.459-0.27,0.859
	c0,0.322,0.086,0.576,0.259,0.762c0.173,0.184,0.39,0.277,0.651,0.277c0.267,0,0.485-0.096,0.657-0.281
	c0.171-0.188,0.257-0.451,0.257-0.795c0-0.217-0.036-0.408-0.11-0.57C39.388,40.131,39.28,40.006,39.138,39.916z M14.247,41.002
	c-0.09-0.029-0.221-0.043-0.391-0.043h-0.618v0.922h0.666c0.114,0,0.195-0.004,0.242-0.014c0.081-0.014,0.149-0.039,0.204-0.072
	c0.054-0.035,0.099-0.084,0.135-0.15c0.035-0.064,0.053-0.141,0.053-0.225c0-0.102-0.026-0.188-0.077-0.262
	C14.409,41.084,14.338,41.033,14.247,41.002z M98.593,22.856c0,4.466-3.43,8.087-7.66,8.087c-3.432,0-5.875-2.668-11.896-2.703
	c-12.684-0.078-0.467,19.621-17.774,19.75L1.604,47.211C0.724,47.199-0.001,46.447,0,45.518L0.046,2.56
	C0.047,1.629,0.768,0.88,1.65,0.867l54.744-0.829c6.729-0.095,12.069-0.548,15.075,7.34c2.011,5.278,1.603,10.163,7.606,10.259
	c5.015,0.08,8.189-2.87,11.856-2.87C95.163,14.767,98.593,18.389,98.593,22.856z M28.879,24.076l1.746,13.568h4.469l0.44-2.953
	c0.203-1.211,0.366-2.414,0.496-3.611c0.339,2.719,0.625,4.906,0.855,6.564h4.49l1.637-13.568h-3.549
	c-0.492,2.91-0.806,5.508-0.943,7.783l-0.851-7.783h-3.424c-0.554,4.684-0.858,7.279-0.917,7.783
	c-0.569-4.834-0.872-7.426-0.914-7.783H28.879z M7.76,37.645h3.601v-7.531l2.241,7.531h3.769V21.082h-3.602v7.457l-2.408-7.457H7.76
	V37.645z M9.404,39.521H9.049v1.102H7.668v-1.102H7.313v2.672h0.355v-1.258h1.381v1.258h0.354V39.521z M12.443,40.861
	c0-0.268-0.052-0.506-0.156-0.715c-0.104-0.211-0.255-0.377-0.454-0.494s-0.42-0.176-0.667-0.176c-0.376,0-0.685,0.125-0.922,0.375
	c-0.239,0.252-0.358,0.598-0.358,1.041c0,0.234,0.051,0.457,0.153,0.666c0.103,0.211,0.253,0.377,0.451,0.498
	c0.199,0.121,0.423,0.182,0.675,0.182c0.232,0,0.448-0.055,0.649-0.164c0.2-0.111,0.355-0.271,0.465-0.486
	C12.389,41.375,12.443,41.133,12.443,40.861z M14.902,41.418c0-0.156-0.043-0.289-0.13-0.402c-0.087-0.115-0.212-0.197-0.373-0.244
	c0.125-0.063,0.218-0.145,0.279-0.244c0.062-0.102,0.094-0.209,0.094-0.322c0-0.123-0.036-0.24-0.105-0.354
	c-0.07-0.113-0.167-0.195-0.29-0.25c-0.124-0.055-0.288-0.08-0.492-0.08h-1.003v2.672h1.02c0.171,0,0.314-0.014,0.432-0.045
	c0.117-0.029,0.215-0.072,0.292-0.131s0.143-0.141,0.196-0.25C14.875,41.66,14.902,41.545,14.902,41.418z M17.419,41.418
	c0-0.197-0.066-0.373-0.197-0.525c-0.133-0.156-0.407-0.232-0.824-0.232h-0.636v-1.139h-0.355v2.672h1.016
	c0.383,0,0.644-0.078,0.785-0.232C17.348,41.805,17.419,41.625,17.419,41.418z M18.094,39.521H17.74v2.672h0.354V39.521z
	 M20.693,41.881h-1.639v-0.912h1.475v-0.313h-1.475v-0.822h1.576v-0.313H18.7v2.672h1.994V41.881z M21.394,37.516
	c0.67,0.254,1.441,0.381,2.313,0.381c0.899,0,1.646-0.131,2.243-0.385c0.598-0.258,1.093-0.641,1.48-1.154s0.634-0.994,0.743-1.445
	c0.105-0.451,0.157-1.096,0.157-1.938v-1.004h-3.915v1.793c0,0.678-0.053,1.135-0.161,1.371c-0.104,0.234-0.316,0.354-0.634,0.354
	c-0.254,0-0.426-0.088-0.517-0.266c-0.087-0.178-0.132-0.576-0.132-1.189V31.09h5.359v-1.797c0-1.314-0.149-2.338-0.454-3.059
	c-0.303-0.727-0.833-1.311-1.587-1.75c-0.753-0.439-1.71-0.659-2.868-0.659c-0.949,0-1.787,0.182-2.52,0.548
	c-0.729,0.363-1.252,0.891-1.573,1.574c-0.322,0.688-0.482,1.623-0.482,2.809v3.961c0,1.014,0.073,1.779,0.216,2.307
	c0.143,0.531,0.398,1.016,0.771,1.455S20.727,37.264,21.394,37.516z M24.135,39.521h-2.116v0.313h0.88v2.359h0.355v-2.359h0.881
	V39.521z M26.5,41.881h-1.639v-0.912h1.475v-0.313h-1.475v-0.822h1.576v-0.313h-1.93v2.672H26.5V41.881z M29.168,42.193
	l-0.999-1.402l0.928-1.27h-0.389l-0.533,0.711c-0.082,0.105-0.152,0.203-0.212,0.299c-0.041-0.076-0.111-0.184-0.212-0.326
	l-0.486-0.684h-0.422l0.91,1.285l-1.033,1.387h0.425l0.678-0.926c0.026-0.035,0.068-0.1,0.128-0.189
	c0.035,0.055,0.071,0.109,0.11,0.162l0.675,0.953H29.168z M31.585,39.521h-0.354v1.102H29.85v-1.102h-0.355v2.672h0.355v-1.258
	h1.381v1.258h0.354V39.521z M34.625,40.861c0-0.268-0.053-0.506-0.157-0.715c-0.104-0.211-0.255-0.377-0.454-0.494
	c-0.197-0.117-0.42-0.176-0.667-0.176c-0.377,0-0.684,0.125-0.922,0.375c-0.24,0.252-0.359,0.598-0.359,1.041
	c0,0.234,0.051,0.457,0.154,0.666c0.101,0.211,0.251,0.377,0.45,0.498c0.198,0.121,0.423,0.182,0.675,0.182
	c0.232,0,0.449-0.055,0.649-0.164c0.2-0.111,0.355-0.271,0.465-0.486C34.569,41.375,34.625,41.133,34.625,40.861z M36.904,39.521
	h-1.669v1.883c0,0.225-0.02,0.367-0.059,0.428c-0.041,0.059-0.101,0.09-0.181,0.09c-0.041,0-0.09-0.016-0.147-0.045l-0.065,0.313
	c0.11,0.033,0.204,0.049,0.282,0.049c0.13,0,0.237-0.035,0.321-0.107c0.084-0.072,0.139-0.174,0.166-0.305
	c0.025-0.129,0.039-0.334,0.039-0.615v-1.377h0.959v2.359h0.354V39.521z M39.937,40.861c0-0.268-0.051-0.506-0.155-0.715
	c-0.104-0.211-0.256-0.377-0.453-0.494c-0.199-0.117-0.42-0.176-0.667-0.176c-0.378,0-0.686,0.125-0.923,0.375
	c-0.238,0.252-0.357,0.598-0.357,1.041c0,0.234,0.05,0.457,0.152,0.666c0.103,0.211,0.253,0.377,0.451,0.498
	c0.199,0.121,0.423,0.182,0.675,0.182c0.233,0,0.449-0.055,0.651-0.164c0.2-0.111,0.355-0.271,0.464-0.486
	C39.882,41.375,39.937,41.133,39.937,40.861z M42.128,39.521h-1.729v2.672h0.355v-2.359h1.374V39.521z M44.516,39.521h-0.351
	l-1.423,2.115v-2.115H42.42v2.672h0.354l1.419-2.109v2.109h0.322V39.521z M47.198,39.521h-0.35l-1.423,2.115v-2.115h-0.321v2.672
	h0.354l1.419-2.109v2.109h0.32V39.521z M47.901,34.336h-3.874v3.309h3.874V34.336z M48.236,21.082h-4.543l0.676,12.48h3.193
	L48.236,21.082z M93.751,22.827c0-1.549-1.255-2.803-2.804-2.803s-2.803,1.254-2.803,2.803c0,1.547,1.254,2.802,2.803,2.802
	S93.751,24.374,93.751,22.827z"/>
</svg>
