<?xml version="1.0" encoding="utf-8"?>
<!-- Generator: Adobe Illustrator 16.0.0, SVG Export Plug-In . SVG Version: 6.00 Build 0)  -->
<!DOCTYPE svg PUBLIC "-//W3C//DTD SVG 1.1//EN" "http://www.w3.org/Graphics/SVG/1.1/DTD/svg11.dtd">
<svg version="1.1" id="Слой_1" xmlns="http://www.w3.org/2000/svg" xmlns:xlink="http://www.w3.org/1999/xlink" x="0px" y="0px"
	 width="115px" height="48px" viewBox="0 0 115 48" enable-background="new 0 0 115 48" xml:space="preserve">
<path fill-rule="evenodd" clip-rule="evenodd" fill="#575656" d="M20.96,21.115c0,0.592-0.159,1.207-0.478,1.844
	c-0.751,1.502-2.14,2.697-4.165,3.584c-1.775,0.773-3.596,1.161-5.462,1.161c-1.002,0-2.037-0.057-3.106-0.171
	c-2.299,4.324-3.447,7.18-3.447,8.568c0,0.068,0.011,0.159,0.034,0.272c0.021,0.114,0.033,0.193,0.033,0.239
	c0,0.318-0.125,0.479-0.375,0.479c-0.364,0-0.546-0.309-0.546-0.925c0-1.552,1.023-4.506,3.072-8.864
	c-1.89-0.365-2.834-0.901-2.834-1.609c0-0.456,0.285-0.832,0.854-1.129c0.479-0.251,0.967-0.376,1.468-0.376
	c0.251,0,0.376,0.081,0.376,0.242c0,0.162-0.279,0.306-0.837,0.433s-0.836,0.328-0.836,0.605c0,0.393,0.705,0.785,2.116,1.177
	c0.865-1.798,1.719-3.448,2.561-4.95c0.25-0.432,0.637-1.058,1.16-1.877c0.342-0.478,0.922-0.717,1.741-0.717
	c0.318,0,0.479,0.08,0.479,0.239c0,0.068-0.023,0.148-0.068,0.239c-1.616,2.185-3.152,4.62-4.608,7.305
	c0.5,0.068,1.001,0.103,1.502,0.103c1.865,0,3.743-0.421,5.632-1.264c2.162-1.001,3.517-2.264,4.063-3.789
	c0.113-0.364,0.171-0.717,0.171-1.059c0-1.502-1.002-2.446-3.004-2.833c-1.389-0.273-2.959-0.41-4.711-0.41
	c-3.778,0-7.487,0.66-11.129,1.979c-0.158,0.046-0.284,0.068-0.375,0.068C0.08,19.682,0,19.613,0,19.477
	c0-0.273,0.193-0.581,0.58-0.921c0.319-0.296,0.638-0.501,0.956-0.615c2.48-0.819,5.394-1.229,8.739-1.229
	c2.366,0,4.643,0.239,6.827,0.717C19.674,17.998,20.96,19.227,20.96,21.115"/>
<path fill-rule="evenodd" clip-rule="evenodd" fill="#575656" d="M26.694,30.641c0,0.115-0.068,0.275-0.204,0.482
	c-1.002,1.629-1.946,2.674-2.834,3.133c-0.409,0.207-0.819,0.31-1.229,0.31c-1.389,0-2.082-0.987-2.082-2.961
	c0-0.321,0.022-0.666,0.067-1.033c-1.524,2.709-2.879,4.063-4.062,4.063c-0.706,0-1.059-0.387-1.059-1.161
	c0-1.183,0.568-2.611,1.707-4.283c1.138-1.674,2.241-2.691,3.312-3.056c0.387-0.159,0.762-0.239,1.126-0.239
	c0.819,0,1.411,0.285,1.775,0.854c0.068,0.114,0.103,0.193,0.103,0.239c0,0.022-0.08,0.057-0.239,0.103
	c-0.159,0.045-0.272,0.125-0.341,0.238c-0.547,0.889-0.819,2.219-0.819,3.994c0,1.639,0.353,2.458,1.058,2.458
	c0.5,0,1.212-0.552,2.134-1.656c0.922-1.104,1.417-1.655,1.484-1.655C26.66,30.469,26.694,30.526,26.694,30.641 M21.677,27.055
	c-0.092-0.021-0.193-0.033-0.308-0.033c-0.91,0-1.854,0.58-2.833,1.74c-1.389,1.685-2.082,3.062-2.082,4.131
	c0,0.478,0.158,0.717,0.478,0.717c0.5,0,1.149-0.523,1.946-1.57C19.992,30.629,20.926,28.967,21.677,27.055z"/>
<path fill-rule="evenodd" clip-rule="evenodd" fill="#575656" d="M35.706,30.605c0,0.091-0.022,0.183-0.067,0.273
	c-0.751,1.184-2.015,1.945-3.789,2.287c-0.137,0.683-0.484,1.229-1.042,1.638c-0.558,0.41-1.189,0.615-1.895,0.615
	c-1.047,0-2.014-0.393-2.901-1.178s-1.331-1.689-1.331-2.714c0-0.66,0.182-0.99,0.546-0.99c0.228,0,0.467,0.159,0.717,0.478
	c0.364-0.363,0.927-1.212,1.689-2.542c0.763-1.332,1.395-2.281,1.896-2.852c0.796-0.909,1.604-1.365,2.423-1.365
	c0.318,0,0.644,0.103,0.974,0.308c0.329,0.204,0.495,0.456,0.495,0.751c0,0.182-0.263,0.273-0.785,0.273
	c-0.524,0-1.002,0.164-1.435,0.494s-0.648,0.746-0.648,1.246c0,0.183,0.034,0.376,0.103,0.58c0.296,0.752,0.58,1.491,0.854,2.22
	c0.295,0.887,0.443,1.661,0.443,2.321c1.343-0.205,2.47-0.876,3.38-2.015c0.068-0.068,0.125-0.103,0.171-0.103
	C35.639,30.332,35.706,30.424,35.706,30.605 M30.279,33.303c-1.89,0.022-3.426-0.376-4.609-1.195l-0.102,0.103
	c0.614,1.502,1.581,2.253,2.901,2.253C29.357,34.463,29.96,34.076,30.279,33.303z M30.449,32.21c0-0.501-0.193-1.434-0.58-2.8
	c-0.387-1.273-0.546-2.094-0.478-2.457c-1.207,1.911-2.253,3.402-3.141,4.472c1.388,0.683,2.787,1.058,4.198,1.127
	C30.449,32.438,30.449,32.324,30.449,32.21z"/>
<path fill-rule="evenodd" clip-rule="evenodd" fill="#575656" d="M42.943,30.537c0,0.092-0.046,0.205-0.137,0.342
	c-0.593,0.819-1.514,1.661-2.766,2.525c-1.388,0.934-2.525,1.399-3.413,1.399c-1.298,0-1.946-0.943-1.946-2.833
	c0-1.456,0.41-3.026,1.229-4.711c-1.594,0-2.39-0.295-2.39-0.887c0-0.137,0.113-0.205,0.341-0.205c0.273,0,0.705,0.023,1.298,0.068
	c0.592,0.045,1.035,0.068,1.331,0.068c0.137-0.228,0.637-1.139,1.502-2.731c0.66-1.251,1.206-2.071,1.639-2.458
	c0.318-0.318,0.762-0.478,1.331-0.478c0.501,0,0.751,0.103,0.751,0.307c0,0.023-0.012,0.057-0.034,0.103
	c-0.318,0.41-0.773,0.99-1.365,1.741c-1.002,1.343-1.81,2.55-2.424,3.618c0.318,0.023,0.773,0.034,1.365,0.034
	c0.159,0,0.398-0.011,0.717-0.034c0.319,0,0.558,0,0.718,0c0.272,0,0.409,0.068,0.409,0.205c0,0.342-1.184,0.547-3.55,0.615
	c-0.364,0.568-0.706,1.365-1.024,2.389c-0.319,1.024-0.478,1.866-0.478,2.526c0,1.184,0.443,1.775,1.331,1.775
	c0.751,0,1.673-0.387,2.765-1.161c0.934-0.659,1.673-1.354,2.219-2.082c0.159-0.205,0.308-0.308,0.444-0.308
	C42.897,30.366,42.943,30.424,42.943,30.537"/>
<path fill-rule="evenodd" clip-rule="evenodd" fill="#575656" d="M53.013,30.4c0,0.183-0.067,0.376-0.204,0.581
	c-1.775,2.821-3.539,4.232-5.292,4.232c-1.274,0-1.911-0.74-1.911-2.219c0-1.411,0.478-2.901,1.434-4.472
	c-0.137,0.045-0.284,0.068-0.443,0.068c-0.364,0-0.718-0.113-1.059-0.342c-0.409-0.25-0.614-0.535-0.614-0.854
	c-0.251,0.569-0.717,1.377-1.4,2.424c-0.842,1.32-1.398,1.979-1.672,1.979c-0.092,0-0.137-0.045-0.137-0.136
	s0.057-0.217,0.171-0.376c0.888-1.206,1.786-2.765,2.696-4.677c-0.046-0.205-0.068-0.455-0.068-0.751
	c0-0.522,0.103-1.126,0.308-1.809c0.228-0.865,0.534-1.297,0.922-1.297c0.25,0,0.466,0.205,0.648,0.615
	c0.159,0.319,0.239,0.626,0.239,0.921c0,0.569-0.467,1.399-1.4,2.492c0.205,0.706,0.604,1.058,1.195,1.058
	c0.409,0,0.808-0.221,1.194-0.665s0.66-0.665,0.819-0.665c0.205,0,0.387,0.084,0.546,0.256c0.159,0.17,0.239,0.369,0.239,0.598
	c0-0.023-0.398,0.738-1.194,2.286c-0.797,1.548-1.195,2.743-1.195,3.584c0,0.798,0.376,1.195,1.127,1.195
	c0.637,0,1.365-0.364,2.185-1.092c0.523-0.479,1.138-1.161,1.844-2.049c0.568-0.728,0.864-1.093,0.887-1.093
	C52.967,30.195,53.013,30.264,53.013,30.4"/>
<path fill-rule="evenodd" clip-rule="evenodd" fill="#575656" d="M62.674,30.641c0,0.115-0.068,0.275-0.205,0.482
	c-1.002,1.629-1.945,2.674-2.833,3.133c-0.41,0.207-0.819,0.31-1.229,0.31c-1.388,0-2.082-0.987-2.082-2.961
	c0-0.321,0.022-0.666,0.068-1.033c-1.524,2.709-2.879,4.063-4.063,4.063c-0.705,0-1.058-0.387-1.058-1.161
	c0-1.183,0.568-2.611,1.706-4.283c1.138-1.674,2.241-2.691,3.312-3.056c0.387-0.159,0.763-0.239,1.127-0.239
	c0.819,0,1.41,0.285,1.774,0.854c0.068,0.114,0.103,0.193,0.103,0.239c0,0.022-0.08,0.057-0.238,0.103
	c-0.16,0.045-0.273,0.125-0.342,0.238c-0.546,0.889-0.819,2.219-0.819,3.994c0,1.639,0.353,2.458,1.059,2.458
	c0.5,0,1.211-0.552,2.133-1.656c0.922-1.104,1.417-1.655,1.485-1.655S62.674,30.526,62.674,30.641 M57.655,27.055
	c-0.091-0.021-0.193-0.033-0.307-0.033c-0.911,0-1.855,0.58-2.834,1.74c-1.388,1.685-2.082,3.062-2.082,4.131
	c0,0.478,0.159,0.717,0.479,0.717c0.5,0,1.148-0.523,1.945-1.57C55.971,30.629,56.904,28.967,57.655,27.055z"/>
<path fill-rule="evenodd" clip-rule="evenodd" fill="#575656" d="M75.782,30.284c0,0.091-0.023,0.159-0.068,0.205
	c-0.569,0.796-1.207,1.536-1.912,2.219c-0.979,0.91-1.798,1.365-2.458,1.365c-1.069,0-1.604-1.184-1.604-3.55
	c0-0.364,0.012-0.773,0.034-1.229c-0.819,0.729-1.74,2.037-2.765,3.926c-0.341,0.638-0.717,0.956-1.127,0.956
	c-0.136,0-0.238-0.046-0.307-0.137c-0.068-0.25-0.103-0.568-0.103-0.956c0-0.659,0.147-1.865,0.443-3.618
	c0.159-0.888,0.239-1.456,0.239-1.707c0-0.182-0.034-0.273-0.103-0.273c-0.388,0.342-1.013,1.082-1.877,2.22
	c-0.934,1.229-1.935,2.674-3.004,4.335c-0.137,0.205-0.251,0.308-0.342,0.308c-0.183,0-0.273-0.205-0.273-0.615
	c0-0.113,0.012-0.204,0.034-0.272c0.523-1.229,1.059-2.958,1.604-5.189c0.046-0.318,0.137-0.773,0.273-1.365
	c0.045-0.158,0.198-0.318,0.461-0.478c0.261-0.159,0.483-0.239,0.665-0.239c0.159,0,0.239,0.068,0.239,0.205
	c0,0.228-0.535,1.957-1.604,5.188c0.819-1.092,1.661-2.219,2.526-3.38c0.273-0.363,0.683-0.91,1.229-1.638
	c0.342-0.41,0.694-0.614,1.059-0.614c0.363,0,0.546,0.204,0.546,0.614c0,0.296-0.08,0.882-0.239,1.758s-0.341,2.156-0.546,3.841
	c0.637-0.91,1.627-2.242,2.97-3.994c0.364-0.433,0.729-0.648,1.093-0.648c0.342,0,0.512,0.216,0.512,0.648
	c0,0.363-0.057,0.904-0.17,1.621c-0.114,0.717-0.171,1.258-0.171,1.622c0,1.183,0.307,1.774,0.921,1.774
	c0.865,0,1.969-0.956,3.312-2.867c0.137-0.228,0.25-0.342,0.342-0.342C75.725,29.977,75.782,30.079,75.782,30.284"/>
<path fill-rule="evenodd" clip-rule="evenodd" fill="#575656" d="M81.892,30.113c0,0.159-0.08,0.342-0.238,0.546
	c-2.071,2.754-3.835,4.131-5.292,4.131c-1.251,0-1.877-0.671-1.877-2.014c0-0.683,0.228-1.616,0.683-2.8
	c0.41-1.092,0.842-1.945,1.297-2.561c0.137-0.205,0.296-0.307,0.479-0.307c0.204,0,0.393,0.092,0.563,0.273
	c0.171,0.182,0.257,0.375,0.257,0.58c0,0.114-0.047,0.238-0.137,0.375c-1.139,1.775-1.707,3.255-1.707,4.438
	c0,0.819,0.296,1.229,0.888,1.229c0.659,0,1.399-0.364,2.219-1.092c0.546-0.479,1.148-1.138,1.81-1.98
	c0.568-0.728,0.864-1.093,0.887-1.093C81.835,29.84,81.892,29.932,81.892,30.113 M79.604,23.935c0,0.273-0.108,0.518-0.324,0.733
	c-0.217,0.217-0.473,0.324-0.768,0.324c-0.547,0-0.819-0.272-0.819-0.818c0-0.273,0.107-0.518,0.324-0.734
	c0.216-0.216,0.472-0.324,0.768-0.324C79.332,23.115,79.604,23.389,79.604,23.935z"/>
<path fill-rule="evenodd" clip-rule="evenodd" fill="#575656" d="M12.941,40.037l-0.439,0.102c-0.023,0.134-0.043,0.305-0.058,0.514
	s-0.021,0.396-0.02,0.561c-0.21,0.082-0.382,0.146-0.515,0.189s-0.291,0.083-0.476,0.118c-0.184,0.034-0.385,0.052-0.603,0.052
	c-0.361,0-0.679-0.057-0.953-0.17c-0.274-0.114-0.502-0.267-0.68-0.457c-0.179-0.192-0.312-0.405-0.397-0.639
	c-0.086-0.235-0.129-0.471-0.129-0.709c0-0.28,0.048-0.549,0.143-0.804c0.096-0.256,0.235-0.483,0.421-0.684
	c0.185-0.201,0.411-0.358,0.68-0.473c0.268-0.114,0.571-0.172,0.91-0.172c0.054,0,0.095,0.001,0.125,0.003s0.068,0.004,0.114,0.005
	c0.046,0.002,0.107,0.005,0.184,0.009c0.224,0.015,0.436,0.022,0.635,0.022c0.185,0,0.335-0.006,0.45-0.017l0.039,0.917h-0.039
	l-0.176-0.612c-0.069-0.019-0.156-0.037-0.261-0.057s-0.222-0.036-0.353-0.051s-0.272-0.021-0.425-0.021
	c-0.32,0-0.599,0.052-0.835,0.155c-0.236,0.103-0.426,0.242-0.569,0.417c-0.145,0.175-0.249,0.368-0.315,0.581
	c-0.065,0.212-0.099,0.43-0.099,0.651c0,0.251,0.046,0.487,0.139,0.711s0.224,0.422,0.393,0.594c0.17,0.172,0.367,0.306,0.593,0.401
	c0.225,0.097,0.464,0.145,0.717,0.145c0.065,0,0.134-0.003,0.203-0.011c0.069-0.007,0.142-0.017,0.216-0.028
	c0.074-0.013,0.158-0.025,0.254-0.04c0.038-0.163,0.058-0.335,0.058-0.517c0-0.251-0.02-0.448-0.058-0.591l-0.709-0.096v-0.033
	h1.835V40.037z M11.159,37.567v-0.021c-0.123-0.012-0.234-0.017-0.333-0.017c-0.297,0-0.569,0.051-0.819,0.153
	S9.54,37.93,9.358,38.115c-0.183,0.187-0.323,0.407-0.423,0.662c-0.101,0.256-0.15,0.529-0.15,0.82c0,0.341,0.086,0.656,0.256,0.948
	c0.17,0.293,0.415,0.524,0.733,0.697c0.318,0.172,0.694,0.258,1.126,0.258c0.081,0,0.19-0.008,0.33-0.024v-0.022
	c-0.403,0.002-0.749-0.053-1.039-0.165c-0.289-0.111-0.522-0.263-0.7-0.455c-0.178-0.193-0.306-0.403-0.386-0.632
	s-0.119-0.458-0.119-0.688c0-0.281,0.045-0.542,0.136-0.779c0.091-0.238,0.223-0.444,0.396-0.618s0.393-0.31,0.655-0.405
	c0.263-0.097,0.56-0.145,0.889-0.145H11.159z M11.952,40.117v1.073l0.185-0.068v-1.005H11.952z"/>
<path fill-rule="evenodd" clip-rule="evenodd" fill="#575656" d="M15.337,37.488l1.189,2.837c0.153,0.37,0.333,0.737,0.538,1.102
	l0.456,0.097v0.027h-1.939v-0.027l0.747-0.097c-0.027-0.182-0.078-0.379-0.152-0.592c-0.074-0.214-0.156-0.398-0.246-0.557h-1.722
	c-0.073,0.186-0.133,0.337-0.178,0.456s-0.088,0.243-0.129,0.371s-0.068,0.235-0.081,0.321l0.72,0.097v0.027h-1.535v-0.027
	l0.505-0.097c0.123-0.212,0.235-0.446,0.338-0.703l1.272-3.235H15.337z M15.046,38.26c-0.05,0.097-0.115,0.239-0.196,0.426
	c-0.082,0.187-0.155,0.361-0.222,0.524c-0.065,0.163-0.135,0.337-0.206,0.521c-0.071,0.185-0.119,0.306-0.143,0.364
	c0.108,0.015,0.233,0.024,0.378,0.03c0.144,0.005,0.28,0.008,0.41,0.008c0.32,0,0.583-0.013,0.788-0.038
	c-0.069-0.207-0.188-0.501-0.354-0.883C15.335,38.83,15.183,38.513,15.046,38.26z M15.09,38.029l1.425,3.414h0.185l-1.519-3.646
	L15.09,38.029z"/>
<path fill-rule="evenodd" clip-rule="evenodd" fill="#575656" d="M17.734,40.589l0.209,0.676c0.104,0.048,0.227,0.086,0.367,0.115
	c0.14,0.029,0.261,0.044,0.363,0.042c0.138,0,0.264-0.024,0.378-0.072c0.114-0.047,0.208-0.107,0.28-0.181s0.128-0.156,0.166-0.249
	c0.039-0.093,0.058-0.183,0.058-0.271c0-0.181-0.061-0.334-0.184-0.458c-0.123-0.125-0.328-0.284-0.617-0.479
	c-0.288-0.194-0.497-0.356-0.627-0.486c-0.112-0.115-0.195-0.23-0.25-0.348c-0.056-0.116-0.083-0.245-0.083-0.389
	c0-0.157,0.043-0.313,0.13-0.47c0.086-0.155,0.219-0.285,0.397-0.389c0.18-0.104,0.4-0.155,0.662-0.155
	c0.119,0,0.245,0.007,0.379,0.018c0.134,0.013,0.227,0.019,0.277,0.019c0.045-0.002,0.086-0.003,0.124-0.004
	c0.039-0.001,0.069-0.003,0.092-0.006c0.023-0.003,0.048-0.006,0.073-0.01l0.017,0.939H19.91l-0.173-0.635
	c-0.255-0.111-0.477-0.167-0.665-0.167c-0.157,0-0.299,0.029-0.424,0.089c-0.126,0.06-0.224,0.142-0.293,0.245
	s-0.104,0.22-0.104,0.35c0,0.136,0.047,0.26,0.141,0.372c0.093,0.113,0.221,0.224,0.383,0.331c0.162,0.108,0.336,0.223,0.522,0.344
	c0.186,0.121,0.334,0.237,0.446,0.349c0.218,0.218,0.326,0.47,0.326,0.756c0,0.161-0.042,0.327-0.126,0.498
	c-0.084,0.172-0.227,0.316-0.426,0.436s-0.458,0.179-0.774,0.179c-0.112,0-0.248-0.007-0.408-0.02s-0.278-0.02-0.353-0.02
	c-0.035,0-0.063,0.001-0.081,0.003c-0.02,0.002-0.05,0.005-0.09,0.009s-0.064,0.005-0.071,0.005l-0.044-0.967H17.734z
	 M19.078,37.534H18.99c-0.201,0-0.388,0.041-0.558,0.121c-0.171,0.081-0.305,0.195-0.404,0.344
	c-0.099,0.148-0.147,0.315-0.147,0.503c0,0.232,0.102,0.45,0.305,0.653c0.09,0.086,0.173,0.158,0.251,0.217s0.195,0.142,0.354,0.249
	c0.157,0.106,0.283,0.195,0.377,0.264c0.095,0.068,0.172,0.134,0.232,0.196c0.165,0.165,0.247,0.349,0.247,0.552
	c0,0.14-0.038,0.273-0.114,0.402c-0.075,0.129-0.186,0.234-0.329,0.316c-0.144,0.081-0.313,0.123-0.507,0.125v0.03
	c0.224,0.007,0.423-0.032,0.598-0.118s0.309-0.2,0.4-0.341c0.093-0.142,0.139-0.286,0.139-0.437c0-0.13-0.021-0.248-0.063-0.354
	s-0.119-0.215-0.231-0.327c-0.063-0.064-0.179-0.153-0.346-0.268s-0.335-0.23-0.505-0.346c-0.171-0.117-0.296-0.212-0.374-0.287
	c-0.192-0.191-0.288-0.4-0.288-0.63c0-0.201,0.087-0.389,0.262-0.563s0.438-0.266,0.79-0.274V37.534z"/>
<path fill-rule="evenodd" clip-rule="evenodd" fill="#575656" d="M20.874,37.529h2.385c0.145,0,0.277-0.004,0.398-0.013
	c0.121-0.008,0.276-0.021,0.467-0.04l0.063,0.891h-0.033l-0.203-0.648c-0.167-0.029-0.341-0.044-0.522-0.044
	c-0.155,0-0.297,0.008-0.426,0.024c-0.128,0.017-0.266,0.044-0.414,0.082c-0.015,0.171-0.025,0.335-0.033,0.494
	c-0.008,0.158-0.013,0.304-0.017,0.439c-0.004,0.134-0.005,0.227-0.005,0.275v0.912c0,0.24,0.008,0.509,0.024,0.807
	c0.017,0.297,0.036,0.535,0.061,0.713l0.678,0.102v0.027h-2.073v-0.027l0.667-0.102c0.057-0.405,0.085-0.895,0.085-1.47v-0.995
	c0-0.204-0.004-0.407-0.014-0.606c-0.009-0.2-0.024-0.39-0.047-0.569c-0.105-0.028-0.229-0.052-0.37-0.069
	c-0.142-0.018-0.274-0.028-0.401-0.032c-0.199,0-0.396,0.017-0.591,0.05l-0.197,0.653h-0.039l0.061-0.9
	c0.056,0.004,0.135,0.012,0.239,0.026C20.721,37.522,20.807,37.529,20.874,37.529 M22.062,37.631v3.813h0.184v-3.813H22.062z"/>
<path fill-rule="evenodd" clip-rule="evenodd" fill="#575656" d="M25.099,39.913v-0.849c0-0.218-0.007-0.467-0.021-0.748
	s-0.033-0.503-0.055-0.664l-0.659-0.096v-0.027h1.805c0.342,0,0.615,0.068,0.819,0.204c0.204,0.137,0.346,0.292,0.425,0.468
	c0.079,0.175,0.118,0.325,0.118,0.451c0,0.174-0.039,0.329-0.118,0.466s-0.182,0.245-0.31,0.325
	c-0.127,0.081-0.257,0.129-0.389,0.144v0.011c0.125,0.049,0.229,0.115,0.311,0.197c0.064,0.064,0.138,0.154,0.22,0.271
	c0.083,0.116,0.191,0.275,0.327,0.477c0.136,0.202,0.244,0.359,0.327,0.473c0.082,0.113,0.158,0.206,0.228,0.277
	c0.154,0.154,0.306,0.231,0.456,0.231v0.027h-0.478c-0.268,0-0.48-0.081-0.638-0.242c-0.063-0.062-0.124-0.136-0.186-0.221
	c-0.061-0.085-0.158-0.225-0.291-0.419s-0.244-0.354-0.335-0.48c-0.091-0.127-0.162-0.217-0.216-0.27
	c-0.078-0.079-0.15-0.132-0.216-0.158c-0.064-0.026-0.16-0.04-0.287-0.04c-0.115,0-0.205,0.007-0.269,0.02
	c-0.011,0.099-0.017,0.209-0.017,0.33v0.508c0,0.214,0.022,0.497,0.068,0.849l0.684,0.097v0.027h-2.04v-0.027l0.646-0.097
	c0.027-0.185,0.049-0.445,0.065-0.78S25.099,40.067,25.099,39.913 M25.168,37.637v3.807h0.197v-3.807H25.168z M25.646,38.658v0.45
	c0,0.159,0.006,0.308,0.017,0.445c0.071,0.011,0.175,0.017,0.311,0.017c0.234,0,0.424-0.04,0.567-0.121s0.246-0.186,0.308-0.314
	s0.092-0.271,0.092-0.425c0-0.152-0.029-0.292-0.089-0.42s-0.137-0.236-0.231-0.325c-0.094-0.09-0.199-0.158-0.315-0.206
	c-0.116-0.049-0.23-0.073-0.342-0.073c-0.106,0-0.189,0.008-0.25,0.021c-0.017,0.106-0.031,0.259-0.046,0.457
	C25.652,38.361,25.646,38.526,25.646,38.658z M25.921,37.59v0.026c0.25,0.006,0.461,0.067,0.63,0.184
	c0.17,0.116,0.293,0.259,0.369,0.427c0.077,0.169,0.116,0.335,0.116,0.5c0,0.366-0.159,0.631-0.479,0.794l0.017,0.011
	c0.187-0.047,0.341-0.149,0.463-0.305s0.183-0.342,0.183-0.558c0-0.168-0.033-0.321-0.099-0.457
	c-0.066-0.137-0.155-0.251-0.269-0.342c-0.112-0.092-0.238-0.162-0.377-0.209c-0.14-0.048-0.279-0.071-0.421-0.071H25.921z
	 M26.635,40.021l0.596,0.865c0.143,0.203,0.271,0.349,0.382,0.436c0.112,0.087,0.244,0.132,0.396,0.133v-0.027
	c-0.145-0.042-0.33-0.228-0.558-0.558l-0.478-0.687c-0.103-0.15-0.198-0.264-0.288-0.341s-0.2-0.128-0.33-0.153l-0.011,0.021
	C26.446,39.776,26.543,39.879,26.635,40.021z"/>
<path fill-rule="evenodd" clip-rule="evenodd" fill="#575656" d="M31.041,37.472c0.39,0,0.728,0.064,1.014,0.195
	c0.285,0.129,0.52,0.3,0.701,0.51c0.183,0.211,0.316,0.435,0.401,0.672s0.128,0.465,0.128,0.683c0,0.249-0.048,0.494-0.145,0.733
	c-0.096,0.24-0.238,0.459-0.426,0.658c-0.188,0.198-0.42,0.357-0.697,0.477s-0.587,0.179-0.928,0.179
	c-0.492,0-0.91-0.107-1.252-0.32c-0.343-0.213-0.596-0.478-0.759-0.792c-0.163-0.315-0.244-0.623-0.244-0.923
	c0-0.266,0.052-0.523,0.155-0.772s0.254-0.472,0.45-0.669c0.197-0.196,0.433-0.351,0.708-0.463
	C30.423,37.527,30.721,37.472,31.041,37.472 M30.928,37.579v-0.028c-0.256,0.002-0.506,0.057-0.749,0.165
	c-0.244,0.108-0.458,0.255-0.644,0.439c-0.185,0.185-0.329,0.396-0.433,0.632s-0.155,0.484-0.155,0.744
	c0,0.319,0.087,0.629,0.26,0.93c0.173,0.302,0.413,0.547,0.719,0.735s0.642,0.288,1.008,0.299v-0.03
	c-0.355-0.03-0.669-0.142-0.942-0.332c-0.272-0.19-0.48-0.427-0.622-0.709c-0.142-0.281-0.213-0.573-0.213-0.876
	c0-0.249,0.041-0.488,0.124-0.717c0.082-0.229,0.201-0.433,0.357-0.612c0.155-0.18,0.343-0.325,0.563-0.438
	C30.422,37.67,30.665,37.603,30.928,37.579z M31.058,37.664c-0.284,0-0.547,0.074-0.787,0.222c-0.241,0.148-0.433,0.363-0.574,0.644
	s-0.213,0.61-0.213,0.991c0,0.41,0.077,0.757,0.232,1.04c0.154,0.282,0.353,0.492,0.596,0.629s0.493,0.204,0.751,0.204
	c0.211,0,0.41-0.04,0.599-0.12c0.189-0.081,0.357-0.198,0.506-0.354c0.148-0.154,0.265-0.345,0.348-0.571
	c0.083-0.226,0.125-0.479,0.125-0.757c0-0.381-0.044-0.685-0.132-0.912c-0.088-0.227-0.217-0.426-0.388-0.596
	c-0.145-0.145-0.309-0.251-0.493-0.319C31.443,37.697,31.253,37.664,31.058,37.664z M31.197,37.551v0.028
	c0.178,0.012,0.356,0.054,0.536,0.124c0.179,0.071,0.347,0.181,0.504,0.33c0.156,0.149,0.282,0.35,0.378,0.603
	c0.095,0.253,0.143,0.557,0.143,0.912c0,0.232-0.028,0.455-0.084,0.668c-0.056,0.212-0.146,0.408-0.27,0.588
	c-0.123,0.18-0.285,0.327-0.484,0.444c-0.2,0.117-0.438,0.189-0.717,0.217v0.03c0.234-0.011,0.456-0.061,0.667-0.15
	s0.397-0.219,0.562-0.386c0.164-0.168,0.294-0.373,0.39-0.614c0.095-0.242,0.143-0.511,0.143-0.808c0-0.324-0.05-0.61-0.148-0.858
	s-0.233-0.454-0.404-0.619c-0.17-0.165-0.359-0.29-0.566-0.374C31.637,37.602,31.421,37.557,31.197,37.551z"/>
<path fill-rule="evenodd" clip-rule="evenodd" fill="#575656" d="M39.419,39.608l-0.462,0.091c-0.049,0.181-0.074,0.348-0.074,0.5
	c0,0.119-0.005,0.221-0.014,0.306c-0.009,0.086-0.046,0.185-0.109,0.299c0.134,0.118,0.235,0.207,0.305,0.265
	s0.148,0.113,0.236,0.166c0.088,0.054,0.164,0.08,0.23,0.08c0.035,0,0.069-0.01,0.104-0.027c0.035-0.019,0.06-0.047,0.074-0.086
	h0.033c-0.012,0.127-0.063,0.224-0.152,0.292c-0.091,0.067-0.196,0.102-0.314,0.102c-0.138,0-0.26-0.026-0.367-0.078
	c-0.107-0.053-0.252-0.155-0.436-0.31c-0.134,0.117-0.285,0.211-0.456,0.281c-0.17,0.071-0.373,0.106-0.609,0.106
	c-0.28,0-0.52-0.037-0.719-0.11c-0.198-0.073-0.356-0.167-0.474-0.283c-0.117-0.115-0.2-0.236-0.25-0.363
	c-0.049-0.128-0.074-0.246-0.074-0.355c0-0.275,0.077-0.498,0.232-0.671c0.154-0.172,0.377-0.341,0.666-0.505
	c-0.059-0.106-0.105-0.196-0.142-0.271c-0.035-0.074-0.065-0.16-0.088-0.257c-0.022-0.098-0.034-0.208-0.034-0.333
	c0-0.195,0.043-0.366,0.131-0.511c0.086-0.145,0.204-0.255,0.354-0.33c0.149-0.074,0.313-0.112,0.488-0.112
	c0.247,0,0.438,0.065,0.574,0.194c0.135,0.129,0.203,0.291,0.203,0.487c0,0.239-0.087,0.436-0.26,0.588
	c-0.173,0.151-0.405,0.297-0.696,0.437c0.139,0.203,0.288,0.395,0.446,0.575s0.365,0.401,0.622,0.661v-0.247
	c0-0.184-0.024-0.347-0.074-0.489l-0.327-0.096v-0.028h1.432V39.608z M36.831,39.392l-0.019-0.036
	c-0.229,0.14-0.404,0.272-0.523,0.398c-0.12,0.126-0.201,0.248-0.242,0.364s-0.062,0.233-0.062,0.353
	c0,0.192,0.056,0.368,0.169,0.526c0.112,0.158,0.274,0.287,0.486,0.384c0.211,0.099,0.449,0.151,0.713,0.158v-0.032
	c-0.234-0.017-0.441-0.08-0.62-0.189c-0.179-0.11-0.316-0.249-0.415-0.415c-0.098-0.167-0.146-0.337-0.146-0.511
	c0-0.108,0.02-0.22,0.059-0.335c0.04-0.116,0.11-0.232,0.212-0.351S36.674,39.482,36.831,39.392z M36.887,39.469
	c-0.105,0.062-0.2,0.162-0.288,0.299c-0.087,0.138-0.13,0.304-0.13,0.5c0,0.159,0.026,0.31,0.081,0.451
	c0.054,0.141,0.127,0.263,0.22,0.366c0.092,0.104,0.197,0.184,0.315,0.24s0.238,0.085,0.358,0.085c0.146,0,0.288-0.038,0.43-0.115
	c0.143-0.077,0.259-0.182,0.351-0.313c-0.293-0.283-0.545-0.539-0.757-0.768C37.256,39.986,37.062,39.737,36.887,39.469z
	 M38.466,39.683v0.703c0,0.187-0.022,0.328-0.066,0.423c-0.542-0.511-0.959-0.974-1.25-1.389c-0.291-0.414-0.437-0.786-0.437-1.116
	c0-0.106,0.013-0.197,0.039-0.273c0.025-0.076,0.059-0.146,0.102-0.21h-0.036c-0.069,0.069-0.124,0.16-0.163,0.273
	c-0.04,0.112-0.06,0.235-0.06,0.369c0,0.224,0.074,0.472,0.223,0.743s0.349,0.551,0.601,0.837c0.251,0.285,0.554,0.595,0.907,0.928
	c-0.141,0.228-0.351,0.385-0.629,0.473l0.006,0.027c0.153-0.038,0.286-0.09,0.398-0.152c0.111-0.063,0.219-0.148,0.321-0.257
	c0.192,0.163,0.347,0.282,0.464,0.358s0.245,0.114,0.385,0.114c0.057,0,0.126-0.016,0.209-0.047V41.46h-0.071
	c-0.089,0-0.176-0.021-0.263-0.062c-0.087-0.042-0.172-0.096-0.256-0.162c-0.083-0.067-0.205-0.172-0.366-0.314
	c0.086-0.163,0.129-0.36,0.129-0.591v-0.648H38.466z M37.386,37.675c-0.128,0-0.238,0.047-0.332,0.143s-0.141,0.229-0.141,0.398
	c0,0.119,0.029,0.253,0.086,0.402s0.13,0.289,0.22,0.419c0.124-0.071,0.229-0.157,0.315-0.257s0.151-0.206,0.196-0.318
	c0.045-0.113,0.067-0.225,0.067-0.337c0-0.101-0.019-0.186-0.056-0.254c-0.038-0.069-0.087-0.118-0.148-0.149
	C37.532,37.689,37.463,37.675,37.386,37.675z M37.601,37.631v0.021c0.053,0.021,0.103,0.055,0.148,0.102
	c0.045,0.048,0.081,0.104,0.106,0.169c0.026,0.065,0.039,0.135,0.039,0.208c0,0.176-0.059,0.353-0.175,0.53
	c-0.116,0.177-0.274,0.323-0.474,0.437l0.017,0.027c0.236-0.121,0.426-0.266,0.568-0.434c0.143-0.169,0.214-0.339,0.214-0.512
	c0-0.149-0.046-0.272-0.137-0.366C37.816,37.719,37.714,37.658,37.601,37.631z"/>
<path fill-rule="evenodd" clip-rule="evenodd" fill="#575656" d="M43.94,37.557l-0.783,0.102c0,0.132,0.022,0.321,0.067,0.568
	s0.096,0.47,0.152,0.668l0.264,0.906c0.059,0.209,0.132,0.427,0.22,0.653c0.169-0.356,0.303-0.659,0.401-0.906l0.472-1.176
	c0.167-0.43,0.271-0.725,0.313-0.884H45.1c0.021,0.051,0.065,0.16,0.132,0.329c0.065,0.169,0.126,0.317,0.182,0.448l0.664,1.455
	c0.103,0.236,0.231,0.503,0.388,0.8c0.059-0.146,0.149-0.42,0.271-0.821l0.313-1.107c0.044-0.146,0.082-0.304,0.115-0.472
	c0.033-0.169,0.057-0.326,0.071-0.473l-0.799-0.091v-0.027h1.614v0.027l-0.488,0.096c-0.061,0.142-0.119,0.293-0.176,0.456
	s-0.113,0.343-0.168,0.538l-0.488,1.689c-0.081,0.282-0.154,0.544-0.219,0.785c-0.065,0.24-0.108,0.419-0.131,0.536h-0.047
	c-0.018-0.053-0.044-0.126-0.079-0.22c-0.035-0.093-0.063-0.166-0.082-0.22c-0.021-0.053-0.047-0.118-0.08-0.196
	c-0.033-0.077-0.067-0.152-0.102-0.224l-0.77-1.717c-0.157-0.324-0.259-0.528-0.305-0.612c-0.038,0.059-0.094,0.173-0.166,0.343
	c-0.072,0.171-0.114,0.273-0.125,0.308l-0.643,1.588c-0.044,0.108-0.083,0.209-0.117,0.301c-0.034,0.093-0.069,0.19-0.107,0.294
	c-0.037,0.104-0.079,0.222-0.125,0.355h-0.043c-0.033-0.185-0.117-0.522-0.253-1.013l-0.52-1.827
	c-0.121-0.425-0.256-0.813-0.403-1.165l-0.479-0.096v-0.027h2.003V37.557z M42.562,37.637l1.024,3.593h0.011l0.091-0.264
	l-0.945-3.329H42.562z M45.036,38.078l-0.082,0.226l1.332,2.947l0.079-0.247L45.036,38.078z"/>
<path fill-rule="evenodd" clip-rule="evenodd" fill="#575656" d="M50.225,41.551h-2.076v-0.027l0.67-0.102
	c0.031-0.229,0.055-0.506,0.07-0.828c0.016-0.323,0.023-0.641,0.023-0.949v-0.462c0-0.628-0.027-1.138-0.082-1.53l-0.682-0.096
	v-0.027h2.076v0.027l-0.687,0.096c-0.02,0.178-0.034,0.339-0.044,0.482c-0.009,0.144-0.017,0.317-0.024,0.521
	c-0.007,0.204-0.011,0.396-0.011,0.576v0.606c0,0.112,0.004,0.295,0.012,0.548c0.009,0.254,0.02,0.469,0.033,0.645
	s0.027,0.308,0.04,0.396l0.681,0.097V41.551z M48.986,37.637v3.807h0.192v-3.807H48.986z"/>
<path fill-rule="evenodd" clip-rule="evenodd" fill="#575656" d="M50.285,37.557v-0.027h1.388c0.092,0.124,0.21,0.274,0.355,0.45
	s0.275,0.327,0.389,0.453l1.23,1.368c0.163,0.178,0.29,0.314,0.381,0.412c0.091,0.097,0.208,0.215,0.353,0.354
	c0.011-0.126,0.019-0.244,0.022-0.354c0.004-0.11,0.005-0.213,0.005-0.311v-1.187c0-0.427-0.021-0.779-0.063-1.058l-0.668-0.102
	v-0.027h1.635v0.027l-0.668,0.107c-0.034,0.256-0.052,0.584-0.052,0.982v3.011h-0.027c-0.28-0.354-0.558-0.688-0.833-0.997
	l-1.681-1.873c-0.249-0.266-0.462-0.478-0.638-0.635c-0.025,0.249-0.038,0.481-0.038,0.698v1.738c0,0.232,0.019,0.51,0.055,0.833
	l0.698,0.102v0.027h-1.67v-0.027l0.675-0.097c0.022-0.132,0.038-0.319,0.047-0.563c0.01-0.243,0.015-0.46,0.015-0.65v-1.346
	c0-0.16-0.003-0.317-0.009-0.475c-0.006-0.156-0.016-0.312-0.03-0.465l-0.365-0.27L50.285,37.557z M51.106,37.631l3.318,3.688
	v-0.258l-3.087-3.431H51.106z"/>
<path fill-rule="evenodd" clip-rule="evenodd" fill="#575656" d="M55.367,37.557v-0.027h2.926l0.068,0.854h-0.044l-0.197-0.67
	c-0.156-0.011-0.331-0.017-0.525-0.017c-0.354,0-0.638,0.025-0.854,0.074c-0.036,0.297-0.055,0.636-0.055,1.017
	c0,0.238,0.008,0.432,0.022,0.579c0.289,0.017,0.473,0.025,0.552,0.025c0.207,0,0.421-0.012,0.64-0.036l0.124-0.467h0.047v1.17
	h-0.047l-0.129-0.494c-0.159-0.019-0.335-0.027-0.527-0.027c-0.241,0-0.462,0.011-0.659,0.033c-0.023,0.212-0.031,0.42-0.022,0.623
	c0.004,0.26,0.009,0.475,0.014,0.645c0.006,0.169,0.016,0.315,0.03,0.438c0.224,0.068,0.517,0.103,0.879,0.103
	c0.209,0,0.385-0.009,0.527-0.025l0.22-0.662h0.039l-0.061,0.86h-2.959v-0.027l0.657-0.097c0.015-0.075,0.027-0.189,0.04-0.343
	c0.012-0.154,0.022-0.327,0.031-0.519c0.009-0.19,0.016-0.352,0.02-0.48c0.003-0.129,0.005-0.242,0.005-0.339v-0.692
	c0-0.088-0.003-0.213-0.008-0.375c-0.006-0.162-0.014-0.33-0.024-0.504c-0.012-0.174-0.027-0.348-0.047-0.522L55.367,37.557z
	 M56.202,37.637v3.807h0.189v-3.807H56.202z"/>
<path fill-rule="evenodd" clip-rule="evenodd" fill="#575656" d="M60.625,41.1l0.689-0.102c0.031-0.15,0.056-0.408,0.074-0.773
	c0.018-0.365,0.027-0.65,0.027-0.854v-0.884c0-0.249-0.007-0.488-0.02-0.716c-0.013-0.229-0.03-0.409-0.052-0.543l-0.715-0.096
	v-0.027h2.041c0.293,0,0.525,0.047,0.698,0.141c0.172,0.095,0.293,0.213,0.362,0.354s0.104,0.289,0.104,0.445
	c0,0.278-0.093,0.498-0.279,0.66c-0.186,0.162-0.411,0.255-0.677,0.279v0.011c0.274,0.013,0.509,0.069,0.702,0.17
	s0.339,0.23,0.438,0.389c0.1,0.159,0.148,0.329,0.148,0.51c0,0.153-0.038,0.312-0.113,0.473c-0.076,0.161-0.215,0.3-0.415,0.416
	s-0.47,0.175-0.807,0.175h-2.208V41.1z M61.495,37.207v3.813h0.192v-3.813H61.495z M62.366,39.091c-0.18,0-0.305,0.014-0.376,0.039
	c-0.015,0.134-0.022,0.352-0.022,0.653c0,0.359,0.013,0.703,0.039,1.033c0.104,0.059,0.198,0.099,0.281,0.121
	c0.083,0.021,0.187,0.032,0.309,0.032c0.194,0,0.364-0.033,0.509-0.1c0.145-0.067,0.258-0.167,0.339-0.301
	c0.082-0.134,0.122-0.297,0.122-0.489s-0.046-0.362-0.139-0.511c-0.092-0.148-0.229-0.266-0.409-0.351S62.621,39.091,62.366,39.091z
	 M62.36,37.256c-0.141,0-0.247,0.012-0.318,0.033c-0.046,0.294-0.068,0.641-0.068,1.041c0,0.293,0.006,0.481,0.017,0.563
	c0.08,0.033,0.189,0.049,0.326,0.049c0.184,0,0.347-0.032,0.489-0.1s0.256-0.166,0.338-0.297c0.083-0.131,0.124-0.292,0.124-0.484
	c0-0.148-0.031-0.283-0.094-0.405s-0.161-0.219-0.297-0.291S62.569,37.256,62.36,37.256z M62.435,37.171v0.021
	c0.2,0.006,0.37,0.047,0.51,0.123c0.141,0.076,0.245,0.18,0.314,0.31c0.07,0.132,0.104,0.282,0.104,0.453
	c0,0.161-0.03,0.302-0.092,0.424s-0.14,0.218-0.234,0.287c-0.096,0.069-0.194,0.117-0.297,0.143v0.03
	c0.254-0.035,0.452-0.136,0.594-0.304c0.143-0.167,0.214-0.366,0.214-0.597c0-0.144-0.023-0.271-0.07-0.383
	c-0.047-0.11-0.113-0.206-0.2-0.283c-0.087-0.078-0.187-0.137-0.299-0.176c-0.111-0.04-0.238-0.06-0.382-0.06
	C62.563,37.16,62.508,37.164,62.435,37.171z M62.74,39.039v0.022c0.161,0.028,0.312,0.086,0.453,0.171
	c0.141,0.086,0.254,0.2,0.339,0.344s0.128,0.315,0.128,0.515c0,0.163-0.035,0.315-0.105,0.458c-0.071,0.142-0.186,0.258-0.344,0.35
	s-0.356,0.138-0.595,0.138v0.021c0.029,0.01,0.083,0.014,0.162,0.014c0.23,0,0.429-0.046,0.594-0.139
	c0.165-0.092,0.287-0.214,0.369-0.363c0.081-0.15,0.122-0.31,0.122-0.479c0-0.201-0.043-0.38-0.129-0.535
	c-0.086-0.156-0.214-0.279-0.384-0.37C63.182,39.096,62.978,39.046,62.74,39.039z"/>
<path fill-rule="evenodd" clip-rule="evenodd" fill="#575656" d="M66.715,37.064l1.189,2.837c0.153,0.37,0.333,0.737,0.538,1.102
	l0.456,0.097v0.027h-1.939V41.1l0.747-0.097c-0.027-0.182-0.078-0.379-0.152-0.592c-0.074-0.214-0.156-0.398-0.246-0.557h-1.722
	c-0.073,0.186-0.133,0.337-0.177,0.456c-0.045,0.119-0.089,0.243-0.13,0.371s-0.068,0.235-0.081,0.321l0.72,0.097v0.027h-1.535V41.1
	l0.505-0.097c0.123-0.212,0.235-0.446,0.338-0.703l1.272-3.235H66.715z M66.424,37.836c-0.05,0.097-0.115,0.239-0.196,0.426
	c-0.082,0.187-0.155,0.361-0.222,0.524c-0.065,0.163-0.135,0.337-0.206,0.521c-0.071,0.185-0.119,0.306-0.143,0.364
	c0.108,0.015,0.233,0.024,0.378,0.03c0.144,0.005,0.28,0.008,0.41,0.008c0.32,0,0.583-0.013,0.788-0.038
	c-0.069-0.207-0.188-0.501-0.354-0.883C66.713,38.406,66.561,38.089,66.424,37.836z M66.468,37.605l1.426,3.414h0.184l-1.52-3.646
	L66.468,37.605z"/>
<path fill-rule="evenodd" clip-rule="evenodd" fill="#575656" d="M69.736,39.489v-0.849c0-0.218-0.007-0.467-0.022-0.748
	c-0.014-0.281-0.032-0.503-0.055-0.664L69,37.133v-0.027h1.805c0.343,0,0.616,0.068,0.82,0.204c0.204,0.137,0.346,0.292,0.424,0.468
	c0.079,0.175,0.118,0.325,0.118,0.451c0,0.174-0.039,0.329-0.118,0.466c-0.078,0.137-0.182,0.245-0.309,0.325
	c-0.127,0.081-0.257,0.129-0.389,0.144v0.011c0.124,0.049,0.228,0.115,0.311,0.197c0.063,0.064,0.138,0.154,0.22,0.271
	s0.191,0.275,0.327,0.477c0.135,0.202,0.244,0.359,0.326,0.473c0.083,0.113,0.158,0.206,0.229,0.277
	c0.153,0.154,0.306,0.231,0.456,0.231v0.027h-0.479c-0.268,0-0.479-0.081-0.638-0.242c-0.062-0.062-0.124-0.136-0.185-0.221
	c-0.062-0.085-0.159-0.225-0.291-0.419c-0.133-0.194-0.245-0.354-0.336-0.48c-0.09-0.127-0.162-0.217-0.215-0.27
	c-0.079-0.079-0.151-0.132-0.216-0.158c-0.065-0.026-0.161-0.04-0.287-0.04c-0.115,0-0.205,0.007-0.27,0.02
	c-0.011,0.099-0.017,0.209-0.017,0.33v0.508c0,0.214,0.023,0.497,0.069,0.849l0.684,0.097v0.027H69V41.1l0.646-0.097
	c0.027-0.185,0.05-0.445,0.066-0.78S69.736,39.644,69.736,39.489 M69.805,37.213v3.807h0.198v-3.807H69.805z M70.283,38.234v0.45
	c0,0.159,0.005,0.308,0.016,0.445c0.072,0.011,0.176,0.017,0.312,0.017c0.234,0,0.423-0.04,0.566-0.121
	c0.145-0.081,0.246-0.186,0.308-0.314s0.092-0.271,0.092-0.425c0-0.152-0.029-0.292-0.089-0.42s-0.137-0.236-0.23-0.325
	c-0.095-0.09-0.2-0.158-0.316-0.206c-0.116-0.049-0.23-0.073-0.342-0.073c-0.106,0-0.189,0.008-0.25,0.021
	c-0.017,0.106-0.031,0.259-0.045,0.457C70.29,37.938,70.283,38.103,70.283,38.234z M70.558,37.166v0.026
	c0.251,0.006,0.461,0.067,0.63,0.184c0.17,0.116,0.293,0.259,0.37,0.427c0.077,0.169,0.115,0.335,0.115,0.5
	c0,0.366-0.159,0.631-0.479,0.794l0.017,0.011c0.188-0.047,0.342-0.149,0.463-0.305c0.122-0.155,0.183-0.342,0.183-0.558
	c0-0.168-0.033-0.321-0.099-0.457c-0.066-0.137-0.155-0.251-0.268-0.342c-0.112-0.092-0.238-0.162-0.378-0.209
	c-0.139-0.048-0.279-0.071-0.42-0.071H70.558z M71.271,39.597l0.597,0.865c0.143,0.203,0.27,0.349,0.382,0.436
	c0.111,0.087,0.243,0.132,0.396,0.133v-0.027c-0.145-0.042-0.331-0.228-0.558-0.558l-0.479-0.687
	c-0.103-0.15-0.198-0.264-0.288-0.341s-0.2-0.128-0.33-0.153l-0.011,0.021C71.083,39.353,71.181,39.455,71.271,39.597z"/>
<path fill-rule="evenodd" clip-rule="evenodd" fill="#575656" d="M49.395,46.334c-0.987,0.511-1.966,0.767-2.935,0.767
	c-0.936,0-1.94-0.097-3.015-0.291c-0.505-0.085-1.572-0.32-1.666-0.343c-1.411-0.389-2.83-0.776-4.258-1.164
	c-1.78-0.459-3.191-0.688-4.23-0.688c-1.076,0-1.613,0.22-1.613,0.661c0,0.141,0.088,0.317,0.265,0.528
	c0.44,0.547,1.251,0.97,2.433,1.27c0.934,0.247,1.859,0.37,2.776,0.37c0.053,0,0.802-0.07,2.248-0.211h0.079
	c0.115,0,0.21,0.092,0.211,0.207c0.003,0.16-0.112,0.276-0.344,0.348C38.888,47.93,38.13,48,37.072,48
	c-1.129,0-2.23-0.168-3.306-0.503c-1.322-0.423-2.23-1.014-2.724-1.771c-0.177-0.282-0.265-0.547-0.265-0.793
	c0-0.829,0.803-1.243,2.406-1.243c1.075,0,2.406,0.203,3.993,0.608c1.322,0.388,2.645,0.767,3.967,1.137
	c0.348,0.085,1.341,0.343,1.587,0.396c1.463,0.317,2.758,0.477,3.887,0.477c0.723,0,1.437-0.132,2.142-0.396
	c0.828-0.317,1.393-0.74,1.692-1.27c0.088-0.159,0.159-0.388,0.212-0.688c0.035-0.159,0.097-0.238,0.185-0.238
	c0.177,0,0.265,0.141,0.265,0.424C51.113,45.003,50.54,45.734,49.395,46.334"/>
</svg>
