<svg xmlns="http://www.w3.org/2000/svg" viewBox="0 0 483.083 483.083"><path d="M241.542 114.467c-41.933 0-75.933 34-75.933 75.933s34 75.933 75.933 75.933 75.933-34 75.933-75.933-34-75.933-75.933-75.933zm0 117.866c-22.95 0-41.933-18.7-41.933-41.933s18.7-41.933 41.933-41.933 41.933 18.7 41.933 41.933-18.983 41.933-41.933 41.933z"/><path d="M367.625 56.667C344.675 30.883 303.025 0 236.442 0c-109.367 0-166.6 88.967-166.6 176.8 0 115.033 157.25 292.683 164.05 300.333 3.117 3.683 7.65 5.95 12.467 5.95h.283c4.817 0 9.067-2.267 12.467-5.667 1.7-1.7 38.817-41.933 76.5-98.317 51.567-77.067 77.633-145.35 77.633-202.583 0-43.633-16.717-87.266-45.617-119.849zm-120.7 382.783c-36.833-44.2-142.8-178.217-142.8-262.933 0-68.567 41.65-142.517 132.6-142.517 92.65 0 142.517 73.383 142.517 142.517 0 99.733-97.184 221.85-132.317 262.933z"/></svg>