<?xml version="1.0" encoding="utf-8"?>
<!-- Generator: Adobe Illustrator 19.2.1, SVG Export Plug-In . SVG Version: 6.00 Build 0)  -->
<svg version="1.1" id="Слой_1" xmlns="http://www.w3.org/2000/svg" xmlns:xlink="http://www.w3.org/1999/xlink" x="0px" y="0px"
	 width="115px" height="48px" viewBox="0 0 115 48" enable-background="new 0 0 115 48" xml:space="preserve">
<path fill="#3F2D1F" d="M27.257,14.704l-0.274-0.27l0.02-0.426c0.652,0.286,1.715,0.593,2.233,1.103
	c0.273,0.269,0.389,0.748,0.616,1.059c0.218,0.299,0.507,0.547,0.771,0.81l-0.088,0.302l-0.653-0.095
	C29.159,16.207,28.137,15.539,27.257,14.704z M11.992,24.764c-0.018,0.387-0.1,0.842,0.181,1.154
	c0.238,0.097,0.544,0.177,0.832,0.262v-0.01c0.434,0.063,1.245-0.054,1.556-0.352v-0.009c0.245-0.127,0.431-0.344,0.672-0.485
	l0.004,0.002c0.411-0.284,0.729-0.562,1.036-0.955c-0.199-1.446-3.033-1.49-4.084-1.49c-0.303,0.193-0.259,0.407-0.306,0.689
	C11.842,23.817,12.116,24.647,11.992,24.764C11.984,24.941,12.108,24.655,11.992,24.764z M15.175,26.672
	c-1.073-0.304-2.285,0.117-3.294,0.055c0.071,0.751-0.068,1.455-0.104,2.196c-0.024,0.499,0.155,1.097,0.062,1.569
	c0.313,0.126,0.843,0.024,1.196,0.037c0.501,0.019,1.053,0.11,1.548-0.007c0.564-0.134,1.434-0.497,1.856-0.889
	c0.444-0.413,0.339-0.973,0.49-1.521C16.564,27.414,15.931,26.895,15.175,26.672C14.102,26.368,15.931,26.895,15.175,26.672z
	 M26.251,31.306c-0.005,0.028-0.013,0.055-0.026,0.081c0.1,0.106,0.22,0.191,0.353,0.252c0.055-0.02,0.112-0.037,0.169-0.051
	c0.086-0.056,0.081-0.084,0.076-0.222C26.632,31.197,26.476,31.257,26.251,31.306C26.246,31.334,26.336,31.287,26.251,31.306z
	 M23.682,29.196c-0.103,0.098-0.164,0.316-0.265,0.431c-0.13,0.147-0.339,0.228-0.48,0.368v0.074
	c0.533,0.409,1.199,0.605,1.869,0.55C24.573,30.048,24.183,29.555,23.682,29.196C23.595,29.28,24.183,29.555,23.682,29.196z
	 M36.57,29.812c0.186,3.101-0.158,6.236-1.722,8.982c-1.087,1.908-2.878,3.504-4.639,4.776c-1.234,0.891-2.375,1.655-3.751,2.287
	c-1.498,0.688-2.854,1.201-4.426,1.658c-1.491,0.433-3.003,0.343-4.547,0.456c-2.233,0.164-4.492-0.379-6.403-1.548l-0.013,0.01
	c-0.915-0.583-1.92-0.989-2.795-1.66C7.265,44,6.394,42.74,5.189,42.277c-0.485-0.792-1.211-1.404-1.712-2.179
	c-0.802-1.239-1.434-2.6-1.952-3.982c-0.534-1.426-0.982-2.885-1.376-4.355c-0.232-0.866-0.021-1.719,0.015-2.611
	c0.065-1.598,0.239-3.394,0.893-4.864c0.378-0.85,0.785-1.711,1.127-2.575c0.324-0.817,0.45-1.752,0.895-2.508
	c0.498-0.845,1.153-1.574,1.868-2.236c0.378-0.35,0.862-0.674,1.199-1.063c0.344-0.397,0.544-0.847,0.958-1.206
	c1.126-0.975,2.72-1.404,4.112-1.879l0.005-0.012c1.511-0.732,2.9-1.135,4.598-1.179c0.754-0.02,1.509-0.02,2.263-0.033
	c0.519-0.009,1.667-0.084,2.023,0.329l-0.032,0.266c-1.38,0.097-3.219,0.161-4.443,0.811c0.629,0.123,1.104,0.189,1.742,0.136
	c0.587-0.049,1.173-0.217,1.752-0.16c0.608,0.061,1.192,0.219,1.78,0.36c0.543,0.13,1.138,0.069,1.667,0.258v-0.024
	c1.257,0.909,2.732,1.265,3.947,2.12c1.115,0.784,2.084,1.517,2.998,2.542c1.334,1.496,2.417,3.135,3.341,4.923l0.355-0.073
	c-0.481-1.22-1.151-2.349-1.752-3.51c-0.219-0.422-0.684-1.128-0.677-1.613l0.082-0.056c0.666,0.297,1.285,1.322,1.617,1.928
	c0.125,0.021,0.105-0.145,0.105-0.145h0.004c-0.047-0.229-0.218-0.427-0.284-0.657c0.015-0.041,0.044-0.066,0.087-0.076
	c0.214,0.17,0.359,0.408,0.532,0.64v-0.004c0.491,0.685,0.979,1.393,1.555,2.002c0.641,0.678,0.729,0.906,1.06,1.81
	c0.231,0.632,0.479,1.131,0.671,1.783C36.622,26.599,36.865,28.358,36.57,29.812C36.615,30.558,36.706,29.141,36.57,29.812z
	 M26.803,22.171c-0.355,0.071-0.177,0.302-0.177,0.302c0.384,0.174,0.782,0.317,1.189,0.426c0.177-0.133-0.078,1.614-0.142,1.81
	c-0.231,0.977,0.248,0.196,0.248,0.196c0.457-0.17,0.673-0.857,0.82-1.268c0.048-0.133,0.087-0.506,0.185-0.606
	c0.121-0.124,0.261-0.075,0.45-0.159c0.248-0.11,1.178-0.524,0.747-0.849c-0.22-0.166-0.507,0.09-0.746-0.119
	c0.432-0.328-0.081-0.628-0.446-0.635c-0.608-0.012-0.395,0.571-0.85,0.564C26.679,21.657,26.803,22.171,26.803,22.171z
	 M25.046,22.704c0.041,0.383,0.126,0.823,0.311,1.166c0.169,0.315,0.503,0.539,0.506,0.929c0.568,0.71,0.284,0.035,0.284,0.035
	c0.016-0.903-0.209-2.275,0.55-2.964c0.19-0.013,0.333-0.248,0.248-0.426c-0.323-0.149-0.878-0.531-1.189-0.231
	c-0.091,0.581-0.458,0.248-0.59,0.39C24.987,21.795,25.053,22.459,25.046,22.704z M24.265,24.337
	c-0.372-0.018-0.752-0.046-1.077-0.235c-0.169-0.098-0.159-0.298-0.414-0.297c-0.799-1.03-0.639,0.284-0.639,0.284
	c0.086,0.336,0.279,0.635,0.55,0.852c0.509,0.192,1.081,0.104,1.509-0.231C24.957,24.426,24.265,24.337,24.265,24.337z
	 M24.212,22.811c-0.338-0.231-1.722,0.195-1.722,0.195c-0.355,0.32,0.266,0.462,0.266,0.462c0.459,0.051,0.923-0.016,1.349-0.196
	C24.85,23.218,24.212,22.811,24.212,22.811z M22.487,20.835c-0.456,0.153-0.64,0.531-0.877,0.91
	c-0.342-0.017-0.852-0.025-1.079,0.27c0,0-0.169-0.067,0,0.303c0.205,0.177,0.421,0.341,0.645,0.492
	c-0.453,0.531-0.727,1.178-1.151,1.734c-0.163,0.601,0.831,0.096,1.032-0.046c0.627-0.44,1.041-1.319,1.328-2.012
	c0.373-0.085,1.232-0.089,1.383-0.472c0.267-0.513-0.744-0.334-1.046-0.371C22.723,21.644,23.364,20.464,22.487,20.835
	C22.276,20.906,23.364,20.464,22.487,20.835z M16.857,14.623c0.36,0.746,1.906,0.547,2.588,0.791
	c0.474,0.17,0.898,0.513,1.383,0.643c0.534,0.144,1.178,0.107,1.73,0.158c-0.845-0.59-1.625-1.055-2.598-1.408
	C18.909,14.427,17.952,14.463,16.857,14.623z M13.923,15.738c0.547-0.034,1.069-0.093,1.606-0.014
	c0.713,0.106,1.004,0.336,1.652,0.014C16.104,15.198,14.842,14.635,13.923,15.738z M18.606,29.466
	c-0.084-0.512-0.085-0.967-0.286-1.467c-0.402-1.001-1.357-1.166-2.156-1.695c0.698-0.298,2.33-0.616,2.082-1.605
	c-0.415-1.654-2.71-2.335-4.144-2.523v-0.003c-0.042,0-0.083-0.002-0.125-0.006l0.008,0.002c-0.477-0.025-1.579-0.105-1.981-0.156
	c-0.004,0-0.004,0-0.008,0.01c-0.005-0.006-0.01-0.012-0.016-0.016c-0.715-0.151-1.316-0.702-2.047-0.803
	c-0.204,0.201-0.406,0.391-0.607,0.585c-0.34,0.67-0.025,1.521,0.665,1.813c-0.266,0.4-0.105,1.168-0.098,1.615
	c0.009,0.608,0.071,1.191,0.138,1.797c0.106,0.965,0.11,1.956,0.134,2.927c0.006,0.245-0.169,1.308,0,1.464h-0.01
	c-0.07,1.38,0.364,2.593,0.466,3.936c0.101,1.318,0.122,2.677-0.009,3.998c0.056-0.023,0.106-0.041,0.165-0.063
	c0.126-0.547,0.152-1.111,0.267-1.66c0.102-0.49-0.057-0.836,0.007-1.312c0.107-0.102,0.213-0.185,0.322-0.284
	c0.037-0.49-0.123-1.025-0.019-1.505c0.058-0.269,0.261-0.527,0.323-0.807c0.058-0.265,0.005-0.352,0.035-0.627
	c0.104-0.077,0.229-0.455,0.22-0.548c0.678,0.016,1.357,0.037,2.035,0.047c0.93,0.014,1.58-0.265,2.392-0.72
	C17.366,31.296,18.707,30.92,18.606,29.466z M20.201,34.735h-0.438c0,0.455,0.215,1.516-0.066,1.898
	c-0.043,0.05-0.106,0.08-0.172,0.081c-0.063-0.003-0.123-0.032-0.163-0.081c-0.064-0.094-0.072-0.289-0.062-0.41h-0.427
	c-0.015,0.26-0.005,0.541,0.202,0.733C20.373,38.046,20.201,35.25,20.201,34.735z M22.647,37.096l-0.866-2.343h-0.479l-0.866,2.343
	h0.443l0.193-0.514h0.935l0.193,0.514H22.647z M24.488,36.033c0.593-0.574,0.002-1.197-0.594-1.289c-0.287-0.044-0.611,0-0.902,0
	v2.352h0.433v-0.842C23.785,36.254,24.206,36.314,24.488,36.033C24.633,35.893,24.341,36.18,24.488,36.033z M26.784,37.096
	l-0.875-2.343h-0.473l-0.864,2.343h0.447l0.185-0.514h0.934l0.197,0.514C26.485,37.096,26.635,37.096,26.784,37.096z M28.93,34.735
	h-0.437v1.629l-0.864-1.629h-0.503v2.357h0.433v-1.635l0.862,1.635h0.509V34.735z M31.06,36.682l-1.201-0.004v-0.58h1.112v-0.406
	H29.86v-0.528h1.177v-0.419h-1.611v2.352h1.635V36.682z M33.195,36.501c0.078-0.825-1.334-0.684-1.276-1.16
	c0.005-0.069,0.035-0.133,0.084-0.181c0.28-0.243,0.696-0.024,0.698,0.323h0.427c-0.001-0.193-0.066-0.38-0.186-0.532
	c-0.149-0.209-0.398-0.323-0.654-0.3c-0.228-0.015-0.451,0.063-0.621,0.216c-1.04,1.065,1.246,1.109,1.067,1.63
	c-0.129,0.506-0.929,0.239-0.926-0.215h-0.432C31.358,37.3,33.067,37.57,33.195,36.501C33.208,36.361,33.172,36.686,33.195,36.501z
	 M33.647,32.429v0.002c0.326,0.257,0.787,0.293,1.114,0.006c0.033-0.27,0.016-0.545-0.049-0.809
	c-0.084-0.153-0.554-0.103-0.578-0.387c-0.05-1.019,0.171-2.118-0.074-3.133c0.099-0.098,0.439-0.693,0.537-0.79
	c-0.059-0.144-0.165-0.265-0.301-0.342c-0.448-0.481-1.2-0.513-1.687-0.072c-0.047,0.562-0.01,0.839-0.265,1.349
	c-0.196,0.391-0.296,0.719-0.437,1.127c-0.198,0.571-0.853,2.111-1.629,1.986c-0.759-0.123-1.382-1.609-1.601-2.249
	c-0.094-0.274-0.126-0.505-0.117-0.772c0.008-0.222,0.138-0.32,0.062-0.569c-0.107-0.348-0.569-0.572-0.823-0.796
	c-0.153-0.125-0.459-0.592-0.804-0.34c-0.079,0.151-0.108,0.311-0.088,0.48c0.119,0.196,0.085,0.371-0.103,0.527
	c-0.107,0.447-0.256,0.717-0.123,1.179c0.185,0.644,0.162,1.164,0.222,1.839c-0.372,0.209-0.816,0.238-1.227,0.099
	c-0.553-0.314-0.742-1.174-0.954-1.715c-0.276-0.702-0.724-1.36-1.238-1.916c0.064-0.176,0.09-0.363,0.075-0.55
	c-0.164-0.087-0.275-0.142-0.471-0.103c-0.308,0.298-0.322,0.633-0.517,0.967c-0.089,0.151-0.197,0.245-0.299,0.405
	c-0.241,0.382-0.386,0.789-0.552,1.206c-0.113,0.285-0.222,0.776-0.486,0.959c-0.515,0.358-0.949-0.238-1.488-0.046
	c-0.248,0.167-0.466,0.374-0.644,0.615c0.097,0.44,0.506,0.696,0.395,1.17c0.279,0.412,0.693,0.713,1.172,0.85
	c0.191-0.203,0.41-0.326,0.594-0.502c0.243-0.233,0.327-0.466,0.529-0.761c0.372-0.043,0.642-0.186,1.007-0.198
	c0.378-0.011,0.707,0.204,1.073,0.225c0.415,0.023,1.115-0.348,1.508-0.157c0.415,0.421,0.685,0.732,1.223,0.945
	c0.294,0.116,0.679,0.35,0.996,0.372c0.176-0.056,0.322-0.183,0.401-0.351c-0.193-0.597-0.229-1.234-0.105-1.849
	c0.946,0.485,1.603,1.566,2.624,2.054c0.764,0.087,1.105-0.837,1.467-1.344c0.402-0.563,0.276-1.382,0.813-1.825
	c-0.057,0.57,0.377,1.949-0.05,2.367C32.872,31.893,33.376,32.241,33.647,32.429z M35.226,36.682l-1.199-0.004v-0.58h1.111v-0.406
	h-1.111v-0.528h1.176v-0.419h-1.61v2.352h1.633V36.682z M25.362,36.158h0.628l-0.314-0.846L25.362,36.158z M21.226,36.158h0.626
	l-0.308-0.846L21.226,36.158z M23.886,35.163h-0.461v0.676c0.195,0.02,0.536,0.03,0.713-0.069c0.091-0.06,0.142-0.164,0.133-0.273
	C24.29,35.289,24.065,35.168,23.886,35.163z M38.656,36.158l0.642,0.938h-0.537l-0.618-0.896h-0.288v0.896h-0.433v-2.352
	c0.442,0,1.139-0.122,1.488,0.209C39.305,35.285,39.144,36.01,38.656,36.158z M38.566,35.695c0.075-0.057,0.117-0.147,0.112-0.241
	c0.028-0.349-0.614-0.308-0.823-0.29v0.616C38.037,35.801,38.414,35.81,38.566,35.695z M40.025,36.098h1.11v-0.406h-1.11v-0.528
	h1.175v-0.419h-1.608v2.352h1.634v-0.414l-1.2-0.004V36.098z M43,35.84c-0.21-0.111-0.935-0.156-0.922-0.499
	c0.011-0.068,0.042-0.131,0.09-0.181c0.15-0.131,0.472-0.121,0.598,0.041c0.066,0.079,0.101,0.179,0.099,0.282h0.429
	c-0.005-0.449-0.372-0.874-0.842-0.832c-1.006-0.067-0.98,1.059-0.207,1.383c1.433,0.6-0.265,1-0.27,0.249h-0.432
	c-0.005,0.231,0.083,0.454,0.243,0.62c0.325,0.358,0.948,0.393,1.311,0.075C43.472,36.67,43.427,36.069,43,35.84
	C42.886,35.78,43.113,35.9,43,35.84z M45.402,34.744h-1.83v0.415h0.689v1.937h0.438v-1.937h0.703V34.744z M46.564,34.753
	l0.872,2.343h-0.449l-0.193-0.514h-0.933l-0.191,0.514h-0.451l0.869-2.343H46.564z M46.637,36.158l-0.303-0.846l-0.319,0.846H46.637
	z M48.958,36.223c0,0.119-0.024,0.237-0.071,0.346c-0.079,0.13-0.229,0.198-0.379,0.173c-0.148,0.026-0.296-0.043-0.37-0.173
	c-0.213-0.521-0.069-1.284-0.069-1.834h-0.442c0,0.795-0.319,2.41,0.881,2.418c1.212,0.008,0.89-1.628,0.89-2.418h-0.441V36.223z
	 M51.135,36.158l0.642,0.938H51.24l-0.618-0.896h-0.293v0.896h-0.433v-2.352c0.443,0,1.14-0.121,1.492,0.209
	C51.789,35.285,51.619,36.005,51.135,36.158z M51.046,35.695c0.073-0.058,0.113-0.148,0.109-0.241
	c0.028-0.351-0.614-0.308-0.826-0.29v0.616C50.513,35.801,50.891,35.81,51.046,35.695C51.119,35.636,50.968,35.753,51.046,35.695z
	 M53.285,34.753l0.872,2.343h-0.449l-0.197-0.514h-0.932l-0.187,0.514h-0.443l0.857-2.343H53.285z M53.364,36.158l-0.312-0.846
	l-0.314,0.846H53.364z M55.87,36.364L55,34.735h-0.498v2.357h0.432v-1.635l0.862,1.635h0.508v-2.357H55.87V36.364z M56.683,35.159
	h0.697v1.937h0.435v-1.937h0.701v-0.415h-1.833V35.159z M58.905,29.691c-0.168,1.034-0.829,1.369-1.661,1.677
	c-0.31,0.115-0.919,0.259-1.192,0.409c-0.253,0.139-0.547,0.506-0.786,0.701c-0.015,0.066-0.047,0.122-0.096,0.169
	c-0.503,0.086-1.584-0.421-2.034-0.661c-0.563-0.3-1.215-0.856-1.17-1.57c0.034-0.551,0.513-1.163,0.812-1.594
	c0.167-0.241,0.62-1.068,0.969-1.172c-0.066-0.056-0.336-0.212-0.356-0.294c0.003-0.014,0.149-0.098,0.163-0.113
	c-0.015-0.062-0.057-0.125-0.077-0.185c0.032-0.276,0.696-0.313,0.868-0.318c0.943-0.179,2.032,0.388,2.765,0.885
	C57.95,28.194,58.519,28.748,58.905,29.691z M57.048,29.397L57.048,29.397c-0.053-0.823-0.702-1-1.294-1.279
	c-0.409-0.192-0.782-0.57-1.264-0.37c-0.732,0.303-0.908,1.044-1.119,1.704c-0.168,0.526-0.265,0.887,0.159,1.375
	c0.285,0.329,0.988,0.623,1.397,0.488C55.064,31.269,57.317,29.58,57.048,29.397z M51.755,29.415c0.273,0.99-1.163,1.757-1.858,2.06
	c-0.613,0.267-1.388,0.572-1.721,1.172c-0.488,0.082-1.456-0.374-1.911-0.599c-0.599-0.296-1.251-0.789-1.284-1.525
	c-0.024-0.548,0.42-1.166,0.714-1.597c0.186-0.273,0.684-1.191,1.056-1.276c-0.09-0.077-0.313-0.19-0.367-0.294
	c0.017-0.031,0.141-0.081,0.171-0.113c-0.019-0.053-0.053-0.207-0.033-0.237c0.27-0.62,2.314-0.086,2.686,0.053
	c0.618,0.232,1.309,0.744,1.797,1.19C51.386,28.596,51.44,29.042,51.755,29.415z M50.051,29.397
	c-0.073-0.828-0.698-0.996-1.301-1.28c-0.409-0.193-0.778-0.567-1.26-0.369c-0.679,0.278-1.031,1.094-1.287,1.704
	c-0.207,0.495-0.293,0.918,0.136,1.376c0.294,0.314,1.196,0.617,1.588,0.487C48.084,31.263,50.267,29.505,50.051,29.397
	C50.035,29.208,50.019,29.381,50.051,29.397z M41.78,32.498c-0.528,0.359-1.946,0.05-2.557,0.036v0.254
	c-0.426,0.145-1.02,0.319-1.481,0.322c-0.101-0.145-0.4-0.403-0.503-0.551c-0.118-0.329,0.074-0.953,0.546-0.947
	c-0.098-0.772-0.017-1.605-0.009-2.384h0.009c-0.071-1.206-0.206-2.42-0.195-3.629c0.06-0.052,0.112-0.111,0.155-0.177
	c0.042-0.136-0.455-0.419-0.508-0.489c-0.24-0.319-0.278-0.771-0.097-1.127c0.165-0.16,0.325-0.317,0.488-0.474
	c0.583,0.069,1.118,0.491,1.673,0.66c0.531-0.097,1.281,0.087,1.834,0.153c0.738,0.088,2.13,0.421,2.609,1.071l-0.014,0.004
	c0.375,0.149,0.799,1.024,0.632,1.363c-0.326,0.467-1.194,0.673-1.689,0.888c0.44,0.298,0.847,0.384,1.234,0.796
	c0.542,0.577,0.776,1.061,0.667,1.907c-0.07,0.544-0.187,0.906-0.625,1.23C43.351,31.85,42.49,32.276,41.78,32.498z M39.181,25.459
	c0.119,0.552-0.074,1.415,0.397,1.748c0.462,0.327,1.057,0.163,1.515-0.033c0.306-0.131,0.522-0.304,0.789-0.495
	c0.014-0.01,0.924-0.769,0.877-0.781c-0.08-0.68-1.093-0.927-1.6-1.082c-0.532-0.163-1.148-0.127-1.703-0.127
	C39.217,24.802,39.186,25.245,39.181,25.459C39.235,25.708,39.186,25.251,39.181,25.459z M42.639,30.346
	c0.493-0.429,0.426-0.803,0.655-1.402c-0.899-1.721-2.557-1.04-4.086-1.121c0.06,0.648-0.068,1.259-0.082,1.898
	c-0.008,0.368,0.12,0.817,0.048,1.162c0.347,0.142,1.012,0.015,1.408,0.029C41.402,30.942,41.894,30.75,42.639,30.346
	C42.763,30.238,42.252,30.556,42.639,30.346z"/>
</svg>
