<?xml version="1.0" encoding="utf-8"?>
<!-- Generator: Adobe Illustrator 19.2.1, SVG Export Plug-In . SVG Version: 6.00 Build 0)  -->
<svg version="1.1" id="Слой_1" xmlns="http://www.w3.org/2000/svg" xmlns:xlink="http://www.w3.org/1999/xlink" x="0px" y="0px"
	 width="115px" height="48px" viewBox="0 0 115 48" enable-background="new 0 0 115 48" xml:space="preserve">
<path d="M8.406,45.478C8.406,47.159,7.565,48,5.884,48H0.42v-1.681h5.464c0.56,0,0.841-0.28,0.841-0.841
	c0-0.56-0.28-0.841-0.841-0.841H2.522C0.841,44.637,0,43.797,0,42.116s0.841-2.522,2.522-2.522h5.464v1.681H2.522
	c-0.56,0-0.841,0.28-0.841,0.841c0,0.56,0.28,0.841,0.841,0.841h3.362C7.565,42.956,8.406,43.797,8.406,45.478z M35.735,42.116V48
	h-1.681v-1.681H29.01V48h-1.681v-5.884c0-1.681,0.841-2.522,2.522-2.522h3.362C34.894,39.594,35.735,40.434,35.735,42.116z
	 M34.054,42.116c0-0.56-0.28-0.841-0.841-0.841h-3.362c-0.56,0-0.841,0.28-0.841,0.841v2.522h5.044V42.116z M17.868,44.862
	l-3.362-5.268h-1.681V48h1.681v-5.268L17.868,48l3.362-5.268V48h1.681v-8.406H21.23L17.868,44.862z M79.059,48h1.681v-8.406h-1.681
	V48z M91.883,45.422l-5.044-5.828h-1.681V48h1.681v-5.828L91.883,48h1.681v-8.406h-1.681V45.422z M106.388,41.275v-1.681h-8.406V48
	h8.406v-1.681h-6.725v-1.681h5.044v-1.681h-5.044v-1.681H106.388z M51.87,41.275h3.362V48h1.681v-6.725h3.362v-1.681H51.87V41.275z
	 M71.979,45.058l-1.639-5.464h-1.765l-1.639,5.464l-1.597-5.464h-1.765L66.053,48h1.765l1.639-5.464L71.097,48h1.765l2.48-8.406
	h-1.765L71.979,45.058z M48.559,42.116v0.841c0,1.681-0.841,2.522-2.522,2.522L48.559,48h-2.382l-2.522-2.522h-1.821V48h-1.681
	v-8.406h5.884C47.718,39.594,48.559,40.434,48.559,42.116z M46.878,42.116c0-0.56-0.28-0.841-0.841-0.841h-4.203v2.522h4.203
	c0.56,0,0.841-0.28,0.841-0.841V42.116z"/>
</svg>
