<?xml version="1.0" encoding="utf-8"?>
<!-- Generator: Adobe Illustrator 19.2.1, SVG Export Plug-In . SVG Version: 6.00 Build 0)  -->
<svg version="1.1" id="Слой_1" xmlns="http://www.w3.org/2000/svg" xmlns:xlink="http://www.w3.org/1999/xlink" x="0px" y="0px"
	 width="115px" height="48px" viewBox="0 0 115 48" enable-background="new 0 0 115 48" xml:space="preserve">
<path fill="#653819" d="M80.427,45.606c1.787-0.606,2.579-3.689,0.847-4.813c-0.801-0.519-2.415-0.245-3.325-0.037
	c0.021-0.07,0.021-0.193,0.021-0.264c-0.512-0.166-0.224,0.132-0.384,0.261c-0.127,0.102-0.311,0.241-0.534,0.353
	c0.005-0.204,0.051-0.409,0.051-0.612c-0.554,0-1.108,0-1.661,0c0.371,0.973,0.212,2.221,0.191,3.257
	c-0.029,1.4-0.046,2.847-0.191,4.243c0.495-0.004,0.991-0.008,1.486-0.011c-0.079-0.337-0.044-0.715-0.045-1.06
	c-0.001-0.395-0.221-1.174,0.259-1.141c0.414,0.028,0.247,0.402,0.247,0.787c0,0.449-0.082,0.981,0.045,1.414
	c-0.375,0.003-0.75,0.006-1.125,0.009c0.486,0.006,0.992-0.005,1.485-0.009c-0.157-0.667-0.044-1.495-0.044-2.174
	C78.64,45.856,79.574,45.9,80.427,45.606C80.571,45.557,80.283,45.656,80.427,45.606z M78.585,45.542
	c-0.517-0.045-1.537-0.42-1.717-0.951c-0.133-0.394,0.116-1.265,0.233-1.651c0.262-0.864,1.256-2.314,2.347-2.019
	c-1.051,0.294-1.714,1.37-1.928,2.372c-0.069,0.322-0.226,0.89-0.141,1.219c0.131,0.51,0.953,0.898,1.475,0.997
	C78.765,45.531,78.676,45.542,78.585,45.542C78.514,45.536,78.629,45.542,78.585,45.542z M79.624,45.193
	c-0.828,0.47-1.944-0.079-1.865-1.057c0.073-0.904,0.296-1.783,0.931-2.46c0.706-0.753,1.386-0.846,1.947,0.143
	C81.298,42.982,80.709,44.531,79.624,45.193C79.569,45.224,79.732,45.126,79.624,45.193z M41.992,45.653c0.09-0.002,0.18,0,0.27,0
	c-0.255,0-0.525,0.029-0.776,0.066c0-0.066,0.251-0.059,0.295-0.063c-0.389-0.001-0.774,0.008-1.16,0.065
	c0-0.627,0.086-1.271,0.097-1.902c0.011-0.604,0.032-1.215-0.021-1.816c-0.026-0.288-0.045-0.618-0.181-0.881
	c-0.129-0.25-0.46-0.388-0.464-0.65c0.657,0.028,1.354,0.044,2.011-0.044c0,1.544-0.74,3.767,0.111,5.206
	C42.114,45.64,42.053,45.646,41.992,45.653z M50.513,45.628c0.333-0.025,0.95-0.056,0.439-0.324
	c-0.264-0.138-0.698-0.07-1.001-0.184c-0.624-0.235-1.357-1.194-2.038-1.194c1.145-0.402,2.678-1.243,2.065-2.776
	c-0.515-1.287-2.984-0.79-3.976-0.457c-0.038-0.202-0.187-0.231-0.401-0.161c0.2,0.346-0.127,0.362-0.379,0.509
	c-0.077-0.316-0.06-0.412-0.305-0.517c-0.303-0.131-0.991,0.044-1.335,0.059c0.877,1.394,0.498,3.642,0.175,5.16
	c0.488,0,0.977,0,1.465,0c-0.037-0.322-0.037-0.649-0.045-0.973c-0.014-0.53-0.102-0.603,0.506-0.563
	c-0.054,0.418-0.184,1.706,0.406,1.536c-0.055-0.474-0.103-1.028-0.048-1.503c1.088,0.185,1.648,1.185,2.636,1.457
	C49.217,45.845,49.966,45.67,50.513,45.628z M45.179,43.907c0.002-1.287,1.032-3.488,2.646-3.195
	c-0.737,0.196-1.356,0.826-1.736,1.472c-0.25,0.425-0.271,0.828-0.379,1.285C45.605,43.913,45.713,43.918,45.179,43.907z
	 M46.676,43.741c-0.207,0.058-0.417,0.1-0.63,0.126c-0.006-0.637,0.141-1.265,0.486-1.804c0.252-0.394,0.97-1.346,1.516-1.309
	c0.629,0.042,0.829,0.922,0.684,1.386C48.468,42.989,47.475,43.521,46.676,43.741C46.473,43.799,47.07,43.633,46.676,43.741z
	 M53.797,45.653c0.091-0.002,0.182,0,0.273,0c-0.254,0-0.524,0.029-0.775,0.066c0-0.067,0.247-0.059,0.294-0.063
	c-0.389-0.001-0.774,0.008-1.16,0.065c0-0.627,0.087-1.271,0.099-1.902c0.011-0.604,0.032-1.215-0.021-1.816
	c-0.026-0.288-0.045-0.618-0.181-0.881c-0.129-0.25-0.46-0.388-0.464-0.65c0.657,0.028,1.353,0.044,2.01-0.044
	c0,1.544-0.742,3.767,0.109,5.206C53.919,45.64,53.858,45.646,53.797,45.653z M90.125,45.675c-0.347,0.015-1.45,0.262-1.373-0.241
	c-0.9,0.304-1.895,0.376-2.845,0.351c0.526-0.034,3.081-0.044,2.774-0.81c-0.854,0.618-1.764,0.718-2.776,0.776
	c-1.665,0.097-3.208-0.456-2.886-2.48c-0.226,1.977-1.8,2.595-3.59,2.566c1.371-0.024,2.616-0.476,3.094-1.871
	c0.438-1.281,0.119-3.267-1.513-3.44c1.542-0.172,2.133,1.405,2.018,2.663c0.217-1.152,1.091-1.712,2.066-2.183
	c-0.323,0.021-0.973,0.005-1.273,0.165c0.271-0.194,0.85-0.156,1.195-0.185c-0.514-0.053-1.579-0.071-2.061,0.183
	c0.136-0.247,0.241-0.572,0.468-0.677c0.253-0.117,0.894,0,1.165,0c0.57,0,1.14,0,1.711,0c0.357,0,0.934-0.118,1.274,0
	c0.41,0.143-0.107,0.185-0.382,0.254c-0.562,0.142-1.104,0.389-1.556,0.753c-0.726,0.583-1.235,1.422-1.159,2.382
	c0.067,0.853,0.713,1.76,1.667,1.569c-1.38-0.274-1.352-2.16-0.781-3.098c0.396-0.651,1.038-1.119,1.735-1.404
	c0.383-0.156,0.762-0.195,1.153-0.301c0.114-0.031-0.138-0.13,0.094-0.152c0.029-0.003,0.318-0.013,0.268,0.038
	c-0.305,0.313-1.24,0.402-1.732,0.702c-0.86,0.523-1.559,1.429-1.547,2.474c0.006,0.519,0.22,1.317,0.75,1.558
	c0.44,0.2,0.747-0.055,1.14-0.337c1.499-1.072,1.696-2.719,1.639-4.435c0.488,0,0.977,0,1.465,0
	c-0.186,1.095-0.274,2.146-0.262,3.259c0.007,0.601-0.032,1.369,0.262,1.922C90.257,45.675,90.191,45.675,90.125,45.675z
	 M41.976,39.094c0.271,0,0.602,0.17,0.874,0.263c-0.647,0.184-1.251,0.57-1.888,0.741c-0.369,0.099-0.509,0.001-0.909-0.149
	C40.596,39.766,41.606,39.464,41.976,39.094C41.981,39.094,41.971,39.099,41.976,39.094z M59.282,45.753
	c1-0.229,1.877-1.161,1.546-2.259c-0.209-0.691-0.878-0.812-1.501-0.858c-0.733-0.054-2.224-0.27-1.281-1.366
	c0.584-0.68,1.589-0.367,1.325,0.621c0.478-0.166,1.033-0.13,1.53-0.13c-0.096-1.225-1.167-1.285-2.138-1.246
	c-0.856,0.034-1.81-0.098-2.531,0.465c-0.706,0.551-0.982,1.588-0.094,2.103c0.638,0.37,1.432,0.183,2.131,0.214
	c-0.119,0.003-0.238,0.009-0.356,0.012c0.693,0.026,1.704-0.059,1.615,0.971c-0.046,0.531-0.794,1.365-1.349,1.099
	c-0.411-0.197-0.443-0.784-0.391-1.168c-0.834-0.025-0.189,1.166,0.356,1.288c-0.86,0.129-1.33-0.455-1.223-1.288
	c-0.477,0.104-1.002,0.154-1.486,0.087c0,1.545,1.173,1.51,2.365,1.51c-0.115,0.003-0.23,0.01-0.345,0.014
	C58.007,45.869,58.763,45.886,59.282,45.753C59.375,45.731,59.239,45.764,59.282,45.753z M57.726,42.631
	c-1.655-0.305-0.321-1.99,0.867-1.824c-0.453,0.088-1.007,0.363-1.134,0.847c-0.214,0.812,0.645,0.996,1.253,1.014
	C58.386,42.688,58.047,42.691,57.726,42.631C57.55,42.599,57.901,42.664,57.726,42.631z M92.771,45.732
	c0.902-0.185,1.893,0.173,2.718-0.401c1.154-0.803,0.477-2.184-0.716-2.389c0.779-0.308,1.742-0.757,1.75-1.727
	c0.008-0.931-0.773-1.408-1.612-1.415c-0.517-0.005-1.083,0.079-1.589,0.182c0-0.244-0.138-0.158-0.379-0.106
	c0.077,0.287-0.209,0.227-0.445,0.313c-0.03-0.061-0.032-0.311-0.066-0.321c-0.311-0.09-1.015,0.058-1.399,0.103
	c0.372,0.925,0.253,2.001,0.232,2.985c-0.016,0.76,0.002,1.592-0.191,2.333c-0.393-1.513-0.141-3.281,0.115-4.796
	c-0.759-0.236-0.617,2.24-0.621,2.716c-0.007,0.791-0.075,1.719,0.258,2.464c-0.389-0.001-0.779,0.028-1.167,0.041
	C90.751,45.759,91.635,45.732,92.771,45.732C92.82,45.722,92.728,45.732,92.771,45.732z M94.31,45.075
	c-0.901,0.893-1.399-1.093-1.055-1.703C93.724,42.54,95.34,44.045,94.31,45.075C94.179,45.205,94.572,44.813,94.31,45.075z
	 M95.018,40.8c0.328,0.904-1.353,2.534-1.757,1.803C92.845,41.851,94.558,39.463,95.018,40.8
	C95.059,40.914,94.978,40.684,95.018,40.8z M92.486,41.794c0.24-0.679,1.085-1.868,1.962-1.575c-0.624,0.25-1.139,0.776-1.384,1.405
	c-0.145,0.371-0.412,1.146,0.126,1.166c-0.088,0.008-0.543,0.063-0.657-0.019C92.297,42.6,92.383,42.135,92.486,41.794
	C92.529,41.674,92.42,42.013,92.486,41.794z M92.427,44.701c-0.05-0.224-0.229-1.218-0.021-1.451c0.158-0.176,0.878-0.12,1.16-0.105
	c-0.606,0.088-0.674,0.008-0.695,0.605c-0.022,0.625,0.011,1.509,0.767,1.662C93.098,45.511,92.572,45.296,92.427,44.701
	C92.384,44.505,92.45,44.794,92.427,44.701z M69.12,45.045c0.171-0.03-0.223,0.586-0.355,0.656c-0.11,0.059-0.228,0.018-0.368,0.04
	c-0.691,0.107-1.484,0-2.184,0c-0.627,0-1.478,0.155-2.087,0c-0.131-0.034-0.314,0.083-0.242-0.151
	c-0.008,0.025,1.501-0.292,1.545-0.313c0.905-0.426,1.827-1.313,2.064-2.314c0.141-0.597,0.006-1.198-0.405-1.662
	c-0.499-0.564-0.778-0.506-1.35-0.117c-1.551,1.054-1.861,2.798-1.861,4.557c-0.764,0.224-0.176-2.196-0.028-2.606
	c0.374-1.037,1.295-2.099,2.398-2.349c-1.598-0.316-2.868,1.789-3.086,3.112c-0.052,0.318,0.059,1.582-0.152,1.813
	c-0.161,0.177-1.13,0.029-1.421,0.029c0.285-1.397,0.385-2.796,0.399-4.22c0.011-1.045,0.089-2.087-0.357-3.061
	c0.577-0.07,1.17-0.06,1.75-0.11c-0.148,0.986-0.156,1.967-0.154,2.97c0.581-0.376,0.516-0.334,0.526-1.036
	c0.004-0.285-0.005-0.571,0.004-0.855c0.013-0.399-0.06-1.18,0.491-1.079c-0.129,0.846-0.129,1.66-0.147,2.519
	c0.997-0.419,3.146-0.864,4.09-0.203c0.985,0.69,1.008,2.05,0.464,3.022c-0.507,0.906-1.38,1.333-2.301,1.701
	c1.049-0.092,2.034-0.554,2.652-1.455c0.873-1.271,0.6-3.419-1.216-3.563c1.363-0.085,2.283,1.053,2.062,2.398
	c-0.192,1.167-1.151,2.104-2.249,2.47C68.107,45.165,68.628,45.163,69.12,45.045C69.149,45.04,69.089,45.052,69.12,45.045z
	 M53.802,39.09c0.21-0.054,0.641,0.193,0.856,0.266c-0.648,0.183-1.251,0.57-1.89,0.741c-0.369,0.099-0.509,0.001-0.909-0.149
	C52.504,39.75,53.2,39.389,53.802,39.09z M20.84,35.888c-0.181,0.309-0.641,1.57-1.005,1.506c0.34-0.984-1.763-0.659-2.321-0.615
	c-0.725,0.057-1.452,0.154-2.175,0.235c0.554-0.312,1.92-0.258,2.586-0.263c-1.156-0.005-2.306,0.137-3.454,0.266
	c0.623-2.537,0.816-5.203,0.945-7.806c0.065-1.307,0.035-2.613-0.108-3.915c-0.102-0.929-0.136-2.052-0.471-2.941
	c0.843,0,1.913,0.077,2.74-0.117c-0.144,1.551-0.435,3.079-0.513,4.64c-0.072,1.444-0.026,2.89,0.027,4.333
	c0.042,1.137,0.116,2.277,0.119,3.413c0.002,0.658-0.194,1.338,0.57,1.209c-0.184-0.489-0.05-1.156-0.064-1.68
	c-0.036-1.352-0.119-2.708-0.158-4.061c-0.04-1.391-0.04-2.783,0.075-4.171c0.069-0.827,0.205-1.641,0.306-2.463
	c0.027-0.223,0.042-0.446,0.066-0.669c0.054-0.496,0.008-0.452,0.438-0.552c-0.212,2.011-0.534,3.99-0.549,6.021
	c-0.014,1.967,0.133,3.932,0.184,5.896c0.01,0.399-0.136,1.079,0.037,1.423c0.152,0.301,0.196,0.193,0.658,0.138
	c0.785-0.093,1.574-0.167,2.354-0.302C21.032,35.572,20.935,35.729,20.84,35.888C20.745,36.05,20.939,35.725,20.84,35.888z
	 M23.434,27.39c-0.406-0.152-0.812-0.304-1.218-0.456c1.085-0.344,2.098-1.238,3.231-1.446c0.521-0.096,1.112,0.239,1.636,0.417
	C25.827,26.266,24.575,26.747,23.434,27.39z M25.825,36.701c0.024,0.04,0.048,0.081,0.073,0.121c-0.893,0.127-1.802,0.017-2.7,0.152
	c0-1.175,0.175-2.371,0.175-3.558c0-0.97,0.042-1.937-0.037-2.906c-0.042-0.515-0.089-1.058-0.318-1.53
	c-0.157-0.325-0.889-0.815-0.804-1.135c0.389,0.016,0.781,0.052,1.17,0.027c-0.097-0.005-0.233-0.021-0.303-0.027
	c0.852,0.035,1.793,0.068,2.634-0.076c0,0.311-0.183,0.685-0.229,1c-0.088,0.598-0.111,1.209-0.121,1.813
	c-0.009,0.558,0,1.118,0,1.676C25.364,33.6,25.034,35.56,25.825,36.701C25.844,36.736,25.802,36.669,25.825,36.701z M51.809,36.081
	c1.4,1.565,3.739,1.008,5.603,1.01c-0.741,0.032-1.483,0.054-2.224,0.074c1.292,0.043,2.647-0.01,3.936-0.072
	c0.977-0.047,1.091-0.115,1.585-0.894c0.406-0.641,0.812-1.282,1.219-1.924c-1.335,0.928-3.36,2.41-5.078,2.167
	c-0.913-0.129-1.769-0.663-2.337-1.381c-0.272-0.344-0.473-0.732-0.588-1.156c-0.096-0.352,0.027-0.788-0.466-0.657
	c0.117,1.864,1.766,3.137,3.547,3.252c-1.948,0.138-3.927-1.212-4.056-3.253c1.965,0,4.056-0.203,6.013-0.035
	c-0.693,0.012-1.385,0.024-2.078,0.035c1.225,0.01,2.444-0.006,3.668,0.021c0.392,0.009,0.872,0.136,1.249,0.076
	c0.485-0.077,0.737-0.566,1.076-0.967c-0.958,0-1.918,0.052-2.875,0.094c1.217-0.488,2.663-0.963,2.68-2.533
	c0.015-1.441-1.437-2.1-2.682-2.092c1.644,0,2.889,1.687,2.016,3.17c-0.565,0.959-1.948,1.445-3.013,1.509
	c0.759-0.308,1.66-0.53,2.234-1.145c0.698-0.749,0.805-1.961,0.085-2.736c-0.878-0.946-2.447-0.873-3.64-0.835
	c0.159,0.01,0.319,0.026,0.478,0.036c-1.813,0-3.756-0.225-5.291,0.959C50.851,30.359,49.993,34.056,51.809,36.081
	C52.456,36.805,51.494,35.73,51.809,36.081z M59.141,29.221c1.227,2.651-3.723,3.504-5.319,3.596
	c0.098-1.337,0.876-2.441,1.881-3.278C56.651,28.747,58.354,27.542,59.141,29.221C59.226,29.405,59.056,29.04,59.141,29.221z
	 M53.084,32.052c0.496-1.772,2.767-4.044,4.752-3.764c-1.333,0.126-2.709,1.228-3.496,2.272c-0.388,0.513-0.679,1.115-0.807,1.746
	c-0.106,0.52-0.045,0.519-0.579,0.522C52.972,32.568,53.016,32.305,53.084,32.052C53.154,31.802,53.016,32.306,53.084,32.052z
	 M79.586,27.39c-0.406-0.152-0.812-0.304-1.217-0.456c1.085-0.345,2.098-1.238,3.231-1.446c0.521-0.095,1.112,0.239,1.635,0.417
	C81.979,26.267,80.727,26.747,79.586,27.39z M78.366,28.112c0-0.089,0-0.177,0-0.266c0.389,0.016,0.781,0.052,1.17,0.027
	c-0.097-0.005-0.232-0.022-0.303-0.027c0.852,0.035,1.792,0.067,2.633-0.076c0,0.315-0.176,0.683-0.223,1
	c-0.089,0.597-0.111,1.21-0.12,1.813c-0.009,0.589,0,1.178,0,1.767c0,1.444-0.237,3.2,0.534,4.473
	c-0.893,0.127-1.804,0.017-2.703,0.152c0-1.11,0.156-2.245,0.172-3.363C79.55,31.999,80.028,29.07,78.366,28.112z M84.91,34.961
	c1.216,2.94,4.944,2.286,7.513,2.209c0.54-0.016,1.852,0.113,2.287-0.203c0.213-0.155,0.381-0.837,0.49-1.075
	c0.165-0.361,0.33-0.723,0.494-1.084c-1.341,1.138-3.652,2.37-5.441,1.737c-1.541-0.545-2.604-2.096-2.516-3.732
	c0.084-1.557,1.054-3.255,2.546-3.844c1.704-0.672,3.53,0.214,4.917,1.2c0.292-0.597,0.583-1.193,0.875-1.79
	c-2.037-0.126-4.111-0.27-6.15-0.217c-1.529,0.04-2.857,0.246-3.953,1.39C84.644,30.938,84.207,33.169,84.91,34.961
	C85.024,35.236,84.805,34.694,84.91,34.961z M86.869,32.871c0.146-2.426,1.968-4.31,4.435-4.169
	c-4.787,0.211-5.336,7.762-0.271,8.065C88.778,36.923,86.828,35.146,86.869,32.871z M75.612,36.864
	c0.204-0.024,2.108-0.033,1.431-0.582c-0.132-0.107-0.559-0.046-0.729-0.067c-0.39-0.047-0.759-0.115-1.131-0.235
	c-0.619-0.2-1.171-0.577-1.705-0.956c-0.47-0.333-1.348-1.167-1.975-1.167c1.002-0.355,1.934-0.606,2.689-1.381
	c1.139-1.168,1.659-3.398,0.095-4.482c-0.783-0.543-1.744-0.333-2.633-0.292c-1.38,0.064-2.787,0.183-4.065,0.748
	c-0.079-0.319-0.059-0.662-0.489-0.512c0.139,0.56,0.245,0.592-0.275,0.899c-0.148-0.607-0.057-0.923-0.722-0.894
	c-0.712,0.031-1.424,0.062-2.136,0.094c0.756,1.098,0.769,2.49,0.793,3.781c0.033,1.779-0.128,3.455-0.486,5.196
	c0.85,0,1.699,0,2.549,0c-0.069-0.535-0.054-1.079-0.076-1.617c-0.026-0.64-0.254-1.105,0.502-1.071
	c-0.083,0.459-0.004,0.946,0.012,1.409c0.013,0.374-0.172,1.453,0.425,1.28c-0.086-0.684-0.089-1.395-0.1-2.084
	c-0.008-0.494-0.089-0.594,0.465-0.553c0.824,0.062,1.588,0.402,2.272,0.851c1.02,0.669,1.867,1.742,3.155,1.749
	C74.19,36.98,74.904,36.913,75.612,36.864z M66.744,33.819c-0.078-2.229,1.78-5.92,4.483-5.606c-1.395,0.196-2.59,1.464-3.274,2.619
	c-0.432,0.73-0.608,1.541-0.676,2.378C67.23,33.775,67.32,33.832,66.744,33.819z M69.347,33.531c-0.564,0.16-1.153,0.231-1.737,0.26
	c-0.032-1.102,0.231-2.255,0.846-3.175c0.575-0.861,1.677-2.226,2.82-2.334c1.438-0.135,2.041,1.653,1.549,2.744
	C72.233,32.338,70.668,33.165,69.347,33.531C68.799,33.686,70.033,33.341,69.347,33.531z M108.471,36.699
	c0.637,0.077,0.309,0.201,0.072,0.276c-0.275,0.088-0.712,0-1.003,0c-0.902,0-1.829,0.065-2.728,0
	c-0.481-0.035-0.617-0.178-0.963-0.497c-1.055-0.972-2.132-1.956-3.312-2.775c0,0.966-0.228,2.406,0.153,3.273
	c-0.71,0.202-0.503-1.93-0.513-2.434c-0.006-0.282,0.113-0.796-0.002-1.03c-0.09-0.183-0.361-0.197-0.505-0.34
	c0,0.539,0.001,1.077,0.019,1.615c0.02,0.615-0.14,1.637,0.136,2.189c-0.85,0-1.699,0-2.549,0c0.301-2.295,0.384-4.562,0.381-6.877
	c-0.003-1.818,0.078-3.737-0.306-5.525c0.824,0,1.648,0,2.473,0c0,2.741-0.155,5.499-0.155,8.25c0.561-0.28,0.506-0.338,0.506-0.935
	c0-0.935,0-1.87,0-2.805c0-0.794,0.022-1.581,0.057-2.374c0.018-0.415,0.016-0.83,0.037-1.245c0.019-0.363-0.118-1.05,0.421-0.891
	c0,2.554-0.155,5.123-0.155,7.687c1.515-0.977,2.928-2.235,4.259-3.448c0.605-0.552,0.796-0.895,1.576-0.895c0.62,0,1.24,0,1.86,0
	c-0.688,0-1.724,1.108-2.237,1.513c-0.598,0.472-1.189,0.95-1.776,1.436c-0.656,0.544-1.314,1.123-2.036,1.579
	C104.149,33.828,105.966,36.397,108.471,36.699z M3.427,29.258c-0.366,0.105-0.817,0.028-1.198,0.044
	c-1.786,0.077-1.635-1.823-1.042-3.059c-0.396,0-0.792,0-1.188,0c0.312-0.383,0.296-0.364,0.765-0.39
	c0.379-0.021,0.476,0.03,0.741-0.181c0.187-0.148,0.273-0.44,0.489-0.546c0.261-0.128,0.796-0.051,1.091-0.07
	c-0.283,0.234-0.547,0.501-0.769,0.795c0.471-0.014,0.612-0.713,1.102-0.795c-0.282,0.234-0.545,0.502-0.767,0.795
	c0.444,0,0.887-0.013,1.329-0.029c-0.312,0.827-1.497,0.091-1.983,0.518c-0.779,0.684-0.606,2.862,0.726,2.707
	c-0.703-0.063-0.946-0.585-0.943-1.237c0.002-0.365,0.166-1.523,0.609-1.579c-0.364,0.694-0.961,2.425,0.159,2.751
	c0.52,0.151,0.922-0.29,1.285-0.609C3.758,28.594,3.671,29.226,3.427,29.258z M13.336,29.321c0.35-0.051,0.619-0.76,0.804-1.051
	c-0.865,0.602-2.973,1.539-3.084-0.39c0.645,0,1.327-0.067,1.969-0.013c-0.271,0.004-0.541,0.009-0.812,0.013
	c0.493,0,0.984-0.012,1.476,0.014c0.452,0.023,0.491,0.037,0.815-0.345c-0.366,0.004-0.732,0.02-1.097,0.036
	c0.514-0.194,1.25-0.54,0.98-1.234c-0.142-0.366-0.607-0.565-0.981-0.529c1.433,0,0.817,1.784-0.383,1.782
	c0.614-0.232,1.54-0.811,0.836-1.52c-0.352-0.354-0.896-0.257-1.342-0.276c0.058,0.005,0.116,0.009,0.173,0.014
	c-0.511-0.012-1.06-0.063-1.548,0.117c-0.959,0.354-1.462,1.591-1.124,2.541c0.403,1.134,1.561,0.842,2.49,0.862
	c-0.312,0.006-0.625,0.02-0.938,0.029C12.146,29.372,12.768,29.403,13.336,29.321z M12.929,26.155
	c1.07,0.946-1.332,1.529-1.873,1.561C11.097,27.186,12.219,25.488,12.929,26.155C12.994,26.213,12.867,26.097,12.929,26.155z
	 M10.881,27.141c0.272-0.537,1.02-1.211,1.66-1.146c-0.391,0.057-0.745,0.304-1.025,0.574c-0.242,0.234-0.555,1.209-0.795,1.151
	C10.735,27.516,10.789,27.323,10.881,27.141C10.932,27.04,10.834,27.236,10.881,27.141z M12.154,29.125
	c-0.704-0.014-1.391-0.501-1.434-1.245c0.277-0.035,0.337,0.563,0.544,0.787c0.157,0.17,0.335,0.267,0.544,0.364
	C11.881,29.065,12.485,29.125,12.154,29.125C11.963,29.121,12.188,29.125,12.154,29.125z M9.469,28.836
	c-0.424,0.636-0.682,0.477-1.451,0.477c-0.695,0-1.389,0-2.084,0c0-0.034,0-0.067,0-0.101c1.12-0.026,2.748-1.035,2.385-2.355
	c-0.526-1.914-2.31,0.131-2.52,1.165c-0.06,0.293,0.05,1-0.112,1.237c-0.185,0.27-0.13-0.271-0.131-0.363
	c-0.02-1.102,0.569-2.677,1.835-2.872c-1.172-0.097-1.859,1.394-1.973,2.341C5.4,28.515,5.454,29.17,5.354,29.276
	c-0.119,0.126-0.723,0.039-0.941,0.039c0.228-1.362,0.614-3.482,0.026-4.824c0.385-0.037,0.774-0.04,1.16-0.074
	c-0.114,0.652-0.096,1.307-0.101,1.97c0.385-0.246-0.048-1.908,0.436-1.97c-0.104,0.593-0.087,1.175-0.1,1.778
	c0.703-0.281,2.127-0.719,2.877-0.293c0.704,0.401,0.752,1.344,0.41,1.994c-0.337,0.64-0.914,0.925-1.551,1.185
	c1.76,0.014,2.89-3.299,0.758-3.33c0.77-0.026,1.348,0.553,1.345,1.331c-0.004,0.978-0.795,1.635-1.637,1.948
	C8.501,28.969,9.018,28.972,9.469,28.836z M96.008,35.232c0.192-0.133,0.377-0.275,0.555-0.426c-0.219,0.48-0.438,0.96-0.657,1.44
	c-0.248,0.543-0.194,0.646-0.728,0.768c-1.301,0.298-2.834,0.27-4.151,0.247c1.242-0.05,2.564,0.003,3.791-0.247
	c0.476-0.097,0.423-0.099,0.638-0.572C95.639,36.039,95.824,35.636,96.008,35.232z M62.796,34.274
	c-0.468,0.738-0.935,1.475-1.403,2.213c-0.252,0.398-0.248,0.45-0.709,0.546c-0.401,0.084-0.852,0.092-1.261,0.073
	c0.364-0.051,1.004,0.085,1.299-0.13c0.171-0.125,0.31-0.489,0.422-0.665C61.663,35.492,62.003,34.824,62.796,34.274z
	 M62.578,33.331c0.29-0.343,0.642-1.087,1.17-0.958C63.428,32.752,63.119,33.44,62.578,33.331z M60.88,41.764
	c0.176-0.002,0.352-0.003,0.527-0.003c-0.063-0.748-0.573-1.216-1.31-1.28c0.855-0.076,1.6,0.385,1.67,1.28
	c-0.499,0-1.053-0.036-1.53,0.131c0.004-0.029,0.008-0.058,0.011-0.088C60.456,41.777,60.671,41.769,60.88,41.764
	C61.036,41.761,60.727,41.768,60.88,41.764z M81.021,36.865c0.185-0.005,0.372-0.003,0.557-0.003c-0.445,0-0.917,0.047-1.356,0.114
	C80.222,36.895,80.952,36.87,81.021,36.865C81.11,36.862,80.932,36.871,81.021,36.865z M82.185,36.861
	c0.117,0.012,0.262-0.026,0.38-0.038c-0.793-1.403-0.534-3.275-0.534-4.85c0-0.804-0.257-4.386,0.703-4.204
	c0,0.317-0.173,0.683-0.22,1.001c-0.089,0.597-0.111,1.21-0.121,1.813c-0.009,0.589,0,1.178,0,1.767c0,1.444-0.237,3.2,0.534,4.473
	C82.682,36.857,82.432,36.872,82.185,36.861z M83.741,25.905c-0.414-0.142-0.828-0.283-1.243-0.425
	c0.427-0.17,1.169,0.277,1.604,0.425c-0.762,0.22-1.503,0.487-2.233,0.799c-0.349,0.149-1.305,0.825-1.635,0.604
	C81.337,26.706,82.535,26.248,83.741,25.905z M91.703,28.154c-0.126-0.001-0.252-0.002-0.378-0.003
	c1.864-0.001,3.754,0.113,5.617,0.227c-0.292,0.596-0.584,1.193-0.876,1.789c-0.409-0.295-0.126-0.479,0.082-0.904
	c0.144-0.295,0.289-0.59,0.433-0.884C94.959,28.279,93.326,28.213,91.703,28.154C91.57,28.151,91.874,28.16,91.703,28.154z
	 M51.818,45.304c0.268,0.02,0.244,0.167,0.087,0.274c-0.136,0.093-0.603,0.062-0.765,0.076c-0.468,0.04-0.98,0.105-1.449,0.06
	c0.468-0.013,1.425,0.1,1.818-0.135c0.506-0.303-0.504-0.305-0.748-0.366c-0.821-0.206-1.544-1.287-2.342-1.287
	c0.568-0.207,1.081-0.331,1.509-0.765c0.769-0.779,1.04-2.632-0.449-2.811c1.465-0.171,1.768,1.551,1.078,2.51
	c-0.471,0.654-1.051,0.801-1.776,1.066c0.601,0,1.321,0.865,1.828,1.101C50.994,45.208,51.393,45.238,51.818,45.304z M54.805,45.565
	c0.079,0.14-0.423,0.095-0.537,0.09c0.073-0.007,0.146-0.014,0.219-0.021c-0.477-0.806-0.307-1.935-0.307-2.844
	c0-0.557-0.268-2.499,0.559-2.362c0,0.851-0.201,1.754-0.2,2.633C54.538,43.82,54.364,44.905,54.805,45.565
	C54.816,45.585,54.792,45.546,54.805,45.565z M43.718,39.356c-0.459,0.132-1.918,0.993-2.315,0.774
	c0.616-0.329,1.283-0.58,1.952-0.774c-0.21-0.072-0.42-0.143-0.63-0.215C43.023,38.985,43.421,39.255,43.718,39.356z M42.999,45.565
	c0.079,0.141-0.423,0.095-0.538,0.09c0.073-0.007,0.146-0.014,0.219-0.021c-0.455-0.832-0.307-1.918-0.307-2.844
	c0-0.556-0.268-2.499,0.557-2.362c0,0.852-0.198,1.754-0.198,2.633C42.733,43.819,42.558,44.906,42.999,45.565
	C43.01,45.585,42.986,45.546,42.999,45.565z M55.525,39.356c-0.459,0.132-1.919,0.993-2.315,0.774
	c0.615-0.329,1.283-0.581,1.953-0.774c-0.21-0.072-0.42-0.143-0.63-0.215C54.83,38.985,55.228,39.255,55.525,39.356z M61.703,44.318
	c-0.281,1.32-1.654,1.55-2.804,1.494c1.142-0.022,2.34-0.383,2.475-1.697c0.087-0.844-0.469-1.467-1.324-1.467
	C61.093,42.538,61.931,43.205,61.703,44.318C61.674,44.453,61.73,44.184,61.703,44.318z M97.28,40.648
	c0.482,1.227-0.671,1.912-1.64,2.294c1.007,0.164,1.766,1.13,1.037,2.09c-0.55,0.725-1.649,0.669-2.465,0.666
	c0.848-0.007,1.997-0.097,2.311-1.052c0.312-0.948-0.389-1.565-1.244-1.704c0.741-0.293,1.643-0.7,1.736-1.593
	c0.084-0.799-0.512-1.472-1.3-1.546C96.352,39.739,97.033,40.024,97.28,40.648C97.346,40.816,97.213,40.477,97.28,40.648z
	 M109.219,36.455c0.008,0.174,0.015,0.348,0.023,0.522c-0.349,0.046-0.089-0.169-0.243-0.248c-0.177-0.091-0.566-0.255-0.832-0.365
	c-0.706-0.291-1.289-0.77-1.869-1.255c-1.075-0.898-2.109-1.842-3.247-2.66c1.198-0.819,2.267-1.807,3.407-2.701
	c0.744-0.583,1.867-1.844,2.871-1.827c-0.986,0.205-1.901,1.306-2.644,1.922c-1.057,0.878-2.093,1.788-3.205,2.596
	C105.332,33.682,106.947,35.986,109.219,36.455z M93.978,45.698c0.051,0,0.102,0,0.152,0c-0.57,0-1.138,0.105-1.71,0.08
	C92.94,45.753,93.457,45.696,93.978,45.698z M69.987,45.045c0.213-0.046-0.152,0.404-0.239,0.482
	c-0.179,0.161-0.172,0.317-0.504,0.214C69.498,45.361,69.562,45.147,69.987,45.045C70.016,45.039,69.956,45.052,69.987,45.045z
	 M50.216,35.946c0.12-0.03,0.265-0.024,0.389-0.035c-0.271,0.345-0.671,1.224-1.197,1.065C49.677,36.633,49.947,36.29,50.216,35.946
	z M76.474,36.862c-0.804,0.056-1.617,0.134-2.424,0.11c0.728-0.024,1.45-0.065,2.176-0.121c0.242-0.019,1.252,0.02,1.407-0.175
	c0.349-0.438-0.472-0.432-0.667-0.453c-0.799-0.086-1.485-0.26-2.17-0.664c-0.724-0.428-1.896-1.708-2.794-1.708
	c1.237-0.431,2.285-0.743,3.086-1.85c1.062-1.466,0.895-4.203-1.344-4.379c2.205-0.158,2.854,2.389,1.948,4.005
	c-0.772,1.375-1.943,1.733-3.329,2.224c0.622,0,1.514,0.84,1.975,1.168c0.534,0.379,1.089,0.757,1.708,0.956
	c0.331,0.107,0.657,0.169,1.004,0.215c0.185,0.024,0.711-0.03,0.856,0.088C78.571,36.818,76.685,36.838,76.474,36.862z
	 M40.398,32.084c-0.321,0.744-0.481,1.535-0.569,2.337c-0.071,0.647,0.089,1.609-0.104,2.212c-0.069,0.216-0.116,0.59-0.362,0.255
	c-0.219-0.299,0.025-1.486,0.051-1.856c0.107-1.521,0.442-2.949,1.351-4.203c0.801-1.106,2.084-2.326,3.49-2.532
	c-1.425-0.135-2.832,1.125-3.679,2.135c-0.929,1.108-1.417,2.413-1.59,3.841c-0.09,0.739,0.064,1.661-0.122,2.366
	c-0.109,0.414,0.094,0.202-0.278,0.343c-0.548,0.207-1.567,0-2.157,0c0.396-1.728,0.733-3.582,0.579-5.362
	c-0.077-0.886-0.305-1.804-0.938-2.463c-0.671-0.698-1.127-0.754-1.879-0.196c-1.338,0.992-2.2,2.764-2.387,4.393
	c-0.092,0.799-0.104,1.613-0.107,2.416c-0.001,0.361-0.089,0.877,0.076,1.207c-0.584,0.152-0.432-0.664-0.435-1.049
	c-0.007-0.892,0.003-1.807,0.12-2.692c0.234-1.763,1.47-4.387,3.4-4.784c-1.841-0.343-3.338,2.456-3.734,3.912
	c-0.281,1.035-0.283,2.146-0.294,3.211c-0.004,0.416-0.112,1.025,0.076,1.402c-0.85,0-1.699,0-2.549,0
	c0.423-1.525,0.55-3.215,0.638-4.79c0.084-1.51,0.116-2.881-0.636-4.226c0.757-0.021,1.598-0.158,2.347-0.065
	c0.471,0.058,0.286-0.116,0.427,0.335c0.074,0.237,0.08,0.593,0.074,0.841c0.583-0.431,0.476-0.462,0.396-1.176
	c0.484-0.153,0.396,0.316,0.434,0.66c1.081-0.555,2.42-0.516,3.603-0.645c0.671-0.073,1.531-0.283,2.183-0.033
	c0.711,0.272,0.804,0.934,1.107,1.537c0.395-0.326,0.441-0.302,0.195-0.776c-0.26-0.499-0.603-0.798-1.183-0.855
	c0.83-0.054,1.338,0.341,1.645,1.087c1.256-1.039,2.911-0.907,4.431-0.984c1.306-0.066,2.749-0.331,3.958,0.324
	c1.808,0.98,1.963,3.35,1.112,5.018c-0.751,1.471-1.996,2.534-3.535,3.108c1.715,0,3.231-1.603,3.994-3.018
	c1.332-2.47,0.126-5.439-2.849-5.541c2.475-0.081,4.292,1.87,3.655,4.366c-0.477,1.87-1.94,3.392-3.709,4.095
	c1.034-0.099,2.065-0.23,3.101-0.321c-0.234,0.298-0.555,0.937-0.89,1.065c-0.355,0.136-1.044,0-1.417,0c-1.728,0-3.456,0-5.184,0
	c-0.401,0-1.277,0.172-1.645,0c-0.081-0.038-0.347-0.008-0.147-0.266c0.117-0.15,1.439-0.153,1.714-0.225
	c2.269-0.594,4.971-2.592,4.737-5.253c-0.124-1.409-1.581-3.368-3.118-2.69C42.325,29.196,41.033,30.62,40.398,32.084
	C40.236,32.458,40.559,31.713,40.398,32.084z M21.593,35.482c0.123-0.043,0.274-0.046,0.402-0.068
	c-0.215,0.346-0.931,2.037-1.292,1.979C20.744,36.687,21.225,36.076,21.593,35.482z M25.116,36.862c0.103,0,0.207,0,0.31,0
	c-0.445,0-0.917,0.047-1.356,0.114C24.07,36.873,25.044,36.862,25.116,36.862z M26.505,25.411c0.482,0.165,0.963,0.329,1.445,0.494
	c-0.762,0.22-1.501,0.488-2.231,0.799c-0.349,0.149-1.305,0.825-1.634,0.604c1.1-0.604,2.301-1.059,3.505-1.403
	c-0.414-0.142-0.828-0.283-1.241-0.425C26.396,25.467,26.47,25.446,26.505,25.411z M26.701,36.703
	c0.024,0.04,0.048,0.081,0.073,0.121c-0.245,0.033-0.495,0.048-0.742,0.038c0.119,0.012,0.262-0.028,0.381-0.038
	c-0.814-1.379-0.535-3.288-0.535-4.85c0-0.804-0.259-4.386,0.704-4.204c0,0.316-0.174,0.683-0.221,1.001
	c-0.088,0.598-0.111,1.209-0.122,1.813c-0.01,0.558,0,1.118,0,1.676C26.239,33.588,25.897,35.584,26.701,36.703
	C26.72,36.737,26.679,36.671,26.701,36.703z M4.086,28.446c0.177-0.043-0.001,0.259-0.097,0.454
	c-0.107,0.217-0.09,0.239-0.224,0.358c-0.04,0.036-0.305,0.032-0.353,0.028c0.041-0.025,0.222,0.004,0.231-0.029
	C3.689,29.095,3.908,28.598,4.086,28.446z M4.188,25.823c0.043,0,0.086,0,0.129,0c-0.27,0.57-0.98,0.4-1.527,0.406
	c0.266-0.014,0.764,0.08,1.007-0.028C3.957,26.129,4.031,25.885,4.188,25.823z M14.474,28.271c-0.392,0.618-0.515,1.102-1.292,1.078
	c0.282-0.033,0.385-0.017,0.581-0.183C14.064,28.911,14.124,28.511,14.474,28.271z M9.735,28.854
	c0.077-0.01-0.177,0.459-0.397,0.461C9.45,29.145,9.533,28.904,9.735,28.854C9.754,28.851,9.715,28.859,9.735,28.854z M14.384,27.91
	c0.125-0.182,0.234-0.358,0.453-0.362C14.718,27.687,14.594,27.974,14.384,27.91z M2.71,29.287c0.048,0,0.097,0,0.145,0
	c-0.282,0.017-0.571,0.052-0.854,0.039C2.238,29.314,2.474,29.302,2.71,29.287z"/>
</svg>
