<?xml version="1.0" encoding="utf-8"?>
<!-- Generator: Adobe Illustrator 19.2.1, SVG Export Plug-In . SVG Version: 6.00 Build 0)  -->
<svg version="1.1" id="Слой_1" xmlns="http://www.w3.org/2000/svg" xmlns:xlink="http://www.w3.org/1999/xlink" x="0px" y="0px"
	 width="115px" height="48px" viewBox="0 0 115 48" enable-background="new 0 0 115 48" xml:space="preserve">
<style type="text/css">
	.st0{fill-rule:evenodd;clip-rule:evenodd;fill:#969797;}
</style>
<path class="st0" d="M16.351,29.873c-0.723,0.428-2.312,0.533-3.223,0.537c-2.76,0.012-4.954-0.018-6.7-0.018
	c-4.549,0-5.529-0.917-5.476-5.521c0.013-1.149-0.292-4.909,1.071-4.775c1.498,0.147,0.574,3.94,0.855,5.063
	c0.423,1.691,2.698,1.713,3.414,0.46c1.204-2.104-0.312-5.472,1.361-5.406c1.834,0.073-0.524,6.319,2.455,6.343
	c3.763,0.032,0.713-6.394,2.885-6.342c0.737,0.018,0.792,0.612,0.78,1.814c-0.067,6.293-0.252,6.704,4.111,6.623
	C17.471,29.136,16.912,29.54,16.351,29.873 M28.657,29.873c0.723,0.428,2.312,0.533,3.223,0.537c2.76,0.012,4.955-0.018,6.7-0.018
	c4.55,0,5.529-0.917,5.476-5.521c-0.013-1.149,0.291-4.909-1.071-4.775c-1.498,0.147-0.574,3.94-0.855,5.063
	c-0.422,1.691-2.698,1.713-3.415,0.46c-1.203-2.104,0.312-5.472-1.361-5.406c-1.834,0.073,0.524,6.319-2.455,6.343
	c-3.763,0.032-0.713-6.394-2.885-6.342c-0.736,0.018-0.792,0.612-0.78,1.814c0.067,6.293,0.252,6.704-4.11,6.623
	C27.536,29.136,28.095,29.54,28.657,29.873z M35.108,32.807c-2.219-0.71-4.272,0.207-5.333,1.448
	C30.973,35.171,34.258,34.631,35.108,32.807z M19.645,41.413c1.752,2.595,0.981,2.257,2.228,1.979
	c-0.293-1.376-0.898-1.926-1.657-2.586L19.645,41.413z M22.841,47.997c4.642-0.14,4.17-2.46,4.115-4.666
	c-0.032-1.266,1.068-1.896,0.581-3.804c-0.24-0.94-0.459-0.779-0.567-1.825c-0.067-0.648-0.094-1.319-0.163-1.955
	c1.531-1.169,0.573-0.731,0.922-1.876c0.226-0.742,0.514-0.34,1.102-1.731l-0.558-0.317l-1.868,1.758
	c-0.608-0.317-0.642-0.536-0.904-0.769l-0.708,0.304c0.315,0.891,0.755,1.66,0.979,2.736c0.261,1.251-0.007,2.12,0.421,3.074
	c0.387,0.863,0.717,1.671,0.231,2.799c-0.834,1.941-0.824-0.189-0.373,2.338c0.405,2.278-1.426,2.945-3.404,2.938
	c-0.145-0.001-0.154-0.001-0.288,0c-1.987,0.013-3.814-0.649-3.407-2.938c0.451-2.527,0.462-0.397-0.373-2.338
	c-0.485-1.128-0.156-1.936,0.231-2.799c0.429-0.953,0.16-1.823,0.421-3.074c0.224-1.076,0.665-1.845,0.979-2.736l-0.708-0.304
	c-0.261,0.233-0.296,0.452-0.904,0.769l-1.868-1.758l-0.558,0.317c0.589,1.392,0.877,0.989,1.103,1.731
	c0.35,1.145-0.608,0.707,0.923,1.876c-0.07,0.636-0.096,1.307-0.163,1.955c-0.109,1.045-0.327,0.884-0.567,1.825
	c-0.487,1.908,0.613,2.538,0.581,3.804c-0.056,2.206-0.527,4.525,4.115,4.666C22.475,48.001,22.531,48.001,22.841,47.997z
	 M25.363,41.413c-1.752,2.595-0.981,2.257-2.228,1.979c0.293-1.376,0.897-1.926,1.657-2.586L25.363,41.413z M9.9,32.807
	c2.219-0.71,4.272,0.207,5.333,1.448C14.035,35.171,10.75,34.631,9.9,32.807z M22.503,27.095c-1.356-0.093-6.399,1.336-7.398,0.168
	c-0.994-2.118,0.828-7.212-1.369-7.985c-1.261-0.444-2.542,0.222-2.686,1.491c-0.11,0.971,0.626,4.715-0.768,4.729
	c-1.879,0.019,0.749-5.334-1.928-6.261c-1.372-0.475-2.516,0.387-2.688,1.547c-0.246,1.649,0.701,4.696-1.004,4.695
	c-2.312-0.002,0.931-5.953-2.47-6.379c-1.675-0.21-2.116,0.968-2.155,2.505c-0.272,10.461,0.824,9.652,9.631,9.739l3.72-0.026
	c1.147-0.033,0.891,0.446,0.997,0.801c-0.42-0.065-3.19-1.633-5.789,0.366c0.259,1.822,3.603,3.814,5.983,3.073
	c0.815,0.633,0.923,2.639,2.411,2.764c0.951-1.424-0.725-0.678-0.994-2.867l1.011-1.016c-0.723-0.917-1.478-1.316-1.604-2.389
	c0.822-1.033,5.012-3.896,7.102-3.883c2.089-0.013,6.28,2.851,7.101,3.883c-0.125,1.073-0.881,1.472-1.604,2.389l1.011,1.016
	c-0.269,2.189-1.945,1.443-0.994,2.867c1.488-0.125,1.597-2.131,2.411-2.764c2.38,0.741,5.724-1.251,5.983-3.073
	c-2.599-1.998-5.369-0.431-5.789-0.366c0.106-0.354-0.15-0.833,0.997-0.801l3.72,0.026c8.807-0.087,9.903,0.722,9.631-9.739
	c-0.04-1.537-0.48-2.715-2.155-2.505c-3.401,0.426-0.159,6.377-2.47,6.379c-1.705,0.002-0.759-3.046-1.005-4.695
	c-0.172-1.16-1.316-2.022-2.688-1.547c-2.677,0.927-0.05,6.28-1.928,6.261c-1.393-0.014-0.658-3.758-0.768-4.729
	c-0.144-1.268-1.425-1.935-2.686-1.491c-2.198,0.773-0.375,5.867-1.369,7.985C28.903,28.43,23.859,27.002,22.503,27.095z
	 M35.143,19.922c-0.344-0.107-0.694-0.205-1.051-0.297c0.114,0.165,0.207,0.348,0.277,0.546c0.06,0.17,0.101,0.349,0.123,0.538
	c0.034,0.299,0.004,0.762-0.031,1.302c-0.028,0.428-0.059,0.905-0.063,1.33c-0.008,0.842,0.045,1.616,0.332,1.619
	c0.154,0.002,0.195-0.293,0.199-0.716c0.003-0.302-0.023-0.682-0.049-1.081C34.806,22.063,34.723,20.837,35.143,19.922z
	 M40.633,22.45c-0.236-0.148-0.477-0.294-0.723-0.436c-0.009,0.2-0.021,0.402-0.033,0.605c-0.022,0.379-0.045,0.759-0.045,1.082
	c0.001,0.692,0.09,1.242,0.514,1.242c0.307-0.001,0.376-0.395,0.376-0.938c0-0.301-0.027-0.677-0.055-1.066
	C40.656,22.777,40.644,22.614,40.633,22.45z M45.137,28.828c0.451-0.43,0.9-0.863,1.347-1.299c-0.309-0.363-0.644-0.734-1.003-1.109
	C45.421,27.383,45.312,28.175,45.137,28.828z M42.127,26.289c0.491,0.12,0.938,0.354,1.31,0.673
	c0.069-0.579,0.092-1.269,0.082-2.086c-0.001-0.09-0.001-0.193,0.001-0.306c-0.262-0.222-0.533-0.443-0.812-0.661
	c0.025,0.553,0.028,1.04-0.057,1.382C42.551,25.694,42.366,26.027,42.127,26.289z M38.219,29.854
	c-0.023-0.154-0.035-0.311-0.035-0.471c0-1.024,0.483-1.935,1.234-2.517c-0.481-0.185-0.904-0.515-1.17-0.979
	c-0.631-1.102-0.603-2.431-0.579-3.551c0.007-0.31,0.013-0.603,0.002-0.863c-0.013-0.321-0.048-0.565-0.153-0.668
	c-0.042-0.018-0.084-0.036-0.126-0.054c-0.006,0-0.012,0-0.017,0c-0.289,0.012-0.287,0.994-0.283,2.087
	c0.007,1.989,0.014,4.238-2.189,4.257c-2.22,0.018-2.566-1.629-2.581-3.387c-0.002-0.339,0.007-0.67,0.017-0.992
	c0.01-0.347,0.021-0.683,0.014-0.979c-0.014-0.572-0.077-0.989-0.326-0.983c-0.102,0.002-0.154,0.036-0.177,0.101
	c-0.078,0.225-0.085,0.626-0.08,1.173l0.008,0.72c0.011,0.954,0.021,1.758,0.008,2.436c-0.06,3.267-0.561,3.934-3.209,4.01
	c0.116,0.077,0.234,0.15,0.352,0.22c0.24,0.143,0.632,0.245,1.067,0.317c0.656,0.109,1.381,0.144,1.886,0.147
	c1.717,0.007,3.216-0.002,4.524-0.009C37.122,29.86,37.791,29.856,38.219,29.854z M28.056,38.858l-0.082,0.241
	c0.028,0.087,0.057,0.185,0.085,0.297c0.337,1.32,0.018,2.092-0.279,2.812c-0.153,0.369-0.298,0.721-0.288,1.111
	c0.004,0.143,0.011,0.318,0.017,0.493c0.02,0.504,0.039,1.006,0.008,1.484c1.329-1.38,2.687-2.716,4.065-4.027
	c-0.661-0.302-1.124-1.001-1.124-1.816c0-1.091,0.831-1.976,1.856-1.976c0.85,0,1.567,0.608,1.786,1.438
	c2.325-2.139,4.681-4.234,7.017-6.358c-0.666-0.052-1.275-0.308-1.764-0.708c-0.662,0.016-1.406,0.018-2.231,0.02l-0.64,0.002
	c0.085,0.059,0.171,0.121,0.257,0.187l0.248,0.191l-0.044,0.31c-0.017,0.124-0.046,0.248-0.084,0.37
	c-0.29,0.934-1.186,1.851-2.307,2.48c-1.102,0.617-2.445,0.972-3.661,0.799c-0.1-0.014-0.199-0.032-0.296-0.053
	c-0.142,0.191-0.274,0.465-0.41,0.749c-0.426,0.888-0.887,1.848-2.124,1.951L28.056,38.858z M29.659,24.101
	c-0.329,1.131-1.374,1.958-2.611,1.958c-0.207,0-0.407-0.023-0.6-0.067l0.003,1.065c1.341,0.175,2.6,0.252,3-0.101
	C29.728,26.283,29.711,25.213,29.659,24.101z M26.427,18.946l0.005,1.743c0.198-0.046,0.404-0.07,0.616-0.07
	c1.158,0,2.147,0.724,2.539,1.745c-0.024-1.443,0.125-2.73,1.03-3.354C29.293,18.877,27.897,18.848,26.427,18.946z M42.651,22.785
	c0.301,0.223,0.596,0.452,0.888,0.688c0.003-0.485-0.007-1.014-0.055-1.499c-0.073-0.743-0.202-1.369-0.447-1.344
	C42.618,20.672,42.604,21.715,42.651,22.785z M26.414,14.099l0.009,4.104c3.328-0.323,6.429,0.051,9.274,0.967
	c0.21-0.182,0.467-0.332,0.782-0.441c0.187-0.065,0.367-0.109,0.538-0.134c0.647-0.096,1.239,0.047,1.718,0.348
	c0.478,0.3,0.838,0.76,1.024,1.299c0.053,0.154,0.092,0.309,0.115,0.463c0.015,0.098,0.025,0.2,0.033,0.304
	c0.234,0.13,0.465,0.264,0.695,0.402c0.023-1.395,0.401-2.628,2.149-2.847c1.066-0.134,1.756,0.198,2.196,0.822
	c0.394,0.559,0.539,1.338,0.562,2.204c0.036,1.401,0.048,2.61,0.023,3.654c0.546,0.533,1.074,1.089,1.582,1.665
	c1.012-1.002,2.01-2.022,2.99-3.069C43.957,17.22,36.455,13.246,26.414,14.099z"/>
</svg>
