<svg version="1" xmlns="http://www.w3.org/2000/svg" width="346.667" height="346.667" viewBox="0 0 260.000000 260.000000"><path d="M0 41.5C0 64.3.3 83 .8 83c1.5.1 73.8.1 77.9 0h4.1V0H0v41.5zM88.5 40.9c0 22.5.3 41.2.5 41.5.6.5 19.7.8 58 .7l24.5-.1V.5L130 .2 88.5 0v40.9zM177.2 41.5V83l24.4.1h45.9L260 83V0h-82.8v41.5zM0 130.5V172l2.8.1c3.1.1 74.6 0 77.8 0l2.2-.1V89H0v41.5zM88.9 89.2c-.7 1.4-.2 82.1.5 82.5 1.1.7 80 .8 81.2 0 .5-.3.9-17.5.9-41.4V89.5l-41.3-.3c-22.6-.1-41.3-.1-41.3 0zM177.2 130.5c-.1 38.2.1 41.5 1.6 41.6.9 0 19.6.1 41.4.2l39.8.2V89h-82.8v41.5zM12.8 176.8l-12.8.3V260h82.8v-83l-19.1-.1c-10.6 0-23.5-.1-28.7-.2-5.2-.1-15.2-.1-22.2.1zM92 177l-3.5.5V260l41.5-.2 41.5-.3v-41.3c0-40.6 0-41.2-2-41.3-13.4-.3-74.9-.3-77.5.1zM183.3 176.8l-6.2.3v41.4l.1 41.5H260v-41.5c0-38.8-.1-41.5-1.7-41.5-14.3-.3-70.4-.4-75-.2z"/></svg>