<?xml version="1.0" encoding="utf-8"?>
<!-- Generator: Adobe Illustrator 19.2.1, SVG Export Plug-In . SVG Version: 6.00 Build 0)  -->
<svg version="1.1" id="Слой_1" xmlns="http://www.w3.org/2000/svg" xmlns:xlink="http://www.w3.org/1999/xlink" x="0px" y="0px"
	 width="115px" height="48px" viewBox="0 0 115 48" enable-background="new 0 0 115 48" xml:space="preserve">
<style type="text/css">
	.st0{fill-rule:evenodd;clip-rule:evenodd;fill:#3F2D1F;}
</style>
<path class="st0" d="M10.798,17.007c-0.386-0.004-0.7,0.304-0.704,0.686c-0.003,0.382,0.306,0.696,0.691,0.699
	c0.383,0.003,0.7-0.304,0.703-0.687C11.49,17.324,11.181,17.01,10.798,17.007 M11.276,20.271l3.251,3.387
	c-0.886,0.842-2.068,1.307-3.292,1.296c-2.023-0.018-3.737-1.303-4.387-3.091c-0.052-0.144-0.097-0.292-0.135-0.441
	c-0.066-0.256-0.111-0.519-0.131-0.79c-0.006-0.076-1.616,1.751-1.185,0.854c0.419-0.873-0.065-2.576-0.065-2.633
	c0.7,0.61,1.242,1.176,1.249,1.076c0.016-0.212,0.045-0.42,0.088-0.624c0.052-0.243,0.123-0.48,0.208-0.708
	c0.683-1.774,2.418-3.027,4.44-3.009c1.191,0.011,2.333,0.471,3.197,1.285L11.276,20.271z M17.856,21.291
	c0.379,0.004,0.684,0.312,0.681,0.688c-0.003,0.377-0.313,0.68-0.691,0.677c-0.379-0.004-0.685-0.312-0.679-0.69
	C17.169,21.59,17.478,21.287,17.856,21.291 M17.326,24.499l-3.261,3.281c0.858,0.846,2.014,1.325,3.222,1.334
	c1.994,0.018,3.703-1.217,4.377-2.968c0.054-0.141,0.101-0.284,0.141-0.431c0.069-0.252,0.117-0.51,0.141-0.777
	c0.006-0.074,1.563,1.755,1.155,0.864c-0.398-0.869,0.107-2.536,0.109-2.594c-0.701,0.588-1.244,1.136-1.25,1.037
	c-0.011-0.209-0.036-0.415-0.073-0.616c-0.05-0.241-0.112-0.474-0.195-0.7c-0.642-1.762-2.33-3.028-4.322-3.045
	c-1.175-0.011-2.308,0.421-3.173,1.209L17.326,24.499z M29.571,35.666l0.325,0.418l-4.002,3.32c-1.79-0.017-3.727-0.499-5.809-1.447
	c-1.744-0.789-3.556-1.895-5.435-3.318c-2.105-0.395-3.967-1.471-5.584-3.228c-1.814-1.977-2.709-4.263-2.686-6.857
	c0.007-0.644,0.035-0.963,0.105-1.389c0.954,1.913,2.978,2.771,5.247,2.88c0.228,1.2,0.758,2.21,1.595,3.028
	c1.164,1.14,2.722,1.718,4.673,1.736c1.869,0.019,3.396-0.503,4.581-1.562c1.262-1.118,1.905-2.646,1.921-4.588
	c0.017-1.94-0.606-3.491-1.869-4.65c-1.184-1.081-2.692-1.628-4.524-1.646c-1.951-0.018-3.517,0.533-4.703,1.651
	c-0.242,0.228-0.46,0.473-0.652,0.735l-0.569-0.588l3.27-3.429c-0.342-0.611-1.532-1.4-2.188-1.479
	c0.476-0.311,0.826-0.512,1.42-0.713c1.095-0.274,2.268-0.405,3.519-0.394c3.584,0.032,6.469,1.187,8.659,3.464
	c1.933,2.018,2.887,4.343,2.863,6.977c-0.018,2.238-0.739,4.261-2.157,6.07c-1.421,1.81-3.258,3.05-5.514,3.723
	c0.792,0.482,1.675,0.857,2.648,1.123c0.973,0.267,1.937,0.405,2.893,0.413C28.333,35.921,28.991,35.838,29.571,35.666
	 M6.624,13.966c-4.762,8.418-0.237,20.389-0.237,20.389l-4.664-0.054l0.235-20.39C1.958,13.912,4.158,13.945,6.624,13.966 M0,47.903
	l0.002-0.42c0.408-0.03,0.637-0.056,0.687-0.078c0.038-0.017,0.064-0.038,0.081-0.065c0.034-0.046,0.06-0.145,0.081-0.298
	c0.038-0.263,0.059-0.75,0.064-1.458l0.01-1.882c0.002-0.6-0.005-1.1-0.022-1.503c-0.019-0.402-0.044-0.637-0.076-0.703
	c-0.022-0.044-0.054-0.077-0.102-0.101c-0.07-0.033-0.305-0.059-0.707-0.078L0.021,40.9c0.604,0.026,1.14,0.038,1.61,0.04
	c0.563,0.002,1.101-0.009,1.606-0.031l0,0.42c-0.422,0.03-0.666,0.064-0.731,0.108c-0.065,0.043-0.105,0.147-0.119,0.313
	c-0.019,0.209-0.03,1.049-0.038,2.516l0.068,0.001c0.34-0.269,0.829-0.721,1.467-1.353c0.636-0.63,1.129-1.157,1.479-1.58
	l0.007-0.183l-0.007-0.187l0.044-0.048c0.366,0.024,0.676,0.038,0.934,0.039c0.273-0.001,0.576-0.01,0.915-0.033v0.418L6.97,41.37
	c-0.228,0.021-0.376,0.046-0.443,0.073c-0.133,0.06-0.315,0.182-0.538,0.369c-0.334,0.273-0.759,0.65-1.272,1.133L3.82,43.781
	l0.46,0.566c0.544,0.665,1.191,1.424,1.946,2.27c0.435,0.488,0.693,0.757,0.78,0.808c0.059,0.032,0.22,0.06,0.475,0.079l-0.001,0.42
	l-0.265-0.01l-0.895-0.028c-0.239-0.001-0.552,0.01-0.934,0.032c-0.268-0.347-0.725-0.903-1.367-1.666
	c-0.481-0.573-0.939-1.096-1.377-1.563c-0.057-0.059-0.098-0.094-0.12-0.105c-0.02-0.007-0.04-0.011-0.059-0.009
	c-0.051-0.002-0.085,0.019-0.106,0.059c-0.01,0.026-0.016,0.158-0.017,0.399l0.016,1.513c0.006,0.441,0.025,0.696,0.053,0.762
	c0.021,0.047,0.053,0.082,0.101,0.102c0.066,0.028,0.303,0.057,0.707,0.08l-0.003,0.421c-0.495-0.026-1.041-0.04-1.643-0.041
	C1.267,47.87,0.744,47.88,0,47.903 M7.952,47.472c0.311-0.015,0.505-0.046,0.58-0.093c0.051-0.032,0.131-0.16,0.236-0.377
	c0.207-0.432,0.47-1.033,0.79-1.801l1.788-4.32l0.738,0.002l2.252,5.367c0.293,0.697,0.474,1.078,0.541,1.144
	c0.069,0.068,0.282,0.115,0.635,0.137l-0.001,0.421c-0.547-0.026-1.063-0.038-1.548-0.04c-0.578-0.004-1.127,0.008-1.65,0.03
	l0.001-0.42c0.399-0.014,0.628-0.038,0.69-0.065c0.062-0.027,0.093-0.08,0.093-0.152c0.001-0.063-0.068-0.28-0.208-0.649
	l-0.328-0.854c-0.414-0.009-0.879-0.013-1.388-0.014c-0.446-0.002-0.853,0-1.215,0.007l-0.222,0.572
	c-0.061,0.156-0.137,0.388-0.223,0.699c-0.021,0.07-0.032,0.132-0.033,0.188c0.001,0.078,0.033,0.132,0.098,0.163
	c0.066,0.033,0.301,0.066,0.705,0.098l-0.001,0.422c-0.327-0.025-0.737-0.038-1.225-0.04c-0.463-0.002-0.833,0.01-1.107,0.032
	L7.952,47.472z M11.255,42.646l-1.066,2.557c0.308,0.018,0.648,0.028,1.019,0.03c0.389,0.001,0.759-0.005,1.114-0.022L11.255,42.646
	z M18.712,47.962v-0.421c0.435-0.014,0.693-0.044,0.77-0.086c0.077-0.045,0.128-0.255,0.15-0.635
	c-1.151-0.002-2.049-0.187-2.699-0.553c-0.646-0.367-0.97-0.978-0.969-1.833c0.004-0.81,0.302-1.408,0.896-1.787
	c0.595-0.379,1.525-0.569,2.785-0.568c-0.009-0.277-0.026-0.442-0.047-0.5c-0.021-0.056-0.072-0.096-0.151-0.124
	c-0.078-0.025-0.319-0.052-0.719-0.077v-0.418c0.63,0.025,1.192,0.039,1.687,0.04c0.441,0.002,0.976-0.008,1.61-0.03v0.419
	c-0.404,0.022-0.643,0.048-0.721,0.072c-0.079,0.027-0.129,0.068-0.15,0.122c-0.023,0.055-0.04,0.221-0.05,0.5
	c1.261,0.012,2.186,0.208,2.781,0.589c0.593,0.382,0.888,0.979,0.885,1.79c-0.003,0.855-0.33,1.465-0.982,1.827
	c-0.65,0.362-1.55,0.542-2.699,0.539c0.019,0.377,0.069,0.588,0.147,0.633c0.079,0.042,0.334,0.075,0.77,0.092v0.42
	c-0.062,0-0.276-0.006-0.643-0.015c-0.424-0.017-0.758-0.024-0.998-0.027C19.814,47.943,19.263,47.952,18.712,47.962z
	 M21.093,46.332c1.419-0.01,2.131-0.643,2.134-1.907c0.002-0.71-0.2-1.204-0.604-1.476c-0.403-0.273-0.909-0.41-1.518-0.411
	l-0.015,2.025C21.09,44.849,21.09,45.439,21.093,46.332z M19.635,46.327l0.014-1.769c0-0.218-0.001-0.893-0.004-2.025
	c-0.757,0.028-1.299,0.189-1.631,0.488c-0.333,0.294-0.499,0.757-0.501,1.386c-0.003,0.627,0.162,1.1,0.497,1.417
	C18.343,46.144,18.884,46.312,19.635,46.327z M25.779,47.983v-0.27c0.181-0.081,0.341-0.172,0.487-0.278
	c0.069-0.518,0.105-1.61,0.111-3.274c0.002-1.134-0.007-1.885-0.029-2.256c-0.01-0.195-0.043-0.32-0.101-0.37
	c-0.059-0.052-0.306-0.097-0.746-0.136l0.001-0.421c0.791,0.034,1.415,0.053,1.872,0.053l2.763-0.022
	c0.292,0.001,0.556,0.014,0.788,0.038l0.036,0.055c-0.075,0.363-0.13,0.846-0.165,1.447l-0.395-0.002
	c-0.018-0.485-0.036-0.743-0.058-0.778c-0.021-0.032-0.097-0.065-0.227-0.094c-0.277-0.063-0.701-0.093-1.273-0.095
	c-0.282-0.001-0.61,0.011-0.987,0.031c-0.044,1.029-0.072,1.846-0.082,2.457c0.359,0.023,0.697,0.036,1.01,0.037
	c0.466,0.001,0.745-0.012,0.838-0.042c0.058-0.02,0.097-0.068,0.121-0.144c0.02-0.059,0.043-0.267,0.071-0.627h0.431
	c-0.018,0.563-0.029,0.928-0.029,1.097l0.024,1.125L29.81,45.51c-0.022-0.435-0.051-0.688-0.088-0.755
	c-0.021-0.039-0.064-0.067-0.135-0.086c-0.169-0.036-0.542-0.055-1.129-0.058c-0.185-0.002-0.398,0.008-0.648,0.029
	c-0.007,0.175-0.01,0.357-0.011,0.538c-0.003,0.952,0.011,1.684,0.044,2.197l0.992,0.019c0.568,0.001,1.084-0.028,1.553-0.086
	c0.084-0.306,0.164-0.654,0.243-1.042l0.417,0.002c-0.078,0.585-0.127,1.147-0.14,1.686c-0.305,0.033-0.597,0.048-0.879,0.046
	c-0.184,0-0.549-0.006-1.089-0.022c-0.505-0.015-0.968-0.023-1.393-0.025C26.986,47.952,26.397,47.963,25.779,47.983z"/>
</svg>
