<?xml version="1.0" encoding="utf-8"?>
<!-- Generator: Adobe Illustrator 19.2.1, SVG Export Plug-In . SVG Version: 6.00 Build 0)  -->
<svg version="1.1" id="Слой_1" xmlns="http://www.w3.org/2000/svg" xmlns:xlink="http://www.w3.org/1999/xlink" x="0px" y="0px"
	 width="115px" height="48px" viewBox="0 0 115 48" enable-background="new 0 0 115 48" xml:space="preserve">
<path d="M19.642,27.327c0,0-0.224-0.44-0.01-1.091c0.53-1.611,2.976-5.199,6.177-5.994c0.107-0.02,0.122-0.143-0.122-0.163
	c-2.253-0.188-4.456,2.162-4.485,2.059c1.346-7.564,8.95-0.979,10.031-6.279c0,0,0.084-0.008,0.163,0
	c0.5,0.01,0.897,5.504-3.282,6.208c0,0-0.031,0.428,1.009,0.428c0,0-2.003,2.064-4.893,1.957
	C22.178,24.377,21.569,23.306,19.642,27.327z M98,34.106c-0.204,2.528-1.651,8.603-7.523,8.603c-5.117,0-7.177-5.831-6.417-10.784
	c-0.429,0.417-1.531,1.357-3.022,1.671c2.263,1.142,2.222,7.38-2.752,7.38c-2.071,0-3.562-1.379-3.642-3.568
	c-0.753,1.852-2.234,3.16-3.208,3.16c-3.221,0-3.16-6.911-3.119-7.36c0.022-0.244-0.102-0.102-0.102-0.102
	c-0.108,0.288-1.346,2.892-2.141,4.547c-0.245,0.51-0.733,1.47-1.529,1.47c-1.142,0-1.536-1.245-1.61-1.485
	c-0.402-1.299-1.195-4.235-1.264-4.458c-0.082-0.265-0.122-0.109-0.122-0.109c-1.57,3.425-2.793,7.549-2.793,7.549H56.33v-4.769
	c-1.047,2.364-3.244,5.023-6.321,5.023c-2.203,0-3.643-1.132-4.326-2.714c-0.253,0.522-1.263,2.368-2.891,2.368
	c-1.896,0-2.548-2.569-2.63-3.445c0,0-0.102-0.183-0.183,0.143c-0.082,0.326-1.427,3.507-3.609,3.507
	c-1.477,0-2.378-1.383-2.723-3.225c-0.513,0.906-2.063,3.276-4.264,3.276c-1.544,0-2.416-1.15-2.416-3.15
	c0-2.095,1.319-4.756,1.284-6.116c-0.022-0.896-1.743-0.659-2.273-0.522c-0.277,0.194-0.622,0.597-0.861,1.439
	C24.658,34.055,21.509,48,10.5,48c-5.446,0-9.299-4.79-10.243-10.978c-1.341-8.789,2.605-19.908,11.165-19.908
	c7.523,0,9.088,8.868,6.672,13.486c0,0-1.355-0.714-2.292-2.181c1.427-3.629,0.512-9.164-4.463-9.164
	c-5.698,0-8.558,9.653-7.294,17.197c0.767,4.575,3.556,8.308,8.041,8.308c5.994,0,11.098-9.297,11.098-15.015l0-0.064
	c-0.523-0.291-1.109-1.545-0.226-3.055c0,0,1.15,0,1.746,0.03c0.459,2.783,4.786,0.642,5.627,3.241
	c0.856,2.645-1.728,7.446,0.566,7.446c0.593,0,1.803-0.653,2.698-3.228c0.408-2.997,1.968-5.882,4.652-5.882
	c0.923,0,2.467,0.161,3.18,1.874c0,0,0.571,0.078,0.816,0.506c0,0-0.469,6.945,1.509,6.945c0.565,0,1.029-0.603,1.397-2.041
	c0.071-3.662,1.773-7.361,4.923-7.361c4.302,0,3.303,5.139,3.303,5.139h-1.916c0.163-2.442-0.571-3.324-1.284-3.324
	c-2.385,0-3.812,8.296,0.184,8.296c3.996,0,5.451-6.463,5.974-9.317v-0.016h2.425c0,0,0.041,4.83,0.041,5.89
	c0.153-0.046,1.305-3.305,2.263-5.099c0.298-0.557,0.821-0.693,1.06-0.693c0.55,0,0.938,0.326,1.203,0.836
	c0.265,0.51,1.386,5.198,1.672,5.198c0.163,0,2.161-4.587,2.548-5.403c0.387-0.816,1.019-1.061,1.57-1.061
	c1.366,0,1.488,1.405,1.549,1.895c0.061,0.489-0.122,7.051,1.57,7.051c1.229,0,2.045-3.114,2.113-3.384
	c-0.937-0.262-1.736-0.9-1.135-2.342c0.114,0.014,0.658,0.067,1.458,0.121c0.005-1,0.009-1.963,0.009-3.533c0.856,0,2.1,0,2.569,0
	c0,1.57-0.003,2.47-0.007,3.574c2.837-0.112,6.365-0.778,7.819-3.43c0.967-2.035,2.507-3.458,4.522-3.458
	c5.566,0,4.404,9.592-0.652,9.592c-1.029,0-1.774-0.571-2.059-1.315c-0.095-0.247-0.183,0.061-0.183,0.326
	c0,0.265-0.367,6.104,4.361,6.104c3.364,0,5.151-3.581,5.505-6.644c0,0,0.368,0.084,0.837,0.377C97.755,33.765,98,34.106,98,34.106z
	 M88.703,32.618c2.222,0,3.344-6.116,1.223-6.116C87.582,26.502,86.257,32.618,88.703,32.618z M40.039,30.905
	c-0.367-0.591-1.162-0.571-1.162-0.571c-2.875,0-3.494,6.984-1.896,7.258C38.999,37.939,40.039,32.292,40.039,30.905z
	 M78.428,34.269c-0.333,0-0.748,0.019-1.198,0.039c-0.003,0.757-0.005,1.46-0.005,2.081c0,1.145,0.347,2.039,1.386,2.039
	C80.752,38.428,80.63,34.269,78.428,34.269z M45.133,22.017c0.618-0.008,1.26-0.406,1.569-0.886
	c0.138-0.219,0.171-0.423,0.146-0.488c-0.032-0.081-0.106-0.073-0.146-0.008c-0.334,0.512-0.919,1.162-1.602,1.154
	c-0.479-0.008-0.65-0.683-0.203-1.602c0.366-0.74,0.976-1.26,1.114-1.146c0.114,0.089-0.13,0.439-0.22,0.732
	c-0.114,0.366,0,0.61,0.195,0.707c0.106,0.057,0.138,0.032,0.171-0.065c0.162-0.439,0.488-0.87,0.317-1.211
	c-0.098-0.187-0.228-0.317-0.447-0.447c-0.406-0.244-1.227,0.195-1.748,1.219C43.752,21.026,44.102,22.034,45.133,22.017z
	 M47.233,19.977c0.528-1.049,1.358-1.471,1.764-1.235c0.203,0.122,0.349,0.244,0.479,0.423c0.146,0.195,0.081,0.691-0.26,1.106
	c-0.399,0.488-0.943,0.699-1.512,0.236c-0.26,0.748-0.065,1.26,0.366,1.285c0.674,0.032,1.268-0.618,1.618-1.154
	c0.04-0.065,0.105-0.065,0.138,0.008c0.033,0.065,0.009,0.293-0.138,0.504c-0.342,0.496-0.968,0.87-1.594,0.878
	C47.062,22.042,46.704,21.026,47.233,19.977z M47.777,20.326c0.399,0.252,0.732-0.097,0.968-0.406
	c0.26-0.341,0.439-0.764,0.325-0.854c-0.171-0.138-0.845,0.35-1.227,1.122C47.818,20.237,47.794,20.286,47.777,20.326z
	 M50.266,19.953c0.52-0.569,1.211-0.797,1.293-0.764c0.146,0.065-0.545,0.845-0.813,1.642c-0.236,0.707-0.073,1.211,0.618,1.211
	c0.472,0,0.984-0.415,1.203-0.87c0.114-0.236,0.131-0.423,0.074-0.512c-0.041-0.065-0.098-0.065-0.138,0.008
	c-0.309,0.569-0.707,1.106-1.04,1.122c-0.293,0.016-0.342-0.366-0.13-0.837c0.187-0.423,0.585-1.024,0.756-1.382
	c0.203-0.423-0.048-0.821-0.317-0.861c-0.268-0.041-1.146,0.487-1.512,0.878C50.161,19.668,50.039,20.172,50.266,19.953z
	 M53.211,20.01c0.634-0.943,1.292-1.309,1.707-1.309c0.325,0,0.488,0.252,0.479,0.536c0.098-0.162,0.187-0.309,0.269-0.447
	c0.065-0.114,0.146-0.122,0.203-0.049c0.122,0.146,0.187,0.496-0.017,0.894c-0.244,0.487-0.756,1.471-1.097,2.26
	c0.683-0.342,1.13-0.789,1.456-1.219c0.048-0.065,0.122-0.065,0.138,0.016c0.017,0.073-0.024,0.252-0.162,0.471
	c-0.317,0.496-0.902,0.821-1.577,1.065c-0.447,1.089-1.024,2.382-1.683,2.642c-0.163,0.065-0.325,0.041-0.471-0.171
	c-0.171-0.244-0.317-0.528-0.163-1.008c0.236-0.732,0.935-1.228,1.74-1.536c0.081-0.179,0.155-0.374,0.236-0.561
	c-0.236,0.236-0.52,0.406-0.821,0.406C52.699,22.001,52.552,20.985,53.211,20.01z M53.893,22.489
	c-1.056,0.618-1.415,1.732-1.276,1.927C52.723,24.57,53.365,23.725,53.893,22.489z M53.544,21.749
	c0.317,0.008,0.732-0.504,1.147-1.219c0.512-0.894,0.585-1.398,0.349-1.414c-0.252-0.017-0.845,0.504-1.293,1.211
	C53.308,21.026,53.219,21.741,53.544,21.749z M56.912,19.993c0.659-0.959,1.301-1.325,1.707-1.325c0.35,0,0.512,0.268,0.496,0.585
	c0.106-0.195,0.203-0.366,0.293-0.496c0.073-0.106,0.138-0.122,0.195-0.049c0.122,0.146,0.187,0.496-0.008,0.902
	c-0.179,0.366-0.586,0.975-0.78,1.406c-0.203,0.455-0.212,0.805,0.065,0.789c0.333-0.016,0.78-0.569,1.065-1.13
	c0.041-0.073,0.097-0.081,0.13-0.008c0.033,0.073,0.033,0.276-0.073,0.504c-0.212,0.447-0.724,0.894-1.171,0.87
	c-0.439-0.024-0.667-0.285-0.667-0.667c-0.26,0.333-0.626,0.634-1.016,0.634C56.391,22.009,56.237,20.977,56.912,19.993z
	 M57.237,21.741c0.334,0.008,0.756-0.512,1.171-1.227c0.512-0.894,0.585-1.398,0.349-1.423c-0.26-0.024-0.854,0.504-1.301,1.228
	C57.026,21.018,56.92,21.733,57.237,21.741z M61.491,23.684c-0.122-0.171-0.163-0.398-0.008-0.894
	c0.244-0.789,1.609-3.366,2.122-4.048c0.081-0.106,0.154-0.089,0.195,0.008c0.04,0.106,0.057,0.228,0.048,0.366
	c0.358-0.309,0.837-0.537,1.187-0.171c0.39,0.414,0.212,1.138-0.089,1.805c-0.244,0.537-0.545,0.927-0.853,1.114
	c0.796-0.049,1.284-0.634,1.544-1.187c0.049-0.114,0.138-0.081,0.155,0c0.016,0.073,0.032,0.284-0.106,0.537
	c-0.309,0.561-0.862,0.829-1.447,0.87c-0.52,0.032-0.862-0.041-1.146-0.301c-0.171-0.155-0.252-0.342-0.276-0.545
	c-0.382,0.699-0.797,1.528-1.187,2.431C61.597,23.741,61.54,23.757,61.491,23.684z M63.256,21.611
	c0.26,0.211,0.788-0.382,1.17-1.162c0.317-0.65,0.406-1.325,0.203-1.423c-0.194-0.097-0.699,0.309-1.081,0.935
	c-0.089,0.146-0.179,0.292-0.277,0.463C63.068,20.936,63.028,21.424,63.256,21.611z M66.046,21.124c0-0.35,0.057-0.472,0.187-0.472
	c0.114,0,0.358,0.268,0.358,0.528c0,0.228-0.009,0.228-0.009,0.26c0.009,0.13,0.131,0.244,0.236,0.244
	c0.305,0,0.76-0.586,1.097-1.163c-0.173,0.09-0.398,0.18-0.642,0.18c-0.382,0-0.731-0.293-0.731-0.674
	c0-0.09,0.017-0.472,0.382-0.903c0.366-0.431,0.788-0.52,1.138-0.52c0.364,0,0.648,0.356,0.65,0.535
	c0.08-0.145,0.158-0.278,0.228-0.38c0.073-0.106,0.138-0.122,0.195-0.049c0.122,0.146,0.187,0.496-0.009,0.902
	c-0.179,0.366-0.585,0.975-0.78,1.406c-0.203,0.455-0.211,0.805,0.065,0.789c0.333-0.016,0.78-0.569,1.064-1.13
	c0.041-0.073,0.098-0.081,0.131-0.008c0.032,0.073,0.033,0.276-0.074,0.504c-0.211,0.447-0.723,0.894-1.17,0.87
	c-0.439-0.024-0.667-0.284-0.667-0.666l0.039-0.087c-0.236,0.4-0.51,0.721-0.941,0.721C66.298,22.009,66.046,21.473,66.046,21.124z
	 M68.232,19.847c0.163-0.292,0.155-0.52,0.155-0.52c0-0.301-0.065-0.382-0.26-0.382c-0.163-0.008-0.39,0.106-0.634,0.39
	c-0.293,0.333-0.342,0.61-0.342,0.764c0,0.236,0.065,0.366,0.285,0.366C67.622,20.465,67.964,20.302,68.232,19.847z M73.186,21.611
	c-0.358-0.471-0.236-1.179,0.13-1.829c0.309-0.553,0.805-1.024,1.293-1.057c0.252-0.016,0.39,0.057,0.553,0.276
	c0.187,0.252,0.431,0.309,0.382,0.894c-0.008,0.065-0.008,0.122-0.016,0.187c0.048,0,0.097-0.017,0.162-0.017
	c0.057,0,0.057,0.041,0.024,0.081c-0.057,0.065-0.138,0.098-0.219,0.106c-0.171,0.691-0.683,1.512-1.285,1.715
	C73.917,22.066,73.511,22.034,73.186,21.611z M74.836,19.351c-0.041,0.219,0.048,0.455,0.179,0.577
	c0.065-0.252,0.089-0.455,0.065-0.602C75.039,19.067,74.876,19.116,74.836,19.351z M73.551,21.644
	c0.228,0.187,0.724-0.098,1.122-0.846c0.122-0.228,0.22-0.455,0.285-0.65c-0.057-0.024-0.106-0.057-0.154-0.098
	c-0.171-0.13-0.366-0.414-0.374-0.715c-0.22,0.187-0.455,0.455-0.626,0.764C73.462,20.717,73.34,21.465,73.551,21.644z M41.3,19.285
	c-3.244,1.918-5.929,2.024-5.929,2.024s3.65-0.793,6.305-2.862c0.499-1.05,1.002-2.305,1.644-2.559
	c0.162-0.065,0.325-0.04,0.471,0.171c0.171,0.244,0.317,0.529,0.163,1.008c-0.186,0.576-0.661,1.005-1.247,1.312
	c-0.161,0.13-0.363,0.277-0.575,0.42c-0.051,0.122-0.101,0.244-0.154,0.365c0.236-0.236,0.52-0.406,0.821-0.406
	c0.748,0,0.748,1.089,0.317,1.992c-0.488,1.024-0.911,1.252-1.342,1.252c-0.561,0-1-0.382-0.992-1.146
	c0.006-0.384,0.157-0.715,0.533-1.577C41.31,19.28,41.305,19.282,41.3,19.285z M42.37,18.23c0.027-0.01,0.057-0.022,0.089-0.034
	c0.969-0.628,1.303-1.665,1.169-1.852C43.523,16.191,42.895,17.017,42.37,18.23z M41.555,20.229
	c-0.415,0.788-0.334,1.488-0.032,1.471c0.382-0.024,0.804-0.553,1.138-1.268c0.35-0.748,0.366-1.415,0.04-1.423
	C42.384,19.002,41.937,19.497,41.555,20.229z M75.967,21.993c0.512-0.008,0.992-0.65,1.658-1.853l0.066,0.008
	c-0.342,0.78-0.659,1.699,0.268,1.699c0.715,0,1.122-0.667,1.699-1.707l0.065,0.008c-0.325,0.675-0.854,1.862,0.3,1.862
	c0.586,0,1.309-0.699,1.309-1.244c0-0.114-0.049-0.187-0.098-0.187c-0.025,0-0.057,0.016-0.073,0.057
	c-0.309,0.569-0.707,1.122-1.04,1.122c-0.423,0-0.244-0.504-0.163-0.732c0.691-1.853,0.716-1.992,0.716-2.113
	c0-0.195-0.065-0.399-0.211-0.399c-0.057,0-0.122,0.032-0.171,0.098l-0.854,1.325c-0.813,1.268-1.073,1.658-1.341,1.658
	c-0.114,0-0.195-0.113-0.195-0.276c0-0.252,0.301-0.959,0.667-2.016c0.049-0.138,0.073-0.269,0.073-0.39
	c0-0.195-0.065-0.399-0.212-0.399c-0.057,0-0.122,0.032-0.171,0.098l-0.853,1.325c-0.837,1.292-1.203,1.821-1.464,1.821
	c-0.089,0-0.13-0.09-0.13-0.228c0-0.171,0.065-0.415,0.179-0.618c0.016-0.024,0.024-0.049,0.024-0.065
	c0-0.041-0.024-0.049-0.065-0.049c-0.277,0-0.447,0.415-0.447,0.748C75.504,21.798,75.618,22.002,75.967,21.993z M81.795,23.935
	C82.041,24.06,81.795,23.935,81.795,23.935L81.795,23.935z M69.62,21.2c0.277-1.933,1.94-2.477,1.94-2.477s0.665-0.168,0.665,0.514
	c0,0,0.261-0.542,0.394-0.542c0,0,0.192,0.053,0.192,0.42c0,0.367-1.263,2.886-1.263,2.886s-0.066,0.218-0.2,0.541
	c1.677-0.096,4.16-0.001,7.777,0.591c0.856,0.14,1.694,0.38,2.491,0.721c0.078,0.033,0.14,0.061,0.179,0.081
	c-5.206-1.055-8.586-1.164-10.604-1.037c-0.454,0.961-1.348,2.351-2.719,2.351c-1.106,0-1.134-0.558-0.913-1.084
	c0.269-0.642,0.838-1.107,1.509-1.291c0.384-0.105,0.909-0.21,1.611-0.28c0.156-0.33,0.238-0.567,0.238-0.567
	c0.053-0.072,0.107-0.326,0.116-0.367c-0.01,0.044-0.1,0.341-0.757,0.341C69.564,22.001,69.62,21.2,69.62,21.2z M70.496,22.954
	c-0.473,0.049-0.844,0.109-1.121,0.165c-0.506,0.103-0.967,0.372-1.289,0.776c-0.28,0.352-0.389,0.727,0.417,0.727
	C69.407,24.623,70.091,23.7,70.496,22.954z M70.193,21.534c0.021,0.129,0.143,0.218,0.271,0.188c0.252-0.058,0.714-0.424,1.41-1.946
	c0.057-0.124,0.098-0.255,0.114-0.39c0.017-0.133,0.008-0.266-0.092-0.266c0,0-0.35-0.076-1.152,0.957
	C70.175,20.809,70.156,21.306,70.193,21.534z"/>
</svg>
