<svg width="64" height="64" fill="none" xmlns="http://www.w3.org/2000/svg"><path d="M50.445 5.74c1.748 1.363 3.394 2.8 4.904 4.42l.757.79c6.678 7.154 8.192 15.617 7.849 25.057-.481 7.533-4.317 14.312-9.824 19.388l-.793.753c-7.32 6.759-15.94 8.142-25.58 7.806-7.376-.459-14.162-4.463-19.108-9.77l-.756-.79C1.216 46.24-.298 37.779.045 28.338.527 20.804 4.362 14.025 9.87 8.95l.793-.752c3.771-3.482 7.699-5.414 12.607-6.921l1.468-.452c8.676-2.08 18.47-.145 25.708 4.916zM9.126 11.816C3.896 17.976.732 25.823 1.341 33.99c.77 6.806 2.939 12.42 7.31 17.77l.748.996c5.131 6 13.01 9.276 20.774 9.909 8.315.525 16.169-2.677 22.505-7.9 6.39-6.017 9.529-13.692 10.083-22.366-.142-7.468-2.698-14.044-7.412-19.815l-.748-.995c-5.131-6-13.01-9.277-20.774-9.91-9.118-.575-18.635 3.34-24.7 10.137z" fill="#8B734B"/><path d="M34.64 6.93c1.54.882 2.58 1.992 3.248 3.635.288 2.016.224 3.6-.71 5.427-1.431 1.62-2.397 2.35-4.569 2.65v1.212h6.497v1.615H32.61v26.252c7.343-1.825 12.517-3.632 16.43-10.11 1.617-3.097 2.423-6.213 2.656-9.68h1.624c.386 5.665-1.99 10.477-5.507 14.792-4.141 4.442-9.306 6.195-15.203 6.614l.406 7.674 4.873-4.847 1.218.808c-.851 1.874-2.163 3.123-3.604 4.569l-.769.805-.75.755c-.225.229-.45.457-.68.693-.694.448-.694.448-1.499.402-.99-.433-1.556-.953-2.31-1.723l-.817-.824-.84-.866-.857-.87c-.699-.708-1.394-1.42-2.086-2.133l.812-1.616c.424.352.847.706 1.269 1.06l.714.597c1.141 1.018 2.212 2.111 3.296 3.19l.406-7.674-2.589-.303c-6.091-.894-10.877-3.783-14.595-8.742-2.51-3.863-3.693-7.786-3.526-12.36h1.624l.181 1.243c.881 5.563 2.669 10.54 7.333 14.064 3.678 2.461 7.26 3.53 11.572 4.482V21.47H25.3v-1.615h6.09v-1.212l-1.294-.252c-1.82-.507-2.504-1.47-3.578-2.979-.755-1.502-.581-3.207-.406-4.846.872-1.952 2.05-2.936 3.973-3.784 1.595-.453 2.983-.354 4.554.149zm-6.092 2.827c-1 1.491-1.09 2.711-.812 4.443.84 1.373 1.667 2.39 3.249 2.827 2.097 0 2.857-.072 4.467-1.44 1.057-1.807 1.108-2.556.812-4.618-.853-1.393-1.679-2.307-3.249-2.828-1.938-.304-2.96.45-4.467 1.616z" fill="#8B734B"/></svg>