<svg width="64" height="64" fill="none" xmlns="http://www.w3.org/2000/svg"><path d="M50.79 5.697c.901.67 1.733 1.372 2.562 2.128l1.016.917c5.693 5.393 9.28 12.64 9.615 20.484.262 10.174-2.408 18.423-9.493 25.9-6.446 6.057-15.145 9.092-23.932 8.862-9.335-.744-17.273-4.734-23.46-11.747-3.434-4.316-5.625-9.163-6.662-14.578l-.278-1.36c-.804-9.311 1.437-17.656 7.22-25.076C18.346-1.75 36.867-3.317 50.79 5.697zM18.613 4.6l-1.218.616C10.366 9.038 5.377 15.188 2.86 22.745.464 31.245 1.414 39.396 5.63 47.097c1.161 2.007 2.534 3.774 4.097 5.485l.633.743c4.627 5.093 11.677 7.97 18.353 8.934h2.827V46.938l-4.847-1.21c-3.202-1.721-5.182-3.741-6.483-7.162-.67-2.42-.53-4.962-.551-7.453l-.024-1.67c-.02-1.456-.037-2.912-.052-4.369-.016-1.49-.037-2.979-.057-4.468-.039-2.916-.073-5.832-.104-8.749h1.616l-.016.917c-.05 2.87-.086 5.74-.11 8.611a432.38 432.38 0 01-.057 4.426c-.027 1.427-.04 2.855-.047 4.282-.007.802-.025 1.603-.045 2.404-.001 3.841.813 7.084 3.428 10.017 2.134 2.002 4.487 2.738 7.35 3.214v-33.87h1.211v33.87c4.262-.946 6.652-2.098 9.214-5.595 1.072-1.91 1.39-3.675 1.38-5.846v-1.516l-.012-1.619-.004-1.671c-.003-1.46-.01-2.92-.02-4.379-.008-1.492-.012-2.984-.016-4.476-.008-2.923-.022-5.846-.04-8.769h1.617c-.016 3.243-.04 6.485-.075 9.728a708.739 708.739 0 00-.035 4.518c-.006 1.456-.02 2.912-.04 4.368-.005.553-.008 1.106-.009 1.658-.005 4.32-.509 8.114-3.576 11.369-2.628 2.29-4.878 2.74-8.384 3.44V62.26c9.282-.713 16.688-3.783 22.899-10.937 5.115-6.57 7.761-14.497 6.82-22.849C61.3 20.11 57.359 13.361 50.93 7.825 41.375.931 29.296-.806 18.613 4.599z" fill="#8B734B"/></svg>