<svg width="246" height="258" fill="none" xmlns="http://www.w3.org/2000/svg"><path d="M123.726 55.6c-24.212 0-43.909 19.697-43.909 43.909s19.697 43.911 43.909 43.911 43.911-19.699 43.911-43.911-19.699-43.91-43.911-43.91z" fill="#1D1D1B"/><path d="M61.3 97.728c0-33.773 27.477-61.25 61.251-61.25s61.251 27.477 61.251 61.25c0 33.775-27.477 61.252-61.251 61.252s-61.252-27.477-61.252-61.252z" fill="#8C734B"/><path d="M175.745 97.728c0 29.04-23.541 52.582-52.581 52.582-29.039 0-52.58-23.542-52.58-52.582s23.541-52.58 52.58-52.58c29.04 0 52.581 23.54 52.581 52.58z" fill="#282B2C"/><mask id="a" style="mask-type:luminance" maskUnits="userSpaceOnUse" x="70" y="24" width="106" height="127"><path d="M70.584 24.243v73.486c0 29.039 23.541 52.58 52.58 52.58 29.04 0 52.581-23.541 52.581-52.58V24.243H70.584z" fill="#fff"/></mask><g mask="url(#a)"><path d="M104.673 126.82c.112-.292.101-.532-.048-.788-.384.434-.374.628.048.788zM105.211 122.239c-.24.07-.272.212-.19.388.014.028.123.046.155.023.148-.105.159-.241.035-.411zM104.806 123.928c-.013.069-.036.139-.038.209-.002.055.024.11.128.168l.032-.37-.122-.007zM112.008 124.309h-.001l-.001-.003.002.003z" fill="#000"/><path fill-rule="evenodd" clip-rule="evenodd" d="M44.692 128.522l16.061-4.896s22.525-6.66 27.03-8.619c4.505-1.959 10.105-9.809 13.083-9.801 2.282.005 13.054 2.998 17.962 4.396 4.908-1.398 15.68-4.391 17.961-4.396 2.979-.008 8.579 7.842 13.084 9.801 4.505 1.959 28.205 7.639 28.205 7.639l13.123 11.36.588 18.216H45.867l-1.175-23.7z" fill="#fff"/><path fill-rule="evenodd" clip-rule="evenodd" d="M145.564 112.069s8.227 32.71 8.813 35.648c.588 2.938 2.351 3.917 2.743 2.938.392-.98-6.7-33.994-7.835-35.452-1.37-1.764-3.721-3.134-3.721-3.134zM91.912 112.264s-8.128 32.907-8.716 35.844c-.587 2.938-2.35 3.918-2.742 2.938-.39-.979 6.803-33.919 7.835-35.452 1.453-2.154 3.623-3.33 3.623-3.33zM136.75 105.213c2.743 1.371 4.309 12.732-3.135 28.206-7.442 15.473-6.854 15.669-8.225 16.061-1.372.391 6.267-13.516 5.876-15.475-.392-1.958-5.093-9.009-6.072-7.442-.98 1.566-1.705 3.233-2.713 3.869-1.008.636-2.87 2.579-3.408.432-.539-2.147-.343-10.177-.343-10.177s8.227 3.721 11.164-1.175c2.939-4.897 6.856-14.299 6.856-14.299zM99.535 105.605c-2.35 1.763-4.916 12.34 2.526 27.813 7.443 15.474 6.856 15.67 8.227 16.062 1.372.392-5.856-12.732-5.465-14.691.392-1.959 6.072-9.205 7.052-7.639.978 1.567.314 2.646 1.322 3.282 1.008.636 2.87 2.578 3.408.432.539-2.147.343-10.178.343-10.178s-8.227 3.723-11.165-1.174c-2.938-4.898-6.248-13.907-6.248-13.907z" fill="#BBB"/><path fill-rule="evenodd" clip-rule="evenodd" d="M136.198 104.623c.16-.194 6.036 4.704-3.954 28.796l-10.38-14.887s6.091-3.98 14.334-13.909z" fill="#fff"/><path fill-rule="evenodd" clip-rule="evenodd" d="M121.864 118.532c-1.567-.196-8.031.392-8.031.392l-3.329 5.484 4.505 5.484s-3.527 4.506-4.505 20.763c-.98 16.257 16.453 9.205 15.669-.98-.784-10.185-3.917-19.979-3.917-19.979l3.721-5.288-4.113-5.876z" fill="#000"/><path fill-rule="evenodd" clip-rule="evenodd" d="M119.905 130.872c-2.547 0-2.155-.196-2.937.196-.784.392-3.918 20.371-2.547 21.349 1.371.98 4.505.98 5.092.588.588-.392.392-22.133.392-22.133z" fill="#2A2A2A"/><path fill-rule="evenodd" clip-rule="evenodd" d="M100.122 105.017c-.16-.193-6.268 5.288 3.722 29.38l10.124-15.277s-5.603-4.173-13.846-14.103z" fill="#fff"/><path fill-rule="evenodd" clip-rule="evenodd" d="M138.904 66.627c1.567 1.579-.196 2.384 0 6.856.196 4.47-1.37 17.352-3.133 20.245-1.763 2.894-4.875 5.102-6.268 5.218-2.351.196-22.917.832-24.484-.483-1.567-1.316-6.855-7.297-7.247-15.186-.392-7.891-1.958-14.612-.196-16.454 1.763-1.841 24.679-1.762 28.402-1.762 3.721 0 12.926 1.566 12.926 1.566z" fill="#F9CFA6"/><path fill-rule="evenodd" clip-rule="evenodd" d="M92.092 76.029c.196 2.35.196 3.917.784 5.68.587 1.763.587 1.959.979 3.721.382 1.722.588 3.135 1.174 3.526.588.392.97.56 1.372.784.4.224.979-4.114.587-7.051-.39-2.939-.217-5.507-1.185-8.237-.968-2.732-1.36-4.299-2.144-4.299-.783 0-2.078-.253-1.567 5.876z" fill="#DD9F78"/><path fill-rule="evenodd" clip-rule="evenodd" d="M95.887 77.725c-1.053.263-1.25.46-1.25 1.438 0 .98.197 2.938 1.177 3.721.979.784 1.959 1.568 1.763.588-.197-.979-1.69-5.747-1.69-5.747z" fill="#B46E4B"/><path fill-rule="evenodd" clip-rule="evenodd" d="M95.973 76.65c-.167.73-1.335.358-1.727 1.141-.392.784-.588 1.959-.392 2.743.196.784 1.763 2.35 1.763 3.721 0 1.372-.39.98 0 1.763.392.784 2.155 2.154 1.372 2.939-.784.782-1.372 1.174-1.763-.588-.392-1.763-.588-3.722-1.176-4.897-.586-1.175-.782-1.958-.782-3.526 0-1.567-.392-3.918.196-4.896.586-.98 1.37-.784 1.37-1.567 0-.784-.392-1.763-.98-.784-.586.98-.586 2.939-.782 2.155-.196-.784-.392-3.918.978-3.918 1.372 0 2.155 4.702 1.923 5.714z" fill="#B46E4B"/><path fill-rule="evenodd" clip-rule="evenodd" d="M144.599 76.029c-.196 2.35-.196 3.917-.784 5.68-.587 1.763-.587 1.959-.979 3.721-.383 1.722-.588 3.135-1.175 3.526-.588.392-.972.56-1.372.784-.4.224-.978-4.114-.588-7.051.392-2.939.219-5.507 1.187-8.237.968-2.732 1.36-4.299 2.144-4.299.783 0 2.077-.253 1.567 5.876z" fill="#DD9F78"/><path fill-rule="evenodd" clip-rule="evenodd" d="M141.01 77.725c1.054.263 1.25.46 1.25 1.438 0 .98-.196 2.938-1.176 3.721-.979.784-1.959 1.568-1.763.588.196-.979 1.689-5.747 1.689-5.747z" fill="#B46E4B"/><path fill-rule="evenodd" clip-rule="evenodd" d="M140.763 76.65c.167.73 1.335.358 1.727 1.141.392.784.588 1.959.392 2.743-.196.784-1.763 2.35-1.763 3.721 0 1.372.391.98 0 1.763-.392.784-2.154 2.154-1.372 2.939.784.782 1.372 1.174 1.763-.588.392-1.763.588-3.722 1.176-4.897.588-1.175.783-1.958.783-3.526 0-1.567.332-3.133-.256-4.112-.587-.98-1.311-1.568-1.311-2.35 0-.785.392-1.763.98-.785.587.98.587 2.939.783 2.155.196-.784.392-3.918-.979-3.918-1.372 0-2.155 4.702-1.923 5.714z" fill="#B46E4B"/><path fill-rule="evenodd" clip-rule="evenodd" d="M100.477 101.665c.747 1.083 1.663 1.972 3.171 3.157 2.742 2.155 3.917 4.31 5.485 5.68 1.567 1.371 1.371 1.371 2.937 2.351 1.567.979 4.506 1.175 7.639.783 3.135-.392 3.808-1.432 5.093-2.351 1.371-.979 1.959-1.957 4.7-3.721 2.58-1.658 5.29-5.092 6.464-6.072.156-.13.283-.259.391-.392l-.195 4.309s1.356 3.877-3.7 8.084c-2.132 1.775-5.405 3.609-10.402 5.236-12.202 3.972-21.938-8.423-22.134-10.577-.196-2.155.551-6.487.551-6.487z" fill="#DD9F78"/><mask id="b" style="mask-type:luminance" maskUnits="userSpaceOnUse" x="101" y="102" width="17" height="13"><path d="M101.366 102.599h16.406v12.31h-16.406v-12.31z" fill="#fff"/></mask><g mask="url(#b)"><path fill-rule="evenodd" clip-rule="evenodd" d="M117.751 113.832c-1.959 2.937-7.639-.979-9.206-1.763-.992-.496-1.268 3.381-2.397 2.376-1.129-1.005-3.528-1.948-4.091-4.12-.564-2.173-1.358-8.141.312-7.704 1.671.437 16.034 10.233 15.382 11.211z" fill="#B46E4B" opacity=".62"/></g><mask id="c" style="mask-type:luminance" maskUnits="userSpaceOnUse" x="120" y="103" width="16" height="13"><path d="M120.477 103.187h14.706v12.073h-14.706v-12.073z" fill="#fff"/></mask><g mask="url(#c)"><path fill-rule="evenodd" clip-rule="evenodd" d="M120.493 110.893c.978 1.959 6.728.979 7.512 1.763.782.784 1.266 3.381 2.396 2.376 1.129-1.004 3.528-1.947 4.09-4.12.564-2.173 1.359-8.14-.312-7.703-1.67.438-14.212 6.634-13.686 7.684z" fill="#B46E4B" opacity=".62"/></g><path d="M82.178 51.939c.49-3.41 1.621-6.6 3.34-9.575 2.56-4.432 6.062-7.948 10.337-10.688 5.741-3.681 12.053-5.589 18.824-5.893 2.827-.128 5.664-.132 8.497.047 1.328.084 2.644.256 3.952.488 3.179.564 6.251 1.49 9.196 2.83 4.899 2.23 9.138 5.346 12.512 9.594 3.178 3.996 5.194 8.509 5.86 13.612.494 3.774.13 7.468-.994 11.092a88.736 88.736 0 01-.679 1.614c-.619 1.151-1.931 5.118-8.268 12.066-.625.686 1.341-7.367-1.793-7.014-.578.066-.81 1.298-.986 1.27 0-.198-2.624-3.384-2.876-3.384-.068-.115.648-9.872.588-9.99-.713-1.374-3.346-7.7-8.226-11.36-.784-.586-5.738-1.174-5.738-1.174.235-.984.332-1.99.288-3.014-.113-2.665-.966-5.038-2.873-6.969a7.067 7.067 0 00-3.279-1.91 6.261 6.261 0 00-2.8-.098c-2.302.45-3.933 1.821-5.14 3.767-.74 1.193-1.16 2.506-1.386 3.88-.096.577-.096 1.172-.126 1.558.007.504.075.991.091 1.468.004.142.023.551.004.534-.179.049-.617.15-.783.196-.69.189-3.013.689-3.721.98-1.173.48-2.037 1.256-2.939 2.154-.653.65-5.965 9.96-6.268 10.576-.065.134-1.229.523-1.37.588-1.211.563-2.906 2.35-2.938 2.351-.381 1.561.068 1.95.783 3.721.224.556-.137 4.495 0 4.896 0 0-.783.588-.979.98-.749 1.498-.06 5.81-.196 5.68-1.04-.989-2.006-1.816-2.94-2.917-.842-.993-1.733-1.943-2.433-3.052-.437-.693-.963-1.337-1.336-2.063a40.023 40.023 0 01-1.595-3.484c-1.717-4.302-2.272-8.761-1.61-13.357z" fill="#fff"/><path d="M92.613 63.733c.036.667.316 1.193.72 2.13-.01-.276-.026-.507-.066-.607-.264-.653-.491-1.117-.654-1.523zM82.435 53c.49-3.41 1.621-6.6 3.34-9.575 2.56-4.432 6.063-7.948 10.337-10.688 5.742-3.681 12.054-5.59 18.824-5.893 2.827-.128 5.664-.132 8.498.046 1.328.084 2.644.256 3.952.488 3.178.564 6.25 1.491 9.196 2.831 4.898 2.23 9.137 5.345 12.512 9.593 2.37 2.982 4.092 6.251 5.092 9.84-.942-4.005-2.75-7.629-5.35-10.9-3.374-4.248-7.613-7.365-12.512-9.594-2.945-1.34-6.017-2.267-9.196-2.83a35.421 35.421 0 00-3.952-.489c-2.833-.177-5.67-.175-8.497-.047-6.771.306-13.083 2.212-18.824 5.894-4.275 2.741-7.777 6.256-10.337 10.69-1.719 2.974-2.85 6.163-3.34 9.572a25.474 25.474 0 00.674 10.51c-.712-3.08-.88-6.228-.417-9.448z" fill="#BBB"/><path d="M126.15 45.528a10.99 10.99 0 00.12-2.007 11.88 11.88 0 00-.45-2.69c.092.531.168 1.07.192 1.629a10.906 10.906 0 01-.288 3.014s.182.022.426.054zM139.945 59.07a21.04 21.04 0 01-.27-.555c-.102 2.01-.634 9.384-.575 9.483.04 0 .149.096.285.228.13-2.37.61-9.06.56-9.156zM144.713 72.175c.304 2.227-.36 5.392.042 4.951.07-.076.119-.14.187-.215.108-1.372.273-3.488-.229-4.736zM110.113 37.509s-.589 2.48-3.526 4.438c-2.939 1.96-9.403 9.99-10.774 11.362-1.37 1.37-1.762.587-.978-2.35.782-2.94 2.741-5.29.978-4.31-1.762.978-4.309 8.03-4.505 12.536-.196 4.504 1.176 10.772 1.372 10.968.196.196-.98 2.546 1.959-5.288 2.937-7.835 7.742-17.539 11.804-19.15 4.061-1.613 2.81 1.398 4.024-2.262 1.212-3.66-.354-5.944-.354-5.944z" fill="#BBB"/><path d="M125.988 37.509s.589 2.48 3.527 4.438c2.938 1.96 9.402 9.99 10.773 11.362 1.371 1.37 1.763.587.979-2.35-.783-2.94-2.742-5.29-.979-4.31 1.763.978 4.309 8.03 4.505 12.536.196 4.504-1.176 10.772-1.372 10.968-.194.196.98 2.546-1.958-5.288-2.938-7.835-7.743-17.539-11.804-19.15-4.062-1.613-2.811 1.398-4.024-2.262-1.212-3.66.353-5.944.353-5.944z" fill="#BBB"/><path fill-rule="evenodd" clip-rule="evenodd" d="M120.884 78.771c.196 1.37 0 1.959.979 2.939.98.978 1.028 1.041 1.372 1.958.588 1.567-.588 3.33-.98 3.526-.665.332-.805-.056-1.151-.204-.208-.088-.489-.09-1.004.204-1.37.782-.968.782-2.741.782-1.567 0-2.155-1.566-2.939-1.174-.782.392-1.37.588-1.958-.392-.587-.979-.434-1.4-.196-2.351.392-1.567 1.126-1.372 1.568-2.545.586-1.568.978-4.898 1.37-4.702.392.196.979 2.351.784 3.918-.196 1.566-1.044 3.417 0 4.113 1.175.784 1.175.979 2.938.588.956-.213 1.566-.784 1.37-2.547-.196-1.762-.586-4.701 0-4.701.588 0 .588.588.588.588z" fill="#DD9F78"/><path fill-rule="evenodd" clip-rule="evenodd" d="M121.276 86.018c-.392 0-.588 0-.979.392-.5.499-.688.67-1.176 1.175-.348.36 1.254-.603 1.567-.588.315.016.196.196.588 0 .496-.247.249-.979 0-.979zM114.267 86.214c.392 0 .588 0 .978.392.5.499.688.67 1.176 1.175.348.36-1.253-.603-1.566-.588-.315.016-.196.196-.588 0-.496-.247-.25-.979 0-.979z" fill="#B46E4B"/><path fill-rule="evenodd" clip-rule="evenodd" d="M134.204 68.586c-2.743-1.567-5.094-1.763-7.051-1.959-1.959-.196-6.856.588-9.795.784-2.937.196-6.234-.392-8.617-.392-2.547 0-6.464.392-7.248 1.175-.415.416-2.937-1.567-1.763-1.763 1.176-.196 15.475-2.35 19.392-2.154 3.916.196 7.247.784 10.38 1.372 3.135.586 4.702 2.937 4.702 2.937z" fill="#DD9F78"/><path fill-rule="evenodd" clip-rule="evenodd" d="M139.1 67.998l2.876 3.384s-.721 2.296-.917 3.863c-.196 1.568-.196 2.743-.196 5.29 0 2.545-1.567 3.133-1.371 4.503.196 1.372 1.151 2.475.979 4.702-.196 2.546-.979 5.484-1.959 7.638-.978 2.155-1.37 3.135-2.545 4.114-1.176.98-3.885 4.414-6.464 6.072-2.743 1.762-3.329 2.742-4.701 3.721-1.286.919-1.959 1.959-5.092 2.351-3.135.392-6.072.196-7.639-.784-1.568-.979-1.372-.979-2.939-2.35-1.566-1.372-2.741-3.526-5.484-5.681-2.742-2.153-3.525-3.329-4.897-6.463-1.37-3.134-1.37-2.938-2.155-7.248-.782-4.308.784-7.638.392-8.421-.392-.784-1.174-2.743-1.174-3.917 0-1.176.588-3.527-.392-5.29-.98-1.762-2.155-3.133-2.155-3.525 0-.392-.783-5.288 1.372-5.092 2.153.196 3.721-.588 3.525.783-.196 1.372-1.568 21.937 6.268 24.68 2.428.849 6.142-2.25 9.99-2.155 4.448.11 10.772-.98 14.297 2.155 2.919 2.593 3.917-.196 5.289-2.351 3.502-5.503 3.722-10.97 5.092-19.979z" fill="#674841"/><mask id="d" style="mask-type:luminance" maskUnits="userSpaceOnUse" x="127" y="66" width="13" height="26"><path d="M127.067 66.196h12.057v25.546h-12.057V66.196z" fill="#fff"/></mask><g mask="url(#d)"><path fill-rule="evenodd" clip-rule="evenodd" d="M139.1 66.627c.196 1.96-.878 9.406-.978 10.774-.392 5.288-2.155 10.38-3.135 11.556-.979 1.174-2.351 2.741-3.329 2.741-.98 0-1.176.392-2.743-1.175-1.392-1.392-2.351-2.938-1.567-2.938s3.722.98 5.288-.783c1.568-1.763 4.114-6.66 4.114-9.01 0-2.35.17-4.103-.392-5.68-.548-1.538-1.69-3.133-3.134-3.918-1.154-.628-3.329-1.763-2.154-1.959 1.174-.196 8.03.392 8.03.392z" fill="#DD9F78" opacity=".82"/></g><mask id="e" style="mask-type:luminance" maskUnits="userSpaceOnUse" x="97" y="66" width="13" height="26"><path d="M97.836 66.407h11.449v24.912h-11.45V66.407z" fill="#fff"/></mask><g mask="url(#e)"><path fill-rule="evenodd" clip-rule="evenodd" d="M97.968 66.431c-.196 1.96-.156 9.02 0 10.382.592 5.174.823 7.457 2.547 11.752.825 2.056 2.154 2.741 3.133 2.741.98 0 1.021.173 2.743-.783 1.762-.98 3.482-3.428 2.7-3.428-.784 0-3.722.98-5.29-.784-1.566-1.762-4.112-6.658-4.112-9.009 0-2.35-.196-4.113.391-5.68.588-1.567 1.959-3.33 3.135-3.917 1.174-.588 2.35-.98 1.174-1.175-1.174-.196-6.421-.099-6.421-.099z" fill="#DD9F78" opacity=".82"/></g><path d="M141.451 65.256c-.392.784-1.136 1.175-3.134 1.175-2.938 0-14.102-2.35-18.02-2.153-3.917.194-8.226 0-11.361.586-3.133.588-8.225 1.567-10.772 1.567-2.547 0-3.273-.537-3.792-.856-.517-.319-1.555-.635-1.721-1.75-.167-1.115-.947-1.96.912-3.3 1.858-1.34 2.642-1.34 3.425-2.515.784-1.176 3.624-6.171 4.456-7.591.833-1.42 3.575-5.337 7.884-5.73 4.309-.39 17.824-2.251 22.917 2.694 5.092 4.947 6.268 10.43 6.855 10.823.588.39 2.743 1.598 2.84 2.072.099.473.489 1.649.099 2.628-.392.98-.588 2.35-.588 2.35z" fill="#000"/><path d="M117.409 60.525c-.55.016-1.884.66-1.97.892-.217.593-.436 1.186-.649 1.782-.084.233-.165.47-.228.71-.057.22-.203.312-.409.33-.511.045-2.467.197-2.955.235-.415-1.214-.629-2.462-1.369-3.579-.326.075-.688.124-1.03.24-1.033.348-1.016.366-1.516 1.356-.257.51-1.142 1.99-1.27 2.25-.134.27-.376.366-.642.409-.666.106-1.337.19-2.004.296-.374.06-2.29.34-2.877.348-1.37.017-2.741.005-4.112.005-.117 0-.236-.005-.353.004-.382.03-.451.118-.434.587.17.037.35.085.532.113.872.136 1.74.327 2.618.38.878.053 1.765-.014 2.646-.066.348-.022 4.587-.684 4.814-.698.538-.032 1.086-.08 1.609-.208.759-.186 1.513-.347 2.297-.407 1.275-.097 2.542-.297 3.816-.39.968-.072 1.944-.05 2.916-.058 1.06-.007 2.122.008 3.183-.002a34.426 34.426 0 014.275.23c.978.112 1.96.207 2.937.328 1.077.135 2.156.273 3.227.445.768.123 1.522.331 2.29.46 1.028.173 4.431.385 5.094.402.114.003 1.101-.087 1.256-.096.017-.241 0-.784-.814-.69-.236 0-.436-.01-.634 0-.454.023-3.346-.112-4.33-.274-.404-.066-4.354-.878-4.693-.918-.697-.086-1.385-.251-2.079-.373a33.017 33.017 0 00-1.302-.195c-.567-.077-2.666-.307-3.146-.365-.422-.049-3.396-.2-4.233-.2-.068-1.123-.171-2.214-.461-3.283z" fill="#fff"/><path d="M108.999 42.6c0 5.895 4.126 10.672 9.217 10.672 5.089 0 9.216-4.777 9.216-10.672 0-5.894-4.127-10.672-9.216-10.672-5.091 0-9.217 4.778-9.217 10.672z" fill="#FFCB00"/><path d="M114.04 44.93c.071.097.146.169.186.257.409.907 1.142 1.48 1.988 1.933.658.355 1.324.696 2.004 1.052.817-.45 1.674-.898 2.51-1.384a3.479 3.479 0 001.431-1.581c.043-.09.109-.168.184-.28l.648.361c.415-.826.349-1.624-.012-2.517a4.436 4.436 0 01-1.591 1.657c.182.09.296.146.408.204.17.086.196.204.08.356-.636.837-1.569 1.244-2.598 1.023-.375-.082-.602-.384-.603-.767a576.134 576.134 0 010-4.157c.001-.362.044-.404.415-.403.36.003.725-.061 1.065.17.237.163.469.08.656-.147.195-.24.189-.52-.016-.764-.175-.21-.461-.303-.665-.136-.374.305-.79.158-1.188.185-.184.012-.252-.11-.267-.281-.024-.292.036-.519.276-.742.663-.616.472-1.627-.316-2.025-.608-.306-1.38.152-1.525.767-.099.422-.1.892.274 1.188.38.3.319.645.282 1.07-.482-.006-.936.169-1.374-.154-.226-.168-.537-.08-.706.139-.148.19-.15.55-.003.745.176.235.444.315.697.144.43-.288.879-.11 1.363-.16.019.199.047.355.047.51.004 1.357.004 2.713 0 4.069 0 .407-.206.67-.599.755-1.067.232-2.113-.303-2.623-1.133-.013-.024-.013-.056-.03-.133l.558-.325c-.634-.423-1.181-.9-1.549-1.651-.42.879-.428 1.67-.043 2.52l.636-.366zm-3.506-4.169c.226-1.373.646-2.688 1.386-3.88 1.207-1.945 2.838-3.317 5.14-3.766a6.263 6.263 0 012.8.099 7.06 7.06 0 013.278 1.909c1.908 1.93 2.761 4.304 2.874 6.97a10.858 10.858 0 01-.752 4.492c-.584 1.48-1.428 2.778-2.676 3.771-2.144 1.706-4.502 2.139-7.062 1.041-1.158-.497-2.107-1.283-2.886-2.267-1.532-1.935-2.192-4.166-2.228-6.81.03-.386.03-.981.126-1.559z" fill="#000"/><path d="M118.112 53.81c-1.768.017-8.088.277-9.458.586-1.404.318-5.093 1.181-5.537 1.272-1.099.221-3.484 1.464-3.547 1.73-.076.314-.186.62-.245.938-.052.275.025.36.3.352.17-.005 1.909-.716 2.632-.964.277-.094 2.473-.628 3.291-.81.774-.171 4.173-.684 5.068-.914 1.532-.39 5.94-.385 6.586-.379.958.011 3.518-.009 3.84-.005.884.012 4.004.324 4.682.459.806.16 4.933.93 6.19 1.154 1.192.212 4.139 1.434 4.28 1.455.438.066 1.143-1.459-.678-2.018-.77-.371-5.131-1.664-6.536-1.915-.592-.105-3.739-.699-4.732-.796-2.04-.197-4.09-.188-6.136-.145z" fill="#FFCB00"/><path d="M101.349 60.38c1.036-.43 4.834-1.349 5.64-1.574 1.039-.29 9.663-.717 10.399-.748 1.517-.06 3.027.066 4.539.155.425.024.854.02 1.28-.01.618-.046 5.237.474 6.148.7.784.194 1.556.44 2.344.615 1.005.224 2.002.465 2.956.865.12.052 1.898.956 1.736.391.204-.284.225-.67.29-1.041.034-.184-1.302-.83-1.842-1.064-1.164-.504-2.375-.847-3.622-1.099-1.416-.287-5.401-.815-5.966-.904-.32-.05-2.612-.2-3.435-.217-.94-.02-3.719-.084-4.168-.084-.528.001-2.784.105-3.387.093a22.756 22.756 0 00-2.557.114c-.773.073-1.539.229-2.309.342-.51.075-4.003.53-5.228.784-1.603.332-3.08.974-4.539 1.678-.35.168-.363.204-.281.584.062.295.384.791 2.002.42zM98.997 61.55c-.66-1.275-.986-2.57-.427-3.95-.156-.24-.375-.26-.583-.153-.276.143-.535.35-.593.672-.229 1.258-.311 2.508.3 3.7.193.38.28.416.631.194.22-.14.431-.296.672-.463zM95.044 62.743c-.054-.524-.145-1.043-.46-1.492-.27-.384-.74-.515-1.146-.29-.35.194-.618.47-.718.882-.173.717-.02 1.365.426 1.941.385.495.872.515 1.323.07.122-.12.233-.251.346-.38.181-.208.322-.431.23-.731zM95.697 61.446c.236-.213.446-.397.646-.59a.319.319 0 00.098-.202c.008-.497.006-.996.006-1.49-.202-.125-.334-.01-.474.093-.288.213-.574.428-.87.63-.398.274-.412.414-.086.771.23.25.444.512.68.788zM97.196 62.736l-.572-1.082c-.186.13-.359.233-.51.363-.21.181-.332.404-.281.704.037.215.032.437.059.655.032.264.117.31.382.232.358-.11.652-.382.922-.872zM136.899 61.55c.66-1.275.986-2.57.428-3.95.156-.24.374-.26.582-.153.276.143.535.35.594.672.228 1.258.31 2.508-.3 3.7-.194.38-.282.416-.632.194-.22-.14-.431-.296-.672-.463zM140.199 61.446c-.236-.213-.445-.397-.645-.59a.318.318 0 01-.099-.202c-.008-.497-.005-.996-.005-1.49.201-.125.333-.01.473.093.288.213.575.428.871.63.397.274.412.414.085.771-.229.25-.444.512-.68.788zM138.701 62.736c.189-.36.37-.703.572-1.082.185.13.358.233.509.363.211.181.332.404.281.704-.037.215-.032.437-.058.655-.032.264-.118.31-.383.232-.357-.11-.652-.382-.921-.872z" fill="#FFCB00"/><path fill-rule="evenodd" clip-rule="evenodd" d="M137.142 74.658c-1.238 1.807-2.743 0-3.134.392-.392.392-1.568 1.567-3.134 1.763-1.567.196-5.484-.392-6.464-.784-.91-.363-2.742-.979-3.33 0-.588.98-.588.98-.784-.392-.194-1.371-.782-4.504 0-5.484.784-.979 4.506-2.742 7.052-2.742 2.547 0 5.406.502 6.464 1.175 2.155 1.37 4.344 4.59 3.33 6.072zM98.415 74.658c1.238 1.806 2.743 0 3.134.392.392.392 1.568 1.567 3.134 1.763 1.567.195 5.428-.392 6.408-.392.979 0 2.798-1.371 3.386-.393.586.98.586.98.784-.392.194-1.37.782-4.504 0-5.483-.784-.98-4.506-2.742-7.052-2.742-2.547 0-5.406.501-6.464 1.175-2.155 1.37-4.344 4.59-3.33 6.072z" fill="#DD9F78"/><mask id="f" style="mask-type:luminance" maskUnits="userSpaceOnUse" x="124" y="71" width="8" height="3"><path d="M124.625 71.72h7.032v2.232h-7.032V71.72z" fill="#fff"/></mask><g mask="url(#f)"><path fill-rule="evenodd" clip-rule="evenodd" d="M131.657 73.287c-.227.15-1.24.481-2.351.588-1.768.168-3.872.044-4.113-.196-.391-.392-.861-.563-.332-.674.528-.11 1.312-.893 2.487-1.089 1.176-.196 2.35-.392 3.33.196.979.587.979 1.175.979 1.175z" fill="#fff" opacity=".56"/></g><mask id="g" style="mask-type:luminance" maskUnits="userSpaceOnUse" x="104" y="71" width="8" height="3"><path d="M104.627 71.799h6.856v2.153h-6.856v-2.153z" fill="#fff"/></mask><g mask="url(#g)"><path fill-rule="evenodd" clip-rule="evenodd" d="M104.627 73.287c.227.15 1.063.481 2.174.588 1.768.168 3.872.044 4.113-.196.392-.392.861-.563.332-.674-.528-.11-1.312-.893-2.487-1.089-1.174-.196-2.173-.196-3.153.392-.979.587-.979.979-.979.979z" fill="#fff" opacity=".56"/></g><path fill-rule="evenodd" clip-rule="evenodd" d="M126.369 72.775c0 .8.877 1.447 1.959 1.447 1.081 0 1.958-.647 1.958-1.447 0-.798-.877-1.446-1.958-1.446-1.082 0-1.959.648-1.959 1.446z" fill="#543933"/><mask id="h" style="mask-type:luminance" maskUnits="userSpaceOnUse" x="126" y="71" width="5" height="4"><path d="M126.565 71.328h3.525v2.743h-3.525v-2.743z" fill="#fff"/></mask><g mask="url(#h)"><path fill-rule="evenodd" clip-rule="evenodd" d="M126.565 72.7c0 .757.789 1.37 1.762 1.37.974 0 1.763-.613 1.763-1.37 0-.758-.789-1.371-1.763-1.371-.973 0-1.762.613-1.762 1.37z" fill="#137A96" opacity=".51"/></g><path fill-rule="evenodd" clip-rule="evenodd" d="M105.803 72.823c0 .797.877 1.443 1.958 1.443 1.082 0 1.959-.646 1.959-1.443s-.877-1.443-1.959-1.443c-1.081 0-1.958.646-1.958 1.443z" fill="#543933"/><mask id="i" style="mask-type:luminance" maskUnits="userSpaceOnUse" x="105" y="71" width="5" height="4"><path d="M105.998 71.328h3.526v2.743h-3.526v-2.743z" fill="#fff"/></mask><g mask="url(#i)"><path fill-rule="evenodd" clip-rule="evenodd" d="M105.998 72.7c0 .757.79 1.37 1.763 1.37.973 0 1.763-.613 1.763-1.37 0-.758-.79-1.371-1.763-1.371-.973 0-1.763.613-1.763 1.37z" fill="#137A96" opacity=".51"/></g><mask id="j" style="mask-type:luminance" maskUnits="userSpaceOnUse" x="127" y="71" width="2" height="2"><path d="M127.841 71.83h1.074v.478h-1.074v-.479z" fill="#fff"/></mask><g mask="url(#j)"><path fill-rule="evenodd" clip-rule="evenodd" d="M128.915 71.916c0 .196-.588.392-.784.392-.195 0-.501-.212-.073-.392.465-.196.857 0 .857 0z" fill="#fff" opacity=".89"/></g><mask id="k" style="mask-type:luminance" maskUnits="userSpaceOnUse" x="126" y="72" width="2" height="2"><path d="M126.904 72.699h1.032v.837h-1.032v-.837z" fill="#fff"/></mask><g mask="url(#k)"><path fill-rule="evenodd" clip-rule="evenodd" d="M127.348 72.7c.392 0 .588.195.588.391s0 .587-.392.392c-.392-.196-.784-.392-.588-.588.196-.196.392-.196.392-.196z" fill="#fff" opacity=".89"/></g><mask id="l" style="mask-type:luminance" maskUnits="userSpaceOnUse" x="107" y="71" width="2" height="2"><path d="M107.471 71.83h1.074v.478h-1.074v-.479z" fill="#fff"/></mask><g mask="url(#l)"><path fill-rule="evenodd" clip-rule="evenodd" d="M108.545 71.916c0 .196-.588.392-.784.392-.195 0-.502-.212-.074-.392.466-.196.858 0 .858 0z" fill="#fff" opacity=".89"/></g><mask id="m" style="mask-type:luminance" maskUnits="userSpaceOnUse" x="106" y="72" width="2" height="2"><path d="M106.338 72.895h1.032v.837h-1.032v-.837z" fill="#fff"/></mask><g mask="url(#m)"><path fill-rule="evenodd" clip-rule="evenodd" d="M106.782 72.895c.392 0 .588.196.588.392s0 .587-.392.392c-.392-.196-.784-.392-.588-.588.196-.196.392-.196.392-.196z" fill="#fff" opacity=".89"/></g><path fill-rule="evenodd" clip-rule="evenodd" d="M127.74 72.7c0 .27.263.489.588.489.324 0 .587-.22.587-.49s-.263-.49-.587-.49c-.325 0-.588.22-.588.49z" fill="#543933"/><mask id="n" style="mask-type:luminance" maskUnits="userSpaceOnUse" x="126" y="80" width="8" height="5"><path d="M126.103 80.39h7.818v4.267h-7.818v-4.266z" fill="#fff"/></mask><g mask="url(#n)"><path fill-rule="evenodd" clip-rule="evenodd" d="M133.812 80.73c.392 1.37-.196 4.113-2.939 3.917-2.741-.196-5.68-.979-4.504-1.567 1.175-.588 4.392-.732 5.092-1.958.784-1.371 2.351-.392 2.351-.392z" fill="#FDEECE" opacity=".42"/></g><mask id="o" style="mask-type:luminance" maskUnits="userSpaceOnUse" x="102" y="80" width="9" height="5"><path d="M102.403 80.39h7.818v4.267h-7.818v-4.266z" fill="#fff"/></mask><g mask="url(#o)"><path fill-rule="evenodd" clip-rule="evenodd" d="M102.512 80.73c-.392 1.37.196 4.113 2.938 3.917 2.742-.196 5.681-.979 4.505-1.567-1.175-.588-4.392-.732-5.092-1.958-.784-1.371-2.351-.392-2.351-.392z" fill="#FDEECE" opacity=".42"/></g><mask id="p" style="mask-type:luminance" maskUnits="userSpaceOnUse" x="116" y="79" width="4" height="7"><path d="M116.575 79.517h2.554v5.522h-2.554v-5.522z" fill="#fff"/></mask><g mask="url(#p)"><path fill-rule="evenodd" clip-rule="evenodd" d="M119.122 83.59c-.171 1.473-.979 1.653-1.763 1.286-.784-.368-.98-1.836-.588-3.672.392-1.835.98-2.019 1.176-1.285.196.734 1.285 2.72 1.175 3.672z" fill="#FDEECE" opacity=".42"/></g><mask id="q" style="mask-type:luminance" maskUnits="userSpaceOnUse" x="121" y="73" width="14" height="5"><path d="M121.472 73.287h12.536V77.4h-12.536v-4.113z" fill="#fff"/></mask><g mask="url(#q)"><path fill-rule="evenodd" clip-rule="evenodd" d="M134.008 75.26c-.759-1.092-.872-1.31-1.479-1.092-.605.218-1.553 1.31-2.691 1.092-1.136-.219-3.6 0-4.546-.655-.948-.656-2.232-1.25-2.727-1.281-.495-.03-1.253-.248-1.063.844.19 1.092 0 1.53.758 1.53.757 0 1.521.123 2.94.824 1.418.703 5.208 1.14 6.344.703 1.137-.437 2.464-1.965 2.464-1.965z" fill="#F9CFA6" opacity=".38"/></g><mask id="r" style="mask-type:luminance" maskUnits="userSpaceOnUse" x="101" y="73" width="14" height="5"><path d="M101.885 73.287h12.536v4.096h-12.536v-4.096z" fill="#fff"/></mask><g mask="url(#r)"><path fill-rule="evenodd" clip-rule="evenodd" d="M101.885 75.26c.759-1.092.872-1.31 1.479-1.092.605.218 1.553 1.31 2.691 1.092 1.136-.219 3.6 0 4.546-.655.948-.656 2.232-1.25 2.727-1.281.495-.03 1.253-.248 1.063.844-.19 1.092 0 1.53-.758 1.53-.757 0 .052.02-1.366.723-1.419.701-6.782 1.241-7.918.804-1.137-.437-2.464-1.965-2.464-1.965z" fill="#F9CFA6" opacity=".38"/></g><mask id="s" style="mask-type:luminance" maskUnits="userSpaceOnUse" x="120" y="82" width="3" height="5"><path d="M120.7 82.284h2.249v3.764H120.7v-3.764z" fill="#fff"/></mask><g mask="url(#s)"><path fill-rule="evenodd" clip-rule="evenodd" d="M121.864 82.689c.588.196 1.37.784.978 1.762-.39.98-.586 1.763-.978 1.567-.392-.196-.392-.392-.784-.783-.97-.969.196-3.134.392-2.938l.392.392z" fill="#F9CFA6" opacity=".38"/></g><mask id="t" style="mask-type:luminance" maskUnits="userSpaceOnUse" x="112" y="82" width="3" height="5"><path d="M112.669 82.284h2.249v3.764h-2.249v-3.764z" fill="#fff"/></mask><g mask="url(#t)"><path fill-rule="evenodd" clip-rule="evenodd" d="M113.754 82.689c-.588.196-1.371.784-.979 1.762.391.98.587 1.763.979 1.567.392-.196.392-.392.784-.783.969-.969-.196-3.134-.392-2.938l-.392.392z" fill="#F9CFA6" opacity=".38"/></g><path fill-rule="evenodd" clip-rule="evenodd" d="M125.977 94.636c.2.108 1.74-.31 1.763 0 .056.751-2.107 2.971-2.938 3.526-1.176.784-1.764 1.566-2.938 1.176-1.175-.392-2.42-1.414-1.798-2.078.623-.665 5.911-2.624 5.911-2.624zM109.814 94.343c-.2.108-1.74-.311-1.763 0-.056.75 2.107 2.972 2.937 3.525 1.176.784 1.764 1.568 2.939 1.176 1.175-.392 2.42-1.413 1.797-2.077-.622-.666-5.91-2.624-5.91-2.624z" fill="#F9CFA6"/><path fill-rule="evenodd" clip-rule="evenodd" d="M108.153 94.44c-.419-.478 6.464-2.35 9.124-1.585 1.112.319 2.204-.095 3.216-.177 2.441-.199 7.916 1.628 7.247 1.959-.668.33-19.587-.197-19.587-.197z" fill="#F9CFA6"/><path fill-rule="evenodd" clip-rule="evenodd" d="M125.585 94.832c-.978.588-3.525 2.155-4.701 2.35-1.175.197-3.311 0-4.308 0-.98 0-2.155-.195-2.743-.391-.588-.196-3.721-1.959-3.721-2.35 0-.393-.567.254.783 0s7.052 0 8.618 0c1.567 0 5.484.195 6.464.195.979 0-.392.196-.392.196z" fill="#DD9F78"/><path fill-rule="evenodd" clip-rule="evenodd" d="M127.74 94.636c0 .167-.221.24-.552.258-.834.044-2.358-.258-2.778-.258-.587 0-2.742 0-3.721.196-.98.196-1.372.588-2.35.392-.981-.196-1.763-.196-2.939-.392-1.175-.196-3.33-.392-4.114-.196-.782.196-2.274-.054-2.545 0-.98.196-.98-.196-.588-.196s4.31-1.37 6.072-1.37c1.763 0 2.351.196 3.525.392 1.175.196 1.567-.392 3.134-.392 1.568 0 6.856 1.37 6.856 1.566zM114.029 70.937c.588.392 1.175 1.762.784 2.35-.392.587-1.763.196-2.547.196-.784 0-1.305-.652-2.154-1.176-.968-.596-3.722-.782-4.702 0-.865.692-.586 1.176-1.566 1.567-.979.392-.588 0-.783-.195-.196-.196.195-1.372 2.153-1.958.976-.294 2.747-.636 4.114-.392 1.377.245 2.35.978 2.938 1.174.766.256 1.371.196 1.175-.782-.196-.98-.979-1.568-.196-1.176l.784.392z" fill="#B46E4B"/><path fill-rule="evenodd" clip-rule="evenodd" d="M103.648 73.952c.31.119.31.314.691-.077.381-.392.412-.888.968-1.327.556-.436 1.265-.867 2.531-.75 1.265.118 1.913.44 2.47.705.686.326 1.468 1.07 1.371.98-.165-.156-1.273-1.338-2.115-1.452-.842-.115-1.413-.507-2.557-.31-1.144.195-2.287.782-2.477 1.174-.191.392-.882 1.057-.882 1.057z" fill="#543933"/><path fill-rule="evenodd" clip-rule="evenodd" d="M133.616 73.679c.196.392.392.588-.392.392-.783-.196-1.567-1.763-2.546-1.96-.98-.195-1.568-.783-2.938-.195-1.371.588-2.547.979-3.134 1.175-.588.196-.392.784-1.176.588-.782-.196-1.566-.392-1.958-.784-.392-.391-.783-.195-.588-1.175.196-.98.196-1.763.784-1.567.588.196 0 .587.392 1.37.392.785.196 1.177 1.37.589 1.176-.588 1.763-.784 3.135-.784 1.371 0 3.917-.196 5.092.392 1.175.588 1.959 1.959 1.959 1.959z" fill="#B46E4B"/><path fill-rule="evenodd" clip-rule="evenodd" d="M132.954 73.952c-.317.119-.317.314-.709-.077-.392-.392-.424-.888-.995-1.327-.572-.436-1.3-.867-2.601-.75-1.301.118-2.019.64-2.639.77-.62.13-1.818.732-1.612.627.208-.104 1.612-1.05 2.478-1.164.864-.115 1.452-.507 2.626-.31 1.176.195 2.351.782 2.547 1.174.196.392.905 1.057.905 1.057zM107.174 72.797c0 .27.262.49.588.49.324 0 .586-.22.586-.49s-.262-.49-.586-.49c-.326 0-.588.22-.588.49z" fill="#543933"/><mask id="u" style="mask-type:luminance" maskUnits="userSpaceOnUse" x="117" y="93" width="3" height="3"><path d="M117.27 93.375h2.489v1.67h-2.489v-1.67z" fill="#fff"/></mask><g mask="url(#u)"><path fill-rule="evenodd" clip-rule="evenodd" d="M119.709 93.461c.196.588-.196 1.371-.978 1.567-.784.196-1.764-1.37-1.372-1.37.392 0 1.566 0 1.958-.197.392-.196.392 0 .392 0z" fill="#F9CFA6" opacity=".38"/></g><path fill-rule="evenodd" clip-rule="evenodd" d="M119.709 120.687c1.371 1.175 2.938 3.525 1.763 5.093-1.175 1.567-1.959 2.742-3.329 1.958-1.371-.783-3.526-5.484-2.155-5.876 1.371-.391 3.721-1.175 3.721-1.175z" fill="#2A2A2A"/><path fill-rule="evenodd" clip-rule="evenodd" d="M87.979 115.986c-1.047-.384-3.198-.523-4.483-.399l-23.504 7.051.565 6.08 24.288-7.64c1.664-1.505 2.594-3.239 3.134-5.092z" fill="#000"/><path d="M83.865 117.749l-4.113 4.309-4.31-.392-.782.784v1.371l-2.35.588-.393-1.568 1.567-1.763-1.959-.196-.196-1.567 2.155-.588.425.911 1.338.069 2.35-2.35 6.268.392zM70.546 119.511l.784 5.288-2.35.784-.784-5.288 2.35-.784z" fill="#FFCB00"/><path d="M80.144 118.924l-1.175 1.371H77.01l1.371-1.371h1.763z" fill="#000"/><path fill-rule="evenodd" clip-rule="evenodd" d="M149.504 115.986c1.046-.384 3.197-.523 4.482-.399l23.504 7.051-.565 6.08-24.288-7.64c-1.664-1.505-2.593-3.239-3.133-5.092z" fill="#000"/><path d="M153.617 117.749l4.113 4.309 4.31-.392.782.784v1.371l2.351.588.392-1.568-1.567-1.763 1.959-.196.196-1.567-2.155-.588-.425.911-1.337.069-2.351-2.35-6.268.392zM166.936 119.511l-.784 5.288 2.351.784.784-5.288-2.351-.784zM170.07 120.491l-.979 5.288 2.741.784.784-5.288-2.546-.784zM173.204 121.47l-.784 5.288 2.546.784.588-5.288-2.35-.784z" fill="#FFCB00"/><path d="M157.339 118.924l1.174 1.371h1.959l-1.371-1.371h-1.762z" fill="#000"/><path fill-rule="evenodd" clip-rule="evenodd" d="M139.296 83.864c-2.773 2.773.784 5.876-1.175 8.422-1.958 2.546-2.35 7.247-5.093 8.422-2.741 1.176-4.505 3.526-5.68 5.289-1.175 1.763-5.092 4.504-6.66 3.917-1.567-.588-1.371-1.372-1.763-2.154-.392-.784 0-4.702-.978-5.092-.98-.392-1.176-1.96-1.763 0-.588 1.958-.196 4.7-2.155 5.484-1.958.782-2.35 2.349-3.33.196-.979-2.155-.195-2.939-2.546-4.114-2.35-1.176-5.093-1.566-5.876-4.505-.784-2.939-3.134-4.505-3.526-7.443-.39-2.938-.195-9.01-.979-8.422-.784.588-1.567 5.092-.784 8.618.784 3.526 1.352 6.14 2.743 8.226 1.566 2.35 6.464 6.072 6.66 6.856.196.784 1.566 2.35 3.525 3.721 1.959 1.371 3.329 2.155 5.288 2.547 1.959.392 5.876 0 8.031-1.176 2.154-1.175 6.738-5.171 9.01-7.443 2.546-2.545 3.526-2.937 4.7-4.896 1.176-1.959 3.526-8.03 3.526-10.185 0-2.155-.587-6.856-1.175-6.268z" fill="#543933"/><path fill-rule="evenodd" clip-rule="evenodd" d="M120.884 97.574c0-.784-5.68-.784-6.268-.196-.586.588 1.567 2.155 3.135 2.155 1.567 0 3.133-.96 3.133-1.959zM126.956 93.07c-2.154-1.959-5.68-1.763-7.05-1.959-1.372-.196-1.176-2.547-2.351-2.155-1.176.392-.784 1.567-2.547 2.155-1.762.588-3.917.784-5.092 1.567-1.176.784-2.938 1.37-1.764 1.37 1.176 0 4.702-1.174 6.66-1.37 1.959-.196 4.506 0 5.68 0 1.176 0 4.114.392 5.29.588 1.174.196 1.174-.196 1.174-.196zM136.652 73.385c-.294.685-1.666-.49-2.056-.882-.392-.392 0-1.37-1.176-1.958-1.175-.588-.783-1.175-2.938-.98-2.154.196-5.876.392-7.052.784-1.174.392-1.762.588-1.958-.196-.196-.783-.392-1.175.392-1.763.784-.588 6.268-1.37 8.226-.979 1.959.39 2.88.756 4.312 1.596 1.956 1.146 2.25 4.378 2.25 4.378zM98.968 73.385c.293.685 1.547-.882 1.937-1.274.392-.392.196-1.174 1.372-1.762 1.175-.588 1.175-.784 2.86-.784 2.164 0 5.876.392 7.052.784 1.175.392 1.763.588 1.959-.196.196-.783.392-1.175-.392-1.763-.784-.588-6.268-1.37-8.227-.979-1.958.391-2.88.756-4.312 1.596-1.956 1.146-2.25 4.378-2.25 4.378z" fill="#543933"/></g><path d="M180.535 43.835l-1.127-1.738h.988l1.128 1.738h-.989zm-1.932-2.15h.85c.323 0 .571-.073.748-.214.176-.142.264-.34.264-.592 0-.254-.088-.448-.264-.587-.177-.137-.425-.207-.748-.207h-.85v1.6zm-.979 2.15v-4.532h1.887c.598 0 1.066.141 1.404.425.337.284.505.668.505 1.15 0 .5-.168.886-.505 1.162-.338.276-.806.413-1.404.413h-.898v1.382h-.989zm1.68 1.161c.491 0 .943-.088 1.357-.264a3.41 3.41 0 001.087-.73c.311-.311.551-.678.719-1.1a3.61 3.61 0 00.253-1.357c0-.482-.084-.932-.253-1.345a3.279 3.279 0 00-.707-1.081 3.269 3.269 0 00-1.069-.719 3.47 3.47 0 00-1.352-.26c-.491 0-.946.088-1.363.26a3.124 3.124 0 00-1.081.73 3.445 3.445 0 00-.972 2.437c0 .485.084.934.253 1.348.168.413.405.777.713 1.092.306.314.667.558 1.08.73.415.174.859.26 1.335.26zm.012.633a4.08 4.08 0 01-1.6-.31 3.973 3.973 0 01-2.144-2.163 4.095 4.095 0 01-.305-1.588c0-.567.104-1.096.31-1.587.207-.49.495-.922.863-1.294.368-.37.799-.662 1.293-.868a4.126 4.126 0 011.606-.31c.574 0 1.109.1 1.604.304.494.203.924.488 1.288.858a3.994 3.994 0 011.156 2.874c0 .576-.103 1.11-.311 1.606a3.999 3.999 0 01-.868 1.298 4.001 4.001 0 01-2.892 1.18z" fill="#8C734B"/><path d="M73.89 187.526l-4.053-5.379 2.142-1.322 4.999 6.701H73.89zm-1.659-5.295l-2.459-.293 4.118-5.631h2.816l-4.475 5.924zm-4.538-1.385h3.8v2.184h-3.8v-2.184zm-1.849-4.539h2.626v11.219h-2.626v-11.219zM89.626 187.526v-2.27l-.148-.482v-3.971c0-.771-.231-1.368-.692-1.796-.463-.427-1.165-.641-2.102-.641-.63 0-1.25.098-1.858.294-.61.196-1.124.47-1.544.82l-1.03-1.912c.602-.462 1.32-.809 2.154-1.04a9.616 9.616 0 012.594-.346c1.624 0 2.882.388 3.77 1.166.889.776 1.334 1.978 1.334 3.602v6.576h-2.478zm-3.53.148c-.84 0-1.576-.144-2.205-.431-.63-.288-1.118-.687-1.462-1.197a3.048 3.048 0 01-.514-1.735c0-.629.15-1.197.452-1.701.301-.504.794-.904 1.481-1.198.686-.293 1.596-.441 2.73-.441h3.258v1.744h-3.068c-.896 0-1.499.143-1.806.431-.309.286-.463.64-.463 1.061 0 .476.19.853.568 1.135.377.278.903.418 1.575.418.645 0 1.222-.146 1.734-.44.51-.294.879-.728 1.102-1.302l.44 1.576c-.251.657-.703 1.168-1.354 1.532-.65.365-1.473.548-2.468.548zM99.561 187.526v-11.219h10.756v11.219h-2.604v-9.601l.608.61h-6.742l.608-.61v9.601h-2.626zM118.069 187.526v-11.219h2.625v7.396l6.199-7.396h2.395v11.219h-2.627v-7.395l-6.176 7.395h-2.416zM139.351 187.526v-9.621l.609.63h-4.559v-2.228h10.504v2.228h-4.537l.608-.63v9.621h-2.625zM158.824 187.526v-2.27l-.148-.482v-3.971c0-.771-.23-1.368-.692-1.796-.462-.427-1.164-.641-2.101-.641-.629 0-1.251.098-1.859.294-.609.196-1.124.47-1.544.82l-1.029-1.912c.601-.462 1.32-.809 2.153-1.04a9.62 9.62 0 012.595-.346c1.624 0 2.881.388 3.771 1.166.888.776 1.333 1.978 1.333 3.602v6.576h-2.479zm-3.529.148c-.84 0-1.576-.144-2.205-.431-.631-.288-1.118-.687-1.462-1.197a3.053 3.053 0 01-.514-1.735c0-.629.15-1.197.452-1.701.301-.504.794-.904 1.481-1.198.685-.293 1.596-.441 2.731-.441h3.257v1.744h-3.068c-.896 0-1.499.143-1.807.431a1.39 1.39 0 00-.462 1.061c0 .476.189.853.568 1.135.377.278.902.418 1.574.418.646 0 1.223-.146 1.735-.44a2.489 2.489 0 001.101-1.302l.442 1.576c-.252.657-.704 1.168-1.355 1.532-.651.365-1.473.548-2.468.548zM168.761 187.526v-11.219h2.625v4.56h5.652v-4.56h2.626v11.219h-2.626v-4.433h-5.652v4.433h-2.625zM33.112 225.049h8.542c1.79 0 3.15-.373 4.078-1.12.927-.746 1.392-1.9 1.392-3.461 0-1.493-.465-2.604-1.392-3.335-.928-.728-2.288-1.093-4.078-1.093h-8.542v9.009zm0-14.761h7.246c1.695 0 2.975-.364 3.839-1.095.863-.729 1.295-1.806 1.295-3.232 0-1.425-.431-2.502-1.295-3.232-.864-.729-2.145-1.094-3.84-1.094h-7.245v8.653zm-7.725 20.869v-35.632H41.03c3.902 0 6.941.799 9.117 2.394 2.175 1.596 3.263 3.868 3.263 6.82 0 2.92-1.024 5.185-3.07 6.796-2.049 1.612-4.768 2.417-8.158 2.417l.912-2.137c3.773 0 6.701.797 8.78 2.393 2.08 1.595 3.12 3.901 3.12 6.921 0 3.123-1.114 5.575-3.336 7.356-2.223 1.782-5.463 2.672-9.716 2.672H25.387zM79.934 231.157l-10.461-17.153 6.287-4.021 13.004 21.174h-8.83zm-3.454-16.9l-7.15-.916 10.892-17.814h8.204l-11.946 18.73zm-12.908-4.326H75.28v6.872H63.572v-6.872zm-5.47-14.404h7.726v35.63h-7.726v-35.63z" fill="#fff"/><path d="M93.187 224.438c1.855.578 3.415.739 4.679.483 1.262-.253 2.39-1.195 3.382-2.824l1.631-2.596.72-.865 11.132-23.11h7.629l-14.298 28.2c-1.28 2.544-2.792 4.496-4.535 5.854-1.744 1.357-3.655 2.128-5.733 2.316-2.08.186-4.24-.214-6.479-1.198l1.872-6.26zm10.268 1.07l-15.163-29.982h8.302l11.132 23.924-4.271 6.058zM136.513 231.768c-2.59 0-4.998-.451-7.221-1.349-2.223-.899-4.151-2.18-5.781-3.843-1.632-1.663-2.904-3.615-3.816-5.853-.911-2.24-1.367-4.7-1.367-7.382 0-2.68.456-5.141 1.367-7.38.912-2.24 2.19-4.19 3.838-5.854a17.185 17.185 0 015.783-3.843c2.207-.899 4.623-1.348 7.245-1.348 2.911 0 5.543.533 7.894 1.603 2.35 1.068 4.326 2.638 5.925 4.708l-4.989 4.886c-1.152-1.39-2.432-2.434-3.839-3.13-1.408-.695-2.943-1.043-4.607-1.043-1.568 0-3.006.272-4.318.815a9.735 9.735 0 00-3.407 2.34c-.96 1.018-1.703 2.224-2.231 3.614-.528 1.392-.792 2.936-.792 4.632 0 1.698.264 3.242.792 4.632.528 1.392 1.271 2.596 2.231 3.615a9.751 9.751 0 003.407 2.341c1.312.543 2.75.814 4.318.814 1.664 0 3.199-.347 4.607-1.043 1.407-.695 2.687-1.756 3.839-3.181l4.989 4.886a15.724 15.724 0 01-5.925 4.734c-2.351 1.085-4.999 1.629-7.942 1.629zM169.577 224.743c1.502 0 2.886-.27 4.15-.813a9.92 9.92 0 003.335-2.343c.96-1.017 1.703-2.222 2.231-3.614.528-1.39.792-2.934.792-4.631s-.264-3.24-.792-4.632c-.528-1.392-1.264-2.596-2.207-3.615a9.657 9.657 0 00-3.335-2.341c-1.28-.543-2.672-.815-4.174-.815-1.504 0-2.887.272-4.151.815a9.956 9.956 0 00-3.335 2.341c-.96 1.019-1.702 2.223-2.23 3.615-.53 1.392-.792 2.935-.792 4.632 0 1.663.262 3.199.792 4.607.528 1.408 1.262 2.621 2.206 3.638a9.604 9.604 0 003.335 2.343c1.279.543 2.671.813 4.175.813zm.048 7.026c-2.656 0-5.11-.459-7.366-1.375-2.254-.916-4.206-2.205-5.854-3.869-1.648-1.662-2.927-3.614-3.838-5.854-.912-2.24-1.368-4.682-1.368-7.329 0-2.648.456-5.091 1.368-7.331a17.5 17.5 0 013.863-5.853c1.661-1.663 3.613-2.952 5.853-3.868 2.239-.917 4.67-1.375 7.294-1.375 2.654 0 5.093.458 7.317 1.375 2.223.916 4.159 2.205 5.807 3.868 1.646 1.663 2.933 3.607 3.861 5.828.928 2.223 1.392 4.675 1.392 7.356 0 2.647-.464 5.099-1.392 7.355-.928 2.257-2.215 4.208-3.861 5.854-1.648 1.646-3.584 2.927-5.807 3.843-2.224.916-4.647 1.375-7.269 1.375zM198.619 225.049h8.541c1.791 0 3.151-.373 4.079-1.12.927-.746 1.392-1.9 1.392-3.461 0-1.493-.465-2.604-1.392-3.335-.928-.728-2.288-1.093-4.079-1.093h-8.541v9.009zm0-14.761h7.245c1.695 0 2.975-.364 3.839-1.095.864-.729 1.296-1.806 1.296-3.232 0-1.425-.432-2.502-1.296-3.232-.864-.729-2.144-1.094-3.839-1.094h-7.245v8.653zm-7.725 20.869v-35.632h15.642c3.903 0 6.942.799 9.118 2.394 2.174 1.596 3.262 3.868 3.262 6.82 0 2.92-1.024 5.185-3.07 6.796-2.048 1.612-4.767 2.417-8.158 2.417l.912-2.137c3.774 0 6.702.797 8.78 2.393 2.08 1.595 3.12 3.901 3.12 6.921 0 3.123-1.113 5.575-3.336 7.356-2.222 1.782-5.462 2.672-9.716 2.672h-16.554z" fill="#fff"/></svg>