<svg width="608" height="383" fill="none" xmlns="http://www.w3.org/2000/svg"><path d="M51.455.22H79.77v1.13l1.962.177c2.635.333 4.957 1.11 7.417 2.084l1.34.53c16.467 6.752 28.347 19.97 35.248 36.156 1.168 2.96 1.989 6.014 2.735 9.105l.688-2.136c5.523-16.695 14.939-30.781 30.458-39.698l.997-.573c7.468-4.194 15.553-6.837 24.128-6.91l1.565-.014c1.094-.008 2.188-.014 3.281-.019 1.104-.006 2.208-.017 3.311-.034 6.859-.105 12.87.194 19.384 2.463l1.454.493c1.185.426 2.342.887 3.501 1.38l1.218.51c5.757 2.49 10.548 6.063 15.346 10.053l1.055.822c3.147 2.512 5.555 5.618 8.006 8.789l1.046 1.34c10.17 13.714 13.819 31.352 11.342 48.09-2.712 16.365-11.564 31.455-24.846 41.585-8.614 6.054-17.51 9.588-27.749 11.872l2.015.583c17.877 5.31 32.5 14.961 41.723 31.471 7.853 14.557 10.832 32.692 6.096 48.785-5.569 18.021-16.725 31.893-33.434 40.803-5.081 2.57-10.777 4.588-16.4 5.553l.948.239c7.127 1.834 13.612 4.014 20.005 7.675l1.743.989c3.777 2.275 6.973 5.013 10.149 8.056l1.451 1.378 1.381 1.449 1.121 1.128c12.285 12.855 16.243 29.768 16.005 47.036-.47 16.974-8.783 32.52-20.991 44.07-12.95 11.796-29.887 16.928-47.208 16.235-15.156-.881-29.017-7.232-40.101-17.454l-1.244-1.102c-8.884-8.276-14.795-19.944-17.444-31.686l-.292.955c-5.743 18.552-16.253 33.337-33.622 42.552-14.86 7.546-32.419 8.805-48.394 4.125-16.29-5.594-30.255-16.847-38.11-32.277C-.024 331.371-.907 313.235 5 295.774c5.698-15.821 17.973-28.748 33.076-35.97 4.479-2.06 9.191-3.368 13.945-4.629v-.565l-1.619-.395c-17.551-4.4-32.12-14.474-41.461-30.013-8.873-15.076-11.073-32.885-6.907-49.804 2.464-9.076 6.776-17.978 13.178-24.936l1.133-1.369c9.42-11.132 22.76-17.582 36.809-20.678l-1.5-.336c-16.763-4.069-31.396-13.993-40.506-28.758-9.07-15.189-12.152-33.023-7.972-50.29C5.87 37.884 10.51 29.02 17.477 21.135l.856-1.08C25.272 11.343 38.21 3.542 49.19 1.35h2.265V.22zm-15.29 10.175c.876.601 1.763 1.187 2.654 1.767l1.494.993c1.491.807 1.491.807 3.013.203l1.334-.702c3.028-1.007 6.656-1.144 9.722-.179 2.33 1.237 4.411 2.885 5.568 5.267.507 2.14.884 4.237 1.205 6.413.633 2.653 1.642 4.6 3.832 6.285 2.564 1.22 4.532 1.898 7.421 1.435 3.104-1.267 5.044-2.971 6.384-6.042.468-1.488.73-2.948.978-4.487.59-3.608 1.841-5.834 4.778-8.056 3.132-1.8 6.447-1.742 9.946-1.201 3.308 1.231 5.055 3.17 6.795 6.218.494 2.067.494 2.067.814 4.24.571 3.308 1.086 5.433 3.717 7.632 2.504 1.63 4.391 2.014 7.362 1.696 1.898-.781 1.898-.781 3.397-1.696-3.463-7.377-10.716-13.867-17.555-18.09l-1.697-1.104c-15.953-9.83-45.872-14.51-61.162-.592zm122.321 1.13c2.71 3.056 7.187 4.261 11.168 4.54 5.574-.076 11.474-2.269 15.448-6.235 2.579-3.386 2.579-3.386 3.964-7.35-10.762-.835-21.489 3.725-30.58 9.046zm36.243-9.044c1.58 4.838 5.04 8.867 9.521 11.306 5.261 2.284 10.456 2.809 15.962 1.13 1.592-.664 3.025-1.41 4.531-2.26v-1.131c-9.201-5.338-19.21-9.458-30.014-9.045zm-2.832 1.696l-.708 1.22c-3.649 6.043-8.061 10.37-15.069 12.206a69.32 69.32 0 01-4.043.706c.129 5.628 2.082 9.67 5.86 13.815 3.825 3.611 8.727 5.43 13.96 5.618 6.311-.237 11.463-2.884 15.75-7.455 2.992-3.638 4.298-7.322 4.637-11.978l-1.144-.128c-5.454-.777-10.028-2.978-14.146-6.655-1.104-1.542-1.104-1.542-2.088-3.18-1.332-2.22-1.332-2.22-3.009-4.17zM20.256 22.313C8.364 35.008 3.813 51.56 4.35 68.607c.967 16.305 9.323 31.205 21.21 42.133 2.59 2.243 5.438 4.116 8.339 5.934l1.546.982c1.231.813 1.231.813 2.595.749 4.782-1.887 10.036-6.567 12.848-10.776l-1.14-.415c-4.58-1.736-7.254-3.379-9.58-7.767-.971-2.289-1.395-4.63-1.739-7.082h2.832l.044.994c.298 4.096 1.623 6.469 4.592 9.323 2.2 1.824 4.466 2.319 7.256 2.685 2.546-3.326 4.699-6.817 6.69-10.493l.66-1.191c1.509-2.845 2.254-5.502 2.843-8.667l9.627-.565a5808.918 5808.918 0 00-3.397-13.771c-.529-2.132-1.056-4.264-1.578-6.397a1683.76 1683.76 0 00-1.532-6.19c-.194-.782-.386-1.563-.576-2.345C61.606 38.171 52.737 23.656 37.4 13.682c-6.639-4.019-12.58 4.1-17.144 8.63zm127.187-1.672c-2.084 2.132-3.879 4.413-5.628 6.82l-.73.997c-1.414 2.007-2.329 3.882-2.986 6.245 5.984 2.799 11.376 3.921 17.829 1.754 6.284-2.747 9.863-7.13 12.375-13.347.439-1.643.44-3.107.376-4.8l-1.451-.272c-3.626-.745-6.583-1.507-9.599-3.693-2.992-1.983-8.097 4.315-10.186 6.296zM44.659 16.048l.812.687C57.2 26.8 64.491 38.866 67.878 53.924c2.654.212 4.558.274 6.972-.954 2.97-2.551 4.028-4.412 4.602-8.303.677-3.897 1.392-6.548 4.707-9 2.955-1.738 5.839-1.979 9.202-1.529 3.695 1.15 5.91 2.884 7.751 6.29.695 1.744.944 3.444 1.204 5.299.509 3.106 1.629 5.067 4.07 7.066 2.406 1.447 4.62 1.5 7.362 1.131 2.19-.751 3.7-1.976 5.274-3.675 1.367-2.83 1.68-5.67 2.088-8.762l.416-1.718c.191-2.124-.348-2.955-1.513-4.712l-.971-1.498-.764-1.117-1.946.848c-3.491 1.284-6.65 1.47-10.088-.07-3.029-1.705-5.141-4.176-6.087-7.562a202.56 202.56 0 01-.177-2.438c-.282-2.9-1.315-4.975-3.221-7.172-2.643-1.919-5.327-2.18-8.495-1.696-2.714.893-4.475 2.402-5.797 4.98-.727 2.087-.939 4.255-1.252 6.435-.66 3.353-2.66 5.366-5.41 7.24-2.863 1.589-6.018 1.537-9.164.868-2.774-.884-4.661-2.264-6.125-4.825-1.09-2.511-1.701-5.054-2.194-7.737-.553-2.627-1.549-3.959-3.47-5.83-1.73-1.064-3.074-1.298-5.096-1.308l-1.451-.028c-1.637.243-2.416.824-3.645 1.901zm179.163-.353c-2.843 1.49-5.543 2.164-8.707 2.614.486 6.659 3.365 10.889 8.141 15.405 4.718 3.14 9.446 4.347 15.078 3.816 2.339-.574 4.603-1.258 6.795-2.261l.567-1.13c-3.593-7.11-10.157-15.54-16.989-19.787-2.333 0-2.939.248-4.885 1.343zm-10.405 9.963c-.859 1.358-1.651 2.75-2.454 4.14-4.1 6.567-10.144 8.864-17.367 10.558.208 5.392 2.471 10.175 6.442 13.85 5.545 4.49 10.882 5.407 17.909 4.806 5.806-1.498 10.054-4.577 13.237-9.61 1.699-3.032 2.619-5.528 2.619-9.046l-1.535-.375c-6.62-1.733-11.981-4.046-16.02-9.8-.855-1.485-1.564-2.955-2.265-4.523h-.566zm-43.605.566a40.127 40.127 0 00-1.452 2.544c-3.391 5.78-8.375 9.106-14.801 10.88a79.913 79.913 0 01-3.568.708c1.295 6.306 3.327 11.194 8.495 15.264 5.674 3.337 11.092 4.284 17.601 3.065 5.254-1.65 9.702-5.497 12.435-10.266 1.1-2.586 1.679-5.318 2.243-8.063l-1.328-.291c-6.874-1.597-12.541-4.14-16.65-10.215a47.073 47.073 0 01-1.843-3.626h-1.132zm-86.22 13.638c-1.182 1.94-1.466 3.614-1.849 5.83-.703 3.712-1.802 6.358-4.804 8.797-2.644 1.642-4.886 2-7.929 2.262.635 4.124 1.56 8.173 2.549 12.224l.366 1.545.36 1.445.319 1.307c.284 1.121.284 1.121 1.503 1.569 3.785-2.771 4.904-5.377 5.628-9.929.598-3.542 1.685-5.575 4.6-7.773 3.15-1.806 6.034-1.86 9.593-1.52 2.89.806 5.122 2.328 6.791 4.87.91 2.152 1.191 4.43 1.573 6.72.577 3.136 1.547 5.133 4.094 7.066 2.263 1.368 4.773 1.592 7.362 1.13 3.283-1.363 4.854-2.912 6.229-6.218.283-1.3.53-2.608.744-3.921.722-3.629 1.63-5.464 4.353-7.95l1.133-.565c.127-3.055-.29-5.548-1.133-8.445l-.327-1.171c-.264-.942-.534-1.882-.806-2.821h-1.132l-.168 1.117c-.69 4.022-1.584 6.687-4.964 9.235-3.146 1.804-6.038 1.868-9.592 1.52-3.01-.916-5.122-2.39-6.796-5.089-.692-1.611-1.094-3.114-1.331-4.851-.53-3.79-1.331-6.221-4.332-8.716-4.599-2.779-8.48-1.017-12.034 2.332zm52.808-2.897c-3.047 6.108-5.818 13.063-5.698 19.998l.035 2.049c5.476-1.474 10.478-4.16 13.591-9.045 2.318-4.587 2.318-4.587 2.832-9.61l-1.923-.599-2.502-.78-1.266-.394a279.19 279.19 0 01-5.069-1.62zm106.493 1.808c-2.021.788-4.134 1.175-6.258 1.583.727 5.188 2.516 9.759 6.229 13.568 4.389 3.344 4.389 3.344 9.627 4.523-.142-7.395-2.089-14.193-5.097-20.917-1.817 0-2.872.509-4.501 1.243zm-7.957 8.367l-.814 1.908c-2.938 5.764-7.305 9.43-13.344 11.66a42.348 42.348 0 01-5.663 1.13c.195 5.043 2.338 9.75 5.734 13.497 4.304 3.913 9.763 5.931 15.525 5.846 5.823-.508 10.785-3.349 14.752-7.544 2.55-3.377 2.065-7.775 1.931-11.799l-1.431-.479c-7.18-2.553-11.872-6.07-15.487-12.806l-.637-1.413h-.566zm-86.644.566a92.018 92.018 0 00-1.486 2.579c-3.572 5.962-8.353 9.249-15.078 11.2l-1.557.353c-.183 5.033.048 8.51 3.397 12.508 4.187 4.414 9.205 6.405 15.22 6.89 5.465-.181 10.956-2.57 14.819-6.418 3.199-3.853 5.255-7.92 5.072-12.98l-1.327-.291c-7.441-1.728-12.593-4.376-16.759-10.98l-.971-1.64-.764-1.221h-.566zm43.605 0a213.685 213.685 0 00-1.946 3.109c-4.159 6.264-9.242 9.395-16.565 10.882l-1.309.141c.269 5.56 2.244 10.155 6.229 14.133 4.103 3.375 9.18 5.54 14.595 5.284 5.018-.781 9.446-2.334 13.154-5.85l.949-.898c3.331-3.507 4.866-7.91 5.28-12.669l-1.411-.251c-6.308-1.265-11.516-3.668-15.578-8.794a55.527 55.527 0 01-2.832-5.087h-.566zM82.991 61.838c-1.207 2.354-1.404 4.869-1.776 7.458-.668 3.396-2.685 5.288-5.41 7.24l-1.698 1.131 2.265 9.61H66.18c-1.664 3.32-1.664 3.32-3.279 6.665-5.028 10.581-12.02 19.301-21.638 26.124 1.818 1.21 3.61 1.863 5.663 2.543l2.123.725c5.441 1.648 10.758 2.023 16.423 1.996l2.125-.01c14.239-.188 26.6-5.424 37.657-14.299l1.253-.985c10.658-8.79 16.96-21.928 19.701-35.195l.338-1.573c.333-2.657.287-5.292.263-7.967l-.008-1.67a913.293 913.293 0 00-.027-4.054c-2.554 2.45-3.589 4.072-4.201 7.572-.693 3.942-1.57 6.492-4.895 8.999-3.153 1.808-6.033 1.8-9.592 1.52-3.348-1.177-5.503-3.18-7.185-6.29-.694-1.745-.944-3.445-1.203-5.3-.51-3.106-1.63-5.067-4.07-7.066-4.603-2.768-9.52-1.21-12.636 2.826zm86.821 7.35l-.85 1.943c-2.875 5.63-6.892 8.778-12.742 11.059a71.816 71.816 0 01-6.229 1.696c1.329 6.877 3.87 11.685 9.627 15.828 4.796 2.864 9.151 3.265 14.724 2.827 5.758-1.479 10.111-4.862 13.591-9.61 1.545-2.938 2.343-5.771 2.832-9.045l-1.536-.376c-7.995-2.093-13.244-5.255-17.648-12.344l-.668-1.148-.535-.83h-.566zm43.605 0l-.584 1.077c-3.982 7.019-8.683 10.792-16.476 12.95-.919.23-1.839.455-2.761.67.283 5.076 2.328 9.475 5.778 13.23 4.742 4.209 9.857 5.722 16.113 5.6 5.719-.527 10.528-3.23 14.231-7.58 2.385-3.312 4.085-7.119 4.085-11.25l-1.763-.459c-7.48-2.062-12.758-4.832-16.732-11.796-.714-1.364-.714-1.364-1.891-2.443zm-84.945 7.349l-.584 2.155c-4.95 17.68-14.968 32.147-31.129 41.374-6.723 3.707-13.98 5.95-21.52 7.349v.565l2.036.479c17.304 4.218 32.086 13.517 41.57 28.917 3.663 6.291 6.639 13.159 7.928 20.351 1.341-.504 1.341-.504 1.743-2.321.224-.768.445-1.537.664-2.307 3.179-10.527 8.037-19.141 15.714-27.029l1.067-1.17c8.953-9.537 22.104-14.673 34.61-17.485v-.566l-2.075-.499c-17.226-4.254-31.818-13.421-41.189-28.826-3.924-6.664-6.59-13.425-8.269-20.987h-.566zm3.398 0c1.126 7.437 4.246 13.879 7.928 20.35 1.68.193 1.68.193 2.528-.77 2.746-3.628 4.834-7.609 4.834-12.231l-1.823-.5c-4.534-1.293-8.203-2.517-11.769-5.719l-1.698-1.13zm118.922 1.13l-.796.643c-4.088 3.022-8.527 4.237-13.361 5.576.65 4.638 1.781 8.896 5.475 12.017l1.32.985c3.267-5.804 6.384-11.562 7.929-18.09l-.567-1.13zm-102.5 13.002l-.5 1.098-.703 1.482-.677 1.45c-1.219 2.08-2.734 3.797-4.349 5.581 3.977 4.871 7.904 9.276 13.025 13.002l1.82 1.334c2.837 2.276 2.837 2.276 6.194 3.173 2.644-1.389 4.085-4.806 5.223-7.44.38-1.707.378-3.238.354-4.982l-1.307-.271c-6.918-1.561-12.252-4.22-16.107-10.293l-.982-1.632c-.809-1.407-.809-1.407-1.991-2.502zm43.605 0a78.16 78.16 0 00-1.557 2.615c-3.758 6.282-8.343 9.652-15.432 11.518a47.07 47.07 0 01-2.831.565c.302 6.233 2.625 10.49 7.178 14.749 4.191 3.438 8.97 4.68 14.341 4.401 5.594-.616 10.44-3.158 14.129-7.424 2.627-3.507 4.559-7.265 4.559-11.726l-1.287-.271c-6.355-1.446-11.606-3.506-15.702-8.774a49.303 49.303 0 01-2.832-5.653h-.566zm43.039 0l-.564 1.202c-2.751 5.477-6.573 9.699-12.461 11.8a114.12 114.12 0 01-6.796 1.696c.163 4.217 1.645 7.782 3.965 11.307 1.17.776 1.17.776 2.265 1.13 7.779-4.883 14.192-10.257 19.82-17.524-.809-1.7-1.743-3.244-2.796-4.805l-.865-1.29a94.944 94.944 0 00-2.568-3.516zm-21.519 21.482l-.604 1.221c-1.846 3.575-3.744 6.295-6.758 8.955l-1.133 1.13c3.318-.292 6.008-.99 9.061-2.296l1.166-.483c.934-.387 1.867-.782 2.798-1.178l-1.628-2.72-.916-1.531a88.916 88.916 0 00-1.986-3.098zm-43.605.565c-.356.695-.709 1.39-1.062 2.085l-.598 1.173c-.643 1.342-1.198 2.705-1.738 4.092 4.491 1.867 8.759 3.309 13.591 3.957l-1.168-.848c-3.56-3.025-5.99-6.204-7.893-10.459h-1.132zM16.911 151.723c-7.29 9.091-14.222 22.519-13.591 34.484 1.319-1.275 2.591-2.54 3.77-3.948 9.103-10.86 23.61-17.819 37.673-19.137 16.461-.957 31.66 2.832 44.634 13.475l1.482 1.197c3.893 3.305 6.857 7.135 9.844 11.24 1.837-1.809 3.6-3.654 5.309-5.583.872-.966 1.745-1.932 2.619-2.897l.951-1.067c3.022-3.218 6.714-5.553 10.375-7.978l1.699-1.131c-.95-6.835-5.894-13.493-10.193-18.655l-1.217-1.475c-10.035-11.646-24.299-18.854-39.557-20.572-21.112-1.547-39.786 6.184-53.798 22.047zm147.238-16.394l-1.881.879c-14.336 7.207-24.982 20.012-30.328 35.018-4.779 15.698-4.287 32.987 3.339 47.758 8.204 15.042 20.882 26.048 37.258 31.28 16.762 4.781 33.662 2.66 48.896-5.783 2.815-1.65 5.342-3.611 7.84-5.7l1.73-1.446c11.19-9.65 18.479-23.465 20.356-38.126 1.076-15.626-1.287-30.655-10.76-43.529l-1.015-1.391c-4.49-5.859-9.689-11.095-15.974-15.003l-1.484-.978c-17.365-10.891-39.571-11.604-57.977-2.979zM38.996 166.421a67.974 67.974 0 002.549 6.678c4.496 10.785 3.867 22.965-.038 33.839-1.11 2.572-2.507 4.757-4.21 6.969l-1.132 1.696c14.297 3.435 28.228 2.155 41.34-4.522l1.814-.917c6.809-3.71 12.537-8.947 17.44-14.912l.854-1.007c.76-.925.76-.925 1.411-2.385-.656-2.38-1.91-3.865-3.575-5.653l-1.391-1.497c-1.343-1.414-2.679-2.814-4.095-4.156l-1.044-1.014c-11.102-10.38-25.852-14.717-40.802-14.312-3.069.161-6.097.665-9.12 1.193zm-27.315 14.826c-4.844 4.82-4.844 4.82-8.361 10.613a727.696 727.696 0 003.32 4.152 190.25 190.25 0 012.048 2.579c5.777 7.17 15.563 13.892 24.645 15.882 6.815-6.842 9.052-15.976 9.061-25.439-.3-7.538-1.649-15.65-6.795-21.482-8.364 0-18.22 8.189-23.918 13.695zm97.537 2.133c-3.999 3.956-3.999 3.956-5.663 9.045 1.384 2.314 3.279 4.234 5.096 6.219l1.343 1.482c3.434 3.608 7.289 6.866 11.682 9.259l1.699-.565c.57-1.555.57-1.555.92-3.428l.412-1.892c1.592-8.801 2.915-22.273-1.898-30.295-4.103 0-10.865 7.454-13.591 10.175zm-8.495 10.741a56.898 56.898 0 00-2.265 2.756c-8.953 11.101-20.259 17.988-33.978 21.553l-1.622.422c-14.825 3.105-30.956-.141-43.71-8.095-5.783-3.792-10.936-8.411-15.262-13.809-.761 2.484-.223 4.557.354 7.031l.318 1.379c2.266 9.45 6.477 18.205 12.92 25.509l1.138 1.382c10.056 11.838 24.732 18.912 40.095 20.488.978.068 1.958.128 2.938.177l1.178.071c16.088.491 31.49-5.814 43.274-16.551 7.015-6.596 11.999-14.167 15.575-23.092v-1.131a41.68 41.68 0 00-2.619-1.625c-6.102-3.794-11.324-8.325-15.492-14.196a61.699 61.699 0 00-1.709-2.269h-1.133zm26.05 10.741l-.46 1.785c-4.492 16.675-14.624 31.145-29.627 39.968-6.566 3.687-13.602 6.141-20.88 7.995v.565l1.767.356c16.95 3.584 31.539 12.747 41.138 27.375 4.44 6.977 7.088 14.041 9.194 22.017l1.133-.566a91.875 91.875 0 001.203-4.275c2.849-10.263 8.419-19.152 15.786-26.817l1.13-1.217c8.794-9.202 21.089-14.471 33.414-16.873v-.565l-2.159-.479c-17.784-4.094-32.472-13.33-42.397-28.984-3.902-6.387-6.193-13.083-8.11-20.285h-1.132zM21.656 274.901c-.915 1.153-.915 1.153-.761 2.619.65 1.663 1.37 2.385 2.74 3.518l1.2 1.016c2.547 1.84 5.482 1.716 8.498 1.387 3.326-1.153 5.42-3.43 6.938-6.537.535-1.498.535-1.498.424-3.639h2.832l.07 1.696c.409 2.822 1.956 4.763 3.894 6.784 2.813 2.042 5.702 2.085 9.06 1.696 3.127-1.021 4.889-3.079 6.796-5.653.767-1.532.603-2.832.567-4.523h3.397l-.141 1.484c.229 3.084 1.872 4.924 4.14 6.89 2.834 2.106 5.597 2.248 9.026 1.802 3.153-1.244 5.273-3.178 6.796-6.219.451-2.11.451-2.11.566-3.957h2.832l.141 1.767c.702 3.619 2.523 5.771 5.522 7.843 3.037 1.011 6.165.956 9.202-.035 1.964-1.381 3.78-2.93 4.955-5.052-.044-1.669-.572-2.268-1.685-3.52-13.39-12.105-29.211-18.168-47.304-17.483-15.108.922-28.86 7.794-39.705 18.116zm130.6-3.897c-.682.567-1.366 1.133-2.053 1.696l-1.345 1.13 1.133.566a59.1 59.1 0 003.575-1.343c6.913-2.817 16.095-3.405 23.262-.978 5.195 2.197 9.938 4.46 13.937 8.539 2.081-.931 3.794-2.223 5.627-3.568 8.276-5.817 17.616-7.514 27.521-5.921 2.441.553 4.713 1.333 7.017 2.306l1.174.399 1.133-.565c-12.067-11.703-28.07-16.724-44.6-16.515-13.281.39-26.436 5.455-36.381 14.254zm-11.183 13.804c-6.239 7.868-7.842 16.499-6.938 26.333.472 2.436 1.209 4.543 2.265 6.784l.688 1.532c3.313 6.692 8.764 12.014 14.08 17.152 1.253 1.23 2.41 2.517 3.557 3.847 2.085 2.407 4.317 4.638 6.592 6.865 2.615 2.561 5.115 5.161 7.506 7.932 1.66 1.869 3.449 3.606 5.236 5.353 2.143 2.095 4.238 4.196 6.196 6.466 2.148 2.487 4.454 4.794 6.793 7.101l1.256 1.246c1.007.999 2.017 1.997 3.027 2.994 2.233-1.854 4.336-3.692 6.229-5.9 2.613-2.963 5.392-5.736 8.216-8.499 1.756-1.729 3.443-3.48 5.052-5.347 2.533-2.931 5.307-5.608 8.072-8.318a119.122 119.122 0 006.545-6.995c2.109-2.372 4.415-4.555 6.682-6.774a113.347 113.347 0 006.438-6.877 110.335 110.335 0 012.883-3.157c6.481-7.446 8.304-15.244 7.763-24.847-.77-8.531-5.243-15.99-11.681-21.508-7.9-6.242-16.513-7.794-26.379-6.926-7.801 1.36-14.032 5.501-19.254 11.306l-1.699-1.484c-8.591-7.304-16.824-10.582-28.173-9.939-8.229.756-15.658 5.504-20.952 11.66zm-123.474-4.386c-5.24 5.518-11.448 14.875-11.448 22.805 3.742.06 5.982-.762 8.685-3.368 1.797-2.202 2.641-4.507 2.641-7.373h2.832l.004.974c.158 3.153.79 4.989 3.02 7.256 2.66 2.306 5.12 2.859 8.567 2.745 3.2-.523 5.269-2.26 7.344-4.651 1.083-2.204 1.283-3.886 1.451-6.324h2.832l.106 2.014c.357 2.723 1.329 4.545 3.292 6.465 2.975 2.194 5.989 2.803 9.627 2.262 3.063-1.02 5.088-2.964 6.795-5.653.56-1.524.85-2.914 1.133-4.523h2.265l.319 1.979c.859 3.443 3.146 6.037 6.123 7.914 3.681.7 6.782.653 10.098-1.23 2.122-1.565 3.536-3.382 4.143-5.967.142-1.081.213-2.172.27-3.261h2.832l.141 2.049c.384 2.892 1.42 4.755 3.648 6.702 2.53 1.821 4.73 2.441 7.844 2.259 3.417-.662 5.68-2.494 7.621-5.322 1.106-1.946 1.415-3.428 1.132-5.688h2.832l.188 1.013c.697 3.469 1.362 5.83 4.165 8.173 2.262 1.193 3.872 1.38 6.407 1.555-.32-3.125-1.118-5.732-2.336-8.621l-.533-1.274c-2.244-5.212-5.2-9.66-9.024-13.848l-.849 1.236c-2.381 2.674-5.497 4.788-9.138 5.117-3.781.092-6.767-.036-9.833-2.396a35.415 35.415 0 01-3.398-3.957l-1.239 1.272c-3.406 3.324-5.975 5.1-10.83 5.158-3.768-.068-6.52-.669-9.22-3.379-.682-.797-1.312-1.638-1.93-2.486-1.778.41-1.778.41-2.654 1.872-2.167 2.515-4.303 3.591-7.611 4-3.816.128-7.05-.068-10.12-2.48a35.652 35.652 0 01-3.399-3.957l-1.238 1.272c-3.243 3.164-5.838 5.088-10.477 5.193-3.586-.066-6.337-.955-9.238-3.074-.97-1.096-1.568-2.091-2.265-3.391-.727-.065-.727-.065-1.577.938zm1.01 18.847l-.563.787c-2.8 3.605-5.989 5.264-10.514 5.856l-1.947.141c-.959 2.966-1.37 5.692-1.522 8.798l-.08 1.249c-.133 2.395-.029 4.547.47 6.913 3.764.225 6.456.103 9.416-2.511 2.393-2.481 3.163-4.854 3.608-8.23h2.832l-.177 1.413c.241 2.703 1.302 4.421 3.008 6.501 2.725 2.122 4.898 3.045 8.388 2.981 3.086-.385 5.507-1.839 7.433-4.253 1.398-2.159 1.6-4.104 1.734-6.642h2.832l.142 2.049c.316 2.448 1.077 3.95 2.69 5.865 3.103 2.34 5.725 3.32 9.627 2.827 3.25-1.044 5.54-2.732 7.361-5.654.373-1.698.524-3.351.567-5.087l2.831.565.232 1.117c.932 3.776 2.13 5.829 5.431 7.928 2.339 1.317 4.725 1.462 7.362 1.131 3.46-1.287 5.586-3.26 7.256-6.537.796-1.957.796-1.957.672-4.204h2.832l.106 2.014c.357 2.721 1.327 4.548 3.291 6.465 2.434 1.76 4.903 2.652 7.92 2.48 2.856-.547 5.027-1.803 7.017-3.893 1.661-2.552 2.194-3.957 2.052-7.066h2.832l.108.954c.612 3.804 2.123 6.096 4.989 8.656 2.438 1.537 5.13 1.24 7.928 1.131.125-5.797-.018-11.248-1.133-16.96l-1.223-.168c-5.345-.833-8.512-2.237-11.802-6.616a51.4 51.4 0 00-2.265 2.262v1.13a95.55 95.55 0 01-2.265 1.131l-1.699.919c-3.245 1.358-7.022 1.348-10.386.406-2.899-1.289-4.736-3.334-6.603-5.848-.385.409-.77.817-1.168 1.237-3.282 3.267-6.11 5.017-10.795 5.194-3.502-.033-6.117-1.07-8.99-3.039-1.487-1.59-1.487-1.59-2.265-2.826-1.568.637-2.39 1.262-3.575 2.508-2.77 2.636-5.114 3.251-8.848 3.392-3.716-.111-6.344-.888-8.995-3.54a47.035 47.035 0 01-2.367-2.926l-1.238 1.272c-3.28 3.202-5.856 5.098-10.548 5.159-3.25-.044-5.298-.835-8.034-2.473l-1.699-.566c-.602-1.095-.602-1.095-1.133-2.261l-1.132-1.131zm112.128 8.48c-2.742 15.739.836 31.952 9.627 45.225 1.426 1.965 2.942 3.817 4.53 5.653l1.014 1.259c8.904 10.704 22.656 17.715 36.362 19.658 1.9.108 3.764.118 5.663 0a809.825 809.825 0 00-2.411-2.809 181.089 181.089 0 01-1.796-2.12c-2.65-3.125-5.555-5.983-8.481-8.847-1.783-1.755-3.498-3.533-5.133-5.427-2.062-2.388-4.276-4.595-6.53-6.802-2.609-2.555-5.102-5.149-7.488-7.914-1.756-1.973-3.65-3.806-5.537-5.653a142.577 142.577 0 01-8.494-9.045l-1.219-1.36c-5.482-6.418-8.395-13.525-9.541-21.818h-.566zm121.188 3.392l-.566 1.979c-3.574 10.505-9.87 17.676-17.699 25.308a105.29 105.29 0 00-6.207 6.626c-2.114 2.376-4.425 4.565-6.697 6.79-1.85 1.825-3.642 3.666-5.34 5.635-2.524 2.925-5.292 5.593-8.05 8.296a120.237 120.237 0 00-6.633 7.081c-1.27 1.448-2.614 2.793-3.987 4.144l-1.484 1.466-1.1 1.078c4.089 2.041 12.894-1.253 17.096-2.615 15.703-5.393 28.237-16.974 35.586-31.719 1.678-3.528 2.914-7.122 3.948-10.891l.547-1.897c1.714-6.981 1.311-14.144 1.152-21.281h-.566zM18.61 319.055l-1.097 1.52c-2.684 3.249-6.46 4.738-10.583 5.158-.825.047-1.651.087-2.478.106 1.159 8.173 1.159 8.173 3.964 15.829 1.073.594 1.073.594 2.266.565 2.43-1.314 4.2-2.743 5.663-5.088.498-1.678.846-3.361 1.132-5.087h2.832l-.177 1.413c.241 2.703 1.302 4.421 3.008 6.501 2.725 2.122 4.898 3.045 8.388 2.981 3.086-.385 5.507-1.839 7.433-4.253 1.398-2.159 1.6-4.104 1.734-6.642h2.832l.142 1.766c.76 3.924 2.964 6.136 6.087 8.409 1.08.517 1.08.517 2.265.565l1.84.177c3.5-.291 5.75-1.611 8.318-3.957 1.46-2.339 1.668-4.249 1.735-6.96h3.397l.005.973c.157 3.128.773 4.996 2.975 7.257 2.144 1.774 4.197 2.43 6.93 2.722 3.321-.355 5.595-1.338 7.823-3.815 1.87-2.364 2.654-4.083 2.654-7.137h2.832l.106 2.014c.357 2.721 1.327 4.548 3.291 6.465 2.434 1.76 4.903 2.652 7.92 2.48 2.856-.547 5.027-1.803 7.017-3.893 1.661-2.552 2.194-3.957 2.052-7.066h2.832l.128.973c.59 3.458 1.72 5.759 4.402 8.072 1.518.899 2.16 1.13 3.964 1.13 2.917-8.004 2.917-8.004 3.965-16.394l-1.308-.128c-5.401-.687-9.211-2.55-12.85-6.656l-.708.93c-2.714 3.357-4.858 4.915-9.154 5.463-3.516.18-6.439-.487-9.392-2.435-1.276-1.227-2.367-2.521-3.398-3.958l-1.133 1.237c-3.013 3.017-6.494 5.033-10.795 5.194-3.503-.037-6.183-.995-9.025-3.039-.943-1.089-1.558-2.127-2.265-3.392h-1.133l-.85 1.52c-1.682 2.61-4.192 3.743-7.078 4.699-4.5.792-8.166-.238-11.892-2.827-1.124-1.078-1.934-2.108-2.832-3.392l-1.238 1.272c-3.316 3.237-5.867 4.958-10.583 5.124-3.39-.097-6.094-.56-8.574-2.993a67.59 67.59 0 01-2.06-2.473l-.763-.93h-.566zm0 19.786l-1.097 1.52c-1.946 2.418-4.607 3.476-7.398 4.699 1.796 3.8 3.809 7.302 6.23 10.741.827-1.497 1.132-2.202 1.132-3.957h2.832l-.213 1.377c.358 3.395 2.362 5.994 4.885 8.233 3.205 1.163 6.095 1.462 9.379.494 3.123-1.833 4.998-3.905 6.335-7.278.144-1.555.144-1.555 0-2.826h2.832l.142 1.766c.699 3.608 2.516 5.795 5.52 7.844 2.305 1.38 4.447 1.271 7.04.943 3.198-.83 5.318-2.769 7.118-5.466.602-1.802.702-3.201.567-5.087h3.397l.005.973c.155 3.101.75 5.014 2.942 7.254 2.503 2.01 4.976 2.687 8.167 2.478 3.091-.494 5.04-1.888 7.15-4.169 1.558-2.278 2.123-3.76 2.123-6.536h2.832l.141 2.049c.322 2.455 1.043 3.961 2.69 5.865 2.857 2.069 5.503 2.984 9.061 2.826 3.686-1.103 5.846-2.952 7.822-6.218.662-1.67.829-2.751.672-4.522h2.832l.566 3.391c2.566-2.955 4.984-6.447 6.23-10.175l-1.14-.643c-2.811-1.626-5.201-3.139-7.355-5.576l-.564.786c-2.54 3.272-5.202 4.972-9.317 5.667-3.813.227-6.81-.922-9.94-3.061-1.125-1.078-1.933-2.107-2.83-3.392l-1.133 1.237c-3.086 3.08-6.505 5.028-10.902 5.123-3.29-.065-5.956-.578-8.344-2.957a65.02 65.02 0 01-2.022-2.473l-.818-.93h-1.133c-.614.698-1.2 1.421-1.77 2.156-2.35 2.74-4.424 3.781-7.985 4.217-3.782.169-6.839-.776-9.924-2.945a79.49 79.49 0 01-3.539-3.428l-.564.786c-2.533 3.262-5.211 5.019-9.337 5.647-3.482.167-6.435-.546-9.353-2.476a27.958 27.958 0 01-2.779-3.171l-.619-.786h-.566zm23.218 19.221c-.28.501-.56 1.003-.85 1.519-1.662 2.501-4.226 4.162-7.083 5.055-3.031.564-6.059.243-9.056-.356 9.57 10.509 25.078 15.009 38.831 15.97 14.963.294 29.512-4.751 41.017-14.274l.566-1.13-1.287.079c-4.403.155-8.712-.077-12.111-3.206-.759-.901-.759-.901-1.892-2.526l-1.132-1.131-1.168 1.837c-1.808 2.534-3.816 3.681-6.725 4.805-4.275.518-7.824.184-11.375-2.382-2.633-2.194-2.633-2.194-3.384-3.695h-1.133c-.774.828-.774.828-1.557 1.873-2.006 2.418-4.356 3.884-7.503 4.346-4.12.274-7.185-.419-10.619-2.756-1.33-1.254-2.442-2.569-3.539-4.028zM403.455.22h28.315v1.13l1.962.177c2.635.333 4.957 1.11 7.417 2.084l1.34.53c16.467 6.752 28.347 19.97 35.248 36.156 1.168 2.96 1.989 6.014 2.735 9.105l.688-2.136c5.523-16.695 14.939-30.781 30.458-39.698l.997-.573c7.468-4.194 15.553-6.837 24.128-6.91l1.565-.014c1.094-.008 2.188-.014 3.281-.019 1.104-.006 2.208-.017 3.311-.034 6.859-.105 12.87.194 19.384 2.463l1.454.493c1.185.426 2.342.887 3.501 1.38l1.218.51c5.757 2.49 10.548 6.063 15.346 10.053l1.055.822c3.147 2.512 5.555 5.618 8.006 8.789l1.046 1.34c10.17 13.714 13.819 31.352 11.342 48.09-2.712 16.365-11.564 31.455-24.846 41.585-8.614 6.054-17.51 9.588-27.749 11.872l2.015.583c17.877 5.31 32.5 14.961 41.723 31.471 7.853 14.557 10.832 32.692 6.096 48.785-5.569 18.021-16.725 31.893-33.434 40.803-5.081 2.57-10.777 4.588-16.4 5.553l.948.239c7.127 1.834 13.612 4.014 20.005 7.675l1.743.989c3.777 2.275 6.973 5.013 10.149 8.056l1.451 1.378 1.381 1.449 1.121 1.128c12.285 12.855 16.243 29.768 16.005 47.036-.47 16.974-8.783 32.52-20.991 44.07-12.95 11.796-29.887 16.928-47.208 16.235-15.156-.881-29.017-7.232-40.101-17.454l-1.244-1.102c-8.884-8.276-14.795-19.944-17.444-31.686l-.292.955c-5.743 18.552-16.253 33.337-33.622 42.552-14.861 7.546-32.419 8.805-48.394 4.125-16.29-5.594-30.255-16.847-38.111-32.277-8.076-16.607-8.958-34.743-3.053-52.204 5.698-15.821 17.973-28.748 33.076-35.97 4.479-2.06 9.191-3.368 13.945-4.629v-.565a830.26 830.26 0 00-1.619-.395c-17.551-4.4-32.119-14.474-41.461-30.013-8.873-15.076-11.073-32.885-6.907-49.804 2.464-9.076 6.776-17.978 13.178-24.936l1.133-1.369c9.419-11.132 22.759-17.582 36.809-20.678l-1.5-.336c-16.763-4.069-31.396-13.993-40.506-28.758-9.07-15.189-12.152-33.023-7.972-50.29 2.694-10.146 7.335-19.01 14.301-26.895l.856-1.08c6.939-8.713 19.876-16.514 30.857-18.706h2.265V.22zm-15.29 10.175c.876.601 1.763 1.187 2.655 1.767l1.493.993c1.492.807 1.492.807 3.013.203l1.334-.702c3.028-1.007 6.656-1.144 9.722-.179 2.329 1.237 4.411 2.885 5.568 5.267.507 2.14.884 4.237 1.205 6.413.633 2.653 1.642 4.6 3.832 6.285 2.564 1.22 4.532 1.898 7.421 1.435 3.104-1.267 5.044-2.971 6.384-6.042.469-1.488.731-2.948.978-4.487.589-3.608 1.841-5.834 4.778-8.056 3.132-1.8 6.447-1.742 9.946-1.201 3.308 1.231 5.054 3.17 6.795 6.218.494 2.067.494 2.067.814 4.24.571 3.308 1.086 5.433 3.717 7.632 2.504 1.63 4.391 2.014 7.362 1.696 1.898-.781 1.898-.781 3.397-1.696-3.463-7.377-10.716-13.867-17.555-18.09l-1.697-1.104c-15.953-9.83-45.872-14.51-61.162-.592zm122.321 1.13c2.71 3.056 7.187 4.261 11.168 4.54 5.574-.076 11.474-2.269 15.448-6.235 2.579-3.386 2.579-3.386 3.964-7.35-10.762-.835-21.489 3.725-30.58 9.046zm36.243-9.044c1.58 4.838 5.04 8.867 9.521 11.306 5.261 2.284 10.456 2.809 15.962 1.13 1.592-.664 3.025-1.41 4.531-2.26v-1.131c-9.201-5.338-19.21-9.458-30.014-9.045zm-2.832 1.696l-.708 1.22c-3.649 6.043-8.061 10.37-15.069 12.206a69.32 69.32 0 01-4.043.706c.129 5.628 2.082 9.67 5.86 13.815 3.825 3.611 8.727 5.43 13.96 5.618 6.311-.237 11.463-2.884 15.75-7.455 2.992-3.638 4.298-7.322 4.637-11.978l-1.144-.128c-5.454-.777-10.028-2.978-14.146-6.655-1.104-1.542-1.104-1.542-2.088-3.18-1.332-2.22-1.332-2.22-3.009-4.17zM372.256 22.313c-11.892 12.695-16.443 29.247-15.905 46.294.967 16.305 9.323 31.205 21.21 42.133 2.591 2.243 5.438 4.116 8.339 5.934l1.546.982c1.231.813 1.231.813 2.595.749 4.782-1.887 10.036-6.567 12.848-10.776l-1.139-.415c-4.581-1.736-7.255-3.379-9.581-7.767-.971-2.289-1.395-4.63-1.739-7.082h2.832l.044.994c.298 4.096 1.622 6.469 4.592 9.323 2.201 1.824 4.466 2.319 7.256 2.685 2.546-3.326 4.699-6.817 6.689-10.493l.661-1.191c1.509-2.845 2.254-5.502 2.843-8.667l9.627-.565a5442.66 5442.66 0 00-3.397-13.771c-.529-2.132-1.056-4.264-1.579-6.397-.506-2.065-1.017-4.128-1.531-6.19-.193-.782-.386-1.563-.576-2.345-4.285-17.577-13.154-32.092-28.491-42.066-6.639-4.019-12.579 4.1-17.144 8.63zm127.187-1.672c-2.084 2.132-3.879 4.413-5.628 6.82l-.73.997c-1.414 2.007-2.329 3.882-2.986 6.245 5.984 2.799 11.376 3.921 17.829 1.754 6.284-2.747 9.863-7.13 12.375-13.347.439-1.643.44-3.107.376-4.8l-1.451-.272c-3.626-.745-6.583-1.507-9.599-3.693-2.992-1.983-8.097 4.315-10.186 6.296zM396.66 16.048l.811.687c11.729 10.065 19.02 22.131 22.407 37.189 2.654.212 4.558.274 6.972-.954 2.97-2.551 4.028-4.412 4.601-8.303.678-3.897 1.393-6.548 4.708-9 2.955-1.738 5.839-1.979 9.202-1.529 3.695 1.15 5.909 2.884 7.751 6.29.695 1.744.944 3.444 1.204 5.299.509 3.106 1.629 5.067 4.07 7.066 2.406 1.447 4.62 1.5 7.362 1.131 2.19-.751 3.7-1.976 5.274-3.675 1.367-2.83 1.68-5.67 2.088-8.762l.416-1.718c.191-2.124-.348-2.955-1.513-4.712l-.971-1.498-.764-1.117-1.946.848c-3.491 1.284-6.65 1.47-10.088-.07-3.029-1.705-5.141-4.176-6.087-7.562a198.53 198.53 0 01-.177-2.438c-.281-2.9-1.315-4.975-3.221-7.172-2.643-1.919-5.327-2.18-8.494-1.696-2.715.893-4.476 2.402-5.798 4.98-.727 2.087-.939 4.255-1.252 6.435-.659 3.353-2.659 5.366-5.409 7.24-2.864 1.589-6.019 1.537-9.165.868-2.774-.884-4.661-2.264-6.125-4.825-1.09-2.511-1.701-5.054-2.195-7.737-.552-2.627-1.548-3.959-3.468-5.83-1.73-1.064-3.075-1.298-5.097-1.308l-1.451-.028c-1.637.243-2.416.824-3.645 1.901zm179.162-.353c-2.843 1.49-5.543 2.164-8.707 2.614.486 6.659 3.365 10.889 8.141 15.405 4.718 3.14 9.446 4.347 15.078 3.816 2.339-.574 4.603-1.258 6.795-2.261l.567-1.13c-3.593-7.11-10.157-15.54-16.989-19.787-2.333 0-2.939.248-4.885 1.343zm-10.405 9.963c-.859 1.358-1.651 2.75-2.454 4.14-4.1 6.567-10.144 8.864-17.367 10.558.208 5.392 2.471 10.175 6.442 13.85 5.545 4.49 10.882 5.407 17.909 4.806 5.806-1.498 10.054-4.577 13.237-9.61 1.699-3.032 2.619-5.528 2.619-9.046l-1.535-.375c-6.62-1.733-11.981-4.046-16.02-9.8-.855-1.485-1.564-2.955-2.265-4.523h-.566zm-43.605.566a40.127 40.127 0 00-1.452 2.544c-3.391 5.78-8.375 9.106-14.801 10.88a79.913 79.913 0 01-3.568.708c1.295 6.306 3.327 11.194 8.495 15.264 5.674 3.337 11.092 4.284 17.601 3.065 5.254-1.65 9.702-5.497 12.435-10.266 1.1-2.586 1.679-5.318 2.243-8.063l-1.328-.291c-6.874-1.597-12.541-4.14-16.65-10.215a47.073 47.073 0 01-1.843-3.626h-1.132zm-86.219 13.638c-1.183 1.94-1.467 3.614-1.85 5.83-.703 3.712-1.802 6.358-4.804 8.797-2.644 1.642-4.886 2-7.929 2.262.635 4.124 1.561 8.173 2.549 12.224l.366 1.545.359 1.445.32 1.307c.284 1.121.284 1.121 1.503 1.569 3.785-2.771 4.904-5.377 5.628-9.929.598-3.542 1.685-5.575 4.601-7.773 3.15-1.806 6.033-1.86 9.591-1.52 2.89.806 5.123 2.328 6.792 4.87.91 2.152 1.191 4.43 1.573 6.72.577 3.136 1.547 5.133 4.094 7.066 2.263 1.368 4.773 1.592 7.362 1.13 3.283-1.363 4.854-2.912 6.229-6.218.283-1.3.53-2.608.744-3.921.722-3.629 1.63-5.464 4.353-7.95l1.133-.565c.127-3.055-.29-5.548-1.133-8.445l-.327-1.171c-.264-.942-.534-1.882-.806-2.821h-1.132l-.168 1.117c-.69 4.022-1.584 6.687-4.964 9.235-3.146 1.804-6.038 1.868-9.592 1.52-3.01-.916-5.122-2.39-6.796-5.089-.692-1.611-1.094-3.114-1.331-4.851-.53-3.79-1.331-6.221-4.332-8.716-4.599-2.779-8.481-1.017-12.033 2.332zm52.807-2.897c-3.047 6.108-5.818 13.063-5.698 19.998l.035 2.049c5.476-1.474 10.478-4.16 13.591-9.045 2.318-4.587 2.318-4.587 2.832-9.61l-1.923-.599-2.502-.78-1.266-.394a279.19 279.19 0 01-5.069-1.62zm106.493 1.808c-2.021.788-4.134 1.175-6.258 1.583.727 5.188 2.516 9.759 6.229 13.568 4.389 3.344 4.389 3.344 9.627 4.523-.142-7.395-2.089-14.193-5.097-20.917-1.817 0-2.872.509-4.501 1.243zm-7.957 8.367l-.814 1.908c-2.938 5.764-7.305 9.43-13.344 11.66a42.348 42.348 0 01-5.663 1.13c.195 5.043 2.338 9.75 5.734 13.497 4.304 3.913 9.763 5.931 15.525 5.846 5.823-.508 10.785-3.349 14.752-7.544 2.55-3.377 2.065-7.775 1.931-11.799l-1.431-.479c-7.18-2.553-11.872-6.07-15.487-12.806l-.637-1.413h-.566zm-86.644.566a92.018 92.018 0 00-1.486 2.579c-3.572 5.962-8.353 9.249-15.078 11.2l-1.557.353c-.183 5.033.048 8.51 3.397 12.508 4.187 4.414 9.205 6.405 15.22 6.89 5.465-.181 10.956-2.57 14.819-6.418 3.199-3.853 5.255-7.92 5.072-12.98l-1.327-.291c-7.441-1.728-12.593-4.376-16.759-10.98l-.971-1.64-.764-1.221h-.566zm43.605 0a213.685 213.685 0 00-1.946 3.109c-4.159 6.264-9.242 9.395-16.565 10.882l-1.309.141c.269 5.56 2.244 10.155 6.229 14.133 4.103 3.375 9.18 5.54 14.595 5.284 5.018-.781 9.446-2.334 13.154-5.85l.949-.898c3.331-3.507 4.866-7.91 5.28-12.669l-1.411-.251c-6.308-1.265-11.516-3.668-15.578-8.794a55.527 55.527 0 01-2.832-5.087h-.566zM434.991 61.838c-1.207 2.354-1.404 4.869-1.776 7.458-.668 3.396-2.685 5.288-5.409 7.24l-1.699 1.131 2.265 9.61h-10.193c-1.664 3.32-1.664 3.32-3.278 6.665-5.029 10.581-12.022 19.301-21.639 26.124 1.818 1.21 3.61 1.863 5.663 2.543l2.123.725c5.441 1.648 10.758 2.023 16.423 1.996l2.125-.01c14.239-.188 26.6-5.424 37.657-14.299l1.253-.985c10.658-8.79 16.96-21.928 19.701-35.195l.338-1.573c.333-2.657.287-5.292.263-7.967l-.008-1.67a913.293 913.293 0 00-.027-4.054c-2.554 2.45-3.589 4.072-4.201 7.572-.693 3.942-1.57 6.492-4.895 8.999-3.153 1.808-6.033 1.8-9.592 1.52-3.348-1.177-5.503-3.18-7.185-6.29-.694-1.745-.944-3.445-1.203-5.3-.51-3.106-1.63-5.067-4.071-7.066-4.602-2.768-9.519-1.21-12.635 2.826zm86.821 7.35l-.85 1.943c-2.875 5.63-6.892 8.778-12.742 11.059a71.816 71.816 0 01-6.229 1.696c1.329 6.877 3.87 11.685 9.627 15.828 4.796 2.864 9.151 3.265 14.724 2.827 5.758-1.479 10.111-4.862 13.591-9.61 1.545-2.938 2.343-5.771 2.832-9.045l-1.536-.376c-7.995-2.093-13.244-5.255-17.648-12.344l-.668-1.148-.535-.83h-.566zm43.605 0l-.584 1.077c-3.982 7.019-8.683 10.792-16.476 12.95-.919.23-1.839.455-2.761.67.283 5.076 2.328 9.475 5.778 13.23 4.742 4.209 9.857 5.722 16.113 5.6 5.719-.527 10.528-3.23 14.231-7.58 2.385-3.312 4.085-7.119 4.085-11.25l-1.763-.459c-7.48-2.062-12.758-4.832-16.732-11.796-.714-1.364-.714-1.364-1.891-2.443zm-84.945 7.349l-.584 2.155c-4.95 17.68-14.968 32.147-31.129 41.374-6.723 3.707-13.98 5.95-21.519 7.349v.565l2.035.479c17.304 4.218 32.086 13.517 41.57 28.917 3.663 6.291 6.639 13.159 7.928 20.351 1.341-.504 1.341-.504 1.743-2.321.224-.768.445-1.537.664-2.307 3.179-10.527 8.037-19.141 15.714-27.029l1.067-1.17c8.953-9.537 22.104-14.673 34.61-17.485v-.566l-2.075-.499c-17.226-4.254-31.818-13.421-41.189-28.826-3.924-6.664-6.59-13.425-8.269-20.987h-.566zm3.398 0c1.126 7.437 4.246 13.879 7.928 20.35 1.68.193 1.68.193 2.528-.77 2.746-3.628 4.834-7.609 4.834-12.231l-1.823-.5c-4.534-1.293-8.203-2.517-11.769-5.719l-1.698-1.13zm118.922 1.13l-.796.643c-4.088 3.022-8.527 4.237-13.361 5.576.65 4.638 1.781 8.896 5.475 12.017l1.32.985c3.267-5.804 6.384-11.562 7.929-18.09l-.567-1.13zm-102.5 13.002l-.5 1.098-.703 1.482-.677 1.45c-1.219 2.08-2.734 3.797-4.349 5.581 3.977 4.871 7.904 9.276 13.025 13.002l1.82 1.334c2.837 2.276 2.837 2.276 6.194 3.173 2.644-1.389 4.085-4.806 5.223-7.44.38-1.707.378-3.238.354-4.982l-1.307-.271c-6.918-1.561-12.252-4.22-16.107-10.293l-.982-1.632c-.809-1.407-.809-1.407-1.991-2.502zm43.605 0a78.16 78.16 0 00-1.557 2.615c-3.758 6.282-8.343 9.652-15.432 11.518a47.07 47.07 0 01-2.831.565c.302 6.233 2.625 10.49 7.178 14.749 4.191 3.438 8.97 4.68 14.341 4.401 5.594-.616 10.44-3.158 14.129-7.424 2.627-3.507 4.559-7.265 4.559-11.726l-1.287-.271c-6.355-1.446-11.606-3.506-15.702-8.774a49.303 49.303 0 01-2.832-5.653h-.566zm43.039 0l-.564 1.202c-2.751 5.477-6.573 9.699-12.461 11.8a114.12 114.12 0 01-6.796 1.696c.163 4.217 1.645 7.782 3.965 11.307 1.17.776 1.17.776 2.265 1.13 7.779-4.883 14.192-10.257 19.82-17.524-.809-1.7-1.743-3.244-2.796-4.805l-.865-1.29a94.944 94.944 0 00-2.568-3.516zm-21.519 21.482l-.604 1.221c-1.846 3.575-3.744 6.295-6.758 8.955l-1.133 1.13c3.318-.292 6.008-.99 9.061-2.296l1.166-.483c.934-.387 1.867-.782 2.798-1.178l-1.628-2.72-.916-1.531a88.916 88.916 0 00-1.986-3.098zm-43.605.565c-.356.695-.709 1.39-1.062 2.085l-.598 1.173c-.643 1.342-1.198 2.705-1.738 4.092 4.491 1.867 8.759 3.309 13.591 3.957l-1.168-.848c-3.56-3.025-5.99-6.204-7.893-10.459h-1.132zm-152.901 39.007c-7.29 9.091-14.222 22.519-13.591 34.484 1.319-1.275 2.591-2.54 3.769-3.948 9.104-10.86 23.612-17.819 37.674-19.137 16.461-.957 31.66 2.832 44.634 13.475l1.482 1.197c3.893 3.305 6.857 7.135 9.844 11.24 1.837-1.809 3.6-3.654 5.309-5.583.872-.966 1.745-1.932 2.619-2.897l.951-1.067c3.022-3.218 6.714-5.553 10.375-7.978l1.699-1.131c-.95-6.835-5.894-13.493-10.193-18.655l-1.217-1.475c-10.035-11.646-24.299-18.854-39.557-20.572-21.112-1.547-39.786 6.184-53.798 22.047zm147.238-16.394l-1.881.879c-14.336 7.207-24.982 20.012-30.328 35.018-4.779 15.698-4.287 32.987 3.339 47.758 8.204 15.042 20.882 26.048 37.258 31.28 16.762 4.781 33.662 2.66 48.896-5.783 2.815-1.65 5.342-3.611 7.84-5.7l1.73-1.446c11.19-9.65 18.479-23.465 20.356-38.126 1.076-15.626-1.287-30.655-10.76-43.529l-1.015-1.391c-4.49-5.859-9.689-11.095-15.974-15.003l-1.484-.978c-17.365-10.891-39.571-11.604-57.977-2.979zm-125.152 31.092a67.72 67.72 0 002.548 6.678c4.496 10.785 3.867 22.965-.038 33.839-1.109 2.572-2.507 4.757-4.209 6.969l-1.133 1.696c14.297 3.435 28.228 2.155 41.34-4.522l1.814-.917c6.809-3.71 12.537-8.947 17.44-14.912l.854-1.007c.76-.925.76-.925 1.411-2.385-.656-2.38-1.91-3.865-3.575-5.653l-1.391-1.497c-1.343-1.414-2.679-2.814-4.095-4.156l-1.044-1.014c-11.102-10.38-25.852-14.717-40.803-14.312-3.068.161-6.096.665-9.119 1.193zm-27.316 14.826c-4.844 4.82-4.844 4.82-8.361 10.613a735.62 735.62 0 003.32 4.152c.689.855 1.374 1.712 2.048 2.579 5.777 7.17 15.563 13.892 24.646 15.882 6.814-6.842 9.05-15.976 9.06-25.439-.3-7.538-1.649-15.65-6.795-21.482-8.364 0-18.221 8.189-23.918 13.695zm97.537 2.133c-3.999 3.956-3.999 3.956-5.663 9.045 1.384 2.314 3.279 4.234 5.096 6.219l1.343 1.482c3.434 3.608 7.289 6.866 11.682 9.259l1.699-.565c.57-1.555.57-1.555.92-3.428l.412-1.892c1.592-8.801 2.915-22.273-1.898-30.295-4.103 0-10.865 7.454-13.591 10.175zm-8.495 10.741a56.838 56.838 0 00-2.265 2.756c-8.953 11.101-20.259 17.988-33.978 21.553l-1.622.422c-14.824 3.105-30.956-.141-43.71-8.095-5.783-3.792-10.936-8.411-15.262-13.809-.761 2.484-.223 4.557.354 7.031l.318 1.379c2.266 9.45 6.477 18.205 12.919 25.509l1.139 1.382c10.056 11.838 24.732 18.912 40.095 20.488.978.068 1.958.128 2.937.177l1.18.071c16.087.491 31.488-5.814 43.273-16.551 7.015-6.596 11.999-14.167 15.575-23.092v-1.131a41.68 41.68 0 00-2.619-1.625c-6.102-3.794-11.324-8.325-15.492-14.196a61.699 61.699 0 00-1.709-2.269h-1.133zm26.05 10.741l-.46 1.785c-4.492 16.675-14.624 31.145-29.627 39.968-6.566 3.687-13.601 6.141-20.88 7.995v.565l1.767.356c16.95 3.584 31.539 12.747 41.138 27.375 4.44 6.977 7.088 14.041 9.194 22.017l1.133-.566a91.875 91.875 0 001.203-4.275c2.849-10.263 8.419-19.152 15.786-26.817l1.13-1.217c8.794-9.202 21.089-14.471 33.414-16.873v-.565l-2.159-.479c-17.784-4.094-32.472-13.33-42.397-28.984-3.902-6.387-6.193-13.083-8.11-20.285h-1.132zm-105.117 70.039c-.915 1.153-.915 1.153-.761 2.619.65 1.663 1.37 2.385 2.741 3.518l1.199 1.016c2.547 1.84 5.482 1.716 8.499 1.387 3.325-1.153 5.419-3.43 6.937-6.537.535-1.498.535-1.498.424-3.639h2.832l.071 1.696c.408 2.822 1.955 4.763 3.893 6.784 2.813 2.042 5.702 2.085 9.061 1.696 3.126-1.021 4.888-3.079 6.795-5.653.767-1.532.603-2.832.567-4.523h3.397l-.141 1.484c.229 3.084 1.872 4.924 4.141 6.89 2.833 2.106 5.596 2.248 9.025 1.802 3.152-1.244 5.273-3.178 6.796-6.219.451-2.11.451-2.11.566-3.957h2.832l.141 1.767c.702 3.619 2.523 5.771 5.522 7.843 3.037 1.011 6.165.956 9.202-.035 1.964-1.381 3.78-2.93 4.955-5.052-.044-1.669-.572-2.268-1.685-3.52-13.39-12.105-29.211-18.168-47.304-17.483-15.108.922-28.86 7.794-39.705 18.116zm130.6-3.897c-.682.567-1.366 1.133-2.053 1.696l-1.345 1.13 1.133.566a59.1 59.1 0 003.575-1.343c6.913-2.817 16.095-3.405 23.262-.978 5.195 2.197 9.938 4.46 13.937 8.539 2.081-.931 3.794-2.223 5.627-3.568 8.276-5.817 17.616-7.514 27.521-5.921 2.441.553 4.713 1.333 7.017 2.306l1.174.399 1.133-.565c-12.067-11.703-28.07-16.724-44.6-16.515-13.281.39-26.436 5.455-36.381 14.254zm-11.183 13.804c-6.239 7.868-7.842 16.499-6.938 26.333.472 2.436 1.209 4.543 2.265 6.784l.688 1.532c3.313 6.692 8.764 12.014 14.08 17.152 1.253 1.23 2.41 2.517 3.557 3.847 2.085 2.407 4.317 4.638 6.592 6.865 2.615 2.561 5.115 5.161 7.506 7.932 1.66 1.869 3.449 3.606 5.236 5.353 2.143 2.095 4.238 4.196 6.196 6.466 2.148 2.487 4.454 4.794 6.793 7.101l1.256 1.246c1.007.999 2.017 1.997 3.027 2.994 2.233-1.854 4.336-3.692 6.229-5.9 2.613-2.963 5.392-5.736 8.216-8.499 1.756-1.729 3.443-3.48 5.052-5.347 2.533-2.931 5.307-5.608 8.072-8.318a119.122 119.122 0 006.545-6.995c2.109-2.372 4.415-4.555 6.682-6.774a113.347 113.347 0 006.438-6.877 110.335 110.335 0 012.883-3.157c6.481-7.446 8.304-15.244 7.763-24.847-.77-8.531-5.243-15.99-11.681-21.508-7.9-6.242-16.513-7.794-26.379-6.926-7.801 1.36-14.032 5.501-19.254 11.306l-1.699-1.484c-8.591-7.304-16.824-10.582-28.173-9.939-8.229.756-15.658 5.504-20.952 11.66zm-123.474-4.386c-5.24 5.518-11.448 14.875-11.448 22.805 3.742.06 5.982-.762 8.685-3.368 1.797-2.202 2.641-4.507 2.641-7.373h2.832l.004.974c.158 3.153.791 4.989 3.02 7.256 2.66 2.306 5.12 2.859 8.567 2.745 3.2-.523 5.269-2.26 7.344-4.651 1.083-2.204 1.283-3.886 1.451-6.324h2.832l.106 2.014c.357 2.723 1.329 4.545 3.292 6.465 2.975 2.194 5.988 2.803 9.627 2.262 3.063-1.02 5.088-2.964 6.795-5.653.561-1.524.85-2.914 1.133-4.523h2.265l.319 1.979c.859 3.443 3.146 6.037 6.123 7.914 3.681.7 6.782.653 10.098-1.23 2.122-1.565 3.536-3.382 4.143-5.967.142-1.081.213-2.172.27-3.261h2.832l.141 2.049c.384 2.892 1.42 4.755 3.648 6.702 2.53 1.821 4.729 2.441 7.844 2.259 3.417-.662 5.68-2.494 7.621-5.322 1.106-1.946 1.415-3.428 1.132-5.688h2.832l.188 1.013c.697 3.469 1.362 5.83 4.165 8.173 2.262 1.193 3.872 1.38 6.407 1.555-.32-3.125-1.118-5.732-2.336-8.621l-.533-1.274c-2.244-5.212-5.2-9.66-9.024-13.848l-.849 1.236c-2.381 2.674-5.497 4.788-9.138 5.117-3.781.092-6.767-.036-9.833-2.396a35.458 35.458 0 01-3.398-3.957l-1.239 1.272c-3.406 3.324-5.975 5.1-10.83 5.158-3.768-.068-6.52-.669-9.22-3.379-.682-.797-1.311-1.638-1.929-2.486-1.779.41-1.779.41-2.655 1.872-2.167 2.515-4.303 3.591-7.612 4-3.815.128-7.049-.068-10.12-2.48a35.76 35.76 0 01-3.398-3.957l-1.238 1.272c-3.243 3.164-5.838 5.088-10.477 5.193-3.586-.066-6.337-.955-9.238-3.074-.97-1.096-1.568-2.091-2.265-3.391-.727-.065-.727-.065-1.577.938zm1.011 18.847l-.564.787c-2.8 3.605-5.989 5.264-10.514 5.856l-1.947.141c-.959 2.966-1.37 5.692-1.522 8.798l-.081 1.249c-.132 2.395-.028 4.547.47 6.913 3.765.225 6.457.103 9.417-2.511 2.393-2.481 3.163-4.854 3.608-8.23h2.832l-.177 1.413c.241 2.703 1.302 4.421 3.008 6.501 2.725 2.122 4.898 3.045 8.388 2.981 3.086-.385 5.507-1.839 7.433-4.253 1.398-2.159 1.601-4.104 1.734-6.642h2.832l.141 2.049c.317 2.448 1.078 3.95 2.69 5.865 3.104 2.34 5.726 3.32 9.627 2.827 3.25-1.044 5.54-2.732 7.362-5.654.373-1.698.524-3.351.567-5.087l2.831.565.232 1.117c.932 3.776 2.13 5.829 5.431 7.928 2.339 1.317 4.725 1.462 7.362 1.131 3.46-1.287 5.586-3.26 7.256-6.537.795-1.957.795-1.957.672-4.204h2.832l.106 2.014c.357 2.721 1.327 4.548 3.291 6.465 2.434 1.76 4.904 2.652 7.92 2.48 2.856-.547 5.027-1.803 7.017-3.893 1.661-2.552 2.194-3.957 2.052-7.066h2.832l.108.954c.612 3.804 2.123 6.096 4.989 8.656 2.438 1.537 5.13 1.24 7.928 1.131.125-5.797-.018-11.248-1.133-16.96l-1.223-.168c-5.345-.833-8.512-2.237-11.802-6.616a51.4 51.4 0 00-2.265 2.262v1.13a95.55 95.55 0 01-2.265 1.131l-1.699.919c-3.245 1.358-7.023 1.348-10.386.406-2.899-1.289-4.736-3.334-6.603-5.848l-1.168 1.237c-3.282 3.267-6.11 5.017-10.795 5.194-3.502-.033-6.117-1.07-8.99-3.039-1.486-1.59-1.486-1.59-2.265-2.826-1.568.637-2.391 1.262-3.575 2.508-2.769 2.636-5.114 3.251-8.848 3.392-3.716-.111-6.344-.888-8.995-3.54a47.476 47.476 0 01-2.367-2.926l-1.238 1.272c-3.28 3.202-5.856 5.098-10.548 5.159-3.249-.044-5.298-.835-8.034-2.473l-1.699-.566c-.602-1.095-.602-1.095-1.133-2.261l-1.132-1.131zm112.127 8.48c-2.742 15.739.836 31.952 9.627 45.225 1.426 1.965 2.942 3.817 4.53 5.653l1.014 1.259c8.904 10.704 22.656 17.715 36.362 19.658 1.9.108 3.764.118 5.663 0a809.825 809.825 0 00-2.411-2.809 181.089 181.089 0 01-1.796-2.12c-2.65-3.125-5.555-5.983-8.481-8.847-1.783-1.755-3.498-3.533-5.133-5.427-2.062-2.388-4.276-4.595-6.53-6.802-2.609-2.555-5.102-5.149-7.488-7.914-1.756-1.973-3.65-3.806-5.537-5.653a142.577 142.577 0 01-8.494-9.045l-1.219-1.36c-5.482-6.418-8.395-13.525-9.541-21.818h-.566zm121.188 3.392l-.566 1.979c-3.574 10.505-9.87 17.676-17.699 25.308a105.29 105.29 0 00-6.207 6.626c-2.114 2.376-4.425 4.565-6.697 6.79-1.85 1.825-3.642 3.666-5.34 5.635-2.524 2.925-5.292 5.593-8.05 8.296a120.237 120.237 0 00-6.633 7.081c-1.27 1.448-2.614 2.793-3.987 4.144l-1.484 1.466-1.1 1.078c4.089 2.041 12.894-1.253 17.096-2.615 15.703-5.393 28.237-16.974 35.586-31.719 1.678-3.528 2.914-7.122 3.948-10.891l.547-1.897c1.714-6.981 1.311-14.144 1.152-21.281h-.566zm-233.315 7.914l-1.097 1.52c-2.684 3.249-6.46 4.738-10.583 5.158-.825.047-1.651.087-2.478.106 1.159 8.173 1.159 8.173 3.964 15.829 1.073.594 1.073.594 2.266.565 2.43-1.314 4.201-2.743 5.663-5.088.498-1.678.846-3.361 1.132-5.087h2.832l-.177 1.413c.241 2.703 1.302 4.421 3.008 6.501 2.725 2.122 4.898 3.045 8.388 2.981 3.086-.385 5.507-1.839 7.433-4.253 1.398-2.159 1.601-4.104 1.734-6.642h2.832l.141 1.766c.761 3.924 2.965 6.136 6.088 8.409 1.08.517 1.08.517 2.265.565l1.841.177c3.499-.291 5.749-1.611 8.317-3.957 1.459-2.339 1.668-4.249 1.735-6.96h3.397l.005.973c.157 3.128.774 4.996 2.975 7.257 2.143 1.774 4.197 2.43 6.931 2.722 3.32-.355 5.594-1.338 7.822-3.815 1.869-2.364 2.654-4.083 2.654-7.137h2.832l.106 2.014c.357 2.721 1.327 4.548 3.291 6.465 2.434 1.76 4.904 2.652 7.92 2.48 2.856-.547 5.027-1.803 7.017-3.893 1.661-2.552 2.194-3.957 2.052-7.066h2.832l.128.973c.59 3.458 1.72 5.759 4.402 8.072 1.518.899 2.16 1.13 3.964 1.13 2.917-8.004 2.917-8.004 3.965-16.394l-1.308-.128c-5.401-.687-9.211-2.55-12.85-6.656l-.708.93c-2.714 3.357-4.858 4.915-9.154 5.463-3.516.18-6.439-.487-9.392-2.435a28.17 28.17 0 01-3.398-3.958l-1.132 1.237c-3.014 3.017-6.495 5.033-10.796 5.194-3.503-.037-6.184-.995-9.025-3.039-.943-1.089-1.558-2.127-2.265-3.392h-1.133l-.849 1.52c-1.683 2.61-4.193 3.743-7.079 4.699-4.499.792-8.166-.238-11.892-2.827-1.124-1.078-1.934-2.108-2.832-3.392l-1.238 1.272c-3.316 3.237-5.867 4.958-10.583 5.124-3.39-.097-6.094-.56-8.574-2.993a66.601 66.601 0 01-2.06-2.473l-.763-.93h-.566zm0 19.786l-1.097 1.52c-1.946 2.418-4.607 3.476-7.398 4.699 1.796 3.8 3.809 7.302 6.23 10.741.827-1.497 1.132-2.202 1.132-3.957h2.832l-.213 1.377c.358 3.395 2.362 5.994 4.885 8.233 3.205 1.163 6.095 1.462 9.379.494 3.123-1.833 4.998-3.905 6.335-7.278.144-1.555.144-1.555 0-2.826h2.832l.141 1.766c.7 3.608 2.517 5.795 5.522 7.844 2.304 1.38 4.446 1.271 7.039.943 3.198-.83 5.318-2.769 7.118-5.466.602-1.802.702-3.201.567-5.087h3.397l.005.973c.155 3.101.749 5.014 2.942 7.254 2.503 2.01 4.976 2.687 8.167 2.478 3.091-.494 5.04-1.888 7.15-4.169 1.558-2.278 2.123-3.76 2.123-6.536h2.832l.141 2.049c.322 2.455 1.043 3.961 2.69 5.865 2.857 2.069 5.503 2.984 9.061 2.826 3.686-1.103 5.846-2.952 7.822-6.218.662-1.67.829-2.751.672-4.522h2.832l.566 3.391c2.566-2.955 4.984-6.447 6.23-10.175l-1.14-.643c-2.811-1.626-5.201-3.139-7.355-5.576l-.564.786c-2.54 3.272-5.202 4.972-9.317 5.667-3.813.227-6.811-.922-9.939-3.061-1.126-1.078-1.934-2.107-2.832-3.392l-1.132 1.237c-3.086 3.08-6.505 5.028-10.902 5.123-3.29-.065-5.956-.578-8.344-2.957a65.604 65.604 0 01-2.022-2.473l-.818-.93h-1.133c-.614.698-1.2 1.421-1.769 2.156-2.352 2.74-4.425 3.781-7.986 4.217-3.782.169-6.839-.776-9.924-2.945a79.482 79.482 0 01-3.539-3.428l-.564.786c-2.533 3.262-5.211 5.019-9.337 5.647-3.482.167-6.435-.546-9.353-2.476a27.914 27.914 0 01-2.779-3.171l-.619-.786h-.566zm23.218 19.221l-.849 1.519c-1.662 2.501-4.227 4.162-7.084 5.055-3.031.564-6.059.243-9.056-.356 9.57 10.509 25.078 15.009 38.831 15.97 14.963.294 29.512-4.751 41.017-14.274l.566-1.13-1.287.079c-4.403.155-8.713-.077-12.111-3.206-.759-.901-.759-.901-1.892-2.526l-1.132-1.131-1.168 1.837c-1.809 2.534-3.816 3.681-6.725 4.805-4.274.518-7.824.184-11.375-2.382-2.633-2.194-2.633-2.194-3.384-3.695h-1.133c-.774.828-.774.828-1.557 1.873-2.006 2.418-4.356 3.884-7.504 4.346-4.119.274-7.184-.419-10.618-2.756-1.329-1.254-2.443-2.569-3.539-4.028z" fill="#8B734B" fill-opacity=".1"/><path d="M195.618 141.072c2.954 1.68 5.015 4.44 6.082 7.613.401 4.029.218 7.403-2.276 10.715-2.168 2.336-4.242 3.749-7.398 4.512l-.569 2.819h12.52v2.82h-12.52v53.011c12.557-2.196 22.521-5.746 30.339-16.037 1.954-2.8 3.585-5.65 4.944-8.776l.491-1.124c1.716-4.482 2.2-9.387 2.924-14.103H233c-.368 11.821-4.016 22.489-12.52 31.017-8.233 7.615-17.651 11.843-29.023 11.843l.569 16.355 9.674-9.588 2.277 1.128c-.407 3.335-3.55 5.503-5.836 7.758-.886.877-1.758 1.765-2.631 2.654-.559.558-1.12 1.115-1.681 1.671l-1.543 1.541c-1.398 1.039-1.398 1.039-2.527 1.099-1.673-.91-2.918-2.171-4.233-3.516l-.871-.87a591.818 591.818 0 01-2.73-2.759l-1.861-1.867a1227.347 1227.347 0 01-4.542-4.583l2.277-2.256 10.243 10.151.569-16.918h-5.69c-10.7-1.835-21.065-7.612-27.457-16.425-5.438-7.929-9.008-16.682-8.396-26.435h2.846l.293 2.126c.741 5.136 1.466 10.047 3.69 14.792l.725 1.554c2.031 3.998 4.636 7.127 7.811 10.289l1.148 1.197c6.824 6.621 15.793 9.065 25.03 10.082v-53.011h-12.52l.57-2.82h11.95l-.569-2.819c-.948-.623-.948-.623-2.134-.881-3.377-1.082-5.411-2.715-7.089-5.898-1.393-3.446-1.264-6.623.076-10.06 1.414-2.794 3.151-4.628 5.839-6.248 3.659-1.01 7.328-1.272 10.884.247zm-13.48 5.816c-1.429 2.778-1.851 5.043-.925 8.036 1.107 2.54 2.689 4.247 5.122 5.604 2.73.908 4.955.826 7.576-.352 2.513-1.434 4.02-3.104 4.944-5.851.308-2.632.267-4.556-.96-6.944-1.723-1.984-3.648-4.132-6.392-4.47-4.159-.134-6.593.723-9.365 3.977zM547.618 141.072c2.954 1.68 5.015 4.44 6.082 7.613.401 4.029.218 7.403-2.276 10.715-2.168 2.336-4.242 3.749-7.398 4.512l-.569 2.819h12.52v2.82h-12.52v53.011c12.557-2.196 22.521-5.746 30.339-16.037 1.954-2.8 3.585-5.65 4.944-8.776l.491-1.124c1.716-4.482 2.2-9.387 2.924-14.103H585c-.368 11.821-4.016 22.489-12.52 31.017-8.233 7.615-17.651 11.843-29.023 11.843l.569 16.355 9.674-9.588 2.277 1.128c-.407 3.335-3.55 5.503-5.836 7.758-.886.877-1.758 1.765-2.631 2.654-.559.558-1.12 1.115-1.681 1.671l-1.543 1.541c-1.398 1.039-1.398 1.039-2.527 1.099-1.673-.91-2.918-2.171-4.233-3.516l-.871-.87a591.818 591.818 0 01-2.73-2.759l-1.861-1.867a1227.347 1227.347 0 01-4.542-4.583l2.277-2.256 10.243 10.151.569-16.918h-5.69c-10.7-1.835-21.065-7.612-27.457-16.425-5.438-7.929-9.008-16.682-8.396-26.435h2.846l.293 2.126c.741 5.136 1.466 10.047 3.69 14.792l.725 1.554c2.031 3.998 4.636 7.127 7.811 10.289l1.148 1.197c6.824 6.621 15.793 9.065 25.03 10.082v-53.011h-12.52l.57-2.82h11.95l-.569-2.819c-.948-.623-.948-.623-2.134-.881-3.377-1.082-5.411-2.715-7.089-5.898-1.393-3.446-1.264-6.623.076-10.06 1.414-2.794 3.151-4.628 5.839-6.248 3.659-1.01 7.328-1.272 10.884.247zm-13.48 5.816c-1.429 2.778-1.851 5.043-.925 8.036 1.107 2.54 2.689 4.247 5.122 5.604 2.73.908 4.955.826 7.576-.352 2.513-1.434 4.02-3.104 4.944-5.851.308-2.632.267-4.556-.96-6.944-1.723-1.984-3.648-4.132-6.392-4.47-4.159-.134-6.593.723-9.365 3.977zM26.053 45h2.82l.167 1.005c.822 4.354 2.333 7.29 6.035 9.852 3.3 1.56 6.819 1.806 10.329.75 3.188-1.471 5.155-3.56 6.729-6.75.476-1.608.758-3.195.987-4.857h2.82c.265 3.161-.34 5.117-1.763 7.935-.637 1.342-.637 1.342-.493 3.494.798 1 .798 1 1.691 1.714l-1.128 2.286c-1.057-.179-1.057-.179-2.255-.572l-1.128-1.714-2.82.571 1.128 4c-.93.377-1.86.755-2.82 1.143l-1.69-3.428h-2.256V65h-2.82v-4.571h-2.255l-1.692 3.428-2.82-1.143 1.128-4-2.82-.571-1.69 2.286c-1.093-.215-1.093-.215-2.256-.572l-.564-1.143 2.255-2.857a70.964 70.964 0 00-2.044-4.786c-.817-2.183-.915-3.759-.775-6.071zM378.053 45h2.819l.168 1.005c.822 4.354 2.333 7.29 6.035 9.852 3.299 1.56 6.819 1.806 10.329.75 3.188-1.471 5.155-3.56 6.729-6.75.476-1.608.758-3.195.987-4.857h2.819c.266 3.161-.339 5.117-1.762 7.935-.637 1.342-.637 1.342-.493 3.494.798 1 .798 1 1.691 1.714l-1.128 2.286c-1.057-.179-1.057-.179-2.255-.572l-1.128-1.714-2.819.571 1.127 4-2.819 1.143-1.692-3.428h-2.255V65h-2.82v-4.571h-2.255l-1.692 3.428-2.819-1.143 1.127-4-2.819-.571-1.692 2.286c-1.092-.215-1.092-.215-2.255-.572l-.564-1.143 2.255-2.857a71.014 71.014 0 00-2.044-4.786c-.817-2.183-.915-3.759-.775-6.071zM29.44 182.147c2.602 1.251 4.28 2.49 5.373 5.069.337 2.424.285 4.418-.71 6.689-1.638 1.813-2.904 2.736-5.46 3.066-3.408.145-5.531-.202-8.158-2.433-1.62-2.5-1.735-5.038-1.194-7.885 2.35-3.887 5.428-5.113 10.149-4.506zm-7.164 5.633c-.373 2.229-.364 3.384.896 5.315 1.81 1.067 3.02 1.241 5.13 1.133 1.307-.205 1.307-.205 2.63-1.45 1.062-1.919 1.32-2.867.896-4.998-1.466-1.872-2.344-2.69-4.776-3.169-2.452.482-3.316 1.264-4.776 3.169zM381.44 182.147c2.602 1.251 4.279 2.49 5.373 5.069.337 2.424.285 4.418-.709 6.689-1.639 1.813-2.905 2.736-5.462 3.066-3.407.145-5.53-.202-8.157-2.433-1.62-2.5-1.735-5.038-1.194-7.885 2.35-3.887 5.428-5.113 10.149-4.506zm-7.164 5.633c-.373 2.229-.364 3.384.896 5.315 1.81 1.067 3.021 1.241 5.13 1.133 1.307-.205 1.307-.205 2.63-1.45 1.062-1.919 1.32-2.867.896-4.998-1.466-1.872-2.344-2.69-4.776-3.169-2.452.482-3.316 1.264-4.776 3.169z" fill="#8B734B" fill-opacity=".1"/></svg>