<?xml version="1.0" encoding="utf-8"?>
<!-- Generator: Adobe Illustrator 19.2.1, SVG Export Plug-In . SVG Version: 6.00 Build 0)  -->
<svg version="1.1" id="Слой_1" xmlns="http://www.w3.org/2000/svg" xmlns:xlink="http://www.w3.org/1999/xlink" x="0px" y="0px"
	 width="115px" height="48px" viewBox="0 0 115 48" enable-background="new 0 0 115 48" xml:space="preserve">
<path fill-rule="evenodd" clip-rule="evenodd" fill="#4E4E4E" d="M26.347,29.008c0.431,0.972,0.764,2.125,1.337,3.016
	c0.255,0.397,0.149,0.339,0.702,0.339c0.56,0,1.12,0,1.68,0c-2.099-4.507-4.198-9.014-6.297-13.521
	c-2.099,4.507-4.198,9.014-6.298,13.521c0.649,0,1.89,0.25,2.299-0.186c0.332-0.354,0.517-1.14,0.717-1.582
	c0.16-0.354,0.369-1.241,0.671-1.481c0.416-0.33,1.663-0.107,2.225-0.107C24.371,29.008,25.359,29.008,26.347,29.008z
	 M23.322,24.281c0.195-0.467,0.347-0.977,0.463-1.471c0.429,1.543,1.17,2.987,1.818,4.446c-1.207,0-2.413,0-3.62,0
	C22.43,26.264,22.876,25.273,23.322,24.281z M16.446,19.653c2.314-1.405,4.628-2.81,6.942-4.215c-0.233-0.379-0.467-0.758-0.7-1.136
	c-0.301-0.489-0.189-0.511-0.668-0.294c-0.225,0.102-0.837,0.635-1.048,0.563c-0.164-0.056-0.426-0.548-0.528-0.68
	c-1.173-1.512-2.346-3.023-3.519-4.535c0.385-0.218,0.77-0.436,1.155-0.655c0.204-0.115,1.081-0.797,1.309-0.742
	c0.299,0.073,0.883,1.454,1.04,1.717c1.052,1.772,2.105,3.544,3.157,5.316c0.383-0.241,0.765-0.482,1.148-0.723
	c0.49-0.309,0.517-0.197,0.299-0.678c-0.106-0.234-0.629-0.825-0.563-1.048c0.047-0.158,0.551-0.434,0.676-0.532
	c1.502-1.183,3.004-2.365,4.506-3.548c0.223,0.383,0.447,0.765,0.67,1.148c0.118,0.202,0.812,1.072,0.759,1.3
	c-0.069,0.299-1.451,0.898-1.713,1.056c-1.768,1.069-3.536,2.138-5.303,3.207c0.23,0.371,0.459,0.742,0.689,1.113
	c0.298,0.482,0.188,0.499,0.663,0.289c0.235-0.104,0.825-0.618,1.048-0.551c0.158,0.048,0.432,0.553,0.53,0.678
	c1.178,1.507,2.356,3.014,3.533,4.52c-0.385,0.221-0.77,0.442-1.155,0.662c-0.203,0.116-1.081,0.806-1.309,0.751
	c-0.298-0.072-0.883-1.45-1.04-1.713c-1.052-1.768-2.105-3.536-3.157-5.303c-0.394,0.249-0.801,0.485-1.186,0.749
	c-0.463,0.318-0.38,0.25-0.086,0.765c0.108,0.188,0.513,0.706,0.456,0.897c-0.052,0.173-0.581,0.458-0.719,0.566
	c-1.488,1.173-2.977,2.346-4.465,3.518C17.394,21.295,16.92,20.474,16.446,19.653z M14.859,33.95
	c-0.689,0.331-1.377,0.661-2.066,0.992c0.242,0.232,0.298,0.246,0.527,0.288c0.415,0.076,0.163-0.279,0.581,0.109
	c0.342,0.318,0.104,0.188,0.165,0.488c0.043,0.213-0.111,0.105-0.056,0.28c0.032,0.102,0.247,0.236,0.321,0.307
	c0.224-0.484,0.449-0.967,0.673-1.451C15.278,34.371,15.347,34.4,14.859,33.95z M14.694,34.579
	c-0.116,0.226-0.231,0.452-0.347,0.678c-0.132-0.127-0.264-0.253-0.397-0.38c0.287-0.147,0.575-0.284,0.843-0.463
	C14.76,34.468,14.727,34.523,14.694,34.579z M27.835,36.843c-0.242,0.066-0.485,0.132-0.727,0.198
	c0.117,0.401,0.233,0.803,0.35,1.204c0.126,0.435,0.086,0.74,0.438,0.794C29.558,39.293,29.777,36.282,27.835,36.843z
	 M28.711,38.215c-0.059,0.133-0.472,0.457-0.645,0.38c-0.055-0.025-0.057-0.26-0.092-0.315c-0.163-0.256-0.202-0.695-0.288-0.99
	C28.293,37.077,29.09,37.456,28.711,38.215C28.645,38.364,28.793,38.05,28.711,38.215z M18.38,36.364
	c-0.271,0.397-0.541,0.793-0.812,1.19c-0.344,0.505-0.278,0.654-0.808,0.315c0.324-0.471,0.722-0.969,0.992-1.438
	c-0.301,0.301-1.37,1.371-1.699,0.965c-0.226-0.278,0.261-1.445,0.394-1.824c-0.276,0.507-0.635,0.977-0.959,1.455
	c-0.117-0.049-0.27-0.162-0.364-0.248c0.221-0.324,0.906-1.718,1.229-1.754c0.371-0.041,0.503,0.415,0.51,0.617
	c0.012,0.367-0.231,1.015-0.399,1.351c0.288-0.273,0.714-0.649,1.075-0.817C17.957,35.981,17.928,36.067,18.38,36.364z
	 M29.934,36.083c0.094,0.749,0.187,1.499,0.281,2.248c0.302-0.151,0.323-0.194,0.436-0.394c0.209-0.371-0.231-0.24,0.292-0.498
	c0.4-0.198,0.227-0.029,0.521,0.008c0.196,0.025,0.078,0.131,0.248,0.137c0.109,0.004,0.31-0.15,0.404-0.195
	c-0.391-0.364-0.782-0.727-1.172-1.091C30.476,35.862,30.517,35.8,29.934,36.083z M31.008,36.992
	c-0.165,0.083-0.331,0.165-0.496,0.248c-0.048-0.316-0.088-0.632-0.165-0.942C30.535,36.548,30.791,36.767,31.008,36.992z
	 M22.909,37.322c0.419,0.011,0.837,0.022,1.256,0.033c0.018,0.088,0.01,0.311-0.017,0.397c-0.253-0.011-0.507-0.022-0.76-0.033
	c-0.027,0.137-0.035,0.341-0.017,0.479c0.237,0.006,0.474,0.011,0.711,0.017c0.018,0.088,0.01,0.312-0.017,0.397
	c-0.237-0.011-0.474-0.022-0.711-0.033c-0.022,0.662,0.163,0.503,0.793,0.529c0.155,0.601-1.128,0.478-1.304,0.273
	C22.639,39.14,22.898,37.676,22.909,37.322z M26.314,38.579c-0.034-0.069-0.201-0.182-0.281-0.182c0.485-0.2,0.571-0.859,0.07-1.103
	c-0.132-0.064-1.177-0.082-1.277,0.061c-0.204,0.292,0.216,1.728,0.264,2.116c0.523-0.072,0.395,0.032,0.44-0.385
	c0.029-0.265-0.202-0.466,0.113-0.499c0.228-0.024,0.406,0.454,0.546,0.555c0.279,0.201,0.286,0.163,0.702,0.114
	C26.702,39.034,26.521,38.786,26.314,38.579C26.298,38.545,26.347,38.612,26.314,38.579z M25.868,38.099
	c-0.072,0.097-0.319,0.142-0.446,0.149c-0.019-0.169-0.121-0.519-0.012-0.603C25.647,37.46,26.164,37.803,25.868,38.099
	C25.818,38.165,25.934,38.033,25.868,38.099z M33.289,33.785c0.485,0.529,0.97,1.058,1.455,1.587
	c-0.415,0.359-0.355,0.324-0.73-0.087c-0.269-0.294-0.543-0.602-0.807-0.888c0.252,0.353,0.91,1.532,0.612,1.802
	c-0.318,0.287-1.412-0.509-1.769-0.777c0.378,0.434,0.794,0.861,1.19,1.289c-0.351,0.496-0.511,0.082-0.801-0.239
	c-0.322-0.356-0.645-0.712-0.967-1.067c0.361-0.316,0.362-0.427,0.743-0.345c0.366,0.079,0.928,0.472,1.224,0.709
	c-0.144-0.352-0.496-0.861-0.547-1.256C32.836,34.09,32.905,34.132,33.289,33.785z M20.661,36.992
	c0.467,0.087,1.939,0.022,1.62,0.711c-0.578-0.109-0.544-0.216-0.697,0.301c-0.122,0.415-0.176,0.861-0.262,1.286
	c-0.542-0.112-0.484-0.074-0.378-0.596c0.082-0.402,0.164-0.804,0.246-1.206c-0.204-0.039-0.408-0.077-0.612-0.116
	C20.603,37.259,20.61,37.095,20.661,36.992z M20.033,36.793c0.215,0.161,0.198,0.323,0.033,0.562
	c-0.147-0.147-0.544-0.532-0.793-0.331c-0.283,0.229,0.368,0.647,0.438,0.81c0.237,0.551-0.135,0.917-0.686,0.876
	c-0.694-0.051-0.876-0.332-0.661-0.859c0.278,0.557,1.145,0.693,0.669-0.083c-0.171-0.278-0.463-0.438-0.306-0.826
	C18.959,36.368,19.633,36.633,20.033,36.793C20.099,36.843,19.95,36.76,20.033,36.793z M46.529,23.537
	c-0.997-0.784-1.173-2.082-1.342-3.252c-0.139-0.965-0.333-1.921-0.603-2.858c-0.689-2.392-1.863-4.608-3.312-6.624
	c-3.028-4.215-7.43-6.159-12.284-7.558C27.164,2.719,24.081,2.291,23.769,0c-0.333,2.094-2.836,2.562-4.547,3.053
	c-2.224,0.638-4.442,1.311-6.53,2.324c-4.824,2.341-8.265,6.929-9.739,12.051C2.363,19.475,2.636,23.445,0,24
	c2.478,0.522,2.274,3.844,2.739,5.769c0.58,2.402,1.64,4.65,3.015,6.699c1.571,2.342,3.424,4.244,5.901,5.619
	c2.129,1.182,4.448,1.965,6.777,2.647c1.879,0.551,4.964,0.925,5.337,3.266c0.287-2.105,2.859-2.555,4.547-3.037
	c2.222-0.635,4.44-1.325,6.523-2.338c4.825-2.347,8.272-6.92,9.746-12.048c0.59-2.053,0.311-6.02,2.953-6.577
	C47.172,23.923,46.822,23.771,46.529,23.537C46.298,23.355,46.859,23.802,46.529,23.537z M43.57,26.992
	c-0.531,4.275-2.466,8.574-5.635,11.558c-2.93,2.76-6.974,3.889-10.747,4.967c-0.776,0.222-1.555,0.441-2.289,0.784
	c-0.272,0.127-0.581,0.395-0.861,0.48c-0.09,0.065-0.18,0.13-0.27,0.194c-0.179-0.135-0.365-0.258-0.559-0.371
	c-0.554-0.326-1.158-0.561-1.768-0.761c-1.536-0.505-3.112-0.88-4.647-1.394c-2.058-0.69-4.096-1.548-5.871-2.813
	c-1.999-1.425-3.491-3.465-4.691-5.584c-0.982-1.735-1.681-3.605-2.052-5.565c-0.172-0.91-0.22-1.848-0.477-2.739
	c-0.155-0.538-0.53-1.015-0.679-1.531c-0.11-0.381-0.082-0.278,0.138-0.662c0.138-0.24,0.255-0.491,0.355-0.749
	c0.716-1.836,0.675-3.926,1.327-5.809c0.781-2.255,2.044-4.318,3.523-6.18c2.736-3.444,7.008-4.908,11.093-6.08
	c0.554-0.159,1.109-0.312,1.66-0.479c0.511-0.155,1.017-0.324,1.502-0.55c0.289-0.135,0.576-0.366,0.87-0.476
	c0.477-0.18,0.349-0.108,0.825,0.174c1.47,0.869,3.296,1.183,4.919,1.673c2.304,0.695,4.604,1.526,6.648,2.818
	c2.341,1.48,4.052,3.669,5.408,6.057c1.078,1.899,1.792,3.947,2.14,6.101c0.188,1.166,0.301,2.323,0.875,3.381
	c0.068,0.126,0.351,0.443,0.351,0.565c0,0.2-0.441,0.726-0.534,0.934C43.835,25.584,43.666,26.287,43.57,26.992
	C43.207,29.917,43.736,25.769,43.57,26.992z M38.314,10.992c-2.663-3.288-7.036-4.514-10.928-5.647
	c-0.573-0.167-1.152-0.33-1.719-0.517c-0.507-0.167-1-0.369-1.472-0.619c-0.595-0.315-0.508-0.157-1.166,0.157
	c-1.355,0.647-2.869,0.964-4.303,1.388c-2.053,0.607-4.1,1.313-5.972,2.368c-2.136,1.204-3.692,2.881-5.042,4.911
	c-1.168,1.756-2.075,3.672-2.577,5.725c-0.19,0.775-0.308,1.56-0.424,2.349c-0.083,0.559-0.182,1.11-0.361,1.647
	c-0.115,0.346-0.561,0.945-0.548,1.274c0.013,0.324,0.437,0.884,0.548,1.216c0.179,0.537,0.277,1.089,0.361,1.647
	c0.13,0.866,0.261,1.726,0.48,2.576c0.537,2.082,1.496,4.018,2.712,5.786c1.376,2.001,2.961,3.601,5.105,4.765
	c1.841,0.999,3.837,1.678,5.839,2.274c1.505,0.448,3.095,0.772,4.495,1.504c0.499,0.261,0.354,0.26,0.853,0
	c0.474-0.248,0.971-0.453,1.479-0.621c0.577-0.191,1.164-0.359,1.747-0.53c3.988-1.166,8.3-2.421,11.016-5.79
	c1.643-2.038,3.014-4.328,3.753-6.852c0.278-0.95,0.454-1.919,0.592-2.898c0.089-0.631,0.19-1.246,0.395-1.852
	c0.117-0.347,0.556-0.948,0.541-1.281c-0.018-0.418-0.512-1.091-0.638-1.526c-0.167-0.576-0.241-1.161-0.326-1.751
	c-0.138-0.961-0.327-1.912-0.61-2.841C41.376,15.319,39.97,13.04,38.314,10.992C35.636,7.686,41.669,15.14,38.314,10.992z
	 M43.256,23.884c0,0.077,0,0.154,0,0.231c-0.135-0.246-0.376,0.574-0.44,0.746c-0.116,0.309-0.21,0.627-0.287,0.948
	c-0.147,0.613-0.2,1.241-0.3,1.863c-0.172,1.064-0.427,2.113-0.794,3.127c-0.952,2.635-2.618,5.386-4.764,7.21
	c-2.029,1.726-4.591,2.728-7.104,3.519c-0.934,0.294-1.878,0.555-2.82,0.824c-0.362,0.103-0.724,0.203-1.081,0.32
	c-0.329,0.108-0.655,0.227-0.974,0.363c-0.186,0.08-1.05,0.373-0.808,0.517c-0.077,0-0.154,0-0.231,0
	c0.242-0.144-0.622-0.437-0.808-0.517c-0.278-0.119-0.562-0.225-0.849-0.322c-0.367-0.125-0.739-0.228-1.111-0.334
	c-0.93-0.266-1.863-0.523-2.786-0.811c-2.556-0.796-5.168-1.804-7.231-3.559c-2.117-1.8-3.761-4.5-4.72-7.091
	c-0.377-1.018-0.642-2.071-0.821-3.141c-0.1-0.6-0.157-1.206-0.289-1.801c-0.084-0.379-0.188-0.752-0.325-1.116
	c-0.066-0.175-0.308-0.992-0.448-0.746c0-0.077,0-0.154,0-0.231c0.139,0.245,0.382-0.572,0.448-0.746
	C4.828,22.829,4.922,22.511,5,22.19c0.149-0.613,0.208-1.241,0.309-1.863c0.172-1.064,0.427-2.113,0.794-3.127
	c0.952-2.634,2.618-5.387,4.764-7.209c2.03-1.724,4.593-2.72,7.104-3.513c0.932-0.295,1.874-0.559,2.813-0.831
	c0.36-0.104,0.722-0.204,1.079-0.32c0.332-0.108,0.661-0.226,0.982-0.363c0.186-0.079,1.051-0.373,0.809-0.517
	c0.077,0,0.154,0,0.231,0c-0.242,0.144,0.617,0.437,0.803,0.517c0.278,0.12,0.561,0.225,0.847,0.322
	c0.369,0.125,0.744,0.227,1.118,0.334c0.931,0.266,1.862,0.528,2.786,0.818c2.511,0.786,5.073,1.767,7.123,3.462
	c2.144,1.773,3.803,4.477,4.784,7.061c0.861,2.271,0.726,4.892,1.854,7.039C43.219,23.961,43.238,23.923,43.256,23.884z"/>
</svg>
