<?xml version="1.0" encoding="utf-8"?>
<!-- Generator: Adobe Illustrator 16.0.0, SVG Export Plug-In . SVG Version: 6.00 Build 0)  -->
<!DOCTYPE svg PUBLIC "-//W3C//DTD SVG 1.1//EN" "http://www.w3.org/Graphics/SVG/1.1/DTD/svg11.dtd">
<svg version="1.1" id="Слой_1" xmlns="http://www.w3.org/2000/svg" xmlns:xlink="http://www.w3.org/1999/xlink" x="0px" y="0px"
	 width="1170px" height="55px" viewBox="0 0 1170 55" enable-background="new 0 0 1170 55" xml:space="preserve">
<path fill="#989898" d="M127.608,32.646c0.099-1.75,0.484-3.545,1.674-5.084c0.092-0.119,0.162-0.27,0.279-0.353
	c0.571-0.401,1.129-0.918,1.911-0.585c0.696,0.295,0.942,0.913,0.836,1.997c-0.174,1.773-0.358,3.554-1.231,5.161
	c-0.19,0.352-0.428,0.682-0.679,0.991c-0.423,0.531-0.916,0.976-1.669,0.752c-0.75-0.221-0.895-0.906-1.046-1.533
	C127.589,33.607,127.631,33.189,127.608,32.646z M165.673,17.043c-1.276,0-2.295,0.993-2.295,2.228c0,1.263,1.019,2.255,2.295,2.255
	c1.291,0,2.282-0.992,2.282-2.255C167.956,18.037,166.964,17.043,165.673,17.043z M165.673,17.491c0.992,0,1.712,0.802,1.712,1.793
	c0,0.978-0.72,1.766-1.697,1.766c-1.005,0-1.739-0.789-1.739-1.78C163.949,18.293,164.682,17.491,165.673,17.491z M165.321,19.543
	h0.244c0.286,0,0.421,0.108,0.461,0.354c0.069,0.258,0.109,0.462,0.176,0.543h0.558c-0.055-0.083-0.096-0.219-0.164-0.557
	c-0.067-0.299-0.19-0.462-0.408-0.544v-0.027c0.271-0.083,0.462-0.271,0.462-0.517c0-0.217-0.095-0.394-0.218-0.488
	c-0.163-0.095-0.353-0.163-0.774-0.163c-0.367,0-0.652,0.028-0.856,0.068v2.228h0.516v-0.897H165.321z M165.334,18.538
	c0.054-0.015,0.149-0.028,0.286-0.028c0.326,0,0.476,0.137,0.476,0.34c0,0.231-0.232,0.325-0.517,0.325h-0.245V18.538
	L165.334,18.538z M173.38,10.957c-1.419,11.065-2.83,22.064-4.245,33.111c-49.179,0-98.315,0-147.516,0
	c0.255-1.828,3.677-28.322,4.114-32.127c0.074-0.647,0.175-1.009,1.011-1.008C74.632,10.959,172.368,10.957,173.38,10.957z
	 M56.937,17.948c-0.376-0.031-0.695-0.077-1.011-0.078c-1.767-0.002-3.539,0.087-5.299-0.021c-1.019-0.064-1.482,0.363-1.867,1.191
	c-1.712,3.678-3.453,7.342-5.19,11.01c-0.057,0.12-0.168,0.222-0.359,0.46c-0.065-0.354-0.121-0.56-0.141-0.769
	c-0.258-2.738-0.499-5.474-0.773-8.208c-0.103-1.027-0.273-2.047-0.425-3.069c-0.051-0.351-0.203-0.589-0.633-0.586
	c-2.221,0.014-4.442,0.011-6.664,0.003c-0.465-0.001-0.588,0.25-0.634,0.658c-0.075,0.673-0.177,1.345-0.31,2.009
	c-0.452,2.259-0.943,4.512-1.383,6.774c-0.571,2.941-1.109,5.893-1.66,8.84c-0.131,0.707-0.257,1.412-0.397,2.188
	c1.673,0,3.253,0,4.955,0c0.766-4.594,1.536-9.199,2.304-13.806c0.03,0.011,0.059,0.022,0.088,0.032
	c0.63,4.572,1.26,9.145,1.904,13.82c1.069,0,2.096-0.024,3.121,0.01c0.485,0.019,0.728-0.188,0.928-0.596
	c1.831-3.711,3.676-7.418,5.514-11.127c0.32-0.646,0.627-1.297,0.94-1.945c0.054,0.021,0.107,0.041,0.162,0.061
	c-0.907,4.492-1.812,8.982-2.742,13.59c1.925,0,3.709,0.01,5.493-0.019c0.135-0.003,0.352-0.257,0.384-0.42
	c0.436-2.22,0.846-4.44,1.259-6.663c0.533-2.869,1.067-5.74,1.594-8.612C56.38,21.129,56.647,19.581,56.937,17.948z M73.143,23.66
	c-1.31,0.037-2.625,0.035-3.936-0.009c-0.56-0.019-0.782,0.245-0.87,0.714c-0.338,1.824-0.664,3.652-1,5.479
	c-0.287,1.566-0.646,3.106-1.703,4.374c-0.476,0.572-1.104,0.876-1.804,0.671c-0.675-0.201-0.824-0.834-0.74-1.484
	c0.106-0.842,0.22-1.688,0.379-2.521c0.415-2.148,0.861-4.293,1.284-6.44c0.104-0.524-0.078-0.806-0.678-0.792
	c-1.286,0.028-2.573,0.044-3.86,0.004c-0.635-0.021-0.905,0.223-1.013,0.827c-0.514,2.85-1.083,5.69-1.563,8.547
	c-0.166,0.988-0.187,2.011-0.172,3.019c0.024,1.642,0.83,2.497,2.441,2.694c2.146,0.261,3.936-0.508,5.497-1.93
	c0.182-0.168,0.377-0.319,0.593-0.5c0.065,0.153,0.106,0.203,0.1,0.242c-0.1,0.565-0.205,1.127-0.308,1.691
	c0.019,0.018,0.037,0.051,0.055,0.051c1.71,0.032,3.42,0.071,5.129,0.071c0.132,0,0.351-0.274,0.383-0.447
	c0.255-1.381,0.458-2.771,0.707-4.153c0.339-1.882,0.716-3.754,1.056-5.634c0.229-1.263,0.43-2.529,0.628-3.797
	C73.817,23.895,73.694,23.644,73.143,23.66z M82.969,16.763c-1.462,0-2.925,0.011-4.388,0.061c-0.183,0.006-0.461,0.234-0.514,0.412
	c-0.221,0.747-0.401,1.506-0.542,2.272c-0.377,2.075-0.707,4.157-1.091,6.229c-0.776,4.172-1.577,8.34-2.381,12.593
	c1.821,0,3.593,0,5.423,0c0.248-1.313,0.481-2.623,0.742-3.925c0.326-1.62,0.692-3.234,1.005-4.855
	c0.261-1.354,0.446-2.727,0.704-4.081c0.508-2.667,1.041-5.332,1.568-7.998C83.586,17.026,83.419,16.762,82.969,16.763z
	 M95.109,24.397c0.088-0.581-0.127-0.73-0.633-0.726c-0.605,0.005-1.219-0.073-1.815,0.002c-0.768,0.096-0.871-0.268-0.757-0.873
	c0.037-0.198,0.094-0.391,0.133-0.589c0.152-0.763,0.318-1.524,0.444-2.291c0.058-0.36-0.013-0.664-0.519-0.583
	c-1.37,0.214-2.743,0.411-4.113,0.617c-0.572,0.085-0.957,0.349-1.043,0.981c-0.091,0.671-0.291,1.332-0.347,2.005
	c-0.05,0.593-0.3,0.762-0.866,0.749c-1.167-0.028-1.168-0.003-1.384,1.145c-0.033,0.173-0.057,0.348-0.086,0.522
	c-0.197,1.146-0.197,1.152,0.958,1.179c0.441,0.011,0.654,0.124,0.539,0.636c-0.299,1.325-0.596,2.654-0.818,3.991
	c-0.271,1.634-0.567,3.273-0.663,4.924c-0.075,1.313,1.06,2.406,2.37,2.605c2.013,0.311,3.963,0.021,5.873-0.621
	c0.19-0.061,0.444-0.32,0.447-0.494c0.012-0.771-0.056-1.541-0.101-2.419c-0.388,0.106-0.667,0.188-0.948,0.262
	c-0.893,0.229-1.395,0.048-1.648-0.831c-0.181-0.627-0.216-1.354-0.108-1.997c0.3-1.813,0.719-3.604,1.063-5.411
	c0.086-0.458,0.289-0.663,0.758-0.622c0.25,0.021,0.504,0.006,0.756,0.008C94.793,26.586,94.774,26.583,95.109,24.397z
	 M102.33,23.664c-1.313,0.021-2.627,0.035-3.937-0.023c-0.621-0.027-0.87,0.255-0.974,0.775c-0.221,1.109-0.427,2.222-0.639,3.331
	c-0.638,3.334-1.267,6.671-1.925,10.001c-0.095,0.479,0.017,0.663,0.495,0.656c0.732-0.01,1.464-0.002,2.197-0.002
	c0,0.002,0,0.004,0,0.004c0.731,0,1.467,0.045,2.193-0.023c0.239-0.023,0.598-0.309,0.647-0.531c0.283-1.276,0.493-2.569,0.721-3.86
	c0.332-1.88,0.644-3.765,0.991-5.642c0.246-1.335,0.537-2.66,0.808-3.988C103.005,23.886,102.868,23.654,102.33,23.664z
	 M101.17,16.732c-1.578-0.217-3.088,1.356-3.098,3.155c-0.01,1.648,1.154,2.974,2.625,2.893c1.843-0.104,3.166-1.279,3.27-3.44
	C104.025,18.125,102.838,16.554,101.17,16.732z M121.211,21.606c0.259-0.619,0.569-1.236,0.964-1.776
	c0.457-0.625,0.153-0.878-0.362-1.149c-1.546-0.812-3.181-1.235-4.852-1.126c-2.116-0.1-4.061,0.324-5.84,1.251
	c-2.795,1.455-4.784,3.667-5.616,6.759c-0.938,3.484-0.673,6.826,1.639,9.76c1.619,2.051,3.803,3.1,6.407,3.409
	c1.843,0.224,3.609-0.065,5.387-0.43c0.558-0.115,0.911-0.359,0.695-1.045c-0.181-0.572-0.258-1.178-0.387-1.767
	c-0.3-1.375-0.301-1.375-1.704-1.161c-0.25,0.037-0.499,0.084-0.75,0.113c-1.456,0.175-2.727-0.235-3.839-1.189
	c-2.417-2.072-2.601-5.806-1.114-8.459c0.908-1.623,2.258-2.603,4.174-2.85c1.288-0.167,2.514-0.059,3.737,0.278
	C120.424,22.412,120.906,22.332,121.211,21.606z M137.878,23.662c-1.03,0.06-2.067,0.022-3.101,0.013
	c-1.305-0.014-1.304-0.02-1.726,1.172c-0.578-0.416-1.07-0.918-1.667-1.172c-1.884-0.801-3.678-0.344-5.284,0.743
	c-1.891,1.281-3.064,3.08-3.717,5.307c-0.661,2.26-0.753,4.451,0.081,6.651c0.462,1.217,1.295,2.089,2.631,2.345
	c1.28,0.242,2.504-0.02,3.677-0.521c0.657-0.282,1.282-0.641,2.028-1.02c-0.029,0.44-0.052,0.776-0.082,1.206
	c1.719,0,3.425,0.013,5.13-0.021c0.128,0,0.328-0.291,0.363-0.471c0.254-1.334,0.463-2.679,0.709-4.015
	c0.349-1.897,0.724-3.789,1.078-5.688c0.226-1.208,0.435-2.421,0.653-3.632C138.763,23.938,138.616,23.619,137.878,23.662z
	 M161.691,23.386c-2.25-0.247-4.132,0.633-5.857,1.972c-0.182,0.141-0.376,0.268-0.583,0.412c-0.1-0.156-0.158-0.213-0.175-0.278
	c-0.353-1.465-1.15-2.122-2.65-2.139c-1.505-0.017-2.874,0.423-4.092,1.311c-0.43,0.313-0.845,0.649-1.267,0.975
	c-0.059-0.034-0.116-0.067-0.173-0.102c0.075-0.354,0.146-0.71,0.226-1.063c0.117-0.518,0.004-0.831-0.617-0.822
	c-1.337,0.021-2.675,0.027-4.013,0.01c-0.46-0.004-0.676,0.146-0.764,0.617c-0.748,4.042-1.519,8.079-2.278,12.116
	c-0.118,0.631-0.207,1.27-0.317,1.942c1.863,0,3.637,0,5.378,0c0.53-2.577,1.023-5.092,1.574-7.593
	c0.261-1.188,0.724-2.296,1.658-3.153c0.457-0.419,1.045-0.671,1.493-0.32c0.34,0.267,0.597,0.944,0.527,1.381
	c-0.356,2.229-0.835,4.438-1.263,6.658c-0.189,0.979-0.357,1.963-0.531,2.924c0.169,0.078,0.235,0.138,0.303,0.138
	c1.563,0.014,3.13,0.041,4.692-0.004c0.194-0.005,0.495-0.386,0.547-0.632c0.443-2.146,0.823-4.305,1.261-6.448
	c0.248-1.214,0.646-2.384,1.443-3.363c0.532-0.651,1.372-0.999,1.834-0.705c0.598,0.38,0.59,1.016,0.484,1.629
	c-0.249,1.465-0.515,2.931-0.781,4.392c-0.305,1.678-0.617,3.352-0.939,5.101c1.821,0,3.576,0,5.426,0
	c0.099-0.535,0.189-1.027,0.28-1.521c0.311-1.682,0.645-3.357,0.929-5.045c0.31-1.854,0.621-3.709,0.845-5.573
	C164.493,24.524,163.181,23.55,161.691,23.386z M168.7,19.267c0-1.637-1.314-2.951-3.024-2.951c-1.691,0-3.041,1.314-3.041,2.951
	c0,1.674,1.35,2.987,3.041,2.987C167.385,22.254,168.7,20.94,168.7,19.267z"/>
<g>
	<g>
		<g>
			<defs>
				<path id="SVGID_2_" d="M321.804,18.07c-5.211,9.013-2.126,20.542,6.888,25.75c9.011,5.207,20.542,2.125,25.749-6.891
					c5.208-9.012,2.125-20.54-6.89-25.748c-2.97-1.718-6.211-2.535-9.411-2.535C331.627,8.648,325.295,12.027,321.804,18.07"/>
			</defs>
			<clipPath id="SVGID_3_">
				<use xlink:href="#SVGID_2_"  overflow="visible"/>
			</clipPath>
			
				<radialGradient id="SVGID_4_" cx="1138.1777" cy="450.2021" r="2.6307" gradientTransform="matrix(7.1686 0 0 7.1686 -7821.02 -3199.8301)" gradientUnits="userSpaceOnUse">
				<stop  offset="0" style="stop-color:#FFFFFF"/>
				<stop  offset="0.8407" style="stop-color:#FFFFFF"/>
				<stop  offset="1" style="stop-color:#DADADA"/>
			</radialGradient>
			<rect x="316.592" y="8.648" clip-path="url(#SVGID_3_)" fill="url(#SVGID_4_)" width="43.056" height="40.379"/>
		</g>
	</g>
	<path fill="#FFFFFF" d="M324.974,19.219c4.543-7.196,14.113-9.315,21.375-4.732c7.259,4.584,9.461,14.135,4.917,21.333
		c-4.544,7.195-14.113,9.313-21.375,4.73C322.629,35.966,320.429,26.415,324.974,19.219"/>
	<path fill="#FEFEFE" d="M325.169,19.224c4.457-7.058,13.915-9.133,21.098-4.599c7.182,4.536,9.371,13.964,4.914,21.02
		c-4.458,7.061-13.894,9.108-21.076,4.574C322.922,35.682,320.712,26.284,325.169,19.224"/>
	<path fill="#FEFEFE" d="M325.369,19.228c4.368-6.919,13.715-8.95,20.819-4.464c7.104,4.486,9.278,13.788,4.908,20.708
		c-4.369,6.924-13.67,8.897-20.776,4.409C323.215,35.396,320.999,26.15,325.369,19.228"/>
	<path fill="#FDFDFD" d="M325.566,19.232c4.281-6.78,13.516-8.767,20.541-4.332c7.027,4.436,9.186,13.62,4.905,20.398
		c-4.284,6.782-13.451,8.687-20.479,4.248C323.508,35.111,321.285,26.016,325.566,19.232"/>
	<path fill="#FCFCFC" d="M325.765,19.239c4.194-6.642,13.316-8.585,20.264-4.198c6.948,4.387,9.094,13.443,4.899,20.087
		c-4.195,6.644-13.226,8.472-20.177,4.086C323.801,34.825,321.568,25.883,325.765,19.239"/>
	<path fill="#FCFCFC" d="M325.96,19.245c4.107-6.504,13.118-8.402,19.987-4.064c6.871,4.338,9.001,13.27,4.894,19.771
		c-4.108,6.508-13.005,8.266-19.878,3.924C324.094,34.542,321.854,25.749,325.96,19.245"/>
	<path fill="#FBFBFB" d="M326.159,19.25c4.02-6.367,12.917-8.221,19.709-3.931c6.794,4.288,8.911,13.099,4.892,19.46
		c-4.024,6.367-12.788,8.055-19.58,3.766S322.14,25.616,326.159,19.25"/>
	<path fill="#FAFAFA" d="M326.357,19.253c3.931-6.228,12.717-8.036,19.433-3.796c6.713,4.238,8.817,12.923,4.884,19.15
		c-3.933,6.229-12.563,7.843-19.278,3.603C324.68,33.97,322.423,25.483,326.357,19.253"/>
	<path fill="#F9F9F9" d="M326.555,19.258c3.844-6.089,12.519-7.854,19.153-3.663c6.638,4.19,8.727,12.751,4.884,18.843
		c-3.85,6.088-12.344,7.627-18.982,3.44C324.974,33.686,322.708,25.35,326.555,19.258"/>
	<path fill="#F9F9F9" d="M326.751,19.264c3.757-5.951,12.321-7.672,18.878-3.531c6.56,4.14,8.634,12.578,4.877,18.529
		c-3.759,5.952-12.122,7.42-18.684,3.278C325.265,33.398,322.994,25.217,326.751,19.264"/>
	<path fill="#F8F8F8" d="M326.95,19.269c3.669-5.812,12.122-7.492,18.602-3.396c6.48,4.091,8.541,12.402,4.872,18.218
		c-3.672,5.813-11.901,7.209-18.382,3.113C325.559,33.114,323.278,25.083,326.95,19.269"/>
	<path fill="#F7F7F7" d="M327.147,19.273c3.583-5.675,11.921-7.307,18.324-3.264c6.403,4.043,8.45,12.231,4.865,17.905
		c-3.582,5.676-11.676,7-18.081,2.957C325.851,32.829,323.563,24.95,327.147,19.273"/>
	<path fill="#F7F7F7" d="M327.346,19.28c3.495-5.538,11.722-7.125,18.045-3.13c6.326,3.994,8.358,12.057,4.863,17.592
		c-3.497,5.539-11.458,6.793-17.785,2.795C326.145,32.542,323.851,24.816,327.346,19.28"/>
	<path fill="#F6F6F6" d="M327.542,19.285c3.41-5.397,11.521-6.942,17.769-2.999c6.249,3.944,8.267,11.885,4.858,17.282
		c-3.409,5.401-11.235,6.578-17.485,2.635C326.437,32.258,324.132,24.682,327.542,19.285"/>
	<path fill="#F5F5F5" d="M327.741,19.29c3.322-5.259,11.321-6.759,17.491-2.864c6.17,3.897,8.176,11.713,4.854,16.973
		c-3.32,5.262-11.014,6.365-17.184,2.471C326.729,31.973,324.417,24.549,327.741,19.29"/>
	<path fill="#F4F4F4" d="M327.938,19.293c3.233-5.121,11.122-6.578,17.213-2.73c6.093,3.846,8.083,11.539,4.849,16.66
		c-3.234,5.123-10.793,6.154-16.886,2.312C327.021,31.686,324.705,24.415,327.938,19.293"/>
	<path fill="#F4F4F4" d="M328.135,19.3c3.146-4.983,10.921-6.395,16.938-2.596c6.015,3.795,7.989,11.362,4.843,16.347
		c-3.146,4.985-10.573,5.946-16.587,2.146C327.315,31.398,324.988,24.284,328.135,19.3"/>
	<path fill="#F3F3F3" d="M328.333,19.305c3.059-4.844,10.722-6.212,16.659-2.464c5.934,3.75,7.898,11.193,4.839,16.037
		c-3.059,4.847-10.351,5.731-16.289,1.986C327.607,31.116,325.273,24.149,328.333,19.305"/>
	<path fill="#F2F2F2" d="M328.532,19.31c2.971-4.707,10.523-6.028,16.382-2.331c5.859,3.699,7.806,11.022,4.834,15.726
		c-2.972,4.707-10.129,5.521-15.988,1.824C327.901,30.829,325.561,24.016,328.532,19.31"/>
	<path fill="#F2F2F2" d="M328.729,19.314c2.884-4.568,10.323-5.847,16.105-2.196c5.78,3.651,7.714,10.848,4.83,15.414
		c-2.884,4.567-9.908,5.313-15.689,1.663C328.193,30.544,325.846,23.883,328.729,19.314"/>
	<path fill="#F1F1F1" d="M328.926,19.32c2.795-4.429,10.124-5.664,15.827-2.063c5.703,3.6,7.624,10.673,4.824,15.103
		c-2.795,4.432-9.686,5.102-15.389,1.498C328.486,30.257,326.128,23.75,328.926,19.32"/>
	<path fill="#F0F0F0" d="M329.124,19.324c2.709-4.289,9.926-5.479,15.549-1.929c5.625,3.551,7.53,10.5,4.82,14.791
		c-2.709,4.293-9.465,4.889-15.089,1.34C328.779,29.973,326.415,23.616,329.124,19.324"/>
	<path fill="#EFEFEF" d="M329.321,19.329c2.623-4.15,9.726-5.298,15.273-1.796c5.549,3.501,7.438,10.328,4.816,14.479
		c-2.622,4.155-9.243,4.682-14.792,1.18C329.073,29.688,326.7,23.482,329.321,19.329"/>
	<path fill="#EFEFEF" d="M329.519,19.334c2.535-4.013,9.526-5.117,14.996-1.663c5.469,3.452,7.347,10.153,4.812,14.167
		c-2.535,4.018-9.024,4.473-14.492,1.018C329.365,29.4,326.984,23.349,329.519,19.334"/>
	<path fill="#EEEEEE" d="M329.717,19.339c2.448-3.875,9.328-4.932,14.718-1.528c5.391,3.406,7.254,9.981,4.807,13.856
		c-2.447,3.877-8.8,4.26-14.192,0.854C329.657,29.12,327.271,23.215,329.717,19.339"/>
	<path fill="#EDEDED" d="M329.915,19.345c2.358-3.736,9.128-4.75,14.441-1.396c5.313,3.355,7.162,9.808,4.801,13.544
		c-2.359,3.737-8.58,4.049-13.892,0.692C329.95,28.833,327.556,23.083,329.915,19.345"/>
	<path fill="#EDEDED" d="M330.111,19.35c2.273-3.598,8.928-4.567,14.163-1.263c5.236,3.308,7.071,9.636,4.797,13.237
		c-2.271,3.6-8.357,3.836-13.594,0.527C330.243,28.547,327.839,22.95,330.111,19.35"/>
	<path fill="#ECECEC" d="M330.31,19.354c2.185-3.459,8.73-4.386,13.887-1.13c5.159,3.257,6.979,9.464,4.792,12.924
		c-2.186,3.461-8.138,3.625-13.295,0.367C330.537,28.264,328.125,22.815,330.31,19.354"/>
	<path fill="#EBEBEB" d="M330.507,19.358c2.097-3.32,8.529-4.202,13.608-0.995c5.082,3.208,6.888,9.29,4.787,12.612
		c-2.097,3.321-7.914,3.414-12.996,0.209C330.829,27.975,328.411,22.683,330.507,19.358"/>
	<path fill="#EAEAEA" d="M330.706,19.365c2.009-3.183,8.33-4.021,13.333-0.863c4.999,3.161,6.793,9.117,4.783,12.301
		c-2.011,3.186-7.694,3.205-12.696,0.049C331.123,27.69,328.695,22.549,330.706,19.365"/>
	<path fill="#EAEAEA" d="M330.902,19.37c1.926-3.045,8.133-3.837,13.055-0.729c4.925,3.109,6.704,8.942,4.779,11.987
		c-1.924,3.047-7.473,2.994-12.397-0.114C331.415,27.405,328.98,22.416,330.902,19.37"/>
	<path fill="#E9E9E9" d="M331.101,19.374c1.835-2.906,7.933-3.653,12.776-0.594c4.847,3.059,6.61,8.77,4.773,11.676
		c-1.833,2.905-7.251,2.785-12.098-0.278C331.708,27.118,329.267,22.283,331.101,19.374"/>
	<path fill="#E8E8E8" d="M331.297,19.381c1.748-2.767,7.731-3.473,12.5-0.462c4.768,3.01,6.518,8.597,4.77,11.366
		c-1.748,2.771-7.031,2.572-11.8-0.438C332,26.833,329.55,22.146,331.297,19.381"/>
	<path fill="#E8E8E7" d="M331.496,19.385c1.661-2.629,7.53-3.29,12.222-0.328c4.692,2.963,6.428,8.423,4.767,11.056
		c-1.66,2.627-6.809,2.359-11.5-0.604C332.292,26.548,329.834,22.016,331.496,19.385"/>
	<path fill="#E7E7E7" d="M331.693,19.39c1.574-2.49,7.332-3.107,11.945-0.193c4.611,2.911,6.333,8.25,4.759,10.742
		c-1.572,2.49-6.587,2.148-11.2-0.766C332.585,26.263,330.12,21.881,331.693,19.39"/>
	<path fill="#E6E6E6" d="M331.892,19.395c1.488-2.351,7.132-2.924,11.668-0.061c4.535,2.864,6.241,8.078,4.754,10.43
		c-1.484,2.354-6.366,1.94-10.9-0.924C332.877,25.977,330.407,21.75,331.892,19.395"/>
	<path fill="#E6E6E5" d="M332.088,19.4c1.4-2.213,6.934-2.742,11.391,0.072c4.457,2.813,6.151,7.905,4.75,10.118
		c-1.398,2.215-6.146,1.73-10.603-1.082C333.172,25.692,330.69,21.615,332.088,19.4"/>
	<path fill="#E5E5E5" d="M332.287,19.405c1.312-2.076,6.734-2.558,11.112,0.206c4.381,2.764,6.059,7.731,4.746,9.809
		c-1.309,2.076-5.921,1.52-10.301-1.25C333.463,25.407,330.976,21.481,332.287,19.405"/>
	<path fill="#E4E4E4" d="M332.483,19.411c1.223-1.938,6.534-2.376,10.836,0.338c4.301,2.718,5.965,7.56,4.742,9.499
		c-1.223,1.938-5.703,1.309-10.003-1.409C333.756,25.12,331.262,21.349,332.483,19.411"/>
	<path fill="#E3E3E3" d="M332.681,19.416c1.137-1.8,6.336-2.196,10.56,0.471c4.223,2.667,5.875,7.387,4.737,9.187
		c-1.135,1.801-5.481,1.096-9.705-1.572C334.048,24.837,331.546,21.215,332.681,19.416"/>
	<g>
		<g>
			<defs>
				<rect id="SVGID_5_" x="319.271" y="8.647" width="37.703" height="37.705"/>
			</defs>
			<clipPath id="SVGID_6_">
				<use xlink:href="#SVGID_5_"  overflow="visible"/>
			</clipPath>
			<path clip-path="url(#SVGID_6_)" fill="#989898" d="M354.441,36.932c-5.21,9.014-16.736,12.098-25.751,6.891
				c-9.013-5.211-12.096-16.738-6.889-25.751c5.21-9.012,16.737-12.097,25.749-6.889C356.564,16.388,359.65,27.919,354.441,36.932"
				/>
		</g>
	</g>
	<g>
		<g>
			<defs>
				<path id="SVGID_7_" d="M320.204,27.536c-0.004,9.89,8.008,17.907,17.894,17.912c9.888,0.004,17.904-8.009,17.908-17.896
					c0.005-9.887-8.007-17.909-17.894-17.91C328.225,9.638,320.208,17.651,320.204,27.536"/>
			</defs>
			<clipPath id="SVGID_8_">
				<use xlink:href="#SVGID_7_"  overflow="visible"/>
			</clipPath>
			
				<linearGradient id="SVGID_9_" gradientUnits="userSpaceOnUse" x1="1235.5273" y1="214.625" x2="1236.8977" y2="214.625" gradientTransform="matrix(15.0022 -21.4241 21.4241 15.0022 -22805.9766 23292.4492)">
				<stop  offset="0" style="stop-color:#DADADA"/>
				<stop  offset="0.0533" style="stop-color:#D0CFCF"/>
				<stop  offset="0.1791" style="stop-color:#BABABA"/>
				<stop  offset="0.2527" style="stop-color:#B2B2B2"/>
				<stop  offset="0.4813" style="stop-color:#B5B4B4"/>
				<stop  offset="0.6353" style="stop-color:#BCBCBB"/>
				<stop  offset="0.7674" style="stop-color:#C7C7C7"/>
				<stop  offset="0.8864" style="stop-color:#D8D8D8"/>
				<stop  offset="0.9968" style="stop-color:#ECECEC"/>
				<stop  offset="1" style="stop-color:#EDEDED"/>
			</linearGradient>
			<polygon clip-path="url(#SVGID_8_)" fill="url(#SVGID_9_)" points="303.375,33.667 331.981,-7.189 372.835,21.422 344.228,62.28 
							"/>
		</g>
	</g>
	<path id="SVGID_1_" fill="#FFFFFF" d="M344.76,13.987c0,1.492-0.136,3.01-0.384,4.531c-4.085-2.815-9.272-4.837-15.03-4.837
		c-2.756,0-4.602,0.735-5.307,1.278c-1.917,2.147-3.349,4.74-4.125,7.599c0.337-0.385,1.801-1.479,4.766-1.479
		c5.847,0,12.037,2.982,16.926,6.661c-3.71,8.584-9.852,15.461-13.717,15.461c-0.095,0-0.244-0.021-0.284-0.039
		c2.014,1.355,4.305,2.332,6.772,2.83c4.399-0.471,10.006-5.156,13.493-12.34c2.073,2.533,3.365,4.977,3.365,6.682
		c0,0.418-0.081,0.707-0.143,0.854c1.543-1.463,2.837-3.188,3.817-5.097c0.07-0.267,0.166-0.88,0.166-1.487
		c0-2.754-1.578-6.539-4.335-10.079c0.267-1.679,0.415-3.423,0.415-5.222c0-4.778-1.063-6.145-1.42-6.646
		c-1.874-1.467-4.031-2.589-6.376-3.267C343.673,9.603,344.76,10.357,344.76,13.987"/>
	<g>
		<g>
			<defs>
				<path id="SVGID_10_" d="M344.76,13.987c0,1.492-0.136,3.01-0.384,4.531c-4.085-2.815-9.272-4.837-15.03-4.837
					c-2.756,0-4.602,0.735-5.307,1.278c-1.917,2.147-3.349,4.74-4.125,7.599c0.337-0.385,1.801-1.479,4.766-1.479
					c5.847,0,12.037,2.982,16.926,6.661c-3.71,8.584-9.852,15.461-13.717,15.461c-0.095,0-0.244-0.021-0.284-0.039
					c2.014,1.355,4.305,2.332,6.772,2.83c4.399-0.471,10.006-5.156,13.493-12.34c2.073,2.533,3.365,4.977,3.365,6.682
					c0,0.418-0.081,0.707-0.143,0.854c1.543-1.463,2.837-3.188,3.817-5.097c0.07-0.267,0.166-0.88,0.166-1.487
					c0-2.754-1.578-6.539-4.335-10.079c0.267-1.679,0.415-3.423,0.415-5.222c0-4.778-1.063-6.145-1.42-6.646
					c-1.874-1.467-4.031-2.589-6.376-3.267C343.673,9.603,344.76,10.357,344.76,13.987"/>
			</defs>
			<clipPath id="SVGID_11_">
				<use xlink:href="#SVGID_10_"  overflow="visible"/>
			</clipPath>
			<rect x="319.917" y="9.389" clip-path="url(#SVGID_11_)" fill="#FFFFFF" width="35.163" height="36.604"/>
		</g>
	</g>
	<g>
		<g>
			<defs>
				<path id="SVGID_12_" d="M320.653,20.38c-0.099,0.243-0.207,0.521-0.287,0.739c0.364-0.271,1.898-1.428,5.042-1.428
					c14.089,0,26.507,13.79,26.507,19.993c0,0.276-0.065,0.688-0.224,0.905c0.106-0.112,0.247-0.258,0.38-0.407
					c0.265-0.337,0.259-0.933,0.259-1.051c0-6.27-11.973-20.162-26.584-20.162C322.445,18.968,321.029,20.079,320.653,20.38
					 M321.708,18.207c-0.127,0.224-0.33,0.601-0.433,0.809c0.433-0.319,1.908-1.326,5.074-1.326c15.781,0,26.717,14.4,26.717,20.511
					c0,0.295-0.047,0.787-0.201,1.053c0.14-0.18,0.347-0.443,0.453-0.592c0.229-0.317,0.193-1.018,0.193-1.215
					c0-5.982-10.729-20.508-26.523-20.508C323.716,16.941,322.294,17.735,321.708,18.207 M323.099,16.101
					c-0.061,0.079-0.353,0.468-0.594,0.828c0.493-0.467,2.269-1.345,5.423-1.345c14.672,0,26.238,13.498,26.238,21.068
					c0,0.197-0.036,0.692-0.2,1.076c0.136-0.215,0.282-0.455,0.406-0.664c0.172-0.306,0.185-0.754,0.186-1.062v-0.114
					c0-7.726-11.435-20.987-26.136-20.987C325.027,14.9,323.689,15.679,323.099,16.101"/>
			</defs>
			<clipPath id="SVGID_13_">
				<use xlink:href="#SVGID_12_"  overflow="visible"/>
			</clipPath>
			
				<linearGradient id="SVGID_14_" gradientUnits="userSpaceOnUse" x1="1294.6387" y1="305.3174" x2="1296.0082" y2="305.3174" gradientTransform="matrix(24.9082 11.6149 -11.6149 24.9082 -28380.0332 -22622.0039)">
				<stop  offset="0" style="stop-color:#7C7C7B"/>
				<stop  offset="0.0511" style="stop-color:#929291"/>
				<stop  offset="0.1402" style="stop-color:#B1B1B1"/>
				<stop  offset="0.2335" style="stop-color:#CACAC9"/>
				<stop  offset="0.3305" style="stop-color:#DCDCDC"/>
				<stop  offset="0.4329" style="stop-color:#E9E8E8"/>
				<stop  offset="0.5443" style="stop-color:#F0F0F0"/>
				<stop  offset="0.6813" style="stop-color:#F2F2F2"/>
				<stop  offset="0.7624" style="stop-color:#F0F0F0"/>
				<stop  offset="0.8206" style="stop-color:#E9E9E9"/>
				<stop  offset="0.8717" style="stop-color:#DEDEDE"/>
				<stop  offset="0.9187" style="stop-color:#CDCDCD"/>
				<stop  offset="0.9624" style="stop-color:#B7B7B6"/>
				<stop  offset="1" style="stop-color:#9D9D9C"/>
			</linearGradient>
			<polygon clip-path="url(#SVGID_13_)" fill="url(#SVGID_14_)" points="326.475,1.805 364.396,19.489 348.451,53.684 
				310.528,35.999 			"/>
		</g>
	</g>
	<g>
		<g>
			<defs>
				<rect id="SVGID_15_" x="320.368" y="9.851" width="34.19" height="35.795"/>
			</defs>
			<clipPath id="SVGID_16_">
				<use xlink:href="#SVGID_15_"  overflow="visible"/>
			</clipPath>
			<g clip-path="url(#SVGID_16_)">
				<g>
					<defs>
						<path id="SVGID_17_" d="M349.375,16.642c0,15.158-8.712,27.23-17.21,28.762c0.24,0.08,0.504,0.16,0.786,0.242
							c9.066-1.295,17.098-14.57,17.098-28.3c0-3.16-1.015-5.097-1.365-5.458c-0.211-0.143-0.429-0.286-0.66-0.428
							C348.296,11.695,349.375,13.646,349.375,16.642 M347.658,15.916c0,14.324-9.637,27.378-17.212,28.822
							c0.242,0.104,0.441,0.188,0.65,0.273c8.633-1.681,17.215-15.269,17.215-28.813c0-2.671-0.893-4.94-1.285-5.314
							c-0.225-0.121-0.492-0.258-0.661-0.341C346.61,10.792,347.658,12.721,347.658,15.916 M345.944,14.536
							c0,15.286-11.419,28.778-17.039,29.426c0.079,0.048,0.393,0.22,0.612,0.326c7.408-1.586,17.053-15.56,17.053-29.494
							c0-2.562-0.759-4.271-1.13-4.668c-0.21-0.089-0.483-0.198-0.694-0.276C345.292,10.373,345.944,12.169,345.944,14.536"/>
					</defs>
					<clipPath id="SVGID_18_">
						<use xlink:href="#SVGID_17_"  overflow="visible"/>
					</clipPath>
					
						<linearGradient id="SVGID_19_" gradientUnits="userSpaceOnUse" x1="1243.168" y1="201.332" x2="1244.5371" y2="201.332" gradientTransform="matrix(11.6419 -24.9661 24.9661 11.6419 -19168.0117 28738.3613)">
						<stop  offset="0" style="stop-color:#7C7C7B"/>
						<stop  offset="0.0453" style="stop-color:#8C8C8C"/>
						<stop  offset="0.1571" style="stop-color:#ADADAD"/>
						<stop  offset="0.2727" style="stop-color:#C7C7C7"/>
						<stop  offset="0.3913" style="stop-color:#DBDBDB"/>
						<stop  offset="0.514" style="stop-color:#E8E8E8"/>
						<stop  offset="0.6436" style="stop-color:#F0F0F0"/>
						<stop  offset="0.7912" style="stop-color:#F2F2F2"/>
						<stop  offset="0.8279" style="stop-color:#EFEFEF"/>
						<stop  offset="0.869" style="stop-color:#E5E5E5"/>
						<stop  offset="0.9121" style="stop-color:#D5D4D4"/>
						<stop  offset="0.9563" style="stop-color:#BCBCBC"/>
						<stop  offset="1" style="stop-color:#9D9D9C"/>
					</linearGradient>
					<polygon clip-path="url(#SVGID_18_)" fill="url(#SVGID_19_)" points="315.195,39.253 332.682,1.751 363.758,16.244 
						346.271,53.745 					"/>
				</g>
			</g>
		</g>
		<path fill="#989898" d="M228.651,18.284c-0.124-0.403,0.092-0.643,0.393-0.643h3.819c0.412,0,0.628,0.168,0.831,0.643
			c0.836,1.954,2.083,4.107,3.193,5.426h0.014c0.205-0.207,1.801-1.933,3.649-5.426c0.267-0.516,0.51-0.643,0.867-0.643h2.968
			c0.266,0,0.586,0.128,0.413,0.643c-1.177,3.497-3.87,6.561-5.355,8.146c1.622,1.537,4.499,5.175,5.85,8.737
			c0.123,0.319,0.06,0.688-0.615,0.688h-3.547c-0.368,0-0.651-0.037-0.898-0.642c-0.899-2.239-2.312-4.587-3.923-6.093l0.211-0.023
			c-1.763,1.834-3.109,4.135-4.006,6.117c-0.214,0.475-0.43,0.643-0.897,0.643h-3.25c-0.218,0-0.438-0.256-0.297-0.646
			c0.967-2.653,2.895-5.951,5.65-8.438C231.56,24.158,229.476,20.969,228.651,18.284 M296.996,18.284
			c0.823,2.685,2.906,5.875,5.069,8.491c-2.757,2.486-4.682,5.782-5.649,8.438c-0.141,0.393,0.079,0.645,0.296,0.645h3.25
			c0.469,0,0.683-0.166,0.897-0.641c0.897-1.98,2.245-4.281,4.009-6.119l-0.214,0.024c1.61,1.506,3.024,3.854,3.922,6.091
			c0.247,0.604,0.532,0.645,0.903,0.645h3.542c0.68,0,0.738-0.369,0.617-0.691c-1.354-3.563-4.23-7.199-5.852-8.735
			c1.488-1.587,4.179-4.651,5.354-8.146c0.174-0.516-0.145-0.643-0.412-0.643h-2.966c-0.36,0-0.602,0.126-0.866,0.643
			c-1.85,3.493-3.447,5.219-3.651,5.425h-0.015c-1.11-1.319-2.355-3.472-3.192-5.425c-0.205-0.476-0.421-0.643-0.833-0.643h-3.82
			C297.086,17.641,296.873,17.88,296.996,18.284 M295.833,26.727c0-5.375-3.814-9.358-9.198-9.358c-5.537,0-9.211,4.121-9.211,9.361
			c0,5.543,3.725,9.354,9.211,9.354C292.02,36.083,295.833,32.104,295.833,26.727 M291.079,26.728c0,3.145-1.214,5.934-4.439,5.934
			c-3.228,0-4.467-2.791-4.467-5.934s1.239-5.932,4.467-5.932C289.865,20.794,291.079,23.583,291.079,26.728 M263.476,25.063
			c0.035,0.397,0.055,1.063,0.055,1.487v0.872c0,0.513-0.196,0.814-0.636,0.814h-12.076c0.11,1.022,0.465,1.904,1.069,2.604
			c0.955,1.097,2.197,1.691,4.387,1.691c1.042,0,2.131-0.269,3.187-0.654c0.543-0.2,0.943-0.408,1.478-0.672
			c0.319-0.157,0.713-0.065,0.802,0.287l0.763,2.159c0.11,0.431-0.024,0.543-0.452,0.808c-1.221,0.757-4.067,1.646-6.423,1.646
			c-2.927,0-5.288-0.85-6.958-2.408c-1.704-1.592-2.648-3.939-2.648-6.857c0-3.38,1.511-5.896,3.464-7.502
			c1.638-1.348,3.864-1.953,5.623-1.953c2.388,0,4.318,0.689,5.756,1.968C262.357,20.676,263.25,22.632,263.476,25.063
			 M259.146,24.881c0-2.431-1.473-4.071-3.885-4.071c-1.757,0-3.174,0.959-3.917,2.456c-0.271,0.547-0.443,1.12-0.533,1.726h8.336
			L259.146,24.881L259.146,24.881z M267.816,19.959c-1.048,1.352-1.236,2.862-1.236,6.094v8.874
			c0.047,0.636,0.301,0.929,0.894,0.929h2.758c0.639,0,0.898-0.332,0.898-0.929v-9.039c0-2.035,0.027-3.171,0.743-3.939
			c0.615-0.661,1.441-1.094,3.175-1.094c0.342,0,1.166,0.09,1.454,0.125c0.107,0.014,0.197,0.021,0.242,0.021
			c0.3,0,0.406-0.109,0.5-0.488l0.416-2.035c0.076-0.417,0.011-0.741-0.402-0.84c-0.631-0.15-1.64-0.242-2.458-0.242
			C271.312,17.398,269.183,18.199,267.816,19.959"/>
		<g>
			<path fill="#878787" d="M543.968,23.604c-0.087,0.203-0.089,0.428-0.145,0.637c-0.408,1.525-1.396,2.553-2.79,3.215
				c-0.951,0.456-1.973,0.667-3.021,0.729c-1.338,0.084-2.658-0.018-3.961-0.358c-0.991-0.264-1.909-0.711-2.817-1.168
				c-0.188-0.094-0.253-0.193-0.251-0.404c0.017-1.097,0.007-2.191,0.007-3.287c0-0.06,0-0.117,0-0.187
				c0.095,0.019,0.151,0.073,0.214,0.112c1.003,0.65,2.023,1.27,3.159,1.672c1.114,0.396,2.26,0.543,3.434,0.379
				c0.44-0.063,0.859-0.189,1.213-0.479c0.604-0.488,0.663-1.393,0.125-1.953c-0.396-0.416-0.904-0.653-1.419-0.873
				c-0.862-0.363-1.754-0.638-2.622-0.982c-0.939-0.374-1.854-0.799-2.649-1.44c-1.114-0.899-1.713-2.063-1.803-3.497
				c-0.071-1.174,0.188-2.246,0.923-3.18c0.64-0.816,1.488-1.342,2.446-1.698c0.746-0.277,1.525-0.427,2.317-0.492
				c0.03-0.003,0.067,0.012,0.083-0.033c0.557,0,1.11,0,1.668,0c0.043,0.048,0.104,0.026,0.153,0.03
				c0.415,0.025,0.823,0.081,1.23,0.152c1.248,0.217,2.436,0.621,3.599,1.114c0.104,0.044,0.129,0.095,0.128,0.202
				c-0.004,1.036-0.002,2.073-0.004,3.108c0,0.047,0.021,0.096-0.02,0.144c-0.037-0.015-0.073-0.026-0.105-0.042
				c-0.762-0.335-1.525-0.652-2.313-0.922c-1.215-0.413-2.45-0.687-3.745-0.545c-0.513,0.056-1.008,0.183-1.425,0.501
				c-0.536,0.406-0.618,1.087-0.189,1.609c0.243,0.297,0.563,0.493,0.899,0.665c0.789,0.405,1.633,0.674,2.459,0.987
				c1.015,0.383,2.021,0.79,2.929,1.4c1.046,0.703,1.82,1.608,2.144,2.854c0.059,0.227,0.102,0.46,0.149,0.688
				C543.968,22.709,543.968,23.157,543.968,23.604z M433.913,37.516c0.125,0.002,0.253,0.012,0.375,0.002
				c0.122-0.011,0.155,0.021,0.154,0.148c-0.011,0.509-0.017,1.014,0,1.521c0.015,0.514,0.177,0.961,0.685,1.186
				c0.604,0.266,1.21,0.176,1.804-0.059c0.038-0.015,0.061-0.037,0.06-0.084c-0.001-0.261,0-0.521,0-0.795
				c-0.188,0.073-0.354,0.153-0.533,0.189c-0.535,0.116-0.835-0.12-0.837-0.668c0-0.43,0.005-0.859-0.003-1.291
				c-0.002-0.123,0.034-0.152,0.152-0.15c0.361,0.008,0.721-0.002,1.08,0.008c0.119,0,0.146-0.035,0.142-0.146
				c-0.011-0.162-0.013-0.326,0-0.494c0.01-0.136-0.021-0.188-0.172-0.182c-0.354,0.016-0.711,0.002-1.063,0.007
				c-0.104,0.002-0.141-0.021-0.138-0.135c0.007-0.289,0.005-0.577,0-0.866c0-0.053,0.038-0.13-0.032-0.158
				c-0.078-0.031-0.141,0.012-0.197,0.076c-0.222,0.256-0.441,0.508-0.671,0.758c-0.27,0.289-0.506,0.605-0.805,0.867
				C433.913,37.339,433.913,37.427,433.913,37.516z M482.603,18.25c1.565,3.285,3.135,6.568,4.691,9.855
				c0.042,0.084,0.092,0.113,0.188,0.113c0.528-0.008,1.056-0.01,1.587,0c0.123,0.002,0.176-0.045,0.222-0.152
				c0.729-1.688,1.458-3.375,2.186-5.061c1.731-3.996,3.458-7.99,5.188-11.986c0.064-0.152,0.132-0.304,0.199-0.463
				c-0.033-0.006-0.049-0.013-0.064-0.013c-1.478,0-2.955,0.001-4.435-0.003c-0.11-0.001-0.132,0.062-0.165,0.138
				c-1.192,2.813-2.389,5.627-3.581,8.44c-0.146,0.336-0.289,0.673-0.443,1.041c-0.151-0.324-0.291-0.615-0.428-0.909
				c-1.322-2.857-2.65-5.713-3.976-8.572c-0.044-0.097-0.095-0.141-0.213-0.141c-1.072,0.006-2.147,0.005-3.223,0.001
				c-0.107-0.001-0.165,0.029-0.209,0.128c-1.303,2.813-2.605,5.626-3.909,8.439c-0.16,0.343-0.321,0.685-0.491,1.048
				c-0.025-0.061-0.045-0.099-0.061-0.137c-1.329-3.11-2.656-6.22-3.983-9.33c-0.05-0.111-0.102-0.151-0.225-0.15
				c-1.427,0.005-2.857,0.003-4.287,0.003c-0.05,0-0.102,0-0.165,0c0.021,0.053,0.034,0.084,0.049,0.113
				c0.874,2.018,1.751,4.037,2.626,6.056c1.642,3.779,3.281,7.557,4.921,11.335c0.053,0.118,0.107,0.173,0.247,0.169
				c0.397-0.014,0.798-0.006,1.194-0.007c0.168,0,0.37,0.05,0.495-0.022c0.119-0.072,0.154-0.275,0.223-0.424
				c1.267-2.664,2.527-5.33,3.789-7.996c0.46-0.964,0.916-1.929,1.39-2.92C482.166,17.331,482.386,17.791,482.603,18.25z
				 M524.943,21.011c-1.229-1.409-2.45-2.816-3.684-4.224c-1.786-2.043-3.568-4.088-5.351-6.132
				c-0.064-0.074-0.128-0.111-0.235-0.11c-1.229,0.004-2.464,0.005-3.693,0c-0.136,0-0.172,0.029-0.172,0.167
				c0.004,5.7,0.004,11.399,0,17.097c0,0.141,0.029,0.182,0.179,0.182c1.331-0.008,2.661-0.008,3.993,0
				c0.155,0.001,0.192-0.039,0.192-0.195c-0.006-3.578-0.004-7.155-0.004-10.731c0-0.063,0-0.125,0-0.225
				c0.049,0.049,0.064,0.068,0.082,0.086c0.818,0.948,1.638,1.898,2.453,2.846c2.332,2.701,4.665,5.402,6.993,8.109
				c0.068,0.086,0.142,0.111,0.247,0.111c1.112-0.004,2.227-0.006,3.343,0.001c0.146,0.002,0.173-0.042,0.173-0.183
				c-0.004-5.699-0.004-11.398,0.003-17.097c0-0.139-0.038-0.167-0.17-0.166c-1.338,0.005-2.675,0.005-4.011-0.001
				c-0.149,0-0.187,0.036-0.187,0.188c0.004,3.403,0.004,6.806,0.004,10.209c0,0.065,0,0.131,0,0.239
				C525.027,21.103,524.984,21.058,524.943,21.011z M446.511,17.212c0.673-0.833,0.977-1.777,0.804-2.844
				c-0.186-1.149-0.797-2.042-1.731-2.715c-1.069-0.765-2.29-1.08-3.578-1.094c-2.611-0.031-5.223-0.009-7.834-0.017
				c-0.155-0.001-0.13,0.079-0.13,0.169c0,5.7,0,11.399-0.003,17.097c0,0.139,0.02,0.182,0.174,0.182
				c2.835-0.006,5.67,0.002,8.507-0.006c0.866-0.004,1.723-0.121,2.556-0.389c2.679-0.855,3.687-3.207,3.354-5.49
				c-0.222-1.533-1.111-2.609-2.486-3.295c-0.356-0.178-0.729-0.305-1.133-0.421C445.602,18.082,446.105,17.709,446.511,17.212z
				 M438.392,20.81c0-0.086,0.002-0.138,0.117-0.136c1.097,0.013,2.191-0.018,3.286,0.019c0.449,0.016,0.881,0.126,1.285,0.334
				c0.714,0.37,1.062,1.018,0.988,1.843c-0.085,1.027-0.606,1.575-1.692,1.78c-0.492,0.094-0.993,0.127-1.491,0.13
				c-0.772,0.003-1.55-0.002-2.322,0.003c-0.131,0.003-0.173-0.021-0.172-0.163c0.01-0.633,0.005-1.266,0.005-1.896
				C438.394,22.087,438.395,21.447,438.392,20.81z M438.391,13.895c0-0.106,0.017-0.149,0.14-0.148
				c0.771,0.007,1.549-0.009,2.321,0.011c0.627,0.017,1.207,0.197,1.624,0.704c0.834,1.015,0.333,2.515-0.957,2.891
				c-0.256,0.075-0.521,0.111-0.787,0.111c-0.729,0.001-1.46-0.003-2.191,0.004c-0.127,0.001-0.148-0.038-0.147-0.154
				c0.007-0.572,0.003-1.146,0.003-1.718C438.394,15.03,438.396,14.462,438.391,13.895z M461.843,28.15
				c2.251-0.533,4.14-1.661,5.528-3.535c1.471-1.983,2.046-4.213,1.577-6.652c-0.454-2.36-1.711-4.23-3.673-5.614
				c-1.562-1.099-3.322-1.627-5.211-1.766c-1.315-0.098-2.621-0.004-3.902,0.325c-2.274,0.585-4.146,1.784-5.479,3.736
				c-1.396,2.046-1.899,4.301-1.328,6.736c0.639,2.723,2.272,4.687,4.746,5.952c1.573,0.807,3.269,1.116,5.025,1.118
				C460.09,28.451,460.883,28.38,461.843,28.15z M462.09,14.903c1.159,0.645,1.924,1.613,2.289,2.887
				c0.354,1.231,0.341,2.466-0.079,3.678c-0.499,1.442-1.485,2.443-2.924,2.957c-1.655,0.592-3.315,0.559-4.922-0.172
				c-1.483-0.673-2.367-1.861-2.705-3.444c-0.267-1.244-0.188-2.474,0.332-3.646c0.669-1.508,1.864-2.394,3.443-2.788
				c0.525-0.129,1.062-0.187,1.514-0.178C460.172,14.192,461.17,14.39,462.09,14.903z M497.917,27.825
				c0,0.121,0.016,0.165,0.154,0.165c4.182-0.006,8.362-0.006,12.55-0.002c0.123,0,0.163-0.024,0.161-0.158
				c-0.005-0.955-0.005-1.907,0-2.862c0-0.144-0.025-0.188-0.184-0.188c-2.722,0.005-5.439,0.002-8.163,0.006
				c-0.133,0.002-0.17-0.024-0.17-0.164c0.008-1.282,0.008-2.563,0-3.844c0-0.146,0.032-0.187,0.186-0.187
				c2.522,0.005,5.05,0.002,7.573,0.006c0.14,0,0.194-0.02,0.192-0.179c-0.013-0.949-0.013-1.899,0-2.847
				c0-0.156-0.052-0.185-0.192-0.185c-2.529,0.004-5.059,0.002-7.592,0.006c-0.138,0-0.167-0.035-0.167-0.168
				c0.008-1.09,0.008-2.181,0-3.273c-0.002-0.154,0.023-0.206,0.198-0.206c2.654,0.008,5.313,0.005,7.965,0.008
				c0.124,0.001,0.166-0.025,0.166-0.157c-0.007-0.959-0.011-1.919,0-2.88c0.001-0.15-0.044-0.172-0.18-0.172
				c-4.107,0.004-8.214,0.004-12.322-0.001c-0.146,0-0.185,0.036-0.185,0.185c0.005,2.848,0.003,5.694,0.003,8.541
				C497.918,22.12,497.918,24.972,497.917,27.825z M450.185,36.889c0.026-0.152-0.038-0.188-0.188-0.185
				c-0.288,0.012-0.576,0.01-0.867,0c-0.106-0.003-0.135,0.028-0.135,0.137c0.003,1.784,0.004,3.566,0,5.353
				c0,0.113,0.038,0.13,0.139,0.127c0.307-0.004,0.612-0.006,0.916,0c0.111,0.005,0.135-0.03,0.135-0.135
				c-0.005-0.584-0.003-1.168-0.001-1.752c0-0.045-0.021-0.095,0.023-0.144c0.217,0.104,0.437,0.188,0.675,0.215
				c0.615,0.068,1.179-0.056,1.604-0.53c0.554-0.621,0.66-1.627,0.272-2.386c-0.343-0.672-1.004-1.021-1.749-0.935
				c-0.307,0.037-0.564,0.172-0.831,0.365C450.184,36.954,450.178,36.919,450.185,36.889z M450.182,37.893
				c-0.002-0.082,0.021-0.132,0.086-0.175c0.143-0.093,0.28-0.184,0.449-0.219c0.44-0.09,0.825,0.11,0.978,0.532
				c0.134,0.374,0.134,0.755-0.007,1.132c-0.226,0.604-0.937,0.729-1.454,0.356c-0.056-0.037-0.052-0.09-0.052-0.144
				c0-0.254,0-0.501,0-0.753C450.184,38.38,450.186,38.136,450.182,37.893z M475.961,36.761c0-0.565-0.001-1.133,0.002-1.698
				c0.001-0.099-0.015-0.146-0.129-0.142c-0.316,0.011-0.633,0.004-0.949,0c-0.09,0-0.122,0.024-0.119,0.12
				c0.007,0.156,0.001,0.316,0.001,0.475c0,1.594,0.003,3.183-0.003,4.774c0,0.137,0.033,0.178,0.171,0.172
				c0.266-0.015,0.531-0.005,0.803-0.005c0.221,0,0.221,0,0.227-0.223c0-0.008,0.01-0.018,0.018-0.031
				c0.064,0.04,0.13,0.077,0.194,0.115c0.857,0.473,1.914,0.146,2.343-0.737c0.203-0.41,0.261-0.845,0.204-1.299
				c-0.133-1.097-0.978-1.763-2.073-1.626c-0.239,0.029-0.456,0.129-0.687,0.252C475.961,36.845,475.961,36.802,475.961,36.761z
				 M475.96,37.809c-0.002-0.089,0.023-0.146,0.104-0.191c0.686-0.43,1.387-0.078,1.464,0.742c0.027,0.287,0.002,0.57-0.108,0.847
				c-0.212,0.532-0.871,0.735-1.417,0.256c-0.053-0.045-0.041-0.095-0.041-0.149c-0.001-0.256-0.001-0.512-0.001-0.768
				C475.961,38.302,475.967,38.055,475.96,37.809z M518.477,36.87c0.023-0.146-0.037-0.179-0.172-0.164
				c-0.161,0.012-0.326,0.001-0.49,0.003c-0.168,0.002-0.394-0.057-0.488,0.027c-0.109,0.098-0.032,0.324-0.032,0.5
				c-0.005,1.64,0,3.279-0.007,4.92c0,0.119,0.021,0.171,0.154,0.162c0.3-0.012,0.601-0.008,0.902,0
				c0.107,0.005,0.132-0.032,0.132-0.137c-0.009-0.43-0.005-0.861-0.005-1.291c0-0.197,0-0.396,0-0.615
				c0.065,0.031,0.109,0.054,0.152,0.074c0.77,0.356,1.712,0.174,2.215-0.449c0.388-0.477,0.485-1.033,0.419-1.627
				c-0.165-1.465-1.711-2.104-2.786-1.254C518.476,36.954,518.469,36.91,518.477,36.87z M518.474,37.895
				c-0.003-0.086,0.026-0.14,0.098-0.188c0.156-0.106,0.323-0.197,0.519-0.224c0.424-0.053,0.783,0.172,0.914,0.594
				c0.107,0.339,0.112,0.688-0.001,1.025c-0.227,0.68-0.95,0.785-1.479,0.422c-0.061-0.039-0.053-0.092-0.053-0.143
				c0-0.252,0-0.502,0-0.752C518.476,38.386,518.479,38.143,518.474,37.895z M498.198,40.264c-0.029,0.161,0.038,0.202,0.191,0.193
				c0.285-0.016,0.566-0.01,0.854-0.002c0.103,0.002,0.142-0.021,0.142-0.132c-0.003-1.765-0.003-3.521,0-5.282
				c0-0.107-0.042-0.122-0.135-0.122c-0.299,0.006-0.601,0.011-0.898,0c-0.12-0.004-0.158,0.022-0.154,0.149
				c0.008,0.384,0.002,0.765,0.002,1.146c0,0.209,0,0.422,0,0.646c-0.084-0.033-0.148-0.06-0.213-0.086
				c-0.807-0.31-1.703-0.104-2.159,0.513c-0.479,0.642-0.532,1.354-0.271,2.091c0.26,0.729,0.875,1.141,1.648,1.146
				c0.364,0,0.679-0.125,0.984-0.353C498.195,40.223,498.201,40.243,498.198,40.264z M498.201,39.288
				c0.003,0.104-0.036,0.169-0.115,0.229c-0.548,0.42-1.208,0.209-1.407-0.451c-0.103-0.338-0.094-0.678,0.017-1.012
				c0.229-0.689,0.931-0.746,1.441-0.44c0.064,0.036,0.063,0.092,0.063,0.153c-0.001,0.258-0.001,0.516-0.001,0.771
				C498.198,38.785,498.193,39.038,498.201,39.288z M461.501,37.156c-0.06-0.146-0.087-0.333-0.192-0.424
				c-0.109-0.09-0.305-0.02-0.462-0.025c-0.043-0.001-0.089,0.007-0.131-0.001c-0.093-0.015-0.134,0.028-0.166,0.116
				c-0.138,0.353-0.281,0.701-0.425,1.052c-0.116,0.282-0.229,0.563-0.342,0.842c-0.049-0.021-0.048-0.051-0.058-0.075
				c-0.227-0.6-0.462-1.191-0.683-1.793c-0.043-0.115-0.097-0.146-0.212-0.146c-0.293,0.009-0.589,0.004-0.885,0.004
				c-0.177,0-0.177,0-0.104,0.162c0.479,1.086,0.961,2.173,1.44,3.257c0.175,0.4,0.175,0.396,0.617,0.396
				c0.1,0,0.142-0.035,0.181-0.119c0.175-0.394,0.354-0.778,0.533-1.168c0.107-0.237,0.224-0.476,0.343-0.729
				c0.253,0.551,0.495,1.076,0.737,1.604c0.19,0.429,0.189,0.427,0.657,0.412c0.078-0.004,0.114-0.027,0.146-0.097
				c0.527-1.2,1.055-2.401,1.586-3.601c0.039-0.086,0.046-0.123-0.071-0.122c-0.325,0.005-0.653,0.005-0.979,0
				c-0.086-0.001-0.126,0.03-0.155,0.106c-0.064,0.181-0.135,0.356-0.201,0.531c-0.176,0.461-0.352,0.92-0.536,1.405
				C461.921,38.202,461.71,37.68,461.501,37.156z M507.073,37.035c0-0.662-0.001-1.319,0.001-1.979c0-0.091-0.01-0.14-0.119-0.136
				c-0.319,0.011-0.635,0.006-0.949,0c-0.097-0.002-0.121,0.031-0.121,0.12c0.004,1.764,0.006,3.523,0,5.284
				c0,0.116,0.044,0.134,0.146,0.132c0.292-0.008,0.59-0.01,0.881,0.002c0.13,0.003,0.165-0.032,0.163-0.161
				c-0.007-0.692-0.002-1.387-0.002-2.075c0-0.07-0.011-0.139,0.038-0.201c0.106-0.146,0.225-0.285,0.372-0.394
				c0.36-0.252,0.789-0.106,0.924,0.317c0.043,0.141,0.054,0.287,0.054,0.432c-0.002,0.646,0.004,1.288-0.006,1.936
				c0,0.125,0.037,0.153,0.156,0.148c0.288-0.01,0.576-0.01,0.864,0c0.12,0.003,0.165-0.021,0.163-0.152
				c-0.006-0.771,0.007-1.539-0.004-2.311c-0.019-1.146-0.997-1.495-1.729-1.313c-0.334,0.082-0.585,0.293-0.835,0.573
				C507.073,37.152,507.073,37.093,507.073,37.035z M485.179,37.052c0-0.661-0.003-1.319,0.004-1.979
				c0.002-0.124-0.029-0.154-0.152-0.152c-0.308,0.011-0.611,0.007-0.916,0c-0.099-0.002-0.129,0.021-0.129,0.123
				c0.005,1.765,0.005,3.524,0,5.285c0,0.103,0.025,0.13,0.129,0.127c0.305-0.007,0.608-0.008,0.916,0.003
				c0.123,0.004,0.152-0.031,0.152-0.156c-0.007-0.695-0.004-1.395-0.004-2.092c0-0.064-0.008-0.129,0.035-0.189
				c0.117-0.158,0.24-0.311,0.41-0.414c0.361-0.223,0.757-0.071,0.883,0.328c0.04,0.133,0.056,0.27,0.056,0.406
				c0,0.658,0.003,1.319-0.003,1.977c0,0.107,0.021,0.143,0.137,0.139c0.309-0.007,0.619-0.006,0.932,0
				c0.085,0,0.121-0.018,0.12-0.112c-0.005-0.799,0.018-1.595-0.009-2.391c-0.037-1.124-1.015-1.453-1.73-1.271
				c-0.331,0.088-0.579,0.291-0.828,0.571C485.179,37.156,485.179,37.104,485.179,37.052z M438.786,37.139
				c-0.001-0.691-0.002-1.389,0.001-2.076c0.001-0.101-0.018-0.146-0.128-0.142c-0.312,0.011-0.622,0.004-0.936,0
				c-0.085,0-0.119,0.017-0.119,0.113c0.003,1.768,0.003,3.532,0,5.301c0,0.106,0.035,0.124,0.132,0.122
				c0.301-0.006,0.601-0.01,0.897,0c0.123,0.005,0.157-0.025,0.156-0.15c-0.009-0.697-0.006-1.396-0.005-2.098
				c0-0.053-0.013-0.12,0.018-0.157c0.147-0.209,0.306-0.413,0.561-0.506c0.314-0.116,0.619,0.026,0.736,0.345
				c0.058,0.152,0.068,0.314,0.067,0.48c0,0.646,0.002,1.299-0.002,1.943c0,0.104,0.019,0.146,0.132,0.143
				c0.313-0.008,0.624-0.006,0.935,0c0.091,0.002,0.119-0.023,0.117-0.118c-0.002-0.799,0.018-1.595-0.005-2.389
				c-0.023-1.08-0.977-1.458-1.731-1.267c-0.333,0.086-0.583,0.293-0.803,0.549C438.771,37.203,438.786,37.169,438.786,37.139z
				 M534.143,40.314c-0.007,0.102,0.02,0.146,0.131,0.145c0.312-0.012,0.619-0.01,0.933-0.002c0.104,0.004,0.128-0.025,0.128-0.127
				c-0.005-1.166-0.006-2.333,0-3.499c0-0.106-0.037-0.125-0.133-0.124c-0.307,0.007-0.607,0.007-0.911-0.001
				c-0.121-0.005-0.158,0.026-0.156,0.155c0.006,0.683-0.017,1.361,0.01,2.043c0.017,0.371-0.313,0.703-0.571,0.791
				c-0.396,0.131-0.729-0.067-0.791-0.479c-0.019-0.091-0.021-0.186-0.023-0.277c-0.002-0.697-0.002-1.396,0.002-2.092
				c0-0.104-0.018-0.146-0.132-0.144c-0.312,0.009-0.62,0.009-0.932,0c-0.106-0.002-0.125,0.035-0.125,0.132
				c0.006,0.771-0.008,1.549,0.007,2.322c0.021,1.252,1.139,1.553,1.901,1.271c0.263-0.093,0.454-0.271,0.676-0.496
				C534.146,40.091,534.149,40.205,534.143,40.314z M456.587,36.805c-0.394-0.146-0.798-0.193-1.218-0.148
				c-0.895,0.1-1.712,0.688-1.806,1.74c-0.072,0.824,0.353,1.599,1.106,1.929c0.461,0.202,0.943,0.25,1.438,0.165
				c0.979-0.17,1.694-0.835,1.665-1.903C457.775,37.725,457.361,37.095,456.587,36.805z M454.943,37.873
				c0.141-0.354,0.396-0.532,0.762-0.525c0.342,0.006,0.6,0.188,0.713,0.541c0.148,0.473,0.146,0.952-0.025,1.422
				c-0.125,0.338-0.368,0.502-0.707,0.506c-0.354,0.002-0.599-0.166-0.734-0.508c-0.096-0.23-0.119-0.473-0.124-0.711
				C454.827,38.348,454.852,38.104,454.943,37.873z M492.074,36.83c0.006-0.092-0.021-0.124-0.118-0.123
				c-0.317,0.007-0.633,0.007-0.949,0c-0.093-0.001-0.119,0.031-0.119,0.123c0.004,1.167,0.004,2.334,0,3.499
				c0,0.104,0.029,0.13,0.129,0.128c0.309-0.008,0.609-0.01,0.915,0c0.12,0.005,0.142-0.038,0.142-0.146
				c-0.006-0.707-0.004-1.418-0.002-2.129c0-0.052-0.015-0.104,0.021-0.154c0.122-0.185,0.249-0.36,0.437-0.479
				c0.392-0.261,0.829-0.072,0.911,0.389c0.02,0.088,0.023,0.174,0.023,0.261c0,0.709,0.003,1.419-0.002,2.128
				c-0.002,0.107,0.029,0.14,0.135,0.135c0.301-0.008,0.601-0.01,0.9,0c0.12,0.005,0.153-0.021,0.153-0.146
				c-0.009-0.767-0.003-1.527-0.003-2.291c0-0.183-0.03-0.356-0.091-0.527c-0.291-0.836-1.396-1.133-2.146-0.577
				c-0.118,0.086-0.22,0.188-0.346,0.317C492.071,37.07,492.065,36.948,492.074,36.83z M514.066,39.406
				c-0.387,0.259-0.8,0.429-1.277,0.41c-0.625-0.021-1.012-0.324-1.139-0.873c-0.032-0.149,0.009-0.174,0.147-0.174
				c0.789,0.01,1.579,0.004,2.367,0.006c0.086,0,0.156,0.01,0.154-0.12c-0.019-0.763-0.264-1.411-0.973-1.777
				c-0.736-0.382-1.481-0.338-2.178,0.138c-0.502,0.344-0.731,0.857-0.761,1.459c-0.033,0.692,0.188,1.271,0.777,1.676
				c0.549,0.371,1.168,0.416,1.803,0.356c0.418-0.039,0.804-0.172,1.153-0.399c0.071-0.051,0.106-0.092,0.104-0.187
				c-0.007-0.198-0.002-0.401-0.002-0.635C514.171,39.336,514.121,39.371,514.066,39.406z M511.768,38.148
				c-0.097,0.004-0.107-0.037-0.097-0.116c0.065-0.416,0.373-0.687,0.783-0.688c0.418-0.002,0.72,0.271,0.796,0.691
				c0.018,0.098-0.012,0.111-0.093,0.111c-0.229-0.004-0.458-0.002-0.688-0.002C512.236,38.146,512.001,38.145,511.768,38.148z
				 M482.896,39.459c-0.363,0.234-0.756,0.375-1.194,0.359c-0.604-0.021-1.016-0.32-1.123-0.827
				c-0.052-0.255-0.062-0.216,0.18-0.216c0.772-0.004,1.551-0.006,2.322,0.002c0.125,0.002,0.158-0.038,0.153-0.155
				c-0.011-0.158-0.021-0.315-0.055-0.472c-0.297-1.502-1.95-1.854-2.989-1.209c-0.618,0.386-0.876,0.98-0.865,1.688
				c0.008,0.688,0.291,1.241,0.899,1.599c0.28,0.16,0.589,0.252,0.907,0.28c0.684,0.064,1.334-0.015,1.924-0.401
				c0.073-0.047,0.111-0.088,0.108-0.183c-0.008-0.198-0.001-0.399-0.001-0.637C483.057,39.354,482.977,39.406,482.896,39.459z
				 M480.698,38.15c-0.133,0.006-0.13-0.055-0.106-0.149c0.101-0.429,0.386-0.662,0.806-0.653c0.397,0.008,0.682,0.271,0.765,0.689
				c0.021,0.099-0.008,0.111-0.091,0.111c-0.229-0.004-0.459-0.002-0.687-0.002C481.154,38.146,480.925,38.143,480.698,38.15z
				 M543.24,39.4c-0.393,0.259-0.8,0.435-1.281,0.418c-0.614-0.02-1.03-0.322-1.138-0.852c-0.04-0.189-0.04-0.189,0.152-0.189
				c0.785,0,1.569,0,2.356-0.002c0.06,0,0.146,0.041,0.146-0.086c-0.002-0.651-0.186-1.229-0.713-1.646
				c-0.444-0.354-0.964-0.458-1.521-0.382c-0.729,0.101-1.271,0.462-1.527,1.157c-0.271,0.729-0.216,1.438,0.313,2.047
				c0.345,0.404,0.815,0.582,1.334,0.637c0.686,0.073,1.348-0.006,1.938-0.396c0.055-0.037,0.109-0.062,0.108-0.146
				c-0.005-0.215-0.002-0.432-0.002-0.679C543.336,39.334,543.288,39.367,543.24,39.4z M540.928,38.148
				c-0.091,0.004-0.11-0.031-0.095-0.114c0.072-0.417,0.377-0.688,0.782-0.688c0.421-0.002,0.713,0.262,0.799,0.691
				c0.016,0.098-0.016,0.111-0.094,0.111c-0.235-0.004-0.471-0.002-0.704-0.002C541.387,38.146,541.155,38.145,540.928,38.148z
				 M445.633,39.498c-0.343,0.216-0.715,0.332-1.126,0.32c-0.625-0.018-1.044-0.344-1.144-0.883
				c-0.026-0.139,0.003-0.166,0.137-0.164c0.786,0.01,1.57-0.002,2.354,0.011c0.156,0.002,0.188-0.054,0.167-0.188
				c-0.004-0.019-0.001-0.043-0.002-0.063c-0.038-0.764-0.343-1.375-1.063-1.698c-0.728-0.328-1.447-0.272-2.101,0.199
				c-0.567,0.415-0.771,1.016-0.732,1.702c0.04,0.721,0.381,1.248,1.031,1.563c0.488,0.236,1.015,0.261,1.547,0.213
				c0.417-0.041,0.805-0.17,1.154-0.405c0.056-0.037,0.102-0.07,0.098-0.153c-0.007-0.211-0.002-0.425-0.002-0.662
				C445.832,39.367,445.734,39.438,445.633,39.498z M443.467,38.148c-0.086,0.002-0.101-0.023-0.087-0.104
				c0.077-0.428,0.365-0.691,0.772-0.697c0.423-0.007,0.727,0.256,0.813,0.689c0.018,0.09-0.008,0.113-0.096,0.111
				c-0.233-0.006-0.467-0.002-0.703-0.002C443.933,38.146,443.7,38.145,443.467,38.148z M467.854,39.441
				c-0.425,0.285-0.886,0.426-1.402,0.361c-0.486-0.059-0.862-0.386-0.954-0.847c-0.022-0.122-0.021-0.188,0.151-0.188
				c0.733,0.014,1.473,0.008,2.205,0.008c0.313,0,0.313,0,0.297-0.309c-0.073-1.338-1.188-2.021-2.354-1.789
				c-0.891,0.178-1.442,0.805-1.539,1.703c-0.094,0.855,0.339,1.62,1.101,1.941c0.476,0.201,0.975,0.227,1.476,0.182
				c0.42-0.039,0.806-0.169,1.156-0.4c0.056-0.037,0.103-0.066,0.101-0.15c-0.006-0.212-0.002-0.426-0.002-0.67
				C467.986,39.35,467.922,39.396,467.854,39.441z M465.608,38.148c-0.086,0-0.106-0.016-0.093-0.11
				c0.071-0.427,0.367-0.693,0.791-0.69c0.403,0,0.728,0.28,0.786,0.687c0.013,0.082-0.001,0.118-0.097,0.116
				c-0.24-0.004-0.479-0.002-0.719-0.002C466.056,38.146,465.831,38.146,465.608,38.148z M504.729,39.63
				c-0.523,0.104-0.814-0.129-0.814-0.655c-0.002-0.432,0.004-0.863-0.003-1.293c-0.001-0.119,0.016-0.171,0.153-0.164
				c0.361,0.012,0.721-0.002,1.082,0.006c0.116,0.002,0.146-0.033,0.142-0.146c-0.009-0.173-0.009-0.353,0-0.524
				c0.007-0.114-0.029-0.148-0.146-0.146c-0.368,0.01-0.738,0-1.111,0.005c-0.093,0.003-0.12-0.021-0.118-0.115
				c0.006-0.306,0.002-0.611,0-0.914c0-0.048,0.033-0.111-0.028-0.129c-0.061-0.02-0.124-0.016-0.175,0.049
				c-0.485,0.545-0.974,1.088-1.461,1.629c-0.07,0.08-0.05,0.173-0.035,0.25c0.019,0.086,0.107,0.031,0.167,0.041
				c0.064,0.01,0.13,0.01,0.196,0c0.12-0.02,0.163,0.021,0.159,0.153c-0.009,0.524-0.015,1.048,0,1.571
				c0.018,0.496,0.2,0.921,0.688,1.129c0.605,0.264,1.213,0.173,1.808-0.063c0.053-0.02,0.056-0.058,0.056-0.104
				c-0.002-0.25-0.002-0.499-0.002-0.772C505.087,39.514,504.915,39.595,504.729,39.63z M530.439,39.626
				c-0.519,0.085-0.841-0.08-0.834-0.668c0.006-0.429,0.008-0.858-0.002-1.291c-0.003-0.127,0.036-0.153,0.157-0.151
				c0.361,0.01,0.73,0,1.097,0.006c0.092,0.002,0.119-0.025,0.119-0.121c-0.009-0.187-0.011-0.368,0-0.556
				c0.005-0.105-0.026-0.143-0.138-0.141c-0.364,0.005-0.729-0.002-1.094,0.003c-0.107,0.002-0.146-0.02-0.144-0.135
				c0.009-0.289,0.005-0.577,0-0.866c0-0.054,0.038-0.129-0.03-0.158c-0.076-0.03-0.142,0.013-0.197,0.074
				c-0.188,0.219-0.384,0.433-0.573,0.646c-0.281,0.313-0.558,0.631-0.841,0.938c-0.081,0.085-0.08,0.187-0.059,0.271
				c0.023,0.088,0.12,0.029,0.188,0.039c0.064,0.01,0.13,0.01,0.192,0c0.116-0.018,0.148,0.024,0.146,0.142
				c-0.005,0.524-0.008,1.047,0.002,1.569c0.013,0.652,0.356,1.103,0.965,1.244c0.519,0.119,1.017,0.045,1.505-0.147
				c0.046-0.019,0.077-0.046,0.077-0.107c-0.007-0.255-0.003-0.509-0.003-0.776C530.785,39.507,530.623,39.598,530.439,39.626z
				 M527.448,36.984c0.003-0.09-0.035-0.119-0.112-0.146c-0.477-0.146-0.955-0.24-1.461-0.186c-0.873,0.098-1.659,0.678-1.785,1.66
				c-0.104,0.787,0.188,1.582,0.992,1.965c0.781,0.369,1.574,0.293,2.365,0.02c0.067-0.021,0.06-0.066,0.06-0.113
				c0.002-0.209-0.007-0.418,0.002-0.625c0.009-0.135-0.035-0.133-0.145-0.09c-0.325,0.119-0.655,0.223-1.014,0.209
				c-0.502-0.021-0.923-0.373-1.001-0.863c-0.094-0.569,0.152-1.034,0.646-1.219c0.229-0.086,0.464-0.104,0.703-0.07
				c0.257,0.037,0.497,0.121,0.745,0.232C527.447,37.482,527.443,37.236,527.448,36.984z M537.51,36.848
				c0.002-0.104-0.021-0.146-0.135-0.145c-0.305,0.009-0.609,0.009-0.915,0.002c-0.104-0.005-0.139,0.025-0.138,0.136
				c0.003,1.159,0.003,2.322,0,3.481c-0.001,0.109,0.037,0.134,0.142,0.131c0.299-0.008,0.601-0.008,0.898,0
				c0.114,0.005,0.151-0.021,0.149-0.145c-0.009-0.396,0.003-0.795-0.005-1.192c-0.014-0.472,0.213-0.843,0.513-1.177
				c0.182-0.198,0.417-0.241,0.672-0.154c0.137,0.045,0.261,0.109,0.381,0.188c0.06,0.036,0.095,0.061,0.124-0.041
				c0.084-0.293,0.183-0.589,0.274-0.882c0.014-0.034,0.022-0.071-0.02-0.099c-0.282-0.201-0.568-0.393-0.945-0.289
				c-0.226,0.058-0.403,0.199-0.554,0.379c-0.169,0.202-0.293,0.436-0.444,0.662C537.507,37.418,537.505,37.134,537.51,36.848z
				 M470.128,36.834c0.004-0.104-0.027-0.128-0.128-0.127c-0.318,0.007-0.635,0.007-0.948,0c-0.094-0.001-0.12,0.023-0.12,0.121
				c0.004,1.167,0.004,2.334,0,3.501c0,0.098,0.021,0.132,0.125,0.13c0.312-0.01,0.621-0.012,0.934,0
				c0.123,0.005,0.142-0.043,0.14-0.15c-0.005-0.397,0.004-0.8-0.004-1.193c-0.008-0.487,0.224-0.864,0.541-1.196
				c0.146-0.153,0.341-0.198,0.556-0.151c0.176,0.041,0.326,0.123,0.478,0.211c0.06,0.037,0.091,0.049,0.118-0.033
				c0.088-0.303,0.187-0.602,0.279-0.899c0.015-0.039,0.01-0.065-0.029-0.097c-0.474-0.36-0.948-0.477-1.435,0.027
				c-0.205,0.215-0.339,0.476-0.505,0.728C470.126,37.413,470.122,37.123,470.128,36.834z M523.251,36.848
				c0.002-0.101-0.021-0.146-0.13-0.145c-0.315,0.009-0.633,0.007-0.947,0.002c-0.09-0.002-0.119,0.029-0.119,0.12
				c0.002,1.171,0.002,2.341-0.002,3.514c0,0.097,0.035,0.119,0.124,0.117c0.313-0.006,0.622-0.011,0.933,0
				c0.115,0.004,0.146-0.029,0.146-0.146c-0.007-0.569-0.004-1.146-0.004-1.716C523.249,38.014,523.247,37.432,523.251,36.848z
				 M489.909,36.854c0.003-0.125-0.035-0.152-0.154-0.148c-0.299,0.01-0.6,0.01-0.899,0c-0.108-0.003-0.136,0.029-0.136,0.139
				c0.003,1.158,0.003,2.319,0,3.48c0,0.113,0.037,0.132,0.14,0.131c0.307-0.008,0.609-0.008,0.914,0
				c0.108,0.005,0.137-0.027,0.134-0.133c-0.006-0.579-0.002-1.156-0.002-1.734C489.906,38.014,489.9,37.434,489.909,36.854z
				 M488.661,35.498c0,0.363,0.284,0.658,0.646,0.658c0.356,0.002,0.659-0.295,0.66-0.649c0.004-0.358-0.287-0.647-0.651-0.647
				C488.938,34.854,488.661,35.125,488.661,35.498z M522.652,36.156c0.358-0.006,0.653-0.301,0.651-0.656
				c-0.003-0.364-0.285-0.645-0.655-0.645c-0.373,0-0.646,0.271-0.645,0.648C522.005,35.87,522.292,36.161,522.652,36.156z"/>
			<path fill="#989898" d="M472.273,43.084c-0.113,0.007-0.231-0.01-0.344,0.016c-0.078,0.016-0.108-0.1-0.188-0.048
				c-0.16,0.113-0.336,0.021-0.521,0.06c0.033-0.09,0.104-0.053,0.143-0.079c-0.105-0.063-0.197-0.132-0.301-0.175
				c-0.097-0.037-0.223-0.127-0.286,0.052c-0.006,0.019-0.044,0.028-0.069,0.034c-0.127,0.022-0.361-0.086-0.433-0.213
				c-0.022-0.037-0.049-0.021-0.067-0.017c-0.06,0.013-0.12,0.021-0.176,0.036c-0.259,0.063-0.525,0.007-0.782,0.05
				c-0.137,0.023-0.271,0.045-0.35-0.116c-0.053,0.03-0.017,0.114-0.084,0.112c-0.058-0.002-0.063-0.055-0.07-0.097
				c-0.016-0.08-0.084-0.063-0.13-0.063c-0.088-0.004-0.104,0.099-0.15,0.149c-0.03,0.029,0.059,0.06,0.1,0.079
				c0.045,0.022,0.11,0.021,0.092,0.124c-0.152-0.072-0.316-0.081-0.467-0.129c-0.089-0.027-0.164-0.074-0.195-0.159
				c-0.026-0.072-0.06-0.068-0.12-0.058c-0.242,0.041-0.492,0.047-0.73-0.017c-0.396-0.104-0.797-0.038-1.193-0.002
				c-0.021,0.002-0.047,0.035-0.053,0.058c-0.036,0.121-0.105,0.101-0.193,0.057c-0.059-0.028-0.121-0.04-0.188-0.053
				c-0.329-0.06-0.674-0.021-0.995-0.135c-0.01,0.051-0.01,0.105-0.056,0.153c-0.181-0.177-0.411-0.194-0.647-0.185
				c-0.037,0.002-0.08-0.009-0.108,0.023c-0.088,0.107-0.206,0.109-0.325,0.087c-0.111-0.021-0.218-0.069-0.325-0.097
				c-0.098-0.022-0.195-0.078-0.299-0.008c0.034,0.049,0.121,0.072,0.09,0.144c-0.028,0.065-0.104,0.03-0.161,0.024
				c-0.171-0.02-0.344-0.039-0.515-0.059c0.018,0.006,0.032,0.016,0.02,0.028c-0.009,0.007-0.026-0.003-0.043-0.006
				c-0.058-0.005-0.133-0.112-0.161,0.041c-0.014,0.045-0.331-0.007-0.401-0.063c-0.011-0.008-0.017-0.022-0.024-0.036
				c-0.006,0.006-0.017,0.012-0.018,0.018c-0.035,0.111-0.106,0.053-0.168,0.033c-0.068-0.019-0.132-0.053-0.199-0.068
				c-0.093-0.021-0.201-0.049-0.159,0.145c-0.021-0.209-0.314-0.086-0.305-0.289c-0.069-0.041-0.141,0.154-0.188-0.022
				c-0.007-0.021-0.029-0.015-0.037-0.004c-0.099,0.131-0.149,0.007-0.224-0.037c-0.056-0.035-0.113-0.091-0.187-0.017
				c-0.029,0.031-0.073,0.021-0.082-0.006c-0.048-0.143-0.164-0.074-0.254-0.09c-0.035-0.006-0.101,0-0.102,0.057
				c-0.001,0.087,0.064,0.015,0.094,0.029c0.043,0.029,0.169-0.006,0.112,0.098c-0.051,0.104-0.208,0.154-0.289,0.146
				c-0.138-0.017-0.297-0.019-0.424-0.096c-0.07-0.045-0.126-0.063-0.229,0.016c0.064-0.215-0.057-0.219-0.159-0.188
				c-0.119,0.034-0.007,0.108,0.005,0.159c0.021,0.086-0.011,0.096-0.081,0.082c-0.137-0.037-0.237-0.135-0.355-0.198
				c-0.046-0.025-0.104-0.091-0.152-0.021c-0.064,0.091-0.135,0.065-0.218,0.05c-0.096-0.021-0.188-0.028-0.289,0.01
				c-0.071,0.027,0.021,0.111-0.063,0.119c-0.147,0.019-0.291,0.093-0.479,0.043c0.202-0.065,0.39-0.11,0.563-0.252
				c-0.134,0-0.234,0.012-0.334-0.004c-0.152-0.02-0.31-0.067-0.468-0.054c-0.115,0.011-0.224,0.022-0.146,0.209
				c-0.093-0.075-0.206-0.012-0.271-0.071c-0.069-0.065-0.099-0.028-0.117,0.021c-0.063,0.17-0.154,0.127-0.274,0.063
				c-0.065-0.039-0.128-0.127-0.229-0.062c-0.212,0.135-0.445,0.131-0.679,0.075c-0.188-0.047-0.38-0.096-0.565-0.155
				c-0.214-0.069-0.422-0.008-0.632,0.006c-0.131,0.239-0.265,0.022-0.396,0c-0.033-0.006-0.063-0.041-0.104-0.024
				c-0.028,0.08,0.019,0.147,0.036,0.233c-0.188-0.054-0.343-0.174-0.556-0.041c-0.108,0.069-0.313,0.058-0.47-0.024
				c-0.004,0.029-0.01,0.061-0.015,0.09c-0.097-0.059-0.186,0.027-0.28,0.025c-0.188-0.002-0.365-0.138-0.567-0.043
				c-0.052,0.023-0.054,0.092-0.139,0.092c-0.286,0.002-0.551,0.19-0.881,0.08c0.048,0.058,0.086,0.084,0.08,0.104
				c-0.012,0.036-0.052,0.025-0.086,0.021c-0.036-0.008-0.073-0.011-0.109-0.015c0.001,0.037,0.032,0.054,0.058,0.074
				c0.095,0.075-0.046,0.103-0.041,0.172c0.01,0.07-0.036,0.065-0.134-0.131c-0.003-0.005-0.012-0.005-0.022-0.007
				c-0.029,0.015-0.045,0.05-0.063,0.085c-0.021,0.038-0.062,0.048-0.097,0.03c-0.048-0.021-0.031-0.059-0.011-0.096
				c0.021-0.039,0.084-0.078,0.022-0.121c-0.053-0.041-0.117-0.027-0.163,0.02c-0.049,0.046-0.087,0.097-0.133,0.146
				c-0.098,0.101-0.188,0.217-0.355,0.18c-0.052-0.014-0.111,0.035-0.101,0.084c0.028,0.146-0.058,0.138-0.151,0.138
				c-0.093,0-0.188,0.015-0.276,0.013c-0.073-0.002-0.106,0.021-0.104,0.102c0.004,0.074,0.027,0.107,0.105,0.103
				c0.065-0.004,0.133,0,0.199,0c-0.175,0.074-0.016,0.354-0.259,0.354c0.026,0.017,0.036,0.025,0.048,0.029
				c0.06,0.021,0.145,0.024,0.151,0.104c0.014,0.104-0.089,0.068-0.145,0.086c-0.12,0.037-0.044,0.143-0.077,0.206
				c-0.033,0.067,0.037,0.083,0.08,0.098c0.162,0.06,0.334,0.089,0.487,0.175c0.021,0,0.046,0,0.063,0
				c-0.085-0.127-0.085-0.127,0.036-0.17c0.016-0.003,0.026-0.019,0.028-0.029c0.016-0.178,0.121-0.096,0.188-0.053
				c0.14,0.088,0.156,0.012,0.163-0.099c-0.005-0.013-0.007-0.022-0.012-0.035c0.012,0.007,0.022,0.009,0.035,0.013
				c0.116,0.045,0.225-0.02,0.339-0.02c0.024,0,0.039-0.012,0.036-0.038c-0.019-0.185,0.103-0.114,0.195-0.108
				c0.044,0.004,0.069,0.073,0.126,0.025c0.12-0.097,0.224-0.284,0.416-0.1c0.009,0.009,0.038-0.006,0.056-0.016
				c0.121-0.047,0.248-0.039,0.374-0.027c0.144,0.007,0.188-0.055,0.137-0.188c-0.013-0.03-0.021-0.063-0.037-0.088
				c-0.018-0.026-0.016-0.053,0.014-0.069c0.022-0.019,0.053-0.016,0.07,0.012c0.036,0.05,0.066,0.1,0.104,0.147
				c0.03,0.039,0.067,0.084,0.12,0.052c0.052-0.031,0.01-0.063-0.02-0.086c-0.021-0.022-0.012-0.046,0.015-0.05
				c0.139-0.032,0.236-0.153,0.383-0.175c0.055-0.006,0.107-0.006,0.146,0.048c0.035,0.054-0.006,0.084-0.031,0.115
				c-0.023,0.028-0.038,0.055,0.003,0.078c0.025,0.02,0.071,0.046,0.086,0.02c0.104-0.22,0.229-0.063,0.338-0.02
				c0.094,0.038,0.174,0.116,0.273,0.141c0.104,0.022,0.176,0.013,0.111-0.121c-0.006-0.007-0.018-0.016-0.018-0.016
				c0.014-0.019,0.021-0.013,0.026,0.005l0.396,0.154c0.097-0.135,0.244-0.104,0.378-0.121c0.085-0.014,0.177-0.042,0.223-0.12
				c0.056-0.087,0.096-0.052,0.152-0.007c0.095,0.074,0.205,0.121,0.326,0.131c0.14,0.006,0.197-0.094,0.131-0.217
				c-0.02-0.029-0.059-0.086-0.049-0.086c0.278-0.01,0.29,0.006,0.171,0.24c-0.053,0.099-0.02,0.153,0.072,0.188
				c0.02,0.009,0.047,0.009,0.057-0.017c0.018-0.035-0.001-0.052-0.037-0.052c-0.038,0.007-0.064-0.002-0.064-0.047
				c0-0.051,0.04-0.071,0.073-0.075c0.069-0.011,0.143-0.007,0.209,0.004c0.095,0.01,0.185,0.03,0.036,0.19
				c0.274-0.136,0.497-0.215,0.738-0.218c0.093-0.004,0.186-0.014,0.229-0.119c0.016-0.032,0.054-0.051,0.081-0.028
				c0.112,0.095,0.152,0.056,0.158-0.073c0.002-0.023,0.054-0.043,0.068-0.023c0.118,0.156,0.253,0.002,0.365-0.007
				c0.127-0.009,0.203-0.001,0.267,0.104c0,0.003-0.002,0.003-0.002,0.003c0.002,0,0.005,0,0.007,0l-0.005-0.003
				c0.111,0.007,0.188,0.101,0.292,0.119c0.059,0.017,0.178,0.03,0.17-0.019c-0.028-0.182,0.093-0.086,0.146-0.092
				c0.132-0.012,0.263-0.01,0.396-0.012c0.263-0.004,0.262-0.002,0.313,0.252c0.012,0.047,0.021,0.098-0.014,0.123
				c-0.046,0.037-0.056-0.033-0.087-0.047c-0.065-0.033-0.122,0.006-0.188,0.016c0.056,0.154,0.165,0.156,0.295,0.139
				c0.14-0.018,0.271-0.202,0.425-0.02c0.001,0.002,0.013,0,0.016-0.004c0.091-0.178,0.107-0.043,0.138,0.034
				c0.017,0.03,0.033,0.013,0.055,0.009c0.082-0.027,0.168-0.033,0.251-0.092c-0.128-0.121-0.237-0.255-0.438-0.268
				c0.064-0.03,0.058-0.146,0.117-0.121c0.139,0.057,0.155-0.158,0.236-0.107c0.065,0.045,0.051,0.182,0.147,0.23
				c0.004,0.005,0.011,0.006,0.016,0.011c0.081,0.119,0.236,0.108,0.337,0.188c0.066,0.058,0.134,0.064,0.209,0.043
				c0.15-0.047,0.304-0.091,0.473-0.095c-0.056-0.08-0.142-0.118-0.146-0.22c0.037,0,0.075,0.001,0.112,0
				c0.054-0.004,0.076-0.039,0.091-0.082c0.019-0.048-0.01-0.071-0.046-0.091c-0.046-0.025-0.094-0.048-0.138-0.019
				c-0.048,0.035-0.048,0.096-0.063,0.146c-0.035,0.123-0.134,0.152-0.194,0.057c-0.072-0.113-0.17-0.188-0.289-0.242
				c0.246-0.012,0.486-0.006,0.727-0.017c0.104-0.005,0.148,0.028,0.169,0.126c0.019,0.098,0.067,0.18,0.153,0.215
				c-0.104,0.125,0.019,0.184,0.074,0.291c-0.002-0.188,0.068-0.15,0.146-0.096c0.046-0.049-0.126-0.18,0.062-0.158
				c0.146,0.016,0.26-0.037,0.304-0.172c0.034-0.104,0.13-0.104,0.175-0.053c0.115,0.123,0.262,0.19,0.396,0.287
				c0.048,0.03,0.037,0.108,0.078,0.119c0.203,0.063,0.289-0.005,0.304-0.24c0.003-0.053,0.025-0.107,0.069-0.08
				c0.107,0.072,0.263,0.004,0.35,0.129c0.017-0.16,0.108-0.148,0.214-0.107c0.096,0.037,0.178,0.127,0.299,0.096
				c-0.026-0.031-0.079-0.051-0.052-0.096c0.021-0.037,0.054-0.008,0.086,0c0.152,0.028,0.277,0.121,0.435,0.139
				c-0.016-0.043-0.057-0.053-0.088-0.074c-0.029-0.024-0.085-0.039-0.05-0.102c0.037-0.065,0.097-0.068,0.152-0.035
				c0.034,0.02,0.112,0.018,0.075,0.098c-0.02,0.037-0.031,0.078-0.048,0.115c0.032-0.008,0.079,0.027,0.104-0.012
				c0.11-0.178,0.233-0.064,0.358-0.022c0.036,0.016,0.065,0.063,0.12,0.021c-0.015-0.023-0.025-0.049-0.038-0.07
				c-0.021-0.041-0.121,0.019-0.1-0.063c0.021-0.074,0.099-0.045,0.154-0.05c0.068-0.006,0.14,0.056,0.221,0
				c-0.042-0.032-0.075-0.051-0.102-0.079c-0.03-0.031-0.11-0.04-0.086-0.099c0.018-0.037,0.078-0.055,0.122-0.073
				c0.016-0.011,0.041-0.009,0.063-0.011c0.354-0.02,0.699,0.009,1.054,0.135c-0.064,0.037-0.12,0.076-0.104,0.148
				c0.017,0.088,0.1,0.068,0.154,0.09c0.164,0.061,0.33-0.008,0.498,0.013c0.07,0.008,0.184,0.032,0.188-0.062
				c0.011-0.117-0.114-0.01-0.159-0.058c0.003,0.08-0.052,0.063-0.097,0.054c-0.191-0.031-0.308-0.156-0.396-0.336
				c0.156-0.015,0.29-0.015,0.429,0.053c0.188,0.088,0.387,0.104,0.565-0.039c0.079-0.059,0.153-0.051,0.188,0.061
				c0.029,0.087,0.053,0.182,0.147,0.227c0.03,0.016,0.065,0.021,0.094,0.002c0.03-0.025,0-0.052-0.014-0.07
				c-0.05-0.09,0.055-0.075,0.08-0.105c-0.021-0.055-0.091-0.064-0.104-0.14c0.36,0.017,0.729-0.082,1.063,0.128
				c0.056,0.033,0.154,0.098,0.194,0.02c0.034-0.069-0.092-0.063-0.13-0.11c-0.01-0.015-0.012-0.027-0.033-0.078
				c0.445,0.073,0.879-0.095,1.298,0.081c0.018,0.005,0.045-0.012,0.059-0.021c0.07-0.07,0.166-0.076,0.244-0.054
				c0.188,0.054,0.378-0.063,0.56,0.035c0.02,0.014,0.061,0.012,0.08-0.002c0.188-0.118,0.393-0.025,0.586-0.052
				c0.367-0.043,0.743-0.018,1.114-0.021c0.072,0,0.125-0.007,0.119-0.104C472.391,43.104,472.352,43.078,472.273,43.084z
				 M450.474,44.032c-0.066-0.005-0.089-0.05-0.1-0.105c-0.011-0.073,0.038-0.063,0.087-0.063c0.072-0.019,0.085,0.029,0.086,0.091
				C450.55,44.009,450.527,44.032,450.474,44.032z M450.897,43.959c-0.061-0.016-0.087-0.053-0.087-0.096
				c0.003-0.069,0.063-0.1,0.121-0.114c0.052-0.015,0.068,0.053,0.062,0.071C450.971,43.871,450.931,43.915,450.897,43.959z
				 M452.908,43.684c-0.063,0.043-0.11-0.017-0.164-0.023c-0.023-0.006-0.049-0.018-0.085-0.032c0.026-0.021,0.041-0.036,0.06-0.044
				c0.072-0.027,0.132,0.018,0.189,0.047C452.93,43.639,452.93,43.667,452.908,43.684z M455.898,42.746
				c-0.045,0.005-0.071-0.021-0.071-0.066c0.001-0.033,0.028-0.053,0.063-0.058c0.044,0.002,0.073,0.026,0.083,0.063
				C455.98,42.734,455.933,42.742,455.898,42.746z M461.644,43.568c-0.012,0.011-0.048,0.009-0.042-0.026
				c0.003-0.019,0.019-0.033,0.021-0.042c0.04-0.02,0.042,0.007,0.041,0.02C461.661,43.535,461.657,43.563,461.644,43.568z
				 M466.821,43.104c-0.017,0.004-0.032,0-0.048,0.004c-0.132,0.035-0.237,0.007-0.324-0.116c0.063-0.024,0.105,0.003,0.149,0.026
				c0.114,0.066,0.196,0.086,0.176-0.095c0.053-0.013,0.073,0.024,0.102,0.052c0.026,0.024,0.067,0.053,0.055,0.094
				C466.916,43.128,466.859,43.091,466.821,43.104z M469.909,43.115c-0.07-0.004-0.14-0.033-0.157-0.098
				c-0.023-0.084,0.063-0.021,0.095-0.055c0.113-0.119,0.206-0.089,0.271,0.067c0.012,0.024,0.033,0.05,0.062,0.085
				C470.07,43.117,469.989,43.119,469.909,43.115z"/>
			<path fill="#DADADA" d="M459.038,14.198c1.133-0.006,2.131,0.193,3.052,0.705c1.159,0.645,1.924,1.613,2.289,2.887
				c0.354,1.231,0.341,2.466-0.08,3.678c-0.498,1.442-1.484,2.443-2.923,2.957c-1.655,0.592-3.316,0.559-4.922-0.172
				c-1.484-0.673-2.367-1.861-2.705-3.444c-0.267-1.244-0.188-2.474,0.331-3.646c0.669-1.508,1.865-2.394,3.444-2.788
				C458.052,14.246,458.586,14.189,459.038,14.198z"/>
		</g>
		<g>
			<path fill="#989898" d="M704.468,9.291v38.734h-41.051V46.68c0.016,0.053,0.033,0.115,0.039,0.147
				c10.553-2.966,20.968-6.496,31.045-10.816c-0.086,0.015-0.173,0.029-0.259,0.048c-5.926,1.103-11.845,2.297-17.676,3.821
				c-2.944,0.754-5.896,1.513-8.801,2.411c-1.396,0.406-2.771,0.878-4.174,1.264c-0.076,0.021-0.116,0.068-0.173,0.104v-1.414
				c0,0.008,0.005,0.01,0.005,0.014c5.692-1.49,11.248-3.515,16.799-5.467c2.845-1.034,5.653-2.146,8.475-3.245
				c2.577-1.08,5.949-1.938,8.179-3.521c-0.072,0.016-0.146,0.031-0.218,0.048c-6.293,1.323-12.487,3.024-18.68,4.753
				c-2.974,0.877-5.916,1.846-8.866,2.787c-1.537,0.525-3.067,1.064-4.609,1.578c-0.282,0.093-0.678,0.225-1.082,0.386v-1.513
				c0.005,0.056,0.009,0.115,0.011,0.153c12.864-3.934,24.563-8.454,36.137-14.003c-0.12,0.03-0.24,0.062-0.359,0.091
				c-6.554,1.6-12.989,3.604-19.414,5.647c-3.13,1.013-6.218,2.142-9.3,3.287c-1.595,0.632-3.205,1.223-4.799,1.861
				c-0.756,0.299-1.538,0.567-2.275,0.91v-1.527c0.002,0.008,0.017,0.008,0.017,0.015c13.074-4.084,25.982-9.348,38.163-15.608
				c0.112-0.055,0.226-0.114,0.34-0.17c-0.121,0.035-0.244,0.069-0.364,0.104c-6.648,1.875-13.17,4.127-19.678,6.436
				c-3.194,1.199-6.373,2.43-9.521,3.741c-1.62,0.654-3.21,1.366-4.814,2.055c-0.418,0.187-2.418,1.018-4.138,1.857v-1.697
				c12.746-4.354,25.289-9.746,37.252-15.951c1.473-0.764,2.757-1.61,3.443-1.835c-12.876,4.236-25.385,9.326-37.572,15.262
				c-0.473,0.234-2.022,1.011-3.122,1.557v-1.993c12.284-4.607,24.545-9.767,36.021-16.161
				C700.019,11.795,703.021,10.188,704.468,9.291z M704.468,8.977V6.976h-2.418c0.027,0.001,0.064,0.005,0.092,0.005
				c-0.269,0.15-0.528,0.307-0.798,0.458c-11.322,6.347-22.916,12.19-34.954,17.071c-0.11,0.046-0.223,0.093-0.334,0.136
				c1.117-0.667,2.226-1.346,3.344-2.01c5.633-3.274,11.339-6.384,17.126-9.378c2.842-1.458,5.719-2.865,8.632-4.181
				c1.474-0.695,2.961-1.367,4.444-2.043c0.065-0.031,0.163-0.037,0.243-0.056h-3.462c-4.159,2.647-8.686,4.795-13.035,7.11
				c-4.452,2.285-8.937,4.509-13.488,6.592c-0.258,0.121,0.998-0.681,1.286-0.866c0.588-0.382,1.184-0.75,1.773-1.127
				c1.205-0.737,2.387-1.51,3.603-2.234c2.396-1.478,4.819-2.919,7.271-4.307c2.256-1.321,6.701-3.762,9.2-5.166h-1.673
				c-9.646,5.625-15.716,8.746-17.908,9.842c2.366-1.59,4.05-2.765,4.516-3.088c1.638-1.074,3.256-2.179,4.918-3.212
				c1.581-1.001,3.817-2.464,5.489-3.541h-1.313c0.025,0,0.063,0.004,0.086,0.005c-3.342,2.018-6.699,3.995-10.077,5.945
				c-0.242,0.138,0.817-0.63,1.039-0.794c0.452-0.329,0.905-0.657,1.356-0.984c0.952-0.691,1.906-1.38,2.878-2.045
				c0.964-0.684,1.938-1.348,2.897-2.033c0.07-0.049,0.177-0.069,0.279-0.094h-22.067v21.085c1.194-0.735,4.369-2.438,5.022-2.774
				C679.748,19.134,692.337,13.405,704.468,8.977z"/>
			<path fill="#575756" d="M678.285,46.518l2.212-9.963h2.749l-1.188,5.275l2.211-2.639h3.018l-2.691,3.285l1.131,4.039h-2.749
				l-1.131-3.824l-0.861,3.824h-2.699V46.518z M668.429,41.508l1.938,5.012h2.638l2.212-9.965h-2.691l-1.133,5.063l-1.885-5.063
				h-2.748l-2.208,9.965h2.745C667.621,44.9,668.051,43.23,668.429,41.508L668.429,41.508z M676.992,46.518l1.618-7.324h-2.641
				l-1.67,7.324H676.992L676.992,46.518z M676.079,37.575c0,0.218,0.054,1.022,1.51,1.022c1.237,0,1.724-0.756,1.724-1.348
				c0-0.379-0.324-1.081-1.562-1.081C676.671,36.175,676.079,36.93,676.079,37.575L676.079,37.575z M701.882,39.083
				c-1.185-0.325-2.586,0.215-3.285,1.187c0.054-0.271,0.16-0.646,0.218-1.024h-2.694l-1.615,7.272h2.692l0.915-4.146
				c0.16-0.755,0.806-1.079,1.349-0.916c0.215,0.053,0.536,0.218,0.43,0.863l-0.914,4.199h2.688l1.188-5.604
				C703.121,39.677,702.096,39.141,701.882,39.083L701.882,39.083z M692.777,45.871c1.185-0.971,1.724-2.588,1.724-4.146
				c0-1.455-1.238-2.856-3.445-2.856c-4.098,0-4.688,3.233-4.851,3.823c-0.271,1.455,0.053,3.396,1.992,3.879
				C689.491,46.95,691.486,46.896,692.777,45.871L692.777,45.871z M689.762,41.615c0.161-0.537,0.698-0.646,0.914-0.646
				c0.594-0.054,0.755,0.323,0.7,0.646c-0.106,0.915-0.43,2.102-0.536,2.479l0,0c-0.162,0.376-0.539,0.646-0.974,0.646
				c-0.482,0-0.752-0.325-0.697-0.646C689.222,43.448,689.601,41.885,689.762,41.615L689.762,41.615z"/>
		</g>
		<g>
			<path fill="#989898" d="M884.813,14.56c-0.31,0.155-0.612,0.308-0.92,0.461c-0.009-0.161-0.028-0.325-0.017-0.483
				c0.021-0.238-0.08-0.289-0.301-0.292c-0.949-0.014-0.941-0.021-0.938,0.931c0.005,0.24,0.074,0.346,0.313,0.33
				c-0.383,0.346-0.883,0.519-1.254,0.879c-0.162,0.009-0.322,0.017-0.486,0.024c-0.699,0.038-0.699,0.04-0.76,0.713
				c-0.304,0.182-0.604,0.36-0.906,0.54c-0.002-0.335-0.008-0.67-0.006-1.007c0.002-0.14-0.021-0.223-0.193-0.247
				c-0.998-0.126-1.068-0.068-1.053,0.92c0,0.025,0.004,0.051,0,0.075c-0.021,0.192,0.055,0.266,0.254,0.258
				c0.334-0.013,0.67-0.007,1.008-0.007c-0.352,0.336-0.814,0.528-1.143,0.896c-0.045,0.028-0.09,0.057-0.133,0.085
				c-0.3,0.174-0.6,0.348-0.896,0.522c-0.018-0.307,0.072-0.628-0.473-0.587c-0.797,0.058-0.777,0.015-0.806,0.813
				c-0.015,0.36,0.099,0.498,0.444,0.457c-0.422,0.381-0.86,0.738-1.338,1.047c-0.338-0.172-0.701-0.137-1.063-0.129
				c-0.155,0.003-0.222,0.069-0.216,0.228c0.018,0.336,0.021,0.672,0.031,1.009c-0.322,0.313-0.646,0.624-0.969,0.936
				c-0.394,0.007-0.906-0.162-1.146,0.062c-0.258,0.245-0.07,0.772-0.094,1.174c-1.158,1.155-2.203,2.409-3.19,3.713
				c-0.479-0.22-0.97-0.397-1.506-0.396c-2.864,0.004-5.729-0.005-8.595,0.01c-1.541,0.009-2.744,1.231-2.75,2.78
				c-0.008,1.927-0.002,3.853,0.002,5.776c0.002,0.199,0.013,0.403,0.056,0.597c0.284,1.27,1.416,2.168,2.75,2.175
				c2.063,0.014,4.128,0.015,6.188,0.018c0.222,1.724,0.969,3.175,2.211,4.378c-2.791,1.108-5.668,1.903-8.633,2.396
				c-2.008,0.336-4.027,0.463-6.055,0.357c-2.5-0.131-4.919-0.617-7.012-2.101c-2.368-1.681-3.331-4.026-3.116-6.892
				c0.22-2.862,1.419-5.356,2.95-7.711c2.146-3.292,4.854-6.076,7.884-8.547c5.729-4.671,12.119-8.118,19.212-10.234
				c3.063-0.913,6.189-1.485,9.4-1.505c2.492-0.018,4.938,0.273,7.227,1.367c0.771,0.369,1.473,0.842,2.111,1.406
				c-1.58,0.634-3.146,1.3-4.672,2.061c-0.23,0.116-0.451,0.257-0.674,0.389c-0.135,0.014-0.272,0.046-0.408,0.034
				C884.898,14.223,884.803,14.329,884.813,14.56z M874.539,17.662c0.643,0,0.643,0,0.646-0.608
				c0.003-0.637,0.003-0.637-0.616-0.637c-0.629,0-0.629,0-0.634,0.631C873.938,17.66,873.938,17.66,874.539,17.662z M876.74,17.662
				c0.621-0.002,0.621-0.002,0.621-0.626c0-0.617,0-0.624-0.636-0.617c-0.69,0.007-0.604-0.124-0.61,0.609
				C876.107,17.662,876.113,17.662,876.74,17.662z M873.01,19.208c0-0.621,0-0.621-0.633-0.621c-0.617,0-0.617,0-0.619,0.61
				c-0.002,0.635-0.002,0.635,0.627,0.635C873.01,19.832,873.01,19.832,873.01,19.208z M874.582,19.832
				c0.604-0.001,0.604-0.001,0.604-0.571c0-0.667,0-0.669-0.694-0.669c-0.633,0.003-0.541-0.098-0.556,0.553
				c0,0.013,0,0.025,0,0.037C873.938,19.833,873.938,19.833,874.582,19.832z M873.008,21.384c0-0.627,0-0.627-0.623-0.627
				c-0.625,0-0.625,0-0.623,0.645c0.002,0.605,0.002,0.605,0.619,0.604C873.01,22.007,873.01,22.007,873.008,21.384z
				 M873.008,12.729c0-0.657,0-0.657-0.66-0.653c-0.109,0-0.221,0.01-0.334,0c-0.203-0.021-0.262,0.077-0.25,0.26
				c0.008,0.099-0.002,0.199-0.002,0.297c-0.002,0.676-0.002,0.676,0.656,0.675C873.01,13.306,873.01,13.306,873.008,12.729z
				 M874.549,13.308c0.641,0,0.641,0,0.639-0.621c-0.003-0.614-0.003-0.614-0.609-0.611c-0.641,0-0.641,0-0.639,0.62
				C873.938,13.308,873.938,13.308,874.549,13.308z M881.719,12.686c0-0.613,0-0.613-0.594-0.61c-0.014,0-0.025,0-0.037,0
				c-0.619,0-0.619,0-0.619,0.603c0,0.632,0,0.632,0.629,0.629C881.719,13.306,881.719,13.306,881.719,12.686z M873.01,14.867
				c-0.002-0.622-0.002-0.622-0.621-0.619c-0.053,0-0.102,0.007-0.148-0.002c-0.398-0.074-0.535,0.107-0.479,0.485
				c0.005,0.036,0,0.075,0,0.112c-0.002,0.637-0.002,0.637,0.617,0.637C873.01,15.48,873.01,15.48,873.01,14.867z M875.186,14.89
				c0-0.636,0-0.636-0.649-0.64c-0.127,0-0.252,0.006-0.375-0.002c-0.164-0.01-0.23,0.058-0.222,0.219
				c0.005,0.114-0.004,0.225-0.004,0.339c-0.003,0.678-0.003,0.678,0.661,0.678C875.186,15.48,875.186,15.48,875.186,14.89z
				 M876.723,15.482c0.641,0,0.641,0,0.641-0.581c0.002-0.657,0.002-0.657-0.639-0.658c-0.607,0-0.607,0-0.607,0.619
				C876.113,15.482,876.113,15.482,876.723,15.482z M873.01,17.051c0.002-0.635,0.002-0.635-0.65-0.635
				c-0.074,0-0.15,0.011-0.225-0.001c-0.297-0.046-0.416,0.075-0.377,0.37c0.014,0.074,0.002,0.151,0.002,0.224
				c-0.002,0.652-0.002,0.652,0.646,0.652C873.01,17.66,873.01,17.66,873.01,17.051z M881.719,14.909c0-0.664,0-0.664-0.654-0.661
				c-0.123,0-0.248,0.007-0.373,0c-0.16-0.01-0.229,0.061-0.221,0.221c0.01,0.11-0.002,0.223-0.002,0.335
				c-0.002,0.678-0.002,0.678,0.691,0.677C881.719,15.48,881.719,15.48,881.719,14.909z M879.541,14.864
				c0-0.618,0-0.618-0.639-0.618c-0.609-0.001-0.613-0.001-0.607,0.583c0.004,0.775-0.063,0.646,0.496,0.652
				C879.541,15.49,879.541,15.482,879.541,14.864z M876.754,13.308c0.607,0,0.607,0,0.607-0.604c0-0.625,0-0.625-0.623-0.627
				c-0.625-0.001-0.625-0.001-0.625,0.605C876.113,13.309,876.113,13.309,876.754,13.308z M878.936,13.308
				c0.604,0,0.604,0,0.604-0.575c-0.002-0.657-0.002-0.657-0.676-0.657c-0.572,0-0.572,0-0.572,0.575
				C878.295,13.31,878.295,13.31,878.936,13.308z M886.053,12.681c-0.002-0.603-0.002-0.603-0.616-0.605
				c-0.61-0.001-0.61-0.001-0.61,0.608c0,0.623,0,0.623,0.6,0.623C886.053,13.306,886.053,13.306,886.053,12.681z M883.873,12.686
				c0-0.609,0-0.609-0.572-0.613c-0.652-0.001-0.652-0.001-0.652,0.644c0.002,0.591,0.002,0.591,0.596,0.591
				C883.875,13.308,883.875,13.308,883.873,12.686z M866.328,31.548c-0.223-0.725-0.453-0.971-0.965-0.973
				c-1.765-0.009-3.527-0.011-5.291,0c-0.609,0.002-0.89,0.286-0.931,0.894c-0.003,0.022-0.003,0.051-0.003,0.074
				c-0.002,1.188-0.01,2.378-0.002,3.564c0.009,0.646,0.271,0.957,0.85,0.963c1.59,0.011,3.176-0.002,4.766-0.008
				c0.094-0.44,0.188-0.888,0.283-1.33c-0.812-0.006-1.625-0.021-2.438-0.012c-0.268,0.004-0.37-0.052-0.357-0.35
				c0.025-0.549,0.021-1.102,0-1.648c-0.011-0.283,0.071-0.354,0.354-0.354c1.113,0.015,2.227-0.004,3.34-0.011
				C866.029,32.073,866.174,31.811,866.328,31.548z M865.273,36.083c0.705-0.004,0.988-0.29,1.045-0.983
				c0.02-0.313-0.072-0.42-0.386-0.389c-0.3,0.028-0.601,0.018-0.897,0.021c-0.094,0.441-0.188,0.888-0.283,1.33
				C864.926,36.073,865.1,36.083,865.273,36.083z"/>
			<path fill="#7C7C7B" d="M890.896,11.76c1.797-0.646,3.604-1.258,5.461-1.719c3.123-0.774,6.286-1.216,9.508-1.008
				c2.434,0.156,4.787,0.658,6.819,2.11c2.345,1.672,3.291,4.003,3.093,6.835c-0.203,2.88-1.422,5.383-2.957,7.753
				c-1.912,2.955-4.302,5.494-6.965,7.775c-5.596,4.789-11.896,8.33-18.893,10.628c-2.627,0.863-5.313,1.495-8.076,1.745
				c-2.801,0.251-5.596,0.232-8.316-0.638c-1.354-0.433-2.563-1.109-3.646-2.021c-1.244-1.204-1.994-2.657-2.213-4.379
				c0.799-0.006,1.601,0.002,2.396-0.021c1.586-0.047,2.743-1.228,2.764-2.81c0.014-1.086-0.01-2.175,0.016-3.259
				c0.007-0.33-0.104-0.383-0.398-0.381c-1.188,0.013-2.373-0.006-3.557-0.012c0.098-0.289,0.242-0.551,0.396-0.813
				c1.09,0.003,2.178,0.005,3.266,0.005c0.129,0,0.273,0.051,0.289-0.179c0.094-1.367-0.055-2.638-1.313-3.492
				c0.984-1.303,2.031-2.555,3.188-3.711c0.408-0.008,0.943,0.18,1.188-0.076c0.223-0.234,0.057-0.764,0.051-1.161
				c0.324-0.312,0.646-0.623,0.969-0.935c0.324,0.002,0.648-0.007,0.972,0.009c0.202,0.011,0.254-0.073,0.252-0.26
				c-0.006-0.286,0.017-0.572,0.024-0.858c0.478-0.311,0.916-0.666,1.338-1.047c0.781-0.04,0.781-0.04,0.83-0.683
				c0.302-0.174,0.601-0.348,0.898-0.521c0.006,0.326,0.016,0.649,0.014,0.973c-0.002,0.154,0.047,0.212,0.213,0.226
				c1.029,0.089,1.078,0.05,1.037-0.975c0-0.014-0.002-0.026,0-0.037c0.027-0.182-0.057-0.241-0.231-0.241
				c-0.297,0-0.601-0.021-0.896-0.032c0.326-0.369,0.791-0.561,1.144-0.897l-0.009,0.007c0.302-0.18,0.604-0.36,0.906-0.54
				c0.037,0.536,0.037,0.536,0.582,0.536c0.149,0,0.299-0.009,0.449,0.002c0.174,0.012,0.247-0.05,0.237-0.232
				c-0.019-0.347-0.019-0.696-0.022-1.045c0.371-0.36,0.873-0.533,1.254-0.879c0.147-0.007,0.297-0.038,0.44-0.018
				c0.371,0.052,0.545-0.085,0.498-0.467c0.31-0.154,0.612-0.307,0.922-0.461c0.002,0.124,0.011,0.25,0.011,0.374
				c0.002,0.549,0.002,0.549,0.563,0.548c0.653,0,0.653,0,0.661-0.671c0.002-0.548,0.002-0.548-0.498-0.601
				c0.227-0.128,0.441-0.273,0.677-0.389C887.75,13.061,889.314,12.393,890.896,11.76z M878.818,27.565L878.818,27.565
				c-1.677,0.002-3.355-0.002-5.031,0.002c-1.594,0.004-2.814,1.16-2.826,2.744c-0.021,2.739-0.006,5.481-0.012,8.224
				c0,0.229,0.072,0.295,0.299,0.293c0.902-0.009,1.803-0.021,2.705,0.008c0.379,0.013,0.496-0.082,0.492-0.483
				c-0.021-2.478-0.004-4.955-0.015-7.434c0-0.291,0.045-0.423,0.377-0.406c0.603,0.026,1.205,0.026,1.804,0.002
				c0.326-0.019,0.385,0.1,0.383,0.397c-0.012,2.526-0.002,5.06-0.012,7.588c-0.002,0.257,0.063,0.339,0.327,0.334
				c0.914-0.017,1.827-0.021,2.741,0.002c0.359,0.011,0.482-0.06,0.479-0.459c-0.021-2.504-0.008-5.008-0.02-7.51
				c-0.002-0.285,0.072-0.364,0.354-0.355c0.576,0.021,1.154,0.031,1.727-0.004c0.395-0.022,0.494,0.093,0.49,0.486
				c-0.018,2.489-0.01,4.983-0.01,7.473c0,0.183-0.061,0.37,0.26,0.361c1.025-0.019,2.053-0.009,3.08-0.002
				c0.201,0.002,0.254-0.071,0.254-0.263c-0.008-2.739,0.021-5.483-0.016-8.223c-0.021-1.635-1.25-2.777-2.881-2.777
				C882.123,27.563,880.471,27.565,878.818,27.565z M895.055,27.583L895.055,27.583c-1.553-0.002-3.104-0.012-4.656,0.002
				c-1.535,0.015-2.795,1.188-2.811,2.656c-0.018,2.769-0.006,5.536-0.01,8.304c0,0.2,0.041,0.286,0.266,0.284
				c1.104-0.011,2.203-0.011,3.307,0c0.223,0.004,0.273-0.077,0.27-0.281c-0.014-0.426,0.021-0.854-0.012-1.278
				c-0.027-0.346,0.084-0.433,0.426-0.432c2.617,0.014,5.232,0.012,7.85-0.003c1.477-0.008,2.707-1.172,2.754-2.629
				c0.043-1.289,0.045-2.582,0.008-3.868c-0.055-1.609-1.27-2.748-2.877-2.753C898.061,27.579,896.557,27.583,895.055,27.583z
				 M873.936,23.51c-0.002,0.671-0.002,0.671,0.666,0.672c0.013,0,0.024,0,0.039,0c0.545,0,0.545,0,0.547-0.561
				c0.003-0.693,0.003-0.693-0.679-0.691C873.938,22.933,873.938,22.933,873.936,23.51z M876.764,22.931
				c-0.652,0.001-0.652,0.001-0.648,0.651c0,0.6,0,0.6,0.586,0.6c0.664,0,0.664,0,0.664-0.669
				C877.361,22.93,877.361,22.93,876.764,22.931z M878.939,22.931c-0.648,0.001-0.648,0.001-0.648,0.613
				c0,0.638,0,0.638,0.621,0.638c0.631,0,0.631,0,0.631-0.634C879.541,22.93,879.541,22.93,878.939,22.931z M881.084,24.182
				c0.635,0,0.635,0,0.635-0.622c0-0.014,0-0.025,0-0.038c0-0.59,0-0.59-0.59-0.59c-0.662,0-0.662,0-0.662,0.639
				C880.465,24.182,880.465,24.182,881.084,24.182z M883.275,24.182c0.596,0.001,0.596,0.001,0.596-0.583
				c0.002-0.026,0.002-0.052,0.002-0.077c0-0.594,0-0.594-0.588-0.592c-0.641,0.002-0.641,0.002-0.641,0.622
				C882.645,24.182,882.645,24.182,883.275,24.182z M886.047,23.589c0.006-0.658,0.006-0.658-0.67-0.658
				c-0.035,0-0.074,0.004-0.111-0.002c-0.359-0.063-0.463,0.084-0.449,0.444c0.021,0.809,0.004,0.789,0.793,0.82
				c0.366,0.016,0.496-0.103,0.438-0.455C886.039,23.689,886.047,23.639,886.047,23.589z M874.551,26.357
				c0.633,0,0.633,0,0.637-0.583c0.002-0.638,0.002-0.638-0.652-0.641c-0.594-0.004-0.594-0.004-0.6,0.587
				C873.934,26.357,873.934,26.357,874.551,26.357z M883.25,26.357c0.623,0,0.623,0,0.625-0.557c0-0.671,0-0.677-0.891-0.669
				c-0.668,0.005-0.293,0.514-0.318,0.77C882.611,26.45,882.57,26.348,883.25,26.357z M883.25,16.413
				c-0.604,0.001-0.604,0.001-0.604,0.805c0,0.444,0,0.448,0.811,0.441c0.469-0.004,0.414,0.1,0.418-0.609
				C883.875,16.412,883.873,16.412,883.25,16.413z M885.412,17.66c0.637,0,0.627,0,0.641-0.729c0.006-0.323,0.033-0.562-0.439-0.531
				c-0.785,0.05-0.789,0.014-0.789,0.747C884.824,17.66,884.824,17.66,885.412,17.66z M881.719,19.219c0-0.633,0-0.633-0.621-0.634
				c-0.074,0-0.15,0.01-0.225-0.003c-0.342-0.061-0.455,0.089-0.404,0.412c0.014,0.062,0.002,0.124,0.002,0.188
				c0,0.652,0,0.652,0.646,0.652C881.719,19.832,881.719,19.832,881.719,19.219z M883.244,19.833c0.629,0,0.629,0,0.629-0.477
				c0-0.771,0-0.773-0.785-0.771c-0.51,0.001-0.438-0.073-0.439,0.551C882.643,19.833,882.645,19.833,883.244,19.833z
				 M886.049,19.218c0.002-0.631,0.002-0.631-0.59-0.631c-0.635-0.001-0.635-0.001-0.635,0.656c0,0.591,0,0.591,0.588,0.591
				C886.049,19.833,886.049,19.833,886.049,19.218z M877.363,21.413c0-0.658,0-0.658-0.674-0.657c-0.113,0-0.227,0.008-0.337-0.002
				c-0.187-0.017-0.247,0.07-0.239,0.241c0.008,0.113,0,0.224,0,0.339c0,0.673,0,0.673,0.664,0.674
				C877.363,22.011,877.363,22.011,877.363,21.413z M879.541,21.412c0-0.657,0-0.657-0.643-0.656c-0.016,0-0.025,0-0.037,0
				c-0.652,0.016-0.564-0.105-0.568,0.583c-0.006,0.669-0.002,0.669,0.664,0.671C879.541,22.011,879.541,22.011,879.541,21.412z
				 M881.719,21.407c0-0.65,0-0.65-0.635-0.65c-0.617,0-0.617,0-0.615,0.602c0,0.651,0,0.651,0.645,0.651
				C881.719,22.011,881.719,22.011,881.719,21.407z M883.873,21.411c-0.002-0.654-0.002-0.654-0.643-0.654
				c-0.587,0-0.587,0-0.587,0.6c0,0.652,0,0.652,0.646,0.652C883.873,22.011,883.873,22.011,883.873,21.411z M886.047,21.385
				c0-0.085-0.012-0.175,0.002-0.26c0.043-0.292-0.064-0.42-0.364-0.369c-0.063,0.011-0.125,0.001-0.188,0.001
				c-0.67,0-0.67,0-0.67,0.665c0.002,0.591,0.002,0.591,0.598,0.591C886.049,22.011,886.049,22.011,886.047,21.385z M876.732,26.357
				c0.063,0,0.125-0.009,0.186,0.003c0.359,0.063,0.467-0.067,0.453-0.436c-0.023-0.811-0.006-0.803-0.918-0.793
				c-0.25,0.002-0.379,0.061-0.34,0.33c0.014,0.085,0,0.173,0,0.261C876.109,26.357,876.109,26.357,876.732,26.357z M878.893,26.357
				c0.646,0,0.646,0,0.647-0.567c0.002-0.652,0.002-0.652-0.639-0.653c-0.609,0-0.609,0-0.611,0.608
				C878.291,26.357,878.291,26.357,878.893,26.357z M881.719,25.793c0-0.659,0-0.659-0.475-0.659
				c-0.773-0.002-0.773-0.002-0.775,0.6c0,0.627,0.002,0.59,0.855,0.637C881.9,26.403,881.674,26.019,881.719,25.793z
				 M885.455,25.137c-0.631,0-0.635,0-0.631,0.694c0.002,0.264-0.115,0.566,0.389,0.539c0.836-0.047,0.838-0.014,0.84-0.765
				C886.051,25.137,886.051,25.137,885.455,25.137z M872.377,26.36c0.063,0,0.125-0.012,0.188,0.002
				c0.357,0.063,0.467-0.072,0.455-0.438c-0.025-0.813-0.008-0.807-0.92-0.795c-0.252,0.004-0.379,0.06-0.338,0.331
				c0.014,0.086,0,0.173,0,0.261C871.758,26.357,871.758,26.357,872.377,26.36z M894.873,34.157c1.014,0,2.027,0.004,3.041-0.002
				c0.441-0.003,0.639-0.197,0.641-0.64c0.008-0.84,0.008-1.676,0-2.518c-0.004-0.408-0.211-0.625-0.627-0.627
				c-1.9-0.01-3.803-0.012-5.705-0.004c-0.473,0.002-0.664,0.203-0.666,0.668c-0.006,0.938,0.01,1.873-0.006,2.813
				c-0.004,0.25,0.072,0.316,0.316,0.314c1-0.012,2.002-0.004,3.002-0.004C894.873,34.159,894.873,34.159,894.873,34.157z"/>
		</g>
		<path fill="#7C7C7B" d="M1054.564,24.343c0-0.833,0.034-1.635,0.412-2.396c0.184-0.367,0.58-0.839,0.896-1.106l0.218-0.162
			c0.604-0.367,1.057-0.572,1.808-0.572h11.853c0.544,0,0.971,0.206,1.339,0.374l0.417,0.249c0.47,0.328,0.963,0.982,1.189,1.525
			l0.185,0.673c0.064,0.479,0.3,1.796-0.511,1.796h-3.522c-0.147,0-0.339-0.122-0.417-0.204c-0.258-0.271,0.005-0.938-0.773-0.938
			h-7.188c-0.362,0-0.667,0.083-0.899,0.339c-0.338,0.373-0.339,0.562-0.338,1.185c0,0.317-0.056,0.752,0.059,1.043
			c0.148,0.377,0.398,0.634,0.8,0.763c0.369,0.121,6.866,0.051,8.185,0.051c1.492,0,2.202-0.149,3.393,0.748
			c0.8,0.6,1.271,1.669,1.271,2.822v3.141c0,0.608-0.068,0.99-0.283,1.524c-0.097,0.242-0.202,0.373-0.335,0.569
			c-0.442,0.662-0.414,0.537-0.868,0.894c-0.508,0.401-1.313,0.631-1.989,0.631h-11.138c-1.565,0-2.671-0.593-3.396-1.936
			c-0.261-0.481-0.287-0.883-0.317-1.444c-0.028-0.546-0.154-1.021,0.351-1.224c0.188-0.075,2.569-0.014,2.935-0.014
			c0.581,0,1.088-0.177,1.287,0.329c0.061,0.156,0.033,0.437,0.228,0.634c0.118,0.121,0.128,0.082,0.284,0.12l0.092,0.025
			c0.364,0.095,6.219,0.034,7.106,0.034c0.772,0,1.38-0.48,1.38-0.952c0-0.722,0.106-1.49-0.169-1.926
			c-0.313-0.498-0.829-0.503-1.306-0.503l-7.141,0.002c-1.571,0-2.976,0.184-4.144-1.093l-0.318-0.396
			C1054.363,27.792,1054.564,25.974,1054.564,24.343 M1035.192,20.677v16.089c0,0.338,0.33,0.523,0.713,0.523h16.946
			c0.947,0,0.64-1.141,0.666-2.525c0.005-0.298,0.104-0.542-0.176-0.819c-0.191-0.195-0.555-0.129-0.918-0.129h-7.568
			c-1.402,0-2.949,0.062-4.332,0c-0.822-0.036-0.715-0.609-0.715-1.429l0.014-1.376c0.007-0.173,0.041-0.32,0.202-0.454
			c0.281-0.235,1.519-0.12,2.021-0.12h8.663c2.001,0,1.666,0.261,1.666-2.952c0-0.267-0.22-0.484-0.457-0.538l-11.443,0.015
			c-0.65,0-0.667-0.518-0.667-1.046c0-0.486-0.08-1.736,0.117-2.073c0.005-0.01,0.014-0.021,0.019-0.029
			c0.168-0.261,0.494-0.234,0.863-0.231l12.182-0.003c0.287-0.032,0.529-0.305,0.529-0.424v-2.523c0-0.272-0.2-0.523-0.571-0.523
			h-17.374C1035.361,20.106,1035.192,20.434,1035.192,20.677 M1113.256,23.534c0-1.152,0.631-2.245,1.54-2.838
			c0.824-0.538,1.725-0.589,2.744-0.589h10.376c0.74,0,1.522,0.207,2.093,0.573c0.498,0.318,0.469,0.355,0.783,0.692
			c0.432,0.46,0.79,1.407,0.79,2.067v10.71c0,0.425-0.133,0.703-0.263,1.07c-0.1,0.284-0.125,0.268-0.299,0.558
			c-0.183,0.304-0.324,0.442-0.592,0.692c-0.68,0.638-1.629,0.868-2.561,0.868h-10.853c-0.346,0-0.57-0.019-0.897-0.055
			c-0.292-0.031-0.39-0.089-0.631-0.177c-0.855-0.319-1.49-0.921-1.899-1.719c-0.193-0.374-0.332-0.905-0.332-1.477V23.534
			 M1118.503,33.709c0.104,0.056,0.268,0.106,0.417,0.106h6.997c0.472,0,1-0.48,1-0.952v-8.331c0-0.315-0.315-0.615-0.544-0.741
			l-0.311-0.12c-0.518-0.097-5.844-0.044-6.81-0.044c-0.409,0-0.742,0.066-0.965,0.272c-0.194,0.176-0.416,0.519-0.416,0.823v7.997
			C1117.873,33.034,1118.121,33.498,1118.503,33.709z M1093.406,23.343c0-0.632,0.308-1.328,0.627-1.801l0.366-0.443
			c0.62-0.562,1.333-0.993,2.244-0.993h11.853c0.802,0,1.679,0.414,2.202,0.939c0.465,0.468,1.035,1.389,1.035,2.059V34.1
			c0,0.82-0.602,1.987-1.311,2.449c-0.731,0.479-1.213,0.74-2.164,0.74h-10.901c-0.508,0-1.552-0.087-1.942-0.293
			c-0.108-0.057-0.135-0.097-0.263-0.166c-0.745-0.401-1.319-1.146-1.581-1.941c-0.051-0.153-0.165-0.551-0.165-0.693V23.343
			 M1098.337,33.406c0.09,0.098-0.008,0.008,0.098,0.093c0.388,0.317,0.832,0.313,1.301,0.315c0.714,0.006,6.003,0.029,6.308-0.025
			c0.268-0.048,0.34-0.057,0.531-0.182c0.275-0.181,0.54-0.562,0.54-0.841v-8.091c0-0.576-0.529-1.055-1.052-1.086l-0.247,0.002
			c-0.872-0.041-2.207-0.011-3.128-0.011c-0.619,0-3.617-0.101-4.056,0.133c-0.252,0.133-0.562,0.546-0.562,0.819v8.234
			C1098.071,33.027,1098.189,33.242,1098.337,33.406z M1016.913,20.63v16.137c0,0.338,0.331,0.523,0.715,0.523h3.283
			c0.835,0,0.619-0.909,0.619-1.523l0.004-4.805l0.24-0.424c0.087-0.073,0.202-0.091,0.326-0.101c0.173-0.012,0.394-0.002,0.571,0
			c2.888,0,5.775,0,8.663,0c0.322,0,0.734,0.022,1.047-0.002c0.195-0.014,0.259-0.052,0.377-0.146
			c0.438-0.353,0.077-1.354,0.203-2.562c0.102-0.972-0.7-0.766-1.294-0.766c-1.101,0-9.342,0.06-9.716-0.042
			c-0.273-0.077-0.423-0.338-0.423-0.672v-2c0-0.811,0.863-0.667,1.475-0.667c1.452,0,10.479,0.074,10.798-0.056
			c0.349-0.142,0.295-0.534,0.294-0.8l0.011-2.11c-0.059-0.344-0.235-0.508-0.583-0.508h-16.23
			C1017.12,20.106,1016.913,20.436,1016.913,20.63 M1073.985,20.677v2.238c0,0.905,0.991,0.667,2.047,0.667l4.144-0.003
			c0.238,0.005,0.367,0.041,0.505,0.163c0.164,0.146,0.162,0.266,0.162,0.552l-0.001,10.999c0,1.096-0.256,1.998,0.761,1.998h3.237
			c0.554,0,0.671-0.336,0.667-0.902l-0.001-11.092c0-1.743-0.168-1.714,1.428-1.714l4.763,0.004
			c0.555-0.012,0.668-0.336,0.664-0.907c-0.003-0.523-0.002-1.048,0-1.571c0.001-0.35,0.008-1-0.524-1h-17.422
			C1074.209,20.106,1073.985,20.46,1073.985,20.677 M1133.534,37.242h16.041c0.396,0,0.619-0.31,0.619-0.57v-2.286
			c0-0.752-0.726-0.619-1.095-0.619h-10.33c-0.645,0.004-1.096-0.012-1.143-0.619c-0.076-1.017,0-2.371,0-3.426
			c0-1.158,0-2.316,0-3.475l-0.049-5.095c-0.002-0.558,0.218-1.093-0.57-1.093h-3.426c-0.792,0-0.571,0.828-0.571,1.618
			c0,4.94,0.034,9.974-0.003,14.903c-0.001,0.225,0.005,0.331,0.116,0.454C1133.205,37.127,1133.377,37.242,1133.534,37.242"/>
	</g>
</g>
</svg>
