<?xml version="1.0" encoding="utf-8"?>
<!DOCTYPE svg PUBLIC "-//W3C//DTD SVG 1.1//EN" "http://www.w3.org/Graphics/SVG/1.1/DTD/svg11.dtd">
<svg version="1.1" id="Слой_1" xmlns="http://www.w3.org/2000/svg" xmlns:xlink="http://www.w3.org/1999/xlink" x="0px" y="0px"
	 width="341.433px" height="95.241px" viewBox="0 0 341.433 95.241" enable-background="new 0 0 341.433 95.241"
	 xml:space="preserve">
<path fill="#3D4141" d="M29.875,33.748c0,3.149,11.685,2.39,11.685,9.864c0,8.563-8.31,14.464-14.815,14.464
	c-4.125,0-7.37-1.96-7.37-4.743c0-0.959,0.653-3.031,1.133-3.031c0.479,0-0.021,5.807,6.061,5.807c3.646,0,9.29-3.918,9.29-9.41
	c0-9.243-9.342-8.421-9.342-13.43c0-5.577,28.726-8.564,28.726-22.8c0-5.853-4.547-8.797-8.097-8.797
	c-14.232,0-40.462,26.484-40.462,61.217c0,4.989,4.054,17.614,4.054,17.614s-10.74-2.988-10.74-16.312
	C-0.002,40.25,19.343,0,47.167,0c6.812,0,14.897,2.865,14.897,11.585C62.064,28.376,29.875,30.197,29.875,33.748 M96.351,40.445
	c-1.642,0-8.352,14.54-13.547,14.54c-4.114,0-0.833-7.257-0.833-10.168c0-2.391-2.149-5.212-7.081-5.212
	c0,0,1.815,0.638,1.854,4.051c-1.421,3.82-7.186,13.864-11.031,13.864c-3.466,0-1.481-9.409-7.457-9.409
	c-2.255,0-4.466,1.188-4.466,1.188l-0.165,0.161c6.422-7.594,16.267-17.412,25.438-17.412c1.846,0,2.951,1.069,2.951,2.257
	c0,2.18-1.417,2.732-1.417,2.732c2.399,0,5.37-2.058,5.37-4.214c0-2.043-2.002-3.75-4.41-3.75c-15.677,0-33.718,25.53-33.718,25.53
	c0-3.358,6.812-9.691,6.812-13.529s-6.141-4.605-6.141-4.605s1.056,0.959,1.056,2.687c0,2.398-5.949,12.569-5.949,15.353
	c0,2.015,2.208,3.646,2.975,3.646c0.274,0,2.594-3.339,6.143-7.628c0.605-0.312,1.582-0.616,3.097-0.616
	c3.563,0,1.167,12.979,6.567,12.979c4.917,0,11.406-10.967,13.984-15.937c-0.717,4.743-1.811,11.777,3.514,11.777
	c5.1,0,12.215-10.762,12.215-10.762c0,3.247-15.632,33.015-34.958,33.015c-12.625,0-6.407-12.834-6.407-12.834
	c-0.672,0-6.218,1.211-6.218,5.571c0,3.646,3.109,8.91,11.36,8.91c28.781,0,43.549-36.007,43.549-38.748
	C99.438,42.345,97.598,40.445,96.351,40.445 M141.264,40.579c-0.362,0.361-1.528,2.534-2.698,5.334
	c-1.541,2.498-5.07,6.435-10.418,6.722c1.732-4.242,3.963-8.562,3.915-9.792c-0.122-3.115-4.597-4.654-6.978-4.561
	c0,0,0.922,0.721,1.011,2.982c0.056,1.43-0.611,3.688-1.457,6.068c-3.14,3.612-10.096,10.844-15.442,10.844
	c-1.457,0-3.13-0.757-3.13-3.186c0-4.21,4.102-11.82,11.711-11.82c2.186,0,2.683,0.766,2.683,0.766s-0.37-5.312-5.66-5.312
	c-6.261,0-13.539,7.515-13.539,15.018c0,2.698,1.512,6.314,6.531,6.314c5.881,0,12.574-6.38,15.845-9.932
	c-1.153,3.019-2.268,5.804-2.226,6.894c0.067,1.701,4.797,4.117,4.755,3.038c-0.061-1.549,0.599-3.766,1.495-6.102
	c4.578-0.128,7.727-2.447,9.61-4.539c-0.878,2.588-1.548,5.301-1.548,7.466c0,6.886,6.729,7.349,6.729,7.349
	s-2.261-1.212-2.261-5.866c0-5.441,5.337-13.447,5.337-14.745C145.532,41.9,142.503,39.339,141.264,40.579 M305.146,40.579
	c1.239-1.24,4.269,1.321,4.269,2.941c0,1.298-5.338,9.304-5.338,14.745c0,4.654,2.262,5.866,2.262,5.866s-6.73-0.463-6.73-7.349
	c0-2.165,0.671-4.878,1.549-7.466c-1.884,2.091-5.033,4.411-9.61,4.539c-0.897,2.336-1.557,4.553-1.496,6.102
	c0.042,1.079-4.688-1.337-4.755-3.038c-0.049-1.271,1.477-4.85,2.8-8.417c-3.358,3.472-11.052,10.286-16.402,10.286
	c-5.019,0-6.312-4.035-6.312-6.733c0-7.503,7.277-15.018,13.538-15.018c4.994,0,5.099,4.04,5.099,4.805
	c0,0.504-0.957,7.383-12.944,7.622c-0.587,1.417-0.889,2.802-0.889,3.939c0,2.43,1.377,4.072,2.834,4.072
	c3.619,0,12.377-7.506,15.898-11.292c0.647-1.943,1.107-3.722,1.061-4.919c-0.088-2.262-1.012-2.982-1.012-2.982
	c2.382-0.093,6.856,1.446,6.979,4.561c0.048,1.23-2.184,5.551-3.915,9.792c5.349-0.287,8.878-4.224,10.418-6.722
	C303.617,43.112,304.784,40.94,305.146,40.579 M271.646,48.248c4.998-0.244,10.898-2.211,10.898-6.371
	c0-0.176-0.281-0.294-0.648-0.294C276.929,41.583,273.457,44.825,271.646,48.248z M268.779,28.104c0-2.531-1.14-3.669-3.417-3.669
	c-14.548,0-21.829,24.937-29.741,24.937c-1.169,0-1.772-1.232-1.772-4.043c0-9.377,16.706-38.358,16.706-39.625
	c0-1.266-3.417-3.037-4.683-3.037s-44.558,39.78-44.558,66.105c0,7.088,4.312,11.222,6.716,11.222c0,0-1.487-5.281-1.487-9.838
	c0-25.455,32.453-58.368,32.453-58.368s-11.222,23.531-11.222,34.415c0,2.785,0.442,6.85,5.749,6.85
	c9.691,0,19.32-24.269,25.774-24.269c5.698,0-6.575,12.403-6.575,26.847c0,3.544,1.324,8.459,2.797,8.459
	c1.14,0,0.977-0.905,0.977-1.918C256.496,48.729,268.779,32.222,268.779,28.104 M199.168,42.26c0,0.505-0.958,7.384-12.945,7.623
	c-0.587,1.416-0.89,2.802-0.89,3.939c0,2.428,1.388,4.294,2.846,4.294c4.581,0,8.462-7.909,8.462-7.909s0.56,0.467,0.56,2.408
	c0,1.614-3.341,6.592-10.358,6.592c-5.019,0-6.313-4.036-6.313-6.734c0-0.021,0.003-0.04,0.003-0.061
	c-2.086,2.952-5.889,7.544-9.358,7.544c-2.972,0-5.362-1.804-5.362-6.091c0-4.963,5.375-11.496,5.375-11.496
	s-12.889,4.027-12.889,7.845c0,1.449,3.71,1.202,3.71,4.63c0,2.342-3.796,6.85-7.405,6.85c-3.746,0-6.414-2.79-6.414-6.891
	c0-3.397,3.938-9.643,3.938-13.474c0-2.245-0.738-4.374-0.738-4.374s6.292,1.292,6.292,5.296c0,5.014-5.235,10.202-5.235,15.611
	c0,1.415,0.968,2.664,2.298,2.664c2.154,0,3.443-3.433,3.443-5.835c0-3.095-1.164-2.96-1.164-4.625
	c0-3.866,11.97-8.191,15.555-9.736c1.411-0.609,3.992,2.671,3.992,4.362c0,1.37-6.345,6.557-6.345,10.962
	c0,2.156,1.275,2.708,2.193,2.708c2.812,0,6.825-6.009,8.414-8.58c1.433-6.509,7.727-12.328,13.235-12.328
	C199.063,37.455,199.168,41.495,199.168,42.26 M186.794,48.667c4.999-0.244,10.9-2.211,10.9-6.371c0-0.175-0.281-0.294-0.648-0.294
	C192.078,42.001,188.606,45.244,186.794,48.667z M337.126,40.25c-1.533,0-3.625,2.949-3.625,6.406c0,2.529,1.469,4.536,3.138,5.432
	c1.413-2.528,2.431-5.385,2.431-8.123C339.069,41.62,338.458,40.25,337.126,40.25 M341.278,52.527
	c-0.452,0.392-1.494,1.141-2.821,1.141c-0.354,0-0.798-0.046-1.285-0.159c-2.747,4.558-6.489,8.182-8.791,8.182
	c-2.544,0-4.989-2.681-4.989-7.879c0-3.339,2.495-9.022,2.495-9.022s-8.992,9.623-10.71,13.571c-0.085,0.49-0.134,0.959-0.134,1.396
	c0,1.079-4.002-1.658-4.002-3.361c0-3.676,4.751-11.396,4.604-15.183c-0.09-2.263-0.751-2.935-0.751-2.935
	c1.766,0,6.542,1.185,6.542,4.687c0,1.676-3.064,6.618-4.95,11.208c2.682-3.577,9.43-12.244,11.863-12.244
	c0.948,0,2.674,1.334,3.436,2.444c0.342-3.726,2.799-6.626,5.342-6.626c2.229,0,3.523,2.505,3.523,5.354
	c0,2.95-1.196,6.34-2.898,9.412c0.249,0.056,0.497,0.09,0.739,0.09c0.8,0,1.699-0.434,2.215-0.802
	c0.242-0.173,0.581-0.072,0.694,0.203c0.021,0.047,0.031,0.097,0.035,0.146v0.069C341.426,52.334,341.372,52.447,341.278,52.527z
	 M336.023,53.131c-1.879-0.813-3.92-2.712-4.238-6.756c-1.1,2.424-4.219,7.924-4.219,11.598c0,0.945,0.391,1.937,1.305,1.937
	C330.357,59.909,333.592,57.027,336.023,53.131z M265.545,88.413c-0.393,0-0.785,0-1.083,0.287c-0.244,0.223-0.318,0.5-0.318,0.786
	c0,0.224,0.074,0.521,0.318,0.743c0.159,0.159,0.531,0.319,1.137,0.319h1.315v-2.136H265.545z M266.192,92.746h0.722v-1.667h-1.433
	l-1.243,2.198h-1.199v-0.531h0.712l0.987-1.71c-0.309-0.052-0.563-0.159-0.786-0.318c-0.328-0.244-0.563-0.658-0.563-1.21
	c0-0.499,0.19-0.882,0.478-1.168c0.244-0.244,0.732-0.456,1.412-0.456h3.09v0.529h-0.722v4.333h0.722v0.531h-2.177V92.746z
	 M250.632,92.746h0.722v-4.333h-0.722v-0.529h2.177v0.529h-0.722v4.015l2.877-4.544h1.551v0.529h-0.723v4.333h0.723v0.531h-2.177
	v-0.531h0.722v-4.024l-2.867,4.556h-1.561V92.746z M241.665,92.746h0.722v-2.061h-3.005v2.061h0.723v0.531h-2.177v-0.531h0.721
	v-4.333h-0.721v-0.529h2.177v0.529h-0.723v1.742h3.005v-1.742h-0.722v-0.529h2.177v0.529h-0.722v4.333h0.722v0.531h-2.177V92.746z
	 M230.276,90.188c0-0.425-0.159-1.189-0.521-1.551c-0.212-0.224-0.583-0.435-1.136-0.435c-0.605,0-1.041,0.232-1.296,0.52
	c-0.297,0.34-0.498,0.925-0.498,1.466H230.276z M230.988,91.717c-0.097,0.467-0.319,0.859-0.584,1.146
	c-0.521,0.543-1.126,0.627-1.721,0.627c-0.573,0-1.221-0.053-1.827-0.627c-0.657-0.637-0.795-1.508-0.795-2.303
	c0-0.564,0.074-1.54,0.743-2.209c0.595-0.595,1.316-0.68,1.826-0.68c0.467,0,1.178,0.074,1.72,0.638
	c0.585,0.604,0.669,1.433,0.701,2.409h-4.226c0.03,0.85,0.265,1.381,0.573,1.71c0.297,0.33,0.722,0.531,1.316,0.531
	c0.563,0,0.903-0.201,1.115-0.403c0.35-0.319,0.425-0.734,0.456-0.839H230.988z M215.362,92.545
	c0.372,0.339,0.788,0.414,1.157,0.414c0.374,0,0.798-0.075,1.147-0.403c0.383-0.352,0.659-1.01,0.659-1.986
	c0-0.669-0.127-1.402-0.552-1.869c-0.212-0.223-0.595-0.498-1.243-0.498c-0.563,0-0.955,0.201-1.2,0.445
	c-0.329,0.33-0.616,0.902-0.616,1.922S214.99,92.194,215.362,92.545z M214.758,88.297c0.542-0.541,1.232-0.626,1.762-0.626
	c0.554,0,1.213,0.105,1.764,0.626c0.616,0.584,0.818,1.529,0.818,2.283c0,0.69-0.149,1.656-0.86,2.314
	c-0.541,0.5-1.115,0.595-1.71,0.595c-0.594,0-1.221-0.095-1.742-0.595c-0.393-0.328-0.849-1.073-0.849-2.314
	C213.94,89.295,214.418,88.637,214.758,88.297z M203.369,92.46c0.244,0.254,0.638,0.499,1.201,0.499c0.414,0,0.753-0.148,1.04-0.436
	c0.371-0.394,0.604-1.083,0.604-1.975c0-1.104-0.35-1.647-0.637-1.934c-0.202-0.202-0.541-0.413-1.083-0.413
	c-0.436,0-0.807,0.169-1.094,0.424c-0.583,0.53-0.647,1.412-0.647,1.976C202.754,91.11,202.828,91.918,203.369,92.46z
	 M201.342,87.884h1.423v0.795h0.021c0.244-0.37,0.509-0.572,0.669-0.689c0.371-0.244,0.732-0.318,1.146-0.318
	c0.808,0,1.307,0.318,1.593,0.583c0.351,0.352,0.786,0.988,0.786,2.273c0,1.751-0.808,2.962-2.294,2.962
	c-0.468,0-0.871-0.095-1.199-0.297c-0.287-0.181-0.532-0.456-0.69-0.744v2.262h0.722v0.531h-2.177V94.71h0.722v-6.297h-0.722V87.884
	z M191.313,92.746h0.722v-4.333h-1.624v1.381h-0.531v-1.91h5.044v1.91h-0.53v-1.381h-1.625v4.333h0.722v0.531h-2.177V92.746z
	 M182.76,89.528c-0.053-0.467-0.285-0.753-0.371-0.85c-0.308-0.35-0.732-0.477-1.147-0.477c-0.647,0-1.008,0.275-1.21,0.477
	c-0.372,0.372-0.563,0.989-0.563,1.826c0,1.094,0.34,1.689,0.647,1.997c0.255,0.256,0.627,0.457,1.146,0.457
	c0.584,0,0.902-0.223,1.072-0.403c0.266-0.288,0.446-0.755,0.479-1.169h0.7c-0.053,0.542-0.286,1.158-0.7,1.572
	c-0.479,0.478-1.009,0.53-1.562,0.53c-0.562,0-1.178-0.053-1.741-0.595c-0.499-0.478-0.817-1.296-0.817-2.367
	c0-0.936,0.255-1.688,0.69-2.156c0.329-0.371,0.86-0.7,1.795-0.7c0.435,0,0.828,0.116,1.156,0.35
	c0.16,0.107,0.298,0.244,0.425,0.426v-0.563h0.531v1.645H182.76z M170.523,90.421c-0.063,0.053-0.16,0.106-0.276,0.139
	c-0.351,0.116-0.86,0.126-1.338,0.18c-0.595,0.074-0.913,0.201-1.094,0.371c-0.117,0.118-0.255,0.352-0.255,0.733
	c0,0.298,0.116,0.563,0.276,0.723c0.255,0.286,0.584,0.307,0.85,0.307c0.594,0,0.934-0.19,1.157-0.371
	c0.414-0.34,0.68-0.903,0.68-1.551V90.421z M170.523,92.396c-0.181,0.341-0.478,0.595-0.69,0.712
	c-0.467,0.265-1.009,0.298-1.264,0.298c-0.414,0-0.945-0.064-1.328-0.436c-0.286-0.267-0.446-0.68-0.446-1.138
	c0-0.52,0.223-0.848,0.394-1.019c0.414-0.414,1.21-0.531,1.709-0.584l1.073-0.127c0.265-0.043,0.371-0.107,0.424-0.16
	c0.117-0.128,0.128-0.36,0.128-0.52c0-0.267-0.021-0.637-0.329-0.925c-0.288-0.254-0.681-0.296-1.02-0.296
	c-0.33,0-0.807,0.03-1.104,0.329c-0.223,0.223-0.33,0.594-0.34,0.902h-0.711c0-0.393,0.149-0.999,0.701-1.392
	c0.467-0.329,1.158-0.371,1.519-0.371c0.436,0,1.136,0.053,1.582,0.499c0.415,0.414,0.436,0.881,0.436,1.264v3.313h0.724v0.531
	h-1.456V92.396z M157.818,92.746h0.722v-2.061h-3.004v2.061h0.722v0.531h-2.177v-0.531h0.721v-4.333h-0.721v-0.529h2.177v0.529
	h-0.722v1.742h3.004v-1.742h-0.722v-0.529h2.177v0.529h-0.722v4.333h0.722v0.531h-2.177V92.746z M134.156,92.746h0.722v-4.333
	h-1.625v1.381h-0.532v-1.91h5.044v1.91h-0.531v-1.381h-1.624v4.333h0.722v0.531h-2.177V92.746z M124.126,92.746h0.722v-4.333h-2.781
	v4.333h0.721v0.531h-2.177v-0.531h0.722v-4.333h-0.722v-0.529h5.692v0.529h-0.722v4.333h0.722v0.531h-2.177V92.746z M112.962,90.188
	c0-0.425-0.16-1.189-0.521-1.551c-0.212-0.224-0.583-0.435-1.136-0.435c-0.606,0-1.042,0.232-1.296,0.52
	c-0.297,0.34-0.499,0.925-0.499,1.466H112.962z M113.673,91.717c-0.097,0.467-0.319,0.859-0.584,1.146
	c-0.52,0.543-1.125,0.627-1.721,0.627c-0.573,0-1.221-0.053-1.826-0.627c-0.658-0.637-0.795-1.508-0.795-2.303
	c0-0.564,0.074-1.54,0.743-2.209c0.595-0.595,1.317-0.68,1.826-0.68c0.467,0,1.178,0.074,1.72,0.638
	c0.584,0.604,0.669,1.433,0.701,2.409h-4.226c0.031,0.85,0.265,1.381,0.574,1.71c0.297,0.33,0.722,0.531,1.316,0.531
	c0.563,0,0.903-0.201,1.115-0.403c0.35-0.319,0.425-0.734,0.457-0.839H113.673z M96.189,87.884h2.177v0.529h-0.722v4.333h2.825
	v-4.333h-0.723v-0.529h2.177v0.529h-0.722v4.333h0.934l-0.053,1.933h-0.637v-1.401h-5.256v-0.531h0.722v-4.333h-0.722V87.884z
	 M88.539,90.188c0-0.425-0.159-1.189-0.521-1.551c-0.212-0.224-0.584-0.435-1.136-0.435c-0.605,0-1.041,0.232-1.296,0.52
	c-0.297,0.34-0.499,0.925-0.499,1.466H88.539z M89.25,91.717c-0.096,0.467-0.319,0.859-0.584,1.146
	c-0.52,0.543-1.125,0.627-1.72,0.627c-0.573,0-1.221-0.053-1.826-0.627c-0.658-0.637-0.796-1.508-0.796-2.303
	c0-0.564,0.074-1.54,0.743-2.209c0.595-0.595,1.317-0.68,1.827-0.68c0.467,0,1.178,0.074,1.721,0.638
	c0.584,0.604,0.668,1.433,0.7,2.409h-4.226c0.032,0.85,0.266,1.381,0.574,1.71c0.297,0.33,0.722,0.531,1.317,0.531
	c0.562,0,0.902-0.201,1.115-0.403c0.35-0.319,0.425-0.734,0.457-0.839H89.25z M73.753,92.46c0.244,0.254,0.637,0.499,1.201,0.499
	c0.414,0,0.753-0.148,1.04-0.436c0.372-0.394,0.605-1.083,0.605-1.975c0-1.104-0.35-1.647-0.637-1.934
	c-0.202-0.202-0.541-0.413-1.083-0.413c-0.436,0-0.806,0.169-1.094,0.424c-0.583,0.53-0.647,1.412-0.647,1.976
	C73.138,91.11,73.212,91.918,73.753,92.46z M71.725,87.884h1.424v0.795h0.021c0.244-0.37,0.509-0.572,0.668-0.689
	c0.371-0.244,0.732-0.318,1.147-0.318c0.807,0,1.306,0.318,1.592,0.583c0.351,0.352,0.786,0.988,0.786,2.273
	c0,1.751-0.807,2.962-2.294,2.962c-0.467,0-0.871-0.095-1.2-0.297c-0.286-0.181-0.532-0.456-0.69-0.744v2.262h0.722v0.531h-2.177
	V94.71h0.722v-6.297h-0.722V87.884z"/>
</svg>
