<svg version="1.1" id="Слой_1" xmlns="http://www.w3.org/2000/svg" xmlns:xlink="http://www.w3.org/1999/xlink" x="0px" y="0px"
		 width="250px" height="28.63px" viewBox="0 0 250 28.633" style="enable-background:new 0 0 250 28.633;" xml:space="preserve">
<style type="text/css">
	.st0{fill-rule:evenodd;clip-rule:evenodd;fill:#94989B;}
</style>
<path class="st0" d="M239.069-0.151h7.636c0.89,0,1.718,0.334,2.32,0.882C249.623,1.275,250,2.03,250,2.881v13.09
	c0,0.616-0.051,1.257-0.255,1.848c-0.213,0.617-0.588,1.172-1.231,1.579c-0.516,0.326-1.149,0.672-1.69,0.967l-0.598,0.329
	c-0.193,0.097-0.419,0.217-0.659,0.351v-2.516c0.719-0.403,1.307-0.747,1.426-0.827c0.215-0.154,0.398-0.338,0.527-0.594
	c0.136-0.27,0.215-0.631,0.215-1.137v-12.3c0-0.581-0.174-0.993-0.46-1.26c-0.331-0.309-0.829-0.448-1.398-0.448h-1.858V19.37
	l0.001,0v2.564l-0.001,0v4.518h-2.264v-3.982v-0.536v-2.559v-4.141V1.963h-1.858c-0.591,0-1.066,0.159-1.384,0.454
	c-0.304,0.283-0.474,0.707-0.474,1.253v12.3c0,0.546,0.073,0.92,0.197,1.19c0.11,0.238,0.268,0.399,0.455,0.532l0.368,0.206
	c0.279,0.158,0.689,0.39,1.15,0.645v2.501c-0.241-0.134-0.467-0.255-0.66-0.351l-0.02-0.01c-0.253-0.146-0.52-0.29-0.792-0.437
	c-0.458-0.248-0.933-0.504-1.472-0.846c-0.666-0.408-1.042-0.965-1.25-1.584c-0.2-0.593-0.241-1.232-0.241-1.845V2.881
	c0-0.88,0.38-1.615,0.958-2.141C237.356,0.173,238.213-0.151,239.069-0.151 M219.541,26.451h-2.302V-0.151h4.988
	c0.885,0,1.709,0.34,2.31,0.887c0.604,0.55,0.985,1.309,0.985,2.145v13.033c0,0.615-0.051,1.265-0.261,1.863
	c-0.219,0.625-0.606,1.183-1.274,1.571c-1.014,0.602-1.967,1.149-2.899,1.682v-2.603c0.74-0.418,1.346-0.778,1.465-0.857
	l0.005-0.003c0.194-0.125,0.361-0.358,0.483-0.64c0.138-0.318,0.215-0.692,0.215-1.051V3.596c-0.016-0.565-0.196-0.924-0.485-1.134
	c-0.31-0.226-0.766-0.311-1.298-0.311h-1.933C219.541,10.252,219.541,18.35,219.541,26.451z M206.234,24.435v2.016h-2.302v-2.377
	h2.302V24.435z M180.605-0.151h1.903v7.695h-0.002v7.236h0.002v9.519h1.858c0.554,0,1.055-0.14,1.395-0.439
	c0.286-0.252,0.464-0.633,0.464-1.156v-7.298c0-0.384-0.062-0.745-0.195-1.045c-0.113-0.255-0.278-0.466-0.5-0.605l-0.025-0.018
	c-0.076-0.057-0.679-0.421-1.452-0.858v-2.556l0.96,0.543l1.751,0.99c0.722,0.404,1.156,0.997,1.409,1.645
	c0.245,0.629,0.317,1.303,0.317,1.904v8.013c0,0.817-0.392,1.578-1,2.131c-0.605,0.55-1.429,0.9-2.296,0.9h-4.95V-0.151H180.605z
	 M191.024-0.151h1.904v26.602h-2.264V-0.151H191.024z M168.48,26.451h-8.915V0h2.302v24.187h4.469V0h2.264v24.187h2.144v4.446
	h-2.264V26.451z M146.296,9.138l-4.209,17.313h-2.374V0h2.302v17.432L146.262,0h2.299v26.451h-2.265V9.138z M128.709,0.361v26.09
	h-2.264V14.414h-4.469v12.037h-2.265V0h2.265v12.112h4.469V0h2.264V0.361z M105.622,2.264v24.187h-2.302V2.264h-4.552V0h11.443
	v2.264H105.622z M90.353,0.535l-0.894,1.617H84.83v9.058h4.471l-1.351,2.378H84.83v10.713h5.818l-1.189,2.152h-6.93V0h8.119
	L90.353,0.535z M60.969-0.151h7.636c0.89,0,1.719,0.334,2.321,0.882C71.523,1.275,71.9,2.03,71.9,2.881v13.09
	c0,0.616-0.051,1.257-0.255,1.848c-0.212,0.617-0.587,1.172-1.231,1.579c-0.516,0.326-1.149,0.672-1.69,0.967l-0.597,0.329
	c-0.193,0.097-0.419,0.217-0.659,0.351v-2.516c0.719-0.403,1.307-0.747,1.426-0.827c0.215-0.154,0.398-0.338,0.527-0.594
	c0.136-0.27,0.215-0.631,0.215-1.137v-12.3c0-0.581-0.173-0.993-0.46-1.26c-0.332-0.309-0.829-0.448-1.398-0.448h-1.858V19.37
	l0.001,0v2.564l-0.001,0v4.518h-2.265v-4.518l-0.003-0.001v-2.559l0.003,0.001V1.963h-1.858c-0.591,0-1.066,0.159-1.384,0.454
	c-0.304,0.283-0.474,0.707-0.474,1.253v12.3c0,0.546,0.072,0.92,0.197,1.19c0.11,0.238,0.268,0.399,0.455,0.532l0.367,0.206
	c0.279,0.158,0.688,0.39,1.148,0.644v2.501c-0.24-0.133-0.465-0.254-0.658-0.35l-0.02-0.01c-0.252-0.146-0.52-0.29-0.792-0.437
	c-0.458-0.248-0.933-0.504-1.471-0.846c-0.666-0.408-1.041-0.965-1.25-1.584c-0.2-0.593-0.24-1.232-0.24-1.845V2.881
	c0-0.88,0.38-1.615,0.958-2.141C59.255,0.173,60.113-0.151,60.969-0.151z M45.968,12.009c0.545,3.5,1.23,7.902,2.201,14.024
	l0.066,0.417h-2.425L42.897,6.979c-0.768,5.426-1.386,9.307-1.93,12.724c-0.352,2.209-0.673,4.222-0.998,6.439l-0.045,0.309h-2.426
	l0.067-0.417c0.817-5.145,1.609-10.084,2.404-15.05l1.745-10.908h2.341l0.051,0.301C44.672,3.684,45.173,6.906,45.968,12.009z
	 M21.987,17.002h3.073L23.523,6.878L21.987,17.002z M27.377,17.129c0.459,2.918,0.916,5.825,1.429,8.902l0.07,0.42h-2.428
	l-1.053-7.034h-3.745l-1.091,7.034h-2.422l0.066-0.416c0.757-4.786,1.463-9.2,2.169-13.617c0.637-3.986,1.276-7.979,1.931-12.113
	L22.351,0h2.307l2.118,13.313L27.377,17.129z M8.283,18.304c0,0.596-0.057,5.111,0.001,5.286c0,0.834-0.389,1.59-0.973,2.139
	c-0.578,0.543-1.355,0.888-2.14,0.908l-1.875,0.002c-0.89,0-1.719-0.345-2.322-0.909C0.376,25.172,0,24.399,0,23.532V2.994
	c0-0.868,0.386-1.616,0.972-2.156c0.621-0.573,1.472-0.914,2.323-0.914H5.1c0.87,0,1.667,0.343,2.245,0.898
	c0.577,0.555,0.937,1.321,0.937,2.172v4.573L5.981,8.882V3.295c0-0.457-0.21-0.725-0.512-0.877C5.114,2.237,4.623,2.189,4.16,2.189
	c-0.532,0-1.031,0.056-1.379,0.24C2.49,2.583,2.302,2.85,2.302,3.295v19.861c0,0.492,0.177,0.79,0.465,0.959
	c0.334,0.196,0.83,0.259,1.393,0.259c0.525,0,1.008-0.071,1.343-0.272c0.292-0.175,0.477-0.472,0.477-0.947v-4.542l0.78-0.274
	c0.366-0.128,0.733-0.256,1.032-0.371l0.489-0.188V18.304z"/>
</svg>
