<?xml version="1.0" encoding="utf-8"?>
<!-- Generator: Adobe Illustrator 19.2.1, SVG Export Plug-In . SVG Version: 6.00 Build 0)  -->
<svg version="1.1" id="Слой_1" xmlns="http://www.w3.org/2000/svg" xmlns:xlink="http://www.w3.org/1999/xlink" x="0px" y="0px"
	 width="115px" height="48px" viewBox="0 0 115 48" enable-background="new 0 0 115 48" xml:space="preserve">
<path fill="#979797" d="M30.519,18.86c0.038,0.006,0.076,0.015,0.113,0.022c-0.063-0.009-0.128-0.019-0.19-0.029
	C30.468,18.856,30.494,18.856,30.519,18.86z M27.858,34.603c-0.512,0.365-0.567,0.483-0.585,1.077
	c-0.024,0.819-0.071,1.646,0.027,2.462c0.079,0.659,0.236,1.39,0.727,1.874c0.196,0.194,0.555,0.477,0.849,0.471
	c0.379-0.007,1.177-0.808,1.489-1.05c0,0.342,0,0.683,0,1.025c0.478-0.195,1.499-0.446,1.853-0.804
	c0.306-0.31,0.005-1.466-0.027-2.001c-0.085-1.422-0.035-2.854,0.146-4.267c-0.321,0.11-0.653,0.199-0.986,0.263
	c-0.099,0.019-0.96,0.066-1.013,0.122c-0.039,0.042,0.018,0.252,0.002,0.304c-0.161,0.506,0.008,1.349,0.011,1.878
	c0.004,0.645,0.415,2.511-0.464,2.775c-1.392,0.418-0.695-4.299-0.522-5.06C28.845,33.949,28.339,34.26,27.858,34.603z
	 M46.381,45.587C60.219,46.074,25.215,44.818,46.381,45.587L46.381,45.587z M38.028,40.129c0.432-1.625,0.594-3.315,1.102-4.92
	c0.225,1.779,0.128,4.629,2.409,5.048c0.095-0.709,0.415-1.391,0.493-2.096c0.06-0.538-0.036-0.338-0.349-0.722
	c-0.171-0.209-0.273-0.49-0.36-0.74c-0.43-1.221-0.405-2.535-0.629-3.796c-0.307,0.219-0.646,0.367-1.003,0.485
	c-0.527,0.173-0.57,0.132-0.766,0.673c-0.312,0.858-0.679,1.696-1.1,2.506c-0.418-1.181-0.727-2.401-0.922-3.639
	c-0.431,0.217-0.884,0.35-1.332,0.521c-0.527,0.201-0.353,0.065-0.438,0.561c-0.102,0.598-0.162,1.176-0.347,1.762
	c-0.218,0.69-0.506,1.375-0.904,1.982c-0.238,0.363-0.939,0.834-1.036,1.155c-0.037,0.123,0.161,1.173,0.239,1.221
	c0.429,0.258,1.321-0.697,1.509-0.962c0.72-1.017,0.93-2.432,0.951-3.65c0.029,0.108,0.056,0.224,0.082,0.343
	c0.042,0.183,0.074,0.336,0.092,0.459C36.011,37.866,36.302,39.885,38.028,40.129z M31.672,31.391
	c-0.568,0.165-1.649-0.164-1.895,0.441c-0.152,0.374,0.037,1.146,0.05,1.557C30.899,33.063,31.234,32.35,31.672,31.391z
	 M10.993,39.437c-0.295,0.442-0.741,0.955-0.617,1.465c0.088,0.363,0.412,0.787,0.709,1.005c0.3,0.221,0.658,0.304,1.018,0.368
	c0.737,0.132,0.994,0.119,1.469-0.514c1.776-2.366,1.351-5.663,1.778-8.449c-0.446-0.038-0.891-0.081-1.337-0.127
	c-0.587-0.06-0.699-0.212-0.826,0.43c-0.188,0.954-0.531,1.877-1.015,2.72c-0.161-1.08-0.109-2.194,0.154-3.254
	c-0.521,0.197-1.068,0.322-1.622,0.377c-0.376,0.037-0.42-0.046-0.558,0.231c-0.112,0.226-0.002,0.722,0.001,0.992
	c0.014,1.146-0.063,2.439,0.171,3.565c0.081,0.393,0.164,0.588,0.641,0.533c0.297-0.034,0.509-0.232,0.699-0.444
	c0.525-0.587,0.776-1.398,1.207-2.051c-0.062,1.302,0.01,2.596,0.103,3.895C12.216,40.05,11.495,40.121,10.993,39.437z
	 M55.666,46.355c-1.45-0.454-3.139-0.447-4.637-0.545c-1.548-0.101-3.098-0.168-4.648-0.223c-11.557-0.42-23.206-0.601-34.752,0.213
	c-3,0.212-5.894,0.5-8.758,1.459c-0.293,0.098-1.993,0.692-0.848,0.74c0.25,0.01,0.406-0.063,0.645-0.132
	c7.396-2.124,15.549-2.106,23.161-1.812c7.961,0.308,15.894,1.192,23.862,1.388c1.201,0.029,2.393,0.026,3.59-0.088
	c0.78-0.074,1.846-0.074,2.563-0.437C56.365,46.654,56.167,46.512,55.666,46.355z M35.542,35.516
	c-0.021,1.175,0.299,1.614,0.174,0.802c-0.03-0.159-0.061-0.313-0.092-0.459C35.598,35.749,35.578,35.65,35.542,35.516z
	 M16.607,2.41c0.001-0.064,0.007-0.115,0.023-0.129C16.601,2.324,16.597,2.369,16.607,2.41z M40.293,6.499
	c0.008-0.053,0.014-0.093,0.015-0.093C40.278,6.436,40.281,6.469,40.293,6.499z M32.518,6.406c-0.033,0.033-0.027,0.07-0.008,0.103
	C32.519,6.446,32.524,6.402,32.518,6.406z M51.839,36.695c0.017,1.307,0.034,2.614,0.051,3.921c0.32-0.193,0.639-0.385,0.959-0.578
	c0.279-0.168,1.105-0.47,1.256-0.757c0.095-0.179-0.168-0.881-0.21-1.097c-0.104-0.539-0.175-1.085-0.217-1.633
	c-0.087-1.157-0.035-2.325,0.159-3.47c-0.514,0-1.126-0.099-1.627,0c-0.489,0.096-0.346,0.111-0.346,0.698
	c0,0.436,0.2,1.461,0,1.844c-0.144,0.275-0.543,0.238-0.922,0.303c0.009-0.94,0.017-1.879,0.026-2.819
	c-0.456,0.175-1.692,0.39-1.979,0.761c-0.105,0.135,0.056,0.951,0.066,1.151c0.026,0.508,0.035,1.018,0.028,1.527
	c-0.015,1.019-0.095,2.036-0.242,3.044c0.493-0.098,1.544-0.036,1.949-0.29c0.291-0.182,0.146-0.96,0.151-1.402
	c0.002-0.234-0.08-0.976,0.076-1.108C51.15,36.679,51.656,36.717,51.839,36.695z M45.272,14.536
	c2.284-0.122,4.565-0.295,6.847-0.433c1.341-0.081,2.737-0.215,4.076-0.035c-0.576-3.593-1.403-3.06-1.431-1.951
	c-3.132-1.172-10.283,3.351-12.515,0.635c-0.188-0.228-0.315-0.497-0.403-0.778c-0.062-0.2-0.053-1.086-0.155-1.186
	c-0.087-0.086-0.424,0.085-0.512,0c-0.052-0.05,0.008-0.376,0-0.448c-0.065-0.562,0.013-0.448-0.615-0.448
	c0-0.949,0.185-1.897-0.051-2.639c-0.118-0.371-0.121-0.396-0.026-0.717c-0.062,0.083-0.166,0.034-0.194-0.035
	c-0.035,0.226-0.122,0.808-0.113,0.778c-0.079,0.253-0.195,0.355-0.179,0.653c0.022,0.43,0.051,0.875,0.051,1.32
	c-0.107-0.089-0.462-0.192-0.512-0.269c-0.028-0.043,0.027-0.125-0.026-0.192c-0.008-0.01-0.019-0.271-0.026-0.307
	c-0.002,0.136,0.029,0.293-0.051,0.41c-0.111,0.162-0.525,0.283-0.692,0.589c-0.146-0.253-0.362-0.358-0.413-0.601
	c-0.037-0.177,0.037-0.421,0.008-0.617c-0.064-0.431-0.265-0.844-0.569-1.158c-0.255-0.263-0.613-0.418-0.896-0.578
	c-0.225-0.127,0.027-0.264-0.461-0.275c0.125-0.195-0.005-0.3,0.038-0.461c0.026-0.096-0.044-0.118-0.038-0.243
	c0.003-0.077,0.262-0.061,0.333-0.192c-0.244,0.225-0.634-0.075-0.461-0.359c-0.21,0.191,0.075,0.651,0.051,0.897
	c-0.039,0.402-0.085,0.348-0.436,0.538c0,0.051,0,0.102,0,0.154c-0.179,0.04-0.349,0.103-0.51,0.191
	c-0.311,0.169-0.574,0.422-0.754,0.727c-0.186,0.314-0.272,0.666-0.273,1.03c-0.001,0.511,0.055,0.521-0.205,0.948
	c-0.168-0.308-0.578-0.424-0.692-0.589c-0.074-0.107-0.043-0.28-0.051-0.41c-0.08,0.578-0.052,0.344-0.564,0.769
	c0-0.383,0.04-0.802,0.039-1.166c-0.001-0.164-0.017-0.227-0.039-0.372c-0.013-0.085,0.064-0.076,0.051-0.141
	c-0.034-0.174-0.11-0.026-0.179-0.243c-0.103-0.324-0.121-0.476-0.026-0.794c-0.059,0.079-0.153,0.038-0.188-0.025
	c-0.035,0.23-0.143,0.776-0.12,0.717c-0.292,0.732-0.051,1.699-0.051,2.665c-0.555,0-0.523-0.116-0.615,0.353
	c-0.042,0.216,0.105,0.88-0.432,0.544c-0.365-0.229,0.199-1.295-0.243-1.512c-0.278-0.136-0.507,0.136-0.657-0.125
	c-0.172-0.298,0.167-0.883,0-1.185C30.233,7.68,29.895,8,29.591,7.841c-0.227-0.119-0.099-0.048-0.148-0.4
	c-0.098-0.696-0.105-1.682,0-2.375c0.043-0.286,0.216-0.686,0.154-0.992c-0.035-0.171-0.203-0.164-0.256-0.307
	c-0.016-0.042,0.031-0.24,0.077-0.154c-0.072-0.136-0.151-0.249-0.231-0.448C29.15,3.072,29.09,3.014,29.11,2.87
	c0.04-0.292,0.106-0.129,0.205-0.359c-0.228,0.169-0.307-0.064-0.307-0.231c-0.112,0.184,0.056,0.673,0,0.82
	c-0.039,0.104-0.168,0.263-0.224,0.384c-0.044,0.095,0.045,0.149,0.019,0.205c-0.072,0.16-0.242,0.203-0.282,0.384
	c-0.025,0.114,0.085,0.127,0.077,0.179c-0.053,0.324-0.007,0.499,0.026,0.82c0.058,0.569,0,1.17,0,1.742
	c-0.209-0.168-0.713-0.267-0.82-0.423c-0.017-0.024-0.007-0.212-0.026-0.269c-0.044-0.137-0.028-0.346-0.051-0.513
	c-0.044,0.225,0,0.398-0.064,0.577c-0.099,0.279,0.095,0.094-0.129,0.295c-0.335,0.301-0.739,0.231-1.012,0.717
	c-0.129-0.226-0.349-0.401-0.473-0.619c-0.163-0.285-0.144-0.35-0.125-0.732c0.024-0.504-0.052-1-0.254-1.465
	c-0.189-0.433-0.475-0.818-0.831-1.127c-0.38-0.33-0.895-0.392-1.263-0.67c-0.068-0.051-0.132-0.419-0.205-0.461
	c-0.183-0.107-0.414,0.008-0.513-0.141c-0.022-0.033,0.13-0.296,0.135-0.391c0.006-0.143-0.192-0.319-0.135-0.519
	c0.115-0.398,0.27-0.048,0.513-0.487c-0.381,0.349-1-0.113-0.769-0.589c-0.343,0.339,0.047,0.659,0.103,1.003
	c0.018,0.111,0.013,0.33,0,0.458c0.017-0.163-0.159,0.681,0,0.461c0,0.032,0,0.064,0,0.096c0.011,0.107-0.075,0.127-0.258,0.061
	c-0.083,0.078-0.194,0.124-0.255,0.182c-0.067,0.064-0.155,0.223-0.205,0.269c-0.268,0.245-0.843,0.359-1.19,0.627
	c-0.378,0.292-0.682,0.669-0.893,1.097c-0.217,0.44-0.323,0.918-0.326,1.408c-0.001,0.173,0.166,0.785,0.128,0.923
	c-0.052,0.189-0.361,0.433-0.461,0.615c-0.264-0.487-0.706-0.42-1.011-0.718c-0.199-0.195-0.061-0.043-0.136-0.351
	c-0.036-0.147-0.025-0.3-0.058-0.493c-0.031,0.175-0.004,0.362-0.045,0.487c-0.028,0.087,0.016,0.219-0.019,0.269
	c-0.114,0.165-0.603,0.245-0.807,0.423c-0.037-0.852,0.107-1.748,0.026-2.434c-0.022-0.186,0.104-0.209,0.037-0.414
	c-0.03-0.091-0.224-0.145-0.268-0.239c-0.019-0.04,0.023-0.178,0.058-0.115c-0.039-0.071-0.261-0.41-0.288-0.512
	c-0.088-0.324,0.125-0.387,0.179-0.589c-0.112,0.102-0.275,0.018-0.305-0.101c-0.004,0.209,0.05,0.602,0.023,0.691
	c-0.03,0.101-0.123,0.25-0.179,0.384c-0.026,0.063,0.011,0.156-0.026,0.243c-0.098,0.231-0.173,0.245-0.237,0.487
	c0.021-0.077-0.034,0.45-0.045,0.386c0.062,0.36,0.179,0.572,0.18,0.978c0.001,0.754,0.004,1.509,0.025,2.263
	c-0.701,0-0.948-0.21-0.948,0.526c0,0.352,0.011,0.698-0.038,1.037c-0.102,0.706-0.386,1.418-0.955,1.875
	c-1.334,1.072-3.411,0.409-4.81-0.142c-2.083-0.82-4.155-1.772-6.396-2.07C2.111,8.923,1.083,9.123,0,9.123
	c3.871,1.994,8.349,2.996,12.589,3.8C23.325,14.955,34.391,15.119,45.272,14.536z M33.143,26.494
	c0.503-0.104,1.307-1.189,1.605-1.561c-0.89-0.905-0.776-2.283-1.053-3.43c-0.132-0.547-0.346-1.077-0.788-1.448
	c-0.144-0.121-0.601-0.473-0.799-0.427c-0.232,0.054-0.708,1.124-0.82,1.332c-0.125-0.601-0.675-0.945-1.206-1.155
	c-0.513-0.202-0.458-0.172-0.78,0.129c-0.221,0.207-0.375,0.646-0.55,0.898c-0.009-0.427-0.017-0.854-0.026-1.281
	c-0.471,0.194-1.408,0.292-1.782,0.597c-0.316,0.258-0.082,1.492-0.079,2.002c0.009,1.437-0.107,2.876-0.343,4.294
	c0.553-0.111,2.087-0.214,2.279-0.581c0.226-0.432-0.015-1.631-0.019-2.119c-0.004-0.431-0.137-2.056,0.402-1.98
	c0.561,0.079,0.415,3.683,0.413,4.168c0.667-0.074,1.351-0.022,1.999,0.154c-0.14-0.754-0.233-1.518-0.277-2.283
	c-0.027-0.48-0.178-1.225,0.089-1.666c0.523-0.867,0.784,0.645,0.854,1.071c0.144,0.888,0.151,1.819,0.408,2.686
	C32.776,26.254,32.832,26.558,33.143,26.494z M13.607,28.29c0.248-0.923,0.495-1.845,0.743-2.768
	c-3.494,1.07-7.079-2.577-5.546-6.037c0.38-0.856,1.244-1.506,2.21-1.39c1.444,0.174,2.159,1.786,2.464,3.019
	c0.567-1.429,0.675-3.026,0.307-4.518c-0.196-0.795-0.431-0.774-1.222-0.757c-0.526,0.011-1.056,0.094-1.552,0.272
	c-2.105,0.754-3.422,2.923-3.923,5.003c-0.491,2.04-0.31,4.537,1.26,6.086C9.726,28.559,11.807,28.766,13.607,28.29z M21.864,25.72
	c0.773-1.025,0.975-2.485,1.019-3.734c0.077,0.305,0.12,0.527,0.15,0.715c0.18,0.953,0.31,1.949,0.793,2.783
	c0.219,0.379,0.782,1.113,1.303,1.065c0.257,0.136,0.367,0.037,0.332-0.299c0.053-0.201,0.106-0.402,0.16-0.603
	c0.069-0.259,0.137-0.518,0.208-0.776c0.037-0.134,0.142-0.339,0.133-0.476c-0.015-0.247-0.063-0.115-0.2-0.351
	c-0.263-0.455-0.553-0.826-0.742-1.336c-0.4-1.074-0.59-2.214-0.804-3.336c-0.423,0.24-0.872,0.356-1.308,0.55
	c-0.489,0.217-0.354,0.083-0.437,0.557c-0.112,0.642-0.182,1.248-0.391,1.875c-0.227,0.681-0.523,1.362-0.933,1.955
	c-0.244,0.352-0.875,0.75-0.957,1.073c-0.035,0.136,0.136,1.139,0.231,1.201C20.809,26.839,21.661,25.991,21.864,25.72z
	 M17.784,28.854c2.395-2.454,1.733-5.976,2.332-9.071c-0.454-0.038-0.907-0.081-1.36-0.127c-0.587-0.06-0.702-0.214-0.824,0.43
	c-0.181,0.953-0.516,1.876-0.993,2.721c-0.174-1.088-0.121-2.213,0.154-3.28c-0.449,0.183-0.92,0.308-1.399,0.375
	c-0.122,0.017-0.726-0.027-0.805,0.06c-0.082,0.091-0.004,0.662-0.003,0.793c0.005,1.256,0.057,2.512,0.158,3.764
	c0.038,0.48,0.08,0.797,0.657,0.73c0.295-0.034,0.511-0.233,0.701-0.444c0.529-0.588,0.787-1.401,1.23-2.051
	c-0.062,1.309-0.017,2.587,0.077,3.895c-0.738-0.132-1.463-0.051-1.947-0.743c-0.244,0.366-0.729,0.913-0.693,1.334
	c0.028,0.33,0.384,0.806,0.625,1.024C16.25,28.769,17.076,28.782,17.784,28.854z M18.313,36.201
	c-0.045-0.243-0.092-0.475-0.145-0.685C18.125,36.746,18.475,37.177,18.313,36.201z M23.959,37.284
	c0.057,0.116,0.117,0.206,0.178,0.295C24.522,38.07,24.714,37.389,23.959,37.284z M20.654,40.129
	c0.171-0.65,0.472-1.364,0.544-2.033c0.03-0.275,0.064-0.203-0.03-0.413c-0.105-0.235-0.416-0.479-0.551-0.727
	c-0.664-1.216-0.854-2.687-1.116-4.029c-0.425,0.214-0.872,0.347-1.313,0.519c-0.519,0.202-0.349,0.072-0.439,0.563
	c-0.109,0.597-0.172,1.177-0.358,1.762c-0.22,0.689-0.505,1.374-0.901,1.982c-0.236,0.363-0.925,0.832-1.021,1.155
	c-0.037,0.124,0.16,1.173,0.239,1.221c0.43,0.258,1.317-0.697,1.503-0.962c0.718-1.022,0.914-2.431,0.957-3.65
	c0.073,0.287,0.115,0.502,0.145,0.685C18.609,37.775,18.862,39.853,20.654,40.129z M6.338,31.636c1.405,0.223,2.1,1.79,2.4,3.009
	c0.344-0.876,0.518-1.816,0.509-2.757c-0.004-0.469-0.053-0.937-0.146-1.396c-0.047-0.231-0.105-0.46-0.174-0.686
	c0.008-0.314-0.14-0.442-0.443-0.384c-1.166-0.429-2.826,0.359-3.698,1.079c-2.044,1.688-2.988,4.694-2.593,7.275
	c0.372,2.433,2.133,4.162,4.622,4.275c0.485,0.022,1.391,0.082,1.822-0.174c0.297-0.176,0.265-0.19,0.365-0.562
	c0.202-0.754,0.405-1.508,0.607-2.262c-3.51,1.075-7.143-2.639-5.518-6.103C4.491,32.097,5.373,31.483,6.338,31.636z M23.959,37.284
	c0.062,0.128,0.122,0.223,0.178,0.295c0.576,0.841,1.333,0.515,2.179,0.013c-0.23,0.981-0.698,2.162-1.791,2.416
	c-0.866,0.201-1.681-0.215-2.086-0.982c-0.431-0.816-0.468-1.824-0.474-2.726c-0.005-0.662-0.114-1.382,0.259-1.917
	c0.331-0.475,0.867-1.157,1.388-1.25c0.551-0.099,1.687,0.131,2.165,0.45c0.572,0.382,0.636,1.069,0.652,1.704
	c0.014,0.567,0.079,1.121-0.321,1.501C25.604,37.267,24.598,37.373,23.959,37.284z M23.806,34.696l0.051,1.896
	C25.753,36.592,24.908,34.773,23.806,34.696z M35.158,26.24c0.162-1.293,0.283-2.637,0.764-3.86c0.201-0.51,0.466-0.989,0.781-1.437
	c0.208-0.295,0.438-0.574,0.677-0.844c0.317-0.357,0.313-0.401,0.747-0.357c2.585,0.263,2.011,4.718,2.796,6.395
	c-0.675,0.222-1.35,0.444-2.024,0.666c-0.209-0.917-0.329-1.853-0.359-2.793C38.075,25.25,36.671,27.093,35.158,26.24z
	 M37.669,24.062c0.641-0.743,1.358-1.948-0.077-2.306C37.489,22.524,36.567,25.42,37.669,24.062z M43.529,23.506
	c0.155-0.39-0.056-0.148,0.35-0.279c0.158-0.051,0.362-0.043,0.528-0.062c0.017,1.307,0.034,2.614,0.051,3.921
	c0.348-0.209,0.695-0.419,1.043-0.628c0.248-0.15,1.036-0.448,1.172-0.706c0.102-0.192-0.162-0.85-0.211-1.102
	c-0.115-0.602-0.191-1.212-0.227-1.823c-0.064-1.102,0.001-2.213,0.195-3.3c-0.514,0-1.127-0.099-1.627,0
	c-0.494,0.098-0.346,0.111-0.346,0.704c0,0.444,0.203,1.471,0,1.862c-0.142,0.273-0.568,0.239-0.948,0.304
	c0.017-0.94,0.034-1.879,0.051-2.819c-0.431,0.158-1.764,0.383-2.014,0.739c-0.112,0.159,0.07,0.933,0.082,1.152
	c0.028,0.511,0.038,1.023,0.031,1.534c-0.014,1.023-0.098,2.046-0.251,3.058c0.703-0.139,1.413-0.242,2.127-0.307
	C43.514,25.149,43.307,24.066,43.529,23.506z M30.443,18.853c-0.263-0.04-0.446-0.07,0.076,0.007
	c0.602,0.094,0.394,0.064,0.113,0.022c0.882,0.152,1.781,0.446,2.679,0.281c0.955-0.175,1.361-1.003,1.82-1.789
	c-1.628,0.461-3.006,0.071-4.621-0.146c-0.584-0.079-1.701-0.267-2.263-0.028c-0.505,0.215-0.978,1.37-1.316,1.866
	C28.072,18.761,29.274,18.691,30.443,18.853z M49.133,23.679c0.031,0.057,0.091-0.087,0.182-0.609c0.043-0.22,0.07-0.427,0.09-0.571
	c-0.183-0.171-0.935-1.077-1.179-1.051c-0.098,0.011-0.36,0.368-0.421,0.43c-0.182,0.186-0.487,0.401-0.614,0.627
	c-0.182,0.323-0.202,0.146,0.055,0.543c0.223,0.344,0.745,1.103,1.213,1.144C48.791,24.222,48.996,23.987,49.133,23.679z
	 M42.563,39.77c0.172-1.293,0.303-2.636,0.783-3.86c0.2-0.509,0.462-0.988,0.775-1.437c0.206-0.295,0.432-0.574,0.669-0.844
	c0.318-0.362,0.31-0.4,0.749-0.357c2.595,0.253,2.004,4.719,2.789,6.395c-0.666,0.222-1.333,0.444-1.999,0.666
	c-0.234-0.912-0.364-1.851-0.384-2.793C45.494,38.806,44.087,40.614,42.563,39.77z M45.1,37.592
	c0.641-0.743,1.358-1.948-0.077-2.306C44.921,36.054,43.998,38.95,45.1,37.592z M23.033,22.701c-0.046-0.242-0.091-0.483-0.15-0.715
	C22.841,23.202,23.181,23.634,23.033,22.701z"/>
</svg>
