<?xml version="1.0" encoding="utf-8"?>
<!-- Generator: Adobe Illustrator 19.2.1, SVG Export Plug-In . SVG Version: 6.00 Build 0)  -->
<svg version="1.1" id="Слой_1" xmlns="http://www.w3.org/2000/svg" xmlns:xlink="http://www.w3.org/1999/xlink" x="0px" y="0px"
	 width="115px" height="48px" viewBox="0 0 115 48" enable-background="new 0 0 115 48" xml:space="preserve">
<path fill="#868686" d="M19.854,20.368c0-2.696,2.059-4.437,4.461-4.437c2.157,0,4.314,1.324,4.314,4.78v3.652h-1.52v-3.701
	c0-2.77-1.716-3.284-2.843-3.284c-1.569,0-2.843,1.078-2.843,2.892c0,2.083,1.667,2.843,2.868,2.843
	c0.882,0,1.569-0.343,2.181-0.931v1.569c-0.662,0.515-1.446,0.784-2.427,0.784C21.741,24.535,19.854,22.893,19.854,20.368z
	 M28.188,9.853h4.755v14.462h1.642V9.853h4.755V8.334H28.188V9.853z M44.88,5.638l-3.407-3.971l-0.686,0.588l3.407,3.971
	L44.88,5.638z M17.624,24.315L14.56,8.407h-1.496L8.75,21.57L4.559,8.407H3.064L0,24.315h1.52l2.622-11.863L7.991,24.34h1.495
	l4.02-11.815l2.598,11.79H17.624z M43.703,8.334h-1.471v1.52h1.299c4.486,0.172,5.172,2.5,5.638,5.54h-0.441h-6.544v1.52h7.01
	c-0.319,4.387-1.52,5.466-5.147,5.907h-1.814v1.52h1.471c5.76,0,7.28-4.191,7.28-7.991C50.983,12.55,49.463,8.334,43.703,8.334z
	 M49.978,3.186c0,0,0,0.001,0,0.001h0V3.186z M47.871,4.117c-0.172-0.172-0.245-0.49-0.245-0.931v-1.47
	c0-0.441,0.074-0.76,0.245-0.931c0.171-0.171,0.515-0.27,0.931-0.27c0.441,0,0.76,0.098,0.931,0.27
	c0.171,0.172,0.245,0.49,0.245,0.931v0.858h-1.52v0.735c0,0.147,0.025,0.245,0.049,0.294c0.049,0.074,0.147,0.098,0.27,0.098
	c0.147,0,0.221-0.049,0.27-0.098c0.049-0.074,0.074-0.147,0.074-0.294V2.966h0.833v0.221h0.024c0,0.44-0.074,0.759-0.245,0.93
	c-0.172,0.172-0.49,0.27-0.931,0.27C48.385,4.387,48.042,4.289,47.871,4.117z M48.482,1.887h0.663v-0.27
	c0-0.147-0.025-0.245-0.074-0.294C49.046,1.249,48.948,1.2,48.801,1.2c-0.123,0-0.221,0.049-0.27,0.123
	c-0.049,0.049-0.049,0.147-0.049,0.294V1.887z M31.054,3.971c-0.074-0.147-0.098-0.417-0.098-0.858V1.691
	c0-0.343,0.049-0.613,0.123-0.784c0.098-0.221,0.294-0.343,0.613-0.343c0.147,0,0.27,0.025,0.392,0.098
	c0.074,0.049,0.196,0.123,0.319,0.245V0h0.858v0.907c0.123-0.123,0.245-0.196,0.319-0.245c0.123-0.074,0.245-0.098,0.392-0.098
	c0.294,0,0.515,0.123,0.637,0.343c0.074,0.172,0.098,0.417,0.098,0.784l0.001,1.422c0,0.417-0.025,0.711-0.074,0.858
	c-0.098,0.245-0.343,0.368-0.711,0.368c-0.147,0-0.27-0.049-0.368-0.098c-0.074-0.049-0.172-0.147-0.294-0.27v0.931h-0.858V3.971
	c-0.098,0.123-0.196,0.221-0.27,0.27c-0.123,0.049-0.245,0.098-0.368,0.098C31.397,4.339,31.152,4.216,31.054,3.971z M33.261,3.285
	c0,0.147,0.025,0.221,0.049,0.27c0.049,0.074,0.123,0.098,0.27,0.098c0.123,0,0.196-0.025,0.245-0.098
	c0.025-0.05,0.049-0.123,0.049-0.271V1.618c0-0.245-0.098-0.392-0.294-0.392c-0.147,0-0.221,0.049-0.27,0.098
	c-0.025,0.049-0.049,0.147-0.049,0.294V3.285z M31.766,3.285c0,0.147,0.025,0.221,0.049,0.27c0.049,0.074,0.147,0.098,0.27,0.098
	c0.123,0,0.221-0.025,0.27-0.098c0.024-0.05,0.024-0.123,0.024-0.271V1.618c0-0.147,0-0.245-0.049-0.294
	c-0.049-0.049-0.123-0.098-0.245-0.098c-0.221,0-0.319,0.147-0.319,0.392V3.285z M15.663,3.506V2.941
	c0-0.196,0.025-0.368,0.074-0.515c0.074-0.196,0.319-0.392,0.711-0.564c0.147-0.049,0.368-0.123,0.686-0.245V1.544
	c0-0.123-0.025-0.196-0.049-0.27C17.036,1.225,16.962,1.2,16.815,1.2c-0.147,0-0.245,0.049-0.27,0.147
	C16.52,1.396,16.52,1.519,16.52,1.69h-0.76V1.471c0-0.343,0.098-0.613,0.294-0.76c0.172-0.123,0.417-0.196,0.809-0.196
	c0.368,0,0.686,0.074,0.858,0.221c0.172,0.172,0.27,0.441,0.27,0.858v2.744h-0.809V3.971c-0.27,0.27-0.539,0.417-0.735,0.417
	C15.908,4.388,15.663,4.094,15.663,3.506z M16.52,3.285c0,0.147,0,0.221,0.025,0.294c0.049,0.049,0.147,0.098,0.27,0.098
	c0.147,0,0.221-0.049,0.27-0.098c0.048-0.025,0.048-0.123,0.048-0.27V2.304c-0.172,0.074-0.319,0.172-0.392,0.221
	c-0.123,0.123-0.196,0.245-0.221,0.392c0,0.049,0,0.098,0,0.147V3.285z M1.25,2.77c0.098-0.074,0.221-0.123,0.319-0.172
	c0.147,0.196,0.245,0.49,0.294,0.833c0.024,0.196,0.049,0.515,0.049,0.907H2.77c0-0.49-0.049-0.882-0.098-1.152
	C2.549,2.818,2.378,2.451,2.108,2.181C2.549,1.764,2.77,1.274,2.77,0.686V0.638V0.564H1.912c0,0.736-0.245,1.275-0.662,1.618V0.564
	H0.417v3.775H1.25V2.77z M16.741,39.217c-0.024,0.013-0.044,0.034-0.049,0.074c0,0,0.049,0.123,0.172,0.147
	c0.098,0,0.27,0.025,0.294-0.049c0.013-0.026-0.003-0.064-0.031-0.095C17.026,39.324,16.857,39.298,16.741,39.217z M15.963,43.362
	c0.014,0.103,0.047,0.126,0.067,0.145c0.098,0.172,0.172,0.172,0.294,0.074c0.013-0.016,0.011-0.041,0.015-0.062
	c-0.029,0.005-0.057,0.019-0.087,0.016C16.154,43.513,16.045,43.456,15.963,43.362z M19.373,33.52
	c-0.047,0.076-0.019,0.134,0.064,0.134h0.417v-0.066c-0.096-0.025-0.212-0.055-0.27-0.055C19.563,33.533,19.47,33.531,19.373,33.52z
	 M30.05,31.521c0,0.098-0.049,0.441-0.049,0.539c0,0.049,0.76,0.196,0.809,0.049c0.049-0.147,0.049-0.343,0.098-0.343
	c0.049,0,0.049,0.343-0.049,0.417c-0.074,0.098-0.784,0-0.833,0.049s-0.025,0.515-0.123,0.588c-0.074,0.074,0,0.196-0.147,0.123
	c-0.147-0.074-0.613-0.172-0.784-0.172c-0.147,0-0.417-0.049-0.515,0c-0.049,0.074-0.221,0.049-0.221,0.098s0.074,0.123,0.294,0.123
	c0.245,0,0.588,0,0.588,0.049c0,0.025,0.025,0.147-0.245,0.196c-0.294,0.049-0.539,0-0.588,0c-0.074,0-0.196,0.098-0.098,0.196
	c0.098,0.098,0.392,0.074,0.319,0.147c-0.049,0.049-0.147,0.098-0.27,0.098c-0.123,0-0.343-0.025-0.27,0.074
	c0.098,0.074-0.294,0.172-0.392,0.074c-0.098-0.098-0.392-0.147-0.613-0.147c-0.172,0-0.784,0.368-0.784,0.441
	c0,0.098,0.098,0.196,0.049,0.245s-0.49,0.172-0.564,0.27c-0.098,0.074-0.417,0.49-0.49,0.49c-0.049,0-0.319,0.319-0.392,0.392
	c-0.074,0.074-0.123,0.368-0.074,0.441c0.074,0.074,0.147,0.368,0.147,0.368s0,0.172-0.098,0.245
	c-0.074,0.074-0.025,0.27-0.074,0.319c-0.049,0.025,0.049,0.515,0.049,0.588s-0.025,0.221,0,0.368c0.049,0.147,0.27,0.49,0.49,0.564
	c0.172,0.098,0.147,0.27,0.172,0.27c0.049,0,0.025-0.098,0.123-0.098c0.098,0,0.221,0.123,0.319,0.123
	c0.123,0,0.172,0.025,0.245-0.049c0.074-0.074,0.049-0.196,0.098-0.343c0.049-0.147,0.172-0.319,0.319-0.221
	c0.123,0.074,0.27,0,0.27,0.049s0.074,0.539,0,0.613c-0.074,0.074,0.196,0.245,0.123,0.441c-0.074,0.172-0.245,0.294-0.368,0.27
	c-0.123-0.025-0.294-0.074-0.294-0.196c0-0.147-0.123-0.123-0.196-0.049c-0.074,0.074-0.074,0.221-0.074,0.27
	c0,0.049,0.221,0.319,0.27,0.319s0.27,0.074,0.441,0c0.147-0.049,0.245,0.049,0.245,0.049s0.172-0.27,0.27-0.27
	c0.074,0,0.074-0.245,0.074-0.343c0-0.074-0.221-0.392-0.221-0.49c0-0.074-0.343-0.417-0.172-0.735
	c0.172-0.294,0.319-0.123,0.319-0.123s0.196,0.245,0.196,0.319c0,0.074,0.049,0.294,0.123,0.196c0.098-0.098,0.27-0.368,0.27-0.441
	c0-0.074-0.025-0.711,0-0.882c0.049-0.147,0.025-0.637,0.098-0.711c0.074-0.074,0.196-0.221,0.319-0.221
	c0.123,0,0.417,0.294,0.417,0.294v0.294c0,0.098-0.074,0.123-0.074,0.172s0.172,0.098,0.294,0.049
	c0.147-0.025,0.294,0.098,0.343,0.172c0.049,0.049,0.123,0.319,0.049,0.368c-0.049,0.049-0.319,0.245-0.417,0.147
	c-0.098-0.098-0.196-0.098-0.196-0.098s0.025,0.245,0,0.245c-0.049,0-0.172,0.147-0.196,0.147c-0.049,0,0.025,0.147,0.025,0.196
	s-0.049,0.245-0.147,0.343c-0.074,0.098-0.172,0.049-0.221,0.098c-0.049,0.049,0.123,0.098,0.123,0.098s0.147,0.172-0.049,0.319
	c-0.196,0.147-0.319,0.417-0.319,0.49c0,0.074-0.074,0.294-0.074,0.294s0.319,0.147,0.319,0.245c0,0.123,0,0.221,0.049,0.172
	c0.049-0.049,0.049-0.123,0.172-0.172c0.123-0.025,0.417,0.074,0.417,0.123s0.098,0.343,0.098,0.49c0,0.123,0.172,0.147,0.245,0.074
	c0.074-0.074,0.172-0.27,0.172-0.368c0-0.123-0.172-0.343-0.074-0.49c0.074-0.123,0.098-0.392,0.392-0.392
	c0.27,0,0.564,0.245,0.441,0.588c-0.098,0.294-0.074,0.441-0.196,0.662c-0.098,0.196-0.098,0.343-0.098,0.417
	c0,0.074,0.27,0.245,0.27,0.319s-0.147,0.392-0.343,0.515c-0.221,0.074-0.441,0.245-0.539,0.245c-0.098,0-0.294,0.074-0.343,0.074
	s-0.196,0-0.196,0.074c0,0.049,0.074,0.172,0.221,0.172c0.172,0,0.441,0.098,0.588,0.196c0.098,0.123,0.123,0.123,0.196,0.196
	c0.074,0.098,0.172,0,0.245,0.098c0.098,0.098,0.123,0.172,0.196,0c0.098-0.172,0.294-0.441,0.392-0.441
	c0.074,0,0.417,0.049,0.49,0.392c0.074,0.319-0.27,0.417-0.368,0.539c-0.098,0.122-0.196,0.417-0.196,0.441
	c0,0.049,0.172,0.245,0.147,0.343c-0.025,0.123-0.074,0.49-0.515,0.319c-0.417-0.123-0.662-0.539-0.662-0.662
	c0-0.123-0.245-0.417-0.368-0.368c-0.147,0.049-0.368,0.27-0.417,0.319c-0.049,0.049-0.294,0.025-0.368-0.074
	c-0.098-0.074-0.147,0-0.196-0.319c-0.049-0.294-0.245-0.025-0.343-0.025c-0.074,0-0.245,0.098-0.319,0.172
	c-0.074,0.074-0.147,0.025-0.221,0.098c-0.049,0.074,0.172,0.074,0.294,0.074c0.123,0,0.098,0.049,0.172,0.196
	c0.074,0.147,0.074,0.245,0.27,0.147c0.196-0.098,0.515-0.074,0.564,0.049c0.049,0.098,0.074,0.221-0.098,0.515
	c-0.196,0.245,0.294,0.539,0.49,0.686c0.147,0.172,0.098,0.564-0.172,0.76c-0.27,0.196-0.392-0.074-0.441-0.123
	c-0.074-0.074-0.319-0.245-0.319-0.172c0,0.049,0.098,0.343,0.049,0.49c-0.049,0.098-0.27,0.539-0.833,0.343
	c-0.588-0.172-0.735-0.735-0.735-0.784c0-0.025-0.294-0.221-0.319-0.27c-0.049-0.049-0.294-0.049-0.368-0.049
	c-0.049,0-0.049,0.147-0.147,0.245c-0.123,0.098-0.441,0.147-0.637,0.417c-0.147,0.27,0.074,0.588,0.147,0.588
	c0.074,0,0.368,0.245,0.392,0.294c0.049,0.025,0.196,0.515-0.392,0.76c-0.613,0.27-0.588-0.221-0.613-0.245
	c-0.049-0.025-0.123-0.196-0.172-0.245s-0.319,0.098-0.319,0.196c0,0.098-0.172,0.196-0.27,0.27
	c-0.074,0.098-0.735-0.564-0.735-0.662s0-0.319-0.049-0.27s-0.074,0.147-0.147,0.147c-0.074,0-0.343-0.049-0.441-0.245
	c-0.074-0.172-0.221-0.441-0.074-0.515c0.147-0.049,0.221-0.074,0.221-0.123c0-0.025,0.049-0.196,0.098-0.245
	c0.049-0.049,0.417-0.147,0.417-0.196c0-0.049-0.294-0.343-0.294-0.441s0.27-0.172,0.368-0.098c0.074,0.074,0.074,0.147,0.147,0.221
	c0.049,0.049,0.098,0.025,0.147-0.025c0.025-0.049,0.025-0.172,0.172-0.172c0.147,0,0.368,0.049,0.368,0.147
	c0,0.074,0.074,0.27,0.123,0.196c0.049-0.049,0.098-0.221,0.049-0.319c-0.025-0.098-0.27-0.613-0.441-0.613
	c-0.171,0-0.441,0.074-0.515,0.123c-0.049,0.049-0.147,0.098-0.245,0.098c-0.074,0-0.196-0.098-0.196-0.123
	c0-0.049-0.098-0.27,0-0.294c0.074-0.025,0.074-0.172,0-0.245c-0.074-0.074-0.172,0.025-0.221,0.074
	c-0.074,0.074-0.123,0.221-0.123,0.221s0.172,0.098,0.172,0.221s-0.196,0.49-0.539,0.319c0,0-0.172,0.392-0.245,0.392
	c-0.098,0-0.074,0.245-0.025,0.245s0.147-0.025,0.245,0c0.098,0.049,0.27,0.27,0.098,0.417c-0.172,0.172-0.368,0.294-0.294,0.441
	c0.074,0.172,0.368,0.613,0.27,0.858c-0.098,0.27-0.294,0.564-0.686,0.417c-0.392-0.098-0.515-0.662-0.588-0.956
	c-0.074-0.27-0.147-0.662-0.221-0.76c-0.074-0.074-0.27,0.172-0.221,0.221c0.074,0.074,0.074,0.294-0.074,0.343
	c-0.147,0.049-0.539,0.098-0.539-0.196c0-0.27,0-0.245-0.049-0.27c-0.025-0.049-0.245-0.221-0.417-0.196
	c-0.196,0.025-0.27,0.196-0.27,0.343c0,0.147-0.049,0.49-0.392,0.392c-0.319-0.098-0.564-0.319-0.515-0.564
	c0.074-0.221,0.441-0.294,0.417-0.368c-0.049-0.074-0.319-0.123-0.49-0.098c-0.123,0.025-0.392,0.147-0.417,0.123
	c0-0.049-0.025-0.49,0.025-0.588c0.049-0.123,0.221-0.392,0.319-0.368c0.123,0,0.392,0.294,0.564,0.27
	c0.196-0.025,0.441-0.245,0.588-0.27c0.123-0.049,0.392,0,0.417-0.049c0.025-0.025-0.049-0.294-0.049-0.392
	c0.025-0.098,0.074-0.221,0.049-0.27c-0.123-0.196-0.245-0.49-0.343-0.417c-0.123,0.049-0.319,0.172-0.319,0.221
	c-0.025,0.074-0.025,0.245-0.098,0.245c-0.098,0.025-0.172,0-0.221,0.025c-0.049,0-0.123,0.147-0.294,0.245
	c-0.172,0.074-0.515,0.074-0.588-0.049c-0.049-0.123-0.221-0.515,0.123-0.711c0,0,0.343-0.368-0.123-0.564
	c-0.49-0.147-0.392-0.049-0.588,0c-0.151,0.065-0.34,0.288-0.55,0.327c0.029-0.139-0.098-0.355-0.162-0.355
	c0,0-0.221-0.123-0.221,0.098c0,0.042,0.003,0.073,0.007,0.1c-0.102-0.116-0.16-0.291-0.079-0.563c0,0,0.025-0.147,0.613-0.221
	c0.588-0.074,0.858-0.025,0.907-0.074c0,0,0.025-0.196,0-0.368c-0.025-0.147,0.147-0.147,0.245-0.245
	c0.123-0.123-0.025-0.392-0.221-0.49c-0.221-0.049-0.368-0.441-0.172-0.588c0.196-0.098,0.515,0.196,0.613,0.294
	c0.098,0.098,0.319-0.147,0.245-0.294c-0.074-0.147-0.392-0.294-0.319-0.588c0.074-0.245,0.613-0.245,0.76-0.049
	c0.123,0.196,0.539,0,0.539-0.074c0-0.049-0.049-0.172,0.098-0.343c0.147-0.147-0.368-0.343-0.588-0.343
	c-0.172,0-0.172-0.564-0.539-0.564c-0.319,0-0.735,0.27-0.882,0.417c-0.013,0.011-0.035,0.017-0.056,0.023
	c-0.024-0.028-0.057-0.052-0.092-0.052c-0.057,0-0.213-0.07-0.294-0.025c-0.126-0.089-0.185-0.241,0.001-0.462
	c0.368-0.49,0.882-0.294,0.956-0.368c0.049-0.049-0.637-0.882-0.025-1.103c0.196-0.074,0.294,0.613,0.564,0.686
	c0,0,0.392,0.172,0.343,0.049c-0.049-0.123-0.196-0.417,0.074-0.564c0.27-0.123,0.417,0.441,0.417,0.76
	c0,0.319,0.147,0.27,0.343-0.025c0,0,0.245-0.196,0.172-0.27c-0.049-0.074-0.539-0.294-0.368-0.76
	c0.147-0.441,0.245-0.098,0.245-0.368c0-0.245-0.686,0.025-0.809,0.025c-0.147,0-0.196-0.392-0.098-0.637
	c0.123-0.196,0.441,0.049,0.637,0.049c0.147,0,0.221-0.074,0.098-0.196c-0.098-0.117-0.482-0.296-0.687-0.463
	c0.034-0.016,0.073-0.053,0.073-0.053s0.221-0.221,0.221-0.441c0-0.197-0.073-0.319-0.098-0.27c-0.025,0.025-0.147,0.27-0.172,0.368
	c-0.024,0.07-0.067,0.227-0.071,0.348c-0.026-0.026-0.063-0.052-0.075-0.077c-0.074-0.172,0.172-1.005,0.319-1.005
	c0.147,0,0.637,0.221,0.858,0.539c0.196,0.27,0.27,0.27,0.319,0.245c0.049-0.049,0.27-0.294,0.417-0.294
	c0.147,0,0.588,0.368,0.098,0.613c-0.49,0.196-0.294,0.662-0.294,0.784c0,0.098,0.221,0.172,0.245-0.074
	c0.049-0.245,0.147-0.343,0.319,0.025c0.147,0.368-0.539,0.441-0.368,0.784c0.147,0.319,0.27,0.221,0.368,0.539
	c0.074,0.319-0.172,0.392-0.049,0.441s0.049-0.196,0.245-0.147c0.221,0.025,0.539,0.27,0.49,0.539
	c-0.049,0.27-0.515,0.172-0.613,0.27c-0.074,0.074,0.049,0.588,0.27,0.417c0.221-0.123,0.809-0.294,0.735-0.662
	c-0.074-0.343-0.711-0.809-0.637-1.078c0.074-0.294,0.196-0.294,0.294-0.392c0.123-0.098,0.074-0.196,0.196-0.245
	c0.123-0.025,0.613,0,0.49,0.319c-0.123,0.294-0.196,0.441-0.074,0.417c0.147-0.049,0.123-0.221,0.196-0.221s0.245,0.392,0.147,0.49
	c-0.074,0.098-0.294,0.245-0.123,0.417c0.172,0.172,0.294,0.025,0.392,0.123c0.074,0.074-0.098,0.294,0.074,0.343
	c0.196,0.025,0.343-0.172,0.343-0.49c0-0.27-0.123-0.833-0.049-1.128c0.098-0.319,0.221-0.515-0.172-0.907
	c-0.393-0.392-0.196-0.539-0.123-0.613c0.074-0.074-0.123-0.931-0.49-1.397c-0.319-0.441-0.319-0.613-0.515-0.613
	c-0.196,0-0.27,0.049-0.588,0.049c-0.294,0-0.49-0.074-0.662,0.074c-0.172,0.172-0.319,0.245-0.392,0.245
	c-0.049,0-0.147-0.196-0.221-0.245c-0.02-0.005-0.049-0.012-0.073-0.019v-0.032c0-0.049-0.221-0.147-0.123-0.221
	c0.074-0.098,0.049-0.196,0.196-0.319c0.123-0.147,0-0.196,0-0.27c0.001-0.122-0.171,0.123-0.269,0.221
	c-0.098,0.123-0.172,0.392-0.27,0.515c-0.015,0.015-0.007,0.024-0.015,0.038c-0.134-0.015-0.279-0.049-0.279-0.134
	c0-0.123,0.172-0.343,0.196-0.539c0.025-0.147,0.221-0.392,0.27-0.49c0.049-0.049,0.074-0.147-0.025-0.147s-0.613-0.27-0.613-0.368
	c0-0.074,0.123,0.049,0.343,0.123c0.221,0.098,0.515-0.074,0.392-0.172c-0.074-0.074-0.245,0.025-0.294-0.123
	c-0.049-0.147,0.049-0.515-0.123-0.515c-0.02,0-0.069,0.004-0.103,0.006c-0.013-0.007-0.043-0.007-0.043-0.007
	s-0.098-0.123-0.27-0.294c-0.172-0.171-0.27-0.392-0.441-0.564c-0.098-0.123-0.196-0.196-0.221-0.245c-0.025,0-0.025,0-0.025,0
	c0.049,0.074-0.172,0.539-0.221,0.588c-0.049,0.049-0.441,0.76-0.441,0.858c0,0.008,0.008,0.019,0.011,0.028
	c-0.003-0.002-0.008,0-0.011-0.002c-0.196-0.074-0.294-0.392-0.245-0.441c0.049-0.049,0.662-0.98,0.662-1.177
	c0-0.196-0.441-1.054-0.441-1.128c0-0.049,0.049-0.074,0.098,0.098c0.172,0.686,0.882,1.275,0.956,1.275
	c0.147,0,0.172-0.441,0.074-0.637c-0.049-0.123,0-0.074,0.025-0.049c0.221,0.564,0.662,1.52,0.784,1.471
	c0.245-0.049,0.27-0.417,0.221-0.711c-0.074-0.245,0.392-1.029,0.245-1.177c-0.049-0.049-0.49-0.809-0.441-0.833
	c0.049-0.049,0.074-1.078,0.147-1.152c0.074-0.074-0.025,0.515,0.074,0.515c0.123,0,0.123-0.588,0.172-0.564
	c0.147,0.074-0.123,0.833-0.123,0.931c0,0.074,0.123,0.025,0.123,0.368c0,0.319,0.221,0.49,0.343,0.613
	c0.123,0.123,0.123-0.637,0.245-0.637c0.098,0-0.049,0.711,0.074,0.833c0.123,0.123,0.368,0.49,0.368,0.49s0.025-0.539,0.172-0.784
	c0.123-0.27,0.245-0.025,0.245-0.147c0-0.123,0.025-1.446,0.172-1.446c0.049,0-0.196,1.618,0.025,1.373
	c0.245-0.221,0.662-1.25,0.809-1.397c0.147-0.147-0.711,1.789-0.637,1.716s0.025,0.809,0.147,0.882c0.147,0.074,0.637,0,0.735-0.172
	c0.098-0.147,0.221-0.172,0.245-0.221c0.025-0.025,0.196,0.294,0.123,0.539c-0.098,0.221,0.049,0.147,0.098,0.098
	c0.074-0.074-0.319,0.49-0.123,0.49c0.196,0,0.833-1.275,0.907-1.373c0.098-0.074-0.49,1.471-0.392,1.544
	c0.074,0.074,0.319-0.049,0.392-0.123c0.049-0.049,0.245-0.098,0.147,0.147s-0.637,1.397-0.637,1.569
	c0,0.147,0.049,0.147,0.049,0.196s-0.074,0.074-0.074,0.147c0,0.074,0.343,0.515,0.343,0.196c0-0.27,0.123-0.417,0.245-0.539
	c0.098-0.098,0.245-0.147,0.343-0.245c0.098-0.098,0.049-0.294,0.098-0.343s0.221-0.025,0.294-0.147
	c0.049-0.147,0.147-0.245,0.049-0.343c-0.098-0.098-0.196-0.27-0.196-0.294s0.074-0.147,0.123-0.098s0.123,0.123,0.123,0.049
	c0-0.098-0.049-0.392-0.049-0.392s-0.417-0.564-0.417-0.637c0-0.098,0.025-0.319,0.025-0.319s0.147,0.27,0.196,0.27
	c0.025,0,0-0.147,0-0.245c0-0.123,0.049-0.147,0.049-0.343s-0.098-0.931-0.147-1.152c-0.025-0.221-0.025-0.319-0.025-0.319
	s0.221,1.029,0.294,1.128c0.074,0.074,0.196,0.123,0.196-0.049c0-0.147,0.049-0.417,0.123-0.343s0,0.343,0.074,0.27
	c0.074-0.074,0.123-0.098,0.221-0.319c0.074-0.221,0.196-0.441,0.196-0.613s0.025-0.245,0.049-0.147
	c0.025,0.074-0.123,0.956-0.196,1.152c-0.074,0.196-0.245,0.49-0.245,0.735s0.074,0.392,0.196,0.784
	c0.147,0.368,0.27,0.294,0.196,0.441c-0.049,0.147-0.294,0.221-0.123,0.221c0.147,0,0.343,0,0.343-0.049
	c0-0.025-0.196-0.098-0.123-0.147c0.074-0.074,0.172,0.049,0.245,0.098c0.049,0.074,0.343,0.147,0.539-0.049
	c0.172-0.172,0.221-0.098,0.221-0.098s0.049,0.098,0.049,0.172c0,0.049,0.025,0.123,0.098,0.049
	c0.074-0.098,0.368-0.123,0.368-0.123s-0.098-2.304-0.221-2.549c-0.098-0.245,0.098,0.123,0.147,0.49
	c0.049,0.343,0.172,1.446,0.172,1.495s0.049,0.049,0.098-0.049c0.049-0.074,0.196-0.735,0.27-0.858
	c0.074-0.147,0.098-0.221,0.098-0.245s-0.221-0.539-0.221-0.588c0-0.074-0.074-0.613,0.098-0.76
	c0.074-0.074-0.025-0.368,0.098-0.368c0.049,0-0.147,0.956-0.147,1.054c0,0.098,0.588,0.784,0.613,0.907
	c0.025,0.123,0.27,0.613,0.294,0.735c0.025,0.123,0.098,0.098,0.098,0.196c0,0.074,0.172,0.245,0.074,0.27
	c-0.074,0.025-0.588-1.029-0.662-1.152c-0.098-0.147-0.147-0.27-0.147-0.27s-0.049,0.368-0.098,0.613
	c-0.025,0.221-0.147,0.588-0.147,0.662c0,0.074-0.147,0.27-0.147,0.319v0.343c0,0-0.039,0.056-0.059,0.136l-0.018-0.064
	c0,0-0.098-0.049-0.172,0c-0.049,0.074-0.123,0.147-0.123,0.147s-0.049,0.196-0.147,0.294c0,0-0.221,0.196-0.27,0.27
	c-0.049,0.049-0.343,0.49-0.515,0.588c-0.172,0.074-0.368,0.417-0.368,0.417s0,0.147-0.049,0.221
	c-0.098,0.147-0.098,0.147-0.098,0.147s-0.074,0.147,0,0.147h0.343c0,0,0.196,0.049,0.196-0.049c0-0.098,0.098-0.196,0.098-0.196
	s0.049-0.123,0.172-0.343c0.098-0.245,0.368-0.27,0.539-0.392c0.125-0.148,0.345-0.344,0.345-0.491v-0.196
	c0-0.06,0.036-0.189,0.064-0.283c0.006,0.053,0.013,0.113,0.013,0.162c0,0.074,0.098,0.098,0.049,0.245
	c-0.049,0.123-0.392,0.49-0.392,0.49s-0.15,0.244,0.021,0.244c0.171,0,0.368-0.074,0.49-0.196c0.123-0.098,0.539-0.27,0.539-0.27
	s0.221-0.123,0.27-0.172c0.025-0.049,0.441-0.196,0.441-0.294c0-0.074,0.074-0.588,0.196-0.613c0.098-0.025,0.221-0.147,0.221-0.147
	s0.074-0.172,0.074-0.294c0-0.123,0-0.294,0.049-0.343s0.123-0.245,0.123-0.319c0-0.049-0.172-1.348-0.27-1.569
	c-0.098-0.196-0.074-0.539-0.123-0.588c-0.049-0.049-0.123-0.098-0.098-0.123c0.025-0.025,0.196,0.074,0.196,0.245
	c0,0.515,0.392,1.177,0.392,1.569c0,0.368,0.123,0.392,0.123,0.613s-0.025,0.564,0.074,0.662c0.098,0.123,0.098,0.123,0.196,0.025
	c0.098-0.074,0.368-0.417,0.441-0.613c0.074-0.196,0.196-0.784,0.098-0.907c-0.123-0.098,0.025-0.784,0.025-0.809
	c0-0.049-0.098-0.319-0.025-0.221c0.074,0.074,0.074,0.49,0.074,0.613c0,0.147,0.098,0.637,0.172,0.711
	c0.074,0.049,0.074-0.441,0.098-0.441c0.367,0.098,0.367,0.785,0.367,1.005c0,0.221-0.147,0.686-0.147,0.858
	s-0.074,0.343-0.172,0.245c-0.074-0.074-0.074-0.441-0.221-0.294c-0.172,0.172-0.196,0.294-0.27,0.441
	C30.148,31.521,30.05,31.423,30.05,31.521z M20.563,31.032c-0.047-0.172-0.243-0.344-0.243-0.516s0.098-0.49,0.098-0.686
	c0-0.196-0.025-0.49-0.123-0.441c-0.074,0.025-0.123,0.147-0.172,0.319c-0.049,0.147-0.098,0.319-0.147,0.539
	c-0.049,0.221-0.074,0.686-0.074,0.76c0,0.049-0.074,0.319-0.074,0.319s-0.196,0.196,0,0.196c0.172,0,0.294,0.294,0.294,0.294
	s0.196-0.147,0.245-0.294C20.441,31.375,20.612,31.203,20.563,31.032z M20.859,30.148c0-0.097-0.147-0.441-0.245-0.441
	c-0.074,0-0.147,0.613,0.049,0.686C20.663,30.393,20.859,30.246,20.859,30.148z M21.251,30.026c0,0.171,0.074,0.196,0.074,0.245
	s0.245,0,0.245-0.172c0-0.195-0.172-0.465-0.172-0.465S21.251,29.855,21.251,30.026z M21.643,32.379
	c-0.074-0.074-0.123-0.123-0.245-0.123c-0.123,0-0.196,0.221-0.196,0.221s0.147,0.074,0.147,0.172c0,0.098,0.294,0.123,0.343,0.196
	c0.049,0.049,0-0.123,0.049-0.172C21.79,32.624,21.741,32.477,21.643,32.379z M21.839,30.713c0-0.05-0.147-0.442-0.22-0.466
	c0,0-0.172,0.049-0.172,0.172s-0.147,0.343-0.221,0.343c-0.074,0-0.025,0.196,0.049,0.441c0.049,0.245,0.123,0.539,0.196,0.368
	c0.074-0.123,0-0.221,0.147-0.368C21.765,31.056,21.839,30.835,21.839,30.713z M22.747,30.222c0.048-0.122-0.172-0.147-0.466-0.024
	s-0.147,0.147-0.147,0.147s0.123,0.539,0.196,0.539S22.698,30.369,22.747,30.222z M18.849,36.644c0-0.073-0.024-0.22-0.098-0.196
	c-0.098,0.049-0.147,0.123-0.147,0.196c0,0.074,0.098,0.049,0.098,0.049S18.849,36.718,18.849,36.644z M20.221,42.209
	c0.098,0,0.172,0.221,0.245,0.294c0.074,0.074,0.245-0.172,0.245-0.221c0-0.074-0.147-0.049-0.098-0.123
	c0.074-0.049,0.123-0.025,0-0.147c-0.123-0.098-0.221-0.368-0.098-0.539c0.123-0.123,0.368-0.172,0.368-0.245
	c0.025-0.049-0.147-0.319-0.294-0.368c-0.172-0.049-0.368-0.098-0.368-0.098c-0.074,0-0.074,0.172-0.074,0.319
	c0,0.172-0.123,0.245-0.196,0.343c-0.098,0.074-0.221-0.049-0.368,0.123c-0.172,0.147-0.123,0.319-0.294,0.319
	c-0.196,0-0.343-0.368-0.564-0.319c-0.196,0.025-0.221,0.417-0.221,0.662c0,0.221-0.098,0.172-0.172,0.245
	c-0.074,0.049,0.172,0.025,0.245,0.025s0.245,0.343,0.319,0.343c0.074,0,0.172-0.172,0.196-0.147c0.049,0.025,0.417,0,0.319,0
	c-0.098,0-0.074-0.392-0.049-0.441c0.049-0.025,0.196-0.098,0.319-0.147c0.147-0.049,0.196-0.098,0.27-0.025
	c0.049,0.049,0.098,0.221,0.098,0.196S20.147,42.209,20.221,42.209z M20.957,45.15c0-0.049-0.049-0.172-0.123-0.27
	c-0.098-0.074-0.515-0.074-0.613-0.074c-0.123,0-0.098,0.368-0.049,0.417c0.074,0.074,0.123-0.098,0.123-0.172
	c0-0.049,0.098-0.025,0.098-0.025s0.294-0.098,0.417,0.049C20.982,45.199,20.957,45.199,20.957,45.15z M21.79,44.046
	c0.049-0.147-0.147-0.294-0.245-0.294c0,0-0.392,0.098-0.392,0.245c0,0.147,0.025,0.76,0.049,0.76c0.025,0,0.196-0.319,0.294-0.417
	C21.594,44.242,21.741,44.193,21.79,44.046z M22.452,40.419c0.098-0.098-0.245-0.392-0.466-0.319
	c-0.172,0.049,0.049,0.417,0.049,0.417C22.427,40.664,22.354,40.492,22.452,40.419z M23.163,32.061
	c-0.049,0.074,0.049,0.098-0.049,0.221c-0.123,0.123-0.27,0.319-0.27,0.319l0.368,0.27v-0.294
	C23.212,32.355,23.237,31.987,23.163,32.061z M23.433,46.498c-0.074-0.098-0.221-0.098-0.294-0.196
	c-0.098-0.098-0.098,0.098-0.172,0.147c-0.049,0.074-0.172,0.319-0.172,0.392c0,0.049,0.074,0.123,0.074,0.123
	c0.049,0.049,0.196,0.025,0.245,0.025c0.074,0,0.172-0.147,0.245-0.221C23.433,46.694,23.531,46.596,23.433,46.498z M27.967,41.448
	c0.025,0.025,0.147,0.074,0.147,0.074s0.074,0.074,0.123,0c0.025-0.049,0.074-0.098,0.025-0.147
	c-0.025-0.025-0.123-0.025-0.147-0.049c-0.025-0.025-0.098-0.025-0.123,0C27.967,41.35,27.943,41.399,27.967,41.448z M28.163,36.595
	c0.098,0.098,0.392,0.221,0.294,0.049c0,0-0.049-0.221-0.245-0.221C28.041,36.424,28.065,36.497,28.163,36.595z M25.271,45.224
	c0,0-0.098-0.49-0.172-0.564c-0.074-0.074-0.074-0.27-0.221-0.27c-0.123,0-0.27,0.074-0.27,0.27c0,0.196-0.121,0.367,0.001,0.49
	c0.147,0.147,0.392,0.196,0.515,0.172C25.271,45.297,25.271,45.224,25.271,45.224z M26.864,45.051
	c-0.074-0.098-0.147-0.098-0.27,0.049c-0.147,0.196-0.123,0.343-0.123,0.343s0.001,0.123,0.148,0.172
	c0.098,0.025,0.147-0.147,0.245-0.27C26.987,45.222,26.962,45.124,26.864,45.051z M25.982,42.625c0,0,0.221-0.123,0.319-0.025
	c0.098,0.098,0.196,0,0.441-0.123c0.294-0.146,0.294-0.269,0.637-0.44c0.319-0.147,0.049-0.319-0.049-0.221
	c-0.098,0.098-0.319,0.123-0.441,0.025c-0.098-0.123-0.172,0.172-0.294,0.294c-0.123,0.147-0.196,0-0.294-0.123
	c-0.123-0.098-0.343,0.196-0.564,0.368C25.565,42.576,25.982,42.625,25.982,42.625z M25.64,43.777
	c-0.123-0.123-0.049-0.196-0.294-0.196c0,0-0.196,0.098-0.196,0.221c-0.002,0.122,0.244,0.294,0.415,0.465
	c0.172,0.172,0.074,0.319,0.172,0.417c0.123,0.123,0.27,0.172,0.368-0.049c0.074-0.196,0.049-0.417,0.245-0.417
	c0.196,0,0.417-0.074,0.417-0.221c0-0.147-0.294-0.245-0.49-0.245C26.081,43.752,25.762,43.899,25.64,43.777z M24.781,42.575
	c-0.123,0-0.417-0.049-0.539,0.049c-0.099,0.123,0.171,0.172,0.294,0.172s0.221,0.221,0.123,0.343c-0.123,0.098,0.098,0.098,0.196,0
	c0.098-0.074,0.319,0.049,0.319,0.049s0.074,0.074,0.221,0.196c0.123,0.147,0.27,0.147,0.196-0.098c-0.074-0.221,0-0.172,0-0.294
	c0-0.123-0.172-0.172-0.172-0.319c0-0.147-0.196-0.172-0.27-0.098C25.075,42.649,24.904,42.575,24.781,42.575z M24.561,40.958
	c-0.148,0.123-0.172,0.27-0.319,0.123c-0.147-0.147-0.221,0-0.221,0.196c0,0.196,0.074,0.368,0.27,0.49
	c0.294,0.147,0.613-0.27,0.711-0.564C25.1,40.933,24.683,40.835,24.561,40.958z M25.345,33.163c0.049-0.049,0.147-0.417,0.245-0.564
	c0.098-0.098,0.711-0.613,0.711-0.711c0.021-0.042,0.337-0.264,0.36-0.403c-0.019,0.037-0.067,0.085-0.189,0.134
	c-0.245,0.098-0.196,0-0.515,0.098c-0.294,0.098-0.417,0.025-0.539,0.098c-0.074,0.098-0.196,0.221-0.368,0.392
	c-0.172,0.172-0.074,0.196-0.172,0.294c-0.098,0.098-0.196,0.319-0.196,0.319s0,0.196,0.074,0.294c0,0,0.049,0.147,0.049,0.221
	c0,0-0.049,0.221,0,0.27c0.025,0.049,0.025,0.245,0.147,0.147c0.098-0.098,0.27-0.098,0.27-0.27
	C25.222,33.286,25.296,33.212,25.345,33.163z M29.904,32.405c-0.025-0.099,0.024-0.295-0.025-0.246
	c-0.074,0.074-0.539,0-0.711,0.172c-0.196,0.172,0.074-0.343,0.074-0.343s-0.27,0.025-0.392,0.147l-0.564,0.564
	c0,0,0.27-0.049,0.49-0.049s0.515,0.025,0.515,0.025c0.27,0.098,0.49,0.147,0.49,0.147S29.904,32.503,29.904,32.405z M18.554,35.542
	c0,0.042,0.024,0.04,0.05,0.028c-0.02-0.016-0.031-0.032-0.047-0.048C18.557,35.528,18.554,35.536,18.554,35.542z M17.486,31.525
	c0.028,0.082,0.163,0.217,0.185,0.217c0.049,0,0.245-0.074,0.392-0.147c0.147-0.049,0.27-0.147,0.76-0.294
	c0.311-0.093,0.337-0.127,0.314-0.14c-0.256,0.015-0.827,0.082-1,0.19C17.945,31.447,17.659,31.612,17.486,31.525z M27.222,31.459
	c0.018-0.06,0.034-0.109,0.034-0.109l-0.031-0.108c-0.005,0.021-0.015,0.034-0.015,0.06C27.21,31.362,27.216,31.407,27.222,31.459z"
	/>
</svg>
