<?xml version="1.0" encoding="utf-8"?>
<!-- Generator: Adobe Illustrator 19.2.1, SVG Export Plug-In . SVG Version: 6.00 Build 0)  -->
<svg version="1.1" id="Слой_1" xmlns="http://www.w3.org/2000/svg" xmlns:xlink="http://www.w3.org/1999/xlink" x="0px" y="0px"
	 width="115px" height="48px" viewBox="0 0 115 48" enable-background="new 0 0 115 48" xml:space="preserve">
<path fill="#040506" d="M8.502,42.007c-0.153-0.059-0.308-0.113-0.487-0.18c1.093-0.548,2.048-1.046,2.121-2.413
	c0.06-1.13-0.621-2.041-1.611-2.509c-1.249-0.591-2.628-0.534-3.977-0.558C3.032,36.32,1.516,36.322,0,36.304
	c-0.108,0.377,0.559,0.36,0.782,0.581c0.241,0.239,0.236,0.561,0.248,0.883c0.059,1.55,0.014,3.111,0.013,4.661
	c-0.001,1.354,0.221,2.933-0.028,4.263c-0.055,0.293-0.097,0.48-0.343,0.668c-0.288,0.219-1.183,0.348-0.327,0.511
	c0.715,0.136,1.583,0.006,2.308,0.009c0.769,0.003,1.539,0.005,2.308-0.003c1.351-0.013,2.825,0.014,4.057-0.634
	C11.213,46.089,10.853,42.729,8.502,42.007C8.349,41.948,9.653,42.361,8.502,42.007z M3.649,37.619
	c-0.246-1.277,2.547-0.539,3.045-0.158c0.838,0.642,0.963,2.34,0.359,3.164c-0.361,0.492-0.86,0.631-1.434,0.718
	c-0.489,0.074-1.42,0.309-1.799-0.063c-0.354-0.348-0.181-1.31-0.179-1.773C3.644,38.879,3.618,38.247,3.649,37.619
	C3.631,37.525,3.623,38.142,3.649,37.619z M7.717,45.195c-0.116,1.436-1.357,2.051-2.648,2.039c-0.452-0.004-1.007,0.014-1.29-0.408
	c-0.358-0.536-0.151-1.623-0.15-2.217c0.001-0.575-0.226-1.772,0.092-2.272c0.296-0.464,1.243-0.275,1.69-0.197
	C7.062,42.424,7.978,43.505,7.717,45.195C7.624,46.352,7.756,44.942,7.717,45.195z M30.755,46.525
	c-1.191,1.295-3.022,1.653-4.715,1.479c-2.4-0.247-4.113-2.087-4.635-4.357c-0.571-2.481,0.335-5.304,2.548-6.68
	c0.976-0.606,2.132-0.897,3.279-0.818c0.995,0.068,2.614,0.997,3.358,0c0.129,0.411,1.271,3.539,1.041,3.655
	c-0.091,0.046-1.774-1.968-2.111-2.208c-2.033-1.446-4.399-0.341-5.204,1.856c-0.781,2.129-0.545,5.12,1.232,6.72
	c0.694,0.625,1.604,0.946,2.537,0.898c0.47-0.024,0.934-0.139,1.368-0.32c0.462-0.193,1.034-0.79,1.525-0.776
	C31.016,46.205,30.942,46.388,30.755,46.525C30.071,47.269,30.833,46.459,30.755,46.525z M30.155,9.32
	c-0.153-0.174-0.306-0.348-0.459-0.522c2.359-1.131,4.59-2.042,7.257-2.052c2.434-0.01,4.922,0.755,6.942,2.11
	c-0.18,0.207-0.39,0.57-0.616,0.71c-0.021,0.013-0.127,0.186-0.17,0.196c-0.16,0.035-0.727-0.41-0.92-0.508
	c-1.294-0.658-2.688-1.125-4.133-1.295c-1.334-0.156-2.683-0.051-3.982,0.288c-0.684,0.179-1.351,0.419-1.996,0.709
	c-0.313,0.141-0.62,0.293-0.923,0.455C30.577,9.724,30.596,9.823,30.155,9.32z M28.249,29.469c0.083,0.062,0.172,0.117,0.264,0.164
	c-0.127-0.516-0.702-1.06-0.983-1.506c-0.349-0.553-0.661-1.13-0.931-1.726c-0.491-1.088-0.992-2.37-1.078-3.571
	c-0.074-1.023,0.537-2.315,1.594-1.298c0.931,0.896,1.605,2.105,2.431,3.098c0.24-0.433-0.198-1.557-0.232-2.068
	c-0.049-0.737-0.016-1.501,0.138-2.224c0.21-0.984,0.901-1.806,1.974-1.339c1.024,0.446,1.77,1.707,2.084,2.726
	c0.262,0.851-0.127,0.893-0.374,1.629c-0.187,0.558-0.058,1.192,0.333,1.633c0.447-0.618,1.09-1.162,1.749-0.455
	c0.693,0.745,0.733,2.02,0.89,2.964c0.193,1.159,0.333,2.321,0.403,3.494c0.02,0.332,0.054,3.047,0.359,2.968
	c0.321-0.084,0.253-2.579,0.272-2.934c0.061-1.104,0.115-2.198,0.289-3.291c0.207-1.304,0.992-5.086,2.736-2.77
	c1.063-1.175-0.394-2.025-0.043-3.198c0.315-1.056,1.134-2.464,2.25-2.823c1.324-0.427,1.82,0.979,1.927,2.023
	c0.076,0.736,0.055,1.489-0.044,2.221c-0.026,0.19-0.18,1.561-0.207,1.577c0.419-0.236,0.926-1.26,1.214-1.637
	c0.378-0.493,0.739-1.007,1.152-1.471c1.1-1.238,1.787,0.093,1.666,1.268c-0.13,1.262-0.595,2.553-1.13,3.695
	c-0.133,0.284-1.851,3.149-1.912,3.102c0.236,0.184,2.015-1.84,2.198-2.059c0.648-0.774,1.212-1.623,1.69-2.511
	c1.019-1.894,1.592-4.002,1.532-6.159c-0.059-2.126-0.725-4.195-1.721-6.062c-0.493-0.923-1.076-1.792-1.735-2.604
	c-0.533-0.657-1.262-1.288-1.111-2.222c-1.232,0.329-2.187,1.59-2.925,2.569c-0.725,0.96-1.331,2.413-2.451,2.979
	c-0.593,0.3-0.916,0.147-1.44-0.176c-0.393-0.243-1.196-0.336-1.435-0.76c-0.448-0.794,1.099-1.751,1.374-2.408
	c0.572-1.369-1.748-0.769-2.384-0.898c-0.454-0.092-0.762-0.807-1.126-0.821c-0.23-0.009-0.322,0.241-0.397,0.413
	c-0.064,0.146-0.085,0.329-0.12,0.484c-0.101,0.447-0.014,0.421-0.401,0.483c-0.443,0.072-1.302-0.331-1.423,0.344
	c-0.085,0.473,0.443,1.172,0.766,1.472c0.347,0.323,0.856,0.419,0.983,0.908c0.16,0.618-0.243,1.056-0.822,1.13
	c-1.544,0.198-2.33-1.604-3.088-2.637c-0.807-1.1-1.843-2.854-3.323-3.085c0.254,0.983-0.667,1.788-1.202,2.496
	c-0.685,0.906-1.343,1.846-1.861,2.859c-0.965,1.888-1.498,4.047-1.428,6.172C23.319,23.553,25.326,26.928,28.249,29.469
	C28.332,29.531,25.042,26.681,28.249,29.469z M36.209,10.934c-0.09,0.002-0.18,0.005-0.269,0.007
	C35.869,10.41,37.199,10.201,36.209,10.934C36.121,10.958,36.352,10.828,36.209,10.934z M42.985,12.697
	c0.596-1.127,1.045-2.313,1.897-3.282c1.356,2.122,3.008,4.022,3.865,6.426c0.427,1.198,0.668,2.452,0.688,3.726
	c0.01,0.634-0.033,1.269-0.129,1.895c-0.05,0.329-0.154,1.62-0.512,1.814c0.84-3.78-0.137-7.736-2.641-10.691
	c0.867,3.236,0.453,6.682-1.155,9.621c0.693-3.209,1.803-7.374,0.033-10.452c-0.181-0.315-0.218-0.509-0.544-0.317
	c-0.29,0.17-0.41,0.798-0.529,1.087c-0.318,0.768-0.681,1.507-1.128,2.209c-0.403,0.634-0.854,1.212-1.67,1.25
	c-0.738,0.034-0.671-0.576-0.867-1.159C41.624,14.764,42.407,13.789,42.985,12.697C43.386,11.938,42.404,13.795,42.985,12.697z
	 M37.673,22.206c0.264-0.563,0.922-0.821,1.498-0.589C39.435,20.81,38.52,20.9,37.998,21c0.447-1.518,0.961-3,0.879-4.605
	c-0.034-0.658-0.137-1.3-0.453-1.887c-0.108-0.202-0.798-0.868-0.756-1.029c0.076-0.29,1.44,0.627,1.547,0.731
	c0.483,0.468,0.796,1.098,0.875,1.766c0.196,1.646-0.648,3.07-1.486,4.398c0.283-0.088,0.883-0.39,1.173-0.17
	c0.362,0.275-0.024,1.079-0.103,1.392c-0.121,0.476-0.351,0.857-0.075,1.262c0.334,0.489,0.64,0.45,0.419,1.182
	c-0.107-0.276-0.318-0.521-0.575-0.669c-0.126-0.072-0.304-0.079-0.419-0.153c-0.279-0.18-0.085,0.026-0.217-0.304
	c-0.118-0.294-0.011-0.742-0.498-0.656c-0.351,0.062-0.558,0.642-0.659,0.909c-0.296,0.783-0.448,1.652-0.544,2.48
	c-0.028,0.237-0.11,2.504-0.228,2.522c-0.123,0.019,0.001-2.726,0.024-2.945C37.011,24.188,37.152,23.126,37.673,22.206
	C37.937,21.644,37.452,22.596,37.673,22.206z M38.382,9.912l-2.691,0.264C36.104,9.761,37.728,9.575,38.382,9.912z M34.567,11.539
	c-0.467-0.157-0.831-0.526-0.984-0.994c0.267,0.16,0.961,0.416,1.123,0.68C34.793,11.365,34.967,11.703,34.567,11.539
	C34.101,11.382,34.672,11.582,34.567,11.539z M28.5,22.231c-0.494-1.699-1.098-3.383-1.189-5.165
	c-0.021-0.42,0.229-4.81,1.031-4.487c0.375,0.151-0.192,1.741-0.237,2.004c-0.151,0.888-0.218,1.789-0.2,2.69
	c0.018,0.902,0.14,1.788,0.291,2.676c0.073,0.429,0.153,0.856,0.235,1.283c0.05,0.262,0.302,0.9,0.201,1.152
	C28.553,22.376,28.509,22.325,28.5,22.231C28.222,21.276,28.565,22.398,28.5,22.231z M34.659,21.857
	c0.3-0.101,0.638,0.035,0.786,0.315c-0.688,0.118-0.35,0.45-0.601,0.887c-0.206,0.359-0.972,0.374-1.228,0.989
	c-0.303-0.595,0.14-0.782,0.424-1.185C34.265,22.546,34.174,21.99,34.659,21.857C34.963,21.755,34.374,21.935,34.659,21.857z
	 M24.811,23.267c-0.937-2.285-0.743-4.987,0.048-7.283c0.839-2.433,2.427-4.447,3.895-6.524c1.119,0.975,1.564,2.715,2.35,3.952
	c0.345,0.544,0.734,0.989,1.351,1.23c0.674,0.263,1.169,0.033,1.834,0.034c-0.076,0.822-0.981,1.338-1.742,1.308
	c-1.111-0.043-1.588-0.989-2.062-1.846c-0.259-0.469-0.509-0.946-0.724-1.437c-0.157-0.358-0.289-1.065-0.581-1.332
	c-0.389-0.354-0.491-0.17-0.869,0.213c-0.337,0.341-0.654,0.704-0.951,1.081c-1.181,1.501-2.028,3.26-2.466,5.119
	c-0.258,1.095-0.353,2.213-0.298,3.337c0.028,0.567,0.103,1.125,0.196,1.685C24.8,22.85,24.917,23.509,24.811,23.267
	C24.496,22.499,24.92,23.516,24.811,23.267z M54.578,46.729c-1.294-1.405-2.129-3.35-3.905-4.242
	c1.226-0.26,2.607-0.651,3.247-1.841c0.608-1.13,0.275-2.544-0.743-3.309c-1.236-0.93-2.985-1.001-4.465-1.051
	c-0.879-0.03-1.758-0.015-2.636,0c-0.572,0.01-2.293-0.261-2.686,0.158c0.345,0.376,0.797,0.282,0.972,0.866
	c0.176,0.587,0.046,1.379,0.046,1.984c0,1.457,0.001,2.914,0.001,4.371c0,0.699,0,1.399,0,2.098c0,0.444,0.075,1.06-0.204,1.443
	c-0.715,0.98-1.663,0.002-2.043-0.683c-1.416-2.547-2.594-5.248-3.889-7.859c-0.295-0.594-0.597-1.184-0.916-1.766
	c-0.272-0.496-0.516-0.996-0.994-0.429c-0.414,0.492-0.638,1.293-0.909,1.873c-0.328,0.701-0.656,1.402-0.984,2.102
	c-0.687,1.466-1.371,2.933-2.061,4.397c-0.294,0.625-0.554,1.326-0.931,1.905c-0.326,0.502-1.006,0.627-1.273,1.097
	c1.13,0.045,2.16,0.046,3.288,0.002c-0.348-0.602-0.96-0.616-0.429-1.383c0.43-0.622,1.09-1.102,1.775-1.398
	c1.063-0.459,3.096-1.033,3.894,0.134c0.474,0.692,0.602,1.631,1.094,2.309c0.46,0.635,1.577,0.367,2.293,0.367
	c1.769-0.002,3.606,0.144,5.368-0.004c0.842-0.07,0.41-0.143-0.013-0.408c-0.674-0.421-0.467-1.393-0.473-2.078
	c-0.005-0.452-0.006-0.904-0.007-1.357c0-0.284-0.13-0.973,0.024-1.219c0.323-0.515,1.211,0.023,1.559,0.293
	c1.291,1,1.848,2.774,3.061,3.87c0.546,0.493,1.2,0.712,1.919,0.792c0.541,0.06,1.969,0.331,2.407-0.011
	C55.503,47.407,55.011,47.112,54.578,46.729C54.152,46.268,54.902,47.016,54.578,46.729z M34.226,43.679l1.83-4.033
	c0.645,1.344,1.29,2.689,1.934,4.033C36.735,43.679,35.48,43.679,34.226,43.679z M47.624,41.893
	c-1.064,0.093-0.646-3.02-0.629-3.738c0.038-1.659,1.79-1.383,2.971-0.9c1.222,0.5,1.939,1.827,1.36,3.103
	C50.731,41.669,48.923,42.079,47.624,41.893C47.569,41.898,48.56,42.027,47.624,41.893z M65.179,37.168
	c-1.377-0.745-2.819-0.786-4.347-0.817c-0.765-0.016-1.529-0.024-2.294-0.031c-0.598-0.005-1.924-0.252-2.393,0.117
	c0.442,0.438,0.841,0.327,0.989,1.048c0.15,0.737,0.036,1.587,0.036,2.337c0.001,1.723,0.001,3.447-0.001,5.17
	c-0.001,0.596,0.186,1.668-0.191,2.19c-0.122,0.17-0.94,0.467-0.845,0.621c0.189,0.305,2.229,0.072,2.588,0.073
	c0.893,0.002,1.787,0.003,2.68-0.011c2.737-0.043,5.382-0.951,6.218-3.817C68.366,41.491,67.664,38.461,65.179,37.168
	C64.328,36.709,66.993,38.111,65.179,37.168z M64.734,44.988c-0.395,1.016-1.26,1.81-2.306,2.117
	c-0.927,0.272-2.31,0.285-2.631-0.854c-0.162-0.576-0.047-1.273-0.047-1.865c0-0.808-0.001-1.616-0.001-2.424
	c0-1.408-0.106-2.864,0.004-4.268c0.074-0.952,1.168-0.838,1.931-0.735c0.933,0.126,1.794,0.572,2.411,1.286
	C65.607,39.994,65.505,42.955,64.734,44.988C64.171,46.437,65.111,43.995,64.734,44.988z M21.404,46.709
	c-1.072-1.907-1.888-3.988-2.802-5.975c-0.462-1.004-0.924-2.008-1.386-3.011c-0.332-0.721-0.809-2.236-1.513-0.996
	c-1.07,1.884-1.826,4.016-2.717,5.99c-0.484,1.071-0.963,2.144-1.482,3.199c-0.196,0.399-0.363,0.851-0.672,1.176
	c-0.287,0.304-0.771,0.383-0.996,0.725c0.881,0,1.762,0,2.643,0c0.393,0,0.646,0.12,0.376-0.245
	c-0.267-0.36-0.525-0.368-0.301-0.897c0.191-0.45,0.586-0.836,0.963-1.129c1.206-0.937,3.782-1.804,4.583-0.035
	c0.302,0.668,0.57,2.136,1.335,2.357c0.431,0.124,1.14,0.003,1.589,0.004c0.515,0,1.074,0.06,1.575-0.084
	C22.228,47.319,21.675,47.334,21.404,46.709C21.209,46.363,21.586,47.128,21.404,46.709z M13.802,43.672l1.739-4.026
	c0.585,1.342,1.169,2.684,1.754,4.026C16.13,43.672,14.966,43.672,13.802,43.672z M73.219,47.535
	c0.132,0.04,0.262,0.089,0.388,0.145c-0.301,0.254-4.627,0.265-4.972,0.016c0.367-0.198,0.772-0.204,1.018-0.585
	c0.287-0.444,0.164-1.122,0.164-1.626c0-1.312,0-2.623,0-3.935c0-1.262,0.081-2.554-0.003-3.813
	c-0.065-0.976-0.589-0.693-1.144-1.282c0.271-0.227,4.601-0.237,4.971,0.031c-0.829,0.283-1.179,0.502-1.212,1.435
	c-0.043,1.213-0.001,2.436-0.001,3.65c0,1.159,0,2.318,0.001,3.476C72.429,45.805,72.14,47.354,73.219,47.535
	C73.351,47.575,72.797,47.464,73.219,47.535z M47.636,23.151c-0.453,2.505-1.635,5.089-3.516,6.844
	c-1.887,1.762-4.137,2.337-6.634,2.586c0.023-0.473-0.154-1.732,0.245-2.054c0.325-0.262,1.34-0.224,1.774-0.329
	c1.202-0.29,2.355-0.781,3.397-1.447c1.044-0.668,1.975-1.51,2.743-2.482c0.854-1.081,1.305-2.339,1.993-3.511
	C47.648,22.889,47.648,23.02,47.636,23.151C47.228,25.407,47.648,23.02,47.636,23.151z M36.075,30.72
	c-0.018,0.627,0.009,1.263,0.009,1.891c-2.588-0.408-4.93-0.923-6.833-2.863c-0.805-0.821-1.445-1.787-1.949-2.817
	c-0.569-1.162-1.237-2.756-1.324-4.057c0.031-0.011,0.061-0.023,0.092-0.034c0.961,2.112,2.095,4.039,3.992,5.447
	c0.875,0.649,1.848,1.153,2.875,1.515C33.345,29.945,36.085,30.408,36.075,30.72z M69.547,34.847
	c-0.423-0.564,2.64-3.309,3.21-2.764c0.167,0.159,0.088,0.929,0.064,1.139c-0.044,0.383-0.133,0.502-0.493,0.664
	C71.458,34.278,70.456,34.547,69.547,34.847z"/>
</svg>
