<?xml version="1.0" encoding="utf-8"?>
<!-- Generator: Adobe Illustrator 19.2.1, SVG Export Plug-In . SVG Version: 6.00 Build 0)  -->
<svg version="1.1" id="Слой_1" xmlns="http://www.w3.org/2000/svg" xmlns:xlink="http://www.w3.org/1999/xlink" x="0px" y="0px"
	 width="115px" height="48px" viewBox="0 0 115 48" enable-background="new 0 0 115 48" xml:space="preserve">
<path fill="#573F2B" d="M2.957,40.704c0.68,0,0.771-0.343,1.198-0.87c0.39-0.481,0.779-0.962,1.169-1.443
	c0.324,0.461,0.647,0.921,0.971,1.382c0.201,0.287,0.433,0.813,0.745,0.932c0.452,0.172,1.317,0,1.799,0c0.7,0,1.406-0.027,2.106,0
	c0.88,0.033,1.71,0.3,2.611,0.258c0.656-0.031,1.312-0.149,1.931-0.369c0.275-0.098,0.604-0.351,0.881-0.4
	c0.325-0.058,0.645,0.178,0.989,0.305c0.648,0.239,1.333,0.378,2.02,0.437c0.671,0.058,1.508-0.198,2.137-0.084
	c0.506,0.092,0.961,0.653,1.536,0.804c0.609,0.161,1.268,0.129,1.879-0.005c1.222-0.269,2.21-1.019,2.717-2.174
	c0.375-0.855,0.614-2.546,1.783-2.546c0,0.478,0,0.956,0,1.434c0,0.602-0.173,1.501,0,2.077c0.118,0.392,0.168,0.263,0.686,0.263
	c0.717,0,1.433,0,2.15,0c0.624,0,1.191,0.234,1.826,0.103c0.633-0.13,1.006-0.658,1.381-1.132c0.74-0.935,1.481-1.869,2.221-2.804
	c0,1.017,0,2.034,0,3.051c0,0.141-0.072,0.696,0.03,0.781c0.177,0.148,1.232,0,1.455,0c0.869,0,1.737,0,2.606,0
	c0.525,0,1.05,0,1.575,0c0.332,0,0.475,0.082,0.587-0.171c0.16-0.364,0-1.224,0-1.613c0-0.498-0.152-1.232,0-1.705
	c0.113-0.353-0.014-0.261,0.504-0.261c0.205,0,1.381-0.157,1.534,0c0.103,0.105,0,0.758,0,0.919c0,0.663,0,1.326,0,1.99
	c0,0.151-0.086,0.743,0.018,0.842c0.192,0.181,1.268,0,1.551,0c0.417,0,1.948,0.222,2.186-0.019c0.236-0.24,0-1.902,0-2.227
	c0-1.289,0-2.578,0-3.866c0-0.855,0.223-2.06,0-2.889c-0.067-0.251,0.054-0.185-0.099-0.295c-0.226-0.162-1.22,0-1.507,0
	c-0.554,0-1.107,0-1.661,0c-0.514,0-0.384-0.095-0.488,0.283c-0.125,0.452,0,1.104,0,1.578c0,0.228,0.149,1.27,0,1.453
	c-0.163,0.2-1.927,0.121-2.038-0.059c-0.203-0.332,0-1.366,0-1.754c0-0.2,0.151-1.335,0-1.496c-0.136-0.145-1.167-0.006-1.35-0.006
	c-0.581,0-1.197,0.06-1.776,0c-0.677-0.071-1.282-0.287-1.944,0.062c-0.433,0.228-0.719,0.673-1.016,1.048
	c-0.715,0.902-1.429,1.803-2.144,2.705c0-0.544,0-1.088,0-1.632c0-0.511,0.21-1.541,0-2.009c-0.116-0.26-0.175-0.174-0.56-0.174
	c-0.664,0-1.327,0-1.991,0c-1.406,0-2.812,0-4.218,0c-1.508,0-3.384-0.129-4.509,1.065c-1.439-1.849-4.736-1.534-6.672-0.839
	c-0.261,0.094-0.781,0.5-1.048,0.479c-0.158-0.012-0.651-0.377-0.808-0.447c-0.287-0.129-0.588-0.234-0.892-0.314
	c-1.297-0.343-2.416-0.072-3.7,0.056c-1.004,0.1-2.207-0.259-3.175,0c-0.698,0.187-1.349,1.43-1.82,2.015
	c-0.367-0.527-0.734-1.053-1.101-1.58c-0.325-0.467-0.309-0.435-0.866-0.435c-1.3,0-2.6,0-3.9,0
	c0.567,0.814,1.135,1.627,1.702,2.441c0.367,0.526,0.734,1.052,1.101,1.578c0.091,0.13,0.498,0.549,0.494,0.715
	c-0.003,0.165-0.478,0.59-0.576,0.71c-0.424,0.523-0.848,1.046-1.272,1.569c-0.617,0.761-1.233,1.522-1.85,2.283H2.957z
	 M27.964,33.737c0.178-0.13,1.075-0.263,1.304-0.148c0.206,0.104,0.268,0.582,0.16,0.908c-0.115,0.347-0.225,0.291-0.691,0.25
	C28.34,34.712,27.331,34.211,27.964,33.737C28.127,33.618,27.852,33.821,27.964,33.737z M18.505,34.009
	c0.503-0.26,1.496-0.739,2.093-0.571c0.762,0.216,0.325,1.047-0.227,1.184c-0.339,0.084-0.773,0.032-1.119,0.032
	C18.903,34.654,18.108,34.518,18.505,34.009z M18.782,36.884c0.688,0,1.989-0.202,2.445,0.444c0.373,0.529-0.001,1.223-0.587,1.352
	c-0.681,0.15-1.705-0.223-2.294-0.505C18.554,37.771,18.702,37.332,18.782,36.884z M12.8,33.461
	c1.079-0.638,1.907,1.025,2.032,1.822c0.166,1.055,0.087,2.658-0.954,3.267C11.608,39.878,10.653,34.326,12.8,33.461z
	 M76.861,31.407c-0.205,0.002-0.413,0.131-0.596,0.135c-0.225,0.005-0.439-0.175-0.7-0.233c-0.164-0.036-0.703,0.098-0.812,0.026
	c-0.032-0.021-0.172-0.489-0.213-0.544c-0.139-0.189-0.323-0.302-0.537-0.388c-0.472-0.192-1.098-0.15-1.545,0.087
	c-0.845,0.449-1.098,0.88-2.13,0.917c-0.833,0.03-1.677-0.001-2.511,0c-0.565,0-0.584-0.137-0.681,0.304
	c-0.107,0.489,0,1.128,0,1.627c0,0.948,0,1.897,0,2.845c-0.63-1.169-1.26-2.337-1.889-3.506c-0.301-0.558-0.574-1.258-1.222-1.474
	c-1.168-0.39-1.76,0.479-2.213,1.357c0-0.236,0.129-0.902,0-1.076c-0.116-0.157-0.599-0.076-0.844-0.076c-0.45,0-0.9,0-1.35,0
	c-1.866,0-3.732,0-5.598,0c-0.207,0-1.297-0.154-1.46,0c-0.106,0.1-0.096,2.08,0,2.171c0.25,0.238,1.744,0.02,2.118,0.02
	c0.679,0,0.799-0.199,0.888,0.368c0.122,0.776,0,1.669,0,2.454c0,0.986,0,1.973,0,2.959c0,0.212-0.131,1.182,0.023,1.324
	c0.257,0.237,1.819,0,2.162,0c0.797,0,1.645,0.086,2.439,0c0.581-0.063,0.585-0.416,0.866-0.97c0.215-0.424,0.43-0.848,0.645-1.272
	c0.13-0.256,0.294-0.857,0.524-1.034c0.244-0.188,1.114-0.187,1.362,0c0.247,0.186,0.439,0.838,0.583,1.112
	c0.258,0.493,0.516,0.985,0.774,1.478c0.078,0.15,0.219,0.601,0.367,0.686c0.217,0.124,0.876,0,1.12,0c0.457,0,0.97-0.07,1.422,0
	c0.627,0.098,1.142,0.289,1.775-0.027c0.766-0.383,1.316-1.374,1.833-2.026h0l1.41-1.78c0,0.608,0,1.216,0,1.824
	c0,0.31-0.214,1.776,0,1.997c0.131,0.136,1.036,0.012,1.23,0.012c0.875,0,1.751,0,2.626,0c0.637,0,1.497,0.154,2.117,0
	c0.375-0.093,0.246,0.045,0.28-0.414c0.119-1.615,0-3.283,0-4.903c0-0.304-0.195-1.502,0-1.748c0.174-0.22,1.515-0.04,1.858-0.04
	c0,1.014,0,2.029,0,3.043c0,0.98-0.245,2.357,0.128,3.297c0.401,1.011,1.687,1.181,2.547,0.629c0.393-0.253,0.679-0.696,0.966-1.058
	c0.697-0.879,1.393-1.759,2.09-2.638c0,0.762,0,1.523,0,2.285c0,0.362-0.106,0.931,0,1.281c0.106,0.35-0.097,0.138,0.196,0.267
	c0.29,0.128,0.964,0,1.274,0c0.493,0,0.986,0,1.479,0c0.152,0,0.556,0.061,0.688,0c0.276-0.127,0.09,0.05,0.179-0.258
	c0.18-0.62,0-1.565,0-2.208c0-1.079,0-2.158,0-3.237c0-1.542,0.386-4.131-2.056-3.711c-0.982,0.169-1.527,1.143-2.102,1.869
	c-0.545,0.688-1.09,1.376-1.636,2.064c0-1.107,0-2.213,0-3.32c0-0.292,0.062-0.393-0.113-0.496c-0.223-0.131-0.936,0-1.188,0
	C81.242,31.407,79.052,31.407,76.861,31.407z M60.298,35.49l-0.978,1.892c0-1.075,0-2.151,0-3.226c0-0.558-0.091-0.559,0.489-0.559
	c0.489,0,0.977,0,1.466,0C60.95,34.229,60.624,34.859,60.298,35.49z M71.458,34.506l-0.567,0.716c0-0.506,0-1.013,0-1.519
	c0.368,0.102,0.755,0.133,1.134,0.088L71.458,34.506z M46.324,24.57c0.081,0.554,0.162,1.109,0.242,1.663c-0.161,0-0.323,0-0.484,0
	C46.163,25.679,46.244,25.124,46.324,24.57z M65.946,26.143c0.425,0.392-0.206,1.162-0.463,0.699
	C65.314,26.54,65.433,25.686,65.946,26.143C66.033,26.224,65.9,26.103,65.946,26.143z M58.636,26.422
	c0.157,0.231,0.467,0.47,0.071,0.622c-0.656,0.252-0.632-0.73-0.363-1.054L58.636,26.422z M58.452,24.833
	c-0.269-0.768,0.924-0.338,0.134,0.247C58.541,24.998,58.496,24.916,58.452,24.833C58.419,24.739,58.485,24.928,58.452,24.833z
	 M35.931,24.575c0.263,0.232,0.095,1.175,0.095,1.46c0,0.216,0.072,1.478-0.539,0.942c-0.223-0.196-0.092-0.968-0.092-1.208
	C35.394,25.581,35.284,24.003,35.931,24.575z M15.365,24.67c0.407,0.352-0.215,1.172-0.479,0.699
	C14.708,25.051,14.836,24.219,15.365,24.67C15.442,24.737,15.317,24.629,15.365,24.67z M41.301,24.67
	c0.407,0.352-0.215,1.172-0.479,0.699C40.646,25.053,40.773,24.216,41.301,24.67C41.379,24.737,41.254,24.629,41.301,24.67z
	 M71.026,24.57c0.081,0.554,0.161,1.109,0.242,1.663c-0.161,0-0.323,0-0.484,0C70.865,25.679,70.946,25.124,71.026,24.57z
	 M76.597,24.67c0.407,0.352-0.215,1.172-0.479,0.699C75.942,25.053,76.068,24.215,76.597,24.67
	C76.674,24.737,76.549,24.629,76.597,24.67z M79.479,22.838c-2.627,0-5.253,0-7.88,0c-6.146,0-12.292,0-18.439,0
	c-7.065,0-14.131,0-21.196,0c-5.384,0-10.768,0-16.152,0c-1.233,0-2.516-0.102-3.747,0c-0.362,0.03-0.263-0.077-0.381,0.178
	c-0.206,0.44,0,1.462,0,1.945c0,0.849,0,1.698,0,2.548c0,0.418-0.172,1.047,0.151,1.209c0.236,0.118,0.84,0,1.099,0
	c1.655,0,3.309,0,4.964,0c5.859,0,11.719,0,17.578,0c7.092,0,14.185,0,21.277,0c5.725,0,11.45,0,17.175,0c1.529,0,3.058,0,4.587,0
	c0.158,0,0.773,0.1,0.903,0c0.265-0.204,0.061-1.752,0.061-2.123C79.479,25.342,79.479,24.09,79.479,22.838z M16.049,25.97
	c-0.288,0.238-1.01,0.098-1.163,0.295c-0.21,0.271,0.24,1.169,0,1.404c-0.118,0.115-0.857,0.003-0.91-0.072
	c-0.156-0.219,0-1.1,0-1.364c0-0.572,0-1.145,0-1.717c0-0.433-0.082-0.483,0.193-0.625c0.236-0.122,1.126-0.044,1.426,0.023
	C16.445,24.106,16.732,25.4,16.049,25.97C15.867,26.12,16.28,25.777,16.049,25.97z M21.414,24.607c-0.488,0-1.39-0.279-1.205,0.454
	c0.091,0.361-0.004,0.278,0.465,0.278c0.296,0,0.537-0.073,0.65,0.119c0.156,0.264-0.008,0.521-0.141,0.596
	c-0.201,0.115-0.818-0.16-0.975,0c-0.051,0.052-0.045,0.747,0,0.81c0.115,0.16,0.43,0.09,0.692,0.09
	c0.386,0,0.399-0.079,0.513,0.186c0.103,0.239,0.006,0.451-0.115,0.53c-0.164,0.108-1.782,0.105-1.928,0
	c-0.182-0.13-0.073-0.914-0.073-1.175c0-0.724-0.017-1.449,0-2.173c0.016-0.665,0.315-0.43,0.97-0.43c0.22,0,0.893-0.127,1.073,0
	C21.485,23.992,21.414,24.382,21.414,24.607z M26.684,25.223c-0.151,0-0.774,0.086-0.871,0c-0.136-0.121,0.061-0.47-0.145-0.642
	c-0.678-0.567-0.531,1.195-0.531,1.409c0,0.193-0.062,0.497,0,0.685c0.147,0.445,0.491,0.512,0.637,0
	c0.068-0.241-0.073-0.385,0.091-0.5c0.043-0.03,0.749-0.059,0.819,0c0.165,0.137-0.078,0.975-0.169,1.115
	c-0.301,0.465-0.984,0.556-1.484,0.417c-0.891-0.247-0.81-1.081-0.81-1.834c0-0.634-0.158-1.497,0.469-1.892
	C25.721,23.333,26.73,24.157,26.684,25.223z M31.697,24.649c-0.68,0-0.668-0.085-0.668,0.578c0,0.667,0.017,1.337,0,2.004
	c-0.003,0.1,0.042,0.377-0.023,0.438c-0.024,0.023-0.758,0.051-0.814,0c-0.149-0.137,0-1.315,0-1.51c0-0.219,0.158-1.361,0-1.51
	c-0.123-0.116-0.604,0.123-0.715,0c-0.048-0.053-0.023-0.71,0-0.737c0.151-0.182,1.38-0.021,1.645-0.021
	C31.826,23.891,31.697,23.936,31.697,24.649z M36.936,26.57c0,1.425-2.173,1.643-2.433,0.27c-0.112-0.591-0.08-1.367-0.019-1.957
	c0.125-1.206,2.059-1.568,2.42-0.302C37.074,25.177,36.936,25.96,36.936,26.57z M41.985,25.97c-0.387,0.32-1.003,0.06-1.162,0.396
	c-0.144,0.304,0.198,1.103-0.039,1.304c-0.162,0.137-0.805,0.005-0.871-0.099c-0.159-0.25,0-1.134,0-1.427c0-0.565,0-1.13,0-1.694
	c0-0.496-0.1-0.438,0.261-0.558c0.287-0.096,1.032-0.051,1.358,0.023C42.375,24.108,42.67,25.4,41.985,25.97
	C41.803,26.12,42.217,25.777,41.985,25.97z M46.824,27.669c-0.026-0.144-0.026-0.668-0.137-0.758
	c-0.076-0.062-0.66,0.005-0.701,0.042c-0.149,0.134,0.006,0.589-0.148,0.716c-0.123,0.101-0.696,0-0.866,0
	c0.169-0.776,0.337-1.552,0.506-2.328c0.074-0.34,0.089-0.945,0.271-1.245c0.164-0.271,0.171-0.205,0.576-0.205
	c0.354,0,0.431-0.058,0.594,0.162c0.183,0.249,0.2,0.904,0.266,1.202c0.178,0.805,0.356,1.609,0.535,2.414
	C47.421,27.669,47.123,27.669,46.824,27.669z M52.921,27.669c-0.172,0-0.757,0.099-0.871,0c-0.119-0.104-0.039-0.708-0.039-0.889
	c0-0.191,0.068-0.617-0.062-0.705c-0.442-0.3-0.493,0.124-0.533,0.36c-0.044,0.259,0.147,0.921,0,1.133
	c-0.079,0.114-0.562,0.211-0.768,0.102c-0.297-0.157-0.142-1.037-0.142-1.436c0-0.418,0-0.835,0-1.253c0-0.193-0.112-0.834,0-0.99
	c0.101-0.141,0.204-0.099,0.455-0.099c0.493,0,0.401-0.069,0.455,0.37c0.022,0.179-0.12,0.898,0,1.028
	c0.136,0.148,0.524,0.027,0.595-0.078c0.364-0.537-0.557-1.606,0.622-1.32c0.394,0.096,0.217-0.077,0.288,0.316
	c0.073,0.404,0,0.889,0,1.299C52.921,26.228,52.921,26.949,52.921,27.669z M59.454,27.669c-0.027-0.081-0.107-0.17-0.153-0.242
	c-0.614,0.636-1.812,0.324-1.988-0.537c-0.109-0.534,0.135-0.82,0.392-1.229c0.085-0.087,0.181-0.161,0.286-0.224
	c-0.058-0.094-0.117-0.188-0.175-0.282c-0.041-0.31-0.221-0.465-0.105-0.8c0.259-0.752,1.617-0.738,1.839,0.033
	c0.062,0.213,0.005,0.432-0.082,0.627c-0.063,0.142-0.481,0.445-0.487,0.543c-0.009,0.133,0.324,0.477,0.405,0.594
	c0.069-0.159,0.032-0.444,0.131-0.515c0.112-0.08,0.511,0,0.653,0c0,0.492-0.364,0.956-0.245,1.356
	c0.065,0.218,0.321,0.481,0.45,0.675H59.454z M66.64,27.459c-0.253,0.203-1.631,0.39-1.942,0.211
	c-0.246-0.142-0.126-0.74-0.126-1.09c0-0.733,0-1.465,0-2.198c0-0.624,0.033-0.491,0.693-0.491c0.27,0,1.257-0.103,1.364,0.05
	c0.125,0.179-0.025,0.573-0.108,0.628c-0.197,0.131-0.6-0.099-0.819,0c-0.231,0.105-0.314,0.078-0.22,0.482
	c0.107,0.459-0.07,0.182,0.354,0.313c0.473,0.146,0.845,0.075,1.069,0.602C67.091,26.404,67.029,27.145,66.64,27.459
	C66.465,27.599,66.875,27.269,66.64,27.459z M71.526,27.669c-0.026-0.144-0.026-0.668-0.137-0.758
	c-0.076-0.062-0.661,0.005-0.701,0.042c-0.149,0.134,0.006,0.589-0.148,0.716c-0.123,0.101-0.696,0-0.866,0
	c0.169-0.776,0.337-1.552,0.506-2.328c0.074-0.34,0.089-0.945,0.271-1.245c0.164-0.271,0.171-0.205,0.576-0.205
	c0.354,0,0.431-0.058,0.594,0.162c0.183,0.249,0.2,0.904,0.266,1.202c0.178,0.805,0.356,1.609,0.535,2.414
	C72.123,27.669,71.824,27.669,71.526,27.669z M77.281,25.97c-0.387,0.319-1.003,0.061-1.163,0.396
	c-0.144,0.304,0.198,1.103-0.039,1.304c-0.162,0.137-0.805,0.005-0.871-0.099c-0.159-0.25,0-1.134,0-1.427c0-0.565,0-1.13,0-1.694
	c0-0.496-0.1-0.438,0.261-0.558c0.287-0.096,1.032-0.051,1.358,0.023C77.67,24.108,77.965,25.399,77.281,25.97
	C77.098,26.12,77.512,25.777,77.281,25.97z M51.972,44.797c0.052,0.36,0.105,0.719,0.157,1.079c-0.067,0.019-0.247,0.018-0.314,0
	C51.868,45.516,51.92,45.157,51.972,44.797z M69.07,44.803c0.262-0.056,0.323,0.423,0.193,0.576
	C69.028,45.654,68.622,44.899,69.07,44.803z M54.668,44.803c0.262-0.056,0.323,0.423,0.193,0.576
	C54.625,45.655,54.22,44.899,54.668,44.803z M30.237,44.797c0.052,0.36,0.105,0.719,0.157,1.079c-0.067,0.019-0.247,0.018-0.314,0
	C30.132,45.516,30.185,45.157,30.237,44.797z M22.044,44.798c0.052,0.359,0.105,0.719,0.157,1.078c-0.067,0.019-0.247,0.018-0.314,0
	C21.939,45.516,21.992,45.157,22.044,44.798L22.044,44.798z M24.74,44.803c0.262-0.055,0.323,0.423,0.193,0.576
	C24.697,45.654,24.291,44.899,24.74,44.803z M14.257,44.862c0.271,0.233-0.032,0.583-0.311,0.55c0-0.205,0-0.41,0-0.615
	C14.046,44.785,14.18,44.795,14.257,44.862C14.308,44.905,14.226,44.835,14.257,44.862z M8.857,45.818
	c0.268,0.246-0.002,0.589-0.3,0.55c0-0.205,0-0.41,0-0.614C8.653,45.74,8.782,45.751,8.857,45.818
	C8.914,45.87,8.827,45.791,8.857,45.818z M72.655,44.968c-0.178-0.502,0.605-0.214,0.087,0.16
	C72.713,45.075,72.684,45.021,72.655,44.968C72.633,44.906,72.676,45.029,72.655,44.968z M35.993,45.818
	c0.267,0.246-0.002,0.589-0.3,0.55c0-0.205,0-0.41,0-0.614C35.789,45.74,35.918,45.751,35.993,45.818
	C36.05,45.87,35.963,45.791,35.993,45.818z M-0.008,43.32c0,0.781,0,1.562,0,2.342c0,0.315-0.235,2.137,0,2.342
	c0.085,0.075,0.569,0,0.676,0c1.693,0,3.386,0,5.078,0c6.974,0,13.948,0,20.922,0c9.099,0,18.199,0,27.298,0
	c8.117,0,16.235,0,24.352,0c2.721,0,5.443,0,8.164,0c0.85,0,1.7,0,2.55,0c0.316,0,1.043,0.142,1.332,0
	c0.439-0.216,0.163-1.812,0.163-2.342c0-0.549,0.295-2.137-0.181-2.342c-0.316-0.136-1.001,0-1.339,0c-0.869,0-1.738,0-2.607,0
	c-6.448,0-12.896,0-19.344,0c-9.031,0-18.063,0-27.094,0c-8.432,0-16.864,0-25.296,0c-4.672,0-9.344,0-14.015,0
	C0.431,43.32,0.212,43.32-0.008,43.32z M43.705,43.77c0.037,0.384,0.664,0.019,0.813,0c0,0.582-1.038,0.604-1.038,0
	C43.554,43.77,43.63,43.77,43.705,43.77z M4.129,45.221c-0.114,0-0.484,0.059-0.56,0c-0.07-0.054,0.034-0.294-0.065-0.346
	c-0.485-0.258-0.379,0.302-0.379,0.674c0,0.226-0.036,1.25,0.384,0.712c0.112-0.144-0.035-0.333,0.09-0.422
	c0.105-0.074,0.494,0.009,0.529,0.057c0.099,0.136-0.053,0.588-0.141,0.7c-0.2,0.254-0.598,0.331-0.907,0.246
	c-0.569-0.157-0.544-0.644-0.55-1.139c-0.005-0.442-0.103-1.058,0.348-1.311C3.538,44.022,4.159,44.553,4.129,45.221z M6.802,46.808
	c-0.296,0-0.438,0.043-0.563-0.13c-0.166-0.229,0.082-1.161,0.106-1.362c-0.11,0.322-0.244,1.304-0.509,1.492
	c-0.741,0.527-0.574-0.686-0.574-0.952c0-0.374-0.151-1.351,0.129-1.498c0.776-0.407,0.349,1.27,0.349,1.539
	c0.126-0.39,0.202-0.877,0.4-1.234c0.101-0.182,0.358-0.609,0.662-0.296c0.126,0.13,0,1.041,0,1.217
	C6.802,45.991,6.802,46.399,6.802,46.808z M9.307,46.672c-0.164,0.131-0.984,0.239-1.186,0.136c-0.237-0.119-0.155-0.259-0.155-0.61
	c0-0.476-0.088-1.055,0-1.522c0.08-0.425,0.014-0.319,0.552-0.319c0.233,0,0.685-0.073,0.783,0.069
	c0.376,0.545-0.513,0.287-0.648,0.371c-0.089,0.056-0.197,0.201-0.097,0.398c0.091,0.179,0.029,0.022,0.211,0.118
	c0.246,0.13,0.48,0.009,0.668,0.297C9.617,45.887,9.577,46.454,9.307,46.672C9.194,46.762,9.46,46.549,9.307,46.672z M12.192,46.808
	c-0.296,0-0.438,0.043-0.563-0.13c-0.166-0.229,0.082-1.161,0.106-1.362c-0.11,0.322-0.244,1.304-0.509,1.492
	c-0.74,0.526-0.573-0.687-0.573-0.952c0-0.374-0.151-1.351,0.129-1.498c0.776-0.407,0.349,1.27,0.349,1.539
	c0.126-0.39,0.202-0.877,0.399-1.234c0.101-0.182,0.358-0.609,0.662-0.296c0.126,0.13,0,1.041,0,1.217
	C12.192,45.991,12.192,46.399,12.192,46.808z M14.701,45.705c-0.193,0.159-0.646,0.059-0.755,0.188
	c-0.145,0.173,0.153,0.751,0,0.915c-0.1,0.106-0.54-0.001-0.591-0.069c-0.099-0.133,0-0.823,0-0.974c0-0.3-0.11-0.883,0-1.154
	c0.132-0.323-0.134-0.165,0.308-0.255C14.406,44.207,15.598,44.957,14.701,45.705C14.583,45.803,14.851,45.58,14.701,45.705z
	 M17.545,45.221c-0.114,0-0.484,0.059-0.56,0c-0.07-0.054,0.034-0.294-0.065-0.346c-0.485-0.258-0.379,0.302-0.379,0.674
	c0,0.226-0.036,1.25,0.384,0.712c0.112-0.144-0.035-0.333,0.091-0.422c0.105-0.074,0.494,0.009,0.529,0.057
	c0.099,0.136-0.053,0.588-0.141,0.7c-0.2,0.254-0.599,0.331-0.908,0.246c-0.569-0.157-0.544-0.644-0.55-1.139
	c-0.005-0.442-0.103-1.058,0.348-1.311C16.954,44.022,17.575,44.553,17.545,45.221z M20.296,46.808
	c-0.761,0-0.661-0.125-0.894-0.853c-0.223,0.276-0.002,1.171-0.595,0.853c-0.262-0.14-0.128-0.868-0.128-1.225
	c0-0.239-0.112-1.101,0.059-1.225c0.655-0.476,0.505,0.72,0.505,0.976c0.324-0.764,0.23-0.976,1.055-0.976
	c-0.154,0.307-0.519,0.777-0.532,1.109C19.75,45.84,20.155,46.453,20.296,46.808z M22.368,46.808
	c-0.043-0.241-0.187-0.804-0.543-0.466c-0.089,0.084,0.022,0.388-0.071,0.466c-0.089,0.075-0.461,0-0.587,0
	c0.108-0.495,0.215-0.991,0.323-1.486c0.111-0.509,0.009-0.956,0.554-0.965c0.568-0.009,0.461,0.449,0.575,0.965
	c0.11,0.495,0.219,0.991,0.329,1.486C22.755,46.808,22.562,46.808,22.368,46.808z M25.523,46.808c-0.51,0-0.487,0.11-0.591-0.298
	c-0.032-0.125,0.113-0.735-0.116-0.644c-0.139,0.055-0.195,0.687-0.294,0.797c-0.185,0.203-0.354,0.146-0.682,0.146
	c0.097-0.228,0.233-0.463,0.299-0.701c0.146-0.533,0.064-0.143-0.089-0.637c-0.27-0.873,0.331-1.172,1.081-1.113
	c0.584,0.046,0.392,0.259,0.392,0.863C25.523,45.749,25.523,46.279,25.523,46.808z M27.329,46.808c0,0.302-0.257,0.464-0.536,0.464
	c0.067-0.216,0.311-0.209,0.311-0.464c-0.389,0.108-0.443-0.43-0.255-0.57C27.34,45.871,27.329,46.572,27.329,46.808z
	 M30.562,46.808c-0.044-0.241-0.187-0.804-0.543-0.466c-0.089,0.084,0.022,0.388-0.071,0.466c-0.089,0.075-0.461,0-0.587,0
	c0.108-0.495,0.215-0.991,0.323-1.486c0.111-0.509,0.009-0.956,0.554-0.965c0.569-0.009,0.461,0.449,0.576,0.965
	c0.11,0.495,0.219,0.991,0.329,1.486C30.949,46.808,30.755,46.808,30.562,46.808z M33.914,46.808c-0.661,0-0.59,0.024-0.59-0.62
	c0-0.264,0.125-1.218-0.06-1.339c-0.509-0.332-0.317,0.913-0.334,1.124c-0.025,0.312-0.044,0.698-0.378,0.835
	c-0.397,0.164-0.601-0.127-0.505-0.484c0.461,0.223,0.317-1.177,0.318-1.433c0-0.266-0.062-0.431,0.099-0.533
	c0.152-0.097,0.757,0,0.94,0c0.642,0,0.511,0.041,0.511,0.691C33.914,45.634,33.914,46.221,33.914,46.808z M36.443,46.672
	c-0.304,0.242-1.208,0.212-1.342-0.013c-0.112-0.188,0-0.85,0-1.077c0-0.238-0.107-0.856,0-1.077
	c0.069-0.143,0.269-0.333,0.529-0.149c0.188,0.132-0.043,0.58,0.061,0.807c0.127,0.276,0.203,0.049,0.544,0.186
	C36.715,45.542,36.867,46.33,36.443,46.672C36.33,46.762,36.596,46.549,36.443,46.672z M39.328,46.808
	c-0.765,0-0.591-0.144-0.591-0.888c0-0.055,0.116-1.593-0.389-1.071c-0.226,0.233,0.079,1.322,0,1.653
	c-0.082,0.341,0.106,0.217-0.207,0.306c-0.4,0.115-0.299-0.001-0.38-0.202c-0.14-0.347-0.117-1.64,0-1.994
	c0.075-0.226-0.037-0.148,0.1-0.255c0.14-0.109,0.752,0,0.95,0c0.644,0,0.517,0.05,0.517,0.691
	C39.328,45.634,39.328,46.221,39.328,46.808z M42.062,46.808c-0.296,0-0.438,0.043-0.563-0.13c-0.166-0.229,0.082-1.161,0.106-1.362
	c-0.11,0.322-0.244,1.304-0.509,1.492c-0.741,0.526-0.574-0.686-0.574-0.952c0-0.374-0.151-1.351,0.129-1.498
	c0.776-0.407,0.349,1.27,0.349,1.539c0.126-0.39,0.202-0.877,0.4-1.234c0.101-0.182,0.358-0.609,0.662-0.296
	c0.126,0.13,0,1.041,0,1.217C42.062,45.991,42.062,46.399,42.062,46.808z M44.766,46.808c-0.296,0-0.437,0.043-0.563-0.13
	c-0.166-0.229,0.082-1.161,0.106-1.362c-0.11,0.322-0.245,1.304-0.509,1.492c-0.741,0.526-0.574-0.686-0.574-0.952
	c0-0.372-0.151-1.352,0.128-1.498c0.77-0.403,0.35,1.269,0.35,1.539c0.126-0.39,0.202-0.877,0.4-1.234
	c0.101-0.182,0.357-0.608,0.662-0.296c0.126,0.129,0,1.041,0,1.217C44.766,45.991,44.766,46.399,44.766,46.808z M47.473,45.221
	c-0.114,0-0.484,0.059-0.56,0c-0.07-0.054,0.034-0.294-0.065-0.346c-0.485-0.258-0.379,0.302-0.379,0.674
	c0,0.226-0.036,1.25,0.384,0.712c0.112-0.144-0.035-0.332,0.09-0.422c0.105-0.074,0.495,0.009,0.53,0.057
	c0.099,0.136-0.053,0.588-0.141,0.7c-0.2,0.254-0.598,0.331-0.907,0.246c-0.569-0.157-0.544-0.644-0.549-1.139
	c-0.005-0.442-0.103-1.058,0.348-1.311C46.883,44.022,47.503,44.553,47.473,45.221z M50.225,46.808
	c-0.761,0-0.661-0.125-0.894-0.853c-0.223,0.276-0.002,1.171-0.595,0.853c-0.262-0.14-0.128-0.868-0.128-1.225
	c0-0.239-0.112-1.101,0.059-1.225c0.655-0.476,0.505,0.72,0.505,0.976c0.323-0.765,0.23-0.976,1.055-0.976
	c-0.154,0.307-0.519,0.777-0.532,1.109C49.679,45.84,50.084,46.453,50.225,46.808z M52.297,46.808
	c-0.043-0.241-0.188-0.804-0.543-0.466c-0.089,0.084,0.022,0.388-0.071,0.466c-0.089,0.075-0.462,0-0.587,0
	c0.108-0.495,0.215-0.991,0.323-1.486c0.111-0.509,0.009-0.956,0.554-0.965c0.569-0.009,0.461,0.449,0.576,0.965
	c0.11,0.495,0.22,0.991,0.329,1.486C52.684,46.808,52.491,46.808,52.297,46.808z M55.451,46.808c-0.51,0-0.487,0.11-0.591-0.298
	c-0.032-0.125,0.113-0.735-0.116-0.644c-0.139,0.055-0.195,0.687-0.295,0.797c-0.185,0.203-0.354,0.146-0.682,0.146
	c0.097-0.228,0.233-0.463,0.299-0.701c0.146-0.533,0.064-0.143-0.089-0.637c-0.27-0.873,0.331-1.172,1.081-1.113
	c0.584,0.046,0.392,0.259,0.392,0.863C55.451,45.749,55.451,46.279,55.451,46.808z M59.145,46.808c-0.761,0-0.661-0.125-0.894-0.853
	c-0.223,0.276-0.002,1.171-0.595,0.853c-0.262-0.14-0.128-0.868-0.128-1.225c0-0.239-0.112-1.101,0.059-1.225
	c0.655-0.476,0.505,0.72,0.505,0.976c0.324-0.765,0.23-0.976,1.055-0.976c-0.154,0.307-0.52,0.777-0.532,1.109
	C58.598,45.84,59.004,46.453,59.145,46.808z M61.302,46.245c-0.16,0.577-1.139,0.929-0.983,0.109
	c0.56,0.151-0.174-1.674-0.266-1.997c0.611,0,0.605-0.064,0.729,0.534c0.073,0.354,0.121,0.679,0.145,1.039
	c0.042-0.375,0.11-0.728,0.189-1.097c0.119-0.557,0.125-0.477,0.713-0.477C61.653,44.986,61.478,45.615,61.302,46.245z
	 M63.87,46.808l-0.256-0.748c-0.26,0.633-0.196,0.748-0.877,0.748c0.141-0.321,0.551-0.896,0.543-1.239
	c-0.008-0.356-0.377-0.88-0.519-1.212c0.68,0,0.607,0.092,0.853,0.72c0.246-0.625,0.182-0.72,0.854-0.72
	c-0.135,0.316-0.527,0.875-0.519,1.212c0.009,0.362,0.395,0.902,0.543,1.239C64.284,46.808,64.077,46.808,63.87,46.808z
	 M67.119,46.808c-0.313,0-0.479,0.071-0.59-0.131c-0.097-0.176,0.139-0.728,0-0.868c-0.554-0.557-0.314,0.821-0.386,0.916
	c-0.03,0.04-0.484,0.201-0.591,0.083c-0.064-0.071,0-0.428,0-0.529c0-0.319-0.204-1.675,0-1.904
	c0.033-0.037,0.548-0.065,0.591-0.018c0.139,0.152-0.124,0.667,0,0.833c0.488,0.654,0.318-0.718,0.386-0.793
	c0.051-0.057,0.522-0.097,0.59-0.031c0.059,0.057,0,0.611,0,0.682C67.119,45.634,67.119,46.221,67.119,46.808z M69.854,46.808
	c-0.51,0-0.487,0.11-0.591-0.298c-0.032-0.125,0.113-0.734-0.116-0.644c-0.139,0.055-0.195,0.687-0.295,0.797
	c-0.185,0.203-0.354,0.146-0.682,0.146c0.097-0.228,0.233-0.463,0.299-0.701c0.146-0.533,0.064-0.142-0.089-0.637
	c-0.27-0.872,0.331-1.172,1.081-1.113c0.584,0.046,0.392,0.259,0.392,0.863C69.854,45.749,69.854,46.279,69.854,46.808z
	 M73.305,46.808c-0.033-0.052-0.066-0.105-0.099-0.157c-0.468,0.487-1.302,0.125-1.304-0.526c-0.001-0.388,0.421-0.524,0.454-0.765
	c0.044-0.322-0.4-0.489-0.077-0.863c0.327-0.379,1.085-0.207,1.104,0.33c0.01,0.265-0.386,0.476-0.386,0.611
	c0,0.098,0.205,0.301,0.263,0.386c0.171-0.401-0.019-0.335,0.509-0.335c0,0.271-0.23,0.596-0.202,0.815
	c0.019,0.153,0.248,0.373,0.335,0.502H73.305z M77.121,44.849c-0.242,0-0.586-0.071-0.693,0.084c-0.141,0.205,0,1.003,0,1.255
	c0,0.195,0.063,0.529-0.062,0.62c-0.385,0.281-0.469-0.074-0.535-0.255c-0.083-0.226-0.173-1.978,0-2.178
	c0.082-0.095,0.76-0.032,0.903-0.018C77.195,44.403,77.121,44.331,77.121,44.849z M79.514,45.705
	c-0.193,0.16-0.646,0.059-0.754,0.188c-0.145,0.173,0.153,0.751,0,0.915c-0.1,0.106-0.54-0.001-0.59-0.069
	c-0.099-0.133,0-0.823,0-0.974c0-0.3-0.11-0.883,0-1.154c0.132-0.323-0.134-0.165,0.308-0.255
	C79.219,44.207,80.412,44.957,79.514,45.705C79.396,45.803,79.665,45.58,79.514,45.705z M82.368,46.808
	c-0.296,0-0.438,0.043-0.563-0.13c-0.166-0.229,0.082-1.161,0.106-1.362c-0.11,0.322-0.244,1.304-0.509,1.492
	c-0.741,0.527-0.574-0.686-0.574-0.952c0-0.374-0.151-1.352,0.129-1.498c0.776-0.407,0.349,1.27,0.349,1.539
	c0.126-0.39,0.202-0.877,0.4-1.234c0.101-0.182,0.357-0.608,0.662-0.296c0.126,0.13,0,1.041,0,1.217
	C82.368,45.991,82.368,46.399,82.368,46.808z M85.291,46.808c-0.661,0-0.59,0.025-0.59-0.62c0-0.264,0.125-1.219-0.06-1.339
	c-0.508-0.331-0.317,0.913-0.334,1.124c-0.025,0.312-0.045,0.698-0.378,0.835c-0.397,0.164-0.601-0.127-0.505-0.484
	c0.461,0.223,0.317-1.177,0.318-1.433c0-0.266-0.062-0.431,0.099-0.533c0.152-0.097,0.757,0,0.94,0c0.642,0,0.511,0.041,0.511,0.691
	C85.291,45.634,85.291,46.221,85.291,46.808z M87.82,46.672c-0.304,0.242-1.208,0.212-1.342-0.013c-0.112-0.188,0-0.85,0-1.077
	c0-0.238-0.107-0.856,0-1.077c0.069-0.143,0.269-0.333,0.529-0.149c0.188,0.132-0.043,0.58,0.061,0.807
	c0.127,0.276,0.203,0.049,0.544,0.186C88.092,45.542,88.244,46.33,87.82,46.672C87.707,46.762,87.973,46.549,87.82,46.672z
	 M72.774,45.999c0.615,0.533-0.854,0.519-0.189-0.28L72.774,45.999z M87.37,45.818c0.268,0.245-0.002,0.589-0.3,0.55
	c0-0.205,0-0.41,0-0.614C87.165,45.74,87.296,45.751,87.37,45.818z M79.071,44.862c0.27,0.233-0.031,0.583-0.311,0.55
	c0-0.205,0-0.41,0-0.615C78.859,44.785,78.993,44.795,79.071,44.862z"/>
<path fill="#F1D1A7" d="M17.093,38.353c-0.587,0.766-1.457,1.289-2.383,1.533c2.272-0.798,3.589-3.388,2.383-5.608
	c-0.505-0.931-1.39-1.621-2.383-1.968C17.321,32.995,18.861,36.046,17.093,38.353C16.628,38.961,17.312,38.067,17.093,38.353z
	 M17.463,38.867l-0.074,0.229c0.819,0.433,1.776,0.62,2.7,0.566C19.175,39.612,18.25,39.334,17.463,38.867z M15.242,39.498
	c-1.929,1.034-4.628,0.655-5.987-1.138c-1.365-1.8-0.748-4.347,1.132-5.498c1.916-1.172,4.716-0.86,6.148,0.939
	C18.034,35.683,17.3,38.393,15.242,39.498C14.551,39.868,16.08,39.048,15.242,39.498z M15.242,38.437
	c0.842-1.508,0.806-4.109-0.542-5.336c-1.309-1.192-3.427-0.669-4.183,0.866c-0.723,1.467-0.673,3.837,0.522,5.058
	C12.252,40.263,14.411,39.926,15.242,38.437C15.618,37.762,14.804,39.222,15.242,38.437z M12.375,32.628
	c-2.862,0.714-2.859,6.228,0,6.941C9.907,38.575,9.911,33.621,12.375,32.628C11.957,32.732,11.939,32.804,12.375,32.628z
	 M27.181,37.388c-0.715,1.366-0.915,2.953-2.638,3.408c1.119-0.128,1.89-0.874,2.306-1.882c0.394-0.953,0.66-2.275,1.705-2.75
	C27.897,36.316,27.485,36.808,27.181,37.388C26.821,38.076,27.485,36.808,27.181,37.388z M89.22,32.262
	c-0.051,0-0.102,0.006-0.154,0.021c0.187,0.059,0.323,0.233,0.323,0.466v7.069h0.298V32.75
	C89.687,32.459,89.478,32.262,89.22,32.262z M23.225,40.255l-0.006,0.001c0.021,0,0.043,0,0.063-0.002
	C23.264,40.254,23.246,40.252,23.225,40.255z M20.338,32.545c-0.806-0.052-1.652,0.118-2.386,0.45l0.06,0.219
	C18.734,32.841,19.523,32.584,20.338,32.545C20.279,32.541,19.911,32.565,20.338,32.545z M27.181,32.419
	c-1.12,0.081-2.622,0.525-2.414,1.938c0.207,1.404,2.001,1.562,3.125,1.562c-1.343,0.12-2.317,0.784-2.861,2.012
	c-0.36,0.811-0.687,2.178-1.748,2.323c0.027-0.001,0.055-0.003,0.08-0.002c-0.218,0.011-0.429,0.027-0.649,0.01l-0.096,0.241
	c1.044,0.896,2.816,0.026,3.426-0.96c0.726-1.175,0.827-3.39,2.596-3.508h0.966l0.273-0.29c-1.285,0-4.201,0.116-3.493-2.048
	c0.465-1.421,2.807-1.01,3.959-1.01v7.15H31.7v-7.44C30.202,32.397,28.677,32.311,27.181,32.419
	C25.472,32.543,27.381,32.405,27.181,32.419z M23.833,37.873c0-1.596-1.978-2.057-3.248-2.057c1.254-0.124,3.668-0.772,2.64-2.569v0
	c-0.994-1.739-4.417-1.143-5.806-0.419l0.082,0.302c1.083-0.556,3.243-1.263,4.134-0.01c1.008,1.417-0.53,2.532-1.822,2.532
	c-0.237,0-0.475,0-0.712,0v0.338c0.261,0,0.521,0,0.782,0c1.546,0,3.254,1.426,2.01,3.005c-1.112,1.412-3.662,0.759-4.942-0.006
	l-0.105,0.326C18.441,40.204,23.833,40.9,23.833,37.873z M6.609,35.656c0.868-1.093,1.737-2.186,2.605-3.278H8.916
	c-0.868,1.093-1.737,2.186-2.605,3.278c0.969,1.387,1.939,2.775,2.908,4.162h0.298C8.548,38.431,7.578,37.044,6.609,35.656z
	 M71.832,32.907c0.531-0.02,1.024-0.277,1.339-0.707c0.221-0.302,0.488-0.892-0.099-0.866c-0.387,0.017-0.78,0.612-1.109,0.777
	c-0.482,0.242-1.234,0.365-1.738,0.115C70.674,32.655,71.191,32.931,71.832,32.907z M60.907,32.696v-0.298c-0.882,0-1.764,0-2.647,0
	v0.298C59.142,32.696,60.024,32.696,60.907,32.696z M6.099,35.676l2.605-3.278H8.318L5.9,35.396c-0.697-1-1.394-1.999-2.091-2.999
	H2.174l2.676,3.836l-2.921,3.604h0.467l2.664-3.29c0.772,1.096,1.542,2.193,2.313,3.29c0.545,0,1.09,0,1.635,0
	C8.038,38.45,7.068,37.063,6.099,35.676z M83.689,38.001c0.07,0,0.155-0.1,0.192-0.153v-5.47c-0.099,0-0.198,0-0.297,0v5.484
	C83.584,37.931,83.618,38.001,83.689,38.001z M73.363,32.183c-0.302,0.413-0.771,0.669-1.281,0.704
	c0.654,0.044,1.299-0.259,1.632-0.835c0.15-0.259,0.349-0.9-0.222-0.731C73.683,31.401,73.717,31.699,73.363,32.183z M69.814,38.001
	c0.07,0,0.156-0.1,0.193-0.154v-5.47c-0.099,0-0.198,0-0.297,0v5.484C69.71,37.931,69.744,38.001,69.814,38.001z M5.942,35.19
	l0.18-0.225C5.521,34.102,4.92,33.24,4.32,32.378H4.021C4.661,33.315,5.302,34.252,5.942,35.19z M5.071,36.729l-2.463,3.089h0.298
	c0.774-0.956,1.548-1.911,2.322-2.867C5.175,36.877,5.123,36.803,5.071,36.729z M34.556,38.001c0.07,0,0.156-0.1,0.193-0.154v-5.47
	c-0.099,0-0.198,0-0.297,0v5.484C34.451,37.931,34.486,38.001,34.556,38.001z M23.225,36.241c-0.292-0.145-0.618-0.249-0.947-0.32
	c1.919,0.609,2.432,2.826,0.43,3.761C24.394,39.162,25.018,37.129,23.225,36.241C22.933,36.096,23.864,36.558,23.225,36.241z
	 M23.637,34.029c0,0.872-0.779,1.37-1.524,1.605c0.848-0.18,1.802-0.612,1.822-1.605c0.017-0.857-0.632-1.379-1.399-1.589
	C23.188,32.741,23.637,33.291,23.637,34.029z M74.834,32.281c-0.643,0-1.359,1.34-1.698,1.768c-0.416,0.525-0.832,1.05-1.247,1.574
	c-0.386,0.487-0.771,0.973-1.157,1.46c-0.257,0.324-0.501,0.667-0.774,0.977c-0.086,0.097-0.461,0.575-0.461,0.22v-5.882h-1.355
	v6.975c0,1.458,1.358-0.261,1.638-0.615c0.355-0.449,0.711-0.898,1.066-1.347c0.739-0.934,1.479-1.868,2.218-2.802
	c0.234-0.296,0.673-1.149,0.883-0.678c0.191,0.429,0,1.366,0,1.823c0,1.362,0,2.723,0,4.085h1.355V32.77
	C75.302,32.478,75.091,32.281,74.834,32.281z M64.15,32.59c-0.077-0.147-0.288-0.598-0.532-0.385
	c0.485,0.416,0.791,1.362,1.082,1.903c0.308,0.571,0.615,1.141,0.923,1.712c0.719,1.335,1.439,2.67,2.158,4.005h0.268
	C66.749,37.413,65.45,35.002,64.15,32.59z M88.709,32.281c-0.58,0-1.21,1.152-1.515,1.537c-0.407,0.514-0.814,1.028-1.222,1.541
	c-0.482,0.608-0.963,1.216-1.445,1.824c-0.227,0.287-0.444,0.589-0.685,0.864c-0.083,0.095-0.471,0.594-0.471,0.232v-5.882h-1.355
	v6.975c0,1.458,1.358-0.261,1.638-0.615c0.328-0.414,0.656-0.828,0.983-1.243c0.805-1.018,1.611-2.035,2.416-3.053
	c0.228-0.289,0.569-0.979,0.768-0.532c0.191,0.429,0,1.366,0,1.823c0,1.362,0,2.723,0,4.085h1.356V32.77
	C89.177,32.478,88.966,32.281,88.709,32.281z M65.604,36.157l1.986,3.686h-1.651c-0.593-1.133-1.186-2.265-1.779-3.397
	c-0.96,0-1.92,0-2.88,0c-0.574,1.132-1.147,2.265-1.721,3.397h-0.374c1.074-2.079,2.149-4.158,3.223-6.238
	c0.172-0.333,0.325-0.712,0.53-1.026c0.474-0.725,0.669-0.127,0.959,0.405C64.469,34.04,65.034,35.099,65.604,36.157z
	 M64.008,36.155c-0.194-0.368-0.389-0.736-0.583-1.104c-0.068-0.129-0.5-1.233-0.706-1.247c-0.352-0.024-1.118,2.015-1.288,2.351
	h1.288v0h1.094v0H64.008z M62.739,34.043c-0.293,0-0.941,1.736-1.08,2.009h0.274c0.316-0.625,0.634-1.25,0.949-1.876
	C62.823,34.081,62.777,34.043,62.739,34.043z M87.667,34.037c-0.394,0-1.138,1.323-1.358,1.601
	c-0.269,0.341-0.538,0.682-0.806,1.022c-0.512,0.649-1.024,1.298-1.535,1.947c-0.323,0.409-0.679,1.108-1.163,1.306
	c0.626,0.3,2.552-2.679,2.833-3.033c0.708-0.894,1.416-1.787,2.124-2.681C87.763,34.148,87.738,34.037,87.667,34.037z
	 M73.792,34.037c-0.336,0-0.938,1.068-1.168,1.36c-0.328,0.415-0.655,0.831-0.983,1.246c-0.505,0.641-1.011,1.282-1.516,1.923
	c-0.33,0.418-0.702,1.145-1.195,1.347c0.569,0.275,2.049-2.045,2.304-2.366c0.586-0.739,1.171-1.478,1.757-2.218v0l0.895-1.13
	C73.888,34.148,73.864,34.037,73.792,34.037z M60.715,37.939l-0.966,1.886h0.267c0.555-1.095,1.11-2.19,1.665-3.285h-0.25
	L60.715,37.939z M78.196,32.817L78.196,32.817l0,7.001h0.059c0-1.356,0-2.712,0-4.068c0-0.708-0.017-1.418,0-2.125
	c0.007-0.278-0.052-0.658,0.181-0.862C78.354,32.762,78.274,32.78,78.196,32.817z M78.196,32.397h-1.257
	c-0.398,0-0.55,0.489-0.55,0.872v6.568c0.453,0,0.905,0,1.358,0v-6.474c0-1.138,2.971-0.667,3.731-0.667c0-0.1,0-0.199,0-0.299
	C80.384,32.397,79.29,32.397,78.196,32.397z M77.957,33.255c0,2.188,0,4.376,0,6.564c0.08,0,0.16,0,0.239,0v-7.001
	c-0.143,0.081-0.219,0.245-0.236,0.437H77.957z M75.345,32.262c-0.051,0-0.102,0.006-0.154,0.021
	c0.187,0.059,0.324,0.233,0.324,0.466v7.069h0.298V32.75C75.813,32.459,75.603,32.262,75.345,32.262z M48.505,39.818h0.298v-7.441
	h-0.298V39.818z M38.534,34.037c-0.273,0-0.712,0.782-0.85,0.957c-0.557,0.706-1.114,1.412-1.67,2.118
	c-0.427,0.542-0.855,1.084-1.282,1.626c-0.295,0.374-0.613,0.992-1.06,1.176c0.573,0.277,2.248-2.295,2.49-2.601
	c0.822-1.038,1.644-2.076,2.466-3.113C38.63,34.148,38.606,34.037,38.534,34.037z M40.087,32.262c-0.051,0-0.102,0.006-0.154,0.021
	c0.186,0.059,0.323,0.233,0.323,0.466v7.069h0.298V32.75C40.555,32.459,40.344,32.262,40.087,32.262z M58.11,32.764v7.054
	c0.099,0,0.199,0,0.298,0v-7.054C58.309,32.764,58.21,32.764,58.11,32.764z M39.576,32.281c-0.471,0-0.893,0.751-1.147,1.072
	c-0.575,0.725-1.149,1.451-1.724,2.176c-0.538,0.679-1.076,1.357-1.613,2.036c-0.058,0.073-0.853,1.096-0.853,0.714v-5.882h-1.355
	v6.975c0,1.462,1.359-0.263,1.638-0.615c0.24-0.304,0.481-0.608,0.721-0.911c0.985-1.244,1.95-2.507,2.956-3.735
	c0.208-0.254,0.33-0.541,0.49-0.182c0.184,0.411,0,1.385,0,1.823c0,1.362,0,2.723,0,4.085h1.355V32.77
	C40.043,32.478,39.833,32.281,39.576,32.281z M31.913,39.818h0.298v-7.441h-0.298V39.818z M41.131,39.837h1.355v-7.44h-1.355V39.837
	z M58.26,32.398H53.53v0.298h3.013v7.141h1.355v-7.141h0.362V32.398z M27.711,32.83c-1.669,0.332-1.411,2.409,0.123,2.733
	C26.65,35.083,26.429,33.347,27.711,32.83C27.507,32.871,27.494,32.918,27.711,32.83z M46.937,35.769h-3.843
	c-0.047,0.097-0.093,0.193-0.14,0.29c1.328,0,2.655,0,3.983,0v3.779h1.355v-7.44h-1.355V35.769z M42.699,36.143v3.675
	c0.099,0,0.199,0,0.298,0v-3.675C42.898,36.143,42.799,36.143,42.699,36.143z M42.976,35.646h0.022v-3.268c-0.099,0-0.199,0-0.298,0
	l-0.007,3.268C42.787,35.646,42.881,35.646,42.976,35.646z"/>
</svg>
