<?xml version="1.0" encoding="utf-8"?>
<!-- Generator: Adobe Illustrator 19.2.1, SVG Export Plug-In . SVG Version: 6.00 Build 0)  -->
<svg version="1.1" id="Слой_1" xmlns="http://www.w3.org/2000/svg" xmlns:xlink="http://www.w3.org/1999/xlink" x="0px" y="0px"
	 width="115px" height="48px" viewBox="0 0 115 48" enable-background="new 0 0 115 48" xml:space="preserve">
<path fill="#242021" d="M19.164,9.95C11.322,9.918,4.041,14.835,1.242,22.18c-2.855,7.492-0.599,16.229,5.548,21.375
	c6.088,5.096,14.977,5.854,21.833,1.842c6.863-4.016,10.544-12.088,9.088-19.905c-1.441-7.733-7.743-13.987-15.514-15.285
	C21.195,10.04,20.18,9.954,19.164,9.95C8.658,9.907,29.562,9.992,19.164,9.95z M10.389,23.53c-0.66,0.009-1.476-0.154-2.111-0.063
	c-0.333,0.048-0.222-0.077-0.338,0.173c-0.099,0.214,0.004,0.683,0.005,0.924c0.007,1.3-0.139,2.588-0.15,3.885
	c-0.003,0.294,0.234,2.52-0.063,2.472c-0.368-0.06-0.228-3.748-0.235-4.135c-0.02-1.128,0.028-2.282-0.103-3.4
	c-0.059-0.502-0.128-0.423,0.547-0.515c0.618-0.084,1.246-0.087,1.868-0.047c0.517,0.034,2.977,0.079,3.087,0.652
	c0.058,0.303-0.321,0.159-0.504,0.145C11.717,23.57,11.067,23.521,10.389,23.53z M11.032,35.038c0.054-0.983,0.109-1.967,0.163-2.95
	C12.607,32.353,12.222,34.735,11.032,35.038C11.088,34.039,11.621,34.888,11.032,35.038z M13.013,35.149
	c-0.189-0.004-0.087-2.549-0.087-2.919c0.029,0.001,0.058,0.002,0.087,0.003C13.013,33.205,13.013,34.177,13.013,35.149z
	 M14.732,34.57c-0.082-0.142-0.36-0.803-0.529-0.77c0.027,0.305,0.053,0.61,0.08,0.915c-0.35-0.315-0.491-1.49-0.318-1.914
	c0.194,0.347,0.389,0.695,0.583,1.042c0.144-0.537,0.021-1.179,0.384-1.644C14.865,32.989,14.799,33.779,14.732,34.57
	C14.542,34.242,14.805,33.702,14.732,34.57z M15.382,28.674c-0.218-0.144-1.562-0.223-1.722-0.086
	c-0.192,0.165-0.241,0.867-0.305,1.111c-0.124,0.473-0.26,0.946-0.52,1.365c-0.986-0.493,0.425-3.077,0.709-3.753
	c0.29-0.692,0.543-1.396,0.796-2.102c0.242-0.674,0.334-1.515,0.965-1.899c0.415,0.779,0.362,1.917,0.472,2.791
	c0.129,1.02,0.283,2.03,0.472,3.04c0.05,0.269,0.637,2.378-0.085,1.969c-0.222-0.125-0.305-0.947-0.366-1.176
	C15.72,29.647,15.653,28.854,15.382,28.674z M16.837,35.035c-0.471-0.165-0.943-0.201-1.108-0.657
	c-0.164-0.453,0.009-0.792,0.078-1.188c0.039-0.224-0.2-0.747-0.02-0.951c0.181-0.207,0.788,0.02,0.994,0.059
	c-0.103,0.338-0.604,0.096-0.741,0.298c-0.049,0.072-0.02,0.496,0,0.579c0.086,0.36-0.134,0.142,0.217,0.338
	c0.136,0.033,0.271,0.065,0.407,0.098c0.022,0.171-0.075,0.22-0.292,0.147c-0.235-0.068-0.343,0.01-0.324,0.234
	c-0.024,0.093-0.036,0.187-0.034,0.283C16.127,34.62,16.997,34.718,16.837,35.035C16.484,34.91,16.86,34.99,16.837,35.035z
	 M18.012,34.088c-0.23,0.176-0.133,0.526-0.133,0.805c-0.265-0.274-0.03-0.825-0.501-0.92c0.443-0.471-0.038-0.894,0.09-1.378
	c0.099-0.372,0.638-0.394,0.863-0.042c0.314,0.491-0.255,0.824-0.33,1.21c-0.074,0.378,0.646,0.475,0.7,0.98
	C18.472,34.524,18.242,34.306,18.012,34.088C17.968,34.122,18.252,34.315,18.012,34.088z M18.551,24.468
	c-0.371,0.044-0.243,2.665-0.242,3.084c0.001,0.651,0.007,1.303,0.009,1.954c0.001,0.213-0.009,1.419-0.256,0.826
	c-0.176-0.421-0.053-1.245-0.069-1.708c-0.02-0.568-0.031-1.137-0.011-1.705c0.036-1.02-0.029-2.441,0.5-3.32
	c0.417,0.473,0.513,1.115,0.69,1.718c0.196,0.668,0.391,1.337,0.585,2.005c0.311,1.069,1.028,2.504,0.868,3.615
	c-0.326-0.02-0.918-2.686-1.037-3.076C19.242,26.729,18.896,25.598,18.551,24.468C18.507,24.473,19.209,26.622,18.551,24.468z
	 M20.727,34.454c-0.139-0.116-0.277-0.232-0.415-0.348c-0.137,0.113-0.282,0.216-0.434,0.309c-0.198,0.034-0.271,0.089-0.367-0.103
	c-0.132-0.264,0.224-0.57,0.209-0.847c-0.016-0.299-0.221-0.357-0.086-0.664c0.273-0.62,0.684-0.202,0.646,0.277
	c-0.009,0.115-0.225,0.483-0.091,0.59c0.183,0.147,0.468-0.407,0.547-0.513c0.201,0.352-0.122,0.351-0.159,0.618
	C20.545,34.006,20.897,34.295,20.727,34.454C20.597,34.345,20.758,34.425,20.727,34.454z M21.585,30.651
	c-0.393,0.094-0.267-1.3-0.275-1.594c-0.022-0.821-0.072-1.639-0.121-2.459c-0.046-0.762-0.096-1.524-0.145-2.286
	c-0.033-0.513-0.277-1.306,0.471-1.315c0,0.659,0,1.317,0,1.976c0,0.186-0.104,0.77,0,0.927c0.154,0.232,1.167-0.579,1.438-0.738
	c0.771-0.451,1.544-0.9,2.32-1.342c0.187-0.107,1.684-0.925,1.26-0.142c-0.126,0.233-0.755,0.501-0.982,0.655
	c-0.416,0.282-0.833,0.564-1.249,0.845c-0.706,0.477-1.439,0.93-2.109,1.458c0.845,0.683,1.678,1.38,2.544,2.037
	c0.226,0.171,2.363,1.554,2.092,1.839c-0.362,0.382-4.659-3.039-5.243-3.436C21.585,28.268,21.585,29.459,21.585,30.651z
	 M22.83,34.458c-0.141,0.387-0.59,0.435-0.935,0.515c0-0.537,0.012-1.075-0.002-1.612c-0.009-0.352-0.241-1.172,0.264-1.141
	c0.427,0.026,0.573,0.608,0.537,0.927c-0.031,0.277-0.167,0.436-0.118,0.635C22.641,34.051,22.973,34.063,22.83,34.458z M24.9,34.89
	c-0.144-0.335-0.373-1.282-0.908-0.869c-0.163,0.126-0.137,0.421-0.259,0.577c-0.322,0.412-0.158-0.13-0.076-0.362
	c0.127-0.36,0.254-0.721,0.381-1.081c0.157-0.445,0.165-0.876,0.449-0.327C24.627,33.098,25.087,34.805,24.9,34.89
	C24.776,34.601,24.937,34.873,24.9,34.89z M26.893,34.86c-0.35-0.297-0.699-0.595-1.049-0.892c0.052,0.303,0.129,0.521,0.006,0.802
	c-0.319-0.338-0.289-0.984-0.357-1.435c-0.054-0.355-0.298-1.219,0.365-0.848c0.563,0.315,0.153,0.646,0.191,1.063
	c0.022,0.246,0.243,0.413,0.461,0.635C26.723,34.4,27.148,34.601,26.893,34.86C26.564,34.579,26.94,34.812,26.893,34.86z
	 M30.188,31.147c-0.186-2.083-0.187-4.177-0.384-6.259c-0.316,1.116-0.64,2.226-0.914,3.353c-0.237,0.971-0.362,2.028-0.849,2.904
	c-0.327-0.541-0.148-1.468-0.147-2.094c0.001-0.855,0.005-1.71,0.009-2.565c0.004-0.874,0.011-1.747,0.026-2.621
	c0.003-0.179,0.079-1.497,0.541-1.077c0.189,0.173,0,1.611,0,1.871c0,0.577,0,1.154,0,1.731c0.284,0.063,0.981-2.543,1.2-2.905
	c0.853-1.408,0.797,1.128,0.821,1.606c0.057,1.158,0.111,2.316,0.182,3.473C30.728,29.463,31.082,30.571,30.188,31.147
	C30,29.04,30.677,30.832,30.188,31.147z M14.938,25.618c0.062,0.415,0.123,0.83,0.185,1.245c0.028,0.19,0.235,0.851,0.135,1.013
	c-0.222,0.359-1.066,0.189-1.481,0.189C13.92,27.721,14.663,25.553,14.938,25.618C15.046,26.344,14.897,25.608,14.938,25.618z
	 M22.134,33.493v-0.927C22.593,32.766,22.609,33.093,22.134,33.493z M22.183,33.786c0.154,0.176,0.453,0.36,0.367,0.602
	c-0.045,0.128-0.264,0.265-0.367,0.18C22.098,34.498,22.183,33.905,22.183,33.786z M11.445,32.549
	c0.538,0.556,0.472,1.438-0.176,2.047C11.33,33.882,11.386,33.231,11.445,32.549z M25.751,33.461
	c-0.032-0.223-0.06-0.418-0.097-0.682C26.058,33.071,26.068,33.168,25.751,33.461z M17.797,33.638
	c-0.036-0.392-0.072-0.784-0.108-1.175C18.373,32.73,18.297,33.099,17.797,33.638C17.761,33.25,18.18,33.224,17.797,33.638z
	 M24.32,33.05c0.055,0.221,0.11,0.442,0.166,0.663c-0.144,0-0.289,0-0.433,0C24.142,33.492,24.231,33.271,24.32,33.05
	C24.386,33.312,24.217,33.306,24.32,33.05z"/>
</svg>
