<svg version="1.1" xmlns="http://www.w3.org/2000/svg" xmlns:xlink="http://www.w3.org/1999/xlink" width="155.9px" height="71.97px" viewBox="0,0,256,118.17188"><g transform="translate(6.4,2.9543) scale(0.95,0.95)"><g fill="none" fill-rule="none" stroke="none" stroke-width="1" stroke-linecap="butt" stroke-linejoin="miter" stroke-miterlimit="10" stroke-dasharray="" stroke-dashoffset="0" font-family="none" font-weight="none" font-size="none" text-anchor="none" style="mix-blend-mode: normal"><g transform="translate(-11.64233,-80.54974) scale(1.64208,1.64208)"><g id="Слой_1" fill="#172953" fill-rule="evenodd"><g><path d="M61.32,75.2c9.83,-11.96 25.6,-20.86 44.21,-24.43c-5.8,-1.11 -11.87,-1.72 -18.13,-1.72c-26.36,0 -49.45,10.46 -62.35,26.15c12.9,15.69 35.99,26.15 62.35,26.15c6.26,0 12.33,-0.61 18.13,-1.72c-18.61,-3.56 -34.38,-12.47 -44.21,-24.43zM50.62,75.2c0,2.61 -2.12,4.73 -4.73,4.73c-2.61,0 -4.73,-2.12 -4.73,-4.73c0,-2.61 2.12,-4.73 4.73,-4.73c2.62,0 4.73,2.12 4.73,4.73z"></path><path d="M85.12,75.2c0,2.61 -2.12,4.73 -4.74,4.73c-2.61,0 -4.73,-2.12 -4.73,-4.73c0,-2.61 2.12,-4.73 4.73,-4.73c2.62,0 4.74,2.12 4.74,4.73z"></path><path d="M24.77,86.05l-0.31,0.31l-0.36,-0.37c-0.27,-0.27 -0.77,-0.57 -1.38,0.03l-6.06,6.02c-0.29,0.28 -0.26,0.53 0.25,1.05l0.45,0.46l-2.47,2.45l-0.31,-0.31l0.21,-0.2c0.49,-0.49 1.59,-1.92 -0.09,-3.61l-3.56,-3.58c-0.76,-0.76 -1.65,-1.5 -3.74,0.16l-0.31,-0.31l2.56,-2.38l0.32,0.32c0.7,0.71 3.26,0.96 7.92,-3.67c1.23,-1.23 1.17,-1.52 0.7,-1.99l-0.45,-0.46l0.31,-0.31l6.32,6.39M21.48,83.76l-1.91,-1.92l-0.49,0.49c-0.22,0.22 -0.42,0.42 -0.64,0.64c-2.32,2.28 -4.45,4.06 -7.34,4.28l3.41,3.44zM19.14,95.51l0.08,0.06c0.47,0.37 0.87,0.37 1.86,-0.22l8.96,-5.36l0.28,0.22l-2.95,10.78c-0.12,0.44 -0.11,0.85 0.27,1.15l0.04,0.03l-0.27,0.34l-4.04,-3.14l0.27,-0.34l0.37,0.29c0.46,0.36 0.88,0.54 1.19,0.15c0.05,-0.06 0.17,-0.3 0.19,-0.38l0.58,-2.06l-2.77,-2.16l-1.55,0.94c-0.15,0.09 -0.35,0.21 -0.51,0.42c-0.36,0.46 0.04,0.89 0.6,1.32l0.05,0.04l-0.27,0.34l-2.67,-2.08l0.29,-0.34M23.89,94.47l2.31,1.8l1.04,-3.82zM34.33,106.25l0.44,0.26c0.33,0.2 0.89,0.36 1.32,-0.38l4.62,-7.85l-2.37,-1.4l-2.77,4.72c-2.51,4.26 -4.42,3.54 -5.1,3.14c-1.23,-0.73 -1.14,-1.74 -0.81,-2.31c0.15,-0.25 0.66,-0.9 1.45,-0.43c0.69,0.41 0.59,1 0.42,1.29c-0.03,0.06 -0.07,0.11 -0.11,0.16c-0.02,0.04 -0.07,0.09 -0.1,0.13c-0.16,0.26 -0.08,0.46 0.14,0.59c0.4,0.24 1.53,0.32 3.7,-3.37l2.19,-3.72c0.3,-0.51 0.11,-1.05 -0.34,-1.32l-0.39,-0.23l0.22,-0.37l7.64,4.5l-0.22,0.38l-0.44,-0.26c-0.33,-0.2 -0.89,-0.36 -1.32,0.38l-4.26,7.24c-0.43,0.73 -0.02,1.15 0.31,1.34l0.44,0.26l-0.22,0.37l-4.66,-2.74zM42.29,110.6l0.48,0.2c0.36,0.15 0.93,0.24 1.26,-0.55l3.26,-7.74c0.33,-0.79 -0.13,-1.14 -0.49,-1.29l-0.47,-0.2l0.17,-0.4l4.98,2.1l-0.17,0.4l-0.47,-0.2c-0.36,-0.15 -0.93,-0.23 -1.26,0.55l-1.34,3.19c0.47,0.13 0.87,0.3 1.39,0.51c3.12,1.31 3.19,3.42 2.67,4.67c-1.22,2.89 -4.34,1.61 -5.55,1.11l-4.63,-1.95l0.17,-0.4M46.46,110.85c-0.41,0.96 0.21,1.28 0.47,1.38c0.74,0.31 2.13,0.37 2.88,-1.41c0.84,-2 -0.53,-2.94 -1.28,-3.26c-0.19,-0.08 -0.39,-0.15 -0.6,-0.2zM54.66,115.59l0.5,0.13c0.37,0.1 0.96,0.1 1.17,-0.73l2.11,-8.13c0.21,-0.83 -0.29,-1.11 -0.67,-1.2l-0.5,-0.13l0.11,-0.42l11.88,3.08l-0.11,0.42l-0.5,-0.13c-0.37,-0.1 -0.95,-0.1 -1.17,0.73l-2.11,8.13c-0.21,0.82 0.29,1.11 0.67,1.2l0.5,0.13l-0.11,0.42l-5.23,-1.36l0.11,-0.42l0.5,0.13c0.37,0.1 0.96,0.1 1.17,-0.73l2.29,-8.82l-4.25,-1.1l-2.29,8.82c-0.21,0.83 0.29,1.11 0.67,1.21l0.5,0.13l-0.11,0.42l-5.23,-1.36zM70.22,119.23l0.51,0.06c0.38,0.04 0.96,-0.04 1.06,-0.89l0.94,-8.35c0.09,-0.85 -0.45,-1.05 -0.83,-1.1l-0.51,-0.06l0.05,-0.43l5.68,0.64c0.86,0.1 3.75,0.66 3.45,3.32c-0.16,1.41 -1.1,3.03 -4.7,2.63c-0.4,-0.04 -0.78,-0.1 -1.18,-0.18l-0.43,3.81c-0.09,0.85 0.45,1.05 0.83,1.1l0.72,0.08l-0.05,0.43l-5.58,-0.63l0.04,-0.43M74.76,114.14c0.23,0.09 0.49,0.15 0.73,0.18c0.86,0.1 2.19,0.07 2.45,-2.19c0.24,-2.16 -1.05,-2.32 -1.88,-2.41l-0.78,-0.09zM88.64,109.31c3.44,-0.08 5.74,2.38 5.82,5.72c0.08,3.35 -2.1,5.91 -5.54,5.99c-3.44,0.08 -5.74,-2.38 -5.82,-5.72c-0.07,-3.35 2.1,-5.91 5.54,-5.99M88.9,120.29c1.48,-0.04 2.87,-1.26 2.78,-5.2c-0.09,-3.94 -1.54,-5.1 -3.02,-5.07c-1.48,0.04 -2.87,1.26 -2.77,5.2c0.09,3.95 1.53,5.11 3.01,5.07zM100.43,108.53l4.56,7.02l1.92,-8.24l4.03,-0.76l0.08,0.43l-0.51,0.1c-0.38,0.07 -0.91,0.32 -0.75,1.16l1.56,8.26c0.16,0.84 0.74,0.88 1.12,0.8l0.51,-0.1l0.08,0.43l-5.31,1l-0.08,-0.43l0.5,-0.1c0.38,-0.07 0.91,-0.32 0.75,-1.16l-1.59,-8.45l-2.49,10.67l-0.32,0.06l-6.07,-9.34l1.64,8.71c0.16,0.84 0.74,0.88 1.12,0.81l0.51,-0.1l0.08,0.43l-3.59,0.68l-0.08,-0.43l0.51,-0.1c0.38,-0.07 0.91,-0.32 0.75,-1.16l-1.56,-8.26c-0.16,-0.84 -0.74,-0.88 -1.12,-0.81l-0.51,0.1l-0.08,-0.43zM116.58,115.96l0.48,-0.17c0.36,-0.13 0.84,-0.46 0.56,-1.26l-2.83,-7.91c-0.29,-0.8 -0.87,-0.75 -1.23,-0.62l-0.49,0.17l-0.15,-0.41l5.38,-1.92c0.82,-0.29 3.66,-1.05 4.56,1.46c0.48,1.33 0.34,3.21 -3.07,4.43c-0.38,0.14 -0.75,0.25 -1.14,0.35l1.29,3.61c0.29,0.8 0.87,0.75 1.23,0.62l0.68,-0.24l0.15,0.41l-5.29,1.89l-0.13,-0.41M118.41,109.39c0.25,-0.02 0.5,-0.08 0.73,-0.16c0.82,-0.29 2,-0.9 1.24,-3.04c-0.73,-2.04 -1.96,-1.62 -2.75,-1.34l-0.74,0.27zM128.94,111.44l0.45,-0.25c0.34,-0.19 0.76,-0.58 0.36,-1.33l-4.03,-7.37c-0.41,-0.75 -0.97,-0.61 -1.31,-0.42l-0.45,0.25l-0.21,-0.38l4.74,-2.59l0.21,0.38l-0.45,0.25c-0.34,0.19 -0.76,0.58 -0.35,1.33l1.66,3.04c0.39,-0.29 0.77,-0.5 1.27,-0.77c2.99,-1.64 4.66,-0.37 5.31,0.82c1.51,2.75 -1.44,4.4 -2.59,5.03l-4.39,2.4l-0.22,-0.39M131.73,108.33c0.5,0.92 1.13,0.63 1.37,0.5c0.71,-0.39 1.62,-1.44 0.69,-3.13c-1.04,-1.91 -2.63,-1.42 -3.35,-1.03c-0.18,0.1 -0.36,0.21 -0.53,0.34l1.82,3.32M137.44,106.79l0.45,-0.25c0.34,-0.18 0.76,-0.58 0.35,-1.33l-4.03,-7.37c-0.41,-0.75 -0.97,-0.6 -1.31,-0.42l-0.45,0.25l-0.21,-0.38l4.74,-2.59l0.21,0.38l-0.45,0.25c-0.34,0.19 -0.76,0.58 -0.35,1.33l4.03,7.37c0.41,0.75 0.97,0.61 1.31,0.42l0.45,-0.25l0.21,0.38l-4.74,2.59zM147.49,90.53l-0.36,0.27c-0.43,-0.44 -1.86,-1.67 -3.71,-0.25l-1.22,0.94l2.55,3.3c0.34,-0.35 0.69,-0.61 1.13,-0.95c2.67,-2.07 4.55,-1.09 5.37,-0.02c1.92,2.48 -0.74,4.58 -1.77,5.37l-3.96,3.06l-0.27,-0.34l0.41,-0.31c0.31,-0.24 0.66,-0.7 0.14,-1.37l-5.14,-6.65c-0.52,-0.68 -1.06,-0.44 -1.36,-0.21l-0.41,0.32l-0.27,-0.34l6.9,-5.33l1.97,2.51M147.53,98.4c0.64,0.83 1.22,0.44 1.43,0.27c0.64,-0.49 1.37,-1.67 0.19,-3.2c-1.28,-1.66 -2.71,-1.08 -3.47,-0.49c-0.17,0.13 -0.32,0.27 -0.47,0.42zM155.01,94.19l0.07,-0.07c0.42,-0.42 0.48,-0.82 0.02,-1.88l-4.19,-9.57l0.25,-0.25l10.32,4.28c0.42,0.17 0.83,0.22 1.17,-0.12l0.03,-0.03l0.31,0.31l-3.63,3.61l-0.31,-0.31l0.33,-0.33c0.41,-0.41 0.65,-0.81 0.3,-1.16c-0.06,-0.06 -0.27,-0.21 -0.35,-0.24l-1.97,-0.84l-2.49,2.47l0.74,1.65c0.07,0.16 0.17,0.38 0.35,0.56c0.41,0.41 0.89,0.07 1.39,-0.43l0.05,-0.05l0.31,0.31l-2.39,2.38l-0.31,-0.29M154.58,89.35l2.08,-2.07l-3.66,-1.51z"></path><path d="M155.78,52.02c3.71,0 6.72,3.01 6.72,6.72c0,3.71 -3.01,6.72 -6.72,6.72c-3.71,0 -6.71,-3.01 -6.71,-6.72c-0.01,-3.72 3,-6.72 6.71,-6.72zM155.78,53.01c3.16,0 5.72,2.56 5.72,5.72c0,3.16 -2.56,5.72 -5.72,5.72c-3.16,0 -5.72,-2.56 -5.72,-5.72c0,-3.16 2.56,-5.72 5.72,-5.72zM153.33,62.25v-6.86h3.04c0.61,0 1.08,0.06 1.39,0.19c0.32,0.12 0.57,0.34 0.76,0.65c0.19,0.31 0.28,0.66 0.28,1.04c0,0.49 -0.16,0.9 -0.47,1.23c-0.31,0.33 -0.8,0.55 -1.46,0.64c0.24,0.11 0.42,0.23 0.55,0.34c0.27,0.24 0.52,0.55 0.75,0.91l1.19,1.87h-1.14l-0.91,-1.43c-0.27,-0.41 -0.48,-0.73 -0.66,-0.94c-0.17,-0.22 -0.32,-0.37 -0.46,-0.46c-0.14,-0.09 -0.27,-0.15 -0.41,-0.18c-0.1,-0.02 -0.27,-0.03 -0.51,-0.03h-1.05v3.05h-0.89zM154.24,58.42h1.95c0.41,0 0.74,-0.04 0.97,-0.13c0.24,-0.09 0.41,-0.22 0.53,-0.41c0.12,-0.19 0.18,-0.39 0.18,-0.62c0,-0.32 -0.12,-0.59 -0.35,-0.8c-0.24,-0.21 -0.61,-0.31 -1.12,-0.31h-2.17v2.27z"></path></g></g><g id="cut" fill="#000000" fill-rule="nonzero" font-family="Inter, apple-system, BlinkMacSystemFont, &quot;Helvetica Neue&quot;, &quot;Segoe UI&quot;, &quot;Fira Sans&quot;, Roboto, Oxygen, Ubuntu, &quot;Droid Sans&quot;, Arial, sans-serif" font-weight="400" font-size="16" text-anchor="start"></g></g></g></g></svg>