<?xml version="1.0" encoding="utf-8"?>
<!-- Generator: Adobe Illustrator 16.0.0, SVG Export Plug-In . SVG Version: 6.00 Build 0)  -->
<!DOCTYPE svg PUBLIC "-//W3C//DTD SVG 1.1//EN" "http://www.w3.org/Graphics/SVG/1.1/DTD/svg11.dtd">
<svg version="1.1" id="Слой_1" xmlns="http://www.w3.org/2000/svg" xmlns:xlink="http://www.w3.org/1999/xlink" x="0px" y="0px"
	 width="115px" height="48px" viewBox="0 0 115 48" enable-background="new 0 0 115 48" xml:space="preserve">
<path fill="#A3A59A" d="M35.399,42.683V42.49l-0.429-1.031c-0.102-0.246-0.213-0.403-0.334-0.47
	c-0.122-0.064-0.269-0.098-0.445-0.098h-0.283v0.808c0,0.335,0.028,0.539,0.087,0.609c0.058,0.07,0.172,0.129,0.342,0.182v0.192
	h-1.516V42.49c0.177-0.053,0.291-0.122,0.337-0.216c0.047-0.091,0.071-0.284,0.071-0.575v-1.917c0-0.23-0.028-0.392-0.084-0.483
	c-0.056-0.089-0.171-0.151-0.345-0.187v-0.193h1.535v0.193c-0.159,0.035-0.272,0.095-0.334,0.182
	c-0.063,0.086-0.094,0.248-0.094,0.488v0.813h0.283c0.171,0,0.308-0.051,0.412-0.155c0.105-0.104,0.221-0.321,0.353-0.651
	c0.133-0.331,0.273-0.571,0.421-0.721c0.147-0.15,0.391-0.226,0.732-0.226c0.113,0,0.241,0.019,0.385,0.057v0.766h-0.354
	c-0.032-0.164-0.122-0.248-0.263-0.248c-0.11,0-0.2,0.031-0.269,0.091c-0.068,0.061-0.149,0.2-0.247,0.417
	c-0.184,0.415-0.366,0.664-0.543,0.749v0.022c0.379,0.094,0.657,0.317,0.838,0.668l0.299,0.583c0.094,0.184,0.184,0.313,0.271,0.387
	c0.083,0.076,0.208,0.125,0.367,0.152v0.196H35.399z M39.328,41.444c0,0.13-0.041,0.265-0.123,0.398
	c-0.082,0.134-0.193,0.243-0.34,0.331c-0.145,0.086-0.308,0.129-0.486,0.129c-0.126,0-0.235-0.017-0.326-0.05
	c-0.093-0.033-0.168-0.092-0.229-0.179s-0.09-0.205-0.09-0.355c0-0.274,0.132-0.479,0.398-0.617
	c0.265-0.137,0.664-0.207,1.197-0.213l0,0L39.328,41.444L39.328,41.444z M39.374,42.683h1.079V42.49
	c-0.117-0.031-0.2-0.063-0.25-0.091c-0.052-0.029-0.09-0.063-0.117-0.104c-0.025-0.042-0.045-0.095-0.059-0.164
	c-0.014-0.066-0.021-0.142-0.023-0.222c-0.002-0.079-0.003-0.218-0.003-0.411v-1.37c0-0.342-0.04-0.601-0.118-0.771
	c-0.079-0.169-0.197-0.297-0.354-0.379c-0.159-0.083-0.367-0.124-0.626-0.124c-0.173,0-0.345,0.019-0.513,0.053
	c-0.167,0.035-0.335,0.084-0.503,0.146c-0.168,0.063-0.378,0.159-0.631,0.29v0.512h0.516c0.063-0.215,0.157-0.377,0.282-0.484
	c0.124-0.107,0.289-0.161,0.494-0.161c0.189,0,0.339,0.036,0.452,0.11s0.195,0.19,0.248,0.347c0.052,0.157,0.079,0.371,0.079,0.646
	v0.255c-0.759,0.032-1.329,0.155-1.708,0.363c-0.378,0.209-0.568,0.505-0.568,0.888c0,0.184,0.042,0.346,0.123,0.487
	c0.081,0.139,0.197,0.247,0.351,0.325c0.151,0.077,0.327,0.117,0.527,0.117c0.226,0,0.438-0.049,0.639-0.146
	c0.201-0.098,0.415-0.263,0.644-0.496l0.059,0.015L39.374,42.683z M43.743,39.188c0.878,0.021,1.318,0.574,1.318,1.653
	c0,0.991-0.44,1.51-1.318,1.558V39.188L43.743,39.188 M43.109,42.407c-0.879-0.025-1.318-0.578-1.318-1.656
	c0-1,0.439-1.52,1.318-1.563l0,0V42.407z M45.766,40.7c0-1.196-0.674-1.811-2.022-1.843v-1.809h-0.217l-0.941,0.042v0.201
	c0.242,0.039,0.39,0.114,0.443,0.228c0.053,0.113,0.08,0.405,0.08,0.878v0.47c-1.35,0.078-2.027,0.755-2.027,2.029
	c0,1.201,0.677,1.814,2.027,1.834v0.666c0,0.257-0.021,0.437-0.061,0.54c-0.041,0.104-0.173,0.188-0.4,0.251v0.191h1.591v-0.191
	c-0.193-0.04-0.327-0.1-0.395-0.177c-0.068-0.08-0.102-0.284-0.102-0.614V42.73C45.092,42.657,45.766,41.979,45.766,40.7z
	 M47.341,40.417c0.028-0.401,0.124-0.709,0.285-0.928c0.16-0.216,0.376-0.324,0.646-0.324c0.18,0,0.325,0.048,0.435,0.145
	c0.108,0.096,0.191,0.231,0.247,0.411c0.054,0.181,0.09,0.412,0.106,0.696l0,0H47.341L47.341,40.417z M49.481,41.758
	c-0.17,0.183-0.342,0.313-0.513,0.393c-0.172,0.081-0.366,0.121-0.581,0.121c-0.255,0-0.462-0.061-0.62-0.18
	c-0.159-0.118-0.273-0.285-0.342-0.496c-0.07-0.211-0.105-0.473-0.105-0.781v-0.071h2.48c-0.008-0.355-0.043-0.646-0.104-0.867
	s-0.147-0.404-0.26-0.552c-0.112-0.144-0.261-0.259-0.446-0.343c-0.187-0.084-0.413-0.125-0.677-0.125
	c-0.338,0-0.639,0.081-0.899,0.243c-0.26,0.163-0.459,0.394-0.6,0.692c-0.14,0.3-0.211,0.645-0.211,1.036
	c0,0.633,0.139,1.11,0.414,1.433c0.275,0.324,0.684,0.488,1.225,0.488c0.2,0,0.387-0.03,0.553-0.086
	c0.169-0.057,0.322-0.134,0.463-0.233c0.14-0.1,0.296-0.238,0.461-0.415L49.481,41.758z M52.378,40.307h-1.827v0.61h1.827V40.307z
	 M56.684,40.011v-1.09h-3.658v1.09h0.375c0.064-0.237,0.146-0.427,0.246-0.564c0.101-0.137,0.261-0.207,0.479-0.207h0.385v2.464
	c0,0.289-0.029,0.483-0.091,0.583c-0.061,0.098-0.2,0.166-0.415,0.205v0.191h1.688V42.49c-0.205-0.037-0.341-0.099-0.407-0.189
	c-0.068-0.09-0.101-0.289-0.101-0.599v-2.464h0.389c0.215,0,0.371,0.063,0.47,0.187c0.099,0.122,0.188,0.317,0.266,0.586H56.684
	L56.684,40.011z M58.068,40.417c0.029-0.401,0.124-0.709,0.286-0.928c0.16-0.216,0.377-0.324,0.646-0.324
	c0.181,0,0.324,0.048,0.434,0.145c0.11,0.096,0.193,0.231,0.249,0.411c0.055,0.181,0.088,0.412,0.104,0.696l0,0H58.068
	L58.068,40.417z M60.21,41.758c-0.171,0.183-0.343,0.313-0.515,0.393c-0.172,0.081-0.363,0.121-0.58,0.121
	c-0.255,0-0.46-0.061-0.62-0.18c-0.157-0.118-0.273-0.285-0.343-0.496c-0.067-0.211-0.103-0.473-0.103-0.781v-0.071h2.479
	c-0.009-0.355-0.042-0.646-0.104-0.867c-0.062-0.221-0.147-0.404-0.26-0.552c-0.11-0.144-0.261-0.259-0.448-0.343
	c-0.185-0.084-0.41-0.125-0.675-0.125c-0.339,0-0.638,0.081-0.897,0.243c-0.262,0.163-0.461,0.394-0.601,0.692
	c-0.142,0.3-0.211,0.645-0.211,1.036c0,0.633,0.137,1.11,0.414,1.433c0.274,0.324,0.683,0.488,1.224,0.488
	c0.201,0,0.387-0.03,0.554-0.086c0.169-0.057,0.324-0.134,0.463-0.233c0.141-0.1,0.296-0.238,0.463-0.415L60.21,41.758z
	 M62.304,40.227c0-0.109,0.021-0.212,0.064-0.308c0.044-0.096,0.117-0.194,0.223-0.298c0.104-0.102,0.21-0.177,0.316-0.223
	c0.105-0.045,0.232-0.067,0.38-0.067c0.601,0,0.901,0.513,0.901,1.543c0,0.513-0.081,0.902-0.239,1.165
	c-0.161,0.266-0.4,0.396-0.718,0.396c-0.179,0-0.321-0.02-0.431-0.062c-0.109-0.043-0.203-0.106-0.284-0.191
	c-0.079-0.087-0.136-0.195-0.167-0.334c-0.031-0.136-0.046-0.331-0.046-0.582l0,0V40.227L62.304,40.227z M62.736,42.696
	c0.159,0.032,0.334,0.051,0.527,0.051c0.346,0,0.646-0.074,0.895-0.223c0.252-0.148,0.442-0.371,0.574-0.665
	c0.131-0.296,0.197-0.658,0.197-1.094c0-0.621-0.118-1.098-0.35-1.422c-0.232-0.323-0.563-0.486-0.997-0.486
	c-0.105,0-0.203,0.012-0.298,0.032c-0.092,0.021-0.189,0.056-0.292,0.106c-0.102,0.05-0.198,0.111-0.293,0.186
	c-0.095,0.076-0.224,0.195-0.386,0.362l-0.059-0.018l0.051-0.642h-0.24l-0.924,0.036v0.21c0.119,0.021,0.203,0.048,0.253,0.069
	c0.053,0.023,0.093,0.053,0.122,0.088c0.031,0.034,0.053,0.077,0.071,0.13c0.015,0.052,0.024,0.118,0.03,0.197
	c0.005,0.081,0.008,0.215,0.008,0.403v3.378c0,0.151-0.005,0.273-0.015,0.365c-0.012,0.092-0.031,0.165-0.064,0.219
	c-0.03,0.053-0.076,0.095-0.136,0.123c-0.058,0.026-0.134,0.055-0.23,0.08v0.192h1.606v-0.194c-0.126-0.025-0.217-0.056-0.273-0.087
	c-0.055-0.031-0.099-0.071-0.13-0.12c-0.03-0.049-0.05-0.114-0.062-0.199c-0.014-0.082-0.019-0.211-0.019-0.38v-0.83
	C62.434,42.621,62.578,42.664,62.736,42.696z M66.786,40.227c0-0.109,0.021-0.212,0.064-0.308s0.118-0.194,0.222-0.298
	c0.106-0.102,0.212-0.177,0.317-0.223c0.107-0.045,0.231-0.067,0.381-0.067c0.601,0,0.899,0.513,0.899,1.543
	c0,0.513-0.081,0.902-0.24,1.165c-0.158,0.266-0.396,0.396-0.714,0.396c-0.181,0-0.324-0.02-0.432-0.062
	c-0.11-0.043-0.203-0.106-0.284-0.191c-0.081-0.087-0.136-0.195-0.166-0.334c-0.031-0.136-0.049-0.331-0.049-0.582l0,0
	L66.786,40.227L66.786,40.227z M67.218,42.696c0.159,0.032,0.336,0.051,0.527,0.051c0.348,0,0.647-0.074,0.898-0.223
	c0.25-0.148,0.439-0.371,0.572-0.665c0.131-0.296,0.196-0.658,0.196-1.094c0-0.621-0.117-1.098-0.349-1.422
	c-0.231-0.323-0.563-0.486-0.997-0.486c-0.105,0-0.203,0.012-0.298,0.032c-0.094,0.021-0.191,0.056-0.291,0.106
	c-0.103,0.05-0.2,0.111-0.294,0.186c-0.095,0.076-0.226,0.195-0.386,0.362l-0.06-0.018l0.052-0.642h-0.24l-0.926,0.036v0.21
	c0.12,0.021,0.203,0.048,0.256,0.069c0.052,0.023,0.09,0.053,0.121,0.088c0.031,0.034,0.053,0.077,0.069,0.13
	c0.017,0.052,0.026,0.118,0.031,0.197c0.005,0.081,0.009,0.215,0.009,0.403v3.378c0,0.151-0.005,0.273-0.017,0.365
	s-0.03,0.165-0.062,0.219c-0.033,0.053-0.077,0.095-0.137,0.123c-0.059,0.026-0.136,0.055-0.23,0.08v0.192h1.605v-0.194
	c-0.125-0.025-0.216-0.056-0.272-0.087s-0.101-0.071-0.129-0.12c-0.031-0.049-0.053-0.114-0.064-0.199
	c-0.012-0.082-0.019-0.211-0.019-0.38v-0.83C66.917,42.621,67.063,42.664,67.218,42.696z M72.41,41.444
	c0,0.13-0.041,0.265-0.124,0.398c-0.081,0.134-0.193,0.243-0.339,0.331c-0.146,0.086-0.308,0.129-0.486,0.129
	c-0.127,0-0.234-0.017-0.327-0.05c-0.091-0.033-0.167-0.092-0.229-0.179c-0.06-0.087-0.091-0.205-0.091-0.355
	c0-0.274,0.133-0.479,0.398-0.617c0.265-0.137,0.663-0.207,1.197-0.213l0,0V41.444z M72.457,42.683h1.08V42.49
	c-0.118-0.031-0.2-0.063-0.252-0.091c-0.051-0.029-0.089-0.063-0.117-0.104c-0.025-0.042-0.045-0.095-0.058-0.164
	c-0.014-0.066-0.021-0.142-0.023-0.222c-0.003-0.079-0.003-0.218-0.003-0.411v-1.37c0-0.342-0.04-0.601-0.119-0.771
	c-0.08-0.169-0.197-0.297-0.354-0.379c-0.158-0.083-0.367-0.124-0.625-0.124c-0.174,0-0.344,0.019-0.513,0.053
	c-0.168,0.035-0.336,0.084-0.503,0.146c-0.168,0.063-0.378,0.159-0.63,0.29v0.512h0.515c0.063-0.215,0.157-0.377,0.281-0.484
	c0.125-0.107,0.289-0.161,0.494-0.161c0.19,0,0.341,0.036,0.453,0.11c0.114,0.074,0.195,0.19,0.246,0.347
	c0.054,0.157,0.081,0.371,0.081,0.646v0.255c-0.759,0.032-1.327,0.155-1.708,0.363c-0.379,0.209-0.568,0.505-0.568,0.888
	c0,0.184,0.041,0.346,0.124,0.487c0.081,0.139,0.196,0.247,0.349,0.325c0.153,0.077,0.329,0.117,0.527,0.117
	c0.227,0,0.44-0.049,0.64-0.146c0.2-0.098,0.415-0.263,0.644-0.496l0.06,0.015L72.457,42.683z M77.068,39.012
	c-0.183-0.056-0.366-0.095-0.547-0.122c-0.184-0.023-0.382-0.036-0.597-0.036c-0.348,0-0.651,0.082-0.918,0.243
	c-0.265,0.163-0.47,0.396-0.617,0.695c-0.146,0.3-0.222,0.645-0.222,1.033c0,0.622,0.131,1.097,0.394,1.428
	c0.264,0.329,0.644,0.494,1.14,0.494c0.133,0,0.257-0.014,0.37-0.038c0.114-0.024,0.23-0.064,0.346-0.119
	c0.118-0.053,0.229-0.12,0.329-0.2c0.103-0.08,0.222-0.193,0.355-0.341l-0.227-0.259c-0.167,0.179-0.329,0.303-0.484,0.373
	c-0.157,0.071-0.325,0.107-0.508,0.107c-0.185,0-0.34-0.038-0.466-0.112c-0.128-0.072-0.229-0.174-0.305-0.305
	c-0.076-0.132-0.129-0.291-0.16-0.476c-0.031-0.186-0.048-0.391-0.048-0.613c0-0.35,0.043-0.644,0.124-0.884
	c0.083-0.241,0.193-0.421,0.336-0.54c0.142-0.119,0.304-0.177,0.485-0.177c0.131,0,0.238,0.02,0.324,0.058
	c0.088,0.04,0.162,0.109,0.23,0.208c0.064,0.097,0.119,0.23,0.165,0.403h0.499V39.012 M79.9,41.444c0,0.13-0.042,0.265-0.125,0.398
	c-0.08,0.134-0.193,0.243-0.339,0.331c-0.146,0.086-0.308,0.129-0.485,0.129c-0.126,0-0.233-0.017-0.328-0.05
	c-0.091-0.033-0.167-0.092-0.228-0.179c-0.06-0.087-0.09-0.205-0.09-0.355c0-0.274,0.133-0.479,0.398-0.617
	c0.265-0.137,0.663-0.207,1.196-0.213l0,0V41.444z M79.946,42.683h1.078V42.49c-0.114-0.031-0.196-0.063-0.25-0.091
	c-0.051-0.029-0.089-0.063-0.117-0.104c-0.023-0.042-0.045-0.095-0.056-0.164c-0.016-0.066-0.021-0.142-0.025-0.222
	c-0.003-0.079-0.005-0.218-0.005-0.411v-1.37c0-0.342-0.038-0.601-0.116-0.771c-0.08-0.169-0.198-0.297-0.355-0.379
	c-0.156-0.083-0.365-0.124-0.625-0.124c-0.174,0-0.344,0.019-0.513,0.053c-0.167,0.035-0.334,0.084-0.502,0.146
	c-0.169,0.063-0.379,0.159-0.631,0.29v0.512h0.517c0.063-0.215,0.157-0.377,0.281-0.484c0.122-0.107,0.289-0.161,0.494-0.161
	c0.188,0,0.339,0.036,0.451,0.11c0.114,0.074,0.195,0.19,0.248,0.347c0.053,0.157,0.08,0.371,0.08,0.646v0.255
	c-0.76,0.032-1.327,0.155-1.707,0.363c-0.379,0.209-0.568,0.505-0.568,0.888c0,0.184,0.039,0.346,0.122,0.487
	c0.081,0.139,0.198,0.247,0.351,0.325c0.152,0.077,0.327,0.117,0.525,0.117c0.227,0,0.44-0.049,0.642-0.146
	c0.2-0.098,0.414-0.263,0.642-0.496l0.06,0.015L79.946,42.683z M77.684,29.005h-1.482v1.482h1.482V29.005z M77.661,30.902H76.18
	v1.483h1.481V30.902z M80.629,30.902h-1.483v1.483h1.483V30.902z M80.649,29.005h-1.482v1.482h1.482V29.005z M80.649,25.207h-1.482
	v1.483C79.986,26.69,80.649,26.026,80.649,25.207 M80.649,23.309h-1.482v1.483h1.482V23.309z M77.684,23.309h-1.482v1.483h1.482
	V23.309z M77.684,25.207h-1.482v1.483h1.482V25.207z M79.167,27.106h-1.483h-1.482v1.482h1.482h1.483h1.482
	C80.649,27.77,79.986,27.106,79.167,27.106 M74.34,29.005h-1.482v1.482h1.482V29.005z M74.34,27.106h-1.482v1.482h1.482V27.106z
	 M74.34,25.207h-1.482v1.483h1.482V25.207z M74.34,30.902h-1.482h-1.483h-1.482c0,0.82,0.663,1.483,1.482,1.483h1.483
	C73.677,32.386,74.34,31.723,74.34,30.902 M71.374,29.005h-1.482v1.482h1.482V29.005z M71.374,27.106h-1.482v1.482h1.482V27.106z
	 M71.374,25.207h-1.482v1.483h1.482V25.207z M72.857,23.309h-1.483c-0.819,0-1.482,0.664-1.482,1.483h1.482h1.483h1.482
	C74.34,23.972,73.677,23.309,72.857,23.309 M68.03,25.207h-1.482v1.483C67.367,26.69,68.03,26.026,68.03,25.207 M68.03,29.005
	h-1.482v1.482h1.482V29.005z M68.03,30.902h-1.482h-1.484h-1.481v1.483h1.481h1.484C67.367,32.386,68.03,31.723,68.03,30.902
	 M65.064,29.005h-1.481v1.482h1.481V29.005z M66.548,27.106h-1.483h-1.481v1.482h1.481h1.483h1.483
	C68.03,27.77,67.367,27.106,66.548,27.106 M65.064,25.207h-1.481v1.483h1.481V25.207z M66.548,23.309h-1.483h-1.481v1.483h1.481
	h1.483h1.483C68.03,23.972,67.367,23.309,66.548,23.309 M58.756,27.106h-1.483v1.482h1.483V27.106z M58.756,29.005h-1.483v1.482
	h1.483V29.005z M61.723,30.902h-1.484h-1.482h-1.483c0,0.82,0.663,1.483,1.483,1.483h1.482
	C61.059,32.386,61.723,31.723,61.723,30.902 M61.723,29.005h-1.484v1.482h1.484V29.005z M61.723,27.106h-1.484v1.482h1.484V27.106z
	 M61.723,25.207h-1.484v1.483h1.484V25.207z M58.756,25.207h-1.483v1.483h1.483V25.207z M60.238,23.309h-1.482
	c-0.82,0-1.483,0.664-1.483,1.483h1.483h1.482h1.484C61.723,23.972,61.059,23.309,60.238,23.309 M55.413,25.207h-1.482v1.483h1.482
	V25.207z M53.931,23.309h-1.483h-1.483v1.483h1.483h1.483h1.482C55.413,23.972,54.75,23.309,53.931,23.309 M52.447,25.207h-1.483
	v1.483h1.483V25.207z M55.413,27.106h-1.482h-1.483h-1.483v1.482h1.483h1.483C54.75,28.589,55.413,27.925,55.413,27.106
	 M52.447,29.005h-1.483v1.482h1.483V29.005z M52.447,30.902h-1.483v1.483h1.483V30.902z M48.191,30.902h-1.482v1.483h1.482V30.902z
	 M48.191,29.005h-1.482v1.482h1.482V29.005z M48.191,27.106h-1.482v1.482h1.482V27.106z M48.191,25.207h-1.482v1.483h1.482V25.207z
	 M49.674,23.309h-1.483h-1.482h-1.483v1.483h1.483h1.482h1.483V23.309z M40.97,27.106h-1.483v1.482h1.483V27.106z M40.97,25.207
	h-1.483v1.483h1.483V25.207z M42.452,23.309H40.97c-0.819,0-1.483,0.664-1.483,1.483h1.483h1.482h1.483
	C43.935,23.972,43.272,23.309,42.452,23.309 M43.935,25.207h-1.483v1.483h1.483V25.207z M43.935,29.005h-1.483v1.482h1.483V29.005z
	 M40.97,29.005h-1.483v1.482h1.483V29.005z M43.935,30.902h-1.483H40.97h-1.483c0,0.82,0.664,1.483,1.483,1.483h1.482
	C43.272,32.386,43.935,31.723,43.935,30.902 M37.627,30.902h-1.481h-1.484h-1.483c0,0.82,0.663,1.483,1.483,1.483h1.484
	C36.963,32.386,37.627,31.723,37.627,30.902 M34.66,29.005h-1.483v1.482h1.483V29.005z M37.627,29.005h-1.481v1.482h1.481V29.005z
	 M37.627,27.106h-1.481v1.482h1.481V27.106z M34.66,27.106h-1.483v1.482h1.483V27.106z M34.66,25.207h-1.483v1.483h1.483V25.207z
	 M37.627,25.207h-1.481v1.483h1.481V25.207z M36.146,23.309h-1.484c-0.82,0-1.483,0.664-1.483,1.483h1.483h1.484h1.481
	C37.627,23.972,36.963,23.309,36.146,23.309 M20.703,39.144l-0.154-0.033l-1.216,1.454h0.371L20.703,39.144z M20.916,38.323
	l-0.482,0.574l0.408,0.094L20.916,38.323z M22.439,36.925l-0.958,1.529l0.31,0.071L22.439,36.925z M22.581,36.179l-2.363,0.651
	l1.029,0.87l-0.08,0.724L22.581,36.179z M20.91,37.87l-2.701-2.29l-6.386,1.028l-1.275,4.072h8.024L20.91,37.87z M13.119,31.197
	l-1.45,0.993l-0.648-0.436l-3.374,5.482l2.564,3.225L13.119,31.197z M14.119,30.841l-0.492-0.218l0.044,0.171l-1.729,5.383
	l0.751-0.124L14.119,30.841z M13.272,29.166l0.237,0.934l0.437,0.194L13.272,29.166z M9.43,30.768l-0.295-0.169l0.145,0.438
	L9.43,30.768z M9.692,29.256l-0.535,0.938l2.562,1.477l1.387-0.888L9.692,29.256z M10.378,28.027l-0.486,0.859l3.375,1.507
	l-0.425-1.663L10.378,28.027z M9.493,28.832l-2.658-0.276l2.026,2.2l-0.167-0.514L9.08,29.56L9.493,28.832z M14.108,43.453
	c5.281,0,9.561-4.28,9.561-9.561c0-5.279-4.28-9.561-9.561-9.561c-5.28,0-9.56,4.281-9.56,9.561S8.829,43.453,14.108,43.453
	L14.108,43.453 M23.957,33.893c0,5.439-4.41,9.849-9.849,9.849c-5.439,0-9.848-4.409-9.848-9.849c0-5.438,4.409-9.848,9.848-9.848
	C19.547,24.044,23.957,28.455,23.957,33.893z M26.477,27.104h-4.628c0.833,0.861,1.828,2.651,2.117,3.814h3.933
	C27.711,29.856,27.031,28.031,26.477,27.104 M28.086,31.987h-3.863c0.24,1.003,0.24,2.808,0,3.81h3.863
	C28.258,34.808,28.258,32.979,28.086,31.987 M27.898,36.868h-3.933c-0.289,1.159-1.284,2.952-2.117,3.812h4.628
	C27.031,39.754,27.711,37.93,27.898,36.868 M20.178,46.628H8.04C11.377,48.457,16.84,48.457,20.178,46.628 M7.451,41.747H2.389
	c0.755,1.248,2.544,3.051,3.789,3.813h15.861c1.242-0.762,3.032-2.564,3.788-3.813h-5.063C17.071,45.001,11.148,45.001,7.451,41.747
	 M4.251,36.868H0.317c0.186,1.062,0.869,2.886,1.424,3.812h4.626C5.534,39.82,4.542,38.027,4.251,36.868 M3.992,31.987H0.129
	c-0.173,0.991-0.173,2.82,0,3.81h3.862C3.755,34.795,3.755,32.99,3.992,31.987 M6.368,27.104H1.742
	c-0.555,0.927-1.238,2.752-1.424,3.814h3.934C4.542,29.756,5.534,27.966,6.368,27.104 M22.039,22.226H6.178
	c-1.245,0.762-3.034,2.564-3.789,3.813h5.062c3.697-3.253,9.62-3.253,13.312,0h5.063C25.071,24.79,23.281,22.988,22.039,22.226
	 M8.04,21.158h12.138C16.84,19.329,11.377,19.329,8.04,21.158"/>
</svg>
