<?xml version="1.0" encoding="utf-8"?>
<!-- Generator: Adobe Illustrator 16.0.0, SVG Export Plug-In . SVG Version: 6.00 Build 0)  -->
<!DOCTYPE svg PUBLIC "-//W3C//DTD SVG 1.1//EN" "http://www.w3.org/Graphics/SVG/1.1/DTD/svg11.dtd">
<svg version="1.1" id="Слой_1" xmlns="http://www.w3.org/2000/svg" xmlns:xlink="http://www.w3.org/1999/xlink" x="0px" y="0px"
	 width="115px" height="48px" viewBox="0 0 115 48" enable-background="new 0 0 115 48" xml:space="preserve">
<path d="M0.377,31.776c0,0.1-0.081,0.181-0.181,0.181c-0.101,0-0.181-0.081-0.181-0.181v-13.62c0-0.101,0.081-0.181,0.181-0.181
	c0.083,0,0.153,0.056,0.174,0.132c0.089,0.245,1.445,3.976,1.542,4.559c0.035,0.213,0.147,0.662,0.276,1.179
	c0.218,0.873,0.484,1.941,0.531,2.472c0.053,0.596,0.507,3.138,0.759,4.521c0.389-1.857,1.264-6.04,1.52-7.228
	c0.344-1.595,1.563-5.497,1.566-5.508c0.03-0.095,0.131-0.148,0.227-0.119c0.077,0.024,0.126,0.095,0.126,0.173h0v13.62
	c0,0.1-0.081,0.181-0.181,0.181c-0.101,0-0.181-0.081-0.181-0.181V19.362c-0.387,1.277-0.983,3.293-1.205,4.324
	C5,25.32,3.647,31.795,3.644,31.813c-0.015,0.07-0.07,0.127-0.145,0.141c-0.098,0.019-0.191-0.047-0.209-0.145
	c-0.002-0.013-0.857-4.627-0.931-5.46c-0.044-0.506-0.307-1.557-0.521-2.417c-0.131-0.525-0.245-0.98-0.282-1.207
	c-0.064-0.387-0.748-2.33-1.179-3.534V31.776z M10.287,18.389c-0.056,0.006-0.029,0.004,0.013-0.002L10.287,18.389z M9.332,23.262
	c0.098-0.587,0.261-1.445,0.413-2.208c0.156-0.775,0.302-1.458,0.363-1.663c0.021-0.073,0.057-0.194,0.099-0.34l0.034,0.262l0,0.005
	c0.047,0.361,0.099,0.754,0.149,1.109c0.069,0.497,0.149,1.257,0.225,1.974c0.084,0.798,0.163,1.542,0.215,1.818
	c0.043,0.221,0.142,0.795,0.248,1.421c0.138,0.81,0.285,1.687,0.338,2.016c0.099,0.62,0.854,4.124,0.855,4.134
	c0.021,0.097,0.117,0.159,0.215,0.14c0.097-0.021,0.16-0.117,0.139-0.214c-0.002-0.01-0.757-3.517-0.853-4.116
	c-0.057-0.355-0.204-1.234-0.337-2.019c-0.106-0.623-0.206-1.198-0.25-1.428c-0.05-0.262-0.128-0.999-0.211-1.788
	c-0.076-0.721-0.157-1.487-0.227-1.986c-0.055-0.399-0.106-0.779-0.148-1.106l-0.001-0.005c-0.034-0.26-0.076-0.596-0.107-0.848
	c-0.037-0.296-0.101-0.406-0.249-0.388c-0.132,0.017-0.158,0.109-0.193,0.25l-0.002,0.008c-0.01,0.038-0.021,0.084-0.036,0.138
	l-0.14,0.491c-0.031,0.105-0.068,0.231-0.109,0.373c-0.063,0.211-0.212,0.906-0.37,1.693c-0.156,0.779-0.32,1.644-0.417,2.221
	c-0.192,1.158-1.46,8.521-1.464,8.542c-0.017,0.098,0.05,0.191,0.148,0.208c0.099,0.017,0.191-0.05,0.208-0.147
	C7.871,31.785,9.134,24.449,9.332,23.262z M11.338,25.915c-0.003,0-1.122,0.019-1.396,0.043c-0.259,0.024-1.289,0.03-1.292,0.03
	c-0.099,0.001-0.18,0.083-0.178,0.182c0.001,0.1,0.083,0.18,0.183,0.179c0.003,0,1.042-0.006,1.32-0.031
	c0.263-0.024,1.362-0.043,1.366-0.043c0.1-0.001,0.18-0.081,0.179-0.182C11.52,25.994,11.438,25.914,11.338,25.915 M13.394,19.185
	c0.431,1.205,1.114,3.147,1.178,3.535c0.038,0.226,0.151,0.681,0.282,1.206c0.215,0.859,0.477,1.911,0.521,2.418
	c0.073,0.832,0.928,5.446,0.93,5.459c0.018,0.099,0.112,0.162,0.21,0.145c0.074-0.014,0.13-0.071,0.145-0.14l0,0
	c0.004-0.02,1.356-6.493,1.708-8.128c0.223-1.031,0.818-3.047,1.205-4.324v12.415c0,0.1,0.081,0.181,0.181,0.181
	c0.101,0,0.181-0.081,0.181-0.181V18.15l0,0c0-0.077-0.049-0.148-0.127-0.172c-0.095-0.03-0.196,0.023-0.226,0.119
	c-0.003,0.011-1.223,3.913-1.565,5.508c-0.256,1.188-1.132,5.37-1.521,7.227c-0.251-1.383-0.707-3.925-0.759-4.521
	c-0.047-0.53-0.313-1.6-0.531-2.472c-0.129-0.518-0.242-0.965-0.277-1.179c-0.097-0.583-1.452-4.314-1.542-4.559
	c-0.021-0.077-0.091-0.132-0.174-0.132c-0.1,0-0.181,0.082-0.181,0.181v13.62c0,0.1,0.081,0.181,0.181,0.181
	c0.1,0,0.181-0.081,0.181-0.181V19.185z M20.853,31.831c0.003-0.021,1.267-7.357,1.464-8.544c0.099-0.587,0.26-1.446,0.414-2.209
	c0.155-0.775,0.302-1.457,0.363-1.662c0.018-0.064,0.054-0.185,0.097-0.333l0.003-0.008c0.023,0.181,0.048,0.377,0.074,0.575
	c0.037,0.278,0.074,0.556,0.108,0.802c0.07,0.497,0.15,1.256,0.226,1.973c0.084,0.798,0.164,1.543,0.216,1.818
	c0.042,0.221,0.142,0.794,0.248,1.421c0.138,0.81,0.284,1.687,0.337,2.015c0.1,0.621,0.854,4.125,0.855,4.135
	c0.021,0.098,0.117,0.16,0.214,0.139c0.098-0.021,0.16-0.116,0.14-0.214c-0.002-0.01-0.757-3.517-0.853-4.115
	c-0.057-0.354-0.204-1.234-0.337-2.018c-0.106-0.624-0.206-1.2-0.25-1.429c-0.049-0.263-0.127-1-0.211-1.789
	c-0.076-0.721-0.156-1.487-0.227-1.987c-0.039-0.283-0.076-0.553-0.108-0.798c-0.047-0.357-0.088-0.676-0.119-0.919
	c-0.012-0.092-0.024-0.205-0.034-0.293c-0.027-0.235-0.039-0.348-0.186-0.373c-0.175-0.03-0.202,0.082-0.256,0.292
	c-0.018,0.076-0.045,0.179-0.083,0.312c-0.077,0.267-0.084,0.292-0.104,0.361c-0.027,0.093-0.059,0.203-0.096,0.331
	c-0.063,0.212-0.212,0.906-0.369,1.693c-0.157,0.779-0.321,1.645-0.417,2.222c-0.193,1.157-1.461,8.521-1.465,8.542
	c-0.017,0.098,0.05,0.19,0.148,0.207C20.742,31.995,20.836,31.93,20.853,31.831 M24.324,25.939c-0.003,0-1.122,0.019-1.396,0.044
	c-0.259,0.022-1.289,0.029-1.292,0.029c-0.1,0.001-0.179,0.082-0.178,0.183c0.001,0.099,0.083,0.18,0.182,0.179
	c0.003,0,1.042-0.007,1.321-0.031c0.263-0.025,1.363-0.043,1.365-0.043c0.099-0.001,0.181-0.083,0.18-0.182
	C24.505,26.018,24.423,25.938,24.324,25.939 M18.222,0.581c0.016,0.003,0.024,0.005,0.03,0.006
	C18.188,0.576,18.141,0.567,18.222,0.581 M17.27,5.688c0.101-0.609,0.27-1.502,0.429-2.294c0.162-0.805,0.314-1.513,0.376-1.727
	c0.02-0.067,0.056-0.193,0.1-0.345l0.012-0.042c0.026,0.198,0.054,0.414,0.083,0.632c0.038,0.287,0.076,0.575,0.112,0.831
	c0.072,0.516,0.156,1.306,0.234,2.049c0.087,0.829,0.169,1.602,0.224,1.887c0.044,0.23,0.147,0.827,0.258,1.478
	c0.143,0.839,0.295,1.75,0.349,2.091c0.104,0.646,0.887,4.282,0.889,4.292c0.021,0.097,0.117,0.16,0.214,0.139
	c0.099-0.021,0.161-0.117,0.14-0.214c-0.001-0.01-0.786-3.653-0.885-4.274c-0.059-0.368-0.211-1.28-0.35-2.094
	c-0.11-0.648-0.213-1.246-0.26-1.484c-0.051-0.273-0.132-1.038-0.218-1.858c-0.08-0.748-0.164-1.542-0.236-2.062
	c-0.041-0.292-0.079-0.573-0.112-0.829c-0.049-0.371-0.091-0.702-0.124-0.956c-0.012-0.097-0.024-0.213-0.035-0.304
	c-0.027-0.241-0.041-0.356-0.186-0.381c-0.177-0.03-0.205,0.083-0.259,0.299c-0.021,0.079-0.047,0.186-0.086,0.324
	c-0.081,0.281-0.079,0.274-0.107,0.375c-0.029,0.097-0.063,0.211-0.101,0.344c-0.064,0.22-0.22,0.941-0.383,1.758
	c-0.163,0.809-0.333,1.707-0.433,2.306c-0.2,1.202-1.517,8.848-1.521,8.869c-0.017,0.098,0.049,0.192,0.147,0.208
	c0.099,0.017,0.192-0.049,0.208-0.147C15.753,14.537,17.065,6.918,17.27,5.688z M19.271,8.286c-0.003,0-1.159,0.02-1.447,0.045
	c-0.265,0.024-1.257,0.03-1.26,0.03c-0.1,0-0.181,0.082-0.181,0.181s0.081,0.181,0.181,0.181c0.003,0,1.002-0.006,1.293-0.032
	c0.27-0.025,1.418-0.044,1.421-0.044c0.099-0.002,0.179-0.084,0.176-0.184C19.452,8.363,19.37,8.284,19.271,8.286 M3.643,2.355
	c0-0.004,0-0.009,0-0.013h0C3.583,1.36,3.139,0.717,2.586,0.424C2.347,0.298,2.088,0.236,1.83,0.242
	C1.57,0.247,1.313,0.319,1.079,0.458c-0.54,0.32-0.957,0.996-0.977,2.032c-0.049,2.463-0.012,2.5,1.265,3.785
	c0.202,0.203,0.436,0.439,0.711,0.727c1.466,1.536,1.415,2.367,1.309,4.088c-0.025,0.408-0.053,0.864-0.065,1.403
	c0,0.005-0.026,1.781-1.432,1.699c-1.495-0.086-1.506-1.204-1.518-2.44c-0.002-0.184-0.004-0.371-0.01-0.553
	c-0.003-0.099-0.086-0.177-0.186-0.174C0.075,11.027-0.003,11.11,0,11.21c0.006,0.185,0.008,0.366,0.01,0.544
	c0.014,1.415,0.026,2.692,1.858,2.798c1.782,0.102,1.812-2.045,1.812-2.052c0.013-0.518,0.041-0.979,0.066-1.39
	c0.113-1.827,0.167-2.709-1.408-4.359C2.065,6.466,1.828,6.226,1.623,6.02c-1.171-1.18-1.205-1.213-1.16-3.524
	C0.48,1.602,0.821,1.03,1.263,0.769c0.18-0.107,0.376-0.162,0.574-0.166c0.197-0.004,0.396,0.043,0.581,0.141
	c0.45,0.239,0.813,0.78,0.865,1.619L3.257,4.328c-0.001,0.1,0.079,0.181,0.178,0.183c0.1,0.001,0.182-0.079,0.183-0.178L3.643,2.355
	z M14.396,2.204c0.01-0.847-0.47-1.51-1.094-1.819c-0.255-0.127-0.536-0.194-0.818-0.192c-0.285,0.003-0.57,0.077-0.833,0.233
	c-0.647,0.386-1.15,1.276-1.13,2.844c0.008,0.592,0.017,1.184,0.025,1.777c0.036,2.492,0.073,4.989,0.042,7.475
	c-0.001,0.119,0.004,0.232,0.017,0.341c0.058,0.496,0.256,0.932,0.569,1.248c0.316,0.319,0.748,0.512,1.268,0.519
	c0.096,0.001,0.192-0.004,0.29-0.015c0.609-0.07,1-0.297,1.25-0.665c0.241-0.356,0.337-0.833,0.367-1.425
	c0.024-0.481,0.037-1.089,0.04-1.658c0.003-0.614-0.005-1.182-0.023-1.495V9.369c-0.001-0.024-0.001-0.033-0.002-0.041
	c-0.002-0.076-0.002-0.114-0.061-0.172l0-0.001l-0.001,0l-0.002-0.002c-0.06-0.057-0.098-0.056-0.172-0.054
	c-0.011,0-0.024,0-0.041,0l-0.242-0.006c-0.43-0.009-1.129-0.025-1.358-0.026c-0.1,0-0.18,0.08-0.18,0.18c0,0.1,0.08,0.18,0.18,0.18
	c0.22,0.001,0.921,0.017,1.351,0.027l0.171,0.003c0.016,0.322,0.022,0.845,0.02,1.406c-0.003,0.559-0.016,1.159-0.041,1.642
	c-0.027,0.529-0.107,0.948-0.305,1.24c-0.188,0.278-0.499,0.451-0.993,0.508c-0.086,0.01-0.168,0.014-0.244,0.013
	c-0.419-0.005-0.764-0.159-1.016-0.413c-0.255-0.257-0.418-0.618-0.466-1.035c-0.011-0.098-0.017-0.196-0.015-0.295
	c0.031-2.491-0.006-4.99-0.042-7.483c-0.009-0.593-0.017-1.185-0.024-1.777c-0.019-1.416,0.407-2.202,0.953-2.53
	c0.206-0.122,0.428-0.18,0.651-0.182c0.224-0.002,0.449,0.053,0.655,0.155c0.511,0.252,0.902,0.796,0.894,1.491L14.01,4.175
	c-0.001,0.1,0.079,0.182,0.177,0.183c0.1,0.001,0.182-0.078,0.183-0.178L14.396,2.204z M23.897,0.794
	c0.002,0,0.846,0.023,1.072,0.354c0.243,0.353,0.319,4.804,0.323,5.011C25.29,6.225,25.23,7.37,24.736,7.713
	c-0.437,0.303-1.771,0.327-2.255,0.325l0.052-7.267L23.897,0.794z M22.479,8.398c0.511,0.001,1.948-0.03,2.463-0.388
	c0.657-0.458,0.711-1.834,0.711-1.838l0,0c0-0.004,0-0.008,0-0.012c0-0.013-0.077-4.769-0.387-5.219
	c-0.331-0.481-1.358-0.509-1.361-0.509l0,0h-0.002l-1.545-0.025h-0.001c-0.1,0-0.181,0.08-0.181,0.179l-0.057,7.624v0v0.005
	l-0.046,6.334c0,0.099,0.08,0.181,0.18,0.181c0.099,0,0.18-0.081,0.181-0.18L22.479,8.398z M23.766,8.119
	c-0.029-0.095-0.13-0.148-0.225-0.12c-0.096,0.029-0.149,0.129-0.121,0.225l1.956,6.405c0.029,0.096,0.13,0.15,0.226,0.121
	c0.095-0.029,0.149-0.129,0.12-0.225L23.766,8.119z M4.899,12.216c-0.003,0.075-0.088,2.343,2.04,2.425
	c0.049,0.002,0.098,0.002,0.148,0.002c0.755-0.005,1.263-0.276,1.59-0.708c0.318-0.421,0.456-0.989,0.479-1.606
	c0.003-0.076,0.004-0.155,0.003-0.236L9.086,0.436c0-0.099-0.082-0.18-0.181-0.179c-0.1,0-0.18,0.082-0.18,0.181l0.074,11.658
	c0,0.073-0.001,0.147-0.004,0.222c-0.021,0.547-0.138,1.044-0.407,1.4c-0.261,0.345-0.676,0.562-1.303,0.565
	c-0.042,0-0.086,0-0.133-0.002c-1.794-0.069-1.693-2.047-1.693-2.053l0,0V12.22L5.133,0.334c-0.001-0.1-0.083-0.18-0.182-0.179
	s-0.18,0.082-0.179,0.182L4.899,12.216z M50.542,30.192c0.346,0.644,0.506,1.426,0.495,2.272c-0.021,1.361-0.485,2.888-1.341,4.287
	c-0.856,1.402-2.104,2.677-3.69,3.527c-1.295,0.697-2.815,1.112-4.533,1.087c-1.912-0.028-3.678-0.591-5.065-1.549
	c-0.921-0.636-1.677-1.446-2.197-2.391c-0.519-0.942-0.804-2.019-0.787-3.188c0.023-1.536,0.567-3.234,1.788-5.001l-0.189-0.13
	c-1.247,1.807-1.804,3.548-1.827,5.129c-0.018,1.21,0.276,2.324,0.815,3.301c0.537,0.975,1.315,1.812,2.267,2.469
	c1.424,0.981,3.234,1.56,5.193,1.589c1.76,0.025,3.317-0.4,4.645-1.112c1.623-0.873,2.9-2.178,3.777-3.611
	c0.877-1.436,1.354-3.003,1.374-4.404c0.013-0.885-0.156-1.705-0.521-2.384L50.542,30.192z M49.382,26.897
	c0.172,0.012,0.337,0.046,0.492,0.1c0.388,0.133,0.71,0.386,0.932,0.708c0.224,0.322,0.346,0.715,0.339,1.124
	c-0.003,0.2-0.039,0.404-0.108,0.607c-0.359,1.051-1.637,1.166-2.347,1.139c-0.145-0.005-0.269-0.017-0.356-0.027
	c-0.004-0.001-0.009,0.004-0.015,0.011c0.073-0.301,0.264-1.06,0.325-1.055c0.519,0.055,0.867-0.107,1.045-0.341
	c0.075-0.099,0.121-0.212,0.137-0.326c0.017-0.115,0.003-0.232-0.039-0.345c-0.089-0.234-0.305-0.439-0.643-0.522
	c0.022-0.115,0.067-0.312,0.113-0.511C49.309,27.243,49.358,27.026,49.382,26.897 M49.273,26.848
	c-0.015-0.02-0.037-0.04-0.057-0.054l0.059,0.003L49.273,26.848z M49.286,26.664H49.28l-0.005,0.133l-0.059-0.004
	c-0.026-0.018-0.048-0.023-0.049-0.003l0,0c-0.005,0.067-0.068,0.344-0.132,0.617c-0.055,0.238-0.109,0.472-0.125,0.582
	c-0.017,0.106,0.009,0.172,0.093,0.185c0.308,0.048,0.5,0.211,0.571,0.399c0.028,0.075,0.038,0.155,0.026,0.232
	c-0.011,0.076-0.041,0.152-0.092,0.218c-0.135,0.177-0.411,0.297-0.84,0.252c-0.132-0.013-0.591,1.322-0.593,1.326l0.004,0.001
	c-0.006,0.059,0.053,0.152,0.228,0.173c0.089,0.011,0.217,0.023,0.375,0.028c0.772,0.029,2.166-0.102,2.573-1.292
	c0.077-0.227,0.116-0.454,0.119-0.679c0.008-0.459-0.129-0.897-0.378-1.259c-0.25-0.362-0.611-0.646-1.048-0.796
	c-0.204-0.068-0.426-0.109-0.66-0.114H49.286L49.286,26.664z M34.241,23.201c0.06,2.606,0.386,5.652,1.513,8.083
	c1.134,2.451,3.077,4.275,6.364,4.405c0.342,0.014,0.672-0.006,0.991-0.057c2.114-0.334,3.703-2.009,4.782-4.143
	c1.073-2.118,1.645-4.694,1.73-6.856c0.032-0.807-0.003-1.556-0.106-2.204l-0.227,0.036c0.1,0.633,0.135,1.368,0.104,2.159
	c-0.085,2.132-0.649,4.674-1.707,6.763c-1.049,2.073-2.584,3.698-4.613,4.019c-0.304,0.049-0.619,0.068-0.945,0.056
	c-3.183-0.127-5.064-1.897-6.167-4.272c-1.11-2.397-1.431-5.412-1.491-7.992L34.241,23.201z M41.251,27.433
	c-1.293-0.082-2.534-0.409-3.595-0.892c-1.058-0.481-1.933-1.116-2.5-1.813c-0.604-0.743-0.852-1.556-0.578-2.321
	c0.866-2.414,4.7-3.423,8.241-3.281c1.402,0.057,2.757,0.295,3.865,0.699c1.094,0.4,1.941,0.959,2.345,1.662
	c0.434,0.756,0.35,1.69-0.504,2.788C46.576,26.779,43.813,27.592,41.251,27.433 M49.229,21.374
	c-0.432-0.753-1.323-1.346-2.466-1.763c-1.129-0.412-2.509-0.655-3.934-0.712c-3.627-0.147-7.561,0.911-8.466,3.433
	c-0.304,0.847-0.04,1.737,0.617,2.543c0.588,0.722,1.492,1.379,2.582,1.874c1.085,0.494,2.355,0.831,3.677,0.913
	c2.629,0.164,5.464-0.671,7.469-3.245C49.627,23.234,49.709,22.211,49.229,21.374z M45.109,10.388
	c0.678,0.527,3.263-1.356,3.27-1.361c0.034-0.024,0.041-0.072,0.017-0.107c-0.015-0.021-0.041-0.032-0.065-0.031l-1.132-0.019
	l0.401-1.1c0.015-0.04-0.006-0.083-0.045-0.098c-0.023-0.009-0.049-0.005-0.068,0.008L46.255,8.4l0.018-1.328
	c0-0.042-0.033-0.077-0.076-0.077c-0.028,0-0.053,0.015-0.066,0.037H46.13C46.126,7.041,44.422,9.854,45.109,10.388 M46.1,8.534
	L46.1,8.534c0,0.014,0.004,0.027,0.011,0.039c0.021,0.037,0.068,0.049,0.104,0.028l1.167-0.685l-0.365,1.001
	c-0.002,0.008-0.004,0.016-0.004,0.024c-0.001,0.042,0.033,0.077,0.075,0.078l1.01,0.017c-0.595,0.412-2.407,1.609-2.896,1.23
	c-0.47-0.367,0.525-2.225,0.914-2.905L46.1,8.534z M45.115,10.262c-0.002,0.001-0.709,0.429-0.926,1.323
	c-0.211,0.867-0.543,3.144-0.544,3.15c-0.006,0.042,0.023,0.081,0.065,0.086c0.042,0.006,0.081-0.023,0.086-0.064
	c0.001-0.007,0.333-2.278,0.541-3.137c0.203-0.831,0.857-1.228,0.859-1.229c0.036-0.022,0.047-0.069,0.025-0.105
	S45.151,10.24,45.115,10.262 M42.509,12.278c0.001-0.001,0.521-0.472,0.646-1.145c0.101-0.548,0.039-0.992-0.006-1.316
	c-0.009-0.066-0.018-0.127-0.024-0.182c-0.006-0.058-0.024-0.148-0.047-0.262c-0.105-0.52-0.314-1.549,0.12-2.039
	c0.028-0.032,0.025-0.08-0.006-0.108c-0.031-0.027-0.08-0.025-0.107,0.007c-0.484,0.547-0.267,1.625-0.156,2.17
	c0.022,0.108,0.039,0.194,0.045,0.248c0.006,0.058,0.016,0.12,0.024,0.188c0.044,0.313,0.104,0.743,0.007,1.267
	c-0.114,0.623-0.597,1.059-0.598,1.06c-0.031,0.028-0.034,0.077-0.006,0.108C42.43,12.305,42.478,12.307,42.509,12.278
	 M42.625,10.574c-0.082,0.007-0.147,0.046-0.194,0.102c-0.044,0.053-0.07,0.122-0.079,0.191c-0.015,0.128,0.033,0.265,0.152,0.331
	c0.085,0.047,0.199,0.059,0.327,0.018c0.103-0.033,0.215-0.1,0.328-0.211c0.028-0.028,0.03-0.073,0.004-0.103l0,0
	C42.949,10.643,42.763,10.562,42.625,10.574 M42.786,11.071c-0.084,0.027-0.157,0.021-0.208-0.006
	c-0.06-0.033-0.083-0.108-0.074-0.18c0.004-0.042,0.02-0.08,0.044-0.109c0.022-0.027,0.052-0.046,0.09-0.049
	c0.084-0.008,0.205,0.048,0.36,0.219C42.925,11.009,42.853,11.05,42.786,11.071z M43.246,10.137
	c0.049-0.083,0.193-0.307,0.336-0.314c0.043-0.002,0.084,0.026,0.115,0.067c0.019,0.026,0.033,0.057,0.041,0.089l0.001,0.005
	c0.007,0.034,0.007,0.067-0.001,0.097c-0.013,0.047-0.048,0.09-0.116,0.115c-0.158,0.059-0.289,0.005-0.358-0.046l-0.003-0.002
	C43.255,10.144,43.251,10.141,43.246,10.137 M43.081,10.117c-0.007,0.028,0.002,0.063,0.027,0.095
	c0.014,0.018,0.034,0.039,0.059,0.058l0.004,0.003c0.098,0.073,0.282,0.149,0.504,0.068c0.119-0.044,0.186-0.126,0.21-0.218
	c0.016-0.056,0.016-0.115,0.003-0.171c-0.001-0.003-0.001-0.005-0.002-0.007c-0.012-0.052-0.035-0.102-0.067-0.144
	c-0.059-0.081-0.146-0.136-0.245-0.131c-0.228,0.011-0.42,0.321-0.468,0.404C43.094,10.085,43.087,10.099,43.081,10.117
	L43.081,10.117z M42.495,9.139c-0.057,0.032-0.106,0.048-0.146,0.049c-0.03,0-0.053-0.009-0.069-0.028
	c-0.013-0.015-0.021-0.035-0.027-0.061c-0.012-0.052-0.013-0.095-0.004-0.129c0.01-0.048,0.041-0.081,0.083-0.102
	c0.049-0.025,0.116-0.035,0.189-0.033c0.086,0.001,0.179,0.02,0.264,0.049C42.682,9.003,42.583,9.089,42.495,9.139 M42.974,8.885
	c0.019-0.038,0.003-0.084-0.036-0.102c-0.122-0.059-0.275-0.098-0.416-0.102c-0.096-0.002-0.187,0.013-0.26,0.05
	c-0.083,0.041-0.143,0.107-0.165,0.204c-0.013,0.056-0.012,0.121,0.005,0.196c0.011,0.052,0.031,0.094,0.059,0.126
	c0.047,0.055,0.111,0.083,0.188,0.082c0.065-0.001,0.14-0.024,0.219-0.068c0.122-0.069,0.261-0.194,0.394-0.371
	C42.968,8.896,42.972,8.891,42.974,8.885z M42.893,7.914c-0.002,0-0.004-0.001-0.007-0.001l-0.002-0.006
	C42.884,7.908,42.888,7.91,42.893,7.914 M43.297,8.417c0.146,0.056,0.264,0.019,0.34-0.059c0.048-0.05,0.079-0.118,0.087-0.187
	c0.008-0.07-0.005-0.144-0.044-0.207c-0.064-0.104-0.192-0.178-0.397-0.157c-0.163,0.017-0.329,0.073-0.4,0.098c0,0,0,0,0,0.001
	l0.002,0.006c-0.025-0.004-0.053,0.004-0.071,0.025c-0.034,0.038-0.039,0.069,0.003,0.105c0.052,0.067,0.133,0.149,0.223,0.22
	C43.122,8.327,43.211,8.383,43.297,8.417z M43.298,7.959c0.136-0.014,0.216,0.027,0.251,0.084c0.02,0.033,0.027,0.072,0.022,0.11
	c-0.003,0.037-0.019,0.072-0.044,0.098c-0.037,0.037-0.096,0.053-0.175,0.022c-0.071-0.027-0.147-0.075-0.217-0.131
	c-0.047-0.038-0.093-0.078-0.131-0.118C43.083,8,43.194,7.969,43.298,7.959z M40.928,13.258c0.306,0.337,0.304,0.719,0.3,1.108
	c-0.001,0.198-0.003,0.398,0.034,0.599c0.019,0.11,0.053,0.234,0.112,0.388c0.057,0.15,0.139,0.329,0.254,0.555
	c0.018,0.038,0.064,0.052,0.102,0.033c0.038-0.019,0.053-0.065,0.034-0.103c-0.111-0.219-0.19-0.394-0.246-0.54
	c-0.056-0.144-0.087-0.258-0.105-0.36c-0.034-0.189-0.032-0.382-0.031-0.571c0.002-0.42,0.005-0.831-0.34-1.211
	c-0.029-0.031-0.077-0.034-0.108-0.005C40.902,13.179,40.9,13.227,40.928,13.258 M39.781,12.404c-0.006,0.007,0-0.002,0.005-0.015
	L39.781,12.404z M39.786,12.395l-0.005,0.01l0.005-0.015l0.003-0.004C39.79,12.388,39.789,12.391,39.786,12.395L39.786,12.395z
	 M40.682,11.373c-0.101-0.074-0.234-0.094-0.352-0.068c-0.045,0.01-0.088,0.026-0.125,0.049c-0.04,0.023-0.074,0.054-0.102,0.09l0,0
	l0,0c-0.049,0.067-0.072,0.153-0.054,0.255c-0.166-0.131-0.385-0.254-0.573-0.086c-0.213,0.19-0.063,0.423,0.102,0.61
	c0.001,0.001,0.002,0.002,0.004,0.004c0.021,0.023,0.042,0.045,0.061,0.064c-0.092-0.016-0.164,0.001-0.217,0.04
	c-0.041,0.03-0.068,0.071-0.083,0.119c-0.013,0.044-0.015,0.094-0.005,0.146c0.024,0.127,0.122,0.271,0.295,0.359
	c0.185,0.095,0.428,0.171,0.65,0.227c0.22,0.056,0.421,0.093,0.526,0.111c0.023,0.003,0.048,0.006,0.076,0.007
	c0.046,0.001,0.095-0.006,0.135-0.028c0.048-0.025,0.084-0.067,0.095-0.132c0.002-0.01,0.003-0.022,0.003-0.036
	c0.002-0.179-0.008-0.687-0.111-1.113C40.942,11.725,40.84,11.489,40.682,11.373z M40.964,13.113L40.964,13.113L40.964,13.113
	c-0.002,0.013-0.008,0.02-0.016,0.023c-0.016,0.008-0.039,0.011-0.063,0.011c-0.016,0-0.035-0.002-0.052-0.005
	c-0.102-0.018-0.298-0.054-0.515-0.109c-0.214-0.054-0.445-0.125-0.617-0.214c-0.127-0.064-0.198-0.165-0.214-0.251
	c-0.005-0.027-0.005-0.052,0.001-0.073c0.005-0.017,0.014-0.03,0.027-0.039c0.027-0.021,0.078-0.024,0.152,0
	c0.025,0.008,0.053,0.021,0.076,0.031c0.076,0.033,0.13,0.057,0.173-0.011l0,0v0c0.045-0.072-0.029-0.148-0.125-0.249
	c-0.031-0.032-0.065-0.067-0.095-0.101l-0.003-0.005c-0.118-0.131-0.229-0.291-0.115-0.394c0.138-0.122,0.362,0.075,0.491,0.189
	c0.086,0.075,0.146,0.128,0.209,0.084v0l0,0c0.065-0.046,0.039-0.088-0.002-0.155c-0.024-0.04-0.061-0.099-0.074-0.165
	c-0.014-0.061-0.002-0.109,0.025-0.146l0,0c0.015-0.02,0.034-0.036,0.057-0.05c0.024-0.014,0.05-0.024,0.079-0.031
	c0.078-0.017,0.165-0.004,0.229,0.043c0.125,0.092,0.21,0.297,0.267,0.53c0.1,0.41,0.11,0.902,0.107,1.075
	C40.965,13.105,40.964,13.109,40.964,13.113z M44.472,16.823c0.002-0.002,0.458-0.737,0.837-0.957
	c0.12-0.069,0.233-0.125,0.339-0.178c0.26-0.127,0.474-0.233,0.584-0.43c0.027-0.051,0.054-0.11,0.083-0.175
	c0.112-0.254,0.264-0.595,0.657-0.647c0.041-0.005,0.07-0.044,0.065-0.086c-0.005-0.042-0.044-0.071-0.086-0.066
	c-0.478,0.064-0.649,0.451-0.777,0.738c-0.026,0.061-0.051,0.118-0.076,0.163c-0.086,0.156-0.28,0.251-0.516,0.367
	c-0.11,0.054-0.229,0.112-0.349,0.182c-0.41,0.238-0.889,1.006-0.89,1.009c-0.022,0.036-0.011,0.083,0.025,0.105
	C44.403,16.87,44.45,16.858,44.472,16.823 M46.587,15.635c0.172,0.05,0.34,0.057,0.515,0.018l0,0
	c0.08-0.018,0.245-0.057,0.367-0.115c0.171-0.08,0.272-0.192,0.112-0.335c-0.456-0.408-0.823-0.255-1.323-0.047
	c-0.06,0.024-0.122,0.05-0.177,0.073c-0.038,0.016-0.058,0.061-0.042,0.1c0.005,0.013,0.015,0.025,0.026,0.033
	C46.247,15.494,46.418,15.586,46.587,15.635 M46.317,15.297c0.449-0.187,0.778-0.324,1.163,0.019
	c0.027,0.024-0.017,0.055-0.076,0.083c-0.108,0.051-0.261,0.088-0.334,0.104c-0.149,0.033-0.293,0.028-0.44-0.015
	c-0.116-0.034-0.234-0.092-0.359-0.172L46.317,15.297z M48.306,14.137c0.002,0.01-0.001,0.008-0.006,0.005
	C48.303,14.132,48.303,14.122,48.306,14.137 M48.245,14.133l0.026,0.013l-0.022,0.024v0c-0.219,0.239-0.394,0.354-0.578,0.367
	c-0.172,0.012-0.362-0.063-0.608-0.207c0.136-0.241,0.3-0.352,0.482-0.376C47.751,13.927,47.989,14.005,48.245,14.133z
	 M46.921,14.425c0.304,0.184,0.537,0.282,0.761,0.266c0.227-0.016,0.433-0.147,0.68-0.417l0.026-0.029
	c0.051-0.055,0.076-0.082,0.068-0.133c-0.008-0.052-0.04-0.067-0.1-0.096c-0.015-0.007-0.032-0.015-0.042-0.021
	c-0.282-0.14-0.547-0.225-0.788-0.193c-0.249,0.034-0.464,0.187-0.634,0.523C46.875,14.36,46.888,14.404,46.921,14.425z
	 M46.114,14.015c-0.066-0.093-0.129-0.163-0.187-0.213c-0.078-0.067-0.146-0.105-0.202-0.125c-0.194-0.072-0.207-0.043-0.282,0.118
	l-0.001,0.002h0c-0.039,0.084-0.083,0.213-0.081,0.361c0.002,0.106,0.027,0.222,0.095,0.339c0.228,0.394,0.783,0.583,0.785,0.583
	c0.039,0.014,0.083-0.008,0.096-0.048c0.001-0.005,0.003-0.01,0.003-0.016v0l0.001-0.002C46.345,14.968,46.394,14.405,46.114,14.015
	 M45.587,14.419c-0.052-0.091-0.072-0.181-0.074-0.265c-0.002-0.118,0.034-0.223,0.067-0.293h-0.001l0.002-0.003
	c0.025-0.052,0.028-0.062,0.09-0.039c0.042,0.016,0.094,0.044,0.154,0.098c0.051,0.044,0.105,0.105,0.165,0.187
	c0.188,0.264,0.207,0.622,0.204,0.794C46.039,14.83,45.733,14.67,45.587,14.419z M45.304,16.292c0.122,0.028,0.221,0.11,0.31,0.291
	l0.03,0.059c0.026,0.049,0.054,0.047,0.046,0.061l-0.001,0.002c-0.007,0.012-0.02-0.012-0.069-0.006
	c-0.026,0.004-0.053,0.008-0.072,0.011c-0.359,0.055-0.442-0.085-0.587-0.332c-0.014-0.024-0.028-0.048-0.044-0.074
	C45.07,16.28,45.198,16.268,45.304,16.292 M44.751,16.184c-0.035,0.022-0.046,0.071-0.023,0.106c0.038,0.059,0.07,0.114,0.101,0.166
	c0.181,0.303,0.282,0.475,0.743,0.405c0.035-0.005,0.053-0.007,0.07-0.01c0.099-0.014,0.151-0.021,0.18-0.07
	c0.002-0.003,0.003-0.005,0.004-0.008c0.029-0.055,0.004-0.104-0.046-0.201c-0.003-0.006-0.007-0.013-0.028-0.057
	c-0.114-0.227-0.247-0.333-0.414-0.372c-0.157-0.037-0.335-0.01-0.554,0.029C44.773,16.174,44.762,16.177,44.751,16.184z
	 M45.316,14.789c-0.026-0.082-0.075-0.161-0.134-0.228c-0.067-0.077-0.148-0.141-0.22-0.179c-0.067-0.035-0.117-0.049-0.167-0.038
	c-0.052,0.012-0.09,0.047-0.132,0.109c-0.051,0.072-0.105,0.184-0.131,0.31c-0.021,0.098-0.025,0.205,0.002,0.309
	c0.118,0.458,0.71,0.739,0.712,0.74c0.039,0.018,0.083,0.001,0.102-0.037c0.003-0.007,0.005-0.015,0.006-0.022
	C45.363,15.708,45.445,15.205,45.316,14.789 M44.683,15.035c-0.02-0.079-0.017-0.163,0-0.24c0.021-0.103,0.065-0.195,0.106-0.254
	c0.02-0.029,0.033-0.045,0.04-0.047c0.009-0.001,0.029,0.007,0.063,0.024c0.057,0.029,0.121,0.081,0.176,0.143
	c0.046,0.053,0.084,0.112,0.103,0.172c0.089,0.288,0.068,0.623,0.049,0.79C45.063,15.533,44.756,15.321,44.683,15.035z
	 M38.176,11.438c-0.094-0.512-0.226-1.089-0.389-1.543c-0.172-0.478-0.387-0.823-0.646-0.837c-0.024-0.001-0.05,0-0.074,0.004
	c-0.54,0.099-0.579,0.723-0.54,1.143c-0.224-0.32-0.601-0.721-0.966-0.479c-0.374,0.248-0.08,0.712,0.177,1.013
	c-0.428-0.166-1.102-0.353-1.245,0.049c-0.118,0.333,0.358,0.599,0.803,0.769c-0.265,0.008-0.517,0.063-0.588,0.23
	c-0.107,0.255,0.247,0.442,0.537,0.549c-0.386,0.075-0.923,0.268-0.744,0.742l0,0l0,0l0.001,0.001
	c0.001,0.003,0.001,0.005,0.003,0.008c0.287,0.668,3.772-0.324,3.783-0.327c0.033-0.009,0.055-0.039,0.056-0.072
	C38.348,12.585,38.289,12.057,38.176,11.438 M34.644,13.024L34.644,13.024c-0.189-0.506,0.894-0.579,0.965-0.583
	c0.034,0,0.065-0.024,0.073-0.06c0.009-0.041-0.016-0.083-0.057-0.092c-0.003,0-0.878-0.198-0.775-0.444
	c0.114-0.273,1.128-0.082,1.131-0.082c0.041,0.007,0.08-0.018,0.088-0.058c0.01-0.042-0.017-0.082-0.057-0.091
	c-0.004-0.001-1.528-0.342-1.374-0.776c0.153-0.433,1.387,0.193,1.389,0.194l0,0c0.03,0.015,0.069,0.009,0.092-0.017
	c0.028-0.032,0.025-0.081-0.006-0.108c-0.003-0.002-0.88-0.78-0.467-1.054c0.426-0.282,0.948,0.756,0.95,0.759v0
	c0.016,0.031,0.05,0.049,0.086,0.04c0.041-0.01,0.066-0.051,0.056-0.093c-0.001-0.003-0.309-1.225,0.356-1.346
	c0.013-0.002,0.025-0.003,0.039-0.002c0.184,0.01,0.358,0.315,0.51,0.736c0.161,0.445,0.291,1.014,0.382,1.52
	c0.099,0.535,0.155,0.996,0.165,1.163C37.747,12.751,34.836,13.537,34.644,13.024z M36.066,9.304c0.017,0.039,0.062,0.057,0.1,0.041
	c0.039-0.017,0.057-0.061,0.042-0.1L35.6,7.811c-0.016-0.038-0.061-0.057-0.099-0.041c-0.04,0.017-0.058,0.061-0.041,0.1
	L36.066,9.304z M34.813,9.99c0.037,0.021,0.083,0.009,0.104-0.028c0.021-0.036,0.009-0.083-0.027-0.104l-1.212-0.712
	c-0.037-0.021-0.083-0.009-0.105,0.027c-0.021,0.037-0.009,0.083,0.027,0.105L34.813,9.99z M32.995,11.791
	c0.054-0.012,1.267-0.318,1.271-0.319c0.041-0.011,0.065-0.052,0.054-0.093c-0.01-0.041-0.052-0.065-0.093-0.055
	c-0.003,0.001-1.208,0.304-1.264,0.317c-0.041,0.009-0.068,0.049-0.06,0.09C32.914,11.772,32.954,11.8,32.995,11.791 M38.213,12.72
	c0.56,0.629,1.022,1.479,1.391,2.343c0.371,0.867,0.646,1.747,0.833,2.43c0.011,0.041,0.053,0.064,0.094,0.053
	c0.041-0.011,0.064-0.053,0.053-0.094c-0.188-0.689-0.467-1.576-0.839-2.449c-0.375-0.877-0.845-1.742-1.419-2.385
	c-0.027-0.032-0.076-0.034-0.107-0.006C38.188,12.64,38.185,12.688,38.213,12.72 M46.792,6.954c-0.008,0.042,0.02,0.081,0.061,0.089
	c0.042,0.008,0.082-0.019,0.089-0.06l0.232-1.209c0.008-0.042-0.02-0.082-0.061-0.089c-0.042-0.008-0.082,0.02-0.09,0.061
	L46.792,6.954z M48.212,6.93c-0.031,0.028-0.033,0.077-0.004,0.107c0.027,0.031,0.076,0.034,0.107,0.005l0.82-0.751
	c0.031-0.028,0.033-0.077,0.004-0.108c-0.027-0.031-0.077-0.033-0.107-0.004L48.212,6.93z M49.712,8.256
	c-0.046,0-1.027-0.035-1.03-0.036c-0.042-0.001-0.077,0.032-0.079,0.074c-0.001,0.042,0.032,0.077,0.074,0.079
	c0.003,0,0.992,0.036,1.035,0.036c0.042,0,0.076-0.034,0.076-0.077C49.788,8.291,49.754,8.256,49.712,8.256 M37.023,26.253
	c-0.064-0.651,0.345-1.256,1.029-1.744c0.612-0.436,1.442-0.778,2.355-0.978c0.916-0.2,1.915-0.257,2.861-0.124
	c1.576,0.222,3.008,0.973,3.666,2.472l0.21-0.093c-0.696-1.583-2.196-2.375-3.846-2.606c-0.974-0.138-2-0.079-2.941,0.125
	c-0.942,0.207-1.802,0.561-2.438,1.016c-0.751,0.536-1.198,1.212-1.124,1.954L37.023,26.253z M1.702,41.944
	c-0.443-0.192-0.769-0.243-1.015-0.132c-0.249,0.112-0.402,0.382-0.494,0.826c-0.172,0.826-0.234,2.235-0.167,3.38
	c0.061,1.016,0.234,1.836,0.54,1.904c0.471,0.104,1.078-0.326,1.08-0.327c0.041-0.029,0.049-0.085,0.021-0.124
	c-0.028-0.041-0.084-0.05-0.125-0.021c-0.001,0.001-0.543,0.385-0.937,0.297c-0.213-0.047-0.344-0.799-0.399-1.739
	c-0.066-1.131-0.006-2.52,0.162-3.333c0.081-0.385,0.202-0.612,0.393-0.699c0.195-0.088,0.475-0.04,0.87,0.133
	c0.045,0.021,0.098-0.001,0.118-0.046C1.769,42.017,1.748,41.964,1.702,41.944 M2.018,45.088c0.013,0.457,0.039,0.9,0.088,1.156
	c0.02,0.104,0.039,0.216,0.059,0.331c0.118,0.692,0.258,1.518,0.758,1.47c0.295-0.03,0.579-0.2,0.777-0.584
	c0.159-0.307,0.264-0.753,0.275-1.377c0.024-1.333-0.012-3.31-0.012-3.315V42.76l-0.001-0.007c-0.001-0.003-0.2-1.113-1.061-1.047
	c-0.422,0.032-0.646,0.419-0.765,0.882c-0.112,0.437-0.129,0.944-0.131,1.263C2.004,44.165,2.004,44.634,2.018,45.088 M2.31,42.632
	c0.101-0.395,0.282-0.724,0.605-0.747c0.667-0.052,0.854,0.813,0.87,0.896c0.003,0.143,0.036,2.02,0.013,3.301
	c-0.011,0.593-0.108,1.013-0.256,1.299c-0.167,0.319-0.397,0.464-0.636,0.486c-0.335,0.033-0.459-0.703-0.564-1.32
	c-0.02-0.118-0.039-0.232-0.059-0.335c-0.048-0.248-0.074-0.68-0.086-1.128c-0.013-0.453-0.014-0.919-0.012-1.232
	C2.186,43.542,2.202,43.051,2.31,42.632z M2.037,43.286c0.001,0.001,0.223,0.574,0.683,0.459c0.212-0.053,0.442-0.185,0.657-0.382
	c0.198-0.182,0.384-0.422,0.537-0.708c0.31-0.586,0.36-0.827,0.36-0.827c0.01-0.048-0.021-0.096-0.068-0.105
	c-0.049-0.01-0.096,0.021-0.106,0.069c0,0.001-0.046,0.215-0.344,0.779c-0.142,0.269-0.316,0.491-0.5,0.66
	c-0.192,0.177-0.395,0.294-0.579,0.34c-0.307,0.077-0.473-0.352-0.474-0.353c-0.019-0.046-0.071-0.067-0.116-0.049
	C2.042,43.188,2.019,43.24,2.037,43.286 M4.749,41.816c-0.049,0.002-0.088,0.043-0.087,0.091l-0.024,6.012
	c0,0.05,0.04,0.09,0.089,0.09s0.089-0.04,0.09-0.089l0.023-5.927l1.222-0.034c0.049-0.001,0.088-0.042,0.086-0.092
	c-0.001-0.049-0.042-0.088-0.092-0.086L4.749,41.816z M4.744,43.745c-0.049,0-0.089,0.039-0.09,0.089c0,0.049,0.04,0.089,0.089,0.09
	l1.088,0.004c0.049,0,0.09-0.04,0.09-0.089c0-0.049-0.04-0.09-0.089-0.09L4.744,43.745z M6.757,41.843
	c-0.049,0.001-0.088,0.042-0.087,0.091l-0.024,6.012c0,0.049,0.04,0.089,0.089,0.089s0.089-0.039,0.089-0.088l0.023-5.928
	l1.222-0.033c0.049-0.002,0.088-0.042,0.087-0.092s-0.042-0.088-0.092-0.087L6.757,41.843z M6.752,43.771
	c-0.049,0-0.09,0.039-0.09,0.089c0,0.049,0.04,0.089,0.089,0.089l1.088,0.005c0.049,0,0.089-0.04,0.089-0.089
	c0-0.049-0.04-0.09-0.088-0.09L6.752,43.771z M10.104,44.533c0.049,0,0.089-0.04,0.089-0.09l0,0l-0.018-1.842l0-0.002h0
	c0-0.002-0.02-0.855-0.912-0.855c-0.873,0-0.792,0.984-0.785,1.055l-0.036,3.903c0,0.003-0.091,1.41,0.924,1.33
	c1.006-0.079,0.814-1.537,0.814-1.541c-0.006-0.048-0.051-0.083-0.1-0.076c-0.05,0.005-0.084,0.05-0.078,0.099
	c0,0.004,0.168,1.275-0.65,1.341c-0.808,0.063-0.732-1.14-0.732-1.143l0,0v-0.005l0.021-2.168L10.104,44.533 M8.657,42.8
	c0-0.005,0-0.01,0-0.015c0-0.003-0.097-0.862,0.606-0.862c0.717,0,0.733,0.681,0.733,0.683l0.017,1.75l-1.371,0.006L8.657,42.8z
	 M12.486,44.55c0.049,0,0.089-0.04,0.089-0.089V44.46l-0.018-1.842v-0.002l0,0c0-0.003-0.02-0.855-0.912-0.855
	c-0.873,0-0.792,0.984-0.785,1.055l-0.036,3.902l0,0c0,0.004-0.091,1.411,0.925,1.331c1.006-0.08,0.814-1.536,0.814-1.541
	c-0.006-0.048-0.051-0.083-0.1-0.077c-0.049,0.006-0.084,0.051-0.078,0.1c0,0.004,0.167,1.275-0.65,1.341
	c-0.809,0.063-0.732-1.14-0.732-1.143h0l0-0.005l0.02-2.168L12.486,44.55 M11.039,42.816c0-0.006,0-0.01,0-0.015
	c0-0.003-0.097-0.862,0.606-0.862c0.717,0,0.733,0.681,0.733,0.683l0.017,1.75l-1.37,0.006L11.039,42.816z M23.155,41.941
	c-0.443-0.191-0.769-0.242-1.015-0.131c-0.25,0.111-0.402,0.381-0.494,0.826c-0.173,0.826-0.234,2.235-0.167,3.379
	c0.06,1.018,0.233,1.837,0.539,1.905c0.472,0.104,1.079-0.326,1.08-0.328c0.041-0.028,0.05-0.084,0.021-0.124
	c-0.028-0.04-0.085-0.049-0.125-0.021c-0.002,0.001-0.544,0.386-0.938,0.297c-0.212-0.048-0.344-0.799-0.399-1.739
	c-0.066-1.131-0.006-2.521,0.163-3.333c0.08-0.385,0.201-0.613,0.393-0.7c0.196-0.088,0.476-0.039,0.87,0.134
	c0.045,0.02,0.099-0.001,0.118-0.047C23.221,42.014,23.2,41.962,23.155,41.941 M23.47,45.018c0.014,0.458,0.04,0.9,0.089,1.156
	c0.02,0.104,0.039,0.215,0.059,0.331c0.118,0.692,0.257,1.518,0.757,1.469c0.297-0.028,0.58-0.201,0.778-0.582
	c0.159-0.308,0.265-0.754,0.275-1.378c0.024-1.333-0.012-3.31-0.012-3.314v-0.01l-0.002-0.006c0-0.004-0.2-1.114-1.06-1.049
	c-0.423,0.033-0.647,0.42-0.766,0.882c-0.112,0.438-0.129,0.945-0.131,1.264C23.457,44.094,23.458,44.563,23.47,45.018
	 M23.762,42.561c0.101-0.393,0.281-0.722,0.605-0.747c0.667-0.051,0.854,0.813,0.87,0.896c0.002,0.143,0.035,2.02,0.012,3.301
	c-0.011,0.594-0.108,1.014-0.256,1.299c-0.166,0.32-0.397,0.463-0.636,0.487c-0.334,0.032-0.459-0.703-0.564-1.321
	c-0.02-0.118-0.04-0.231-0.06-0.336c-0.047-0.247-0.073-0.679-0.086-1.128c-0.014-0.452-0.015-0.92-0.013-1.231
	C23.638,43.473,23.655,42.979,23.762,42.561z M23.489,43.216c0.001,0.001,0.223,0.574,0.684,0.459
	c0.212-0.053,0.442-0.185,0.657-0.383c0.198-0.181,0.385-0.421,0.537-0.708c0.31-0.586,0.36-0.825,0.36-0.826
	c0.01-0.049-0.02-0.095-0.069-0.105c-0.049-0.01-0.095,0.021-0.105,0.069c0,0.001-0.046,0.215-0.344,0.778
	c-0.143,0.269-0.316,0.491-0.5,0.661c-0.193,0.177-0.395,0.294-0.579,0.34c-0.308,0.077-0.473-0.351-0.474-0.352
	c-0.018-0.046-0.07-0.069-0.115-0.05C23.494,43.117,23.471,43.17,23.489,43.216 M17.104,42.657c0.001-0.004,0.254-1.139-0.73-1.056
	c-0.074,0.005-0.141,0.018-0.204,0.037h0c-0.276,0.082-0.448,0.275-0.543,0.522c-0.092,0.236-0.112,0.521-0.089,0.799
	c0.017,0.203,0.058,0.403,0.11,0.579c0.147,0.497,0.635,0.652,0.948,0.702c-0.352,0.242-0.985,0.793-1.083,1.688
	c-0.103,0.932,0.205,1.542,0.629,1.839c0.184,0.13,0.391,0.2,0.597,0.213c0.207,0.012,0.412-0.034,0.593-0.138
	c0.366-0.211,0.629-0.655,0.591-1.322c-0.024-0.446-0.357-1.051-0.358-1.052l-0.157,0.086c0.001,0.001,0.314,0.57,0.337,0.977
	c0.033,0.59-0.191,0.977-0.502,1.155c-0.15,0.086-0.321,0.126-0.494,0.115c-0.173-0.012-0.348-0.071-0.505-0.181
	c-0.376-0.264-0.647-0.816-0.553-1.674c0.12-1.098,1.124-1.64,1.218-1.69c0.027-0.015,0.042-0.022,0.052-0.061l0.001-0.008
	c0.017-0.103-0.022-0.104-0.098-0.105h0c-0.098-0.002-0.872-0.017-1.045-0.596c-0.049-0.165-0.086-0.353-0.102-0.543
	c-0.021-0.255-0.004-0.512,0.077-0.72c0.076-0.196,0.211-0.352,0.428-0.415l0-0.001c0.051-0.015,0.106-0.025,0.168-0.03
	c0.742-0.062,0.542,0.839,0.541,0.842L17.104,42.657z M16.581,45.397c-0.001,0.001-0.39,0.494-0.083,0.748
	c0.145,0.119,0.298,0.184,0.475,0.106c0.157-0.068,0.324-0.256,0.509-0.635c0.109-0.225,0.22-0.381,0.323-0.49
	c0.1-0.104,0.194-0.165,0.275-0.2c0.097-0.041,0.16-0.06,0.202-0.046c0.039,0.013,0.077,0.063,0.127,0.159
	c0.045,0.086,0.083,0.19,0.101,0.287c0.012,0.061,0.015,0.116,0.006,0.16c-0.006,0.03-0.016,0.052-0.034,0.061h-0.001
	c-0.004,0.003-0.011,0.005-0.018,0.007c-0.194,0.035-0.171-0.102-0.171-0.102l-0.177-0.024c-0.001,0.001-0.062,0.385,0.38,0.302
	c0.026-0.005,0.049-0.013,0.069-0.023l0,0c0.071-0.038,0.111-0.104,0.126-0.185c0.013-0.067,0.009-0.147-0.006-0.229
	c-0.021-0.113-0.065-0.235-0.118-0.337c-0.073-0.139-0.139-0.217-0.23-0.246c-0.091-0.03-0.188-0.008-0.327,0.052
	c-0.102,0.043-0.216,0.115-0.335,0.24c-0.116,0.121-0.237,0.294-0.356,0.537c-0.163,0.335-0.299,0.496-0.418,0.547
	c-0.099,0.043-0.195-0.001-0.291-0.079c-0.172-0.143,0.109-0.498,0.11-0.499L16.581,45.397z"/>
</svg>
