<?xml version="1.0" encoding="utf-8"?>
<!-- Generator: Adobe Illustrator 19.2.1, SVG Export Plug-In . SVG Version: 6.00 Build 0)  -->
<svg version="1.1" id="Слой_1" xmlns="http://www.w3.org/2000/svg" xmlns:xlink="http://www.w3.org/1999/xlink" x="0px" y="0px"
	 width="115px" height="48px" viewBox="0 0 115 48" enable-background="new 0 0 115 48" xml:space="preserve">
<style type="text/css">
	.st0{fill-rule:evenodd;clip-rule:evenodd;fill:#2B2B2B;}
</style>
<path class="st0" d="M9.22,39.449l0.071,1.724l-7.229,1.636l-0.038-0.167c0.475-0.651,0.556-0.86,0.432-1.407l-1.423-6.287
	c-0.124-0.547-0.287-0.701-0.996-1.084L0,33.697l4.328-0.98l0.038,0.167c-0.475,0.651-0.556,0.86-0.432,1.407l1.633,7.214
	l0.137-0.031c0.744-0.168,1.315-0.537,3.4-2.047L9.22,39.449z M13.932,31.255L9.513,31.67l0.016,0.171
	c0.654,0.47,0.796,0.645,0.848,1.203l0.442,4.713c0.18,1.922,1.24,3.215,4.247,2.933c3.007-0.282,3.808-1.749,3.628-3.672
	l-0.342-3.643c-0.086-0.915-0.039-1.247,0.835-2.44l-0.016-0.17l-2.682,0.251l0.016,0.17c1.08,1.009,1.188,1.328,1.274,2.243
	l0.334,3.566c0.145,1.55-0.33,2.486-1.958,2.639c-1.581,0.148-2.239-0.697-2.385-2.247l-0.433-4.62
	c-0.052-0.558,0.054-0.756,0.609-1.34L13.932,31.255z M29.573,32.36l-0.053-1.418c-0.916-0.141-2.067-0.239-2.737-0.251
	c-3.285-0.058-5.543,1.74-5.598,4.807c-0.052,2.927,1.924,4.784,5.069,4.839c1.012,0.018,2.043-0.151,2.826-0.371l0.339-1.567
	l-0.124-0.049c-1.766,1.246-2.269,1.517-3.032,1.504c-1.775-0.032-1.856-1.59-1.808-4.33c0.055-3.098,0.217-4.388,1.899-4.358
	c0.638,0.011,1.164,0.208,3.093,1.223L29.573,32.36z M35.283,32.943c0.059-0.557,0.203-0.73,0.862-1.192l0.018-0.17l-4.413-0.467
	l-0.018,0.171c0.548,0.59,0.653,0.789,0.593,1.347l-0.679,6.411c-0.059,0.558-0.202,0.73-0.862,1.193l-0.018,0.17l4.413,0.467
	l0.018-0.17c-0.548-0.59-0.652-0.789-0.593-1.347L35.283,32.943z M46.074,42.878c-0.504-0.814-0.581-1.182-0.665-1.951l-0.832-7.779
	l-2.765-0.617l-3.75,6.294c-0.511,0.859-0.842,1.2-1.743,1.876l-0.037,0.167l2.948,0.658l0.037-0.167
	c-0.805-0.897-1.054-1.208-0.953-1.664c0.051-0.228,0.169-0.473,0.325-0.741l0.387-0.663l3.176,0.709l0.149,1.405
	c0.035,0.343,0.045,0.584,0.004,0.767c-0.058,0.258-0.23,0.459-0.764,0.707l-0.037,0.167l4.483,1L46.074,42.878 M39.283,37.853
	l2.38-4.015l0.492,4.657L39.283,37.853z M12.688,44.744c-0.471,0-0.871,0.157-1.2,0.471c-0.328,0.309-0.49,0.695-0.49,1.157
	c0,0.462,0.162,0.847,0.49,1.162c0.328,0.309,0.728,0.467,1.2,0.467c0.471,0,0.876-0.157,1.204-0.467
	c0.329-0.314,0.495-0.7,0.495-1.162c0-0.462-0.167-0.847-0.495-1.157C13.564,44.901,13.159,44.744,12.688,44.744 M12.693,45.496
	c0.248,0,0.452,0.081,0.614,0.243c0.162,0.162,0.243,0.371,0.243,0.633c0,0.262-0.081,0.476-0.243,0.638
	c-0.162,0.157-0.366,0.238-0.614,0.238c-0.252,0-0.462-0.081-0.619-0.238c-0.157-0.162-0.238-0.376-0.238-0.638
	c0-0.262,0.081-0.471,0.238-0.633C12.231,45.577,12.44,45.496,12.693,45.496z M17.917,45.377c-0.214-0.424-0.571-0.633-1.076-0.633
	c-0.324,0-0.59,0.086-0.795,0.257c-0.205,0.166-0.305,0.39-0.305,0.671c0,0.4,0.267,0.714,0.795,0.948l0.324,0.143
	c0.248,0.109,0.319,0.152,0.319,0.29c0,0.152-0.109,0.228-0.324,0.228c-0.267,0-0.5-0.133-0.7-0.405l-0.552,0.419
	C15.832,47.728,16.289,48,16.856,48c0.333,0,0.609-0.086,0.824-0.262c0.219-0.176,0.328-0.419,0.328-0.719
	c0-0.443-0.257-0.719-0.805-0.948l-0.362-0.152c-0.205-0.081-0.271-0.143-0.271-0.257c0-0.133,0.095-0.2,0.281-0.2
	c0.224,0,0.367,0.105,0.519,0.333L17.917,45.377 M19.162,44.801v0.738h0.943v2.404h0.819v-2.404h0.943v-0.738H19.162z
	 M23.182,44.801v3.142h2.238v-0.738h-1.419v-0.548h0.971v-0.685h-0.971v-0.433h1.362v-0.738H23.182z M28.835,46.776
	c0.328-0.2,0.495-0.5,0.495-0.895c0-0.329-0.114-0.591-0.343-0.786c-0.228-0.195-0.519-0.295-0.871-0.295h-1.233v3.142h0.819v-0.976
	h0.338l0.709,0.976h0.914L28.835,46.776z M28.121,45.515c0.229,0,0.376,0.143,0.376,0.367c0,0.224-0.148,0.371-0.376,0.371h-0.419
	v-0.738H28.121z M31.76,44.801h-0.819v3.142h0.819V44.801z M36.155,47.943l-1.428-3.199h-0.262l-1.428,3.199h0.881l0.114-0.262
	h1.128l0.114,0.262H36.155z M34.322,47.024l0.276-0.728l0.272,0.728H34.322z M19.145,20.463c0.905,0,1.693-0.266,1.779-0.296
	c0.271-0.094,0.415-0.392,0.321-0.664c-0.094-0.271-0.393-0.414-0.664-0.322c-0.024,0.009-2.369,0.777-2.957-0.541
	c-0.268-0.602-0.259-1.208,0.028-1.802c0.427-0.885,1.371-1.516,1.779-1.621c0.768-0.199,1.82-0.47,3.947,0.572
	c0.745,0.364,1.377,0.615,1.938,0.776l-3.114,5.453c-0.142,0.249-0.055,0.569,0.194,0.711c0.078,0.045,0.168,0.069,0.259,0.069
	c0.187,0,0.361-0.101,0.453-0.263l3.299-5.778c0.629,0.026,1.153-0.119,1.621-0.449c0.114-0.08,0.19-0.2,0.213-0.337
	c0.024-0.137-0.008-0.276-0.088-0.389c-0.165-0.235-0.491-0.292-0.727-0.125c-0.298,0.209-0.663,0.324-1.24,0.244
	c-0.003,0-0.006-0.001-0.009-0.001c-0.548-0.077-1.286-0.33-2.341-0.847c-2.474-1.212-3.794-0.87-4.667-0.646
	c-0.648,0.167-1.877,0.975-2.458,2.178c-0.421,0.871-0.435,1.799-0.042,2.681C17.08,19.98,17.935,20.463,19.145,20.463
	 M30.607,22.063c-0.118-0.262-0.428-0.381-0.689-0.263c-0.127,0.057-0.225,0.16-0.274,0.29c-0.05,0.131-0.046,0.272,0.011,0.399
	c0.005,0.012,0.539,1.243,0.037,2.042c-0.305,0.487-0.971,0.75-1.979,0.781c-1.862,0.071-3.335-0.707-4.765-1.458l-0.042-0.022
	c-0.304-0.159-0.605-0.317-0.905-0.463c-1.058-0.518-2.228-0.977-3.621-0.835c-1.183,0.121-2.045,0.703-2.305,1.557
	c-0.192,0.632,0.007,1.291,0.521,1.718c0.411,0.34,1.622,1.002,3.982-0.227c0.255-0.133,0.355-0.448,0.222-0.704
	c-0.065-0.123-0.173-0.215-0.306-0.257c-0.134-0.042-0.275-0.029-0.398,0.035c-1.477,0.768-2.45,0.669-2.835,0.35
	c-0.19-0.158-0.26-0.381-0.189-0.611c0.103-0.338,0.528-0.732,1.413-0.823c1.129-0.115,2.135,0.285,3.056,0.735
	c0.302,0.147,0.605,0.306,0.921,0.473c1.412,0.74,3.011,1.579,5.05,1.579c0.076,0,0.153-0.001,0.231-0.003
	c1.377-0.043,2.329-0.47,2.831-1.27C31.372,23.815,30.639,22.135,30.607,22.063 M9.585,46.411c0-0.291-0.236-0.528-0.528-0.528
	c-0.291,0-0.528,0.236-0.528,0.528c0,0.291,0.236,0.528,0.528,0.528C9.348,46.939,9.585,46.703,9.585,46.411 M38.623,46.411
	c0-0.291-0.236-0.528-0.528-0.528c-0.291,0-0.528,0.236-0.528,0.528c0,0.291,0.236,0.528,0.528,0.528
	C38.387,46.939,38.623,46.703,38.623,46.411"/>
</svg>
