<svg width="71" height="38" fill="none" xmlns="http://www.w3.org/2000/svg"><path d="M55.546 20.024a.851.851 0 000-1.204l-5.42-5.42a.852.852 0 00-1.204 1.205l4.817 4.817-4.817 4.817a.852.852 0 001.204 1.204l5.42-5.419zM0 20.274h54.944V18.57H0v1.703z" fill="#F4B346"/><mask id="a" fill="#fff"><path d="M38.531 32.435a19.037 19.037 0 0020.727 4.119 19.015 19.015 0 008.535-6.998 18.987 18.987 0 000-21.112 19.015 19.015 0 00-8.535-6.998 19.037 19.037 0 00-20.727 4.119l1.106 1.105A17.47 17.47 0 0158.66 2.89a17.45 17.45 0 017.834 6.422 17.425 17.425 0 010 19.376 17.45 17.45 0 01-7.833 6.422 17.471 17.471 0 01-19.023-3.78l-1.106 1.105z"/></mask><path d="M38.531 32.435a19.037 19.037 0 0020.727 4.119 19.015 19.015 0 008.535-6.998 18.987 18.987 0 000-21.112 19.015 19.015 0 00-8.535-6.998 19.037 19.037 0 00-20.727 4.119l1.106 1.105A17.47 17.47 0 0158.66 2.89a17.45 17.45 0 017.834 6.422 17.425 17.425 0 010 19.376 17.45 17.45 0 01-7.833 6.422 17.471 17.471 0 01-19.023-3.78l-1.106 1.105z" stroke="#F4B346" stroke-width="1.703" mask="url(#a)"/></svg>