<svg xmlns="http://www.w3.org/2000/svg" width="38" height="49" viewBox="0 0 198.516 256"><g opacity=".6" fill="none" stroke-width="none" stroke-miterlimit="10" font-family="none" font-weight="none" font-size="none" text-anchor="none"><path d="M96.302 170.66a4.18 4.18 0 005.911 0l26.6-26.598a4.18 4.18 0 00-5.912-5.911l-23.643 23.644-23.644-23.644a4.18 4.18 0 00-5.91 5.91zM95.078 25.6v142.105h8.36V25.6z" fill="#fff"/><path d="M43.105 94.43a79.725 79.725 0 00-21.734 40.782 79.871 79.871 0 004.52 46.02 79.6 79.6 0 0029.248 35.746A79.244 79.244 0 0099.258 230.4a79.243 79.243 0 0044.119-13.423 79.599 79.599 0 0029.248-35.746 79.87 79.87 0 004.52-46.02A79.725 79.725 0 00155.41 94.43l-4.618 4.632a73.164 73.164 0 0119.946 37.428 73.304 73.304 0 01-4.147 42.235 73.053 73.053 0 01-26.843 32.806 72.728 72.728 0 01-40.491 12.32 72.728 72.728 0 01-40.491-12.32 73.054 73.054 0 01-26.843-32.806 73.302 73.302 0 01-4.148-42.235 73.166 73.166 0 0119.947-37.428z" stroke="#fff" stroke-width="7.11366218"/></g></svg>