<svg xmlns="http://www.w3.org/2000/svg" width="26" height="26" viewBox="0 0 256 256"><g transform="translate(25.6 25.6) scale(7.87692)" fill="none" stroke-miterlimit="10" font-family="none" font-weight="none" font-size="none" text-anchor="none"><circle cx="13" cy="13" r="13" fill="#f4b346"/><path d="M17.7 15.119l-1.65-.189a1.293 1.293 0 00-1.067.371l-1.196 1.196a9.78 9.78 0 01-4.283-4.283l1.202-1.203c.28-.28.416-.67.37-1.066l-.188-1.638a1.301 1.301 0 00-1.293-1.15H8.47c-.734 0-1.345.61-1.3 1.345.345 5.551 4.784 9.984 10.329 10.329.734.045 1.345-.566 1.345-1.3v-1.125a1.288 1.288 0 00-1.144-1.287z" fill="#fff"/></g></svg>