<svg width="21" height="21" fill="none" xmlns="http://www.w3.org/2000/svg"><path d="M10.27 1.706c-4.656 0-8.452 3.796-8.452 8.453 0 1.492.393 2.942 1.126 4.222L1.75 18.765l4.478-1.177a8.455 8.455 0 004.043 1.032c4.657 0 8.453-3.796 8.453-8.453a8.4 8.4 0 00-2.474-5.979 8.373 8.373 0 00-5.98-2.482zm.01 1.425c1.876 0 3.633.733 4.963 2.064a7.015 7.015 0 012.056 4.972c0 3.873-3.156 7.02-7.028 7.02-1.262 0-2.5-.333-3.574-.98l-.256-.146-2.661.7.708-2.593-.17-.273a6.984 6.984 0 01-1.075-3.736C3.25 6.286 6.399 3.13 10.279 3.13zM7.276 6.252a.78.78 0 00-.563.265c-.188.213-.742.733-.742 1.765 0 1.04.76 2.039.853 2.184.12.145 1.501 2.277 3.625 3.181.503.23.896.358 1.203.452.503.162.963.137 1.33.086.41-.06 1.245-.512 1.425-1.007.179-.495.179-.913.128-1.006-.06-.086-.197-.137-.41-.23-.213-.12-1.254-.632-1.441-.7-.197-.068-.316-.102-.478.102-.136.214-.546.691-.665.828-.128.145-.248.162-.452.06-.222-.111-.904-.333-1.706-1.05-.631-.563-1.05-1.254-1.177-1.467-.103-.204-.009-.332.094-.426.093-.094.23-.248.315-.376.111-.119.145-.213.213-.35.069-.144.035-.264-.017-.366-.05-.094-.477-1.151-.656-1.57-.171-.409-.342-.358-.478-.366-.12 0-.256-.009-.4-.009z" fill="#25D366"/></svg>