<svg xmlns="http://www.w3.org/2000/svg" width="26" height="26" viewBox="0 0 256 256"><g transform="translate(25.6 25.6) scale(7.87692)" fill="none" stroke-miterlimit="10" font-family="none" font-weight="none" font-size="none" text-anchor="none"><circle cx="13" cy="13" r="13" fill="#25d366"/><path d="M13.025 6.5c-3.55 0-6.442 2.893-6.442 6.442a6.46 6.46 0 00.858 3.217l-.91 3.341 3.413-.897a6.444 6.444 0 003.08.787c3.55 0 6.442-2.893 6.442-6.442 0-1.722-.67-3.341-1.885-4.556A6.382 6.382 0 0013.025 6.5zm.006 1.086a5.31 5.31 0 013.783 1.573 5.348 5.348 0 011.567 3.789c0 2.951-2.405 5.35-5.356 5.35a5.267 5.267 0 01-2.724-.748l-.195-.11-2.028.533.54-1.976-.13-.208a5.322 5.322 0 01-.82-2.847 5.37 5.37 0 015.363-5.356zm-2.288 2.379a.594.594 0 00-.429.201c-.143.163-.565.559-.565 1.345 0 .794.578 1.554.65 1.665.09.11 1.144 1.735 2.762 2.424.384.175.683.273.917.344.383.124.734.104 1.014.065.312-.045.949-.39 1.085-.767.137-.377.137-.695.098-.767-.046-.064-.15-.103-.312-.175a18.726 18.726 0 00-1.099-.533c-.15-.052-.24-.078-.364.078a8.21 8.21 0 01-.507.63c-.097.111-.188.124-.344.046-.17-.085-.69-.254-1.3-.8-.481-.428-.8-.955-.897-1.117-.078-.156-.007-.254.071-.325.072-.072.176-.189.24-.286.085-.091.111-.163.163-.267.052-.11.026-.202-.013-.28-.039-.071-.364-.877-.5-1.195-.13-.312-.26-.273-.364-.28-.091 0-.195-.006-.306-.006z" fill="#fff"/></g></svg>