<?xml version="1.0" encoding="utf-8"?>
<!-- Generator: Adobe Illustrator 19.2.1, SVG Export Plug-In . SVG Version: 6.00 Build 0)  -->
<svg version="1.1" id="Слой_1" xmlns="http://www.w3.org/2000/svg" xmlns:xlink="http://www.w3.org/1999/xlink" x="0px" y="0px"
	 width="115px" height="48px" viewBox="0 0 115 48" enable-background="new 0 0 115 48" xml:space="preserve">
<path fill="#979797" d="M70.815,32.531C71.005,32.415,70.909,32.468,70.815,32.531L70.815,32.531z"/>
<path d="M83.214,37.749c0,0.336-1.818,0.543-1.99,0.575c-1.381,0.256-2.77,0.492-4.163,0.672c-0.914,0.118-1.95,0.305-2.851,0.03
	c-0.427-0.13-1.037-0.341-1.011-0.855c0.024-0.481,0.713-1.151,1-1.504c-0.73,0.165-1.493,0.207-2.237,0.131
	c-0.321-0.033-0.638-0.132-0.956-0.163c-0.446-0.044-0.504,0.028-0.913,0.231c-1.081,0.536-2.255,0.929-3.43,1.193
	c-0.517,0.116-2.309,0.592-2.26-0.431c0.038-0.806,1.481-1.689,2.013-2.104c-2.207,0.828-4.538,1.3-6.713,2.215
	c-0.842,0.354-1.786,1.084-2.697,1.248c-0.279,0.05-0.065-0.019-0.121-0.103c0.002,0.003-4.418,3.374-4.374,1.406
	c0.019-0.876,1.149-0.784,1.75-0.976c0.998-0.319,2.119-1.012,2.119-2.197c-1.346,0.494-2.684,1.044-4.084,1.369
	c-0.669,0.155-1.439,0.339-2.131,0.285c-0.488-0.038-1.626-0.38-1.594-1.028c0.016-0.339,0.456-0.667,0.68-0.869
	c0.625-0.562,1.329-1.052,2.032-1.51c0.577-0.376,1.181-0.769,1.833-1.003c0.232-0.084,1.306-0.377,1.116,0.226
	c-0.111,0.351-1.373,0.831-1.68,1.017c-0.615,0.373-1.255,0.738-1.804,1.205c-0.247,0.21-0.782,0.613-0.498,0.98
	c0.222,0.287,0.943,0.135,1.262,0.091c2.842-0.385,5.502-1.88,7.932-3.309c0.425-0.25,0.919-0.636,1.414-0.728
	c0.676-0.126,1.175,0.423,0.769,1.055c-0.407,0.633-1.407,0.7-2.025,1.05c-0.785,0.444-1.423,1.176-1.991,1.862
	c2.505-1.052,5.122-1.863,7.733-2.607c0.324-0.092,0.665-0.216,1-0.268c0.233-0.036,0.573,0.111,0.733,0.08
	c0.286-0.056,0.74-0.532,0.984-0.701c0.261-0.181,0.524-0.358,0.788-0.534c0.647-0.43,1.303-0.845,1.966-1.248
	c0.01-0.007-0.116,0.076-0.102,0.088c0.185,0.166,2.235-0.997,2.686-1.063c0.274-0.04,0.949-0.034,0.831,0.423
	c-0.061,0.235-0.626,0.403-0.823,0.497c-1.51,0.719-3.016,1.43-4.469,2.261c-0.737,0.422-1.475,0.859-2.151,1.375
	c-0.251,0.192-1.026,0.699-0.968,1.095c0.102,0.701,3.683-0.599,3.964-1.231c-1.204-0.137,0.446-1.825,0.902-1.623
	c0.574,0.229,1.159-0.322,1.603,0.296c-0.019-0.027,0.214,0.549,0.217,0.489c-0.017,0.314-0.32,0.443-0.619,0.627
	c1.717,0.727,3.833-0.277,5.416-0.927c0.675-0.277,1.41-0.668,2.142-0.76c0.491-0.062,1.805,0.199,1.021,0.755
	c-0.636,0.452-1.652,0.498-2.379,0.809c-0.683,0.292-1.321,0.748-1.953,1.136c-0.356,0.218-1.844,0.906-1.874,1.331
	c-0.057,0.82,2.507,0.236,2.856,0.19c1.434-0.188,2.853-0.46,4.28-0.688C81.646,37.571,83.214,37.12,83.214,37.749z M20.076,37.899
	c0.599-0.125,1.201-0.263,1.776-0.474c-0.374-0.782,0.133-1.384,0.779-1.771c-1.8,1.012-4.18,1.181-6.197,1.329
	c-0.257,0.019-1.94,0.266-2.006-0.09c-0.045-0.242,0.74-0.741,0.885-0.854c1.895-1.468,4.001-2.634,5.946-4.031
	c0.767-0.551,3.285-2.077,2.366-3.363c-0.485-0.679-1.971-0.326-2.65-0.252c-1.354,0.147-2.685,0.378-4.025,0.611
	c1.153-0.893,2.392-1.704,3.484-2.671c0.403-0.357,0.845-0.755,1.146-1.204c0.045-0.068,0.395-0.551,0.118-0.482
	c-0.537,0.137-1.148,0.199-1.614,0.499c-1.103,0.711-2.118,1.591-3.226,2.312c-1.712,1.113-3.395,2.269-5.116,3.369
	c-3.215,2.053-6.452,4.107-9.507,6.395c-0.6,0.449-1.215,0.904-1.751,1.43c-0.318,0.312-0.921,1.158,0.088,1.08
	c0.378-0.076,0.807-0.5,1.105-0.718c0.689-0.504,1.366-1.026,2.054-1.532c1.396-1.026,2.814-2.023,4.267-2.967
	c2.77-1.8,5.684-3.463,8.861-4.42c1.502-0.452,3.191-0.944,4.778-0.914c1.238,0.024,0.356,0.939-0.138,1.34
	c-1.172,0.95-2.527,1.651-3.802,2.448c-1.466,0.916-2.905,1.958-4.173,3.134c-0.656,0.609-1.779,1.763-0.202,2.065
	C15.487,38.583,17.934,38.316,20.076,37.899C20.749,37.759,17.912,38.32,20.076,37.899z M50.097,35.946
	c0-0.561-3.998,0.279-4.31,0.332c-1.849,0.318-3.697,0.643-5.547,0.96c0.346-0.221,1.224-0.676,1.119-1.197
	c-0.145-0.715-1.43-0.58-1.929-0.538c-0.839,0.07-1.675,0.22-2.507,0.347c-0.553,0.085-1.398,0.399-1.852-0.054
	c1.457-1.041,3.093-1.876,4.641-2.769c1.758-1.014,3.561-1.954,5.384-2.845c-0.576-0.112-1.151-0.337-1.696-0.138
	c-1.415,0.517-2.767,1.435-4.089,2.149c-2.553,1.38-5.081,2.805-7.632,4.188c-4.085,2.217-8.085,4.582-11.976,7.126
	c-0.931,0.608-1.856,1.225-2.771,1.856c-0.85,0.586-1.897,1.154-2.617,1.904c-0.174,0.181-0.352,0.206-0.23,0.489
	c0.127,0.292,0.586,0.272,0.842,0.203c0.717-0.192,1.457-0.862,2.065-1.262c3.527-2.319,7.049-4.598,10.679-6.749
	c1.424-0.844,2.84-1.707,4.287-2.512c0.346-0.193,0.84-0.584,1.238-0.637c0.486-0.065,0.993,0.335,1.55,0.253
	c0.56-0.082,3.577-1.237,3.909-0.554c0.475,0.975-2.413,1.222-2.413,1.643c0.216,1.081,2.61,0.124,3.198-0.015
	c1.346-0.318,2.735-0.495,4.097-0.741c1.079-0.196,2.15-0.432,3.229-0.631C47.191,36.674,50.097,36.462,50.097,35.946z"/>
<path fill="#C20E1A" d="M51.87,24.436c0.391,0.661,0.691,1.352,0.932,2.104c0.09-0.03,0.21-0.03,0.3-0.06l-0.03-0.09
	c0.06-0.03,0.12-0.03,0.15-0.03c-0.18-0.391-0.691-0.962-0.601-1.322c0.09-0.03,0.15-0.03,0.21-0.03
	c0.481,0.571,0.571,0.421,0.751,1.322c-0.03,0-0.09,0.03-0.12,0.06v0.03c0.472-0.094,1.04-0.137,1.485-0.318
	c0.157-0.064,0.351-0.228,0.479-0.255c0.168-0.036,0.25,0.066,0.41,0.062c0.709-0.017,1.443-0.361,2.043-0.661
	c-0.12-0.541-0.3-1.142-0.27-1.382c0.18-0.06,0.331-0.12,0.511-0.21c0.24-0.361-0.481-1.893-0.601-2.254
	c0.03,0.03,0.09,0.03,0.12,0.03c0.328-0.987,1.444-1.903,2.257-2.523c0.727-0.554,1.536-0.857,2.399-1.142
	c1.565-0.516,3.812-1.149,5.32-0.152c0.316,1.474-1.941,0.492-2.524,0.541c0.541,0.871,1.563,0.451,2.254,0.331
	c0.481-0.391,0.511-0.451,0.481-0.871c-1.184-1.867-4.057-0.92-5.687-0.322c-0.837,0.307-1.762,0.615-2.547,1.044
	c-0.611,0.333-0.994,0.914-1.666,1.134c-0.508,0.166-0.813,0.132-1.249,0.459c-0.498-0.778-1.049-1.429-1.623-2.134
	c-0.592-0.727-0.73-1.722-1.412-2.404c-0.222,0.542,0.117,1.412,0.264,1.933c0.199,0.708,0.463,1.391,0.692,2.088
	c0.376,1.143,0.915,2.146,1.4,3.242c0.239,0.542,0.358,1.066,0.379,1.655c0.007,0.192-0.017,0.39,0.03,0.578
	c0.03-0.12,0.06-0.21,0.09-0.331c0.09,0,0.18-0.03,0.3-0.03c0.06,0.301,0.12,0.571,0,1.022c-0.09,0.03-0.18,0.06-0.27,0.09
	c-0.18-0.12-0.18-0.301-0.21-0.391c-0.698,0-1.166-0.83-1.356-1.446c-0.303-0.979-0.756-1.94-1.023-2.919
	c-0.118-0.433-0.183-0.576-0.441-0.948c-0.217-0.312-0.397-0.539-0.685-0.789c-0.314-0.273-0.3-0.272-0.434-0.676
	c-0.063-0.188-0.155-0.629-0.447-0.584c0.03,2.043,1.412,4.087,1.983,6.161c-0.705,0.176-1.151-2.046-1.408-2.659
	c-0.413-0.989-1.884-2.61-0.876-3.652c-0.331,0.06-0.421,0.541-0.421,0.992c-0.21,0.06-0.24-0.03-0.451,0.03
	c0,0.06-0.03,0.15-0.03,0.24c-0.15,0.03-0.361,0.12-0.481-0.09c-0.06,1.863,1.442,3.576,1.833,5.439
	C52.021,24.376,51.96,24.406,51.87,24.436C52.261,25.097,51.96,24.406,51.87,24.436z M54.365,18.125c0.06,0,0.12,0,0.18-0.03
	c0.03,0.15,0.03,0.15,0,0.15c-0.03-0.03-0.03-0.06-0.03-0.09C54.365,18.185,54.365,18.185,54.365,18.125
	C54.425,18.125,54.365,18.185,54.365,18.125z M54.755,19.177c-0.12-0.301-0.21-0.601-0.361-0.871c0.12,0,0.21-0.03,0.271-0.03
	c0.12,0.21,0.12,0.21,0.331,0.871C54.936,19.147,54.845,19.177,54.755,19.177C54.635,18.877,54.845,19.177,54.755,19.177z
	 M53.613,24.616c0.511-0.09,1.382,0.721,1.112,1.322C53.896,26.077,53.613,25.365,53.613,24.616
	C54.124,24.526,53.613,24.707,53.613,24.616z M51.329,22.032c-0.12-0.481-0.12-0.481-0.661-2.104c0.03-0.18,0.27-0.12,0.301-0.12
	c0.391,0.631,0.691,1.262,0.631,2.104C51.51,21.942,51.45,22.002,51.329,22.032C51.209,21.551,51.45,22.002,51.329,22.032z
	 M51.69,21.702c0.09-0.03,0.18-0.06,0.24-0.09c0.421,1.022,1.052,2.013,1.172,3.155c-0.419,0-0.515-0.541-0.811-0.541
	C52.111,23.625,52.111,23.625,51.69,21.702C51.78,21.671,52.111,23.625,51.69,21.702z M44.838,22.513c-0.06,0-0.12,0-0.18,0
	c0.06-0.06,0.12-0.06,0.15-0.09C44.838,22.453,44.838,22.483,44.838,22.513C44.778,22.513,44.838,22.483,44.838,22.513z
	 M37.145,27.892c0.06,0.601,0.12,1.202,0.12,1.803c-0.508-0.085-0.449-0.111-0.674-0.53c-0.132-0.246-0.178-0.34-0.468-0.462
	c0.15-0.06,0.27-0.09,0.391-0.12c-0.03-0.21-0.03-0.451-0.03-0.691C36.704,27.892,36.925,27.892,37.145,27.892z M39.459,28.974
	c0.27,0.15,0.541,0.361,0.811,0.571c-0.12,0.18-0.24,0.391-0.451,0.601c-0.819-0.137-1.009-0.958-1.142-1.623
	c0.162,0.162,0.206,0.386,0.391,0.571C39.253,29.094,39.343,29.089,39.459,28.974C39.73,29.124,39.429,29.004,39.459,28.974z
	 M42.705,26.179c0-0.47-0.031-1.109,0.12-1.563c0.353-0.163,0.631-0.27,0.997-0.12c0.434,0.178,0.387,0.462,0.896,0.361
	c0.12-0.631-0.21-1.472-0.12-2.013c0.179,0.465,0.548,0.5,0.77,0.926c0.256,0.491,0.352,1.066,0.642,1.538
	c0.09-0.03,0.15-0.03,0.21-0.03c0.06-0.301,0.09-0.601,0.15-0.871c0.571,0.06,0.841,0.09,1.262,0c-0.24-0.992-1.472-5.169-0.06-5.65
	c0.03,0.03,0.03,0.06,0.06,0.12c-0.6,2.4,0.82,5.01,1.713,7.242c0.12-0.03,0.21-0.03,0.301-0.03
	c-0.27-1.292-1.112-2.554-1.202-3.726c0.09-0.03,0.15-0.06,0.24-0.09c-0.03-0.24-0.661-4.267,0.481-4.177
	c0.172,0.401,0.2,0.865,0.348,1.277c0.29,0.81,0.569,1.619,0.848,2.433c0.575,1.68,1.082,3.263,1.96,4.825
	c-0.09,0-0.21,0.03-0.331,0.06c-0.792-1.408-1.462-2.986-1.923-4.538c-0.276-0.929-0.275-2.179-0.871-2.975
	c-0.12,0.03-0.24,0.03-0.361,0.06c0.041,0.495-0.029,0.996,0.055,1.489c0.041,0.242,0.239,0.477,0.275,0.675
	c0.057,0.307-0.052,0.561,0.029,0.922c0.394,1.76,1.438,2.915,2.345,4.427c-0.391,0.06-0.811,0.12-1.232,0.15
	c-0.207-0.344-0.313-0.421-0.691-0.421c0.03,0.15,0.09,0.301,0.15,0.481c-0.301,0.03-0.601,0.06-0.902,0.06
	c-0.525-0.955-0.868-2.586-2.314-2.434c0.18,0.781,0.661,1.563,0.932,2.434c-0.667,0-1.516,0.006-2.153-0.238
	c-0.527-0.201-0.909-0.742-1.363-1.145c-0.12,0-0.24,0.03-0.361,0.09c0,0.253-0.051,0.407,0,0.661
	C43.305,26.32,43.005,26.25,42.705,26.179z M34.771,28.343c-0.454,0-0.894-0.029-1.231-0.325c-0.343-0.302-0.377-0.666-0.512-1.117
	c-0.684-0.089-1.411,0.516-1.942,0.862c-0.756,0.493-1.562,0.485-2.445,0.52c0,0.03,0,0.06-0.03,0.09
	c-0.302,0.1-1.085-0.594-1.371-0.848c-0.463-0.411-0.552-1.108-0.943-1.616c-0.06,0-0.09,0-0.18,0c0,0.421,0.266,0.907,0.447,1.296
	c0.118,0.254,0.242,0.57,0.434,0.779c0.139,0.151,0.392,0.262,0.47,0.42c0.03-0.03,0.06-0.03,0.09-0.03
	c0.12,0.15,0.361,0.331,0.541,0.421c0-0.03,0-0.03,0-0.06c0.987,0.494,1.912,0.743,2.939,0.088c0.483-0.308,0.789-0.636,1.025-1.145
	c0.209-0.452,0.265-0.566,0.814-0.566c0.286,0.477,0.058,1.009,0.398,1.506c0.298,0.435,0.796,0.705,1.285,0.868
	c0.361-0.631-0.12-0.811,0.571-0.932C35.042,28.523,34.801,28.493,34.771,28.343C34.441,28.343,34.801,28.493,34.771,28.343z
	 M34.531,29.034c-0.03,0-0.09,0-0.15,0c0,0.03,0,0.06,0.03,0.09c0.03-0.03,0.09-0.03,0.12-0.03c0,0.06,0,0.06-0.12,0.09
	c-0.03-0.06-0.06-0.12-0.09-0.21c0.09,0,0.15,0,0.21-0.03C34.561,28.974,34.531,29.004,34.531,29.034
	C34.501,29.034,34.531,29.004,34.531,29.034z M67.768,25.428c-0.781,0.03-0.811,0.15-1.022-0.601
	c0.309,0.028,0.247,0.155,0.465,0.283c0.193,0.113,0.227,0.198,0.557,0.198c0.631-0.721,0.15-1.322-0.661-1.503
	c-2.404-0.09-3.306,1.472-4.448,3.486c0,0.323,0.265,0.466,0.401,0.714c0.191,0.347,0.245,0.369,0.17,0.819
	c-0.253,0.084-0.253,0.012-0.451,0.21c-0.184,0-0.297-0.177-0.451-0.235c-0.189-0.071-0.329-0.083-0.541-0.126
	c-0.06,0.481-0.09,0.511-0.15,1.262c0.631,0,0.902-0.06,1.052-0.03c-0.508,0.863-2.261,0.92-3.123,1.074
	c-1.348,0.241-2.733,0.503-4.108,0.401c-0.733-0.054-1.298-0.393-2.043-0.393c-0.756,0-1.516,0.019-2.272,0
	c-1.556-0.038-3.127-0.328-4.658-0.598c-1.694-0.298-3.52-0.497-5.071-1.245c-0.999-0.482-1.828-1.268-2.873-1.727
	c-0.589-0.259-1.117-0.441-1.751-0.466c-0.739-0.029-1.252-0.252-1.959-0.473c0.747-0.05,1.489-0.16,2.233-0.24
	c1.276-0.137,2.633,0.247,3.881,0.514c2.546,0.544,5.003,1.294,7.63,1.216c2.529-0.076,5.008-0.609,7.471-1.146
	c0.617-0.135,1.225-0.242,1.778-0.499c0.421-0.195,0.825-0.403,1.246-0.617c0.622-0.315,1.367-1.346,2.145-1.242
	c0.24,0.721,0.421,1.022,0.902,1.563c0.294-0.391,0.349-0.236,0.701-0.386c0.383-0.164,0.721-0.726,1.031-1.009
	c0.85-0.779,1.997-1.509,3.197-1.459C67.858,23.535,68.669,24.677,67.768,25.428C66.986,25.458,68.669,24.677,67.768,25.428z
	 M40.571,25.698h-0.09c0.03-0.09,0.06-0.18,0.09-0.24C40.571,25.518,40.571,25.608,40.571,25.698z M40.601,25.368
	c0-0.03-0.03-0.06-0.03-0.09c0.27-0.481,0.721-0.751,1.202-0.481c0.042,0.237,0.078,0.352-0.033,0.559
	c-0.113,0.211-0.415,0.233-0.297,0.523c-0.343-0.013-0.349-0.368-0.481-0.631C40.809,25.248,40.695,25.274,40.601,25.368
	C40.601,25.338,40.631,25.338,40.601,25.368z M35.763,28.613c0.03,0,0.06,0,0.09,0c0,0,0,0,0,0.03c-0.03,0.03-0.06,0.03-0.09,0.03
	C35.763,28.643,35.763,28.643,35.763,28.613C35.793,28.613,35.763,28.643,35.763,28.613z M36.965,25.308l-0.27,0.03
	c0.09-0.21,0.15-0.421,0.27-0.571c0.631-0.12,1.052,0.12,1.292,0.541c-0.446-0.089-0.793-0.405-1.262-0.27L36.965,25.308z
	 M24.193,34.714c-0.68,0.378-2.965,1.535-2.224,2.675c0.512,0.768,1.845,0.905,2.671,0.969c1.157,0.09,2.333-0.056,3.468-0.272
	c0.969-0.185,1.798-0.81,2.651-1.29c-1.313,0.247-2.604,0.621-3.929,0.798c-0.723,0.097-2.855,0.431-3.351-0.287
	c-0.56-0.812,0.97-0.88,1.421-0.891c0.815-0.02,1.631-0.067,2.439-0.181c1.537-0.217,3.708-0.703,4.235-2.407
	c0.593-1.921-1.258-1.639-2.486-1.269C27.394,33.066,25.734,33.847,24.193,34.714C23.923,34.864,25.155,34.173,24.193,34.714z
	 M27.409,35.225c-1.382,0.12-1.803,0-1.803,0l3.997-1.773C30.143,33.211,30.173,34.203,27.409,35.225
	C26.026,35.345,30.173,34.203,27.409,35.225z"/>
</svg>
