<?xml version="1.0" encoding="utf-8"?><svg width="28" height="28" fill="none" xmlns="http://www.w3.org/2000/svg" viewBox="0 0 28 28"><path d="M14 .667c7.364 0 13.334 5.97 13.334 13.333 0 7.364-5.97 13.333-13.334 13.333S.667 21.364.667 14h2.667c0 5.89 4.776 10.667 10.666 10.667 5.891 0 10.667-4.776 10.667-10.667 0-5.89-4.776-10.667-10.667-10.667a10.645 10.645 0 0 0-8.18 3.82L8.667 10h-8V2L3.93 5.261A13.306 13.306 0 0 1 14 .667Zm1.334 6.666v6.114l4.324 4.324-1.887 1.886-5.104-5.106V7.333h2.667Z" fill="#27AE60"/></svg>