<?xml version="1.0" encoding="utf-8"?><svg width="25" height="24" fill="none" xmlns="http://www.w3.org/2000/svg" viewBox="0 0 25 24"><path d="M18.986 6.763h5.556v2.223h-5.556V6.763Zm-2.222 5.556h7.778v2.222h-7.778V12.32Zm3.334 5.556h4.444v2.222h-4.445v-2.222Zm-20 5.555a8.89 8.89 0 0 1 17.777 0h-2.222a6.667 6.667 0 0 0-13.333 0H.098Zm8.888-10A6.665 6.665 0 0 1 2.32 6.763 6.665 6.665 0 0 1 8.986.097a6.665 6.665 0 0 1 6.667 6.666 6.665 6.665 0 0 1-6.667 6.667Zm0-2.222a4.443 4.443 0 0 0 4.445-4.445A4.443 4.443 0 0 0 8.986 2.32a4.443 4.443 0 0 0-4.444 4.444 4.443 4.443 0 0 0 4.444 4.445Z" fill="#27AE60"/></svg>