<?xml version="1.0" encoding="utf-8"?><svg width="32" height="32" fill="none" xmlns="http://www.w3.org/2000/svg" viewBox="0 0 32 32"><path d="M4.14 30.82a1.299 1.299 0 0 1-1.27-1.52l.46-2.66-1.94-1.88a1.3 1.3 0 0 1 .72-2.21l2.67-.39L6 19.75a1.3 1.3 0 0 1 2.32 0l1.19 2.42 2.67.39a1.3 1.3 0 0 1 .72 2.21l-1.93 1.88.46 2.66a1.3 1.3 0 0 1-1.88 1.37l-2.42-1.27-2.38 1.26c-.188.1-.397.15-.61.15Zm2.99-3.5c.21 0 .415.052.6.15l1.45.76-.28-1.62a1.29 1.29 0 0 1 .37-1.15l1.17-1.14-1.62-.24a1.29 1.29 0 0 1-1-.71L7.1 21.9l-.73 1.47a1.29 1.29 0 0 1-1 .71l-1.62.24L5 25.47a1.29 1.29 0 0 1 .37 1.15l-.28 1.61 1.45-.76c.182-.096.384-.147.59-.15Zm18.65-5.06a1.6 1.6 0 0 1-.72-.18l-5.15-2.71-5.15 2.71a1.58 1.58 0 0 1-2.28-1.69l1-5.71-.77-.75a1 1 0 0 1 0-1.41 1 1 0 0 1 1.41 0l.94.91a1.56 1.56 0 0 1 .44 1.43l-.86 5.07 4.59-2.42a1.58 1.58 0 0 1 1.48 0l4.59 2.42-.88-5.12a1.57 1.57 0 0 1 .47-1.41l3.68-3.6L23.4 9a1.59 1.59 0 0 1-1.2-.88l-2.29-4.6-2.29 4.65a1.63 1.63 0 0 1-1.18.83l-5.15.74.34.34a1 1 0 1 1-1.42 1.41l-.93-.92A1.59 1.59 0 0 1 8.9 9a1.57 1.57 0 0 1 1.26-1.07l5.76-.83 2.58-5.23a1.58 1.58 0 0 1 2.83 0l2.57 5.22 5.74.84A1.55 1.55 0 0 1 30.92 9a1.58 1.58 0 0 1-.4 1.64l-4.15 4.06 1 5.72a1.59 1.59 0 0 1-1.57 1.86l-.02-.02Z" fill="#27AE60"/></svg>