<?xml version="1.0" encoding="utf-8"?><svg width="28" height="28" fill="none" xmlns="http://www.w3.org/2000/svg" viewBox="0 0 28 28"><path d="M14 24.667c5.89 0 10.666-4.776 10.666-10.667S19.89 3.333 13.999 3.333C8.11 3.333 3.333 8.11 3.333 14s4.775 10.667 10.666 10.667Zm0 2.666C6.635 27.333.665 21.363.665 14 .666 6.636 6.636.667 13.999.667c7.364 0 13.334 5.97 13.334 13.333 0 7.364-5.97 13.333-13.334 13.333Zm0-8a5.333 5.333 0 1 0 0-10.666 5.333 5.333 0 0 0 0 10.666ZM14 22a8 8 0 1 1 0-16 8 8 0 0 1 0 16Zm0-5.333a2.667 2.667 0 1 1 0-5.333 2.667 2.667 0 0 1 0 5.333Z" fill="#27AE60"/></svg>