<?xml version="1.0" encoding="utf-8"?>
<!-- Generator: Adobe Illustrator 19.2.1, SVG Export Plug-In . SVG Version: 6.00 Build 0)  -->
<svg version="1.1" id="Слой_1" xmlns="http://www.w3.org/2000/svg" xmlns:xlink="http://www.w3.org/1999/xlink" x="0px" y="0px"
	 width="115px" height="48px" viewBox="0 0 115 48" enable-background="new 0 0 115 48" xml:space="preserve">
<path d="M5.532,35.335h-4.57v2.758c0,0.679-0.059,1.188-0.176,1.527C0.635,40.064,0.373,40.286,0,40.286v2.672h1.368v-1.285h3.421
	v1.285h1.369v-2.672H5.532V35.335z M3.965,40.286H1.857c0.38-0.244,0.571-0.757,0.571-1.539v-2.024h1.537V40.286z M9.79,35.167
	c-0.957,0-1.751,0.317-2.383,0.95c-0.632,0.634-0.948,1.429-0.948,2.387c0,0.958,0.316,1.753,0.948,2.387
	c0.632,0.634,1.426,0.951,2.383,0.951c0.957,0,1.753-0.317,2.387-0.951c0.635-0.634,0.952-1.429,0.952-2.387
	c0-0.957-0.317-1.753-0.952-2.387C11.543,35.484,10.747,35.167,9.79,35.167z M11.002,39.74c-0.328,0.336-0.733,0.505-1.212,0.505
	c-0.477,0-0.879-0.168-1.206-0.505c-0.327-0.337-0.491-0.748-0.491-1.236c0-0.487,0.164-0.899,0.491-1.235
	c0.327-0.337,0.729-0.505,1.206-0.505c0.48,0,0.884,0.168,1.212,0.505c0.328,0.336,0.493,0.748,0.493,1.235
	C11.495,38.992,11.33,39.403,11.002,39.74z M17.501,41.41c0.659-0.317,0.989-0.894,0.989-1.728c0-0.804-0.327-1.37-0.982-1.695
	c-0.378-0.189-0.82-0.283-1.326-0.283H15.42v-0.973h2.58v-1.396h-4.14v6.338h2.322C16.704,41.673,17.143,41.586,17.501,41.41z
	 M15.42,40.413v-1.474h0.596c0.609,0,0.914,0.248,0.914,0.743c0,0.487-0.305,0.731-0.914,0.731H15.42z M19.291,35.335v6.338h1.568
	v-2.101h0.907c1.415,0,2.123-0.717,2.123-2.151c0-0.67-0.191-1.186-0.573-1.546c-0.382-0.36-0.926-0.54-1.632-0.54H19.291z
	 M22.255,37.453c0,0.287-0.071,0.491-0.213,0.609c-0.142,0.119-0.376,0.179-0.701,0.179h-0.481v-1.58h0.465
	c0.326,0,0.562,0.061,0.71,0.182C22.181,36.966,22.255,37.169,22.255,37.453z M25.236,36.117c-0.632,0.634-0.948,1.429-0.948,2.387
	c0,0.958,0.316,1.753,0.948,2.387c0.632,0.634,1.426,0.951,2.383,0.951c0.956,0,1.752-0.317,2.387-0.951
	c0.635-0.634,0.952-1.429,0.952-2.387c0-0.957-0.317-1.753-0.952-2.387c-0.634-0.633-1.43-0.95-2.387-0.95
	C26.662,35.167,25.868,35.484,25.236,36.117z M29.324,38.504c0,0.487-0.164,0.899-0.493,1.236c-0.328,0.336-0.733,0.505-1.212,0.505
	c-0.477,0-0.879-0.168-1.206-0.505c-0.327-0.337-0.49-0.748-0.49-1.236c0-0.487,0.164-0.899,0.49-1.235
	c0.327-0.337,0.729-0.505,1.206-0.505c0.479,0,0.884,0.168,1.212,0.505C29.159,37.605,29.324,38.017,29.324,38.504z M31.689,35.336
	h3.468v1.395h-1.9v4.942h-1.568V35.336z M39.87,35.875c-0.382-0.36-0.926-0.54-1.632-0.54h-2.393v6.338h1.568v-2.101h0.907
	c1.415,0,2.123-0.717,2.123-2.151C40.444,36.75,40.252,36.235,39.87,35.875z M38.596,38.063c-0.142,0.119-0.376,0.179-0.702,0.179
	h-0.481v-1.58h0.465c0.326,0,0.562,0.061,0.709,0.182c0.147,0.122,0.221,0.325,0.221,0.61C38.809,37.74,38.738,37.944,38.596,38.063
	z M42.476,35.335l-2.279,6.338h1.681l0.391-1.21h2.24l0.395,1.21h1.681l-2.283-6.338H42.476z M42.676,39.202l0.715-2.196
	l0.712,2.196H42.676z M52.6,40.286v-4.951h-4.571v2.758c0,0.679-0.058,1.188-0.176,1.527c-0.151,0.443-0.413,0.665-0.786,0.665
	v2.672h1.369v-1.285h3.421v1.285h1.369v-2.672H52.6z M51.031,40.286h-2.107c0.381-0.244,0.571-0.757,0.571-1.539v-2.024h1.536
	V40.286z M17.58,32.082h7.17c0.4,0,0.725-0.327,0.725-0.73v-7.215c0-0.402-0.325-0.73-0.725-0.73h-7.17
	c-0.401,0-0.726,0.327-0.726,0.73v7.215C16.854,31.754,17.179,32.082,17.58,32.082z M17.3,31.532
	c0.027-0.033,0.089-0.089,0.166-0.157c-0.002-0.008-0.01-0.014-0.01-0.023v-7.215c0-0.068,0.055-0.124,0.124-0.124h7.17
	c0.068,0,0.123,0.056,0.123,0.124v7.215c0,0.068-0.056,0.124-0.123,0.124h-5.152l-0.093,0.118l-0.018,0.185h-0.687
	c-0.056-0.172-0.091-0.262-0.107-0.302h-0.119c-0.09,0.069-0.254,0.195-0.388,0.302h-0.7c-0.104,0-0.199-0.037-0.272-0.1
	C17.234,31.629,17.262,31.577,17.3,31.532z M32.617,23.974h-0.045c0.002-0.019,0.025-0.022,0.035-0.042
	c0.013,0.008,0.026,0.017,0.038,0.025C32.644,23.958,32.629,23.967,32.617,23.974z M27.087,32.042h7.17
	c0.4,0,0.725-0.327,0.725-0.73v-7.214c0-0.402-0.325-0.729-0.725-0.729h-7.17c-0.4,0-0.725,0.327-0.725,0.729v7.214
	C26.361,31.715,26.687,32.042,27.087,32.042z M33.188,23.672l-0.008,0.011c-0.015-0.004-0.026-0.007-0.039-0.011H33.188z
	 M32.071,23.672l-0.006,0.009c-0.016-0.004-0.026-0.006-0.036-0.009H32.071z M26.615,29.166c0.025-0.064,0.053-0.134,0.083-0.211
	c0.051-0.133,0.156-0.301,0.266-0.426v-4.431c0-0.069,0.055-0.124,0.124-0.124h4.922c0.004-0.007,0.009-0.014,0.013-0.021
	c-0.041-0.096,0.011-0.188,0.081-0.282h0.697c-0.021,0.018-0.019,0.004-0.024,0.045c0.009,0.027,0.001,0.009,0.025,0.043
	c0.017-0.025,0.033-0.05,0.05-0.076l-0.019-0.012h0.163c-0.051,0.053-0.103,0.1-0.15,0.145c-0.031,0.052-0.062,0.104-0.093,0.157
	h1.503c0.068,0,0.124,0.056,0.124,0.124v3.262c0.049,0.075,0.1,0.148,0.135,0.231c0.068,0.161,0.16,0.478,0.082,0.718
	c-0.007-0.009-0.003-0.003-0.009-0.018c-0.041-0.046-0.041-0.098-0.11-0.12c-0.011,0.095-0.05,0.186-0.099,0.274v2.867
	c0,0.069-0.056,0.125-0.124,0.125h-4.463c-0.502,0.411-0.824,0.328-1.508,0.078c-0.051-0.019-0.106-0.054-0.158-0.078h-1.039
	c-0.069,0-0.124-0.056-0.124-0.125v-0.72c-0.142-0.151-0.265-0.304-0.348-0.45V29.166z M32.98,23.905
	c-0.035-0.009-0.041-0.008-0.088-0.031c0.016-0.064,0.048-0.113,0.1-0.152C33.056,23.795,33.047,23.806,32.98,23.905z
	 M32.286,23.718c-0.005,0.004-0.087,0.053-0.075,0.032c-0.023-0.046,0.024-0.031,0.038-0.057
	C32.261,23.701,32.273,23.709,32.286,23.718z M27.095,22.584h7.17c0.4,0,0.725-0.327,0.725-0.729V14.64
	c0-0.402-0.326-0.729-0.725-0.729h-7.17c-0.4,0-0.726,0.327-0.726,0.729v7.215C26.369,22.257,26.695,22.584,27.095,22.584z
	 M26.971,14.64c0-0.068,0.056-0.124,0.124-0.124h7.17c0.068,0,0.124,0.056,0.124,0.124v7.215c0,0.068-0.056,0.124-0.124,0.124
	h-1.779c-0.029,0.096-0.051,0.167-0.051,0.167l-0.017,0.136h-0.479c0.008-0.033,0.014-0.065,0.014-0.095
	c0-0.054-0.006-0.131-0.012-0.208h-0.905c0.001,0.015,0.001,0.036,0.001,0.036l-0.116,0.116c0,0-0.032,0.077-0.046,0.151h-0.241
	c0.002-0.082,0.001-0.156,0.001-0.156l-0.05,0.006l-0.037-0.152h-0.019l-0.094,0.243c0,0-0.008,0.022-0.014,0.059h-0.245
	l0.003-0.065c0,0-0.111-0.071-0.111-0.146v-0.091H29.4v0.163c0,0,0.042,0.068,0.072,0.14h-0.628
	c-0.02-0.061-0.062-0.176-0.108-0.303h-1.641c-0.068,0-0.124-0.056-0.124-0.124V14.64z M17.876,18.188
	c0.002-0.002,0.012,0.001,0.029,0.003v4.105h0.197c0.033,0.093-0.009,0.129-0.076,0.162c-0.047,0.023-0.106,0.06-0.12,0.104
	c-0.021,0.061-0.005,0.134-0.005,0.202h2.829c0.044-0.162,0.007-0.274-0.153-0.334c-0.035-0.013-0.051-0.074-0.076-0.113
	c0.008-0.008,0.016-0.017,0.025-0.026h4.159v-4.114c0.076,0.066,0.134,0.159,0.205,0.169c0.162,0.024,0.33,0.007,0.521,0.007
	c-1.41-1.398-2.801-2.776-4.196-4.159c-1.341,1.386-2.674,2.764-4.025,4.161c0.098,0,0.169-0.006,0.239,0
	C17.606,18.375,17.768,18.357,17.876,18.188z M24.364,21.129h-3.642c-0.002-0.03-0.004-0.052-0.004-0.077
	c-0.002-0.156,0.035-0.197,0.192-0.208c0.021-0.001,0.041,0,0.062,0c1.047,0,2.095-0.001,3.143,0c0.034,0,0.07-0.003,0.103,0.004
	C24.372,20.884,24.383,20.904,24.364,21.129z M22.612,18.835h1.57v1.877h-1.57V18.835z M22.448,20.716h-1.454v-1.882h1.454V20.716z
	 M20.184,17.278h0.442c0.002-0.05,0.005-0.087,0.006-0.124c0.002-0.242-0.002-0.484,0.008-0.726
	c0.011-0.295,0.253-0.583,0.512-0.626c0.316-0.052,0.612,0.142,0.7,0.47c0.028,0.103,0.039,0.211,0.042,0.317
	c0.006,0.224,0.002,0.447,0.002,0.688h0.44v0.145h-2.152V17.278z M18.344,18.833h2.001v1.33c-0.032,0.002-0.062,0.006-0.092,0.005
	c-0.1-0.003-0.158,0.044-0.194,0.137c-0.011,0.029-0.053,0.064-0.082,0.065c-0.531,0.003-1.063,0.002-1.595,0.001
	c-0.01,0-0.02-0.004-0.038-0.008V18.833z M18.343,20.533c0.039-0.001,0.075-0.004,0.112-0.004c0.494,0,0.989,0,1.484-0.001
	c0.068,0,0.113,0.005,0.135,0.086c0.019,0.071,0.076,0.112,0.157,0.106c0.037-0.003,0.074,0,0.115,0v1.348h-2.003V20.533z
	 M23.077,15.765c-0.007-0.209-0.003-0.42-0.003-0.641h1.184v1.893c-0.027-0.023-0.05-0.041-0.07-0.061
	c-0.35-0.346-0.7-0.692-1.046-1.041C23.106,15.878,23.079,15.816,23.077,15.765z M22.923,14.817h1.474
	c-0.02,0.113,0.041,0.232-0.059,0.356c-0.012-0.055-0.018-0.081-0.025-0.109h-1.279c-0.003,0.039-0.006,0.076-0.009,0.113
	C22.896,15.131,22.88,15.076,22.923,14.817z M18.185,31.778c0.135-0.108,0.298-0.234,0.388-0.302
	c0.039-0.03,0.068-0.052,0.068-0.052l0.035,0.013c0,0,0.011,0.027,0.015,0.039c0.016,0.041,0.051,0.13,0.107,0.302h0.687
	l0.018-0.185l0.093-0.118l0.12-0.151c0,0,0.09-0.035,0.279-0.076c0.188-0.041,0.797-0.043,1.181-0.069
	c0.385-0.025,0.623-0.126,0.623-0.126l0.271,0.006c0,0,0.056,0.012,0.206-0.09c0.151-0.101,0.289-0.291,0.289-0.291l0.003-0.298
	l-0.184-0.233c0,0-0.173-0.324-0.379-0.548c-0.206-0.225-0.83-0.734-0.83-0.734l0.005-0.157c0,0,0.219-0.116,0.42-0.273
	c0.201-0.157,0.357-0.313,0.357-0.313s0.233-0.119,0.332-0.212c0.098-0.094,0.369-0.385,0.369-0.385s0.229,0.368,0.545,0.582
	c0.316,0.215,0.36,0.176,0.36,0.176l0.294,0.191c0,0,0.242,0.08,0.339,0.053c0.098-0.029,0.118-0.162,0.118-0.162
	s0.091-0.628,0.11-0.764c0.021-0.136,0.021-0.753,0.021-0.753l0.035-0.099l-0.025-0.119c0,0,0.048-0.19,0.048-0.253
	c0-0.064-0.053-0.218-0.053-0.218l-0.038-0.368c0,0-0.034-0.074-0.07-0.072c-0.035,0.003,0.006,0.348-0.015,0.348h-0.043
	l-0.022-0.325c0,0-0.053-0.167-0.085-0.167c-0.033,0-0.023,0.15-0.023,0.15s0.023,0.293,0.005,0.29
	c-0.018-0.002-0.093-0.427-0.093-0.427s-0.032-0.058-0.07-0.056c-0.037,0.002-0.03,0.066-0.03,0.066s0.088,0.469,0.078,0.469
	c-0.01,0-0.073-0.117-0.085-0.148c-0.013-0.03-0.051-0.215-0.051-0.215l-0.035-0.065l-0.03-0.203l-0.207-0.233
	c0,0-0.004-0.08-0.07-0.126c-0.065-0.045-0.191-0.01-0.191-0.01s0.02-0.015-0.12-0.065c-0.141-0.05-0.437,0.167-0.548,0.238
	c-0.111,0.071-0.176,0.365-0.176,0.365l-0.066-0.036l0.015,0.056l-0.075-0.005l0.045,0.056l-0.051,0.02l0.026,0.051l-0.03,0.081
	l-0.045-0.005c0,0-0.045-0.187-0.171-0.318c-0.126-0.131-0.387-0.162-0.387-0.162s-0.161-0.237-0.261-0.329
	c-0.1-0.09-0.276-0.177-0.276-0.177s-0.166-0.188-0.237-0.238c-0.07-0.051-0.241-0.147-0.241-0.147l-0.106-0.06
	c0,0-0.533-0.005-0.779,0.02c-0.247,0.025-0.75,0.136-0.75,0.136s-0.357,0.005-0.402,0.005s-0.317,0.071-0.317,0.071
	s-0.12-0.041-0.186-0.031c-0.065,0.011-0.091,0.117-0.091,0.117s-0.065-0.005-0.115,0.015c-0.051,0.021-0.081,0.086-0.081,0.086
	v0.142c0,0-0.085,0.005-0.125,0.03c-0.04,0.025-0.095,0.117-0.08,0.161c0.015,0.046,0.095,0.021,0.095,0.021
	s0.121-0.101,0.176-0.122c0.055-0.02,0.226-0.02,0.226-0.02l-0.01,0.051c0,0-0.393,0.243-0.387,0.283
	c0.005,0.041,0.065,0.025,0.065,0.025l0.512-0.238c0,0,0.156,0,0.181,0.051c0.025,0.052-0.005,0.097-0.005,0.097
	s-0.125,0.202-0.125,0.273c0,0.07,0.106,0.11,0.106,0.11l0.075-0.177l0.125-0.152c0,0,0.07-0.035,0.101-0.081
	c0.029-0.045,0.181-0.329,0.181-0.329s0.467,0.041,0.748,0.036c0.282-0.005,0.669-0.005,0.669-0.005s0.106,0.193,0.216,0.339
	c0.11,0.147,0.312,0.309,0.312,0.309l0.302,0.329c0,0-0.568,0.611-0.649,0.723c-0.08,0.111-0.201,0.394-0.241,0.47
	c-0.04,0.077-0.196,0.298-0.196,0.298l-0.035,0.137c0,0-0.352,0.228-0.442,0.278c-0.091,0.051-0.096,0.132-0.096,0.132l-0.161,0.085
	l-0.01,0.061c0,0-0.085,0.051-0.135,0.106c-0.051,0.056-0.021,0.102-0.021,0.102s-0.115,0.177-0.186,0.323
	c-0.07,0.147-0.075,0.405-0.075,0.405s-0.045,0.015-0.071,0.065c-0.025,0.051-0.035,0.122-0.035,0.122s-0.282,0.293-0.463,0.627
	c-0.181,0.335-0.266,0.79-0.372,0.916c-0.078,0.094-0.436,0.385-0.658,0.581c-0.077,0.068-0.139,0.125-0.166,0.157
	c-0.037,0.045-0.066,0.097-0.087,0.147c0.074,0.062,0.169,0.1,0.272,0.1H18.185z M23.776,25.983
	c0.045-0.019,0.102,0.049,0.102,0.049l0.053,0.121l-0.011,0.179L23.757,26.1C23.757,26.1,23.731,26.002,23.776,25.983z
	 M22.743,26.635c0.03-0.014,0.08-0.011,0.08-0.011l0.147,0.167c0,0,0.022,0.015,0.064,0.015c0.041,0,0.106-0.103,0.106-0.103
	l0.064-0.011l0.012-0.054h0.079l0.026-0.048l0.15-0.004l0.038-0.3c0,0,0.041-0.004,0.087-0.03c0.045-0.027,0.082-0.057,0.082-0.057
	s0.071,0.242,0.139,0.322c0.068,0.079,0.242,0.197,0.242,0.197l-0.026,0.653c0,0-0.06,0.073-0.102,0.159
	c-0.041,0.087-0.033,0.209-0.033,0.209l-0.268-0.205c-0.151-0.09-0.272-0.099-0.272-0.099s-0.019-0.223-0.17-0.39
	c-0.151-0.167-0.351-0.24-0.351-0.24l-0.098-0.11C22.739,26.696,22.713,26.651,22.743,26.635z M19.711,30.361
	c0.14-0.147,0.374-0.474,0.374-0.474s0.218,0.162,0.433,0.22c0.215,0.057,0.61,0.155,0.61,0.155s-0.407,0.236-0.871,0.377
	c-0.464,0.14-1.025,0.174-1.025,0.174S19.572,30.509,19.711,30.361z M32.902,20.764c0.035-0.142,0.02-0.299,0.02-0.299
	s0.04-0.071,0.075-0.207c0.035-0.137,0.075-0.258,0.075-0.258l0.317-0.116c0,0-0.005-0.061-0.045-0.128
	c-0.04-0.065-0.05-0.142-0.05-0.142l0.04-0.257l0.046,0.036c0,0,0.111-0.158,0.131-0.259c0.02-0.1,0.031-0.252,0.031-0.252
	s0.086-0.239,0.151-0.502c0.065-0.264,0.03-0.759,0.03-0.759s-0.11-0.385-0.141-0.481c-0.03-0.096-0.196-0.486-0.196-0.486
	l0.04-0.025c0,0-0.091-0.127-0.191-0.202c-0.1-0.077-0.206-0.132-0.206-0.132l-0.071-0.177l0.045-0.006c0,0-0.135-0.243-0.241-0.395
	c-0.106-0.152-0.226-0.4-0.463-0.41c-0.236-0.01-0.392,0.168-0.453,0.233c-0.06,0.066-0.085,0.147-0.106,0.234
	c-0.02,0.085-0.07,0.172-0.07,0.172l0.015,0.025c0,0-0.05,0.178-0.086,0.274c-0.035,0.096-0.03,0.238-0.03,0.238
	s-0.025,0.03-0.066,0.071c-0.04,0.04-0.11,0.086-0.11,0.086s0.04,0.051,0.051,0.116c0.01,0.066-0.01,0.081-0.01,0.081
	s-0.076,0.172-0.116,0.298c-0.04,0.127-0.03,0.223-0.03,0.223l-0.06,0.197c0,0-0.13,0.416-0.151,0.552
	c-0.02,0.137,0.075,0.481,0.075,0.481l-0.005,0.202c0,0-0.05,0.081-0.05,0.208c0,0.126,0.05,0.197,0.05,0.197
	s-0.01,0.096-0.015,0.248c-0.005,0.152-0.07,0.273-0.07,0.273l-0.035,0.016c0,0-0.04,0.055-0.085,0.101
	c-0.045,0.045-0.141,0.051-0.141,0.051l0.01-0.036c0,0,0.06,0,0.101-0.031c0.04-0.03,0.05-0.09,0.05-0.09s0.055-0.263,0.045-0.37
	c-0.01-0.106-0.156-0.157-0.207-0.173c-0.05-0.014-0.151,0.026-0.151,0.026l-0.03-0.005h-0.085c0,0-0.126,0.127-0.136,0.294
	c-0.01,0.157,0.119,0.291,0.134,0.307l-0.199-0.165l-0.025,0.01c0,0-0.005-0.178,0.04-0.299c0.046-0.121,0.156-0.238,0.156-0.238
	l0.04-0.015c0,0-0.005-0.178-0.02-0.238c-0.015-0.061-0.141-0.238-0.141-0.238s-0.005-0.446-0.036-0.643
	c-0.03-0.197-0.196-0.597-0.196-0.597s0.015-0.259,0.02-0.39c0.005-0.131-0.02-0.445-0.07-0.556
	c-0.051-0.112-0.142-0.148-0.142-0.148l-0.297-0.167c0,0,0.08-0.046,0.141-0.096c0.06-0.051,0.166-0.188,0.166-0.188l0.066,0.051
	l0.01-0.075c0,0,0.056-0.091,0.06-0.198c0.005-0.106-0.096-0.253-0.096-0.253l0.03-0.02c0,0-0.156-0.178-0.206-0.203
	c-0.05-0.025-0.121-0.116-0.438-0.116c-0.317,0-0.357,0.384-0.382,0.476c-0.026,0.091-0.041,0.167-0.041,0.167l0.061-0.021
	c0,0-0.04,0.086-0.091,0.137c-0.05,0.051-0.156,0.072-0.156,0.072l-0.297,0.021c0,0-0.11-0.01-0.266,0.081
	c-0.156,0.091-0.176,0.182-0.176,0.182s-0.221,0.441-0.262,0.557c-0.04,0.116-0.046,0.298-0.046,0.298s-0.181,0.304-0.206,0.704
	c-0.025,0.4,0.151,0.735,0.136,0.927c-0.015,0.192,0.04,0.46,0.081,0.547c0.041,0.085,0.236,0.258,0.292,0.237
	c0.055-0.02-0.03-0.177-0.06-0.218c-0.031-0.04-0.021-0.192-0.021-0.192s0.126,0.213,0.171,0.187
	c0.045-0.025-0.05-0.136-0.085-0.218c-0.035-0.08-0.121-0.268-0.121-0.268s-0.015-0.086-0.03-0.182
	c-0.015-0.097,0.025-0.309,0.04-0.44c0.015-0.132,0.015-0.659,0.03-0.719c0.015-0.061,0.091-0.157,0.146-0.238
	c0.056-0.081,0.081-0.188,0.081-0.188l0.045-0.005c0,0-0.015,0.596-0.02,0.657c-0.005,0.061-0.085,0.198-0.091,0.289
	c-0.004,0.091,0.126,0.324,0.126,0.324s0,0.426-0.005,0.588c-0.005,0.161,0.046,0.572,0.061,0.674
	c0.015,0.101,0.015,0.46,0.03,0.617c0.015,0.158,0.111,0.389,0.136,0.557c0.025,0.166,0,0.415,0.035,0.642
	c0.021,0.135,0.134,0.451,0.226,0.704c0.046,0.127,0.088,0.242,0.108,0.303h0.628c-0.03-0.072-0.072-0.14-0.072-0.14v-0.163v-0.071
	c0,0,0.121-0.309,0.191-0.446c0.071-0.136,0.237-0.622,0.272-0.87c0.035-0.248,0.05-1.6,0.035-1.731
	c-0.015-0.132-0.075-0.415-0.075-0.415l-0.005-0.262l0.01-0.188c0,0-0.075-0.182-0.121-0.299c-0.045-0.116-0.035-0.369-0.035-0.369
	l0.066-0.086l0.166,0.491c0,0-0.005,0.082,0.021,0.172c0.025,0.092,0.08,0.269,0.13,0.344c0.05,0.077,0.176,0.511,0.176,0.511
	l-0.06,0.162l0.025,0.041v0.111l0.031,0.03c0,0-0.125,0.416-0.136,0.502c-0.01,0.086,0.066,0.172,0.066,0.172
	s-0.005,0.107,0.005,0.168c0.01,0.061,0.076,0.232,0.076,0.232s0.005,0.071,0,0.238c-0.005,0.167-0.065,0.43-0.08,0.577
	c-0.015,0.147-0.02,0.42-0.03,0.491c-0.01,0.071-0.06,0.213-0.06,0.213v0.283v0.091c0,0.076,0.111,0.146,0.111,0.146l-0.003,0.065
	h0.245c0.006-0.037,0.014-0.059,0.014-0.059l0.094-0.243l0.012-0.031l0.007,0.031l0.037,0.152l0.05-0.006
	c0,0,0.002,0.074-0.001,0.156h0.241c0.014-0.074,0.046-0.151,0.046-0.151l0.116-0.116c0,0-0.001-0.021-0.001-0.036
	c-0.003-0.082-0.012-0.337-0.029-0.46c-0.02-0.147-0.025-0.602-0.025-0.602s0.045-0.127,0.081-0.329
	c0.035-0.203,0.04-0.405,0.04-0.405s0.04-0.05,0.081-0.111c0.04-0.061,0.07-0.217,0.07-0.217l-0.025-0.036
	c0,0,0.056-0.101,0.071-0.203c0.015-0.1,0.04-0.323,0.04-0.323l0.075,0.132c0,0,0.015-0.03,0.03-0.086
	c0.015-0.055,0.01-0.187-0.035-0.298c-0.045-0.111-0.111-0.208-0.111-0.208l0.01-0.192c0,0,0.07-0.157,0.106-0.381
	c0.035-0.222,0.05-0.262,0.071-0.444c0.02-0.182,0.201-0.704,0.201-0.704s0.126,0.597,0.126,0.83c0,0.233-0.176,0.724-0.181,0.917
	c-0.004,0.192,0.046,0.481,0.06,0.658c0.015,0.178,0.021,0.334,0.021,0.334s0.01,0.06,0.045,0.091
	c0.035,0.031,0.066,0.051,0.066,0.051s-0.02,0.896,0,1.174c0.02,0.278,0.091,0.536,0.091,0.536s0.016,0.139,0.028,0.278
	c0.006,0.077,0.012,0.154,0.012,0.208c0,0.03-0.005,0.063-0.014,0.095h0.479l0.017-0.136c0,0,0.022-0.071,0.051-0.167
	c0.052-0.17,0.129-0.42,0.155-0.5C32.681,21.351,32.868,20.905,32.902,20.764z M33.38,17.731c0.021,0.157-0.005,0.744-0.005,0.744
	s-0.035-0.222-0.086-0.309c-0.05-0.086-0.065-0.153-0.08-0.33c-0.016-0.177-0.041-0.505-0.041-0.505S33.36,17.574,33.38,17.731z
	 M29.023,19.519c0,0,0.221,0.546,0.216,0.784c-0.005,0.238-0.181,0.694-0.181,0.694s-0.035-0.516-0.04-0.688
	C29.013,20.136,29.023,19.519,29.023,19.519z M32.273,20.647c0.03-0.116,0.086-0.324,0.086-0.324l0.015-0.349l0.071-0.041
	l-0.075,0.446c0,0,0.05,0.213,0.035,0.339c-0.015,0.127-0.136,0.466-0.136,0.466S32.243,20.764,32.273,20.647z M32.773,24.179
	c-0.026-0.017-0.05-0.033-0.076-0.051c0.011-0.044,0.031-0.086,0.068-0.145c0.032,0.021,0.064,0.042,0.095,0.063
	C32.832,24.09,32.802,24.134,32.773,24.179z M32.991,23.722c0.064,0.073,0.055,0.084-0.011,0.183
	c-0.035-0.009-0.041-0.008-0.088-0.031C32.907,23.81,32.939,23.761,32.991,23.722z M33.18,23.683
	c-0.015-0.004-0.026-0.007-0.039-0.011h0.047L33.18,23.683z M32.065,23.68c-0.016-0.004-0.026-0.006-0.036-0.009h0.042L32.065,23.68
	z M26.963,30.593c0.322,0.344,0.755,0.66,1.163,0.844c0.053,0.024,0.107,0.059,0.158,0.078c0.685,0.25,1.006,0.333,1.508-0.078
	c0.05-0.041,0.099-0.081,0.153-0.132c0.088-0.083,0.241-0.222,0.301-0.375c0.061-0.159,0.151-0.323,0.18-0.482
	c0.079-0.421-0.069-0.871-0.113-1.279c0.183-0.201,0.602-0.319,0.838-0.61c-0.045-0.06-0.094-0.118-0.123-0.186
	c-0.018-0.067-0.037-0.135-0.055-0.202c-0.054,0.026-0.094,0.073-0.11,0.138c-0.007-0.009-0.003-0.003-0.009-0.018
	c-0.029-0.043-0.019-0.144-0.019-0.212c0-0.099,0.009-0.187,0.025-0.269c-0.072,0.046-0.141,0.098-0.206,0.133
	c-0.041-0.009-0.021-0.009-0.05-0.006c-0.19-0.139-0.187-0.283-0.254-0.442c0.359-0.548,0.718-1.095,1.077-1.641
	c-0.014-0.001-0.018-0.013-0.033-0.012v-0.331c0.09-0.001,0.164,0.016,0.232,0.039c0.112-0.171,0.225-0.343,0.337-0.514
	c0.144-0.219,0.413-0.782,0.614-0.769c0.059-0.097,0.117-0.196,0.175-0.294c0.031-0.052,0.062-0.104,0.093-0.157
	c0.047-0.046,0.099-0.093,0.15-0.145h-0.163l0.019,0.012c-0.017,0.025-0.033,0.051-0.05,0.076c-0.024-0.034-0.016-0.015-0.025-0.043
	c0.005-0.041,0.003-0.027,0.024-0.045h-0.697c-0.07,0.094-0.123,0.186-0.081,0.282c-0.004,0.007-0.009,0.014-0.013,0.021
	c-0.579,0.883-1.159,1.766-1.738,2.648c-0.125,0.19-0.25,0.381-0.375,0.571c-0.066,0.042-0.184-0.007-0.265-0.011
	c-0.067-0.004-0.172-0.004-0.208-0.057c-0.161-0.163,0.057-0.362-0.06-0.531c-0.027-0.076-0.109-0.133-0.189-0.127
	c-0.106-0.021-0.154,0.032-0.245,0.083c-0.465,0.262-0.332,0.829-0.379,1.199c-0.044,0.081-0.087,0.161-0.132,0.241
	c-0.126,0.027-0.244,0.087-0.371,0.109c-0.33,0.06-0.676,0.082-0.968,0.314c-0.038,0.03-0.077,0.07-0.117,0.114
	c-0.109,0.125-0.215,0.293-0.266,0.426c-0.029,0.077-0.057,0.147-0.083,0.211v0.977C26.698,30.289,26.821,30.442,26.963,30.593z
	 M32.248,23.693c0.013,0.008,0.025,0.017,0.038,0.025c-0.005,0.004-0.087,0.053-0.075,0.032
	C32.188,23.704,32.234,23.719,32.248,23.693z M32.608,23.932c0.013,0.008,0.026,0.017,0.038,0.025
	c-0.002,0.001-0.017,0.01-0.029,0.017c-0.025,0.014-0.055,0.03-0.047,0.016c-0.005-0.01,0.002-0.011,0.002-0.016
	C32.575,23.955,32.597,23.952,32.608,23.932z M29.281,30.453c0.012-0.02,0.025-0.039,0.038-0.057
	c0.032-0.004,0.001,0.003,0.031-0.007c0.04,0.036,0.041,0.04,0.063,0.07c-0.019,0.014-0.038,0.029-0.056,0.044
	C29.332,30.487,29.306,30.47,29.281,30.453z M29.607,30.122c-0.013-0.008-0.025-0.016-0.038-0.025c-0.004-0.032,0.003,0-0.007-0.032
	c0.035-0.039,0.04-0.041,0.07-0.064c0.034,0.043,0.029,0.048,0.05,0.089C29.657,30.101,29.632,30.112,29.607,30.122z M29.724,30.857
	c-0.017,0.025-0.034,0.051-0.05,0.076c-0.006-0.004-0.012-0.008-0.019-0.013c-0.03,0.003-0.009,0.004-0.05-0.006
	c-0.004-0.032,0.003,0-0.007-0.032c0.033-0.034,0.029-0.033,0.057-0.044C29.684,30.838,29.68,30.838,29.724,30.857z M29.993,30.488
	c-0.034,0.025-0.016,0.016-0.044,0.025c-0.029,0.003-0.009,0.004-0.05-0.006c0.004-0.006,0.008-0.012,0.013-0.019
	c0.006-0.049,0.001-0.019,0.037-0.057C29.964,30.45,29.978,30.469,29.993,30.488z M29.288,27.912
	c0.215,0.143,0.429,0.286,0.645,0.429c-0.029,0.045-0.058,0.089-0.087,0.133c-0.215-0.142-0.43-0.285-0.645-0.428
	C29.23,28.001,29.259,27.956,29.288,27.912z M28.85,28.579c0.214,0.143,0.429,0.286,0.644,0.429
	c-0.037,0.057-0.075,0.114-0.113,0.172c-0.214-0.143-0.429-0.286-0.645-0.429C28.775,28.694,28.813,28.636,28.85,28.579z
	 M27.981,29.945c0.057-0.162,0.185-0.3,0.187-0.451c0.008-0.013,0.017-0.025,0.025-0.038c0.246,0.164,0.493,0.328,0.739,0.491
	c-0.287,0.363-0.666,0.607-0.927,0.999c-0.032,0.004-0.001-0.003-0.032,0.006c-0.101-0.067-0.202-0.134-0.304-0.201
	C27.772,30.488,27.892,30.203,27.981,29.945z M33.866,26.239c0.058,0.001,0.069-0.008,0.1-0.028c0.001-0.061-0.007-0.078-0.028-0.11
	c-0.06-0.002-0.086,0.001-0.1,0.046h-0.055c-0.003-0.194,0.085-0.308,0.283-0.304v-0.331c-0.409-0.006-0.575,0.256-0.595,0.635
	h-0.467c0.003-0.061,0.039-0.111,0.018-0.147c-0.003-0.009-0.006-0.018-0.009-0.028c-0.043,0-0.058,0.005-0.083,0.019
	c0.003,0.074,0.028,0.077,0.028,0.156h-0.091c-0.002-0.058,0-0.073,0.036-0.092c0-0.044-0.005-0.059-0.018-0.083
	c-0.044,0-0.058,0.005-0.083,0.019c0.003,0.074,0.028,0.076,0.028,0.156H32.75c-0.002-0.051-0.001-0.072,0.028-0.092
	c0-0.044-0.005-0.059-0.018-0.083c-0.044,0-0.058,0.005-0.083,0.019c0.003,0.074,0.028,0.076,0.028,0.156h-0.091
	c-0.003-0.051-0.004-0.074,0.027-0.092c0-0.044-0.005-0.059-0.018-0.083c-0.044,0-0.058,0.005-0.082,0.019
	c0.002,0.074,0.027,0.076,0.028,0.156h-0.092c0.003-0.065,0.049-0.108,0.027-0.147c-0.003-0.009-0.005-0.018-0.008-0.028
	c-0.027,0-0.05,0-0.064,0.01h-0.019c0.002,0.082,0.027,0.085,0.028,0.165h-0.457c-0.009-0.296-0.119-0.513-0.354-0.596
	c-0.068-0.024-0.142-0.04-0.232-0.039v0.331c0.015,0,0.019,0.011,0.033,0.012c0.161,0.014,0.246,0.117,0.242,0.292
	c-0.056-0.001-0.06-0.014-0.082-0.046c-0.027,0-0.05,0-0.065,0.009c-0.009,0.003-0.018,0.006-0.027,0.009
	c-0.006,0.026-0.016,0.06,0,0.083c0.003,0.009,0.006,0.018,0.009,0.028c0.025,0.005,0.048,0.009,0.083,0.009
	c0.015-0.017,0.025-0.023,0.036-0.045h0.046c-0.003,0.17-0.066,0.294-0.119,0.414c-0.168,0.385-0.472,0.617-0.631,1.003
	c-0.026,0.063-0.044,0.13-0.058,0.202c-0.016,0.082-0.025,0.169-0.025,0.269c0,0.067-0.01,0.168,0.019,0.212
	c0.006,0.015,0.002,0.009,0.009,0.018c0.016-0.065,0.056-0.111,0.11-0.138c0.018,0.067,0.036,0.135,0.055,0.202
	c0.029,0.068,0.078,0.126,0.123,0.186c0.088,0.116,0.191,0.221,0.307,0.293c0.059,0.036,0.142,0.064,0.21,0.083
	c0.039,0.01,0.089-0.001,0.119,0.018h0.101c-0.044,0.087-0.151,0.225-0.164,0.322h2.013c-0.045-0.093-0.096-0.228-0.165-0.303
	c0.021-0.031,0.048-0.009,0.092-0.019c0.089-0.019,0.179-0.031,0.256-0.064c0.167-0.073,0.349-0.244,0.46-0.444
	c0.049-0.088,0.087-0.18,0.099-0.274c0.068,0.022,0.068,0.074,0.11,0.12c0.006,0.015,0.002,0.009,0.009,0.018
	c0.077-0.241-0.014-0.557-0.082-0.718c-0.035-0.083-0.087-0.156-0.135-0.231c-0.233-0.357-0.57-0.654-0.597-1.167
	C33.835,26.195,33.843,26.21,33.866,26.239z M32.438,28.613c-0.085,0.01-0.19,0.037-0.274,0.018
	c-0.062-0.013-0.104,0.001-0.156-0.018c-0.152-0.058-0.304-0.209-0.366-0.359c-0.063-0.153-0.04-0.423,0-0.58
	c0.042-0.165,0.059-0.305,0.11-0.46c0.061-0.186,0.13-0.378,0.183-0.57c0.038-0.137,0.048-0.286,0.046-0.45h0.457V28.613z
	 M32.567,28.577h-0.01c-0.015,0.012-0.046,0.015-0.064,0.028h-0.018v-2.411h0.092V28.577z M32.704,28.502
	c-0.028,0.019-0.055,0.037-0.082,0.056h-0.009v-2.365h0.091V28.502z M32.832,28.549c-0.037-0.011-0.053-0.029-0.082-0.047v-2.309
	h0.082V28.549z M32.96,28.605c-0.022-0.009-0.055-0.015-0.073-0.028h-0.018v-2.383h0.091V28.605z M33.802,28.244
	c-0.064,0.17-0.191,0.306-0.357,0.369c-0.048,0.018-0.083,0.005-0.137,0.018c-0.07,0.017-0.229,0.019-0.284-0.018h-0.018v-2.42
	h0.467c0.006,0.342,0.098,0.599,0.183,0.855c0.051,0.155,0.071,0.301,0.119,0.461C33.835,27.71,33.881,28.036,33.802,28.244z
	 M14.973,44.823h2.168v3.038h-0.378v-2.687h-1.411v2.687h-0.378V44.823z M17.362,47.861h0.403l0.347-0.761h1.389l0.346,0.761h0.407
	l-1.449-3.168L17.362,47.861z M19.343,46.753h-1.075l0.539-1.229L19.343,46.753z M20.929,44.823h-0.498v3.038h0.378v-1.273h0.231
	c0.33,0,0.587-0.079,0.77-0.237c0.183-0.158,0.274-0.381,0.274-0.67C22.085,45.109,21.7,44.823,20.929,44.823z M20.978,46.25h-0.168
	v-1.088h0.131c0.528,0,0.792,0.177,0.792,0.531C21.733,46.064,21.481,46.25,20.978,46.25z M23.228,46.254l1.414,1.607h-0.511
	l-1.291-1.515v1.515h-0.378v-3.038h0.378v1.346l1.283-1.346h0.491L23.228,46.254z M28.372,44.758c-0.431,0-0.803,0.157-1.116,0.47
	c-0.313,0.313-0.469,0.684-0.469,1.114c0,0.429,0.157,0.8,0.469,1.113c0.313,0.314,0.685,0.47,1.116,0.47
	c0.431,0,0.803-0.157,1.116-0.47c0.313-0.313,0.469-0.684,0.469-1.113c0-0.429-0.156-0.8-0.469-1.114
	C29.175,44.915,28.803,44.758,28.372,44.758z M29.23,47.217c-0.233,0.237-0.519,0.355-0.859,0.355c-0.339,0-0.625-0.118-0.858-0.355
	c-0.232-0.237-0.349-0.528-0.349-0.875c0-0.346,0.116-0.638,0.349-0.875c0.232-0.237,0.518-0.355,0.858-0.355
	c0.34,0,0.626,0.118,0.859,0.355c0.233,0.237,0.35,0.528,0.35,0.875C29.58,46.688,29.463,46.98,29.23,47.217z M29.826,44.823h1.872
	v0.346h-0.747v2.692h-0.378v-2.692h-0.747V44.823z M31.978,44.823h1.631v0.346h-1.252v0.85h1.211v0.346h-1.211v1.149h1.249v0.346
	h-1.627V44.823z M34.197,44.823h1.79v3.038h-0.378v-2.687h-1.047v1.769c0,0.321-0.035,0.552-0.104,0.691
	c-0.085,0.168-0.236,0.252-0.455,0.252c-0.079,0-0.169-0.011-0.268-0.032l0.057-0.354c0.068,0.021,0.116,0.031,0.145,0.031
	c0.094,0,0.159-0.037,0.196-0.11c0.043-0.085,0.065-0.245,0.065-0.478V44.823z M37.18,46.035h-0.296v-1.212h-0.378v3.038h0.674
	c0.344,0,0.609-0.082,0.796-0.246c0.184-0.16,0.276-0.383,0.276-0.669c0-0.283-0.092-0.505-0.276-0.665
	C37.788,46.117,37.523,46.035,37.18,46.035z M37.708,47.385c-0.106,0.084-0.281,0.126-0.527,0.126h-0.296v-1.125h0.296
	c0.463,0,0.694,0.187,0.694,0.561C37.874,47.152,37.819,47.298,37.708,47.385z M25.234,46.429h0.884v0.3h-0.884V46.429z"/>
</svg>
