<?xml version="1.0" encoding="utf-8"?>
<!-- Generator: Adobe Illustrator 16.0.0, SVG Export Plug-In . SVG Version: 6.00 Build 0)  -->
<!DOCTYPE svg PUBLIC "-//W3C//DTD SVG 1.1//EN" "http://www.w3.org/Graphics/SVG/1.1/DTD/svg11.dtd">
<svg version="1.1" id="Слой_1" xmlns="http://www.w3.org/2000/svg" xmlns:xlink="http://www.w3.org/1999/xlink" x="0px" y="0px"
	 width="115px" height="48px" viewBox="0 0 115 48" enable-background="new 0 0 115 48" xml:space="preserve">
<path fill="#969696" d="M20.715,32.927c0.131-0.2,1.752-1.156,2.851-0.357c0.844,0.589,1.726,0.622,2.291-0.206
	c1.239-1.815-1.125-2.502-0.875-1.375c-0.101,0.079-0.977,0.836-1.377-0.305c-0.555-1.578,1.744-2.404,2.791-1.669
	c1.054,0.741,1.02,2.31,1.055,2.326c1.049-0.09,0.724,0.854,1.04,1.333c-0.694,0.098-0.994,0.772-1.517,1.055
	c-0.435,0.23-1.066,0.872-2.377,0.556c-1.311-0.317-1.949-1.402-2.768-1.493C21.168,32.716,20.862,33.014,20.715,32.927z
	 M25.599,24.48c-0.187-0.168-0.309-0.276-0.447-0.401c-0.24,0.201-0.454,0.38-0.668,0.558l0.018,0.051
	C24.847,24.621,25.193,24.557,25.599,24.48z M25.953,5.565c-0.342,0.255-0.532,0.667-0.504,1.093
	c-0.019,0.756,0.447,1.043,1.086,0.705c0.089-0.043,0.174-0.097,0.255-0.157c0.528-0.434,0.796-1.195-0.122-1.661
	C26.447,5.412,26.167,5.42,25.953,5.565z M27.592,7.508C27.296,7.7,27,7.891,26.699,8.086c0.126,0.072,0.261,0.145,0.458,0.256
	c0.169-0.277,0.335-0.549,0.501-0.82L27.592,7.508z M27.354,10.933c0.026-0.203,0.043-0.325,0.067-0.502
	c-0.167,0.07-0.284,0.12-0.444,0.189C27.11,10.731,27.206,10.81,27.354,10.933z M22.794,24.243c0.678,0.257,1.441,0.146,2.017-0.293
	c0.128-0.09,0.17-0.26,0.105-0.4c-0.107-0.321-0.166-0.659-0.244-0.99l0.093-0.025c-0.013-0.161-0.068-0.314-0.159-0.447
	c-0.42-0.329-0.979-0.417-1.479-0.233c-0.167,0.078-0.31,0.212-0.478,0.287c-0.367,0.183-0.569,0.586-0.495,0.989
	C22.118,23.597,22.372,24.039,22.794,24.243z M19.568,23.523c-0.176-0.467-0.355-0.95-0.545-1.453
	c-0.281,0.15-0.574,0.305-0.889,0.471c0.361,0.255,0.728,0.515,1.099,0.772C19.35,23.396,19.474,23.466,19.568,23.523z M27.58,5.853
	C27.557,5.5,27.257,5.23,26.904,5.245C27.088,5.54,27.198,5.843,27.58,5.853z M24.047,6.615C23.754,6.463,23.4,6.504,23.15,6.718
	C23.125,6.732,23.1,6.75,23.08,6.771c-0.098,0.104-0.091,0.268,0.013,0.365C23.23,7.305,23.33,7.5,23.387,7.709
	c0,0.017,0.001,0.034,0.003,0.051c0.022,0.196,0.2,0.335,0.396,0.313c0.332,0.016,0.642-0.169,0.787-0.469
	C24.543,7.215,24.353,6.856,24.047,6.615z M26.213,24.125l0.21-0.012c0.235-0.332,0.39-0.714,0.452-1.117
	c0.002-0.54-0.384-1.003-0.914-1.1l0.05-0.13c0.197,0.054,0.395,0.108,0.593,0.162c0.106-0.401,0.037-0.49-0.351-0.448
	c-0.187,0.021-0.369,0.075-0.556,0.103c-0.022,0-0.044,0.003-0.067,0.005c-0.196,0.037-0.326,0.227-0.291,0.423
	c0.041,0.416,0.127,0.83,0.135,1.245C25.5,23.676,25.801,24.031,26.213,24.125z M27.471,20.416c0.248-0.182,0.451-0.416,0.596-0.688
	c0.257-0.52-0.005-1.065-0.498-1.033c-0.315,0.073-0.61,0.214-0.865,0.411c-0.027,0.115-0.029,0.235-0.006,0.353
	c0.064-0.047,0.134-0.085,0.208-0.115c0.101-0.017,0.201-0.027,0.304-0.031c-0.039,0.091-0.083,0.179-0.132,0.264
	c-0.065,0.059-0.12,0.127-0.161,0.205c-0.017,0.229-0.002,0.462,0,0.692C27.104,20.498,27.293,20.479,27.471,20.416z M26.535,21.194
	c0.088,0.041,0.176,0.079,0.281,0.128c0.121-0.152,0.217-0.276,0.322-0.405C26.683,20.793,26.68,20.795,26.535,21.194z
	 M27.958,16.629c0.022-0.271-0.134-0.524-0.386-0.626c-0.159-0.15-0.333-0.281-0.521-0.394c-0.242-0.003-0.479,0.06-0.69,0.181
	c-0.013,0.005-0.025,0.009-0.037,0.015c-0.26,0.113-0.377,0.414-0.265,0.671c0.125,0.333,0.288,0.654,0.462,1.046
	c-0.365-0.349-0.613-0.802-0.711-1.297c-0.054,0.099-0.094,0.208-0.118,0.318c-0.137,0.646,0.275,1.28,0.921,1.418
	c0.101,0.016,0.201,0.023,0.297,0.045c0.025,0.011,0.051,0.02,0.077,0.028c0.347,0.103,0.71-0.095,0.813-0.443
	C27.909,17.282,27.961,16.956,27.958,16.629z M27.278,15.275c0.253,0.222,0.508,0.444,0.732,0.64
	C27.943,15.558,27.64,15.294,27.278,15.275z M28.587,13.793c0.068-0.272-0.088-0.549-0.355-0.631c-0.128,0-0.257,0.021-0.377,0.064
	c-0.268-0.148-0.475-0.108-0.656,0.262c-0.113,0.263-0.198,0.538-0.251,0.817c-0.003,0.008-0.006,0.017-0.009,0.026
	c-0.067,0.204,0.045,0.425,0.249,0.491c0.208,0.081,0.438,0.086,0.65,0.016C28.234,14.622,28.509,14.237,28.587,13.793z
	 M21.949,21.958c0.254-0.073,0.504-0.144,0.752-0.216l0.012-0.084c-0.566-0.039-0.81-0.488-1.125-0.849l-0.105,0.008
	c-0.04,0.121-0.048,0.25-0.028,0.376C21.605,21.457,21.771,21.713,21.949,21.958z M18.709,15.34
	c-0.011-0.007-0.021-0.017-0.031-0.025c0.009,0.01,0.015,0.022,0.024,0.032L18.709,15.34z M17.178,15.007
	c-0.257,0.054-0.476,0.098-0.711,0.148C16.856,15.386,16.97,15.365,17.178,15.007z M21.938,10.488l-0.003,0.004
	c-0.169,0.177-0.162,0.458,0.016,0.627c0.083,0.104,0.149,0.219,0.199,0.342c0.008,0.024,0.017,0.048,0.028,0.072
	c0.145,0.304,0.509,0.433,0.813,0.288c0.385-1.105,0.217-1.085-0.025-1.546C22.661,9.69,22.133,10.245,21.938,10.488z
	 M14.001,17.126l-0.098,0.044c0.221,0.46,0.44,0.919,0.659,1.379C14.384,18.07,14.384,17.513,14.001,17.126z M17.882,13.571
	c0,0.329-0.008,0.634,0.005,0.939c0.005,0.091,0.045,0.176,0.108,0.24c0.22,0.197,0.454,0.377,0.683,0.564
	c-0.342-0.404-0.555-0.903-0.604-1.43C18.035,13.767,17.969,13.661,17.882,13.571z M14.217,12.472
	c-0.177-0.001-0.322,0.14-0.324,0.317c-0.065,0.303-0.074,0.613-0.027,0.919c0.052,0.298,0.229,0.562,0.482,0.725
	c0.283,0.08,0.431-0.309,0.542-0.574c0.026-0.075,0.046-0.151,0.057-0.229c0.001-0.405-0.178-0.788-0.49-1.045
	C14.399,12.515,14.31,12.474,14.217,12.472z M15.214,17.888c0.013-0.087-0.015-0.176-0.076-0.241
	c-0.238-0.073-0.48-0.134-0.725-0.182c0.222,0.578,0.411,1.075,0.618,1.618C15.101,18.646,15.167,18.267,15.214,17.888z
	 M18.184,21.934c0.193,0.109,0.438,0.048,0.559-0.138c0.212-0.224,0.254-0.561,0.103-0.831c-0.055-0.09-0.136-0.164-0.232-0.208
	c-0.249,0.102-0.316-0.13-0.465-0.204c-0.152-0.094-0.332-0.132-0.509-0.107c-0.136,0.077-0.253,0.187-0.34,0.318
	c-0.002,0.012-0.004,0.025-0.005,0.039C17.227,21.36,17.625,21.866,18.184,21.934z M15.636,16.842
	c0.362-0.52,0.019-1.349-0.702-1.628c0.118,0.228,0.223,0.436,0.326,0.639l-0.095,0.06c-0.103-0.145-0.215-0.283-0.305-0.434
	c-0.203-0.348-0.356-0.349-0.579-0.01c-0.173,0.337-0.2,0.73-0.074,1.088c0.005,0.31,0.226,0.573,0.528,0.636
	C15.081,17.281,15.444,17.14,15.636,16.842z M19.278,12.094c0.137,0.12,0.271,0.24,0.407,0.36l0.108-0.102
	c-0.137-0.121-0.273-0.245-0.409-0.367L19.278,12.094z M21.831,7.593c0.131,0.038,0.269,0.059,0.404,0.085l0.041-0.169
	c-0.144-0.03-0.29-0.061-0.434-0.09L21.831,7.593z M20.696,8.923c-0.101,0.332,0.076,0.686,0.403,0.805
	c0.082,0.044,0.164,0.088,0.245,0.134l-0.031,0.075c-0.216-0.083-0.434-0.166-0.651-0.251c0.026,0.232,0.026,0.232,0.354,0.486
	c0.044,0.045,0.096,0.08,0.154,0.107c0.256,0.113,0.556-0.003,0.668-0.259c0.076-0.135,0.179-0.252,0.303-0.345
	c0.019-0.01,0.038-0.021,0.055-0.034c0.19-0.137,0.233-0.404,0.096-0.595c-0.184-0.257-0.429-0.462-0.713-0.599
	C21.207,8.359,20.828,8.564,20.696,8.923z M22.358,6.882c-0.198-0.069-0.368-0.078-0.412,0.213c0.175,0.093,0.346,0.186,0.545,0.293
	C22.631,7.132,22.607,6.97,22.358,6.882z M21.839,7.958c0.449,0.579,0.936,0.611,1.114,0.129c-0.116-0.117-0.259-0.204-0.415-0.259
	C22.301,7.842,22.065,7.885,21.839,7.958z M18.917,16.646c0.437-0.278,0.724-0.299,1.002-0.092c0.437,0.327,0.585,0.917,0.355,1.413
	c0.165,0.027,0.329,0.046,0.496,0.051l0.189-0.122c0.087-0.304,0.15-0.611,0.231-0.954c-0.591-0.091-1.141-0.361-1.574-0.775
	c-0.293-0.27-0.594-0.532-0.892-0.798C18.989,15.739,19.063,16.214,18.917,16.646z M18.725,15.369
	c-0.006-0.008-0.009-0.019-0.015-0.029l-0.006,0.009C18.71,15.354,18.718,15.361,18.725,15.369z M19.141,9.476
	c-0.312,0.034-0.883,1.039-0.713,1.348c0.177,0.362,0.504,0.63,0.894,0.732c0.228,0.104,0.496,0.007,0.605-0.217
	c0.1-0.197,0.178-0.405,0.235-0.618c0.039-0.067,0.065-0.142,0.077-0.218c0.055-0.339-0.177-0.658-0.516-0.711
	c-0.098,0.812-0.1,0.814-0.339,0.792c0.054-0.209,0.099-0.421,0.132-0.635l-0.197-0.131c-0.297,0.163-0.448,0.506-0.367,0.835
	c0.087,0.313,0.213,0.363,0.593,0.235l0.047,0.041l-0.045,0.081c-0.184,0.054-0.377,0.067-0.568,0.039
	c-0.235-0.107-0.349-0.378-0.258-0.62C18.842,10.102,18.982,9.783,19.141,9.476z M25.284,8.594c0.048,0.103,0.145,0.174,0.256,0.189
	c0.251-0.02,0.5-0.057,0.746-0.109c-0.136-0.159-0.227-0.266-0.32-0.37c-0.088-0.132-0.2-0.246-0.329-0.337
	c-0.123-0.027-0.251,0.01-0.339,0.099C25.248,8.236,25.243,8.419,25.284,8.594z M24.95,8.354l-0.092-0.018
	c-0.081,0.234-0.163,0.467-0.246,0.7l0.103,0.082c0.141-0.068,0.282-0.136,0.421-0.203C25.065,8.703,25.007,8.529,24.95,8.354z
	 M23.968,17.187c-0.418,0.01-0.294,0.357-0.41,0.681c0.119,0.299,0.262,0.588,0.43,0.864c0.01,0.015,0.021,0.029,0.033,0.042
	c0.168,0.193,0.459,0.212,0.65,0.045c0.362-0.212,0.589-0.595,0.601-1.015c-0.023-0.291,0.195-0.748-0.339-0.87l-0.031-0.087
	c-0.092-0.068-0.201-0.109-0.313-0.122C24.308,16.741,24.064,16.923,23.968,17.187z M20.116,9.416
	c0.071,0.06,0.142,0.121,0.238,0.204c0.112-0.829,0.235-1.604,1.234-1.833c-0.116-0.106-0.269-0.161-0.425-0.155
	c-0.851,0.301-1.338,0.058-1.626-0.792c-0.087-0.256-0.061-0.698-0.522-0.595c0.149,0.368,0.278,0.729,0.439,1.074
	c0.256,0.376,0.166,0.888-0.204,1.155c-0.118,0.113-0.247,0.213-0.437,0.377c0.141,0.099,0.3,0.17,0.468,0.209
	C19.596,9.062,19.896,9.19,20.116,9.416z M20.924,20.476c0.488-0.456,0.514-1.221,0.059-1.711l-0.05-0.041
	c-0.247-0.101-0.497-0.2-0.745-0.299c-0.074-0.039-0.153-0.065-0.235-0.078c-0.424-0.069-0.823,0.22-0.891,0.643
	c-0.046,0.371-0.055,0.745-0.026,1.118c0.019,0.398,0.295,0.739,0.681,0.841c0.013,0.006,0.023,0.011,0.036,0.016
	c0.29,0.124,0.626-0.011,0.75-0.299c0.142-0.224,0.29-0.439,0.436-0.656l0.041,0.022l-0.193,0.56
	C20.833,20.556,20.88,20.519,20.924,20.476z M18.887,7.144c-0.156-0.021-0.312,0.036-0.418,0.149
	c-0.285,0.42-0.189,0.991,0.216,1.298c0.345-0.233,0.54-0.633,0.509-1.05C19.158,7.368,19.045,7.223,18.887,7.144z M19.728,17.862
	c0.087,0.014,0.177-0.008,0.25-0.06c0.157-0.108,0.196-0.325,0.085-0.483c-0.126-0.207-0.28-0.395-0.458-0.56
	c-0.126-0.124-0.222-0.06-0.234,0.113c-0.006,0.069-0.011,0.139-0.021,0.265c-0.093-0.096-0.145-0.149-0.204-0.21
	c-0.056,0.103-0.083,0.217-0.078,0.333C19.085,17.609,19.378,17.879,19.728,17.862z M17.638,19.157
	c-0.076,0.191,0.019,0.409,0.211,0.484c0.213,0.119,0.48,0.063,0.629-0.131c0.351-0.489,0.327-1.152-0.055-1.616
	c-0.119-0.092-0.253-0.167-0.393-0.221l-0.042,0.075l0.146,0.068l0.154,0.063l-0.073,0.113c-0.098-0.001-0.196-0.01-0.293-0.022
	c-0.273-0.048-0.349,0.018-0.281,0.316c0.056,0.278,0.06,0.563,0.009,0.842C17.646,19.138,17.642,19.146,17.638,19.157z
	 M19.43,18.132c-0.446-0.218-0.714-0.688-0.673-1.184c-0.116,0.18-0.232,0.362-0.323,0.503c0.198,0.338,0.378,0.646,0.562,0.959
	C19.137,18.32,19.279,18.229,19.43,18.132z M15.537,14.395c0.023-0.202,0.048-0.405,0.072-0.608l-0.026-0.058l-0.098-0.008
	c-0.013,0.224-0.026,0.446-0.039,0.667L15.537,14.395z M17.182,20.322c0.159-0.271,0.508-0.36,0.776-0.201
	c0.251,0.107,0.5,0.214,0.793,0.338c-0.061-0.245-0.108-0.44-0.165-0.667c-0.356,0.229-0.817,0.21-1.155-0.045
	c-0.329,0.628-0.896,0.724-1.54,0.647c0.115,0.324,0.451,0.519,0.79,0.457c-0.076,0.048-0.152,0.1-0.189,0.123
	c0.211,0.221,0.41,0.427,0.646,0.673c-0.005-0.116-0.032-0.231-0.08-0.337c-0.277-0.353-0.058-0.656,0.1-0.945
	C17.166,20.349,17.174,20.336,17.182,20.322z M15.56,19.51c0.292,0.526,0.53,0.661,0.989,0.602c0.038,0.002,0.075-0.001,0.112-0.009
	c0.291-0.05,0.485-0.329,0.433-0.619c-0.067-0.323-0.1-0.651-0.097-0.979c0.051-0.384-0.155-0.756-0.507-0.914
	c-0.016-0.013-0.032-0.025-0.05-0.036c-0.251-0.161-0.584-0.085-0.744,0.166c-0.035,0.037-0.066,0.076-0.096,0.116
	c-0.382,0.523-0.266,1.255,0.257,1.637c0.13,0.103,0.266,0.201,0.398,0.3l-0.046,0.071C16.013,19.743,15.815,19.64,15.56,19.51z
	 M32.778,3.436c0.005-0.084-0.005-0.168-0.031-0.249c-0.177-0.307-0.365-0.606-0.563-0.9c-0.082-0.042-0.172-0.064-0.264-0.065
	c0.301,0.446,0.554,0.824,0.807,1.202L32.778,3.436z M32.396,2.28c0.116,0.18,0.227,0.351,0.368,0.565
	C32.81,2.59,32.649,2.342,32.396,2.28z M16.968,16.068c-0.133,0.346-0.055,0.737,0.2,1.006c0.266,0.218,0.634,0.259,0.94,0.105
	c0.326-0.113,0.545-0.42,0.545-0.763c-0.024-0.525-0.31-1.001-0.762-1.266l-0.223-0.005c-0.331,0.154-0.51,0.516-0.432,0.873
	c0.1,0.244,0.217,0.48,0.352,0.706c0.05,0.096,0.117,0.185,0.176,0.277l-0.107,0.068C17.439,16.75,17.219,16.431,16.968,16.068z
	 M15.733,14.464c0.134-0.374,0.292-0.819,0.45-1.265C15.799,13.497,15.623,13.992,15.733,14.464z M22.112,14.231
	c0.389-0.366,0.081-0.495,0.096-1.017c0.02-0.838,0.625-1.043,0.568-1.132c-0.188-0.303-0.499,0.022-0.527,0.12
	c-0.159,0.539-0.853,0.792-0.988,1.307C21.125,14.02,21.933,14.401,22.112,14.231z M14.623,14.719
	c1.106,0.282,1.462,0.85,1.388,2.16c0.2,0.017,0.398,0.035,0.537,0.047c0.072-0.45,0.139-0.856,0.205-1.252
	c-0.395-0.271-0.814-0.534-1.202-0.833c-0.38-0.29-0.481-0.816-0.236-1.227c0.051-0.094,0.116-0.184,0.198-0.308
	c-0.12-0.019-0.21-0.035-0.326-0.051C15.232,13.802,15.025,14.341,14.623,14.719z M24.78,19.392
	c-0.239,0.073-0.375,0.323-0.305,0.562c-0.004,0.196,0.005,0.395,0.028,0.591c0.009,0.153,0.063,0.298,0.154,0.422
	c0.065,0.078,0.142,0.144,0.23,0.194c0.415,0.242,0.946,0.102,1.187-0.313c0.205-0.252,0.287-0.581,0.225-0.9
	c-0.017-0.084-0.027-0.169-0.03-0.257c0.041-0.487-0.108-0.678-0.526-0.689c-0.209-0.004-0.418,0.03-0.613,0.104
	C24.997,19.158,24.913,19.352,24.78,19.392z M22.306,16.924C22.779,16.902,21.641,16.885,22.306,16.924L22.306,16.924z
	 M25.078,23.369l0.108-0.028c-0.045-0.293-0.088-0.584-0.131-0.878l-0.135,0.023C24.974,22.78,25.026,23.074,25.078,23.369z
	 M22.306,16.924c-1.151-0.071-0.746,1.566-0.407,1.875C22.807,19.623,24.311,16.83,22.306,16.924z M23.974,21.485
	c0.354,0.046,0.625,0.327,0.974,0.314l0.02-0.113c-0.178-0.057-0.353-0.127-0.52-0.207C24.129,21.299,24.135,21.289,23.974,21.485z
	 M22.795,19.056c0.062,0.255,0.122,0.51,0.184,0.763l-0.065,0.034c-0.032-0.124-0.079-0.246-0.139-0.359
	c-0.088-0.108-0.187-0.208-0.296-0.297c-0.118,0.083-0.218,0.19-0.291,0.314c-0.144,0.456-0.141,0.945,0.007,1.399
	c0.03,0.094,0.089,0.174,0.168,0.231c0.455,0.206,0.988,0.143,1.383-0.163c0.334-0.388,0.389-0.945,0.137-1.391
	C23.691,19.173,23.237,18.952,22.795,19.056z M20.068,12.067l0.065,0.239c0.159,0.199,0.329,0.387,0.511,0.564
	c0.077,0.058,0.162,0.104,0.252,0.135c0.108-0.025,0.172-0.037,0.237-0.055c0.361-0.055,0.664-0.299,0.797-0.639
	c0.018-0.319-0.15-0.619-0.431-0.77c-0.207-0.189-0.466-0.442-0.725-0.273C20.5,11.497,20.261,11.766,20.068,12.067z M23.523,14.59
	l-0.047-0.096c-0.138-0.089-0.312-0.099-0.459-0.027c-0.036,0.035-0.062,0.078-0.078,0.124c-0.056,0.166,0.033,0.347,0.198,0.403
	C23.372,15.115,23.417,14.703,23.523,14.59z M21.624,20.476l0.121-0.007c-0.015-0.28-0.03-0.56-0.046-0.839l-0.128,0.009
	C21.588,19.917,21.606,20.197,21.624,20.476z M24.005,13.716c-0.103,0.016-0.185,0.085-0.22,0.182
	c-0.048,0.157-0.349,0.234-0.23,0.535C24.147,14.16,24.147,14.16,24.005,13.716z M26.601,12.934c-0.361-0.1-0.718-0.198-1.119-0.309
	C25.725,12.995,26.204,13.127,26.601,12.934z M25.567,11.405c-0.249,0.262-0.239,0.675,0.02,0.927
	c0.378,0.149,0.771,0.259,1.172,0.326c0.281,0.03,0.539-0.158,0.599-0.436c0.146-0.615-0.225-1.236-0.836-1.401
	c-0.09-0.025-0.184-0.025-0.272,0.001c-0.266,0.076-0.419,0.352-0.345,0.619C25.796,11.401,25.681,11.389,25.567,11.405z
	 M26.171,18.613c0.497,0.406,0.7-0.251,1.033-0.204c-0.488-0.188-0.997-0.386-1.5-0.58C25.634,18.054,25.79,18.298,26.171,18.613z
	 M21.492,11.027c-0.016-0.177-0.173-0.31-0.351-0.292l-0.002-0.001c-0.177-0.076-0.381,0.008-0.456,0.184
	c0.283,0.076,0.524,0.144,0.8,0.218C21.492,11.1,21.495,11.064,21.492,11.027z M26.007,13.851c-0.088,0.027-0.16,0.091-0.197,0.174
	c-0.13,0.363-0.244,0.731-0.349,1.103c-0.023,0.076-0.01,0.16,0.037,0.225c0.071,0.043,0.157,0.053,0.235,0.029
	c0.338-0.186,0.543-0.545,0.535-0.93c-0.023-0.147-0.056-0.292-0.096-0.437C26.146,13.938,26.084,13.878,26.007,13.851z
	 M23.017,12.487c-0.134,0.028-0.259,0.087-0.364,0.171c-0.382,0.302-0.445,0.855-0.143,1.236c0.187,0.101,0.385,0.184,0.588,0.247
	c0.033,0.029,0.075,0.05,0.117,0.06c0.148,0.037,0.298-0.055,0.334-0.204c0.067-0.148,0.123-0.303,0.167-0.459l-0.04-0.701
	C23.531,12.615,23.283,12.483,23.017,12.487z M26.287,15.584c0.235-0.079,0.467-0.158,0.708-0.238
	C26.756,15.161,26.497,15.253,26.287,15.584z M22.67,9.578c0.091,0.168,0.358,0.481,0.612,0.302c0.26-0.258,0.538-0.497,0.83-0.715
	c-0.178-0.241-0.377-0.466-0.594-0.672c-0.14-0.079-0.306-0.09-0.455-0.032C22.668,8.679,22.499,9.159,22.67,9.578z M16.036,7.953
	c-0.208,0.664-0.152,1.382,0.158,2.005C16.142,9.289,16.09,8.621,16.036,7.953z M15.731,11.685c0.008-0.083-0.002-0.165-0.028-0.243
	c-0.107-0.05-0.229-0.063-0.344-0.038c-0.359,0.209-0.488,0.666-0.292,1.034c0.01,0.015,0.02,0.032,0.032,0.046
	c0.223,0.306,0.651,0.372,0.957,0.149c0.216-0.186,0.29-0.486,0.187-0.751c-0.009-0.056-0.031-0.107-0.066-0.151
	C16.066,11.595,15.868,11.574,15.731,11.685z M14.362,11.935c0.113,0.015,0.218-0.065,0.232-0.179
	c0.064-0.232,0.192-0.48-0.242-0.542c-0.026,0.228-0.464,0.384-0.116,0.656C14.269,11.905,14.313,11.929,14.362,11.935z
	 M18.138,10.109c0.074-0.469,0.431-0.843,0.897-0.936c-0.425-0.437-0.938-0.131-1.337-0.349
	C17.521,9.302,17.705,9.839,18.138,10.109z M16.211,14.795c0.47,0.139,0.977-0.049,1.242-0.462c0.226-0.38,0.121-0.868-0.24-1.12
	c-0.133-0.078-0.274-0.136-0.423-0.176c0.095,0.323,0.157,0.538,0.22,0.753l-0.119,0.043c-0.096-0.175-0.193-0.35-0.29-0.523
	c-0.395,0.255-0.62,0.707-0.586,1.176C16.037,14.609,16.107,14.721,16.211,14.795z M14.773,9.228
	c-0.327,0.369-0.536,0.828-0.599,1.316l0.095,0.036C14.438,10.128,14.606,9.678,14.773,9.228z M15.614,8.298
	c-0.468,0.208-0.479,0.354-0.075,0.797C15.566,8.823,15.59,8.568,15.614,8.298z M14.421,10.72c0.357,0.14,0.759-0.039,0.898-0.396
	c0.147-0.293,0.081-0.422-0.479-0.87c-0.16,0.446-0.304,0.849-0.45,1.255C14.401,10.712,14.41,10.716,14.421,10.72z M15.579,11.015
	c0.089-0.056,0.162-0.136,0.208-0.229c-0.023-0.259-0.064-0.515-0.122-0.769c-0.058,0.356-0.107,0.64-0.155,0.926L15.579,11.015z
	 M22.749,4.061c-0.017,0.005-0.033,0.01-0.049,0.015c-0.245,0.082-0.377,0.347-0.295,0.592C22.521,4.464,22.628,4.272,22.749,4.061z
	 M22.339,6.288c-0.001,0-0.001,0-0.002,0l0,0L22.339,6.288z M22.733,6.168l0.18-0.022c0.275-0.18,0.617-0.224,0.928-0.119
	c0.072,0.023,0.147,0.022,0.216-0.006c0.262-0.261,0.465-0.572,0.598-0.916c0.042-0.222-0.284-0.509-0.397-0.691
	c-0.223,0.196-0.469,0.363-0.733,0.5c-0.292,0.065-0.59,0.095-0.889,0.089c0.108,0.217,0.222,0.443,0.364,0.731
	c-0.35-0.192-0.574-0.554-0.589-0.953C22.133,5.194,22.361,6.034,22.733,6.168z M23.106,4.778c0.234-0.014,0.467-0.068,0.684-0.16
	l0.102-0.21c-0.065-0.086-0.149-0.156-0.246-0.206c0.007,0.172,0.013,0.253,0.016,0.334l-0.06,0.028
	c-0.077-0.091-0.146-0.186-0.229-0.271l-0.165-0.118c-0.146,0.084-0.279,0.193-0.417,0.292C22.866,4.597,22.974,4.705,23.106,4.778z
	 M19.687,5.627c0.444-0.431,0.347-0.987-0.244-1.316C19.4,4.455,19.359,4.599,19.29,4.829c-0.033-0.172-0.049-0.252-0.073-0.368
	c-0.119,0.156-0.205,0.272-0.292,0.388l-0.048-0.032c0.105-0.19,0.205-0.38,0.326-0.604c-0.247-0.049-0.492,0.097-0.566,0.338
	c-0.145,0.407-0.015,0.862,0.325,1.129C19.181,5.853,19.496,5.83,19.687,5.627z M21.094,5.156c-0.228,0.074-0.447,0.146-0.681,0.221
	c0.307,0.279,0.559,0.491,0.793,0.724c0.124,0.212,0.293,0.395,0.496,0.534c0.238-0.056,0.458-0.176,0.635-0.346
	c-0.127-0.468-0.242-0.895-0.362-1.338c-0.126,0.031-0.263,0.066-0.4,0.102c0.267-0.187,0.662-0.234,0.572-0.722
	c-0.286-0.149-0.587-0.262-0.898-0.342c-0.358-0.092-0.726,0.108-0.843,0.458c0.152,0.025,0.28,0.047,0.411,0.07
	c-0.398,0.104-0.677,0.271-0.533,0.761C20.544,5.168,20.8,4.917,21.094,5.156z M18.364,8.647c-0.316-1.412-0.28-1.506,0.675-1.779
	c-0.028-0.333-0.314-0.584-0.648-0.569c-0.38,0.072-0.67,0.378-0.724,0.76C17.666,7.38,17.665,7.7,17.654,8.021
	C17.637,8.518,17.845,8.705,18.364,8.647z M19.739,6.693c0.065,0.1,0.125,0.202,0.18,0.307c0.001,0.016,0.003,0.034,0.006,0.049
	c0.052,0.324,0.356,0.547,0.682,0.495c0.553-0.009,0.963-0.489,0.729-0.901c-0.188-0.311-0.418-0.593-0.684-0.839
	c-0.131-0.096-0.297-0.13-0.454-0.093C19.856,5.914,19.674,6.304,19.739,6.693z M13.117,44.483c0.101-0.066,0.186-0.152,0.254-0.252
	l-0.158-0.184c-0.259,0.336-0.742,0.398-1.078,0.138c-0.051-0.039-0.099-0.086-0.138-0.138l-0.158,0.184
	C12.122,44.653,12.695,44.768,13.117,44.483z M20.431,23.546c0.478-0.019,0.91-0.286,1.143-0.704
	c0.196-0.401,0.141-0.878-0.139-1.225c-0.168-0.232-0.469-0.324-0.738-0.226c-0.093,0.046-0.192,0.085-0.29,0.128l-0.025-0.049
	c-0.109,0.012-0.22,0.027-0.331,0.034c-0.043-0.009-0.089-0.012-0.134-0.009c-0.271,0.019-0.474,0.255-0.454,0.526
	c-0.055,0.526,0.161,1.046,0.574,1.377C20.145,23.498,20.286,23.551,20.431,23.546z M28.911,40.74l0.121,0.082
	c-0.055,0.467-0.484,1.722-1.469,1.794c-0.985,0.076-2.489-0.667-1.804-2.945c0.687-2.28,0.726-3.313,0.619-3.796
	c-0.046-0.147-0.163-0.264-0.312-0.311c-0.248-0.076-0.511,0.063-0.588,0.311c-0.034,0.098-0.703,2.646-0.773,3.218
	c-0.07,0.57-0.443,0.57-0.852,0.524c-0.411-0.045-0.081-1.456-0.061-1.852c0.049-0.924,0.76-2.652-0.5-2.492
	c-0.833,0.104-0.787,1.659-0.812,1.912c-0.131,1.377,0.153,4.203-0.692,4.247c-0.979,0.052-1.044-0.287-1.045-0.77
	c-0.748,0.897-1.571,0.866-1.92-0.052c-0.611,0.362-1.327,0.508-2.033,0.415c-0.612-0.076-1.183-0.353-1.618-0.791l-0.121-0.167
	c-0.26,0.297-0.541,0.574-0.84,0.833c-0.188,0.096-0.402,0.132-0.611,0.103c-0.561-0.081-0.951-0.602-0.871-1.162
	c0.026-0.899,0.054-1.8,0.062-2.698c0.023-0.235,0.023-0.472,0.001-0.706c-0.188,0.07-0.51,0.203-0.697,0.272
	c-0.575,0.215-0.76,0.228-0.656,1.215c0.069,0.788,0.086,1.581,0.051,2.372c-0.021,0.936-0.617,1.762-1.499,2.076
	c-1.431,0.536-2.558-1.16-2.421-1.318c0.136-0.158,1.033,1.185,1.784,0.481c0.664-0.62,0.594-1.01,0.643-1.741
	c-0.008-0.783-0.072-1.563-0.189-2.337c-0.005-0.059-0.131,0.019-0.211,0.051c-0.021,0.016-0.043,0.026-0.066,0.036
	c-0.234,0.106-0.51,0.001-0.615-0.233c-0.105-0.233,0-0.51,0.233-0.615c0.644-0.17,0.533-0.661,0.457-1.136
	c-0.093-0.595-0.278-2.161-0.278-2.161c-0.345,0.044-0.694,0.006-1.021-0.108c-0.721,2.89-2.505,3.454-3.264,3.737
	c-1.904,0.708-3.978-1.803-2.578-4.561c0.466-0.914,1.47-1.422,2.481-1.251c0.753,0.169,1.443,0.731,1.777,0.849
	c0.041-0.297-0.22-2.45-0.22-2.45c-0.282,0.144-0.578,0.254-0.885,0.329c-1.762,0.351-3.921,0.299-4.985-1.906
	c-0.508-1.055-0.695-3.249-0.24-4.863c0.456-1.614,2.56-4.836,4.808-6.498c1.645-1.203,2.51-3.2,2.264-5.223
	c-0.101-0.66-1.21-1.292-1.86-0.818c0.257,0.126,0.524,0.228,0.798,0.307c0.225,0.182,0.188,0.349-0.015,0.473
	c-1.458,0.778-2.516,2.142-2.911,3.748c-0.192,0.803-0.57,2.845-0.903,3.107c-0.25,0.203-0.479-1.453-0.58-2.111
	c-0.211-1.511-0.052-3.05,0.461-4.486c0.262-0.599,0.832-1.414,1.74-1.383c0.36,0.012,0.528-0.479,2.166-0.589
	c1.64-0.11,2.685,2.033,2.771,3.228c0.085,0.917-0.2,1.831-0.79,2.537c0.046,0.015,0.087,0.038,0.123,0.069
	c1.131,0.857-2.543,2.618-3.787,3.815c-0.345,0.333-5.114,4.546-2.223,8.75c1.005,1.461,3.048,1.733,3.68,1.046
	c0.437-0.476-0.181-4.591-0.64-5.132c0.5-0.294,1.089-0.397,1.659-0.29c0.634,0.146,1.021,1.485,1.021,1.455
	c0.188-0.622,0.526-1.189,0.983-1.652c0.364-0.302,0.859-0.39,1.304-0.233c0.683,0.323,1.194,0.924,1.4,1.65
	c0.211,0.729-0.076,2.497-0.079,2.677c0.213-0.076,0.435-0.131,0.652-0.195c0.006-0.103,0.077-3.083,1.919-4.076
	c0.521-0.284,1.112,0.273,1.383,0.45c0.273,0.182,0.139,0.076,0.946-0.031c0.977-0.126,1.356,0.076,1.563,1.041
	c0.09,0.403,0.001,0.826-0.242,1.16c-0.214,0.426-0.338,0.892-0.366,1.367c-0.094,0.756-0.143,1.515-0.149,2.274
	c0.023,0.302,0.126,0.593,0.3,0.842c0.2,0.158,0.444,0.252,0.701,0.264c0.667-0.091,1.374-1.063,1.107-2.687
	c0.88,0.314,0.744,1.568,0.758,1.583c0.66-0.019,0.955,0.269,0.961,0.799c0.01,0.787-1.656,1.354-2.874,1.265
	c-0.753-0.057-1.716-0.394-1.913-1.404c-0.612,0.361-1.329,0.508-2.034,0.416c-0.616-0.06-1.19-0.342-1.615-0.793
	c-0.372-0.542-0.542-1.2-0.481-1.855c-0.218,0.057-0.429,0.137-0.63,0.237c-0.007,0.408-0.327,2.648-1.005,2.729
	c-0.33,0.001-0.654-0.085-0.941-0.246c-0.364-0.17-0.904-0.423-0.991-0.914c-0.089-0.491,1.067-1.385,1.135-1.516
	c0.023-0.022,0.023-0.453,0.113-1.541c0.059-0.692,0.309-2.812-0.259-2.778c-0.565,0.033-1.556,2.386-1.556,2.386
	s0.349,2.779,0.385,3.476c0.072,0.93,0.027,1.864-0.135,2.782c0.029,0.019,0.061,0.033,0.094,0.046
	c0.249,0.087,0.523-0.045,0.61-0.293c0.229-0.449,1.056-0.415,1.479,0.004c0.249,0.216,0.485,0.442,0.71,0.682
	c0.271,0.311,0.318,0.76,0.116,1.12c-0.195,0.589-0.307,1.201-0.335,1.82c0,0,0.61-0.211,0.806-0.316
	c0.479-0.178,0.813-0.621,0.846-1.133c0.003-0.694-0.234-1.679,0-2.122c0.235-0.444,1.271-0.59,1.352-0.036
	c0.101,0.678-0.08,1.496,0.061,2.232c0.68-0.1,0.735,0.085,0.629,0.514c-0.137,0.33-0.436,0.566-0.789,0.623
	c-0.036,0.401,0.018,1.953-0.005,2.436c-0.044,0.574-0.053,1.148-0.031,1.724c0.053,0.085,0.412-0.177,0.762-0.401
	c-0.14-0.677-0.167-1.37-0.079-2.056c0.063-0.773,0.369-2.978,1.904-3.806c0.52-0.281,1.11,0.272,1.382,0.452
	c0.273,0.181,0.139,0.075,0.947-0.029c0.976-0.128,1.355,0.075,1.561,1.038c0.092,0.404,0.004,0.827-0.241,1.16
	c-0.212,0.427-0.337,0.893-0.367,1.367c-0.093,0.756-0.142,1.516-0.147,2.276c-0.002,0.282,0.101,0.693,0.381,0.651
	c0.195-0.031,0.505-1.129,0.716-1.708c0.059-0.39,0.087-0.806,0.087-0.806s0.065-0.813,0.114-1.564
	c0.108-1.652-0.251-2.286-0.88-2.604c0.401-0.319,0.922-0.45,1.427-0.361c0.706,0.181,0.865,1.034,0.944,0.995
	c0.801-0.419,1.628,0.114,2.058,0.557c0.024,0.03,0.052,0.056,0.084,0.076c0.167,0.107,0.388,0.057,0.494-0.11
	c0.14-0.12,0.298-0.221,0.469-0.294c0.921-0.4,1.991,0.022,2.391,0.943c0.321,0.996-1.188,3.167-1.34,4.608
	C26.387,43.55,28.589,41.771,28.911,40.74z M10.108,28.854c0,0-1.026,0.729-0.701,0.938C10.148,30.269,10.108,28.854,10.108,28.854z
	 M13.898,28.755c-0.109,0.947,1.093,1.249,1.637,0.58c0.439-0.543,0.801-4.177,0.755-4.341l0.003-0.02
	c-0.123-0.194-0.313-0.333-0.536-0.391c-0.843-0.014-1.237,0.65-1.366,1.395C14.23,26.902,14.01,27.819,13.898,28.755z M6.79,32.86
	c-0.02,0.018-3.036-2.167-3.766,0.314c-0.426,1.447-0.131,2.561,0.354,2.824C5.781,37.315,6.538,33.896,6.79,32.86z M18.584,35.339
	l0.002-0.023c-0.124-0.192-0.314-0.331-0.538-0.388c-0.841-0.016-1.236,0.65-1.366,1.391c-0.163,0.93-0.383,1.845-0.493,2.78
	c-0.112,0.948,1.091,1.251,1.635,0.581C18.266,39.137,18.627,35.503,18.584,35.339z M21.005,47.363l0.016,0.587h-0.293v-0.456
	h-0.011c-0.17,0.324-0.512,0.519-0.878,0.499C19.807,47.997,19.774,48,19.741,48c-0.428,0.004-0.778-0.339-0.783-0.767
	c0-0.882,0.997-0.923,1.543-0.923h0.173v-0.097c0.009-0.045,0.013-0.089,0.011-0.135c-0.013-0.335-0.295-0.598-0.631-0.584
	c-0.28,0-0.557,0.071-0.803,0.205v-0.314c0.253-0.112,0.526-0.17,0.803-0.169c0.078-0.008,0.153-0.006,0.23,0.007
	c0.474,0.076,0.796,0.521,0.721,0.995L21.005,47.363L21.005,47.363z M20.675,46.586h-0.299c-0.493,0-1.071,0.084-1.071,0.625
	c0,0.009,0,0.019,0,0.026c0.015,0.278,0.251,0.493,0.53,0.478c0.047,0.002,0.092-0.001,0.138-0.007
	c0.449-0.063,0.765-0.478,0.703-0.928L20.675,46.586L20.675,46.586z M13.988,11.595c0.104-0.371,0.11-0.368-0.104-0.525
	c-0.101,0.257-0.199,0.504-0.31,0.784c0.037,0.017,0.077,0.026,0.117,0.028C13.852,11.883,13.984,11.756,13.988,11.595z
	 M24.7,46.413h-1.459V45.26h-0.33v2.69h0.33v-1.259H24.7v1.259h0.331v-2.69H24.7V46.413z M31.812,15.721
	c-0.077-0.135-0.165-0.295-0.235-0.425c-0.277,0.313-0.553,0.622-0.828,0.933l-0.107-0.082c0.074,0.09,0.146,0.182,0.196,0.244
	C31.174,16.158,31.486,15.943,31.812,15.721z M32.818,14.062c-0.121-0.085-0.271-0.122-0.417-0.098
	c-0.352,0.072-0.595,0.39-0.574,0.747c-0.011,0.069-0.011,0.138,0.003,0.206c0.079,0.201,0.209,0.38,0.381,0.513
	c0.02,0.005,0.04,0.006,0.059,0.006c0.236,0.005,0.432-0.184,0.436-0.42c0.051-0.205,0.135-0.4,0.171-0.604
	C32.908,14.291,32.885,14.164,32.818,14.062z M31.627,16.235c-0.647,0.344-0.742,0.986-0.928,1.576
	c-0.019,0.286,0.121,0.559,0.363,0.711c0.173-0.11,0.291-0.176,0.398-0.256c0.551-0.399,0.846-1.065,0.766-1.742
	C32.197,16.025,32.083,15.994,31.627,16.235z M29.725,18.642c-0.058,0.002-0.114,0.007-0.17,0.016
	c-0.728,0.112-1.228,0.792-1.116,1.52c0.044,0.095,0.132,0.163,0.234,0.181c0.397-0.025,0.741,0.275,0.769,0.674
	c0.056,0.247,0.181,0.295,0.373,0.152c0.473-0.25,0.757-0.752,0.729-1.285c-0.025-0.226,0.036-0.464,0.015-0.694
	c-0.008-0.132-0.071-0.254-0.175-0.336C30.17,18.775,29.95,18.7,29.725,18.642z M17.521,45.26h-0.387l-0.473,0.776l-0.146,0.258
	h-0.006l-0.146-0.253l-0.51-0.781h-0.418l0.871,1.254l-0.935,1.437h0.384l0.614-0.97l0.135-0.241h0.006l0.131,0.241l0.599,0.97h0.43
	L16.7,46.514L17.521,45.26z M5.479,46.488c-0.207,0.041-0.418,0.063-0.63,0.063c-0.651,0-0.713-0.227-0.713-0.483V45.26h-0.33v0.861
	c0,0.398,0.178,0.707,0.998,0.707c0.227,0,0.453-0.021,0.676-0.063v1.187h0.33V45.26h-0.33V46.488z M13.724,14.458
	c0.031-0.635-0.404-1.216-0.051-1.831C13.098,13.196,13.126,14.135,13.724,14.458z M13.614,16.271
	c0.045-0.206,0.08-0.412,0.132-0.614c0.163-0.634,0.128-0.695-0.593-0.869c0.137,0.523,0.262,1.007,0.389,1.49L13.614,16.271z
	 M24.395,6.165c-0.065,0.155-0.046,0.333,0.048,0.473c0.295,0.232,0.484,0.577,0.523,0.951c0.125-0.094,0.208-0.156,0.321-0.238
	c-0.83-0.728-0.225-1.432-0.089-2.187C24.914,5.483,24.646,5.817,24.395,6.165z M9.562,47.363l0.015,0.587H9.284v-0.456H9.273
	c-0.169,0.324-0.512,0.519-0.877,0.499C8.363,47.997,8.331,48,8.298,48c-0.429,0.004-0.779-0.339-0.783-0.767
	c0-0.882,0.996-0.923,1.543-0.923H9.23v-0.097c0.009-0.045,0.013-0.089,0.011-0.135c-0.013-0.335-0.293-0.598-0.629-0.584
	c-0.281,0-0.557,0.071-0.803,0.205v-0.314c0.252-0.112,0.526-0.17,0.803-0.169c0.076-0.008,0.152-0.006,0.228,0.007
	c0.474,0.076,0.797,0.521,0.721,0.995L9.562,47.363L9.562,47.363z M9.231,46.586H8.932c-0.493,0-1.071,0.084-1.071,0.625
	c0,0.009,0.001,0.019,0.001,0.026c0.015,0.278,0.252,0.493,0.53,0.478c0.045,0.002,0.092-0.001,0.137-0.007
	c0.451-0.063,0.765-0.478,0.703-0.928L9.231,46.586L9.231,46.586z M11.986,47.228l-0.179,0.288h-0.016l0.006-0.282V45.26h-0.33
	v2.691h0.367l1.391-1.973l0.178-0.282h0.015l-0.005,0.281v1.973h0.33v-2.69h-0.368L11.986,47.228z M28.782,47.363l0.015,0.587
	h-0.293v-0.456h-0.011c-0.169,0.324-0.512,0.519-0.876,0.499C27.583,47.997,27.55,48,27.518,48
	c-0.429,0.004-0.779-0.339-0.783-0.767c0-0.882,0.997-0.923,1.542-0.923h0.173v-0.097c0.009-0.045,0.012-0.089,0.011-0.135
	c-0.013-0.335-0.294-0.598-0.63-0.584c-0.28,0-0.557,0.071-0.803,0.205v-0.314c0.253-0.112,0.527-0.17,0.803-0.169
	c0.077-0.008,0.153-0.006,0.229,0.007c0.474,0.076,0.796,0.521,0.721,0.995L28.782,47.363L28.782,47.363z M28.451,46.586h-0.298
	c-0.494,0-1.072,0.084-1.072,0.625c0,0.009,0,0.019,0.001,0.026c0.015,0.278,0.252,0.493,0.53,0.478
	c0.047,0.002,0.092-0.001,0.138-0.007c0.451-0.063,0.765-0.478,0.703-0.928L28.451,46.586L28.451,46.586z M28.188,10.222
	c-0.342,0.255-0.532,0.667-0.504,1.094c-0.019,0.755,0.447,1.044,1.086,0.704c0.089-0.042,0.175-0.096,0.253-0.157
	c0.531-0.433,0.799-1.194-0.12-1.661C28.681,10.07,28.402,10.078,28.188,10.222z M30.907,14.125
	c-0.005-0.255-0.213-0.458-0.47-0.455l-0.005,0.002c-0.292-0.024-0.549,0.195-0.572,0.488c0.006,0.358,0.039,0.716,0.097,1.069
	c0.009,0.093,0.015,0.188,0.025,0.282h-0.003c-0.443-0.294-0.298-0.784-0.38-1.223c-0.422,0.761-0.219,1.252,0.464,1.333l0-0.002
	c0.097,0.032,0.204,0.011,0.281-0.056C30.892,15.302,31.074,14.816,30.907,14.125z M30.185,10.112
	c-0.417,0.533-0.484,1.262-0.167,1.86c0.063,0.224,0.279,0.369,0.509,0.341c0.198-0.078,0.365-0.212,0.484-0.386
	c0.095-0.172,0.181-0.352,0.256-0.534c0.183-0.278,0.176-0.639-0.017-0.91c-0.2-0.293-0.511-0.489-0.861-0.544
	c0.061,0.22,0.105,0.382,0.149,0.543l-0.082,0.037C30.371,10.391,30.287,10.265,30.185,10.112z M29.443,2.302
	c0.521,0.687,1.327,1.119,1.712,1.93c0.086-0.031,0.148-0.055,0.211-0.078C31.095,3.498,30.003,2.423,29.443,2.302z M29.345,5.377
	c-0.069-0.123-0.137-0.246-0.232-0.419c-0.134,0.235-0.149,0.382,0.041,0.466L29.345,5.377z M29.502,3.431
	c0.288,0.333,0.596,0.648,0.881,0.985c0.111,0.132,0.176,0.115,0.27,0.006c-0.291-0.537-0.732-0.976-1.272-1.262
	C29.408,3.256,29.448,3.347,29.502,3.431z M29.562,2.977c0.455,0.356,0.846,0.79,1.157,1.278c0.089,0.124,0.165,0.161,0.295,0.016
	c-0.37-0.612-0.887-1.124-1.503-1.488C29.498,2.851,29.517,2.922,29.562,2.977z M31.698,4.083l0.041-0.072
	c-0.268-0.3-0.535-0.602-0.802-0.904c0.166,0.328,0.357,0.642,0.575,0.94L31.698,4.083z M30.951,12.503
	c-0.717,0.322-1.125-0.115-1.502-0.691c-0.157,0.167-0.289,0.315-0.43,0.453c-0.548,0.531-0.667,0.54-1.275,0.101h-0.081
	c-0.059,0.103-0.122,0.215-0.237,0.419c0.162,0.012,0.325,0.011,0.486-0.003c0.154-0.059,0.323-0.061,0.478-0.011
	c0.377,0.125,0.583,0.531,0.458,0.908c-0.081,0.486-0.334,0.929-0.713,1.246c-0.104,0.091-0.206,0.183-0.304,0.268
	c0.114,0.14,0.22,0.286,0.313,0.439c0.074,0.169,0.137,0.343,0.187,0.521c0.091-0.148,0.204-0.281,0.335-0.393
	c0.032-0.015,0.063-0.034,0.091-0.056c0.175-0.141,0.203-0.397,0.061-0.573c-0.017-0.048-0.032-0.096-0.043-0.146
	c-0.157-0.673,0.262-1.344,0.935-1.502c0.19-0.019,0.369-0.164,0.562-0.195c0.174-0.018,0.351,0.003,0.517,0.061
	c0.172,0.074,0.339,0.16,0.496,0.261C31.161,13.209,31.056,12.856,30.951,12.503z M28.719,16.391
	c0.21-0.179,0.413-0.352,0.672-0.571C28.924,15.861,28.736,16.032,28.719,16.391z M28.054,17.787
	c-0.11,0.175-0.212,0.341-0.31,0.498c0.235,0.213,0.45,0.408,0.673,0.612c0.056-0.068,0.133-0.159,0.2-0.237
	C28.427,18.363,28.247,18.084,28.054,17.787z M21.813,23.437c-0.313,0.254-0.608,0.495-0.936,0.761
	c0.475,0.154,0.994,0.322,1.581,0.513C22.195,24.193,21.986,23.777,21.813,23.437z M28.911,21.435
	c-0.067-0.087-0.146-0.164-0.235-0.227c-0.231-0.355-0.703-0.463-1.065-0.243c-0.031,0.011-0.063,0.024-0.092,0.04
	c-0.329,0.17-0.458,0.575-0.288,0.904c0.042,0.147,0.07,0.297,0.081,0.45c-0.039,0.125-0.021,0.259,0.046,0.369
	c0.131,0.208,0.404,0.271,0.613,0.142c0.127-0.04,0.245-0.106,0.343-0.198c0.244-0.225,0.462-0.477,0.653-0.749
	C29.007,21.759,28.988,21.584,28.911,21.435z M30.297,16.324c-0.032,0.128-0.054,0.227-0.08,0.325l-0.071,0.002
	c-0.048-0.266-0.234-0.486-0.488-0.577c-0.823-0.031-1.159,1.196-0.717,1.662c0.178,0.229,0.489,0.301,0.749,0.176
	C30.285,17.631,30.553,16.929,30.297,16.324z M29.52,18.248c0.037-0.018,0.073-0.039,0.108-0.061c-0.865-0.03-1.21-0.39-1.292-1.279
	c-0.037,0.211-0.043,0.427-0.017,0.639C28.458,18.293,28.827,18.501,29.52,18.248z M25.466,5.961L25.39,5.946
	c-0.056,0.294-0.112,0.588-0.168,0.882l0.095,0.017C25.366,6.551,25.416,6.256,25.466,5.961z M30.217,16.648
	C30.243,16.55,30.193,16.649,30.217,16.648L30.217,16.648z M30.344,4.602c-0.248-0.419-0.585-0.777-0.989-1.049
	C29.577,3.991,29.921,4.355,30.344,4.602z M29.913,4.757c0.078,0.027,0.157,0.04,0.238,0.036c-0.311-0.324-0.567-0.592-0.839-0.876
	C29.396,4.265,29.611,4.565,29.913,4.757z M29.875,4.89c-0.217-0.21-0.416-0.402-0.615-0.596L29.176,4.34
	c0.001,0.07,0.018,0.139,0.051,0.2C29.362,4.768,29.611,4.903,29.875,4.89z M30.8,2.69c-0.393-0.349-0.785-0.697-1.195-1.063
	c-0.102,0.166-0.176,0.292-0.242,0.399c0.462,0.199,0.879,0.493,1.221,0.862C30.65,2.826,30.71,2.773,30.8,2.69z M25.229,5.846
	c0.184-0.195,0.364-0.386,0.545-0.58C25.525,5.112,25.4,5.247,25.229,5.846z M31.201,14.157c-0.013,0.311-0.026,0.618-0.042,0.945
	C31.493,14.708,31.508,14.388,31.201,14.157z M29.5,5.167l0.112-0.079c-0.16-0.143-0.304-0.272-0.447-0.401l-0.087,0.079
	C29.218,4.902,29.356,5.038,29.5,5.167z M25.718,4.312c0.577,0.593,0.741,0.522,1.434,0.485l-0.047,0.047
	c0.463,0.046,0.883,0.29,1.153,0.668c0.107-0.054,0.174-0.166,0.173-0.285c0.237-0.361,0.37-0.781,0.384-1.214
	c0.054-0.105,0.103-0.214,0.143-0.326c0.057-0.197,0.103-0.396,0.149-0.594l0.014-0.117c-0.115-0.429,0.016-0.899-0.324-1.302
	c-0.287-0.396-0.539-0.816-0.759-1.253c-0.124,0.371-0.22,0.751-0.288,1.136c-0.081,0.506-0.003,1.023,0.223,1.483
	c0.296,0.524,0.24,1.176-0.14,1.643c-0.564-0.205-1.146-0.351-1.739-0.436l-0.031,0.115c0.147,0.044,0.296,0.085,0.458,0.132
	C26.184,4.665,25.983,4.353,25.718,4.312z M30.813,2.396c-0.292-0.388-0.664-0.708-1.093-0.937l-0.05,0.063
	c0.369,0.305,0.737,0.612,1.105,0.919L30.813,2.396z M30.484,1.57c-0.125-0.195-0.249-0.388-0.384-0.599
	c-0.066,0.077-0.11,0.13-0.171,0.203c0.183,0.15,0.352,0.29,0.523,0.429L30.484,1.57z M31.456,2.449l-0.068,0.05
	c0.329,0.433,0.656,0.868,0.983,1.301C32.188,3.279,31.874,2.813,31.456,2.449z M31.674,13.602c0.092,0.126,0.269,0.154,0.396,0.063
	c0.374-0.231,0.621-0.622,0.671-1.057c-0.033-0.266-0.13-0.52-0.284-0.739c-0.058-0.131-0.148-0.246-0.218-0.371
	c-0.134-0.233-0.294-0.213-0.45-0.039c-0.272,0.276-0.424,0.647-0.425,1.035c0.083,0.328,0.145,0.667,0.26,0.984
	C31.63,13.523,31.647,13.565,31.674,13.602z M31.669,2.362c0.31,0.451,0.619,0.901,0.935,1.361
	C32.465,3.171,32.133,2.688,31.669,2.362z M30.935,2.001c0.191-0.344,0.084-0.777-0.242-0.994c0.117,0.222,0.211,0.397,0.305,0.574
	l-0.083,0.062c-0.113-0.082-0.227-0.163-0.339-0.244c0.04,0.109,0.095,0.213,0.162,0.31C30.8,1.803,30.866,1.897,30.935,2.001z
	 M31.698,3.768c0.012,0.023,0.025,0.044,0.042,0.063c0.112,0.137,0.315,0.156,0.45,0.044c-0.216-0.469-0.54-0.878-0.947-1.196
	c-0.274,0.204-0.278,0.25-0.067,0.483C31.359,3.355,31.534,3.557,31.698,3.768z M30.894,0.896c-0.062-0.138-0.125-0.274-0.186-0.412
	l-0.102,0.034C30.617,0.691,30.73,0.839,30.894,0.896z"/>
</svg>
