<?xml version="1.0" encoding="utf-8"?>
<!-- Generator: Adobe Illustrator 19.2.1, SVG Export Plug-In . SVG Version: 6.00 Build 0)  -->
<svg version="1.1" id="Слой_1" xmlns="http://www.w3.org/2000/svg" xmlns:xlink="http://www.w3.org/1999/xlink" x="0px" y="0px"
	 width="115px" height="48px" viewBox="0 0 115 48" enable-background="new 0 0 115 48" xml:space="preserve">
<path fill="#07090B" d="M90.955,29.014l1.312,1.343c-0.156,0.125-0.281,0.25-0.468,0.344c-0.453-0.26-0.924-0.753-1.156-1.219
	C90.706,29.326,90.831,29.17,90.955,29.014z M93.111,29.42c-0.353-0.504-0.742-0.849-1.25-1.187
	c-0.187,0.093-0.312,0.219-0.437,0.343l0,0c-0.188,0.125-0.343,0.281-0.468,0.437l1.312,1.343c0.188-0.156,0.343-0.312,0.5-0.437
	l0,0C92.923,29.764,93.048,29.576,93.111,29.42C92.892,29.108,93.048,29.576,93.111,29.42z M10.558,45.282
	c0.338,0.338,0.337,1.006,0,1.343c-0.363,0.303-0.872,0.25-1.312,0.25v1.062H8.371v-2.874C8.972,45.063,10.055,44.88,10.558,45.282
	C10.714,45.439,10.401,45.157,10.558,45.282z M9.933,45.969c0-0.332-0.451-0.34-0.687-0.312v0.625
	c0.187,0.015,0.424,0.021,0.594-0.063C9.902,46.157,9.933,46.063,9.933,45.969z M13.681,46.719h1.405v-0.593h-1.405v-0.437h1.499
	v-0.625h-2.374v2.874h2.405v-0.656h-1.531V46.719z M18.959,47.188c-0.184,0.184-0.619,0.184-0.78-0.031
	c-0.243-0.243-0.229-0.954-0.032-1.219c0.228-0.453,0.837-0.243,0.969,0.156l0.78-0.188c-0.314-0.944-1.671-1.202-2.373-0.5
	c-0.67,0.594-0.502,1.96,0.243,2.41c0.838,0.506,1.901,0.09,2.162-0.817l-0.781-0.219C19.116,46.938,19.054,47.093,18.959,47.188z
	 M21.677,45.782h0.906v2.155h0.906v-2.155h0.906v-0.718h-2.717V45.782z M28.799,45.407c1.395,1.241-0.598,3.478-2.073,2.314
	C25.104,46.441,27.33,43.939,28.799,45.407C29.08,45.657,28.549,45.157,28.799,45.407z M28.298,46.469
	c0-0.471-0.557-1.225-1.03-0.594c-0.245,0.245-0.239,1.01,0,1.25c0.173,0.29,0.676,0.295,0.875,0.031
	C28.267,47.031,28.298,46.781,28.298,46.469z M33.39,45.282c0.368,0.307,0.319,1.024,0,1.343c-0.352,0.294-0.85,0.261-1.281,0.25
	v1.062h-0.906v-2.874C31.806,45.063,32.888,44.88,33.39,45.282C33.578,45.439,33.234,45.157,33.39,45.282z M32.765,45.969
	c0-0.093-0.031-0.156-0.062-0.219c-0.127-0.125-0.427-0.115-0.594-0.093v0.625c0.177,0.015,0.401,0.016,0.563-0.063
	C32.734,46.157,32.765,46.063,32.765,45.969z M37.388,45.063l1.093,2.874h-0.937l-0.125-0.468h-1.031l-0.124,0.468h-0.906
	l1.061-2.874H37.388z M37.232,46.844l-0.312-1.03l-0.313,1.03H37.232z M42.167,46.063h-0.968v-1h-0.906v2.874h0.906v-1.156h0.968
	v1.156h0.907v-2.874h-0.907V46.063z M51.037,47.406l0.125,0.093L50.725,48c-0.152-0.1-0.309-0.194-0.468-0.282
	c-0.465,0.349-1.477,0.448-1.937,0.032c-0.556-0.503-0.161-1.181,0.437-1.406c-0.541-0.722-0.073-1.39,0.808-1.301
	c0.938,0.094,0.971,0.915,0.223,1.364c0.124,0.156,0.281,0.282,0.437,0.406c0.031-0.093,0.062-0.188,0.093-0.281l0.625,0.156
	c-0.048,0.187-0.121,0.364-0.219,0.531L51.037,47.406z M49.195,45.688c0,0.094,0.062,0.188,0.219,0.344
	c0.143-0.048,0.261-0.234,0.312-0.375L49.663,45.5c-0.14-0.092-0.275-0.082-0.406,0.031L49.195,45.688z M49.757,47.313
	c-0.156-0.125-0.374-0.313-0.656-0.563C48.469,47.171,49.247,47.72,49.757,47.313C49.601,47.187,49.601,47.437,49.757,47.313z
	 M57.941,46.687c-0.094-0.124-0.188-0.187-0.344-0.219c0.494-0.123,0.331-0.878,0.969-0.812v-0.625c-0.415,0-0.82,0-1.117,0.303
	c-0.215,0.219-0.169,0.822-0.539,0.822v-1.093h-0.875v2.874h0.875v-1.124c0.094,0,0.156,0.031,0.188,0.062
	c0.21,0.105,0.431,0.854,0.531,1.062h1C58.434,47.534,58.26,47.01,57.941,46.687C57.846,46.563,58.034,46.782,57.941,46.687z
	 M62.251,45.063l1.093,2.874h-0.937l-0.156-0.468h-1l-0.156,0.468H60.19l1.093-2.874H62.251z M62.063,46.844l-0.312-1.03
	l-0.313,1.03H62.063z M67.342,45.282c0.34,0.34,0.346,1.029-0.031,1.343c-0.319,0.319-0.867,0.25-1.281,0.25v1.062h-0.875v-2.874
	C65.757,45.063,66.84,44.88,67.342,45.282C67.499,45.439,67.186,45.157,67.342,45.282z M66.717,45.969
	c0-0.332-0.451-0.34-0.687-0.312v0.625c0.187,0.015,0.424,0.021,0.594-0.063C66.686,46.157,66.717,46.063,66.717,45.969z
	 M71.34,45.063l1.093,2.874h-0.937l-0.156-0.468h-1l-0.124,0.468h-0.937l1.093-2.874H71.34z M71.153,46.844l-0.312-1.03l-0.313,1.03
	H71.153z M76.713,45.407c1.395,1.241-0.598,3.478-2.073,2.314C73.018,46.441,75.244,43.939,76.713,45.407
	C76.994,45.657,76.463,45.157,76.713,45.407z M76.212,46.469c0-0.281-0.031-0.468-0.156-0.594c-0.194-0.256-0.681-0.258-0.875,0
	c-0.245,0.245-0.239,1.01,0,1.25c0.173,0.29,0.676,0.295,0.875,0.031C76.181,47.031,76.212,46.781,76.212,46.469z M81.054,46.687
	c-0.094-0.124-0.219-0.187-0.344-0.219c0.475-0.157,0.319-0.869,0.938-0.812v-0.625c-0.403,0-0.826,0.005-1.109,0.303
	c-0.191,0.201-0.159,0.822-0.516,0.822v-1.093h-0.906v2.874h0.906v-1.124c0.063,0,0.125,0.031,0.188,0.062
	c0.241,0.241,0.385,0.758,0.531,1.062h1C81.546,47.562,81.353,46.989,81.054,46.687C80.96,46.563,81.147,46.782,81.054,46.687z
	 M84.49,46.719h1.374v-0.593H84.49v-0.437h1.468v-0.625h-2.374v2.874h2.436v-0.656H84.49V46.719z M90.425,36.197l0.124,0.219
	c0,0.701-1.554,1.365-2.021,1.619c-1.084,0.591-2.309,1.363-3.537,1.619c-1.014,0.211-1.573-0.302-1.398-1.367
	c0.176-1.067,1.08-1.947,1.74-2.745c-0.566,0.404-1.211,0.721-1.675,1.18c-0.337,0.332-0.639,0.634-1.045,0.9
	c-1.201,0.788-2.587,1.526-3.968,1.937c-0.974,0.29-1.983,0.193-1.856-1.083c0.174-1.74,1.942-3.015,3.078-4.152
	c-0.776,0.548-1.57,1.07-2.375,1.574c-0.351,0.219-0.748,0.43-1.018,0.705c-0.13,0.132-0.226,0.321-0.364,0.46
	c-1.052,1.057-2.809,1.782-4.18,2.308c-0.872,0.334-2.349,0.759-2.402-0.643c-0.068-1.793,1.936-3.279,3.061-4.404
	c-1.031,0.749-2.218,1.499-3.498,2.28L69.06,36.56c-0.421,0.24-0.89,0.375-1.366,0.456c-0.259,0.044-0.53,0.032-0.787,0.08
	c-0.488,0.092-0.522,0.176-0.919,0.515c-0.846,0.723-1.77,1.425-2.809,1.847c-1.727,0.7-3.808,0.115-3.155-2.142
	c-1.082,0.737-2.285,1.35-3.482,1.876c-0.607,0.267-1.667,0.832-2.323,0.374c-1.987-1.385,2.606-5.222,3.376-5.992
	c-0.575,0.095-0.836,0.007-1.3,0.33c-0.351,0.244-0.657,0.645-0.97,0.941c-0.42,0.397-0.844,0.793-1.294,1.154
	c-0.259,0.208-0.626,0.36-0.864,0.573c-0.305,0.274-0.524,0.62-0.888,0.879c-1.17,0.834-2.582,1.694-3.959,2.138
	c-1.227,0.395-1.935-0.473-1.47-1.704c-1.122,0.881-2.538,1.849-4.029,1.843c-1.678-0.007-2.015-1.603-1.383-2.939
	c-0.734,0.418-1.701,0.684-2.397,0.066c-1.026,0.845-5.164,4.396-6.547,2.273c-0.696-1.068,0.419-2.361,1.075-3.105
	c0.51-0.579,1.071-1.113,1.598-1.676c0.149-0.159,0.688-0.582,0.688-0.834l-0.219-0.156c-1.16-0.072-2.47,1.63-3.21,2.344
	c-0.643,0.619-1.203,1.329-1.94,1.833c-1.105,0.757-6.243,4.082-5.313,0.352c-1.191,0.934-2.87,2.116-4.489,1.805
	c-1.554-0.299-1.399-2.142-0.758-3.221c0.933-1.571,2.906-2.763,4.625-3.252c1.428-0.407,3.64-0.447,3.12,1.638
	c0.25-0.25,0.812-0.874,1.687-1.874h1.843c-1.207,1.328-2.469,2.611-3.634,3.977c-0.393,0.46-1.437,1.354-1.52,2.02l0.25,0.219
	c1.116,0.062,2.377-1.092,3.207-1.681c0.724-0.514,1.449-0.941,1.987-1.624c0.611-0.776,4.306-4.214,5.144-2.395
	c0.47,1.022-0.59,2.172-1.209,2.84c-0.469,0.506-0.982,0.97-1.456,1.472c-0.185,0.196-0.796,0.689-0.821,1.004
	c-0.064,0.797,1.52,0.281,1.946,0.112c1.344-0.533,2.529-1.5,3.602-2.445l-0.093-0.313c0-0.826,2.049-4.121,3.045-3.108
	c0.888,0.904-1.74,3.078-2.233,3.483c0.751,0.605,1.565-0.223,2.311-0.375l0.04,0.053c1.053-1.501,2.989-2.666,4.757-3.081
	c1.276-0.299,3.516-0.216,2.794,1.716c0.281-0.25,0.844-0.874,1.718-1.874h1.843c-1.209,1.331-2.473,2.613-3.645,3.977
	c-0.398,0.463-1.424,1.348-1.508,2.02l0.25,0.219c0.705,0.039,1.459-0.496,2.018-0.856c0.829-0.534,1.62-1.132,2.423-1.703
	c1.244-0.884,2.464-1.95,3.524-3.063c-0.715-0.275-0.827-1.308-0.093-1.642c0.836-0.38,1.617,0.628,0.811,1.204
	c0.656,0,1.249-0.093,1.749-0.25l0.625,1.281c-0.956,1.035-1.944,2.041-2.874,3.1c-0.211,0.241-1.32,1.239-1.245,1.623
	c0.218,1.116,4.034-1.396,4.388-1.648c1.033-0.735,1.752-1.721,2.762-2.478c1.004-0.753,2.161-1.397,3.398-1.66
	c0.833-0.177,2.252-0.306,2.694,0.652c0.441,0.956-0.562,2.194-1.129,2.847c0.754,0.083,1.391-0.5,2.124-0.5l0.015,0.018
	c2.973-2.029,5.156-3.785,6.513-5.297c-0.382,0-0.853,0.118-1.124-0.219c0.228-0.458,1.239-0.129,1.568-0.327
	c0.326-0.195,0.63-0.7,0.883-0.981c0.62-0.688,1.239-1.377,1.859-2.065h1.875l-2.811,3.123h1.999l0.219,0.219
	c-0.031,0.188-0.875,0.281-2.53,0.25c-1.684,1.804-3.329,3.647-4.958,5.501c-0.533,0.606-1.068,1.213-1.574,1.842
	c-0.167,0.207-0.549,0.556-0.59,0.84l0.25,0.156c2.194,0.109,4.313-1.981,5.885-3.188c2.165-1.661,4.457-3.103,6.297-5.152
	c-0.366,0-0.852,0.128-1.093-0.219c0.148-0.445,1.268-0.145,1.531-0.285c0.312-0.166,0.614-0.69,0.848-0.953
	c0.633-0.712,1.267-1.423,1.9-2.135h1.875l-2.811,3.123h2.03l0.188,0.219c-0.031,0.188-0.875,0.281-2.53,0.25
	c-1.662,1.823-3.332,3.643-4.955,5.501c-0.529,0.605-1.059,1.212-1.557,1.842c-0.166,0.21-0.537,0.556-0.578,0.84l0.219,0.156
	c1.208,0.06,3.005-0.881,5.407-2.776l-0.003-0.004c0.333-0.584,1.344-1.015,1.892-1.406c0.709-0.507,1.407-1.029,2.087-1.574
	c0.474-0.38,0.558-0.424,1.14-0.424c0.397,0,0.794,0,1.191,0c-1.208,1.328-2.436,2.642-3.602,4.007
	c-0.388,0.454-1.428,1.337-1.52,1.99l0.281,0.187c1.138,0.053,2.328-0.841,3.218-1.436c0.571-0.382,1.132-0.78,1.71-1.152
	C89.945,36.478,90.236,36.197,90.425,36.197z M27.299,34.261c0-1.866-2.836-0.058-3.392,0.347c-1.164,0.848-3.249,2.287-3.539,3.842
	c-0.351,1.881,2.856,0.157,3.418-0.204C25.032,37.444,27.299,35.988,27.299,34.261z M48.976,34.261c0-1.866-2.836-0.058-3.392,0.347
	c-1.168,0.851-3.243,2.285-3.539,3.842c-0.358,1.883,2.853,0.159,3.418-0.204C46.709,37.444,48.976,35.988,48.976,34.261z
	 M67.748,34.261c0-1.833-2.622-0.206-3.209,0.219c-1.216,0.882-3.366,2.348-3.688,3.951c-0.382,1.903,2.833,0.203,3.414-0.173
	C65.505,37.455,67.748,35.976,67.748,34.261z M19.428,32.293c1.624-1.925,3.082-4.004,4.567-6.036
	c1.59-2.176,3.043-4.557,5.303-6.114c1.357,2.133,0.245,4.568-1.256,6.307c-0.611,0.708-1.51,1.521-2.508,1.552
	c-1.395,0.044-0.537-1.566,0.047-2.081c0.188-0.344,0.124-0.5-0.125-0.406c-0.868,0.799-1.971,2.466-0.258,3.12
	c1.112,0.424,2.564-0.282,3.4-0.986c2.43-2.048,2.554-5.096,1.043-7.724c0.799-0.487,1.623-0.931,2.458-1.353
	c0.525-0.266,2.207-0.762,2.384-1.271c-0.135-0.68-4.56,1.937-5.091,2.249c-4.379-4.975-11.987-3.965-17.413-1.468
	c-2.664,1.226-5.482,2.889-7.007,5.491c-1.285,2.193-1.614,5.286,0.807,6.815c3.777,2.175,9.079,0.244,12.207-2.244
	c1.355-1.078,2.472-2.496,2.748-4.244c0.32-2.022-0.76-3.472-2.836-3.663c-0.25,0.031-0.25,0.188,0.062,0.375
	c1.84,0.204,2.713,1.646,2.277,3.387c-0.394,1.576-1.627,2.803-2.891,3.743c-2.743,2.039-7.163,4.171-10.592,2.631
	c-3.841-1.725-2.096-6.291,0.214-8.53c2.74-2.657,6.588-4.223,10.269-5.019c4.026-0.87,9.063-0.472,11.843,2.976
	c-4.601,2.788-7.911,7.539-11.421,11.499c-2.859,3.226-6.013,6.987-10.462,7.866c-1.848,0.365-5.689,0.435-6.322-1.935
	c1.167,0.387,2.024-0.805,1.187-1.78c-0.886-0.887-1.952,0.094-2.049,1.081c-0.085,0.864,0.433,1.589,1.124,2.05
	c1.841,1.227,4.444,1.261,6.555,1.003C12.573,38.985,16.337,35.924,19.428,32.293C20.272,31.293,17.46,34.604,19.428,32.293z"/>
</svg>
