<?xml version="1.0" encoding="utf-8"?>
<!-- Generator: Adobe Illustrator 19.2.1, SVG Export Plug-In . SVG Version: 6.00 Build 0)  -->
<svg version="1.1" id="Слой_1" xmlns="http://www.w3.org/2000/svg" xmlns:xlink="http://www.w3.org/1999/xlink" x="0px" y="0px"
	 width="115px" height="48px" viewBox="0 0 115 48" enable-background="new 0 0 115 48" xml:space="preserve">
<path fill-rule="evenodd" clip-rule="evenodd" fill="#4D321B" d="M34.316,35.639c-0.363,0.355,0.245,0.658-0.135,1.018
	c-0.026-0.423-0.421-0.511-0.264-0.913c0.166-0.425,0.472-0.371,0.472-0.926C34.39,35.179,34.727,35.243,34.316,35.639
	C34.132,35.819,34.774,35.198,34.316,35.639z M37.773,39.774c0-0.437-6.817-0.436-6.816,0
	C30.958,40.216,37.773,40.207,37.773,39.774z M34.475,34.029c0,0.053-0.11,0.171-0.128,0.245c-0.07,0.284,0.126,0.312,0.202,0.572
	c0.039,0.135,0.144,0.16,0.15,0.324c0.013,0.344-0.368,0.36-0.016,0.693c0.034-0.421,0.423-0.508,0.265-0.911
	C34.781,34.528,34.475,34.583,34.475,34.029z M32.784,40.089c-0.35,0,0.065,0.214,0.136,0.241c0.255,0.097,0.778,0,1.052,0
	c0.414,0,1.616,0.217,1.97,0c0.482-0.295-1.083-0.241-1.188-0.241C34.097,40.089,33.441,40.089,32.784,40.089z M32.093,36.738
	c1.517,0,3.035,0,4.552,0c-0.02,0.074-0.041,0.147-0.061,0.221c0.525-0.334,1.067,0.3,0.86,0.811
	c-0.217,0.535-0.981,0.506-1.13-0.072c-0.481,1.099-0.876,1.983-2.294,1.737C32.738,39.213,32.385,37.821,32.093,36.738z
	 M36.539,37.519c0,0.472,0.696,0.474,0.699,0C37.24,37.048,36.539,37.023,36.539,37.519z M69,26.58
	c-0.05,1.304-0.138,2.518-0.938,3.615c-0.565,0.775-1.16,1.082-1.96,1.52c-0.448,0.246-0.336-0.027-0.322,0.535
	c0.014,0.56,0.077,1.068-0.044,1.629c-0.18,0.835-0.572,1.705-1.065,2.404c-0.167,0.237-0.498,0.514-0.542,0.728
	c-0.064,0.305,0.159,0.835,0.13,1.192c-0.132,1.623-3.119,1.653-2.875,0.079c0.374,0.036,0.458,0.28,0.624,0.548
	c0.218,0.352-0.076,0.415,0.49,0.502c0.843,0.13,1.434-0.358,1.542-1.177c0.069-0.523-0.3-1.578-0.67-0.725
	c-0.035,0.08-0.308,1.846-0.761,1.133c0.198-0.396,0.978-0.78,0.316-1.173c-0.314-0.186-0.797-0.096-1.161-0.358
	c-0.309-0.222-0.466-0.699-0.738-0.885c-0.549-0.374-1.904-0.1-2.509,0.013c-0.326,0.061-1.011,0.371-1.257,0.265
	c1.051-0.527,2.53-0.72,3.672-0.507c-0.223-0.591-0.995-0.456-1.599-0.413c-0.6,0.043-1.129,0.206-1.683,0.425
	c-0.784,0.31-1.551,0.666-2.311,1.03c1.581-1.159,3.433-1.919,5.41-1.769c-0.009-0.071-0.014-0.142-0.016-0.213
	c0.205,0.066,0.231,0.166,0.431,0.257c0.34,0.155,0.77,0.137,1.127,0.301c0.346,0.159,0.677,0.386,0.986,0.608
	c0.338,0.242,0.336,0.351,0.669,0.138c0.847-0.542,1.523-2.439,1.526-3.4c0.001-0.194,0.044-0.753-0.091-0.912
	c-0.171-0.202-0.493-0.032-0.798-0.085c-0.708-0.121-1.517-0.768-1.532-1.522c-0.018-0.919,0.927-0.867,1.521-0.46
	c0.61,0.419,0.771,1.098,1.078,1.712c0.906-0.259,1.798-1.08,2.252-1.888c-0.339,0-0.958-0.13-1.266,0
	c-0.3,0.127-0.425,0.672-0.822,0.775c-0.287,0.075-0.308,0.075-0.187-0.168c0.142-0.285,0.555-0.54,0.726-0.873
	c0.382-0.741,0.599-1.67,0.63-2.499c0.033-0.863-0.005-1.667-0.337-2.475c-0.097-0.236-1.115-1.564-1.073-1.616
	c0.202-0.251,0.873,0.688,1.025,0.744c0.362,0.131,0.985,0,1.373,0c-0.298-0.544-0.786-1.002-1.307-1.334
	c-0.335-0.213-0.82-0.515-1.078-0.339c-0.268,0.183-0.453,0.989-0.731,1.276c-0.519,0.535-1.843,0.982-1.82-0.189
	c0.011-0.553,0.429-1.004,0.886-1.277c0.397-0.237,0.927-0.07,1.257-0.241c1.013-0.523-0.324-3.073-0.757-3.752
	c-0.16-0.25-0.347-0.588-0.606-0.752c-0.489-0.311-0.888,0.25-1.362,0.544c-0.572,0.354-1.296,0.569-1.739,0.861
	c0.002-0.063,0.007-0.126,0.014-0.188c-2.652,0.454-5.184-0.491-7.32-2.055c1.049,0.501,2.11,1.004,3.203,1.404
	c0.767,0.281,1.536,0.39,2.354,0.377c0.448-0.007,0.897-0.046,1.341-0.105c0.537-0.071,0.476-0.149,0.721-0.636
	c-1.667,0.626-3.678,0.3-5.286-0.39c0.011-0.023,0.022-0.046,0.033-0.069c1.413,0.404,2.848,0.75,4.327,0.469
	c0.451-0.086,0.869-0.217,1.235-0.472c0.195-0.136,0.313-0.341,0.531-0.471c0.247-0.148,0.532-0.164,0.734-0.359
	c0.306-0.296,0.391-0.716,0.217-1.096c-0.123-0.268-0.468-0.374-0.579-0.597c0.198-0.377,0.385-0.095,0.571,0.135
	c0.387,0.479,0.546,1.087,0.198,1.649c0.519,0.063,0.694,0.308,0.919-0.338c0.087-0.248,0.08-0.551,0.063-0.809
	c-0.04-0.6-0.267-1.187-0.838-1.461c-0.404-0.194-1.334-0.243-1.584,0.1c-0.303,0.417-0.034,1.003-0.819,1.066
	c-0.211-1.134,1.305-1.6,2.153-1.393c1.169,0.286,1.43,1.091,1.341,2.175c-0.019,0.227-0.123,0.487-0.13,0.707
	c-0.033,0.121-0.091,0.228-0.175,0.32c0.124,0.082,0.239,0.175,0.345,0.277c0.253,0.348,0.519,0.66,0.728,1.045
	c0.663,1.227,0.979,2.494,0.666,3.875C68.061,22.024,68.917,24.455,69,26.58z M63.211,16.642c-0.74-0.354-1.997,0.284-2.168,1.08
	C61.839,17.467,62.621,17.266,63.211,16.642C62.996,16.539,62.988,16.878,63.211,16.642z M65.335,21.758
	c-0.693-0.154-2.719,0.58-1.927,1.584C64.174,24.315,65.206,22.273,65.335,21.758z M65.355,31.635
	c-0.132-0.498-1.155-2.569-1.931-1.583C62.636,31.054,64.654,31.787,65.355,31.635z M62.666,36.927
	c-0.418-0.352-0.923-0.574-1.442-0.726C61.477,36.689,62.14,37.001,62.666,36.927C62.385,36.689,62.428,36.96,62.666,36.927z
	 M63.463,36.63c-0.604-0.657-1.554-0.928-2.42-1.045c0.106,0.565,0.596,0.51,1.086,0.725C62.672,36.548,62.915,36.958,63.463,36.63
	C63.264,36.412,63.318,36.717,63.463,36.63z M68.62,26.249c-0.435,0-0.869,0-1.304,0c0.018,0.578,0.806,0.335,1.312,0.335
	C68.625,26.472,68.623,26.361,68.62,26.249z M68.595,25.636c-0.444,0-0.888,0-1.332,0c0.052,0.487,0.141,0.347,0.595,0.347
	c0.253,0,0.505,0,0.758,0C68.609,25.868,68.602,25.752,68.595,25.636z M68.522,25.101c-0.447,0-0.894,0-1.34,0
	c0.092,0.482,0.938,0.266,1.389,0.266C68.562,25.277,68.546,25.188,68.522,25.101z M68.252,24.23
	c-0.057-0.147-0.118-0.282-0.18-0.409c-0.171,0.194-1.1,0.061-1.418,0.061C66.973,24.447,67.632,24.23,68.252,24.23z M67.112,24.831
	c0.448,0,0.896,0,1.344,0c-0.169-0.57-0.941-0.335-1.483-0.335C67.02,24.608,67.066,24.719,67.112,24.831z M68.175,29.142
	c-0.583,0-1.134-0.185-1.446,0.319C67.273,29.461,67.942,29.675,68.175,29.142z M68.387,28.57c-0.523,0-1.193-0.198-1.381,0.302
	C67.494,28.872,68.225,29.077,68.387,28.57z M68.534,28.039c-0.436,0-1.283-0.203-1.377,0.266
	C67.577,28.304,68.445,28.508,68.534,28.039z M68.62,27.459c-0.497,0-1.268-0.217-1.353,0.311
	C67.733,27.769,68.586,28.01,68.62,27.459z M68.632,26.854c-0.249,0-0.497,0-0.746,0c-0.422,0-0.545-0.136-0.562,0.335
	c0.249,0,0.499,0,0.748,0C68.486,27.189,68.632,27.328,68.632,26.854z M5.547,37.275c-0.489,0.701,0.147,0.805,0.386,1.29
	c-0.26,0.362-0.533-0.119-0.666-0.405c-0.118-0.255-0.063-0.453-0.102-0.706c0.012-0.109,0.047-0.212,0.103-0.308
	c-0.14-0.08-0.273-0.171-0.396-0.275c-0.539,0.664-0.596,1.971,0.322,2.384c0.382,0.171,1.079,0.161,1.295-0.127
	c0.257-0.341,0.003-0.793,0.671-0.844c0.13,0.843-0.895,1.273-1.59,1.177c-1.12-0.155-1.432-0.997-1.262-2.016
	c0.034-0.201,0.234-0.501,0.242-0.663c0.012-0.257,0.02-0.014-0.052-0.285c-0.095-0.355-0.522-0.819-0.687-1.16
	c-0.55-1.14-0.767-2.27-0.484-3.517c-3.012-0.562-3.915-4.595-3.098-7.156c0.237-0.743,0.596-1.378,1.12-1.951
	c0.277-0.303,0.582-0.616,0.948-0.81c0.192-0.101,0.898-0.184,1.001-0.368c0.108-0.192-0.141-1.209-0.114-1.491
	c0.049-0.509,0.192-0.994,0.381-1.468c0.327-0.818,0.759-1.71,1.513-2.214c-0.878-0.781-1.048-2.732,0.014-3.422
	c0.937-0.608,3.301-0.501,3.052,1.142c-0.289-0.02-0.54-0.176-0.696-0.413c-0.135-0.204-0.054-0.612-0.177-0.767
	c-0.34-0.427-1.555-0.213-1.958,0.105c-0.519,0.408-0.659,1.108-0.629,1.734c0.012,0.253,0.045,0.461,0.153,0.689
	c0.067,0.141,0.314,0.53,0.462,0.614c0.286,0.162,0.383-0.01,0.773-0.035c-0.553-0.466-0.694-1.196-0.35-1.834
	c0.154-0.285,0.561-0.962,0.833-0.457c-0.495,0.495-0.977,0.877-0.541,1.608c0.501,0.842,1.712,1.329,2.611,1.539
	c1.359,0.318,3.552,0.258,4.816-0.463c0.012,0.026,0.025,0.052,0.037,0.078c-1.777,0.762-3.916,1.063-5.75,0.37
	c0.276,0.371,0.253,0.536,0.656,0.692c0.38,0.147,0.957,0.115,1.358,0.133c0.952,0.042,1.861-0.047,2.759-0.372
	c1.182-0.428,2.328-0.972,3.461-1.514c-2.259,1.659-4.938,2.656-7.746,2.196c0.028,0.143,0.045,0.286,0.051,0.431
	c-0.362,0.045-0.128-0.307-0.287-0.469C7.79,17.754,7.06,17.68,6.769,17.521c-0.316-0.172-0.732-0.596-1.069-0.676
	c-0.285-0.068-0.474,0.093-0.709,0.333c-0.764,0.782-1.458,2.228-1.463,3.333c-0.001,0.195-0.046,0.75,0.09,0.91
	c0.149,0.177,0.36,0.056,0.632,0.078c0.736,0.059,1.619,0.643,1.698,1.428c0.084,0.831-0.63,1.009-1.279,0.7
	c-0.553-0.264-1.319-1.192-1.319-1.847c-0.905,0.259-1.803,1.074-2.252,1.888c0.306,0,0.633,0.034,0.937,0
	c0.519-0.058,0.339-0.075,0.709-0.458c0.064-0.066,0.542-0.49,0.691-0.38c0.089,0.066-0.716,0.959-0.79,1.102
	c-0.576,1.117-0.728,2.494-0.622,3.73c0.053,0.629,0.283,1.296,0.615,1.832c0.069,0.112,0.89,0.98,0.79,1.03
	c-0.362,0.167-0.786-0.659-1.147-0.744c-0.373-0.087-0.868,0-1.252,0c0.296,0.54,0.789,1.002,1.306,1.333
	c0.135,0.087,0.849,0.558,1.04,0.473c0.173-0.076,0.499-1.095,0.688-1.314c0.445-0.516,1.69-1.139,1.897-0.099
	c0.182,0.91-0.905,1.662-1.694,1.726c-0.363,0.029-0.466-0.115-0.646,0.14c-0.166,0.235-0.098,1.003-0.061,1.256
	c0.104,0.719,0.502,1.449,0.862,2.068c0.095,0.164,0.434,0.875,0.659,0.919c0.214,0.041,0.987-0.667,1.236-0.778
	c0.64-0.283,1.497-0.192,1.971-0.522c-0.002,0.063-0.007,0.127-0.014,0.19c1.8-0.016,3.493,0.741,4.93,1.792
	c-0.653-0.312-1.311-0.615-1.979-0.893c-0.407-0.169-0.818-0.344-1.247-0.448c-0.318-0.077-0.638-0.109-0.964-0.121
	c-0.501-0.018-0.725-0.137-0.901,0.36c1.01-0.067,2.25,0.105,3.17,0.567c-0.01,0.02-0.019,0.041-0.029,0.061
	c-0.665-0.4-2.122-0.605-2.854-0.459c-0.434,0.086-0.35,0.106-0.62,0.482c-0.173,0.241-0.391,0.452-0.645,0.607
	C6.647,37.415,6.083,37.483,5.547,37.275C5.416,37.463,5.991,37.447,5.547,37.275z M3.665,31.635
	c0.694,0.162,2.716-0.58,1.926-1.583C4.83,29.086,3.787,31.116,3.665,31.635z M3.645,21.758c0.126,0.502,1.159,2.571,1.93,1.585
	C6.359,22.339,4.345,21.613,3.645,21.758z M6.978,16.544c-0.334-0.16-0.725-0.11-1.128,0.065c0.538,0.464,1.358,0.634,2.023,0.845
	C7.751,17.004,7.389,16.729,6.978,16.544C6.645,16.384,6.998,16.553,6.978,16.544z M0.825,24.255c0.581,0,1.136,0.187,1.442-0.319
	C1.733,23.936,1.046,23.718,0.825,24.255z M0.613,24.823c0.506,0,1.215,0.204,1.377-0.302C1.497,24.521,0.781,24.318,0.613,24.823z
	 M0.462,25.358c0.432,0,1.287,0.204,1.381-0.266C1.409,25.093,0.568,24.89,0.462,25.358z M0.38,25.938
	c0.497,0,1.268,0.217,1.353-0.311C1.267,25.628,0.415,25.387,0.38,25.938z M0.368,26.543c0.249,0,0.497,0,0.746,0
	c0.437,0,0.529,0.134,0.562-0.339c-0.249,0-0.499,0-0.748,0C0.511,26.204,0.368,26.065,0.368,26.543z M0.376,27.148
	c0.436,0,0.872,0,1.308,0c-0.036-0.581-0.796-0.339-1.316-0.339C0.37,26.922,0.373,27.035,0.376,27.148z M0.405,27.757
	c0.444,0.001,0.888,0.003,1.332,0.004c-0.05-0.487-0.142-0.347-0.595-0.347c-0.253,0-0.505,0-0.758,0
	C0.391,27.528,0.398,27.642,0.405,27.757z M0.478,28.296c0.447,0,0.894,0,1.34,0c-0.093-0.487-0.933-0.27-1.389-0.27
	C0.438,28.118,0.454,28.208,0.478,28.296z M0.65,28.897c0.459,0,0.918,0,1.377,0c-0.263-0.545-0.893-0.335-1.483-0.335
	C0.579,28.673,0.614,28.785,0.65,28.897z M0.928,29.514h1.418c-0.327-0.56-0.97-0.347-1.598-0.347
	c0.055,0.138,0.115,0.274,0.18,0.409V29.514z M7.84,36.074c-0.657,0.101-1.323,0.36-1.856,0.761
	C6.667,37.09,7.568,36.797,7.84,36.074C7.585,36.114,7.711,36.416,7.84,36.074z M5.639,36.146c-0.138,0.08-0.263,0.178-0.374,0.293
	c0.539,0.397,0.865-0.025,1.442-0.249c0.49-0.19,1.185-0.12,1.276-0.659C7.169,35.603,6.379,35.785,5.639,36.146
	C5.536,36.195,5.974,35.982,5.639,36.146z M54.429,37.098c-0.262-0.033-0.392,0.118-0.392,0.118c0.232,0.2,0.525,0.296,0.78,0.09
	C54.817,37.306,54.694,37.135,54.429,37.098C54.167,37.065,54.694,37.135,54.429,37.098z M59.095,37.932
	c-0.257,0.057-0.315,0.245-0.315,0.245c0.286,0.105,0.595,0.089,0.756-0.196C59.536,37.981,59.357,37.866,59.095,37.932
	C58.838,37.989,59.357,37.866,59.095,37.932z M58.596,38.332c-0.181,0.243-0.244,0.542,0,0.76
	C58.804,38.873,58.809,38.541,58.596,38.332z M58.911,38.557c-0.164,0.254-0.204,0.555,0.053,0.756
	C59.155,39.081,59.136,38.751,58.911,38.557z M59.238,38.88c-0.156,0.258-0.188,0.559,0.069,0.756
	C59.494,39.399,59.471,39.067,59.238,38.88z M59.52,40.02c0.231-0.193,0.276-0.521,0.086-0.752
	C59.543,39.335,59.193,40.02,59.52,40.02z M53.203,42.766c-0.288-0.102-0.604,0.012-0.727,0.29
	C52.773,43.122,53.076,43.068,53.203,42.766z M51.969,44.094c-0.217-0.151-0.4-0.078-0.4-0.078c0.105,0.288,0.319,0.504,0.642,0.433
	C52.21,44.449,52.181,44.245,51.969,44.094C51.752,43.942,52.181,44.245,51.969,44.094z M52.541,43.873
	c-0.213-0.151-0.4-0.074-0.4-0.074c0.105,0.288,0.326,0.499,0.646,0.433C52.786,44.233,52.757,44.028,52.541,43.873
	C52.328,43.722,52.757,44.028,52.541,43.873z M52.82,43.337c-1.028-0.755-2.304,0.501-3.258,0.928
	c0.482,0.19,1.201-0.508,1.671-0.729c0.421-0.198,0.836-0.413,1.3-0.203c0.275,0.125,0.378,0.576,0.785,0.494
	c0,0-0.013-0.205-0.212-0.367c0.191,0.038,0.368-0.044,0.482-0.197C53.375,43.123,52.979,43.093,52.82,43.337
	C52.8,43.322,52.849,43.292,52.82,43.337z M50.918,43.742c0.084,0.294,0.285,0.523,0.609,0.478
	C51.477,43.922,51.216,43.715,50.918,43.742z M51.303,43.62c0.187,0.244,0.459,0.385,0.748,0.229
	C51.892,43.587,51.573,43.483,51.303,43.62z M52.304,43.714c0.196,0.041,0.351-0.069,0.351-0.069
	c-0.154-0.265-0.477-0.366-0.748-0.233C51.907,43.411,52.108,43.665,52.304,43.714C52.5,43.754,52.108,43.665,52.304,43.714z
	 M59.908,38.446c-0.224-0.207-0.561-0.22-0.785-0.016C59.372,38.608,59.673,38.672,59.908,38.446z M59.528,38.818
	c0.248,0.181,0.549,0.254,0.785,0.02C60.09,38.631,59.754,38.621,59.528,38.818z M60.272,39.125c-0.257-0.057-0.4,0.086-0.4,0.086
	c0.214,0.22,0.5,0.331,0.772,0.151C60.644,39.362,60.533,39.182,60.272,39.125C60.014,39.067,60.533,39.182,60.272,39.125z
	 M60.002,39.574c-0.009,0.305,0.115,0.581,0.437,0.633C60.484,39.906,60.299,39.629,60.002,39.574z M53.632,36.326
	c-0.161,0.259-0.011,0.575,0.229,0.723C54.033,36.767,53.867,36.499,53.632,36.326z M53.901,36.027
	c-0.165,0.26-0.015,0.576,0.229,0.723C54.304,36.468,54.135,36.202,53.901,36.027z M54.388,36.42
	c0.177-0.284,0.008-0.549-0.225-0.727C53.993,35.951,54.145,36.269,54.388,36.42z M55.099,36.873
	c-0.246-0.182-0.583-0.157-0.78,0.074C54.586,37.094,54.891,37.127,55.099,36.873z M55.372,36.35
	c-0.295-0.109-0.603,0.009-0.727,0.282C54.941,36.706,55.246,36.651,55.372,36.35z M59.626,39.031
	c0.548,0.704,0.232,1.587-0.572,1.941c-0.397,0.174-1.055,0.07-1.271,0.316c-0.307,0.35-0.24,0.829-0.689,1.15
	c-0.291,0.209-0.654,0.295-1.005,0.212c-0.22-0.053-0.379-0.227-0.586-0.297c-0.428-0.144-0.147-0.08-0.478,0.041
	c-0.775,0.285-1.33,0.182-1.89-0.549c-0.803,0.7-1.767,1.203-2.838,1.321c-0.595,0.066-1.245,0.019-1.819-0.163
	c-0.318-0.101-0.6-0.313-0.911-0.412c-0.635-0.202-0.077-0.136-0.535,0.011c-0.878,0.282-1.665,0.93-2.578,1.213
	c-1.128,0.351-2.24,0.373-3.392,0.132c-0.704,3.767-5.384,4.313-8.479,3.957c-1.667-0.192-3.744-1.292-4.515-2.844
	c-0.094-0.188-0.208-0.948-0.403-1.058c-0.236-0.133-1.281,0.154-1.618,0.142c-1.236-0.044-2.437-0.49-3.522-1.061
	c-0.276-0.145-0.819-0.662-1.109-0.701c-0.197-0.027-0.594,0.295-0.815,0.399c-0.374,0.177-0.75,0.294-1.159,0.357
	c-1.497,0.228-2.918-0.317-4.036-1.294c-0.331,0.435-0.939,0.917-1.54,0.744c-0.282-0.081-0.413-0.364-0.619-0.364
	c-0.226,0-0.55,0.367-0.794,0.425c-0.707,0.17-1.314-0.333-1.574-0.959c-0.034-0.093-0.068-0.186-0.102-0.278
	c0.045-0.28-0.083-0.365-0.386-0.254c-0.378-0.142-0.785-0.069-1.148-0.307c-1.185-0.776-0.425-1.925,0.421-2.544
	c1.258-0.92,3.165-0.793,4.452,0.022c0.118-0.406,0.391-0.773,0.733-1.019c-0.618-0.368-1.745-1.484-0.821-2.146
	c0.543-0.389,2.227-0.032,2.018,0.835c-0.404-0.161-0.298-0.489-0.507-0.687c-0.277-0.261-0.852-0.364-1.196-0.184
	c-0.827,0.432-0.375,1.348,0.133,1.797c0.663,0.585,0.994-0.153,1.745-0.335c0.922-0.224,1.744,0.675,0.56,1.047
	c-0.461,0.145-1,0.04-1.454-0.081c-0.484-0.128-0.527-0.245-0.849,0.286c-0.43,0.707,0.179,0.818,0.634,1.313
	c0.411,0.447,0.474,0.864,0.691,1.395c0.124,0.303,0.063,0.276,0.387,0.512c0.176,0.127,0.381,0.228,0.575,0.327
	c0.347,0.176,0.717,0.326,1.097,0.419c0.951,0.233,2.04,0.218,2.957-0.135c-1.261-1.973,0.895-3.697,2.77-3.753
	c0.103,0.392-1.46,0.496-1.747,0.688c-0.99,0.663-0.964,1.836-0.348,2.738c0.209-0.127,0.476-0.424,0.665-0.41
	c-0.185,0.185-0.394,0.346-0.612,0.489c0.522,0.73,0.667-0.04,1.205-0.162c-0.235,0.235-0.503,0.448-0.765,0.65
	c0.898,0.775,2.216,1.378,3.36,1.674c0.582,0.15,1.195,0.141,1.789,0.063c0.808-0.107,0.349-0.404,0.507-1.124
	c0.199-0.914,2.051-2.716,2.849-1.421c0.362,0.587-0.175,1.444-0.606,1.836c-0.573,0.521-1.259,0.643-1.912,0.974
	c0.381,1.141,1.409,2.197,2.464,2.746c0-0.394,0.166-1.221,0-1.569c-0.172-0.358-0.993-0.529-1.06-1.057
	c-0.066-0.518,0.151-0.164,0.344-0.028c0.442,0.312,0.75,0.638,1.28,0.865c0.997,0.425,2.159,0.664,3.24,0.67
	c1.18,0.006,2.238-0.053,3.337-0.536c0.304-0.134,1.627-1.302,1.796-1.185c0.331,0.23-0.903,1.054-0.968,1.216
	c-0.17,0.418,0,1.249,0,1.706c0.603-0.294,1.132-0.799,1.553-1.321c0.22-0.274,0.4-0.602,0.557-0.916
	c0.045-0.091,0.216-0.358,0.208-0.464c-0.02-0.27-0.024-0.059-0.224-0.226c-0.339-0.283-0.922-0.394-1.305-0.665
	c-0.379-0.269-0.689-0.584-0.867-1.02c-0.374-0.916,0.149-1.569,1.127-1.382c0.789,0.151,1.506,0.982,1.678,1.754
	c0.049,0.221-0.101,0.905,0.007,1.025c0.129,0.143,0.719,0.123,0.879,0.134c1.612,0.109,3.39-0.686,4.65-1.663
	c-0.303-0.227-0.609-0.466-0.877-0.735c0.599-0.026,0.703,1.093,1.348,0.255c-0.274-0.163-0.53-0.357-0.755-0.582
	c0.11,0.023,0.176,0.102,0.339,0.195c0.456,0.263,0.344,0.345,0.682,0.005c0.559-0.563,0.392-1.492-0.008-2.06
	c-0.362-0.514-0.782-0.686-1.391-0.795c-0.296-0.053-0.884,0.034-0.814-0.385c1.926,0.058,4.072,1.861,2.71,3.842
	c0.918,0.306,2.002,0.29,2.932,0.029c0.327-0.092,0.642-0.223,0.945-0.377c0.199-0.101,0.538-0.249,0.699-0.4
	c0.263-0.248,0.169-0.218,0.287-0.581c0.177-0.548,0.359-0.946,0.771-1.361c0.46-0.463,0.943-0.526,0.531-1.204
	c-0.341-0.561-0.439-0.414-0.973-0.253c-0.416,0.125-1.06,0.203-1.468,0.012c-1.067-0.499-0.092-1.204,0.698-1.011
	c0.751,0.183,1.082,0.92,1.745,0.335c0.501-0.442,0.962-1.38,0.133-1.797c-0.297-0.149-0.859-0.109-1.112,0.118
	c-0.273,0.245-0.146,0.578-0.591,0.753c-0.234-0.859,1.501-1.228,2.017-0.835c0.897,0.681-0.178,1.763-0.82,2.146
	c0.341,0.246,0.615,0.614,0.733,1.019C56.074,37.286,58.399,37.456,59.626,39.031C59.969,39.472,59.41,38.753,59.626,39.031z
	 M53.526,37.272c-0.447-0.304-1.338-0.933-1.905-0.582c-0.456,0.282-0.209,0.619,0.175,0.778
	C52.306,37.678,53.056,37.493,53.526,37.272C53.505,37.257,53.442,37.311,53.526,37.272z M15.016,37.272
	c0.484,0.228,1.208,0.408,1.73,0.196c0.384-0.156,0.638-0.493,0.172-0.778C16.349,36.341,15.458,36.971,15.016,37.272
	C15.1,37.311,15.037,37.257,15.016,37.272z M14.213,38.601c-0.046,0.419,0.009,1.164,0.299,1.472
	c0.264,0.281,0.914,0.551,1.245,0.74C15.802,39.8,15.011,39.073,14.213,38.601C14.2,38.716,14.75,38.918,14.213,38.601z
	 M15.486,41.561c0.33-0.437,0.294-0.599-0.172-0.873c-0.265-0.156-0.524-0.326-0.795-0.472
	C14.735,40.73,15.059,41.175,15.486,41.561C15.538,41.492,15.059,41.175,15.486,41.561z M10.853,40.816
	c0.178-0.415,0.56-0.745,0.976-0.9c0.197-0.073,0.941-0.032,1.046-0.138c0.174-0.174,0.047-0.634-0.083-0.795
	c-0.892-1.111-2.038,1.222-2.819,0.542c0.239-0.251,0.419-0.093,0.662-0.164c0.346-0.101,0.608-0.476,0.983-0.615
	c0.686-0.254,1.718,0.108,1.33,1.028c0.426,0,0.855-0.022,1.259,0.146c-0.083-0.311-0.006-1.183-0.143-1.406
	c-0.195-0.319-1.249-0.482-1.588-0.549c-0.959-0.191-1.915-0.112-2.748,0.433c-0.502,0.329-1.111,0.842-0.978,1.5
	C8.874,40.5,10.526,41.551,10.853,40.816C10.865,40.788,10.837,40.853,10.853,40.816z M11.809,40.208
	c-0.182,0.102-0.766,0.478-0.793,0.748c0.768-0.029,1.471-0.398,1.831-1.111C12.365,39.856,12.136,40.024,11.809,40.208
	C11.445,40.412,12.136,40.024,11.809,40.208z M13.378,42.063c0.202-0.146,0.608-1.014,0.188-1.107
	C12.964,40.821,13.344,42.097,13.378,42.063C13.599,41.903,13.374,42.067,13.378,42.063z M15.318,41.763
	c-0.691-0.642-0.929-2.231-2.132-1.927c-0.421,0.106-0.389,0.417-0.712,0.74c-0.466,0.466-0.881,0.424-1.466,0.445
	c-0.061,1.374,1.32,1.698,2.301,1.091c-0.164-0.27-0.432-1.598,0.319-1.279c0.453,0.192,0.092,1.135-0.229,1.295
	C13.906,42.889,14.862,42.219,15.318,41.763C14.816,41.296,15.002,42.079,15.318,41.763z M21.272,42.24
	c-0.359-0.363-0.196-0.367-0.643-0.37c-0.256-0.001-0.629,0.167-0.893,0.194c-0.517,0.052-1.099,0.032-1.612-0.056
	c-0.84-0.144-1.582-0.63-2.318-1.036c-0.02,0.146-0.269,0.538-0.248,0.651c0.026,0.143,0.427,0.357,0.554,0.446
	c0.442,0.309,0.924,0.563,1.444,0.711C18.836,43.145,20.136,42.9,21.272,42.24C21.148,42.115,20.716,42.563,21.272,42.24z
	 M27.95,43.554c0.654-0.158,3.148-1.226,2.137-2.292c-0.498-0.526-1.36,0.043-1.722,0.455C27.89,42.259,27.79,42.867,27.95,43.554z
	 M31.202,45.442c-0.114-0.049-0.261-0.127-0.417-0.212c0,0.331,0,0.663,0,0.994c0,0.497-0.088,0.575,0.417,0.767
	C31.202,46.474,31.202,45.958,31.202,45.442z M31.946,45.679c-0.132-0.035-0.264-0.071-0.396-0.106c0,0.323,0,0.646,0,0.969
	c0,0.473-0.093,0.558,0.396,0.711C31.946,46.728,31.946,46.203,31.946,45.679z M32.645,45.826c-0.117-0.025-0.234-0.049-0.351-0.074
	c0,0.544-0.265,1.573,0.351,1.679C32.645,46.897,32.645,46.361,32.645,45.826z M33.397,45.936c-0.135-0.012-0.27-0.029-0.405-0.049
	c0,0.328,0,0.655,0,0.983c0,0.499-0.128,0.617,0.405,0.668C33.397,47.004,33.397,46.47,33.397,45.936z M34.185,45.969
	c-0.147-0.002-0.294-0.006-0.441-0.012c0,0.331,0,0.661,0,0.992c0,0.499-0.119,0.602,0.441,0.602
	C34.185,47.023,34.185,46.496,34.185,45.969z M34.974,45.945c-0.557,0.027-0.441,0.09-0.441,0.613c0,0.33,0,0.659,0,0.989
	c0.56,0,0.441-0.097,0.441-0.608C34.974,46.607,34.974,46.276,34.974,45.945z M35.775,45.879c-0.574,0.062-0.454,0.11-0.454,0.663
	c0,0.329,0,0.659,0,0.988c0.581-0.029,0.454-0.108,0.454-0.653C35.775,46.545,35.775,46.212,35.775,45.879z M36.47,45.781
	c-0.501,0.096-0.347,0.303-0.347,0.782c0,0.305,0,0.609,0,0.914c0.481-0.069,0.347-0.233,0.347-0.69
	C36.47,46.452,36.47,46.116,36.47,45.781z M37.258,45.532c-0.532,0.224-0.441,0.226-0.441,0.796c0,0.335,0,0.671,0,1.006
	c0.558-0.136,0.441-0.24,0.441-0.774C37.258,46.217,37.258,45.875,37.258,45.532z M38.141,46.868
	c-0.24-0.204-0.086-1.341-0.086-1.729c-0.532,0.284-0.449,0.308-0.449,0.893c0,0.352,0,0.704,0,1.056
	C37.786,47.021,37.965,46.947,38.141,46.868z M40.899,42.659c-0.098-0.831-2.169-2.558-2.39-1.052
	c-0.159,1.08,1.552,1.748,2.316,1.922C40.891,43.25,40.936,42.946,40.899,42.659C40.854,42.279,40.948,43.035,40.899,42.659z
	 M52.786,40.812c0.351-0.204,0.967-0.448,1.243-0.74c0.29-0.307,0.346-1.062,0.301-1.473C53.537,39.068,52.73,39.802,52.786,40.812
	C53.068,40.649,52.765,40.445,52.786,40.812z M54.024,40.215c-0.62,0.339-1.536,0.59-0.967,1.346
	C53.47,41.187,53.807,40.73,54.024,40.215C54.012,40.222,53.807,40.73,54.024,40.215z M52.984,41.624
	c-0.129-0.21-0.219-0.406-0.247-0.653c-0.701,0.387-1.421,0.865-2.218,1.021c-0.443,0.087-0.925,0.102-1.374,0.086
	c-0.343-0.012-0.688-0.134-1.021-0.145c-0.43-0.013-0.36,0.046-0.722,0.384C49.304,43.372,51.383,43.012,52.984,41.624
	C52.935,41.545,52.87,41.723,52.984,41.624z M55.319,41.752c0.072-0.251-0.142-1.077-0.481-0.68
	c-0.201,0.235,0.185,0.849,0.338,1.003C55.243,41.976,55.291,41.868,55.319,41.752C55.393,41.495,55.274,41.916,55.319,41.752z
	 M57.534,41.021c-0.542-0.019-0.928,0.029-1.389-0.374c-0.349-0.306-0.367-0.714-0.789-0.811c-1.222-0.281-1.427,1.272-2.132,1.927
	c0.455,0.456,1.413,1.125,1.92,0.365c-0.313-0.157-0.624-1.012-0.295-1.247c0.72-0.514,0.562,0.939,0.385,1.23
	C56.213,42.709,57.595,42.403,57.534,41.021C57.305,41.013,57.546,41.299,57.534,41.021z M56.95,40.894
	c0.151,0.029,0.356,0.053,0.576,0.061c-0.059-0.594-1.405-1.101-1.831-1.111C55.928,40.306,56.541,40.812,56.95,40.894
	C57.101,40.923,56.541,40.812,56.95,40.894z M59.573,39.072c-0.604-0.778-1.618-1.213-2.587-1.21
	c-0.636,0.002-1.298,0.151-1.891,0.373c-0.4,0.15-0.484,0.178-0.594,0.491c-0.121,0.344-0.067,0.825-0.166,1.196
	c0.403-0.168,0.832-0.146,1.259-0.146c-0.386-0.917,0.644-1.282,1.329-1.028c0.359,0.133,0.572,0.524,0.921,0.645
	c0.217,0.076,0.476-0.14,0.726,0.133c-0.637,0.516-1.537-0.863-2.275-0.792c-0.35,0.034-0.586,0.175-0.673,0.538
	c-0.171,0.708,0.519,0.473,0.976,0.612c0.357,0.108,0.646,0.303,0.874,0.596c0.323,0.415,0.283,0.555,0.904,0.478
	C59.274,40.846,60.289,39.996,59.573,39.072C59.361,38.798,59.896,39.488,59.573,39.072z M57.898,36.922c0-0.449-0.407,0-0.405,0
	C57.49,36.922,57.898,37.371,57.898,36.922z M58.507,36.71c0-0.449-0.409,0-0.409,0C58.098,36.71,58.507,37.158,58.507,36.71z
	 M58.981,36.35c-0.466,0,0,0.398,0,0.392C58.981,36.745,59.437,36.35,58.981,36.35z M59.72,36.293c-0.456,0,0,0.395,0,0.392
	C59.72,36.69,60.186,36.293,59.72,36.293z M60.623,36.579c0-0.449-0.407,0-0.405,0C60.217,36.579,60.623,37.028,60.623,36.579z
	 M13.726,37.306c0.255,0.215,0.551,0.104,0.776-0.09C14.268,37.012,13.925,37.095,13.726,37.306z M9.762,38.177
	c-0.141-0.275-0.496-0.314-0.756-0.196C9.163,38.276,9.482,38.276,9.762,38.177z M9.946,38.332c-0.233,0.2-0.188,0.546,0,0.76
	C10.2,38.874,10.12,38.57,9.946,38.332z M9.443,38.908c-0.016,0.257,0.135,0.405,0.135,0.405c0.267-0.2,0.21-0.507,0.053-0.756
	C9.631,38.557,9.456,38.651,9.443,38.908C9.427,39.166,9.456,38.651,9.443,38.908z M9.104,39.223
	c-0.016,0.257,0.131,0.413,0.131,0.413c0.268-0.196,0.219-0.504,0.069-0.756C9.304,38.88,9.125,38.965,9.104,39.223
	C9.088,39.48,9.125,38.965,9.104,39.223z M8.81,39.644c0.037,0.253,0.208,0.376,0.208,0.376c0.233-0.243,0.114-0.537-0.086-0.752
	C8.932,39.268,8.777,39.39,8.81,39.644C8.847,39.897,8.777,39.39,8.81,39.644z M15.564,43.035c0.18,0.09,0.503,0.02,0.503,0.02
	c-0.108-0.292-0.452-0.377-0.727-0.29C15.34,42.766,15.385,42.945,15.564,43.035z M16.574,44.094
	c-0.212,0.151-0.241,0.356-0.241,0.356c0.326,0.078,0.537-0.156,0.646-0.433C16.978,44.016,16.79,43.942,16.574,44.094
	C16.361,44.245,16.79,43.942,16.574,44.094z M16.002,43.873c-0.217,0.155-0.241,0.36-0.241,0.36
	c0.323,0.074,0.537-0.156,0.642-0.433C16.402,43.799,16.214,43.722,16.002,43.873C15.785,44.028,16.214,43.722,16.002,43.873z
	 M17.228,43.848c-0.2,0.168-0.217,0.372-0.217,0.372c0.329,0.053,0.528-0.192,0.613-0.478
	C17.624,43.742,17.432,43.681,17.228,43.848C17.027,44.016,17.432,43.681,17.228,43.848z M16.843,43.918
	c0.2-0.045,0.396-0.298,0.396-0.298c-0.267-0.157-0.588-0.014-0.748,0.229C16.492,43.848,16.647,43.963,16.843,43.918
	C17.044,43.873,16.647,43.963,16.843,43.918z M16.226,43.37c-0.253,0.082-0.343,0.274-0.343,0.274
	c0.294,0.167,0.563,0.003,0.748-0.233C16.631,43.411,16.476,43.284,16.226,43.37C15.973,43.452,16.476,43.284,16.226,43.37z
	 M9.043,38.279c-0.27,0.008-0.409,0.168-0.409,0.168c0.234,0.236,0.541,0.155,0.785-0.016C9.419,38.43,9.308,38.267,9.043,38.279
	C8.773,38.287,9.308,38.267,9.043,38.279z M9.014,38.818C8.796,38.6,8.449,38.65,8.23,38.839
	C8.464,39.083,8.771,38.991,9.014,38.818z M8.667,39.211c-0.249-0.185-0.585-0.073-0.768,0.151
	C8.171,39.551,8.459,39.424,8.667,39.211z M8.193,39.787c-0.143,0.217-0.09,0.421-0.09,0.421c0.331-0.045,0.44-0.337,0.433-0.633
	C8.536,39.574,8.336,39.57,8.193,39.787z M14.96,36.718c0.082-0.245-0.049-0.392-0.049-0.392c-0.245,0.177-0.397,0.442-0.229,0.723
	C14.682,37.049,14.874,36.959,14.96,36.718C15.041,36.473,14.874,36.959,14.96,36.718z M14.69,36.42
	c0.082-0.245-0.049-0.392-0.049-0.392c-0.243,0.179-0.398,0.441-0.229,0.723C14.412,36.751,14.608,36.661,14.69,36.42
	C14.772,36.174,14.608,36.661,14.69,36.42z M14.379,35.692c-0.241,0.181-0.392,0.445-0.229,0.727
	C14.413,36.271,14.524,35.956,14.379,35.692z M13.869,36.751c-0.266-0.02-0.425,0.123-0.425,0.123
	c0.205,0.264,0.519,0.214,0.78,0.074C14.224,36.947,14.134,36.771,13.869,36.751C13.603,36.73,14.134,36.771,13.869,36.751z
	 M13.615,36.35c-0.253-0.09-0.445,0-0.445,0c0.122,0.31,0.438,0.352,0.727,0.282C13.897,36.632,13.86,36.44,13.615,36.35
	C13.362,36.26,13.86,36.44,13.615,36.35z M16.459,43.047c-0.284,0-0.576,0.226-0.787,0.24c-0.254,0.016-0.416-0.222-0.717-0.023
	c0.111,0.151,0.288,0.234,0.477,0.198c-0.194,0.163-0.207,0.366-0.207,0.366c0.405,0.072,0.514-0.357,0.785-0.494
	c0.442-0.225,0.895,0.012,1.3,0.203c0.374,0.176,1.328,0.985,1.671,0.729C18.254,43.942,17.256,43.047,16.459,43.047z
	 M10.645,36.922c0,0.447,0.406,0,0.405,0C11.051,36.922,10.645,36.475,10.645,36.922z M10.036,36.71c0,0.447,0.406,0,0.405,0
	C10.442,36.71,10.036,36.262,10.036,36.71z M9.562,36.35c-0.456,0,0,0.395,0,0.392C9.562,36.748,10.027,36.35,9.562,36.35z
	 M8.822,36.685c0.456,0,0-0.395,0-0.392C8.822,36.288,8.357,36.685,8.822,36.685z M8.119,36.383c-0.464,0,0,0.397,0,0.392
	C8.119,36.78,8.586,36.383,8.119,36.383z M52.774,15.756c-0.284-0.265-0.69-0.135-0.948,0.106
	C52.103,16.113,52.535,16.01,52.774,15.756z M58.507,14.938c-0.164-0.354-0.598-0.373-0.924-0.241
	C57.751,15.03,58.194,15.08,58.507,14.938z M57.362,14.505c0.288-0.234,0.228-0.666,0-0.919
	C57.048,13.826,57.156,14.227,57.362,14.505z M57.975,13.811c0.012-0.311-0.168-0.494-0.168-0.494
	c-0.328,0.22-0.254,0.627-0.065,0.919C57.742,14.236,57.959,14.125,57.975,13.811C57.988,13.5,57.959,14.125,57.975,13.811z
	 M58.384,13.426c0.02-0.315-0.155-0.499-0.155-0.499c-0.334,0.211-0.267,0.619-0.086,0.915
	C58.143,13.843,58.364,13.737,58.384,13.426C58.404,13.112,58.364,13.737,58.384,13.426z M58.74,12.916
	c-0.041-0.311-0.253-0.462-0.253-0.462c-0.282,0.277-0.133,0.664,0.102,0.919C58.588,13.373,58.784,13.226,58.74,12.916
	C58.699,12.605,58.784,13.226,58.74,12.916z M50.543,8.797c-0.221-0.11-0.613-0.025-0.613-0.025
	c0.124,0.354,0.553,0.458,0.883,0.356C50.812,9.128,50.759,8.907,50.543,8.797C50.322,8.686,50.759,8.907,50.543,8.797z
	 M49.313,7.514c0.262-0.184,0.294-0.437,0.294-0.437c-0.384-0.111-0.667,0.195-0.785,0.527C48.822,7.604,49.051,7.698,49.313,7.514
	C49.574,7.33,49.051,7.698,49.313,7.514z M50.011,7.779c0.262-0.184,0.294-0.437,0.294-0.437c-0.383-0.111-0.667,0.194-0.78,0.527
	C49.525,7.869,49.75,7.963,50.011,7.779z M48.52,7.812c0.245-0.204,0.262-0.458,0.262-0.458c-0.391-0.085-0.652,0.239-0.744,0.58
	C48.038,7.935,48.271,8.012,48.52,7.812C48.765,7.608,48.271,8.012,48.52,7.812z M48.986,7.726c-0.241,0.053-0.482,0.36-0.482,0.36
	c0.319,0.195,0.721,0.016,0.907-0.278C49.411,7.808,49.223,7.669,48.986,7.726C48.745,7.779,49.223,7.669,48.986,7.726z
	 M49.733,8.388C50.04,8.29,50.15,8.057,50.15,8.057c-0.335-0.212-0.694-0.001-0.907,0.282C49.243,8.339,49.431,8.49,49.733,8.388
	C50.04,8.29,49.431,8.49,49.733,8.388z M58.956,14.37c-0.256-0.294-0.674-0.194-0.952,0.02
	C58.256,14.667,58.696,14.597,58.956,14.37z M59.062,13.7c-0.245-0.016-0.568,0.217-0.568,0.217c0.259,0.273,0.691,0.206,0.956-0.02
	C59.451,13.896,59.307,13.712,59.062,13.7C58.817,13.684,59.307,13.712,59.062,13.7z M59.43,13.132
	c-0.241,0.029-0.515,0.311-0.515,0.311c0.297,0.226,0.715,0.088,0.932-0.184C59.847,13.259,59.675,13.104,59.43,13.132
	C59.189,13.161,59.675,13.104,59.43,13.132z M59.491,12.744c0.172-0.266,0.11-0.511,0.11-0.511
	c-0.402,0.026-0.548,0.418-0.531,0.768C59.07,13.001,59.32,13.006,59.491,12.744C59.663,12.478,59.32,13.006,59.491,12.744z
	 M51.278,16.471c-0.102,0.298,0.057,0.478,0.057,0.478c0.287-0.214,0.493-0.548,0.278-0.883
	C51.613,16.066,51.376,16.172,51.278,16.471C51.176,16.769,51.376,16.172,51.278,16.471z M51.601,16.83
	c-0.098,0.298,0.061,0.478,0.061,0.478c0.287-0.214,0.491-0.547,0.278-0.883C51.94,16.426,51.703,16.536,51.601,16.83
	C51.503,17.129,51.703,16.536,51.601,16.83z M51.977,17.713c0.287-0.213,0.492-0.544,0.278-0.879
	C51.948,17.008,51.782,17.399,51.977,17.713z M52.598,16.426c0.323,0.025,0.519-0.147,0.519-0.147
	c-0.223-0.319-0.651-0.268-0.952-0.086C52.165,16.193,52.279,16.405,52.598,16.426C52.921,16.45,52.279,16.405,52.598,16.426z
	 M53.17,16.585c-0.217-0.106-0.609-0.016-0.609-0.016c0.124,0.357,0.559,0.456,0.887,0.343
	C53.448,16.912,53.391,16.695,53.17,16.585C52.953,16.479,53.391,16.695,53.17,16.585z M49.451,8.78
	c0.339,0,0.671-0.299,0.927-0.312c0.313-0.016,0.496,0.309,0.899,0.05c-0.134-0.201-0.341-0.287-0.582-0.24
	c0.241-0.199,0.259-0.446,0.259-0.446c-0.478-0.094-0.641,0.439-0.956,0.605c-0.461,0.242-0.947,0.04-1.381-0.156
	c-0.466-0.211-1.833-1.278-2.227-0.98C47.274,7.698,48.476,8.78,49.451,8.78z M56.022,16.221c0,0.308,0.494,0.308,0.494,0
	S56.022,15.913,56.022,16.221z M56.762,16.479c0,0.308,0.49,0.308,0.49,0C57.252,16.171,56.762,16.171,56.762,16.479z
	 M57.583,16.679c0,0.309,0.486,0.306,0.49,0C58.078,16.368,57.583,16.365,57.583,16.679z M58.731,16.986
	c0.317,0,0.315-0.474,0-0.478C58.411,16.503,58.41,16.986,58.731,16.986z M59.581,16.875c0.317,0,0.314-0.474,0-0.478
	C59.262,16.393,59.26,16.875,59.581,16.875z M17.138,15.608c0.343,0.045,0.507-0.151,0.507-0.151
	c-0.278-0.251-0.701-0.415-1.009-0.114C16.635,15.343,16.798,15.564,17.138,15.608C17.481,15.653,16.798,15.564,17.138,15.608z
	 M11.098,14.538c0.335-0.082,0.413-0.323,0.413-0.323c-0.345-0.134-0.804-0.136-0.981,0.253
	C10.53,14.468,10.763,14.616,11.098,14.538C11.433,14.456,10.763,14.616,11.098,14.538z M11.748,14.011
	c0.225-0.291,0.341-0.723,0-0.981C11.488,13.301,11.442,13.763,11.748,14.011z M11.339,13.725c0.207-0.304,0.291-0.747-0.065-0.981
	C11.029,13.031,11.025,13.495,11.339,13.725z M10.914,13.308c0.201-0.31,0.274-0.751-0.09-0.977
	C10.591,12.621,10.595,13.09,10.914,13.308z M10.551,11.829c-0.27,0.235-0.399,0.7-0.11,0.977
	C10.692,12.543,10.86,12.119,10.551,11.829z M18.727,8.278c0.35,0.131,0.81-0.001,0.936-0.372
	C19.306,7.819,18.852,7.871,18.727,8.278z M20.325,6.562c0.278,0.196,0.519,0.098,0.519,0.098c-0.123-0.352-0.425-0.687-0.834-0.56
	C20.01,6.1,20.047,6.365,20.325,6.562C20.603,6.758,20.047,6.365,20.325,6.562z M19.581,6.844C19.859,7.04,20.1,6.942,20.1,6.942
	c-0.121-0.356-0.425-0.681-0.834-0.564C19.267,6.378,19.303,6.647,19.581,6.844C19.859,7.04,19.303,6.647,19.581,6.844z
	 M19.217,7.537c1.331,0.981,2.983-0.646,4.222-1.2c-0.413-0.311-1.75,0.749-2.238,0.979c-0.49,0.231-0.964,0.461-1.51,0.268
	c-0.432-0.153-0.564-0.786-1.114-0.683c0,0,0.018,0.261,0.268,0.476c-0.254-0.049-0.473,0.043-0.615,0.256
	C18.509,7.821,19.01,7.859,19.217,7.537C19.227,7.544,19.18,7.594,19.217,7.537z M21.682,7.015
	c-0.097-0.362-0.369-0.717-0.789-0.621C20.952,6.771,21.295,7.071,21.682,7.015z M21.187,7.174
	c-0.223-0.301-0.612-0.537-0.968-0.298C20.41,7.189,20.849,7.386,21.187,7.174z M19.888,7.056c-0.257-0.057-0.458,0.086-0.458,0.09
	c0.195,0.307,0.632,0.513,0.968,0.294C20.398,7.44,20.141,7.113,19.888,7.056C19.63,6.999,20.141,7.113,19.888,7.056z
	 M10.048,13.868c0.277,0.259,0.748,0.306,1.017,0.02C10.766,13.662,10.329,13.545,10.048,13.868z M10.538,13.382
	c-0.297-0.226-0.736-0.345-1.013-0.02C9.8,13.618,10.272,13.669,10.538,13.382z M9.578,12.989c0.335,0.074,0.519-0.11,0.519-0.11
	c-0.255-0.276-0.665-0.466-0.997-0.196C9.1,12.683,9.243,12.916,9.578,12.989C9.913,13.063,9.243,12.916,9.578,12.989z
	 M9.925,12.405c0.021-0.372-0.14-0.786-0.564-0.817C9.305,11.961,9.54,12.354,9.925,12.405z M18.167,16.614
	c0.23-0.331,0.018-0.758-0.294-0.94C17.619,16.019,17.871,16.402,18.167,16.614z M17.82,16.998c0.231-0.329,0.015-0.758-0.294-0.94
	C17.272,16.403,17.523,16.786,17.82,16.998z M17.191,16.491c-0.254,0.345-0.002,0.728,0.294,0.94
	C17.714,17.1,17.505,16.671,17.191,16.491z M16.271,15.903c0.302,0.221,0.78,0.225,1.009-0.094
	C16.961,15.62,16.509,15.547,16.271,15.903z M15.92,16.577c0.349,0.131,0.809,0.006,0.94-0.364
	C16.504,16.119,16.045,16.168,15.92,16.577z M10.412,13.108c-0.749-0.972-0.229-2.137,0.87-2.554
	c0.365-0.138,0.776-0.085,1.132-0.203c0.474-0.158,0.206,0.04,0.444-0.439c0.233-0.468,0.416-0.939,0.871-1.246
	c0.415-0.28,0.913-0.347,1.383-0.19c0.24,0.08,0.433,0.249,0.661,0.35c0.437,0.194,0.191,0.163,0.514,0.029
	c0.489-0.203,0.572-0.478,1.221-0.328c0.532,0.122,0.963,0.504,1.289,0.925c2.1-1.824,4.98-2.284,7.409-0.838
	c0.107-4.93,4.539-8.693,9.372-8.473c4.786,0.218,8.786,4.28,8.507,9.138c2.202-1.195,4.815-0.67,6.663,0.944
	c0.393-0.505,1-0.982,1.686-0.903c0.209,0.024,0.304,0.046,0.474,0.161c0.333,0.225,0.139,0.313,0.517,0.254
	c0.352-0.055,0.649-0.442,1.032-0.5c0.816-0.124,1.471,0.498,1.769,1.197c0.049,0.115,0.094,0.575,0.168,0.637
	c0.08,0.066,0.556,0.017,0.678,0.032c0.457,0.057,0.957,0.169,1.315,0.476c1.228,1.052,0.233,2.33-0.778,3.03
	c-1.515,1.049-3.789,0.864-5.313-0.097c-0.141,0.489-0.464,0.927-0.872,1.227c0.747,0.444,2.065,1.78,1.012,2.603
	c-0.617,0.482-2.834,0.048-2.485-0.998c0.533,0.2,0.392,0.622,0.721,0.917c0.571,0.511,1.632,0.241,1.86-0.475
	c0.235-0.736-0.68-1.985-1.361-1.868c-0.698,0.12-2.048,1.553-2.738,0.482c-0.404-0.627,0.34-1.016,0.866-1.098
	c0.667-0.104,1.736,0.478,2.183,0.272c0.176-0.081,0.358-0.422,0.443-0.584c0.318-0.6,0.121-0.613-0.34-1.004
	c-0.578-0.49-1.087-1.066-1.271-1.82c-0.031-0.128-0.025-0.299-0.071-0.419c-0.159-0.417-0.003-0.172-0.314-0.459
	c-0.265-0.244-0.688-0.414-1.014-0.572c-0.434-0.21-0.9-0.378-1.373-0.474c-0.632-0.128-1.317-0.156-1.958-0.111
	c-0.35,0.025-0.696,0.088-1.033,0.187c-0.571,0.167-0.599,0.212-0.752,0.757c-0.354,1.257-1.005,2.418-1.874,3.391
	c-3.741,4.185-10.721,3.883-14.057-0.642c-0.367-0.498-0.681-1.036-0.933-1.6c-0.294-0.66-0.344-1.409-0.617-2.055
	c-0.456-1.08-2.899-0.902-3.914-0.73c-0.899,0.152-2.143,0.55-2.805,1.184c-0.307,0.295-0.236,0.466-0.341,0.897
	c-0.082,0.337-0.232,0.668-0.425,0.957c-0.18,0.268-0.413,0.505-0.646,0.727c-0.154,0.147-0.315,0.285-0.482,0.417
	c-0.316,0.249-0.359,0.164-0.31,0.575c0.03,0.25,0.31,0.694,0.504,0.84c0.359,0.27,0.364,0.141,0.813-0.011
	c0.645-0.218,1.813-0.373,2.386,0.116c0.712,0.608-0.031,1.237-0.708,1.222c-0.701-0.016-1.188-0.394-1.78-0.689
	c-0.058-0.029-0.314-0.248-0.389-0.247c-0.27,0.002-0.747,0.524-0.902,0.709c-0.325,0.388-0.592,0.865-0.424,1.371
	c0.235,0.71,0.981,0.896,1.629,0.672c0.705-0.244,0.427-0.877,1.121-1.141c0.397,1.125-2.105,1.627-2.758,0.985
	c-0.932-0.915,0.443-2.251,1.189-2.696c-0.435-0.319-0.777-0.785-0.928-1.305C15.014,15.366,11.996,15.151,10.412,13.108
	C9.97,12.536,10.694,13.471,10.412,13.108z M18.305,15.387c0.56,0.384,1.873,1.293,2.572,0.696c0.519-0.444,0.043-0.841-0.428-0.976
	C19.761,14.911,18.935,15.089,18.305,15.387C18.333,15.406,18.414,15.335,18.305,15.387z M51.202,15.797
	c-0.586-0.275-1.4-0.457-2.041-0.25c-0.543,0.175-0.847,0.684-0.197,1.002C49.661,16.889,50.663,16.162,51.202,15.797
	C51.1,15.749,51.177,15.814,51.202,15.797z M19.267,10.807c-0.454,0.255-1.256,0.581-1.614,0.958
	c-0.39,0.41-0.448,1.331-0.384,1.902C18.304,13.057,19.323,12.118,19.267,10.807C18.895,11.016,19.287,11.281,19.267,10.807z
	 M17.625,11.598c0.316-0.177,0.624-0.368,0.935-0.554c0.131-0.078,0.632-0.291,0.681-0.397c0.097-0.206-0.23-0.715-0.329-0.84
	C18.36,10.304,17.908,10.909,17.625,11.598C17.653,11.582,17.908,10.909,17.625,11.598z M43.729,10.637
	c-0.954,0.472-1.051,1.49-1.61,2.357c-0.484,0.75-1.097,1.418-1.799,1.97c-1.582,1.244-3.591,1.863-5.598,1.764
	c-1.916-0.095-3.773-0.857-5.193-2.15c-0.685-0.623-1.263-1.362-1.696-2.181c-0.207-0.392-0.381-0.802-0.518-1.223
	c-0.208-0.642-0.227-0.85-0.856-1.19c0.593,4.068,4.206,7.11,8.263,7.297C38.85,17.471,42.791,14.721,43.729,10.637
	C43.443,10.779,42.856,14.438,43.729,10.637z M28.318,10.219c-0.205,0.107-0.955-0.637-1.172-0.787
	c0.042,0.498,0.052,0.864,0.4,1.212c-0.02,0.02-0.041,0.041-0.061,0.061c-0.05-0.046-0.101-0.091-0.153-0.135
	c0.822,3.388,3.94,5.811,7.387,5.99c3.514,0.183,6.917-1.967,8.068-5.329c-0.067,0.054-0.132,0.111-0.195,0.169
	c-0.019-0.018-0.038-0.035-0.057-0.053c0.334-0.446,0.439-0.672,0.541-1.252c-0.423,0.28-0.812,0.593-1.207,0.909
	c-0.019-0.018-0.038-0.035-0.057-0.053c0.343-0.343,1.073-0.668,1.297-1.067c0.283-0.504,0.092-1.6,0.011-2.163
	c-0.173-1.206-0.645-2.359-1.355-3.348c-1.486-2.07-3.93-3.306-6.469-3.349c-2.505-0.042-4.954,1.075-6.517,3.041
	c-0.756,0.951-1.284,2.071-1.52,3.264c-0.096,0.484-0.305,1.319-0.129,1.799C27.264,9.5,27.975,9.933,28.318,10.219z M43.068,10.89
	c0.138-0.1,0.615-0.297,0.702-0.42c0.128-0.182,0.111-0.66,0.131-0.866C43.22,9.967,43.264,10.199,43.068,10.89
	C43.255,10.754,43.153,10.59,43.068,10.89z M26.967,9.309c-0.186-0.123-0.385-0.245-0.595-0.367c0.003,0.164-0.028,0.737,0.063,0.88
	c0.101,0.16,0.496,0.303,0.649,0.42C27.025,9.938,26.988,9.626,26.967,9.309C26.782,9.186,26.988,9.626,26.967,9.309z
	 M52.179,14.181c0.057-0.53-0.012-1.41-0.364-1.786c-0.31-0.332-1.112-0.672-1.509-0.897C50.249,12.727,51.209,13.609,52.179,14.181
	C52.194,14.041,51.526,13.796,52.179,14.181z M50.625,10.577c-0.436,0.567-0.307,0.759,0.224,1.073
	c0.32,0.189,0.633,0.389,0.958,0.57C51.543,11.591,51.147,11.048,50.625,10.577C50.558,10.664,51.147,11.048,50.625,10.577z
	 M56.259,11.494c-0.251,0.501-0.655,0.895-1.184,1.091c-0.277,0.102-1.097,0.015-1.272,0.168c-0.242,0.212-0.011,0.87,0.161,1.041
	c1.124,1.116,2.454-1.557,3.361-0.734c-0.302,0.337-0.614,0.07-0.877,0.161c-0.498,0.172-0.75,0.7-1.298,0.839
	c-0.839,0.213-1.834-0.289-1.437-1.303c-0.517,0-1.038,0.026-1.526-0.178c0.076,0.285,0.133,0.577,0.165,0.87
	c0.009,0.083-0.03,0.775,0.005,0.836c0.204,0.351,1.46,0.565,1.79,0.638c1.168,0.26,2.333,0.205,3.372-0.432
	c0.603-0.369,1.424-1.007,1.319-1.794C58.733,11.91,56.643,10.574,56.259,11.494C56.243,11.526,56.28,11.445,56.259,11.494z
	 M55.095,12.233c0.218-0.122,0.943-0.585,0.968-0.915c-0.935,0.057-1.783,0.477-2.223,1.357
	C54.424,12.658,54.702,12.454,55.095,12.233C55.54,11.984,54.702,12.454,55.095,12.233z M53.194,9.978
	c-0.223,0.162-0.739,1.27-0.229,1.342C53.712,11.426,53.201,9.972,53.194,9.978C52.925,10.174,53.199,9.974,53.194,9.978z
	 M50.86,10.316c0.302,0.281,0.563,0.603,0.776,0.956c0.175,0.289,0.28,0.914,0.497,1.135c0.264,0.269,1.011,0.344,1.339,0.272
	c0.422-0.093,0.294-0.159,0.517-0.513c0.097-0.154,0.196-0.283,0.329-0.409c0.558-0.529,1.07-0.476,1.753-0.516
	c0.082-1.681-1.602-2.045-2.791-1.32c0.209,0.343,0.393,0.779,0.216,1.178c-0.129,0.291-0.457,0.596-0.765,0.255
	c-0.345-0.383,0.171-1.19,0.438-1.457C52.553,8.989,51.416,9.771,50.86,10.316C51.476,10.889,51.241,9.942,50.86,10.316z
	 M44.073,9.518c-0.025,0.288-0.064,0.576-0.119,0.86c2.254-1.015,4.323-0.182,6.294,0.928c0.054-0.482,0.35-0.594,0.099-0.979
	c-0.126-0.193-0.453-0.351-0.637-0.471c-0.451-0.294-0.926-0.544-1.441-0.707C46.877,8.707,45.369,8.866,44.073,9.518
	C44.048,9.809,44.632,9.237,44.073,9.518z M26.369,8.713c0.206,0.128,0.404,0.259,0.588,0.39c-0.186-4.666,3.898-8.396,8.479-8.245
	c4.619,0.152,8.451,4.221,7.866,8.897c0.497-0.338,0.636-0.338,0.642-0.958c0.002-0.273-0.013-0.546-0.04-0.817
	c-0.057-0.574-0.176-1.142-0.351-1.691c-0.358-1.118-0.955-2.153-1.735-3.029c-1.549-1.741-3.774-2.8-6.097-2.944
	C30.893,0.016,26.419,3.779,26.369,8.713C26.575,8.842,26.416,4.065,26.369,8.713z M18.994,9.731
	c0.172,0.277,0.292,0.543,0.334,0.868c2.176-1.207,4.48-2.114,6.922-0.873c-0.059-0.53,0.047-0.711-0.344-1.037
	c-0.295-0.246-0.869-0.392-1.236-0.485C23.962,8.021,23.195,8,22.47,8.083C21.165,8.233,19.978,8.879,18.994,9.731
	C19.061,9.84,19.137,9.608,18.994,9.731z M15.985,9.585c-0.095,0.36,0.17,1.366,0.624,0.884c0.237-0.252-0.184-1.169-0.441-1.297
	C16.086,9.3,16.025,9.438,15.985,9.585C15.895,9.925,16.047,9.381,15.985,9.585z M13.125,10.533
	c0.735,0.041,1.262-0.007,1.867,0.549c0.199,0.183,0.274,0.398,0.434,0.599c0.277,0.349,0.022,0.281,0.511,0.384
	c0.6,0.127,1.207-0.11,1.477-0.577c0.407-0.705,0.644-1.364,1.265-1.939c-0.597-0.585-1.813-1.423-2.464-0.446
	c0.438,0.146,0.771,1.331,0.383,1.615c-0.269,0.197-0.54,0.034-0.695-0.211c-0.268-0.425-0.033-1.008,0.193-1.384
	C14.83,8.352,13.044,8.754,13.125,10.533C13.419,10.55,13.109,10.174,13.125,10.533z M13.877,10.701
	c-0.196-0.037-0.462-0.065-0.748-0.082c0.13,0.78,1.75,1.426,2.37,1.438C15.201,11.461,14.408,10.803,13.877,10.701
	C13.681,10.664,14.408,10.803,13.877,10.701z M10.485,13.059c0.789,1.024,2.142,1.588,3.41,1.564
	c0.848-0.016,1.723-0.229,2.511-0.535c0.141-0.055,0.437-0.125,0.537-0.241c0.174-0.202,0.063-0.207,0.108-0.49
	c0.073-0.471,0.086-0.931,0.211-1.399c-0.523,0.214-1.076,0.189-1.627,0.189c0.428,1.072-0.62,1.602-1.508,1.399
	c-0.59-0.135-0.871-0.757-1.404-0.904c-0.347-0.096-0.588,0.198-0.936-0.173c0.674-0.65,2.002,0.962,2.753,1.018
	c0.547,0.04,0.968-0.166,1.07-0.74c0.158-0.893-0.749-0.561-1.347-0.763c-0.47-0.159-0.849-0.432-1.127-0.839
	c-0.017-0.025-0.269-0.536-0.282-0.544c-0.202-0.125-0.864,0.008-1.094,0.057C10.654,10.896,9.662,12.003,10.485,13.059
	C10.759,13.414,10.064,12.519,10.485,13.059z M12.651,15.837c0,0.329,0.528,0.33,0.523,0C13.169,15.512,12.651,15.513,12.651,15.837
	z M11.862,16.115c0,0.325,0.519,0.324,0.527,0C12.398,15.782,11.862,15.782,11.862,16.115z M11.253,16.577
	c0.336,0,0.336-0.506,0-0.507C10.916,16.07,10.916,16.577,11.253,16.577z M10.289,16.65c0.343,0,0.34-0.511,0-0.507
	C9.954,16.148,9.951,16.65,10.289,16.65z M9.125,16.283c0,0.329,0.523,0.328,0.523,0C9.648,15.955,9.125,15.953,9.125,16.283z
	 M15.507,18.636c2.671,0,4.556,1.895,4.097,4.6c-0.477,2.814-3.004,4.707-5.789,4.762c-2.644,0.052-4.652-1.755-4.248-4.48
	C9.993,20.646,12.671,18.636,15.507,18.636z M15.364,19.221c-3.371,0-4.942,8.441-1.379,8.191
	C17.039,27.196,18.837,19.221,15.364,19.221z M26.81,25.432c0.172-0.618,0.353-1.234,0.516-1.855
	c0.268-1.024,0.348-1.804-0.885-2.093c-1.305-0.306-2.661,0.156-3.395,1.284c-0.703,1.081-0.862,2.435-1.564,3.521
	c-0.729-0.73-2.035-0.516-1.99,0.674c0.051,1.35,1.672,0.942,2.275,0.261c0.764-0.863,1.043-2.064,1.449-3.112
	c0.228-0.59,0.89-2.295,1.847-1.717c0.736,0.444-0.434,2.88-0.533,3.661c-0.158,1.247,0.713,1.913,1.92,1.795
	c0.396-0.039,0.935-0.169,1.282-0.373c0.383-0.225,0.334-0.234,0.446-0.679c-0.332,0.148-0.98,0.322-1.304,0.089
	C26.463,26.595,26.693,25.83,26.81,25.432z M31.652,25.42c0.241-0.856,0.837-2.138,0.536-3.024c-0.282-0.83-1.213-0.985-1.98-0.87
	c-0.345,0.051-1.257,0.202-1.465,0.462c-0.098,0.122-0.103,0.405-0.143,0.56c0.538-0.194,1.307-0.39,1.489,0.299
	c0.118,0.446-0.148,1.062-0.268,1.505c-0.268,0.985-1.026,2.627,0.048,3.35c0.622,0.419,1.589,0.268,2.237,0.006
	c0.436-0.176,0.751-0.489,1.15-0.718c0.472-0.27,0.211-0.225,0.504,0.213c0.511,0.763,1.589,0.751,2.375,0.534
	c0.678-0.188,0.995-0.268,1.165-0.936c-0.331,0.147-1.057,0.352-1.373,0.053c-0.356-0.337-0.086-1.03,0.007-1.435
	c0.146-0.637,0.303-1.272,0.455-1.908c0.074-0.31,0.588-1.568,0.446-1.872c-0.143-0.306-1.144-0.09-1.477-0.076
	c-0.645,0.027-0.634-0.054-0.78,0.561c-0.189,0.796-0.378,1.593-0.567,2.389c-0.104,0.44-0.138,1.197-0.377,1.588
	c-0.263,0.429-1.3,0.975-1.789,0.75C31.327,26.614,31.519,25.842,31.652,25.42z M42.885,24.402c0.23,0.211,0.998,0.171,1.373,0.417
	c0.439,0.288,0.619,0.705,0.553,1.228c-0.124,0.974-1.01,1.487-1.88,1.715c-2.073,0.544-4.936,0.313-5.022-2.333
	c-0.084-2.576,1.974-3.968,4.358-4.015c0.855-0.017,2.422,0.023,2.696,1.075C45.291,23.75,43.835,24.277,42.885,24.402z
	 M42.55,25.82c0-0.908-0.774-1.091-1.523-1.031c-0.206,0.024-0.411,0.058-0.615,0.1c-0.258-0.044-0.355,0.06-0.29,0.309
	c-0.111,0.29,0,0.895,0.061,1.196c0.131,0.646,0.459,1.1,1.181,1.076C42.273,27.441,42.55,26.603,42.55,25.82z M42.726,22.812
	c0-0.903-0.827-1.137-1.527-0.673c-0.704,0.466-0.903,1.489-0.982,2.263C41.256,24.251,42.726,24.198,42.726,22.812z M49.121,23.736
	c-0.047,0.09-0.062,0.22-0.09,0.319c1.374-0.306,4.361-0.365,4.103,1.758c-0.244,2.006-2.944,2.195-4.494,2.126
	c-0.926-0.041-2.034-0.298-2.245-1.351c-0.116-0.576,0.107-1.155,0.268-1.7c0.149-0.505,0.374-1.043,0.437-1.569
	c0.127-1.076-0.684-1.059-1.504-0.764c0.119-0.471,0.056-0.467,0.49-0.696c0.532-0.28,1.292-0.432,1.888-0.36
	C49.215,21.649,49.457,22.684,49.121,23.736z M48.888,24.582c-0.263,0.952-0.955,3.361,0.92,2.834
	c0.829-0.233,1.199-1.275,1.047-2.068C50.661,24.334,49.701,24.378,48.888,24.582z M57.461,25.031
	c-0.285,0.049-0.808,0.006-1.052,0.143c-0.272,0.153-0.15,0.608-0.014,0.959c0.23,0.592,0.663,0.858,1.278,0.879
	c0.624,0.022,1.228-0.174,1.714-0.562c0.298-0.238,0.572-0.888,0.906-0.377c0.473,0.724-1.964,1.737-2.578,1.838
	c-1.253,0.206-2.812-0.11-3.444-1.327c-1.473-2.836,1.724-5.302,4.302-5.167c1.082,0.056,2.435,0.567,1.963,1.933
	C60.132,24.523,58.517,24.851,57.461,25.031C57.13,25.089,57.796,24.974,57.461,25.031z M57.011,24.57
	c0.657-0.116,1.258-0.402,1.449-1.079c0.137-0.485,0.104-1.349-0.478-1.549c-1.194-0.411-1.656,2.042-1.727,2.739
	C56.508,24.652,56.76,24.615,57.011,24.57C57.264,24.525,56.762,24.615,57.011,24.57z M10.179,29.224c5.791,0,11.581,0,17.372,0
	c9.158,0,18.317,0,27.475,0c1.372,0,2.744,0,4.116,0c0.401,0,1.5,0.207,1.86,0c0.342-0.197-0.648-0.168-0.729-0.168
	c-1.084,0-2.167,0-3.251,0c-8.79,0-17.581,0-26.371,0c-4.371,0-8.742,0-13.113,0c-1.532,0-3.064,0-4.596,0
	c-0.738,0-1.767-0.189-2.486,0C10.259,29.108,10.158,28.942,10.179,29.224z M34.753,8.572c0.247,0.506,0.066,1.289,0.021,1.831
	c-0.077,0.939-0.155,1.878-0.232,2.816c-0.044,0.532-0.266,1.5,0.222,1.889c0.67,0.534,1.009-0.358,1.011-0.893
	c0.004-1.67-0.186-3.361-0.278-5.028c-0.06-1.076-0.084-2.155-0.117-3.233c-0.029-0.939,0.002-1.866,0.063-2.803
	c0.025-0.388,0.348-1.567-0.241-1.265c-0.782,0.402-0.83,2.441-0.894,3.153C34.192,6.308,34.052,7.462,34.753,8.572z M37.168,7.988
	c0.376,1.192,0.076,2.749-0.069,3.963c-0.077,0.647-0.805,3.008,0.155,3.289c1.608,0.47,0.43-4.545,0.376-5.188
	c-0.078-0.931-0.114-1.805,0.414-2.598c0.583-0.877,0.723-2.004,0.156-2.973c-0.61-1.042-1.515-0.485-1.839,0.446
	c-0.163,0.469-0.202,1.011-0.098,1.498C36.403,7.081,36.957,7.39,37.168,7.988C37.413,8.764,37.07,7.71,37.168,7.988z
	 M32.281,10.999c-0.148,1.058-0.34,2.183-0.384,3.249c-0.025,0.612,0.548,1.465,1.156,0.759c0.475-0.551,0.052-1.91-0.03-2.536
	c-0.171-1.304-0.335-2.628-0.25-3.946l0.844,0.439V7.91L32.79,8.34c0.065-0.749,0.548-1.28,0.574-2.021
	c0.008-0.24-0.026-2.4-0.264-2.409c-0.283-0.01,0.248,2.419-0.098,2.516c-0.032,0.009-0.133-2.57-0.223-2.57
	c-0.253,0-0.042,2.727-0.231,2.566c-0.312-0.265,0.072-1.698-0.04-2.182c-0.223-0.968-0.218,0.637-0.218,0.933
	c0.001,0.26,0.138,1.002-0.002,1.22c-0.013,0.02-0.02,0.024-0.037,0.041c0.027-0.028-0.069-2.113-0.135-2.44
	c-0.072-0.298-0.222,0.598-0.228,0.671c-0.043,0.515-0.078,1.039-0.066,1.556c0.019,0.788,0.546,1.341,0.584,2.115L31.587,7.91
	v1.054l0.829-0.431C32.44,9.328,32.385,10.277,32.281,10.999C32.154,11.906,32.385,10.277,32.281,10.999z M10.322,31.61
	c0,0.179,0.109,0.852,0.114,0.817c0.003-0.018,0.224,0.064,0.066,0.172c-0.067,0.045-0.391,0.018-0.486,0
	c-0.637-0.118-0.139-0.011-0.119-0.197c0.042-0.378,0-0.784,0-1.164c0-0.148-0.106-0.851-0.114-0.796
	c-0.002,0.011-0.217-0.063-0.061-0.18c0.078-0.059,0.441-0.004,0.543,0c0.514,0.019,1.125,0.005,1.12,0.678
	C11.38,31.561,10.821,31.625,10.322,31.61z M10.322,31.426c0.859,0.152,0.63-1.184,0.116-0.998
	C10.206,30.512,10.322,31.146,10.322,31.426z M11.564,32.427c-0.012,0.217,1.468,0.349,1.634,0.172c0.05-0.053,0.022-0.788,0-0.809
	c-0.313-0.294-0.337,0.512-0.421,0.58c-0.401,0.327-0.502-0.036-0.56-0.259c-0.018-0.068-0.049-0.572,0-0.623
	c0.134-0.14,0.239,0.079,0.212,0.083c-0.014,0.002,0.017,0.241,0.209,0.125c0.114-0.069,0.073-0.158,0.073-0.343
	c0-0.03,0.032-0.31,0-0.343c-0.116-0.121-0.37,0.107-0.282,0.123c0.056,0.01-0.085,0.2-0.212,0.1c-0.031-0.025-0.008-0.439,0-0.475
	c0.048-0.209,0.135-0.568,0.507-0.295c0.224,0.165-0.008,0.563,0.288,0.548c0.241-0.012,0.083-0.089,0.133-0.284
	c0.137-0.537-0.054-0.399-0.41-0.464c-0.189-0.034-1.02-0.104-1.14,0c-0.181,0.157,0.167,0.178,0.198,0.276
	C11.897,30.875,11.93,32.489,11.564,32.427z M13.934,32.57c0.602,0.255,1.112-0.147,1.12-0.764c-0.494-0.145-0.205,0.42-0.557,0.573
	c-0.557,0.242-0.593-0.611-0.604-0.961c-0.009-0.299-0.062-1,0.384-1.017c0.391-0.015,0.367,0.883,0.678,0.617
	c0.019-0.017,0.038-0.685,0-0.731c0.045,0.055-0.752-0.072-0.674-0.074C13.225,30.234,13.016,32.209,13.934,32.57
	C14.069,32.628,13.799,32.517,13.934,32.57z M16.545,30.523c0.119,0.158-0.023,0.625,0.291,0.507
	c0.084-0.032,0.119-0.445,0.064-0.569c-0.151-0.342-0.583-0.199-1.038-0.199c-0.453,0-0.801-0.138-0.653,0.477
	c0.201,0.837,0.208-0.376,0.65-0.305c0,0.507,0.113,1.154,0,1.644c0.024-0.104-0.104,0.726-0.229,0.35
	c0.083,0.249,0.074,0.172,0.427,0.172c0.316,0,0.367,0.08,0.427-0.172c-0.077,0.324-0.246-0.327-0.229-0.279
	c-0.159-0.46,0-1.221,0-1.715C16.369,30.409,16.466,30.439,16.545,30.523C16.57,30.556,16.476,30.441,16.545,30.523z M18.723,30.703
	c0.543,1.086-0.754,2.858-1.5,1.459C16.649,31.084,18.022,29.27,18.723,30.703C18.813,30.883,18.633,30.519,18.723,30.703z
	 M18.388,31.434c0-0.3,0.05-1.053-0.409-1.058c-0.502-0.006-0.429,0.905-0.418,1.21c0.009,0.273-0.024,0.813,0.335,0.881
	C18.431,32.567,18.388,31.755,18.388,31.434z M19.712,31.61c0,0.179,0.109,0.852,0.114,0.817c0.003-0.018,0.224,0.064,0.066,0.172
	c-0.067,0.045-0.391,0.018-0.486,0c-0.637-0.118-0.139-0.011-0.119-0.197c0.042-0.378,0-0.784,0-1.164
	c0-0.148-0.106-0.851-0.114-0.796c-0.002,0.011-0.217-0.063-0.061-0.18c0.078-0.059,0.441-0.004,0.543,0
	c0.512,0.019,1.124,0.005,1.12,0.678C20.771,31.561,20.211,31.625,19.712,31.61z M19.712,31.426c0.859,0.152,0.63-1.184,0.116-0.998
	C19.596,30.512,19.712,31.146,19.712,31.426z M22.16,32.431c0.079,0,0.158,0,0.237,0c-0.064-0.636-0.904-0.617-0.96,0
	c0.577,0.051-0.099,0.295-0.388,0.167c-0.279-0.123,0.011-0.107,0.088-0.287c0.183-0.427,0.32-1.985,0.751-2.087
	c0.575-0.136,0.651,1.559,0.864,1.928c0.073,0.126,0.32,0.434,0.31,0.446C22.951,32.735,22.147,32.674,22.16,32.431z M22.217,31.823
	l-0.315-1.103c-0.098,0.368-0.196,0.736-0.294,1.103C21.811,31.823,22.014,31.823,22.217,31.823z M25.228,30.441
	c0.024-0.275-0.299-0.219-0.535-0.18c-0.63,0.103-0.14,0.039-0.114,0.18c0.023,0.124,0.071,0.68,0,0.768
	c-0.04,0.049-0.586,0.121-0.673,0.045c-0.067-0.058-0.063-0.643-0.026-0.768c0.027-0.092,0.447-0.084,0.12-0.225
	c-0.132-0.057-0.714-0.033-0.774,0.045c0.063-0.082,0.194,0.296,0.229,0.412c0.092,0.306,0,0.781,0,1.102
	c0,0.143-0.112,0.652-0.114,0.607c-0.002-0.031-0.203,0.072-0.09,0.172c0.051,0.045,0.351,0,0.419,0c0.072,0,0.363,0.046,0.419,0
	c0.131-0.107-0.092-0.192-0.092-0.172c0-0.016-0.171-0.444-0.116-0.673c0.061-0.258,0.077-0.515,0.518-0.312
	c0.251,0.116,0.181,0.111,0.181,0.492c0,0.098-0.156,0.764-0.233,0.535c0.049,0.146,0.634,0.26,0.834,0.129
	c0.2-0.132-0.15-0.157-0.184-0.268C24.895,32.001,24.836,30.356,25.228,30.441z M27.251,30.556c0.475-0.76,0.684,1.005,0.948,0.272
	c0.19-0.528-0.199-0.598-0.564-0.591c-0.916,0.018-1.211,0.938-0.908,1.762c0.327,0.889,1.557,0.824,1.57-0.194
	c-0.538-0.156-0.27,0.907-0.934,0.548C26.977,32.145,27.075,30.87,27.251,30.556C27.312,30.458,27.194,30.658,27.251,30.556z
	 M28.469,32.427c-0.012,0.217,1.468,0.349,1.634,0.172c0.05-0.053,0.022-0.788,0-0.809c-0.315-0.295-0.339,0.513-0.421,0.58
	c-0.4,0.329-0.502-0.037-0.56-0.259c-0.018-0.068-0.049-0.572,0-0.623c0.134-0.14,0.24,0.079,0.213,0.083
	c-0.014,0.002,0.017,0.241,0.209,0.125c0.114-0.069,0.073-0.158,0.073-0.343c0-0.03,0.032-0.31,0-0.343
	c-0.116-0.121-0.37,0.107-0.282,0.123c0.056,0.01-0.085,0.2-0.213,0.1c-0.031-0.025-0.008-0.439,0-0.475
	c0.048-0.21,0.132-0.565,0.503-0.295c0.225,0.163-0.002,0.564,0.292,0.548c0.241-0.013,0.083-0.088,0.133-0.284
	c0.137-0.537-0.054-0.399-0.41-0.464c-0.189-0.034-1.02-0.104-1.14,0c-0.181,0.157,0.167,0.178,0.198,0.276
	C28.802,30.875,28.834,32.489,28.469,32.427z M30.303,32.427c-0.01,0.23,0.531,0.296,0.715,0.172
	c0.226-0.153-0.143-0.156-0.176-0.258c-0.169-0.526,0-1.361,0-1.92c0.082,0.333,0.376,2.201,0.658,2.178
	c0.331-0.028,0.571-1.801,0.666-2.178c0,0.366,0,0.731,0,1.097c0,0.213,0.064,0.522,0,0.724c0.011-0.036-0.115,0.355-0.116,0.185
	c0.001,0.078-0.236,0.072-0.003,0.172c0.1,0.043,0.565,0.043,0.665,0c0.261-0.112-0.006-0.109-0.003-0.172
	c-0.009,0.185-0.139-0.351-0.116-0.277c-0.09-0.301-0.094-1.209,0-1.502c0.069-0.214,0.339-0.292,0.12-0.386
	c-1.001-0.433-0.998,0.856-1.162,1.491c-0.076-0.314-0.117-1.169-0.333-1.381c-0.148-0.146-0.803-0.23-0.913-0.021
	c0.121-0.228,0.229,0.772,0.229,0.886C30.532,31.514,30.732,32.525,30.303,32.427z M33.025,32.427
	c-0.012,0.216,1.461,0.357,1.634,0.172c0.022-0.023,0.05-0.762,0-0.809c-0.319-0.299-0.322,0.499-0.421,0.58
	c-0.485,0.398-0.56-0.141-0.56-0.437c0-0.028-0.031-0.412,0-0.444c0.134-0.141,0.233,0.08,0.208,0.083
	c-0.082,0.01,0.164,0.255,0.286,0.125c0.032-0.034,0-0.312,0-0.343c0-0.187,0.041-0.274-0.074-0.343
	c-0.231-0.138-0.227,0.182-0.212,0.184c-0.006-0.001-0.127,0.106-0.208,0.016c-0.04-0.044-0.025-0.558,0-0.613
	c0.127-0.277,0.328-0.189,0.605,0.017c0.146,0.108-0.1,0.527,0.253,0.396c0.132-0.049,0.016-0.012,0.07-0.194
	c0.156-0.529-0.006-0.464-0.329-0.554c-0.151-0.042-1.105-0.101-1.222,0c-0.183,0.158,0.165,0.172,0.198,0.276
	C33.363,30.891,33.392,32.489,33.025,32.427z M35.599,30.139c0.146,0.018,0.761,0.083,0.872-0.064
	c0.357-0.472-0.451-0.09-0.39-0.091c-0.109,0.003-0.243,0.016-0.357,0.02c-0.107,0.004-0.01-0.176-0.109-0.18
	C35.156,29.806,35.086,30.139,35.599,30.139C35.632,30.143,35.567,30.139,35.599,30.139z M34.86,32.427
	c-0.014,0.267,0.38,0.226,0.619,0.172c0.585-0.133,0.015-0.098,0.027-0.172c0.085-0.5,0.439-0.933,0.707-1.377
	c0,0.35,0.099,0.857,0,1.191c-0.073,0.246-0.391,0.241-0.051,0.357c0.073,0.025,0.607,0.06,0.677,0
	c0.173-0.149-0.151-0.18-0.15-0.172c-0.032-0.28-0.058-0.815-0.058-1.189c0-0.187-0.053-0.466,0-0.645
	c0.016-0.054,0.195-0.331,0.233-0.152c-0.043-0.203-0.631-0.37-0.85-0.18c-0.086,0.075,0.159,0.213,0.139,0.406
	c-0.034,0.324-0.475,0.796-0.645,1.082c0-0.419,0.028-0.989,0.058-1.308c0.006-0.067,0.348-0.032,0.063-0.18
	c-0.056-0.029-0.724-0.046-0.767,0c-0.171,0.182,0.226,0.192,0.229,0.205c0.051,0.196,0,0.473,0,0.674
	C35.088,31.432,35.29,32.522,34.86,32.427z M39.064,30.441c0.024-0.275-0.299-0.219-0.535-0.18c-0.625,0.102-0.143,0.039-0.119,0.18
	c0.022,0.125,0.072,0.68,0,0.768c-0.04,0.049-0.582,0.12-0.669,0.045c-0.067-0.058-0.063-0.644-0.026-0.768
	c0.028-0.092,0.447-0.084,0.12-0.225c-0.133-0.057-0.718-0.033-0.778,0.045c0.064-0.083,0.197,0.294,0.233,0.412
	c0.092,0.305,0,0.781,0,1.102c0,0.145-0.114,0.653-0.116,0.607c-0.001-0.03-0.207,0.071-0.092,0.172c0.051,0.045,0.352,0,0.421,0
	c0.072,0,0.365,0.046,0.421,0c0.131-0.108-0.091-0.191-0.092-0.172c0-0.016-0.171-0.444-0.116-0.673
	c0.061-0.257,0.075-0.514,0.515-0.312c0.25,0.115,0.18,0.112,0.18,0.492c0,0.097-0.154,0.76-0.229,0.535
	c0.049,0.147,0.634,0.26,0.834,0.129c0.2-0.132-0.15-0.157-0.184-0.268C38.731,32.001,38.672,30.356,39.064,30.441z M41.859,30.441
	c0.028-0.268-0.647-0.304-0.83-0.18c-0.212,0.145,0.15,0.178,0.18,0.276c0.117,0.378,0,0.978,0,1.375
	c0,0.044-0.123,0.833-0.229,0.515c0.073,0.218,0.407,0.261,0.704,0.172c0.391-0.118,0.002-0.092-0.055-0.268
	C41.515,31.972,41.487,30.379,41.859,30.441z M39.493,32.427c0-0.653,0.063-1.336,0-1.986c0.002,0.022-0.409,0.011-0.229-0.18
	c0.04-0.042,0.478-0.01,0.53,0c0.077,0.014,0.291-0.046,0.344,0c0.19,0.166-0.237,0.225-0.233,0.18
	c-0.026,0.327-0.038,0.635,0.114,0.785c0.165,0.162,0.615-0.034,0.821,0.246c0.148,0.2,0.15,0.615,0.011,0.821
	c-0.239,0.355-0.681,0.3-1.055,0.305C39.518,32.603,38.935,32.518,39.493,32.427z M39.906,32.423c1.127,0.115,0.333-1.335,0-0.977
	C39.797,31.564,39.906,32.248,39.906,32.423z M43.2,32.599c0.194,0,0.638,0.087,0.803,0c0.316-0.166-0.058-0.078-0.112-0.172
	c-0.163-0.284-0.631-0.838-0.628-1.15c0.003-0.256,0.656-0.97,0.669-0.928c-0.071-0.236-1.256-0.051-0.544,0.088l-0.298,0.576
	l-0.311-0.576c0.738-0.132-0.596-0.335-0.682-0.088c0.02-0.056,0.736,0.783,0.735,1.034c0,0.179-0.277,0.523-0.37,0.671
	c0.007-0.011-0.455,0.573-0.43,0.373c-0.053,0.434,1.285,0.098,0.552,0l0.417-0.768l0.429,0.768
	C43.258,32.38,43.165,32.421,43.2,32.599z M46.154,31.61c0,0.179,0.109,0.852,0.114,0.817c0.003-0.017,0.224,0.064,0.065,0.172
	c-0.067,0.046-0.393,0.018-0.489,0c-0.639-0.118-0.141-0.01-0.12-0.197c0.042-0.378,0-0.784,0-1.164c0-0.177,0.045-0.419,0-0.59
	c0.023,0.086-0.115-0.426-0.114-0.207c0-0.013-0.225-0.055-0.061-0.18c0.078-0.059,0.444-0.004,0.546,0
	c0.515,0.019,1.121,0.004,1.117,0.678C47.208,31.56,46.654,31.625,46.154,31.61z M46.154,31.426
	c0.853,0.153,0.629-1.185,0.115-0.998C46.038,30.512,46.154,31.147,46.154,31.426z M47.396,32.427
	c-0.012,0.216,1.461,0.357,1.635,0.172c0.022-0.023,0.05-0.762,0-0.809c-0.319-0.299-0.322,0.499-0.421,0.58
	c-0.485,0.398-0.56-0.141-0.56-0.437c0-0.028-0.031-0.412,0-0.444c0.134-0.141,0.233,0.08,0.208,0.083
	c-0.082,0.01,0.164,0.255,0.286,0.125c0.032-0.034,0-0.312,0-0.343c0-0.187,0.041-0.274-0.074-0.343
	c-0.231-0.138-0.227,0.182-0.212,0.184c-0.006-0.001-0.127,0.106-0.208,0.016c-0.04-0.044-0.025-0.558,0-0.613
	c0.127-0.277,0.328-0.189,0.605,0.017c0.146,0.108-0.1,0.527,0.253,0.396c0.132-0.049,0.016-0.012,0.07-0.194
	c0.156-0.529-0.006-0.464-0.329-0.554c-0.151-0.042-1.105-0.101-1.222,0c-0.183,0.158,0.165,0.172,0.198,0.276
	C47.735,30.891,47.763,32.489,47.396,32.427z M49.227,32.427c0.014,0.328,0.559,0.167,0.847,0.172c0.138,0.002,0.324-0.032,0.46,0
	c0.518,0.121,0.252,0.565,0.478,0.654c0.376,0.147,0.363-0.569,0.261-0.78c-0.048-0.099-0.302,0.019-0.335-0.046
	c-0.028-0.055,0.024-0.149,0-0.207c-0.113-0.277-0.068-1.142,0-1.434c0.034-0.146,0.188-0.568,0.229-0.525
	c-0.117-0.123-0.821,0.001-0.862,0.088c0.091-0.194,0.217,0.434,0.229,0.52c0.043,0.317,0.115,1.053,0,1.351
	c-0.061,0.158-0.423,0.476-0.666,0.207c-0.243-0.269,0.04-1.717,0.056-1.99c-0.002,0.032,0.316-0.019,0.169-0.176
	c-0.039-0.041-0.476-0.01-0.525,0c-0.626,0.13-0.134,0.006-0.112,0.201C49.498,30.837,49.644,32.497,49.227,32.427z M51.454,32.427
	c-0.012,0.217,1.472,0.349,1.639,0.172c0.05-0.054,0.022-0.788,0-0.809c-0.317-0.301-0.34,0.514-0.421,0.58
	c-0.401,0.331-0.507-0.037-0.564-0.259c-0.018-0.068-0.049-0.572,0-0.623c0.134-0.14,0.239,0.079,0.212,0.083
	c-0.014,0.002,0.017,0.241,0.209,0.125c0.114-0.069,0.073-0.158,0.073-0.343c0-0.03,0.032-0.31,0-0.343
	c-0.116-0.121-0.37,0.107-0.282,0.123c0.056,0.01-0.085,0.2-0.212,0.1c-0.031-0.025-0.008-0.439,0-0.475
	c0.048-0.208,0.136-0.568,0.507-0.295c0.222,0.164-0.009,0.564,0.288,0.548c0.241-0.013,0.083-0.088,0.133-0.284
	c0.137-0.537-0.054-0.399-0.41-0.464c-0.189-0.034-1.02-0.104-1.14,0c-0.182,0.157,0.167,0.178,0.198,0.276
	C51.787,30.875,51.82,32.489,51.454,32.427z M54.392,32.599c0.21,0,0.516,0.065,0.708,0c0.334-0.113,0.053-0.052,0.059-0.176
	c-0.007,0.164-0.124-0.379-0.116-0.348c-0.066-0.281,0-0.648,0-0.937c0-0.19-0.052-0.456,0-0.637
	c0.026-0.09,0.347-0.025,0.233-0.196c-0.112-0.168-1.151-0.045-1.379-0.045c-0.117,0-0.494-0.071-0.582,0
	c-0.203,0.164,0.21,0.19,0.208,0.18c0.089,0.452,0,1.007,0,1.468c0,0.164,0.028,0.352,0,0.514c-0.001,0.007-0.434,0.006-0.184,0.176
	c0.241,0.164,1.287-0.122,0.601-0.176c0.001-0.429,0.002-0.858,0.003-1.287c0.001-0.48-0.165-0.696,0.341-0.699
	c0.474-0.003,0.339,0.157,0.34,0.607c0.001,0.46,0.002,0.919,0.003,1.379C54.373,32.354,54.446,32.454,54.392,32.599z M56.79,30.523
	c0.118,0.158-0.024,0.625,0.291,0.507c0.084-0.032,0.119-0.445,0.064-0.569c-0.151-0.342-0.583-0.199-1.038-0.199
	c-0.453,0-0.801-0.138-0.653,0.477c0.201,0.837,0.206-0.377,0.65-0.305c0,0.507,0.114,1.154,0,1.644
	c0.024-0.103-0.106,0.731-0.233,0.35c0.083,0.249,0.076,0.172,0.429,0.172c0.316,0,0.369,0.08,0.429-0.172
	c-0.078,0.327-0.249-0.326-0.233-0.279c-0.159-0.459,0-1.222,0-1.715C56.612,30.409,56.71,30.439,56.79,30.523
	C56.815,30.556,56.721,30.441,56.79,30.523z M58.968,30.703c0.219,0.459,0.23,1.292-0.151,1.688
	c-0.421,0.439-1.08,0.275-1.349-0.229C56.895,31.084,58.267,29.269,58.968,30.703C59.054,30.883,58.878,30.519,58.968,30.703z
	 M58.633,31.434c0-0.299,0.045-1.057-0.413-1.058c-0.497-0.002-0.425,0.905-0.415,1.21c0.009,0.272-0.023,0.812,0.334,0.881
	C58.671,32.568,58.633,31.753,58.633,31.434z M59.528,32.427c0-0.49,0-0.981,0-1.471c0-0.162,0.026-0.354,0-0.515
	c-0.008-0.047-0.459-0.026-0.111-0.18c0.333-0.147,1.29-0.024,1.458,0.324c0.158,0.328-0.123,0.572-0.105,0.795
	c0.017,0.215,0.34,0.869,0.442,1.047c-0.081-0.068-0.163-0.136-0.244-0.203c-0.166,0.46-0.771,0.375-1.162,0.375
	C59.527,32.599,58.981,32.508,59.528,32.427z M60.502,31.319c-0.011,0.004-0.018,0.009-0.03,0.013
	C60.499,31.351,60.509,31.347,60.502,31.319C60.491,31.324,60.502,31.327,60.502,31.319z M59.965,31.242
	c0.652,0.122,0.713-0.864,0.184-0.831C59.816,30.432,59.965,30.947,59.965,31.242z M59.965,32.415c1.117,0.118,0.335-1.333,0-0.977
	C59.857,31.554,59.965,32.24,59.965,32.415z"/>
</svg>
