<?xml version="1.0" encoding="utf-8"?>
<!-- Generator: Adobe Illustrator 16.0.0, SVG Export Plug-In . SVG Version: 6.00 Build 0)  -->
<!DOCTYPE svg PUBLIC "-//W3C//DTD SVG 1.1//EN" "http://www.w3.org/Graphics/SVG/1.1/DTD/svg11.dtd">
<svg version="1.1" id="Слой_1" xmlns="http://www.w3.org/2000/svg" xmlns:xlink="http://www.w3.org/1999/xlink" x="0px" y="0px"
	 width="115px" height="48px" viewBox="0 0 115 48" enable-background="new 0 0 115 48" xml:space="preserve">
<path fill="#6C423B" d="M24.295,0.224c-0.993,0.069-1.923,0.306-2.831,0.556c-0.915,0.251-1.636,0.663-2.278,1.125
	c-0.698,0.501-1.412,1.212-2.037,1.749l-0.667,0.623c-0.497,0.482-1.153,1.217-1.582,1.792c-0.243,0.324-0.468,0.649-0.687,1.015
	c-1.403,2.339-1.986,5.549-1.759,8.351c0.169,2.119,0.75,3.888,1.69,5.486c0.069,0.117,0.067,0.169,0.116,0.295
	c0.057,0.15,0.212,0.403,0.297,0.553c0.333,0.589,0.594,1.028,0.979,1.571c0.13,0.182,0.236,0.295,0.353,0.5
	c0.242,0.425,0.442,0.661,0.749,0.954c0.162,0.152,0.311,0.215,0.475,0.347c0.561,0.458,0.715,0.653,1.455,1.097
	c0.695,0.416,1.531,0.749,2.44,0.961c1.849,0.433,4.487,0.374,6.456,0.3c2.878-0.11,5.609-0.645,7.672-2.485
	c0.085-0.074,0.138-0.099,0.219-0.188l0.657-0.637c0.269-0.291,0.54-0.575,0.801-0.898c2.861-3.52,2.665-5.482,2.386-10.875
	c-0.098-1.948-0.308-4.117-1.151-5.624c-1.115-1.987-2.646-2.833-4.822-3.628c-1.373-0.5-1.052-0.42-2.141-1.264
	c-0.809-0.628-1.308-0.887-2.389-1.013C27.234,0.715,25.961,0.109,24.295,0.224 M24.242,2.28c1.272-0.125,2.439,0.339,3.726,0.565
	c1.089,0.191,1.033-0.013,2.061,0.813c0.274,0.217,0.516,0.427,0.809,0.631c1.239,0.859,2.493,0.844,3.933,1.846
	c2.103,1.46,2.225,3.688,2.375,6.248c0.054,0.918,0.1,1.837,0.137,2.757c0.074,1.866,0.123,3.271-0.746,4.937
	c-0.39,0.751-1.184,1.924-1.828,2.514l-0.718,0.72c-0.093,0.104-0.26,0.227-0.397,0.338c-1.688,1.366-3.844,1.7-6.101,1.803
	c-1.703,0.078-3.877,0.127-5.526-0.148c-1.834-0.307-2.848-1.046-3.782-1.967c-0.203-0.202-0.509-0.53-0.683-0.786
	c-0.183-0.271-0.327-0.66-0.479-0.959c-0.382-0.755-0.73-1.041-1.138-1.734c-0.746-1.272-1.208-2.642-1.377-4.38
	c-0.169-1.772,0.031-3.518,0.5-5.131C15.6,8.313,16.545,7.17,17.77,5.89l0.725-0.714c0.129-0.111,0.249-0.241,0.385-0.351
	c0.077-0.063,0.102-0.097,0.181-0.171c0.773-0.731,1.744-1.501,2.804-1.86C22.576,2.553,23.444,2.36,24.242,2.28z M29.498,5.745
	c2.368-0.17,4.883,1.318,5.757,3.484c0.173,0.425,0.506,1.558,0.087,1.877c-0.831,0.623-2.568-0.445-3.599-0.653
	c-1.292-0.264-2.694,0.037-3.781,0.694c-0.635,0.384-0.8,0.608-1.307,1.013c-0.777,0.62-1.004,0.609-1.432,0.026
	c-1.057-1.443-0.229-3.836,1.05-5.012C27.015,6.495,28.061,5.847,29.498,5.745 M5.625,31.217c0.013-0.367,0.237-0.274,0.89-0.274
	c0.419,0,2.001-0.048,2.27,0.033c0.069,0.127,0.083,0.319,0.061,0.507c-0.025,0.21-0.143,0.191-0.335,0.23
	c-0.789,0.152-1.377,0.866-1.951,1.427c-0.247,0.241-2.066,2.081-2.274,2.238c0.074,0.181,1.099,1.453,1.233,1.62
	c0.696,0.857,1.927,2.303,2.743,2.979c0.91,0.755,1.235,0.055,1.206,0.924c-0.009,0.293-0.188,0.263-0.458,0.261
	c-0.468-0.002-0.938,0-1.408,0c-0.905,0-0.586,0.072-1.04-0.396c-0.38-0.387-1.266-1.483-1.644-1.935l-1.876-2.436
	c-0.11-0.15-0.175-0.333-0.411-0.353c0,0.905-0.009,1.813,0.012,2.716c0.008,0.371,0.009,0.905,0.119,1.232
	c0.202,0.603,0.722,0.267,0.786,0.592c0.142,0.725-0.262,0.578-0.756,0.578c-0.31,0-2.563,0.028-2.67-0.027
	c-0.132-0.067-0.134-0.362-0.101-0.547c0.083-0.485,0.745,0.369,0.87-1.183c0.073-0.905,0.071-5.852,0.019-6.689
	c-0.09-1.451-0.732-0.791-0.876-1.145c-0.068-0.171-0.015-0.486,0.045-0.595c0.231-0.063,2.629-0.04,3.184-0.033
	c0.202,0,0.28,0.043,0.291,0.245c0.063,1.195-0.873-0.338-0.917,1.792c-0.015,0.715-0.014,1.457-0.002,2.174
	c0.657,0,0.517,0.026,1.15-0.597l1.749-1.74c0.176-0.174,0.758-0.631,0.666-1.046C5.783,31.58,5.603,31.878,5.625,31.217
	 M15.874,14.895c0.593-0.225,1.664,0.909,2.064,1.234c1.07,0.866,2.688,1.447,4.169,0.929c1.122-0.39,1.39-0.827,2.592-0.62
	c0.299,0.052,0.496,0.288,0.615,0.471c0.707,1.083-0.687,3.021-1.492,3.651c-0.662,0.52-1.34,0.909-2.228,1.091
	c-1.545,0.312-2.52-0.066-3.373-0.85c-1.129-1.039-2.103-2.463-2.518-4.109C15.582,16.222,15.397,15.075,15.874,14.895
	 M29.892,11.661c1.011-0.105,2.653,0.199,3.492,0.555c2.1,0.886,2.708,3.35,2.285,5.554c-0.074,0.394-0.293,1.276-0.479,1.547
	c-0.145,0.211-0.392,0.39-0.634,0.115c-0.132-0.145-0.241-0.449-0.31-0.689c-0.373-1.309-0.184-2.128-1.033-3.043
	c-0.612-0.657-1.672-1-2.866-1.176c-0.781-0.115-2.301,0.004-2.672-0.384c-0.174-0.184-0.22-0.477-0.152-0.791
	C27.741,12.33,28.893,11.767,29.892,11.661 M18.582,7.448c1.044-0.274,0.988,1.679,1.114,2.468c0.152,0.946,0.497,2.1,1.023,2.612
	c0.07,0.067,0.178,0.144,0.26,0.21c0.59,0.48,1.153,0.94,1.673,1.493c0.408,0.438,0.102,1.06-0.16,1.247
	c-0.387,0.278-0.908,0.321-1.477,0.247c-2.154-0.276-3.782-1.163-4.227-3.05c-0.244-1.041-0.116-2.232,0.226-3.171
	C17.306,8.7,17.833,7.643,18.582,7.448 M25.762,3.834c0.597-0.107,1.208,0.097,1.028,0.777c-0.178,0.677-0.972,0.822-1.822,1.991
	c-0.274,0.375-0.485,0.75-0.686,1.221c-0.197,0.463-0.333,0.958-0.404,1.502c-0.102,0.775,0.142,3.15-0.169,3.529
	c-0.257,0.312-1.124-0.275-1.301-0.404c-0.415-0.305-0.633-0.485-0.874-1.032c-0.664-1.51-1.138-3.013-0.37-4.572
	C21.921,5.313,23.573,4.226,25.762,3.834 M28.144,35.783c1.109-1.278,3.373-1.367,4.128,0.191c0.482,0.991,0.113,2.601,0.358,3.805
	c0.189,0.926,0.69,0.464,0.828,0.729c0.041,0.076,0.042,0.415,0.016,0.502c-0.068,0.245-0.632,0.148-0.875,0.148h-2.113
	c-0.178,0.002-0.326,0.002-0.359-0.173c-0.024-0.131-0.002-0.401,0.029-0.512c0.219-0.128,0.494-0.013,0.649-0.253
	c0.254-0.39,0.237-2.069,0.237-2.55c0-0.588-0.033-1.152-0.389-1.459c-0.642-0.546-1.933-0.242-2.379,0.859
	c-0.173,0.431-0.123,1.271-0.104,1.774c0.02,0.495,0.006,1.269,0.365,1.479c0.272,0.162,0.575-0.042,0.59,0.337
	c0.017,0.446,0.017,0.498-0.428,0.496l-2.782-0.006c-0.244-0.048-0.203-0.587-0.11-0.681c0.334-0.337,0.943,0.757,0.858-2.854
	c-0.012-0.512-0.015-1.221-0.325-1.521c-0.245-0.233-0.462-0.152-0.664-0.274c-0.155-0.097-0.054-0.604,0.076-0.683
	c0.083-0.051,1.354-0.253,1.563-0.29C28.509,34.637,28.077,35.258,28.144,35.783 M14.359,40.306
	c-0.105,0.069-0.155,0.186-0.329,0.331c-0.395,0.33-0.794,0.578-1.358,0.664c-0.86,0.134-1.557-0.156-2.026-0.569
	c-0.588-0.518-0.633-1.242-0.652-2.004c-0.019-0.925,0.158-2.34-0.553-2.81c-0.138-0.089-0.414-0.141-0.48-0.192
	c-0.096-0.07-0.119-0.448-0.057-0.595c0.067-0.16,0.382-0.11,0.576-0.11c0.449,0,0.899,0,1.35,0c0.732,0,0.727-0.107,0.684,0.627
	c-0.049,0.872-0.03,1.763-0.03,2.639c0,0.842,0.036,1.69,0.806,1.883c0.819,0.21,1.476-0.423,1.764-0.856
	c0.181-0.275,0.308-0.618,0.311-1.026c0.006-0.724,0.117-1.845-0.389-2.294c-0.409-0.359-0.726,0.004-0.72-0.642
	c0.002-0.304,0.06-0.334,0.361-0.332h2.028c0.384,0.014,0.267,0.319,0.244,1.058c-0.029,0.956-0.106,3.091,0.099,3.862
	c0.174,0.648,0.603,0.354,0.77,0.55c0.074,0.085,0.08,0.475,0.02,0.574c-0.084,0.141-0.382,0.097-0.577,0.097
	c-0.45-0.004-0.899-0.004-1.35,0C14.212,41.161,14.391,41.105,14.359,40.306 M36.181,35.848c0.384-0.225,1.065-0.335,1.534-0.095
	c0.451,0.232,0.495,0.767,0.514,1.39c-1.019,0.148-1.822,0.251-2.655,0.687c-0.665,0.349-1.368,1.006-1.198,2.117
	c0.137,0.909,0.907,1.439,1.946,1.38c0.482-0.025,0.901-0.203,1.243-0.418c0.553-0.35,0.668-0.639,0.844-0.787
	c0.039,0.07,0.106,0.332,0.156,0.445c0.354,0.771,1.425,0.85,2.158,0.593c0.171-0.063,0.282-0.11,0.252-0.329
	c-0.03-0.213-0.032-0.319-0.159-0.426c-0.334-0.076-0.661,0.221-0.839-0.251c-0.182-0.476-0.234-2.521-0.26-3.085
	c-0.033-0.701-0.186-1.316-0.561-1.671c-1.15-1.089-4.467-0.651-4.386,1.101c0.058,1.164,1.651,1.036,1.748,0.11
	C36.57,36.103,36.261,36.006,36.181,35.848 M38.262,38c0.304,1.278-1.288,2.655-2.041,1.946c-0.301-0.286-0.328-1.033,0.324-1.497
	C36.899,38.198,37.715,37.93,38.262,38z M27.237,16.424c1.083-0.178,1.317,1.169,1.389,1.92c0.138,1.419-0.126,2.93-0.91,4.06
	c-0.17,0.245-0.55,0.707-0.777,0.894c-2.432,1.988-4.517,0.759-3.481-0.633c0.272-0.367,0.942-0.894,1.285-1.239
	c0.146-0.145,0.253-0.29,0.391-0.43c0.521-0.531,1.021-1.447,1.179-2.197c0.167-0.787,0.037-1.076,0.099-1.514
	C26.478,16.798,26.764,16.5,27.237,16.424 M29.368,15.568c0.543-0.176,1.787,0.588,2.096,0.824c0.537,0.408,0.956,0.901,1.189,1.773
	c0.236,0.879,0.125,1.75-0.165,2.556c-0.278,0.775-1.113,2.269-1.941,2.518c-0.463,0.141-0.905-0.061-1.068-0.345
	c-0.191-0.33-0.017-0.911,0.044-1.293c0.208-1.282,0.286-2.816-0.033-4.057c-0.204-0.791-0.638-1.312-0.523-1.635
	C29.026,15.748,29.175,15.63,29.368,15.568 M19.35,30.746c0.12-0.033,0.222,0.015,0.352,0.049c0.376,0.097,0.235,0.386,0.219,1.185
	c-0.011,0.618-0.017,1.23-0.019,1.851c-0.006,1.498-0.053,4.116,0.05,5.57c0.096,1.335,0.574,0.861,0.822,1.058
	c0.111,0.085,0.145,0.629-0.071,0.69l-2.805,0.011c-0.429,0.002-0.453-0.052-0.412-0.526c0.03-0.361,0.354-0.118,0.602-0.336
	c0.302-0.266,0.276-1.123,0.294-1.595c0.03-0.831,0.077-4.752-0.045-5.548c-0.09-0.585-0.317-0.874-0.864-1.015
	c-0.249-0.063-0.321-0.142-0.17-0.607c0.066-0.203,0.437-0.254,0.624-0.315C18.394,31.066,18.879,30.872,19.35,30.746
	 M41.539,40.475c0.189-0.104,0.391-0.027,0.564-0.165c0.319-0.261,0.321-1.457,0.325-1.846c0.005-0.72,0.093-2.112-0.425-2.451
	c-0.43-0.279-0.801,0.052-0.581-0.729c0.061-0.214,0.247-0.188,0.499-0.231c0.206-0.036,0.399-0.072,0.601-0.106
	c0.4-0.072,0.828-0.213,1.22-0.087c0.242,0.077,0.179,0.264,0.164,0.53c-0.011,0.215-0.039,0.454-0.037,0.666
	c0.067-0.067,0.205-0.293,0.323-0.408c0.385-0.378,0.695-0.658,1.337-0.777c2.414-0.447,2.584,2.536,1.212,2.649
	c-0.434,0.035-0.77-0.187-0.891-0.512c-0.21-0.572,0.208-0.889,0.267-1.041c-0.233-0.342-0.95-0.045-1.161,0.122
	c-1.007,0.805-1.166,2.37-0.957,3.653c0.152,0.945,0.649,0.508,0.821,0.759c0.076,0.114,0.072,0.565-0.072,0.633
	c-0.111,0.052-2.133,0.025-2.349,0.025C41.82,41.159,41.299,41.336,41.539,40.475 M50.156,34.82c0.171-0.03,0.421-0.011,0.573,0.065
	c0.167,0.083,0.111,0.324,0.104,0.539c-0.029,1.087-0.085,3.013-0.007,3.976c0.115,1.39,0.771,0.808,0.905,1.14
	c0.055,0.14,0.033,0.501-0.054,0.571c-0.119,0.097-2.298,0.048-2.647,0.048c-0.189,0-0.527,0.054-0.612-0.087
	c-0.06-0.102-0.054-0.506,0.019-0.592c0.308-0.345,0.991,0.806,0.868-3.191c-0.013-0.409-0.068-0.84-0.265-1.126
	c-0.258-0.369-0.82-0.185-0.807-0.542c0.022-0.597,0.258-0.512,0.757-0.603C49.375,34.95,49.765,34.887,50.156,34.82 M23.399,34.82
	c0.175-0.03,0.417-0.011,0.575,0.063c0.167,0.079,0.11,0.326,0.104,0.54c-0.012,0.436-0.023,0.873-0.029,1.312
	c-0.01,0.842-0.049,1.866,0.025,2.691c0.035,0.394,0.118,0.813,0.433,0.939c0.181,0.072,0.422,0,0.478,0.194
	c0.047,0.165,0.038,0.499-0.077,0.567c-0.125,0.076-2.327,0.033-2.665,0.033c-0.201,0-0.517,0.05-0.589-0.108
	c-0.054-0.12-0.043-0.502,0.043-0.58c0.212-0.196,0.553,0.162,0.746-0.604c0.154-0.61,0.129-1.92,0.108-2.592
	c-0.021-0.612-0.093-1.21-0.679-1.372c-0.197-0.053-0.401-0.041-0.392-0.279c0.005-0.148,0.07-0.438,0.188-0.494L23.399,34.82
	 M25.201,13.19c0.501-0.076,1.544,0.277,1.629,1.078c0.095,0.881-0.333,1.521-1.109,1.625c-0.841,0.11-1.491-0.442-1.621-1.113
	C23.931,13.908,24.47,13.299,25.201,13.19 M22.912,31.202c0.765-0.145,1.377,0.403,1.487,1.022c0.136,0.763-0.423,1.389-1.029,1.497
	C21.729,34.009,21.235,31.52,22.912,31.202 M49.921,30.983c0.196-0.126,0.335,0.167,0.419,0.273
	c0.329,0.417,0.329,0.438,0.753,0.773c0.557,0.441,0.529,0.384,0.067,0.761c-0.078,0.063-0.141,0.114-0.208,0.172
	c-0.067,0.059-0.126,0.135-0.189,0.195c-0.074,0.074-0.105,0.105-0.193,0.185c-0.504,0.468-0.445,0.975-0.935,0.323
	c-0.918-1.221-1.584-0.953-0.831-1.532c0.416-0.319,0.46-0.427,0.768-0.757c0.067-0.072,0.111-0.126,0.172-0.206
	C49.816,31.074,49.816,31.051,49.921,30.983 M8.627,47.994c0.215-0.004,0.716,0.028,0.825-0.026
	c-0.012-0.155,0.042-0.056-0.124-0.114c-0.074-0.026-0.102-0.034-0.144-0.089c-0.143-0.175-0.102-1.095-0.1-1.33
	c0.009,0.006,0.019,0.011,0.023,0.012c0.31,0.187,0.628,0.412,1.141,0.121c0.639-0.361,0.753-1.62-0.057-1.894
	c-0.645-0.219-0.972,0.223-1.106,0.285l-0.008-0.315c-0.081-0.027-0.733,0.004-0.714,0.15c0.013,0.091,0.081,0.056,0.178,0.121
	c0.221,0.15,0.168,0.694,0.169,1.001c0.002,0.39,0.004,0.783-0.004,1.173c-0.018,1.128-0.318,0.624-0.308,0.85
	C8.438,48.024,8.503,47.996,8.627,47.994 M9.583,44.885c0.925-0.215,0.979,1.466,0.293,1.63c-0.45,0.11-0.778-0.257-0.791-0.658
	C9.065,45.315,9.114,44.997,9.583,44.885z M16.743,44.696c0.016,0.223-0.101,0.048-0.224,0.223
	c-0.128,0.177-0.089,1.146-0.078,1.373l0.598-0.795c0.196-0.269,0.399-0.561,0.597-0.805l0.601,0.002
	c0.014,0.229-0.198,0.05-0.276,0.347c-0.042,0.163-0.03,0.46-0.03,0.642c0,0.188-0.01,0.457,0.042,0.631
	c0.103,0.336,0.355,0.056,0.329,0.323h-1.041c-0.048-0.305,0.243,0.127,0.291-0.602c0.016-0.237,0.026-0.705-0.006-0.936
	l-1.15,1.537c-0.171,0-0.497,0.037-0.635-0.018c0.003-0.331,0.305,0.291,0.305-0.939c0-0.183,0.011-0.43-0.025-0.607
	c-0.071-0.351-0.291-0.143-0.281-0.36C15.896,44.651,16.548,44.685,16.743,44.696 M20.482,45.557
	c0.107-0.885-0.323-0.604-0.292-0.864h0.979c0.015,0.223-0.185,0.038-0.274,0.345c-0.051,0.173-0.045,1.05-0.003,1.229
	c0.079,0.337,0.296,0.141,0.277,0.363l-0.974,0.01c-0.043-0.245,0.167-0.006,0.258-0.344c0.043-0.163,0.045-0.408,0.034-0.583
	h-1.117c-0.061,1.092,0.33,0.605,0.301,0.917l-0.985,0.008c-0.017-0.341,0.308,0.258,0.308-0.957c0-0.175,0.014-0.464-0.027-0.628
	c-0.083-0.338-0.302-0.117-0.273-0.359h0.979c0.016,0.263-0.392-0.034-0.3,0.864H20.482z M42.106,45.557
	c0.107-0.885-0.323-0.604-0.293-0.864h0.98c0.015,0.223-0.186,0.038-0.275,0.345c-0.052,0.171-0.044,1.05-0.003,1.229
	c0.078,0.337,0.297,0.141,0.274,0.363l-0.972,0.01c-0.045-0.245,0.167-0.006,0.258-0.344c0.042-0.165,0.046-0.408,0.035-0.583
	h-1.117c-0.061,1.09,0.326,0.605,0.3,0.917l-0.985,0.008c-0.013-0.227,0.18-0.023,0.267-0.345c0.054-0.193,0.061-1.05,0.013-1.24
	c-0.083-0.338-0.3-0.117-0.271-0.359h0.978c0.013,0.209-0.15,0.058-0.261,0.301c-0.054,0.12-0.054,0.421-0.039,0.563H42.106z
	 M30.953,46.637c0.065-0.371-0.308,0.312-0.308-0.957c0-1.271,0.282-0.643,0.312-0.97c-0.115-0.061-1.382-0.078-1.688,0.104
	c-0.17,0.104-0.371,0.382-0.201,0.643c0.136,0.205,0.612,0.274,0.612,0.274c0.004-0.008,0.015,0.005,0.022,0.007
	c-0.278,0.078-0.375,0.236-0.52,0.431c-0.315,0.425-0.351,0.268-0.566,0.361l0.002,0.089c0.115,0.051,0.555,0.021,0.709,0.014
	c0.122-0.145,0.262-0.385,0.363-0.546c0.137-0.208,0.227-0.361,0.583-0.315c0,0.184,0.026,0.616-0.16,0.711
	c-0.143,0.072-0.111-0.032-0.152,0.107c0.043,0.076,0.078,0.05,0.201,0.05L30.953,46.637z M30.257,45.6
	c-1.126,0.235-1.145-0.995,0.013-0.746L30.257,45.6z M45.346,46.633c0.022-0.236-0.189-0.016-0.274-0.341
	c-0.039-0.146-0.126-1.299,0.107-1.44c0.159-0.097,0.167,0.047,0.159-0.163c-0.453,0-1.38-0.066-1.71,0.138
	c-0.152,0.1-0.323,0.354-0.179,0.627c0.108,0.198,0.356,0.227,0.642,0.267c-0.123,0.078-0.195,0.084-0.297,0.183
	c-0.39,0.368-0.208,0.508-0.79,0.622l0.003,0.112h0.705c0.475-0.562,0.337-0.881,0.946-0.873c0,1.118-0.334,0.531-0.305,0.873
	L45.346,46.633z M44.183,44.845c0.417-0.061,0.48-0.069,0.477,0.308c-0.004,0.445,0.107,0.477-0.353,0.463
	C43.624,45.598,43.661,44.919,44.183,44.845z M23.884,44.742c0.036-0.064-0.029-0.05,0.118-0.05h0.763
	c0.144,0,0.082-0.015,0.115,0.05c-0.041,0.128-0.012,0.036-0.153,0.109c-0.184,0.089-0.182,0.482-0.147,0.662
	c0.667,0.039,0.576-0.697,1.022-0.848c0.629-0.208,0.595,0.709,0.125,0.525c-0.162-0.065-0.099-0.218-0.085-0.354
	c-0.165,0.074-0.309,0.431-0.453,0.59c-0.073,0.084-0.136,0.087-0.212,0.167c0.379,0.141,0.418,0.164,0.62,0.46
	c0.214,0.313,0.199,0.379,0.645,0.468l0.004,0.107l-0.705,0.01c-0.364-0.492-0.536-1.001-0.961-0.969
	c-0.026,0.161-0.015,0.43,0.018,0.592c0.079,0.382,0.277,0.114,0.279,0.357c-0.231,0.043-0.622,0.018-0.873,0.018
	c-0.139,0-0.079,0.015-0.118-0.048c0.033-0.101,0.033-0.048,0.154-0.11c0.069-0.035,0.085-0.06,0.113-0.15
	c0.031-0.101,0.152-1.328-0.116-1.474C23.886,44.774,23.978,44.893,23.884,44.742 M36.405,46.258
	c0.125-0.211,0.23-0.425,0.354-0.646c0.09-0.16,0.326-0.519,0.291-0.717c-0.042-0.028-0.072-0.045-0.136-0.065
	c-0.157-0.045-0.107,0.025-0.146-0.087c0.043-0.08,0.039-0.052,0.171-0.054c0.076,0,0.158,0.004,0.236,0.004
	c0.16,0,0.326-0.015,0.482,0.007c0.014,0.264-0.125-0.091-0.438,0.468c-0.293,0.513-1.148,2.122-1.354,2.43
	c-0.351,0.52-0.796,0.361-0.877,0.152c-0.148-0.386,0.276-0.542,0.414-0.353c0.089,0.124-0.03,0.242-0.037,0.356
	c0.256,0.015,0.464-0.462,0.575-0.668c0.26-0.472,0.286-0.345,0.037-0.821c-0.146-0.28-0.286-0.559-0.428-0.833
	c-0.099-0.189-0.217-0.49-0.396-0.572c-0.152-0.066-0.167,0.01-0.17-0.148c0.078-0.034,1.013-0.038,1.093,0
	c-0.009,0.234-0.302,0.004-0.286,0.323c0.009,0.124,0.134,0.327,0.191,0.434C36.064,45.625,36.329,46.178,36.405,46.258
	 M33.605,44.692c0.008,0.213-0.137,0.044-0.252,0.278c-0.078,0.161-0.056,0.365-0.056,0.545c0.731,0.008,0.599-0.753,1.066-0.861
	c0.332-0.073,0.581,0.212,0.393,0.457c-0.057,0.074-0.213,0.141-0.335,0.066c-0.133-0.08-0.076-0.211-0.05-0.331
	c-0.188,0.008-0.215,0.387-0.596,0.69l-0.047,0.042c-0.001,0.002-0.009,0.009-0.014,0.015c0.425,0.196,0.398,0.13,0.64,0.501
	c0.457,0.693,0.616,0.215,0.612,0.524c-0.119,0.051-0.538,0.024-0.698,0.014c-0.146-0.154-0.267-0.387-0.388-0.563
	c-0.225-0.322-0.252-0.408-0.584-0.404c0,0.184-0.015,0.458,0.033,0.629c0.089,0.312,0.287,0.115,0.273,0.332l-0.985,0.01
	c-0.022-0.309,0.306,0.171,0.306-0.78c0-0.219,0.028-0.71-0.058-0.883c-0.115-0.226-0.267-0.072-0.249-0.271L33.605,44.692z
	 M12.347,46.258c0.123-0.194,0.239-0.427,0.354-0.643c0.092-0.174,0.329-0.508,0.292-0.723c-0.186-0.126-0.288,0-0.272-0.196
	l0.88-0.004c0.015,0.263-0.164-0.041-0.419,0.434c-0.103,0.192-0.212,0.383-0.312,0.569c-0.205,0.386-0.424,0.755-0.627,1.132
	c-0.188,0.348-0.444,0.896-0.711,1.053c-0.658,0.382-0.923-0.755-0.188-0.513c0.095,0.286-0.021,0.201-0.033,0.386
	c0.253,0.021,0.463-0.462,0.575-0.666c0.262-0.475,0.28-0.357,0.025-0.844c-0.148-0.284-0.298-0.561-0.429-0.831
	c-0.065-0.138-0.144-0.313-0.229-0.419c-0.155-0.188-0.336-0.114-0.322-0.297c0.168-0.012,0.992-0.034,1.088,0.014
	c-0.006,0.152-0.013,0.076-0.156,0.123c-0.28,0.095-0.032,0.455,0.063,0.632C12.013,45.638,12.257,46.161,12.347,46.258
	 M26.937,44.919c0.083-0.167,0.861-0.424,0.826,0.469c-0.178,0.083-0.61,0.091-0.894,0.228c-0.709,0.344-0.46,1.219,0.298,1.063
	c0.154-0.031,0.272-0.1,0.369-0.19c0.045-0.043,0.088-0.086,0.132-0.134c0.062-0.072,0.042-0.08,0.119-0.136
	c0.128,0.182,0.006,0.31,0.249,0.416c0.14,0.059,0.483,0.102,0.52-0.074c-0.07-0.056,0.022-0.006-0.07-0.032
	c-0.032-0.007-0.045-0.007-0.078-0.011c-0.144-0.029-0.185-0.06-0.216-0.301c-0.028-0.212-0.033-0.439-0.044-0.653
	c-0.023-0.489-0.017-0.812-0.499-0.916c-1.124-0.245-1.298,0.839-0.75,0.683C27.225,45.237,26.937,44.919,26.937,44.919
	 M27.77,45.586c0.127,0.561-0.523,1.069-0.806,0.74C26.603,45.909,27.386,45.438,27.77,45.586z M38.557,44.889
	c0.013,0.173,0.251,0.38,0.351,0.5c0.121-0.063,0.412-0.366,0.449-0.5c-0.096-0.161-0.146,0.019-0.123-0.196h0.67
	c0.057,0.235-0.154,0.01-0.484,0.384l-0.397,0.457l0.72,0.863c0.166,0.154,0.301,0.04,0.304,0.221
	c-0.215,0.042-0.779,0.026-1.02,0.012c0.003-0.217,0.119-0.054,0.182-0.188c0.041-0.09-0.13-0.251-0.201-0.335
	c-0.087-0.107-0.182-0.241-0.278-0.3c-0.138,0.107-0.182,0.201-0.293,0.317c-0.113,0.118-0.237,0.175-0.264,0.357
	c0.16,0.06,0.232-0.022,0.201,0.156h-0.768c-0.022-0.245,0.139,0.009,0.54-0.427c0.169-0.185,0.321-0.352,0.488-0.53
	c-0.052-0.099-0.523-0.685-0.653-0.776c-0.159-0.111-0.274-0.026-0.26-0.204l0.999-0.007C38.734,44.895,38.691,44.748,38.557,44.889
	 M23.49,46.414c-0.072,0.107-0.335,0.215-0.496,0.252c-0.63,0.15-1.339-0.115-1.389-0.872c-0.036-0.538,0.212-0.841,0.518-1.023
	c0.367-0.222,0.948-0.209,1.207,0.084c0.113,0.133,0.194,0.42,0.027,0.561c-0.199,0.169-0.485-0.027-0.353-0.261
	c0.06-0.106,0.188-0.099,0.092-0.235c-0.043-0.061-0.186-0.11-0.268-0.123c-0.81-0.102-0.996,0.922-0.614,1.382
	c0.29,0.351,0.797,0.249,1.242,0.104L23.49,46.414z M14.037,44.947c0.033,0.078,0.218,0.24,0.042,0.375
	c-0.369,0.279-0.655-0.567,0.305-0.69c0.849-0.103,0.996,0.476,0.724,0.749c-0.119,0.118-0.195,0.12-0.303,0.17l-0.083,0.047
	c0.807,0.122,0.658,0.716,0.342,0.942c-0.375,0.269-1.143,0.163-1.394-0.126l0.063-0.119c0.297,0.074,0.821,0.336,1.087,0.001
	c0.115-0.143,0.109-0.394-0.019-0.508c-0.141-0.116-0.395-0.104-0.602-0.104c0.03-0.27,0.145-0.083,0.398-0.197
	c0.137-0.061,0.229-0.187,0.22-0.392C14.797,44.69,14.268,44.722,14.037,44.947 M7.907,44.692c0.045-0.123,0.019-0.123,0.178-0.135
	v0.78c-0.171-0.008-0.109,0.022-0.166-0.15c-0.028-0.086-0.065-0.154-0.12-0.204c-0.121-0.115-0.328-0.121-0.52-0.121
	c-0.223,0-0.185,0.078-0.185,0.29c0,0.252-0.027,1.027,0.061,1.212c0.121,0.248,0.326,0.038,0.308,0.265l-1.046,0.008
	c-0.029-0.356,0.306,0.289,0.306-0.925c0-0.215,0.025-0.623-0.076-0.777c-0.119-0.18-0.25-0.035-0.232-0.233L7.907,44.692z"/>
</svg>
